M48
;Layer_Color=9474304
;FILE_FORMAT=2:4
INCH,TZ
;TYPE=PLATED
T01F00S00C0.0079
T02F00S00C0.0402
T03F00S00C0.0402
T04F00S00C0.1339
;TYPE=NON_PLATED
T05F00S00C0.1181
%
T01
X20450Y13800
Y14550
X21893Y14242
X22504Y13251
X25000Y13200
X25500
X25700Y14400
X25200
X24803Y14173
X26239Y15124
X27165Y15354
X27650Y15400
X28150
X28700
X29200
X29528Y15354
X29800Y15400
X30300
Y14900
Y14400
Y13800
Y13300
X29650Y13000
X29150
X28150
X27650
X27165Y12992
X26550Y11400
X26250
X28292Y11307
Y11557
Y11007
Y10707
Y10407
X29608Y10393
Y10643
Y10943
X29658Y11293
X29608Y11543
X23650Y15600
X32755Y15513
X32550Y14900
X31911Y14576
X31890Y14173
X31700Y13150
X32250
X32750
X33071Y12992
X33300Y13150
Y12600
X32800
X33850
X34350
X34850
X35400
X35500Y13100
X36000
X36650Y13050
X37200
X37700
X37795Y14173
X38950Y14050
Y14550
X38939Y14999
X38950Y15500
X38400
X37900
X35811Y15526
X35150Y14600
X35433Y14173
X34500Y14100
X34350Y13150
X33850
X34950Y13100
X35433Y11811
X34252
X33908Y11443
Y11043
X33958Y10643
Y10393
X32542Y10457
Y10857
Y11207
Y11507
X33483Y15350
X33759Y15338
X34100Y15265
X38950Y13500
X39150Y12100
X39400
X39370Y11024
X37795
X40945
Y12598
X42404Y12620
X44094Y12598
X44095Y13386
Y14173
X43701Y14173
X44095Y14961
X43800Y15450
X44760Y15335
X45700Y15550
X45669Y14961
Y14173
X46457
X45669Y13386
X45669Y11024
X44094
X42520Y14961
X42520Y15354
X41732Y14961
X41339Y15354
X40945Y14173
X47244Y14173
X48032
Y14961
X47244
Y13386
X47244Y12598
X48819
X49700Y12750
X50394Y11024
X48819
X51968
X53543Y12598
X54100Y13000
X55118Y12598
Y11024
X57650Y13200
X58900
X58268Y14173
X56693Y15748
X55118
X53543
X52400Y15950
X53543Y17323
X55118
Y18898
X53543
X51250Y18450
X50638Y18491
X50150Y18550
X49100Y18750
X49175Y17887
X48819Y16535
X48032
X47459Y16691
X47559Y19941
X48425Y20079
X49441Y20087
X49103Y19702
X48032Y22835
X47500Y22650
X48868Y24672
X49543Y24112
X50650Y24233
X51771Y24712
X53543Y23622
Y22047
X55118
X55950Y22187
X56090Y22328
X56231Y22469
X56336Y22619
X56693Y22047
Y20472
Y18898
Y17323
X58268
Y18898
Y20472
Y22047
Y23622
Y25197
Y26772
Y28346
X56693
Y29921
X58268
X53642Y31106
X52250Y29150
X50200Y28400
X49674Y28564
X49264Y28600
X49266Y28872
X49284Y28236
X49220Y27400
X47006Y27009
X47600Y28550
X47750Y30300
X48200Y30052
X47900Y25650
X53543Y26772
X55118
Y25197
Y23622
Y20472
X52223Y21412
X51473Y21543
X45900Y21450
X45859Y21241
Y20991
X45966Y21844
X45000Y21300
X44800Y20500
X44509Y20391
X45059Y20314
X45883Y19375
X45759Y18691
X45859Y18291
Y18041
Y17741
X44882Y18110
X45059Y18541
X44915Y17096
X44409Y17191
X44651Y16749
X44118Y16212
X43629Y16226
X43337Y16682
X43059Y17141
X43050Y17750
X42309Y17841
X42351Y18267
X42309Y18641
X42205Y19094
X42359Y19450
X42700Y19586
X43250Y19373
X43683Y19425
X43894Y19041
X43165Y20350
X43450Y20750
X42626Y20506
X41659Y20700
X41309Y20850
X40706Y20574
X40409Y20400
X40358Y20100
X40357Y19729
X40359Y19450
X40361Y18525
X40692Y18547
X40609Y18200
X40259
X39909
X39980Y18564
X39209Y18600
Y18800
Y19000
X39196Y18364
X39129Y17896
X39250Y17700
X39300Y17500
X39337Y17283
X39980Y17700
X40309
X40659Y17650
X41361Y17473
X41360Y18130
X41315Y18404
X41127Y18909
X39370Y19685
Y21260
X38976Y21260
X38800Y20900
X38583Y20472
X38050Y22250
X37300
X36993Y22251
X36350Y22200
X35650
X35118Y22251
X34550Y22250
X33206Y22215
X32700Y22200
X32250Y22250
X31850Y22200
X31949Y21099
X31649
X32349
X32750Y21200
X33050
X33362Y21183
X33700Y21200
X33750Y24450
X33000
Y25000
X32950Y25650
X33050Y26400
X33100Y27000
X33567Y27006
X33960
Y27399
X33567
Y27793
X33960
X34000Y28150
X33162Y28129
X32572Y27925
X32550Y27550
X31890Y28346
Y29528
X32950Y29450
X33500
X34000
X34252Y29528
X34561Y28700
X35747Y28538
X36097
X36447
X37250Y28700
Y28150
Y27650
X37795Y27165
Y28346
X38583Y28346
X39011Y28350
Y28550
X39023Y28742
X39035Y29214
X39066Y29422
X39009Y29662
X39209Y29736
X38583Y29921
Y30709
X38976Y30709
X39370Y30709
X40316Y30803
X40250Y30500
X40600Y31050
X41400Y30900
X41366Y30716
X41800Y30950
X42054Y30966
X42351Y30500
X42366Y29722
X42109Y29309
X42153Y28883
X42108Y28512
X42679Y28000
X42550Y27750
X42590Y27294
X42600Y26950
X43100Y26421
X43469Y26027
X43481Y25750
X43750Y25409
X43853Y24683
X44095Y24409
X45100Y24500
X45800Y24650
X45900Y24250
Y24000
Y23700
X44882Y23622
X45000Y23050
X44731Y22975
X44482Y23245
X43242Y23126
X43100Y23675
X42350Y23800
X42392Y24226
X42350Y24600
X42241Y25059
X42369Y25400
X42759Y25536
X42733Y26019
X41401Y26000
X41600Y26400
Y26800
X41350Y26809
X40393Y26711
X40122Y26769
X40160Y27050
X40300Y26449
X40573Y26500
X40399Y26051
X40398Y25807
X40400Y25409
X40402Y24587
X40700Y24609
X40650Y24159
X40300
X40012
X40021Y23613
X40350Y23659
X40541Y23772
X41400Y23809
X41401Y24089
X41356Y24363
X41076Y25014
X39239Y24970
X39250Y24759
Y24559
X39300Y23950
X39250Y23750
X39255Y23554
Y23354
X40555Y22307
X40850Y22159
X41250Y22109
X41950Y22300
X42300Y22150
X42650Y22400
X43334Y22033
X43744Y22260
X43835Y21800
X42419Y23356
X44799Y25914
X45227Y26096
X45391Y26259
X45039Y26471
X44850Y26850
X44400Y26800
X44550Y26350
X43841Y27312
X43819Y27681
X43539Y27682
X43249Y28169
X43050Y29400
X42966Y30084
X43758Y29986
X44217Y29959
X44758Y30062
X45201Y30100
X45661Y29409
Y29109
X45661Y28859
X45576Y28491
X44861Y28609
X45655Y27694
X45845Y27400
X45900Y27200
Y26950
X45894Y25415
X46208Y25415
X46480Y24941
X46283Y28167
X46362Y30296
X46800Y30219
X45730Y31024
X44441Y30926
X43636Y30860
X43683Y31183
X43321Y30945
X42750Y31200
X41373Y29852
X41096Y29840
X41161Y29017
X41120Y28743
X41024Y28335
X40050Y28500
X39782
X39711Y28950
X40061
X40111Y29450
X39850
X40400
X40033Y27750
X39011Y28150
X38583Y27559
X39370Y26772
Y25984
X38976Y25984
X37795Y24803
X37350Y24400
X36300Y24350
X36614Y24803
X35500Y24300
X34800Y24400
X34252Y24803
X34750Y26450
X35300
X35950
X36400
X36950
X35200Y27700
X35550Y29450
X36100
X36600
X37795Y29528
X38565Y29134
X37795Y30709
X36614Y30709
X35433
X34252
X33071
X31890
X32350Y25350
X32300Y24500
X31890Y24803
X32850Y17800
X33139Y17549
Y17249
X32850Y17250
Y16900
X33139Y16949
X33539Y16899
Y17199
Y17549
X34061Y17405
X34511
X34128Y16820
X34061Y16255
X33711
X33361
X34511
X34708Y15871
X35510Y16526
X36211Y16576
X36526
X36850Y16200
X37292Y15957
X37232Y16592
X35822Y16976
X38893Y16392
X40514Y16347
X40508Y16700
X40809Y16200
X41209Y16150
X40945Y15748
X41732
X42262Y15879
X42520Y15748
X43000Y15850
X41959Y16691
X42285Y17304
X45802Y16383
X46350Y15800
X46443Y18970
X31261Y17126
X31090Y17838
X28265Y17600
X27950
X27249Y17550
X27561Y18000
X27550Y16550
X26447Y16895
X26250Y17279
X25800
X25450
X25100
X25200Y17950
Y18250
Y18600
X24800
Y18250
Y17950
X24500
Y18450
Y19000
X22829Y18862
X22800Y19300
X23000Y18150
Y17500
X24450Y16402
X24698Y16547
X25300Y16300
X25591Y16308
X25800Y16100
X26900Y15650
X24154Y15949
X25867Y17844
X25800Y18429
X26250
X28650Y17200
X28600Y23600
X28750Y24500
X26900Y24650
X27300Y23550
X25900
X25697Y22238
X25247
X24647
X23700Y22050
X23400
X23012Y21597
X23550Y23500
X24400
X24000Y24800
X24300Y25650
X23475Y25522
X23622Y25984
X23500Y26350
X24017Y27556
X24411
Y27949
X24017
Y28343
X24411
X24400Y28649
X23888Y28657
X22950Y28500
X22900Y28200
X22949Y27920
X21541Y27547
Y26847
X19800Y26700
X19912Y26197
Y25597
Y25147
Y24497
X19800Y23950
X19833Y23613
X19862Y23147
X19812Y22647
Y22097
X19800Y27400
Y27950
X20891Y28550
X20950Y29150
Y29750
X21000Y30400
X22441Y29528
X23622
X24803
X24900Y29200
X26147Y29138
X26447
X26797
X27165Y29528
X27897Y29888
X28197
X29000Y29800
Y29250
Y28750
Y28300
Y27750
Y27250
X29528Y27165
X30709
X31012Y26997
X31000Y26700
X30962Y26347
X31000Y26000
Y25500
Y25100
X30850Y22350
X30250
X26197Y22238
X25100Y24700
X24803Y27165
X25984
X26100Y26700
X26650
X27150
X27165Y27165
X25650Y28200
X25984Y29528
Y30709
X27165
X28346
X28042Y31199
X29250Y30800
X30709Y30709
Y29528
X29950Y29250
Y28750
Y28200
X29528Y28346
Y29528
X31147Y28838
X30709Y28346
X24803Y30709
X23622
X23017Y31651
Y31901
Y32201
X22717
X22424Y32202
X22426Y31914
X22417Y31651
X22717
X22719Y31907
X22191Y32501
X22217Y33001
X22567Y33301
X22517Y33951
Y34751
X22894Y35311
X23392Y36201
X22150Y36095
X21300Y37100
X20900
X20550
Y37500
X20900
X21300
Y37950
X20950
X20550
X20150
Y37550
Y37150
X20000Y36500
X19900Y34500
X19950Y33500
X23571Y34071
X24950Y34050
X25300Y34200
X25294Y35398
X25060Y35196
Y36300
X25244Y36526
X25700Y36550
X25984Y37008
X26944Y36976
X26700Y37350
X27150Y37800
X27687Y37747
X27950Y38359
X27161Y38509
X26897Y38609
X26499
X26070Y38580
X26012Y39354
X25739Y39308
X25462Y39322
X24724Y39285
X24336Y39925
X23550Y40550
X23100Y40362
X22849Y40074
Y39624
Y39274
X22201Y39250
Y39700
X21850Y40050
X21407Y40733
X20315Y40400
X20346Y41245
X20319Y41643
X20472Y42520
X21389Y42253
X22047Y42520
X21997Y43035
X22397Y43035
X22347Y43885
X21997
X22265Y44303
X22347Y45435
X21850Y45550
X21600Y45750
X21976Y46407
X22697Y46849
X22805Y45593
X23050Y45400
X23259Y45113
X23664Y45200
X24200Y45150
X24450Y45000
X24349Y45835
X24707Y45835
Y46192
X24736Y46824
X26303Y46798
X26786Y46874
X26550Y46311
X26813Y45824
X26703Y44340
X26850Y44100
X26681Y43880
X26388Y43874
X25845Y43860
X25800Y44300
X25450Y43972
X25463Y44675
X24736Y43874
X24475Y43486
X24809Y43024
X25475Y43059
X25449Y42652
X25400Y42350
X25052Y42496
X24559Y42353
X24310Y42476
X24185Y42728
X23381Y42642
X22786Y42424
X22800Y41900
X22505Y41926
X22528Y41567
X22800Y41500
X24300Y41700
X24450Y41300
X24700Y41124
Y41522
X24747Y42149
X24945Y41956
X25771Y41114
X26091Y41295
X26200Y40451
X26772Y40945
X27996Y40889
X28050Y41161
X28064Y41498
X28045Y42098
X28086Y42524
X28500Y43550
X28554Y43822
X28333Y44281
X28400Y44550
Y44827
X29054Y44872
X29000Y44600
Y44250
X29050Y43600
X29600Y43650
X29703Y43907
X30647Y43908
X30997
X30947Y44358
X30997Y45458
X30250Y45772
X29921Y45669
X29050Y45800
X29150Y46300
X30626Y46429
X30647Y43058
X31047Y43058
X31080Y41952
X31106Y41549
X29921Y40945
X29664Y41948
Y42348
Y42748
X29921Y42520
X30050Y43261
X28000Y43950
X27953Y44261
X26450Y42900
X23650Y43200
X23500Y44000
X23598Y44450
X24096Y45723
X20200Y46600
X20300Y43900
Y39500
X19920Y39200
X21850Y38650
X22200Y38586
X22849Y38161
X23344
X23636Y38124
X23750Y37550
X24050
X24350
X25489Y37859
X26298Y39285
X26643Y39323
X27240Y39402
X27513Y39325
X28104Y39648
X28050Y40199
X28849Y40100
X28936Y40374
X28876Y40645
X28850Y41311
X29000Y38150
X29134Y37008
X28700Y37150
X28194Y36726
X28444Y36126
Y35676
X29134Y35433
X29528Y35433
X29134Y34646
Y33858
X28492Y33949
X28133Y33997
X28346Y34252
X27944Y34826
X26744Y34876
X26687Y34458
X26743Y34187
X26994Y33526
X25990Y33554
X25243Y33025
X25197Y32283
X25984
X25984Y31890
X24803
X24409Y31496
Y32283
Y33071
X24030Y32907
X26644Y32626
X27744Y32976
X29134Y33071
X29792Y32699
X30055Y32690
X30343Y32692
X30342Y32399
X30048Y32397
X29792Y32399
Y32099
X30042
X30342
X30642Y33149
X31142Y32899
X29528Y34252
Y36614
X29921Y36220
X30709Y35433
X26894Y36126
X22994Y37650
X23450Y39050
X28792Y31299
X31442Y32549
X31496Y33071
X32092Y32599
X32892
X33071Y31890
X33452Y31772
X33502Y32172
X33942Y31449
X35450Y31350
X35850
X36300
X36750
X36400Y31800
X36174Y32457
X36050Y32750
X35544Y32726
X35702Y32073
X36894Y32276
X37244Y33176
X36993Y33837
X36937Y34108
X36994Y34526
X38194Y34476
X38700Y34300
Y34000
X38344Y33576
X38600Y33100
Y32650
Y32100
X37994Y32626
X40305Y32595
X40305Y32395
Y32195
Y32795
X40300Y33200
Y33400
Y33600
Y33800
X41071Y33400
X41452Y33428
X41750Y33450
X41700Y33000
X41350
X41000
X41071Y32563
X41400Y32500
X41750Y32450
X42450Y32650
X42451Y32931
X42406Y33204
X42100Y33851
X41450Y34250
X41448Y34529
X41449Y34900
X41500Y35200
X41797Y35374
X42518Y35500
X42400Y35650
X43006Y36006
X43704Y35306
X43708Y34677
X43450Y34250
X43341Y33850
Y33441
X43311Y33093
X43260Y32641
X43300Y32250
X43093Y31922
X44135Y31964
Y32550
X45150Y31850
X45500Y31991
X45669Y32283
X45959Y31963
X46400Y32050
X46063Y33071
X46150Y33341
X46850Y33491
X46281Y34969
X45849Y34737
X45559Y35232
X45300Y36150
X46457Y36220
X45973Y37250
X45757Y37064
X45269Y37412
X44801Y37833
X44986Y38333
X44372Y38544
X44100Y38598
X43702
X43025Y38489
X42731Y38534
X42700Y37853
X42155Y37613
X41826Y37594
X41750Y37196
X41481Y37400
X41223Y37500
X40950Y37550
X40592Y37492
X40321Y37550
X40100Y37749
X40400Y36950
X40945Y36220
X40847Y38113
X40659Y39041
X39997Y39263
X40014Y39803
X39677Y39800
X39400
X39000Y39300
X38950Y40878
X39461
X39708Y41518
X40009Y41526
X40023Y41249
X40500Y41079
X40700Y40481
X41561Y39900
X41918Y39291
X42188Y39353
X43509Y39274
X43531Y39577
Y39854
X43904Y39265
X44511Y39420
X44774Y39333
X45414Y39662
X45297Y39913
X46086Y40038
X46140Y40310
X46384Y39672
X46550Y39450
X46450Y38800
X46427Y37851
X46063Y37795
X46700Y38050
X43863Y37349
X43589Y37491
X44550Y35550
X44243Y35157
X44559Y34710
X44651Y34250
X45332Y34219
X41563Y31412
X41350Y31575
X40157Y31496
X38694Y35326
Y35776
X38444Y36351
X38300Y37000
X38800Y37600
X38150Y38450
X36600Y38439
X35797Y38540
X35539Y38641
X35145
X34750Y38550
X34662Y39393
X34389Y39347
X34075Y39549
X34953Y39323
X35220Y39398
X35896Y39486
X36146Y39341
X36756Y39664
X36736Y39941
X37498Y40125
X37501Y40402
X37636Y41486
X36714Y41537
X36691Y41814
Y42150
Y42791
Y43989
Y44413
X35519Y44220
X35372Y44460
X35350Y44000
X34900Y43950
X34489Y43900
X34326Y44302
X34400Y44850
X34669Y44783
X34102Y44900
X33097Y45077
X32800Y45200
X32325Y45278
X31700Y45422
X31447Y45608
X31347Y46858
X33386Y46863
X33357Y46214
Y45857
X32999Y45857
X32746Y45745
X33161Y43958
X33433Y43904
X33858Y43920
X33770Y43047
X33464Y43068
X34116Y43086
X34264Y42227
X35100Y42050
X35300Y41300
X34750
X34451Y41141
X33629Y41602
X33350Y41600
X33100Y41414
X33105Y41137
X32950Y41739
X33123Y41955
X33250Y42350
X32964Y42537
X32075Y42726
X31436Y42463
X31450Y41939
Y41539
X31496Y40945
X32150Y40632
X31436Y39941
Y39711
Y39313
X32100Y39095
X32286Y38163
X33050Y38750
X33000Y39941
X33071Y36614
X33071Y36220
X33858
X34252Y36614
X34350Y37050
X35000
X35144Y35926
X35494Y36176
X35950Y36150
X36614Y36614
X37118Y36550
X36950Y37000
X36311Y37745
X37149Y35768
X35550Y35000
X35150Y34800
X35267Y33712
X34983Y33450
X34172Y33022
X36275Y33298
X33392Y35449
X32272Y35461
X31872
X31496Y35433
Y36220
X31890Y36614
X32283Y36220
X33125Y43508
X35173Y43092
X35569Y43044
X37700Y43639
X38897Y43635
X39150Y43900
X39547
X39488Y44499
X38996Y44349
X38611Y44112
X38600Y43300
X38314Y42787
Y42387
Y41987
X38624Y41348
X38500Y41100
X38231Y41033
X36653Y41100
X36440Y40919
X39717Y41906
X40011Y41889
X39997Y42413
X39637Y42302
X39597Y43050
X39197Y43050
X40636Y42676
X41520Y42495
X41923Y42346
X41800Y41850
X41516Y41651
X41600Y41350
X42358Y41477
X42350Y41200
X43266Y41002
X45207Y40878
X45261Y41150
X45275Y41487
X45205Y41800
X45211Y42080
X44751Y42043
X44854Y41746
X45297Y42509
X45211Y43939
X45247Y44363
X46259Y43591
X46261Y45789
X46361Y46289
X43782Y46300
X43641Y46787
X44038Y46863
X44072Y45861
X43550Y44900
Y44150
X43518Y43863
X43050Y43850
X43044Y44179
X42661Y44601
X42377Y43939
X41947Y43863
X41686Y43490
X42020Y43054
X42317Y42997
X42737Y43092
X41700Y44800
X41650Y45077
X41549Y45849
X41907Y45849
Y46207
X41944Y46834
X41296Y45738
X40800Y45300
X40250Y45415
X39997Y45600
X39547Y45450
X39000Y45550
X38800Y45765
X39176Y46351
X39897Y46850
X39150Y45000
X37700Y45839
X37800Y46339
X35200Y46350
X34953Y46837
X35469Y45869
X46061Y41300
X47099Y41211
X46875Y41937
Y42337
Y42737
X47520Y42573
X47297Y43212
X47450Y43650
X47147Y43962
X47250Y45150
X48033Y45292
X48393Y45580
X48708Y45622
X49650Y45200
X49967Y44954
X50250Y45850
X50073Y46570
X50447Y46612
X50900Y46750
X51256Y46562
X51300Y46200
X51256Y45212
X51706Y45487
X52156Y45762
X52312Y46295
X52552Y45455
X53543Y45669
Y44094
X53297Y43062
X53047
X52199Y43955
X52197Y44412
X52000Y44800
X50394Y44094
X50347Y43862
X50491Y43162
X50097Y43062
X49847
X49547
X48950Y43200
X48522Y42915
X48047Y43162
X48904Y43928
X48850Y44200
X48997Y44512
X49264Y46543
X49647Y46612
X47997Y46662
X47650Y46800
X48497Y41462
X47749Y39787
X47472Y39796
X47200Y39850
Y39450
X47244Y37795
X47419Y37300
X47182Y36291
Y36041
X47032Y35742
X46944Y34256
X47550Y33800
X46950Y33091
Y32841
X47049Y31697
X48550Y31600
X48650Y34741
X50050Y34550
Y35150
X50600Y36200
X52250Y36224
X53543Y36220
X53475Y37150
X53231Y37151
X53800Y37150
X55118Y37795
Y36220
Y34646
Y33071
Y31496
X53647Y31521
X53648Y31313
X53655Y31725
X52859Y33549
X53543Y34646
X53534Y39157
X53325Y38950
X53750Y39375
X52100Y39635
X51600Y39600
X50300Y39775
X50400Y40050
X50250Y38850
X50154Y38474
X50300Y38211
X51968Y40945
X51747Y41362
X50737Y42473
X51262Y43068
X55118Y44094
X56500Y42600
X56700Y42400
X56800Y40300
X56500Y40250
X56450Y38850
X56950Y38900
X58268Y39370
Y37795
Y36220
X56693
X58268Y33071
Y31496
X57050Y46000
X56755Y46002
X56350Y49400
X51906Y49201
X51506
X51535Y48564
X51256Y48562
X51906Y48563
X52206Y48512
X52380Y48215
X52656Y47612
X52506Y47399
X50906Y47912
X50456Y48262
X50434Y48560
X50534Y48917
X50006Y49012
Y48662
Y48312
X49456Y48262
X49506Y48612
X49378Y48917
X49402Y49729
X49202
X49602Y49752
X49802Y49782
X50206Y49729
X50406
X50606Y49752
X50806Y49712
X50210Y47606
X49937Y47561
X49656Y47562
X49264Y46942
X47956Y47712
X47900Y48100
X48154Y48407
X48156Y49001
X48556
X47400Y48500
X46988Y48737
X47150Y47400
X46411Y47300
X46061Y48039
X45669Y48819
X44094
X43997Y47813
Y47313
X43525Y47700
X41911Y47989
X41697Y48400
X41550Y49100
X41142Y49034
X40500Y49715
X39750Y48315
X39950Y47415
X39370Y47244
X37850Y47350
X37500Y48089
X37795Y48819
X36220
X35436Y47863
Y47363
Y46913
X34964Y47750
X34400Y48700
X33147Y48408
X33350Y48039
X33237Y47086
X32948
X32347Y47058
X31400Y47422
X31947Y49577
X32592Y49041
X40897Y47050
X41403Y47036
X41798
X31200Y48322
X28850Y48050
X29200Y47311
X28346Y48819
X26772
X26649Y49226
X26786Y47824
Y47324
X26314Y47711
X24700Y48000
X24497Y48385
X25197Y48819
X23942Y49019
X23900Y49800
X23300Y49700
X22650Y49550
X22850Y48650
X22800Y48239
Y47861
X22842Y47304
X22365Y46934
X23697Y47035
X24189Y47047
X24587
X20472Y47244
T02
X23959Y14982
X25141
X36959
X38141
X44981Y14931
X46163
X49425Y14881
X50606
X53950
X55131
X55699Y24209
Y25391
X54518
Y24209
X54519Y31257
X55700
Y32438
X54519Y32438
X55700Y33619
Y34800
X54519
Y35981
Y37162
X55799Y40910
Y42091
X54618
Y43272
X55799
X54618Y44454
Y45635
T03
X23959Y13801
X25141
X36959
X38141
X44981Y13750
X46163
X49425Y13700
X50606
X53950
X55131
X55699Y26572
Y27753
X54518
Y26572
X54519Y33619
X55700Y35981
Y37162
X54618Y40910
X55799Y44454
Y45635
T04
X21122Y11575
X58117
Y48575
X21122
T05
X24550Y12100
X37550
X45572Y12049
X50016Y11999
X54541
X57400Y24800
Y27162
X57401Y30410
Y38009
X57500Y41761
Y44800
M30
