G04*
G04 #@! TF.GenerationSoftware,Altium Limited,Altium Designer,26.2.0 (7)*
G04*
G04 Layer_Color=16711935*
%FSLAX25Y25*%
%MOIN*%
G70*
G04*
G04 #@! TF.SameCoordinates,CFA4B7CB-C87C-44D2-A143-D88584ED512B*
G04*
G04*
G04 #@! TF.FilePolarity,Positive*
G04*
G01*
G75*
%ADD11C,0.00394*%
%ADD15C,0.00787*%
%ADD173C,0.00500*%
%ADD178C,0.00000*%
%ADD179C,0.00100*%
%ADD180R,0.11496X0.02436*%
G36*
X263652Y477384D02*
X263649D01*
X263641D01*
X263627D01*
X263605Y477380D01*
X263583Y477377D01*
X263558D01*
X263496Y477366D01*
X263430Y477355D01*
X263365Y477333D01*
X263306Y477311D01*
X263281Y477297D01*
X263259Y477278D01*
X263255Y477275D01*
X263245Y477260D01*
X263226Y477238D01*
X263208Y477209D01*
X263186Y477169D01*
X263172Y477126D01*
X263157Y477071D01*
X263154Y477013D01*
Y476991D01*
X263157Y476969D01*
X263161Y476936D01*
X263168Y476903D01*
X263175Y476867D01*
X263190Y476831D01*
X263208Y476794D01*
X263212Y476791D01*
X263219Y476780D01*
X263234Y476765D01*
X263248Y476743D01*
X263274Y476725D01*
X263299Y476703D01*
X263328Y476685D01*
X263365Y476671D01*
X263368D01*
X263383Y476663D01*
X263408Y476660D01*
X263441Y476652D01*
X263485Y476645D01*
X263539Y476641D01*
X263605Y476634D01*
X263681D01*
X265418D01*
Y476299D01*
X263700D01*
X263696D01*
X263685D01*
X263670D01*
X263649D01*
X263619Y476303D01*
X263590D01*
X263521Y476310D01*
X263441Y476317D01*
X263357Y476332D01*
X263281Y476354D01*
X263208Y476379D01*
X263205D01*
X263201Y476383D01*
X263179Y476394D01*
X263150Y476412D01*
X263110Y476438D01*
X263070Y476474D01*
X263026Y476514D01*
X262982Y476565D01*
X262946Y476623D01*
X262942Y476630D01*
X262931Y476652D01*
X262917Y476685D01*
X262902Y476732D01*
X262884Y476791D01*
X262870Y476856D01*
X262859Y476929D01*
X262855Y477009D01*
Y477042D01*
X262859Y477064D01*
X262862Y477093D01*
X262866Y477122D01*
X262880Y477198D01*
X262902Y477278D01*
X262935Y477362D01*
X262957Y477406D01*
X262982Y477446D01*
X263012Y477482D01*
X263044Y477519D01*
X263048Y477522D01*
X263052Y477526D01*
X263066Y477533D01*
X263081Y477544D01*
X263099Y477559D01*
X263124Y477573D01*
X263154Y477588D01*
X263186Y477606D01*
X263223Y477621D01*
X263266Y477635D01*
X263310Y477650D01*
X263361Y477664D01*
X263416Y477671D01*
X263477Y477682D01*
X263539Y477686D01*
X263609D01*
X263652Y477384D01*
D02*
G37*
G36*
X263605Y475568D02*
X263601D01*
X263594Y475564D01*
X263579Y475560D01*
X263561Y475557D01*
X263539Y475553D01*
X263514Y475546D01*
X263459Y475527D01*
X263394Y475502D01*
X263332Y475469D01*
X263274Y475433D01*
X263223Y475389D01*
X263219Y475382D01*
X263205Y475367D01*
X263186Y475338D01*
X263168Y475302D01*
X263146Y475258D01*
X263128Y475204D01*
X263113Y475142D01*
X263110Y475076D01*
Y475054D01*
X263113Y475040D01*
X263117Y475000D01*
X263128Y474949D01*
X263146Y474891D01*
X263172Y474829D01*
X263208Y474767D01*
X263259Y474709D01*
X263266Y474701D01*
X263288Y474683D01*
X263321Y474661D01*
X263365Y474632D01*
X263419Y474603D01*
X263481Y474581D01*
X263554Y474563D01*
X263634Y474556D01*
X263638D01*
X263645D01*
X263656D01*
X263670Y474559D01*
X263710Y474563D01*
X263758Y474574D01*
X263816Y474588D01*
X263874Y474614D01*
X263932Y474650D01*
X263987Y474698D01*
X263994Y474705D01*
X264009Y474723D01*
X264031Y474752D01*
X264056Y474792D01*
X264082Y474843D01*
X264104Y474905D01*
X264118Y474974D01*
X264125Y475051D01*
Y475083D01*
X264122Y475109D01*
X264118Y475142D01*
X264111Y475178D01*
X264104Y475222D01*
X264093Y475269D01*
X264366Y475233D01*
Y475214D01*
X264362Y475200D01*
Y475153D01*
X264369Y475113D01*
X264376Y475065D01*
X264387Y475011D01*
X264406Y474949D01*
X264431Y474891D01*
X264464Y474829D01*
Y474825D01*
X264468Y474821D01*
X264482Y474803D01*
X264508Y474778D01*
X264540Y474749D01*
X264588Y474719D01*
X264642Y474694D01*
X264704Y474676D01*
X264740Y474669D01*
X264781D01*
X264784D01*
X264788D01*
X264810D01*
X264839Y474676D01*
X264879Y474683D01*
X264923Y474698D01*
X264970Y474716D01*
X265017Y474745D01*
X265061Y474785D01*
X265065Y474789D01*
X265079Y474807D01*
X265097Y474832D01*
X265119Y474865D01*
X265137Y474909D01*
X265156Y474960D01*
X265170Y475018D01*
X265174Y475083D01*
Y475113D01*
X265166Y475145D01*
X265159Y475189D01*
X265145Y475236D01*
X265126Y475284D01*
X265097Y475335D01*
X265061Y475382D01*
X265057Y475386D01*
X265039Y475400D01*
X265014Y475422D01*
X264977Y475448D01*
X264930Y475473D01*
X264872Y475498D01*
X264802Y475520D01*
X264722Y475535D01*
X264777Y475844D01*
X264781D01*
X264791Y475841D01*
X264806Y475837D01*
X264828Y475833D01*
X264853Y475826D01*
X264882Y475815D01*
X264952Y475793D01*
X265032Y475757D01*
X265112Y475713D01*
X265188Y475659D01*
X265257Y475589D01*
X265261Y475586D01*
X265265Y475578D01*
X265272Y475568D01*
X265283Y475553D01*
X265298Y475535D01*
X265312Y475509D01*
X265327Y475484D01*
X265345Y475451D01*
X265374Y475378D01*
X265403Y475295D01*
X265421Y475196D01*
X265428Y475145D01*
Y475054D01*
X265425Y475014D01*
X265418Y474967D01*
X265407Y474909D01*
X265388Y474843D01*
X265367Y474778D01*
X265337Y474712D01*
Y474709D01*
X265334Y474705D01*
X265323Y474683D01*
X265301Y474650D01*
X265276Y474614D01*
X265239Y474570D01*
X265199Y474527D01*
X265152Y474483D01*
X265097Y474446D01*
X265090Y474443D01*
X265072Y474432D01*
X265039Y474417D01*
X264999Y474399D01*
X264952Y474381D01*
X264897Y474366D01*
X264835Y474356D01*
X264773Y474352D01*
X264766D01*
X264744D01*
X264715Y474356D01*
X264675Y474363D01*
X264628Y474374D01*
X264577Y474392D01*
X264526Y474414D01*
X264475Y474443D01*
X264468Y474446D01*
X264453Y474457D01*
X264427Y474479D01*
X264398Y474508D01*
X264366Y474545D01*
X264329Y474588D01*
X264297Y474639D01*
X264264Y474701D01*
Y474698D01*
X264260Y474690D01*
X264256Y474679D01*
X264253Y474665D01*
X264238Y474625D01*
X264216Y474574D01*
X264187Y474516D01*
X264151Y474457D01*
X264104Y474403D01*
X264049Y474352D01*
X264042Y474348D01*
X264020Y474334D01*
X263983Y474312D01*
X263936Y474290D01*
X263878Y474268D01*
X263809Y474246D01*
X263729Y474232D01*
X263641Y474228D01*
X263638D01*
X263627D01*
X263609D01*
X263587Y474232D01*
X263558Y474235D01*
X263525Y474243D01*
X263488Y474250D01*
X263448Y474257D01*
X263361Y474286D01*
X263314Y474308D01*
X263270Y474330D01*
X263223Y474359D01*
X263175Y474392D01*
X263128Y474428D01*
X263084Y474472D01*
X263081Y474476D01*
X263073Y474483D01*
X263063Y474497D01*
X263048Y474516D01*
X263030Y474537D01*
X263012Y474567D01*
X262990Y474599D01*
X262971Y474639D01*
X262950Y474679D01*
X262928Y474727D01*
X262910Y474774D01*
X262891Y474829D01*
X262877Y474887D01*
X262866Y474949D01*
X262859Y475011D01*
X262855Y475080D01*
Y475113D01*
X262859Y475134D01*
X262862Y475164D01*
X262866Y475196D01*
X262873Y475233D01*
X262880Y475273D01*
X262902Y475360D01*
X262939Y475451D01*
X262961Y475498D01*
X262986Y475542D01*
X263019Y475586D01*
X263052Y475629D01*
X263055Y475633D01*
X263063Y475640D01*
X263073Y475651D01*
X263088Y475662D01*
X263106Y475680D01*
X263132Y475699D01*
X263157Y475720D01*
X263190Y475742D01*
X263226Y475764D01*
X263263Y475786D01*
X263350Y475826D01*
X263452Y475859D01*
X263507Y475870D01*
X263565Y475877D01*
X263605Y475568D01*
D02*
G37*
G36*
X264253Y473919D02*
X264297D01*
X264344Y473915D01*
X264398Y473911D01*
X264511Y473901D01*
X264631Y473882D01*
X264752Y473860D01*
X264806Y473846D01*
X264861Y473831D01*
X264864D01*
X264872Y473828D01*
X264886Y473820D01*
X264904Y473813D01*
X264930Y473806D01*
X264955Y473791D01*
X265017Y473762D01*
X265083Y473726D01*
X265152Y473678D01*
X265221Y473624D01*
X265279Y473558D01*
Y473555D01*
X265286Y473551D01*
X265294Y473540D01*
X265301Y473525D01*
X265316Y473507D01*
X265327Y473486D01*
X265356Y473431D01*
X265381Y473365D01*
X265407Y473289D01*
X265421Y473198D01*
X265428Y473100D01*
Y473067D01*
X265425Y473027D01*
X265418Y472979D01*
X265407Y472925D01*
X265392Y472867D01*
X265374Y472805D01*
X265345Y472747D01*
Y472743D01*
X265341Y472739D01*
X265330Y472721D01*
X265312Y472692D01*
X265286Y472656D01*
X265250Y472615D01*
X265210Y472572D01*
X265163Y472532D01*
X265108Y472492D01*
X265101Y472488D01*
X265083Y472474D01*
X265050Y472459D01*
X265003Y472434D01*
X264948Y472412D01*
X264886Y472383D01*
X264813Y472357D01*
X264733Y472335D01*
X264730D01*
X264722Y472332D01*
X264711Y472328D01*
X264693Y472324D01*
X264671Y472321D01*
X264646Y472317D01*
X264613Y472310D01*
X264577Y472306D01*
X264537Y472299D01*
X264493Y472295D01*
X264442Y472292D01*
X264391Y472284D01*
X264333Y472281D01*
X264275D01*
X264209Y472277D01*
X264140D01*
X264136D01*
X264122D01*
X264096D01*
X264067D01*
X264027Y472281D01*
X263983D01*
X263936Y472284D01*
X263885Y472288D01*
X263769Y472299D01*
X263649Y472317D01*
X263532Y472339D01*
X263477Y472353D01*
X263423Y472372D01*
X263419D01*
X263412Y472375D01*
X263397Y472383D01*
X263379Y472390D01*
X263354Y472397D01*
X263328Y472412D01*
X263266Y472441D01*
X263201Y472477D01*
X263128Y472524D01*
X263063Y472579D01*
X263001Y472645D01*
Y472648D01*
X262993Y472652D01*
X262986Y472663D01*
X262979Y472677D01*
X262968Y472696D01*
X262953Y472714D01*
X262928Y472768D01*
X262902Y472834D01*
X262877Y472910D01*
X262862Y473001D01*
X262855Y473100D01*
Y473136D01*
X262859Y473162D01*
X262862Y473191D01*
X262870Y473227D01*
X262877Y473267D01*
X262888Y473311D01*
X262902Y473354D01*
X262917Y473402D01*
X262939Y473449D01*
X262964Y473496D01*
X262993Y473544D01*
X263030Y473591D01*
X263070Y473635D01*
X263113Y473675D01*
X263117Y473678D01*
X263128Y473686D01*
X263146Y473697D01*
X263175Y473715D01*
X263208Y473733D01*
X263252Y473751D01*
X263303Y473777D01*
X263361Y473799D01*
X263426Y473820D01*
X263503Y473842D01*
X263587Y473864D01*
X263681Y473882D01*
X263783Y473901D01*
X263892Y473911D01*
X264013Y473919D01*
X264140Y473922D01*
X264144D01*
X264158D01*
X264184D01*
X264213D01*
X264253Y473919D01*
D02*
G37*
G36*
X264795Y471724D02*
X264802Y471716D01*
X264806Y471702D01*
X264817Y471684D01*
X264828Y471662D01*
X264843Y471636D01*
X264879Y471574D01*
X264919Y471502D01*
X264970Y471429D01*
X265028Y471352D01*
X265090Y471276D01*
X265094Y471272D01*
X265097Y471269D01*
X265108Y471258D01*
X265119Y471243D01*
X265156Y471210D01*
X265199Y471167D01*
X265250Y471123D01*
X265308Y471076D01*
X265367Y471036D01*
X265428Y470999D01*
Y470799D01*
X262899D01*
Y471109D01*
X264868D01*
X264864Y471112D01*
X264850Y471130D01*
X264828Y471152D01*
X264802Y471189D01*
X264770Y471229D01*
X264733Y471280D01*
X264693Y471338D01*
X264653Y471403D01*
Y471407D01*
X264650Y471411D01*
X264635Y471432D01*
X264617Y471469D01*
X264595Y471513D01*
X264569Y471564D01*
X264544Y471618D01*
X264518Y471673D01*
X264497Y471727D01*
X264795D01*
Y471724D01*
D02*
G37*
G36*
X265418Y469194D02*
Y468830D01*
X262899Y467800D01*
Y468178D01*
X263663Y468473D01*
Y469529D01*
X262899Y469802D01*
Y470155D01*
X265418Y469194D01*
D02*
G37*
G36*
X350152Y477774D02*
X350149D01*
X350141D01*
X350127D01*
X350105Y477770D01*
X350083Y477766D01*
X350058D01*
X349996Y477755D01*
X349930Y477745D01*
X349865Y477723D01*
X349806Y477701D01*
X349781Y477686D01*
X349759Y477668D01*
X349755Y477665D01*
X349745Y477650D01*
X349726Y477628D01*
X349708Y477599D01*
X349686Y477559D01*
X349672Y477515D01*
X349657Y477461D01*
X349654Y477402D01*
Y477381D01*
X349657Y477359D01*
X349661Y477326D01*
X349668Y477293D01*
X349675Y477257D01*
X349690Y477220D01*
X349708Y477184D01*
X349712Y477180D01*
X349719Y477170D01*
X349734Y477155D01*
X349748Y477133D01*
X349774Y477115D01*
X349799Y477093D01*
X349828Y477075D01*
X349865Y477060D01*
X349868D01*
X349883Y477053D01*
X349908Y477049D01*
X349941Y477042D01*
X349985Y477035D01*
X350039Y477031D01*
X350105Y477024D01*
X350181D01*
X351918D01*
Y476689D01*
X350200D01*
X350196D01*
X350185D01*
X350170D01*
X350149D01*
X350119Y476693D01*
X350090D01*
X350021Y476700D01*
X349941Y476707D01*
X349857Y476722D01*
X349781Y476744D01*
X349708Y476769D01*
X349705D01*
X349701Y476773D01*
X349679Y476784D01*
X349650Y476802D01*
X349610Y476827D01*
X349570Y476864D01*
X349526Y476904D01*
X349482Y476955D01*
X349446Y477013D01*
X349442Y477020D01*
X349431Y477042D01*
X349417Y477075D01*
X349402Y477122D01*
X349384Y477180D01*
X349370Y477246D01*
X349359Y477319D01*
X349355Y477399D01*
Y477432D01*
X349359Y477453D01*
X349362Y477483D01*
X349366Y477512D01*
X349380Y477588D01*
X349402Y477668D01*
X349435Y477752D01*
X349457Y477796D01*
X349482Y477836D01*
X349512Y477872D01*
X349544Y477908D01*
X349548Y477912D01*
X349552Y477916D01*
X349566Y477923D01*
X349581Y477934D01*
X349599Y477948D01*
X349624Y477963D01*
X349654Y477978D01*
X349686Y477996D01*
X349723Y478010D01*
X349766Y478025D01*
X349810Y478039D01*
X349861Y478054D01*
X349916Y478061D01*
X349977Y478072D01*
X350039Y478076D01*
X350109D01*
X350152Y477774D01*
D02*
G37*
G36*
X350105Y475957D02*
X350101D01*
X350094Y475954D01*
X350079Y475950D01*
X350061Y475946D01*
X350039Y475943D01*
X350014Y475936D01*
X349959Y475917D01*
X349894Y475892D01*
X349832Y475859D01*
X349774Y475823D01*
X349723Y475779D01*
X349719Y475772D01*
X349705Y475757D01*
X349686Y475728D01*
X349668Y475692D01*
X349646Y475648D01*
X349628Y475593D01*
X349613Y475531D01*
X349610Y475466D01*
Y475444D01*
X349613Y475430D01*
X349617Y475389D01*
X349628Y475339D01*
X349646Y475280D01*
X349672Y475218D01*
X349708Y475157D01*
X349759Y475098D01*
X349766Y475091D01*
X349788Y475073D01*
X349821Y475051D01*
X349865Y475022D01*
X349919Y474993D01*
X349981Y474971D01*
X350054Y474953D01*
X350134Y474945D01*
X350138D01*
X350145D01*
X350156D01*
X350170Y474949D01*
X350210Y474953D01*
X350258Y474964D01*
X350316Y474978D01*
X350374Y475004D01*
X350432Y475040D01*
X350487Y475087D01*
X350494Y475095D01*
X350509Y475113D01*
X350531Y475142D01*
X350556Y475182D01*
X350582Y475233D01*
X350604Y475295D01*
X350618Y475364D01*
X350625Y475441D01*
Y475473D01*
X350622Y475499D01*
X350618Y475531D01*
X350611Y475568D01*
X350604Y475612D01*
X350593Y475659D01*
X350866Y475623D01*
Y475604D01*
X350862Y475590D01*
Y475542D01*
X350869Y475502D01*
X350877Y475455D01*
X350887Y475400D01*
X350906Y475339D01*
X350931Y475280D01*
X350964Y475218D01*
Y475215D01*
X350968Y475211D01*
X350982Y475193D01*
X351008Y475168D01*
X351040Y475138D01*
X351088Y475109D01*
X351142Y475084D01*
X351204Y475066D01*
X351241Y475058D01*
X351281D01*
X351284D01*
X351288D01*
X351310D01*
X351339Y475066D01*
X351379Y475073D01*
X351423Y475087D01*
X351470Y475106D01*
X351517Y475135D01*
X351561Y475175D01*
X351565Y475178D01*
X351579Y475197D01*
X351597Y475222D01*
X351619Y475255D01*
X351637Y475299D01*
X351656Y475350D01*
X351670Y475408D01*
X351674Y475473D01*
Y475502D01*
X351666Y475535D01*
X351659Y475579D01*
X351645Y475626D01*
X351626Y475673D01*
X351597Y475724D01*
X351561Y475772D01*
X351557Y475775D01*
X351539Y475790D01*
X351514Y475812D01*
X351477Y475837D01*
X351430Y475863D01*
X351372Y475888D01*
X351302Y475910D01*
X351222Y475925D01*
X351277Y476234D01*
X351281D01*
X351291Y476230D01*
X351306Y476227D01*
X351328Y476223D01*
X351353Y476216D01*
X351382Y476205D01*
X351452Y476183D01*
X351532Y476147D01*
X351612Y476103D01*
X351688Y476048D01*
X351757Y475979D01*
X351761Y475976D01*
X351765Y475968D01*
X351772Y475957D01*
X351783Y475943D01*
X351798Y475925D01*
X351812Y475899D01*
X351827Y475874D01*
X351845Y475841D01*
X351874Y475768D01*
X351903Y475684D01*
X351921Y475586D01*
X351928Y475535D01*
Y475444D01*
X351925Y475404D01*
X351918Y475357D01*
X351907Y475299D01*
X351888Y475233D01*
X351867Y475168D01*
X351837Y475102D01*
Y475098D01*
X351834Y475095D01*
X351823Y475073D01*
X351801Y475040D01*
X351776Y475004D01*
X351739Y474960D01*
X351699Y474916D01*
X351652Y474873D01*
X351597Y474836D01*
X351590Y474833D01*
X351572Y474822D01*
X351539Y474807D01*
X351499Y474789D01*
X351452Y474771D01*
X351397Y474756D01*
X351335Y474745D01*
X351273Y474742D01*
X351266D01*
X351244D01*
X351215Y474745D01*
X351175Y474753D01*
X351128Y474763D01*
X351077Y474782D01*
X351026Y474803D01*
X350975Y474833D01*
X350968Y474836D01*
X350953Y474847D01*
X350927Y474869D01*
X350898Y474898D01*
X350866Y474934D01*
X350829Y474978D01*
X350797Y475029D01*
X350764Y475091D01*
Y475087D01*
X350760Y475080D01*
X350756Y475069D01*
X350753Y475055D01*
X350738Y475015D01*
X350716Y474964D01*
X350687Y474905D01*
X350651Y474847D01*
X350604Y474793D01*
X350549Y474742D01*
X350542Y474738D01*
X350520Y474723D01*
X350483Y474702D01*
X350436Y474680D01*
X350378Y474658D01*
X350309Y474636D01*
X350229Y474621D01*
X350141Y474618D01*
X350138D01*
X350127D01*
X350109D01*
X350087Y474621D01*
X350058Y474625D01*
X350025Y474632D01*
X349988Y474640D01*
X349948Y474647D01*
X349861Y474676D01*
X349814Y474698D01*
X349770Y474720D01*
X349723Y474749D01*
X349675Y474782D01*
X349628Y474818D01*
X349584Y474862D01*
X349581Y474865D01*
X349573Y474873D01*
X349563Y474887D01*
X349548Y474905D01*
X349530Y474927D01*
X349512Y474956D01*
X349490Y474989D01*
X349471Y475029D01*
X349450Y475069D01*
X349428Y475116D01*
X349410Y475164D01*
X349391Y475218D01*
X349377Y475277D01*
X349366Y475339D01*
X349359Y475400D01*
X349355Y475470D01*
Y475502D01*
X349359Y475524D01*
X349362Y475553D01*
X349366Y475586D01*
X349373Y475623D01*
X349380Y475663D01*
X349402Y475750D01*
X349439Y475841D01*
X349461Y475888D01*
X349486Y475932D01*
X349519Y475976D01*
X349552Y476019D01*
X349555Y476023D01*
X349563Y476030D01*
X349573Y476041D01*
X349588Y476052D01*
X349606Y476070D01*
X349632Y476088D01*
X349657Y476110D01*
X349690Y476132D01*
X349726Y476154D01*
X349763Y476176D01*
X349850Y476216D01*
X349952Y476249D01*
X350007Y476260D01*
X350065Y476267D01*
X350105Y475957D01*
D02*
G37*
G36*
X350753Y474308D02*
X350797D01*
X350844Y474305D01*
X350898Y474301D01*
X351011Y474290D01*
X351131Y474272D01*
X351252Y474250D01*
X351306Y474236D01*
X351361Y474221D01*
X351364D01*
X351372Y474217D01*
X351386Y474210D01*
X351404Y474203D01*
X351430Y474196D01*
X351455Y474181D01*
X351517Y474152D01*
X351583Y474116D01*
X351652Y474068D01*
X351721Y474014D01*
X351779Y473948D01*
Y473944D01*
X351787Y473941D01*
X351794Y473930D01*
X351801Y473915D01*
X351816Y473897D01*
X351827Y473875D01*
X351856Y473821D01*
X351881Y473755D01*
X351907Y473679D01*
X351921Y473588D01*
X351928Y473489D01*
Y473457D01*
X351925Y473417D01*
X351918Y473369D01*
X351907Y473315D01*
X351892Y473256D01*
X351874Y473195D01*
X351845Y473136D01*
Y473133D01*
X351841Y473129D01*
X351830Y473111D01*
X351812Y473082D01*
X351787Y473045D01*
X351750Y473005D01*
X351710Y472962D01*
X351663Y472922D01*
X351608Y472882D01*
X351601Y472878D01*
X351583Y472863D01*
X351550Y472849D01*
X351503Y472823D01*
X351448Y472801D01*
X351386Y472772D01*
X351313Y472747D01*
X351233Y472725D01*
X351230D01*
X351222Y472721D01*
X351211Y472718D01*
X351193Y472714D01*
X351171Y472711D01*
X351146Y472707D01*
X351113Y472700D01*
X351077Y472696D01*
X351037Y472689D01*
X350993Y472685D01*
X350942Y472681D01*
X350891Y472674D01*
X350833Y472670D01*
X350775D01*
X350709Y472667D01*
X350640D01*
X350636D01*
X350622D01*
X350596D01*
X350567D01*
X350527Y472670D01*
X350483D01*
X350436Y472674D01*
X350385Y472678D01*
X350269Y472689D01*
X350149Y472707D01*
X350032Y472729D01*
X349977Y472743D01*
X349923Y472761D01*
X349919D01*
X349912Y472765D01*
X349897Y472772D01*
X349879Y472780D01*
X349854Y472787D01*
X349828Y472801D01*
X349766Y472831D01*
X349701Y472867D01*
X349628Y472914D01*
X349563Y472969D01*
X349501Y473034D01*
Y473038D01*
X349493Y473042D01*
X349486Y473053D01*
X349479Y473067D01*
X349468Y473085D01*
X349453Y473104D01*
X349428Y473158D01*
X349402Y473224D01*
X349377Y473300D01*
X349362Y473391D01*
X349355Y473489D01*
Y473526D01*
X349359Y473551D01*
X349362Y473580D01*
X349370Y473617D01*
X349377Y473657D01*
X349388Y473701D01*
X349402Y473744D01*
X349417Y473792D01*
X349439Y473839D01*
X349464Y473886D01*
X349493Y473934D01*
X349530Y473981D01*
X349570Y474024D01*
X349613Y474065D01*
X349617Y474068D01*
X349628Y474076D01*
X349646Y474086D01*
X349675Y474105D01*
X349708Y474123D01*
X349752Y474141D01*
X349803Y474166D01*
X349861Y474188D01*
X349926Y474210D01*
X350003Y474232D01*
X350087Y474254D01*
X350181Y474272D01*
X350283Y474290D01*
X350392Y474301D01*
X350513Y474308D01*
X350640Y474312D01*
X350644D01*
X350658D01*
X350684D01*
X350713D01*
X350753Y474308D01*
D02*
G37*
G36*
X351295Y472114D02*
X351302Y472106D01*
X351306Y472092D01*
X351317Y472074D01*
X351328Y472052D01*
X351343Y472026D01*
X351379Y471964D01*
X351419Y471891D01*
X351470Y471819D01*
X351528Y471742D01*
X351590Y471666D01*
X351594Y471662D01*
X351597Y471659D01*
X351608Y471648D01*
X351619Y471633D01*
X351656Y471600D01*
X351699Y471557D01*
X351750Y471513D01*
X351808Y471466D01*
X351867Y471426D01*
X351928Y471389D01*
Y471189D01*
X349399D01*
Y471498D01*
X351368D01*
X351364Y471502D01*
X351350Y471520D01*
X351328Y471542D01*
X351302Y471578D01*
X351270Y471619D01*
X351233Y471669D01*
X351193Y471728D01*
X351153Y471793D01*
Y471797D01*
X351150Y471801D01*
X351135Y471822D01*
X351117Y471859D01*
X351095Y471902D01*
X351069Y471953D01*
X351044Y472008D01*
X351019Y472063D01*
X350997Y472117D01*
X351295D01*
Y472114D01*
D02*
G37*
G36*
X351918Y469292D02*
X351914Y469267D01*
Y469238D01*
X351907Y469172D01*
X351899Y469100D01*
X351885Y469023D01*
X351867Y468947D01*
X351841Y468878D01*
Y468874D01*
X351837Y468870D01*
X351827Y468848D01*
X351808Y468816D01*
X351783Y468779D01*
X351750Y468736D01*
X351710Y468688D01*
X351659Y468645D01*
X351605Y468605D01*
X351597Y468601D01*
X351575Y468590D01*
X351546Y468572D01*
X351503Y468554D01*
X351452Y468535D01*
X351397Y468517D01*
X351335Y468506D01*
X351273Y468503D01*
X351266D01*
X351248D01*
X351215Y468506D01*
X351175Y468514D01*
X351128Y468525D01*
X351077Y468543D01*
X351026Y468565D01*
X350971Y468594D01*
X350964Y468597D01*
X350949Y468608D01*
X350920Y468630D01*
X350891Y468659D01*
X350855Y468696D01*
X350815Y468739D01*
X350778Y468794D01*
X350742Y468856D01*
Y468852D01*
X350738Y468845D01*
X350735Y468834D01*
X350727Y468819D01*
X350713Y468776D01*
X350687Y468725D01*
X350655Y468670D01*
X350615Y468608D01*
X350567Y468554D01*
X350509Y468503D01*
X350502Y468499D01*
X350480Y468484D01*
X350447Y468463D01*
X350403Y468441D01*
X350345Y468419D01*
X350283Y468397D01*
X350210Y468383D01*
X350130Y468379D01*
X350127D01*
X350123D01*
X350101D01*
X350065Y468383D01*
X350021Y468390D01*
X349970Y468397D01*
X349916Y468412D01*
X349857Y468430D01*
X349799Y468455D01*
X349792Y468459D01*
X349774Y468470D01*
X349748Y468484D01*
X349712Y468506D01*
X349675Y468535D01*
X349635Y468565D01*
X349595Y468601D01*
X349563Y468641D01*
X349559Y468645D01*
X349548Y468659D01*
X349533Y468685D01*
X349519Y468717D01*
X349497Y468757D01*
X349475Y468805D01*
X349457Y468856D01*
X349439Y468918D01*
Y468925D01*
X349431Y468947D01*
X349428Y468983D01*
X349421Y469030D01*
X349413Y469089D01*
X349406Y469158D01*
X349402Y469234D01*
X349399Y469322D01*
Y470283D01*
X351918D01*
Y469292D01*
D02*
G37*
G36*
X435762Y477274D02*
X435759D01*
X435751D01*
X435737D01*
X435715Y477270D01*
X435693Y477266D01*
X435668D01*
X435606Y477255D01*
X435540Y477245D01*
X435475Y477223D01*
X435417Y477201D01*
X435391Y477186D01*
X435369Y477168D01*
X435366Y477165D01*
X435355Y477150D01*
X435336Y477128D01*
X435318Y477099D01*
X435296Y477059D01*
X435282Y477015D01*
X435267Y476961D01*
X435264Y476902D01*
Y476881D01*
X435267Y476859D01*
X435271Y476826D01*
X435278Y476793D01*
X435286Y476757D01*
X435300Y476720D01*
X435318Y476684D01*
X435322Y476680D01*
X435329Y476670D01*
X435344Y476655D01*
X435358Y476633D01*
X435384Y476615D01*
X435409Y476593D01*
X435438Y476575D01*
X435475Y476560D01*
X435478D01*
X435493Y476553D01*
X435519Y476549D01*
X435551Y476542D01*
X435595Y476535D01*
X435650Y476531D01*
X435715Y476524D01*
X435792D01*
X437528D01*
Y476189D01*
X435810D01*
X435806D01*
X435795D01*
X435781D01*
X435759D01*
X435730Y476193D01*
X435701D01*
X435631Y476200D01*
X435551Y476207D01*
X435468Y476222D01*
X435391Y476244D01*
X435318Y476269D01*
X435315D01*
X435311Y476273D01*
X435289Y476284D01*
X435260Y476302D01*
X435220Y476327D01*
X435180Y476364D01*
X435136Y476404D01*
X435093Y476455D01*
X435056Y476513D01*
X435053Y476520D01*
X435042Y476542D01*
X435027Y476575D01*
X435013Y476622D01*
X434994Y476680D01*
X434980Y476746D01*
X434969Y476819D01*
X434965Y476899D01*
Y476932D01*
X434969Y476953D01*
X434972Y476982D01*
X434976Y477012D01*
X434991Y477088D01*
X435013Y477168D01*
X435045Y477252D01*
X435067Y477296D01*
X435093Y477336D01*
X435122Y477372D01*
X435155Y477408D01*
X435158Y477412D01*
X435162Y477416D01*
X435176Y477423D01*
X435191Y477434D01*
X435209Y477448D01*
X435235Y477463D01*
X435264Y477478D01*
X435296Y477496D01*
X435333Y477510D01*
X435377Y477525D01*
X435420Y477539D01*
X435471Y477554D01*
X435526Y477561D01*
X435588Y477572D01*
X435650Y477576D01*
X435719D01*
X435762Y477274D01*
D02*
G37*
G36*
X435715Y475457D02*
X435711D01*
X435704Y475454D01*
X435690Y475450D01*
X435671Y475446D01*
X435650Y475443D01*
X435624Y475435D01*
X435569Y475417D01*
X435504Y475392D01*
X435442Y475359D01*
X435384Y475323D01*
X435333Y475279D01*
X435329Y475272D01*
X435315Y475257D01*
X435296Y475228D01*
X435278Y475192D01*
X435256Y475148D01*
X435238Y475093D01*
X435224Y475032D01*
X435220Y474966D01*
Y474944D01*
X435224Y474930D01*
X435227Y474890D01*
X435238Y474839D01*
X435256Y474780D01*
X435282Y474718D01*
X435318Y474657D01*
X435369Y474598D01*
X435377Y474591D01*
X435398Y474573D01*
X435431Y474551D01*
X435475Y474522D01*
X435530Y474493D01*
X435591Y474471D01*
X435664Y474453D01*
X435744Y474445D01*
X435748D01*
X435755D01*
X435766D01*
X435781Y474449D01*
X435821Y474453D01*
X435868Y474464D01*
X435926Y474478D01*
X435985Y474504D01*
X436043Y474540D01*
X436097Y474587D01*
X436105Y474595D01*
X436119Y474613D01*
X436141Y474642D01*
X436166Y474682D01*
X436192Y474733D01*
X436214Y474795D01*
X436228Y474864D01*
X436236Y474940D01*
Y474973D01*
X436232Y474999D01*
X436228Y475032D01*
X436221Y475068D01*
X436214Y475112D01*
X436203Y475159D01*
X436476Y475122D01*
Y475104D01*
X436472Y475090D01*
Y475042D01*
X436480Y475002D01*
X436487Y474955D01*
X436498Y474900D01*
X436516Y474839D01*
X436541Y474780D01*
X436574Y474718D01*
Y474715D01*
X436578Y474711D01*
X436592Y474693D01*
X436618Y474668D01*
X436651Y474638D01*
X436698Y474609D01*
X436753Y474584D01*
X436814Y474566D01*
X436851Y474558D01*
X436891D01*
X436895D01*
X436898D01*
X436920D01*
X436949Y474566D01*
X436989Y474573D01*
X437033Y474587D01*
X437080Y474606D01*
X437127Y474635D01*
X437171Y474675D01*
X437175Y474678D01*
X437189Y474697D01*
X437208Y474722D01*
X437229Y474755D01*
X437248Y474798D01*
X437266Y474850D01*
X437280Y474908D01*
X437284Y474973D01*
Y475002D01*
X437277Y475035D01*
X437269Y475079D01*
X437255Y475126D01*
X437237Y475173D01*
X437208Y475224D01*
X437171Y475272D01*
X437168Y475275D01*
X437149Y475290D01*
X437124Y475312D01*
X437087Y475337D01*
X437040Y475363D01*
X436982Y475388D01*
X436913Y475410D01*
X436833Y475425D01*
X436887Y475734D01*
X436891D01*
X436902Y475730D01*
X436916Y475727D01*
X436938Y475723D01*
X436964Y475716D01*
X436993Y475705D01*
X437062Y475683D01*
X437142Y475647D01*
X437222Y475603D01*
X437298Y475548D01*
X437368Y475479D01*
X437371Y475476D01*
X437375Y475468D01*
X437382Y475457D01*
X437393Y475443D01*
X437408Y475425D01*
X437422Y475399D01*
X437437Y475374D01*
X437455Y475341D01*
X437484Y475268D01*
X437513Y475184D01*
X437532Y475086D01*
X437539Y475035D01*
Y474944D01*
X437535Y474904D01*
X437528Y474857D01*
X437517Y474798D01*
X437499Y474733D01*
X437477Y474668D01*
X437448Y474602D01*
Y474598D01*
X437444Y474595D01*
X437433Y474573D01*
X437411Y474540D01*
X437386Y474504D01*
X437350Y474460D01*
X437309Y474416D01*
X437262Y474373D01*
X437208Y474336D01*
X437200Y474333D01*
X437182Y474322D01*
X437149Y474307D01*
X437109Y474289D01*
X437062Y474271D01*
X437007Y474256D01*
X436945Y474245D01*
X436884Y474242D01*
X436876D01*
X436854D01*
X436825Y474245D01*
X436785Y474253D01*
X436738Y474263D01*
X436687Y474282D01*
X436636Y474303D01*
X436585Y474333D01*
X436578Y474336D01*
X436563Y474347D01*
X436538Y474369D01*
X436509Y474398D01*
X436476Y474435D01*
X436440Y474478D01*
X436407Y474529D01*
X436374Y474591D01*
Y474587D01*
X436370Y474580D01*
X436367Y474569D01*
X436363Y474555D01*
X436348Y474515D01*
X436327Y474464D01*
X436298Y474405D01*
X436261Y474347D01*
X436214Y474293D01*
X436159Y474242D01*
X436152Y474238D01*
X436130Y474223D01*
X436094Y474202D01*
X436046Y474180D01*
X435988Y474158D01*
X435919Y474136D01*
X435839Y474122D01*
X435751Y474118D01*
X435748D01*
X435737D01*
X435719D01*
X435697Y474122D01*
X435668Y474125D01*
X435635Y474132D01*
X435599Y474140D01*
X435559Y474147D01*
X435471Y474176D01*
X435424Y474198D01*
X435380Y474220D01*
X435333Y474249D01*
X435286Y474282D01*
X435238Y474318D01*
X435195Y474362D01*
X435191Y474365D01*
X435184Y474373D01*
X435173Y474387D01*
X435158Y474405D01*
X435140Y474427D01*
X435122Y474456D01*
X435100Y474489D01*
X435082Y474529D01*
X435060Y474569D01*
X435038Y474616D01*
X435020Y474664D01*
X435002Y474718D01*
X434987Y474777D01*
X434976Y474839D01*
X434969Y474900D01*
X434965Y474970D01*
Y475002D01*
X434969Y475024D01*
X434972Y475053D01*
X434976Y475086D01*
X434983Y475122D01*
X434991Y475163D01*
X435013Y475250D01*
X435049Y475341D01*
X435071Y475388D01*
X435096Y475432D01*
X435129Y475476D01*
X435162Y475519D01*
X435166Y475523D01*
X435173Y475530D01*
X435184Y475541D01*
X435198Y475552D01*
X435216Y475570D01*
X435242Y475588D01*
X435267Y475610D01*
X435300Y475632D01*
X435336Y475654D01*
X435373Y475676D01*
X435460Y475716D01*
X435562Y475749D01*
X435617Y475760D01*
X435675Y475767D01*
X435715Y475457D01*
D02*
G37*
G36*
X436363Y473808D02*
X436407D01*
X436454Y473805D01*
X436509Y473801D01*
X436622Y473790D01*
X436742Y473772D01*
X436862Y473750D01*
X436916Y473736D01*
X436971Y473721D01*
X436974D01*
X436982Y473717D01*
X436996Y473710D01*
X437015Y473703D01*
X437040Y473696D01*
X437066Y473681D01*
X437127Y473652D01*
X437193Y473616D01*
X437262Y473568D01*
X437331Y473514D01*
X437390Y473448D01*
Y473444D01*
X437397Y473441D01*
X437404Y473430D01*
X437411Y473415D01*
X437426Y473397D01*
X437437Y473375D01*
X437466Y473321D01*
X437491Y473255D01*
X437517Y473179D01*
X437532Y473088D01*
X437539Y472989D01*
Y472957D01*
X437535Y472917D01*
X437528Y472869D01*
X437517Y472815D01*
X437502Y472756D01*
X437484Y472695D01*
X437455Y472636D01*
Y472633D01*
X437451Y472629D01*
X437440Y472611D01*
X437422Y472582D01*
X437397Y472545D01*
X437360Y472505D01*
X437320Y472462D01*
X437273Y472422D01*
X437218Y472382D01*
X437211Y472378D01*
X437193Y472363D01*
X437160Y472349D01*
X437113Y472323D01*
X437058Y472301D01*
X436996Y472272D01*
X436924Y472247D01*
X436843Y472225D01*
X436840D01*
X436833Y472221D01*
X436822Y472218D01*
X436803Y472214D01*
X436782Y472211D01*
X436756Y472207D01*
X436723Y472200D01*
X436687Y472196D01*
X436647Y472189D01*
X436603Y472185D01*
X436552Y472181D01*
X436501Y472174D01*
X436443Y472170D01*
X436385D01*
X436319Y472167D01*
X436250D01*
X436247D01*
X436232D01*
X436206D01*
X436177D01*
X436137Y472170D01*
X436094D01*
X436046Y472174D01*
X435995Y472178D01*
X435879Y472189D01*
X435759Y472207D01*
X435642Y472229D01*
X435588Y472243D01*
X435533Y472261D01*
X435530D01*
X435522Y472265D01*
X435508Y472272D01*
X435489Y472280D01*
X435464Y472287D01*
X435438Y472301D01*
X435377Y472331D01*
X435311Y472367D01*
X435238Y472414D01*
X435173Y472469D01*
X435111Y472534D01*
Y472538D01*
X435104Y472542D01*
X435096Y472553D01*
X435089Y472567D01*
X435078Y472585D01*
X435064Y472604D01*
X435038Y472658D01*
X435013Y472724D01*
X434987Y472800D01*
X434972Y472891D01*
X434965Y472989D01*
Y473026D01*
X434969Y473051D01*
X434972Y473080D01*
X434980Y473117D01*
X434987Y473157D01*
X434998Y473201D01*
X435013Y473244D01*
X435027Y473292D01*
X435049Y473339D01*
X435075Y473386D01*
X435104Y473433D01*
X435140Y473481D01*
X435180Y473525D01*
X435224Y473565D01*
X435227Y473568D01*
X435238Y473575D01*
X435256Y473586D01*
X435286Y473605D01*
X435318Y473623D01*
X435362Y473641D01*
X435413Y473666D01*
X435471Y473688D01*
X435537Y473710D01*
X435613Y473732D01*
X435697Y473754D01*
X435792Y473772D01*
X435893Y473790D01*
X436003Y473801D01*
X436123Y473808D01*
X436250Y473812D01*
X436254D01*
X436268D01*
X436294D01*
X436323D01*
X436363Y473808D01*
D02*
G37*
G36*
X436905Y471614D02*
X436913Y471606D01*
X436916Y471592D01*
X436927Y471573D01*
X436938Y471552D01*
X436953Y471526D01*
X436989Y471464D01*
X437029Y471391D01*
X437080Y471319D01*
X437138Y471242D01*
X437200Y471166D01*
X437204Y471162D01*
X437208Y471159D01*
X437218Y471148D01*
X437229Y471133D01*
X437266Y471100D01*
X437309Y471057D01*
X437360Y471013D01*
X437419Y470966D01*
X437477Y470926D01*
X437539Y470889D01*
Y470689D01*
X435009D01*
Y470998D01*
X436978D01*
X436974Y471002D01*
X436960Y471020D01*
X436938Y471042D01*
X436913Y471078D01*
X436880Y471118D01*
X436843Y471169D01*
X436803Y471228D01*
X436763Y471293D01*
Y471297D01*
X436760Y471301D01*
X436745Y471322D01*
X436727Y471359D01*
X436705Y471402D01*
X436680Y471453D01*
X436654Y471508D01*
X436629Y471563D01*
X436607Y471617D01*
X436905D01*
Y471614D01*
D02*
G37*
G36*
X436352Y469863D02*
X436388D01*
X436425Y469859D01*
X436472Y469855D01*
X436519Y469848D01*
X436625Y469830D01*
X436742Y469804D01*
X436858Y469768D01*
X436971Y469717D01*
X436974Y469713D01*
X436985Y469710D01*
X437000Y469702D01*
X437018Y469688D01*
X437044Y469673D01*
X437073Y469655D01*
X437138Y469608D01*
X437211Y469546D01*
X437284Y469473D01*
X437357Y469389D01*
X437419Y469291D01*
X437422Y469288D01*
X437426Y469277D01*
X437433Y469262D01*
X437444Y469244D01*
X437455Y469215D01*
X437466Y469186D01*
X437480Y469149D01*
X437495Y469109D01*
X437510Y469066D01*
X437524Y469018D01*
X437546Y468916D01*
X437564Y468800D01*
X437571Y468680D01*
Y468643D01*
X437568Y468618D01*
X437564Y468585D01*
X437561Y468545D01*
X437557Y468505D01*
X437546Y468458D01*
X437524Y468359D01*
X437491Y468250D01*
X437470Y468196D01*
X437444Y468145D01*
X437411Y468094D01*
X437379Y468043D01*
X437375Y468039D01*
X437371Y468032D01*
X437360Y468017D01*
X437342Y467999D01*
X437324Y467981D01*
X437298Y467955D01*
X437269Y467930D01*
X437240Y467901D01*
X437204Y467872D01*
X437160Y467842D01*
X437116Y467810D01*
X437069Y467781D01*
X437015Y467755D01*
X436960Y467726D01*
X436902Y467704D01*
X436836Y467682D01*
X436760Y468010D01*
X436763D01*
X436771Y468014D01*
X436785Y468021D01*
X436803Y468028D01*
X436825Y468035D01*
X436854Y468046D01*
X436913Y468075D01*
X436978Y468112D01*
X437044Y468155D01*
X437106Y468210D01*
X437160Y468268D01*
X437168Y468276D01*
X437182Y468297D01*
X437200Y468334D01*
X437226Y468381D01*
X437248Y468443D01*
X437269Y468512D01*
X437284Y468596D01*
X437288Y468687D01*
Y468716D01*
X437284Y468734D01*
Y468760D01*
X437280Y468789D01*
X437269Y468858D01*
X437255Y468934D01*
X437229Y469015D01*
X437193Y469098D01*
X437146Y469175D01*
Y469178D01*
X437138Y469182D01*
X437120Y469207D01*
X437091Y469240D01*
X437047Y469280D01*
X436993Y469328D01*
X436931Y469371D01*
X436854Y469411D01*
X436771Y469448D01*
X436767D01*
X436760Y469451D01*
X436749Y469455D01*
X436731Y469459D01*
X436709Y469466D01*
X436683Y469473D01*
X436622Y469484D01*
X436549Y469499D01*
X436469Y469513D01*
X436381Y469521D01*
X436287Y469524D01*
X436283D01*
X436272D01*
X436254D01*
X436232D01*
X436206Y469521D01*
X436174D01*
X436137Y469517D01*
X436097Y469513D01*
X436010Y469502D01*
X435915Y469484D01*
X435821Y469462D01*
X435726Y469433D01*
X435722D01*
X435715Y469429D01*
X435704Y469422D01*
X435686Y469415D01*
X435642Y469393D01*
X435591Y469360D01*
X435533Y469320D01*
X435471Y469269D01*
X435417Y469211D01*
X435366Y469142D01*
Y469138D01*
X435362Y469131D01*
X435355Y469120D01*
X435348Y469106D01*
X435340Y469087D01*
X435329Y469066D01*
X435307Y469015D01*
X435286Y468949D01*
X435267Y468876D01*
X435253Y468796D01*
X435249Y468712D01*
Y468687D01*
X435253Y468665D01*
Y468640D01*
X435256Y468614D01*
X435271Y468549D01*
X435289Y468472D01*
X435318Y468396D01*
X435358Y468316D01*
X435380Y468276D01*
X435409Y468239D01*
X435413Y468236D01*
X435417Y468232D01*
X435428Y468221D01*
X435438Y468207D01*
X435457Y468192D01*
X435478Y468174D01*
X435500Y468152D01*
X435530Y468134D01*
X435562Y468112D01*
X435599Y468086D01*
X435635Y468064D01*
X435679Y468043D01*
X435726Y468024D01*
X435777Y468006D01*
X435832Y467988D01*
X435890Y467974D01*
X435806Y467639D01*
X435803D01*
X435788Y467642D01*
X435766Y467650D01*
X435737Y467661D01*
X435704Y467671D01*
X435664Y467686D01*
X435620Y467704D01*
X435573Y467726D01*
X435471Y467777D01*
X435369Y467842D01*
X435318Y467882D01*
X435267Y467923D01*
X435224Y467966D01*
X435180Y468017D01*
X435176Y468021D01*
X435169Y468028D01*
X435162Y468046D01*
X435147Y468064D01*
X435129Y468094D01*
X435111Y468123D01*
X435093Y468163D01*
X435075Y468203D01*
X435053Y468250D01*
X435034Y468301D01*
X435016Y468356D01*
X434998Y468414D01*
X434983Y468476D01*
X434976Y468541D01*
X434969Y468610D01*
X434965Y468683D01*
Y468723D01*
X434969Y468752D01*
Y468785D01*
X434972Y468825D01*
X434980Y468869D01*
X434987Y468920D01*
X435005Y469026D01*
X435034Y469135D01*
X435075Y469244D01*
X435100Y469295D01*
X435129Y469346D01*
X435133Y469349D01*
X435136Y469357D01*
X435147Y469371D01*
X435162Y469386D01*
X435176Y469408D01*
X435198Y469433D01*
X435224Y469462D01*
X435253Y469491D01*
X435286Y469521D01*
X435318Y469553D01*
X435402Y469619D01*
X435500Y469681D01*
X435610Y469735D01*
X435613D01*
X435624Y469743D01*
X435642Y469746D01*
X435664Y469757D01*
X435693Y469764D01*
X435730Y469775D01*
X435770Y469790D01*
X435813Y469801D01*
X435861Y469812D01*
X435915Y469826D01*
X436028Y469844D01*
X436156Y469859D01*
X436287Y469866D01*
X436290D01*
X436305D01*
X436327D01*
X436352Y469863D01*
D02*
G37*
%LPC*%
G36*
X264140Y473606D02*
X264133D01*
X264114D01*
X264082D01*
X264038Y473602D01*
X263991D01*
X263932Y473598D01*
X263871Y473595D01*
X263805Y473587D01*
X263663Y473569D01*
X263594Y473558D01*
X263528Y473544D01*
X263467Y473529D01*
X263408Y473507D01*
X263357Y473486D01*
X263314Y473460D01*
X263310D01*
X263306Y473453D01*
X263281Y473434D01*
X263248Y473402D01*
X263212Y473362D01*
X263175Y473307D01*
X263143Y473245D01*
X263117Y473176D01*
X263113Y473140D01*
X263110Y473100D01*
Y473078D01*
X263113Y473063D01*
X263121Y473027D01*
X263135Y472976D01*
X263161Y472921D01*
X263197Y472859D01*
X263219Y472830D01*
X263248Y472801D01*
X263277Y472772D01*
X263314Y472743D01*
X263317D01*
X263325Y472736D01*
X263335Y472728D01*
X263354Y472721D01*
X263379Y472707D01*
X263412Y472696D01*
X263448Y472681D01*
X263492Y472667D01*
X263547Y472656D01*
X263605Y472641D01*
X263674Y472626D01*
X263747Y472615D01*
X263834Y472608D01*
X263925Y472601D01*
X264027Y472594D01*
X264140D01*
X264144D01*
X264147D01*
X264165D01*
X264198D01*
X264242Y472597D01*
X264289D01*
X264347Y472601D01*
X264409Y472605D01*
X264478Y472612D01*
X264617Y472630D01*
X264686Y472641D01*
X264752Y472656D01*
X264813Y472670D01*
X264872Y472692D01*
X264923Y472714D01*
X264966Y472739D01*
X264970D01*
X264973Y472747D01*
X264984Y472754D01*
X264999Y472765D01*
X265032Y472797D01*
X265072Y472838D01*
X265108Y472892D01*
X265141Y472954D01*
X265156Y472987D01*
X265166Y473023D01*
X265170Y473063D01*
X265174Y473103D01*
Y473125D01*
X265170Y473140D01*
X265163Y473180D01*
X265152Y473227D01*
X265130Y473282D01*
X265097Y473340D01*
X265075Y473369D01*
X265054Y473398D01*
X265024Y473424D01*
X264992Y473449D01*
X264988D01*
X264981Y473456D01*
X264966Y473464D01*
X264948Y473475D01*
X264919Y473486D01*
X264886Y473500D01*
X264846Y473511D01*
X264799Y473525D01*
X264744Y473540D01*
X264682Y473555D01*
X264613Y473569D01*
X264537Y473580D01*
X264449Y473591D01*
X264355Y473598D01*
X264253Y473602D01*
X264140Y473606D01*
D02*
G37*
G36*
X263936Y469430D02*
Y468579D01*
X264628Y468841D01*
X264631D01*
X264642Y468845D01*
X264661Y468852D01*
X264682Y468859D01*
X264708Y468870D01*
X264740Y468881D01*
X264777Y468892D01*
X264813Y468906D01*
X264897Y468935D01*
X264984Y468965D01*
X265072Y468994D01*
X265156Y469019D01*
X265152D01*
X265145Y469023D01*
X265130D01*
X265115Y469030D01*
X265090Y469034D01*
X265065Y469041D01*
X265003Y469056D01*
X264930Y469074D01*
X264850Y469099D01*
X264762Y469125D01*
X264671Y469158D01*
X263936Y469430D01*
D02*
G37*
G36*
X350640Y473995D02*
X350633D01*
X350615D01*
X350582D01*
X350538Y473992D01*
X350491D01*
X350432Y473988D01*
X350371Y473984D01*
X350305Y473977D01*
X350163Y473959D01*
X350094Y473948D01*
X350028Y473934D01*
X349967Y473919D01*
X349908Y473897D01*
X349857Y473875D01*
X349814Y473850D01*
X349810D01*
X349806Y473842D01*
X349781Y473824D01*
X349748Y473792D01*
X349712Y473751D01*
X349675Y473697D01*
X349643Y473635D01*
X349617Y473566D01*
X349613Y473529D01*
X349610Y473489D01*
Y473468D01*
X349613Y473453D01*
X349621Y473417D01*
X349635Y473366D01*
X349661Y473311D01*
X349697Y473249D01*
X349719Y473220D01*
X349748Y473191D01*
X349777Y473162D01*
X349814Y473133D01*
X349817D01*
X349825Y473125D01*
X349835Y473118D01*
X349854Y473111D01*
X349879Y473096D01*
X349912Y473085D01*
X349948Y473071D01*
X349992Y473056D01*
X350047Y473045D01*
X350105Y473031D01*
X350174Y473016D01*
X350247Y473005D01*
X350334Y472998D01*
X350425Y472991D01*
X350527Y472984D01*
X350640D01*
X350644D01*
X350647D01*
X350665D01*
X350698D01*
X350742Y472987D01*
X350789D01*
X350847Y472991D01*
X350909Y472994D01*
X350978Y473002D01*
X351117Y473020D01*
X351186Y473031D01*
X351252Y473045D01*
X351313Y473060D01*
X351372Y473082D01*
X351423Y473104D01*
X351466Y473129D01*
X351470D01*
X351473Y473136D01*
X351484Y473144D01*
X351499Y473155D01*
X351532Y473187D01*
X351572Y473227D01*
X351608Y473282D01*
X351641Y473344D01*
X351656Y473377D01*
X351666Y473413D01*
X351670Y473453D01*
X351674Y473493D01*
Y473515D01*
X351670Y473529D01*
X351663Y473569D01*
X351652Y473617D01*
X351630Y473671D01*
X351597Y473730D01*
X351575Y473759D01*
X351554Y473788D01*
X351524Y473813D01*
X351492Y473839D01*
X351488D01*
X351481Y473846D01*
X351466Y473853D01*
X351448Y473864D01*
X351419Y473875D01*
X351386Y473890D01*
X351346Y473901D01*
X351299Y473915D01*
X351244Y473930D01*
X351182Y473944D01*
X351113Y473959D01*
X351037Y473970D01*
X350949Y473981D01*
X350855Y473988D01*
X350753Y473992D01*
X350640Y473995D01*
D02*
G37*
G36*
X351619Y469948D02*
X350862D01*
Y469329D01*
X350866Y469282D01*
X350869Y469231D01*
X350873Y469180D01*
X350880Y469129D01*
X350887Y469089D01*
X350891Y469081D01*
X350895Y469067D01*
X350906Y469045D01*
X350920Y469016D01*
X350935Y468987D01*
X350957Y468954D01*
X350986Y468921D01*
X351015Y468896D01*
X351019Y468892D01*
X351029Y468885D01*
X351051Y468874D01*
X351077Y468863D01*
X351106Y468852D01*
X351142Y468841D01*
X351186Y468834D01*
X351233Y468830D01*
X351241D01*
X351255D01*
X351277Y468834D01*
X351306Y468837D01*
X351343Y468845D01*
X351379Y468856D01*
X351415Y468870D01*
X351452Y468892D01*
X351455Y468896D01*
X351466Y468903D01*
X351484Y468918D01*
X351503Y468936D01*
X351524Y468961D01*
X351546Y468990D01*
X351568Y469027D01*
X351583Y469067D01*
Y469070D01*
X351590Y469089D01*
X351594Y469114D01*
X351601Y469154D01*
X351608Y469209D01*
X351612Y469271D01*
X351619Y469351D01*
Y469948D01*
D02*
G37*
G36*
X350564D02*
X349697D01*
Y469231D01*
X349701Y469154D01*
X349705Y469121D01*
X349708Y469092D01*
Y469089D01*
X349712Y469074D01*
X349715Y469052D01*
X349723Y469027D01*
X349745Y468965D01*
X349774Y468903D01*
X349777Y468899D01*
X349785Y468889D01*
X349796Y468874D01*
X349810Y468856D01*
X349832Y468837D01*
X349854Y468812D01*
X349883Y468794D01*
X349916Y468772D01*
X349919Y468768D01*
X349930Y468765D01*
X349952Y468757D01*
X349977Y468747D01*
X350007Y468736D01*
X350043Y468728D01*
X350087Y468725D01*
X350130Y468721D01*
X350138D01*
X350152D01*
X350181Y468725D01*
X350214Y468732D01*
X350251Y468739D01*
X350290Y468754D01*
X350331Y468772D01*
X350371Y468797D01*
X350374Y468801D01*
X350389Y468812D01*
X350407Y468827D01*
X350429Y468848D01*
X350454Y468878D01*
X350480Y468914D01*
X350502Y468954D01*
X350520Y469001D01*
X350523Y469009D01*
X350527Y469023D01*
X350534Y469056D01*
X350542Y469096D01*
X350549Y469147D01*
X350556Y469209D01*
X350564Y469285D01*
Y469948D01*
D02*
G37*
G36*
X436250Y473495D02*
X436243D01*
X436225D01*
X436192D01*
X436148Y473492D01*
X436101D01*
X436043Y473488D01*
X435981Y473485D01*
X435915Y473477D01*
X435773Y473459D01*
X435704Y473448D01*
X435639Y473433D01*
X435577Y473419D01*
X435519Y473397D01*
X435468Y473375D01*
X435424Y473350D01*
X435420D01*
X435417Y473343D01*
X435391Y473324D01*
X435358Y473292D01*
X435322Y473251D01*
X435286Y473197D01*
X435253Y473135D01*
X435227Y473066D01*
X435224Y473030D01*
X435220Y472989D01*
Y472968D01*
X435224Y472953D01*
X435231Y472917D01*
X435246Y472866D01*
X435271Y472811D01*
X435307Y472749D01*
X435329Y472720D01*
X435358Y472691D01*
X435388Y472662D01*
X435424Y472633D01*
X435428D01*
X435435Y472625D01*
X435446Y472618D01*
X435464Y472611D01*
X435489Y472596D01*
X435522Y472585D01*
X435559Y472571D01*
X435602Y472556D01*
X435657Y472545D01*
X435715Y472531D01*
X435784Y472516D01*
X435857Y472505D01*
X435944Y472498D01*
X436035Y472491D01*
X436137Y472483D01*
X436250D01*
X436254D01*
X436258D01*
X436276D01*
X436308D01*
X436352Y472487D01*
X436399D01*
X436458Y472491D01*
X436519Y472494D01*
X436589Y472502D01*
X436727Y472520D01*
X436796Y472531D01*
X436862Y472545D01*
X436924Y472560D01*
X436982Y472582D01*
X437033Y472604D01*
X437077Y472629D01*
X437080D01*
X437084Y472636D01*
X437095Y472644D01*
X437109Y472655D01*
X437142Y472687D01*
X437182Y472727D01*
X437218Y472782D01*
X437251Y472844D01*
X437266Y472877D01*
X437277Y472913D01*
X437280Y472953D01*
X437284Y472993D01*
Y473015D01*
X437280Y473030D01*
X437273Y473069D01*
X437262Y473117D01*
X437240Y473171D01*
X437208Y473230D01*
X437186Y473259D01*
X437164Y473288D01*
X437135Y473313D01*
X437102Y473339D01*
X437098D01*
X437091Y473346D01*
X437077Y473353D01*
X437058Y473364D01*
X437029Y473375D01*
X436996Y473390D01*
X436956Y473401D01*
X436909Y473415D01*
X436854Y473430D01*
X436793Y473444D01*
X436723Y473459D01*
X436647Y473470D01*
X436560Y473481D01*
X436465Y473488D01*
X436363Y473492D01*
X436250Y473495D01*
D02*
G37*
%LPD*%
D11*
X342066Y271533D02*
G03*
X342066Y271533I-1969J0D01*
G01*
X246566Y277033D02*
G03*
X246566Y277033I-1969J0D01*
G01*
X513264Y340732D02*
G03*
X513264Y340732I-1969J0D01*
G01*
X502356Y182232D02*
G03*
X502356Y182232I-1969J0D01*
G01*
X502263Y388824D02*
G03*
X502263Y388824I-1969J0D01*
G01*
X502764Y234323D02*
G03*
X502764Y234323I-1969J0D01*
G01*
X452843Y430406D02*
G03*
X452843Y430406I-630J0D01*
G01*
X367233Y430905D02*
G03*
X367233Y430905I-630J0D01*
G01*
X280733Y430516D02*
G03*
X280733Y430516I-630J0D01*
G01*
X392520Y299425D02*
X408661D01*
X392520Y279701D02*
Y299425D01*
X408661Y279701D02*
Y299425D01*
X392520Y279701D02*
X408661D01*
X343640Y267990D02*
Y279998D01*
X331632Y267990D02*
Y279998D01*
Y267990D02*
X343640D01*
X331632Y279998D02*
X343640D01*
X248140Y273490D02*
Y285498D01*
X236133Y273490D02*
Y285498D01*
Y273490D02*
X248140D01*
X236133Y285498D02*
X248140D01*
X212752Y376945D02*
Y395055D01*
X224248Y376945D02*
Y395055D01*
X212752Y376945D02*
X224248D01*
X212752Y395055D02*
X224248D01*
X355752Y246602D02*
Y259398D01*
X362248Y246602D02*
Y259398D01*
X355752Y246602D02*
X362248D01*
X355752Y259398D02*
X362248D01*
X219320Y311197D02*
Y326945D01*
Y311197D02*
X235068D01*
X219320Y326945D02*
X235068D01*
Y311197D02*
Y326945D01*
X507752Y337189D02*
X523894Y337189D01*
X507752Y349394D02*
X523894D01*
X507752D02*
X507752Y337189D01*
X523894Y337189D02*
Y349394D01*
X512986Y178689D02*
Y190894D01*
X496845Y178689D02*
Y190894D01*
X512986D01*
X496845Y178689D02*
X512986D01*
X243870Y219205D02*
X265130D01*
X243870Y194795D02*
X265130D01*
Y219205D01*
X243870Y194795D02*
Y219205D01*
X212653Y289728D02*
X219346D01*
X212653Y293272D02*
X219346D01*
Y289728D02*
Y293272D01*
X212653Y289728D02*
Y293272D01*
X213203Y301748D02*
X221471D01*
X213203Y307063D02*
X221471D01*
Y301748D02*
Y307063D01*
X213203Y301748D02*
Y307063D01*
X591992Y291783D02*
X591992Y228357D01*
X543992Y291783D02*
X591992D01*
X543992D02*
X543992Y228357D01*
X543956D02*
X591956D01*
X239653Y382882D02*
X246346D01*
X239653Y379339D02*
X246346D01*
X239653D02*
Y382882D01*
X246346Y379339D02*
Y382882D01*
X224813Y363497D02*
X233081D01*
Y371765D01*
X224813D02*
X233081D01*
X224813Y363497D02*
Y371765D01*
X232272Y335154D02*
Y341846D01*
X228728Y335154D02*
Y341846D01*
X232272D01*
X228728Y335154D02*
X232272D01*
X237927Y358110D02*
Y370905D01*
X244423Y358110D02*
Y370905D01*
X237927Y358110D02*
X244423D01*
X237927Y370905D02*
X244423D01*
X374843Y167394D02*
X380157D01*
X374843Y159126D02*
X380157D01*
Y167394D01*
X374843Y159126D02*
Y167394D01*
X386343Y159366D02*
X391657D01*
X386343Y167634D02*
X391657D01*
X386343Y159366D02*
Y167634D01*
X391657Y159366D02*
Y167634D01*
X355405Y151008D02*
X395661D01*
Y103008D02*
Y151008D01*
X355405Y103008D02*
X395661D01*
X355405D02*
Y151008D01*
X309917Y174445D02*
Y185075D01*
X323303Y174445D02*
Y185075D01*
X309917D02*
X323303D01*
X309917Y174445D02*
X323303Y174445D01*
X316264Y168988D02*
X316264Y172531D01*
X322957Y168988D02*
Y172531D01*
X316264D02*
X322957D01*
X316264Y168988D02*
X322957D01*
X316264Y162988D02*
Y166532D01*
X322957Y162988D02*
Y166532D01*
X316264Y166532D02*
X322957Y166532D01*
X316264Y162988D02*
X322957D01*
X333154Y154728D02*
Y158272D01*
X339846Y154728D02*
Y158272D01*
X333154D02*
X339846D01*
X333154Y154728D02*
X339846D01*
X341075Y346354D02*
Y354622D01*
X335760Y346354D02*
Y354622D01*
X341075D01*
X335760Y346354D02*
X341075D01*
X344520Y344736D02*
X357315D01*
X344520Y338240D02*
X357315D01*
X344520D02*
Y344736D01*
X357315Y338240D02*
Y344736D01*
X345366Y317587D02*
Y325855D01*
Y317587D02*
X353633D01*
Y325855D01*
X345366D02*
X353633D01*
X331575Y328614D02*
Y336882D01*
X326260Y328614D02*
Y336882D01*
X331575D01*
X326260Y328614D02*
X331575D01*
X323673Y328854D02*
Y337122D01*
X318358Y328854D02*
Y337122D01*
X323673D01*
X318358Y328854D02*
X323673D01*
X292606Y316094D02*
X308354D01*
Y331842D01*
X292606Y316094D02*
Y331842D01*
X308354D01*
X282161Y328354D02*
Y336622D01*
X287476Y328354D02*
Y336622D01*
X282161Y328354D02*
X287476D01*
X282161Y336622D02*
X287476D01*
X289689Y315992D02*
Y322685D01*
X286146Y315992D02*
Y322685D01*
X289689D01*
X286146Y315992D02*
X289689D01*
X283207Y314732D02*
Y323000D01*
X277892Y314732D02*
Y323000D01*
X283207D01*
X277892Y314732D02*
X283207D01*
X307071Y309717D02*
X313764D01*
X307071Y313260D02*
X313764D01*
Y309717D02*
Y313260D01*
X307071Y309717D02*
Y313260D01*
X294769Y306258D02*
X301462D01*
X294769Y309801D02*
X301462D01*
Y306258D02*
Y309801D01*
X294769Y306258D02*
Y309801D01*
X310343Y276866D02*
X315657D01*
X310343Y285134D02*
X315657D01*
X310343Y276866D02*
Y285134D01*
X315657Y276866D02*
Y285134D01*
X313307Y261685D02*
X326693D01*
X313307Y272315D02*
X326693D01*
Y261685D02*
Y272315D01*
X313307Y261685D02*
Y272315D01*
X300685Y226307D02*
X311315D01*
X300685Y239693D02*
X311315D01*
X300685Y226307D02*
Y239693D01*
X311315Y226307D02*
X311315Y239693D01*
X335740Y215055D02*
Y239465D01*
X314480Y215055D02*
Y239465D01*
X335740Y239465D01*
X314480Y215055D02*
X335740Y215055D01*
X325980Y184555D02*
Y208965D01*
X347240Y184555D02*
Y208965D01*
X325980Y184555D02*
X347240D01*
X325980Y208965D02*
X347240Y208965D01*
X359740Y215055D02*
X359740Y239465D01*
X338480Y215055D02*
Y239465D01*
X359740Y239465D01*
X338480Y215055D02*
X359740Y215055D01*
X383130D02*
Y239465D01*
X361870Y215055D02*
Y239465D01*
X383130D01*
X361870Y215055D02*
X383130Y215055D01*
X355685Y282193D02*
X366315D01*
X355685Y268807D02*
X366315D01*
Y282193D01*
X355685Y268807D02*
Y282193D01*
X274752Y294055D02*
X286248D01*
X274752Y275945D02*
X286248D01*
Y294055D01*
X274752Y275945D02*
Y294055D01*
X259685Y288193D02*
X270315D01*
X259685Y274807D02*
X270315D01*
Y288193D01*
X259685Y274807D02*
Y288193D01*
X274252Y259398D02*
X280748D01*
X274252Y246602D02*
X280748D01*
Y259398D01*
X274252Y246602D02*
Y259398D01*
X259752Y259398D02*
X266248Y259398D01*
X259752Y246602D02*
X266248D01*
X266248Y259398D02*
X266248Y246602D01*
X259752D02*
Y259398D01*
X231685Y215807D02*
X242315D01*
X231685Y229193D02*
X242315Y229193D01*
X231685Y215807D02*
Y229193D01*
X242315Y215807D02*
Y229193D01*
X250543Y164969D02*
X257236D01*
X250543Y168512D02*
X257236D01*
Y164969D02*
Y168512D01*
X250543Y164969D02*
Y168512D01*
X347067Y145382D02*
X353169Y139279D01*
Y105618D02*
Y139279D01*
X311831Y105618D02*
X353169D01*
X311831D02*
Y139279D01*
X317933Y145382D01*
X347067D01*
X304067D02*
X310169Y139279D01*
Y105618D02*
Y139279D01*
X268831Y105618D02*
X310169D01*
X268831D02*
Y139279D01*
X274933Y145382D01*
X304067D01*
X216342Y137366D02*
X221657D01*
X216342Y145634D02*
X221657D01*
X216342Y137366D02*
Y145634D01*
X221657Y137366D02*
Y145634D01*
X207234Y138062D02*
Y146330D01*
X212549Y138062D02*
Y146330D01*
X207234Y138062D02*
X212549D01*
X207234Y146330D02*
X212549Y146330D01*
X225406Y151008D02*
X265661D01*
Y103008D02*
Y151008D01*
X225406Y103008D02*
X265661D01*
X225406D02*
Y151008D01*
X233653Y173228D02*
X240346D01*
X233653Y176772D02*
X240347D01*
X240346Y173228D02*
X240347Y176772D01*
X233653D02*
X233653Y173228D01*
Y179228D02*
X240346D01*
X233653Y182772D02*
X240347D01*
X240346Y179228D02*
X240347Y182772D01*
X233653D02*
X233653Y179228D01*
X227307Y184685D02*
X240693D01*
X227307Y195315D02*
X240693D01*
Y184685D02*
Y195315D01*
X227307Y184685D02*
Y195315D01*
X201295Y239130D02*
X201295Y217870D01*
X225705D02*
X225705Y239130D01*
X201295D02*
X225705D01*
X201295Y217870D02*
X225705D01*
X201795Y242870D02*
Y264130D01*
X226205Y242870D02*
Y264130D01*
X201795D02*
X226205D01*
X201795Y242870D02*
X226205D01*
X217807Y266685D02*
X231193D01*
X217807Y277315D02*
X231193D01*
X231193Y266685D01*
X217807D02*
Y277315D01*
X208106Y284157D02*
X216374D01*
X208106Y278842D02*
X216374D01*
X208106D02*
X208106Y284157D01*
X216374Y278842D02*
X216374Y284157D01*
X212866Y294744D02*
X221134D01*
X212866Y300059D02*
X221134D01*
Y294744D02*
Y300059D01*
X212866Y294744D02*
Y300059D01*
X234228Y331153D02*
Y337846D01*
X237772Y331153D02*
Y337846D01*
X234228Y331153D02*
X237772D01*
X234228Y337846D02*
X237772D01*
X214281Y350165D02*
X222549D01*
X214281Y344850D02*
X222549D01*
X214281D02*
Y350165D01*
X222549Y344850D02*
Y350165D01*
X214041Y342264D02*
X222308D01*
X214041Y336949D02*
X222308D01*
X214041D02*
Y342264D01*
X222308Y336949D02*
Y342264D01*
X203157Y353866D02*
Y362134D01*
X197843Y353866D02*
Y362134D01*
X203157D01*
X197843Y353866D02*
X203157D01*
X200244Y383366D02*
Y391634D01*
X205559Y383366D02*
Y391634D01*
X200244Y383366D02*
X205559D01*
X200244Y391634D02*
X205559D01*
X211157Y395866D02*
Y404134D01*
X205842Y395866D02*
Y404134D01*
X211157D01*
X205842Y395866D02*
X211157Y395866D01*
X459421Y294839D02*
X472217D01*
X459421Y288342D02*
X472217D01*
X459421D02*
Y294839D01*
X472217Y288342D02*
Y294839D01*
X490181Y288779D02*
X514669D01*
X490181Y315354D02*
X514669Y315354D01*
Y288779D02*
Y315354D01*
X490181Y315354D02*
X490181Y288779D01*
X477153Y324772D02*
X483847D01*
X477153Y321228D02*
X483847D01*
X477153D02*
Y324772D01*
X483847D02*
X483847Y321228D01*
X441768Y268169D02*
Y276831D01*
X436453Y268169D02*
Y276831D01*
Y268169D02*
X441768D01*
X436453Y276831D02*
X441768D01*
X428268Y268169D02*
Y276831D01*
X422953Y268169D02*
Y276831D01*
Y268169D02*
X428268D01*
X422953Y276831D02*
X428268D01*
X411953Y275894D02*
X417268Y275894D01*
X411953Y267626D02*
X417268D01*
X417268Y275894D02*
X417268Y267626D01*
X411953D02*
Y275894D01*
X466339Y280346D02*
X466339Y273654D01*
X469882Y280346D02*
X469882Y273654D01*
X466339Y273654D02*
X469882Y273654D01*
X466339Y280346D02*
X469882D01*
X490181Y257279D02*
X514669D01*
X490181Y283854D02*
X514669Y283854D01*
X514669Y257279D02*
X514669Y283854D01*
X490181Y257279D02*
Y283854D01*
X459713Y262248D02*
X472508D01*
X459713Y255752D02*
X472508D01*
X459713D02*
Y262248D01*
X472508Y255752D02*
Y262248D01*
X395963Y249132D02*
X404231D01*
X395963Y243817D02*
X404231D01*
X395963D02*
Y249132D01*
X404231Y243817D02*
Y249132D01*
X395963Y239071D02*
X404231D01*
X395963Y233756D02*
X404231D01*
X395963D02*
Y239071D01*
X404231Y233756D02*
Y239071D01*
X403824Y174166D02*
Y179481D01*
X395556Y174166D02*
X395556Y179481D01*
X395556Y174166D02*
X403824D01*
X395556Y179481D02*
X403824D01*
Y184227D02*
Y189541D01*
X395556Y184227D02*
Y189541D01*
Y184227D02*
X403824D01*
X395556Y189541D02*
X403824D01*
X332846Y379728D02*
Y383272D01*
X326154Y379728D02*
Y383272D01*
Y379728D02*
X332846Y379728D01*
X326154Y383272D02*
X332846D01*
X418457Y379228D02*
Y382772D01*
X411764Y379228D02*
Y382772D01*
Y379228D02*
X418457D01*
X411764Y382772D02*
X418457Y382772D01*
X462764Y430728D02*
X469457Y430728D01*
X462764Y434272D02*
X469457D01*
Y430728D02*
Y434272D01*
X462764Y430728D02*
Y434272D01*
X377153Y431228D02*
X383846D01*
X377153Y434772D02*
X383846Y434772D01*
X383846Y431228D02*
X383846Y434772D01*
X377153Y434772D02*
X377153Y431228D01*
X290653Y430839D02*
X290653Y434382D01*
X297346Y430839D02*
Y434382D01*
X290653D02*
X297346D01*
X290653Y430839D02*
X297346Y430839D01*
X492228Y485388D02*
X497543Y485388D01*
X492228Y493656D02*
X497543D01*
X492228Y485388D02*
Y493656D01*
X497543Y485388D02*
Y493656D01*
X502289Y485388D02*
X507604Y485388D01*
X502289Y493656D02*
X507604D01*
X502289Y485388D02*
Y493656D01*
X507604Y485388D02*
Y493656D01*
X517772Y437653D02*
Y444347D01*
X514228Y444346D02*
X514228Y437653D01*
X514228Y444346D02*
X517772Y444347D01*
X514228Y437653D02*
X517772D01*
X504654Y395728D02*
Y399272D01*
X511346Y395728D02*
Y399272D01*
X504654Y399272D02*
X511346Y399272D01*
X504654Y395728D02*
X511346Y395728D01*
X499488Y394064D02*
Y399379D01*
X491220Y394064D02*
Y399379D01*
Y394064D02*
X499488D01*
X491220Y399379D02*
X499488D01*
X496751Y376225D02*
Y392367D01*
X508956Y376225D02*
Y392367D01*
X496751D02*
X508956D01*
X496751Y376225D02*
X508956D01*
X485728Y391846D02*
X489272D01*
X485728Y385154D02*
X489272D01*
Y391846D01*
X485728Y385154D02*
X485728Y391846D01*
X482657Y372866D02*
X482657Y381134D01*
X477343Y372866D02*
Y381134D01*
X482657Y381134D01*
X477343Y372866D02*
X482657D01*
X514082Y391667D02*
X517626Y391667D01*
X514082Y384974D02*
X517626Y384974D01*
Y391667D01*
X514082Y384974D02*
Y391667D01*
X520082Y391667D02*
X523625D01*
X520082Y384974D02*
X523625D01*
Y391667D01*
X520082Y384974D02*
X520082Y391667D01*
X494153Y359228D02*
X500846Y359228D01*
X494153Y362772D02*
X500846Y362772D01*
X500846Y359228D01*
X494153Y359228D02*
Y362772D01*
X509154Y360228D02*
X515846D01*
X509154Y363772D02*
X515846D01*
Y360228D02*
Y363772D01*
X509154Y360228D02*
Y363772D01*
X508653Y354728D02*
X515346D01*
X508653Y358272D02*
X515346D01*
Y354728D02*
Y358272D01*
X508653Y354728D02*
Y358272D01*
X506272Y345654D02*
Y352346D01*
X502728Y345654D02*
Y352346D01*
X506272Y352346D01*
X502728Y345654D02*
X506272Y345654D01*
X500744Y332866D02*
Y341134D01*
X506059Y332866D02*
Y341134D01*
X500744Y332866D02*
X506059D01*
X500744Y341134D02*
X506059D01*
X509654Y326228D02*
X516346Y326228D01*
X509654Y329772D02*
X516347Y329772D01*
X516346Y326228D02*
X516347Y329772D01*
X509654Y326228D02*
Y329772D01*
X529134Y323342D02*
X529134Y328658D01*
X520866D02*
X520866Y323342D01*
X529134D01*
X520866Y328658D02*
X529134D01*
X544000Y298622D02*
X592000D01*
Y385878D02*
X592000Y298622D01*
X544000Y385878D02*
X592000D01*
X544000D02*
X544000Y298622D01*
X509654Y255272D02*
X516347D01*
X509654Y251728D02*
X516347D01*
X509654D02*
Y255272D01*
X516347Y251728D02*
Y255272D01*
X495272Y240154D02*
Y246847D01*
X491728Y240154D02*
Y246847D01*
X495272D01*
X491728Y240154D02*
X495272D01*
X498654Y248228D02*
X505346D01*
X498654Y251772D02*
X505346D01*
Y248228D02*
Y251772D01*
X498654Y248228D02*
Y251772D01*
X513394Y230780D02*
Y242984D01*
X497252Y230780D02*
Y242984D01*
X513394D01*
X497252Y230780D02*
X513394D01*
X478653Y233728D02*
X485346Y233728D01*
X478653Y237272D02*
X485347D01*
X485346Y233728D02*
X485347Y237272D01*
X478653Y233728D02*
Y237272D01*
X490244Y227866D02*
Y236134D01*
X495559Y227866D02*
Y236134D01*
X490244Y227866D02*
X495559D01*
X490244Y236134D02*
X495559D01*
X498504Y220728D02*
X505197D01*
X498504Y224272D02*
X505197D01*
Y220728D02*
Y224272D01*
X498504Y220728D02*
Y224272D01*
X518134Y215843D02*
Y221158D01*
X509866Y215843D02*
Y221158D01*
Y215843D02*
X518134D01*
X509866Y221158D02*
X518134D01*
X422843Y137134D02*
X428158D01*
X422843Y128866D02*
X428158D01*
Y137134D01*
X422843Y128866D02*
Y137134D01*
X435626Y102500D02*
Y150500D01*
Y102500D02*
X475882D01*
Y150500D01*
X435626D02*
X475882D01*
X480063Y102000D02*
Y150000D01*
Y102000D02*
X520319D01*
Y150000D01*
X480063D02*
X520319D01*
X525311Y102000D02*
Y150000D01*
Y102000D02*
X565567D01*
Y150000D01*
X525311D02*
X565567D01*
X586277Y143365D02*
X591592D01*
X586277Y135098D02*
X591592D01*
Y143365D01*
X586277Y135098D02*
Y143365D01*
X574031Y135139D02*
X574031Y143406D01*
X579346Y135139D02*
Y143406D01*
X574031Y135139D02*
X579346Y135139D01*
X574031Y143406D02*
X579346Y143406D01*
X498526Y202630D02*
Y206173D01*
X505219Y206173D02*
X505219Y202630D01*
X498526Y206173D02*
X505219Y206173D01*
X498526Y202630D02*
X505219Y202630D01*
X498654Y196728D02*
Y200272D01*
X505346Y196728D02*
Y200272D01*
X498654Y200272D02*
X505346Y200272D01*
X498654Y196728D02*
X505346D01*
X492228Y187654D02*
X495772D01*
X492228Y194346D02*
X495772D01*
X492228Y187654D02*
Y194346D01*
X495772Y187654D02*
X495772Y194346D01*
X478398Y180109D02*
X485091D01*
X478398Y183653D02*
X485091D01*
Y180109D02*
Y183653D01*
X478398Y180109D02*
Y183653D01*
X489784Y182385D02*
X495099Y182385D01*
X489784Y174118D02*
X495099D01*
Y182385D01*
X489784Y174118D02*
Y182385D01*
X498654Y168228D02*
Y171772D01*
X505346Y168228D02*
Y171772D01*
X498654D02*
X505346D01*
X498654Y168228D02*
X505346D01*
X509866Y169158D02*
X518134Y169158D01*
X509866Y163842D02*
X518134D01*
X509866D02*
X509866Y169158D01*
X518134Y163842D02*
Y169158D01*
X453979Y304899D02*
X459491D01*
X453979Y313363D02*
X459491Y313363D01*
X459491Y304899D01*
X453979D02*
Y313363D01*
X455024Y272709D02*
X460535Y272709D01*
X455024Y281173D02*
X460535D01*
Y272709D02*
Y281173D01*
X455024Y272709D02*
X455024Y281173D01*
X414122Y432177D02*
X454280D01*
X414122Y391823D02*
Y432177D01*
Y391823D02*
X454280D01*
Y432177D01*
X368669Y392323D02*
X368669Y432677D01*
X328512Y392323D02*
X368669Y392323D01*
X328512Y392323D02*
Y432677D01*
X368669Y432677D01*
X242012Y432287D02*
X282169Y432287D01*
X242012Y391933D02*
Y432287D01*
Y391933D02*
X282169D01*
Y432287D01*
X368252Y258898D02*
X374748D01*
X368252Y246102D02*
X374748D01*
Y258898D01*
X368252Y246102D02*
Y258898D01*
X465339Y305744D02*
Y312437D01*
X468882Y305744D02*
Y312437D01*
X465339Y305744D02*
X468882D01*
X465339Y312437D02*
X468882D01*
X435764Y311319D02*
X442457D01*
X435764Y314862D02*
X442457D01*
Y311319D02*
Y314862D01*
X435764Y311319D02*
Y314862D01*
X436764Y279319D02*
X443457Y279319D01*
X436764Y282862D02*
X443457Y282862D01*
X443457Y279319D02*
X443457Y282862D01*
X436764Y279319D02*
Y282862D01*
X440768Y300260D02*
Y308921D01*
X435453Y300260D02*
Y308921D01*
Y300260D02*
X440768Y300260D01*
X435453Y308921D02*
X440768D01*
X427268Y300260D02*
Y308921D01*
X421953Y300260D02*
Y308921D01*
Y300260D02*
X427268Y300260D01*
X421953Y308921D02*
X427268D01*
X406463Y337541D02*
X414731D01*
X406463Y332226D02*
X414731D01*
X406463D02*
Y337541D01*
X414731Y332226D02*
Y337541D01*
X406463Y327481D02*
X414731D01*
X406463Y322166D02*
X414731D01*
X406463D02*
Y327481D01*
X414731Y322166D02*
Y327481D01*
X544992Y395346D02*
Y470602D01*
X592992D01*
Y395346D02*
Y470602D01*
X544992Y395346D02*
X592992D01*
D15*
X281949Y448986D02*
Y486178D01*
X248561Y448986D02*
X281949D01*
X248561D02*
Y486178D01*
X281949Y486178D01*
X335061Y486568D02*
X368449D01*
X335061Y449376D02*
Y486568D01*
Y449376D02*
X368449D01*
X368449Y486568D02*
X368449Y449376D01*
X420672Y486068D02*
X454059D01*
X420672Y448876D02*
Y486068D01*
Y448876D02*
X454059D01*
Y486068D01*
D173*
X230032Y329362D02*
Y331566D01*
X225859Y329362D02*
Y331566D01*
Y329362D02*
X230032D01*
X225859Y331566D02*
X230032D01*
X214572Y314484D02*
X216777D01*
X214572Y310311D02*
X216777D01*
Y314484D01*
X214572Y310311D02*
Y314484D01*
X395898Y157587D02*
X398102D01*
X395898Y153413D02*
X398102D01*
Y157587D01*
X395898Y153413D02*
Y157587D01*
X275898Y380134D02*
Y384307D01*
X278102Y380134D02*
Y384307D01*
X275898Y380134D02*
X278102D01*
X275898Y384307D02*
X278102D01*
X250398Y380024D02*
X252602D01*
X250398Y384197D02*
X252602Y384197D01*
X250398Y380024D02*
Y384197D01*
X252602Y380024D02*
X252602Y384197D01*
X256398Y378413D02*
X258602D01*
X256398Y382587D02*
X258602D01*
X256398Y378413D02*
Y382587D01*
X258602Y378413D02*
Y382587D01*
X260398Y375913D02*
X262602D01*
X260398Y380087D02*
X262602D01*
X260398Y375913D02*
Y380087D01*
X262602Y375913D02*
Y380087D01*
X264398Y377913D02*
X266602D01*
X264398Y382087D02*
X266602D01*
X264398Y377913D02*
Y382087D01*
X266602Y377913D02*
Y382087D01*
X272398Y376913D02*
X274602D01*
X272398Y381087D02*
X274602D01*
X272398Y376913D02*
Y381087D01*
X274602Y376913D02*
Y381087D01*
X268398Y377413D02*
X270602D01*
X268398Y381587D02*
X270602D01*
X268398Y377413D02*
Y381587D01*
X270602Y377413D02*
Y381587D01*
X231839Y379082D02*
X234044Y379082D01*
X231839Y374909D02*
X234044D01*
X234044Y379082D01*
X231839Y374909D02*
Y379082D01*
X225839Y379082D02*
X225839Y374909D01*
X228044Y374909D02*
Y379082D01*
X225839Y374909D02*
X228044Y374909D01*
X225839Y379082D02*
X228044Y379082D01*
X219339Y366582D02*
X221544D01*
X219339Y362409D02*
X221544D01*
Y366582D01*
X219339Y362409D02*
Y366582D01*
X358024Y168658D02*
Y170862D01*
X362197D02*
X362197Y168658D01*
X358024Y170862D02*
X362197D01*
X358024Y168658D02*
X362197Y168658D01*
X362197Y164657D02*
Y166862D01*
X358024Y164657D02*
Y166862D01*
Y164657D02*
X362197D01*
X358024Y166862D02*
X362197D01*
X362024Y160658D02*
Y162862D01*
X366197D02*
X366197Y160658D01*
X362024Y162862D02*
X366197D01*
X362024Y160658D02*
X366197Y160658D01*
X358024Y156658D02*
X362197D01*
X358024Y158862D02*
X362197D01*
X362197Y156658D01*
X358024D02*
X358024Y158862D01*
X347413Y154398D02*
Y156602D01*
X351587Y154398D02*
Y156602D01*
X347413D02*
X351587D01*
X347413Y154398D02*
X351587D01*
X346398Y152587D02*
X348602D01*
X346398Y148413D02*
X348602D01*
Y152587D01*
X346398Y148413D02*
Y152587D01*
X317815Y347791D02*
X320020D01*
X317815Y351965D02*
X320020D01*
X317815Y347791D02*
Y351965D01*
X320020Y347791D02*
Y351965D01*
X330815Y347402D02*
Y351575D01*
X333020Y347402D02*
Y351575D01*
X330815Y347402D02*
X333020D01*
X330815Y351575D02*
X333020D01*
X321815Y352075D02*
X324020D01*
X321815Y347902D02*
X324020D01*
Y352075D01*
X321815Y347902D02*
Y352075D01*
X342749Y334539D02*
X346922D01*
X342749Y332335D02*
X346922D01*
X342749Y334539D02*
X342749Y332335D01*
X346922D02*
X346922Y334539D01*
X337318Y318824D02*
X341492Y318824D01*
X337318Y316619D02*
X341492D01*
X337318D02*
Y318824D01*
X341492Y316619D02*
X341492Y318824D01*
X337429Y320619D02*
X341602Y320619D01*
X337429Y322824D02*
X341602Y322824D01*
Y320619D02*
Y322824D01*
X337429Y320619D02*
Y322824D01*
X339618Y325635D02*
Y329808D01*
X337413Y325635D02*
Y329808D01*
X339618D01*
X337413Y325635D02*
X339618D01*
X348587Y331602D02*
X348587Y329398D01*
X344413Y329398D02*
Y331602D01*
Y329398D02*
X348587Y329398D01*
X344413Y331602D02*
X348587D01*
X356819Y325324D02*
X360992D01*
X356819Y323119D02*
X360992D01*
X356819D02*
Y325324D01*
X360992Y323119D02*
Y325324D01*
X361102Y316619D02*
X361102Y318824D01*
X356929D02*
X356929Y316619D01*
X361102D01*
X356929Y318824D02*
X361102D01*
X345831Y314091D02*
X350004Y314091D01*
X345831Y311886D02*
X350004Y311886D01*
X345831Y311886D02*
Y314091D01*
X350004Y311886D02*
Y314091D01*
X295894Y334386D02*
Y336591D01*
X291721Y334386D02*
Y336591D01*
Y334386D02*
X295894D01*
X291721Y336591D02*
X295894D01*
X310771Y321130D02*
X312976D01*
X310771Y325304D02*
X312976D01*
X310771Y321130D02*
Y325304D01*
X312976Y321130D02*
Y325304D01*
X291913Y310898D02*
Y313102D01*
X296087Y310898D02*
Y313102D01*
X291913D02*
X296087D01*
X291913Y310898D02*
X296087D01*
X224898Y290087D02*
X227102D01*
X224898Y285913D02*
X227102D01*
X227102Y290087D02*
X227102Y285913D01*
X224898D02*
X224898Y290087D01*
X236913Y288398D02*
X241087D01*
X236913Y290602D02*
X241087D01*
X241087Y288398D01*
X236913D02*
X236913Y290602D01*
X244913Y290602D02*
X249087D01*
X244913Y288398D02*
X249087Y288398D01*
X244913Y288398D02*
Y290602D01*
X249087Y288398D02*
Y290602D01*
X319398Y280087D02*
X321602D01*
X319398Y275913D02*
X321602D01*
Y280087D01*
X319398Y275913D02*
Y280087D01*
X333413Y283398D02*
X337587Y283398D01*
X333413Y285602D02*
X337587Y285602D01*
Y283398D02*
Y285602D01*
X333413Y283398D02*
Y285602D01*
X341413D02*
X345587Y285602D01*
X341413Y283398D02*
X345587Y283398D01*
X341413Y283398D02*
Y285602D01*
X345587Y285602D02*
X345587Y283398D01*
X352197Y273398D02*
Y275602D01*
X348024Y273398D02*
X348024Y275602D01*
X348024Y273398D02*
X352197Y273398D01*
X348024Y275602D02*
X352197Y275602D01*
X256587Y277898D02*
X256587Y280102D01*
X252413Y280102D02*
X252413Y277898D01*
X256587D01*
X252413Y280102D02*
X256587Y280102D01*
X275413Y178898D02*
X279587D01*
X275413Y181102D02*
X279587Y181102D01*
X279587Y178898D02*
X279587Y181102D01*
X275413Y178898D02*
Y181102D01*
X275413Y177102D02*
X279587Y177102D01*
X275413Y174898D02*
X279587Y174898D01*
X275413Y174898D02*
Y177102D01*
X279587Y174898D02*
Y177102D01*
X279413Y170898D02*
X283587Y170898D01*
X279413Y173102D02*
X283587D01*
Y170898D02*
Y173102D01*
X279413Y170898D02*
X279413Y173102D01*
X275413Y166898D02*
Y169102D01*
X279587Y166898D02*
Y169102D01*
X275413D02*
X279587D01*
X275413Y166898D02*
X279587D01*
X264913Y164398D02*
Y166602D01*
X269087Y164398D02*
Y166602D01*
X264913D02*
X269087D01*
X264913Y164398D02*
X269087D01*
X263898Y162587D02*
X266102D01*
X263898Y158413D02*
X266102D01*
Y162587D01*
X263898Y158413D02*
Y162587D01*
X217913Y131398D02*
Y133602D01*
X222087Y131398D02*
Y133602D01*
X217913D02*
X222087D01*
X217913Y131398D02*
X222087D01*
X238898Y325587D02*
X241102D01*
X238898Y321413D02*
X241102D01*
Y325587D01*
X238898Y321413D02*
Y325587D01*
X230044Y356019D02*
Y360192D01*
X227839Y356019D02*
Y360192D01*
X230044D01*
X227839Y356019D02*
X230044D01*
X220355Y358208D02*
X224528D01*
X220355Y356003D02*
X224528D01*
X220355D02*
Y358208D01*
X224528Y356003D02*
Y358208D01*
X215339Y361019D02*
Y365192D01*
X217544Y361019D02*
Y365192D01*
X215339Y361019D02*
X217544D01*
X215339Y365192D02*
X217544D01*
X203371Y336405D02*
Y338610D01*
X199198Y336405D02*
Y338610D01*
Y336405D02*
X203371D01*
X199198Y338610D02*
X203371D01*
X199088Y340405D02*
Y342610D01*
X203261Y340405D02*
Y342610D01*
X199088D02*
X203261D01*
X199088Y340405D02*
X203261D01*
X199088Y347405D02*
X203261D01*
X199088Y349610D02*
X203261D01*
Y347405D02*
Y349610D01*
X199088Y347405D02*
Y349610D01*
X208398Y383413D02*
Y387587D01*
X210602Y383413D02*
Y387587D01*
X208398Y383413D02*
X210602D01*
X208398Y387587D02*
X210602D01*
X230413Y393713D02*
X234587D01*
X230413Y391508D02*
X234587Y391508D01*
X230413Y391508D02*
X230413Y393713D01*
X234587Y391508D02*
Y393713D01*
X230413Y397713D02*
X234587Y397713D01*
X230413Y395508D02*
X234587Y395508D01*
X230413Y395508D02*
Y397713D01*
X234587Y395508D02*
Y397713D01*
X230413Y401713D02*
X234587Y401713D01*
X230413Y399508D02*
X234587D01*
X230413Y401713D02*
X230413Y399508D01*
X234587D02*
Y401713D01*
X230413Y425213D02*
X234587Y425213D01*
X230413Y423008D02*
X234587D01*
X230413Y425213D02*
X230413Y423008D01*
X234587D02*
Y425213D01*
X230413Y418008D02*
X230413Y420213D01*
X234587Y418008D02*
Y420213D01*
X230413D02*
X234587D01*
X230413Y418008D02*
X234587Y418008D01*
X230413Y416213D02*
X230413Y414008D01*
X234587D02*
Y416213D01*
X230413Y416213D02*
X234587Y416213D01*
X230413Y414008D02*
X234587D01*
X215102Y408524D02*
Y412697D01*
X212898Y408524D02*
Y412697D01*
X215102Y412697D01*
X212898Y408524D02*
X215102Y408524D01*
X212898Y416413D02*
X212898Y420587D01*
X215102D02*
X215102Y416413D01*
X212898Y416413D02*
X215102Y416413D01*
X212898Y420587D02*
X215102D01*
X205913Y417602D02*
X210087Y417602D01*
X205913Y415398D02*
X210087Y415398D01*
X205913Y417602D02*
X205913Y415398D01*
X210087Y415398D02*
Y417602D01*
X464024Y296988D02*
X468197Y296988D01*
X464024Y299193D02*
X468197Y299193D01*
Y296988D02*
Y299193D01*
X464024Y296988D02*
Y299193D01*
X482387Y317398D02*
Y319602D01*
X478213Y319602D02*
X478213Y317398D01*
X482387D01*
X478213Y319602D02*
X482387Y319602D01*
X407508Y275087D02*
X407508Y270913D01*
X409713D02*
Y275087D01*
X407508Y270913D02*
X409713D01*
X407508Y275087D02*
X409713Y275087D01*
X403508Y270913D02*
Y275087D01*
X405713Y270913D02*
Y275087D01*
X403508Y270913D02*
X405713D01*
X403508Y275087D02*
X405713D01*
X395024Y273398D02*
Y275602D01*
X399197Y273398D02*
Y275602D01*
X395024D02*
X399197D01*
X395024Y273398D02*
X399197D01*
X395024Y271602D02*
X395024Y269398D01*
X399197D02*
X399197Y271602D01*
X395024D02*
X399197D01*
X395024Y269398D02*
X399197D01*
X407508Y262913D02*
X409713D01*
X407508Y267087D02*
X409713Y267087D01*
X407508Y262913D02*
Y267087D01*
X409713Y262913D02*
X409713Y267087D01*
X426524Y265102D02*
X430697Y265102D01*
X426524Y262898D02*
X430697Y262898D01*
X426524Y262898D02*
Y265102D01*
X430697Y262898D02*
Y265102D01*
X434524Y265102D02*
X438697D01*
X434524Y262898D02*
X438697D01*
X434524D02*
Y265102D01*
X438697Y262898D02*
Y265102D01*
X462697Y283398D02*
Y285602D01*
X458524Y283398D02*
Y285602D01*
Y283398D02*
X462697D01*
X458524Y285602D02*
X462697D01*
X472508Y274504D02*
Y278677D01*
X474713Y274504D02*
Y278677D01*
X472508Y274504D02*
X474713D01*
X472508Y278677D02*
X474713D01*
X461508Y269587D02*
X463713D01*
X461508Y265413D02*
X463713D01*
Y269587D01*
X461508Y265413D02*
Y269587D01*
X466524Y264398D02*
X470697D01*
X466524Y266602D02*
X470697D01*
Y264398D02*
Y266602D01*
X466524Y264398D02*
X466524Y266602D01*
X205803Y413602D02*
X209976Y413602D01*
X205803Y411398D02*
X209976Y411398D01*
X205803Y411398D02*
Y413602D01*
X209976Y413602D02*
X209976Y411398D01*
X321087Y402102D02*
X321087Y399898D01*
X316913Y399898D02*
Y402102D01*
Y399898D02*
X321087Y399898D01*
X316913Y402102D02*
X321087D01*
X321087Y398102D02*
X321087Y395898D01*
X316913Y395898D02*
X316913Y398102D01*
X316913Y395898D02*
X321087Y395898D01*
X316913Y398102D02*
X321087D01*
Y391898D02*
Y394102D01*
X316913Y391898D02*
Y394102D01*
Y391898D02*
X321087D01*
X316913Y394102D02*
X321087D01*
X339102Y380413D02*
Y384587D01*
X336898Y380413D02*
X336898Y384587D01*
X339102D01*
X336898Y380413D02*
X339102Y380413D01*
X362398Y384697D02*
X364602Y384697D01*
X362398Y380524D02*
X364602D01*
X364602Y384697D01*
X362398Y380524D02*
Y384697D01*
X406697Y401602D02*
X406697Y399398D01*
X402524Y399398D02*
Y401602D01*
Y399398D02*
X406697Y399398D01*
X402524Y401602D02*
X406697D01*
X406697Y395398D02*
Y397602D01*
X402524Y395398D02*
X402524Y397602D01*
X402524Y395398D02*
X406697Y395398D01*
X402524Y397602D02*
X406697D01*
X406697Y391398D02*
Y393602D01*
X402524Y393602D02*
X402524Y391398D01*
X406697D01*
X402524Y393602D02*
X406697Y393602D01*
X424713Y379913D02*
Y384087D01*
X422508Y379913D02*
X422508Y384087D01*
X424713D01*
X422508Y379913D02*
X424713Y379913D01*
X448008Y384197D02*
X450213D01*
X448008Y380024D02*
X450213D01*
Y384197D01*
X448008Y380024D02*
Y384197D01*
X462024Y426398D02*
Y428602D01*
X466197D02*
X466197Y426398D01*
X462024Y428602D02*
X466197D01*
X462024Y426398D02*
X466197Y426398D01*
X462024Y422398D02*
Y424602D01*
X466197Y422398D02*
Y424602D01*
X462024D02*
X466197D01*
X462024Y422398D02*
X466197D01*
X462024Y418398D02*
X466197D01*
X462024Y420602D02*
X466197Y420602D01*
X466197Y418398D02*
X466197Y420602D01*
X462024Y418398D02*
X462024Y420602D01*
X448508Y439413D02*
X450713Y439413D01*
X448508Y443587D02*
X450713D01*
X448508Y439413D02*
X448508Y443587D01*
X450713Y439413D02*
Y443587D01*
X425508Y439413D02*
X427713Y439413D01*
X425508Y443587D02*
X427713D01*
X425508Y439413D02*
Y443587D01*
X427713D02*
X427713Y439413D01*
X406697Y425102D02*
X406697Y422898D01*
X402524Y422898D02*
Y425102D01*
Y422898D02*
X406697Y422898D01*
X402524Y425102D02*
X406697D01*
X402524Y417898D02*
X406697D01*
X402524Y420102D02*
X406697D01*
Y417898D02*
Y420102D01*
X402524Y417898D02*
Y420102D01*
X402524Y413898D02*
X406697Y413898D01*
X402524Y416102D02*
X406697D01*
X406697Y413898D01*
X402524Y413898D02*
Y416102D01*
X376413Y429102D02*
X376413Y426898D01*
X380587Y429102D02*
X380587Y426898D01*
X376413Y429102D02*
X380587Y429102D01*
X376413Y426898D02*
X380587Y426898D01*
X376413Y422898D02*
Y425102D01*
X380587Y422898D02*
X380587Y425102D01*
X376413Y425102D02*
X380587Y425102D01*
X376413Y422898D02*
X380587D01*
X376413Y418898D02*
X380587D01*
X376413Y421102D02*
X380587D01*
X380587Y418898D02*
X380587Y421102D01*
X376413Y418898D02*
X376413Y421102D01*
X362898Y439913D02*
X365102Y439913D01*
X362898Y444087D02*
X365102D01*
X362898Y439913D02*
X362898Y444087D01*
X365102D02*
X365102Y439913D01*
X339898Y439913D02*
X342102Y439913D01*
X339898Y444087D02*
X342102Y444087D01*
X339898Y444087D02*
X339898Y439913D01*
X342102Y439913D02*
Y444087D01*
X321087Y425602D02*
X321087Y423398D01*
X316913Y425602D02*
X316913Y423398D01*
X321087Y423398D01*
X316913Y425602D02*
X321087Y425602D01*
X316913Y418398D02*
X321087D01*
X316913Y420602D02*
X321087D01*
Y418398D02*
Y420602D01*
X316913Y418398D02*
Y420602D01*
X316913Y414398D02*
X321087D01*
X316913Y416602D02*
X321087Y416602D01*
Y414398D02*
Y416602D01*
X316913Y416602D02*
X316913Y414398D01*
X289913Y426508D02*
X294087Y426508D01*
X289913Y428713D02*
X294087Y428713D01*
Y426508D02*
Y428713D01*
X289913Y426508D02*
Y428713D01*
X289913Y422508D02*
X294087Y422508D01*
X289913Y424713D02*
X294087D01*
X294087Y422508D01*
X289913Y422508D02*
Y424713D01*
Y418508D02*
Y420713D01*
X294087Y418508D02*
X294087Y420713D01*
X289913Y420713D02*
X294087Y420713D01*
X289913Y418508D02*
X294087D01*
X278602Y439524D02*
Y443697D01*
X276398Y439524D02*
Y443697D01*
X278602Y443697D01*
X276398Y439524D02*
X278602Y439524D01*
X255602Y439524D02*
Y443697D01*
X253398Y443697D02*
X253398Y439524D01*
X253398Y443697D02*
X255602Y443697D01*
X253398Y439524D02*
X255602D01*
X244898Y473524D02*
Y477697D01*
X247102Y473524D02*
Y477697D01*
X244898Y473524D02*
X247102D01*
X244898Y477697D02*
X247102D01*
X243102Y473524D02*
X243102Y477697D01*
X240898Y473524D02*
Y477697D01*
X243102Y477697D01*
X240898Y473524D02*
X243102D01*
X417008Y477587D02*
X419213D01*
X417008Y473413D02*
X419213D01*
X419213Y477587D01*
X417008D02*
X417008Y473413D01*
X413008Y473413D02*
X415213Y473413D01*
X413008Y477587D02*
X415213D01*
X413008Y473413D02*
X413008Y477587D01*
X415213Y473413D02*
Y477587D01*
X331398Y478087D02*
X333602Y478087D01*
X331398Y473913D02*
X333602Y473913D01*
X333602Y478087D01*
X331398Y473913D02*
X331398Y478087D01*
X327398Y473913D02*
X329602Y473913D01*
X327398Y478087D02*
X329602D01*
X327398Y473913D02*
X327398Y478087D01*
X329602Y473913D02*
Y478087D01*
X288587Y477008D02*
Y479213D01*
X284413Y479213D02*
X284413Y477008D01*
X288587D01*
X284413Y479213D02*
X288587Y479213D01*
X284413Y472008D02*
Y474213D01*
X288587Y472008D02*
Y474213D01*
X284413D02*
X288587D01*
X284413Y472008D02*
X288587D01*
X288587Y467008D02*
Y469213D01*
X284413Y467008D02*
Y469213D01*
Y467008D02*
X288587Y467008D01*
X284413Y469213D02*
X288587Y469213D01*
X288587Y462008D02*
Y464213D01*
X284413Y462008D02*
Y464213D01*
Y462008D02*
X288587D01*
X284413Y464213D02*
X288587D01*
Y457008D02*
Y459213D01*
X284413Y457008D02*
X284413Y459213D01*
X284413Y457008D02*
X288587Y457008D01*
X284413Y459213D02*
X288587D01*
X370913Y459602D02*
X375087D01*
X370913Y457398D02*
X375087D01*
X370913D02*
Y459602D01*
X375087Y457398D02*
Y459602D01*
X370913Y464602D02*
X375087Y464602D01*
X370913Y462398D02*
X375087Y462398D01*
X370913Y462398D02*
Y464602D01*
X375087Y462398D02*
Y464602D01*
X370913Y469602D02*
X375087D01*
X370913Y467398D02*
X375087D01*
X370913D02*
X370913Y469602D01*
X375087D02*
X375087Y467398D01*
X370913Y472398D02*
X375087D01*
X370913Y474602D02*
X375087Y474602D01*
X375087Y472398D02*
X375087Y474602D01*
X370913Y472398D02*
Y474602D01*
Y479602D02*
X375087D01*
X370913Y477398D02*
X375087D01*
X370913D02*
Y479602D01*
X375087Y477398D02*
Y479602D01*
X456524Y479102D02*
X460697Y479102D01*
X456524Y476898D02*
X460697Y476898D01*
X456524Y476898D02*
Y479102D01*
X460697Y476898D02*
Y479102D01*
X456524Y471898D02*
X460697D01*
X456524Y474102D02*
X460697D01*
Y471898D02*
Y474102D01*
X456524Y471898D02*
Y474102D01*
Y469102D02*
X460697D01*
X456524Y466898D02*
X460697Y466898D01*
X456524Y466898D02*
X456524Y469102D01*
X460697Y466898D02*
Y469102D01*
X456524Y464102D02*
X460697Y464102D01*
X456524Y461898D02*
X460697D01*
X456524Y464102D02*
X456524Y461898D01*
X460697D02*
Y464102D01*
X456524Y459102D02*
X460697D01*
X456524Y456898D02*
X460697D01*
X456524D02*
Y459102D01*
X460697Y456898D02*
Y459102D01*
X509898Y437413D02*
X512102Y437413D01*
X509898Y441587D02*
X512102Y441587D01*
X509898Y437413D02*
Y441587D01*
X512102Y437413D02*
Y441587D01*
X487398Y380587D02*
X487398Y376413D01*
X489602D02*
Y380587D01*
X487398Y376413D02*
X489602D01*
X487398Y380587D02*
X489602Y380587D01*
X495413Y355398D02*
X495413Y357602D01*
X499587Y355398D02*
Y357602D01*
X495413Y357602D02*
X499587Y357602D01*
X495413Y355398D02*
X499587D01*
X520413Y329898D02*
Y332102D01*
X524587Y329898D02*
Y332102D01*
X520413D02*
X524587D01*
X520413Y329898D02*
X524587D01*
X480413Y241102D02*
X480413Y238898D01*
X484587D02*
Y241102D01*
X480413Y241102D02*
X484587Y241102D01*
X480413Y238898D02*
X484587D01*
X509913Y222898D02*
Y225102D01*
X514087Y222898D02*
Y225102D01*
X509913D02*
X514087D01*
X509913Y222898D02*
X514087D01*
X424398Y142413D02*
X426602D01*
X424398Y146587D02*
X426602D01*
X424398Y142413D02*
Y146587D01*
X426602Y142413D02*
Y146587D01*
X587898Y147913D02*
X590102D01*
X587898Y152087D02*
X590102D01*
X587898Y147913D02*
Y152087D01*
X590102Y147913D02*
Y152087D01*
X577602Y147913D02*
Y152087D01*
X575398Y147913D02*
Y152087D01*
X577602D01*
X575398Y147913D02*
X577602D01*
X479658Y187483D02*
X479658Y185279D01*
X483831Y187483D02*
X483831Y185279D01*
X479658Y187483D02*
X483831D01*
X479658Y185279D02*
X483831D01*
X509413Y170398D02*
X513587Y170398D01*
X509413Y172602D02*
X513587D01*
X513587Y170398D01*
X509413Y170398D02*
Y172602D01*
X442008Y288004D02*
Y292177D01*
X444213D02*
X444213Y288004D01*
X442008Y288004D02*
X444213Y288004D01*
X442008Y292177D02*
X444213D01*
X471508Y307004D02*
Y311177D01*
X473713D02*
X473713Y307004D01*
X471508Y307004D02*
X473713Y307004D01*
X471508Y311177D02*
X473713D01*
X448713Y303504D02*
Y307677D01*
X446508Y303504D02*
Y307677D01*
X448713D01*
X446508Y303504D02*
X448713D01*
X433524Y297693D02*
X437697D01*
X433524Y295488D02*
X437697Y295488D01*
X433524Y295488D02*
X433524Y297693D01*
X437697Y295488D02*
Y297693D01*
X425524D02*
X429697D01*
X425524Y295488D02*
X429697Y295488D01*
X425524Y295488D02*
Y297693D01*
X429697D02*
X429697Y295488D01*
X405008Y303413D02*
Y307587D01*
X407213Y303413D02*
Y307587D01*
X405008Y303413D02*
X407213D01*
X405008Y307587D02*
X407213D01*
X409008Y307587D02*
X409008Y303413D01*
X411213D02*
Y307587D01*
X409008Y303413D02*
X411213D01*
X409008Y307587D02*
X411213Y307587D01*
X449713Y271413D02*
Y275587D01*
X447508Y271413D02*
Y275587D01*
X449713Y275587D01*
X447508Y271413D02*
X449713Y271413D01*
X412024Y279398D02*
X416197D01*
X412024Y281602D02*
X416197D01*
X416197Y279398D01*
X412024D02*
X412024Y281602D01*
X414524Y291898D02*
X418697D01*
X414524Y294102D02*
X418697Y294102D01*
Y291898D02*
Y294102D01*
X414524Y294102D02*
X414524Y291898D01*
X414524Y283898D02*
X418697D01*
X414524Y286102D02*
X418697Y286102D01*
X418697Y283898D02*
X418697Y286102D01*
X414524Y283898D02*
Y286102D01*
X459508Y302067D02*
X461713D01*
X459508Y297894D02*
X461713D01*
Y302067D01*
X459508Y297894D02*
Y302067D01*
X446508Y315677D02*
X448713D01*
X446508Y311504D02*
X448713Y311504D01*
X448713Y315677D02*
X448713Y311504D01*
X446508Y311504D02*
Y315677D01*
X461697Y315488D02*
X461697Y317693D01*
X457524D02*
X457524Y315488D01*
X461697D01*
X457524Y317693D02*
X461697D01*
X397024Y309102D02*
X397024Y306898D01*
X401197D02*
Y309102D01*
X397024Y309102D02*
X401197Y309102D01*
X397024Y306898D02*
X401197D01*
X397024Y302898D02*
Y305102D01*
X401197Y302898D02*
X401197Y305102D01*
X397024Y305102D02*
X401197Y305102D01*
X397024Y302898D02*
X401197D01*
X418697Y290102D02*
X418697Y287898D01*
X414524Y287898D02*
Y290102D01*
Y287898D02*
X418697Y287898D01*
X414524Y290102D02*
X418697D01*
X447508Y283677D02*
X449713D01*
X447508Y279504D02*
X449713D01*
Y283677D01*
X447508Y279504D02*
Y283677D01*
X508398Y202587D02*
X510602D01*
X508398Y198413D02*
X510602Y198413D01*
X510602Y202587D02*
X510602Y198413D01*
X508398Y198413D02*
Y202587D01*
X519587Y379398D02*
X519587Y381602D01*
X515413Y379398D02*
Y381602D01*
Y379398D02*
X519587D01*
X515413Y381602D02*
X519587Y381602D01*
X518898Y355913D02*
Y360087D01*
X521102D02*
X521102Y355913D01*
X518898Y355913D02*
X521102Y355913D01*
X518898Y360087D02*
X521102D01*
X513913Y250602D02*
X518087D01*
X513913Y248398D02*
X518087D01*
X513913D02*
Y250602D01*
X518087Y248398D02*
Y250602D01*
D178*
X304117Y343488D02*
G03*
X304117Y343488I-300J0D01*
G01*
X306217Y351938D02*
G03*
X308617Y351938I1200J0D01*
G01*
X207975Y322408D02*
G03*
X207975Y322408I-300J0D01*
G01*
X199224Y324808D02*
G03*
X199224Y327208I0J1200D01*
G01*
X449174Y429788D02*
G03*
X449174Y429788I-300J0D01*
G01*
X363564Y430288D02*
G03*
X363564Y430288I-300J0D01*
G01*
X277064Y429898D02*
G03*
X277064Y429898I-300J0D01*
G01*
D179*
X298967Y335038D02*
X315867D01*
Y351938D01*
X298967D02*
X315867D01*
X298967Y335038D02*
Y351938D01*
X216125Y317558D02*
Y334458D01*
X199224D02*
X216125D01*
X199224Y317558D02*
Y334458D01*
Y317558D02*
X216125D01*
D180*
X218500Y378155D02*
D03*
X280500Y277150D02*
D03*
M02*
