G04*
G04 #@! TF.GenerationSoftware,Altium Limited,Altium Designer,26.2.0 (7)*
G04*
G04 Layer_Color=32768*
%FSLAX25Y25*%
%MOIN*%
G70*
G04*
G04 #@! TF.SameCoordinates,CFA4B7CB-C87C-44D2-A143-D88584ED512B*
G04*
G04*
G04 #@! TF.FilePolarity,Positive*
G04*
G01*
G75*
%ADD11C,0.00394*%
%ADD176C,0.00197*%
D11*
X485527Y388584D02*
X489464D01*
X487496Y390552D02*
X487496Y386615D01*
X398622Y289563D02*
X402559Y289563D01*
X400591Y287595D02*
Y291531D01*
X339110Y165579D02*
Y169516D01*
X337142Y167547D02*
X341079D01*
X256500Y175819D02*
Y179756D01*
X254532Y177787D02*
X258469D01*
X335668Y273994D02*
X339605D01*
X337636Y272025D02*
Y275962D01*
X240168Y279494D02*
X244105D01*
X242136Y277525D02*
Y281462D01*
X219032Y386000D02*
X222969D01*
X221000Y384032D02*
Y387968D01*
X216531Y386000D02*
X220468D01*
X218500Y384032D02*
Y387968D01*
X227194Y317102D02*
Y321039D01*
X225226Y319071D02*
X229163D01*
X515823Y341323D02*
Y345260D01*
X513854Y343291D02*
X517791Y343291D01*
X502947Y184791D02*
X506884D01*
X504916Y182823D02*
Y186760D01*
X457156Y221959D02*
X461093D01*
X459125Y219991D02*
Y223928D01*
X426532Y385500D02*
X430469D01*
X428500Y383531D02*
Y387469D01*
X254500Y205031D02*
Y208968D01*
X252532Y207000D02*
X256469D01*
X216000Y289728D02*
Y293272D01*
X214228Y291500D02*
X217772D01*
X217337Y302437D02*
Y306374D01*
X215369Y304405D02*
X219306D01*
X501035Y227055D02*
Y230992D01*
X499067Y229024D02*
X503004D01*
X540492Y250528D02*
Y292783D01*
X592992D01*
X592992Y226528D01*
X540348Y226427D02*
X592848D01*
X540492Y226571D02*
Y250528D01*
X511535Y315465D02*
Y319402D01*
X509567Y317433D02*
X513504D01*
X404228Y474035D02*
X407772D01*
X406000Y472263D02*
Y475807D01*
X395474Y458728D02*
Y462272D01*
X393702Y460500D02*
X397246D01*
X234000Y472118D02*
Y475661D01*
X232228Y473890D02*
X235772D01*
X221702Y460355D02*
X225246D01*
X223474Y458583D02*
Y462126D01*
X308500Y379532D02*
Y383469D01*
X306532Y381500D02*
X310469D01*
X518996Y386615D02*
Y390552D01*
X517027Y388584D02*
X520964D01*
X511535Y346965D02*
Y350902D01*
X509567Y348933D02*
X513504D01*
X501035Y258555D02*
Y262492D01*
X499067Y260524D02*
X503004D01*
X498660Y200933D02*
X502597Y200933D01*
X500628Y198965D02*
Y202902D01*
X498660Y169433D02*
X502597D01*
X500628Y167465D02*
Y171402D01*
X376941Y346291D02*
Y350228D01*
X374972Y348260D02*
X378909D01*
X361232Y356819D02*
X365169D01*
X363201Y354850D02*
Y358787D01*
X376941Y360291D02*
Y364228D01*
X374972Y362260D02*
X378909D01*
X361472Y345260D02*
X365409D01*
X363441Y343291D02*
Y347228D01*
X377441Y329228D02*
X377441Y325291D01*
X375472Y327260D02*
X379409D01*
X361458Y333961D02*
X365395D01*
X363426Y331992D02*
Y335929D01*
X258958Y337461D02*
X262895D01*
X260926Y335492D02*
Y339429D01*
X274941Y332728D02*
X274941Y328791D01*
X272972Y330760D02*
X276909D01*
X258972Y348760D02*
X262909D01*
X260941Y346791D02*
Y350728D01*
X274441Y349791D02*
Y353728D01*
X272472Y351760D02*
X276409D01*
X274441Y363791D02*
Y367728D01*
X272472Y365760D02*
X276409D01*
X258732Y360319D02*
X262669D01*
X260701Y362287D02*
X260701Y358350D01*
X320500Y472339D02*
Y475882D01*
X318728Y474110D02*
X322272D01*
X308202Y460575D02*
X311746D01*
X309974Y458804D02*
X309974Y462347D01*
X356142Y150858D02*
X360079D01*
X358110Y148890D02*
Y152827D01*
X330500Y150272D02*
X330500Y146728D01*
X328728Y148500D02*
X332272D01*
X316642Y178358D02*
X320579D01*
X318610Y180327D02*
X318610Y176390D01*
X317839Y171260D02*
X321382D01*
X319610Y169488D02*
Y173031D01*
X315000Y260968D02*
X315000Y257031D01*
X313032Y259000D02*
X316968Y259000D01*
X210531Y270500D02*
X214469Y270500D01*
X212500Y268531D02*
X212500Y272468D01*
X212500Y248969D02*
X212500Y245031D01*
X210531Y247000D02*
X214469D01*
X275500Y159130D02*
Y163067D01*
X273532Y161098D02*
X277468D01*
X249000Y159728D02*
Y163272D01*
X247228Y161500D02*
X250772D01*
X236000Y186630D02*
Y190567D01*
X234032Y188598D02*
X237968D01*
X237000Y179728D02*
Y183272D01*
X235228Y181500D02*
X238772D01*
X243000Y379339D02*
Y382882D01*
X241228Y381110D02*
X244772Y381110D01*
X228728Y338500D02*
X232272D01*
X230500Y336728D02*
Y340272D01*
X377500Y161291D02*
Y165228D01*
X375532Y163260D02*
X379468D01*
X389000Y161531D02*
Y165469D01*
X387032Y163500D02*
X390968D01*
X354405Y102008D02*
Y154508D01*
Y102008D02*
X396661D01*
Y154508D01*
X354405D02*
X396661D01*
X314642Y179760D02*
X318579D01*
X316610Y177791D02*
Y181728D01*
X317839Y170760D02*
X321382D01*
X319610Y168988D02*
Y172531D01*
X317839Y164760D02*
X321382D01*
X319610Y162988D02*
Y166532D01*
X334728Y156500D02*
X338272Y156500D01*
X336500Y154728D02*
Y158272D01*
X336449Y350488D02*
X340386D01*
X338417Y348520D02*
Y352457D01*
X326949Y332748D02*
X330886D01*
X328917Y330780D02*
Y334717D01*
X319047Y332988D02*
X322984D01*
X321016Y331020D02*
Y334957D01*
X300480Y322000D02*
Y325937D01*
X298512Y323969D02*
X302449D01*
X282850Y332488D02*
X286787D01*
X284819Y330520D02*
Y334457D01*
X286146Y319339D02*
X289689D01*
X287917Y317567D02*
Y321110D01*
X278581Y318866D02*
X282518D01*
X280550Y316898D02*
Y320835D01*
X310417Y309717D02*
Y313260D01*
X308646Y311488D02*
X312189D01*
X298116Y306258D02*
Y309801D01*
X296344Y308030D02*
X299887D01*
X313000Y279031D02*
Y282968D01*
X311032Y281000D02*
X314968D01*
X320000Y265032D02*
Y268969D01*
X318032Y267000D02*
X321969D01*
X306000Y231031D02*
Y234968D01*
X304031Y233000D02*
X307968D01*
X323142Y227260D02*
X327079D01*
X325110Y225291D02*
Y229228D01*
X334642Y196760D02*
X338579Y196760D01*
X336610Y194791D02*
Y198728D01*
X347142Y227260D02*
X351079D01*
X349110Y225291D02*
Y229228D01*
X370532Y227260D02*
X374468D01*
X372500Y225291D02*
X372500Y229228D01*
X361000Y273532D02*
Y277468D01*
X359032Y275500D02*
X362968D01*
X280500Y283032D02*
Y286968D01*
X278532Y285000D02*
X282469D01*
X265000Y279532D02*
Y283469D01*
X263032Y281500D02*
X266968D01*
X237000Y220532D02*
Y224468D01*
X235032Y222500D02*
X238968D01*
X253890Y164969D02*
Y168512D01*
X252118Y166740D02*
X255661D01*
X332500Y123531D02*
Y127469D01*
X330532Y125500D02*
X334469D01*
X289500Y123531D02*
Y127469D01*
X287531Y125500D02*
X291469D01*
X219000Y139532D02*
Y143468D01*
X217032Y141500D02*
X220969D01*
X207923Y142196D02*
X211860D01*
X209892Y140228D02*
Y144165D01*
X224406Y102008D02*
Y154508D01*
Y102008D02*
X266661D01*
Y154508D01*
X224406D02*
X266661D01*
X237000Y173228D02*
Y176772D01*
X235228Y175000D02*
X238772D01*
X237000Y179228D02*
Y182772D01*
X235228Y181000D02*
X238772D01*
X234000Y188031D02*
Y191969D01*
X232031Y190000D02*
X235968D01*
X211531Y228500D02*
X215469D01*
X213500Y226532D02*
Y230469D01*
X212032Y253500D02*
X215968Y253500D01*
X214000Y251532D02*
X214000Y255469D01*
X224500Y270031D02*
Y273969D01*
X222532Y272000D02*
X226468D01*
X212240Y279532D02*
Y283469D01*
X210272Y281500D02*
X214209D01*
X217000Y295433D02*
Y299370D01*
X215032Y297402D02*
X218969D01*
X234228Y334500D02*
X237772D01*
X236000Y332728D02*
Y336272D01*
X218415Y345539D02*
Y349476D01*
X216446Y347508D02*
X220383D01*
X218175Y337638D02*
Y341575D01*
X216206Y339606D02*
X220143D01*
X198531Y358000D02*
X202468D01*
X200500Y356031D02*
Y359968D01*
X200933Y387500D02*
X204870D01*
X202902Y385531D02*
Y389469D01*
X206532Y400000D02*
X210469D01*
X208500Y398031D02*
Y401968D01*
X498646Y300098D02*
Y304035D01*
X496677Y302067D02*
X500614D01*
X480500Y321228D02*
Y324772D01*
X478728Y323000D02*
X482272D01*
X437142Y272500D02*
X441079D01*
X439110Y270532D02*
Y274468D01*
X423642Y272500D02*
X427579D01*
X425610Y270532D02*
Y274468D01*
X414610Y269791D02*
X414610Y273728D01*
X412642Y271760D02*
X416579D01*
X466339Y277000D02*
X469882D01*
X468110Y275228D02*
Y278772D01*
X498646Y268598D02*
Y272535D01*
X496677Y270567D02*
X500614D01*
X400097Y244506D02*
Y248443D01*
X398129Y246475D02*
X402066D01*
X400097Y234445D02*
Y238382D01*
X398129Y236414D02*
X402066D01*
X397721Y176823D02*
X401658D01*
X399690Y174855D02*
Y178792D01*
X397721Y186884D02*
X401658D01*
X399690Y184915D02*
Y188853D01*
X327728Y381500D02*
X331272D01*
X329500Y383272D02*
X329500Y379728D01*
X413339Y381000D02*
X416882D01*
X415110Y382772D02*
X415110Y379228D01*
X466110Y430728D02*
Y434272D01*
X464339Y432500D02*
X467882D01*
X380500Y431228D02*
Y434772D01*
X378728Y433000D02*
X382272D01*
X292228Y432610D02*
X295772D01*
X294000Y430839D02*
Y434382D01*
X494886Y487554D02*
Y491491D01*
X492917Y489522D02*
X496854D01*
X504946Y487554D02*
Y491491D01*
X502978Y489522D02*
X506915D01*
X514228Y441000D02*
X517772D01*
X516000Y439228D02*
Y442772D01*
X506228Y397500D02*
X509772D01*
X508000Y395728D02*
Y399272D01*
X493385Y396722D02*
X497322Y396722D01*
X495354Y394753D02*
Y398690D01*
X500885Y384296D02*
X504822D01*
X502854Y382328D02*
Y386265D01*
X487500Y386728D02*
Y390272D01*
X485728Y388500D02*
X489272D01*
X478031Y377000D02*
X481968Y377000D01*
X480000Y375031D02*
Y378969D01*
X515854Y386548D02*
Y390092D01*
X514082Y388320D02*
X517625D01*
X521854Y386548D02*
Y390092D01*
X520082Y388320D02*
X523625D01*
X497500Y359228D02*
Y362772D01*
X495728Y361000D02*
X499272D01*
X512500Y360228D02*
Y363772D01*
X510728Y362000D02*
X514272D01*
X512000Y354728D02*
Y358272D01*
X510228Y356500D02*
X513772D01*
X502728Y349000D02*
X506272D01*
X504500Y347228D02*
Y350772D01*
X501433Y337000D02*
X505370D01*
X503402Y335032D02*
Y338968D01*
X513000Y326228D02*
Y329772D01*
X511228Y328000D02*
X514772D01*
X523032Y326000D02*
X526968D01*
X525000Y324031D02*
Y327969D01*
X540500Y297622D02*
Y308622D01*
Y297622D02*
X593000D01*
X540500Y308622D02*
Y386878D01*
X593000Y386878D01*
X593000Y297622D01*
X513000Y251728D02*
Y255272D01*
X511228Y253500D02*
X514772D01*
X491728Y243500D02*
X495272D01*
X493500Y241728D02*
Y245272D01*
X502000Y248228D02*
Y251772D01*
X500228Y250000D02*
X503772D01*
X503354Y236882D02*
X507291D01*
X505323Y234913D02*
Y238850D01*
X482000Y233728D02*
Y237272D01*
X480228Y235500D02*
X483772D01*
X490933Y232000D02*
X494870D01*
X492902Y230031D02*
Y233968D01*
X501850Y220728D02*
Y224272D01*
X500079Y222500D02*
X503622D01*
X512032Y218500D02*
X515969D01*
X514000Y216531D02*
Y220468D01*
X425500Y131032D02*
Y134968D01*
X423531Y133000D02*
X427468D01*
X434626Y154000D02*
X476882D01*
Y101500D02*
Y154000D01*
X434626Y101500D02*
X476882D01*
X434626D02*
Y154000D01*
X479063Y153500D02*
X521319D01*
Y101000D02*
Y153500D01*
X479063Y101000D02*
X521319D01*
X479063D02*
Y153500D01*
X524311D02*
X566567D01*
Y101000D02*
Y153500D01*
X524311Y101000D02*
X566567D01*
X524311D02*
Y153500D01*
X588934Y137263D02*
Y141200D01*
X586966Y139232D02*
X590903D01*
X574720Y139272D02*
X578657D01*
X576689Y137304D02*
Y141241D01*
X500101Y204401D02*
X503644Y204401D01*
X501872Y202630D02*
Y206173D01*
X500228Y198500D02*
X503772Y198500D01*
X502000Y196728D02*
Y200272D01*
X494000Y189228D02*
Y192772D01*
X492228Y191000D02*
X495772D01*
X481744Y180109D02*
Y183653D01*
X479973Y181881D02*
X483516D01*
X492442Y176283D02*
Y180220D01*
X490473Y178251D02*
X494410D01*
X500228Y170000D02*
X503772D01*
X502000Y168228D02*
Y171772D01*
X514000Y164532D02*
Y168468D01*
X512032Y166500D02*
X515969Y166500D01*
X456735Y307163D02*
Y311100D01*
X454766Y309131D02*
X458703Y309131D01*
X457780Y274972D02*
Y278909D01*
X455811Y276941D02*
X459748Y276941D01*
X465339Y309090D02*
X468882D01*
X467110Y307319D02*
Y310862D01*
X439110Y314862D02*
X439110Y311319D01*
X437339Y313090D02*
X440882D01*
X440110Y279319D02*
Y282862D01*
X438339Y281090D02*
X441882D01*
X436142Y304591D02*
X440079D01*
X438110Y302622D02*
Y306559D01*
X422642Y304591D02*
X426579D01*
X424610Y302622D02*
Y306559D01*
X410597Y332915D02*
Y336853D01*
X408629Y334884D02*
X412566D01*
X410597Y322855D02*
Y326792D01*
X408629Y324823D02*
X412566D01*
X480431Y428526D02*
Y432463D01*
X478463Y430495D02*
X482400D01*
X500000Y484670D02*
Y488607D01*
X498031Y486639D02*
X501968D01*
X512621Y427482D02*
Y431419D01*
X510653Y429450D02*
X514590D01*
X478700Y420119D02*
X482244D01*
X480472Y418348D02*
Y421891D01*
X476472Y446348D02*
Y449891D01*
X474700Y448119D02*
X478244D01*
X517803Y474588D02*
X517803Y470651D01*
X515834Y472619D02*
X519771Y472619D01*
X510791Y419119D02*
X514334D01*
X512563Y417348D02*
Y420891D01*
X508472Y445348D02*
Y448891D01*
X506700Y447119D02*
X510244D01*
X483003Y449119D02*
X486940D01*
X484972Y447151D02*
Y451088D01*
X515094Y448119D02*
X519031D01*
X517063Y446151D02*
Y450088D01*
X515094Y461619D02*
X519031D01*
X517063Y459651D02*
Y463588D01*
X483003Y462619D02*
X486940D01*
X484972Y460651D02*
Y464588D01*
X497791Y290465D02*
Y294402D01*
X495823Y292433D02*
X499760D01*
X456749Y162369D02*
X460686D01*
X458717Y160400D02*
Y164337D01*
X469625Y308400D02*
Y312337D01*
X467656Y310369D02*
X471593D01*
X400604Y181937D02*
X404541D01*
X402573Y179969D02*
Y183905D01*
X402980Y239559D02*
Y243496D01*
X401012Y241528D02*
X404949D01*
X413480Y327969D02*
Y331906D01*
X411512Y329937D02*
X415449D01*
X457793Y194559D02*
X461730Y194559D01*
X459762Y192591D02*
Y196528D01*
X460169Y252181D02*
Y256118D01*
X458201Y254150D02*
X462138D01*
X470669Y340591D02*
Y344528D01*
X468701Y342559D02*
X472638D01*
X516520Y288909D02*
X520063D01*
X518291Y287138D02*
Y290681D01*
X476000Y294969D02*
X476000Y291032D01*
X474031Y293000D02*
X477969Y293000D01*
X510520Y288909D02*
X514063D01*
X512291Y287138D02*
Y290681D01*
X481728Y289000D02*
X485272D01*
X483500Y287228D02*
Y290772D01*
X469093Y160638D02*
Y164181D01*
X467321Y162409D02*
X470864D01*
X467728Y222000D02*
X471272D01*
X469500Y220228D02*
Y223772D01*
X478228Y310409D02*
X481772D01*
X480000Y308638D02*
Y312181D01*
X439321Y158409D02*
X442864D01*
X441093Y156638D02*
Y160181D01*
X441500Y216228D02*
Y219772D01*
X439728Y218000D02*
X443272D01*
X452000Y304638D02*
Y308181D01*
X450228Y306410D02*
X453772D01*
X414624Y199740D02*
X418561D01*
X416593Y197772D02*
Y201709D01*
X417000Y257362D02*
Y261299D01*
X415031Y259331D02*
X418968D01*
X427500Y345772D02*
Y349709D01*
X425531Y347740D02*
X429468D01*
X470093Y192728D02*
Y196272D01*
X468321Y194500D02*
X471864D01*
X468728Y254090D02*
X472272D01*
X470500Y252319D02*
Y255862D01*
X479228Y342500D02*
X482772D01*
X481000Y340728D02*
Y344272D01*
X440321Y190409D02*
X443864D01*
X442093Y188638D02*
Y192181D01*
X442500Y248228D02*
Y251772D01*
X440728Y250000D02*
X444272D01*
X453000Y336638D02*
Y340181D01*
X451228Y338409D02*
X454772D01*
X440093Y164941D02*
Y168878D01*
X438124Y166909D02*
X442061D01*
X438531Y226500D02*
X442469D01*
X440500Y224532D02*
Y228468D01*
X449031Y314910D02*
X452969D01*
X451000Y312941D02*
Y316878D01*
X441093Y197031D02*
Y200969D01*
X439124Y199000D02*
X443061D01*
X439532Y258591D02*
X443469D01*
X441500Y256622D02*
Y260559D01*
X450032Y347000D02*
X453968D01*
X452000Y345031D02*
Y348969D01*
X427593Y197031D02*
Y200969D01*
X425624Y199000D02*
X429561D01*
X426031Y258591D02*
X429969D01*
X428000Y256622D02*
Y260559D01*
X436531Y347000D02*
X440469D01*
X438500Y345031D02*
Y348969D01*
X426593Y164941D02*
Y168878D01*
X424624Y166909D02*
X428561D01*
X425032Y226500D02*
X428968D01*
X427000Y224532D02*
Y228468D01*
X435532Y314910D02*
X439468D01*
X437500Y312941D02*
Y316878D01*
X493000Y277933D02*
Y281870D01*
X491032Y279902D02*
X494969D01*
X397707Y282647D02*
Y286584D01*
X395739Y284616D02*
X399676D01*
X505000Y278728D02*
Y282272D01*
X503228Y280500D02*
X506772D01*
X397707Y292708D02*
Y296645D01*
X395739Y294677D02*
X399676D01*
X541492Y393347D02*
X593992D01*
Y471602D01*
X541492D02*
X593992D01*
X541492Y393347D02*
Y471602D01*
X317339Y152260D02*
X320882Y152260D01*
X319110Y150488D02*
Y154032D01*
X319610Y163488D02*
X319610Y167032D01*
X317839Y165260D02*
X321382D01*
X264500Y126031D02*
Y129969D01*
X262531Y128000D02*
X266469D01*
X235228Y175500D02*
X238772Y175500D01*
X237000Y173728D02*
Y177272D01*
X236500Y160728D02*
Y164272D01*
X234728Y162500D02*
X238272D01*
X393000Y133031D02*
Y136969D01*
X391032Y135000D02*
X394969D01*
D176*
X227756Y115752D02*
G03*
X227756Y115752I-16535J0D01*
G01*
X597709D02*
G03*
X597709Y115752I-16535J0D01*
G01*
X227756Y485752D02*
G03*
X227756Y485752I-16535J0D01*
G01*
X597709D02*
G03*
X597709Y485752I-16535J0D01*
G01*
X229811Y484240D02*
X229811Y476760D01*
X226189D02*
X226189Y484240D01*
X229811D01*
X226189Y476760D02*
X229811D01*
X501767Y365552D02*
Y411615D01*
X473224Y365552D02*
Y411615D01*
Y365552D02*
X501767D01*
X473224Y411615D02*
X501767D01*
X391090Y278063D02*
X410090D01*
X391090D02*
X391090Y301063D01*
X410090Y278063D02*
Y301063D01*
X391090D02*
X410090D01*
X324937Y181720D02*
X353284D01*
X324937Y153374D02*
X353284D01*
X324937D02*
Y181720D01*
X353284Y153374D02*
Y181720D01*
X242327Y191961D02*
X270673D01*
X242327Y163614D02*
X270673D01*
X242327D02*
Y191961D01*
X270673Y163614D02*
Y191961D01*
X345845Y266907D02*
Y281080D01*
X329428Y266907D02*
Y281080D01*
Y266907D02*
X345845D01*
X329428Y281080D02*
X345845D01*
X250345Y272407D02*
Y286580D01*
X233928Y272407D02*
Y286580D01*
Y272407D02*
X250345D01*
X233928Y286580D02*
X250345D01*
X326270Y277542D02*
X333750D01*
X326270Y281164D02*
X333750Y281164D01*
Y277542D02*
Y281164D01*
X326270Y277542D02*
X326270Y281164D01*
X541760Y128189D02*
Y131811D01*
X549240Y128189D02*
Y131811D01*
X541760D02*
X549240D01*
X541760Y128189D02*
X549240D01*
X500260D02*
Y131811D01*
X507740Y128189D02*
Y131811D01*
X500260D02*
X507740D01*
X500260Y128189D02*
X507740D01*
X198362Y359425D02*
X198362Y412575D01*
X243638Y359425D02*
Y412575D01*
X198362D02*
X243638D01*
X198362Y359425D02*
X243638Y359425D01*
X211610Y373992D02*
Y398008D01*
X225390Y373992D02*
Y398008D01*
X211610Y373992D02*
X225390D01*
X211610Y398008D02*
X225390D01*
X354472Y243945D02*
Y262055D01*
X363528Y243945D02*
Y262055D01*
X354472Y243945D02*
X363528D01*
X354472Y262055D02*
X363528D01*
X217694Y309571D02*
X236694D01*
X217694D02*
Y328571D01*
X236694D01*
Y309571D02*
Y328571D01*
X506571Y330890D02*
X525075Y330890D01*
X506571Y355693D02*
X525075D01*
X506571Y330890D02*
Y355693D01*
X525075D02*
X525075Y330890D01*
X514167Y172390D02*
Y197193D01*
X495663Y172390D02*
Y197193D01*
X514167D01*
X495663Y172390D02*
X514167D01*
X452038Y216645D02*
Y227274D01*
X466211Y216645D02*
Y227274D01*
X452038Y216645D02*
X466211D01*
X452038Y227274D02*
X466211D01*
X405862Y358925D02*
Y412075D01*
X451138Y358925D02*
Y412075D01*
X405862Y412075D02*
X451138Y412075D01*
X405862Y358925D02*
X451138D01*
X242886Y221567D02*
X266114D01*
X242886Y192433D02*
X266114D01*
X266114Y221567D01*
X242886Y192433D02*
X242886Y221567D01*
X224206Y328653D02*
Y332275D01*
X231686Y328653D02*
Y332275D01*
X224206Y328653D02*
X231686D01*
X224206Y332275D02*
X231686D01*
X213863Y308657D02*
X217485D01*
X213863Y316138D02*
X217485D01*
Y308657D02*
Y316138D01*
X213863Y308657D02*
Y316138D01*
X209898Y288547D02*
X222102D01*
X209898Y294453D02*
X222102D01*
Y288547D02*
Y294453D01*
X209898Y288547D02*
Y294453D01*
X210644Y300468D02*
Y308342D01*
Y300468D02*
X224030D01*
X210644Y308342D02*
X224030D01*
Y300468D02*
Y308342D01*
X478004Y243295D02*
X524067D01*
X478004Y214752D02*
X524067D01*
Y243295D01*
X478004Y214752D02*
Y243295D01*
X395189Y151760D02*
X398811D01*
X395189Y159240D02*
X398811D01*
Y151760D02*
Y159240D01*
X395189Y151760D02*
Y159240D01*
X488504Y331705D02*
X534567D01*
X488504Y303161D02*
X534567D01*
Y331705D01*
X488504Y303161D02*
Y331705D01*
X405842Y491571D02*
X409464Y491571D01*
X405842Y499051D02*
X409464Y499051D01*
X405842Y491571D02*
X405842Y499051D01*
X409464Y491571D02*
X409464Y499051D01*
X402116Y491245D02*
X411958Y491245D01*
X402116Y481402D02*
X411958D01*
X402116D02*
Y491245D01*
X411958Y491245D02*
X411958Y481402D01*
X398189Y488775D02*
X398189Y481295D01*
X401811D02*
X401811Y488775D01*
X398189Y481295D02*
X401811D01*
X398189Y488775D02*
X401811D01*
X412189Y482295D02*
Y489775D01*
X415811Y482295D02*
Y489775D01*
X412189Y482295D02*
X415811D01*
X412189Y489775D02*
X415811D01*
X402149Y481132D02*
X409629D01*
X402149Y477509D02*
X409629D01*
X402149D02*
Y481132D01*
X409629Y477509D02*
Y481132D01*
X417740Y477224D02*
Y480846D01*
X410260Y477224D02*
Y480846D01*
Y477224D02*
X417740D01*
X410260Y480846D02*
X417740D01*
X413734Y453189D02*
Y456811D01*
X421214Y456811D02*
X421214Y453189D01*
X413734Y456811D02*
X421214Y456811D01*
X413734Y453189D02*
X421214Y453189D01*
Y459689D02*
Y463311D01*
X413734Y459689D02*
X413734Y463311D01*
X413734Y459689D02*
X421214Y459689D01*
X413734Y463311D02*
X421214Y463311D01*
X402387Y453439D02*
X403264D01*
X405759D02*
X410748D01*
X402387D02*
Y463419D01*
X402402Y466249D01*
X407387Y466248D02*
X408065D01*
X413246Y453437D02*
Y456282D01*
X413243Y453439D02*
X413246Y453437D01*
X403264Y453439D02*
X405759D01*
X410748D02*
X413243D01*
X402403Y466248D02*
X403928D01*
X405310D02*
X407048D01*
X408403D02*
X410196D01*
X407048D02*
X407387D01*
X408065D02*
X408403D01*
X413246Y456282D02*
Y466248D01*
X410196D02*
X413246D01*
X404605D02*
X405310D01*
X403928D02*
X404605D01*
X402402Y466249D02*
X402403Y466248D01*
X412102Y471082D02*
Y476988D01*
X399898Y471082D02*
X399898Y476988D01*
X412102D01*
X399898Y471082D02*
X412102D01*
X399734Y466689D02*
X407214D01*
X399734Y470311D02*
X407214Y470311D01*
X407214Y466689D02*
X407214Y470311D01*
X399734Y466689D02*
Y470311D01*
X392521Y466602D02*
X398427D01*
X392521Y454398D02*
X398427D01*
X392521D02*
Y466602D01*
X398427Y454398D02*
Y466602D01*
X398163Y456760D02*
Y464240D01*
X401785D02*
X401785Y456760D01*
X398163D02*
X401785D01*
X398163Y464240D02*
X401785D01*
X395663Y449240D02*
X399285Y449240D01*
X395663Y441760D02*
X399285Y441760D01*
X399285Y449240D01*
X395663Y441760D02*
X395663Y449240D01*
X399942Y429016D02*
X416557D01*
X416557Y450906D02*
X416557Y429016D01*
X399942Y450906D02*
X416557Y450906D01*
X399942Y450906D02*
X399942Y429016D01*
X424214Y440689D02*
Y444311D01*
X416734Y440689D02*
X416734Y444311D01*
X416734Y440689D02*
X424214Y440689D01*
X416734Y444311D02*
X424214Y444311D01*
X394163Y438240D02*
X394163Y430760D01*
X397785Y430760D02*
Y438240D01*
X394163Y430760D02*
X397785Y430760D01*
X394163Y438240D02*
X397785D01*
X393785Y438240D02*
X393785Y430760D01*
X390163D02*
Y438240D01*
X393785D01*
X390163Y430760D02*
X393785D01*
X237464Y491425D02*
Y498906D01*
X233842Y491425D02*
X233842Y498906D01*
X237464D01*
X233842Y491425D02*
X237464D01*
X239958Y491099D02*
X239958Y481257D01*
X230116D02*
X230116Y491099D01*
X230116Y481257D02*
X239958D01*
X230116Y491099D02*
X239958D01*
X240189Y489630D02*
X243811D01*
X240189Y482150D02*
X243811D01*
Y489630D01*
X240189Y482150D02*
Y489630D01*
X237629Y477364D02*
X237629Y480986D01*
X230149Y477364D02*
Y480986D01*
Y477364D02*
X237629Y477364D01*
X230149Y480986D02*
X237629Y480986D01*
X238260Y480701D02*
X245740Y480701D01*
X238260Y477079D02*
X245740D01*
X238260D02*
Y480701D01*
X245740Y477079D02*
X245740Y480701D01*
X227898Y470937D02*
X240102D01*
X227898Y476842D02*
X240102D01*
X227898Y470937D02*
Y476842D01*
X240102Y470937D02*
Y476842D01*
X227734Y466544D02*
Y470166D01*
X235214Y466544D02*
X235214Y470166D01*
X227734Y470166D02*
X235214Y470166D01*
X227734Y466544D02*
X235214Y466544D01*
X230402Y466104D02*
X230403Y466103D01*
X231928Y466103D02*
X232606Y466103D01*
X233311Y466103D01*
X238196Y466103D02*
X241246Y466103D01*
Y456137D02*
Y466103D01*
X236065Y466103D02*
X236403Y466103D01*
X235048Y466103D02*
X235387Y466103D01*
X236403D02*
X238196Y466103D01*
X233311Y466103D02*
X235048D01*
X230403D02*
X231928Y466103D01*
X238748Y453294D02*
X241243D01*
X231264D02*
X233759D01*
X241243D02*
X241246Y453292D01*
Y456137D01*
X235387Y466103D02*
X236065Y466103D01*
X230387Y463274D02*
X230402Y466104D01*
X230387Y453294D02*
Y463274D01*
X233759Y453294D02*
X238748D01*
X230387D02*
X231264D01*
X241734Y463166D02*
X249214Y463166D01*
X241734Y459544D02*
X249214D01*
X241734D02*
X241734Y463166D01*
X249214Y459544D02*
Y463166D01*
X241734Y453044D02*
X249214Y453044D01*
X241734Y456666D02*
X249214Y456666D01*
X249214Y453044D01*
X241734Y453044D02*
Y456666D01*
X226427Y454252D02*
Y466457D01*
X220521Y454252D02*
Y466457D01*
Y454252D02*
X226427Y454252D01*
X220521Y466457D02*
X226427Y466457D01*
X226163Y464095D02*
X229785D01*
X226163Y456615D02*
X229785D01*
X229785Y464095D02*
X229785Y456615D01*
X226163D02*
Y464095D01*
X223663Y441615D02*
X223663Y449095D01*
X227285Y441615D02*
X227285Y449095D01*
X223663Y441615D02*
X227285D01*
X223663Y449095D02*
X227285Y449095D01*
X227942Y450760D02*
X227942Y428870D01*
X227942Y450760D02*
X244557Y450760D01*
X244557Y428870D01*
X227942D02*
X244557D01*
X244734Y444166D02*
X252214D01*
X244734Y440544D02*
X252214D01*
X244734D02*
Y444166D01*
X252214Y440544D02*
Y444166D01*
X218163Y430615D02*
X221785D01*
X218163Y438095D02*
X221785D01*
X218163Y430615D02*
Y438095D01*
X221785D02*
X221785Y430615D01*
X222163Y438095D02*
X225785D01*
X222163Y430615D02*
X225785Y430615D01*
X225785Y438095D02*
X225785Y430615D01*
X222163Y438095D02*
X222163Y430615D01*
X316902Y466324D02*
X316903Y466323D01*
X318428Y466323D02*
X319106Y466323D01*
X319811Y466323D01*
X324696Y466323D02*
X327746Y466323D01*
X327746Y456357D01*
X322565Y466323D02*
X322903Y466323D01*
X321548Y466323D02*
X321887Y466323D01*
X322903D02*
X324696Y466323D01*
X319811Y466323D02*
X321548D01*
X316903D02*
X318428Y466323D01*
X325248Y453515D02*
X327743Y453514D01*
X317764D02*
X320259Y453515D01*
X327743Y453514D02*
X327746Y453512D01*
X327746Y456357D01*
X321887Y466323D02*
X322565Y466323D01*
X316887Y463494D02*
X316902Y466324D01*
X316887Y463494D02*
X316887Y453515D01*
X320259D02*
X325248Y453515D01*
X316887Y453515D02*
X317764Y453514D01*
X328234Y463386D02*
X335714Y463386D01*
X328234Y459764D02*
X335714D01*
X328234D02*
Y463386D01*
X335714Y463386D02*
X335714Y459764D01*
X328234Y453264D02*
X335714D01*
X328234Y456886D02*
X335714D01*
Y453264D02*
Y456886D01*
X328234Y453264D02*
Y456886D01*
X285862Y354925D02*
X331138D01*
X285862Y408075D02*
X331138Y408075D01*
Y354925D02*
Y408075D01*
X285862Y354925D02*
Y408075D01*
X473689Y355740D02*
X477311D01*
X473689Y348260D02*
X477311D01*
Y355740D01*
X473689Y348260D02*
Y355740D01*
X504724Y411615D02*
X533267Y411615D01*
X504724Y365552D02*
X533267D01*
X504724D02*
Y411615D01*
X533267Y365552D02*
Y411615D01*
X488504Y363205D02*
X534567D01*
X488504Y334661D02*
X534567D01*
Y363205D01*
X488504Y334661D02*
Y363205D01*
X478004Y274795D02*
X524067D01*
X478004Y246252D02*
X524067D01*
Y274795D01*
X478004Y246252D02*
Y274795D01*
X477597Y186661D02*
Y215205D01*
X523660Y186661D02*
Y215205D01*
X477597Y186661D02*
X523660Y186661D01*
X477597Y215205D02*
X523660Y215205D01*
X477597Y155161D02*
X477597Y183705D01*
X523660Y155161D02*
Y183705D01*
X477597Y155161D02*
X523660D01*
X477597Y183705D02*
X523660D01*
X371441Y354760D02*
X382441D01*
X371441Y341760D02*
X382441Y341760D01*
X371441Y341760D02*
Y354760D01*
X382441Y341760D02*
X382441Y354760D01*
X356701Y362319D02*
X356701Y351319D01*
X369701D02*
Y362319D01*
X356701Y351319D02*
X369701D01*
X356701Y362319D02*
X369701D01*
X370701Y372071D02*
X378181D01*
X370701Y368449D02*
X378181D01*
X370701D02*
Y372071D01*
X378181Y368449D02*
Y372071D01*
X386252Y355000D02*
X386252Y347520D01*
X382630D02*
Y355000D01*
X386252Y355000D01*
X382630Y347520D02*
X386252D01*
X382630Y355520D02*
Y363000D01*
X386252Y355520D02*
X386252Y363000D01*
X382630Y355520D02*
X386252Y355520D01*
X382630Y363000D02*
X386252D01*
X371441Y368760D02*
X382441Y368760D01*
X371441Y355760D02*
X382441D01*
X371441D02*
Y368760D01*
X382441Y368760D02*
X382441Y355760D01*
X353223Y362580D02*
X360703D01*
X353223Y366202D02*
X360703D01*
Y362580D02*
Y366202D01*
X353223Y362580D02*
Y366202D01*
X356941Y339760D02*
X356941Y350760D01*
X369941D02*
X369941Y339760D01*
X356941D02*
X369941D01*
X356941Y350760D02*
X369941D01*
X374752Y341500D02*
X374752Y334020D01*
X371130D02*
Y341500D01*
X374752Y341500D01*
X371130Y334020D02*
X374752D01*
X375201Y337949D02*
X382681D01*
X375201Y341571D02*
X382681D01*
Y337949D02*
Y341571D01*
X375201Y337949D02*
Y341571D01*
Y333949D02*
X382681D01*
X375201Y337571D02*
X382681D01*
Y333949D02*
Y337571D01*
X375201Y333949D02*
Y337571D01*
X371941Y333760D02*
X382941D01*
X371941Y320760D02*
X382941D01*
X371941D02*
Y333760D01*
X382941Y320760D02*
Y333760D01*
X356926Y328461D02*
X356926Y339461D01*
X369926Y328461D02*
Y339461D01*
X356926Y328461D02*
X369926D01*
X356926Y339461D02*
X369926Y339461D01*
X364201Y324449D02*
X371681D01*
X364201Y328071D02*
X371681D01*
Y324449D02*
Y328071D01*
X364201Y324449D02*
Y328071D01*
X376160Y316712D02*
X383641D01*
X376160Y320334D02*
X383641D01*
Y316712D02*
Y320334D01*
X376160Y316712D02*
Y320334D01*
X368201Y316949D02*
X375681D01*
X368201Y320571D02*
X375681Y320571D01*
Y316949D02*
Y320571D01*
X368201Y320571D02*
X368201Y316949D01*
X349926Y331831D02*
X357406Y331831D01*
X349926Y328209D02*
X357406D01*
X349926Y331831D02*
X349926Y328209D01*
X357406D02*
Y331831D01*
X350037Y335831D02*
X357517D01*
X350037Y332209D02*
X357517D01*
X350037D02*
Y335831D01*
X357517Y332209D02*
Y335831D01*
X349701Y343071D02*
X357181D01*
X349701Y339449D02*
X357181Y339449D01*
X349701Y339449D02*
Y343071D01*
X357181D02*
X357181Y339449D01*
X349701Y347071D02*
X357181D01*
X349701Y343449D02*
X357181Y343449D01*
X349701Y343449D02*
X349701Y347071D01*
X357181Y343449D02*
Y347071D01*
X349590Y354571D02*
X357071Y354571D01*
X349590Y350949D02*
X357071Y350949D01*
X349590Y350949D02*
Y354571D01*
X357071Y350949D02*
X357071Y354571D01*
X349701Y358571D02*
X357181D01*
X349701Y354949D02*
X357181Y354949D01*
X349701Y354949D02*
Y358571D01*
X357181Y354949D02*
Y358571D01*
X254426Y331961D02*
X254426Y342961D01*
X267426D02*
X267426Y331961D01*
X254426D02*
X267426D01*
X254426Y342961D02*
X267426D01*
X272252Y345000D02*
X272252Y337520D01*
X268630D02*
Y345000D01*
X272252Y345000D01*
X268630Y337520D02*
X272252D01*
X272701Y341449D02*
X280181D01*
X272701Y345071D02*
X280181D01*
Y341449D02*
Y345071D01*
X272701Y341449D02*
Y345071D01*
X272701Y337449D02*
X280181Y337449D01*
X272701Y341071D02*
X280181Y341071D01*
Y337449D02*
Y341071D01*
X272701Y337449D02*
Y341071D01*
X269441Y337260D02*
X280441D01*
X269441Y324260D02*
X280441D01*
X269441D02*
Y337260D01*
X280441Y324260D02*
Y337260D01*
X261701Y327949D02*
X269181D01*
X261701Y331571D02*
X269181D01*
Y327949D02*
Y331571D01*
X261701Y327949D02*
Y331571D01*
X273660Y320212D02*
X281141D01*
X273660Y323834D02*
X281141D01*
Y320212D02*
Y323834D01*
X273660Y320212D02*
Y323834D01*
X265701Y320449D02*
X273181D01*
X265701Y324071D02*
X273181Y324071D01*
Y320449D02*
Y324071D01*
X265701Y324071D02*
X265701Y320449D01*
X254441Y343260D02*
X254441Y354260D01*
X267441D02*
X267441Y343260D01*
X254441D02*
X267441D01*
X254441Y354260D02*
X267441D01*
X268941Y358260D02*
X279941D01*
X268941Y345260D02*
X279941Y345260D01*
X268941Y345260D02*
Y358260D01*
X279941Y345260D02*
X279941Y358260D01*
X283752Y351020D02*
Y358500D01*
X280130Y358500D02*
X280130Y351020D01*
X280130Y358500D02*
X283752Y358500D01*
X280130Y351020D02*
X283752D01*
X280130Y359020D02*
Y366500D01*
X283752Y359020D02*
X283752Y366500D01*
X280130Y359020D02*
X283752Y359020D01*
X280130Y366500D02*
X283752D01*
X268941Y372260D02*
X279941Y372260D01*
X268941Y359260D02*
X279941D01*
X268941D02*
Y372260D01*
X279941Y372260D02*
X279941Y359260D01*
X268201Y375571D02*
X275681D01*
X268201Y371949D02*
X275681D01*
X268201D02*
Y375571D01*
X275681Y371949D02*
Y375571D01*
X254201Y354819D02*
X254201Y365819D01*
X267201Y354819D02*
X267201Y365819D01*
X254201Y354819D02*
X267201Y354819D01*
X254201Y365819D02*
X267201D01*
X250723Y366080D02*
X258204D01*
X250723Y369702D02*
X258204D01*
Y366080D02*
Y369702D01*
X250723Y366080D02*
Y369702D01*
X247201Y362071D02*
X254681Y362071D01*
X247201Y358449D02*
X254681D01*
X247201D02*
Y362071D01*
X254681Y358449D02*
Y362071D01*
X247091Y358071D02*
X254571Y358071D01*
X247091Y354449D02*
X254571D01*
X247091Y358071D02*
X247091Y354449D01*
X254571D02*
Y358071D01*
X247201Y350571D02*
X254681D01*
X247201Y346949D02*
X254681Y346949D01*
X247201Y346949D02*
X247201Y350571D01*
X254681Y346949D02*
Y350571D01*
X247201Y346571D02*
X254681D01*
X247201Y342949D02*
X254681Y342949D01*
X247201Y342949D02*
Y346571D01*
X254681D02*
X254681Y342949D01*
X247536Y339331D02*
X255017D01*
X247536Y335709D02*
X255017D01*
X247536D02*
Y339331D01*
X255017Y335709D02*
Y339331D01*
X247426Y335331D02*
X254907Y335331D01*
X247426Y331709D02*
X254907D01*
X247426Y335331D02*
X247426Y331709D01*
X254907D02*
Y335331D01*
X563189Y403370D02*
Y410850D01*
X566811Y403370D02*
Y410850D01*
X563189Y403370D02*
X566811D01*
X563189Y410850D02*
X566811D01*
X563189Y454370D02*
Y461850D01*
X566811Y454370D02*
Y461850D01*
X563189Y454370D02*
X566811D01*
X563189Y461850D02*
X566811D01*
Y427260D02*
Y434740D01*
X563189Y427260D02*
Y434740D01*
X566811D01*
X563189Y427260D02*
X566811D01*
X324129Y477585D02*
Y481207D01*
X316649Y477585D02*
Y481207D01*
Y477585D02*
X324129D01*
X316649Y481207D02*
X324129D01*
X324760Y480921D02*
X332240D01*
X324760Y477299D02*
X332240D01*
X324760D02*
Y480921D01*
X332240Y477299D02*
Y480921D01*
X323964Y491646D02*
Y499126D01*
X320342Y491646D02*
X320342Y499126D01*
X323964D01*
X320342Y491646D02*
X323964Y491646D01*
X316616Y491320D02*
X326458Y491320D01*
X316616Y481477D02*
X326458Y481477D01*
X316616Y481477D02*
Y491320D01*
X326458Y481477D02*
Y491320D01*
X326689Y489850D02*
X330311D01*
X326689Y482370D02*
X330311D01*
X330311Y489850D01*
X326689Y482370D02*
Y489850D01*
X312689Y488850D02*
X316311D01*
X312689Y481370D02*
X316311D01*
X316311Y488850D02*
X316311Y481370D01*
X312689D02*
Y488850D01*
X314398Y471158D02*
X326602D01*
X314398Y477063D02*
X326602D01*
X314398Y471158D02*
X314398Y477063D01*
X326602Y471158D02*
Y477063D01*
X314234Y470386D02*
X314234Y466764D01*
X321714D02*
Y470386D01*
X314234D02*
X321714D01*
X314234Y466764D02*
X321714D01*
X312927Y466678D02*
X312927Y454473D01*
X307021D02*
Y466678D01*
Y454473D02*
X312927D01*
X307021Y466678D02*
X312927Y466678D01*
X312663Y464315D02*
X316285D01*
X312663Y456835D02*
X316285Y456835D01*
X316285Y464315D02*
X316285Y456835D01*
X312663Y456835D02*
Y464315D01*
X310163Y449315D02*
X310163Y441835D01*
X313785Y449315D02*
X313785Y441835D01*
X310163Y441835D02*
X313785Y441835D01*
X310163Y449315D02*
X313785D01*
X304663Y430835D02*
X308285Y430835D01*
X304663Y438315D02*
X308285D01*
X304663Y430835D02*
X304663Y438315D01*
X308285Y430835D02*
Y438315D01*
X308663Y438315D02*
X312285Y438315D01*
X308663Y430835D02*
X312285Y430835D01*
Y438315D01*
X308663Y438315D02*
X308663Y430835D01*
X314442Y429091D02*
X314442Y450981D01*
X331057D01*
Y429091D02*
Y450981D01*
X314442Y429091D02*
X331057Y429091D01*
X331234Y444386D02*
X338714D01*
X331234Y440764D02*
X338714D01*
X331234Y444386D02*
X331234Y440764D01*
X338714D02*
Y444386D01*
X356299Y160020D02*
X359921Y160020D01*
X356299Y167500D02*
X359921Y167500D01*
X356299Y167500D02*
X356299Y160020D01*
X359921Y167500D02*
X359921Y160020D01*
X352299Y155020D02*
Y162500D01*
X355921Y155020D02*
Y162500D01*
X352299Y155020D02*
X355921D01*
X352299Y162500D02*
X355921D01*
X356370Y159571D02*
X356370Y155949D01*
X363850D02*
Y159571D01*
X356370D02*
X363850D01*
X356370Y155949D02*
X363850D01*
X347799Y146020D02*
X347799Y153500D01*
X351421Y146020D02*
X351421Y153500D01*
X347799Y146020D02*
X351421Y146020D01*
X347799Y153500D02*
X351421D01*
X364803Y154795D02*
X364803Y146921D01*
X351417Y146921D02*
X364803Y146921D01*
X351417Y154795D02*
X364803D01*
X351417Y146921D02*
Y154795D01*
X350350Y141949D02*
X350350Y145571D01*
X342870Y141949D02*
Y145571D01*
Y141949D02*
X350350Y141949D01*
X342870Y145571D02*
X350350D01*
X343799Y153500D02*
X347421Y153500D01*
X343799Y146020D02*
X347421Y146020D01*
X347421Y153500D02*
X347421Y146020D01*
X343799Y153500D02*
X343799Y146020D01*
X333689Y144760D02*
Y152240D01*
X337311Y144760D02*
X337311Y152240D01*
X333689Y144760D02*
X337311D01*
X333689Y152240D02*
X337311Y152240D01*
X327547Y142398D02*
X333453D01*
X327547Y154602D02*
X333453D01*
Y142398D02*
Y154602D01*
X327547Y142398D02*
Y154602D01*
X322299Y158000D02*
X325921Y158000D01*
X322299Y150520D02*
X325921D01*
X325921Y158000D01*
X322299Y150520D02*
X322299Y158000D01*
X318370Y158449D02*
Y162071D01*
X325850Y158449D02*
X325850Y162071D01*
X318370Y162071D02*
X325850Y162071D01*
X318370Y158449D02*
X325850Y158449D01*
X325303Y174421D02*
Y182295D01*
X311917Y174421D02*
X325303D01*
X311917Y182295D02*
X325303D01*
X311917D02*
X311917Y174421D01*
X313508Y168307D02*
Y174213D01*
X325713Y168307D02*
Y174213D01*
X313508Y168307D02*
X325713D01*
X313508Y174213D02*
X325713D01*
X300433Y270614D02*
X329567D01*
X300433Y247386D02*
X329567D01*
Y270614D01*
X300433Y247386D02*
Y270614D01*
X326187Y277292D02*
X333667Y277292D01*
X326187Y273671D02*
X333667D01*
X326187D02*
X326187Y277292D01*
X333667Y277292D02*
X333667Y273671D01*
X230354Y283666D02*
Y287288D01*
X237835Y283666D02*
Y287288D01*
X230354Y287288D02*
X237835Y287288D01*
X230354Y283666D02*
X237835Y283666D01*
X230354Y283288D02*
X237835Y283288D01*
X230354Y279666D02*
X237835Y279666D01*
X230354Y279666D02*
Y283288D01*
X237835Y283288D02*
X237835Y279666D01*
X197933Y282114D02*
X197933Y258886D01*
X227067D02*
Y282114D01*
X197933Y258886D02*
X227067D01*
X197933Y282114D02*
X227067D01*
X197933Y258614D02*
X227067D01*
X197933Y235386D02*
X227067D01*
X227067Y258614D01*
X197933Y235386D02*
Y258614D01*
X273760Y166189D02*
X281240D01*
X273760Y169811D02*
X281240D01*
Y166189D02*
Y169811D01*
X273760Y166189D02*
Y169811D01*
X268807Y157161D02*
X268807Y165035D01*
X282193D01*
X268807Y157161D02*
X282193Y157161D01*
Y165035D01*
X265189Y163740D02*
X268811D01*
X265189Y156260D02*
X268811D01*
Y163740D01*
X265189Y156260D02*
Y163740D01*
X261189Y156260D02*
Y163740D01*
X264811Y156260D02*
X264811Y163740D01*
X261189Y156260D02*
X264811Y156260D01*
X261189Y163740D02*
X264811D01*
X260260Y155811D02*
X267740D01*
X260260Y152189D02*
X267740D01*
X260260D02*
Y155811D01*
X267740Y152189D02*
Y155811D01*
X242898Y164453D02*
X255102D01*
X242898Y158547D02*
X255102D01*
Y164453D01*
X242898Y158547D02*
Y164453D01*
X252740Y155189D02*
Y158811D01*
X245260Y155189D02*
Y158811D01*
Y155189D02*
X252740D01*
X245260Y158811D02*
X252740Y158811D01*
X269689Y172740D02*
X273311Y172740D01*
X269689Y165260D02*
X273311D01*
Y172740D01*
X269689Y165260D02*
X269689Y172740D01*
X277311Y170260D02*
X277311Y177740D01*
X273689Y170260D02*
Y177740D01*
X277311D01*
X273689Y170260D02*
X277311D01*
X229307Y184661D02*
Y192535D01*
X242693D01*
X229307Y184661D02*
X242693D01*
Y192535D01*
X230898Y184453D02*
X243102D01*
X230898Y178547D02*
X243102D01*
Y184453D01*
X230898Y178547D02*
Y184453D01*
X235760Y168689D02*
X243240Y168689D01*
X235760Y172311D02*
X243240D01*
X243240Y168689D01*
X235760Y168689D02*
Y172311D01*
X239689Y168240D02*
X239689Y160760D01*
X243311Y160760D02*
Y168240D01*
X239689Y160760D02*
X243311Y160760D01*
X239689Y168240D02*
X243311D01*
X301445Y125972D02*
X319555D01*
X301445Y135028D02*
X319555D01*
X301445Y125972D02*
Y135028D01*
X319555Y125972D02*
Y135028D01*
X301445Y117472D02*
X319555D01*
X301445Y126528D02*
X319555D01*
X301445Y117472D02*
Y126528D01*
X319555Y117472D02*
Y126528D01*
X301445Y108972D02*
X319555D01*
X301445Y118028D02*
X319555D01*
X301445Y108972D02*
Y118028D01*
X319555Y108972D02*
Y118028D01*
X275189Y378480D02*
Y385961D01*
X278811Y378480D02*
Y385961D01*
X275189D02*
X278811D01*
X275189Y378480D02*
X278811D01*
X249689Y385850D02*
X253311D01*
X249689Y378370D02*
X253311Y378370D01*
X249689Y385850D02*
X249689Y378370D01*
X253311Y378370D02*
Y385850D01*
X255689Y384240D02*
X259311D01*
X255689Y376760D02*
X259311D01*
X255689D02*
Y384240D01*
X259311Y376760D02*
Y384240D01*
X259689Y381740D02*
X263311D01*
X259689Y374260D02*
X263311D01*
X259689D02*
Y381740D01*
X263311Y374260D02*
Y381740D01*
X263689Y383740D02*
X267311D01*
X263689Y376260D02*
X267311D01*
X263689D02*
Y383740D01*
X267311Y376260D02*
Y383740D01*
X271689Y382740D02*
X275311D01*
X271689Y375260D02*
X275311D01*
X271689D02*
Y382740D01*
X275311Y375260D02*
Y382740D01*
X267689Y383240D02*
X271311D01*
X267689Y375760D02*
X271311D01*
X267689D02*
Y383240D01*
X271311Y375760D02*
Y383240D01*
X236898Y384063D02*
X249102D01*
X236898Y378157D02*
X249102D01*
X236898D02*
Y384063D01*
X249102Y378157D02*
Y384063D01*
X231131Y373255D02*
X234752Y373255D01*
X231130Y380736D02*
X234752D01*
Y373255D02*
Y380736D01*
X231130D02*
X231131Y373255D01*
X225130Y373255D02*
Y380736D01*
X228752Y373255D02*
Y380736D01*
X225130D02*
X228752D01*
X225130Y373255D02*
X228752Y373255D01*
X233453Y332398D02*
Y344602D01*
X227547Y332398D02*
Y344602D01*
X233453D01*
X227547Y332398D02*
X233453D01*
X218631Y360755D02*
X222252D01*
X218630Y368236D02*
X222252D01*
X222252Y360755D02*
X222252Y368236D01*
X218630D02*
X218631Y360755D01*
X236647Y355452D02*
Y373563D01*
X245702Y355452D02*
Y373563D01*
X236647Y355452D02*
X245702D01*
X236647Y373563D02*
X245702D01*
X363850Y167949D02*
Y171571D01*
X356370Y167949D02*
Y171571D01*
X363850Y171571D01*
X356370Y167949D02*
X363850D01*
X356370Y163949D02*
Y167571D01*
X363850Y163949D02*
Y167571D01*
X356370Y163949D02*
X363850Y163949D01*
X356370Y167571D02*
X363850D01*
X373563Y156567D02*
X381437D01*
Y169953D01*
X373563Y156567D02*
Y169953D01*
X381437D01*
X385063Y170193D02*
X392937D01*
X385063Y156807D02*
Y170193D01*
X392937Y156807D02*
Y170193D01*
X385063Y156807D02*
X392937D01*
X367850Y159949D02*
Y163571D01*
X360370Y163571D02*
X360370Y159949D01*
X360370Y163571D02*
X367850Y163571D01*
X360370Y159949D02*
X367850Y159949D01*
X356370Y155949D02*
X363850D01*
X356370Y159571D02*
X363850D01*
X356370D02*
X356370Y155949D01*
X363850D02*
Y159571D01*
X353240Y153689D02*
Y157311D01*
X345760Y153689D02*
Y157311D01*
X353240D01*
X345760Y153689D02*
X353240D01*
X345689Y146760D02*
X349311D01*
X345689Y154240D02*
X349311D01*
Y146760D02*
Y154240D01*
X345689Y146760D02*
Y154240D01*
X307555Y173461D02*
X307555Y186059D01*
X325665Y173461D02*
Y186059D01*
X307555Y186059D02*
X325665Y186059D01*
X307555Y173461D02*
X325665Y173461D01*
X313508Y167807D02*
Y173713D01*
X325713Y167807D02*
Y173713D01*
X313508D02*
X325713D01*
X313508Y167807D02*
X325713D01*
X313508Y161807D02*
Y167713D01*
X325713Y161807D02*
Y167713D01*
X313508D02*
X325713D01*
X313508Y161807D02*
X325713D01*
X330398Y153547D02*
Y159453D01*
X342602Y153547D02*
Y159453D01*
X330398D02*
X342602D01*
X330398Y153547D02*
X342602D01*
X317106Y353618D02*
X320728D01*
X317106Y346138D02*
X320728D01*
X317106D02*
Y353618D01*
X320728Y346138D02*
Y353618D01*
X330106Y353228D02*
X330106Y345748D01*
X333728D02*
X333728Y353228D01*
X330106D02*
X333728D01*
X330106Y345748D02*
X333728D01*
X321106Y346248D02*
X324728D01*
X321106Y353728D02*
X324728D01*
Y346248D02*
Y353728D01*
X321106Y346248D02*
Y353728D01*
X334480Y343795D02*
X342354D01*
Y357181D01*
X334480Y343795D02*
Y357181D01*
X342354D01*
X341862Y346016D02*
X359972D01*
X341862Y336961D02*
X359972D01*
X341862D02*
Y346016D01*
X359972Y336961D02*
Y346016D01*
X341095Y335248D02*
X348576D01*
X341095Y331626D02*
X348576D01*
X348576Y335248D02*
X348576Y331626D01*
X341095D02*
X341095Y335248D01*
X335665Y319532D02*
X343145Y319532D01*
X335665Y315910D02*
X343145D01*
Y319532D01*
X335665Y315910D02*
Y319532D01*
X335775Y319910D02*
X343255D01*
X335775Y323532D02*
X343256Y323532D01*
X335775Y319910D02*
Y323532D01*
X343255Y319910D02*
X343256Y323532D01*
X340326Y323981D02*
X340326Y331461D01*
X336704D02*
X336704Y323981D01*
X340326D01*
X336704Y331461D02*
X340326D01*
X342760Y328689D02*
X342760Y332311D01*
X350240D02*
X350240Y328689D01*
X342760D02*
X350240D01*
X342760Y332311D02*
X350240D01*
X355165Y326032D02*
X362645D01*
X355165Y322410D02*
X362645D01*
Y326032D01*
X355165Y322410D02*
Y326032D01*
X355275Y315910D02*
Y319532D01*
X362755Y315910D02*
Y319532D01*
X355275Y315910D02*
X362755D01*
X355275Y319532D02*
X362755D01*
X344177Y314799D02*
X351658Y314799D01*
X344177Y311177D02*
X351658Y311177D01*
Y314799D01*
X344177Y311177D02*
X344177Y314799D01*
X324980Y326055D02*
X332854D01*
Y339441D01*
X324980Y326055D02*
Y339441D01*
X332854D01*
X317079Y326295D02*
X324953D01*
Y339681D01*
X317079Y326295D02*
Y339681D01*
X324953D01*
X290067Y333677D02*
Y337299D01*
X297547Y333677D02*
Y337299D01*
X290067Y333677D02*
X297547D01*
X290067Y337299D02*
X297547D01*
X310063Y326957D02*
X313685D01*
X310063Y319477D02*
X313685D01*
X310063D02*
Y326957D01*
X313685Y319477D02*
Y326957D01*
X290980Y314469D02*
X309980D01*
Y333469D01*
X290980D02*
X309980D01*
X290980Y314469D02*
Y333469D01*
X280882Y339181D02*
X288756D01*
X280882Y325795D02*
Y339181D01*
X288756Y325795D02*
Y339181D01*
X280882Y325795D02*
X288756D01*
X290870Y313236D02*
Y325441D01*
X284965Y313236D02*
Y325441D01*
X290870D01*
X284965Y313236D02*
X290870D01*
X276613Y312173D02*
X284487D01*
Y325559D01*
X276613Y312173D02*
Y325559D01*
X284487D01*
X297740Y310189D02*
Y313811D01*
X290260Y310189D02*
Y313811D01*
X297740D01*
X290260Y310189D02*
X297740D01*
X304315Y308535D02*
X316520D01*
X304315Y314441D02*
X316520D01*
Y308535D02*
Y314441D01*
X304315Y308535D02*
Y314441D01*
X292013Y305077D02*
X304218D01*
X292013Y310982D02*
X304218D01*
Y305077D02*
Y310982D01*
X292013Y305077D02*
Y310982D01*
X224189Y284260D02*
X227811D01*
X224189Y291740D02*
X227811D01*
Y284260D02*
Y291740D01*
X224189Y284260D02*
Y291740D01*
X235260Y287689D02*
X242740D01*
X235260Y291311D02*
X242740D01*
X235260D02*
X235260Y287689D01*
X242740D02*
X242740Y291311D01*
X243260D02*
X250740D01*
X243260Y287689D02*
X250740D01*
X250740Y291311D01*
X243260D02*
X243260Y287689D01*
X309063Y287693D02*
X316937D01*
X309063Y274307D02*
Y287693D01*
X316937Y274307D02*
Y287693D01*
X309063Y274307D02*
X316937D01*
X318689Y274260D02*
X322311D01*
X318689Y281740D02*
X322311D01*
Y274260D02*
Y281740D01*
X318689Y274260D02*
Y281740D01*
X310945Y260701D02*
X329055Y260701D01*
X310945Y273299D02*
X329055D01*
Y260701D02*
Y273299D01*
X310945Y260701D02*
Y273299D01*
X299701Y223945D02*
X312299Y223945D01*
X299701Y242055D02*
X312299D01*
X299701D02*
X299701Y223945D01*
X312299Y242055D02*
X312299Y223945D01*
X336724Y212693D02*
Y241827D01*
X313496Y212693D02*
X313496Y241827D01*
X336724D01*
X313496Y212693D02*
X336724D01*
X324996Y182193D02*
Y211327D01*
X348224Y182193D02*
Y211327D01*
X324996Y182193D02*
X348224D01*
X324996Y211327D02*
X348224Y211327D01*
X360724Y212693D02*
Y241827D01*
X337496Y212693D02*
X337496Y241827D01*
X360724D01*
X337496Y212693D02*
X360724Y212693D01*
X384114D02*
Y241827D01*
X360886Y212693D02*
Y241827D01*
X384114D01*
X360886Y212693D02*
X384114D01*
X331760Y282689D02*
X339240Y282689D01*
X331760Y286311D02*
X339240Y286311D01*
X331760Y282689D02*
X331760Y286311D01*
X339240Y282689D02*
Y286311D01*
X339760Y286311D02*
X347240Y286311D01*
X339760Y282689D02*
X347240D01*
Y286311D01*
X339760Y286311D02*
X339760Y282689D01*
X346370Y272689D02*
X346370Y276311D01*
X353850Y272689D02*
Y276311D01*
X346370Y272689D02*
X353850D01*
X346370Y276311D02*
X353850D01*
X354701Y284555D02*
X367299D01*
X354701Y266445D02*
X367299D01*
Y284555D01*
X354701Y266445D02*
Y284555D01*
X273610Y297008D02*
X287390D01*
X273610Y272992D02*
X287390D01*
Y297008D01*
X273610Y272992D02*
Y297008D01*
X258701Y290555D02*
X271299D01*
X258701Y272445D02*
X271299D01*
Y290555D01*
X258701Y272445D02*
Y290555D01*
X250760Y277189D02*
Y280811D01*
X258240Y280811D02*
X258240Y277189D01*
X250760D02*
X258240D01*
X250760Y280811D02*
X258240Y280811D01*
X272972Y262055D02*
X282028D01*
X272972Y243945D02*
X282028D01*
Y262055D01*
X272972Y243945D02*
Y262055D01*
X258472Y262055D02*
X267528Y262055D01*
X258472Y243945D02*
X267528D01*
Y262055D01*
X258472Y243945D02*
Y262055D01*
X230701Y213445D02*
X243299Y213445D01*
X230701Y231555D02*
X243299D01*
X230701Y213445D02*
X230701Y231555D01*
X243299Y213445D02*
X243299Y231555D01*
X273760Y178189D02*
X281240Y178189D01*
X273760Y181811D02*
X281240Y181811D01*
X273760Y178189D02*
X273760Y181811D01*
X281240Y178189D02*
Y181811D01*
X273760Y177811D02*
X281240D01*
X273760Y174189D02*
X281240D01*
Y177811D01*
X273760Y174189D02*
Y177811D01*
X277760Y170189D02*
X285240D01*
X277760Y173811D02*
X285240Y173811D01*
X277760Y170189D02*
Y173811D01*
X285240Y170189D02*
X285240Y173811D01*
X281240Y166189D02*
Y169811D01*
X273760Y166189D02*
Y169811D01*
X281240D01*
X273760Y166189D02*
X281240D01*
X270740Y163689D02*
Y167311D01*
X263260Y163689D02*
Y167311D01*
X270740D01*
X263260Y163689D02*
X270740D01*
X263189Y156760D02*
X266811D01*
X263189Y164240D02*
X266811D01*
Y156760D02*
Y164240D01*
X263189Y156760D02*
Y164240D01*
X247787Y163787D02*
X259992D01*
X247787Y169693D02*
X259992D01*
X259992Y163787D02*
X259992Y169693D01*
X247787Y163787D02*
Y169693D01*
X309862Y152075D02*
X355138D01*
X309862Y98925D02*
X355138Y98925D01*
Y152075D01*
X309862Y98925D02*
Y152075D01*
X266862D02*
X312138D01*
X266862Y98925D02*
X312138Y98925D01*
Y152075D01*
X266862Y98925D02*
Y152075D01*
X215063Y148193D02*
X222937D01*
X215063Y134807D02*
Y148193D01*
X222937Y134807D02*
Y148193D01*
X215063Y134807D02*
X222937D01*
X205955Y148889D02*
X213829D01*
X205955Y135503D02*
Y148889D01*
X213829Y135503D02*
Y148889D01*
X205955Y135503D02*
X213829Y135503D01*
X223740Y130689D02*
Y134311D01*
X216260Y130689D02*
Y134311D01*
X223740D01*
X216260Y130689D02*
X223740D01*
X230898Y172047D02*
X243102D01*
X230898Y177953D02*
X243102D01*
Y172047D02*
Y177953D01*
X230898Y172047D02*
Y177953D01*
Y178047D02*
X243102D01*
X230898Y183953D02*
X243102D01*
Y178047D02*
Y183953D01*
X230898Y178047D02*
Y183953D01*
X224945Y183701D02*
X243055D01*
X224945Y196299D02*
X243055D01*
Y183701D02*
Y196299D01*
X224945Y183701D02*
Y196299D01*
X198933Y216886D02*
Y240114D01*
X228067Y216886D02*
Y240114D01*
X198933D02*
X228067D01*
X198933Y216886D02*
X228067D01*
X199433Y241886D02*
Y265114D01*
X228567D02*
X228567Y241886D01*
X199433Y265114D02*
X228567D01*
X199433Y241886D02*
X228567D01*
X215445Y265701D02*
X233555Y265701D01*
X215445Y278299D02*
X233555Y278299D01*
Y265701D02*
Y278299D01*
X215445Y278299D02*
X215445Y265701D01*
X218933Y277563D02*
Y285437D01*
X205547D02*
X218933D01*
X205547Y277563D02*
X218933D01*
X205547D02*
Y285437D01*
X210307Y293465D02*
Y301339D01*
Y293465D02*
X223693D01*
X210307Y301339D02*
X223693D01*
Y293465D02*
Y301339D01*
X238189Y319760D02*
X241811D01*
X238189Y327240D02*
X241811D01*
Y319760D02*
Y327240D01*
X238189Y319760D02*
Y327240D01*
X233047Y328398D02*
Y340602D01*
X238953Y328398D02*
Y340602D01*
X233047Y328398D02*
X238953D01*
X233047Y340602D02*
X238953D01*
X230752Y354365D02*
Y361846D01*
X227130Y354365D02*
Y361846D01*
Y354365D02*
X230752D01*
X227130Y361846D02*
X230752D01*
X218701Y358917D02*
X226182D01*
X218701Y355295D02*
X226182D01*
Y358917D01*
X218701Y355295D02*
Y358917D01*
X214630Y359366D02*
Y366846D01*
X218252Y359366D02*
Y366846D01*
X214630D02*
X218252D01*
X214630Y359366D02*
X218252D01*
X225108Y343571D02*
Y351445D01*
X211722D02*
X225108D01*
X211722Y343571D02*
X225108D01*
X211722D02*
Y351445D01*
X224867Y335669D02*
Y343543D01*
X211482D02*
X224867D01*
X211482Y335669D02*
X224867D01*
X211482D02*
Y343543D01*
X197545Y335697D02*
Y339319D01*
X205025Y335697D02*
Y339319D01*
X197545Y335697D02*
X205025Y335697D01*
X197545Y339319D02*
X205025Y339319D01*
X204915Y339697D02*
Y343319D01*
X197434Y339697D02*
Y343319D01*
X204915D01*
X197434Y339697D02*
X204915D01*
X197434Y346697D02*
X204915D01*
X197434Y350319D02*
X204915D01*
X197434Y346697D02*
Y350319D01*
X204915Y346697D02*
Y350319D01*
X196563Y351307D02*
X204437D01*
Y364693D01*
X196563Y351307D02*
Y364693D01*
X204437D01*
X207689Y381760D02*
Y389240D01*
X211311Y381760D02*
Y389240D01*
X207689D02*
X211311D01*
X207689Y381760D02*
X211311D01*
X228760Y394421D02*
X236240Y394421D01*
X228760Y390799D02*
X236240Y390799D01*
X236240Y394421D01*
X228760Y390799D02*
Y394421D01*
X228760Y398421D02*
X236240D01*
X228760Y394799D02*
X236240Y394799D01*
Y398421D01*
X228760Y394799D02*
X228760Y398421D01*
X228760Y402421D02*
X236240D01*
X228760Y398799D02*
X236240Y398799D01*
X236240Y402421D02*
X236240Y398799D01*
X228760Y398799D02*
Y402421D01*
X198965Y394193D02*
X206839D01*
X198965Y380807D02*
Y394193D01*
X206839Y380807D02*
Y394193D01*
X198965Y380807D02*
X206839D01*
X204563Y393307D02*
X212437D01*
Y406693D01*
X204563Y393307D02*
Y406693D01*
X212437D01*
X228760Y425921D02*
X236240Y425921D01*
X228760Y422299D02*
X236240Y422299D01*
X236240Y425921D02*
X236240Y422299D01*
X228760Y422299D02*
Y425921D01*
X236240Y417299D02*
X236240Y420921D01*
X228760Y417299D02*
Y420921D01*
X236240Y420921D01*
X228760Y417299D02*
X236240D01*
X236240Y413299D02*
Y416921D01*
X228760Y413299D02*
Y416921D01*
X236240D01*
X228760Y413299D02*
X236240Y413299D01*
X215811Y414350D02*
X215811Y406870D01*
X212189D02*
Y414350D01*
Y406870D02*
X215811D01*
X212189Y414350D02*
X215811D01*
X212189Y414760D02*
Y422240D01*
X215811Y422240D02*
X215811Y414760D01*
X212189Y422240D02*
X215811Y422240D01*
X212189Y414760D02*
X215811D01*
X204260Y418311D02*
X211740Y418311D01*
X204260Y414689D02*
X211740D01*
X211740Y418311D02*
X211740Y414689D01*
X204260D02*
Y418311D01*
X456764Y296118D02*
X474874D01*
X456764Y287063D02*
X474874D01*
X456764D02*
Y296118D01*
X474874Y287063D02*
Y296118D01*
X462370Y296280D02*
X469850D01*
X462370Y299902D02*
X469850Y299902D01*
X462370Y299902D02*
X462370Y296280D01*
X469850D02*
Y299902D01*
X475614Y287795D02*
X521677D01*
X475614Y316339D02*
X521677Y316339D01*
Y287795D02*
Y316339D01*
X475614Y316339D02*
X475614Y287795D01*
X476560Y316689D02*
X476560Y320311D01*
X484040D02*
X484040Y316689D01*
X476560D02*
X484040D01*
X476560Y320311D02*
X484040D01*
X474398Y325953D02*
X486602D01*
X474398Y320047D02*
X486602D01*
X474398D02*
Y325953D01*
X486602Y320047D02*
Y325953D01*
X445610Y267000D02*
Y278000D01*
X432610D02*
X432610Y267000D01*
X445610D01*
X432610Y278000D02*
X445610D01*
X432110Y267000D02*
X432110Y278000D01*
X419110Y267000D02*
Y278000D01*
Y267000D02*
X432110D01*
X419110Y278000D02*
X432110D01*
X410673Y265067D02*
X418547D01*
Y278453D01*
X410673Y265067D02*
Y278453D01*
X418547D01*
X406799Y269260D02*
Y276740D01*
X410421Y269260D02*
X410421Y276740D01*
X406799D02*
X410421D01*
X406799Y269260D02*
X410421D01*
X402799D02*
Y276740D01*
X406421Y269260D02*
Y276740D01*
X402799D02*
X406421D01*
X402799Y269260D02*
X406421D01*
X400850Y272689D02*
Y276311D01*
X393370Y272689D02*
Y276311D01*
X400850D01*
X393370Y272689D02*
X400850D01*
Y268689D02*
Y272311D01*
X393370Y268689D02*
Y272311D01*
X400850D01*
X393370Y268689D02*
X400850D01*
X406799Y268740D02*
X410421D01*
X406799Y261260D02*
X410421Y261260D01*
X406799Y268740D02*
X406799Y261260D01*
X410421Y261260D02*
Y268740D01*
X424870Y265811D02*
X432350D01*
X424870Y262189D02*
X432350D01*
Y265811D01*
X424870Y262189D02*
Y265811D01*
X432870D02*
X440350Y265811D01*
X432870Y262189D02*
X440350Y262189D01*
Y265811D01*
X432870Y262189D02*
Y265811D01*
X456870Y282689D02*
Y286311D01*
X464350Y282689D02*
Y286311D01*
X456870Y282689D02*
X464350D01*
X456870Y286311D02*
X464350D01*
X465158Y270898D02*
Y283102D01*
X471063Y270898D02*
Y283102D01*
X465158Y270898D02*
X471063D01*
X465158Y283102D02*
X471063D01*
X475614Y256295D02*
X521677D01*
X475614Y284839D02*
X521677D01*
Y256295D02*
Y284839D01*
X475614Y256295D02*
X475614Y284839D01*
X471799Y272850D02*
Y280331D01*
X475421D02*
X475421Y272850D01*
X471799Y280331D02*
X475421D01*
X471799Y272850D02*
X475421D01*
X460799Y263760D02*
X464421D01*
X460799Y271240D02*
X464421D01*
X464421Y263760D01*
X460799D02*
Y271240D01*
X464870Y263689D02*
X472350D01*
X464870Y267311D02*
X472350D01*
X464870Y263689D02*
Y267311D01*
X472350Y263689D02*
Y267311D01*
X457055Y263528D02*
X475165D01*
X457055Y254472D02*
X475165D01*
X457055D02*
Y263528D01*
X475165Y254472D02*
Y263528D01*
X406790Y242537D02*
Y250412D01*
X393404D02*
X406790D01*
X393404Y242537D02*
X406790D01*
X393404D02*
Y250412D01*
X406790Y232477D02*
Y240351D01*
X393404D02*
X406790D01*
X393404Y232477D02*
X406790D01*
X393404D02*
Y240351D01*
X392997Y172886D02*
Y180760D01*
Y172886D02*
X406383Y172886D01*
X392997Y180760D02*
X406383D01*
Y172886D02*
Y180760D01*
X392997Y182947D02*
Y190821D01*
Y182947D02*
X406383D01*
X392997Y190821D02*
X406383D01*
Y182947D02*
Y190821D01*
X204150Y414311D02*
X211630Y414311D01*
X204150Y410689D02*
X211630Y410689D01*
Y414311D01*
X204150Y414311D02*
X204150Y410689D01*
X315260Y402811D02*
X315260Y399189D01*
X322740Y399189D02*
Y402811D01*
X315260Y399189D02*
X322740Y399189D01*
X315260Y402811D02*
X322740Y402811D01*
X315260Y395189D02*
Y398811D01*
X322740Y395189D02*
X322740Y398811D01*
X315260Y395189D02*
X322740D01*
X315260Y398811D02*
X322740Y398811D01*
X315260Y391189D02*
Y394811D01*
X322740Y391189D02*
Y394811D01*
X315260Y391189D02*
X322740D01*
X315260Y394811D02*
X322740Y394811D01*
X335602Y384453D02*
X335602Y378547D01*
X323398Y384453D02*
X323398Y378547D01*
X335602D01*
X323398Y384453D02*
X335602D01*
X339811Y378760D02*
Y386240D01*
X336189Y378760D02*
Y386240D01*
Y378760D02*
X339811D01*
X336189Y386240D02*
X339811Y386240D01*
X361689Y378870D02*
X365311Y378870D01*
X361689Y386350D02*
X365311D01*
X365311Y378870D01*
X361689Y386350D02*
X361689Y378870D01*
X400870Y402311D02*
X400870Y398689D01*
X408350D02*
Y402311D01*
X400870Y398689D02*
X408350D01*
X400870Y402311D02*
X408350Y402311D01*
X400870Y394689D02*
Y398311D01*
X408350Y394689D02*
X408350Y398311D01*
X400870Y394689D02*
X408350D01*
X400870Y398311D02*
X408350Y398311D01*
X400870Y390689D02*
Y394311D01*
X408350Y390689D02*
Y394311D01*
X400870Y390689D02*
X408350Y390689D01*
X400870Y394311D02*
X408350D01*
X421213Y378047D02*
Y383953D01*
X409008Y378047D02*
X409008Y383953D01*
X409008Y378047D02*
X421213Y378047D01*
X409008Y383953D02*
X421213D01*
X425421Y378260D02*
Y385740D01*
X421799Y378260D02*
Y385740D01*
Y378260D02*
X425421D01*
X421799Y385740D02*
X425421D01*
X447299Y378370D02*
X450921D01*
X447299Y385850D02*
X450921D01*
X450921Y378370D01*
X447299D02*
X447299Y385850D01*
X460008Y429547D02*
X472213D01*
X460008Y435453D02*
X472213D01*
Y429547D02*
Y435453D01*
X460008Y429547D02*
Y435453D01*
X467850Y425689D02*
Y429311D01*
X460370Y429311D02*
X460370Y425689D01*
X460370Y429311D02*
X467850Y429311D01*
X460370Y425689D02*
X467850D01*
Y421689D02*
Y425311D01*
X460370Y421689D02*
Y425311D01*
X467850D01*
X460370Y421689D02*
X467850D01*
X460370Y417689D02*
X467850D01*
X460370Y421311D02*
X467850D01*
X460370Y417689D02*
X460370Y421311D01*
X467850Y417689D02*
Y421311D01*
X447799Y445240D02*
X451421Y445240D01*
X447799Y437760D02*
X451421D01*
X447799D02*
Y445240D01*
X451421Y445240D02*
X451421Y437760D01*
X424799Y445240D02*
X428421Y445240D01*
X424799Y437760D02*
X428421D01*
X424799D02*
X424799Y445240D01*
X428421Y437760D02*
Y445240D01*
X400870Y425811D02*
X400870Y422189D01*
X408350Y422189D02*
Y425811D01*
X400870Y422189D02*
X408350Y422189D01*
X400870Y425811D02*
X408350Y425811D01*
X400870Y417189D02*
X408350Y417189D01*
X400870Y420811D02*
X408350D01*
X400870Y417189D02*
Y420811D01*
X408350Y417189D02*
Y420811D01*
X400870Y413189D02*
X408350Y413189D01*
X400870Y416811D02*
X408350Y416811D01*
X400870Y416811D02*
X400870Y413189D01*
X408350Y413189D02*
Y416811D01*
X374398Y430047D02*
X386602D01*
X374398Y435953D02*
X386602D01*
Y430047D02*
Y435953D01*
X374398Y430047D02*
Y435953D01*
X382240Y429811D02*
X382240Y426189D01*
X374760Y429811D02*
X374760Y426189D01*
X374760Y429811D02*
X382240Y429811D01*
X374760Y426189D02*
X382240Y426189D01*
X382240Y422189D02*
Y425811D01*
X374760Y422189D02*
Y425811D01*
X382240Y425811D01*
X374760Y422189D02*
X382240Y422189D01*
X374760Y418189D02*
X382240Y418189D01*
X374760Y421811D02*
X382240Y421811D01*
X374760Y418189D02*
X374760Y421811D01*
X382240Y418189D02*
Y421811D01*
X362189Y445740D02*
X365811Y445740D01*
X362189Y438260D02*
X365811D01*
X362189Y445740D02*
X362189Y438260D01*
X365811Y445740D02*
X365811Y438260D01*
X339189Y445740D02*
X342811Y445740D01*
X339189Y438260D02*
X342811Y438260D01*
X339189Y438260D02*
Y445740D01*
X342811Y438260D02*
X342811Y445740D01*
X315260Y422689D02*
Y426311D01*
X322740D02*
X322740Y422689D01*
X315260Y422689D02*
X322740Y422689D01*
X315260Y426311D02*
X322740D01*
X315260Y417689D02*
X322740D01*
X315260Y421311D02*
X322740Y421311D01*
X315260Y417689D02*
Y421311D01*
X322740Y417689D02*
Y421311D01*
X315260Y413689D02*
X322740D01*
X315260Y417311D02*
X322740D01*
X315260Y413689D02*
Y417311D01*
X322740D02*
X322740Y413689D01*
X287898Y429658D02*
Y435563D01*
X300102Y429658D02*
Y435563D01*
X287898D02*
X300102D01*
X287898Y429658D02*
X300102D01*
X288260Y425799D02*
X295740Y425799D01*
X288260Y429421D02*
X295740D01*
X288260Y425799D02*
Y429421D01*
X295740D02*
X295740Y425799D01*
X288260Y421799D02*
X295740Y421799D01*
X288260Y425421D02*
X295740Y425421D01*
X288260Y425421D02*
X288260Y421799D01*
X295740Y421799D02*
Y425421D01*
Y417799D02*
Y421421D01*
X288260Y417799D02*
X288260Y421421D01*
X295740Y421421D01*
X288260Y417799D02*
X295740Y417799D01*
X279311Y437870D02*
Y445350D01*
X275689Y437870D02*
Y445350D01*
Y437870D02*
X279311D01*
X275689Y445350D02*
X279311D01*
X256311Y437870D02*
Y445350D01*
X252689Y437870D02*
Y445350D01*
Y437870D02*
X256311D01*
X252689Y445350D02*
X256311D01*
X244189Y471870D02*
Y479350D01*
X247811Y471870D02*
Y479350D01*
X244189D02*
X247811D01*
X244189Y471870D02*
X247811D01*
X243811Y471870D02*
Y479350D01*
X240189D02*
X240189Y471870D01*
X243811Y471870D01*
X240189Y479350D02*
X243811D01*
X416299Y471760D02*
X419921Y471760D01*
X416299Y479240D02*
X419921D01*
X419921Y471760D02*
X419921Y479240D01*
X416299Y471760D02*
Y479240D01*
X412299D02*
X415921Y479240D01*
X412299Y471760D02*
X415921D01*
X412299D02*
Y479240D01*
X415921Y479240D02*
X415921Y471760D01*
X330689Y472260D02*
X334311D01*
X330689Y479740D02*
X334311D01*
X334311Y472260D02*
X334311Y479740D01*
X330689D02*
X330689Y472260D01*
X326689Y479740D02*
X330311Y479740D01*
X326689Y472260D02*
X330311D01*
X326689Y479740D02*
X326689Y472260D01*
X330311Y479740D02*
X330311Y472260D01*
X282760Y476299D02*
Y479921D01*
X290240Y476299D02*
Y479921D01*
X282760Y476299D02*
X290240D01*
X282760Y479921D02*
X290240D01*
Y471299D02*
Y474921D01*
X282760Y471299D02*
Y474921D01*
X290240D01*
X282760Y471299D02*
X290240D01*
X282760Y466299D02*
Y469921D01*
X290240Y466299D02*
Y469921D01*
X282760Y466299D02*
X290240D01*
X282760Y469921D02*
X290240D01*
X282760Y461299D02*
Y464921D01*
X290240Y461299D02*
Y464921D01*
X282760Y461299D02*
X290240D01*
X282760Y464921D02*
X290240D01*
X282760Y456299D02*
Y459921D01*
X290240Y456299D02*
Y459921D01*
X282760Y456299D02*
X290240D01*
X282760Y459921D02*
X290240Y459921D01*
X369260Y460311D02*
X376740D01*
X369260Y456689D02*
X376740D01*
Y460311D01*
X369260Y456689D02*
Y460311D01*
X369260Y465311D02*
X376740D01*
X369260Y461689D02*
X376740D01*
X376740Y465311D02*
X376740Y461689D01*
X369260D02*
Y465311D01*
X369260Y470311D02*
X376740D01*
X369260Y466689D02*
X376740D01*
Y470311D01*
X369260Y466689D02*
Y470311D01*
Y471689D02*
X376740Y471689D01*
X369260Y475311D02*
X376740D01*
X369260Y471689D02*
Y475311D01*
X376740Y471689D02*
Y475311D01*
X369260Y480311D02*
X376740D01*
X369260Y476689D02*
X376740D01*
Y480311D01*
X369260Y476689D02*
Y480311D01*
X454870Y479811D02*
X462350D01*
X454870Y476189D02*
X462350D01*
Y479811D01*
X454870Y476189D02*
Y479811D01*
Y471189D02*
X462350Y471189D01*
X454870Y474811D02*
X462350D01*
X454870Y471189D02*
Y474811D01*
X462350Y471189D02*
Y474811D01*
X454870Y469811D02*
X462350Y469811D01*
X454870Y466189D02*
X462350D01*
Y469811D01*
X454870Y466189D02*
Y469811D01*
Y464811D02*
X462350D01*
X454870Y461189D02*
X462350D01*
Y464811D01*
X454870Y461189D02*
Y464811D01*
Y459811D02*
X462350D01*
X454870Y456189D02*
X462350D01*
Y459811D01*
X454870Y456189D02*
Y459811D01*
X490948Y496215D02*
X498823D01*
X490948D02*
X490949Y482829D01*
X498823Y482829D02*
Y496215D01*
X490949Y482829D02*
X498823Y482829D01*
X501009Y496215D02*
X508883D01*
X501009D02*
X501009Y482829D01*
X508883D02*
Y496215D01*
X501009Y482829D02*
X508883D01*
X518953Y434898D02*
Y447102D01*
X513047Y434898D02*
Y447102D01*
X518953D01*
X513047Y434898D02*
X518953D01*
X509189Y443240D02*
X512811D01*
X509189Y435760D02*
X512811D01*
X509189Y443240D02*
X509189Y435760D01*
X512811D02*
Y443240D01*
X501898Y394547D02*
Y400453D01*
X514102Y394547D02*
Y400453D01*
X501898D02*
X514102D01*
X501898Y394547D02*
X514102D01*
X488661Y392785D02*
Y400659D01*
Y392785D02*
X502047D01*
X488661Y400659D02*
X502047D01*
Y392785D02*
Y400659D01*
X490452Y375044D02*
Y393548D01*
X515255Y375044D02*
Y393548D01*
X490452D02*
X515255D01*
X490452Y375044D02*
X515255D01*
X484547Y394602D02*
X490453D01*
X484547Y382398D02*
X490453D01*
Y394602D01*
X484547Y382398D02*
Y394602D01*
X476063Y370307D02*
X483937D01*
Y383693D01*
X476063Y370307D02*
Y383693D01*
X483937Y383693D01*
X486689Y374760D02*
Y382240D01*
X490311Y374760D02*
Y382240D01*
X486689D02*
X490311D01*
X486689Y374760D02*
X490311D01*
X512901Y394422D02*
X518807D01*
X512901Y382218D02*
X518807D01*
Y394422D01*
X512901Y382218D02*
Y394422D01*
X518901D02*
X524806D01*
X518901Y382218D02*
X524806D01*
Y394422D01*
X518901Y382218D02*
Y394422D01*
X491398Y358047D02*
X503602D01*
X491398Y363953D02*
X503602D01*
Y358047D02*
Y363953D01*
X491398Y358047D02*
Y363953D01*
X506398Y359047D02*
X518602D01*
X506398Y364953D02*
X518602D01*
X518602Y359047D02*
X518602Y364953D01*
X506398Y359047D02*
Y364953D01*
X505898Y353547D02*
X518102D01*
X505898Y359453D02*
X518102D01*
X518102Y353547D02*
X518102Y359453D01*
X505898Y353547D02*
Y359453D01*
X501240Y354689D02*
Y358311D01*
X493760D02*
X493760Y354689D01*
X493760Y358311D02*
X501240D01*
X493760Y354689D02*
X501240D01*
X507453Y342898D02*
Y355102D01*
X501547Y342898D02*
Y355102D01*
X507453D01*
X501547Y342898D02*
X507453Y342898D01*
X499465Y343693D02*
X507339D01*
X499465Y330307D02*
Y343693D01*
X507339Y330307D02*
Y343693D01*
X499465Y330307D02*
X507339D01*
X506898Y325047D02*
X519102D01*
X506898Y330953D02*
X519102D01*
Y325047D02*
Y330953D01*
X506898Y325047D02*
Y330953D01*
X526240Y329189D02*
Y332811D01*
X518760Y329189D02*
Y332811D01*
X526240D01*
X518760Y329189D02*
X526240D01*
X518307Y322063D02*
Y329937D01*
Y322063D02*
X531693D01*
X518307Y329937D02*
X531693D01*
Y322063D02*
Y329937D01*
X506898Y256453D02*
X519102D01*
X506898Y250547D02*
X519102D01*
X506898D02*
Y256453D01*
X519102Y250547D02*
Y256453D01*
X496453Y237398D02*
Y249602D01*
X490547Y237398D02*
Y249602D01*
X496453D01*
X490547Y237398D02*
X496453D01*
X495898Y247047D02*
X508102D01*
X495898Y252953D02*
X508102D01*
Y247047D02*
Y252953D01*
X495898Y247047D02*
Y252953D01*
X514575Y224480D02*
Y249283D01*
X496071Y224480D02*
Y249283D01*
X514575D01*
X496071Y224480D02*
X514575D01*
X486240Y241811D02*
X486240Y238189D01*
X478760Y238189D02*
Y241811D01*
X486240D01*
X478760Y238189D02*
X486240Y238189D01*
X475898Y232547D02*
X488102D01*
X475898Y238453D02*
X488102D01*
Y232547D02*
Y238453D01*
X475898Y232547D02*
Y238453D01*
X488965Y238693D02*
X496839D01*
X488965Y225307D02*
Y238693D01*
X496839Y225307D02*
Y238693D01*
X488965Y225307D02*
X496839D01*
X495748Y219547D02*
X507953D01*
X495748Y225453D02*
X507953D01*
Y219547D02*
Y225453D01*
X495748Y219547D02*
Y225453D01*
X515740Y222189D02*
Y225811D01*
X508260Y222189D02*
Y225811D01*
X515740D01*
X508260Y222189D02*
X515740D01*
X507307Y214563D02*
Y222437D01*
Y214563D02*
X520693D01*
X507307Y222437D02*
X520693D01*
Y214563D02*
Y222437D01*
X421563Y126307D02*
X429437D01*
Y139693D01*
X421563Y126307D02*
Y139693D01*
X429437D01*
X423689Y148240D02*
X427311D01*
X423689Y140760D02*
X427311D01*
X423689D02*
Y148240D01*
X427311Y140760D02*
Y148240D01*
X584997Y132539D02*
X592871D01*
Y145924D01*
X584997Y132539D02*
Y145924D01*
X592871D01*
X587189Y153740D02*
X590811D01*
X587189Y146260D02*
X590811D01*
X587189D02*
Y153740D01*
X590811Y146260D02*
Y153740D01*
X578311Y146260D02*
X578311Y153740D01*
X574689D02*
X574689Y146260D01*
X578311D01*
X574689Y153740D02*
X578311D01*
X572752Y145965D02*
X580626D01*
X572752Y132580D02*
Y145965D01*
X580626Y132580D02*
Y145965D01*
X572752Y132580D02*
X580626D01*
X495770Y201449D02*
Y207354D01*
X507974Y201449D02*
Y207354D01*
X495770D02*
X507974D01*
X495770Y201449D02*
X507974D01*
X495898Y195547D02*
Y201453D01*
X508102Y195547D02*
Y201453D01*
X495898D02*
X508102D01*
X495898Y195547D02*
X508102D01*
X491047Y184898D02*
X496953D01*
X491047Y197102D02*
X496953D01*
X491047Y184898D02*
Y197102D01*
X496953Y184898D02*
Y197102D01*
X485484Y188192D02*
X485484Y184570D01*
X478004Y184570D02*
Y188192D01*
X485484D01*
X478004Y184570D02*
X485484Y184570D01*
X475642Y178928D02*
X487847D01*
X475642Y184834D02*
X487847D01*
Y178928D02*
Y184834D01*
X475642Y178928D02*
Y184834D01*
X488505Y171558D02*
X496379D01*
Y184944D01*
X488505Y171558D02*
Y184944D01*
X496379D01*
X495898Y167047D02*
Y172953D01*
X508102D02*
X508102Y167047D01*
X495898Y172953D02*
X508102D01*
X495898Y167047D02*
X508102D01*
X507760Y169689D02*
X515240Y169689D01*
X507760Y173311D02*
X515240Y173311D01*
X507760Y173311D02*
X507760Y169689D01*
X515240Y169689D02*
Y173311D01*
X520693Y162563D02*
Y170437D01*
X507307D02*
X520693D01*
X507307Y162563D02*
X520693D01*
X507307D02*
Y170437D01*
X449648Y303816D02*
X463821Y303816D01*
X449648Y314446D02*
X463821D01*
Y303816D02*
Y314446D01*
X449648Y303816D02*
Y314446D01*
X450693Y271626D02*
X464866D01*
X450693Y282256D02*
X464866Y282256D01*
Y271626D02*
Y282256D01*
X450693Y282256D02*
X450693Y271626D01*
X408610Y386409D02*
X409496Y386409D01*
X459610Y386409D01*
X408610Y437591D02*
X409398Y437591D01*
X459610D01*
X408610Y386409D02*
Y437591D01*
X459610Y386409D02*
Y437591D01*
X374000Y386910D02*
Y438091D01*
X323000D02*
X323000Y386909D01*
X323787Y438091D02*
X374000D01*
X323000D02*
X323787D01*
X323886Y386909D02*
X374000Y386910D01*
X323000Y386909D02*
X323886D01*
X236500Y386520D02*
X237386D01*
X287500Y386520D01*
X236500Y437701D02*
X237287D01*
X287500D01*
X236500Y386520D02*
Y437701D01*
X287500Y386520D02*
Y437701D01*
X366972Y261555D02*
X376028D01*
X366972Y243445D02*
X376028D01*
Y261555D01*
X366972Y243445D02*
Y261555D01*
X441299Y286350D02*
Y293831D01*
X444921Y286350D02*
Y293831D01*
X441299D02*
X444921D01*
X441299Y286350D02*
X444921D01*
X470799Y305350D02*
X470799Y312831D01*
X474421Y305350D02*
Y312831D01*
X470799Y312831D02*
X474421Y312831D01*
X470799Y305350D02*
X474421D01*
X449421Y301850D02*
Y309331D01*
X445799Y301850D02*
Y309331D01*
Y301850D02*
X449421D01*
X445799Y309331D02*
X449421D01*
X464157Y302988D02*
Y315193D01*
X470063Y302988D02*
Y315193D01*
X464157Y302988D02*
X470063D01*
X464157Y315193D02*
X470063D01*
X433008Y310138D02*
X445213Y310138D01*
X433008Y316043D02*
X445213D01*
X445213Y310138D01*
X433008Y310138D02*
Y316043D01*
X431870Y298402D02*
X439350Y298402D01*
X431870Y294779D02*
X439350Y294779D01*
X439350Y298402D01*
X431870Y294779D02*
Y298402D01*
X423870Y298402D02*
X431350Y298402D01*
X423870Y294779D02*
X431350Y294779D01*
Y298402D01*
X423870Y298402D02*
X423870Y294779D01*
X404299Y309240D02*
X404299Y301760D01*
X407921D02*
Y309240D01*
X404299D02*
X407921D01*
X404299Y301760D02*
X407921D01*
X408299Y301760D02*
X408299Y309240D01*
X411921Y301760D02*
X411921Y309240D01*
X408299D02*
X411921D01*
X408299Y301760D02*
X411921Y301760D01*
X450421Y269760D02*
Y277240D01*
X446799Y269760D02*
Y277240D01*
Y269760D02*
X450421D01*
X446799Y277240D02*
X450421D01*
X410370Y278689D02*
X417850D01*
X410370Y282311D02*
X417850D01*
X410370Y278689D02*
Y282311D01*
X417850Y278689D02*
Y282311D01*
X412870Y291189D02*
X420350Y291189D01*
X412870Y294811D02*
X420350Y294811D01*
X412870Y291189D02*
Y294811D01*
X420350Y294811D02*
X420350Y291189D01*
X412870Y283189D02*
X420350Y283189D01*
X412870Y286811D02*
X420350D01*
X412870Y283189D02*
X412870Y286811D01*
X420350Y283189D02*
Y286811D01*
X434008Y278138D02*
X446213D01*
X434008Y284043D02*
X446213D01*
Y278138D02*
Y284043D01*
X434008Y278138D02*
Y284043D01*
X444610Y299091D02*
X444610Y310090D01*
X431610Y299091D02*
Y310090D01*
Y299091D02*
X444610D01*
X431610Y310090D02*
X444610D01*
X431110Y299091D02*
X431110Y310090D01*
X418110Y299091D02*
Y310090D01*
Y299091D02*
X431110Y299091D01*
X418110Y310090D02*
X431110D01*
X417290Y330947D02*
Y338821D01*
X403904D02*
X417290D01*
X403904Y330947D02*
X417290D01*
X403904D02*
Y338821D01*
X417290Y320886D02*
Y328760D01*
X403904D02*
X417290D01*
X403904Y320886D02*
X417290D01*
X403904D02*
Y328760D01*
X458799Y296240D02*
X462421D01*
X458799Y303720D02*
X462421D01*
Y296240D02*
Y303720D01*
X458799Y296240D02*
X458799Y303720D01*
X445799Y309850D02*
X449421D01*
X445799Y317331D02*
X449421D01*
Y309850D02*
Y317331D01*
X445799Y309850D02*
Y317331D01*
X455870Y314779D02*
Y318402D01*
X463350Y314779D02*
Y318402D01*
X455870Y314779D02*
X463350D01*
X455870Y318402D02*
X463350D01*
X402850Y309811D02*
X402850Y306189D01*
X395370Y306189D02*
Y309811D01*
X402850D01*
X395370Y306189D02*
X402850Y306189D01*
X402850Y302189D02*
Y305811D01*
X395370Y302189D02*
X395370Y305811D01*
X402850D01*
X395370Y302189D02*
X402850Y302189D01*
X412870Y287189D02*
Y290811D01*
X420350Y287189D02*
Y290811D01*
X412870Y287189D02*
X420350D01*
X412870Y290811D02*
X420350Y290811D01*
X446799Y277850D02*
X450421D01*
X446799Y285331D02*
X450421D01*
X450421Y277850D02*
X450421Y285331D01*
X446799D02*
X446799Y277850D01*
X475116Y437581D02*
X485746Y437581D01*
X475116Y423408D02*
X485746Y423408D01*
X475116Y423408D02*
Y437581D01*
X485746Y423408D02*
X485746Y437581D01*
X511500Y496139D02*
X511500Y477139D01*
X488499Y496139D02*
X511500Y496139D01*
X488499Y477139D02*
X511500D01*
X488499D02*
Y496139D01*
X507307Y436537D02*
X517937Y436537D01*
X507307Y422363D02*
X517937Y422363D01*
X507307Y422363D02*
Y436537D01*
X517937Y422363D02*
Y436537D01*
X503212Y442308D02*
Y445930D01*
X495732Y442308D02*
Y445930D01*
Y442308D02*
X503212D01*
X495732Y445930D02*
X503212D01*
X493444Y412356D02*
X502499D01*
X493444Y430466D02*
X502499D01*
Y412356D02*
Y430466D01*
X493444Y412356D02*
Y430466D01*
X489661Y417379D02*
X493283D01*
X489661Y424859D02*
X493283D01*
X489661Y417379D02*
Y424859D01*
X493283Y417379D02*
Y424859D01*
X484212Y416430D02*
X484212Y412808D01*
X476732Y412808D02*
Y416430D01*
Y412808D02*
X484212Y412808D01*
X476732Y416430D02*
X484212D01*
X480232Y437808D02*
Y441430D01*
X487712Y437808D02*
Y441430D01*
X480232D02*
X487712D01*
X480232Y437808D02*
X487712D01*
X474370Y417167D02*
Y423072D01*
X486574Y417167D02*
Y423072D01*
X474370Y417167D02*
X486574D01*
X474370Y423072D02*
X486574D01*
X523751Y462359D02*
X527374D01*
X523751Y454879D02*
X527374D01*
Y462359D01*
X523751Y454879D02*
Y462359D01*
X473519Y454222D02*
X479425D01*
X473519Y442017D02*
X479425D01*
X473519D02*
Y454222D01*
X479425Y442017D02*
Y454222D01*
X491161Y455359D02*
X494783D01*
X491161Y447879D02*
X494783Y447879D01*
Y455359D01*
X491161D02*
X491161Y447879D01*
X491161Y463359D02*
X494783D01*
X491161Y455879D02*
X494783D01*
Y463359D01*
X491161Y455879D02*
Y463359D01*
X487803Y479308D02*
Y482930D01*
X480322Y479308D02*
Y482930D01*
Y479308D02*
X487803D01*
X480322Y482930D02*
X487803D01*
Y475308D02*
Y478930D01*
X480322Y475308D02*
Y478930D01*
Y475308D02*
X487803D01*
X480322Y478930D02*
X487803D01*
X511110Y468682D02*
Y476556D01*
X524496D01*
X511110Y468682D02*
X524496D01*
Y476556D01*
X526035Y412064D02*
X535090D01*
X526035Y430174D02*
X535090D01*
Y412064D02*
Y430174D01*
X526035Y412064D02*
Y430174D01*
X520303Y476808D02*
Y480430D01*
X512822Y476808D02*
Y480430D01*
Y476808D02*
X520303D01*
X512822Y480430D02*
X520303D01*
X522252Y414879D02*
X525874Y414879D01*
X522252Y422359D02*
X525874D01*
X522252D02*
X522252Y414879D01*
X525874Y414879D02*
Y422359D01*
X516712Y411808D02*
Y415430D01*
X509232Y415430D02*
X509232Y411808D01*
X516712Y411808D01*
X509232Y415430D02*
X516712Y415430D01*
X512322Y436808D02*
Y440430D01*
X519803Y436808D02*
X519803Y440430D01*
X512322Y440430D02*
X519803Y440430D01*
X512322Y436808D02*
X519803D01*
X507252Y469379D02*
X510874Y469379D01*
X507252Y476859D02*
X510874D01*
X507252Y469379D02*
X507252Y476859D01*
X510874Y469379D02*
X510874Y476859D01*
X506460Y416166D02*
Y422072D01*
X518665Y416166D02*
Y422072D01*
X506460Y416166D02*
X518665D01*
X506460Y422072D02*
X518665D01*
X494752Y466879D02*
X498374D01*
X494752Y474359D02*
X498374D01*
X494752Y466879D02*
Y474359D01*
X498374Y466879D02*
Y474359D01*
X520303Y480808D02*
Y484430D01*
X512822Y480808D02*
Y484430D01*
Y480808D02*
X520303D01*
X512822Y484430D02*
X520303D01*
X502751Y466879D02*
X506374D01*
X502751Y474359D02*
X506374D01*
X502751Y466879D02*
Y474359D01*
X506374Y466879D02*
Y474359D01*
X505519Y453222D02*
X511425D01*
X505519Y441017D02*
X511425D01*
X505519D02*
Y453222D01*
X511425Y441017D02*
Y453222D01*
X523751Y454359D02*
X527374D01*
X523751Y446879D02*
X527374D01*
Y454359D01*
X523751Y446879D02*
Y454359D01*
X479472Y442619D02*
Y455619D01*
X490472Y442619D02*
Y455619D01*
X479472Y455619D02*
X490472Y455619D01*
X479472Y442619D02*
X490472Y442619D01*
X511562Y454619D02*
X511562Y441619D01*
X522563Y441619D02*
Y454619D01*
X511562D02*
X522563D01*
X511562Y441619D02*
X522563Y441619D01*
X511562Y455119D02*
Y468119D01*
X522563Y468119D02*
X522563Y455119D01*
X511562Y468119D02*
X522563Y468119D01*
X511562Y455119D02*
X522563D01*
X479472Y456119D02*
Y469119D01*
X490472Y456119D02*
Y469119D01*
X479472Y469119D02*
X490472Y469119D01*
X479472Y456119D02*
X490472Y456119D01*
X485842Y428430D02*
X493322Y428430D01*
X485842Y424808D02*
X493322Y424808D01*
X485842Y424808D02*
Y428430D01*
X493322Y428430D02*
X493322Y424808D01*
X472232Y441430D02*
X479712D01*
X472232Y437808D02*
X479712D01*
X472232D02*
Y441430D01*
X479712Y437808D02*
Y441430D01*
X471161Y431359D02*
X471161Y423879D01*
X474783Y423879D02*
Y431359D01*
X471161Y423879D02*
X474783Y423879D01*
X471161Y431359D02*
X474783D01*
X483373Y484379D02*
Y491859D01*
X479751Y484379D02*
Y491859D01*
X483373D01*
X479751Y484379D02*
X483373D01*
X487373D02*
Y491859D01*
X483751Y484379D02*
Y491859D01*
X487373D01*
X483751Y484379D02*
X487373D01*
X516874Y493859D02*
X516874Y486379D01*
X513251D02*
Y493859D01*
X516874D01*
X513251Y486379D02*
X516874D01*
X520873Y493859D02*
X520873Y486379D01*
X517251D02*
Y493859D01*
X520873Y493859D01*
X517251Y486379D02*
X520873D01*
X520822Y476808D02*
X528303D01*
X520822Y480430D02*
X528303D01*
Y476808D02*
Y480430D01*
X520822Y476808D02*
Y480430D01*
X498751Y466879D02*
Y474359D01*
X502374Y466879D02*
Y474359D01*
X498751Y466879D02*
X502374D01*
X498751Y474359D02*
X502374D01*
X518322Y426430D02*
X525803Y426430D01*
X518322Y422808D02*
X525803Y422808D01*
X518322Y426430D02*
X518322Y422808D01*
X525803Y422808D02*
Y426430D01*
X504232Y440430D02*
X511712Y440430D01*
X504232Y436808D02*
X511712Y436808D01*
X504232Y436808D02*
Y440430D01*
X511712Y436808D02*
X511712Y440430D01*
X503252Y422879D02*
X503252Y430359D01*
X506874Y422879D02*
X506874Y430359D01*
X503252Y422879D02*
X506874D01*
X503252Y430359D02*
X506874Y430359D01*
X485390Y301685D02*
X510193D01*
X485390Y283181D02*
X510193Y283181D01*
Y301685D01*
X485390D02*
X485390Y283181D01*
X451630Y157054D02*
Y167684D01*
X465804Y157054D02*
Y167684D01*
X451630Y157054D02*
X465804D01*
X451630Y167684D02*
X465804Y167684D01*
X462538Y315684D02*
X476711D01*
X462538Y305054D02*
X476711D01*
Y315684D01*
X462538Y305054D02*
Y315684D01*
X393073Y193437D02*
X412073D01*
X393073Y170437D02*
Y193437D01*
X412073Y170437D02*
Y193437D01*
X393073Y170437D02*
X412073D01*
X393480Y230028D02*
X412480D01*
Y253028D01*
X393480Y230028D02*
Y253028D01*
X412480D01*
X403980Y318437D02*
X422980D01*
Y341437D01*
X403980Y318437D02*
Y341437D01*
X422980D01*
X452675Y189244D02*
Y199874D01*
X466849Y189244D02*
Y199874D01*
X452675Y189244D02*
X466849D01*
X452675Y199874D02*
X466849D01*
X453083Y259465D02*
X467256D01*
X453083Y248835D02*
X467256D01*
Y259465D01*
X453083Y248835D02*
Y259465D01*
X463583Y347874D02*
X477756D01*
X463583Y337244D02*
X477756D01*
Y347874D01*
X463583Y337244D02*
Y347874D01*
X443282Y185150D02*
X446904D01*
X443282Y177669D02*
X446904D01*
Y185150D01*
X443282Y177669D02*
Y185150D01*
X443689Y237260D02*
Y244740D01*
X447311Y237260D02*
Y244740D01*
X443689Y237260D02*
X447311D01*
X443689Y244740D02*
X447311D01*
X454189Y325669D02*
Y333150D01*
X457811Y325669D02*
Y333150D01*
X454189Y325669D02*
X457811D01*
X454189Y333150D02*
X457811D01*
X515339Y282807D02*
Y295012D01*
X521244Y282807D02*
Y295012D01*
X515339D02*
X521244D01*
X515339Y282807D02*
X521244D01*
X472063Y299693D02*
X479937D01*
Y286307D02*
Y299693D01*
X472063Y286307D02*
Y299693D01*
Y286307D02*
X479937D01*
X509339Y282807D02*
Y295012D01*
X515244Y282807D02*
Y295012D01*
X509339D02*
X515244D01*
X509339Y282807D02*
X515244D01*
X480547Y282898D02*
Y295102D01*
X486453Y282898D02*
Y295102D01*
X480547D02*
X486453D01*
X480547Y282898D02*
X486453D01*
X476856Y175382D02*
Y184437D01*
X458746Y175382D02*
Y184437D01*
X476856D01*
X458746Y175382D02*
X476856D01*
X459154Y234972D02*
X477264D01*
X459154Y244028D02*
X477264D01*
X459154Y234972D02*
Y244028D01*
X477264Y234972D02*
Y244028D01*
X469654Y323382D02*
X487764D01*
X469654Y332437D02*
X487764D01*
X469654Y323382D02*
Y332437D01*
X487764Y323382D02*
Y332437D01*
X471833Y171598D02*
Y175221D01*
X464353Y171598D02*
Y175221D01*
Y171598D02*
X471833D01*
X464353Y175221D02*
X471833D01*
X464760Y234811D02*
X472240D01*
X464760Y231189D02*
X472240D01*
X464760D02*
Y234811D01*
X472240Y231189D02*
Y234811D01*
X475260Y323220D02*
X482740D01*
X475260Y319598D02*
X482740D01*
X475260D02*
Y323220D01*
X482740Y319598D02*
Y323220D01*
X472782Y166150D02*
X476404D01*
X472782Y158669D02*
X476404D01*
Y166150D01*
X472782Y158669D02*
Y166150D01*
X473189Y218260D02*
Y225740D01*
X476811Y218260D02*
Y225740D01*
X473189Y218260D02*
X476811D01*
X473189Y225740D02*
X476811D01*
X483689Y306669D02*
Y314150D01*
X487311Y306669D02*
Y314150D01*
X483689Y306669D02*
X487311D01*
X483689Y314150D02*
X487311D01*
X447782Y162169D02*
X451404D01*
X447782Y169650D02*
X451404D01*
X447782Y162169D02*
Y169650D01*
X451404Y162169D02*
Y169650D01*
X451811Y221760D02*
Y229240D01*
X448189Y221760D02*
Y229240D01*
X451811D01*
X448189Y221760D02*
X451811D01*
X462311Y310169D02*
Y317650D01*
X458689Y310169D02*
Y317650D01*
X462311D01*
X458689Y310169D02*
X462311D01*
X466140Y156307D02*
X472045D01*
X466140Y168512D02*
X472045D01*
Y156307D02*
Y168512D01*
X466140Y156307D02*
Y168512D01*
X466547Y215898D02*
Y228102D01*
X472453Y215898D02*
Y228102D01*
X466547D02*
X472453D01*
X466547Y215898D02*
X472453D01*
X477047Y304307D02*
Y316512D01*
X482953Y304307D02*
Y316512D01*
X477047D02*
X482953D01*
X477047Y304307D02*
X482953D01*
X426853Y205689D02*
Y209311D01*
X434333Y205689D02*
Y209311D01*
X426853D02*
X434333D01*
X426853Y205689D02*
X434333D01*
X427260Y265280D02*
X434740D01*
X427260Y268902D02*
X434740D01*
Y265280D02*
Y268902D01*
X427260Y265280D02*
Y268902D01*
X437760Y353689D02*
X445240D01*
X437760Y357311D02*
X445240D01*
Y353689D02*
Y357311D01*
X437760Y353689D02*
Y357311D01*
X434990Y155457D02*
Y161362D01*
X447195Y155457D02*
Y161362D01*
X434990Y155457D02*
X447195D01*
X434990Y161362D02*
X447195D01*
X435398Y220953D02*
X447602D01*
X435398Y215047D02*
X447602D01*
Y220953D01*
X435398Y215047D02*
Y220953D01*
X445898Y309362D02*
X458102D01*
X445898Y303457D02*
X458102D01*
Y309362D01*
X445898Y303457D02*
Y309362D01*
X433852Y173098D02*
Y176720D01*
X441333Y173098D02*
Y176720D01*
X433852D02*
X441333D01*
X433852Y173098D02*
X441333D01*
X434260Y232689D02*
X441740D01*
X434260Y236311D02*
X441740D01*
Y232689D02*
Y236311D01*
X434260Y232689D02*
Y236311D01*
X444760Y321098D02*
X452240D01*
X444760Y324721D02*
X452240D01*
Y321098D02*
Y324721D01*
X444760Y321098D02*
Y324721D01*
X425852Y173098D02*
Y176720D01*
X433333Y173098D02*
Y176720D01*
X425852D02*
X433333D01*
X425852Y173098D02*
X433333D01*
X426260Y232689D02*
X433740D01*
X426260Y236311D02*
X433740D01*
Y232689D02*
Y236311D01*
X426260Y232689D02*
Y236311D01*
X436760Y321098D02*
X444240D01*
X436760Y324721D02*
X444240D01*
Y321098D02*
Y324721D01*
X436760Y321098D02*
Y324721D01*
X406282Y169740D02*
X409904D01*
X406282Y162260D02*
X409904D01*
Y169740D01*
X406282Y162260D02*
Y169740D01*
X406689Y221850D02*
Y229331D01*
X410311Y221850D02*
Y229331D01*
X406689Y221850D02*
X410311D01*
X406689Y229331D02*
X410311D01*
X417189Y310260D02*
Y317740D01*
X420811Y310260D02*
Y317740D01*
X417189Y310260D02*
X420811D01*
X417189Y317740D02*
X420811D01*
X410282Y169740D02*
X413904D01*
X410282Y162260D02*
X413904D01*
Y169740D01*
X410282Y162260D02*
Y169740D01*
X410689Y221850D02*
Y229331D01*
X414311Y221850D02*
Y229331D01*
X410689Y221850D02*
X414311D01*
X410689Y229331D02*
X414311D01*
X421189Y310260D02*
Y317740D01*
X424811Y310260D02*
Y317740D01*
X421189Y310260D02*
X424811D01*
X421189Y317740D02*
X424811D01*
X412656Y193047D02*
X420530D01*
X412656D02*
Y206433D01*
X420530Y193047D02*
Y206433D01*
X412656D02*
X420530D01*
X413063Y266024D02*
X420937D01*
Y252638D02*
Y266024D01*
X413063Y252638D02*
Y266024D01*
Y252638D02*
X420937D01*
X423563Y354433D02*
X431437D01*
Y341047D02*
Y354433D01*
X423563Y341047D02*
Y354433D01*
Y341047D02*
X431437D01*
X477148Y207972D02*
Y217028D01*
X459037Y207972D02*
Y217028D01*
X477148D01*
X459037Y207972D02*
X477148D01*
X459445Y267563D02*
X477555D01*
X459445Y276618D02*
X477555D01*
X459445Y267563D02*
Y276618D01*
X477555Y267563D02*
Y276618D01*
X469945Y355972D02*
X488055D01*
X469945Y365028D02*
X488055D01*
X469945Y355972D02*
Y365028D01*
X488055Y355972D02*
Y365028D01*
X408782Y202240D02*
X412404D01*
X408782Y194760D02*
X412404D01*
Y202240D01*
X408782Y194760D02*
Y202240D01*
X409189Y254350D02*
Y261831D01*
X412811Y254350D02*
Y261831D01*
X409189Y254350D02*
X412811D01*
X409189Y261831D02*
X412811D01*
X419689Y342760D02*
Y350240D01*
X423311Y342760D02*
Y350240D01*
X419689Y342760D02*
X423311D01*
X419689Y350240D02*
X423311D01*
X474333Y204189D02*
Y207811D01*
X466853Y204189D02*
Y207811D01*
Y204189D02*
X474333Y204189D01*
X466853Y207811D02*
X474333Y207811D01*
X467260Y267402D02*
X474740D01*
X467260Y263779D02*
X474740D01*
X467260D02*
Y267402D01*
X474740Y263779D02*
Y267402D01*
X477760Y355811D02*
X485240D01*
X477760Y352189D02*
X485240D01*
X477760D02*
Y355811D01*
X485240Y352189D02*
Y355811D01*
X473782Y198650D02*
X477404D01*
X473782Y191169D02*
X477404D01*
Y198650D01*
X473782Y191169D02*
Y198650D01*
X474189Y250760D02*
Y258240D01*
X477811Y250760D02*
Y258240D01*
X474189Y250760D02*
X477811D01*
X474189Y258240D02*
X477811D01*
X484689Y339169D02*
Y346650D01*
X488311Y339169D02*
Y346650D01*
X484689Y339169D02*
X488311D01*
X484689Y346650D02*
X488311D01*
X448782Y194260D02*
X452404D01*
X448782Y201740D02*
X452404D01*
X448782Y194260D02*
Y201740D01*
X452404Y194260D02*
Y201740D01*
X452811Y253850D02*
Y261331D01*
X449189Y253850D02*
Y261331D01*
X452811D01*
X449189Y253850D02*
X452811D01*
X463311Y342260D02*
Y349740D01*
X459689Y342260D02*
Y349740D01*
X463311D01*
X459689Y342260D02*
X463311D01*
X419833Y189189D02*
Y192811D01*
X412353Y189189D02*
Y192811D01*
Y189189D02*
X419833Y189189D01*
X412353Y192811D02*
X419833Y192811D01*
X412760Y252402D02*
X420240D01*
X412760Y248780D02*
X420240D01*
X412760D02*
Y252402D01*
X420240Y248780D02*
Y252402D01*
X423260Y340811D02*
X430740D01*
X423260Y337189D02*
X430740D01*
X423260D02*
Y340811D01*
X430740Y337189D02*
Y340811D01*
X467140Y188398D02*
X473045D01*
X467140Y200602D02*
X473045D01*
Y188398D02*
Y200602D01*
X467140Y188398D02*
Y200602D01*
X467547Y247988D02*
Y260193D01*
X473453Y247988D02*
Y260193D01*
X467547D02*
X473453D01*
X467547Y247988D02*
X473453D01*
X478047Y336398D02*
Y348602D01*
X483953Y336398D02*
Y348602D01*
X478047D02*
X483953D01*
X478047Y336398D02*
X483953D01*
X422333Y176689D02*
Y180311D01*
X414853Y176689D02*
Y180311D01*
Y176689D02*
X422333D01*
X414853Y180311D02*
X422333D01*
X415260Y239902D02*
X422740D01*
X415260Y236280D02*
X422740D01*
X415260D02*
Y239902D01*
X422740Y236280D02*
Y239902D01*
X425760Y328311D02*
X433240D01*
X425760Y324689D02*
X433240D01*
X425760D02*
Y328311D01*
X433240Y324689D02*
Y328311D01*
X404782Y202240D02*
X408404D01*
X404782Y194760D02*
X408404D01*
Y202240D01*
X404782Y194760D02*
Y202240D01*
X405189Y254350D02*
Y261831D01*
X408811Y254350D02*
Y261831D01*
X405189Y254350D02*
X408811D01*
X405189Y261831D02*
X408811D01*
X415689Y342760D02*
Y350240D01*
X419311Y342760D02*
Y350240D01*
X415689Y342760D02*
X419311D01*
X415689Y350240D02*
X419311D01*
X422333Y184689D02*
Y188311D01*
X414853Y184689D02*
Y188311D01*
Y184689D02*
X422333D01*
X414853Y188311D02*
X422333D01*
X415260Y247902D02*
X422740D01*
X415260Y244280D02*
X422740D01*
X415260D02*
Y247902D01*
X422740Y244280D02*
Y247902D01*
X425760Y336311D02*
X433240D01*
X425760Y332689D02*
X433240D01*
X425760D02*
Y336311D01*
X433240Y332689D02*
Y336311D01*
X435990Y187457D02*
Y193362D01*
X448195Y187457D02*
Y193362D01*
X435990Y187457D02*
X448195D01*
X435990Y193362D02*
X448195D01*
X436398Y252953D02*
X448602D01*
X436398Y247047D02*
X448602D01*
Y252953D01*
X436398Y247047D02*
Y252953D01*
X446898Y341362D02*
X459102D01*
X446898Y335457D02*
X459102D01*
Y341362D01*
X446898Y335457D02*
Y341362D01*
X434853Y205689D02*
Y209311D01*
X442333Y205689D02*
Y209311D01*
X434853D02*
X442333D01*
X434853Y205689D02*
X442333D01*
X435260Y265280D02*
X442740D01*
X435260Y268902D02*
X442740D01*
Y265280D02*
Y268902D01*
X435260Y265280D02*
Y268902D01*
X445760Y353689D02*
X453240D01*
X445760Y357311D02*
X453240D01*
Y353689D02*
Y357311D01*
X445760Y353689D02*
Y357311D01*
X433593Y161409D02*
X446593D01*
X433593Y172409D02*
X446593D01*
X433593Y161409D02*
Y172409D01*
X446593Y161409D02*
Y172409D01*
X447000Y221000D02*
Y232000D01*
X434000Y221000D02*
Y232000D01*
X447000D01*
X434000Y221000D02*
X447000D01*
X457500Y309409D02*
Y320409D01*
X444500Y309409D02*
Y320409D01*
X457500D01*
X444500Y309409D02*
X457500D01*
X434593Y193500D02*
X447593Y193500D01*
X434593Y204500D02*
X447593D01*
X434593D02*
X434593Y193500D01*
X447593Y193500D02*
Y204500D01*
X448000Y253091D02*
Y264090D01*
X435000Y253091D02*
Y264090D01*
X448000D01*
X435000Y253091D02*
X448000D01*
X458500Y341500D02*
Y352500D01*
X445500Y341500D02*
Y352500D01*
X458500D01*
X445500Y341500D02*
X458500D01*
X421093Y193500D02*
X434093D01*
X421093Y204500D02*
X434093D01*
X421093Y193500D02*
Y204500D01*
X434093Y193500D02*
Y204500D01*
X434500Y253091D02*
Y264090D01*
X421500Y253091D02*
Y264090D01*
X434500D01*
X421500Y253091D02*
X434500D01*
X445000Y341500D02*
Y352500D01*
X432000Y341500D02*
Y352500D01*
X445000D01*
X432000Y341500D02*
X445000D01*
X420093Y161409D02*
X433093D01*
X420093Y172409D02*
X433093D01*
X420093Y161409D02*
Y172409D01*
X433093Y161409D02*
Y172409D01*
X433500Y221000D02*
Y232000D01*
X420500Y221000D02*
Y232000D01*
X433500D01*
X420500Y221000D02*
X433500D01*
X444000Y309409D02*
Y320409D01*
X431000Y309409D02*
Y320409D01*
X444000D01*
X431000Y309409D02*
X444000D01*
X482689Y302240D02*
X486311D01*
X482689Y294760D02*
X486311Y294760D01*
X486311Y302240D02*
X486311Y294760D01*
X482689Y302240D02*
X482689Y294760D01*
X499693Y275965D02*
Y283839D01*
X486307Y275965D02*
X499693D01*
X486307Y283839D02*
X499693D01*
X486307Y275965D02*
Y283839D01*
X404400Y280679D02*
Y288553D01*
X391015Y280679D02*
X404400D01*
X391015Y288553D02*
X404400D01*
X391015Y280679D02*
Y288553D01*
X498898Y283453D02*
X511102D01*
X498898Y277547D02*
X511102D01*
Y283453D01*
X498898Y277547D02*
Y283453D01*
X404400Y298614D02*
X404400Y290740D01*
X391015D02*
X404400D01*
X391015Y298614D02*
X404400D01*
X391015Y290740D02*
Y298614D01*
X460782Y167780D02*
X460782Y175260D01*
X464404D02*
X464404Y167780D01*
X460782D02*
X464404D01*
X460782Y175260D02*
X464404D01*
X461189Y234850D02*
X464811D01*
X461189Y227370D02*
X464811D01*
Y234850D01*
X461189Y227370D02*
Y234850D01*
X471689Y323260D02*
X475311D01*
X471689Y315779D02*
X475311D01*
Y323260D01*
X471689Y315779D02*
Y323260D01*
X447782Y154169D02*
Y161650D01*
X451404Y154169D02*
Y161650D01*
X447782Y154169D02*
X451404D01*
X447782Y161650D02*
X451404D01*
X448189Y221240D02*
X451811D01*
X448189Y213760D02*
X451811D01*
Y221240D01*
X448189Y213760D02*
Y221240D01*
X458689Y309650D02*
X462311D01*
X458689Y302169D02*
X462311D01*
Y309650D01*
X458689Y302169D02*
Y309650D01*
X457760Y153689D02*
X465240D01*
X457760Y157311D02*
X465240D01*
Y153689D02*
Y157311D01*
X457760Y153689D02*
Y157311D01*
X452689Y209260D02*
X456311D01*
X452689Y216740D02*
X456311D01*
X452689Y209260D02*
Y216740D01*
X456311Y209260D02*
Y216740D01*
X468760Y301098D02*
Y304720D01*
X476240Y301098D02*
Y304720D01*
X468760D02*
X476240D01*
X468760Y301098D02*
X476240D01*
X397353Y165311D02*
X404833D01*
X397353Y161689D02*
X404833D01*
X397353D02*
Y165311D01*
X404833Y161689D02*
Y165311D01*
X405240Y221280D02*
Y224902D01*
X397760Y221280D02*
Y224902D01*
Y221280D02*
X405240D01*
X397760Y224902D02*
X405240D01*
X415740Y309689D02*
Y313311D01*
X408260Y309689D02*
Y313311D01*
Y309689D02*
X415740D01*
X408260Y313311D02*
X415740D01*
X397353Y169311D02*
X404833D01*
X397353Y165689D02*
X404833D01*
X397353D02*
Y169311D01*
X404833Y165689D02*
Y169311D01*
X405240Y225279D02*
Y228902D01*
X397760Y225279D02*
Y228902D01*
Y225279D02*
X405240D01*
X397760Y228902D02*
X405240D01*
X415740Y313689D02*
Y317311D01*
X408260Y313689D02*
Y317311D01*
Y313689D02*
X415740D01*
X408260Y317311D02*
X415740D01*
X395353Y198811D02*
X402833D01*
X395353Y195189D02*
X402833D01*
X395353D02*
Y198811D01*
X402833Y195189D02*
Y198811D01*
X403240Y254780D02*
Y258402D01*
X395760Y254780D02*
Y258402D01*
Y254780D02*
X403240D01*
X395760Y258402D02*
X403240D01*
X413740Y343189D02*
Y346811D01*
X406260Y343189D02*
Y346811D01*
Y343189D02*
X413740D01*
X406260Y346811D02*
X413740D01*
X395353Y202811D02*
X402833D01*
X395353Y199189D02*
X402833D01*
X395353D02*
Y202811D01*
X402833Y199189D02*
Y202811D01*
X403240Y258780D02*
Y262402D01*
X395760Y258780D02*
Y262402D01*
Y258780D02*
X403240D01*
X395760Y262402D02*
X403240D01*
X413740Y347189D02*
Y350811D01*
X406260Y347189D02*
Y350811D01*
Y347189D02*
X413740D01*
X406260Y350811D02*
X413740D01*
X412404Y202760D02*
Y210240D01*
X408782Y202760D02*
Y210240D01*
X412404D01*
X408782Y202760D02*
X412404D01*
X409189Y262350D02*
X412811D01*
X409189Y269831D02*
X412811D01*
X409189Y262350D02*
Y269831D01*
X412811Y262350D02*
Y269831D01*
X419689Y350760D02*
X423311D01*
X419689Y358240D02*
X423311D01*
X419689Y350760D02*
Y358240D01*
X423311Y350760D02*
Y358240D01*
X414853Y180689D02*
X422333D01*
X414853Y184311D02*
X422333D01*
Y180689D02*
Y184311D01*
X414853Y180689D02*
Y184311D01*
X415260Y240280D02*
Y243902D01*
X422740Y240280D02*
Y243902D01*
X415260D02*
X422740D01*
X415260Y240280D02*
X422740D01*
X425760Y328689D02*
Y332311D01*
X433240Y328689D02*
Y332311D01*
X425760D02*
X433240D01*
X425760Y328689D02*
X433240D01*
X462782Y200260D02*
Y207740D01*
X466404Y200260D02*
Y207740D01*
X462782Y200260D02*
X466404D01*
X462782Y207740D02*
X466404D01*
X463189Y267331D02*
X466811D01*
X463189Y259850D02*
X466811D01*
Y267331D01*
X463189Y259850D02*
Y267331D01*
X448782Y186169D02*
Y193650D01*
X452404Y186169D02*
Y193650D01*
X448782Y186169D02*
X452404D01*
X448782Y193650D02*
X452404D01*
X449189Y253240D02*
X452811D01*
X449189Y245760D02*
X452811D01*
Y253240D01*
X449189Y245760D02*
Y253240D01*
X459689Y341650D02*
X463311D01*
X459689Y334169D02*
X463311D01*
Y341650D01*
X459689Y334169D02*
Y341650D01*
X458852Y185189D02*
X466333D01*
X458852Y188811D02*
X466333D01*
Y185189D02*
Y188811D01*
X458852Y185189D02*
Y188811D01*
X459260Y244779D02*
Y248402D01*
X466740Y244779D02*
Y248402D01*
X459260D02*
X466740D01*
X459260Y244779D02*
X466740D01*
X469760Y333189D02*
Y336811D01*
X477240Y333189D02*
Y336811D01*
X469760D02*
X477240D01*
X469760Y333189D02*
X477240D01*
X507689Y196760D02*
X511311D01*
X507689Y204240D02*
X511311Y204240D01*
X511311Y196760D02*
X511311Y204240D01*
X507689Y196760D02*
X507689Y204240D01*
X513760Y378689D02*
X513760Y382311D01*
X521240Y378689D02*
Y382311D01*
X513760Y378689D02*
X521240Y378689D01*
X513760Y382311D02*
X521240Y382311D01*
X509260Y295189D02*
X516740D01*
X509260Y298811D02*
X516740Y298811D01*
Y295189D02*
Y298811D01*
X509260Y298811D02*
X509260Y295189D01*
X518189Y354260D02*
X518189Y361740D01*
X521811Y354260D02*
Y361740D01*
X518189Y361740D02*
X521811Y361740D01*
X518189Y354260D02*
X521811D01*
X512260Y251311D02*
X519740D01*
X512260Y247689D02*
X519740D01*
Y251311D01*
X512260Y247689D02*
Y251311D01*
X316158Y146158D02*
X316158Y158362D01*
X322063Y146158D02*
Y158362D01*
X316158D02*
X322063D01*
X316158Y146158D02*
X322063Y146158D01*
X313508Y168213D02*
X325713D01*
X313508Y162307D02*
X325713Y162307D01*
Y168213D01*
X313508Y162307D02*
Y168213D01*
X360370Y163571D02*
X367850Y163571D01*
X360370Y159949D02*
X367850Y159949D01*
X360370Y163571D02*
X360370Y159949D01*
X367850Y159949D02*
Y163571D01*
X257610Y115992D02*
X271390D01*
X257610Y140008D02*
X271390D01*
Y115992D02*
Y140008D01*
X257610Y115992D02*
Y140008D01*
X230898Y172547D02*
Y178453D01*
X243102Y172547D02*
Y178453D01*
X230898Y172547D02*
X243102D01*
X230898Y178453D02*
X243102D01*
X233547Y156398D02*
X239453D01*
X233547Y168602D02*
X239453D01*
Y156398D02*
Y168602D01*
X233547Y156398D02*
Y168602D01*
X386110Y122992D02*
X399890D01*
X386110Y147008D02*
X399890D01*
Y122992D02*
Y147008D01*
X386110Y122992D02*
Y147008D01*
X285240Y170189D02*
X285240Y173811D01*
X277760Y170189D02*
Y173811D01*
Y170189D02*
X285240D01*
X277760Y173811D02*
X285240Y173811D01*
M02*
