G04*
G04 #@! TF.GenerationSoftware,Altium Limited,Altium Designer,26.2.0 (7)*
G04*
G04 Layer_Color=8388736*
%FSLAX25Y25*%
%MOIN*%
G70*
G04*
G04 #@! TF.SameCoordinates,CFA4B7CB-C87C-44D2-A143-D88584ED512B*
G04*
G04*
G04 #@! TF.FilePolarity,Positive*
G04*
G01*
G75*
%ADD11C,0.00394*%
%ADD15C,0.00787*%
%ADD173C,0.00500*%
%ADD179C,0.00100*%
%ADD180R,0.11496X0.02436*%
G36*
X346725Y226451D02*
X346797Y226437D01*
X346859Y226415D01*
X346917Y226393D01*
X346961Y226371D01*
X346994Y226350D01*
X347016Y226335D01*
X347023Y226331D01*
X347081Y226280D01*
X347129Y226226D01*
X347169Y226164D01*
X347201Y226109D01*
X347227Y226058D01*
X347241Y226015D01*
X347249Y226000D01*
X347252Y225989D01*
X347256Y225982D01*
Y225978D01*
X347292Y226040D01*
X347329Y226095D01*
X347369Y226138D01*
X347405Y226175D01*
X347434Y226204D01*
X347463Y226226D01*
X347478Y226237D01*
X347485Y226240D01*
X347540Y226270D01*
X347591Y226291D01*
X347642Y226309D01*
X347689Y226320D01*
X347729Y226328D01*
X347762Y226331D01*
X347780D01*
X347787D01*
X347849Y226328D01*
X347911Y226317D01*
X347966Y226299D01*
X348017Y226280D01*
X348060Y226262D01*
X348090Y226244D01*
X348111Y226233D01*
X348119Y226229D01*
X348173Y226189D01*
X348224Y226146D01*
X348264Y226098D01*
X348297Y226055D01*
X348323Y226018D01*
X348341Y225986D01*
X348352Y225964D01*
X348355Y225960D01*
Y225956D01*
X348381Y225887D01*
X348399Y225811D01*
X348413Y225734D01*
X348421Y225662D01*
X348428Y225596D01*
Y225567D01*
X348432Y225541D01*
Y224551D01*
X345913D01*
Y225512D01*
X345916Y225600D01*
X345920Y225676D01*
X345927Y225745D01*
X345935Y225804D01*
X345942Y225851D01*
X345946Y225887D01*
X345953Y225909D01*
Y225916D01*
X345971Y225978D01*
X345989Y226029D01*
X346011Y226077D01*
X346033Y226117D01*
X346047Y226149D01*
X346062Y226175D01*
X346073Y226189D01*
X346077Y226193D01*
X346109Y226233D01*
X346149Y226270D01*
X346189Y226299D01*
X346226Y226328D01*
X346262Y226350D01*
X346288Y226364D01*
X346306Y226375D01*
X346313Y226379D01*
X346371Y226404D01*
X346430Y226422D01*
X346484Y226437D01*
X346535Y226444D01*
X346579Y226451D01*
X346615Y226455D01*
X346637D01*
X346641D01*
X346644D01*
X346725Y226451D01*
D02*
G37*
G36*
X348443Y223445D02*
X348381Y223408D01*
X348323Y223368D01*
X348264Y223321D01*
X348213Y223277D01*
X348170Y223234D01*
X348133Y223201D01*
X348122Y223186D01*
X348111Y223176D01*
X348108Y223172D01*
X348104Y223168D01*
X348042Y223092D01*
X347984Y223015D01*
X347933Y222942D01*
X347893Y222870D01*
X347857Y222808D01*
X347842Y222782D01*
X347831Y222761D01*
X347820Y222742D01*
X347816Y222728D01*
X347809Y222721D01*
Y222717D01*
X347511D01*
X347533Y222772D01*
X347558Y222826D01*
X347584Y222881D01*
X347609Y222932D01*
X347631Y222975D01*
X347649Y223012D01*
X347664Y223033D01*
X347667Y223037D01*
Y223041D01*
X347707Y223106D01*
X347747Y223165D01*
X347784Y223216D01*
X347816Y223256D01*
X347842Y223292D01*
X347864Y223314D01*
X347878Y223332D01*
X347882Y223336D01*
X345913D01*
Y223645D01*
X348443D01*
Y223445D01*
D02*
G37*
G36*
X347289Y222164D02*
X347347D01*
X347405Y222160D01*
X347456Y222153D01*
X347507Y222149D01*
X347551Y222145D01*
X347591Y222138D01*
X347627Y222134D01*
X347660Y222127D01*
X347686Y222124D01*
X347707Y222120D01*
X347726Y222116D01*
X347736Y222113D01*
X347744Y222109D01*
X347747D01*
X347827Y222087D01*
X347900Y222062D01*
X347962Y222032D01*
X348017Y222011D01*
X348064Y221985D01*
X348097Y221971D01*
X348115Y221956D01*
X348122Y221952D01*
X348177Y221912D01*
X348224Y221872D01*
X348264Y221829D01*
X348301Y221789D01*
X348326Y221752D01*
X348344Y221723D01*
X348355Y221705D01*
X348359Y221701D01*
Y221698D01*
X348388Y221639D01*
X348406Y221578D01*
X348421Y221519D01*
X348432Y221465D01*
X348439Y221417D01*
X348443Y221377D01*
Y221345D01*
X348435Y221246D01*
X348421Y221155D01*
X348395Y221079D01*
X348370Y221013D01*
X348341Y220959D01*
X348330Y220937D01*
X348315Y220919D01*
X348308Y220904D01*
X348301Y220893D01*
X348293Y220890D01*
Y220886D01*
X348235Y220820D01*
X348166Y220766D01*
X348097Y220719D01*
X348031Y220682D01*
X347969Y220653D01*
X347944Y220638D01*
X347918Y220631D01*
X347900Y220624D01*
X347886Y220617D01*
X347878Y220613D01*
X347875D01*
X347820Y220598D01*
X347765Y220584D01*
X347645Y220562D01*
X347525Y220544D01*
X347412Y220533D01*
X347358Y220529D01*
X347311Y220526D01*
X347267D01*
X347227Y220522D01*
X347198D01*
X347172D01*
X347158D01*
X347154D01*
X347027Y220526D01*
X346906Y220533D01*
X346797Y220544D01*
X346695Y220562D01*
X346601Y220580D01*
X346517Y220602D01*
X346441Y220624D01*
X346375Y220646D01*
X346317Y220668D01*
X346266Y220693D01*
X346222Y220711D01*
X346189Y220729D01*
X346160Y220748D01*
X346142Y220759D01*
X346131Y220766D01*
X346128Y220770D01*
X346084Y220810D01*
X346044Y220853D01*
X346007Y220901D01*
X345978Y220948D01*
X345953Y220995D01*
X345931Y221042D01*
X345916Y221090D01*
X345902Y221133D01*
X345891Y221177D01*
X345884Y221217D01*
X345876Y221254D01*
X345873Y221283D01*
X345869Y221308D01*
Y221345D01*
X345876Y221443D01*
X345891Y221534D01*
X345916Y221610D01*
X345942Y221676D01*
X345967Y221730D01*
X345982Y221749D01*
X345993Y221767D01*
X346000Y221781D01*
X346007Y221792D01*
X346015Y221796D01*
Y221800D01*
X346077Y221865D01*
X346142Y221920D01*
X346215Y221967D01*
X346280Y222003D01*
X346342Y222032D01*
X346368Y222047D01*
X346393Y222054D01*
X346411Y222062D01*
X346426Y222069D01*
X346433Y222073D01*
X346437D01*
X346492Y222091D01*
X346546Y222105D01*
X346663Y222127D01*
X346783Y222145D01*
X346899Y222156D01*
X346950Y222160D01*
X346997Y222164D01*
X347041D01*
X347081Y222167D01*
X347110D01*
X347136D01*
X347150D01*
X347154D01*
X347223D01*
X347289Y222164D01*
D02*
G37*
G36*
X348443Y219528D02*
X348381Y219492D01*
X348323Y219452D01*
X348264Y219404D01*
X348213Y219361D01*
X348170Y219317D01*
X348133Y219284D01*
X348122Y219270D01*
X348111Y219259D01*
X348108Y219255D01*
X348104Y219252D01*
X348042Y219175D01*
X347984Y219099D01*
X347933Y219026D01*
X347893Y218953D01*
X347857Y218891D01*
X347842Y218866D01*
X347831Y218844D01*
X347820Y218826D01*
X347816Y218811D01*
X347809Y218804D01*
Y218800D01*
X347511D01*
X347533Y218855D01*
X347558Y218909D01*
X347584Y218964D01*
X347609Y219015D01*
X347631Y219059D01*
X347649Y219095D01*
X347664Y219117D01*
X347667Y219121D01*
Y219124D01*
X347707Y219190D01*
X347747Y219248D01*
X347784Y219299D01*
X347816Y219339D01*
X347842Y219375D01*
X347864Y219397D01*
X347878Y219415D01*
X347882Y219419D01*
X345913D01*
Y219728D01*
X348443D01*
Y219528D01*
D02*
G37*
G36*
Y217570D02*
X348381Y217533D01*
X348323Y217493D01*
X348264Y217446D01*
X348213Y217402D01*
X348170Y217359D01*
X348133Y217326D01*
X348122Y217312D01*
X348111Y217301D01*
X348108Y217297D01*
X348104Y217293D01*
X348042Y217217D01*
X347984Y217140D01*
X347933Y217068D01*
X347893Y216995D01*
X347857Y216933D01*
X347842Y216907D01*
X347831Y216886D01*
X347820Y216867D01*
X347816Y216853D01*
X347809Y216845D01*
Y216842D01*
X347511D01*
X347533Y216897D01*
X347558Y216951D01*
X347584Y217006D01*
X347609Y217057D01*
X347631Y217100D01*
X347649Y217137D01*
X347664Y217159D01*
X347667Y217162D01*
Y217166D01*
X347707Y217231D01*
X347747Y217290D01*
X347784Y217341D01*
X347816Y217381D01*
X347842Y217417D01*
X347864Y217439D01*
X347878Y217457D01*
X347882Y217461D01*
X345913D01*
Y217770D01*
X348443D01*
Y217570D01*
D02*
G37*
G36*
X346211Y215095D02*
X348432D01*
Y214760D01*
X345913D01*
Y216336D01*
X346211D01*
Y215095D01*
D02*
G37*
G36*
X265821Y235855D02*
Y235490D01*
X263303Y234529D01*
Y234883D01*
X264067Y235156D01*
Y236211D01*
X263303Y236506D01*
Y236885D01*
X265821Y235855D01*
D02*
G37*
G36*
X265832Y233685D02*
X265771Y233649D01*
X265712Y233609D01*
X265654Y233561D01*
X265603Y233518D01*
X265559Y233474D01*
X265523Y233441D01*
X265512Y233427D01*
X265501Y233416D01*
X265497Y233412D01*
X265494Y233408D01*
X265432Y233332D01*
X265374Y233256D01*
X265323Y233183D01*
X265283Y233110D01*
X265246Y233048D01*
X265232Y233023D01*
X265221Y233001D01*
X265210Y232982D01*
X265206Y232968D01*
X265199Y232961D01*
Y232957D01*
X264900D01*
X264922Y233012D01*
X264948Y233066D01*
X264973Y233121D01*
X264999Y233172D01*
X265021Y233215D01*
X265039Y233252D01*
X265053Y233274D01*
X265057Y233277D01*
Y233281D01*
X265097Y233347D01*
X265137Y233405D01*
X265174Y233456D01*
X265206Y233496D01*
X265232Y233532D01*
X265254Y233554D01*
X265268Y233572D01*
X265272Y233576D01*
X263303D01*
Y233885D01*
X265832D01*
Y233685D01*
D02*
G37*
G36*
X264679Y232404D02*
X264737D01*
X264795Y232400D01*
X264846Y232393D01*
X264897Y232389D01*
X264941Y232386D01*
X264981Y232378D01*
X265017Y232375D01*
X265050Y232367D01*
X265075Y232364D01*
X265097Y232360D01*
X265115Y232356D01*
X265126Y232353D01*
X265134Y232349D01*
X265137D01*
X265217Y232327D01*
X265290Y232302D01*
X265352Y232273D01*
X265406Y232251D01*
X265454Y232225D01*
X265487Y232211D01*
X265505Y232196D01*
X265512Y232193D01*
X265567Y232153D01*
X265614Y232113D01*
X265654Y232069D01*
X265690Y232029D01*
X265716Y231992D01*
X265734Y231963D01*
X265745Y231945D01*
X265749Y231942D01*
Y231938D01*
X265778Y231880D01*
X265796Y231818D01*
X265810Y231760D01*
X265821Y231705D01*
X265829Y231658D01*
X265832Y231617D01*
Y231585D01*
X265825Y231487D01*
X265810Y231396D01*
X265785Y231319D01*
X265760Y231254D01*
X265730Y231199D01*
X265720Y231177D01*
X265705Y231159D01*
X265698Y231144D01*
X265690Y231133D01*
X265683Y231130D01*
Y231126D01*
X265625Y231061D01*
X265556Y231006D01*
X265487Y230959D01*
X265421Y230922D01*
X265359Y230893D01*
X265334Y230879D01*
X265308Y230871D01*
X265290Y230864D01*
X265275Y230857D01*
X265268Y230853D01*
X265265D01*
X265210Y230839D01*
X265155Y230824D01*
X265035Y230802D01*
X264915Y230784D01*
X264802Y230773D01*
X264748Y230769D01*
X264700Y230766D01*
X264657D01*
X264617Y230762D01*
X264587D01*
X264562D01*
X264547D01*
X264544D01*
X264416Y230766D01*
X264296Y230773D01*
X264187Y230784D01*
X264085Y230802D01*
X263990Y230820D01*
X263907Y230842D01*
X263830Y230864D01*
X263765Y230886D01*
X263707Y230908D01*
X263656Y230933D01*
X263612Y230951D01*
X263579Y230970D01*
X263550Y230988D01*
X263532Y230999D01*
X263521Y231006D01*
X263517Y231010D01*
X263474Y231050D01*
X263434Y231093D01*
X263397Y231141D01*
X263368Y231188D01*
X263343Y231235D01*
X263321Y231283D01*
X263306Y231330D01*
X263292Y231374D01*
X263281Y231417D01*
X263273Y231457D01*
X263266Y231494D01*
X263263Y231523D01*
X263259Y231548D01*
Y231585D01*
X263266Y231683D01*
X263281Y231774D01*
X263306Y231851D01*
X263332Y231916D01*
X263357Y231971D01*
X263372Y231989D01*
X263383Y232007D01*
X263390Y232022D01*
X263397Y232032D01*
X263404Y232036D01*
Y232040D01*
X263466Y232105D01*
X263532Y232160D01*
X263605Y232207D01*
X263670Y232244D01*
X263732Y232273D01*
X263758Y232287D01*
X263783Y232295D01*
X263801Y232302D01*
X263816Y232309D01*
X263823Y232313D01*
X263827D01*
X263881Y232331D01*
X263936Y232346D01*
X264052Y232367D01*
X264173Y232386D01*
X264289Y232397D01*
X264340Y232400D01*
X264387Y232404D01*
X264431D01*
X264471Y232407D01*
X264500D01*
X264526D01*
X264540D01*
X264544D01*
X264613D01*
X264679Y232404D01*
D02*
G37*
G36*
X265832Y229768D02*
X265771Y229732D01*
X265712Y229692D01*
X265654Y229645D01*
X265603Y229601D01*
X265559Y229557D01*
X265523Y229524D01*
X265512Y229510D01*
X265501Y229499D01*
X265497Y229495D01*
X265494Y229492D01*
X265432Y229415D01*
X265374Y229339D01*
X265323Y229266D01*
X265283Y229193D01*
X265246Y229131D01*
X265232Y229106D01*
X265221Y229084D01*
X265210Y229066D01*
X265206Y229051D01*
X265199Y229044D01*
Y229040D01*
X264900D01*
X264922Y229095D01*
X264948Y229150D01*
X264973Y229204D01*
X264999Y229255D01*
X265021Y229299D01*
X265039Y229335D01*
X265053Y229357D01*
X265057Y229361D01*
Y229364D01*
X265097Y229430D01*
X265137Y229488D01*
X265174Y229539D01*
X265206Y229579D01*
X265232Y229615D01*
X265254Y229637D01*
X265268Y229656D01*
X265272Y229659D01*
X263303D01*
Y229969D01*
X265832D01*
Y229768D01*
D02*
G37*
G36*
Y227810D02*
X265771Y227774D01*
X265712Y227734D01*
X265654Y227686D01*
X265603Y227643D01*
X265559Y227599D01*
X265523Y227566D01*
X265512Y227552D01*
X265501Y227541D01*
X265497Y227537D01*
X265494Y227533D01*
X265432Y227457D01*
X265374Y227381D01*
X265323Y227308D01*
X265283Y227235D01*
X265246Y227173D01*
X265232Y227148D01*
X265221Y227126D01*
X265210Y227108D01*
X265206Y227093D01*
X265199Y227086D01*
Y227082D01*
X264900D01*
X264922Y227137D01*
X264948Y227191D01*
X264973Y227246D01*
X264999Y227297D01*
X265021Y227341D01*
X265039Y227377D01*
X265053Y227399D01*
X265057Y227402D01*
Y227406D01*
X265097Y227472D01*
X265137Y227530D01*
X265174Y227581D01*
X265206Y227621D01*
X265232Y227657D01*
X265254Y227679D01*
X265268Y227697D01*
X265272Y227701D01*
X263303D01*
Y228010D01*
X265832D01*
Y227810D01*
D02*
G37*
G36*
X263601Y225335D02*
X265821D01*
Y225000D01*
X263303D01*
Y226576D01*
X263601D01*
Y225335D01*
D02*
G37*
%LPC*%
G36*
X347769Y226004D02*
X347755D01*
X347747D01*
X347700Y226000D01*
X347656Y225993D01*
X347620Y225982D01*
X347591Y225971D01*
X347565Y225960D01*
X347544Y225949D01*
X347533Y225942D01*
X347529Y225938D01*
X347500Y225913D01*
X347471Y225880D01*
X347449Y225847D01*
X347434Y225818D01*
X347420Y225789D01*
X347409Y225767D01*
X347405Y225753D01*
X347401Y225745D01*
X347394Y225705D01*
X347387Y225654D01*
X347383Y225603D01*
X347380Y225552D01*
X347376Y225505D01*
Y224886D01*
X348133D01*
Y225483D01*
X348126Y225563D01*
X348122Y225625D01*
X348115Y225680D01*
X348108Y225720D01*
X348104Y225745D01*
X348097Y225764D01*
Y225767D01*
X348082Y225807D01*
X348060Y225844D01*
X348039Y225873D01*
X348017Y225898D01*
X347998Y225916D01*
X347980Y225931D01*
X347969Y225938D01*
X347966Y225942D01*
X347929Y225964D01*
X347893Y225978D01*
X347857Y225989D01*
X347820Y225996D01*
X347791Y226000D01*
X347769Y226004D01*
D02*
G37*
G36*
X346666Y226113D02*
X346652D01*
X346644D01*
X346601Y226109D01*
X346557Y226106D01*
X346521Y226098D01*
X346492Y226087D01*
X346466Y226077D01*
X346444Y226069D01*
X346433Y226066D01*
X346430Y226062D01*
X346397Y226040D01*
X346368Y226022D01*
X346346Y225996D01*
X346324Y225978D01*
X346309Y225960D01*
X346299Y225945D01*
X346291Y225935D01*
X346288Y225931D01*
X346259Y225869D01*
X346237Y225807D01*
X346230Y225782D01*
X346226Y225760D01*
X346222Y225745D01*
Y225742D01*
X346219Y225713D01*
X346215Y225680D01*
X346211Y225603D01*
Y224886D01*
X347078D01*
Y225549D01*
X347070Y225625D01*
X347063Y225687D01*
X347056Y225738D01*
X347048Y225778D01*
X347041Y225811D01*
X347038Y225825D01*
X347034Y225833D01*
X347016Y225880D01*
X346994Y225920D01*
X346968Y225956D01*
X346943Y225986D01*
X346921Y226007D01*
X346903Y226022D01*
X346888Y226033D01*
X346885Y226037D01*
X346845Y226062D01*
X346805Y226080D01*
X346765Y226095D01*
X346728Y226102D01*
X346695Y226109D01*
X346666Y226113D01*
D02*
G37*
G36*
X347212Y221850D02*
X347180D01*
X347161D01*
X347158D01*
X347154D01*
X347041D01*
X346939Y221843D01*
X346848Y221836D01*
X346761Y221829D01*
X346688Y221818D01*
X346619Y221803D01*
X346561Y221789D01*
X346506Y221778D01*
X346462Y221763D01*
X346426Y221749D01*
X346393Y221738D01*
X346368Y221723D01*
X346350Y221716D01*
X346339Y221709D01*
X346331Y221701D01*
X346328D01*
X346291Y221672D01*
X346262Y221643D01*
X346233Y221614D01*
X346211Y221585D01*
X346175Y221523D01*
X346149Y221468D01*
X346135Y221417D01*
X346128Y221381D01*
X346124Y221366D01*
Y221345D01*
X346128Y221304D01*
X346131Y221268D01*
X346157Y221199D01*
X346189Y221137D01*
X346226Y221082D01*
X346262Y221042D01*
X346295Y221010D01*
X346321Y220991D01*
X346324Y220984D01*
X346328D01*
X346371Y220959D01*
X346422Y220937D01*
X346481Y220915D01*
X346543Y220901D01*
X346608Y220886D01*
X346677Y220875D01*
X346819Y220857D01*
X346885Y220849D01*
X346947Y220846D01*
X347005Y220842D01*
X347052D01*
X347096Y220839D01*
X347129D01*
X347147D01*
X347154D01*
X347267Y220842D01*
X347369Y220846D01*
X347463Y220853D01*
X347551Y220864D01*
X347627Y220875D01*
X347696Y220890D01*
X347758Y220904D01*
X347813Y220919D01*
X347860Y220933D01*
X347900Y220944D01*
X347933Y220959D01*
X347962Y220970D01*
X347980Y220981D01*
X347995Y220988D01*
X348002Y220995D01*
X348006D01*
X348039Y221021D01*
X348068Y221046D01*
X348090Y221075D01*
X348111Y221104D01*
X348144Y221163D01*
X348166Y221217D01*
X348177Y221265D01*
X348184Y221304D01*
X348188Y221319D01*
Y221341D01*
X348184Y221381D01*
X348181Y221421D01*
X348170Y221457D01*
X348155Y221490D01*
X348122Y221552D01*
X348086Y221607D01*
X348046Y221647D01*
X348013Y221679D01*
X347998Y221690D01*
X347988Y221698D01*
X347984Y221705D01*
X347980D01*
X347937Y221730D01*
X347886Y221752D01*
X347827Y221774D01*
X347765Y221789D01*
X347700Y221803D01*
X347631Y221814D01*
X347493Y221832D01*
X347423Y221840D01*
X347361Y221843D01*
X347303Y221847D01*
X347256D01*
X347212Y221850D01*
D02*
G37*
G36*
X264340Y236106D02*
Y235254D01*
X265075Y235527D01*
X265166Y235560D01*
X265254Y235585D01*
X265334Y235611D01*
X265406Y235629D01*
X265468Y235643D01*
X265494Y235651D01*
X265519Y235654D01*
X265534Y235662D01*
X265548D01*
X265556Y235665D01*
X265559D01*
X265476Y235691D01*
X265388Y235720D01*
X265301Y235749D01*
X265217Y235778D01*
X265181Y235793D01*
X265144Y235804D01*
X265112Y235814D01*
X265086Y235825D01*
X265064Y235833D01*
X265046Y235840D01*
X265035Y235844D01*
X265032D01*
X264340Y236106D01*
D02*
G37*
G36*
X264602Y232091D02*
X264569D01*
X264551D01*
X264547D01*
X264544D01*
X264431D01*
X264329Y232083D01*
X264238Y232076D01*
X264151Y232069D01*
X264078Y232058D01*
X264009Y232043D01*
X263950Y232029D01*
X263896Y232018D01*
X263852Y232003D01*
X263816Y231989D01*
X263783Y231978D01*
X263758Y231963D01*
X263739Y231956D01*
X263728Y231949D01*
X263721Y231942D01*
X263718D01*
X263681Y231912D01*
X263652Y231883D01*
X263623Y231854D01*
X263601Y231825D01*
X263565Y231763D01*
X263539Y231709D01*
X263525Y231658D01*
X263517Y231621D01*
X263514Y231607D01*
Y231585D01*
X263517Y231545D01*
X263521Y231508D01*
X263546Y231439D01*
X263579Y231377D01*
X263616Y231323D01*
X263652Y231283D01*
X263685Y231250D01*
X263710Y231232D01*
X263714Y231224D01*
X263718D01*
X263761Y231199D01*
X263812Y231177D01*
X263870Y231155D01*
X263932Y231141D01*
X263998Y231126D01*
X264067Y231115D01*
X264209Y231097D01*
X264274Y231090D01*
X264336Y231086D01*
X264395Y231082D01*
X264442D01*
X264486Y231079D01*
X264518D01*
X264536D01*
X264544D01*
X264657Y231082D01*
X264759Y231086D01*
X264853Y231093D01*
X264941Y231104D01*
X265017Y231115D01*
X265086Y231130D01*
X265148Y231144D01*
X265203Y231159D01*
X265250Y231173D01*
X265290Y231184D01*
X265323Y231199D01*
X265352Y231210D01*
X265370Y231221D01*
X265385Y231228D01*
X265392Y231235D01*
X265396D01*
X265428Y231261D01*
X265457Y231286D01*
X265479Y231315D01*
X265501Y231345D01*
X265534Y231403D01*
X265556Y231457D01*
X265567Y231505D01*
X265574Y231545D01*
X265578Y231559D01*
Y231581D01*
X265574Y231621D01*
X265570Y231661D01*
X265559Y231698D01*
X265545Y231730D01*
X265512Y231792D01*
X265476Y231847D01*
X265436Y231887D01*
X265403Y231920D01*
X265388Y231931D01*
X265377Y231938D01*
X265374Y231945D01*
X265370D01*
X265326Y231971D01*
X265275Y231992D01*
X265217Y232014D01*
X265155Y232029D01*
X265090Y232043D01*
X265021Y232054D01*
X264882Y232072D01*
X264813Y232080D01*
X264751Y232083D01*
X264693Y232087D01*
X264646D01*
X264602Y232091D01*
D02*
G37*
%LPD*%
D11*
X332614Y176012D02*
G03*
X332614Y176012I-1969J0D01*
G01*
X250004Y186252D02*
G03*
X250004Y186252I-1969J0D01*
G01*
X497201Y287906D02*
G03*
X497201Y287906I-1969J0D01*
G01*
X500783Y372560D02*
Y397048D01*
X474208Y372560D02*
Y397048D01*
Y372560D02*
X500783Y372560D01*
X474208Y397048D02*
X500783D01*
X327102Y179555D02*
X351118D01*
X327102Y155539D02*
X351118D01*
X327102D02*
Y179555D01*
X351118Y155539D02*
Y179555D01*
X244492Y189795D02*
X268508D01*
X244492Y165779D02*
X268508D01*
X244492D02*
Y189795D01*
X268508Y165779D02*
Y189795D01*
X206433Y366118D02*
X235567D01*
X200331Y372220D02*
X206433Y366118D01*
X200331Y372220D02*
Y405882D01*
X241669D01*
Y372220D02*
Y405882D01*
X235567Y366118D02*
X241669Y372220D01*
X456369Y217727D02*
Y226192D01*
X461880Y217727D02*
Y226192D01*
X456369Y217727D02*
X461880D01*
X456369Y226192D02*
X461880D01*
X413933Y365618D02*
X443067D01*
X407831Y371721D02*
X413933Y365618D01*
X407831Y371721D02*
Y405382D01*
X449169D01*
Y371721D02*
Y405382D01*
X443067Y365618D02*
X449169Y371721D01*
X492571Y242311D02*
X517059D01*
X492571Y215736D02*
X517059D01*
Y242311D01*
X492571Y215736D02*
Y242311D01*
X503071Y330720D02*
X527559D01*
X503071Y304146D02*
X527559D01*
Y330720D01*
X503071Y304146D02*
Y330720D01*
X402903Y490457D02*
X402903Y482190D01*
X402903Y490457D02*
X411171Y490457D01*
X402903Y482190D02*
X411171D01*
Y490457D01*
X409346Y475807D02*
X409346Y472263D01*
X402654Y472263D02*
Y475807D01*
X409346D01*
X402654Y472263D02*
X409346Y472263D01*
X393702Y463846D02*
X397246D01*
X393702Y457154D02*
X397246D01*
X393702D02*
X393702Y463846D01*
X397246Y457154D02*
Y463846D01*
X239171Y482044D02*
X239171Y490312D01*
X230903Y482044D02*
X239171D01*
X230903Y490312D02*
X239171D01*
X230903Y482044D02*
Y490312D01*
X230654Y472118D02*
X237347Y472118D01*
X230654Y475661D02*
X237347Y475661D01*
X230654Y475661D02*
X230654Y472118D01*
X237347Y472118D02*
Y475661D01*
X225246Y457008D02*
Y463701D01*
X221702Y457008D02*
Y463701D01*
Y457008D02*
X225246D01*
X221702Y463701D02*
X225246Y463701D01*
X323067Y361618D02*
X329169Y367721D01*
Y401382D01*
X287831D02*
X329169D01*
X287831Y367721D02*
Y401382D01*
Y367721D02*
X293933Y361618D01*
X323067D01*
X505708Y397048D02*
X532283D01*
X505708Y372560D02*
X532283D01*
X505708D02*
Y397048D01*
X532283Y372560D02*
Y397048D01*
X503071Y362221D02*
X527559D01*
X503071Y335646D02*
X527559D01*
Y362221D01*
X503071Y335646D02*
Y362221D01*
X492571Y273811D02*
X517059D01*
X492571Y247236D02*
X517059D01*
Y273811D01*
X492571Y247236D02*
Y273811D01*
X492164Y187646D02*
Y214220D01*
X516652Y187646D02*
Y214220D01*
X492164Y187646D02*
X516652D01*
X492164Y214220D02*
X516652D01*
X492164Y156146D02*
Y182720D01*
X516652Y156146D02*
Y182720D01*
X492164Y156146D02*
X516652D01*
X492164Y182720D02*
X516652D01*
X372610Y350917D02*
X381272D01*
X372610Y345602D02*
X381272D01*
X372610D02*
Y350917D01*
X381272D02*
X381272Y345602D01*
X360543Y352488D02*
X360543Y361150D01*
X365858Y352488D02*
Y361150D01*
X360543Y352488D02*
X365858D01*
X360543Y361150D02*
X365858D01*
X372610Y364917D02*
X381272D01*
X372610Y359602D02*
X381272D01*
X372610D02*
Y364917D01*
X381272Y359602D02*
X381272Y364917D01*
X360784Y340929D02*
Y349590D01*
X366098Y340929D02*
Y349590D01*
X360784Y340929D02*
X366098D01*
X360784Y349590D02*
X366098D01*
X373110Y329917D02*
X381772D01*
X373110Y324602D02*
X381772D01*
X373110D02*
Y329917D01*
X381772Y324602D02*
Y329917D01*
X360769Y329630D02*
Y338292D01*
X366084Y329630D02*
Y338292D01*
X360769Y329630D02*
X366084D01*
X360769Y338292D02*
X366084D01*
X258269Y333130D02*
Y341792D01*
X263584Y333130D02*
Y341792D01*
X258269Y333130D02*
X263584D01*
X258269Y341792D02*
X263584D01*
X270610Y333417D02*
X279272D01*
X270610Y328102D02*
X279272D01*
X270610D02*
Y333417D01*
X279272Y328102D02*
Y333417D01*
X258283Y344429D02*
Y353091D01*
X263598Y344429D02*
Y353091D01*
X258283Y344429D02*
X263598D01*
X258283Y353091D02*
X263598D01*
X270110Y354417D02*
X278772D01*
X270110Y349102D02*
X278772D01*
X270110D02*
Y354417D01*
X278772D02*
X278772Y349102D01*
X270110Y368417D02*
X278772D01*
X270110Y363102D02*
X278772D01*
X270110D02*
Y368417D01*
X278772Y363102D02*
X278772Y368417D01*
X258043Y355988D02*
Y364650D01*
X263358Y355988D02*
Y364650D01*
X258043Y355988D02*
X263358Y355988D01*
X258043Y364650D02*
X263358Y364650D01*
X317403Y490532D02*
X317403Y482265D01*
X317403Y490532D02*
X325671D01*
X317403Y482265D02*
X325671D01*
Y490532D01*
X317154Y472339D02*
X323847D01*
X317154Y475882D02*
X323847Y475882D01*
X317154Y472339D02*
X317154Y475882D01*
X323847Y472339D02*
Y475882D01*
X311746Y463922D02*
X311746Y457229D01*
X308202D02*
X308202Y463922D01*
X308202Y457229D02*
X311746D01*
X308202Y463922D02*
X311746D01*
X353976Y148201D02*
X353976Y153516D01*
X362244Y148201D02*
X362244Y153516D01*
X353976Y148201D02*
X362244D01*
X353976Y153516D02*
X362244D01*
X328728Y145153D02*
X332272Y145153D01*
X328728Y151846D02*
X332272Y151847D01*
X332272Y145153D01*
X328728Y145153D02*
Y151846D01*
X314476Y175701D02*
X314476Y181016D01*
X322744D02*
X322744Y175701D01*
X314476D02*
X322744D01*
X314476Y181016D02*
X322744D01*
X316264Y169488D02*
Y173031D01*
X322957Y169488D02*
Y173031D01*
X316264Y169488D02*
X322957D01*
X316264Y173031D02*
X322957Y173031D01*
X302795Y269630D02*
X327205D01*
X302795Y248370D02*
X327205D01*
Y269630D01*
X302795Y248370D02*
Y269630D01*
X200295Y259870D02*
X200295Y281130D01*
X224705Y259870D02*
Y281130D01*
X200295Y259870D02*
X224705D01*
X200295Y281130D02*
X224705D01*
X200295Y257630D02*
X224705D01*
X200295Y236370D02*
X224705D01*
Y257630D01*
X200295Y236370D02*
Y257630D01*
X271366Y163756D02*
X279634D01*
X271366Y158441D02*
X279634D01*
X279634Y163756D02*
X279634Y158441D01*
X271366Y163756D02*
X271366Y158441D01*
X245654Y163272D02*
X252346Y163272D01*
X245654Y159728D02*
X252346D01*
Y163272D01*
X245654Y163272D02*
X245654Y159728D01*
X231866Y191256D02*
X240134D01*
X231866Y185941D02*
X240134D01*
Y191256D01*
X231866Y185941D02*
Y191256D01*
X233653Y183272D02*
X240347D01*
X233653Y179728D02*
X240346D01*
X240347Y183272D01*
X233653D02*
X233653Y179728D01*
X304102Y127252D02*
X316898D01*
X304102Y133748D02*
X316898D01*
X304102Y127252D02*
Y133748D01*
X316898Y127252D02*
Y133748D01*
X304102Y118752D02*
X316898D01*
X304102Y125248D02*
X316898D01*
X304102Y118752D02*
Y125248D01*
X316898Y118752D02*
Y125248D01*
X304102Y110252D02*
X316898D01*
X304102Y116748D02*
X316898D01*
X304102Y110252D02*
Y116748D01*
X316898Y110252D02*
Y116748D01*
X476199Y433251D02*
X484664Y433251D01*
X476199Y427739D02*
X484664Y427739D01*
X476199Y427739D02*
X476199Y433251D01*
X484664Y427739D02*
Y433251D01*
X490137Y478568D02*
Y494710D01*
X509862D01*
X490137Y478568D02*
X509862D01*
Y494710D01*
X508389Y432206D02*
X516854Y432206D01*
X508389Y426694D02*
X516854Y426694D01*
X508389Y426694D02*
Y432206D01*
X516854Y426694D02*
Y432206D01*
X494724Y415013D02*
X501220D01*
X494724Y427808D02*
X501220D01*
Y415013D02*
Y427808D01*
X494724Y415013D02*
Y427808D01*
X477126Y418348D02*
X477126Y421891D01*
X483818D02*
X483818Y418348D01*
X477126D02*
X483818D01*
X477126Y421891D02*
X483818D01*
X474700Y451466D02*
X478244D01*
X474700Y444773D02*
X478244D01*
X474700D02*
X474700Y451466D01*
X478244D02*
X478244Y444773D01*
X513669Y475277D02*
X521937D01*
X513669Y469962D02*
X521937D01*
Y475277D01*
X513669Y469962D02*
Y475277D01*
X527315Y414722D02*
X533811D01*
X527315Y427517D02*
X533811D01*
Y414722D02*
Y427517D01*
X527315Y414722D02*
Y427517D01*
X509216Y417348D02*
Y420891D01*
X515909Y417348D02*
Y420891D01*
X509216Y417348D02*
X515909D01*
X509216Y420891D02*
X515909D01*
X506700Y450466D02*
X510244D01*
X506700Y443773D02*
X510244D01*
X506700D02*
X506700Y450466D01*
X510244Y443773D02*
Y450466D01*
X480641Y446462D02*
Y451777D01*
X489303Y446462D02*
Y451777D01*
X480641D02*
X489303D01*
X480641Y446462D02*
X489303D01*
X512732Y445462D02*
X512732Y450777D01*
X521393Y445462D02*
Y450777D01*
X512732D02*
X521393D01*
X512732Y445462D02*
X521393D01*
X512732Y458962D02*
Y464277D01*
X521393Y458962D02*
Y464277D01*
X512732D02*
X521393D01*
X512732Y458962D02*
X521393D01*
X480641Y459962D02*
Y465277D01*
X489303Y459962D02*
Y465277D01*
X480641D02*
X489303D01*
X480641Y459962D02*
X489303D01*
X491689Y300504D02*
X503894D01*
X491689Y284362D02*
X503894D01*
Y300504D01*
X491689Y284362D02*
Y300504D01*
X455961Y158137D02*
Y166601D01*
X461473Y158137D02*
Y166601D01*
X455961Y158137D02*
X461473Y158137D01*
X455961Y166601D02*
X461473D01*
X466868Y314601D02*
X472380D01*
X466868Y306137D02*
X472380D01*
Y314601D01*
X466868Y306137D02*
Y314601D01*
X394502Y172075D02*
X410644D01*
X394502D02*
X394502Y191799D01*
X410644Y172075D02*
Y191799D01*
X394502D02*
X410644D01*
X394910Y251390D02*
X411051D01*
Y231665D02*
Y251390D01*
X394910Y231665D02*
Y251390D01*
Y231665D02*
X411051D01*
X405409Y339799D02*
X421551D01*
Y320075D02*
Y339799D01*
X405409Y320075D02*
Y339799D01*
Y320075D02*
X421551D01*
X457006Y190327D02*
Y198791D01*
X462518Y190327D02*
Y198791D01*
X457006Y190327D02*
X462518D01*
X457006Y198791D02*
X462518D01*
X457413Y258382D02*
X462925D01*
X457413Y249917D02*
X462925D01*
Y258382D01*
X457413Y249917D02*
Y258382D01*
X467913Y346791D02*
X473425D01*
X467913Y338327D02*
X473425D01*
Y346791D01*
X467913Y338327D02*
Y346791D01*
X516520Y285563D02*
X516520Y292256D01*
X520063Y285563D02*
X520063Y292256D01*
X516520D02*
X520063D01*
X516520Y285563D02*
X520063Y285563D01*
X473343Y288866D02*
X478657Y288866D01*
X473343Y297134D02*
X478657Y297134D01*
Y288866D02*
Y297134D01*
X473343Y288866D02*
Y297134D01*
X510520Y292256D02*
X510520Y285563D01*
X514063Y285563D02*
Y292256D01*
X510520D02*
X514063D01*
X510520Y285563D02*
X514063Y285563D01*
X481728Y285653D02*
Y292347D01*
X485272Y285654D02*
Y292347D01*
X481728Y292347D02*
X485272Y292347D01*
X481728Y285653D02*
X485272Y285654D01*
X474199Y176661D02*
Y183158D01*
X461404Y176661D02*
Y183158D01*
X474199D01*
X461404Y176661D02*
X474199D01*
X461811Y236252D02*
X474606D01*
X461811Y242748D02*
X474606D01*
X461811Y236252D02*
Y242748D01*
X474606Y236252D02*
Y242748D01*
X472311Y324661D02*
X485106D01*
X472311Y331157D02*
X485106D01*
X472311Y324661D02*
Y331157D01*
X485106Y324661D02*
Y331157D01*
X467321Y159063D02*
X470864D01*
X467321Y165756D02*
X470864D01*
Y159063D02*
Y165756D01*
X467321Y159063D02*
Y165756D01*
X467728Y218653D02*
Y225346D01*
X471272Y218653D02*
Y225346D01*
X467728D02*
X471272D01*
X467728Y218653D02*
X471272D01*
X478228Y307063D02*
Y313756D01*
X481772Y307063D02*
Y313756D01*
X478228D02*
X481772D01*
X478228Y307063D02*
X481772D01*
X437746Y156638D02*
Y160181D01*
X444439Y156638D02*
Y160181D01*
X437746Y156638D02*
X444439D01*
X437746Y160181D02*
X444439D01*
X438154Y219772D02*
X444846D01*
X438154Y216228D02*
X444846D01*
Y219772D01*
X438154Y216228D02*
Y219772D01*
X448654Y308181D02*
X455346D01*
X448654Y304638D02*
X455346D01*
Y308181D01*
X448654Y304638D02*
Y308181D01*
X413935Y195606D02*
Y203874D01*
X419250Y195606D02*
Y203874D01*
X413935D02*
X419250D01*
X413935Y195606D02*
X419250D01*
X414342Y255197D02*
X419658D01*
X414342Y263465D02*
X419658D01*
Y255197D02*
Y263465D01*
X414342Y255197D02*
Y263465D01*
X424843Y343606D02*
X430158D01*
X424843Y351874D02*
X430158D01*
Y343606D02*
Y351874D01*
X424843Y343606D02*
Y351874D01*
X474490Y209252D02*
Y215748D01*
X461695Y209252D02*
Y215748D01*
X474490D01*
X461695Y209252D02*
X474490D01*
X462102Y268843D02*
X474898D01*
X462102Y275339D02*
X474898D01*
X462102Y268843D02*
Y275339D01*
X474898Y268843D02*
Y275339D01*
X472602Y357252D02*
X485398D01*
X472602Y363748D02*
X485398D01*
X472602Y357252D02*
Y363748D01*
X485398Y357252D02*
Y363748D01*
X468321Y191154D02*
X471864D01*
X468321Y197846D02*
X471864D01*
Y191154D02*
Y197846D01*
X468321Y191154D02*
Y197846D01*
X468728Y250744D02*
Y257437D01*
X472272Y250744D02*
Y257437D01*
X468728D02*
X472272D01*
X468728Y250744D02*
X472272D01*
X479228Y339154D02*
Y345847D01*
X482772Y339154D02*
Y345847D01*
X479228D02*
X482772D01*
X479228Y339154D02*
X482772D01*
X438746Y188638D02*
Y192181D01*
X445439Y188638D02*
Y192181D01*
X438746Y188638D02*
X445439D01*
X438746Y192181D02*
X445439D01*
X439153Y251772D02*
X445847D01*
X439153Y248228D02*
X445847D01*
Y251772D01*
X439153Y248228D02*
Y251772D01*
X449653Y340181D02*
X456346D01*
X449653Y336638D02*
X456346D01*
Y340181D01*
X449653Y336638D02*
Y340181D01*
X437435Y162579D02*
X442750D01*
X437435Y171240D02*
X442750D01*
X437435Y162579D02*
Y171240D01*
X442750Y162579D02*
Y171240D01*
X443157Y222169D02*
Y230831D01*
X437843Y222169D02*
Y230831D01*
X443157D01*
X437843Y222169D02*
X443157D01*
X453657Y310579D02*
Y319240D01*
X448343Y310579D02*
Y319240D01*
X453657D01*
X448343Y310579D02*
X453657D01*
X438435Y194669D02*
X443750Y194669D01*
X438435Y203331D02*
X443750D01*
X438435Y194669D02*
Y203331D01*
X443750Y194669D02*
Y203331D01*
X444158Y254260D02*
Y262921D01*
X438842Y254260D02*
Y262921D01*
X444158D01*
X438842Y254260D02*
X444158D01*
X454658Y342669D02*
Y351331D01*
X449342Y342669D02*
Y351331D01*
X454658D01*
X449342Y342669D02*
X454658D01*
X424935Y194669D02*
X430250D01*
X424935Y203331D02*
X430250D01*
X424935Y194669D02*
Y203331D01*
X430250Y194669D02*
Y203331D01*
X430657Y254260D02*
Y262921D01*
X425343Y254260D02*
Y262921D01*
X430657D01*
X425343Y254260D02*
X430657D01*
X441157Y342669D02*
Y351331D01*
X435843Y342669D02*
Y351331D01*
X441157D01*
X435843Y342669D02*
X441157D01*
X423935Y162579D02*
X429250D01*
X423935Y171240D02*
X429250D01*
X423935Y162579D02*
Y171240D01*
X429250Y162579D02*
Y171240D01*
X429658Y222169D02*
Y230831D01*
X424342Y222169D02*
Y230831D01*
X429658D01*
X424342Y222169D02*
X429658D01*
X440158Y310579D02*
Y319240D01*
X434842Y310579D02*
Y319240D01*
X440158D01*
X434842Y310579D02*
X440158D01*
X488866Y277244D02*
X497134D01*
X488866Y282559D02*
X497134D01*
X488866D02*
X488866Y277244D01*
X497134D02*
Y282559D01*
X393574Y281959D02*
X401841D01*
X393574Y287274D02*
X401841D01*
X393574Y281959D02*
Y287274D01*
X401841Y281959D02*
Y287274D01*
X501653Y282272D02*
X508347Y282272D01*
X501653Y278728D02*
X508347D01*
Y282272D01*
X501653Y278728D02*
X501653Y282272D01*
X393574Y292019D02*
X401841D01*
X393574Y297334D02*
X401841D01*
X393574Y292019D02*
Y297334D01*
X401841Y292019D02*
Y297334D01*
X317339Y148913D02*
Y155606D01*
X320882Y148913D02*
X320882Y155606D01*
X317339D02*
X320882D01*
X317339Y148913D02*
X320882D01*
X316264Y167032D02*
X322957D01*
X316264Y163488D02*
X322957D01*
X322957Y167032D02*
X322957Y163488D01*
X316264D02*
X316264Y167032D01*
X258752Y118945D02*
X270248D01*
X258752Y137055D02*
X270248D01*
Y118945D02*
Y137055D01*
X258752Y118945D02*
Y137055D01*
X233653Y173728D02*
Y177272D01*
X240347Y173728D02*
Y177272D01*
X233653Y173728D02*
X240347D01*
X233653Y177272D02*
X240347D01*
X234728Y159153D02*
X238272D01*
X234728Y165847D02*
X238272D01*
Y159153D02*
Y165847D01*
X234728Y159153D02*
Y165847D01*
X387252Y125945D02*
X398748D01*
X387252Y144055D02*
X398748D01*
Y125945D02*
Y144055D01*
X387252Y125945D02*
Y144055D01*
D15*
X405191Y432587D02*
G03*
X405191Y432587I-394J0D01*
G01*
X233190Y432441D02*
G03*
X233190Y432441I-394J0D01*
G01*
X319690Y432662D02*
G03*
X319690Y432662I-394J0D01*
G01*
X380075Y183264D02*
Y246256D01*
X313146D02*
X380075D01*
X313146Y183264D02*
Y246256D01*
Y183264D02*
X380075D01*
X297465Y193504D02*
X297465Y256496D01*
X230535D02*
X297465D01*
X230535Y193504D02*
Y256496D01*
Y193504D02*
X297465Y193504D01*
D173*
X229102Y482587D02*
X229102Y478413D01*
X226898Y478413D02*
X226898Y482587D01*
X226898Y478413D02*
X229102Y478413D01*
X226898Y482587D02*
X229102D01*
X327923Y278251D02*
X332097D01*
X327923Y280455D02*
X332097Y280455D01*
X327923Y280455D02*
X327923Y278251D01*
X332097D02*
X332097Y280455D01*
X547587Y128898D02*
Y131102D01*
X543413Y128898D02*
Y131102D01*
X547587D01*
X543413Y128898D02*
X547587D01*
X506087D02*
Y131102D01*
X501913Y128898D02*
Y131102D01*
X506087D01*
X501913Y128898D02*
X506087D01*
X406551Y497398D02*
X408755Y497398D01*
X406551Y493224D02*
X408755Y493224D01*
X406551Y497398D02*
X406551Y493224D01*
X408755Y497398D02*
X408755Y493224D01*
X398898Y482948D02*
Y487122D01*
X401102Y482948D02*
Y487122D01*
X398898D02*
X401102D01*
X398898Y482948D02*
X401102D01*
X412898Y488122D02*
X412898Y483948D01*
X415102D02*
X415102Y488122D01*
X412898D02*
X415102D01*
X412898Y483948D02*
X415102D01*
X403803Y480423D02*
X407976D01*
X403803Y478218D02*
X407976Y478218D01*
X407976Y480423D02*
X407976Y478218D01*
X403803Y478218D02*
Y480423D01*
X411913Y477933D02*
X411913Y480137D01*
X416087D02*
X416087Y477933D01*
X411913D02*
X416087D01*
X411913Y480137D02*
X416087D01*
X419560Y453898D02*
Y456102D01*
X415387Y456102D02*
X415387Y453898D01*
X415387Y456102D02*
X419560Y456102D01*
X415387Y453898D02*
X419560D01*
X415387Y460398D02*
Y462602D01*
X419560Y460398D02*
Y462602D01*
X415387Y460398D02*
X419560Y460398D01*
X415387Y462602D02*
X419560Y462602D01*
X401387Y467398D02*
X405560Y467398D01*
X401387Y469602D02*
X405560Y469602D01*
X401387Y467398D02*
X401387Y469602D01*
X405560Y467398D02*
Y469602D01*
X398872Y458413D02*
Y462587D01*
X401076Y458413D02*
Y462587D01*
X398872D02*
X401076D01*
X398872Y458413D02*
X401076D01*
X396372Y443413D02*
X398576Y443413D01*
X396372Y447587D02*
X398576Y447587D01*
X398576Y443413D01*
X396372Y447587D02*
X396372Y443413D01*
X402344Y430118D02*
X414155D01*
X414155Y449803D01*
X402344Y449803D02*
X414155Y449803D01*
X402344Y449803D02*
X402344Y430118D01*
X418387Y441398D02*
Y443602D01*
X422561Y441398D02*
X422561Y443602D01*
X418387Y441398D02*
X422561D01*
X418387Y443602D02*
X422561Y443602D01*
X394871Y432413D02*
X394872Y436587D01*
X397076Y432413D02*
X397076Y436587D01*
X394872Y436587D02*
X397076Y436587D01*
X394871Y432413D02*
X397076D01*
X393076Y436587D02*
X393076Y432413D01*
X390872D02*
X390872Y436587D01*
X390872Y432413D02*
X393076D01*
X390872Y436587D02*
X393076D01*
X236755Y497252D02*
X236755Y493079D01*
X234551Y493079D02*
Y497252D01*
Y493079D02*
X236755Y493079D01*
X234551Y497252D02*
X236755D01*
X240898Y483803D02*
X243102D01*
X240898Y487976D02*
X243102D01*
X243102Y483803D02*
X243102Y487976D01*
X240898D02*
X240898Y483803D01*
X231803Y478073D02*
X231803Y480278D01*
X235976Y478073D02*
Y480278D01*
X231803Y478073D02*
X235976Y478073D01*
X231803Y480278D02*
X235976D01*
X239913Y479992D02*
X244087D01*
X239913Y477787D02*
X244087Y477787D01*
X244087Y479992D02*
X244087Y477787D01*
X239913Y477787D02*
X239913Y479992D01*
X233560Y467252D02*
X233560Y469457D01*
X229387Y467252D02*
X229387Y469457D01*
X233560Y469457D01*
X229387Y467252D02*
X233560Y467252D01*
X243387Y462457D02*
X247561Y462457D01*
X243387Y460252D02*
X247561D01*
X247561Y462457D01*
X243387Y460252D02*
Y462457D01*
X243387Y453752D02*
X247561Y453752D01*
X243387Y455957D02*
X247561Y455957D01*
X243387Y455957D02*
X243387Y453752D01*
X247561Y455957D02*
X247561Y453752D01*
X226871Y458268D02*
X229076Y458268D01*
X226871Y462441D02*
X229076Y462441D01*
Y458268D02*
Y462441D01*
X226871Y458268D02*
Y462441D01*
X224372Y443268D02*
Y447441D01*
X226576D02*
X226576Y443268D01*
X224372Y447441D02*
X226576D01*
X224372Y443268D02*
X226576Y443268D01*
X230344Y449658D02*
X230344Y429973D01*
X230344Y449658D02*
X242155Y449658D01*
Y429973D02*
Y449658D01*
X230344Y429973D02*
X242155Y429973D01*
X246387Y443457D02*
X250560Y443457D01*
X246387Y441252D02*
X250560Y441252D01*
X250560Y443457D01*
X246387Y441252D02*
Y443457D01*
X218872Y436441D02*
X221076D01*
X218871Y432268D02*
X221076Y432268D01*
X218871Y432268D02*
X218872Y436441D01*
X221076Y432268D02*
Y436441D01*
X222872Y432268D02*
X225076D01*
X222872Y436441D02*
X225076Y436441D01*
X225076Y432268D02*
X225076Y436441D01*
X222872Y432268D02*
Y436441D01*
X329887Y462678D02*
X334061D01*
X329887Y460473D02*
X334061D01*
X334061Y462678D01*
X329887D02*
X329887Y460473D01*
X329887Y453973D02*
X334061Y453973D01*
X329887Y456178D02*
X334061Y456178D01*
X329887Y453973D02*
X329887Y456178D01*
X334061Y456178D02*
X334061Y453973D01*
X474398Y349913D02*
X476602D01*
X474398Y354087D02*
X476602D01*
Y349913D02*
Y354087D01*
X474398Y349913D02*
Y354087D01*
X372354Y371362D02*
X376528D01*
X372354Y369158D02*
X376528Y369158D01*
Y371362D01*
X372354Y369158D02*
X372354Y371362D01*
X385543Y349173D02*
Y353346D01*
X383339Y349173D02*
X383339Y353346D01*
X383339Y349173D02*
X385543Y349173D01*
X383339Y353346D02*
X385543Y353346D01*
X383339Y361347D02*
X383339Y357173D01*
X385543Y357173D02*
Y361347D01*
X383339Y361347D02*
X385543Y361347D01*
X383339Y357173D02*
X385543Y357173D01*
X354877Y363289D02*
X359050D01*
X354877Y365494D02*
X359050D01*
X354877D02*
X354877Y363289D01*
X359050D02*
Y365494D01*
X374043Y339846D02*
X374043Y335673D01*
X371839D02*
X371839Y339846D01*
X371839Y335673D02*
X374043D01*
X371839Y339846D02*
X374043D01*
X376854Y338657D02*
X381028D01*
X376854Y340862D02*
X381028D01*
X376854Y338657D02*
Y340862D01*
X381028Y338657D02*
Y340862D01*
X376854Y334658D02*
X381028D01*
X376854Y336862D02*
X381028Y336862D01*
X376854Y336862D02*
X376854Y334658D01*
X381028D02*
Y336862D01*
X365854Y325157D02*
X370028D01*
X365854Y327362D02*
X370028D01*
X365854D02*
X365854Y325157D01*
X370028D02*
X370028Y327362D01*
X377814Y317420D02*
X381987D01*
X377814Y319625D02*
X381987D01*
X377814Y317420D02*
Y319625D01*
X381987Y317420D02*
Y319625D01*
X369854Y317657D02*
X374028Y317657D01*
X369854Y319862D02*
X374028D01*
X369854D02*
X369854Y317657D01*
X374028Y319862D02*
X374028Y317657D01*
X351580Y331122D02*
X355753D01*
X351580Y328918D02*
X355753Y328918D01*
X355753Y331122D02*
X355753Y328918D01*
X351580Y328918D02*
Y331122D01*
X351690Y335122D02*
X355863D01*
X351690Y332918D02*
X355863D01*
Y335122D01*
X351690Y332918D02*
Y335122D01*
X351354Y342362D02*
X355528Y342362D01*
X351354Y340158D02*
X355528Y340158D01*
Y342362D01*
X351354Y340158D02*
Y342362D01*
X351354Y346362D02*
X355528Y346362D01*
X351354Y344158D02*
X355528D01*
X355528Y346362D01*
X351354Y344158D02*
Y346362D01*
X351244Y353862D02*
X355417D01*
X351244Y351658D02*
X355417Y351658D01*
Y353862D01*
X351244Y351658D02*
X351244Y353862D01*
X351354Y357862D02*
X355528D01*
X351354Y355658D02*
X355528D01*
Y357862D01*
X351354Y355658D02*
Y357862D01*
X271543Y343347D02*
X271543Y339173D01*
X269339D02*
X269339Y343347D01*
X269339Y339173D02*
X271543D01*
X269339Y343347D02*
X271543D01*
X274354Y342158D02*
X278528D01*
X274354Y344362D02*
X278528D01*
X274354Y342158D02*
Y344362D01*
X278528Y342158D02*
Y344362D01*
X274354Y338158D02*
X278528D01*
X274354Y340362D02*
X278528Y340362D01*
X274354Y340362D02*
X274354Y338158D01*
X278528D02*
Y340362D01*
X263354Y328658D02*
X267528D01*
X263354Y330862D02*
X267528D01*
X263354D02*
X263354Y328658D01*
X267528D02*
X267528Y330862D01*
X275314Y320920D02*
X279487D01*
X275314Y323125D02*
X279487D01*
X275314Y320920D02*
Y323125D01*
X279487Y320920D02*
Y323125D01*
X267354Y321158D02*
X271528Y321158D01*
X267354Y323362D02*
X271528D01*
X267354D02*
X267354Y321158D01*
X271528Y323362D02*
X271528Y321158D01*
X283043Y352673D02*
Y356846D01*
X280839Y352673D02*
X280839Y356846D01*
X280839Y352673D02*
X283043Y352673D01*
X280839Y356846D02*
X283043Y356846D01*
X280839Y364846D02*
X280839Y360673D01*
X283043Y360673D02*
Y364846D01*
X280839Y364846D02*
X283043Y364846D01*
X280839Y360673D02*
X283043Y360673D01*
X269854Y374862D02*
X274028D01*
X269854Y372657D02*
X274028Y372657D01*
Y374862D01*
X269854Y372657D02*
X269854Y374862D01*
X252377Y366789D02*
X256550D01*
X252377Y368994D02*
X256550D01*
X252377D02*
X252377Y366789D01*
X256550D02*
Y368994D01*
X248854Y361362D02*
X253028D01*
X248854Y359157D02*
X253028D01*
Y361362D01*
X248854Y359157D02*
Y361362D01*
X248744Y357362D02*
X252917Y357362D01*
X248744Y355157D02*
X252917D01*
X252917Y357362D01*
X248744Y355157D02*
Y357362D01*
X248854Y349862D02*
X253028Y349862D01*
X248854Y347657D02*
X253028D01*
X253028Y349862D01*
X248854Y347657D02*
Y349862D01*
X248854Y345862D02*
X253028Y345862D01*
X248854Y343657D02*
X253028Y343657D01*
Y345862D01*
X248854Y343657D02*
Y345862D01*
X249190Y338622D02*
X253363D01*
X249190Y336418D02*
X253363D01*
Y338622D01*
X249190Y336418D02*
Y338622D01*
X249080Y334622D02*
X253253D01*
X249080Y332418D02*
X253253Y332418D01*
X253253Y334622D02*
X253253Y332418D01*
X249080Y332418D02*
Y334622D01*
X563898Y405024D02*
Y409197D01*
X566102Y405024D02*
Y409197D01*
X563898D02*
X566102D01*
X563898Y405024D02*
X566102D01*
X563898Y456024D02*
Y460197D01*
X566102Y456024D02*
Y460197D01*
X563898D02*
X566102D01*
X563898Y456024D02*
X566102D01*
Y428913D02*
Y433087D01*
X563898Y428913D02*
Y433087D01*
Y428913D02*
X566102D01*
X563898Y433087D02*
X566102D01*
X318303Y478293D02*
Y480498D01*
X322476Y480498D02*
X322476Y478293D01*
X318303D02*
X322476D01*
X318303Y480498D02*
X322476Y480498D01*
X326413Y480213D02*
X330587D01*
X326413Y478008D02*
X330587D01*
Y480213D01*
X326413Y478008D02*
Y480213D01*
X323255Y493299D02*
Y497473D01*
X321051Y493299D02*
Y497473D01*
Y493299D02*
X323255Y493299D01*
X321051Y497473D02*
X323255Y497473D01*
X327398Y484024D02*
X329602D01*
X327398Y488197D02*
X329602D01*
X329602Y484024D02*
X329602Y488197D01*
X327398D02*
X327398Y484024D01*
X313398Y483024D02*
X315602D01*
X313398Y487197D02*
X315602D01*
Y483024D02*
Y487197D01*
X313398Y483024D02*
Y487197D01*
X320060Y467473D02*
Y469678D01*
X315887Y467473D02*
X315887Y469678D01*
X320060Y469678D01*
X315887Y467473D02*
X320060D01*
X313372Y458489D02*
X315576Y458489D01*
X313372Y462662D02*
X315576Y462662D01*
Y458489D02*
Y462662D01*
X313372Y458489D02*
Y462662D01*
X310872Y443489D02*
X310872Y447662D01*
X313076Y443489D02*
X313076Y447662D01*
X310872Y447662D02*
X313076Y447662D01*
X310872Y443489D02*
X313076Y443489D01*
X305371Y436662D02*
X307576D01*
X305372Y432489D02*
X307576Y432489D01*
X305371Y436662D02*
X305372Y432489D01*
X307576Y432489D02*
Y436662D01*
X309371Y432489D02*
X311576Y432489D01*
X309371Y436662D02*
X311576Y436662D01*
Y432489D02*
Y436662D01*
X309371Y432489D02*
Y436662D01*
X316844Y430193D02*
X316844Y449878D01*
X328655D01*
Y430193D02*
Y449878D01*
X316844Y430193D02*
X328655D01*
X332887Y443678D02*
X337060Y443678D01*
X332887Y441473D02*
X337060Y441473D01*
X337060Y443678D01*
X332887Y443678D02*
X332887Y441473D01*
X357008Y165846D02*
X359213Y165847D01*
X357008Y161673D02*
X359213Y161673D01*
X357008Y161673D02*
X357008Y165846D01*
X359213Y161673D02*
X359213Y165847D01*
X353008Y160846D02*
X353008Y156673D01*
X355213D02*
X355213Y160846D01*
X353008D02*
X355213D01*
X353008Y156673D02*
X355213D01*
X362197Y158862D02*
X362197Y156658D01*
X358024D02*
X358024Y158862D01*
X362197D01*
X358024Y156658D02*
X362197D01*
X348508Y151847D02*
X348508Y147673D01*
X350713D02*
Y151846D01*
X348508Y151847D02*
X350713Y151846D01*
X348508Y147673D02*
X350713D01*
X344524Y144862D02*
X344524Y142657D01*
X348697D02*
Y144862D01*
X344524Y142657D02*
X348697D01*
X344524Y144862D02*
X348697Y144862D01*
X344508Y147673D02*
X346713Y147673D01*
X344508Y151847D02*
X346713Y151847D01*
X346713Y147673D02*
X346713Y151847D01*
X344508Y147673D02*
X344508Y151847D01*
X334398Y146413D02*
Y150587D01*
X336602Y146413D02*
Y150587D01*
X334398D02*
X336602D01*
X334398Y146413D02*
X336602D01*
X323008Y152173D02*
X325213Y152173D01*
X323008Y156346D02*
X325213D01*
X325213Y152173D01*
X323008Y152173D02*
Y156346D01*
X324197Y159158D02*
Y161362D01*
X320024Y159158D02*
X320024Y161362D01*
X324197D01*
X320024Y159158D02*
X324197Y159158D01*
X327841Y276584D02*
X332014D01*
X327841Y274379D02*
X332014D01*
X332014Y276584D01*
X327841D02*
X327841Y274379D01*
X236181Y284375D02*
Y286580D01*
X232008Y284375D02*
X232008Y286580D01*
X236181Y286580D01*
X232008Y284375D02*
X236181Y284375D01*
X232008Y282580D02*
X236181D01*
X232008Y280375D02*
X236181Y280375D01*
Y282580D01*
X232008D02*
X232008Y280375D01*
X275413Y166898D02*
X279587D01*
X275413Y169102D02*
X279587D01*
X275413Y166898D02*
Y169102D01*
X279587Y166898D02*
Y169102D01*
X265898Y157913D02*
X268102D01*
X265898Y162087D02*
X268102D01*
X268102Y157913D01*
X265898D02*
X265898Y162087D01*
X261898Y162087D02*
X261898Y157913D01*
X264102D02*
Y162087D01*
X261898Y162087D02*
X264102Y162087D01*
X261898Y157913D02*
X264102D01*
X261913Y155102D02*
X266087D01*
X261913Y152898D02*
X266087D01*
X266087Y155102D02*
X266087Y152898D01*
X261913D02*
X261913Y155102D01*
X246913Y155898D02*
Y158102D01*
X251087Y155898D02*
Y158102D01*
X246913Y155898D02*
X251087D01*
X246913Y158102D02*
X251087D01*
X270398Y166913D02*
X272602Y166913D01*
X270398Y171087D02*
X272602D01*
X272602Y166913D01*
X270398Y166913D02*
Y171087D01*
X276602Y171913D02*
Y176087D01*
X274398Y176087D02*
X274398Y171913D01*
X276602D01*
X274398Y176087D02*
X276602Y176087D01*
X237413Y169398D02*
X241587D01*
X237413Y171602D02*
X241587Y171602D01*
X237413Y171602D02*
X237413Y169398D01*
X241587D02*
Y171602D01*
X240398Y162413D02*
Y166587D01*
X242602Y162413D02*
X242602Y166587D01*
X240398Y166587D02*
X242602Y166587D01*
X240398Y162413D02*
X242602D01*
X497385Y443017D02*
Y445222D01*
X501558Y443017D02*
Y445222D01*
X497385Y443017D02*
X501558Y443017D01*
X497385Y445222D02*
X501558Y445222D01*
X490370Y423206D02*
X492574D01*
X490370Y419033D02*
X492574Y419033D01*
X490370Y419033D02*
X490370Y423206D01*
X492574Y419033D02*
Y423206D01*
X478385Y415722D02*
X478385Y413517D01*
X482558D02*
Y415722D01*
X478385Y413517D02*
X482558D01*
X478385Y415722D02*
X482558Y415722D01*
X486059Y438517D02*
Y440722D01*
X481885Y438517D02*
Y440722D01*
X486059D01*
X481885Y438517D02*
X486059D01*
X524460Y456533D02*
X526665Y456533D01*
X524460Y460706D02*
X526665Y460706D01*
Y456533D02*
Y460706D01*
X524460Y456533D02*
Y460706D01*
X491870Y449533D02*
X494074D01*
X491870Y453706D02*
X494074Y453706D01*
X494074Y449533D02*
X494074Y453706D01*
X491870Y449533D02*
Y453706D01*
X491870Y457533D02*
X494074D01*
X491870Y461706D02*
X494074Y461706D01*
Y457533D02*
Y461706D01*
X491870Y461706D02*
X491870Y457533D01*
X481976Y480017D02*
X481976Y482222D01*
X486149Y480017D02*
Y482222D01*
X481976Y480017D02*
X486149Y480017D01*
X481976Y482222D02*
X486149D01*
X481976Y476017D02*
Y478222D01*
X486149Y476017D02*
Y478222D01*
X481976Y476017D02*
X486149D01*
X481976Y478222D02*
X486149D01*
X514476Y477517D02*
Y479722D01*
X518649Y477517D02*
Y479722D01*
X514476Y477517D02*
X518649D01*
X514476Y479722D02*
X518649D01*
X522960Y420706D02*
X525165Y420706D01*
X522960Y416533D02*
X525165D01*
X522960D02*
Y420706D01*
X525165Y416533D02*
X525165Y420706D01*
X510885Y412517D02*
Y414722D01*
X515059D02*
X515059Y412517D01*
X510885Y412517D02*
X515059Y412517D01*
X510885Y414722D02*
X515059D01*
X518149Y437517D02*
Y439722D01*
X513976Y437517D02*
X513976Y439722D01*
X518149D01*
X513976Y437517D02*
X518149Y437517D01*
X507960Y475206D02*
X510165Y475206D01*
X507960Y471033D02*
X510165D01*
X507960Y475206D02*
X507960Y471033D01*
X510165D02*
Y475206D01*
X495460Y472706D02*
X497665D01*
X495460Y468533D02*
X497665D01*
X495460D02*
Y472706D01*
X497665Y468533D02*
Y472706D01*
X514476Y481517D02*
X514476Y483722D01*
X518649Y481517D02*
Y483722D01*
X514476Y481517D02*
X518649Y481517D01*
X514476Y483722D02*
X518649D01*
X503460Y472706D02*
X505665Y472706D01*
X503460Y468533D02*
X505665D01*
X503460D02*
Y472706D01*
X505665Y468533D02*
X505665Y472706D01*
X524460Y448533D02*
X526665D01*
X524460Y452706D02*
X526665D01*
Y448533D02*
Y452706D01*
X524460Y448533D02*
Y452706D01*
X487496Y427722D02*
X491669Y427722D01*
X487496Y425517D02*
X491669D01*
Y427722D01*
X487496Y427722D02*
X487496Y425517D01*
X473885Y440722D02*
X478058Y440722D01*
X473885Y438517D02*
X478058Y438517D01*
Y440722D01*
X473885Y438517D02*
Y440722D01*
X471870Y425533D02*
Y429706D01*
X474074Y425533D02*
X474074Y429706D01*
X471870Y429706D02*
X474074Y429706D01*
X471870Y425533D02*
X474074D01*
X482665Y486033D02*
Y490206D01*
X480460Y486033D02*
X480460Y490206D01*
X480460Y486033D02*
X482665Y486033D01*
X480460Y490206D02*
X482665D01*
X486665Y486033D02*
X486665Y490206D01*
X484460D02*
X484460Y486033D01*
X486665Y486033D01*
X484460Y490206D02*
X486665D01*
X516165Y488033D02*
Y492206D01*
X513960Y488033D02*
Y492206D01*
Y488033D02*
X516165D01*
X513960Y492206D02*
X516165D01*
X520165Y488033D02*
Y492206D01*
X517960Y488033D02*
X517960Y492206D01*
X517960Y488033D02*
X520165Y488033D01*
X517960Y492206D02*
X520165Y492206D01*
X522476Y477517D02*
X526649Y477517D01*
X522476Y479722D02*
X526649Y479722D01*
X522476Y477517D02*
Y479722D01*
X526649Y477517D02*
Y479722D01*
X499460Y472706D02*
X499460Y468533D01*
X501665D02*
Y472706D01*
X499460Y472706D02*
X501665Y472706D01*
X499460Y468533D02*
X501665D01*
X519976Y425722D02*
X524149D01*
X519976Y423517D02*
X524149Y423517D01*
X524149Y425722D02*
X524149Y423517D01*
X519976Y423517D02*
Y425722D01*
X505885Y439722D02*
X510058D01*
X505885Y437517D02*
X510058Y437517D01*
Y439722D01*
X505885Y437517D02*
X505885Y439722D01*
X503960Y424533D02*
Y428706D01*
X506165D02*
X506165Y424533D01*
X503960Y428706D02*
X506165D01*
X503960Y424533D02*
X506165Y424533D01*
X443990Y179323D02*
X446195D01*
X443990Y183496D02*
X446195D01*
Y179323D02*
Y183496D01*
X443990Y179323D02*
Y183496D01*
X444398Y238913D02*
Y243087D01*
X446602Y238913D02*
Y243087D01*
X444398D02*
X446602D01*
X444398Y238913D02*
X446602D01*
X454898Y327323D02*
Y331496D01*
X457102Y327323D02*
Y331496D01*
X454898D02*
X457102D01*
X454898Y327323D02*
X457102D01*
X466006Y172307D02*
Y174512D01*
X470179Y172307D02*
Y174512D01*
X466006Y172307D02*
X470179D01*
X466006Y174512D02*
X470179D01*
X466413Y234102D02*
X470587D01*
X466413Y231898D02*
X470587D01*
Y234102D01*
X466413Y231898D02*
Y234102D01*
X476913Y322512D02*
X481087D01*
X476913Y320307D02*
X481087D01*
Y322512D01*
X476913Y320307D02*
Y322512D01*
X473490Y160323D02*
X475695D01*
X473490Y164496D02*
X475695D01*
Y160323D02*
Y164496D01*
X473490Y160323D02*
Y164496D01*
X473898Y219913D02*
Y224087D01*
X476102Y219913D02*
Y224087D01*
X473898D02*
X476102D01*
X473898Y219913D02*
X476102D01*
X484398Y308323D02*
Y312496D01*
X486602Y308323D02*
Y312496D01*
X484398D02*
X486602D01*
X484398Y308323D02*
X486602D01*
X448490Y167996D02*
X450695D01*
X448490Y163823D02*
X450695D01*
X448490D02*
Y167996D01*
X450695Y163823D02*
Y167996D01*
X451102Y223413D02*
Y227587D01*
X448898Y223413D02*
Y227587D01*
Y223413D02*
X451102D01*
X448898Y227587D02*
X451102D01*
X461602Y311823D02*
Y315996D01*
X459398Y311823D02*
Y315996D01*
Y311823D02*
X461602D01*
X459398Y315996D02*
X461602D01*
X432679Y206398D02*
Y208602D01*
X428506Y206398D02*
Y208602D01*
X432679D01*
X428506Y206398D02*
X432679D01*
X428913Y265988D02*
X433087D01*
X428913Y268193D02*
X433087D01*
X428913Y265988D02*
Y268193D01*
X433087Y265988D02*
Y268193D01*
X439413Y354398D02*
X443587D01*
X439413Y356602D02*
X443587D01*
X439413Y354398D02*
Y356602D01*
X443587Y354398D02*
Y356602D01*
X439679Y173807D02*
Y176012D01*
X435506Y173807D02*
Y176012D01*
X439679D01*
X435506Y173807D02*
X439679D01*
X435913Y233398D02*
X440087D01*
X435913Y235602D02*
X440087D01*
X435913Y233398D02*
Y235602D01*
X440087Y233398D02*
Y235602D01*
X446413Y321807D02*
X450587D01*
X446413Y324012D02*
X450587D01*
X446413Y321807D02*
Y324012D01*
X450587Y321807D02*
Y324012D01*
X431679Y173807D02*
Y176012D01*
X427506Y173807D02*
Y176012D01*
X431679D01*
X427506Y173807D02*
X431679D01*
X427913Y233398D02*
X432087D01*
X427913Y235602D02*
X432087D01*
X427913Y233398D02*
Y235602D01*
X432087Y233398D02*
Y235602D01*
X438413Y321807D02*
X442587D01*
X438413Y324012D02*
X442587D01*
X438413Y321807D02*
Y324012D01*
X442587Y321807D02*
Y324012D01*
X406990Y163913D02*
X409195D01*
X406990Y168087D02*
X409195D01*
Y163913D02*
Y168087D01*
X406990Y163913D02*
Y168087D01*
X407398Y223504D02*
Y227677D01*
X409602Y223504D02*
Y227677D01*
X407398D02*
X409602D01*
X407398Y223504D02*
X409602D01*
X417898Y311913D02*
Y316087D01*
X420102Y311913D02*
Y316087D01*
X417898D02*
X420102D01*
X417898Y311913D02*
X420102D01*
X410990Y163913D02*
X413195D01*
X410990Y168087D02*
X413195D01*
Y163913D02*
Y168087D01*
X410990Y163913D02*
Y168087D01*
X411398Y223504D02*
Y227677D01*
X413602Y223504D02*
Y227677D01*
X411398D02*
X413602D01*
X411398Y223504D02*
X413602D01*
X421898Y311913D02*
Y316087D01*
X424102Y311913D02*
Y316087D01*
X421898D02*
X424102D01*
X421898Y311913D02*
X424102D01*
X409490Y196413D02*
X411695D01*
X409490Y200587D02*
X411695D01*
Y196413D02*
Y200587D01*
X409490Y196413D02*
Y200587D01*
X409898Y256004D02*
Y260177D01*
X412102Y256004D02*
Y260177D01*
X409898D02*
X412102D01*
X409898Y256004D02*
X412102D01*
X420398Y344413D02*
Y348587D01*
X422602Y344413D02*
Y348587D01*
X420398D02*
X422602D01*
X420398Y344413D02*
X422602D01*
X468506Y204898D02*
Y207102D01*
X472679Y204898D02*
Y207102D01*
X468506Y204898D02*
X472679D01*
X468506Y207102D02*
X472679D01*
X468913Y266693D02*
X473087D01*
X468913Y264488D02*
X473087D01*
Y266693D01*
X468913Y264488D02*
Y266693D01*
X479413Y355102D02*
X483587D01*
X479413Y352898D02*
X483587D01*
Y355102D01*
X479413Y352898D02*
Y355102D01*
X474490Y192823D02*
X476695D01*
X474490Y196996D02*
X476695D01*
Y192823D02*
Y196996D01*
X474490Y192823D02*
Y196996D01*
X474898Y252413D02*
Y256587D01*
X477102Y252413D02*
Y256587D01*
X474898D02*
X477102D01*
X474898Y252413D02*
X477102D01*
X485398Y340823D02*
Y344996D01*
X487602Y340823D02*
Y344996D01*
X485398D02*
X487602D01*
X485398Y340823D02*
X487602D01*
X449490Y200087D02*
X451695D01*
X449490Y195913D02*
X451695D01*
X449490D02*
Y200087D01*
X451695Y195913D02*
Y200087D01*
X452102Y255504D02*
Y259677D01*
X449898Y255504D02*
Y259677D01*
Y255504D02*
X452102D01*
X449898Y259677D02*
X452102D01*
X462602Y343913D02*
Y348087D01*
X460398Y343913D02*
Y348087D01*
Y343913D02*
X462602D01*
X460398Y348087D02*
X462602D01*
X414006Y189898D02*
Y192102D01*
X418179Y189898D02*
Y192102D01*
X414006Y189898D02*
X418179D01*
X414006Y192102D02*
X418179D01*
X414413Y251693D02*
X418587D01*
X414413Y249488D02*
X418587D01*
Y251693D01*
X414413Y249488D02*
Y251693D01*
X424913Y340102D02*
X429087D01*
X424913Y337898D02*
X429087D01*
Y340102D01*
X424913Y337898D02*
Y340102D01*
X416506Y177398D02*
Y179602D01*
X420679Y177398D02*
Y179602D01*
X416506Y177398D02*
X420679D01*
X416506Y179602D02*
X420679D01*
X416913Y239193D02*
X421087D01*
X416913Y236988D02*
X421087D01*
Y239193D01*
X416913Y236988D02*
Y239193D01*
X427413Y327602D02*
X431587D01*
X427413Y325398D02*
X431587D01*
Y327602D01*
X427413Y325398D02*
Y327602D01*
X405490Y196413D02*
X407695D01*
X405490Y200587D02*
X407695D01*
Y196413D02*
Y200587D01*
X405490Y196413D02*
Y200587D01*
X405898Y256004D02*
Y260177D01*
X408102Y256004D02*
Y260177D01*
X405898D02*
X408102D01*
X405898Y256004D02*
X408102D01*
X416398Y344413D02*
Y348587D01*
X418602Y344413D02*
Y348587D01*
X416398D02*
X418602D01*
X416398Y344413D02*
X418602D01*
X416506Y185398D02*
Y187602D01*
X420679Y185398D02*
Y187602D01*
X416506Y185398D02*
X420679D01*
X416506Y187602D02*
X420679D01*
X416913Y247193D02*
X421087D01*
X416913Y244988D02*
X421087D01*
Y247193D01*
X416913Y244988D02*
Y247193D01*
X427413Y335602D02*
X431587D01*
X427413Y333398D02*
X431587D01*
Y335602D01*
X427413Y333398D02*
Y335602D01*
X440679Y206398D02*
Y208602D01*
X436506Y206398D02*
Y208602D01*
X440679D01*
X436506Y206398D02*
X440679D01*
X436913Y265988D02*
X441087D01*
X436913Y268193D02*
X441087D01*
X436913Y265988D02*
Y268193D01*
X441087Y265988D02*
Y268193D01*
X447413Y354398D02*
X451587D01*
X447413Y356602D02*
X451587D01*
X447413Y354398D02*
Y356602D01*
X451587Y354398D02*
Y356602D01*
X483398Y296413D02*
X485602D01*
X483398Y300587D02*
X485602Y300587D01*
Y296413D02*
Y300587D01*
X483398Y296413D02*
X483398Y300587D01*
X461490Y169433D02*
Y173606D01*
X463695Y169433D02*
Y173606D01*
X461490D02*
X463695D01*
X461490Y169433D02*
X463695D01*
X461898Y229024D02*
X464102D01*
X461898Y233197D02*
X464102D01*
Y229024D02*
Y233197D01*
X461898Y229024D02*
Y233197D01*
X472398Y317433D02*
X474602D01*
X472398Y321606D02*
X474602D01*
Y317433D02*
Y321606D01*
X472398Y317433D02*
Y321606D01*
X448490Y155823D02*
Y159996D01*
X450695Y155823D02*
Y159996D01*
X448490D02*
X450695D01*
X448490Y155823D02*
X450695D01*
X448898Y215413D02*
X451102D01*
X448898Y219587D02*
X451102D01*
Y215413D02*
Y219587D01*
X448898Y215413D02*
Y219587D01*
X459398Y303823D02*
X461602D01*
X459398Y307996D02*
X461602D01*
Y303823D02*
Y307996D01*
X459398Y303823D02*
Y307996D01*
X459413Y154398D02*
X463587D01*
X459413Y156602D02*
X463587D01*
X459413Y154398D02*
Y156602D01*
X463587Y154398D02*
Y156602D01*
X453398Y215087D02*
X455602D01*
X453398Y210913D02*
X455602D01*
X453398D02*
Y215087D01*
X455602Y210913D02*
Y215087D01*
X474587Y301807D02*
Y304012D01*
X470413Y301807D02*
Y304012D01*
X474587D01*
X470413Y301807D02*
X474587D01*
X399006Y164602D02*
X403179D01*
X399006Y162398D02*
X403179D01*
Y164602D01*
X399006Y162398D02*
Y164602D01*
X399413Y221988D02*
Y224193D01*
X403587Y221988D02*
Y224193D01*
X399413Y221988D02*
X403587D01*
X399413Y224193D02*
X403587D01*
X409913Y310398D02*
Y312602D01*
X414087Y310398D02*
Y312602D01*
X409913Y310398D02*
X414087D01*
X409913Y312602D02*
X414087D01*
X399006Y168602D02*
X403179D01*
X399006Y166398D02*
X403179D01*
Y168602D01*
X399006Y166398D02*
Y168602D01*
X399413Y225988D02*
Y228193D01*
X403587Y225988D02*
Y228193D01*
X399413Y225988D02*
X403587D01*
X399413Y228193D02*
X403587D01*
X409913Y314398D02*
Y316602D01*
X414087Y314398D02*
Y316602D01*
X409913Y314398D02*
X414087D01*
X409913Y316602D02*
X414087D01*
X397006Y198102D02*
X401179D01*
X397006Y195898D02*
X401179D01*
Y198102D01*
X397006Y195898D02*
Y198102D01*
X397413Y255488D02*
Y257693D01*
X401587Y255488D02*
Y257693D01*
X397413Y255488D02*
X401587D01*
X397413Y257693D02*
X401587D01*
X407913Y343898D02*
Y346102D01*
X412087Y343898D02*
Y346102D01*
X407913Y343898D02*
X412087D01*
X407913Y346102D02*
X412087D01*
X397006Y202102D02*
X401179D01*
X397006Y199898D02*
X401179D01*
Y202102D01*
X397006Y199898D02*
Y202102D01*
X397413Y259488D02*
Y261693D01*
X401587Y259488D02*
Y261693D01*
X397413Y259488D02*
X401587D01*
X397413Y261693D02*
X401587D01*
X407913Y347898D02*
Y350102D01*
X412087Y347898D02*
Y350102D01*
X407913Y347898D02*
X412087D01*
X407913Y350102D02*
X412087D01*
X411695Y204413D02*
Y208587D01*
X409490Y204413D02*
Y208587D01*
Y204413D02*
X411695D01*
X409490Y208587D02*
X411695D01*
X409898Y268177D02*
X412102D01*
X409898Y264004D02*
X412102D01*
X409898D02*
Y268177D01*
X412102Y264004D02*
Y268177D01*
X420398Y356587D02*
X422602D01*
X420398Y352413D02*
X422602D01*
X420398D02*
Y356587D01*
X422602Y352413D02*
Y356587D01*
X416506Y181398D02*
X420679D01*
X416506Y183602D02*
X420679D01*
X416506Y181398D02*
Y183602D01*
X420679Y181398D02*
Y183602D01*
X421087Y240988D02*
Y243193D01*
X416913Y240988D02*
Y243193D01*
X421087D01*
X416913Y240988D02*
X421087D01*
X431587Y329398D02*
Y331602D01*
X427413Y329398D02*
Y331602D01*
X431587D01*
X427413Y329398D02*
X431587D01*
X463490Y201913D02*
Y206087D01*
X465695Y201913D02*
Y206087D01*
X463490D02*
X465695D01*
X463490Y201913D02*
X465695D01*
X463898Y261504D02*
X466102D01*
X463898Y265677D02*
X466102D01*
Y261504D02*
Y265677D01*
X463898Y261504D02*
Y265677D01*
X449490Y187823D02*
Y191996D01*
X451695Y187823D02*
Y191996D01*
X449490D02*
X451695D01*
X449490Y187823D02*
X451695D01*
X449898Y247413D02*
X452102D01*
X449898Y251587D02*
X452102D01*
Y247413D02*
Y251587D01*
X449898Y247413D02*
Y251587D01*
X460398Y335823D02*
X462602D01*
X460398Y339996D02*
X462602D01*
Y335823D02*
Y339996D01*
X460398Y335823D02*
Y339996D01*
X460506Y185898D02*
X464679D01*
X460506Y188102D02*
X464679D01*
X460506Y185898D02*
Y188102D01*
X464679Y185898D02*
Y188102D01*
X465087Y245488D02*
Y247693D01*
X460913Y245488D02*
Y247693D01*
X465087D01*
X460913Y245488D02*
X465087D01*
X475587Y333898D02*
Y336102D01*
X471413Y333898D02*
Y336102D01*
X475587D01*
X471413Y333898D02*
X475587D01*
X510913Y295898D02*
X515087Y295898D01*
X510913Y298102D02*
X515087D01*
X510913Y295898D02*
Y298102D01*
X515087D02*
X515087Y295898D01*
X362024Y162862D02*
X366197D01*
X362024Y160658D02*
X366197Y160658D01*
X366197Y162862D02*
X366197Y160658D01*
X362024Y160658D02*
Y162862D01*
X279413Y170898D02*
X279413Y173102D01*
X283587Y170898D02*
Y173102D01*
X279413Y170898D02*
X283587Y170898D01*
X279413Y173102D02*
X283587D01*
D179*
X407935Y453750D02*
X412935Y458750D01*
Y461219D02*
X412935Y462419D01*
X412738D02*
X412935D01*
X412738Y461219D02*
Y462419D01*
Y461219D02*
X412935Y461219D01*
Y459250D02*
X412935Y460450D01*
X412738Y460450D02*
X412935Y460450D01*
X412738Y459250D02*
Y460450D01*
Y459250D02*
X412935Y459250D01*
X412935Y457282D02*
Y458482D01*
X412738Y458482D02*
X412935Y458482D01*
X412738Y457282D02*
Y458482D01*
Y457282D02*
X412935Y457282D01*
X410169Y453750D02*
X411369D01*
X411369Y453945D01*
X410169Y453945D02*
X411369Y453945D01*
X410169Y453750D02*
Y453945D01*
X408201Y453750D02*
X409401D01*
X409401Y453945D01*
X408201D02*
X409401D01*
X408201D02*
X408201Y453750D01*
X406232D02*
X407432D01*
Y453945D01*
X406232D02*
X407432D01*
X406232D02*
X406232Y453750D01*
X404264D02*
X405464D01*
Y453945D01*
X404264D02*
X405464D01*
X404264D02*
X404264Y453750D01*
X402698Y458482D02*
X402698Y457282D01*
X402895Y457282D01*
Y458482D01*
X402698D02*
X402895D01*
X402698Y459250D02*
Y460450D01*
Y459250D02*
X402895Y459250D01*
Y460450D01*
X402698Y460450D02*
X402895Y460450D01*
X402698Y461219D02*
X402698Y462419D01*
X402698Y461219D02*
X402895Y461219D01*
Y462419D01*
X402698D02*
X402895D01*
X404264Y465950D02*
X405464D01*
X404264Y465756D02*
Y465950D01*
Y465756D02*
X405464Y465756D01*
Y465950D01*
X406232Y465950D02*
X407432D01*
X406232Y465756D02*
X406232Y465950D01*
X406232Y465756D02*
X407432D01*
Y465950D01*
X408201D02*
X409401D01*
X408201Y465756D02*
X408201Y465950D01*
X408201Y465756D02*
X409401D01*
Y465950D01*
X410169Y465950D02*
X411369D01*
X410169Y465756D02*
Y465950D01*
Y465756D02*
X411369Y465756D01*
X411369Y465950D02*
X411369Y465756D01*
X402698Y453750D02*
X412935D01*
Y465950D01*
X402698Y453750D02*
Y465950D01*
X412935D01*
X230698Y465805D02*
X240935D01*
X230698Y453605D02*
Y465805D01*
X240935Y453605D02*
Y465805D01*
X230698Y453605D02*
X240935D01*
X239369Y465805D02*
X239369Y465611D01*
X238169Y465611D02*
X239369Y465611D01*
X238169Y465611D02*
Y465805D01*
X239369D01*
X237401Y465611D02*
Y465805D01*
X236201Y465611D02*
X237401D01*
X236201D02*
X236201Y465805D01*
X237401Y465805D01*
X235432Y465611D02*
Y465805D01*
X234232Y465611D02*
X235432D01*
X234232D02*
X234232Y465805D01*
X235432Y465805D01*
X233464Y465611D02*
Y465805D01*
X232264Y465611D02*
X233464D01*
X232264D02*
Y465805D01*
X233464D01*
X230698Y462274D02*
X230895Y462274D01*
X230895Y461074D02*
X230895Y462274D01*
X230698Y461074D02*
X230895D01*
X230698D02*
X230698Y462274D01*
X230698Y460305D02*
X230895D01*
X230895Y459105D02*
X230895Y460305D01*
X230698Y459105D02*
X230895Y459105D01*
X230698Y459105D02*
Y460305D01*
X230698Y458337D02*
X230895Y458337D01*
X230895Y457137D02*
X230895Y458337D01*
X230698Y457137D02*
X230895D01*
X230698Y458337D02*
X230698Y457137D01*
X232264Y453800D02*
X232264Y453605D01*
X232264Y453800D02*
X233464Y453800D01*
Y453605D02*
Y453800D01*
X232264Y453605D02*
X233464Y453605D01*
X234232Y453800D02*
X234232Y453605D01*
X234232Y453800D02*
X235432D01*
X235432Y453605D02*
X235432Y453800D01*
X234232Y453605D02*
X235432Y453605D01*
X236201Y453800D02*
X236201Y453605D01*
X236201Y453800D02*
X237401D01*
X237401Y453605D02*
X237401Y453800D01*
X236201Y453605D02*
X237401Y453605D01*
X238169Y453605D02*
Y453800D01*
X239369D01*
X239369Y453605D02*
X239369Y453800D01*
X238169Y453605D02*
X239369Y453605D01*
X240738Y457137D02*
X240935Y457137D01*
X240738Y457137D02*
Y458337D01*
X240935Y458337D01*
Y457137D02*
Y458337D01*
X240738Y459105D02*
X240935Y459105D01*
X240738Y460305D02*
X240738Y459105D01*
X240738Y460305D02*
X240935D01*
X240935Y459105D02*
X240935Y460305D01*
X240738Y461074D02*
X240935Y461074D01*
X240738Y462274D02*
X240738Y461074D01*
X240738Y462274D02*
X240935Y462274D01*
X240935Y461074D02*
X240935Y462274D01*
X235935Y453605D02*
X240935Y458605D01*
X317198Y466026D02*
X327435D01*
X317198Y453826D02*
Y466026D01*
X327435Y453826D02*
Y466026D01*
X317198Y453826D02*
X327435D01*
X325869Y466026D02*
X325869Y465831D01*
X324669Y465831D02*
X325869Y465831D01*
X324669Y466026D02*
X324669Y465831D01*
X324669Y466026D02*
X325869Y466026D01*
X323901Y465831D02*
X323901Y466026D01*
X322701Y465831D02*
X323901Y465831D01*
X322701Y465831D02*
X322701Y466026D01*
X323901D01*
X321932Y465831D02*
X321932Y466026D01*
X320732Y465831D02*
X321932Y465831D01*
X320732Y465831D02*
X320732Y466026D01*
X321932D01*
X319964Y465831D02*
X319964Y466026D01*
X318764Y465831D02*
X319964Y465831D01*
X318764Y465831D02*
X318764Y466026D01*
X319964Y466026D01*
X317198Y462494D02*
X317395D01*
X317395Y461294D02*
X317395Y462494D01*
X317198Y461294D02*
X317395Y461294D01*
X317198Y462494D02*
X317198Y461294D01*
Y460526D02*
X317395Y460526D01*
X317395Y459326D02*
X317395Y460526D01*
X317198Y459326D02*
X317395Y459326D01*
X317198Y459326D02*
Y460526D01*
Y458557D02*
X317395Y458557D01*
X317395Y457357D02*
X317395Y458557D01*
X317198Y457357D02*
X317395Y457357D01*
X317198Y457357D02*
Y458557D01*
X318764Y453826D02*
Y454020D01*
X319964Y454020D01*
X319964Y453826D02*
X319964Y454020D01*
X318764Y453826D02*
X319964Y453826D01*
X320732Y453826D02*
Y454020D01*
X321932Y454020D01*
X321932Y453826D02*
X321932Y454020D01*
X320732Y453826D02*
X321932Y453826D01*
X322701Y454020D02*
X322701Y453826D01*
X322701Y454020D02*
X323901Y454020D01*
X323901Y453826D02*
X323901Y454020D01*
X322701Y453826D02*
X323901Y453826D01*
X324669Y454020D02*
X324669Y453826D01*
X324669Y454020D02*
X325869Y454020D01*
X325869Y453826D02*
X325869Y454020D01*
X324669Y453826D02*
X325869Y453826D01*
X327238Y457357D02*
X327435D01*
X327238D02*
X327238Y458557D01*
X327435Y458557D01*
Y457357D02*
Y458557D01*
X327238Y459326D02*
X327435D01*
X327238D02*
Y460526D01*
X327435Y460526D01*
Y459326D02*
Y460526D01*
X327238Y461294D02*
X327435D01*
X327238D02*
Y462494D01*
X327434Y462494D01*
X327435Y461294D01*
X322434Y453826D02*
X327435Y458826D01*
D180*
X264496Y135840D02*
D03*
X393000Y142838D02*
D03*
M02*
