G04*
G04 #@! TF.GenerationSoftware,Altium Limited,Altium Designer,26.2.0 (7)*
G04*
G04 Layer_Color=128*
%FSLAX25Y25*%
%MOIN*%
G70*
G04*
G04 #@! TF.SameCoordinates,CFA4B7CB-C87C-44D2-A143-D88584ED512B*
G04*
G04*
G04 #@! TF.FilePolarity,Positive*
G04*
G01*
G75*
%ADD25R,0.07087X0.04528*%
%ADD26R,0.05709X0.03937*%
%ADD27R,0.02244X0.02441*%
%ADD28R,0.02441X0.02244*%
%ADD31R,0.03740X0.03937*%
%ADD33R,0.04528X0.07087*%
%ADD34R,0.06693X0.09843*%
%ADD36R,0.07480X0.21260*%
%ADD39R,0.09843X0.13780*%
%ADD40R,0.03937X0.05709*%
%ADD45R,0.03937X0.03740*%
%ADD49R,0.02362X0.01654*%
%ADD50R,0.03543X0.01575*%
%ADD53R,0.06500X0.11201*%
%ADD54R,0.03500X0.01654*%
%ADD55R,0.02362X0.00945*%
%ADD56R,0.10433X0.14370*%
%ADD57R,0.00945X0.02362*%
G04:AMPARAMS|DCode=61|XSize=47.24mil|YSize=86.61mil|CornerRadius=4.72mil|HoleSize=0mil|Usage=FLASHONLY|Rotation=90.000|XOffset=0mil|YOffset=0mil|HoleType=Round|Shape=RoundedRectangle|*
%AMROUNDEDRECTD61*
21,1,0.04724,0.07717,0,0,90.0*
21,1,0.03780,0.08661,0,0,90.0*
1,1,0.00945,0.03858,0.01890*
1,1,0.00945,0.03858,-0.01890*
1,1,0.00945,-0.03858,-0.01890*
1,1,0.00945,-0.03858,0.01890*
%
%ADD61ROUNDEDRECTD61*%
G04:AMPARAMS|DCode=62|XSize=47.24mil|YSize=86.61mil|CornerRadius=0.24mil|HoleSize=0mil|Usage=FLASHONLY|Rotation=90.000|XOffset=0mil|YOffset=0mil|HoleType=Round|Shape=RoundedRectangle|*
%AMROUNDEDRECTD62*
21,1,0.04724,0.08614,0,0,90.0*
21,1,0.04677,0.08661,0,0,90.0*
1,1,0.00047,0.04307,0.02339*
1,1,0.00047,0.04307,-0.02339*
1,1,0.00047,-0.04307,-0.02339*
1,1,0.00047,-0.04307,0.02339*
%
%ADD62ROUNDEDRECTD62*%
G04:AMPARAMS|DCode=63|XSize=228.35mil|YSize=251.97mil|CornerRadius=11.42mil|HoleSize=0mil|Usage=FLASHONLY|Rotation=90.000|XOffset=0mil|YOffset=0mil|HoleType=Round|Shape=RoundedRectangle|*
%AMROUNDEDRECTD63*
21,1,0.22835,0.22913,0,0,90.0*
21,1,0.20551,0.25197,0,0,90.0*
1,1,0.02284,0.11457,0.10276*
1,1,0.02284,0.11457,-0.10276*
1,1,0.02284,-0.11457,-0.10276*
1,1,0.02284,-0.11457,0.10276*
%
%ADD63ROUNDEDRECTD63*%
G04:AMPARAMS|DCode=134|XSize=51.58mil|YSize=20.87mil|CornerRadius=1.36mil|HoleSize=0mil|Usage=FLASHONLY|Rotation=0.000|XOffset=0mil|YOffset=0mil|HoleType=Round|Shape=RoundedRectangle|*
%AMROUNDEDRECTD134*
21,1,0.05158,0.01815,0,0,0.0*
21,1,0.04886,0.02087,0,0,0.0*
1,1,0.00271,0.02443,-0.00908*
1,1,0.00271,-0.02443,-0.00908*
1,1,0.00271,-0.02443,0.00908*
1,1,0.00271,0.02443,0.00908*
%
%ADD134ROUNDEDRECTD134*%
%ADD135R,0.01654X0.02362*%
%ADD136R,0.02100X0.01200*%
%ADD137R,0.01200X0.02100*%
%ADD138R,0.00984X0.01083*%
%ADD139R,0.01181X0.02284*%
%ADD140R,0.01181X0.02264*%
%ADD141R,0.01575X0.03543*%
%ADD142R,0.14370X0.10433*%
G04:AMPARAMS|DCode=143|XSize=47.24mil|YSize=86.61mil|CornerRadius=4.72mil|HoleSize=0mil|Usage=FLASHONLY|Rotation=180.000|XOffset=0mil|YOffset=0mil|HoleType=Round|Shape=RoundedRectangle|*
%AMROUNDEDRECTD143*
21,1,0.04724,0.07717,0,0,180.0*
21,1,0.03780,0.08661,0,0,180.0*
1,1,0.00945,-0.01890,0.03858*
1,1,0.00945,0.01890,0.03858*
1,1,0.00945,0.01890,-0.03858*
1,1,0.00945,-0.01890,-0.03858*
%
%ADD143ROUNDEDRECTD143*%
G04:AMPARAMS|DCode=144|XSize=47.24mil|YSize=86.61mil|CornerRadius=0.24mil|HoleSize=0mil|Usage=FLASHONLY|Rotation=180.000|XOffset=0mil|YOffset=0mil|HoleType=Round|Shape=RoundedRectangle|*
%AMROUNDEDRECTD144*
21,1,0.04724,0.08614,0,0,180.0*
21,1,0.04677,0.08661,0,0,180.0*
1,1,0.00047,-0.02339,0.04307*
1,1,0.00047,0.02339,0.04307*
1,1,0.00047,0.02339,-0.04307*
1,1,0.00047,-0.02339,-0.04307*
%
%ADD144ROUNDEDRECTD144*%
G04:AMPARAMS|DCode=145|XSize=228.35mil|YSize=251.97mil|CornerRadius=11.42mil|HoleSize=0mil|Usage=FLASHONLY|Rotation=180.000|XOffset=0mil|YOffset=0mil|HoleType=Round|Shape=RoundedRectangle|*
%AMROUNDEDRECTD145*
21,1,0.22835,0.22913,0,0,180.0*
21,1,0.20551,0.25197,0,0,180.0*
1,1,0.02284,-0.10276,0.11457*
1,1,0.02284,0.10276,0.11457*
1,1,0.02284,0.10276,-0.11457*
1,1,0.02284,-0.10276,-0.11457*
%
%ADD145ROUNDEDRECTD145*%
%ADD147R,0.02284X0.01181*%
%ADD149C,0.03937*%
%ADD150R,0.59055X0.17717*%
%ADD151R,0.15827X0.06496*%
%ADD152R,0.06299X0.07677*%
%ADD153R,0.09055X0.07677*%
%ADD154R,0.08282X0.10469*%
G36*
X264826Y178279D02*
X269002D01*
X268998Y177101D01*
X263246D01*
Y179649D01*
X264826D01*
Y178279D01*
D02*
G37*
G36*
X267588Y181046D02*
X266604D01*
X266597Y184574D01*
X266604Y188135D01*
X267588D01*
Y181046D01*
D02*
G37*
G36*
X347436Y168038D02*
X351612D01*
X351608Y166861D01*
X345856D01*
Y169409D01*
X347436D01*
Y168038D01*
D02*
G37*
G36*
X350198Y170806D02*
X349215D01*
X349207Y174334D01*
X349215Y177895D01*
X350198D01*
Y170806D01*
D02*
G37*
D25*
X497972Y427119D02*
D03*
X530562Y426828D02*
D03*
X497972Y415702D02*
D03*
X530562Y415411D02*
D03*
D26*
X416593Y203480D02*
D03*
X417000Y263071D02*
D03*
X476000Y289260D02*
D03*
X427500Y351480D02*
D03*
X476000Y296740D02*
D03*
X416593Y196000D02*
D03*
X417000Y255591D02*
D03*
X427500Y344000D02*
D03*
D27*
X228000Y482390D02*
D03*
Y478610D02*
D03*
X219974Y432465D02*
D03*
X223974D02*
D03*
X281941Y360870D02*
D03*
X306474Y432686D02*
D03*
X310474D02*
D03*
X225474Y443465D02*
D03*
X227974Y458465D02*
D03*
X235653Y497055D02*
D03*
X311974Y443685D02*
D03*
X314474Y458685D02*
D03*
X314500Y483220D02*
D03*
X322153Y497276D02*
D03*
X384441Y357370D02*
D03*
X391974Y432610D02*
D03*
X395974D02*
D03*
X406593Y200390D02*
D03*
X407000Y259980D02*
D03*
X417500Y348390D02*
D03*
X397474Y443610D02*
D03*
X399974Y458610D02*
D03*
X400000Y483145D02*
D03*
X407653Y497201D02*
D03*
X496562Y468729D02*
D03*
X504563D02*
D03*
X263000Y158110D02*
D03*
X267000Y158110D02*
D03*
X275500Y175890D02*
D03*
X335500Y146610D02*
D03*
X345610Y147870D02*
D03*
X349610Y147870D02*
D03*
X358110Y165650D02*
D03*
X219974Y436244D02*
D03*
X223974D02*
D03*
X227974Y462245D02*
D03*
X242000Y484000D02*
D03*
X306474Y436465D02*
D03*
X310474Y436465D02*
D03*
X314474Y462465D02*
D03*
X314500Y487000D02*
D03*
X328500Y484221D02*
D03*
X391974Y436390D02*
D03*
X395974D02*
D03*
X399974Y462390D02*
D03*
X400000Y486925D02*
D03*
X408093Y164110D02*
D03*
X412093D02*
D03*
X410593Y208390D02*
D03*
X408500Y223701D02*
D03*
X412500D02*
D03*
X449593Y156020D02*
D03*
Y167799D02*
D03*
X450593Y188020D02*
D03*
X450593Y199890D02*
D03*
X450000Y215610D02*
D03*
X454500Y211110D02*
D03*
X450000Y227390D02*
D03*
X411000Y267980D02*
D03*
X451000Y259480D02*
D03*
X451000Y247610D02*
D03*
X474593Y164299D02*
D03*
X475593Y196799D02*
D03*
X475000Y223890D02*
D03*
X476000Y256390D02*
D03*
X484500Y300390D02*
D03*
X419000Y312110D02*
D03*
X423000D02*
D03*
X460500Y304020D02*
D03*
Y315799D02*
D03*
X461500Y336020D02*
D03*
X421500Y356390D02*
D03*
X414000Y484145D02*
D03*
X461500Y347890D02*
D03*
X485500Y312299D02*
D03*
X486500Y344799D02*
D03*
X472972Y429509D02*
D03*
X481563Y486230D02*
D03*
X485563D02*
D03*
X505062Y428509D02*
D03*
X515063Y488230D02*
D03*
X519063Y488230D02*
D03*
Y492009D02*
D03*
X515063D02*
D03*
X485563Y490009D02*
D03*
X481563D02*
D03*
X454500Y214890D02*
D03*
X475000Y220110D02*
D03*
X324110Y152370D02*
D03*
X407653Y493421D02*
D03*
X414000Y487925D02*
D03*
X397474Y447390D02*
D03*
X235653Y493276D02*
D03*
X242000Y487780D02*
D03*
X225474Y447245D02*
D03*
X475500Y353890D02*
D03*
Y350110D02*
D03*
X384441Y349370D02*
D03*
Y353150D02*
D03*
Y361150D02*
D03*
X372941Y339650D02*
D03*
X372941Y335870D02*
D03*
X270441Y343150D02*
D03*
X270441Y339370D02*
D03*
X281941Y352870D02*
D03*
Y356650D02*
D03*
Y364650D02*
D03*
X565000Y409000D02*
D03*
Y405221D02*
D03*
Y456220D02*
D03*
Y460000D02*
D03*
Y432890D02*
D03*
Y429110D02*
D03*
X322153Y493496D02*
D03*
X328500Y488000D02*
D03*
X311974Y447465D02*
D03*
X358110Y161870D02*
D03*
X354110Y156870D02*
D03*
Y160650D02*
D03*
X349610Y151650D02*
D03*
X345610Y151650D02*
D03*
X335500Y150390D02*
D03*
X324110Y156150D02*
D03*
X267000Y161890D02*
D03*
X263000D02*
D03*
X271500Y170890D02*
D03*
X271500Y167110D02*
D03*
X275500Y172110D02*
D03*
X241500Y162610D02*
D03*
Y166390D02*
D03*
X491472Y419230D02*
D03*
Y423009D02*
D03*
X525562Y456730D02*
D03*
Y460509D02*
D03*
X492972Y453509D02*
D03*
Y449729D02*
D03*
Y457729D02*
D03*
Y461509D02*
D03*
X524062Y416729D02*
D03*
X524062Y420509D02*
D03*
X509062Y471230D02*
D03*
X509062Y475009D02*
D03*
X496562Y472509D02*
D03*
X504563D02*
D03*
X525562Y452509D02*
D03*
Y448730D02*
D03*
X472972Y425730D02*
D03*
X500562Y472509D02*
D03*
X500562Y468729D02*
D03*
X505062Y424729D02*
D03*
X445093Y183299D02*
D03*
Y179520D02*
D03*
X445500Y239110D02*
D03*
Y242890D02*
D03*
X456000Y331299D02*
D03*
Y327520D02*
D03*
X474593Y160520D02*
D03*
X485500Y308520D02*
D03*
X449593Y164020D02*
D03*
X450000Y223610D02*
D03*
X460500Y312020D02*
D03*
X408093Y167890D02*
D03*
X408500Y227480D02*
D03*
X419000Y315890D02*
D03*
X412093Y167890D02*
D03*
X412500Y227480D02*
D03*
X423000Y315890D02*
D03*
X410593Y200390D02*
D03*
Y196610D02*
D03*
X411000Y256201D02*
D03*
Y259980D02*
D03*
X421500Y344610D02*
D03*
Y348390D02*
D03*
X475593Y193020D02*
D03*
X476000Y252610D02*
D03*
X486500Y341020D02*
D03*
X450593Y196110D02*
D03*
X451000Y255701D02*
D03*
X461500Y344110D02*
D03*
X406593Y196610D02*
D03*
X407000Y256201D02*
D03*
X417500Y344610D02*
D03*
X484500Y296610D02*
D03*
X462593Y169630D02*
D03*
Y173409D02*
D03*
X463000Y233000D02*
D03*
Y229221D02*
D03*
X473500Y317630D02*
D03*
Y321410D02*
D03*
X449593Y159799D02*
D03*
X450000Y219390D02*
D03*
X460500Y307799D02*
D03*
X410593Y204610D02*
D03*
X411000Y264201D02*
D03*
X421500Y352610D02*
D03*
X464593Y202110D02*
D03*
Y205890D02*
D03*
X465000Y265480D02*
D03*
Y261701D02*
D03*
X450593Y191799D02*
D03*
X451000Y251390D02*
D03*
X461500Y339799D02*
D03*
D28*
X279290Y322023D02*
D03*
X278331Y343260D02*
D03*
X233364Y468355D02*
D03*
X247364Y461355D02*
D03*
X231999Y479175D02*
D03*
X333864Y461575D02*
D03*
X319864Y468575D02*
D03*
X318499Y479396D02*
D03*
X381790Y318523D02*
D03*
X380831Y339760D02*
D03*
X420482Y186500D02*
D03*
Y178500D02*
D03*
X420890Y246091D02*
D03*
Y238090D02*
D03*
X431390Y334500D02*
D03*
Y326500D02*
D03*
X419364Y461500D02*
D03*
X405364Y468500D02*
D03*
X404000Y479320D02*
D03*
X518452Y482619D02*
D03*
X247110Y157000D02*
D03*
X235984Y281477D02*
D03*
X235984Y285477D02*
D03*
X402982Y163500D02*
D03*
Y167500D02*
D03*
X400982Y197000D02*
D03*
Y201000D02*
D03*
X331817Y275482D02*
D03*
X331900Y279353D02*
D03*
X403390Y227091D02*
D03*
Y223091D02*
D03*
X401390Y256591D02*
D03*
Y260591D02*
D03*
X253056Y333520D02*
D03*
X252831Y344760D02*
D03*
X252720Y356260D02*
D03*
X252574Y367891D02*
D03*
X229584Y468355D02*
D03*
X235779Y479175D02*
D03*
X355331Y341260D02*
D03*
X355220Y352760D02*
D03*
X355074Y364391D02*
D03*
X355556Y330020D02*
D03*
X316084Y468575D02*
D03*
X322279Y479396D02*
D03*
X401584Y468500D02*
D03*
X459610Y155500D02*
D03*
X502110Y130000D02*
D03*
X460703Y187000D02*
D03*
X543610Y130000D02*
D03*
X461110Y246590D02*
D03*
X514890Y297000D02*
D03*
X413890Y311500D02*
D03*
Y315500D02*
D03*
X411890Y349000D02*
D03*
Y345000D02*
D03*
X407779Y479320D02*
D03*
X470610Y302909D02*
D03*
X471610Y335000D02*
D03*
X482362Y414619D02*
D03*
X514862Y413619D02*
D03*
X474082Y439619D02*
D03*
X485862D02*
D03*
X482173Y477119D02*
D03*
Y481119D02*
D03*
X506082Y438619D02*
D03*
X517952Y438619D02*
D03*
X526452Y478619D02*
D03*
X328120Y279353D02*
D03*
X330084Y461575D02*
D03*
X547390Y130000D02*
D03*
X505890D02*
D03*
X408110Y349000D02*
D03*
X397610Y260591D02*
D03*
X397203Y201000D02*
D03*
X408110Y345000D02*
D03*
X397610Y256591D02*
D03*
X397203Y197000D02*
D03*
X410110Y315500D02*
D03*
X399610Y227091D02*
D03*
X399203Y167500D02*
D03*
X410110Y311500D02*
D03*
X399610Y223091D02*
D03*
X399203Y163500D02*
D03*
X475390Y335000D02*
D03*
X474390Y302909D02*
D03*
X428890Y339000D02*
D03*
X464890Y246590D02*
D03*
X418390Y250590D02*
D03*
X470390Y233000D02*
D03*
X348500Y143760D02*
D03*
X412110Y479035D02*
D03*
X415890D02*
D03*
X415584Y455000D02*
D03*
X419364D02*
D03*
X415584Y461500D02*
D03*
X418584Y442500D02*
D03*
X422364Y442500D02*
D03*
X243890Y478890D02*
D03*
X240110D02*
D03*
X243584Y461355D02*
D03*
X247364Y454855D02*
D03*
X243584D02*
D03*
X250364Y442355D02*
D03*
X246584D02*
D03*
X333864Y455075D02*
D03*
X330084Y455075D02*
D03*
X376331Y370260D02*
D03*
X372551D02*
D03*
X358853Y364391D02*
D03*
X377051Y339760D02*
D03*
Y335760D02*
D03*
X380831D02*
D03*
X369831Y326260D02*
D03*
X366051D02*
D03*
X378011Y318523D02*
D03*
X373831Y318760D02*
D03*
X370051D02*
D03*
X351777Y330020D02*
D03*
X355666Y334020D02*
D03*
X351887D02*
D03*
X351551Y341260D02*
D03*
X355331Y345260D02*
D03*
X351551D02*
D03*
X351441Y352760D02*
D03*
X355331Y356760D02*
D03*
X351551D02*
D03*
X274551Y343260D02*
D03*
Y339260D02*
D03*
X278331D02*
D03*
X267331Y329760D02*
D03*
X263551D02*
D03*
X275511Y322023D02*
D03*
X271331Y322260D02*
D03*
X267551D02*
D03*
X273831Y373760D02*
D03*
X270051D02*
D03*
X256353Y367891D02*
D03*
X252831Y360260D02*
D03*
X249051D02*
D03*
X248941Y356260D02*
D03*
X252831Y348760D02*
D03*
X249051D02*
D03*
X249051Y344760D02*
D03*
X253166Y337520D02*
D03*
X249387D02*
D03*
X249277Y333520D02*
D03*
X326610Y479110D02*
D03*
X330390D02*
D03*
X333084Y442575D02*
D03*
X336864D02*
D03*
X358221Y157760D02*
D03*
X362000D02*
D03*
X344721Y143760D02*
D03*
X320220Y160260D02*
D03*
X324000D02*
D03*
X328038Y275482D02*
D03*
X232205Y285477D02*
D03*
X232205Y281477D02*
D03*
X279390Y168000D02*
D03*
X275610D02*
D03*
X262110Y154000D02*
D03*
X265890D02*
D03*
X250890Y157000D02*
D03*
X241390Y170500D02*
D03*
X237610D02*
D03*
X501362Y444119D02*
D03*
X497582D02*
D03*
X478582Y414619D02*
D03*
X482082Y439619D02*
D03*
X485952Y481119D02*
D03*
Y477119D02*
D03*
X514673Y478619D02*
D03*
X518452D02*
D03*
X511082Y413619D02*
D03*
X514173Y438619D02*
D03*
X514673Y482619D02*
D03*
X487692Y426619D02*
D03*
X491472D02*
D03*
X477862Y439619D02*
D03*
X522673Y478619D02*
D03*
X520173Y424619D02*
D03*
X523952Y424619D02*
D03*
X509862Y438619D02*
D03*
X469982Y173409D02*
D03*
X466203D02*
D03*
X466610Y233000D02*
D03*
X480890Y321410D02*
D03*
X477110D02*
D03*
X432482Y207500D02*
D03*
X428703D02*
D03*
X429110Y267091D02*
D03*
X432890D02*
D03*
X439610Y355500D02*
D03*
X443390D02*
D03*
X435703Y174909D02*
D03*
X439482D02*
D03*
X439890Y234500D02*
D03*
X436110D02*
D03*
X450390Y322909D02*
D03*
X446610D02*
D03*
X431482Y174909D02*
D03*
X427703D02*
D03*
X428110Y234500D02*
D03*
X431890D02*
D03*
X438610Y322909D02*
D03*
X442390D02*
D03*
X472482Y206000D02*
D03*
X468703D02*
D03*
X472890Y265591D02*
D03*
X469110D02*
D03*
X479610Y354000D02*
D03*
X483390D02*
D03*
X417982Y191000D02*
D03*
X414203D02*
D03*
X414610Y250590D02*
D03*
X425110Y339000D02*
D03*
X416703Y178500D02*
D03*
X417110Y238090D02*
D03*
X427610Y326500D02*
D03*
X416703Y186500D02*
D03*
X417110Y246091D02*
D03*
X427610Y334500D02*
D03*
X436703Y207500D02*
D03*
X440482D02*
D03*
X440890Y267091D02*
D03*
X437110D02*
D03*
X451390Y355500D02*
D03*
X447610D02*
D03*
X463390Y155500D02*
D03*
X416703Y182500D02*
D03*
X420482D02*
D03*
X417110Y242091D02*
D03*
X420890D02*
D03*
X427610Y330500D02*
D03*
X431390D02*
D03*
X464482Y187000D02*
D03*
X283390Y172000D02*
D03*
X511110Y297000D02*
D03*
X366000Y161760D02*
D03*
X362221Y161760D02*
D03*
X279610Y172000D02*
D03*
D31*
X230850Y473890D02*
D03*
X317350Y474110D02*
D03*
X402850Y474035D02*
D03*
X245850Y161500D02*
D03*
X233850Y181500D02*
D03*
X316461Y171260D02*
D03*
X237150Y473890D02*
D03*
X323650Y474110D02*
D03*
X501850Y280500D02*
D03*
X409150Y474035D02*
D03*
X322760Y171260D02*
D03*
X252150Y161500D02*
D03*
X240150Y181500D02*
D03*
X477322Y420119D02*
D03*
X483622D02*
D03*
X509413Y419119D02*
D03*
X515712D02*
D03*
X437943Y158409D02*
D03*
X444242D02*
D03*
X444650Y218000D02*
D03*
X438350D02*
D03*
X455150Y306410D02*
D03*
X448850D02*
D03*
X438943Y190409D02*
D03*
X445242D02*
D03*
X445650Y250000D02*
D03*
X439350D02*
D03*
X456150Y338409D02*
D03*
X449850D02*
D03*
X508150Y280500D02*
D03*
X322760Y165260D02*
D03*
X316461D02*
D03*
X233850Y175500D02*
D03*
X240150Y175500D02*
D03*
D33*
X462093Y179909D02*
D03*
X462384Y212500D02*
D03*
X462500Y239500D02*
D03*
X462791Y272091D02*
D03*
X473000Y327909D02*
D03*
X473291Y360500D02*
D03*
X473917Y239500D02*
D03*
X316209Y130500D02*
D03*
Y122000D02*
D03*
Y113500D02*
D03*
X304791Y130500D02*
D03*
Y122000D02*
D03*
Y113500D02*
D03*
X473510Y179909D02*
D03*
X484417Y327909D02*
D03*
X473801Y212500D02*
D03*
X474209Y272091D02*
D03*
X484709Y360500D02*
D03*
D34*
X264500Y120126D02*
D03*
X393000Y127126D02*
D03*
Y142874D02*
D03*
X264500Y135874D02*
D03*
D36*
X202559Y247000D02*
D03*
X202559Y270500D02*
D03*
X305059Y259000D02*
D03*
X324941D02*
D03*
X222441Y270500D02*
D03*
X222441Y247000D02*
D03*
D39*
X221000Y401748D02*
D03*
X308500Y397248D02*
D03*
X428500Y401248D02*
D03*
X221000Y370252D02*
D03*
X428500Y369752D02*
D03*
X308500Y365752D02*
D03*
D40*
X232260Y188598D02*
D03*
X314870Y178358D02*
D03*
X401448Y284616D02*
D03*
X401448Y294677D02*
D03*
X496740Y279902D02*
D03*
X521543Y472619D02*
D03*
X489260Y279902D02*
D03*
X322350Y178358D02*
D03*
X361850Y150858D02*
D03*
X354370D02*
D03*
X271760Y161098D02*
D03*
X279240D02*
D03*
X239740Y188598D02*
D03*
X514062Y472619D02*
D03*
X393967Y284616D02*
D03*
X393967Y294677D02*
D03*
D45*
X223474Y457205D02*
D03*
X309974Y457426D02*
D03*
X395474Y457350D02*
D03*
X236500Y159350D02*
D03*
X319110Y149110D02*
D03*
X330500Y145350D02*
D03*
X223474Y463504D02*
D03*
X309974Y463725D02*
D03*
X395474Y463650D02*
D03*
X518291Y285760D02*
D03*
X483500Y285850D02*
D03*
X469500Y218850D02*
D03*
X330500Y151650D02*
D03*
X476472Y444970D02*
D03*
Y451269D02*
D03*
X508472Y443970D02*
D03*
Y450269D02*
D03*
X518291Y292059D02*
D03*
X512291D02*
D03*
X512291Y285760D02*
D03*
X483500Y292150D02*
D03*
X469093Y159260D02*
D03*
Y165559D02*
D03*
X469500Y225150D02*
D03*
X480000Y307260D02*
D03*
Y313559D02*
D03*
X470093Y191350D02*
D03*
Y197650D02*
D03*
X470500Y250941D02*
D03*
Y257240D02*
D03*
X481000Y345650D02*
D03*
Y339350D02*
D03*
X319110Y155409D02*
D03*
X236500Y165650D02*
D03*
D49*
X257201Y346201D02*
D03*
X256961Y357760D02*
D03*
X359701Y342701D02*
D03*
X359461Y354260D02*
D03*
X422853Y164350D02*
D03*
X436352D02*
D03*
X430333Y169468D02*
D03*
X423852Y196441D02*
D03*
X431333Y201559D02*
D03*
X423260Y223941D02*
D03*
X430740Y229059D02*
D03*
X437353Y196441D02*
D03*
X443833Y169468D02*
D03*
X444833Y201559D02*
D03*
X436760Y223941D02*
D03*
X444240Y229059D02*
D03*
X424260Y256031D02*
D03*
X431740Y261150D02*
D03*
X437760Y256031D02*
D03*
X445240Y261150D02*
D03*
X433760Y312350D02*
D03*
X434760Y344441D02*
D03*
X447260Y312350D02*
D03*
X441240Y317469D02*
D03*
X454740D02*
D03*
X448260Y344441D02*
D03*
X442240Y349559D02*
D03*
X455740D02*
D03*
X359461Y356819D02*
D03*
X366941Y359378D02*
D03*
Y356819D02*
D03*
Y354260D02*
D03*
X359461Y359378D02*
D03*
X359701Y345260D02*
D03*
X367181Y347819D02*
D03*
Y345260D02*
D03*
Y342701D02*
D03*
X359701Y347819D02*
D03*
X359686Y331402D02*
D03*
Y333961D02*
D03*
X367166Y336520D02*
D03*
Y333961D02*
D03*
X367166Y331402D02*
D03*
X359686Y336520D02*
D03*
X257186Y337461D02*
D03*
X264666Y340020D02*
D03*
Y337461D02*
D03*
X264666Y334902D02*
D03*
X257186D02*
D03*
Y340020D02*
D03*
X257201Y348760D02*
D03*
X264681Y351319D02*
D03*
Y346201D02*
D03*
Y348760D02*
D03*
X257201Y351319D02*
D03*
X256961Y360319D02*
D03*
X264441Y362878D02*
D03*
Y360319D02*
D03*
Y357760D02*
D03*
X256961Y362878D02*
D03*
X436352Y166909D02*
D03*
X443833D02*
D03*
X436352Y169468D02*
D03*
X443833Y164350D02*
D03*
X444240Y223941D02*
D03*
X436760Y229059D02*
D03*
X444240Y226500D02*
D03*
X436760D02*
D03*
X447260Y317469D02*
D03*
X454740Y312350D02*
D03*
Y314910D02*
D03*
X447260D02*
D03*
X437353Y199000D02*
D03*
X444833Y199000D02*
D03*
X437353Y201559D02*
D03*
X444833Y196441D02*
D03*
X445240Y256031D02*
D03*
X437760Y261150D02*
D03*
X445240Y258591D02*
D03*
X437760D02*
D03*
X455740Y344441D02*
D03*
X448260Y349559D02*
D03*
X455740Y347000D02*
D03*
X448260D02*
D03*
X431333Y199000D02*
D03*
X423852D02*
D03*
Y201559D02*
D03*
X431333Y196441D02*
D03*
X424260Y261150D02*
D03*
X431740Y256031D02*
D03*
X424260Y258591D02*
D03*
X431740D02*
D03*
X442240Y344441D02*
D03*
X434760Y349559D02*
D03*
Y347000D02*
D03*
X442240D02*
D03*
X430333Y166909D02*
D03*
X422853D02*
D03*
Y169468D02*
D03*
X430333Y164350D02*
D03*
X430740Y223941D02*
D03*
X423260Y229059D02*
D03*
Y226500D02*
D03*
X430740D02*
D03*
X433760Y317469D02*
D03*
X441240Y312350D02*
D03*
X433760Y314910D02*
D03*
X441240D02*
D03*
D50*
X454386Y162369D02*
D03*
X455431Y194559D02*
D03*
X454794Y221959D02*
D03*
X455839Y254150D02*
D03*
X465294Y310369D02*
D03*
X466339Y342559D02*
D03*
X475000Y340000D02*
D03*
X473955Y307810D02*
D03*
X463455Y219400D02*
D03*
X454794D02*
D03*
Y224518D02*
D03*
X463455D02*
D03*
X464500Y251590D02*
D03*
X454386Y159810D02*
D03*
Y164928D02*
D03*
X463048D02*
D03*
Y159810D02*
D03*
X473955Y312928D02*
D03*
X465294Y307810D02*
D03*
Y312928D02*
D03*
X455431Y192000D02*
D03*
Y197118D02*
D03*
X464093D02*
D03*
Y192000D02*
D03*
X455839Y256709D02*
D03*
X464500D02*
D03*
X455839Y251590D02*
D03*
X475000Y345118D02*
D03*
X466339D02*
D03*
Y340000D02*
D03*
D53*
X497791Y292433D02*
D03*
D54*
X506157Y293713D02*
D03*
X489425Y291154D02*
D03*
X489425Y288595D02*
D03*
X489425Y286035D02*
D03*
X506157Y298831D02*
D03*
Y296272D02*
D03*
Y291154D02*
D03*
Y288595D02*
D03*
Y286035D02*
D03*
X489425Y298831D02*
D03*
Y296272D02*
D03*
Y293713D02*
D03*
D55*
X410053Y179969D02*
D03*
X410053Y176031D02*
D03*
X410461Y235622D02*
D03*
Y239559D02*
D03*
X420961Y324031D02*
D03*
Y327969D02*
D03*
X509448Y488607D02*
D03*
Y490576D02*
D03*
X490551D02*
D03*
Y488607D02*
D03*
X395500Y243496D02*
D03*
Y245465D02*
D03*
Y247433D02*
D03*
Y237591D02*
D03*
Y239559D02*
D03*
Y235622D02*
D03*
X509448Y482702D02*
D03*
X490551D02*
D03*
X509448Y484670D02*
D03*
X490551D02*
D03*
Y486639D02*
D03*
X509448D02*
D03*
X410053Y187843D02*
D03*
X395093Y176031D02*
D03*
Y187843D02*
D03*
X410053Y185874D02*
D03*
X410053Y183905D02*
D03*
Y181937D02*
D03*
X395093Y185874D02*
D03*
Y183905D02*
D03*
Y181937D02*
D03*
X395093Y179969D02*
D03*
X395093Y178000D02*
D03*
X410053D02*
D03*
X395500Y241528D02*
D03*
X410461D02*
D03*
Y245465D02*
D03*
Y243496D02*
D03*
Y247433D02*
D03*
Y237591D02*
D03*
X406000Y326000D02*
D03*
Y327969D02*
D03*
Y329937D02*
D03*
Y331906D02*
D03*
Y333874D02*
D03*
X420961Y331906D02*
D03*
Y333874D02*
D03*
X406000Y335842D02*
D03*
Y324031D02*
D03*
X420961Y329937D02*
D03*
Y335842D02*
D03*
Y326000D02*
D03*
D56*
X402573Y181937D02*
D03*
X402980Y241528D02*
D03*
X413480Y329937D02*
D03*
D57*
X494094Y479159D02*
D03*
X498031D02*
D03*
X411512Y339386D02*
D03*
X409543D02*
D03*
X411512Y320488D02*
D03*
X409543D02*
D03*
X401012Y250976D02*
D03*
X399043D02*
D03*
X401012Y232079D02*
D03*
X399043D02*
D03*
X400604Y191386D02*
D03*
Y172488D02*
D03*
X398636Y172488D02*
D03*
Y191386D02*
D03*
X505905Y494119D02*
D03*
X503936D02*
D03*
X501968D02*
D03*
X494094D02*
D03*
X503936Y479159D02*
D03*
X501968D02*
D03*
X500000D02*
D03*
Y494119D02*
D03*
X498031D02*
D03*
X496063D02*
D03*
Y479159D02*
D03*
X505905D02*
D03*
X402573Y191386D02*
D03*
X406510Y191386D02*
D03*
Y172488D02*
D03*
X404541Y191386D02*
D03*
Y172488D02*
D03*
X402573D02*
D03*
X402980Y232079D02*
D03*
X404949D02*
D03*
X406917D02*
D03*
Y250976D02*
D03*
X404949D02*
D03*
X402980D02*
D03*
X413480Y320488D02*
D03*
X415449Y339386D02*
D03*
X417417D02*
D03*
Y320488D02*
D03*
X415449D02*
D03*
X413480Y339386D02*
D03*
D61*
X484500Y238000D02*
D03*
X495000Y326410D02*
D03*
Y357909D02*
D03*
X484500Y269500D02*
D03*
X484093Y209910D02*
D03*
Y178409D02*
D03*
D62*
X484500Y220047D02*
D03*
X495000Y308457D02*
D03*
Y339957D02*
D03*
X484500Y251547D02*
D03*
X484093Y191957D02*
D03*
Y160457D02*
D03*
D63*
X509303Y229024D02*
D03*
X508896Y200933D02*
D03*
X509303Y260524D02*
D03*
X508896Y169433D02*
D03*
X519803Y317433D02*
D03*
Y348933D02*
D03*
D134*
X231525Y432434D02*
D03*
X318025Y432654D02*
D03*
X403525Y432579D02*
D03*
X231525Y442276D02*
D03*
Y437355D02*
D03*
X318025Y437575D02*
D03*
Y442496D02*
D03*
X403525Y437500D02*
D03*
Y442421D02*
D03*
X412974Y437500D02*
D03*
Y442421D02*
D03*
Y432579D02*
D03*
Y447342D02*
D03*
X403525D02*
D03*
X240974Y432434D02*
D03*
Y442276D02*
D03*
X240974Y437355D02*
D03*
X240974Y447197D02*
D03*
X231525D02*
D03*
X327474Y432654D02*
D03*
Y442496D02*
D03*
X318025Y447418D02*
D03*
X327474D02*
D03*
Y437575D02*
D03*
D135*
X277000Y362020D02*
D03*
X277500Y327020D02*
D03*
X277000Y348020D02*
D03*
X380000Y323520D02*
D03*
X379500Y358520D02*
D03*
Y344520D02*
D03*
X271882Y369500D02*
D03*
X374382Y366000D02*
D03*
X482413Y452859D02*
D03*
Y466359D02*
D03*
X487531Y445379D02*
D03*
Y458879D02*
D03*
X514503Y451859D02*
D03*
X519622Y444379D02*
D03*
X514503Y465359D02*
D03*
X519622Y457879D02*
D03*
X374382Y352000D02*
D03*
X376941Y352000D02*
D03*
X379500Y352000D02*
D03*
X376941Y344520D02*
D03*
X374382D02*
D03*
X376941Y366000D02*
D03*
X379500D02*
D03*
X376941Y358520D02*
D03*
X374382Y358520D02*
D03*
X374882Y331000D02*
D03*
X377441D02*
D03*
X380000D02*
D03*
X377441Y323520D02*
D03*
X374882D02*
D03*
X272382Y334500D02*
D03*
X274941D02*
D03*
X277500D02*
D03*
X274941Y327020D02*
D03*
X272382D02*
D03*
X271882Y355500D02*
D03*
X274441Y355500D02*
D03*
X277000Y355500D02*
D03*
X271882Y348020D02*
D03*
X274441D02*
D03*
Y369500D02*
D03*
X277000D02*
D03*
X274441Y362020D02*
D03*
X271882Y362020D02*
D03*
X487531Y452859D02*
D03*
X482413Y445379D02*
D03*
X484972D02*
D03*
Y452859D02*
D03*
X519622Y451859D02*
D03*
X514503Y444379D02*
D03*
X517063D02*
D03*
Y451859D02*
D03*
X519622Y465359D02*
D03*
X514503Y457879D02*
D03*
X517063Y465359D02*
D03*
Y457879D02*
D03*
X487531Y466359D02*
D03*
X482413Y458879D02*
D03*
X484972Y466359D02*
D03*
Y458879D02*
D03*
D136*
X231945Y457737D02*
D03*
X318445Y457957D02*
D03*
X403945Y457882D02*
D03*
X231945Y461674D02*
D03*
X318445Y461894D02*
D03*
X403945Y461819D02*
D03*
X326188Y461894D02*
D03*
X403945Y459850D02*
D03*
X411688Y457882D02*
D03*
Y459850D02*
D03*
Y461819D02*
D03*
X231945Y459705D02*
D03*
X239688Y459705D02*
D03*
Y457737D02*
D03*
Y461674D02*
D03*
X318445Y459926D02*
D03*
X326188D02*
D03*
Y457957D02*
D03*
D137*
X234832Y454850D02*
D03*
X236801D02*
D03*
X232864Y464561D02*
D03*
X321332Y455070D02*
D03*
X323301D02*
D03*
X319364Y464781D02*
D03*
X406832Y454995D02*
D03*
X408801D02*
D03*
X404864Y464706D02*
D03*
X410769Y454995D02*
D03*
X406832Y464706D02*
D03*
X408801D02*
D03*
X410769Y464706D02*
D03*
X404864Y454995D02*
D03*
X238769Y464561D02*
D03*
X236801D02*
D03*
X234832Y464561D02*
D03*
X238769Y454850D02*
D03*
X232864D02*
D03*
X325269Y464781D02*
D03*
X323301Y464781D02*
D03*
X321332Y464781D02*
D03*
X319364Y455070D02*
D03*
X325269Y455070D02*
D03*
D138*
X232084Y483225D02*
D03*
X234053D02*
D03*
X318584Y483446D02*
D03*
X320553D02*
D03*
X404084Y483371D02*
D03*
X406053D02*
D03*
X232084Y485194D02*
D03*
X232084Y487162D02*
D03*
X234053Y489131D02*
D03*
X236021Y483225D02*
D03*
X237990Y485194D02*
D03*
X318584Y485414D02*
D03*
Y487383D02*
D03*
X322521Y483446D02*
D03*
X320553Y489351D02*
D03*
X324490Y485414D02*
D03*
X404084Y487308D02*
D03*
Y485339D02*
D03*
X408021Y483371D02*
D03*
X409990Y485339D02*
D03*
X406053Y489276D02*
D03*
X409990Y489276D02*
D03*
Y487308D02*
D03*
Y483371D02*
D03*
X404084Y489276D02*
D03*
X408021D02*
D03*
X232084Y489131D02*
D03*
X236021Y489131D02*
D03*
X237990Y483225D02*
D03*
Y487162D02*
D03*
Y489131D02*
D03*
X322521Y489351D02*
D03*
X318584D02*
D03*
X324490Y489351D02*
D03*
Y487383D02*
D03*
Y483446D02*
D03*
D139*
X250693Y166518D02*
D03*
X264472D02*
D03*
X333303Y156278D02*
D03*
X347083D02*
D03*
X349051D02*
D03*
X345114D02*
D03*
X343146D02*
D03*
X341177D02*
D03*
X339209D02*
D03*
X337240D02*
D03*
X331335D02*
D03*
X335272D02*
D03*
X266441Y166518D02*
D03*
X262504D02*
D03*
X260535D02*
D03*
X258567D02*
D03*
X256598D02*
D03*
X254630D02*
D03*
X248724D02*
D03*
X252661D02*
D03*
D140*
X256402Y189059D02*
D03*
X260339D02*
D03*
X264276D02*
D03*
X339012Y178819D02*
D03*
X342949D02*
D03*
X346886D02*
D03*
X332516D02*
D03*
X336059D02*
D03*
X328972D02*
D03*
X249905Y189059D02*
D03*
X253449D02*
D03*
X246362D02*
D03*
D141*
X480431Y434826D02*
D03*
X512621Y433781D02*
D03*
X477872Y434826D02*
D03*
X482990D02*
D03*
X482990Y426164D02*
D03*
X477872D02*
D03*
X510063Y433781D02*
D03*
X515181D02*
D03*
Y425119D02*
D03*
X510063D02*
D03*
D142*
X500000Y486639D02*
D03*
D143*
X496472Y405119D02*
D03*
X527972Y405119D02*
D03*
D144*
X478519Y405119D02*
D03*
X510019D02*
D03*
D145*
X487496Y380316D02*
D03*
X518996D02*
D03*
D147*
X350380Y171386D02*
D03*
Y177291D02*
D03*
Y175323D02*
D03*
Y173354D02*
D03*
Y169417D02*
D03*
Y165480D02*
D03*
Y163512D02*
D03*
Y159575D02*
D03*
X327840Y157606D02*
D03*
Y160559D02*
D03*
Y163512D02*
D03*
Y165480D02*
D03*
X327839Y168433D02*
D03*
Y170402D02*
D03*
Y172370D02*
D03*
Y174339D02*
D03*
Y176307D02*
D03*
X350380Y161543D02*
D03*
X267770Y181626D02*
D03*
Y187531D02*
D03*
Y185563D02*
D03*
Y183595D02*
D03*
Y179657D02*
D03*
Y175721D02*
D03*
Y173752D02*
D03*
Y169815D02*
D03*
X245230Y167847D02*
D03*
Y170799D02*
D03*
Y173752D02*
D03*
Y175721D02*
D03*
X245228Y178673D02*
D03*
Y180642D02*
D03*
Y182610D02*
D03*
Y184579D02*
D03*
Y186547D02*
D03*
X267770Y171783D02*
D03*
D149*
X330979Y465848D02*
D03*
X244334Y465596D02*
D03*
X334474Y447575D02*
D03*
X327000Y494110D02*
D03*
X419974Y447500D02*
D03*
X412500Y494035D02*
D03*
X416379Y465999D02*
D03*
X247974Y447355D02*
D03*
X240500Y493890D02*
D03*
D150*
X346610Y194090D02*
D03*
Y235429D02*
D03*
X264000Y245669D02*
D03*
Y204331D02*
D03*
D151*
X256987Y172549D02*
D03*
X339598Y162309D02*
D03*
D152*
X258947Y177530D02*
D03*
X341558Y167290D02*
D03*
D153*
X260332Y184723D02*
D03*
X342942Y174483D02*
D03*
D154*
X332514Y173035D02*
D03*
X249905Y183275D02*
D03*
M02*
