G04*
G04 #@! TF.GenerationSoftware,Altium Limited,Altium Designer,26.2.0 (7)*
G04*
G04 Layer_Color=32896*
%FSLAX25Y25*%
%MOIN*%
G70*
G04*
G04 #@! TF.SameCoordinates,CFA4B7CB-C87C-44D2-A143-D88584ED512B*
G04*
G04*
G04 #@! TF.FilePolarity,Positive*
G04*
G01*
G75*
%ADD10C,0.00984*%
%ADD11C,0.00394*%
%ADD12C,0.00591*%
%ADD14C,0.01000*%
%ADD15C,0.00787*%
%ADD16C,0.00600*%
%ADD125C,0.01575*%
%ADD173C,0.00500*%
G36*
X330000Y129430D02*
X320464D01*
Y133570D01*
X330000D01*
Y129430D01*
D02*
G37*
G36*
Y120430D02*
X320464D01*
Y124570D01*
X330000D01*
Y120430D01*
D02*
G37*
G36*
Y111430D02*
X320464D01*
Y115570D01*
X330000D01*
Y111430D01*
D02*
G37*
%LPC*%
G36*
X323217Y132824D02*
X322508D01*
X322446Y132820D01*
X322385Y132815D01*
X322371D01*
X322352Y132810D01*
X322328Y132806D01*
X322300Y132801D01*
X322262Y132796D01*
X322181Y132782D01*
X322177D01*
X322162Y132777D01*
X322139Y132772D01*
X322106Y132763D01*
X322073Y132753D01*
X322030Y132739D01*
X321945Y132697D01*
X321940Y132692D01*
X321926Y132687D01*
X321902Y132673D01*
X321874Y132654D01*
X321803Y132602D01*
X321737Y132536D01*
X321732Y132531D01*
X321723Y132517D01*
X321708Y132498D01*
X321689Y132474D01*
X321666Y132441D01*
X321647Y132399D01*
X321623Y132356D01*
X321604Y132309D01*
Y132304D01*
X321595Y132285D01*
X321590Y132262D01*
X321581Y132224D01*
X321571Y132181D01*
X321566Y132134D01*
X321557Y132077D01*
Y132087D01*
Y131983D01*
X321562Y131940D01*
X321566Y131888D01*
X321576Y131826D01*
X321585Y131760D01*
X321604Y131689D01*
X321628Y131623D01*
X321633Y131614D01*
X321642Y131595D01*
X321656Y131562D01*
X321680Y131524D01*
X321708Y131476D01*
X321741Y131429D01*
X321784Y131382D01*
X321831Y131334D01*
X321836Y131330D01*
X321855Y131316D01*
X321883Y131292D01*
X321921Y131268D01*
X321969Y131240D01*
X322025Y131207D01*
X322087Y131178D01*
X322158Y131155D01*
X322167D01*
X322191Y131145D01*
X322233Y131136D01*
X322285Y131126D01*
X322352Y131117D01*
X322432Y131107D01*
X322517Y131103D01*
X322612Y131098D01*
X322829D01*
Y130251D01*
Y130247D01*
Y130237D01*
X322834Y130223D01*
X322844Y130209D01*
X322848D01*
X322853Y130199D01*
X322867Y130194D01*
X322891Y130185D01*
X322896D01*
X322910Y130180D01*
X322938D01*
X322971Y130176D01*
X322981D01*
X323009Y130171D01*
X323047Y130166D01*
X321557D01*
X323369D01*
D01*
X323146D01*
X323189Y130171D01*
X323231Y130176D01*
X323241D01*
X323260Y130180D01*
X323288D01*
X323317Y130185D01*
X323321D01*
X323331Y130190D01*
X323345Y130199D01*
X323359Y130209D01*
Y130213D01*
X323364Y130223D01*
X323369Y130251D01*
Y132645D01*
X323364Y132664D01*
Y132683D01*
X323350Y132730D01*
X323321Y132772D01*
X323317Y132777D01*
X323312Y132782D01*
X323283Y132801D01*
X323246Y132815D01*
X323217Y132824D01*
D02*
G37*
G36*
X328766D02*
X326566D01*
X327867D01*
X327838Y132820D01*
X327801D01*
X327720Y132815D01*
X327625Y132806D01*
X327526Y132787D01*
X327422Y132768D01*
X327328Y132739D01*
X327323D01*
X327318Y132735D01*
X327304Y132730D01*
X327285Y132725D01*
X327242Y132706D01*
X327186Y132678D01*
X327119Y132645D01*
X327048Y132602D01*
X326982Y132550D01*
X326916Y132493D01*
X326907Y132484D01*
X326888Y132465D01*
X326859Y132432D01*
X326821Y132385D01*
X326779Y132323D01*
X326736Y132257D01*
X326694Y132176D01*
X326656Y132091D01*
Y132087D01*
X326651Y132082D01*
X326646Y132068D01*
X326642Y132049D01*
X326627Y132001D01*
X326609Y131935D01*
X326594Y131850D01*
X326580Y131760D01*
X326571Y131651D01*
X326566Y131538D01*
Y131476D01*
X326571Y131443D01*
Y131410D01*
X326580Y131325D01*
X326590Y131226D01*
X326609Y131122D01*
X326632Y131013D01*
X326665Y130913D01*
Y130909D01*
X326670Y130904D01*
X326675Y130890D01*
X326684Y130871D01*
X326703Y130824D01*
X326736Y130767D01*
X326774Y130701D01*
X326821Y130630D01*
X326878Y130559D01*
X326940Y130492D01*
X326949Y130488D01*
X326973Y130464D01*
X327011Y130436D01*
X327058Y130403D01*
X327119Y130365D01*
X327195Y130327D01*
X327280Y130289D01*
X327370Y130256D01*
X327375D01*
X327380Y130251D01*
X327394D01*
X327417Y130247D01*
X327441Y130237D01*
X327469Y130232D01*
X327540Y130218D01*
X327630Y130204D01*
X327734Y130194D01*
X327848Y130185D01*
X327976Y130180D01*
X328619D01*
X328647Y130185D01*
X328685Y130194D01*
X328723Y130218D01*
X328728Y130228D01*
X328742Y130247D01*
X328761Y130289D01*
X328766Y130313D01*
Y130228D01*
Y132668D01*
X328761Y132683D01*
Y132706D01*
X328747Y132744D01*
X328737Y132768D01*
X328723Y132782D01*
X328713Y132787D01*
X328690Y132806D01*
X328657Y132820D01*
X328609Y132824D01*
X328766D01*
D02*
G37*
G36*
X324461Y132834D02*
X323946D01*
Y130166D01*
Y130336D01*
X323955Y130308D01*
X323965Y130280D01*
X323969Y130275D01*
X323974Y130261D01*
X323988Y130242D01*
X324007Y130218D01*
X324012Y130213D01*
X324026Y130204D01*
X324045Y130194D01*
X324073Y130185D01*
X324078D01*
X324097Y130180D01*
X324121Y130176D01*
X324419D01*
X324461Y130180D01*
X324504Y130190D01*
X324513Y130194D01*
X324537Y130199D01*
X324565Y130218D01*
X324598Y130237D01*
X324608Y130247D01*
X324627Y130265D01*
X324650Y130299D01*
X324683Y130341D01*
Y130346D01*
X324688Y130355D01*
X324698Y130369D01*
X324707Y130388D01*
X324735Y130440D01*
X324773Y130507D01*
X325436Y131746D01*
X325440Y131751D01*
X325445Y131765D01*
X325454Y131789D01*
X325473Y131817D01*
X325488Y131850D01*
X325511Y131893D01*
X325554Y131983D01*
X325558Y131987D01*
X325563Y132006D01*
X325573Y132030D01*
X325587Y132063D01*
X325606Y132101D01*
X325620Y132143D01*
X325658Y132233D01*
X325663D01*
Y132228D01*
Y132210D01*
X325658Y132176D01*
Y132139D01*
X325653Y132096D01*
Y132044D01*
X325648Y131935D01*
Y131930D01*
Y131912D01*
Y131883D01*
X325644Y131845D01*
Y131798D01*
Y131751D01*
Y131637D01*
Y130251D01*
Y130247D01*
Y130242D01*
X325648Y130228D01*
X325658Y130213D01*
X325667Y130204D01*
X325677Y130199D01*
X325696Y130190D01*
X325700D01*
X325715Y130185D01*
X325738Y130180D01*
X325771Y130176D01*
X325781D01*
X325804Y130171D01*
X325842Y130166D01*
X323946D01*
X326126D01*
D01*
X325932D01*
X325970Y130171D01*
X326008Y130176D01*
X326017D01*
X326036Y130180D01*
X326060Y130185D01*
X326084Y130190D01*
X326088D01*
X326098Y130194D01*
X326107Y130204D01*
X326117Y130213D01*
Y130218D01*
X326121Y130228D01*
X326126Y130251D01*
Y132645D01*
X326121Y132664D01*
Y132683D01*
X326102Y132730D01*
X326093Y132753D01*
X326074Y132772D01*
X326069Y132777D01*
X326065Y132782D01*
X326036Y132801D01*
X325994Y132815D01*
X325965Y132824D01*
X325606D01*
X325563Y132820D01*
X325521Y132810D01*
X325516D01*
X325511Y132806D01*
X325488Y132801D01*
X325454Y132787D01*
X325426Y132763D01*
X325417Y132758D01*
X325398Y132744D01*
X325374Y132716D01*
X325346Y132678D01*
X325341Y132668D01*
X325322Y132640D01*
X325298Y132602D01*
X325270Y132545D01*
X324750Y131580D01*
Y131576D01*
X324740Y131566D01*
X324735Y131547D01*
X324721Y131524D01*
X324698Y131467D01*
X324665Y131405D01*
Y131401D01*
X324655Y131391D01*
X324646Y131372D01*
X324636Y131353D01*
X324608Y131297D01*
X324579Y131235D01*
Y131230D01*
X324570Y131221D01*
X324565Y131202D01*
X324551Y131183D01*
X324527Y131131D01*
X324499Y131070D01*
Y131065D01*
X324490Y131055D01*
X324485Y131041D01*
X324471Y131017D01*
X324447Y130970D01*
X324419Y130909D01*
Y130913D01*
Y130932D01*
Y130961D01*
X324423Y130999D01*
Y131046D01*
Y131093D01*
X324428Y131207D01*
Y131216D01*
Y131235D01*
Y131263D01*
Y131301D01*
Y131349D01*
Y131396D01*
Y131500D01*
Y132744D01*
Y132749D01*
Y132753D01*
X324419Y132777D01*
X324414Y132782D01*
X324409Y132787D01*
X324395Y132796D01*
X324376Y132806D01*
X324371Y132810D01*
X324357Y132815D01*
X324334Y132820D01*
X324300Y132824D01*
X324291D01*
X324267Y132829D01*
X324229Y132834D01*
X324461D01*
D02*
G37*
%LPD*%
G36*
X322829Y131514D02*
X322546D01*
X322517Y131519D01*
X322446Y131528D01*
X322375Y131547D01*
X322371D01*
X322361Y131552D01*
X322347Y131562D01*
X322328Y131571D01*
X322281Y131599D01*
X322238Y131642D01*
X322233Y131647D01*
X322229Y131651D01*
X322219Y131666D01*
X322205Y131685D01*
X322177Y131732D01*
X322153Y131789D01*
Y131793D01*
X322148Y131803D01*
X322144Y131822D01*
X322134Y131845D01*
X322129Y131874D01*
X322125Y131907D01*
X322120Y131983D01*
Y131987D01*
Y132006D01*
X322125Y132030D01*
Y132063D01*
X322144Y132139D01*
X322153Y132176D01*
X322172Y132210D01*
Y132214D01*
X322181Y132224D01*
X322191Y132243D01*
X322205Y132262D01*
X322243Y132304D01*
X322290Y132342D01*
X322295D01*
X322304Y132347D01*
X322319Y132356D01*
X322337Y132366D01*
X322385Y132380D01*
X322442Y132394D01*
X322446D01*
X322456Y132399D01*
X322470D01*
X322494Y132403D01*
X322541Y132408D01*
X322829D01*
Y131514D01*
D02*
G37*
G36*
X328231Y130606D02*
X327914D01*
X327876Y130611D01*
X327824Y130615D01*
X327767Y130620D01*
X327706Y130630D01*
X327644Y130644D01*
X327583Y130663D01*
X327578Y130667D01*
X327559Y130672D01*
X327531Y130686D01*
X327493Y130705D01*
X327455Y130729D01*
X327413Y130757D01*
X327370Y130795D01*
X327332Y130833D01*
X327328Y130838D01*
X327313Y130852D01*
X327294Y130880D01*
X327275Y130913D01*
X327247Y130951D01*
X327223Y130999D01*
X327200Y131055D01*
X327176Y131117D01*
X327171Y131126D01*
X327167Y131150D01*
X327157Y131183D01*
X327148Y131235D01*
X327138Y131292D01*
X327134Y131363D01*
X327124Y131439D01*
Y131519D01*
Y131528D01*
Y131552D01*
Y131585D01*
X327129Y131632D01*
X327134Y131689D01*
X327143Y131746D01*
X327171Y131869D01*
Y131878D01*
X327181Y131897D01*
X327190Y131926D01*
X327205Y131964D01*
X327223Y132006D01*
X327247Y132053D01*
X327280Y132101D01*
X327313Y132148D01*
X327318Y132153D01*
X327332Y132167D01*
X327351Y132191D01*
X327380Y132214D01*
X327417Y132247D01*
X327460Y132276D01*
X327507Y132304D01*
X327564Y132333D01*
X327569Y132337D01*
X327592Y132342D01*
X327625Y132356D01*
X327668Y132370D01*
X327730Y132380D01*
X327796Y132394D01*
X327871Y132399D01*
X327961Y132403D01*
X328231D01*
Y130606D01*
D02*
G37*
G36*
X324106Y132829D02*
X324069Y132824D01*
X324059D01*
X324040Y132820D01*
X324017Y132815D01*
X323998Y132806D01*
X323993D01*
X323983Y132801D01*
X323969Y132791D01*
X323960Y132777D01*
X323955D01*
X323950Y132768D01*
X323946Y132758D01*
Y132834D01*
X324139D01*
X324106Y132829D01*
D02*
G37*
%LPC*%
G36*
X323217Y123824D02*
X322508D01*
X322446Y123820D01*
X322385Y123815D01*
X322371D01*
X322352Y123810D01*
X322328Y123805D01*
X322300Y123801D01*
X322262Y123796D01*
X322181Y123782D01*
X322177D01*
X322162Y123777D01*
X322139Y123772D01*
X322106Y123763D01*
X322073Y123753D01*
X322030Y123739D01*
X321945Y123697D01*
X321940Y123692D01*
X321926Y123687D01*
X321902Y123673D01*
X321874Y123654D01*
X321803Y123602D01*
X321737Y123536D01*
X321732Y123531D01*
X321723Y123517D01*
X321708Y123498D01*
X321689Y123474D01*
X321666Y123441D01*
X321647Y123399D01*
X321623Y123356D01*
X321604Y123309D01*
Y123304D01*
X321595Y123285D01*
X321590Y123261D01*
X321581Y123224D01*
X321571Y123181D01*
X321566Y123134D01*
X321557Y123077D01*
Y123087D01*
Y122983D01*
X321562Y122940D01*
X321566Y122888D01*
X321576Y122826D01*
X321585Y122760D01*
X321604Y122689D01*
X321628Y122623D01*
X321633Y122614D01*
X321642Y122595D01*
X321656Y122562D01*
X321680Y122524D01*
X321708Y122476D01*
X321741Y122429D01*
X321784Y122382D01*
X321831Y122334D01*
X321836Y122330D01*
X321855Y122316D01*
X321883Y122292D01*
X321921Y122268D01*
X321969Y122240D01*
X322025Y122207D01*
X322087Y122178D01*
X322158Y122155D01*
X322167D01*
X322191Y122145D01*
X322233Y122136D01*
X322285Y122126D01*
X322352Y122117D01*
X322432Y122107D01*
X322517Y122103D01*
X322612Y122098D01*
X322829D01*
Y121251D01*
Y121247D01*
Y121237D01*
X322834Y121223D01*
X322844Y121209D01*
X322848D01*
X322853Y121199D01*
X322867Y121195D01*
X322891Y121185D01*
X322896D01*
X322910Y121180D01*
X322938D01*
X322971Y121176D01*
X322981D01*
X323009Y121171D01*
X323047Y121166D01*
X321557D01*
X323369D01*
D01*
X323146D01*
X323189Y121171D01*
X323231Y121176D01*
X323241D01*
X323260Y121180D01*
X323288D01*
X323317Y121185D01*
X323321D01*
X323331Y121190D01*
X323345Y121199D01*
X323359Y121209D01*
Y121213D01*
X323364Y121223D01*
X323369Y121251D01*
Y123645D01*
X323364Y123664D01*
Y123682D01*
X323350Y123730D01*
X323321Y123772D01*
X323317Y123777D01*
X323312Y123782D01*
X323283Y123801D01*
X323246Y123815D01*
X323217Y123824D01*
D02*
G37*
G36*
X328766D02*
X326566D01*
X327867D01*
X327838Y123820D01*
X327801D01*
X327720Y123815D01*
X327625Y123805D01*
X327526Y123787D01*
X327422Y123768D01*
X327328Y123739D01*
X327323D01*
X327318Y123734D01*
X327304Y123730D01*
X327285Y123725D01*
X327242Y123706D01*
X327186Y123678D01*
X327119Y123645D01*
X327048Y123602D01*
X326982Y123550D01*
X326916Y123493D01*
X326907Y123484D01*
X326888Y123465D01*
X326859Y123432D01*
X326821Y123384D01*
X326779Y123323D01*
X326736Y123257D01*
X326694Y123176D01*
X326656Y123091D01*
Y123087D01*
X326651Y123082D01*
X326646Y123068D01*
X326642Y123049D01*
X326627Y123001D01*
X326609Y122935D01*
X326594Y122850D01*
X326580Y122760D01*
X326571Y122651D01*
X326566Y122538D01*
Y122476D01*
X326571Y122443D01*
Y122410D01*
X326580Y122325D01*
X326590Y122226D01*
X326609Y122122D01*
X326632Y122013D01*
X326665Y121914D01*
Y121909D01*
X326670Y121904D01*
X326675Y121890D01*
X326684Y121871D01*
X326703Y121824D01*
X326736Y121767D01*
X326774Y121701D01*
X326821Y121630D01*
X326878Y121559D01*
X326940Y121493D01*
X326949Y121488D01*
X326973Y121464D01*
X327011Y121436D01*
X327058Y121403D01*
X327119Y121365D01*
X327195Y121327D01*
X327280Y121289D01*
X327370Y121256D01*
X327375D01*
X327380Y121251D01*
X327394D01*
X327417Y121247D01*
X327441Y121237D01*
X327469Y121232D01*
X327540Y121218D01*
X327630Y121204D01*
X327734Y121195D01*
X327848Y121185D01*
X327976Y121180D01*
X328619D01*
X328647Y121185D01*
X328685Y121195D01*
X328723Y121218D01*
X328728Y121228D01*
X328742Y121247D01*
X328761Y121289D01*
X328766Y121313D01*
Y121228D01*
Y123668D01*
X328761Y123682D01*
Y123706D01*
X328747Y123744D01*
X328737Y123768D01*
X328723Y123782D01*
X328713Y123787D01*
X328690Y123805D01*
X328657Y123820D01*
X328609Y123824D01*
X328766D01*
D02*
G37*
G36*
X324461Y123834D02*
X323946D01*
Y121166D01*
Y121336D01*
X323955Y121308D01*
X323965Y121280D01*
X323969Y121275D01*
X323974Y121261D01*
X323988Y121242D01*
X324007Y121218D01*
X324012Y121213D01*
X324026Y121204D01*
X324045Y121195D01*
X324073Y121185D01*
X324078D01*
X324097Y121180D01*
X324121Y121176D01*
X324419D01*
X324461Y121180D01*
X324504Y121190D01*
X324513Y121195D01*
X324537Y121199D01*
X324565Y121218D01*
X324598Y121237D01*
X324608Y121247D01*
X324627Y121265D01*
X324650Y121299D01*
X324683Y121341D01*
Y121346D01*
X324688Y121355D01*
X324698Y121370D01*
X324707Y121388D01*
X324735Y121440D01*
X324773Y121507D01*
X325436Y122746D01*
X325440Y122751D01*
X325445Y122765D01*
X325454Y122789D01*
X325473Y122817D01*
X325488Y122850D01*
X325511Y122893D01*
X325554Y122983D01*
X325558Y122987D01*
X325563Y123006D01*
X325573Y123030D01*
X325587Y123063D01*
X325606Y123101D01*
X325620Y123143D01*
X325658Y123233D01*
X325663D01*
Y123228D01*
Y123210D01*
X325658Y123176D01*
Y123139D01*
X325653Y123096D01*
Y123044D01*
X325648Y122935D01*
Y122930D01*
Y122912D01*
Y122883D01*
X325644Y122845D01*
Y122798D01*
Y122751D01*
Y122637D01*
Y121251D01*
Y121247D01*
Y121242D01*
X325648Y121228D01*
X325658Y121213D01*
X325667Y121204D01*
X325677Y121199D01*
X325696Y121190D01*
X325700D01*
X325715Y121185D01*
X325738Y121180D01*
X325771Y121176D01*
X325781D01*
X325804Y121171D01*
X325842Y121166D01*
X323946D01*
X326126D01*
D01*
X325932D01*
X325970Y121171D01*
X326008Y121176D01*
X326017D01*
X326036Y121180D01*
X326060Y121185D01*
X326084Y121190D01*
X326088D01*
X326098Y121195D01*
X326107Y121204D01*
X326117Y121213D01*
Y121218D01*
X326121Y121228D01*
X326126Y121251D01*
Y123645D01*
X326121Y123664D01*
Y123682D01*
X326102Y123730D01*
X326093Y123753D01*
X326074Y123772D01*
X326069Y123777D01*
X326065Y123782D01*
X326036Y123801D01*
X325994Y123815D01*
X325965Y123824D01*
X325606D01*
X325563Y123820D01*
X325521Y123810D01*
X325516D01*
X325511Y123805D01*
X325488Y123801D01*
X325454Y123787D01*
X325426Y123763D01*
X325417Y123758D01*
X325398Y123744D01*
X325374Y123716D01*
X325346Y123678D01*
X325341Y123668D01*
X325322Y123640D01*
X325298Y123602D01*
X325270Y123545D01*
X324750Y122580D01*
Y122576D01*
X324740Y122566D01*
X324735Y122547D01*
X324721Y122524D01*
X324698Y122467D01*
X324665Y122405D01*
Y122401D01*
X324655Y122391D01*
X324646Y122372D01*
X324636Y122353D01*
X324608Y122297D01*
X324579Y122235D01*
Y122230D01*
X324570Y122221D01*
X324565Y122202D01*
X324551Y122183D01*
X324527Y122131D01*
X324499Y122070D01*
Y122065D01*
X324490Y122055D01*
X324485Y122041D01*
X324471Y122018D01*
X324447Y121970D01*
X324419Y121909D01*
Y121914D01*
Y121932D01*
Y121961D01*
X324423Y121999D01*
Y122046D01*
Y122093D01*
X324428Y122207D01*
Y122216D01*
Y122235D01*
Y122264D01*
Y122301D01*
Y122349D01*
Y122396D01*
Y122500D01*
Y123744D01*
Y123749D01*
Y123753D01*
X324419Y123777D01*
X324414Y123782D01*
X324409Y123787D01*
X324395Y123796D01*
X324376Y123805D01*
X324371Y123810D01*
X324357Y123815D01*
X324334Y123820D01*
X324300Y123824D01*
X324291D01*
X324267Y123829D01*
X324229Y123834D01*
X324461D01*
D02*
G37*
%LPD*%
G36*
X322829Y122514D02*
X322546D01*
X322517Y122519D01*
X322446Y122528D01*
X322375Y122547D01*
X322371D01*
X322361Y122552D01*
X322347Y122562D01*
X322328Y122571D01*
X322281Y122599D01*
X322238Y122642D01*
X322233Y122647D01*
X322229Y122651D01*
X322219Y122666D01*
X322205Y122685D01*
X322177Y122732D01*
X322153Y122789D01*
Y122793D01*
X322148Y122803D01*
X322144Y122822D01*
X322134Y122845D01*
X322129Y122874D01*
X322125Y122907D01*
X322120Y122983D01*
Y122987D01*
Y123006D01*
X322125Y123030D01*
Y123063D01*
X322144Y123139D01*
X322153Y123176D01*
X322172Y123210D01*
Y123214D01*
X322181Y123224D01*
X322191Y123243D01*
X322205Y123261D01*
X322243Y123304D01*
X322290Y123342D01*
X322295D01*
X322304Y123347D01*
X322319Y123356D01*
X322337Y123366D01*
X322385Y123380D01*
X322442Y123394D01*
X322446D01*
X322456Y123399D01*
X322470D01*
X322494Y123403D01*
X322541Y123408D01*
X322829D01*
Y122514D01*
D02*
G37*
G36*
X328231Y121606D02*
X327914D01*
X327876Y121611D01*
X327824Y121616D01*
X327767Y121620D01*
X327706Y121630D01*
X327644Y121644D01*
X327583Y121663D01*
X327578Y121668D01*
X327559Y121672D01*
X327531Y121686D01*
X327493Y121705D01*
X327455Y121729D01*
X327413Y121757D01*
X327370Y121795D01*
X327332Y121833D01*
X327328Y121838D01*
X327313Y121852D01*
X327294Y121880D01*
X327275Y121914D01*
X327247Y121951D01*
X327223Y121999D01*
X327200Y122055D01*
X327176Y122117D01*
X327171Y122126D01*
X327167Y122150D01*
X327157Y122183D01*
X327148Y122235D01*
X327138Y122292D01*
X327134Y122363D01*
X327124Y122439D01*
Y122519D01*
Y122528D01*
Y122552D01*
Y122585D01*
X327129Y122632D01*
X327134Y122689D01*
X327143Y122746D01*
X327171Y122869D01*
Y122878D01*
X327181Y122897D01*
X327190Y122926D01*
X327205Y122964D01*
X327223Y123006D01*
X327247Y123053D01*
X327280Y123101D01*
X327313Y123148D01*
X327318Y123153D01*
X327332Y123167D01*
X327351Y123191D01*
X327380Y123214D01*
X327417Y123247D01*
X327460Y123276D01*
X327507Y123304D01*
X327564Y123333D01*
X327569Y123337D01*
X327592Y123342D01*
X327625Y123356D01*
X327668Y123370D01*
X327730Y123380D01*
X327796Y123394D01*
X327871Y123399D01*
X327961Y123403D01*
X328231D01*
Y121606D01*
D02*
G37*
G36*
X324106Y123829D02*
X324069Y123824D01*
X324059D01*
X324040Y123820D01*
X324017Y123815D01*
X323998Y123805D01*
X323993D01*
X323983Y123801D01*
X323969Y123791D01*
X323960Y123777D01*
X323955D01*
X323950Y123768D01*
X323946Y123758D01*
Y123834D01*
X324139D01*
X324106Y123829D01*
D02*
G37*
%LPC*%
G36*
X323369Y114824D02*
D01*
Y114645D01*
X323364Y114664D01*
Y114682D01*
X323350Y114730D01*
X323321Y114772D01*
X323317Y114777D01*
X323312Y114782D01*
X323283Y114801D01*
X323246Y114815D01*
X323217Y114824D01*
X322508D01*
X322446Y114820D01*
X322385Y114815D01*
X322371D01*
X322352Y114810D01*
X322328Y114805D01*
X322300Y114801D01*
X322262Y114796D01*
X322181Y114782D01*
X322177D01*
X322162Y114777D01*
X322139Y114772D01*
X322106Y114763D01*
X322073Y114753D01*
X322030Y114739D01*
X321945Y114697D01*
X321940Y114692D01*
X321926Y114687D01*
X321902Y114673D01*
X321874Y114654D01*
X321803Y114602D01*
X321737Y114536D01*
X321732Y114531D01*
X321723Y114517D01*
X321708Y114498D01*
X321689Y114474D01*
X321666Y114441D01*
X321647Y114399D01*
X321623Y114356D01*
X321604Y114309D01*
Y114304D01*
X321595Y114285D01*
X321590Y114261D01*
X321581Y114224D01*
X321571Y114181D01*
X321566Y114134D01*
X321557Y114077D01*
Y113982D01*
X321562Y113940D01*
X321566Y113888D01*
X321576Y113826D01*
X321585Y113760D01*
X321604Y113689D01*
X321628Y113623D01*
X321633Y113613D01*
X321642Y113595D01*
X321656Y113561D01*
X321680Y113524D01*
X321708Y113476D01*
X321741Y113429D01*
X321784Y113382D01*
X321831Y113334D01*
X321836Y113330D01*
X321855Y113315D01*
X321883Y113292D01*
X321921Y113268D01*
X321969Y113240D01*
X322025Y113207D01*
X322087Y113178D01*
X322158Y113155D01*
X322167D01*
X322191Y113145D01*
X322233Y113136D01*
X322285Y113126D01*
X322352Y113117D01*
X322432Y113107D01*
X322517Y113103D01*
X322612Y113098D01*
X322829D01*
Y112251D01*
Y112247D01*
Y112237D01*
X322834Y112223D01*
X322844Y112209D01*
X322848D01*
X322853Y112199D01*
X322867Y112195D01*
X322891Y112185D01*
X322896D01*
X322910Y112180D01*
X322938D01*
X322971Y112176D01*
X322981D01*
X323009Y112171D01*
X323047Y112166D01*
X321557D01*
X323369D01*
Y114824D01*
D02*
G37*
G36*
X328766D02*
X326566D01*
X327867D01*
X327838Y114820D01*
X327801D01*
X327720Y114815D01*
X327625Y114805D01*
X327526Y114787D01*
X327422Y114768D01*
X327328Y114739D01*
X327323D01*
X327318Y114734D01*
X327304Y114730D01*
X327285Y114725D01*
X327242Y114706D01*
X327186Y114678D01*
X327119Y114645D01*
X327048Y114602D01*
X326982Y114550D01*
X326916Y114493D01*
X326907Y114484D01*
X326888Y114465D01*
X326859Y114432D01*
X326821Y114384D01*
X326779Y114323D01*
X326736Y114257D01*
X326694Y114176D01*
X326656Y114091D01*
Y114086D01*
X326651Y114082D01*
X326646Y114068D01*
X326642Y114049D01*
X326627Y114001D01*
X326609Y113935D01*
X326594Y113850D01*
X326580Y113760D01*
X326571Y113651D01*
X326566Y113538D01*
Y113476D01*
X326571Y113443D01*
Y113410D01*
X326580Y113325D01*
X326590Y113226D01*
X326609Y113122D01*
X326632Y113013D01*
X326665Y112914D01*
Y112909D01*
X326670Y112904D01*
X326675Y112890D01*
X326684Y112871D01*
X326703Y112824D01*
X326736Y112767D01*
X326774Y112701D01*
X326821Y112630D01*
X326878Y112559D01*
X326940Y112493D01*
X326949Y112488D01*
X326973Y112464D01*
X327011Y112436D01*
X327058Y112403D01*
X327119Y112365D01*
X327195Y112327D01*
X327280Y112289D01*
X327370Y112256D01*
X327375D01*
X327380Y112251D01*
X327394D01*
X327417Y112247D01*
X327441Y112237D01*
X327469Y112232D01*
X327540Y112218D01*
X327630Y112204D01*
X327734Y112195D01*
X327848Y112185D01*
X327976Y112180D01*
X328619D01*
X328647Y112185D01*
X328685Y112195D01*
X328723Y112218D01*
X328728Y112228D01*
X328742Y112247D01*
X328761Y112289D01*
X328766Y112313D01*
Y112228D01*
Y114668D01*
X328761Y114682D01*
Y114706D01*
X328747Y114744D01*
X328737Y114768D01*
X328723Y114782D01*
X328713Y114787D01*
X328690Y114805D01*
X328657Y114820D01*
X328609Y114824D01*
X328766D01*
D02*
G37*
G36*
X324461Y114834D02*
X323946D01*
Y112166D01*
Y112336D01*
X323955Y112308D01*
X323965Y112280D01*
X323969Y112275D01*
X323974Y112261D01*
X323988Y112242D01*
X324007Y112218D01*
X324012Y112213D01*
X324026Y112204D01*
X324045Y112195D01*
X324073Y112185D01*
X324078D01*
X324097Y112180D01*
X324121Y112176D01*
X324419D01*
X324461Y112180D01*
X324504Y112190D01*
X324513Y112195D01*
X324537Y112199D01*
X324565Y112218D01*
X324598Y112237D01*
X324608Y112247D01*
X324627Y112266D01*
X324650Y112299D01*
X324683Y112341D01*
Y112346D01*
X324688Y112355D01*
X324698Y112370D01*
X324707Y112388D01*
X324735Y112441D01*
X324773Y112507D01*
X325436Y113746D01*
X325440Y113751D01*
X325445Y113765D01*
X325454Y113788D01*
X325473Y113817D01*
X325488Y113850D01*
X325511Y113893D01*
X325554Y113982D01*
X325558Y113987D01*
X325563Y114006D01*
X325573Y114030D01*
X325587Y114063D01*
X325606Y114101D01*
X325620Y114143D01*
X325658Y114233D01*
X325663D01*
Y114228D01*
Y114209D01*
X325658Y114176D01*
Y114139D01*
X325653Y114096D01*
Y114044D01*
X325648Y113935D01*
Y113930D01*
Y113911D01*
Y113883D01*
X325644Y113845D01*
Y113798D01*
Y113751D01*
Y113637D01*
Y112251D01*
Y112247D01*
Y112242D01*
X325648Y112228D01*
X325658Y112213D01*
X325667Y112204D01*
X325677Y112199D01*
X325696Y112190D01*
X325700D01*
X325715Y112185D01*
X325738Y112180D01*
X325771Y112176D01*
X325781D01*
X325804Y112171D01*
X325842Y112166D01*
X323946D01*
X326126D01*
D01*
X325932D01*
X325970Y112171D01*
X326008Y112176D01*
X326017D01*
X326036Y112180D01*
X326060Y112185D01*
X326084Y112190D01*
X326088D01*
X326098Y112195D01*
X326107Y112204D01*
X326117Y112213D01*
Y112218D01*
X326121Y112228D01*
X326126Y112251D01*
Y114645D01*
X326121Y114664D01*
Y114682D01*
X326102Y114730D01*
X326093Y114753D01*
X326074Y114772D01*
X326069Y114777D01*
X326065Y114782D01*
X326036Y114801D01*
X325994Y114815D01*
X325965Y114824D01*
X325606D01*
X325563Y114820D01*
X325521Y114810D01*
X325516D01*
X325511Y114805D01*
X325488Y114801D01*
X325454Y114787D01*
X325426Y114763D01*
X325417Y114758D01*
X325398Y114744D01*
X325374Y114716D01*
X325346Y114678D01*
X325341Y114668D01*
X325322Y114640D01*
X325298Y114602D01*
X325270Y114545D01*
X324750Y113580D01*
Y113576D01*
X324740Y113566D01*
X324735Y113547D01*
X324721Y113524D01*
X324698Y113467D01*
X324665Y113405D01*
Y113401D01*
X324655Y113391D01*
X324646Y113372D01*
X324636Y113353D01*
X324608Y113297D01*
X324579Y113235D01*
Y113230D01*
X324570Y113221D01*
X324565Y113202D01*
X324551Y113183D01*
X324527Y113131D01*
X324499Y113070D01*
Y113065D01*
X324490Y113055D01*
X324485Y113041D01*
X324471Y113017D01*
X324447Y112970D01*
X324419Y112909D01*
Y112914D01*
Y112932D01*
Y112961D01*
X324423Y112999D01*
Y113046D01*
Y113093D01*
X324428Y113207D01*
Y113216D01*
Y113235D01*
Y113263D01*
Y113301D01*
Y113349D01*
Y113396D01*
Y113500D01*
Y114744D01*
Y114749D01*
Y114753D01*
X324419Y114777D01*
X324414Y114782D01*
X324409Y114787D01*
X324395Y114796D01*
X324376Y114805D01*
X324371Y114810D01*
X324357Y114815D01*
X324334Y114820D01*
X324300Y114824D01*
X324291D01*
X324267Y114829D01*
X324229Y114834D01*
X324461D01*
D02*
G37*
%LPD*%
G36*
X322829Y113514D02*
X322546D01*
X322517Y113519D01*
X322446Y113528D01*
X322375Y113547D01*
X322371D01*
X322361Y113552D01*
X322347Y113561D01*
X322328Y113571D01*
X322281Y113599D01*
X322238Y113642D01*
X322233Y113647D01*
X322229Y113651D01*
X322219Y113666D01*
X322205Y113684D01*
X322177Y113732D01*
X322153Y113788D01*
Y113793D01*
X322148Y113803D01*
X322144Y113822D01*
X322134Y113845D01*
X322129Y113874D01*
X322125Y113907D01*
X322120Y113982D01*
Y113987D01*
Y114006D01*
X322125Y114030D01*
Y114063D01*
X322144Y114139D01*
X322153Y114176D01*
X322172Y114209D01*
Y114214D01*
X322181Y114224D01*
X322191Y114243D01*
X322205Y114261D01*
X322243Y114304D01*
X322290Y114342D01*
X322295D01*
X322304Y114347D01*
X322319Y114356D01*
X322337Y114366D01*
X322385Y114380D01*
X322442Y114394D01*
X322446D01*
X322456Y114399D01*
X322470D01*
X322494Y114403D01*
X322541Y114408D01*
X322829D01*
Y113514D01*
D02*
G37*
G36*
X323369Y112166D02*
X323146D01*
X323189Y112171D01*
X323231Y112176D01*
X323241D01*
X323260Y112180D01*
X323288D01*
X323317Y112185D01*
X323321D01*
X323331Y112190D01*
X323345Y112199D01*
X323359Y112209D01*
Y112213D01*
X323364Y112223D01*
X323369Y112251D01*
Y112166D01*
D02*
G37*
G36*
X328231Y112606D02*
X327914D01*
X327876Y112611D01*
X327824Y112616D01*
X327767Y112620D01*
X327706Y112630D01*
X327644Y112644D01*
X327583Y112663D01*
X327578Y112668D01*
X327559Y112672D01*
X327531Y112686D01*
X327493Y112705D01*
X327455Y112729D01*
X327413Y112757D01*
X327370Y112795D01*
X327332Y112833D01*
X327328Y112838D01*
X327313Y112852D01*
X327294Y112880D01*
X327275Y112914D01*
X327247Y112951D01*
X327223Y112999D01*
X327200Y113055D01*
X327176Y113117D01*
X327171Y113126D01*
X327167Y113150D01*
X327157Y113183D01*
X327148Y113235D01*
X327138Y113292D01*
X327134Y113363D01*
X327124Y113438D01*
Y113519D01*
Y113528D01*
Y113552D01*
Y113585D01*
X327129Y113632D01*
X327134Y113689D01*
X327143Y113746D01*
X327171Y113869D01*
Y113878D01*
X327181Y113897D01*
X327190Y113926D01*
X327205Y113963D01*
X327223Y114006D01*
X327247Y114053D01*
X327280Y114101D01*
X327313Y114148D01*
X327318Y114153D01*
X327332Y114167D01*
X327351Y114191D01*
X327380Y114214D01*
X327417Y114247D01*
X327460Y114276D01*
X327507Y114304D01*
X327564Y114332D01*
X327569Y114337D01*
X327592Y114342D01*
X327625Y114356D01*
X327668Y114370D01*
X327730Y114380D01*
X327796Y114394D01*
X327871Y114399D01*
X327961Y114403D01*
X328231D01*
Y112606D01*
D02*
G37*
G36*
X324106Y114829D02*
X324069Y114824D01*
X324059D01*
X324040Y114820D01*
X324017Y114815D01*
X323998Y114805D01*
X323993D01*
X323983Y114801D01*
X323969Y114791D01*
X323960Y114777D01*
X323955D01*
X323950Y114768D01*
X323946Y114758D01*
Y114834D01*
X324139D01*
X324106Y114829D01*
D02*
G37*
D10*
X474838Y406891D02*
G03*
X474838Y406891I-492J0D01*
G01*
X326602Y183047D02*
G03*
X326602Y183047I-492J0D01*
G01*
X243992Y193287D02*
G03*
X243992Y193287I-492J0D01*
G01*
X457972Y215005D02*
G03*
X457972Y215005I-492J0D01*
G01*
X483220Y215874D02*
G03*
X483220Y215874I-492J0D01*
G01*
X493720Y304283D02*
G03*
X493720Y304283I-492J0D01*
G01*
X506338Y406891D02*
G03*
X506338Y406891I-492J0D01*
G01*
X493720Y335784D02*
G03*
X493720Y335784I-492J0D01*
G01*
X483220Y247374D02*
G03*
X483220Y247374I-492J0D01*
G01*
X482813Y187784D02*
G03*
X482813Y187784I-492J0D01*
G01*
Y156283D02*
G03*
X482813Y156283I-492J0D01*
G01*
X371933Y352260D02*
G03*
X371933Y352260I-492J0D01*
G01*
X359693Y351319D02*
G03*
X359693Y351319I-492J0D01*
G01*
X371933Y366260D02*
G03*
X371933Y366260I-492J0D01*
G01*
X359933Y339760D02*
G03*
X359933Y339760I-492J0D01*
G01*
X372433Y331260D02*
G03*
X372433Y331260I-492J0D01*
G01*
X359918Y328461D02*
G03*
X359918Y328461I-492J0D01*
G01*
X257418Y331961D02*
G03*
X257418Y331961I-492J0D01*
G01*
X269933Y334760D02*
G03*
X269933Y334760I-492J0D01*
G01*
X257433Y343260D02*
G03*
X257433Y343260I-492J0D01*
G01*
X269433Y355760D02*
G03*
X269433Y355760I-492J0D01*
G01*
Y369760D02*
G03*
X269433Y369760I-492J0D01*
G01*
X257193Y354819D02*
G03*
X257193Y354819I-492J0D01*
G01*
X475412Y434826D02*
G03*
X475412Y434826I-492J0D01*
G01*
X491992Y496639D02*
G03*
X491992Y496639I-492J0D01*
G01*
X507602Y433781D02*
G03*
X507602Y433781I-492J0D01*
G01*
X490964Y445119D02*
G03*
X490964Y445119I-492J0D01*
G01*
X523055Y444119D02*
G03*
X523055Y444119I-492J0D01*
G01*
X523055Y457619D02*
G03*
X523055Y457619I-492J0D01*
G01*
X490964Y458619D02*
G03*
X490964Y458619I-492J0D01*
G01*
X486023Y282448D02*
G03*
X486023Y282448I-492J0D01*
G01*
X454879Y156857D02*
G03*
X454879Y156857I-492J0D01*
G01*
X465786Y304857D02*
G03*
X465786Y304857I-492J0D01*
G01*
X393065Y173437D02*
G03*
X393065Y173437I-492J0D01*
G01*
X393472Y233028D02*
G03*
X393472Y233028I-492J0D01*
G01*
X403972Y321437D02*
G03*
X403972Y321437I-492J0D01*
G01*
X455923Y189047D02*
G03*
X455923Y189047I-492J0D01*
G01*
X456331Y248638D02*
G03*
X456331Y248638I-492J0D01*
G01*
X466831Y337047D02*
G03*
X466831Y337047I-492J0D01*
G01*
X444585Y172409D02*
G03*
X444585Y172409I-492J0D01*
G01*
X444992Y232000D02*
G03*
X444992Y232000I-492J0D01*
G01*
X455492Y320409D02*
G03*
X455492Y320409I-492J0D01*
G01*
X445585Y204500D02*
G03*
X445585Y204500I-492J0D01*
G01*
X445992Y264090D02*
G03*
X445992Y264090I-492J0D01*
G01*
X456492Y352500D02*
G03*
X456492Y352500I-492J0D01*
G01*
X432085Y204500D02*
G03*
X432085Y204500I-492J0D01*
G01*
X432492Y264090D02*
G03*
X432492Y264090I-492J0D01*
G01*
X442992Y352500D02*
G03*
X442992Y352500I-492J0D01*
G01*
X431085Y172409D02*
G03*
X431085Y172409I-492J0D01*
G01*
X431492Y232000D02*
G03*
X431492Y232000I-492J0D01*
G01*
X441992Y320409D02*
G03*
X441992Y320409I-492J0D01*
G01*
X270504Y139811D02*
G03*
X270504Y139811I-492J0D01*
G01*
X399004Y146811D02*
G03*
X399004Y146811I-492J0D01*
G01*
D11*
X405606Y476200D02*
X406394D01*
X405606Y471870D02*
X406394D01*
X393309Y460106D02*
Y460894D01*
X397639Y460106D02*
Y460894D01*
X233606Y471724D02*
X234394Y471724D01*
X233606Y476055D02*
X234394D01*
X225639Y459961D02*
Y460748D01*
X221309Y459961D02*
Y460748D01*
X320106Y471945D02*
X320894Y471945D01*
X320106Y476276D02*
X320894Y476276D01*
X312139Y460182D02*
Y460969D01*
X307809Y460182D02*
X307809Y460969D01*
X357323Y147807D02*
X358898D01*
X357323Y153909D02*
X358898D01*
X332665Y148894D02*
X332665Y148106D01*
X328335Y148894D02*
X328335Y148106D01*
X317823Y175307D02*
X319398D01*
X317823Y181409D02*
X319398D01*
X319216Y169095D02*
X320004D01*
X319216Y173425D02*
X320004D01*
X274713Y164150D02*
X276287D01*
X274713Y158047D02*
X276287D01*
X248606Y163665D02*
X249394D01*
X248606Y159335D02*
X249394D01*
X235213Y191650D02*
X236787D01*
X235213Y185547D02*
X236787D01*
X236606Y183665D02*
X237394D01*
X236606Y179335D02*
X237394D01*
X480078Y417954D02*
X480866Y417954D01*
X480078Y422285D02*
X480866Y422285D01*
X474307Y448513D02*
X474307Y447726D01*
X478637D02*
X478637Y448513D01*
X517015Y475670D02*
X518590D01*
X517015Y469568D02*
X518590D01*
X512169Y416954D02*
X512956Y416954D01*
X512169Y421285D02*
X512956Y421285D01*
X506307Y446726D02*
Y447513D01*
X510637Y446726D02*
Y447513D01*
X516126Y288516D02*
X516126Y289303D01*
X520457D02*
X520457Y288516D01*
X479051Y293787D02*
X479051Y292213D01*
X472949Y293787D02*
X472949Y292213D01*
X510126Y288516D02*
Y289303D01*
X514457D02*
X514457Y288516D01*
X481335Y288606D02*
X481335Y289394D01*
X485665Y288606D02*
Y289394D01*
X471258Y162016D02*
Y162803D01*
X466927Y162016D02*
Y162803D01*
X467335Y221606D02*
Y222394D01*
X471665Y221606D02*
Y222394D01*
X477835Y310016D02*
Y310803D01*
X482165Y310016D02*
Y310803D01*
X440699Y156244D02*
X441486D01*
X440699Y160575D02*
X441486D01*
X441106Y220165D02*
X441894D01*
X441106Y215835D02*
X441894D01*
X451606Y308575D02*
X452394D01*
X451606Y304244D02*
X452394D01*
X413542Y198953D02*
Y200528D01*
X419644Y198953D02*
Y200528D01*
X420051Y258543D02*
Y260118D01*
X413949Y258543D02*
Y260118D01*
X430551Y346953D02*
Y348528D01*
X424449Y346953D02*
Y348528D01*
X472258Y194106D02*
Y194894D01*
X467927Y194106D02*
Y194894D01*
X468335Y253697D02*
Y254484D01*
X472665Y253697D02*
Y254484D01*
X478835Y342106D02*
Y342894D01*
X483165Y342106D02*
Y342894D01*
X441699Y188244D02*
X442486D01*
X441699Y192575D02*
X442486D01*
X442106Y252165D02*
X442894D01*
X442106Y247835D02*
X442894D01*
X452606Y340575D02*
X453394D01*
X452606Y336244D02*
X453394D01*
X492213Y276850D02*
X493787D01*
X492213Y282953D02*
X493787D01*
X396920Y281565D02*
X398495D01*
X396920Y287667D02*
X398495D01*
X504606Y282665D02*
X505394D01*
X504606Y278335D02*
X505394D01*
X396920Y291626D02*
X398495D01*
X396920Y297728D02*
X398495D01*
X316945Y152654D02*
X316945Y151866D01*
X321276D02*
Y152654D01*
X319216Y167425D02*
X320004D01*
X319216Y163094D02*
X320004D01*
X236606Y173335D02*
X237394Y173335D01*
X236606Y177665D02*
X237394D01*
X238665Y162106D02*
X238665Y162894D01*
X234335Y162106D02*
X234335Y162894D01*
D12*
X402411Y481697D02*
X402411Y490949D01*
X402411Y481697D02*
X411663D01*
Y490949D01*
X402411D02*
X411663D01*
X230411Y490804D02*
X239663D01*
Y481552D02*
Y490804D01*
X230411Y481552D02*
X239663D01*
X230411D02*
X230411Y490804D01*
X316911Y481773D02*
X316911Y491024D01*
X316911Y481773D02*
X326163D01*
Y491024D01*
X316911D02*
X326163D01*
X470787Y383936D02*
X469213D01*
X468819Y384329D01*
Y385116D01*
X469213Y385510D01*
X470787D01*
X471181Y385116D01*
Y384329D01*
X470394Y384723D02*
X471181Y383936D01*
Y384329D02*
X470787Y383936D01*
X468819Y381574D02*
Y383149D01*
X470000D01*
X469606Y382361D01*
Y381968D01*
X470000Y381574D01*
X470787D01*
X471181Y381968D01*
Y382755D01*
X470787Y383149D01*
X469213Y380787D02*
X468819Y380394D01*
Y379606D01*
X469213Y379213D01*
X470787D01*
X471181Y379606D01*
Y380394D01*
X470787Y380787D01*
X469213D01*
Y378426D02*
X468819Y378032D01*
Y377245D01*
X469213Y376851D01*
X469606D01*
X470000Y377245D01*
Y377639D01*
Y377245D01*
X470394Y376851D01*
X470787D01*
X471181Y377245D01*
Y378032D01*
X470787Y378426D01*
X471181Y376064D02*
X469606D01*
X468819Y375277D01*
X469606Y374490D01*
X471181D01*
X470000D01*
Y376064D01*
X536287Y384739D02*
X534713D01*
X534319Y385133D01*
Y385920D01*
X534713Y386313D01*
X536287D01*
X536681Y385920D01*
Y385133D01*
X535894Y385526D02*
X536681Y384739D01*
Y385133D02*
X536287Y384739D01*
X534319Y382378D02*
Y383952D01*
X535500D01*
X535106Y383165D01*
Y382771D01*
X535500Y382378D01*
X536287D01*
X536681Y382771D01*
Y383558D01*
X536287Y383952D01*
X534713Y381590D02*
X534319Y381197D01*
Y380410D01*
X534713Y380016D01*
X536287D01*
X536681Y380410D01*
Y381197D01*
X536287Y381590D01*
X534713D01*
X536681Y379229D02*
Y378442D01*
Y378835D01*
X534319D01*
X534713Y379229D01*
X536681Y377261D02*
X535106D01*
X534319Y376474D01*
X535106Y375687D01*
X536681D01*
X535500D01*
Y377261D01*
X366600Y181181D02*
Y179213D01*
X366207Y178819D01*
X365420D01*
X365026Y179213D01*
Y181181D01*
X364239Y178819D02*
X363452D01*
X363845D01*
Y181181D01*
X364239Y180787D01*
X362271Y178819D02*
X361484D01*
X361877D01*
Y181181D01*
X362271Y180787D01*
X360303D02*
X359910Y181181D01*
X359122D01*
X358729Y180787D01*
Y179213D01*
X359122Y178819D01*
X359910D01*
X360303Y179213D01*
Y180787D01*
X357942Y178819D02*
X357155D01*
X357548D01*
Y181181D01*
X357942Y180787D01*
X355974Y181181D02*
Y178819D01*
X354793D01*
X354400Y179213D01*
Y179606D01*
X354793Y180000D01*
X355974D01*
X354793D01*
X354400Y180394D01*
Y180787D01*
X354793Y181181D01*
X355974D01*
X284600Y191181D02*
Y189213D01*
X284207Y188819D01*
X283420D01*
X283026Y189213D01*
Y191181D01*
X282239Y188819D02*
X281452D01*
X281845D01*
Y191181D01*
X282239Y190787D01*
X280271Y188819D02*
X279484D01*
X279877D01*
Y191181D01*
X280271Y190787D01*
X278303D02*
X277910Y191181D01*
X277122D01*
X276729Y190787D01*
Y189213D01*
X277122Y188819D01*
X277910D01*
X278303Y189213D01*
Y190787D01*
X275942Y188819D02*
X275155D01*
X275548D01*
Y191181D01*
X275942Y190787D01*
X273974Y188819D02*
Y190394D01*
X273187Y191181D01*
X272400Y190394D01*
Y188819D01*
Y190000D01*
X273974D01*
X425510Y472181D02*
Y470213D01*
X425116Y469819D01*
X424329D01*
X423936Y470213D01*
Y472181D01*
X421968Y469819D02*
Y472181D01*
X423149Y471000D01*
X421574D01*
X420787Y471787D02*
X420394Y472181D01*
X419606D01*
X419213Y471787D01*
Y470213D01*
X419606Y469819D01*
X420394D01*
X420787Y470213D01*
Y471787D01*
X418426D02*
X418032Y472181D01*
X417245D01*
X416851Y471787D01*
Y471394D01*
X417245Y471000D01*
X417639D01*
X417245D01*
X416851Y470606D01*
Y470213D01*
X417245Y469819D01*
X418032D01*
X418426Y470213D01*
X414490Y471787D02*
X414884Y472181D01*
X415671D01*
X416064Y471787D01*
Y470213D01*
X415671Y469819D01*
X414884D01*
X414490Y470213D01*
X340010Y472181D02*
Y470213D01*
X339616Y469819D01*
X338829D01*
X338436Y470213D01*
Y472181D01*
X336468Y469819D02*
Y472181D01*
X337649Y471000D01*
X336074D01*
X335287Y471787D02*
X334894Y472181D01*
X334106D01*
X333713Y471787D01*
Y470213D01*
X334106Y469819D01*
X334894D01*
X335287Y470213D01*
Y471787D01*
X332926D02*
X332532Y472181D01*
X331745D01*
X331351Y471787D01*
Y471394D01*
X331745Y471000D01*
X332138D01*
X331745D01*
X331351Y470606D01*
Y470213D01*
X331745Y469819D01*
X332532D01*
X332926Y470213D01*
X330564Y472181D02*
Y469819D01*
X329383D01*
X328990Y470213D01*
Y470606D01*
X329383Y471000D01*
X330564D01*
X329383D01*
X328990Y471394D01*
Y471787D01*
X329383Y472181D01*
X330564D01*
X254510Y471681D02*
Y469713D01*
X254116Y469319D01*
X253329D01*
X252936Y469713D01*
Y471681D01*
X250968Y469319D02*
Y471681D01*
X252149Y470500D01*
X250574D01*
X249787Y471287D02*
X249394Y471681D01*
X248606D01*
X248213Y471287D01*
Y469713D01*
X248606Y469319D01*
X249394D01*
X249787Y469713D01*
Y471287D01*
X247426D02*
X247032Y471681D01*
X246245D01*
X245851Y471287D01*
Y470894D01*
X246245Y470500D01*
X246638D01*
X246245D01*
X245851Y470106D01*
Y469713D01*
X246245Y469319D01*
X247032D01*
X247426Y469713D01*
X245064Y469319D02*
Y470894D01*
X244277Y471681D01*
X243490Y470894D01*
Y469319D01*
Y470500D01*
X245064D01*
X400510Y491681D02*
Y489713D01*
X400116Y489319D01*
X399329D01*
X398936Y489713D01*
Y491681D01*
X396968Y489319D02*
Y491681D01*
X398149Y490500D01*
X396574D01*
X395787Y491287D02*
X395394Y491681D01*
X394606D01*
X394213Y491287D01*
Y489713D01*
X394606Y489319D01*
X395394D01*
X395787Y489713D01*
Y491287D01*
X391851Y489319D02*
X393426D01*
X391851Y490894D01*
Y491287D01*
X392245Y491681D01*
X393032D01*
X393426Y491287D01*
X389490D02*
X389883Y491681D01*
X390671D01*
X391064Y491287D01*
Y489713D01*
X390671Y489319D01*
X389883D01*
X389490Y489713D01*
X315010Y492181D02*
Y490213D01*
X314616Y489819D01*
X313829D01*
X313436Y490213D01*
Y492181D01*
X311468Y489819D02*
Y492181D01*
X312649Y491000D01*
X311074D01*
X310287Y491787D02*
X309894Y492181D01*
X309106D01*
X308713Y491787D01*
Y490213D01*
X309106Y489819D01*
X309894D01*
X310287Y490213D01*
Y491787D01*
X306351Y489819D02*
X307926D01*
X306351Y491394D01*
Y491787D01*
X306745Y492181D01*
X307532D01*
X307926Y491787D01*
X305564Y492181D02*
Y489819D01*
X304383D01*
X303990Y490213D01*
Y490606D01*
X304383Y491000D01*
X305564D01*
X304383D01*
X303990Y491394D01*
Y491787D01*
X304383Y492181D01*
X305564D01*
X265010Y488181D02*
Y486213D01*
X264616Y485819D01*
X263829D01*
X263436Y486213D01*
Y488181D01*
X261468Y485819D02*
Y488181D01*
X262649Y487000D01*
X261074D01*
X260287Y487787D02*
X259894Y488181D01*
X259106D01*
X258713Y487787D01*
Y486213D01*
X259106Y485819D01*
X259894D01*
X260287Y486213D01*
Y487787D01*
X256351Y485819D02*
X257926D01*
X256351Y487394D01*
Y487787D01*
X256745Y488181D01*
X257532D01*
X257926Y487787D01*
X255564Y485819D02*
Y487394D01*
X254777Y488181D01*
X253990Y487394D01*
Y485819D01*
Y487000D01*
X255564D01*
X413813Y428181D02*
Y426213D01*
X413420Y425819D01*
X412633D01*
X412239Y426213D01*
Y428181D01*
X410271Y425819D02*
Y428181D01*
X411452Y427000D01*
X409877D01*
X409090Y427787D02*
X408697Y428181D01*
X407910D01*
X407516Y427787D01*
Y426213D01*
X407910Y425819D01*
X408697D01*
X409090Y426213D01*
Y427787D01*
X406729Y425819D02*
X405942D01*
X406335D01*
Y428181D01*
X406729Y427787D01*
X403187D02*
X403580Y428181D01*
X404367D01*
X404761Y427787D01*
Y426213D01*
X404367Y425819D01*
X403580D01*
X403187Y426213D01*
X328813Y428181D02*
Y426213D01*
X328420Y425819D01*
X327632D01*
X327239Y426213D01*
Y428181D01*
X325271Y425819D02*
Y428181D01*
X326452Y427000D01*
X324878D01*
X324090Y427787D02*
X323697Y428181D01*
X322910D01*
X322516Y427787D01*
Y426213D01*
X322910Y425819D01*
X323697D01*
X324090Y426213D01*
Y427787D01*
X321729Y425819D02*
X320942D01*
X321335D01*
Y428181D01*
X321729Y427787D01*
X319761Y428181D02*
Y425819D01*
X318580D01*
X318187Y426213D01*
Y426606D01*
X318580Y427000D01*
X319761D01*
X318580D01*
X318187Y427394D01*
Y427787D01*
X318580Y428181D01*
X319761D01*
X241813Y427681D02*
Y425713D01*
X241420Y425319D01*
X240633D01*
X240239Y425713D01*
Y427681D01*
X238271Y425319D02*
Y427681D01*
X239452Y426500D01*
X237877D01*
X237090Y427287D02*
X236697Y427681D01*
X235910D01*
X235516Y427287D01*
Y425713D01*
X235910Y425319D01*
X236697D01*
X237090Y425713D01*
Y427287D01*
X234729Y425319D02*
X233942D01*
X234335D01*
Y427681D01*
X234729Y427287D01*
X232761Y425319D02*
Y426894D01*
X231974Y427681D01*
X231187Y426894D01*
Y425319D01*
Y426500D01*
X232761D01*
X433596Y467679D02*
X432022D01*
X432809D01*
Y465318D01*
X431235D02*
Y467679D01*
X430054D01*
X429661Y467286D01*
Y466499D01*
X430054Y466105D01*
X431235D01*
X427693Y465318D02*
Y467679D01*
X428873Y466499D01*
X427299D01*
X426512Y467286D02*
X426118Y467679D01*
X425331D01*
X424938Y467286D01*
Y465711D01*
X425331Y465318D01*
X426118D01*
X426512Y465711D01*
Y467286D01*
X424151D02*
X423757Y467679D01*
X422970D01*
X422576Y467286D01*
Y466892D01*
X422970Y466499D01*
X423363D01*
X422970D01*
X422576Y466105D01*
Y465711D01*
X422970Y465318D01*
X423757D01*
X424151Y465711D01*
X420215Y467286D02*
X420608Y467679D01*
X421395D01*
X421789Y467286D01*
Y465711D01*
X421395Y465318D01*
X420608D01*
X420215Y465711D01*
X349196Y467453D02*
X347622D01*
X348409D01*
Y465092D01*
X346835D02*
Y467453D01*
X345654D01*
X345261Y467060D01*
Y466272D01*
X345654Y465879D01*
X346835D01*
X343293Y465092D02*
Y467453D01*
X344473Y466272D01*
X342899D01*
X342112Y467060D02*
X341718Y467453D01*
X340931D01*
X340538Y467060D01*
Y465485D01*
X340931Y465092D01*
X341718D01*
X342112Y465485D01*
Y467060D01*
X339751D02*
X339357Y467453D01*
X338570D01*
X338176Y467060D01*
Y466666D01*
X338570Y466272D01*
X338963D01*
X338570D01*
X338176Y465879D01*
Y465485D01*
X338570Y465092D01*
X339357D01*
X339751Y465485D01*
X337389Y467453D02*
Y465092D01*
X336208D01*
X335815Y465485D01*
Y465879D01*
X336208Y466272D01*
X337389D01*
X336208D01*
X335815Y466666D01*
Y467060D01*
X336208Y467453D01*
X337389D01*
X262550Y466922D02*
X260976D01*
X261763D01*
Y464561D01*
X260189D02*
Y466922D01*
X259008D01*
X258615Y466528D01*
Y465741D01*
X259008Y465348D01*
X260189D01*
X256647Y464561D02*
Y466922D01*
X257828Y465741D01*
X256253D01*
X255466Y466528D02*
X255073Y466922D01*
X254285D01*
X253892Y466528D01*
Y464954D01*
X254285Y464561D01*
X255073D01*
X255466Y464954D01*
Y466528D01*
X253105D02*
X252711Y466922D01*
X251924D01*
X251530Y466528D01*
Y466135D01*
X251924Y465741D01*
X252318D01*
X251924D01*
X251530Y465348D01*
Y464954D01*
X251924Y464561D01*
X252711D01*
X253105Y464954D01*
X250743Y464561D02*
Y466135D01*
X249956Y466922D01*
X249169Y466135D01*
Y464561D01*
Y465741D01*
X250743D01*
X437691Y449181D02*
X436116D01*
X436904D01*
Y446819D01*
X435329D02*
Y449181D01*
X434149D01*
X433755Y448787D01*
Y448000D01*
X434149Y447606D01*
X435329D01*
X431787Y446819D02*
Y449181D01*
X432968Y448000D01*
X431394D01*
X430606Y448787D02*
X430213Y449181D01*
X429426D01*
X429032Y448787D01*
Y447213D01*
X429426Y446819D01*
X430213D01*
X430606Y447213D01*
Y448787D01*
X426671Y446819D02*
X428245D01*
X426671Y448394D01*
Y448787D01*
X427064Y449181D01*
X427851D01*
X428245Y448787D01*
X424309D02*
X424703Y449181D01*
X425490D01*
X425883Y448787D01*
Y447213D01*
X425490Y446819D01*
X424703D01*
X424309Y447213D01*
X352191Y448681D02*
X350616D01*
X351404D01*
Y446319D01*
X349829D02*
Y448681D01*
X348649D01*
X348255Y448287D01*
Y447500D01*
X348649Y447106D01*
X349829D01*
X346287Y446319D02*
Y448681D01*
X347468Y447500D01*
X345894D01*
X345106Y448287D02*
X344713Y448681D01*
X343926D01*
X343532Y448287D01*
Y446713D01*
X343926Y446319D01*
X344713D01*
X345106Y446713D01*
Y448287D01*
X341171Y446319D02*
X342745D01*
X341171Y447894D01*
Y448287D01*
X341564Y448681D01*
X342351D01*
X342745Y448287D01*
X340384Y448681D02*
Y446319D01*
X339203D01*
X338809Y446713D01*
Y447106D01*
X339203Y447500D01*
X340384D01*
X339203D01*
X338809Y447894D01*
Y448287D01*
X339203Y448681D01*
X340384D01*
X265191D02*
X263616D01*
X264404D01*
Y446319D01*
X262829D02*
Y448681D01*
X261649D01*
X261255Y448287D01*
Y447500D01*
X261649Y447106D01*
X262829D01*
X259287Y446319D02*
Y448681D01*
X260468Y447500D01*
X258894D01*
X258106Y448287D02*
X257713Y448681D01*
X256926D01*
X256532Y448287D01*
Y446713D01*
X256926Y446319D01*
X257713D01*
X258106Y446713D01*
Y448287D01*
X254171Y446319D02*
X255745D01*
X254171Y447894D01*
Y448287D01*
X254564Y448681D01*
X255351D01*
X255745Y448287D01*
X253383Y446319D02*
Y447894D01*
X252596Y448681D01*
X251809Y447894D01*
Y446319D01*
Y447500D01*
X253383D01*
X430494Y494681D02*
X428920D01*
X429707D01*
Y492319D01*
X428132D02*
Y494681D01*
X426952D01*
X426558Y494287D01*
Y493500D01*
X426952Y493106D01*
X428132D01*
X424590Y492319D02*
Y494681D01*
X425771Y493500D01*
X424197D01*
X423410Y494287D02*
X423016Y494681D01*
X422229D01*
X421835Y494287D01*
Y492713D01*
X422229Y492319D01*
X423016D01*
X423410Y492713D01*
Y494287D01*
X421048Y492319D02*
X420261D01*
X420655D01*
Y494681D01*
X421048Y494287D01*
X417506D02*
X417900Y494681D01*
X418687D01*
X419080Y494287D01*
Y492713D01*
X418687Y492319D01*
X417900D01*
X417506Y492713D01*
X343494Y497181D02*
X341920D01*
X342707D01*
Y494819D01*
X341132D02*
Y497181D01*
X339952D01*
X339558Y496787D01*
Y496000D01*
X339952Y495606D01*
X341132D01*
X337590Y494819D02*
Y497181D01*
X338771Y496000D01*
X337197D01*
X336410Y496787D02*
X336016Y497181D01*
X335229D01*
X334835Y496787D01*
Y495213D01*
X335229Y494819D01*
X336016D01*
X336410Y495213D01*
Y496787D01*
X334048Y494819D02*
X333261D01*
X333655D01*
Y497181D01*
X334048Y496787D01*
X332080Y497181D02*
Y494819D01*
X330900D01*
X330506Y495213D01*
Y495606D01*
X330900Y496000D01*
X332080D01*
X330900D01*
X330506Y496394D01*
Y496787D01*
X330900Y497181D01*
X332080D01*
X279994D02*
X278420D01*
X279207D01*
Y494819D01*
X277632D02*
Y497181D01*
X276452D01*
X276058Y496787D01*
Y496000D01*
X276452Y495606D01*
X277632D01*
X274090Y494819D02*
Y497181D01*
X275271Y496000D01*
X273697D01*
X272910Y496787D02*
X272516Y497181D01*
X271729D01*
X271335Y496787D01*
Y495213D01*
X271729Y494819D01*
X272516D01*
X272910Y495213D01*
Y496787D01*
X270548Y494819D02*
X269761D01*
X270155D01*
Y497181D01*
X270548Y496787D01*
X268580Y494819D02*
Y496394D01*
X267793Y497181D01*
X267006Y496394D01*
Y494819D01*
Y496000D01*
X268580D01*
X334214Y283307D02*
Y285668D01*
X333033D01*
X332640Y285275D01*
Y284488D01*
X333033Y284094D01*
X334214D01*
X333427D02*
X332640Y283307D01*
X331853D02*
X331066D01*
X331459D01*
Y285668D01*
X331853Y285275D01*
X328311Y283307D02*
X329885D01*
X328311Y284881D01*
Y285275D01*
X328704Y285668D01*
X329491D01*
X329885Y285275D01*
X327523D02*
X327130Y285668D01*
X326343D01*
X325949Y285275D01*
Y283701D01*
X326343Y283307D01*
X327130D01*
X327523Y283701D01*
Y285275D01*
X323588Y283307D02*
X325162D01*
X323588Y284881D01*
Y285275D01*
X323981Y285668D01*
X324768D01*
X325162Y285275D01*
X239420Y288319D02*
Y290681D01*
X238239D01*
X237845Y290287D01*
Y289500D01*
X238239Y289106D01*
X239420D01*
X238632D02*
X237845Y288319D01*
X237058D02*
X236271D01*
X236665D01*
Y290681D01*
X237058Y290287D01*
X233516Y288319D02*
X235090D01*
X233516Y289894D01*
Y290287D01*
X233910Y290681D01*
X234697D01*
X235090Y290287D01*
X232729D02*
X232335Y290681D01*
X231548D01*
X231155Y290287D01*
Y288713D01*
X231548Y288319D01*
X232335D01*
X232729Y288713D01*
Y290287D01*
X230367Y288319D02*
X229580D01*
X229974D01*
Y290681D01*
X230367Y290287D01*
X346181Y139404D02*
X343819D01*
Y138223D01*
X344213Y137829D01*
X345000D01*
X345394Y138223D01*
Y139404D01*
Y138616D02*
X346181Y137829D01*
Y137042D02*
Y136255D01*
Y136649D01*
X343819D01*
X344213Y137042D01*
X346181Y135074D02*
Y134287D01*
Y134681D01*
X343819D01*
X344213Y135074D01*
X346181Y133106D02*
Y132319D01*
Y132713D01*
X343819D01*
X344213Y133106D01*
X346181Y131139D02*
Y130351D01*
Y130745D01*
X343819D01*
X344213Y131139D01*
X343819Y129171D02*
X346181D01*
Y127990D01*
X345787Y127596D01*
X345394D01*
X345000Y127990D01*
Y129171D01*
Y127990D01*
X344606Y127596D01*
X344213D01*
X343819Y127990D01*
Y129171D01*
X268904Y148819D02*
Y151181D01*
X267723D01*
X267329Y150787D01*
Y150000D01*
X267723Y149606D01*
X268904D01*
X268116D02*
X267329Y148819D01*
X266542D02*
X265755D01*
X266149D01*
Y151181D01*
X266542Y150787D01*
X264574Y148819D02*
X263787D01*
X264181D01*
Y151181D01*
X264574Y150787D01*
X262606Y148819D02*
X261819D01*
X262213D01*
Y151181D01*
X262606Y150787D01*
X260639Y148819D02*
X259851D01*
X260245D01*
Y151181D01*
X260639Y150787D01*
X258671Y148819D02*
Y150394D01*
X257884Y151181D01*
X257096Y150394D01*
Y148819D01*
Y150000D01*
X258671D01*
X353297Y123819D02*
Y126181D01*
X352116D01*
X351723Y125787D01*
Y125000D01*
X352116Y124606D01*
X353297D01*
X352510D02*
X351723Y123819D01*
X350936D02*
X350149D01*
X350542D01*
Y126181D01*
X350936Y125787D01*
X348968Y123819D02*
X348181D01*
X348574D01*
Y126181D01*
X348968Y125787D01*
X347000D02*
X346606Y126181D01*
X345819D01*
X345426Y125787D01*
Y124213D01*
X345819Y123819D01*
X346606D01*
X347000Y124213D01*
Y125787D01*
X344639D02*
X344245Y126181D01*
X343458D01*
X343064Y125787D01*
Y125394D01*
X343458Y125000D01*
X343064Y124606D01*
Y124213D01*
X343458Y123819D01*
X344245D01*
X344639Y124213D01*
Y124606D01*
X344245Y125000D01*
X344639Y125394D01*
Y125787D01*
X344245Y125000D02*
X343458D01*
X342277Y126181D02*
Y123819D01*
X341096D01*
X340703Y124213D01*
Y124606D01*
X341096Y125000D01*
X342277D01*
X341096D01*
X340703Y125394D01*
Y125787D01*
X341096Y126181D01*
X342277D01*
X276797Y144819D02*
Y147181D01*
X275616D01*
X275223Y146787D01*
Y146000D01*
X275616Y145606D01*
X276797D01*
X276010D02*
X275223Y144819D01*
X274436D02*
X273649D01*
X274042D01*
Y147181D01*
X274436Y146787D01*
X272468Y144819D02*
X271681D01*
X272074D01*
Y147181D01*
X272468Y146787D01*
X270500D02*
X270106Y147181D01*
X269319D01*
X268926Y146787D01*
Y145213D01*
X269319Y144819D01*
X270106D01*
X270500Y145213D01*
Y146787D01*
X268139D02*
X267745Y147181D01*
X266958D01*
X266564Y146787D01*
Y146394D01*
X266958Y146000D01*
X266564Y145606D01*
Y145213D01*
X266958Y144819D01*
X267745D01*
X268139Y145213D01*
Y145606D01*
X267745Y146000D01*
X268139Y146394D01*
Y146787D01*
X267745Y146000D02*
X266958D01*
X265777Y144819D02*
Y146394D01*
X264990Y147181D01*
X264203Y146394D01*
Y144819D01*
Y146000D01*
X265777D01*
X375681Y172797D02*
X373319D01*
Y171616D01*
X373713Y171223D01*
X374500D01*
X374894Y171616D01*
Y172797D01*
Y172010D02*
X375681Y171223D01*
Y170436D02*
Y169649D01*
Y170042D01*
X373319D01*
X373713Y170436D01*
X375681Y168468D02*
Y167681D01*
Y168074D01*
X373319D01*
X373713Y168468D01*
Y166500D02*
X373319Y166106D01*
Y165319D01*
X373713Y164926D01*
X375287D01*
X375681Y165319D01*
Y166106D01*
X375287Y166500D01*
X373713D01*
X373319Y164139D02*
Y162564D01*
X373713D01*
X375287Y164139D01*
X375681D01*
X373319Y161777D02*
X375681D01*
Y160596D01*
X375287Y160203D01*
X374894D01*
X374500Y160596D01*
Y161777D01*
Y160596D01*
X374106Y160203D01*
X373713D01*
X373319Y160596D01*
Y161777D01*
X293181Y183297D02*
X290819D01*
Y182116D01*
X291213Y181723D01*
X292000D01*
X292394Y182116D01*
Y183297D01*
Y182510D02*
X293181Y181723D01*
Y180936D02*
Y180149D01*
Y180542D01*
X290819D01*
X291213Y180936D01*
X293181Y178968D02*
Y178181D01*
Y178574D01*
X290819D01*
X291213Y178968D01*
Y177000D02*
X290819Y176606D01*
Y175819D01*
X291213Y175426D01*
X292787D01*
X293181Y175819D01*
Y176606D01*
X292787Y177000D01*
X291213D01*
X290819Y174639D02*
Y173064D01*
X291213D01*
X292787Y174639D01*
X293181D01*
Y172277D02*
X291606D01*
X290819Y171490D01*
X291606Y170703D01*
X293181D01*
X292000D01*
Y172277D01*
X385797Y156319D02*
Y158681D01*
X384616D01*
X384223Y158287D01*
Y157500D01*
X384616Y157106D01*
X385797D01*
X385010D02*
X384223Y156319D01*
X383436D02*
X382649D01*
X383042D01*
Y158681D01*
X383436Y158287D01*
X381468Y156319D02*
X380681D01*
X381074D01*
Y158681D01*
X381468Y158287D01*
X379500D02*
X379106Y158681D01*
X378319D01*
X377926Y158287D01*
Y156713D01*
X378319Y156319D01*
X379106D01*
X379500Y156713D01*
Y158287D01*
X375564Y158681D02*
X376351Y158287D01*
X377139Y157500D01*
Y156713D01*
X376745Y156319D01*
X375958D01*
X375564Y156713D01*
Y157106D01*
X375958Y157500D01*
X377139D01*
X374777Y158681D02*
Y156319D01*
X373596D01*
X373203Y156713D01*
Y157106D01*
X373596Y157500D01*
X374777D01*
X373596D01*
X373203Y157894D01*
Y158287D01*
X373596Y158681D01*
X374777D01*
X303297Y166819D02*
Y169181D01*
X302116D01*
X301723Y168787D01*
Y168000D01*
X302116Y167606D01*
X303297D01*
X302510D02*
X301723Y166819D01*
X300936D02*
X300149D01*
X300542D01*
Y169181D01*
X300936Y168787D01*
X298968Y166819D02*
X298181D01*
X298574D01*
Y169181D01*
X298968Y168787D01*
X297000D02*
X296606Y169181D01*
X295819D01*
X295426Y168787D01*
Y167213D01*
X295819Y166819D01*
X296606D01*
X297000Y167213D01*
Y168787D01*
X293064Y169181D02*
X293851Y168787D01*
X294639Y168000D01*
Y167213D01*
X294245Y166819D01*
X293458D01*
X293064Y167213D01*
Y167606D01*
X293458Y168000D01*
X294639D01*
X292277Y166819D02*
Y168394D01*
X291490Y169181D01*
X290703Y168394D01*
Y166819D01*
Y168000D01*
X292277D01*
X390297Y160319D02*
Y162681D01*
X389116D01*
X388723Y162287D01*
Y161500D01*
X389116Y161106D01*
X390297D01*
X389510D02*
X388723Y160319D01*
X387936D02*
X387149D01*
X387542D01*
Y162681D01*
X387936Y162287D01*
X385968Y160319D02*
X385181D01*
X385574D01*
Y162681D01*
X385968Y162287D01*
X384000D02*
X383606Y162681D01*
X382819D01*
X382426Y162287D01*
Y160713D01*
X382819Y160319D01*
X383606D01*
X384000Y160713D01*
Y162287D01*
X380458Y160319D02*
Y162681D01*
X381639Y161500D01*
X380064D01*
X379277Y162681D02*
Y160319D01*
X378096D01*
X377703Y160713D01*
Y161106D01*
X378096Y161500D01*
X379277D01*
X378096D01*
X377703Y161894D01*
Y162287D01*
X378096Y162681D01*
X379277D01*
X307797Y170819D02*
Y173181D01*
X306616D01*
X306223Y172787D01*
Y172000D01*
X306616Y171606D01*
X307797D01*
X307010D02*
X306223Y170819D01*
X305436D02*
X304649D01*
X305042D01*
Y173181D01*
X305436Y172787D01*
X303468Y170819D02*
X302681D01*
X303074D01*
Y173181D01*
X303468Y172787D01*
X301500D02*
X301106Y173181D01*
X300319D01*
X299926Y172787D01*
Y171213D01*
X300319Y170819D01*
X301106D01*
X301500Y171213D01*
Y172787D01*
X297958Y170819D02*
Y173181D01*
X299139Y172000D01*
X297564D01*
X296777Y170819D02*
Y172394D01*
X295990Y173181D01*
X295203Y172394D01*
Y170819D01*
Y172000D01*
X296777D01*
X315181Y156297D02*
X312819D01*
Y155116D01*
X313213Y154723D01*
X314000D01*
X314394Y155116D01*
Y156297D01*
Y155510D02*
X315181Y154723D01*
Y153936D02*
Y153149D01*
Y153542D01*
X312819D01*
X313213Y153936D01*
X315181Y151968D02*
Y151181D01*
Y151574D01*
X312819D01*
X313213Y151968D01*
Y150000D02*
X312819Y149606D01*
Y148819D01*
X313213Y148426D01*
X314787D01*
X315181Y148819D01*
Y149606D01*
X314787Y150000D01*
X313213D01*
X315181Y146064D02*
Y147639D01*
X313606Y146064D01*
X313213D01*
X312819Y146458D01*
Y147245D01*
X313213Y147639D01*
X312819Y145277D02*
X315181D01*
Y144096D01*
X314787Y143703D01*
X314394D01*
X314000Y144096D01*
Y145277D01*
Y144096D01*
X313606Y143703D01*
X313213D01*
X312819Y144096D01*
Y145277D01*
X232181Y167297D02*
X229819D01*
Y166116D01*
X230213Y165723D01*
X231000D01*
X231394Y166116D01*
Y167297D01*
Y166510D02*
X232181Y165723D01*
Y164936D02*
Y164149D01*
Y164542D01*
X229819D01*
X230213Y164936D01*
X232181Y162968D02*
Y162181D01*
Y162574D01*
X229819D01*
X230213Y162968D01*
Y161000D02*
X229819Y160606D01*
Y159819D01*
X230213Y159426D01*
X231787D01*
X232181Y159819D01*
Y160606D01*
X231787Y161000D01*
X230213D01*
X232181Y157064D02*
Y158639D01*
X230606Y157064D01*
X230213D01*
X229819Y157458D01*
Y158245D01*
X230213Y158639D01*
X232181Y156277D02*
X230606D01*
X229819Y155490D01*
X230606Y154703D01*
X232181D01*
X231000D01*
Y156277D01*
X316600Y158819D02*
Y161181D01*
X315420D01*
X315026Y160787D01*
Y160000D01*
X315420Y159606D01*
X316600D01*
X315813D02*
X315026Y158819D01*
X314239D02*
X313452D01*
X313845D01*
Y161181D01*
X314239Y160787D01*
X312271Y158819D02*
X311484D01*
X311877D01*
Y161181D01*
X312271Y160787D01*
X310303D02*
X309910Y161181D01*
X309122D01*
X308729Y160787D01*
Y159213D01*
X309122Y158819D01*
X309910D01*
X310303Y159213D01*
Y160787D01*
X307942Y158819D02*
X307155D01*
X307548D01*
Y161181D01*
X307942Y160787D01*
X305974Y161181D02*
Y158819D01*
X304793D01*
X304400Y159213D01*
Y159606D01*
X304793Y160000D01*
X305974D01*
X304793D01*
X304400Y160394D01*
Y160787D01*
X304793Y161181D01*
X305974D01*
X234100Y169319D02*
Y171681D01*
X232920D01*
X232526Y171287D01*
Y170500D01*
X232920Y170106D01*
X234100D01*
X233313D02*
X232526Y169319D01*
X231739D02*
X230952D01*
X231345D01*
Y171681D01*
X231739Y171287D01*
X229771Y169319D02*
X228984D01*
X229378D01*
Y171681D01*
X229771Y171287D01*
X227803D02*
X227410Y171681D01*
X226623D01*
X226229Y171287D01*
Y169713D01*
X226623Y169319D01*
X227410D01*
X227803Y169713D01*
Y171287D01*
X225442Y169319D02*
X224655D01*
X225048D01*
Y171681D01*
X225442Y171287D01*
X223474Y169319D02*
Y170894D01*
X222687Y171681D01*
X221900Y170894D01*
Y169319D01*
Y170500D01*
X223474D01*
X300739Y120819D02*
Y123181D01*
X299558D01*
X299165Y122787D01*
Y122000D01*
X299558Y121606D01*
X300739D01*
X299952D02*
X299165Y120819D01*
X298377Y122787D02*
X297984Y123181D01*
X297197D01*
X296803Y122787D01*
Y122394D01*
X297197Y122000D01*
X296803Y121606D01*
Y121213D01*
X297197Y120819D01*
X297984D01*
X298377Y121213D01*
Y121606D01*
X297984Y122000D01*
X298377Y122394D01*
Y122787D01*
X297984Y122000D02*
X297197D01*
X296016Y120819D02*
X295229D01*
X295622D01*
Y123181D01*
X296016Y122787D01*
X294048Y120819D02*
X293261D01*
X293655D01*
Y123181D01*
X294048Y122787D01*
X300713Y111753D02*
Y114114D01*
X299532D01*
X299139Y113721D01*
Y112934D01*
X299532Y112540D01*
X300713D01*
X299926D02*
X299139Y111753D01*
X298352Y113721D02*
X297958Y114114D01*
X297171D01*
X296777Y113721D01*
Y113327D01*
X297171Y112934D01*
X296777Y112540D01*
Y112146D01*
X297171Y111753D01*
X297958D01*
X298352Y112146D01*
Y112540D01*
X297958Y112934D01*
X298352Y113327D01*
Y113721D01*
X297958Y112934D02*
X297171D01*
X295990Y111753D02*
X295203D01*
X295597D01*
Y114114D01*
X295990Y113721D01*
X294022D02*
X293629Y114114D01*
X292842D01*
X292448Y113721D01*
Y112146D01*
X292842Y111753D01*
X293629D01*
X294022Y112146D01*
Y113721D01*
X300829Y128819D02*
Y131181D01*
X299649D01*
X299255Y130787D01*
Y130000D01*
X299649Y129606D01*
X300829D01*
X300042D02*
X299255Y128819D01*
X298468Y130787D02*
X298074Y131181D01*
X297287D01*
X296894Y130787D01*
Y130394D01*
X297287Y130000D01*
X296894Y129606D01*
Y129213D01*
X297287Y128819D01*
X298074D01*
X298468Y129213D01*
Y129606D01*
X298074Y130000D01*
X298468Y130394D01*
Y130787D01*
X298074Y130000D02*
X297287D01*
X296106Y130787D02*
X295713Y131181D01*
X294926D01*
X294532Y130787D01*
Y129213D01*
X294926Y128819D01*
X295713D01*
X296106Y129213D01*
Y130787D01*
X293745Y129213D02*
X293351Y128819D01*
X292564D01*
X292171Y129213D01*
Y130787D01*
X292564Y131181D01*
X293351D01*
X293745Y130787D01*
Y130394D01*
X293351Y130000D01*
X292171D01*
X570181Y465329D02*
X567819D01*
Y464149D01*
X568213Y463755D01*
X569000D01*
X569394Y464149D01*
Y465329D01*
Y464542D02*
X570181Y463755D01*
X567819Y462968D02*
Y461394D01*
X568213D01*
X569787Y462968D01*
X570181D01*
X568213Y460606D02*
X567819Y460213D01*
Y459426D01*
X568213Y459032D01*
X569787D01*
X570181Y459426D01*
Y460213D01*
X569787Y460606D01*
X568213D01*
X567819Y458245D02*
Y456671D01*
X568213D01*
X569787Y458245D01*
X570181D01*
Y408829D02*
X567819D01*
Y407649D01*
X568213Y407255D01*
X569000D01*
X569394Y407649D01*
Y408829D01*
Y408042D02*
X570181Y407255D01*
X567819Y406468D02*
Y404894D01*
X568213D01*
X569787Y406468D01*
X570181D01*
X568213Y404106D02*
X567819Y403713D01*
Y402926D01*
X568213Y402532D01*
X569787D01*
X570181Y402926D01*
Y403713D01*
X569787Y404106D01*
X568213D01*
X567819Y400171D02*
X568213Y400958D01*
X569000Y401745D01*
X569787D01*
X570181Y401351D01*
Y400564D01*
X569787Y400171D01*
X569394D01*
X569000Y400564D01*
Y401745D01*
X570181Y435329D02*
X567819D01*
Y434149D01*
X568213Y433755D01*
X569000D01*
X569394Y434149D01*
Y435329D01*
Y434542D02*
X570181Y433755D01*
X567819Y432968D02*
Y431394D01*
X568213D01*
X569787Y432968D01*
X570181D01*
X568213Y430606D02*
X567819Y430213D01*
Y429426D01*
X568213Y429032D01*
X569787D01*
X570181Y429426D01*
Y430213D01*
X569787Y430606D01*
X568213D01*
X567819Y426671D02*
Y428245D01*
X569000D01*
X568606Y427458D01*
Y427064D01*
X569000Y426671D01*
X569787D01*
X570181Y427064D01*
Y427851D01*
X569787Y428245D01*
X559329Y128819D02*
Y131181D01*
X558149D01*
X557755Y130787D01*
Y130000D01*
X558149Y129606D01*
X559329D01*
X558542D02*
X557755Y128819D01*
X556968Y131181D02*
X555394D01*
Y130787D01*
X556968Y129213D01*
Y128819D01*
X554606Y130787D02*
X554213Y131181D01*
X553426D01*
X553032Y130787D01*
Y129213D01*
X553426Y128819D01*
X554213D01*
X554606Y129213D01*
Y130787D01*
X551064Y128819D02*
Y131181D01*
X552245Y130000D01*
X550671D01*
X517829Y128819D02*
Y131181D01*
X516649D01*
X516255Y130787D01*
Y130000D01*
X516649Y129606D01*
X517829D01*
X517042D02*
X516255Y128819D01*
X515468Y131181D02*
X513894D01*
Y130787D01*
X515468Y129213D01*
Y128819D01*
X513106Y130787D02*
X512713Y131181D01*
X511926D01*
X511532Y130787D01*
Y129213D01*
X511926Y128819D01*
X512713D01*
X513106Y129213D01*
Y130787D01*
X509171Y128819D02*
X510745D01*
X509171Y130394D01*
Y130787D01*
X509564Y131181D01*
X510351D01*
X510745Y130787D01*
X434010Y453819D02*
Y456181D01*
X432829D01*
X432436Y455787D01*
Y455000D01*
X432829Y454606D01*
X434010D01*
X433223D02*
X432436Y453819D01*
X430468D02*
Y456181D01*
X431649Y455000D01*
X430074D01*
X429287Y455787D02*
X428894Y456181D01*
X428106D01*
X427713Y455787D01*
Y454213D01*
X428106Y453819D01*
X428894D01*
X429287Y454213D01*
Y455787D01*
X425351Y456181D02*
X426139Y455787D01*
X426926Y455000D01*
Y454213D01*
X426532Y453819D01*
X425745D01*
X425351Y454213D01*
Y454606D01*
X425745Y455000D01*
X426926D01*
X422990Y455787D02*
X423384Y456181D01*
X424171D01*
X424564Y455787D01*
Y454213D01*
X424171Y453819D01*
X423384D01*
X422990Y454213D01*
X348510Y453819D02*
Y456181D01*
X347329D01*
X346936Y455787D01*
Y455000D01*
X347329Y454606D01*
X348510D01*
X347723D02*
X346936Y453819D01*
X344968D02*
Y456181D01*
X346149Y455000D01*
X344574D01*
X343787Y455787D02*
X343394Y456181D01*
X342606D01*
X342213Y455787D01*
Y454213D01*
X342606Y453819D01*
X343394D01*
X343787Y454213D01*
Y455787D01*
X339851Y456181D02*
X340638Y455787D01*
X341426Y455000D01*
Y454213D01*
X341032Y453819D01*
X340245D01*
X339851Y454213D01*
Y454606D01*
X340245Y455000D01*
X341426D01*
X339064Y456181D02*
Y453819D01*
X337883D01*
X337490Y454213D01*
Y454606D01*
X337883Y455000D01*
X339064D01*
X337883D01*
X337490Y455394D01*
Y455787D01*
X337883Y456181D01*
X339064D01*
X261510Y453319D02*
Y455681D01*
X260329D01*
X259936Y455287D01*
Y454500D01*
X260329Y454106D01*
X261510D01*
X260723D02*
X259936Y453319D01*
X257968D02*
Y455681D01*
X259149Y454500D01*
X257574D01*
X256787Y455287D02*
X256394Y455681D01*
X255606D01*
X255213Y455287D01*
Y453713D01*
X255606Y453319D01*
X256394D01*
X256787Y453713D01*
Y455287D01*
X252851Y455681D02*
X253639Y455287D01*
X254426Y454500D01*
Y453713D01*
X254032Y453319D01*
X253245D01*
X252851Y453713D01*
Y454106D01*
X253245Y454500D01*
X254426D01*
X252064Y453319D02*
Y454894D01*
X251277Y455681D01*
X250490Y454894D01*
Y453319D01*
Y454500D01*
X252064D01*
X434010Y460319D02*
Y462681D01*
X432829D01*
X432436Y462287D01*
Y461500D01*
X432829Y461106D01*
X434010D01*
X433223D02*
X432436Y460319D01*
X430468D02*
Y462681D01*
X431649Y461500D01*
X430074D01*
X429287Y462287D02*
X428894Y462681D01*
X428106D01*
X427713Y462287D01*
Y460713D01*
X428106Y460319D01*
X428894D01*
X429287Y460713D01*
Y462287D01*
X425351Y462681D02*
X426926D01*
Y461500D01*
X426139Y461894D01*
X425745D01*
X425351Y461500D01*
Y460713D01*
X425745Y460319D01*
X426532D01*
X426926Y460713D01*
X422990Y462287D02*
X423384Y462681D01*
X424171D01*
X424564Y462287D01*
Y460713D01*
X424171Y460319D01*
X423384D01*
X422990Y460713D01*
X348010Y460319D02*
Y462681D01*
X346829D01*
X346436Y462287D01*
Y461500D01*
X346829Y461106D01*
X348010D01*
X347223D02*
X346436Y460319D01*
X344468D02*
Y462681D01*
X345649Y461500D01*
X344074D01*
X343287Y462287D02*
X342894Y462681D01*
X342106D01*
X341713Y462287D01*
Y460713D01*
X342106Y460319D01*
X342894D01*
X343287Y460713D01*
Y462287D01*
X339351Y462681D02*
X340926D01*
Y461500D01*
X340139Y461894D01*
X339745D01*
X339351Y461500D01*
Y460713D01*
X339745Y460319D01*
X340532D01*
X340926Y460713D01*
X338564Y462681D02*
Y460319D01*
X337384D01*
X336990Y460713D01*
Y461106D01*
X337384Y461500D01*
X338564D01*
X337384D01*
X336990Y461894D01*
Y462287D01*
X337384Y462681D01*
X338564D01*
X262010Y459819D02*
Y462181D01*
X260829D01*
X260436Y461787D01*
Y461000D01*
X260829Y460606D01*
X262010D01*
X261223D02*
X260436Y459819D01*
X258468D02*
Y462181D01*
X259649Y461000D01*
X258074D01*
X257287Y461787D02*
X256894Y462181D01*
X256106D01*
X255713Y461787D01*
Y460213D01*
X256106Y459819D01*
X256894D01*
X257287Y460213D01*
Y461787D01*
X253351Y462181D02*
X254926D01*
Y461000D01*
X254138Y461394D01*
X253745D01*
X253351Y461000D01*
Y460213D01*
X253745Y459819D01*
X254532D01*
X254926Y460213D01*
X252564Y459819D02*
Y461394D01*
X251777Y462181D01*
X250990Y461394D01*
Y459819D01*
Y461000D01*
X252564D01*
X429510Y477319D02*
Y479681D01*
X428329D01*
X427936Y479287D01*
Y478500D01*
X428329Y478106D01*
X429510D01*
X428723D02*
X427936Y477319D01*
X425968D02*
Y479681D01*
X427149Y478500D01*
X425574D01*
X424787Y479287D02*
X424394Y479681D01*
X423606D01*
X423213Y479287D01*
Y477713D01*
X423606Y477319D01*
X424394D01*
X424787Y477713D01*
Y479287D01*
X421245Y477319D02*
Y479681D01*
X422426Y478500D01*
X420851D01*
X418490Y479287D02*
X418884Y479681D01*
X419671D01*
X420064Y479287D01*
Y477713D01*
X419671Y477319D01*
X418884D01*
X418490Y477713D01*
X344010Y478319D02*
Y480681D01*
X342829D01*
X342436Y480287D01*
Y479500D01*
X342829Y479106D01*
X344010D01*
X343223D02*
X342436Y478319D01*
X340468D02*
Y480681D01*
X341649Y479500D01*
X340074D01*
X339287Y480287D02*
X338894Y480681D01*
X338106D01*
X337713Y480287D01*
Y478713D01*
X338106Y478319D01*
X338894D01*
X339287Y478713D01*
Y480287D01*
X335745Y478319D02*
Y480681D01*
X336926Y479500D01*
X335351D01*
X334564Y480681D02*
Y478319D01*
X333383D01*
X332990Y478713D01*
Y479106D01*
X333383Y479500D01*
X334564D01*
X333383D01*
X332990Y479894D01*
Y480287D01*
X333383Y480681D01*
X334564D01*
X271010Y478319D02*
Y480681D01*
X269829D01*
X269436Y480287D01*
Y479500D01*
X269829Y479106D01*
X271010D01*
X270223D02*
X269436Y478319D01*
X267468D02*
Y480681D01*
X268649Y479500D01*
X267074D01*
X266287Y480287D02*
X265894Y480681D01*
X265106D01*
X264713Y480287D01*
Y478713D01*
X265106Y478319D01*
X265894D01*
X266287Y478713D01*
Y480287D01*
X262745Y478319D02*
Y480681D01*
X263926Y479500D01*
X262351D01*
X261564Y478319D02*
Y479894D01*
X260777Y480681D01*
X259990Y479894D01*
Y478319D01*
Y479500D01*
X261564D01*
X430010Y437319D02*
Y439681D01*
X428829D01*
X428436Y439287D01*
Y438500D01*
X428829Y438106D01*
X430010D01*
X429223D02*
X428436Y437319D01*
X426468D02*
Y439681D01*
X427649Y438500D01*
X426074D01*
X425287Y439287D02*
X424894Y439681D01*
X424106D01*
X423713Y439287D01*
Y437713D01*
X424106Y437319D01*
X424894D01*
X425287Y437713D01*
Y439287D01*
X422926D02*
X422532Y439681D01*
X421745D01*
X421351Y439287D01*
Y438894D01*
X421745Y438500D01*
X422139D01*
X421745D01*
X421351Y438106D01*
Y437713D01*
X421745Y437319D01*
X422532D01*
X422926Y437713D01*
X418990Y439287D02*
X419383Y439681D01*
X420171D01*
X420564Y439287D01*
Y437713D01*
X420171Y437319D01*
X419383D01*
X418990Y437713D01*
X344510Y437319D02*
Y439681D01*
X343329D01*
X342936Y439287D01*
Y438500D01*
X343329Y438106D01*
X344510D01*
X343723D02*
X342936Y437319D01*
X340968D02*
Y439681D01*
X342149Y438500D01*
X340574D01*
X339787Y439287D02*
X339394Y439681D01*
X338606D01*
X338213Y439287D01*
Y437713D01*
X338606Y437319D01*
X339394D01*
X339787Y437713D01*
Y439287D01*
X337426D02*
X337032Y439681D01*
X336245D01*
X335851Y439287D01*
Y438894D01*
X336245Y438500D01*
X336638D01*
X336245D01*
X335851Y438106D01*
Y437713D01*
X336245Y437319D01*
X337032D01*
X337426Y437713D01*
X335064Y439681D02*
Y437319D01*
X333884D01*
X333490Y437713D01*
Y438106D01*
X333884Y438500D01*
X335064D01*
X333884D01*
X333490Y438894D01*
Y439287D01*
X333884Y439681D01*
X335064D01*
X257510Y437319D02*
Y439681D01*
X256329D01*
X255936Y439287D01*
Y438500D01*
X256329Y438106D01*
X257510D01*
X256723D02*
X255936Y437319D01*
X253968D02*
Y439681D01*
X255149Y438500D01*
X253574D01*
X252787Y439287D02*
X252394Y439681D01*
X251606D01*
X251213Y439287D01*
Y437713D01*
X251606Y437319D01*
X252394D01*
X252787Y437713D01*
Y439287D01*
X250426D02*
X250032Y439681D01*
X249245D01*
X248851Y439287D01*
Y438894D01*
X249245Y438500D01*
X249639D01*
X249245D01*
X248851Y438106D01*
Y437713D01*
X249245Y437319D01*
X250032D01*
X250426Y437713D01*
X248064Y437319D02*
Y438894D01*
X247277Y439681D01*
X246490Y438894D01*
Y437319D01*
Y438500D01*
X248064D01*
X394510Y444819D02*
Y447181D01*
X393329D01*
X392936Y446787D01*
Y446000D01*
X393329Y445606D01*
X394510D01*
X393723D02*
X392936Y444819D01*
X390968D02*
Y447181D01*
X392149Y446000D01*
X390574D01*
X389787Y446787D02*
X389394Y447181D01*
X388606D01*
X388213Y446787D01*
Y445213D01*
X388606Y444819D01*
X389394D01*
X389787Y445213D01*
Y446787D01*
X385851Y444819D02*
X387426D01*
X385851Y446394D01*
Y446787D01*
X386245Y447181D01*
X387032D01*
X387426Y446787D01*
X383490D02*
X383884Y447181D01*
X384671D01*
X385064Y446787D01*
Y445213D01*
X384671Y444819D01*
X383884D01*
X383490Y445213D01*
X308010Y444319D02*
Y446681D01*
X306829D01*
X306436Y446287D01*
Y445500D01*
X306829Y445106D01*
X308010D01*
X307223D02*
X306436Y444319D01*
X304468D02*
Y446681D01*
X305649Y445500D01*
X304074D01*
X303287Y446287D02*
X302894Y446681D01*
X302106D01*
X301713Y446287D01*
Y444713D01*
X302106Y444319D01*
X302894D01*
X303287Y444713D01*
Y446287D01*
X299351Y444319D02*
X300926D01*
X299351Y445894D01*
Y446287D01*
X299745Y446681D01*
X300532D01*
X300926Y446287D01*
X298564Y446681D02*
Y444319D01*
X297383D01*
X296990Y444713D01*
Y445106D01*
X297383Y445500D01*
X298564D01*
X297383D01*
X296990Y445894D01*
Y446287D01*
X297383Y446681D01*
X298564D01*
X222010Y444319D02*
Y446681D01*
X220829D01*
X220436Y446287D01*
Y445500D01*
X220829Y445106D01*
X222010D01*
X221223D02*
X220436Y444319D01*
X218468D02*
Y446681D01*
X219649Y445500D01*
X218074D01*
X217287Y446287D02*
X216894Y446681D01*
X216106D01*
X215713Y446287D01*
Y444713D01*
X216106Y444319D01*
X216894D01*
X217287Y444713D01*
Y446287D01*
X213351Y444319D02*
X214926D01*
X213351Y445894D01*
Y446287D01*
X213745Y446681D01*
X214532D01*
X214926Y446287D01*
X212564Y444319D02*
Y445894D01*
X211777Y446681D01*
X210990Y445894D01*
Y444319D01*
Y445500D01*
X212564D01*
X403813Y495319D02*
Y497681D01*
X402633D01*
X402239Y497287D01*
Y496500D01*
X402633Y496106D01*
X403813D01*
X403026D02*
X402239Y495319D01*
X400271D02*
Y497681D01*
X401452Y496500D01*
X399878D01*
X399090Y497287D02*
X398697Y497681D01*
X397910D01*
X397516Y497287D01*
Y495713D01*
X397910Y495319D01*
X398697D01*
X399090Y495713D01*
Y497287D01*
X396729Y495319D02*
X395942D01*
X396335D01*
Y497681D01*
X396729Y497287D01*
X393187D02*
X393580Y497681D01*
X394368D01*
X394761Y497287D01*
Y495713D01*
X394368Y495319D01*
X393580D01*
X393187Y495713D01*
X315813Y494319D02*
Y496681D01*
X314633D01*
X314239Y496287D01*
Y495500D01*
X314633Y495106D01*
X315813D01*
X315026D02*
X314239Y494319D01*
X312271D02*
Y496681D01*
X313452Y495500D01*
X311877D01*
X311090Y496287D02*
X310697Y496681D01*
X309910D01*
X309516Y496287D01*
Y494713D01*
X309910Y494319D01*
X310697D01*
X311090Y494713D01*
Y496287D01*
X308729Y494319D02*
X307942D01*
X308335D01*
Y496681D01*
X308729Y496287D01*
X306761Y496681D02*
Y494319D01*
X305580D01*
X305187Y494713D01*
Y495106D01*
X305580Y495500D01*
X306761D01*
X305580D01*
X305187Y495894D01*
Y496287D01*
X305580Y496681D01*
X306761D01*
X264313Y493819D02*
Y496181D01*
X263133D01*
X262739Y495787D01*
Y495000D01*
X263133Y494606D01*
X264313D01*
X263526D02*
X262739Y493819D01*
X260771D02*
Y496181D01*
X261952Y495000D01*
X260378D01*
X259590Y495787D02*
X259197Y496181D01*
X258410D01*
X258016Y495787D01*
Y494213D01*
X258410Y493819D01*
X259197D01*
X259590Y494213D01*
Y495787D01*
X257229Y493819D02*
X256442D01*
X256835D01*
Y496181D01*
X257229Y495787D01*
X255261Y493819D02*
Y495394D01*
X254474Y496181D01*
X253687Y495394D01*
Y493819D01*
Y495000D01*
X255261D01*
X245313Y354819D02*
Y357181D01*
X244132D01*
X243739Y356787D01*
Y356000D01*
X244132Y355606D01*
X245313D01*
X244526D02*
X243739Y354819D01*
X241377D02*
X242952D01*
X241377Y356394D01*
Y356787D01*
X241771Y357181D01*
X242558D01*
X242952Y356787D01*
X240590Y354819D02*
X239803D01*
X240197D01*
Y357181D01*
X240590Y356787D01*
X237048Y357181D02*
X237835Y356787D01*
X238622Y356000D01*
Y355213D01*
X238229Y354819D01*
X237442D01*
X237048Y355213D01*
Y355606D01*
X237442Y356000D01*
X238622D01*
X236261Y357181D02*
Y354819D01*
X235080D01*
X234687Y355213D01*
Y355606D01*
X235080Y356000D01*
X236261D01*
X235080D01*
X234687Y356394D01*
Y356787D01*
X235080Y357181D01*
X236261D01*
X348313Y351819D02*
Y354181D01*
X347132D01*
X346739Y353787D01*
Y353000D01*
X347132Y352606D01*
X348313D01*
X347526D02*
X346739Y351819D01*
X344377D02*
X345952D01*
X344377Y353394D01*
Y353787D01*
X344771Y354181D01*
X345558D01*
X345952Y353787D01*
X343590Y351819D02*
X342803D01*
X343197D01*
Y354181D01*
X343590Y353787D01*
X340048Y354181D02*
X340835Y353787D01*
X341622Y353000D01*
Y352213D01*
X341229Y351819D01*
X340442D01*
X340048Y352213D01*
Y352606D01*
X340442Y353000D01*
X341622D01*
X339261Y351819D02*
Y353394D01*
X338474Y354181D01*
X337687Y353394D01*
Y351819D01*
Y353000D01*
X339261D01*
X245313Y359319D02*
Y361681D01*
X244132D01*
X243739Y361287D01*
Y360500D01*
X244132Y360106D01*
X245313D01*
X244526D02*
X243739Y359319D01*
X241377D02*
X242952D01*
X241377Y360894D01*
Y361287D01*
X241771Y361681D01*
X242558D01*
X242952Y361287D01*
X240590Y359319D02*
X239803D01*
X240197D01*
Y361681D01*
X240590Y361287D01*
X237048Y361681D02*
X238622D01*
Y360500D01*
X237835Y360894D01*
X237442D01*
X237048Y360500D01*
Y359713D01*
X237442Y359319D01*
X238229D01*
X238622Y359713D01*
X236261Y361681D02*
Y359319D01*
X235080D01*
X234687Y359713D01*
Y360106D01*
X235080Y360500D01*
X236261D01*
X235080D01*
X234687Y360894D01*
Y361287D01*
X235080Y361681D01*
X236261D01*
X348813Y355819D02*
Y358181D01*
X347633D01*
X347239Y357787D01*
Y357000D01*
X347633Y356606D01*
X348813D01*
X348026D02*
X347239Y355819D01*
X344878D02*
X346452D01*
X344878Y357394D01*
Y357787D01*
X345271Y358181D01*
X346058D01*
X346452Y357787D01*
X344090Y355819D02*
X343303D01*
X343697D01*
Y358181D01*
X344090Y357787D01*
X340548Y358181D02*
X342123D01*
Y357000D01*
X341335Y357394D01*
X340942D01*
X340548Y357000D01*
Y356213D01*
X340942Y355819D01*
X341729D01*
X342123Y356213D01*
X339761Y355819D02*
Y357394D01*
X338974Y358181D01*
X338187Y357394D01*
Y355819D01*
Y357000D01*
X339761D01*
X278313Y376319D02*
Y378681D01*
X277133D01*
X276739Y378287D01*
Y377500D01*
X277133Y377106D01*
X278313D01*
X277526D02*
X276739Y376319D01*
X274377D02*
X275952D01*
X274377Y377894D01*
Y378287D01*
X274771Y378681D01*
X275558D01*
X275952Y378287D01*
X273590Y376319D02*
X272803D01*
X273197D01*
Y378681D01*
X273590Y378287D01*
X270442Y376319D02*
Y378681D01*
X271622Y377500D01*
X270048D01*
X269261Y378681D02*
Y376319D01*
X268080D01*
X267687Y376713D01*
Y377106D01*
X268080Y377500D01*
X269261D01*
X268080D01*
X267687Y377894D01*
Y378287D01*
X268080Y378681D01*
X269261D01*
X381313Y372819D02*
Y375181D01*
X380133D01*
X379739Y374787D01*
Y374000D01*
X380133Y373606D01*
X381313D01*
X380526D02*
X379739Y372819D01*
X377378D02*
X378952D01*
X377378Y374394D01*
Y374787D01*
X377771Y375181D01*
X378558D01*
X378952Y374787D01*
X376590Y372819D02*
X375803D01*
X376197D01*
Y375181D01*
X376590Y374787D01*
X373442Y372819D02*
Y375181D01*
X374623Y374000D01*
X373048D01*
X372261Y372819D02*
Y374394D01*
X371474Y375181D01*
X370687Y374394D01*
Y372819D01*
Y374000D01*
X372261D01*
X245813Y347319D02*
Y349681D01*
X244633D01*
X244239Y349287D01*
Y348500D01*
X244633Y348106D01*
X245813D01*
X245026D02*
X244239Y347319D01*
X241878D02*
X243452D01*
X241878Y348894D01*
Y349287D01*
X242271Y349681D01*
X243058D01*
X243452Y349287D01*
X241090Y347319D02*
X240303D01*
X240697D01*
Y349681D01*
X241090Y349287D01*
X239123D02*
X238729Y349681D01*
X237942D01*
X237548Y349287D01*
Y348894D01*
X237942Y348500D01*
X238335D01*
X237942D01*
X237548Y348106D01*
Y347713D01*
X237942Y347319D01*
X238729D01*
X239123Y347713D01*
X236761Y349681D02*
Y347319D01*
X235580D01*
X235187Y347713D01*
Y348106D01*
X235580Y348500D01*
X236761D01*
X235580D01*
X235187Y348894D01*
Y349287D01*
X235580Y349681D01*
X236761D01*
X348313Y343819D02*
Y346181D01*
X347132D01*
X346739Y345787D01*
Y345000D01*
X347132Y344606D01*
X348313D01*
X347526D02*
X346739Y343819D01*
X344377D02*
X345952D01*
X344377Y345394D01*
Y345787D01*
X344771Y346181D01*
X345558D01*
X345952Y345787D01*
X343590Y343819D02*
X342803D01*
X343197D01*
Y346181D01*
X343590Y345787D01*
X341622D02*
X341229Y346181D01*
X340442D01*
X340048Y345787D01*
Y345394D01*
X340442Y345000D01*
X340835D01*
X340442D01*
X340048Y344606D01*
Y344213D01*
X340442Y343819D01*
X341229D01*
X341622Y344213D01*
X339261Y343819D02*
Y345394D01*
X338474Y346181D01*
X337687Y345394D01*
Y343819D01*
Y345000D01*
X339261D01*
X245813Y343319D02*
Y345681D01*
X244633D01*
X244239Y345287D01*
Y344500D01*
X244633Y344106D01*
X245813D01*
X245026D02*
X244239Y343319D01*
X241878D02*
X243452D01*
X241878Y344894D01*
Y345287D01*
X242271Y345681D01*
X243058D01*
X243452Y345287D01*
X241090Y343319D02*
X240303D01*
X240697D01*
Y345681D01*
X241090Y345287D01*
X237548Y343319D02*
X239123D01*
X237548Y344894D01*
Y345287D01*
X237942Y345681D01*
X238729D01*
X239123Y345287D01*
X236761Y345681D02*
Y343319D01*
X235580D01*
X235187Y343713D01*
Y344106D01*
X235580Y344500D01*
X236761D01*
X235580D01*
X235187Y344894D01*
Y345287D01*
X235580Y345681D01*
X236761D01*
X348313Y339819D02*
Y342181D01*
X347132D01*
X346739Y341787D01*
Y341000D01*
X347132Y340606D01*
X348313D01*
X347526D02*
X346739Y339819D01*
X344377D02*
X345952D01*
X344377Y341394D01*
Y341787D01*
X344771Y342181D01*
X345558D01*
X345952Y341787D01*
X343590Y339819D02*
X342803D01*
X343197D01*
Y342181D01*
X343590Y341787D01*
X340048Y339819D02*
X341622D01*
X340048Y341394D01*
Y341787D01*
X340442Y342181D01*
X341229D01*
X341622Y341787D01*
X339261Y339819D02*
Y341394D01*
X338474Y342181D01*
X337687Y341394D01*
Y339819D01*
Y341000D01*
X339261D01*
X246116Y332319D02*
Y334681D01*
X244936D01*
X244542Y334287D01*
Y333500D01*
X244936Y333106D01*
X246116D01*
X245329D02*
X244542Y332319D01*
X242181D02*
X243755D01*
X242181Y333894D01*
Y334287D01*
X242574Y334681D01*
X243361D01*
X243755Y334287D01*
X241394Y332319D02*
X240606D01*
X241000D01*
Y334681D01*
X241394Y334287D01*
X239426Y332319D02*
X238638D01*
X239032D01*
Y334681D01*
X239426Y334287D01*
X237458Y334681D02*
Y332319D01*
X236277D01*
X235884Y332713D01*
Y333106D01*
X236277Y333500D01*
X237458D01*
X236277D01*
X235884Y333894D01*
Y334287D01*
X236277Y334681D01*
X237458D01*
X348616Y328319D02*
Y330681D01*
X347436D01*
X347042Y330287D01*
Y329500D01*
X347436Y329106D01*
X348616D01*
X347829D02*
X347042Y328319D01*
X344681D02*
X346255D01*
X344681Y329894D01*
Y330287D01*
X345074Y330681D01*
X345861D01*
X346255Y330287D01*
X343894Y328319D02*
X343106D01*
X343500D01*
Y330681D01*
X343894Y330287D01*
X341926Y328319D02*
X341139D01*
X341532D01*
Y330681D01*
X341926Y330287D01*
X339958Y328319D02*
Y329894D01*
X339171Y330681D01*
X338384Y329894D01*
Y328319D01*
Y329500D01*
X339958D01*
X295313Y352319D02*
Y354681D01*
X294132D01*
X293739Y354287D01*
Y353500D01*
X294132Y353106D01*
X295313D01*
X294526D02*
X293739Y352319D01*
X291377D02*
X292952D01*
X291377Y353894D01*
Y354287D01*
X291771Y354681D01*
X292558D01*
X292952Y354287D01*
X290590Y352319D02*
X289803D01*
X290197D01*
Y354681D01*
X290590Y354287D01*
X288622D02*
X288229Y354681D01*
X287442D01*
X287048Y354287D01*
Y352713D01*
X287442Y352319D01*
X288229D01*
X288622Y352713D01*
Y354287D01*
X286261Y354681D02*
Y352319D01*
X285080D01*
X284687Y352713D01*
Y353106D01*
X285080Y353500D01*
X286261D01*
X285080D01*
X284687Y353894D01*
Y354287D01*
X285080Y354681D01*
X286261D01*
X397813Y348819D02*
Y351181D01*
X396633D01*
X396239Y350787D01*
Y350000D01*
X396633Y349606D01*
X397813D01*
X397026D02*
X396239Y348819D01*
X393878D02*
X395452D01*
X393878Y350394D01*
Y350787D01*
X394271Y351181D01*
X395058D01*
X395452Y350787D01*
X393090Y348819D02*
X392303D01*
X392697D01*
Y351181D01*
X393090Y350787D01*
X391123D02*
X390729Y351181D01*
X389942D01*
X389548Y350787D01*
Y349213D01*
X389942Y348819D01*
X390729D01*
X391123Y349213D01*
Y350787D01*
X388761Y348819D02*
Y350394D01*
X387974Y351181D01*
X387187Y350394D01*
Y348819D01*
Y350000D01*
X388761D01*
X246010Y336819D02*
Y339181D01*
X244829D01*
X244436Y338787D01*
Y338000D01*
X244829Y337606D01*
X246010D01*
X245223D02*
X244436Y336819D01*
X242074D02*
X243649D01*
X242074Y338394D01*
Y338787D01*
X242468Y339181D01*
X243255D01*
X243649Y338787D01*
X241287D02*
X240894Y339181D01*
X240106D01*
X239713Y338787D01*
Y337213D01*
X240106Y336819D01*
X240894D01*
X241287Y337213D01*
Y338787D01*
X238926Y337213D02*
X238532Y336819D01*
X237745D01*
X237351Y337213D01*
Y338787D01*
X237745Y339181D01*
X238532D01*
X238926Y338787D01*
Y338394D01*
X238532Y338000D01*
X237351D01*
X236564Y339181D02*
Y336819D01*
X235384D01*
X234990Y337213D01*
Y337606D01*
X235384Y338000D01*
X236564D01*
X235384D01*
X234990Y338394D01*
Y338787D01*
X235384Y339181D01*
X236564D01*
X348510Y332819D02*
Y335181D01*
X347329D01*
X346936Y334787D01*
Y334000D01*
X347329Y333606D01*
X348510D01*
X347723D02*
X346936Y332819D01*
X344574D02*
X346149D01*
X344574Y334394D01*
Y334787D01*
X344968Y335181D01*
X345755D01*
X346149Y334787D01*
X343787D02*
X343394Y335181D01*
X342606D01*
X342213Y334787D01*
Y333213D01*
X342606Y332819D01*
X343394D01*
X343787Y333213D01*
Y334787D01*
X341426Y333213D02*
X341032Y332819D01*
X340245D01*
X339851Y333213D01*
Y334787D01*
X340245Y335181D01*
X341032D01*
X341426Y334787D01*
Y334394D01*
X341032Y334000D01*
X339851D01*
X339064Y332819D02*
Y334394D01*
X338277Y335181D01*
X337490Y334394D01*
Y332819D01*
Y334000D01*
X339064D01*
X297510Y337819D02*
Y340181D01*
X296329D01*
X295936Y339787D01*
Y339000D01*
X296329Y338606D01*
X297510D01*
X296723D02*
X295936Y337819D01*
X293574D02*
X295149D01*
X293574Y339394D01*
Y339787D01*
X293968Y340181D01*
X294755D01*
X295149Y339787D01*
X292787D02*
X292394Y340181D01*
X291606D01*
X291213Y339787D01*
Y338213D01*
X291606Y337819D01*
X292394D01*
X292787Y338213D01*
Y339787D01*
X290426D02*
X290032Y340181D01*
X289245D01*
X288851Y339787D01*
Y339394D01*
X289245Y339000D01*
X288851Y338606D01*
Y338213D01*
X289245Y337819D01*
X290032D01*
X290426Y338213D01*
Y338606D01*
X290032Y339000D01*
X290426Y339394D01*
Y339787D01*
X290032Y339000D02*
X289245D01*
X288064Y340181D02*
Y337819D01*
X286883D01*
X286490Y338213D01*
Y338606D01*
X286883Y339000D01*
X288064D01*
X286883D01*
X286490Y339394D01*
Y339787D01*
X286883Y340181D01*
X288064D01*
X398510Y334819D02*
Y337181D01*
X397329D01*
X396936Y336787D01*
Y336000D01*
X397329Y335606D01*
X398510D01*
X397723D02*
X396936Y334819D01*
X394574D02*
X396149D01*
X394574Y336394D01*
Y336787D01*
X394968Y337181D01*
X395755D01*
X396149Y336787D01*
X393787D02*
X393394Y337181D01*
X392606D01*
X392213Y336787D01*
Y335213D01*
X392606Y334819D01*
X393394D01*
X393787Y335213D01*
Y336787D01*
X391426D02*
X391032Y337181D01*
X390245D01*
X389851Y336787D01*
Y336394D01*
X390245Y336000D01*
X389851Y335606D01*
Y335213D01*
X390245Y334819D01*
X391032D01*
X391426Y335213D01*
Y335606D01*
X391032Y336000D01*
X391426Y336394D01*
Y336787D01*
X391032Y336000D02*
X390245D01*
X389064Y334819D02*
Y336394D01*
X388277Y337181D01*
X387490Y336394D01*
Y334819D01*
Y336000D01*
X389064D01*
X284681Y346010D02*
X282319D01*
Y344829D01*
X282713Y344436D01*
X283500D01*
X283894Y344829D01*
Y346010D01*
Y345223D02*
X284681Y344436D01*
Y342074D02*
Y343649D01*
X283106Y342074D01*
X282713D01*
X282319Y342468D01*
Y343255D01*
X282713Y343649D01*
Y341287D02*
X282319Y340894D01*
Y340106D01*
X282713Y339713D01*
X284287D01*
X284681Y340106D01*
Y340894D01*
X284287Y341287D01*
X282713D01*
X282319Y338926D02*
Y337351D01*
X282713D01*
X284287Y338926D01*
X284681D01*
X282319Y336564D02*
X284681D01*
Y335384D01*
X284287Y334990D01*
X283894D01*
X283500Y335384D01*
Y336564D01*
Y335384D01*
X283106Y334990D01*
X282713D01*
X282319Y335384D01*
Y336564D01*
X386181Y342510D02*
X383819D01*
Y341329D01*
X384213Y340936D01*
X385000D01*
X385394Y341329D01*
Y342510D01*
Y341723D02*
X386181Y340936D01*
Y338574D02*
Y340149D01*
X384606Y338574D01*
X384213D01*
X383819Y338968D01*
Y339755D01*
X384213Y340149D01*
Y337787D02*
X383819Y337394D01*
Y336606D01*
X384213Y336213D01*
X385787D01*
X386181Y336606D01*
Y337394D01*
X385787Y337787D01*
X384213D01*
X383819Y335426D02*
Y333851D01*
X384213D01*
X385787Y335426D01*
X386181D01*
Y333064D02*
X384606D01*
X383819Y332277D01*
X384606Y331490D01*
X386181D01*
X385000D01*
Y333064D01*
X268510Y324319D02*
Y326681D01*
X267329D01*
X266936Y326287D01*
Y325500D01*
X267329Y325106D01*
X268510D01*
X267723D02*
X266936Y324319D01*
X264574D02*
X266149D01*
X264574Y325894D01*
Y326287D01*
X264968Y326681D01*
X265755D01*
X266149Y326287D01*
X263787D02*
X263394Y326681D01*
X262606D01*
X262213Y326287D01*
Y324713D01*
X262606Y324319D01*
X263394D01*
X263787Y324713D01*
Y326287D01*
X259851Y326681D02*
X260638Y326287D01*
X261426Y325500D01*
Y324713D01*
X261032Y324319D01*
X260245D01*
X259851Y324713D01*
Y325106D01*
X260245Y325500D01*
X261426D01*
X259064Y326681D02*
Y324319D01*
X257884D01*
X257490Y324713D01*
Y325106D01*
X257884Y325500D01*
X259064D01*
X257884D01*
X257490Y325894D01*
Y326287D01*
X257884Y326681D01*
X259064D01*
X371510Y320819D02*
Y323181D01*
X370329D01*
X369936Y322787D01*
Y322000D01*
X370329Y321606D01*
X371510D01*
X370723D02*
X369936Y320819D01*
X367574D02*
X369149D01*
X367574Y322394D01*
Y322787D01*
X367968Y323181D01*
X368755D01*
X369149Y322787D01*
X366787D02*
X366394Y323181D01*
X365606D01*
X365213Y322787D01*
Y321213D01*
X365606Y320819D01*
X366394D01*
X366787Y321213D01*
Y322787D01*
X362851Y323181D02*
X363638Y322787D01*
X364426Y322000D01*
Y321213D01*
X364032Y320819D01*
X363245D01*
X362851Y321213D01*
Y321606D01*
X363245Y322000D01*
X364426D01*
X362064Y320819D02*
Y322394D01*
X361277Y323181D01*
X360490Y322394D01*
Y320819D01*
Y322000D01*
X362064D01*
X271510Y317319D02*
Y319681D01*
X270329D01*
X269936Y319287D01*
Y318500D01*
X270329Y318106D01*
X271510D01*
X270723D02*
X269936Y317319D01*
X267574D02*
X269149D01*
X267574Y318894D01*
Y319287D01*
X267968Y319681D01*
X268755D01*
X269149Y319287D01*
X266787D02*
X266394Y319681D01*
X265606D01*
X265213Y319287D01*
Y317713D01*
X265606Y317319D01*
X266394D01*
X266787Y317713D01*
Y319287D01*
X262851Y319681D02*
X264426D01*
Y318500D01*
X263638Y318894D01*
X263245D01*
X262851Y318500D01*
Y317713D01*
X263245Y317319D01*
X264032D01*
X264426Y317713D01*
X262064Y319681D02*
Y317319D01*
X260883D01*
X260490Y317713D01*
Y318106D01*
X260883Y318500D01*
X262064D01*
X260883D01*
X260490Y318894D01*
Y319287D01*
X260883Y319681D01*
X262064D01*
X374510Y313819D02*
Y316181D01*
X373329D01*
X372936Y315787D01*
Y315000D01*
X373329Y314606D01*
X374510D01*
X373723D02*
X372936Y313819D01*
X370574D02*
X372149D01*
X370574Y315394D01*
Y315787D01*
X370968Y316181D01*
X371755D01*
X372149Y315787D01*
X369787D02*
X369394Y316181D01*
X368606D01*
X368213Y315787D01*
Y314213D01*
X368606Y313819D01*
X369394D01*
X369787Y314213D01*
Y315787D01*
X365851Y316181D02*
X367426D01*
Y315000D01*
X366638Y315394D01*
X366245D01*
X365851Y315000D01*
Y314213D01*
X366245Y313819D01*
X367032D01*
X367426Y314213D01*
X365064Y313819D02*
Y315394D01*
X364277Y316181D01*
X363490Y315394D01*
Y313819D01*
Y315000D01*
X365064D01*
X258010Y371319D02*
Y373681D01*
X256829D01*
X256436Y373287D01*
Y372500D01*
X256829Y372106D01*
X258010D01*
X257223D02*
X256436Y371319D01*
X254074D02*
X255649D01*
X254074Y372894D01*
Y373287D01*
X254468Y373681D01*
X255255D01*
X255649Y373287D01*
X253287D02*
X252894Y373681D01*
X252106D01*
X251713Y373287D01*
Y371713D01*
X252106Y371319D01*
X252894D01*
X253287Y371713D01*
Y373287D01*
X249745Y371319D02*
Y373681D01*
X250926Y372500D01*
X249351D01*
X248564Y373681D02*
Y371319D01*
X247383D01*
X246990Y371713D01*
Y372106D01*
X247383Y372500D01*
X248564D01*
X247383D01*
X246990Y372894D01*
Y373287D01*
X247383Y373681D01*
X248564D01*
X352010Y362819D02*
Y365181D01*
X350829D01*
X350436Y364787D01*
Y364000D01*
X350829Y363606D01*
X352010D01*
X351223D02*
X350436Y362819D01*
X348074D02*
X349649D01*
X348074Y364394D01*
Y364787D01*
X348468Y365181D01*
X349255D01*
X349649Y364787D01*
X347287D02*
X346894Y365181D01*
X346106D01*
X345713Y364787D01*
Y363213D01*
X346106Y362819D01*
X346894D01*
X347287Y363213D01*
Y364787D01*
X343745Y362819D02*
Y365181D01*
X344926Y364000D01*
X343351D01*
X342564Y362819D02*
Y364394D01*
X341777Y365181D01*
X340990Y364394D01*
Y362819D01*
Y364000D01*
X342564D01*
X283181Y378010D02*
X280819D01*
Y376829D01*
X281213Y376436D01*
X282000D01*
X282394Y376829D01*
Y378010D01*
Y377223D02*
X283181Y376436D01*
Y374074D02*
Y375649D01*
X281606Y374074D01*
X281213D01*
X280819Y374468D01*
Y375255D01*
X281213Y375649D01*
Y373287D02*
X280819Y372894D01*
Y372106D01*
X281213Y371713D01*
X282787D01*
X283181Y372106D01*
Y372894D01*
X282787Y373287D01*
X281213D01*
Y370926D02*
X280819Y370532D01*
Y369745D01*
X281213Y369351D01*
X281606D01*
X282000Y369745D01*
Y370139D01*
Y369745D01*
X282394Y369351D01*
X282787D01*
X283181Y369745D01*
Y370532D01*
X282787Y370926D01*
X280819Y368564D02*
X283181D01*
Y367384D01*
X282787Y366990D01*
X282394D01*
X282000Y367384D01*
Y368564D01*
Y367384D01*
X281606Y366990D01*
X281213D01*
X280819Y367384D01*
Y368564D01*
X385681Y375010D02*
X383319D01*
Y373829D01*
X383713Y373436D01*
X384500D01*
X384894Y373829D01*
Y375010D01*
Y374223D02*
X385681Y373436D01*
Y371074D02*
Y372649D01*
X384106Y371074D01*
X383713D01*
X383319Y371468D01*
Y372255D01*
X383713Y372649D01*
Y370287D02*
X383319Y369894D01*
Y369106D01*
X383713Y368713D01*
X385287D01*
X385681Y369106D01*
Y369894D01*
X385287Y370287D01*
X383713D01*
Y367926D02*
X383319Y367532D01*
Y366745D01*
X383713Y366351D01*
X384106D01*
X384500Y366745D01*
Y367139D01*
Y366745D01*
X384894Y366351D01*
X385287D01*
X385681Y366745D01*
Y367532D01*
X385287Y367926D01*
X385681Y365564D02*
X384106D01*
X383319Y364777D01*
X384106Y363990D01*
X385681D01*
X384500D01*
Y365564D01*
X297510Y341819D02*
Y344181D01*
X296329D01*
X295936Y343787D01*
Y343000D01*
X296329Y342606D01*
X297510D01*
X296723D02*
X295936Y341819D01*
X293574D02*
X295149D01*
X293574Y343394D01*
Y343787D01*
X293968Y344181D01*
X294755D01*
X295149Y343787D01*
X292787D02*
X292394Y344181D01*
X291606D01*
X291213Y343787D01*
Y342213D01*
X291606Y341819D01*
X292394D01*
X292787Y342213D01*
Y343787D01*
X288851Y341819D02*
X290426D01*
X288851Y343394D01*
Y343787D01*
X289245Y344181D01*
X290032D01*
X290426Y343787D01*
X288064Y344181D02*
Y341819D01*
X286883D01*
X286490Y342213D01*
Y342606D01*
X286883Y343000D01*
X288064D01*
X286883D01*
X286490Y343394D01*
Y343787D01*
X286883Y344181D01*
X288064D01*
X398510Y338819D02*
Y341181D01*
X397329D01*
X396936Y340787D01*
Y340000D01*
X397329Y339606D01*
X398510D01*
X397723D02*
X396936Y338819D01*
X394574D02*
X396149D01*
X394574Y340394D01*
Y340787D01*
X394968Y341181D01*
X395755D01*
X396149Y340787D01*
X393787D02*
X393394Y341181D01*
X392606D01*
X392213Y340787D01*
Y339213D01*
X392606Y338819D01*
X393394D01*
X393787Y339213D01*
Y340787D01*
X389851Y338819D02*
X391426D01*
X389851Y340394D01*
Y340787D01*
X390245Y341181D01*
X391032D01*
X391426Y340787D01*
X389064Y338819D02*
Y340394D01*
X388277Y341181D01*
X387490Y340394D01*
Y338819D01*
Y340000D01*
X389064D01*
X284313Y317319D02*
Y319681D01*
X283133D01*
X282739Y319287D01*
Y318500D01*
X283133Y318106D01*
X284313D01*
X283526D02*
X282739Y317319D01*
X280378D02*
X281952D01*
X280378Y318894D01*
Y319287D01*
X280771Y319681D01*
X281558D01*
X281952Y319287D01*
X279590D02*
X279197Y319681D01*
X278410D01*
X278016Y319287D01*
Y317713D01*
X278410Y317319D01*
X279197D01*
X279590Y317713D01*
Y319287D01*
X277229Y317319D02*
X276442D01*
X276835D01*
Y319681D01*
X277229Y319287D01*
X275261Y319681D02*
Y317319D01*
X274080D01*
X273687Y317713D01*
Y318106D01*
X274080Y318500D01*
X275261D01*
X274080D01*
X273687Y318894D01*
Y319287D01*
X274080Y319681D01*
X275261D01*
X387813Y313819D02*
Y316181D01*
X386632D01*
X386239Y315787D01*
Y315000D01*
X386632Y314606D01*
X387813D01*
X387026D02*
X386239Y313819D01*
X383877D02*
X385452D01*
X383877Y315394D01*
Y315787D01*
X384271Y316181D01*
X385058D01*
X385452Y315787D01*
X383090D02*
X382697Y316181D01*
X381910D01*
X381516Y315787D01*
Y314213D01*
X381910Y313819D01*
X382697D01*
X383090Y314213D01*
Y315787D01*
X380729Y313819D02*
X379942D01*
X380335D01*
Y316181D01*
X380729Y315787D01*
X378761Y313819D02*
Y315394D01*
X377974Y316181D01*
X377187Y315394D01*
Y313819D01*
Y315000D01*
X378761D01*
X526287Y173436D02*
X524713D01*
X524319Y173829D01*
Y174617D01*
X524713Y175010D01*
X526287D01*
X526681Y174617D01*
Y173829D01*
X525894Y174223D02*
X526681Y173436D01*
Y173829D02*
X526287Y173436D01*
X524319Y171074D02*
Y172649D01*
X525500D01*
X525106Y171861D01*
Y171468D01*
X525500Y171074D01*
X526287D01*
X526681Y171468D01*
Y172255D01*
X526287Y172649D01*
X524713Y170287D02*
X524319Y169894D01*
Y169106D01*
X524713Y168713D01*
X526287D01*
X526681Y169106D01*
Y169894D01*
X526287Y170287D01*
X524713D01*
Y167926D02*
X524319Y167532D01*
Y166745D01*
X524713Y166351D01*
X525106D01*
X525500Y166745D01*
Y167139D01*
Y166745D01*
X525894Y166351D01*
X526287D01*
X526681Y166745D01*
Y167532D01*
X526287Y167926D01*
X524319Y163990D02*
Y165564D01*
X526681D01*
Y163990D01*
X525500Y165564D02*
Y164777D01*
X526287Y232936D02*
X524713D01*
X524319Y233329D01*
Y234116D01*
X524713Y234510D01*
X526287D01*
X526681Y234116D01*
Y233329D01*
X525894Y233723D02*
X526681Y232936D01*
Y233329D02*
X526287Y232936D01*
X524319Y230574D02*
Y232149D01*
X525500D01*
X525106Y231361D01*
Y230968D01*
X525500Y230574D01*
X526287D01*
X526681Y230968D01*
Y231755D01*
X526287Y232149D01*
X524713Y229787D02*
X524319Y229394D01*
Y228606D01*
X524713Y228213D01*
X526287D01*
X526681Y228606D01*
Y229394D01*
X526287Y229787D01*
X524713D01*
Y227426D02*
X524319Y227032D01*
Y226245D01*
X524713Y225851D01*
X525106D01*
X525500Y226245D01*
Y226639D01*
Y226245D01*
X525894Y225851D01*
X526287D01*
X526681Y226245D01*
Y227032D01*
X526287Y227426D01*
X524319Y225064D02*
X526681D01*
Y223884D01*
X526287Y223490D01*
X524713D01*
X524319Y223884D01*
Y225064D01*
X536787Y322436D02*
X535213D01*
X534819Y322829D01*
Y323616D01*
X535213Y324010D01*
X536787D01*
X537181Y323616D01*
Y322829D01*
X536394Y323223D02*
X537181Y322436D01*
Y322829D02*
X536787Y322436D01*
X534819Y320074D02*
Y321649D01*
X536000D01*
X535606Y320861D01*
Y320468D01*
X536000Y320074D01*
X536787D01*
X537181Y320468D01*
Y321255D01*
X536787Y321649D01*
X535213Y319287D02*
X534819Y318894D01*
Y318106D01*
X535213Y317713D01*
X536787D01*
X537181Y318106D01*
Y318894D01*
X536787Y319287D01*
X535213D01*
Y316926D02*
X534819Y316532D01*
Y315745D01*
X535213Y315351D01*
X535606D01*
X536000Y315745D01*
Y316139D01*
Y315745D01*
X536394Y315351D01*
X536787D01*
X537181Y315745D01*
Y316532D01*
X536787Y316926D01*
X534819Y314564D02*
X537181D01*
Y313384D01*
X536787Y312990D01*
X536394D01*
X536000Y313384D01*
Y314564D01*
Y313384D01*
X535606Y312990D01*
X535213D01*
X534819Y313384D01*
Y314564D01*
X525787Y205239D02*
X524213D01*
X523819Y205632D01*
Y206420D01*
X524213Y206813D01*
X525787D01*
X526181Y206420D01*
Y205632D01*
X525394Y206026D02*
X526181Y205239D01*
Y205632D02*
X525787Y205239D01*
X523819Y202877D02*
Y204452D01*
X525000D01*
X524606Y203665D01*
Y203271D01*
X525000Y202877D01*
X525787D01*
X526181Y203271D01*
Y204058D01*
X525787Y204452D01*
X524213Y202090D02*
X523819Y201697D01*
Y200910D01*
X524213Y200516D01*
X525787D01*
X526181Y200910D01*
Y201697D01*
X525787Y202090D01*
X524213D01*
X526181Y199729D02*
Y198942D01*
Y199335D01*
X523819D01*
X524213Y199729D01*
X523819Y196187D02*
Y197761D01*
X526181D01*
Y196187D01*
X525000Y197761D02*
Y196974D01*
X525787Y264739D02*
X524213D01*
X523819Y265132D01*
Y265920D01*
X524213Y266313D01*
X525787D01*
X526181Y265920D01*
Y265132D01*
X525394Y265526D02*
X526181Y264739D01*
Y265132D02*
X525787Y264739D01*
X523819Y262378D02*
Y263952D01*
X525000D01*
X524606Y263165D01*
Y262771D01*
X525000Y262378D01*
X525787D01*
X526181Y262771D01*
Y263558D01*
X525787Y263952D01*
X524213Y261590D02*
X523819Y261197D01*
Y260410D01*
X524213Y260016D01*
X525787D01*
X526181Y260410D01*
Y261197D01*
X525787Y261590D01*
X524213D01*
X526181Y259229D02*
Y258442D01*
Y258835D01*
X523819D01*
X524213Y259229D01*
X523819Y257261D02*
X526181D01*
Y256080D01*
X525787Y255687D01*
X524213D01*
X523819Y256080D01*
Y257261D01*
X535787Y352739D02*
X534213D01*
X533819Y353133D01*
Y353920D01*
X534213Y354313D01*
X535787D01*
X536181Y353920D01*
Y353133D01*
X535394Y353526D02*
X536181Y352739D01*
Y353133D02*
X535787Y352739D01*
X533819Y350377D02*
Y351952D01*
X535000D01*
X534606Y351165D01*
Y350771D01*
X535000Y350377D01*
X535787D01*
X536181Y350771D01*
Y351558D01*
X535787Y351952D01*
X534213Y349590D02*
X533819Y349197D01*
Y348410D01*
X534213Y348016D01*
X535787D01*
X536181Y348410D01*
Y349197D01*
X535787Y349590D01*
X534213D01*
X536181Y347229D02*
Y346442D01*
Y346835D01*
X533819D01*
X534213Y347229D01*
X533819Y345261D02*
X536181D01*
Y344080D01*
X535787Y343687D01*
X535394D01*
X535000Y344080D01*
Y345261D01*
Y344080D01*
X534606Y343687D01*
X534213D01*
X533819Y344080D01*
Y345261D01*
X261787Y374936D02*
X260213D01*
X259819Y375329D01*
Y376116D01*
X260213Y376510D01*
X261787D01*
X262181Y376116D01*
Y375329D01*
X261394Y375723D02*
X262181Y374936D01*
Y375329D02*
X261787Y374936D01*
X262181Y372574D02*
Y374149D01*
X260606Y372574D01*
X260213D01*
X259819Y372968D01*
Y373755D01*
X260213Y374149D01*
Y371787D02*
X259819Y371394D01*
Y370606D01*
X260213Y370213D01*
X261787D01*
X262181Y370606D01*
Y371394D01*
X261787Y371787D01*
X260213D01*
X259819Y367851D02*
X260213Y368638D01*
X261000Y369426D01*
X261787D01*
X262181Y369032D01*
Y368245D01*
X261787Y367851D01*
X261394D01*
X261000Y368245D01*
Y369426D01*
X259819Y367064D02*
X262181D01*
Y365883D01*
X261787Y365490D01*
X261394D01*
X261000Y365883D01*
Y367064D01*
Y365883D01*
X260606Y365490D01*
X260213D01*
X259819Y365883D01*
Y367064D01*
X363787Y371436D02*
X362213D01*
X361819Y371829D01*
Y372616D01*
X362213Y373010D01*
X363787D01*
X364181Y372616D01*
Y371829D01*
X363394Y372223D02*
X364181Y371436D01*
Y371829D02*
X363787Y371436D01*
X364181Y369074D02*
Y370649D01*
X362606Y369074D01*
X362213D01*
X361819Y369468D01*
Y370255D01*
X362213Y370649D01*
Y368287D02*
X361819Y367894D01*
Y367106D01*
X362213Y366713D01*
X363787D01*
X364181Y367106D01*
Y367894D01*
X363787Y368287D01*
X362213D01*
X361819Y364351D02*
X362213Y365139D01*
X363000Y365926D01*
X363787D01*
X364181Y365532D01*
Y364745D01*
X363787Y364351D01*
X363394D01*
X363000Y364745D01*
Y365926D01*
X364181Y363564D02*
X362606D01*
X361819Y362777D01*
X362606Y361990D01*
X364181D01*
X363000D01*
Y363564D01*
X266287Y374936D02*
X264713D01*
X264319Y375329D01*
Y376116D01*
X264713Y376510D01*
X266287D01*
X266681Y376116D01*
Y375329D01*
X265894Y375723D02*
X266681Y374936D01*
Y375329D02*
X266287Y374936D01*
X266681Y372574D02*
Y374149D01*
X265106Y372574D01*
X264713D01*
X264319Y372968D01*
Y373755D01*
X264713Y374149D01*
Y371787D02*
X264319Y371394D01*
Y370606D01*
X264713Y370213D01*
X266287D01*
X266681Y370606D01*
Y371394D01*
X266287Y371787D01*
X264713D01*
X264319Y367851D02*
Y369426D01*
X265500D01*
X265106Y368638D01*
Y368245D01*
X265500Y367851D01*
X266287D01*
X266681Y368245D01*
Y369032D01*
X266287Y369426D01*
X264319Y367064D02*
X266681D01*
Y365883D01*
X266287Y365490D01*
X265894D01*
X265500Y365883D01*
Y367064D01*
Y365883D01*
X265106Y365490D01*
X264713D01*
X264319Y365883D01*
Y367064D01*
X367787Y371436D02*
X366213D01*
X365819Y371829D01*
Y372616D01*
X366213Y373010D01*
X367787D01*
X368181Y372616D01*
Y371829D01*
X367394Y372223D02*
X368181Y371436D01*
Y371829D02*
X367787Y371436D01*
X368181Y369074D02*
Y370649D01*
X366606Y369074D01*
X366213D01*
X365819Y369468D01*
Y370255D01*
X366213Y370649D01*
Y368287D02*
X365819Y367894D01*
Y367106D01*
X366213Y366713D01*
X367787D01*
X368181Y367106D01*
Y367894D01*
X367787Y368287D01*
X366213D01*
X365819Y364351D02*
Y365926D01*
X367000D01*
X366606Y365139D01*
Y364745D01*
X367000Y364351D01*
X367787D01*
X368181Y364745D01*
Y365532D01*
X367787Y365926D01*
X368181Y363564D02*
X366606D01*
X365819Y362777D01*
X366606Y361990D01*
X368181D01*
X367000D01*
Y363564D01*
X244436Y351713D02*
Y353287D01*
X244829Y353681D01*
X245616D01*
X246010Y353287D01*
Y351713D01*
X245616Y351319D01*
X244829D01*
X245223Y352106D02*
X244436Y351319D01*
X244829D02*
X244436Y351713D01*
X242074Y351319D02*
X243649D01*
X242074Y352894D01*
Y353287D01*
X242468Y353681D01*
X243255D01*
X243649Y353287D01*
X241287D02*
X240894Y353681D01*
X240106D01*
X239713Y353287D01*
Y351713D01*
X240106Y351319D01*
X240894D01*
X241287Y351713D01*
Y353287D01*
X237745Y351319D02*
Y353681D01*
X238926Y352500D01*
X237351D01*
X236564Y353681D02*
Y351319D01*
X235384D01*
X234990Y351713D01*
Y352106D01*
X235384Y352500D01*
X236564D01*
X235384D01*
X234990Y352894D01*
Y353287D01*
X235384Y353681D01*
X236564D01*
X346436Y348213D02*
Y349787D01*
X346829Y350181D01*
X347616D01*
X348010Y349787D01*
Y348213D01*
X347616Y347819D01*
X346829D01*
X347223Y348606D02*
X346436Y347819D01*
X346829D02*
X346436Y348213D01*
X344074Y347819D02*
X345649D01*
X344074Y349394D01*
Y349787D01*
X344468Y350181D01*
X345255D01*
X345649Y349787D01*
X343287D02*
X342894Y350181D01*
X342106D01*
X341713Y349787D01*
Y348213D01*
X342106Y347819D01*
X342894D01*
X343287Y348213D01*
Y349787D01*
X339745Y347819D02*
Y350181D01*
X340926Y349000D01*
X339351D01*
X338564Y347819D02*
Y349394D01*
X337777Y350181D01*
X336990Y349394D01*
Y347819D01*
Y349000D01*
X338564D01*
X290936Y348213D02*
Y349787D01*
X291329Y350181D01*
X292116D01*
X292510Y349787D01*
Y348213D01*
X292116Y347819D01*
X291329D01*
X291723Y348606D02*
X290936Y347819D01*
X291329D02*
X290936Y348213D01*
X288574Y347819D02*
X290149D01*
X288574Y349394D01*
Y349787D01*
X288968Y350181D01*
X289755D01*
X290149Y349787D01*
X287787D02*
X287394Y350181D01*
X286606D01*
X286213Y349787D01*
Y348213D01*
X286606Y347819D01*
X287394D01*
X287787Y348213D01*
Y349787D01*
X285426D02*
X285032Y350181D01*
X284245D01*
X283851Y349787D01*
Y349394D01*
X284245Y349000D01*
X284639D01*
X284245D01*
X283851Y348606D01*
Y348213D01*
X284245Y347819D01*
X285032D01*
X285426Y348213D01*
X283064Y350181D02*
Y347819D01*
X281884D01*
X281490Y348213D01*
Y348606D01*
X281884Y349000D01*
X283064D01*
X281884D01*
X281490Y349394D01*
Y349787D01*
X281884Y350181D01*
X283064D01*
X392936Y344713D02*
Y346287D01*
X393329Y346681D01*
X394116D01*
X394510Y346287D01*
Y344713D01*
X394116Y344319D01*
X393329D01*
X393723Y345106D02*
X392936Y344319D01*
X393329D02*
X392936Y344713D01*
X390574Y344319D02*
X392149D01*
X390574Y345894D01*
Y346287D01*
X390968Y346681D01*
X391755D01*
X392149Y346287D01*
X389787D02*
X389394Y346681D01*
X388606D01*
X388213Y346287D01*
Y344713D01*
X388606Y344319D01*
X389394D01*
X389787Y344713D01*
Y346287D01*
X387426D02*
X387032Y346681D01*
X386245D01*
X385851Y346287D01*
Y345894D01*
X386245Y345500D01*
X386638D01*
X386245D01*
X385851Y345106D01*
Y344713D01*
X386245Y344319D01*
X387032D01*
X387426Y344713D01*
X385064Y344319D02*
Y345894D01*
X384277Y346681D01*
X383490Y345894D01*
Y344319D01*
Y345500D01*
X385064D01*
X257436Y328213D02*
Y329787D01*
X257829Y330181D01*
X258616D01*
X259010Y329787D01*
Y328213D01*
X258616Y327819D01*
X257829D01*
X258223Y328606D02*
X257436Y327819D01*
X257829D02*
X257436Y328213D01*
X255074Y327819D02*
X256649D01*
X255074Y329394D01*
Y329787D01*
X255468Y330181D01*
X256255D01*
X256649Y329787D01*
X254287D02*
X253894Y330181D01*
X253106D01*
X252713Y329787D01*
Y328213D01*
X253106Y327819D01*
X253894D01*
X254287Y328213D01*
Y329787D01*
X250351Y327819D02*
X251926D01*
X250351Y329394D01*
Y329787D01*
X250745Y330181D01*
X251532D01*
X251926Y329787D01*
X249564Y330181D02*
Y327819D01*
X248383D01*
X247990Y328213D01*
Y328606D01*
X248383Y329000D01*
X249564D01*
X248383D01*
X247990Y329394D01*
Y329787D01*
X248383Y330181D01*
X249564D01*
X358936Y324213D02*
Y325787D01*
X359329Y326181D01*
X360116D01*
X360510Y325787D01*
Y324213D01*
X360116Y323819D01*
X359329D01*
X359723Y324606D02*
X358936Y323819D01*
X359329D02*
X358936Y324213D01*
X356574Y323819D02*
X358149D01*
X356574Y325394D01*
Y325787D01*
X356968Y326181D01*
X357755D01*
X358149Y325787D01*
X355787D02*
X355394Y326181D01*
X354606D01*
X354213Y325787D01*
Y324213D01*
X354606Y323819D01*
X355394D01*
X355787Y324213D01*
Y325787D01*
X351851Y323819D02*
X353426D01*
X351851Y325394D01*
Y325787D01*
X352245Y326181D01*
X353032D01*
X353426Y325787D01*
X351064Y323819D02*
Y325394D01*
X350277Y326181D01*
X349490Y325394D01*
Y323819D01*
Y325000D01*
X351064D01*
X284287Y330739D02*
X282713D01*
X282319Y331133D01*
Y331920D01*
X282713Y332313D01*
X284287D01*
X284681Y331920D01*
Y331133D01*
X283894Y331526D02*
X284681Y330739D01*
Y331133D02*
X284287Y330739D01*
X284681Y328378D02*
Y329952D01*
X283106Y328378D01*
X282713D01*
X282319Y328771D01*
Y329558D01*
X282713Y329952D01*
Y327590D02*
X282319Y327197D01*
Y326410D01*
X282713Y326016D01*
X284287D01*
X284681Y326410D01*
Y327197D01*
X284287Y327590D01*
X282713D01*
X284681Y325229D02*
Y324442D01*
Y324835D01*
X282319D01*
X282713Y325229D01*
X282319Y323261D02*
X284681D01*
Y322080D01*
X284287Y321687D01*
X283894D01*
X283500Y322080D01*
Y323261D01*
Y322080D01*
X283106Y321687D01*
X282713D01*
X282319Y322080D01*
Y323261D01*
X385787Y328239D02*
X384213D01*
X383819Y328632D01*
Y329420D01*
X384213Y329813D01*
X385787D01*
X386181Y329420D01*
Y328632D01*
X385394Y329026D02*
X386181Y328239D01*
Y328632D02*
X385787Y328239D01*
X386181Y325877D02*
Y327452D01*
X384606Y325877D01*
X384213D01*
X383819Y326271D01*
Y327058D01*
X384213Y327452D01*
Y325090D02*
X383819Y324697D01*
Y323910D01*
X384213Y323516D01*
X385787D01*
X386181Y323910D01*
Y324697D01*
X385787Y325090D01*
X384213D01*
X386181Y322729D02*
Y321942D01*
Y322335D01*
X383819D01*
X384213Y322729D01*
X386181Y320761D02*
X384606D01*
X383819Y319974D01*
X384606Y319187D01*
X386181D01*
X385000D01*
Y320761D01*
X359100Y250681D02*
Y248319D01*
X357526D01*
X356739D02*
X355952D01*
X356345D01*
Y250681D01*
X356739Y250287D01*
X354771Y248319D02*
X353984D01*
X354378D01*
Y250681D01*
X354771Y250287D01*
X352803D02*
X352410Y250681D01*
X351623D01*
X351229Y250287D01*
Y248713D01*
X351623Y248319D01*
X352410D01*
X352803Y248713D01*
Y250287D01*
X350442Y248319D02*
X349655D01*
X350048D01*
Y250681D01*
X350442Y250287D01*
X348474Y250681D02*
Y248319D01*
X347293D01*
X346900Y248713D01*
Y249106D01*
X347293Y249500D01*
X348474D01*
X347293D01*
X346900Y249894D01*
Y250287D01*
X347293Y250681D01*
X348474D01*
X267600Y260681D02*
Y258319D01*
X266026D01*
X265239D02*
X264452D01*
X264845D01*
Y260681D01*
X265239Y260287D01*
X263271Y258319D02*
X262484D01*
X262877D01*
Y260681D01*
X263271Y260287D01*
X261303D02*
X260910Y260681D01*
X260122D01*
X259729Y260287D01*
Y258713D01*
X260122Y258319D01*
X260910D01*
X261303Y258713D01*
Y260287D01*
X258942Y258319D02*
X258155D01*
X258548D01*
Y260681D01*
X258942Y260287D01*
X256974Y258319D02*
Y259894D01*
X256187Y260681D01*
X255400Y259894D01*
Y258319D01*
Y259500D01*
X256974D01*
X400819Y139829D02*
X403181D01*
Y138649D01*
X402787Y138255D01*
X401213D01*
X400819Y138649D01*
Y139829D01*
X401213Y137468D02*
X400819Y137074D01*
Y136287D01*
X401213Y135894D01*
X401606D01*
X402000Y136287D01*
X402394Y135894D01*
X402787D01*
X403181Y136287D01*
Y137074D01*
X402787Y137468D01*
X402394D01*
X402000Y137074D01*
X401606Y137468D01*
X401213D01*
X402000Y137074D02*
Y136287D01*
X401213Y135106D02*
X400819Y134713D01*
Y133926D01*
X401213Y133532D01*
X402787D01*
X403181Y133926D01*
Y134713D01*
X402787Y135106D01*
X401213D01*
X403181Y131564D02*
X400819D01*
X402000Y132745D01*
Y131171D01*
X273319Y132936D02*
X275681D01*
Y131755D01*
X275287Y131361D01*
X273713D01*
X273319Y131755D01*
Y132936D01*
X273713Y130574D02*
X273319Y130181D01*
Y129394D01*
X273713Y129000D01*
X274106D01*
X274500Y129394D01*
X274894Y129000D01*
X275287D01*
X275681Y129394D01*
Y130181D01*
X275287Y130574D01*
X274894D01*
X274500Y130181D01*
X274106Y130574D01*
X273713D01*
X274500Y130181D02*
Y129394D01*
X273713Y128213D02*
X273319Y127819D01*
Y127032D01*
X273713Y126639D01*
X275287D01*
X275681Y127032D01*
Y127819D01*
X275287Y128213D01*
X273713D01*
X275681Y125851D02*
Y125064D01*
Y125458D01*
X273319D01*
X273713Y125851D01*
X332723Y289147D02*
X333116Y289540D01*
X333904D01*
X334297Y289147D01*
Y287572D01*
X333904Y287179D01*
X333116D01*
X332723Y287572D01*
X331936Y287179D02*
X331149D01*
X331542D01*
Y289540D01*
X331936Y289147D01*
X328394Y287179D02*
X329968D01*
X328394Y288753D01*
Y289147D01*
X328787Y289540D01*
X329574D01*
X329968Y289147D01*
X327606D02*
X327213Y289540D01*
X326426D01*
X326032Y289147D01*
Y287572D01*
X326426Y287179D01*
X327213D01*
X327606Y287572D01*
Y289147D01*
X323671Y289540D02*
X324458Y289147D01*
X325245Y288359D01*
Y287572D01*
X324851Y287179D01*
X324064D01*
X323671Y287572D01*
Y287966D01*
X324064Y288359D01*
X325245D01*
X238739Y294287D02*
X239132Y294681D01*
X239920D01*
X240313Y294287D01*
Y292713D01*
X239920Y292319D01*
X239132D01*
X238739Y292713D01*
X237952Y292319D02*
X237165D01*
X237558D01*
Y294681D01*
X237952Y294287D01*
X234410Y292319D02*
X235984D01*
X234410Y293894D01*
Y294287D01*
X234803Y294681D01*
X235590D01*
X235984Y294287D01*
X233623D02*
X233229Y294681D01*
X232442D01*
X232048Y294287D01*
Y292713D01*
X232442Y292319D01*
X233229D01*
X233623Y292713D01*
Y294287D01*
X231261D02*
X230868Y294681D01*
X230080D01*
X229687Y294287D01*
Y293894D01*
X230080Y293500D01*
X230474D01*
X230080D01*
X229687Y293106D01*
Y292713D01*
X230080Y292319D01*
X230868D01*
X231261Y292713D01*
X309713Y179526D02*
X309319Y179920D01*
Y180707D01*
X309713Y181100D01*
X311287D01*
X311681Y180707D01*
Y179920D01*
X311287Y179526D01*
X311681Y178739D02*
Y177952D01*
Y178345D01*
X309319D01*
X309713Y178739D01*
X311681Y176771D02*
Y175984D01*
Y176377D01*
X309319D01*
X309713Y176771D01*
X311681Y174803D02*
Y174016D01*
Y174410D01*
X309319D01*
X309713Y174803D01*
X311287Y172835D02*
X311681Y172442D01*
Y171655D01*
X311287Y171261D01*
X309713D01*
X309319Y171655D01*
Y172442D01*
X309713Y172835D01*
X310106D01*
X310500Y172442D01*
Y171261D01*
X309319Y170474D02*
X311681D01*
Y169293D01*
X311287Y168900D01*
X310894D01*
X310500Y169293D01*
Y170474D01*
Y169293D01*
X310106Y168900D01*
X309713D01*
X309319Y169293D01*
Y170474D01*
X228526Y182287D02*
X228920Y182681D01*
X229707D01*
X230100Y182287D01*
Y180713D01*
X229707Y180319D01*
X228920D01*
X228526Y180713D01*
X227739Y180319D02*
X226952D01*
X227345D01*
Y182681D01*
X227739Y182287D01*
X225771Y180319D02*
X224984D01*
X225377D01*
Y182681D01*
X225771Y182287D01*
X223803Y180319D02*
X223016D01*
X223410D01*
Y182681D01*
X223803Y182287D01*
X221835Y180713D02*
X221442Y180319D01*
X220655D01*
X220261Y180713D01*
Y182287D01*
X220655Y182681D01*
X221442D01*
X221835Y182287D01*
Y181894D01*
X221442Y181500D01*
X220261D01*
X219474Y180319D02*
Y181894D01*
X218687Y182681D01*
X217900Y181894D01*
Y180319D01*
Y181500D01*
X219474D01*
X348213Y138026D02*
X347819Y138420D01*
Y139207D01*
X348213Y139600D01*
X349787D01*
X350181Y139207D01*
Y138420D01*
X349787Y138026D01*
X350181Y137239D02*
Y136452D01*
Y136845D01*
X347819D01*
X348213Y137239D01*
X350181Y135271D02*
Y134484D01*
Y134878D01*
X347819D01*
X348213Y135271D01*
X350181Y133303D02*
Y132516D01*
Y132910D01*
X347819D01*
X348213Y133303D01*
X347819Y131335D02*
Y129761D01*
X348213D01*
X349787Y131335D01*
X350181D01*
X347819Y128974D02*
X350181D01*
Y127793D01*
X349787Y127400D01*
X349394D01*
X349000Y127793D01*
Y128974D01*
Y127793D01*
X348606Y127400D01*
X348213D01*
X347819Y127793D01*
Y128974D01*
X281526Y150787D02*
X281920Y151181D01*
X282707D01*
X283100Y150787D01*
Y149213D01*
X282707Y148819D01*
X281920D01*
X281526Y149213D01*
X280739Y148819D02*
X279952D01*
X280345D01*
Y151181D01*
X280739Y150787D01*
X278771Y148819D02*
X277984D01*
X278378D01*
Y151181D01*
X278771Y150787D01*
X276803Y148819D02*
X276016D01*
X276410D01*
Y151181D01*
X276803Y150787D01*
X274835Y151181D02*
X273261D01*
Y150787D01*
X274835Y149213D01*
Y148819D01*
X272474D02*
Y150394D01*
X271687Y151181D01*
X270900Y150394D01*
Y148819D01*
Y150000D01*
X272474D01*
X332713Y141026D02*
X332319Y141420D01*
Y142207D01*
X332713Y142600D01*
X334287D01*
X334681Y142207D01*
Y141420D01*
X334287Y141026D01*
X334681Y140239D02*
Y139452D01*
Y139845D01*
X332319D01*
X332713Y140239D01*
X334681Y138271D02*
Y137484D01*
Y137878D01*
X332319D01*
X332713Y138271D01*
X334681Y136303D02*
Y135516D01*
Y135910D01*
X332319D01*
X332713Y136303D01*
X332319Y132761D02*
X332713Y133548D01*
X333500Y134335D01*
X334287D01*
X334681Y133942D01*
Y133155D01*
X334287Y132761D01*
X333894D01*
X333500Y133155D01*
Y134335D01*
X332319Y131974D02*
X334681D01*
Y130793D01*
X334287Y130400D01*
X333894D01*
X333500Y130793D01*
Y131974D01*
Y130793D01*
X333106Y130400D01*
X332713D01*
X332319Y130793D01*
Y131974D01*
X232526Y151787D02*
X232920Y152181D01*
X233707D01*
X234100Y151787D01*
Y150213D01*
X233707Y149819D01*
X232920D01*
X232526Y150213D01*
X231739Y149819D02*
X230952D01*
X231345D01*
Y152181D01*
X231739Y151787D01*
X229771Y149819D02*
X228984D01*
X229378D01*
Y152181D01*
X229771Y151787D01*
X227803Y149819D02*
X227016D01*
X227410D01*
Y152181D01*
X227803Y151787D01*
X224261Y152181D02*
X225048Y151787D01*
X225835Y151000D01*
Y150213D01*
X225442Y149819D01*
X224655D01*
X224261Y150213D01*
Y150606D01*
X224655Y151000D01*
X225835D01*
X223474Y149819D02*
Y151394D01*
X222687Y152181D01*
X221900Y151394D01*
Y149819D01*
Y151000D01*
X223474D01*
X336713Y142026D02*
X336319Y142420D01*
Y143207D01*
X336713Y143600D01*
X338287D01*
X338681Y143207D01*
Y142420D01*
X338287Y142026D01*
X338681Y141239D02*
Y140452D01*
Y140845D01*
X336319D01*
X336713Y141239D01*
X338681Y139271D02*
Y138484D01*
Y138877D01*
X336319D01*
X336713Y139271D01*
X338681Y137303D02*
Y136516D01*
Y136910D01*
X336319D01*
X336713Y137303D01*
X336319Y133761D02*
Y135335D01*
X337500D01*
X337106Y134548D01*
Y134155D01*
X337500Y133761D01*
X338287D01*
X338681Y134155D01*
Y134942D01*
X338287Y135335D01*
X336319Y132974D02*
X338681D01*
Y131793D01*
X338287Y131400D01*
X337894D01*
X337500Y131793D01*
Y132974D01*
Y131793D01*
X337106Y131400D01*
X336713D01*
X336319Y131793D01*
Y132974D01*
X232526Y148287D02*
X232920Y148681D01*
X233707D01*
X234100Y148287D01*
Y146713D01*
X233707Y146319D01*
X232920D01*
X232526Y146713D01*
X231739Y146319D02*
X230952D01*
X231345D01*
Y148681D01*
X231739Y148287D01*
X229771Y146319D02*
X228984D01*
X229378D01*
Y148681D01*
X229771Y148287D01*
X227803Y146319D02*
X227016D01*
X227410D01*
Y148681D01*
X227803Y148287D01*
X224261Y148681D02*
X225835D01*
Y147500D01*
X225048Y147894D01*
X224655D01*
X224261Y147500D01*
Y146713D01*
X224655Y146319D01*
X225442D01*
X225835Y146713D01*
X223474Y146319D02*
Y147894D01*
X222687Y148681D01*
X221900Y147894D01*
Y146319D01*
Y147500D01*
X223474D01*
X309213Y154526D02*
X308819Y154920D01*
Y155707D01*
X309213Y156100D01*
X310787D01*
X311181Y155707D01*
Y154920D01*
X310787Y154526D01*
X311181Y153739D02*
Y152952D01*
Y153345D01*
X308819D01*
X309213Y153739D01*
X311181Y151771D02*
Y150984D01*
Y151377D01*
X308819D01*
X309213Y151771D01*
X311181Y149803D02*
Y149016D01*
Y149410D01*
X308819D01*
X309213Y149803D01*
X311181Y146655D02*
X308819D01*
X310000Y147835D01*
Y146261D01*
X308819Y145474D02*
X311181D01*
Y144293D01*
X310787Y143900D01*
X310394D01*
X310000Y144293D01*
Y145474D01*
Y144293D01*
X309606Y143900D01*
X309213D01*
X308819Y144293D01*
Y145474D01*
X226213Y165526D02*
X225819Y165920D01*
Y166707D01*
X226213Y167100D01*
X227787D01*
X228181Y166707D01*
Y165920D01*
X227787Y165526D01*
X228181Y164739D02*
Y163952D01*
Y164345D01*
X225819D01*
X226213Y164739D01*
X228181Y162771D02*
Y161984D01*
Y162378D01*
X225819D01*
X226213Y162771D01*
X228181Y160803D02*
Y160016D01*
Y160410D01*
X225819D01*
X226213Y160803D01*
X228181Y157655D02*
X225819D01*
X227000Y158835D01*
Y157261D01*
X228181Y156474D02*
X226606D01*
X225819Y155687D01*
X226606Y154900D01*
X228181D01*
X227000D01*
Y156474D01*
X369213Y165026D02*
X368819Y165420D01*
Y166207D01*
X369213Y166600D01*
X370787D01*
X371181Y166207D01*
Y165420D01*
X370787Y165026D01*
X371181Y164239D02*
Y163452D01*
Y163845D01*
X368819D01*
X369213Y164239D01*
X371181Y162271D02*
Y161484D01*
Y161878D01*
X368819D01*
X369213Y162271D01*
X371181Y160303D02*
Y159516D01*
Y159910D01*
X368819D01*
X369213Y160303D01*
X371181Y156761D02*
Y158335D01*
X369606Y156761D01*
X369213D01*
X368819Y157155D01*
Y157942D01*
X369213Y158335D01*
X368819Y155974D02*
X371181D01*
Y154793D01*
X370787Y154400D01*
X370394D01*
X370000Y154793D01*
Y155974D01*
Y154793D01*
X369606Y154400D01*
X369213D01*
X368819Y154793D01*
Y155974D01*
X287213Y174526D02*
X286819Y174920D01*
Y175707D01*
X287213Y176100D01*
X288787D01*
X289181Y175707D01*
Y174920D01*
X288787Y174526D01*
X289181Y173739D02*
Y172952D01*
Y173345D01*
X286819D01*
X287213Y173739D01*
X289181Y171771D02*
Y170984D01*
Y171378D01*
X286819D01*
X287213Y171771D01*
X289181Y169803D02*
Y169016D01*
Y169410D01*
X286819D01*
X287213Y169803D01*
X289181Y166261D02*
Y167835D01*
X287606Y166261D01*
X287213D01*
X286819Y166655D01*
Y167442D01*
X287213Y167835D01*
X289181Y165474D02*
X287606D01*
X286819Y164687D01*
X287606Y163900D01*
X289181D01*
X288000D01*
Y165474D01*
X363329Y145787D02*
X363723Y146181D01*
X364510D01*
X364904Y145787D01*
Y144213D01*
X364510Y143819D01*
X363723D01*
X363329Y144213D01*
X362542Y143819D02*
X361755D01*
X362149D01*
Y146181D01*
X362542Y145787D01*
X360574Y143819D02*
X359787D01*
X360181D01*
Y146181D01*
X360574Y145787D01*
X358606Y143819D02*
X357819D01*
X358213D01*
Y146181D01*
X358606Y145787D01*
X356639Y143819D02*
X355851D01*
X356245D01*
Y146181D01*
X356639Y145787D01*
X354671Y146181D02*
Y143819D01*
X353490D01*
X353096Y144213D01*
Y144606D01*
X353490Y145000D01*
X354671D01*
X353490D01*
X353096Y145394D01*
Y145787D01*
X353490Y146181D01*
X354671D01*
X294329Y161287D02*
X294723Y161681D01*
X295510D01*
X295904Y161287D01*
Y159713D01*
X295510Y159319D01*
X294723D01*
X294329Y159713D01*
X293542Y159319D02*
X292755D01*
X293149D01*
Y161681D01*
X293542Y161287D01*
X291574Y159319D02*
X290787D01*
X291181D01*
Y161681D01*
X291574Y161287D01*
X289606Y159319D02*
X288819D01*
X289213D01*
Y161681D01*
X289606Y161287D01*
X287639Y159319D02*
X286851D01*
X287245D01*
Y161681D01*
X287639Y161287D01*
X285671Y159319D02*
Y160894D01*
X284884Y161681D01*
X284096Y160894D01*
Y159319D01*
Y160500D01*
X285671D01*
X319223Y273787D02*
X319616Y274181D01*
X320404D01*
X320797Y273787D01*
Y272213D01*
X320404Y271819D01*
X319616D01*
X319223Y272213D01*
X318436Y271819D02*
X317649D01*
X318042D01*
Y274181D01*
X318436Y273787D01*
X316468Y271819D02*
X315681D01*
X316074D01*
Y274181D01*
X316468Y273787D01*
X314500D02*
X314106Y274181D01*
X313319D01*
X312926Y273787D01*
Y272213D01*
X313319Y271819D01*
X314106D01*
X314500Y272213D01*
Y273787D01*
X312139Y272213D02*
X311745Y271819D01*
X310958D01*
X310564Y272213D01*
Y273787D01*
X310958Y274181D01*
X311745D01*
X312139Y273787D01*
Y273394D01*
X311745Y273000D01*
X310564D01*
X309777Y274181D02*
Y271819D01*
X308596D01*
X308203Y272213D01*
Y272606D01*
X308596Y273000D01*
X309777D01*
X308596D01*
X308203Y273394D01*
Y273787D01*
X308596Y274181D01*
X309777D01*
X216723Y285787D02*
X217116Y286181D01*
X217904D01*
X218297Y285787D01*
Y284213D01*
X217904Y283819D01*
X217116D01*
X216723Y284213D01*
X215936Y283819D02*
X215149D01*
X215542D01*
Y286181D01*
X215936Y285787D01*
X213968Y283819D02*
X213181D01*
X213574D01*
Y286181D01*
X213968Y285787D01*
X212000D02*
X211606Y286181D01*
X210819D01*
X210426Y285787D01*
Y284213D01*
X210819Y283819D01*
X211606D01*
X212000Y284213D01*
Y285787D01*
X209639Y284213D02*
X209245Y283819D01*
X208458D01*
X208064Y284213D01*
Y285787D01*
X208458Y286181D01*
X209245D01*
X209639Y285787D01*
Y285394D01*
X209245Y285000D01*
X208064D01*
X207277Y283819D02*
Y285394D01*
X206490Y286181D01*
X205703Y285394D01*
Y283819D01*
Y285000D01*
X207277D01*
X216723Y233787D02*
X217116Y234181D01*
X217904D01*
X218297Y233787D01*
Y232213D01*
X217904Y231819D01*
X217116D01*
X216723Y232213D01*
X215936Y231819D02*
X215149D01*
X215542D01*
Y234181D01*
X215936Y233787D01*
X213968Y231819D02*
X213181D01*
X213574D01*
Y234181D01*
X213968Y233787D01*
X212000D02*
X211606Y234181D01*
X210819D01*
X210426Y233787D01*
Y232213D01*
X210819Y231819D01*
X211606D01*
X212000Y232213D01*
Y233787D01*
X208064Y234181D02*
X208851Y233787D01*
X209639Y233000D01*
Y232213D01*
X209245Y231819D01*
X208458D01*
X208064Y232213D01*
Y232606D01*
X208458Y233000D01*
X209639D01*
X207277Y231819D02*
Y233394D01*
X206490Y234181D01*
X205703Y233394D01*
Y231819D01*
Y233000D01*
X207277D01*
X309713Y193723D02*
X309319Y194116D01*
Y194904D01*
X309713Y195297D01*
X311287D01*
X311681Y194904D01*
Y194116D01*
X311287Y193723D01*
X311681Y192936D02*
Y192149D01*
Y192542D01*
X309319D01*
X309713Y192936D01*
X311681Y190968D02*
Y190181D01*
Y190574D01*
X309319D01*
X309713Y190968D01*
Y189000D02*
X309319Y188606D01*
Y187819D01*
X309713Y187426D01*
X311287D01*
X311681Y187819D01*
Y188606D01*
X311287Y189000D01*
X309713D01*
X311681Y185458D02*
X309319D01*
X310500Y186639D01*
Y185064D01*
X309319Y184277D02*
X311681D01*
Y183096D01*
X311287Y182703D01*
X310894D01*
X310500Y183096D01*
Y184277D01*
Y183096D01*
X310106Y182703D01*
X309713D01*
X309319Y183096D01*
Y184277D01*
X226723Y189287D02*
X227116Y189681D01*
X227904D01*
X228297Y189287D01*
Y187713D01*
X227904Y187319D01*
X227116D01*
X226723Y187713D01*
X225936Y187319D02*
X225149D01*
X225542D01*
Y189681D01*
X225936Y189287D01*
X223968Y187319D02*
X223181D01*
X223574D01*
Y189681D01*
X223968Y189287D01*
X222000D02*
X221606Y189681D01*
X220819D01*
X220426Y189287D01*
Y187713D01*
X220819Y187319D01*
X221606D01*
X222000Y187713D01*
Y189287D01*
X218458Y187319D02*
Y189681D01*
X219639Y188500D01*
X218064D01*
X217277Y187319D02*
Y188894D01*
X216490Y189681D01*
X215703Y188894D01*
Y187319D01*
Y188500D01*
X217277D01*
X311026Y164787D02*
X311420Y165181D01*
X312207D01*
X312600Y164787D01*
Y163213D01*
X312207Y162819D01*
X311420D01*
X311026Y163213D01*
X310239Y162819D02*
X309452D01*
X309845D01*
Y165181D01*
X310239Y164787D01*
X308271Y162819D02*
X307484D01*
X307877D01*
Y165181D01*
X308271Y164787D01*
X306303D02*
X305910Y165181D01*
X305122D01*
X304729Y164787D01*
Y163213D01*
X305122Y162819D01*
X305910D01*
X306303Y163213D01*
Y164787D01*
X303942Y162819D02*
X303155D01*
X303548D01*
Y165181D01*
X303942Y164787D01*
X301974Y165181D02*
Y162819D01*
X300793D01*
X300400Y163213D01*
Y163606D01*
X300793Y164000D01*
X301974D01*
X300793D01*
X300400Y164394D01*
Y164787D01*
X300793Y165181D01*
X301974D01*
X228026Y176287D02*
X228420Y176681D01*
X229207D01*
X229600Y176287D01*
Y174713D01*
X229207Y174319D01*
X228420D01*
X228026Y174713D01*
X227239Y174319D02*
X226452D01*
X226845D01*
Y176681D01*
X227239Y176287D01*
X225271Y174319D02*
X224484D01*
X224878D01*
Y176681D01*
X225271Y176287D01*
X223303D02*
X222910Y176681D01*
X222123D01*
X221729Y176287D01*
Y174713D01*
X222123Y174319D01*
X222910D01*
X223303Y174713D01*
Y176287D01*
X220942Y174319D02*
X220155D01*
X220548D01*
Y176681D01*
X220942Y176287D01*
X218974Y174319D02*
Y175894D01*
X218187Y176681D01*
X217400Y175894D01*
Y174319D01*
Y175500D01*
X218974D01*
X331713Y381755D02*
X331319Y382149D01*
Y382936D01*
X331713Y383329D01*
X333287D01*
X333681Y382936D01*
Y382149D01*
X333287Y381755D01*
X331713Y380968D02*
X331319Y380574D01*
Y379787D01*
X331713Y379394D01*
X332106D01*
X332500Y379787D01*
X332894Y379394D01*
X333287D01*
X333681Y379787D01*
Y380574D01*
X333287Y380968D01*
X332894D01*
X332500Y380574D01*
X332106Y380968D01*
X331713D01*
X332500Y380574D02*
Y379787D01*
X331713Y378606D02*
X331319Y378213D01*
Y377426D01*
X331713Y377032D01*
X333287D01*
X333681Y377426D01*
Y378213D01*
X333287Y378606D01*
X331713D01*
Y376245D02*
X331319Y375851D01*
Y375064D01*
X331713Y374671D01*
X332106D01*
X332500Y375064D01*
X332894Y374671D01*
X333287D01*
X333681Y375064D01*
Y375851D01*
X333287Y376245D01*
X332894D01*
X332500Y375851D01*
X332106Y376245D01*
X331713D01*
X332500Y375851D02*
Y375064D01*
X452213Y384255D02*
X451819Y384649D01*
Y385436D01*
X452213Y385829D01*
X453787D01*
X454181Y385436D01*
Y384649D01*
X453787Y384255D01*
X452213Y383468D02*
X451819Y383074D01*
Y382287D01*
X452213Y381894D01*
X452606D01*
X453000Y382287D01*
X453394Y381894D01*
X453787D01*
X454181Y382287D01*
Y383074D01*
X453787Y383468D01*
X453394D01*
X453000Y383074D01*
X452606Y383468D01*
X452213D01*
X453000Y383074D02*
Y382287D01*
X452213Y381106D02*
X451819Y380713D01*
Y379926D01*
X452213Y379532D01*
X453787D01*
X454181Y379926D01*
Y380713D01*
X453787Y381106D01*
X452213D01*
X451819Y378745D02*
Y377171D01*
X452213D01*
X453787Y378745D01*
X454181D01*
X243713Y387255D02*
X243319Y387649D01*
Y388436D01*
X243713Y388829D01*
X245287D01*
X245681Y388436D01*
Y387649D01*
X245287Y387255D01*
X243713Y386468D02*
X243319Y386074D01*
Y385287D01*
X243713Y384894D01*
X244106D01*
X244500Y385287D01*
X244894Y384894D01*
X245287D01*
X245681Y385287D01*
Y386074D01*
X245287Y386468D01*
X244894D01*
X244500Y386074D01*
X244106Y386468D01*
X243713D01*
X244500Y386074D02*
Y385287D01*
X243713Y384106D02*
X243319Y383713D01*
Y382926D01*
X243713Y382532D01*
X245287D01*
X245681Y382926D01*
Y383713D01*
X245287Y384106D01*
X243713D01*
X243319Y380171D02*
X243713Y380958D01*
X244500Y381745D01*
X245287D01*
X245681Y381351D01*
Y380564D01*
X245287Y380171D01*
X244894D01*
X244500Y380564D01*
Y381745D01*
X384713Y463436D02*
X384319Y463829D01*
Y464616D01*
X384713Y465010D01*
X386287D01*
X386681Y464616D01*
Y463829D01*
X386287Y463436D01*
X386681Y461468D02*
X384319D01*
X385500Y462649D01*
Y461074D01*
X384713Y460287D02*
X384319Y459894D01*
Y459106D01*
X384713Y458713D01*
X386287D01*
X386681Y459106D01*
Y459894D01*
X386287Y460287D01*
X384713D01*
X386287Y457926D02*
X386681Y457532D01*
Y456745D01*
X386287Y456351D01*
X384713D01*
X384319Y456745D01*
Y457532D01*
X384713Y457926D01*
X385106D01*
X385500Y457532D01*
Y456351D01*
X384713Y453990D02*
X384319Y454384D01*
Y455171D01*
X384713Y455564D01*
X386287D01*
X386681Y455171D01*
Y454384D01*
X386287Y453990D01*
X299213Y463936D02*
X298819Y464329D01*
Y465116D01*
X299213Y465510D01*
X300787D01*
X301181Y465116D01*
Y464329D01*
X300787Y463936D01*
X301181Y461968D02*
X298819D01*
X300000Y463149D01*
Y461574D01*
X299213Y460787D02*
X298819Y460394D01*
Y459606D01*
X299213Y459213D01*
X300787D01*
X301181Y459606D01*
Y460394D01*
X300787Y460787D01*
X299213D01*
X300787Y458426D02*
X301181Y458032D01*
Y457245D01*
X300787Y456851D01*
X299213D01*
X298819Y457245D01*
Y458032D01*
X299213Y458426D01*
X299606D01*
X300000Y458032D01*
Y456851D01*
X298819Y456064D02*
X301181D01*
Y454883D01*
X300787Y454490D01*
X300394D01*
X300000Y454883D01*
Y456064D01*
Y454883D01*
X299606Y454490D01*
X299213D01*
X298819Y454883D01*
Y456064D01*
X211713Y463936D02*
X211319Y464329D01*
Y465116D01*
X211713Y465510D01*
X213287D01*
X213681Y465116D01*
Y464329D01*
X213287Y463936D01*
X213681Y461968D02*
X211319D01*
X212500Y463149D01*
Y461574D01*
X211713Y460787D02*
X211319Y460394D01*
Y459606D01*
X211713Y459213D01*
X213287D01*
X213681Y459606D01*
Y460394D01*
X213287Y460787D01*
X211713D01*
X213287Y458426D02*
X213681Y458032D01*
Y457245D01*
X213287Y456851D01*
X211713D01*
X211319Y457245D01*
Y458032D01*
X211713Y458426D01*
X212106D01*
X212500Y458032D01*
Y456851D01*
X213681Y456064D02*
X212106D01*
X211319Y455277D01*
X212106Y454490D01*
X213681D01*
X212500D01*
Y456064D01*
X389213Y463436D02*
X388819Y463829D01*
Y464616D01*
X389213Y465010D01*
X390787D01*
X391181Y464616D01*
Y463829D01*
X390787Y463436D01*
X391181Y461468D02*
X388819D01*
X390000Y462649D01*
Y461074D01*
X389213Y460287D02*
X388819Y459894D01*
Y459106D01*
X389213Y458713D01*
X390787D01*
X391181Y459106D01*
Y459894D01*
X390787Y460287D01*
X389213D01*
Y457926D02*
X388819Y457532D01*
Y456745D01*
X389213Y456351D01*
X389606D01*
X390000Y456745D01*
X390394Y456351D01*
X390787D01*
X391181Y456745D01*
Y457532D01*
X390787Y457926D01*
X390394D01*
X390000Y457532D01*
X389606Y457926D01*
X389213D01*
X390000Y457532D02*
Y456745D01*
X389213Y453990D02*
X388819Y454384D01*
Y455171D01*
X389213Y455564D01*
X390787D01*
X391181Y455171D01*
Y454384D01*
X390787Y453990D01*
X303713Y463936D02*
X303319Y464329D01*
Y465116D01*
X303713Y465510D01*
X305287D01*
X305681Y465116D01*
Y464329D01*
X305287Y463936D01*
X305681Y461968D02*
X303319D01*
X304500Y463149D01*
Y461574D01*
X303713Y460787D02*
X303319Y460394D01*
Y459606D01*
X303713Y459213D01*
X305287D01*
X305681Y459606D01*
Y460394D01*
X305287Y460787D01*
X303713D01*
Y458426D02*
X303319Y458032D01*
Y457245D01*
X303713Y456851D01*
X304106D01*
X304500Y457245D01*
X304894Y456851D01*
X305287D01*
X305681Y457245D01*
Y458032D01*
X305287Y458426D01*
X304894D01*
X304500Y458032D01*
X304106Y458426D01*
X303713D01*
X304500Y458032D02*
Y457245D01*
X303319Y456064D02*
X305681D01*
Y454883D01*
X305287Y454490D01*
X304894D01*
X304500Y454883D01*
Y456064D01*
Y454883D01*
X304106Y454490D01*
X303713D01*
X303319Y454883D01*
Y456064D01*
X216213Y463936D02*
X215819Y464329D01*
Y465116D01*
X216213Y465510D01*
X217787D01*
X218181Y465116D01*
Y464329D01*
X217787Y463936D01*
X218181Y461968D02*
X215819D01*
X217000Y463149D01*
Y461574D01*
X216213Y460787D02*
X215819Y460394D01*
Y459606D01*
X216213Y459213D01*
X217787D01*
X218181Y459606D01*
Y460394D01*
X217787Y460787D01*
X216213D01*
Y458426D02*
X215819Y458032D01*
Y457245D01*
X216213Y456851D01*
X216606D01*
X217000Y457245D01*
X217394Y456851D01*
X217787D01*
X218181Y457245D01*
Y458032D01*
X217787Y458426D01*
X217394D01*
X217000Y458032D01*
X216606Y458426D01*
X216213D01*
X217000Y458032D02*
Y457245D01*
X218181Y456064D02*
X216606D01*
X215819Y455277D01*
X216606Y454490D01*
X218181D01*
X217000D01*
Y456064D01*
X396436Y469287D02*
X396829Y469681D01*
X397616D01*
X398010Y469287D01*
Y467713D01*
X397616Y467319D01*
X396829D01*
X396436Y467713D01*
X394468Y467319D02*
Y469681D01*
X395649Y468500D01*
X394074D01*
X393287Y469287D02*
X392894Y469681D01*
X392106D01*
X391713Y469287D01*
Y467713D01*
X392106Y467319D01*
X392894D01*
X393287Y467713D01*
Y469287D01*
X390926Y469681D02*
X389351D01*
Y469287D01*
X390926Y467713D01*
Y467319D01*
X386990Y469287D02*
X387384Y469681D01*
X388171D01*
X388564Y469287D01*
Y467713D01*
X388171Y467319D01*
X387384D01*
X386990Y467713D01*
X311436Y469287D02*
X311829Y469681D01*
X312616D01*
X313010Y469287D01*
Y467713D01*
X312616Y467319D01*
X311829D01*
X311436Y467713D01*
X309468Y467319D02*
Y469681D01*
X310649Y468500D01*
X309074D01*
X308287Y469287D02*
X307894Y469681D01*
X307106D01*
X306713Y469287D01*
Y467713D01*
X307106Y467319D01*
X307894D01*
X308287Y467713D01*
Y469287D01*
X305926Y469681D02*
X304351D01*
Y469287D01*
X305926Y467713D01*
Y467319D01*
X303564Y469681D02*
Y467319D01*
X302383D01*
X301990Y467713D01*
Y468106D01*
X302383Y468500D01*
X303564D01*
X302383D01*
X301990Y468894D01*
Y469287D01*
X302383Y469681D01*
X303564D01*
X222936Y469287D02*
X223329Y469681D01*
X224116D01*
X224510Y469287D01*
Y467713D01*
X224116Y467319D01*
X223329D01*
X222936Y467713D01*
X220968Y467319D02*
Y469681D01*
X222149Y468500D01*
X220574D01*
X219787Y469287D02*
X219394Y469681D01*
X218606D01*
X218213Y469287D01*
Y467713D01*
X218606Y467319D01*
X219394D01*
X219787Y467713D01*
Y469287D01*
X217426Y469681D02*
X215851D01*
Y469287D01*
X217426Y467713D01*
Y467319D01*
X215064D02*
Y468894D01*
X214277Y469681D01*
X213490Y468894D01*
Y467319D01*
Y468500D01*
X215064D01*
X426936Y486787D02*
X427329Y487181D01*
X428116D01*
X428510Y486787D01*
Y485213D01*
X428116Y484819D01*
X427329D01*
X426936Y485213D01*
X424968Y484819D02*
Y487181D01*
X426149Y486000D01*
X424574D01*
X423787Y486787D02*
X423394Y487181D01*
X422606D01*
X422213Y486787D01*
Y485213D01*
X422606Y484819D01*
X423394D01*
X423787Y485213D01*
Y486787D01*
X419851Y487181D02*
X420639Y486787D01*
X421426Y486000D01*
Y485213D01*
X421032Y484819D01*
X420245D01*
X419851Y485213D01*
Y485606D01*
X420245Y486000D01*
X421426D01*
X417490Y486787D02*
X417883Y487181D01*
X418671D01*
X419064Y486787D01*
Y485213D01*
X418671Y484819D01*
X417883D01*
X417490Y485213D01*
X340436Y487287D02*
X340829Y487681D01*
X341616D01*
X342010Y487287D01*
Y485713D01*
X341616Y485319D01*
X340829D01*
X340436Y485713D01*
X338468Y485319D02*
Y487681D01*
X339649Y486500D01*
X338074D01*
X337287Y487287D02*
X336894Y487681D01*
X336106D01*
X335713Y487287D01*
Y485713D01*
X336106Y485319D01*
X336894D01*
X337287Y485713D01*
Y487287D01*
X333351Y487681D02*
X334138Y487287D01*
X334926Y486500D01*
Y485713D01*
X334532Y485319D01*
X333745D01*
X333351Y485713D01*
Y486106D01*
X333745Y486500D01*
X334926D01*
X332564Y487681D02*
Y485319D01*
X331383D01*
X330990Y485713D01*
Y486106D01*
X331383Y486500D01*
X332564D01*
X331383D01*
X330990Y486894D01*
Y487287D01*
X331383Y487681D01*
X332564D01*
X267713Y491436D02*
X267319Y491829D01*
Y492616D01*
X267713Y493010D01*
X269287D01*
X269681Y492616D01*
Y491829D01*
X269287Y491436D01*
X269681Y489468D02*
X267319D01*
X268500Y490649D01*
Y489074D01*
X267713Y488287D02*
X267319Y487894D01*
Y487106D01*
X267713Y486713D01*
X269287D01*
X269681Y487106D01*
Y487894D01*
X269287Y488287D01*
X267713D01*
X267319Y484351D02*
X267713Y485139D01*
X268500Y485926D01*
X269287D01*
X269681Y485532D01*
Y484745D01*
X269287Y484351D01*
X268894D01*
X268500Y484745D01*
Y485926D01*
X269681Y483564D02*
X268106D01*
X267319Y482777D01*
X268106Y481990D01*
X269681D01*
X268500D01*
Y483564D01*
X398936Y479787D02*
X399329Y480181D01*
X400116D01*
X400510Y479787D01*
Y478213D01*
X400116Y477819D01*
X399329D01*
X398936Y478213D01*
X396968Y477819D02*
Y480181D01*
X398149Y479000D01*
X396574D01*
X395787Y479787D02*
X395394Y480181D01*
X394606D01*
X394213Y479787D01*
Y478213D01*
X394606Y477819D01*
X395394D01*
X395787Y478213D01*
Y479787D01*
X391851Y480181D02*
X393426D01*
Y479000D01*
X392638Y479394D01*
X392245D01*
X391851Y479000D01*
Y478213D01*
X392245Y477819D01*
X393032D01*
X393426Y478213D01*
X389490Y479787D02*
X389883Y480181D01*
X390671D01*
X391064Y479787D01*
Y478213D01*
X390671Y477819D01*
X389883D01*
X389490Y478213D01*
X313936Y479787D02*
X314329Y480181D01*
X315116D01*
X315510Y479787D01*
Y478213D01*
X315116Y477819D01*
X314329D01*
X313936Y478213D01*
X311968Y477819D02*
Y480181D01*
X313149Y479000D01*
X311574D01*
X310787Y479787D02*
X310394Y480181D01*
X309606D01*
X309213Y479787D01*
Y478213D01*
X309606Y477819D01*
X310394D01*
X310787Y478213D01*
Y479787D01*
X306851Y480181D02*
X308426D01*
Y479000D01*
X307639Y479394D01*
X307245D01*
X306851Y479000D01*
Y478213D01*
X307245Y477819D01*
X308032D01*
X308426Y478213D01*
X306064Y480181D02*
Y477819D01*
X304884D01*
X304490Y478213D01*
Y478606D01*
X304884Y479000D01*
X306064D01*
X304884D01*
X304490Y479394D01*
Y479787D01*
X304884Y480181D01*
X306064D01*
X256436Y480287D02*
X256829Y480681D01*
X257616D01*
X258010Y480287D01*
Y478713D01*
X257616Y478319D01*
X256829D01*
X256436Y478713D01*
X254468Y478319D02*
Y480681D01*
X255649Y479500D01*
X254074D01*
X253287Y480287D02*
X252894Y480681D01*
X252106D01*
X251713Y480287D01*
Y478713D01*
X252106Y478319D01*
X252894D01*
X253287Y478713D01*
Y480287D01*
X249351Y480681D02*
X250926D01*
Y479500D01*
X250138Y479894D01*
X249745D01*
X249351Y479500D01*
Y478713D01*
X249745Y478319D01*
X250532D01*
X250926Y478713D01*
X248564Y478319D02*
Y479894D01*
X247777Y480681D01*
X246990Y479894D01*
Y478319D01*
Y479500D01*
X248564D01*
X395436Y485787D02*
X395829Y486181D01*
X396616D01*
X397010Y485787D01*
Y484213D01*
X396616Y483819D01*
X395829D01*
X395436Y484213D01*
X393468Y483819D02*
Y486181D01*
X394649Y485000D01*
X393074D01*
X392287Y485787D02*
X391894Y486181D01*
X391106D01*
X390713Y485787D01*
Y484213D01*
X391106Y483819D01*
X391894D01*
X392287Y484213D01*
Y485787D01*
X388745Y483819D02*
Y486181D01*
X389926Y485000D01*
X388351D01*
X385990Y485787D02*
X386384Y486181D01*
X387171D01*
X387564Y485787D01*
Y484213D01*
X387171Y483819D01*
X386384D01*
X385990Y484213D01*
X309936Y485787D02*
X310329Y486181D01*
X311116D01*
X311510Y485787D01*
Y484213D01*
X311116Y483819D01*
X310329D01*
X309936Y484213D01*
X307968Y483819D02*
Y486181D01*
X309149Y485000D01*
X307574D01*
X306787Y485787D02*
X306394Y486181D01*
X305606D01*
X305213Y485787D01*
Y484213D01*
X305606Y483819D01*
X306394D01*
X306787Y484213D01*
Y485787D01*
X303245Y483819D02*
Y486181D01*
X304426Y485000D01*
X302851D01*
X302064Y486181D02*
Y483819D01*
X300884D01*
X300490Y484213D01*
Y484606D01*
X300884Y485000D01*
X302064D01*
X300884D01*
X300490Y485394D01*
Y485787D01*
X300884Y486181D01*
X302064D01*
X228287Y487564D02*
X228681Y487171D01*
Y486384D01*
X228287Y485990D01*
X226713D01*
X226319Y486384D01*
Y487171D01*
X226713Y487564D01*
X226319Y489532D02*
X228681D01*
X227500Y488351D01*
Y489926D01*
X228287Y490713D02*
X228681Y491106D01*
Y491894D01*
X228287Y492287D01*
X226713D01*
X226319Y491894D01*
Y491106D01*
X226713Y490713D01*
X228287D01*
X226319Y494255D02*
X228681D01*
X227500Y493074D01*
Y494649D01*
X226319Y495436D02*
X227894D01*
X228681Y496223D01*
X227894Y497010D01*
X226319D01*
X227500D01*
Y495436D01*
X397436Y474787D02*
X397829Y475181D01*
X398616D01*
X399010Y474787D01*
Y473213D01*
X398616Y472819D01*
X397829D01*
X397436Y473213D01*
X395468Y472819D02*
Y475181D01*
X396649Y474000D01*
X395074D01*
X394287Y474787D02*
X393894Y475181D01*
X393106D01*
X392713Y474787D01*
Y473213D01*
X393106Y472819D01*
X393894D01*
X394287Y473213D01*
Y474787D01*
X391926D02*
X391532Y475181D01*
X390745D01*
X390351Y474787D01*
Y474394D01*
X390745Y474000D01*
X391139D01*
X390745D01*
X390351Y473606D01*
Y473213D01*
X390745Y472819D01*
X391532D01*
X391926Y473213D01*
X387990Y474787D02*
X388384Y475181D01*
X389171D01*
X389564Y474787D01*
Y473213D01*
X389171Y472819D01*
X388384D01*
X387990Y473213D01*
X311936Y474787D02*
X312329Y475181D01*
X313116D01*
X313510Y474787D01*
Y473213D01*
X313116Y472819D01*
X312329D01*
X311936Y473213D01*
X309968Y472819D02*
Y475181D01*
X311149Y474000D01*
X309574D01*
X308787Y474787D02*
X308394Y475181D01*
X307606D01*
X307213Y474787D01*
Y473213D01*
X307606Y472819D01*
X308394D01*
X308787Y473213D01*
Y474787D01*
X306426D02*
X306032Y475181D01*
X305245D01*
X304851Y474787D01*
Y474394D01*
X305245Y474000D01*
X305639D01*
X305245D01*
X304851Y473606D01*
Y473213D01*
X305245Y472819D01*
X306032D01*
X306426Y473213D01*
X304064Y475181D02*
Y472819D01*
X302884D01*
X302490Y473213D01*
Y473606D01*
X302884Y474000D01*
X304064D01*
X302884D01*
X302490Y474394D01*
Y474787D01*
X302884Y475181D01*
X304064D01*
X252436Y475787D02*
X252829Y476181D01*
X253616D01*
X254010Y475787D01*
Y474213D01*
X253616Y473819D01*
X252829D01*
X252436Y474213D01*
X250468Y473819D02*
Y476181D01*
X251649Y475000D01*
X250074D01*
X249287Y475787D02*
X248894Y476181D01*
X248106D01*
X247713Y475787D01*
Y474213D01*
X248106Y473819D01*
X248894D01*
X249287Y474213D01*
Y475787D01*
X246926D02*
X246532Y476181D01*
X245745D01*
X245351Y475787D01*
Y475394D01*
X245745Y475000D01*
X246139D01*
X245745D01*
X245351Y474606D01*
Y474213D01*
X245745Y473819D01*
X246532D01*
X246926Y474213D01*
X244564Y473819D02*
Y475394D01*
X243777Y476181D01*
X242990Y475394D01*
Y473819D01*
Y475000D01*
X244564D01*
X394713Y428436D02*
X394319Y428829D01*
Y429616D01*
X394713Y430010D01*
X396287D01*
X396681Y429616D01*
Y428829D01*
X396287Y428436D01*
X396681Y426468D02*
X394319D01*
X395500Y427649D01*
Y426074D01*
X394713Y425287D02*
X394319Y424894D01*
Y424106D01*
X394713Y423713D01*
X396287D01*
X396681Y424106D01*
Y424894D01*
X396287Y425287D01*
X394713D01*
X396681Y421351D02*
Y422926D01*
X395106Y421351D01*
X394713D01*
X394319Y421745D01*
Y422532D01*
X394713Y422926D01*
Y418990D02*
X394319Y419383D01*
Y420171D01*
X394713Y420564D01*
X396287D01*
X396681Y420171D01*
Y419383D01*
X396287Y418990D01*
X309713Y428436D02*
X309319Y428829D01*
Y429616D01*
X309713Y430010D01*
X311287D01*
X311681Y429616D01*
Y428829D01*
X311287Y428436D01*
X311681Y426468D02*
X309319D01*
X310500Y427649D01*
Y426074D01*
X309713Y425287D02*
X309319Y424894D01*
Y424106D01*
X309713Y423713D01*
X311287D01*
X311681Y424106D01*
Y424894D01*
X311287Y425287D01*
X309713D01*
X311681Y421351D02*
Y422926D01*
X310106Y421351D01*
X309713D01*
X309319Y421745D01*
Y422532D01*
X309713Y422926D01*
X309319Y420564D02*
X311681D01*
Y419383D01*
X311287Y418990D01*
X310894D01*
X310500Y419383D01*
Y420564D01*
Y419383D01*
X310106Y418990D01*
X309713D01*
X309319Y419383D01*
Y420564D01*
X223213Y427936D02*
X222819Y428329D01*
Y429116D01*
X223213Y429510D01*
X224787D01*
X225181Y429116D01*
Y428329D01*
X224787Y427936D01*
X225181Y425968D02*
X222819D01*
X224000Y427149D01*
Y425574D01*
X223213Y424787D02*
X222819Y424394D01*
Y423606D01*
X223213Y423213D01*
X224787D01*
X225181Y423606D01*
Y424394D01*
X224787Y424787D01*
X223213D01*
X225181Y420851D02*
Y422426D01*
X223606Y420851D01*
X223213D01*
X222819Y421245D01*
Y422032D01*
X223213Y422426D01*
X225181Y420064D02*
X223606D01*
X222819Y419277D01*
X223606Y418490D01*
X225181D01*
X224000D01*
Y420064D01*
X390713Y428239D02*
X390319Y428632D01*
Y429420D01*
X390713Y429813D01*
X392287D01*
X392681Y429420D01*
Y428632D01*
X392287Y428239D01*
X392681Y426271D02*
X390319D01*
X391500Y427452D01*
Y425878D01*
X390713Y425090D02*
X390319Y424697D01*
Y423910D01*
X390713Y423516D01*
X392287D01*
X392681Y423910D01*
Y424697D01*
X392287Y425090D01*
X390713D01*
X392681Y422729D02*
Y421942D01*
Y422335D01*
X390319D01*
X390713Y422729D01*
Y419187D02*
X390319Y419580D01*
Y420367D01*
X390713Y420761D01*
X392287D01*
X392681Y420367D01*
Y419580D01*
X392287Y419187D01*
X305213Y427739D02*
X304819Y428132D01*
Y428920D01*
X305213Y429313D01*
X306787D01*
X307181Y428920D01*
Y428132D01*
X306787Y427739D01*
X307181Y425771D02*
X304819D01*
X306000Y426952D01*
Y425378D01*
X305213Y424590D02*
X304819Y424197D01*
Y423410D01*
X305213Y423016D01*
X306787D01*
X307181Y423410D01*
Y424197D01*
X306787Y424590D01*
X305213D01*
X307181Y422229D02*
Y421442D01*
Y421835D01*
X304819D01*
X305213Y422229D01*
X304819Y420261D02*
X307181D01*
Y419080D01*
X306787Y418687D01*
X306394D01*
X306000Y419080D01*
Y420261D01*
Y419080D01*
X305606Y418687D01*
X305213D01*
X304819Y419080D01*
Y420261D01*
X218713Y427739D02*
X218319Y428132D01*
Y428920D01*
X218713Y429313D01*
X220287D01*
X220681Y428920D01*
Y428132D01*
X220287Y427739D01*
X220681Y425771D02*
X218319D01*
X219500Y426952D01*
Y425378D01*
X218713Y424590D02*
X218319Y424197D01*
Y423410D01*
X218713Y423016D01*
X220287D01*
X220681Y423410D01*
Y424197D01*
X220287Y424590D01*
X218713D01*
X220681Y422229D02*
Y421442D01*
Y421835D01*
X218319D01*
X218713Y422229D01*
X220681Y420261D02*
X219106D01*
X218319Y419474D01*
X219106Y418687D01*
X220681D01*
X219500D01*
Y420261D01*
D14*
X411962Y451681D02*
G03*
X411962Y451681I-406J0D01*
G01*
X239962Y451536D02*
G03*
X239962Y451536I-406J0D01*
G01*
X326462Y451756D02*
G03*
X326462Y451756I-406J0D01*
G01*
X199346Y366315D02*
X201315D01*
Y368284D01*
Y366315D02*
X203284Y366315D01*
X201315Y364347D02*
Y366315D01*
X406847Y365815D02*
X408815D01*
Y367783D01*
Y365815D02*
X410783D01*
X408815Y363846D02*
Y365815D01*
X288815Y359846D02*
Y361815D01*
X290784D01*
X288815D02*
Y363784D01*
X286846Y361815D02*
X288815D01*
D15*
X399285Y432587D02*
G03*
X399285Y432587I-394J0D01*
G01*
X227285Y432441D02*
G03*
X227285Y432441I-394J0D01*
G01*
X313785Y432662D02*
G03*
X313785Y432662I-394J0D01*
G01*
X500684Y396064D02*
Y397048D01*
X474307D02*
X500684D01*
X474307Y396064D02*
Y397048D01*
X325512Y181146D02*
X327185D01*
X325512Y179472D02*
Y181146D01*
X351035D02*
X352709D01*
Y179472D02*
Y181146D01*
X242902Y191386D02*
X244575D01*
X242902Y189713D02*
Y191386D01*
X268425D02*
X270098D01*
Y189713D02*
Y191386D01*
X200331Y372220D02*
Y405882D01*
X211354Y405882D01*
X230646D02*
X241669Y405882D01*
Y372220D02*
Y405882D01*
X206433Y366118D02*
X211354Y366118D01*
X200331Y372220D02*
X206433Y366118D01*
X235567D02*
X241669Y372220D01*
X230646Y366118D02*
X235567Y366118D01*
X457943Y217629D02*
X460306D01*
X457943Y226290D02*
X460306D01*
X457943Y217629D02*
Y226290D01*
X460306Y217629D02*
Y226290D01*
X407831Y371721D02*
Y405382D01*
X418854D01*
X438146D02*
X449169D01*
Y371721D02*
Y405382D01*
X413933Y365618D02*
X418854Y365618D01*
X407831Y371721D02*
X413933Y365618D01*
X443067D02*
X449169Y371721D01*
X438146Y365618D02*
X443067Y365618D01*
X492571Y242213D02*
X493555D01*
X492571Y215835D02*
Y242213D01*
Y215835D02*
X493555D01*
X503071Y330622D02*
X504055D01*
X503071Y304244D02*
Y330622D01*
Y304244D02*
X504055D01*
X318146Y361618D02*
X323067Y361618D01*
X329169Y367721D01*
X287831D02*
X293933Y361618D01*
X298854Y361618D01*
X329169Y367721D02*
Y401382D01*
X318146D02*
X329169D01*
X287831D02*
X298854D01*
X287831Y367721D02*
Y401382D01*
X505807Y396064D02*
Y397048D01*
X532185Y397048D01*
Y396064D02*
Y397048D01*
X503071Y362122D02*
X504055D01*
X503071Y335744D02*
Y362122D01*
Y335744D02*
X504055D01*
X492571Y273713D02*
X493555D01*
X492571Y247335D02*
Y273713D01*
Y247335D02*
X493555D01*
X492164Y187744D02*
X493148Y187744D01*
X492164Y187744D02*
Y214122D01*
X493148D01*
X492164Y156244D02*
X493148D01*
X492164Y182622D02*
X492164Y156244D01*
X492164Y182622D02*
X493148D01*
X373441Y347260D02*
X373441Y349260D01*
X380441Y347260D02*
Y349260D01*
X373441D02*
X380441D01*
X373441Y347260D02*
X380441D01*
X362201Y353319D02*
X364201D01*
X362201Y360319D02*
X364201Y360319D01*
X362201Y353319D02*
Y360319D01*
X364201Y353319D02*
Y360319D01*
X373441Y363260D02*
X373441Y361260D01*
X380441D02*
Y363260D01*
X373441D02*
X380441D01*
X373441Y361260D02*
X380441D01*
X362441Y341760D02*
X364441D01*
X362441Y348760D02*
X364441D01*
X362441Y341760D02*
Y348760D01*
X364441Y341760D02*
Y348760D01*
X373941Y326260D02*
Y328260D01*
X380941Y326260D02*
Y328260D01*
X373941D02*
X380941D01*
X373941Y326260D02*
X380941D01*
X362426Y330461D02*
X364426D01*
X362426Y337461D02*
X364426D01*
X362426Y330461D02*
Y337461D01*
X364426Y330461D02*
Y337461D01*
X259926Y333961D02*
X261926D01*
X259926Y340961D02*
X261926D01*
X259926Y333961D02*
Y340961D01*
X261926Y333961D02*
Y340961D01*
X271441Y329760D02*
Y331760D01*
X278441Y329760D02*
Y331760D01*
X271441D02*
X278441D01*
X271441Y329760D02*
X278441D01*
X259941Y345260D02*
X261941D01*
X259941Y352260D02*
X261941D01*
X259941Y345260D02*
Y352260D01*
X261941Y345260D02*
Y352260D01*
X270941Y350760D02*
X270941Y352760D01*
X277941Y350760D02*
Y352760D01*
X270941D02*
X277941D01*
X270941Y350760D02*
X277941D01*
X270941Y366760D02*
X270941Y364760D01*
X277941D02*
Y366760D01*
X270941D02*
X277941D01*
X270941Y364760D02*
X277941D01*
X259701Y356819D02*
X261701Y356819D01*
X259701Y363819D02*
X261701Y363819D01*
X259701Y356819D02*
Y363819D01*
X261701Y356819D02*
Y363819D01*
X379681Y183658D02*
Y245862D01*
X313539D02*
X379681D01*
X313539Y183658D02*
Y245862D01*
Y183658D02*
X379681D01*
X310276Y269827D02*
X319724Y269827D01*
X310276Y248173D02*
X319724D01*
X207776Y259673D02*
X217224Y259673D01*
X207776Y281327D02*
X217224D01*
X207776Y257827D02*
X217224D01*
X207776Y236173D02*
X217224Y236173D01*
X297071Y193898D02*
Y256102D01*
X230929D02*
X297071D01*
X230929Y193898D02*
Y256102D01*
Y193898D02*
X297071D01*
X308531Y134043D02*
X312469D01*
X308531Y126957D02*
X312469D01*
X308531Y125543D02*
X312469D01*
X308531Y118457D02*
X312469D01*
X308531Y117043D02*
X312469D01*
X308531Y109957D02*
X312469D01*
X476101Y429314D02*
Y431676D01*
X484762Y429314D02*
Y431676D01*
X476101D02*
X484762D01*
X476101Y429314D02*
X484762D01*
X509725Y478374D02*
Y480661D01*
X507709Y478374D02*
X509725Y478374D01*
X509670Y492556D02*
Y494843D01*
X507654D02*
X509670D01*
X490299Y478377D02*
Y480664D01*
Y478377D02*
X492315D01*
X490307Y492545D02*
X490307Y494832D01*
X492322D01*
X508291Y428269D02*
Y430631D01*
X516952Y428269D02*
Y430631D01*
X508291Y430631D02*
X516952Y430631D01*
X508291Y428269D02*
X516952D01*
X494429Y419442D02*
Y423379D01*
X501515Y419442D02*
Y423379D01*
X527019Y419151D02*
Y423088D01*
X534106Y419151D02*
Y423088D01*
X481472Y450119D02*
X488472D01*
X481472Y448119D02*
X488472D01*
X481472D02*
Y450119D01*
X488472Y448119D02*
Y450119D01*
X513562Y449119D02*
X520563D01*
X513562Y447119D02*
X520563D01*
X513562D02*
Y449119D01*
X520563D02*
X520563Y447119D01*
X513562Y462619D02*
X520563D01*
X513562Y460619D02*
X520563D01*
X513562D02*
Y462619D01*
X520563Y460619D02*
Y462619D01*
X481472Y463619D02*
X488472D01*
X481472Y461619D02*
X488472D01*
X481472D02*
X481472Y463619D01*
X488472Y461619D02*
Y463619D01*
X493264Y300504D02*
X502319Y300504D01*
X493264Y284362D02*
X502319D01*
X457536Y158038D02*
X459898D01*
X457536Y166700D02*
X459898D01*
X457536Y158038D02*
Y166700D01*
X459898Y158038D02*
Y166700D01*
X470806Y306038D02*
Y314700D01*
X468443Y306038D02*
Y314700D01*
X470806D01*
X468443Y306038D02*
X470806D01*
X408551Y191663D02*
X410838D01*
Y189647D02*
Y191663D01*
X394369Y191607D02*
X396656D01*
X394369Y189592D02*
Y191607D01*
X408548Y172237D02*
X410835D01*
Y174252D01*
X394380Y172244D02*
X396667D01*
X394380D02*
Y174260D01*
X394787Y231835D02*
Y233850D01*
Y231835D02*
X397075D01*
X411243Y231827D02*
Y233843D01*
X408955Y231827D02*
X411243D01*
X394776Y249182D02*
Y251198D01*
X397063D01*
X411246Y249237D02*
Y251253D01*
X408958D02*
X411246D01*
X405287Y320244D02*
Y322260D01*
Y320244D02*
X407575D01*
X421743Y320237D02*
Y322252D01*
X419455Y320237D02*
X421743D01*
X405276Y337592D02*
Y339608D01*
X407563D01*
X421745Y337647D02*
Y339663D01*
X419458D02*
X421745D01*
X458581Y190228D02*
X460943Y190228D01*
X458581Y198890D02*
X460943Y198890D01*
X458581Y190228D02*
Y198890D01*
X460943Y190228D02*
Y198890D01*
X461350Y249819D02*
Y258480D01*
X458988Y249819D02*
Y258480D01*
X461350D01*
X458988Y249819D02*
X461350D01*
X471850Y338228D02*
Y346890D01*
X469488Y338228D02*
Y346890D01*
X471850D01*
X469488Y338228D02*
X471850D01*
X465833Y176366D02*
X469770D01*
X465833Y183453D02*
X469770D01*
X466240Y243043D02*
X470177D01*
X466240Y235957D02*
X470177D01*
X476740Y331453D02*
X480677D01*
X476740Y324366D02*
X480677D01*
X466124Y208957D02*
X470061D01*
X466124Y216043D02*
X470061D01*
X466532Y275634D02*
X470469D01*
X466532Y268547D02*
X470469D01*
X477032Y364043D02*
X480969D01*
X477032Y356957D02*
X480969D01*
X439093Y163409D02*
Y170409D01*
X441093Y163409D02*
Y170409D01*
X439093Y163409D02*
X441093D01*
X439093Y170409D02*
X441093D01*
X439500Y230000D02*
X441500D01*
X439500Y223000D02*
X441500D01*
Y230000D01*
X439500Y223000D02*
Y230000D01*
X450000Y318409D02*
X452000D01*
X450000Y311409D02*
X452000D01*
Y318409D01*
X450000Y311409D02*
Y318409D01*
X440093Y195500D02*
Y202500D01*
X442093Y195500D02*
Y202500D01*
X440093Y195500D02*
X442093D01*
X440093Y202500D02*
X442093Y202500D01*
X440500Y262090D02*
X442500D01*
X440500Y255090D02*
X442500D01*
Y262090D01*
X440500Y255090D02*
Y262090D01*
X451000Y350500D02*
X453000D01*
X451000Y343500D02*
X453000D01*
Y350500D01*
X451000Y343500D02*
Y350500D01*
X426593Y195500D02*
Y202500D01*
X428593Y195500D02*
Y202500D01*
X426593Y195500D02*
X428593D01*
X426593Y202500D02*
X428593D01*
X427000Y262090D02*
X429000D01*
X427000Y255090D02*
X429000D01*
Y262090D01*
X427000Y255090D02*
Y262090D01*
X437500Y350500D02*
X439500D01*
X437500Y343500D02*
X439500D01*
Y350500D01*
X437500Y343500D02*
Y350500D01*
X425593Y163409D02*
Y170409D01*
X427593Y163409D02*
Y170409D01*
X425593Y163409D02*
X427593D01*
X425593Y170409D02*
X427593D01*
X426000Y230000D02*
X428000D01*
X426000Y223000D02*
X428000D01*
Y230000D01*
X426000Y223000D02*
Y230000D01*
X436500Y318409D02*
X438500D01*
X436500Y311409D02*
X438500D01*
Y318409D01*
X436500Y311409D02*
Y318409D01*
X270406Y118945D02*
Y137055D01*
X258594D02*
X258594Y118945D01*
X269421D02*
X270406D01*
X269421Y137055D02*
X270406D01*
X258594Y118945D02*
X259579D01*
X258594Y137055D02*
X259579D01*
X398905Y125945D02*
Y144055D01*
X387094D02*
X387094Y125945D01*
X397921D02*
X398905D01*
X397921Y144055D02*
X398905D01*
X387094Y125945D02*
X388079D01*
X387094Y144055D02*
X388079D01*
D16*
X413435Y453250D02*
Y456173D01*
X402206Y453250D02*
X402206Y456173D01*
X412480Y453250D02*
X413435D01*
X402206D02*
X403153D01*
X412472Y466445D02*
X413427Y466445D01*
Y463523D02*
Y466445D01*
X402198Y466450D02*
X403153D01*
X402198Y463528D02*
Y466450D01*
X230198Y463383D02*
X230198Y466305D01*
X231153D01*
X241427Y463377D02*
X241427Y466300D01*
X240472Y466300D02*
X241427Y466300D01*
X230206Y453105D02*
X231153Y453105D01*
X240480Y453105D02*
X241435D01*
X230206D02*
Y456027D01*
X241435D02*
X241435Y453105D01*
X316698Y463603D02*
X316698Y466526D01*
X317653D01*
X327927Y463598D02*
Y466520D01*
X326972Y466520D02*
X327927Y466520D01*
X316706Y453326D02*
X317653D01*
X326980D02*
X327935Y453326D01*
X316706Y453326D02*
X316706Y456248D01*
X327935Y453326D02*
Y456248D01*
D125*
X403928Y492819D02*
G03*
X403928Y492819I-139J0D01*
G01*
X231928Y492674D02*
G03*
X231928Y492674I-139J0D01*
G01*
X318428Y492895D02*
G03*
X318428Y492895I-139J0D01*
G01*
D173*
X402344Y449803D02*
X414155Y449803D01*
X402344Y430118D02*
X414155D01*
X230344Y429973D02*
X242155Y429973D01*
X230344Y449658D02*
X242155Y449658D01*
X316844Y430193D02*
X328655D01*
X316844Y449878D02*
X328655D01*
M02*
