G04*
G04 #@! TF.GenerationSoftware,Altium Limited,Altium Designer,26.2.0 (7)*
G04*
G04 Layer_Color=128*
%FSLAX25Y25*%
%MOIN*%
G70*
G04*
G04 #@! TF.SameCoordinates,CFA4B7CB-C87C-44D2-A143-D88584ED512B*
G04*
G04*
G04 #@! TF.FilePolarity,Positive*
G04*
G01*
G75*
%ADD173C,0.00500*%
D173*
X492244Y137000D02*
X496260D01*
X494252Y134992D02*
Y139008D01*
X492244Y148811D02*
X496260D01*
X494252Y146803D02*
Y150819D01*
X237587Y149819D02*
X241602D01*
X239595Y147811D02*
Y151827D01*
X237587Y138008D02*
X241602D01*
X239595Y136000D02*
Y140016D01*
X367587Y138008D02*
X371602D01*
X369595Y136000D02*
Y140016D01*
X367587Y149819D02*
X371602D01*
X369595Y147811D02*
Y151827D01*
X447807Y137500D02*
X451823D01*
X449815Y135492D02*
Y139508D01*
X447807Y149311D02*
X451823D01*
X449815Y147303D02*
Y151319D01*
X537492Y148811D02*
X541508D01*
X539500Y146803D02*
Y150819D01*
X537492Y137000D02*
X541508D01*
X539500Y134992D02*
Y139008D01*
X544173Y420913D02*
X548189D01*
X546181Y418905D02*
Y422921D01*
X555984Y420913D02*
X560000D01*
X557992Y418905D02*
Y422921D01*
X555984Y444535D02*
X560000D01*
X557992Y442528D02*
Y446543D01*
X544173Y444535D02*
X548189D01*
X546181Y442528D02*
Y446543D01*
X204528Y115752D02*
X217913D01*
X211221Y109059D02*
Y122445D01*
X574480Y115752D02*
X587866D01*
X581173Y109059D02*
Y122445D01*
X204528Y485752D02*
X217913D01*
X211221Y479059D02*
Y492445D01*
X574480Y485752D02*
X587866D01*
X581173Y479059D02*
Y492445D01*
X459618Y149311D02*
X463634D01*
X461626Y147303D02*
Y151319D01*
X459618Y137500D02*
X463634D01*
X461626Y135492D02*
Y139508D01*
X543173Y253906D02*
X547189D01*
X545181Y251898D02*
Y255913D01*
X379398Y138008D02*
X383413D01*
X381405Y136000D02*
Y140016D01*
X379398Y149819D02*
X383413D01*
X381405Y147811D02*
Y151827D01*
X568094Y271622D02*
X579906D01*
X574000Y265717D02*
Y277528D01*
X568094Y248000D02*
X579906D01*
X574000Y242094D02*
Y253906D01*
X554984Y277528D02*
X559000D01*
X556992Y275520D02*
Y279535D01*
X554984Y253906D02*
X559000D01*
X556992Y251898D02*
Y255913D01*
X543173Y277528D02*
X547189D01*
X545181Y275520D02*
Y279535D01*
X543173Y265717D02*
X547189D01*
X545181Y263709D02*
Y267724D01*
X554984Y242094D02*
X559000D01*
X556992Y240087D02*
Y244102D01*
X543173Y242094D02*
X547189D01*
X545181Y240087D02*
Y244102D01*
X554984Y265717D02*
X559000D01*
X556992Y263709D02*
Y267724D01*
X369595Y121000D02*
X381405D01*
X375500Y115094D02*
Y126906D01*
X249398Y149819D02*
X253413D01*
X251406Y147811D02*
Y151827D01*
X249398Y138008D02*
X253413D01*
X251406Y136000D02*
Y140016D01*
X239595Y121000D02*
X251406D01*
X245500Y115094D02*
Y126906D01*
X543181Y324378D02*
X547197D01*
X545189Y322370D02*
Y326386D01*
X543181Y312567D02*
X547197D01*
X545189Y310559D02*
Y314575D01*
X554992Y371622D02*
X559008D01*
X557000Y369614D02*
Y373630D01*
X554992Y359811D02*
X559008D01*
X557000Y357803D02*
Y361819D01*
X554992Y336189D02*
X559008D01*
X557000Y334181D02*
Y338197D01*
X554992Y324378D02*
X559008D01*
X557000Y322370D02*
Y326386D01*
X554992Y312567D02*
X559008D01*
X557000Y310559D02*
Y314575D01*
X543181Y371622D02*
X547197D01*
X545189Y369614D02*
Y373630D01*
X543181Y359811D02*
X547197D01*
X545189Y357803D02*
Y361819D01*
X568102Y380087D02*
X579913D01*
X574008Y374181D02*
Y385992D01*
X568102Y304102D02*
X579913D01*
X574008Y298197D02*
Y310008D01*
X543181Y336189D02*
X547197D01*
X545189Y334181D02*
Y338197D01*
X554992Y348000D02*
X559008D01*
X557000Y345992D02*
Y350008D01*
X543181Y348000D02*
X547197D01*
X545189Y345992D02*
Y350008D01*
X449815Y120492D02*
X461626D01*
X455721Y114587D02*
Y126398D01*
X494252Y119992D02*
X506063D01*
X500157Y114087D02*
Y125898D01*
X504055Y137000D02*
X508071D01*
X506063Y134992D02*
Y139008D01*
X504055Y148811D02*
X508071D01*
X506063Y146803D02*
Y150819D01*
X539500Y119992D02*
X551311D01*
X545405Y114087D02*
Y125898D01*
X549303Y137000D02*
X553319D01*
X551311Y134992D02*
Y139008D01*
X549303Y148811D02*
X553319D01*
X551311Y146803D02*
Y150819D01*
X544173Y409102D02*
X548189D01*
X546181Y407094D02*
Y411110D01*
X544173Y456347D02*
X548189D01*
X546181Y454339D02*
Y458354D01*
X544173Y432724D02*
X548189D01*
X546181Y430717D02*
Y434732D01*
X569095Y417606D02*
X580905D01*
X575000Y411701D02*
Y423512D01*
X569095Y448000D02*
X580905D01*
X575000Y442095D02*
Y453905D01*
X555984Y409102D02*
X560000D01*
X557992Y407094D02*
Y411110D01*
X555984Y432724D02*
X560000D01*
X557992Y430717D02*
Y434732D01*
X555984Y456347D02*
X560000D01*
X557992Y454339D02*
Y458354D01*
X325522Y490412D02*
X326309D01*
X325916Y490018D02*
Y490805D01*
X236250Y452002D02*
X237038D01*
X236644Y451609D02*
Y452396D01*
X322854Y452780D02*
X323642D01*
X323248Y452387D02*
Y453174D01*
X416606Y448000D02*
X417394D01*
X417000Y447606D02*
Y448394D01*
X407606Y453000D02*
X408394D01*
X408000Y452606D02*
Y453394D01*
X483858Y200787D02*
X484646D01*
X484252Y200394D02*
Y201181D01*
X460236Y377953D02*
X461024D01*
X460630Y377559D02*
Y378346D01*
X460236Y330709D02*
X461024D01*
X460630Y330315D02*
Y331102D01*
X448425Y236220D02*
X449213D01*
X448819Y235827D02*
Y236614D01*
X436614Y141732D02*
X437401D01*
X437008Y141339D02*
Y142126D01*
X424803Y153543D02*
X425590D01*
X425197Y153150D02*
Y153937D01*
X412992Y153543D02*
X413779D01*
X413386Y153150D02*
Y153937D01*
X389370Y307086D02*
X390157D01*
X389764Y306693D02*
Y307480D01*
X389370Y259842D02*
X390157D01*
X389764Y259449D02*
Y260236D01*
X389370Y212598D02*
X390157D01*
X389764Y212205D02*
Y212992D01*
X377559Y295275D02*
X378346D01*
X377953Y294882D02*
Y295669D01*
X377559Y283465D02*
X378346D01*
X377953Y283071D02*
Y283858D01*
X377559Y271654D02*
X378346D01*
X377953Y271260D02*
Y272047D01*
X365748Y366142D02*
X366535D01*
X366142Y365748D02*
Y366535D01*
X365748Y307086D02*
X366535D01*
X366142Y306693D02*
Y307480D01*
X353937Y307086D02*
X354724D01*
X354331Y306693D02*
Y307480D01*
X342126Y366142D02*
X342913D01*
X342520Y365748D02*
Y366535D01*
X342126Y307086D02*
X342913D01*
X342520Y306693D02*
Y307480D01*
X342126Y295275D02*
X342913D01*
X342520Y294882D02*
Y295669D01*
X330315Y366142D02*
X331102D01*
X330709Y365748D02*
Y366535D01*
X330315Y318898D02*
X331102D01*
X330709Y318504D02*
Y319291D01*
X330315Y307086D02*
X331102D01*
X330709Y306693D02*
Y307480D01*
X318504Y366142D02*
X319291D01*
X318898Y365748D02*
Y366535D01*
X318504Y307086D02*
X319291D01*
X318898Y306693D02*
Y307480D01*
X318504Y295275D02*
X319291D01*
X318898Y294882D02*
Y295669D01*
X318504Y283465D02*
X319291D01*
X318898Y283071D02*
Y283858D01*
X306693Y307086D02*
X307480D01*
X307086Y306693D02*
Y307480D01*
X306693Y295275D02*
X307480D01*
X307086Y294882D02*
Y295669D01*
X306693Y271654D02*
X307480D01*
X307086Y271260D02*
Y272047D01*
X294882Y366142D02*
X295669D01*
X295275Y365748D02*
Y366535D01*
X294882Y354331D02*
X295669D01*
X295275Y353937D02*
Y354724D01*
X294882Y342520D02*
X295669D01*
X295275Y342126D02*
Y342913D01*
X294882Y295275D02*
X295669D01*
X295275Y294882D02*
Y295669D01*
X294882Y283465D02*
X295669D01*
X295275Y283071D02*
Y283858D01*
X294882Y271654D02*
X295669D01*
X295275Y271260D02*
Y272047D01*
X283071Y342520D02*
X283858D01*
X283465Y342126D02*
Y342913D01*
X283071Y307086D02*
X283858D01*
X283465Y306693D02*
Y307480D01*
X271260Y307086D02*
X272047D01*
X271654Y306693D02*
Y307480D01*
X271260Y295275D02*
X272047D01*
X271654Y294882D02*
Y295669D01*
X271260Y271654D02*
X272047D01*
X271654Y271260D02*
Y272047D01*
X259449Y318898D02*
X260236D01*
X259842Y318504D02*
Y319291D01*
X259449Y307086D02*
X260236D01*
X259842Y306693D02*
Y307480D01*
X259449Y295275D02*
X260236D01*
X259842Y294882D02*
Y295669D01*
X259449Y271654D02*
X260236D01*
X259842Y271260D02*
Y272047D01*
X247638Y318898D02*
X248425D01*
X248031Y318504D02*
Y319291D01*
X247638Y307086D02*
X248425D01*
X248031Y306693D02*
Y307480D01*
X247638Y295275D02*
X248425D01*
X248031Y294882D02*
Y295669D01*
X247638Y271654D02*
X248425D01*
X248031Y271260D02*
Y272047D01*
X235827Y307086D02*
X236614D01*
X236220Y306693D02*
Y307480D01*
X235827Y295275D02*
X236614D01*
X236220Y294882D02*
Y295669D01*
X224016Y295275D02*
X224803D01*
X224409Y294882D02*
Y295669D01*
X228024Y473045D02*
X228811D01*
X228417Y472651D02*
Y473439D01*
X227606Y478610D02*
X228394D01*
X228000Y478217D02*
Y479004D01*
X223257Y469339D02*
X224044D01*
X223650Y468945D02*
Y469732D01*
X226580Y468488D02*
X227368D01*
X226974Y468094D02*
Y468882D01*
X219365Y464070D02*
X220152D01*
X219759Y463677D02*
Y464464D01*
X228106Y486500D02*
X228894D01*
X228500Y486106D02*
Y486894D01*
X227606Y482390D02*
X228394D01*
X228000Y481996D02*
Y482784D01*
X205106Y371000D02*
X205894D01*
X205500Y370606D02*
Y371394D01*
X208606Y371000D02*
X209394D01*
X209000Y370606D02*
Y371394D01*
X201106Y371500D02*
X201894D01*
X201500Y371106D02*
Y371894D01*
X208606Y375000D02*
X209394D01*
X209000Y374606D02*
Y375394D01*
X205106Y375000D02*
X205894D01*
X205500Y374606D02*
Y375394D01*
X212606Y371000D02*
X213394D01*
X213000Y370606D02*
Y371394D01*
X212606Y375000D02*
X213394D01*
X213000Y374606D02*
Y375394D01*
X201106Y375500D02*
X201894D01*
X201500Y375106D02*
Y375894D01*
X209106Y379500D02*
X209894D01*
X209500Y379106D02*
Y379894D01*
X201106Y379500D02*
X201894D01*
X201500Y379106D02*
Y379894D01*
X237106Y375500D02*
X237894D01*
X237500Y375106D02*
Y375894D01*
X240106Y375500D02*
X240894D01*
X240500Y375106D02*
Y375894D01*
X212606Y379500D02*
X213394D01*
X213000Y379106D02*
Y379894D01*
X243106Y375500D02*
X243894D01*
X243500Y375106D02*
Y375894D01*
X254492Y378592D02*
X255279D01*
X254886Y378199D02*
Y378986D01*
X233415Y426425D02*
X234202D01*
X233808Y426031D02*
Y426818D01*
X219580Y430355D02*
X220368D01*
X219974Y429961D02*
Y430748D01*
X223580Y430355D02*
X224368D01*
X223974Y429961D02*
Y430748D01*
X234106Y390500D02*
X234894D01*
X234500Y390106D02*
Y390894D01*
X254106Y439720D02*
X254894D01*
X254500Y439327D02*
Y440114D01*
X277047Y329760D02*
X277835D01*
X277441Y329366D02*
Y330153D01*
X271106Y378000D02*
X271894D01*
X271500Y377606D02*
Y378394D01*
X279047Y348260D02*
X279835D01*
X279441Y347866D02*
Y348654D01*
X279106Y383594D02*
X279894D01*
X279500Y383201D02*
Y383988D01*
X320606Y390949D02*
X321394D01*
X321000Y390555D02*
Y391343D01*
X306080Y430575D02*
X306868D01*
X306474Y430182D02*
Y430969D01*
X279606Y439500D02*
X280394D01*
X280000Y439106D02*
Y439894D01*
X290106Y436000D02*
X290894D01*
X290500Y435606D02*
Y436394D01*
X310080Y430575D02*
X310868D01*
X310474Y430182D02*
Y430969D01*
X320358Y427258D02*
X321146D01*
X320752Y426864D02*
Y427652D01*
X222260Y443035D02*
X223047D01*
X222654Y442641D02*
Y443428D01*
X223080Y454355D02*
X223868D01*
X223474Y453961D02*
Y454748D01*
X227653Y455927D02*
X228440D01*
X228046Y455533D02*
Y456321D01*
X246675Y461922D02*
X247463D01*
X247069Y461528D02*
Y462316D01*
X232606Y497000D02*
X233394D01*
X233000Y496606D02*
Y497394D01*
X246602Y480000D02*
X247390D01*
X246996Y479606D02*
Y480394D01*
X309080Y443575D02*
X309868D01*
X309474Y443182D02*
Y443969D01*
X309580Y454575D02*
X310368D01*
X309974Y454181D02*
Y454969D01*
X314080Y456075D02*
X314868D01*
X314474Y455682D02*
Y456469D01*
X290106Y458000D02*
X290894D01*
X290500Y457606D02*
Y458394D01*
X291106Y463000D02*
X291894D01*
X291500Y462606D02*
Y463394D01*
X313606Y474221D02*
X314394D01*
X314000Y473827D02*
Y474614D01*
X288106Y480500D02*
X288894D01*
X288500Y480106D02*
Y480894D01*
X311606Y483220D02*
X312394D01*
X312000Y482827D02*
Y483614D01*
X319072Y495768D02*
X319859D01*
X319465Y495374D02*
Y496162D01*
X362606Y313500D02*
X363394D01*
X363000Y313106D02*
Y313894D01*
X367106Y313500D02*
X367894D01*
X367500Y313106D02*
Y313894D01*
X354106Y313500D02*
X354894D01*
X354500Y313106D02*
Y313894D01*
X358106Y313500D02*
X358894D01*
X358500Y313106D02*
Y313894D01*
X360106Y327500D02*
X360894D01*
X360500Y327106D02*
Y327894D01*
X379547Y326260D02*
X380335D01*
X379941Y325866D02*
Y326654D01*
X387606Y209000D02*
X388394D01*
X388000Y208606D02*
Y209394D01*
X400827Y267689D02*
X401615D01*
X401221Y267295D02*
Y268082D01*
X403699Y204000D02*
X404486D01*
X404093Y203606D02*
Y204394D01*
X385606Y326500D02*
X386394D01*
X386000Y326106D02*
Y326894D01*
X385606Y321000D02*
X386394D01*
X386000Y320606D02*
Y321394D01*
X385606Y331000D02*
X386394D01*
X386000Y330606D02*
Y331394D01*
X386606Y340000D02*
X387394D01*
X387000Y339606D02*
Y340394D01*
X386606Y343000D02*
X387394D01*
X387000Y342606D02*
Y343394D01*
X365606Y384390D02*
X366394D01*
X366000Y383996D02*
Y384784D01*
X381547Y344760D02*
X382335D01*
X381941Y344366D02*
Y345153D01*
X386547Y357760D02*
X387335D01*
X386941Y357366D02*
Y358154D01*
X391580Y430500D02*
X392368D01*
X391974Y430106D02*
Y430894D01*
X395580Y430500D02*
X396368D01*
X395974Y430106D02*
Y430894D01*
X420686Y285121D02*
X421473D01*
X421079Y284728D02*
Y285515D01*
X422699Y178409D02*
X423486D01*
X423093Y178016D02*
Y178803D01*
X422699Y186409D02*
X423486D01*
X423093Y186016D02*
Y186803D01*
X423106Y246000D02*
X423894D01*
X423500Y245606D02*
Y246394D01*
X423106Y238000D02*
X423894D01*
X423500Y237606D02*
Y238394D01*
X406200Y390406D02*
X406988D01*
X406594Y390012D02*
Y390800D01*
X414606Y352000D02*
X415394D01*
X415000Y351606D02*
Y352394D01*
X338186Y439203D02*
X338973D01*
X338579Y438809D02*
Y439596D01*
X366520Y439890D02*
X367307D01*
X366913Y439496D02*
Y440283D01*
X376606Y458390D02*
X377394D01*
X377000Y457996D02*
Y458783D01*
X376606Y436390D02*
X377394D01*
X377000Y435996D02*
Y436784D01*
X394488Y444988D02*
X395275D01*
X394882Y444594D02*
Y445382D01*
X395080Y454500D02*
X395868D01*
X395474Y454106D02*
Y454894D01*
X399580Y456000D02*
X400368D01*
X399974Y455606D02*
Y456394D01*
X333175Y462143D02*
X333963D01*
X333569Y461749D02*
Y462536D01*
X377606Y463390D02*
X378394D01*
X378000Y462996D02*
Y463784D01*
X333102Y480390D02*
X333890D01*
X333496Y479996D02*
Y480784D01*
X374606Y480890D02*
X375394D01*
X375000Y480496D02*
Y481284D01*
X399106Y474145D02*
X399894D01*
X399500Y473752D02*
Y474539D01*
X397106Y483145D02*
X397894D01*
X397500Y482752D02*
Y483539D01*
X423374Y439390D02*
X424161D01*
X423767Y438996D02*
Y439783D01*
X418676Y462068D02*
X419463D01*
X419069Y461674D02*
Y462461D01*
X462200Y435906D02*
X462988D01*
X462594Y435512D02*
Y436300D01*
X451717Y439390D02*
X452504D01*
X452110Y438996D02*
Y439783D01*
X462217Y457890D02*
X463004D01*
X462610Y457496D02*
Y458284D01*
X463216Y462890D02*
X464004D01*
X463610Y462496D02*
Y463283D01*
X504078Y466119D02*
X504866D01*
X504472Y465726D02*
Y466513D01*
X496078Y466119D02*
X496866D01*
X496472Y465726D02*
Y466513D01*
X404606Y497145D02*
X405394D01*
X405000Y496752D02*
Y497539D01*
X418713Y479890D02*
X419500D01*
X419106Y479496D02*
Y480283D01*
X460217Y480390D02*
X461004D01*
X460610Y479996D02*
Y480784D01*
X521669Y485119D02*
X522456D01*
X522062Y484726D02*
Y485513D01*
X203066Y412450D02*
X203853D01*
X203459Y412057D02*
Y412844D01*
X205106Y379500D02*
X205894D01*
X205500Y379106D02*
Y379894D01*
X432203Y326410D02*
X432990D01*
X432597Y326016D02*
Y326803D01*
X419106Y223000D02*
X419894D01*
X419500Y222606D02*
Y223394D01*
X449463Y383327D02*
X450251D01*
X449857Y382933D02*
Y383720D01*
X405969Y426758D02*
X406756D01*
X406362Y426364D02*
Y427152D01*
X402607Y264488D02*
X403395D01*
X403001Y264094D02*
Y264882D01*
X433012Y334409D02*
X433799D01*
X433405Y334016D02*
Y334803D01*
X420701Y293091D02*
X421488D01*
X421095Y292697D02*
Y293484D01*
X284047Y361260D02*
X284835D01*
X284441Y360866D02*
Y361653D01*
X452606Y361500D02*
X453394D01*
X453000Y361106D02*
Y361894D01*
X452296Y374115D02*
X453083D01*
X452690Y373722D02*
Y374509D01*
X427106Y312000D02*
X427894D01*
X427500Y311606D02*
Y312394D01*
X426392Y280000D02*
X427179D01*
X426786Y279606D02*
Y280394D01*
X430540Y319217D02*
X431327D01*
X430933Y318823D02*
Y319611D01*
X204106Y138000D02*
X204894D01*
X204500Y137606D02*
Y138394D01*
X218540Y142419D02*
X219327D01*
X218934Y142026D02*
Y142813D01*
X229606Y175000D02*
X230394D01*
X230000Y174606D02*
Y175394D01*
X236106Y156000D02*
X236894D01*
X236500Y155606D02*
Y156394D01*
X244104Y164023D02*
X244892D01*
X244498Y163629D02*
Y164417D01*
X250606Y172787D02*
X251394D01*
X251000Y172394D02*
Y173181D01*
X254106Y172787D02*
X254894D01*
X254500Y172394D02*
Y173181D01*
X227899Y188623D02*
X228686D01*
X228293Y188229D02*
Y189017D01*
X227606Y193000D02*
X228394D01*
X228000Y192606D02*
Y193394D01*
X229606Y181500D02*
X230394D01*
X230000Y181106D02*
Y181894D01*
X229729Y215973D02*
X230516D01*
X230122Y215580D02*
Y216367D01*
X197729Y226473D02*
X198516D01*
X198123Y226080D02*
Y226867D01*
X197729Y220973D02*
X198516D01*
X198123Y220580D02*
Y221367D01*
X197934Y236125D02*
X198722D01*
X198328Y235732D02*
Y236519D01*
X198229Y231473D02*
X199016D01*
X198623Y231080D02*
Y231867D01*
X233606Y220500D02*
X234394D01*
X234000Y220106D02*
Y220894D01*
X236606Y220500D02*
X237394D01*
X237000Y220106D02*
Y220894D01*
X252080Y222377D02*
X252867D01*
X252473Y221984D02*
Y222771D01*
X246080Y222377D02*
X246867D01*
X246473Y221984D02*
Y222771D01*
X262106Y114000D02*
X262894D01*
X262500Y113606D02*
Y114394D01*
X265106Y114000D02*
X265894D01*
X265500Y113606D02*
Y114394D01*
X282526Y110066D02*
X283313D01*
X282919Y109673D02*
Y110460D01*
X282526Y107067D02*
X283313D01*
X282919Y106673D02*
Y107460D01*
X282526Y115567D02*
X283313D01*
X282919Y115173D02*
Y115960D01*
X282526Y113066D02*
X283313D01*
X282919Y112673D02*
Y113460D01*
X268606Y156500D02*
X269394D01*
X269000Y156106D02*
Y156894D01*
X282526Y104067D02*
X283313D01*
X282919Y103673D02*
Y104460D01*
X295687Y103934D02*
X296474D01*
X296081Y103540D02*
Y104327D01*
X295687Y106433D02*
X296474D01*
X296081Y106040D02*
Y106827D01*
X295687Y109433D02*
X296474D01*
X296081Y109040D02*
Y109827D01*
X296187Y112934D02*
X296974D01*
X296581Y112540D02*
Y113327D01*
X295687Y115434D02*
X296474D01*
X296081Y115040D02*
Y115827D01*
X257606Y172787D02*
X258394D01*
X258000Y172394D02*
Y173181D01*
X262106Y172787D02*
X262894D01*
X262500Y172394D02*
Y173181D01*
X258280Y178437D02*
X259067D01*
X258673Y178043D02*
Y178830D01*
X256580Y222377D02*
X257367D01*
X256973Y221984D02*
Y222771D01*
X257606Y184287D02*
X258394D01*
X258000Y183894D02*
Y184681D01*
X262106Y184287D02*
X262894D01*
X262500Y183894D02*
Y184681D01*
X261580Y222377D02*
X262367D01*
X261973Y221984D02*
Y222771D01*
X264079Y168947D02*
X264866D01*
X264472Y168553D02*
Y169341D01*
X279106Y176000D02*
X279894D01*
X279500Y175606D02*
Y176394D01*
X282256Y176000D02*
X283043D01*
X282650Y175606D02*
Y176394D01*
X308106Y223500D02*
X308894D01*
X308500Y223106D02*
Y223894D01*
X302106Y223500D02*
X302894D01*
X302500Y223106D02*
Y223894D01*
X197606Y239500D02*
X198394D01*
X198000Y239106D02*
Y239894D01*
X198729Y244973D02*
X199516D01*
X199123Y244580D02*
Y245367D01*
X198729Y255973D02*
X199516D01*
X199123Y255580D02*
Y256367D01*
X198729Y251473D02*
X199516D01*
X199123Y251080D02*
Y251867D01*
X197606Y274000D02*
X198394D01*
X198000Y273606D02*
Y274394D01*
X197606Y267000D02*
X198394D01*
X198000Y266606D02*
Y267394D01*
X197606Y279500D02*
X198394D01*
X198000Y279106D02*
Y279894D01*
X198729Y261973D02*
X199516D01*
X199123Y261580D02*
Y262367D01*
X215012Y268473D02*
X215799D01*
X215406Y268080D02*
Y268867D01*
X215012Y275473D02*
X215799D01*
X215406Y275080D02*
Y275867D01*
X208512Y285500D02*
X209299D01*
X208906Y285106D02*
Y285894D01*
X229100Y279201D02*
X229887D01*
X229493Y278807D02*
Y279594D01*
X209106Y297500D02*
X209894D01*
X209500Y297106D02*
Y297894D01*
X209106Y291500D02*
X209894D01*
X209500Y291106D02*
Y291894D01*
X209606Y304000D02*
X210394D01*
X210000Y303606D02*
Y304394D01*
X221512Y325008D02*
X222299D01*
X221905Y324614D02*
Y325401D01*
X223781Y316508D02*
X224568D01*
X224174Y316114D02*
Y316901D01*
X223871Y319145D02*
X224658D01*
X224264Y318751D02*
Y319538D01*
X226781Y316508D02*
X227568D01*
X227174Y316114D02*
Y316901D01*
X229781Y316508D02*
X230568D01*
X230174Y316114D02*
Y316901D01*
X226800Y319071D02*
X227588D01*
X227194Y318677D02*
Y319464D01*
X229781Y319008D02*
X230568D01*
X230174Y318614D02*
Y319401D01*
X229781Y322008D02*
X230568D01*
X230174Y321614D02*
Y322401D01*
X223848Y322023D02*
X224635D01*
X224241Y321630D02*
Y322417D01*
X226781Y322008D02*
X227568D01*
X227174Y321614D02*
Y322401D01*
X238489Y286575D02*
X239277D01*
X238883Y286181D02*
Y286968D01*
X243606Y286492D02*
X244394D01*
X244000Y286098D02*
Y286886D01*
X248606Y292000D02*
X249394D01*
X249000Y291606D02*
Y292394D01*
X256106Y282000D02*
X256894D01*
X256500Y281606D02*
Y282394D01*
X261080Y291377D02*
X261867D01*
X261473Y290984D02*
Y291771D01*
X264080Y291377D02*
X264867D01*
X264473Y290984D02*
Y291771D01*
X267580Y291377D02*
X268367D01*
X267973Y290984D02*
Y291771D01*
X278580Y298878D02*
X279367D01*
X278973Y298484D02*
Y299271D01*
X280024Y311988D02*
X280811D01*
X280417Y311595D02*
Y312382D01*
X281580Y298878D02*
X282367D01*
X281973Y298484D02*
Y299271D01*
X287524Y312988D02*
X288311D01*
X287917Y312595D02*
Y313382D01*
X292106Y308000D02*
X292894D01*
X292500Y307606D02*
Y308394D01*
X300024Y320988D02*
X300811D01*
X300417Y320595D02*
Y321382D01*
X297524Y323988D02*
X298311D01*
X297917Y323594D02*
Y324382D01*
X297524Y320988D02*
X298311D01*
X297917Y320595D02*
Y321382D01*
X300087Y323969D02*
X300874D01*
X300480Y323575D02*
Y324362D01*
X303024Y320988D02*
X303811D01*
X303417Y320595D02*
Y321382D01*
X303024Y323988D02*
X303811D01*
X303417Y323594D02*
Y324382D01*
X325026Y108566D02*
X325813D01*
X325419Y108173D02*
Y108960D01*
X325026Y104567D02*
X325813D01*
X325419Y104173D02*
Y104960D01*
X325026Y115067D02*
X325813D01*
X325419Y114673D02*
Y115460D01*
X325026Y112066D02*
X325813D01*
X325419Y111673D02*
Y112460D01*
X318717Y145760D02*
X319504D01*
X319110Y145366D02*
Y146153D01*
X339187Y106433D02*
X339974D01*
X339581Y106040D02*
Y106827D01*
X339187Y103934D02*
X339974D01*
X339581Y103540D02*
Y104327D01*
X338687Y114434D02*
X339474D01*
X339081Y114040D02*
Y114827D01*
X338687Y110433D02*
X339474D01*
X339081Y110040D02*
Y110827D01*
X333217Y162547D02*
X334004D01*
X333610Y162153D02*
Y162941D01*
X336717Y162547D02*
X337504D01*
X337110Y162153D02*
Y162941D01*
X344717Y162547D02*
X345504D01*
X345110Y162153D02*
Y162941D01*
X340216Y162547D02*
X341004D01*
X340610Y162153D02*
Y162941D01*
X310509Y178383D02*
X311297D01*
X310903Y177989D02*
Y178777D01*
X312216Y171260D02*
X313004D01*
X312610Y170866D02*
Y171653D01*
X319095Y210988D02*
X319883D01*
X319489Y210595D02*
Y211382D01*
X316095Y210988D02*
X316883D01*
X316489Y210595D02*
Y211382D01*
X323095Y210988D02*
X323883D01*
X323489Y210595D02*
Y211382D01*
X327106Y212000D02*
X327894D01*
X327500Y211606D02*
Y212394D01*
X340890Y168196D02*
X341677D01*
X341284Y167803D02*
Y168590D01*
X340216Y174047D02*
X341004D01*
X340610Y173653D02*
Y174441D01*
X344717Y174047D02*
X345504D01*
X345110Y173653D02*
Y174441D01*
X330106Y212000D02*
X330894D01*
X330500Y211606D02*
Y212394D01*
X333223Y211834D02*
X334010D01*
X333616Y211440D02*
Y212227D01*
X336606Y212000D02*
X337394D01*
X337000Y211606D02*
Y212394D01*
X351106Y146000D02*
X351894D01*
X351500Y145606D02*
Y146394D01*
X346689Y158707D02*
X347476D01*
X347083Y158313D02*
Y159100D01*
X377559Y110236D02*
X378346D01*
X377953Y109843D02*
Y110630D01*
X391106Y121000D02*
X391894D01*
X391500Y120606D02*
Y121394D01*
X393307Y110236D02*
X394094D01*
X393701Y109843D02*
Y110630D01*
X393606Y121000D02*
X394394D01*
X394000Y120606D02*
Y121394D01*
X372526Y159566D02*
X373313D01*
X372919Y159173D02*
Y159960D01*
X388540Y163919D02*
X389327D01*
X388934Y163526D02*
Y164313D01*
X361717Y165760D02*
X362504D01*
X362110Y165366D02*
Y166154D01*
X364866Y165760D02*
X365653D01*
X365260Y165366D02*
Y166154D01*
X398699Y182000D02*
X399486D01*
X399093Y181606D02*
Y182394D01*
X399410Y177000D02*
X400198D01*
X399804Y176606D02*
Y177394D01*
X399410Y185644D02*
X400198D01*
X399804Y185250D02*
Y186038D01*
X402699Y177000D02*
X403486D01*
X403093Y176606D02*
Y177394D01*
X402199Y182000D02*
X402986D01*
X402593Y181606D02*
Y182394D01*
X403178Y197285D02*
X403966D01*
X403572Y196892D02*
Y197679D01*
X309606Y251000D02*
X310394D01*
X310000Y250606D02*
Y251394D01*
X318106Y222000D02*
X318894D01*
X318500Y221606D02*
Y222394D01*
X309606Y260000D02*
X310394D01*
X310000Y259606D02*
Y260394D01*
X309606Y255000D02*
X310394D01*
X310000Y254606D02*
Y255394D01*
X309229Y263473D02*
X310016D01*
X309623Y263080D02*
Y263867D01*
X309606Y267000D02*
X310394D01*
X310000Y266606D02*
Y267394D01*
X309729Y269973D02*
X310516D01*
X310122Y269580D02*
Y270367D01*
X326606Y222000D02*
X327394D01*
X327000Y221606D02*
Y222394D01*
X331666Y222151D02*
X332453D01*
X332060Y221757D02*
Y222545D01*
X322106Y222500D02*
X322894D01*
X322500Y222106D02*
Y222894D01*
X345106Y222500D02*
X345894D01*
X345500Y222106D02*
Y222894D01*
X356106Y222000D02*
X356894D01*
X356500Y221606D02*
Y222394D01*
X350784Y222510D02*
X351571D01*
X351177Y222117D02*
Y222904D01*
X351606Y277000D02*
X352394D01*
X352000Y276606D02*
Y277394D01*
X331223Y281293D02*
X332011D01*
X331617Y280899D02*
Y281687D01*
X311080Y288377D02*
X311867D01*
X311473Y287984D02*
Y288771D01*
X334122Y317721D02*
X334909D01*
X334515Y317328D02*
Y318115D01*
X314024Y325488D02*
X314811D01*
X314417Y325095D02*
Y325882D01*
X328524Y325988D02*
X329311D01*
X328917Y325594D02*
Y326382D01*
X320524Y325988D02*
X321311D01*
X320917Y325594D02*
Y326382D01*
X339606Y281500D02*
X340394D01*
X340000Y281106D02*
Y281894D01*
X357080Y285378D02*
X357867D01*
X357473Y284984D02*
Y285771D01*
X345216Y287000D02*
X346004D01*
X345610Y286606D02*
Y287394D01*
X334622Y321721D02*
X335409D01*
X335015Y321328D02*
Y322115D01*
X356622Y320729D02*
X357409D01*
X357015Y320335D02*
Y321123D01*
X363106Y222000D02*
X363894D01*
X363500Y221606D02*
Y222394D01*
X369536Y222510D02*
X370323D01*
X369930Y222117D02*
Y222904D01*
X372606Y222500D02*
X373394D01*
X373000Y222106D02*
Y222894D01*
X380106Y222500D02*
X380894D01*
X380500Y222106D02*
Y222894D01*
X399818Y236126D02*
X400605D01*
X400211Y235732D02*
Y236520D01*
X399731Y241590D02*
X400518D01*
X400125Y241197D02*
Y241984D01*
X401209Y270500D02*
X401996D01*
X401602Y270106D02*
Y270894D01*
X402606Y241590D02*
X403394D01*
X403000Y241197D02*
Y241984D01*
X403106Y236591D02*
X403894D01*
X403500Y236197D02*
Y236984D01*
X360580Y285378D02*
X361367D01*
X360973Y284984D02*
Y285771D01*
X364080Y285378D02*
X364867D01*
X364473Y284984D02*
Y285771D01*
X396716Y289500D02*
X397504D01*
X397110Y289106D02*
Y289894D01*
X397428Y285000D02*
X398215D01*
X397822Y284606D02*
Y285394D01*
X363606Y318000D02*
X364394D01*
X364000Y317606D02*
Y318394D01*
X398106Y294500D02*
X398894D01*
X398500Y294106D02*
Y294894D01*
X361350Y324569D02*
X362137D01*
X361743Y324175D02*
Y324962D01*
X400106Y285000D02*
X400894D01*
X400500Y284606D02*
Y285394D01*
X400216Y289500D02*
X401004D01*
X400610Y289106D02*
Y289894D01*
X400716Y294500D02*
X401504D01*
X401110Y294106D02*
Y294894D01*
X402106Y305000D02*
X402894D01*
X402500Y304606D02*
Y305394D01*
X402765Y308025D02*
X403552D01*
X403158Y307631D02*
Y308419D01*
X199106Y335000D02*
X199894D01*
X199500Y334606D02*
Y335394D01*
X221781Y330008D02*
X222568D01*
X222175Y329614D02*
Y330401D01*
X198606Y345000D02*
X199394D01*
X199000Y344606D02*
Y345394D01*
X221106Y360949D02*
X221894D01*
X221500Y360555D02*
Y361343D01*
X225281Y333008D02*
X226068D01*
X225675Y332614D02*
Y333401D01*
X224781Y347508D02*
X225568D01*
X225174Y347114D02*
Y347901D01*
X224781Y339508D02*
X225568D01*
X225174Y339114D02*
Y339901D01*
X228548Y353106D02*
X229335D01*
X228941Y352712D02*
Y353499D01*
X199606Y365000D02*
X200394D01*
X200000Y364606D02*
Y365394D01*
X198807Y391997D02*
X199594D01*
X199201Y391603D02*
Y392390D01*
X202606Y395000D02*
X203394D01*
X203000Y394606D02*
Y395394D01*
X202752Y404000D02*
X203539D01*
X203146Y403606D02*
Y404394D01*
X218106Y400500D02*
X218894D01*
X218500Y400106D02*
Y400894D01*
X213676Y407328D02*
X214463D01*
X214069Y406934D02*
Y407722D01*
X221618Y392500D02*
X222406D01*
X222012Y392106D02*
Y392894D01*
X228095Y381606D02*
X228882D01*
X228488Y381212D02*
Y381999D01*
X221618Y397000D02*
X222406D01*
X222012Y396606D02*
Y397394D01*
X228095Y396244D02*
X228882D01*
X228488Y395850D02*
Y396638D01*
X228095Y392744D02*
X228882D01*
X228488Y392350D02*
Y393138D01*
X228095Y400744D02*
X228882D01*
X228488Y400350D02*
Y401137D01*
X239911Y329066D02*
X240698D01*
X240305Y328673D02*
Y329460D01*
X235318Y340712D02*
X236106D01*
X235712Y340318D02*
Y341106D01*
X252041Y330254D02*
X252828D01*
X252435Y329860D02*
Y330647D01*
X297524Y326988D02*
X298311D01*
X297917Y326594D02*
Y327382D01*
X300161Y326898D02*
X300948D01*
X300554Y326505D02*
Y327292D01*
X284524Y339488D02*
X285311D01*
X284917Y339094D02*
Y339882D01*
X252606Y342000D02*
X253394D01*
X253000Y341606D02*
Y342394D01*
X252547Y353984D02*
X253335D01*
X252941Y353590D02*
Y354378D01*
X229548Y376498D02*
X230335D01*
X229942Y376105D02*
Y376892D01*
X235971Y381244D02*
X236758D01*
X236365Y380850D02*
Y381638D01*
X233048Y381606D02*
X233835D01*
X233441Y381212D02*
Y381999D01*
X252047Y365260D02*
X252835D01*
X252441Y364866D02*
Y365653D01*
X269047Y369760D02*
X269835D01*
X269441Y369366D02*
Y370153D01*
X276473Y377475D02*
X277260D01*
X276866Y377081D02*
Y377868D01*
X274740Y393246D02*
X275527D01*
X275134Y392852D02*
Y393639D01*
X242969Y399247D02*
X243757D01*
X243363Y398853D02*
Y399641D01*
X298819Y409449D02*
X299606D01*
X299213Y409055D02*
Y409842D01*
X204331Y425197D02*
X205118D01*
X204724Y424803D02*
Y425591D01*
X213499Y422533D02*
X214286D01*
X213893Y422139D02*
Y422926D01*
X220079Y425197D02*
X220866D01*
X220472Y424803D02*
Y425591D01*
X219580Y438855D02*
X220368D01*
X219974Y438461D02*
Y439248D01*
X223080Y438855D02*
X223868D01*
X223474Y438461D02*
Y439248D01*
X227471Y424244D02*
X228258D01*
X227865Y423850D02*
Y424638D01*
X234606Y440000D02*
X235394D01*
X235000Y439606D02*
Y440394D01*
X201606Y466000D02*
X202394D01*
X202000Y465606D02*
Y466394D01*
X204331Y472441D02*
X205118D01*
X204724Y472047D02*
Y472835D01*
X226106Y495500D02*
X226894D01*
X226500Y495106D02*
Y495894D01*
X236580Y470355D02*
X237368D01*
X236974Y469961D02*
Y470748D01*
X242710Y424757D02*
X243497D01*
X243104Y424363D02*
Y425150D01*
X254360Y430587D02*
X255148D01*
X254754Y430194D02*
Y430981D01*
X267323Y409449D02*
X268110D01*
X267717Y409055D02*
Y409842D01*
X280471Y425244D02*
X281258D01*
X280865Y424850D02*
Y425637D01*
X279134Y442613D02*
X279921D01*
X279528Y442220D02*
Y443007D01*
X296242Y419477D02*
X297029D01*
X296636Y419083D02*
Y419870D01*
X296242Y423477D02*
X297029D01*
X296636Y423083D02*
Y423870D01*
X296242Y427477D02*
X297029D01*
X296636Y427083D02*
Y427870D01*
X298819Y425197D02*
X299606D01*
X299213Y424803D02*
Y425591D01*
X300106Y432610D02*
X300894D01*
X300500Y432217D02*
Y433004D01*
X246971Y468244D02*
X247758D01*
X247364Y467850D02*
Y468638D01*
X244580Y483855D02*
X245368D01*
X244974Y483461D02*
Y484248D01*
X251575Y488189D02*
X252362D01*
X251969Y487795D02*
Y488583D01*
X254240Y446746D02*
X255027D01*
X254634Y446352D02*
Y447140D01*
X262634Y467977D02*
X263421D01*
X263028Y467583D02*
Y468370D01*
X298819Y456693D02*
X299606D01*
X299213Y456299D02*
Y457087D01*
X262747Y477110D02*
X263535D01*
X263141Y476717D02*
Y477504D01*
X291606Y473110D02*
X292394D01*
X292000Y472717D02*
Y473504D01*
X283071Y488189D02*
X283858D01*
X283465Y487795D02*
Y488583D01*
X267323Y488189D02*
X268110D01*
X267717Y487795D02*
Y488583D01*
X303039Y326921D02*
X303827D01*
X303433Y326528D02*
Y327315D01*
X306024Y331488D02*
X306811D01*
X306417Y331095D02*
Y331882D01*
X311024Y328988D02*
X311811D01*
X311417Y328594D02*
Y329382D01*
X341324Y330218D02*
X342111D01*
X341718Y329824D02*
Y330611D01*
X352273Y337119D02*
X353061D01*
X352667Y336725D02*
Y337513D01*
X313971Y393134D02*
X314758D01*
X314365Y392740D02*
Y393527D01*
X313971Y397110D02*
X314758D01*
X314365Y396716D02*
Y397504D01*
X313971Y399405D02*
X314758D01*
X314365Y399011D02*
Y399799D01*
X313971Y424634D02*
X314758D01*
X314365Y424240D02*
Y425027D01*
X314567Y409449D02*
X315354D01*
X314961Y409055D02*
Y409842D01*
X318327Y354611D02*
X319115D01*
X318721Y354217D02*
Y355004D01*
X322327Y354611D02*
X323115D01*
X322721Y354217D02*
Y355004D01*
X333524Y354488D02*
X334311D01*
X333917Y354095D02*
Y354882D01*
X322471Y381634D02*
X323258D01*
X322865Y381240D02*
Y382027D01*
X329606Y399405D02*
X330394D01*
X330000Y399011D02*
Y399799D01*
X329242Y425366D02*
X330029D01*
X329636Y424973D02*
Y425760D01*
X355047Y327260D02*
X355835D01*
X355441Y326866D02*
Y327654D01*
X355106Y350000D02*
X355894D01*
X355500Y349606D02*
Y350394D01*
X354547Y361760D02*
X355335D01*
X354941Y361366D02*
Y362154D01*
X362719Y377452D02*
X363506D01*
X363113Y377058D02*
Y377846D01*
X370791Y365504D02*
X371578D01*
X371185Y365110D02*
Y365897D01*
X361066Y393406D02*
X361853D01*
X361459Y393012D02*
Y393800D01*
X382742Y419866D02*
X383529D01*
X383136Y419473D02*
Y420260D01*
X382742Y423866D02*
X383529D01*
X383136Y423473D02*
Y424260D01*
X399581Y392634D02*
X400368D01*
X399975Y392240D02*
Y393027D01*
X399750Y398027D02*
X400537D01*
X400143Y397634D02*
Y398421D01*
X399581Y424134D02*
X400368D01*
X399975Y423740D02*
Y424527D01*
X309580Y439075D02*
X310368D01*
X309974Y438682D02*
Y439469D01*
X306080Y439075D02*
X306868D01*
X306474Y438682D02*
Y439469D01*
X313080Y468575D02*
X313868D01*
X313474Y468182D02*
Y468969D01*
X340767Y430864D02*
X341554D01*
X341160Y430471D02*
Y431258D01*
X333471Y468634D02*
X334258D01*
X333864Y468240D02*
Y469027D01*
X323080Y470575D02*
X323868D01*
X323474Y470182D02*
Y470969D01*
X331973Y470864D02*
X332760D01*
X332366Y470471D02*
Y471258D01*
X331080Y484075D02*
X331868D01*
X331474Y483681D02*
Y484469D01*
X342867Y443021D02*
X343654D01*
X343261Y442627D02*
Y443415D01*
X382742Y427866D02*
X383529D01*
X383136Y427473D02*
Y428260D01*
X385606Y433000D02*
X386394D01*
X386000Y432606D02*
Y433394D01*
X391104Y439000D02*
X391891D01*
X391497Y438606D02*
Y439394D01*
X395080Y439000D02*
X395868D01*
X395474Y438606D02*
Y439394D01*
X349134Y468366D02*
X349921D01*
X349528Y467973D02*
Y468760D01*
X366520Y444134D02*
X367307D01*
X366913Y443740D02*
Y444527D01*
X349247Y477500D02*
X350035D01*
X349641Y477106D02*
Y477894D01*
X377559Y488189D02*
X378346D01*
X377953Y487795D02*
Y488583D01*
X361811Y488189D02*
X362598D01*
X362205Y487795D02*
Y488583D01*
X378106Y473500D02*
X378894D01*
X378500Y473106D02*
Y473894D01*
X393307Y472441D02*
X394094D01*
X393701Y472047D02*
Y472835D01*
X398580Y468500D02*
X399368D01*
X398974Y468106D02*
Y468894D01*
X407699Y162000D02*
X408486D01*
X408093Y161606D02*
Y162394D01*
X404747Y163475D02*
X405535D01*
X405141Y163081D02*
Y163869D01*
X409055Y125984D02*
X409842D01*
X409449Y125591D02*
Y126378D01*
X409055Y110236D02*
X409842D01*
X409449Y109843D02*
Y110630D01*
X409055Y141732D02*
X409842D01*
X409449Y141339D02*
Y142126D01*
X404691Y167000D02*
X405478D01*
X405085Y166606D02*
Y167394D01*
X403219Y185248D02*
X404006D01*
X403612Y184854D02*
Y185642D01*
X405699Y182000D02*
X406486D01*
X406093Y181606D02*
Y182394D01*
X406199Y176500D02*
X406986D01*
X406593Y176106D02*
Y176894D01*
X422222Y158791D02*
X423009D01*
X422615Y158398D02*
Y159185D01*
X411699Y161500D02*
X412486D01*
X412093Y161106D02*
Y161894D01*
X423643Y126199D02*
X424430D01*
X424037Y125805D02*
Y126593D01*
X430199Y171409D02*
X430986D01*
X430593Y171016D02*
Y171803D01*
X403191Y201000D02*
X403978D01*
X403585Y200606D02*
Y201394D01*
X406530Y185470D02*
X407317D01*
X406924Y185076D02*
Y185863D01*
X408106Y221590D02*
X408894D01*
X408500Y221197D02*
Y221984D01*
X412699Y208500D02*
X413486D01*
X413093Y208106D02*
Y208894D01*
X412106Y221091D02*
X412894D01*
X412500Y220697D02*
Y221484D01*
X405155Y223065D02*
X405942D01*
X405548Y222672D02*
Y223459D01*
X423199Y194500D02*
X423986D01*
X423593Y194106D02*
Y194894D01*
X431258Y203500D02*
X432045D01*
X431652Y203106D02*
Y203894D01*
X416199Y207000D02*
X416986D01*
X416593Y206606D02*
Y207394D01*
X422606Y221500D02*
X423394D01*
X423000Y221106D02*
Y221894D01*
X440551Y125984D02*
X441338D01*
X440945Y125591D02*
Y126378D01*
X440551Y110236D02*
X441338D01*
X440945Y109843D02*
Y110630D01*
X435900Y162264D02*
X436687D01*
X436293Y161870D02*
Y162657D01*
X447209Y153347D02*
X447996D01*
X447602Y152954D02*
Y153741D01*
X436436Y194248D02*
X437223D01*
X436830Y193854D02*
Y194642D01*
X443699Y171909D02*
X444486D01*
X444093Y171516D02*
Y172303D01*
X456299Y110236D02*
X457087D01*
X456693Y109843D02*
Y110630D01*
X456606Y155500D02*
X457394D01*
X457000Y155106D02*
Y155894D01*
X448752Y170958D02*
X449540D01*
X449146Y170564D02*
Y171352D01*
X450199Y185409D02*
X450986D01*
X450593Y185016D02*
Y185803D01*
X444699Y203909D02*
X445486D01*
X445093Y203516D02*
Y204303D01*
X449606Y213000D02*
X450394D01*
X450000Y212606D02*
Y213394D01*
X437051Y222598D02*
X437838D01*
X437444Y222204D02*
Y222991D01*
X450199Y203142D02*
X450986D01*
X450593Y202748D02*
Y203535D01*
X405013Y237719D02*
X405801D01*
X405407Y237325D02*
Y238113D01*
X403585Y258067D02*
X404373D01*
X403979Y257673D02*
Y258461D01*
X403626Y245870D02*
X404413D01*
X404020Y245476D02*
Y246263D01*
X403598Y260512D02*
X404386D01*
X403992Y260118D02*
Y260906D01*
X406106Y241590D02*
X406894D01*
X406500Y241197D02*
Y241984D01*
X406606Y246091D02*
X407394D01*
X407000Y245697D02*
Y246484D01*
X413614Y260000D02*
X414402D01*
X414008Y259606D02*
Y260394D01*
X423297Y254004D02*
X424084D01*
X423690Y253611D02*
Y254398D01*
X415606Y264000D02*
X416394D01*
X416000Y263606D02*
Y264394D01*
X415606Y268000D02*
X416394D01*
X416000Y267606D02*
Y268394D01*
X413106Y268091D02*
X413894D01*
X413500Y267697D02*
Y268484D01*
X403606Y294500D02*
X404394D01*
X404000Y294106D02*
Y294894D01*
X425603Y269503D02*
X426391D01*
X425997Y269109D02*
Y269897D01*
X429266Y300845D02*
X430053D01*
X429660Y300451D02*
Y301238D01*
X432023Y231264D02*
X432810D01*
X432417Y230870D02*
Y231658D01*
X437106Y254090D02*
X437894D01*
X437500Y253697D02*
Y254484D01*
X444425Y232454D02*
X445212D01*
X444819Y232061D02*
Y232848D01*
X434300Y260271D02*
X435087D01*
X434694Y259877D02*
Y260665D01*
X449606Y230500D02*
X450394D01*
X450000Y230106D02*
Y230894D01*
X450606Y245000D02*
X451394D01*
X451000Y244606D02*
Y245394D01*
X451877Y260959D02*
X452665D01*
X452271Y260566D02*
Y261353D01*
X453512Y262594D02*
X454300D01*
X453906Y262200D02*
Y262988D01*
X443602Y268000D02*
X444390D01*
X443996Y267606D02*
Y268394D01*
X445106Y263500D02*
X445894D01*
X445500Y263106D02*
Y263894D01*
X434997Y276825D02*
X435784D01*
X435391Y276431D02*
Y277219D01*
X441775Y299590D02*
X442562D01*
X442169Y299197D02*
Y299984D01*
X447186Y300621D02*
X447973D01*
X447579Y300228D02*
Y301015D01*
X448106Y268500D02*
X448894D01*
X448500Y268106D02*
Y268894D01*
X450001Y264706D02*
X450788D01*
X450395Y264313D02*
Y265100D01*
X448216Y286090D02*
X449004D01*
X448610Y285697D02*
Y286484D01*
X455363Y284907D02*
X456150D01*
X455757Y284513D02*
Y285301D01*
X456157Y276941D02*
X456945D01*
X456551Y276547D02*
Y277335D01*
X456216Y288591D02*
X457004D01*
X456610Y288197D02*
Y288984D01*
X456216Y291090D02*
X457004D01*
X456610Y290697D02*
Y291484D01*
X456216Y294091D02*
X457004D01*
X456610Y293697D02*
Y294484D01*
X457624Y163830D02*
X458412D01*
X458018Y163436D02*
Y164224D01*
X472047Y125984D02*
X472835D01*
X472441Y125591D02*
Y126378D01*
X487795Y125984D02*
X488583D01*
X488189Y125591D02*
Y126378D01*
X458199Y180409D02*
X458986D01*
X458593Y180016D02*
Y180803D01*
X458199Y177409D02*
X458986D01*
X458593Y177016D02*
Y177803D01*
X458199Y182909D02*
X458986D01*
X458593Y182516D02*
Y183303D01*
X474199Y166909D02*
X474986D01*
X474593Y166516D02*
Y167303D01*
X487795Y110236D02*
X488583D01*
X488189Y109843D02*
Y110630D01*
X496606Y127500D02*
X497394D01*
X497000Y127106D02*
Y127894D01*
X491359Y178869D02*
X492146D01*
X491752Y178475D02*
Y179263D01*
X503543Y110236D02*
X504331D01*
X503937Y109843D02*
Y110630D01*
X505984Y184911D02*
X506771D01*
X506378Y184517D02*
Y185305D01*
X457199Y186909D02*
X457986D01*
X457593Y186516D02*
Y187303D01*
X458432Y193748D02*
X459219D01*
X458826Y193354D02*
Y194142D01*
X458199Y212409D02*
X458986D01*
X458593Y212016D02*
Y212803D01*
X458199Y209910D02*
X458986D01*
X458593Y209516D02*
Y210303D01*
X458606Y214500D02*
X459394D01*
X459000Y214106D02*
Y214894D01*
X475199Y199409D02*
X475986D01*
X475593Y199016D02*
Y199803D01*
X490606Y187500D02*
X491394D01*
X491000Y187106D02*
Y187894D01*
X501106Y185500D02*
X501894D01*
X501500Y185106D02*
Y185894D01*
X494018Y200874D02*
X494805D01*
X494412Y200480D02*
Y201268D01*
X519291Y110236D02*
X520079D01*
X519685Y109843D02*
Y110630D01*
X523606Y159500D02*
X524394D01*
X524000Y159106D02*
Y159894D01*
X535039Y125984D02*
X535827D01*
X535433Y125591D02*
Y126378D01*
X540606Y130000D02*
X541394D01*
X541000Y129606D02*
Y130394D01*
X535039Y157480D02*
X535827D01*
X535433Y157087D02*
Y157874D01*
X550787Y125984D02*
X551575D01*
X551181Y125591D02*
Y126378D01*
X550787Y110236D02*
X551575D01*
X551181Y109843D02*
Y110630D01*
X576106Y132000D02*
X576894D01*
X576500Y131606D02*
Y132394D01*
X588606Y132000D02*
X589394D01*
X589000Y131606D02*
Y132394D01*
X550787Y157480D02*
X551575D01*
X551181Y157087D02*
Y157874D01*
X566535Y157480D02*
X567323D01*
X566929Y157087D02*
Y157874D01*
X582283Y141732D02*
X583071D01*
X582677Y141339D02*
Y142126D01*
X512106Y184500D02*
X512894D01*
X512500Y184106D02*
Y184894D01*
X514340Y215433D02*
X515127D01*
X514733Y215039D02*
Y215827D01*
X535039Y173228D02*
X535827D01*
X535433Y172835D02*
Y173622D01*
X550787Y173228D02*
X551575D01*
X551181Y172835D02*
Y173622D01*
X535039Y188976D02*
X535827D01*
X535433Y188583D02*
Y189370D01*
X550787Y188976D02*
X551575D01*
X551181Y188583D02*
Y189370D01*
X566535Y173228D02*
X567323D01*
X566929Y172835D02*
Y173622D01*
X582283Y173228D02*
X583071D01*
X582677Y172835D02*
Y173622D01*
X566535Y188976D02*
X567323D01*
X566929Y188583D02*
Y189370D01*
X582283Y188976D02*
X583071D01*
X582677Y188583D02*
Y189370D01*
X582283Y204724D02*
X583071D01*
X582677Y204331D02*
Y205118D01*
X550787Y204724D02*
X551575D01*
X551181Y204331D02*
Y205118D01*
X566535Y204724D02*
X567323D01*
X566929Y204331D02*
Y205118D01*
X521833Y214118D02*
X522620D01*
X522226Y213724D02*
Y214512D01*
X582283Y220472D02*
X583071D01*
X582677Y220079D02*
Y220866D01*
X458606Y240000D02*
X459394D01*
X459000Y239606D02*
Y240394D01*
X458606Y237000D02*
X459394D01*
X459000Y236606D02*
Y237394D01*
X458606Y242500D02*
X459394D01*
X459000Y242106D02*
Y242894D01*
X457606Y246500D02*
X458394D01*
X458000Y246106D02*
Y246894D01*
X458547Y254150D02*
X459335D01*
X458941Y253756D02*
Y254543D01*
X461688Y254150D02*
X462476D01*
X462082Y253756D02*
Y254543D01*
X474606Y226500D02*
X475394D01*
X475000Y226106D02*
Y226894D01*
X478606Y256500D02*
X479394D01*
X479000Y256106D02*
Y256894D01*
X458606Y272000D02*
X459394D01*
X459000Y271606D02*
Y272394D01*
X458606Y269500D02*
X459394D01*
X459000Y269106D02*
Y269894D01*
X458059Y274000D02*
X458847D01*
X458453Y273606D02*
Y274394D01*
X469665Y270094D02*
X470453D01*
X470059Y269701D02*
Y270488D01*
X475606Y285500D02*
X476394D01*
X476000Y285106D02*
Y285894D01*
X467606Y302185D02*
X468394D01*
X468000Y301791D02*
Y302579D01*
X481603Y300516D02*
X482390D01*
X481996Y300122D02*
Y300909D01*
X495037Y241124D02*
X495824D01*
X495430Y240730D02*
Y241517D01*
X506106Y242327D02*
X506894D01*
X506500Y241933D02*
Y242721D01*
X535039Y236220D02*
X535827D01*
X535433Y235827D02*
Y236614D01*
X517319Y247118D02*
X518106D01*
X517712Y246724D02*
Y247511D01*
X550787Y220472D02*
X551575D01*
X551181Y220079D02*
Y220866D01*
X566535Y220472D02*
X567323D01*
X566929Y220079D02*
Y220866D01*
X535039Y220472D02*
X535827D01*
X535433Y220079D02*
Y220866D01*
X582283Y236220D02*
X583071D01*
X582677Y235827D02*
Y236614D01*
X550787Y236220D02*
X551575D01*
X551181Y235827D02*
Y236614D01*
X535039Y267717D02*
X535827D01*
X535433Y267323D02*
Y268110D01*
X582283Y251969D02*
X583071D01*
X582677Y251575D02*
Y252362D01*
X550787Y251969D02*
X551575D01*
X551181Y251575D02*
Y252362D01*
X496347Y285642D02*
X497134D01*
X496740Y285248D02*
Y286035D01*
X501606Y284000D02*
X502394D01*
X502000Y283606D02*
Y284394D01*
X550787Y267717D02*
X551575D01*
X551181Y267323D02*
Y268110D01*
X582283Y267717D02*
X583071D01*
X582677Y267323D02*
Y268110D01*
X582283Y283465D02*
X583071D01*
X582677Y283071D02*
Y283858D01*
X566535Y283465D02*
X567323D01*
X566929Y283071D02*
Y283858D01*
X522106Y291500D02*
X522894D01*
X522500Y291106D02*
Y291894D01*
X582283Y299213D02*
X583071D01*
X582677Y298819D02*
Y299606D01*
X566535Y299213D02*
X567323D01*
X566929Y298819D02*
Y299606D01*
X413262Y307156D02*
X414050D01*
X413656Y306762D02*
Y307550D01*
X413606Y309000D02*
X414394D01*
X414000Y308606D02*
Y309394D01*
X405606Y310500D02*
X406394D01*
X406000Y310106D02*
Y310894D01*
X417606Y309500D02*
X418394D01*
X418000Y309106D02*
Y309894D01*
X420150Y309657D02*
X420937D01*
X420544Y309263D02*
Y310051D01*
X432819Y309453D02*
X433606D01*
X433212Y309060D02*
Y309847D01*
X413106Y315748D02*
X413894D01*
X413500Y315354D02*
Y316142D01*
X410318Y325626D02*
X411105D01*
X410711Y325232D02*
Y326020D01*
X413606Y325000D02*
X414394D01*
X414000Y324606D02*
Y325394D01*
X415235Y314120D02*
X416022D01*
X415628Y313726D02*
Y314513D01*
X409606Y330000D02*
X410394D01*
X410000Y329606D02*
Y330394D01*
X410318Y334000D02*
X411105D01*
X410711Y333606D02*
Y334394D01*
X413106Y330000D02*
X413894D01*
X413500Y329606D02*
Y330394D01*
X414126Y334279D02*
X414913D01*
X414520Y333885D02*
Y334673D01*
X417108Y324503D02*
X417895D01*
X417502Y324110D02*
Y324897D01*
X416606Y330000D02*
X417394D01*
X417000Y329606D02*
Y330394D01*
X417106Y334500D02*
X417894D01*
X417500Y334106D02*
Y334894D01*
X434106Y342500D02*
X434894D01*
X434500Y342106D02*
Y342894D01*
X435965Y308600D02*
X436752D01*
X436358Y308206D02*
Y308993D01*
X456911Y310242D02*
X457698D01*
X457305Y309848D02*
Y310636D01*
X463224Y302960D02*
X464012D01*
X463618Y302566D02*
Y303353D01*
X440961Y319638D02*
X441748D01*
X441354Y319244D02*
Y320032D01*
X446118Y342500D02*
X446906D01*
X446512Y342106D02*
Y342894D01*
X454606Y319910D02*
X455394D01*
X455000Y319516D02*
Y320303D01*
X459197Y319626D02*
X459984D01*
X459590Y319232D02*
Y320020D01*
X470098Y316965D02*
X470886D01*
X470492Y316571D02*
Y317359D01*
X461106Y333410D02*
X461894D01*
X461500Y333016D02*
Y333803D01*
X469106Y330909D02*
X469894D01*
X469500Y330516D02*
Y331303D01*
X469106Y328410D02*
X469894D01*
X469500Y328016D02*
Y328803D01*
X468106Y334910D02*
X468894D01*
X468500Y334516D02*
Y335303D01*
X469047Y342559D02*
X469835D01*
X469441Y342165D02*
Y342953D01*
X408081Y381134D02*
X408868D01*
X408475Y380740D02*
Y381527D01*
X414085Y345285D02*
X414873D01*
X414479Y344892D02*
Y345679D01*
X414098Y349000D02*
X414886D01*
X414492Y348606D02*
Y349394D01*
X423604Y356498D02*
X424392D01*
X423998Y356104D02*
Y356891D01*
X424784Y355000D02*
X425571D01*
X425177Y354606D02*
Y355394D01*
X414808Y424949D02*
X415596D01*
X415202Y424555D02*
Y425343D01*
X415216Y399000D02*
X416004D01*
X415610Y398606D02*
Y399394D01*
X419043Y468345D02*
X419831D01*
X419437Y467951D02*
Y468739D01*
X426217Y446012D02*
X427004D01*
X426610Y445618D02*
Y446406D01*
X408580Y470500D02*
X409368D01*
X408974Y470106D02*
Y470894D01*
X417583Y470365D02*
X418370D01*
X417977Y469971D02*
Y470758D01*
X416580Y484000D02*
X417368D01*
X416974Y483606D02*
Y484394D01*
X442041Y351565D02*
X442829D01*
X442435Y351171D02*
Y351959D01*
X447621Y378326D02*
X448408D01*
X448015Y377933D02*
Y378720D01*
X447348Y393325D02*
X448135D01*
X447742Y392931D02*
Y393719D01*
X462420Y349686D02*
X463208D01*
X462814Y349292D02*
Y350080D01*
X455195Y352321D02*
X455982D01*
X455588Y351927D02*
Y352715D01*
X468352Y419366D02*
X469139D01*
X468746Y418973D02*
Y419760D01*
X469922Y357417D02*
X470710D01*
X470316Y357023D02*
Y357810D01*
X468352Y423366D02*
X469139D01*
X468746Y422973D02*
Y423760D01*
X426972Y430917D02*
X427759D01*
X427366Y430523D02*
Y431311D01*
X440551Y488189D02*
X441338D01*
X440945Y487795D02*
Y488583D01*
X452581Y425095D02*
X453368D01*
X452975Y424701D02*
Y425488D01*
X452081Y443634D02*
X452868D01*
X452475Y443240D02*
Y444027D01*
X456299Y488189D02*
X457087D01*
X456693Y487795D02*
Y488583D01*
X468352Y427366D02*
X469139D01*
X468746Y426973D02*
Y427760D01*
X463717Y473000D02*
X464504D01*
X464110Y472606D02*
Y473394D01*
X485106Y316000D02*
X485894D01*
X485500Y315606D02*
Y316394D01*
X486106Y347410D02*
X486894D01*
X486500Y347016D02*
Y347803D01*
X500106Y345500D02*
X500894D01*
X500500Y345106D02*
Y345894D01*
X471429Y360409D02*
X472217D01*
X471823Y360016D02*
Y360803D01*
X471429Y362910D02*
X472217D01*
X471823Y362516D02*
Y363303D01*
X473799Y373000D02*
X474586D01*
X474192Y372606D02*
Y373394D01*
X484578Y414619D02*
X485366D01*
X484972Y414226D02*
Y415013D01*
X501150Y384739D02*
X501937D01*
X501544Y384345D02*
Y385133D01*
X502106Y388500D02*
X502894D01*
X502500Y388106D02*
Y388894D01*
X502606Y382110D02*
X503394D01*
X503000Y381716D02*
Y382504D01*
X502606Y397752D02*
X503394D01*
X503000Y397358D02*
Y398146D01*
X503606Y400500D02*
X504394D01*
X504000Y400106D02*
Y400894D01*
X505606Y362000D02*
X506394D01*
X506000Y361606D02*
Y362394D01*
X550787Y314961D02*
X551575D01*
X551181Y314567D02*
Y315354D01*
X582283Y314961D02*
X583071D01*
X582677Y314567D02*
Y315354D01*
X550787Y330709D02*
X551575D01*
X551181Y330315D02*
Y331102D01*
X582283Y330709D02*
X583071D01*
X582677Y330315D02*
Y331102D01*
X528201Y335490D02*
X528988D01*
X528594Y335096D02*
Y335884D01*
X535039Y346457D02*
X535827D01*
X535433Y346063D02*
Y346850D01*
X550787Y346457D02*
X551575D01*
X551181Y346063D02*
Y346850D01*
X550787Y362205D02*
X551575D01*
X551181Y361811D02*
Y362598D01*
X517078Y413619D02*
X517866D01*
X517472Y413226D02*
Y414013D01*
X520606Y396355D02*
X521394D01*
X521000Y395961D02*
Y396749D01*
X519291Y409449D02*
X520079D01*
X519685Y409055D02*
Y409842D01*
X522106Y362240D02*
X522894D01*
X522500Y361846D02*
Y362634D01*
X535039Y362205D02*
X535827D01*
X535433Y361811D02*
Y362598D01*
X566535Y362205D02*
X567323D01*
X566929Y361811D02*
Y362598D01*
X582283Y362205D02*
X583071D01*
X582677Y361811D02*
Y362598D01*
X550787Y377953D02*
X551575D01*
X551181Y377559D02*
Y378346D01*
X582283Y377953D02*
X583071D01*
X582677Y377559D02*
Y378346D01*
X564106Y388500D02*
X564894D01*
X564500Y388106D02*
Y388894D01*
X569106Y389000D02*
X569894D01*
X569500Y388606D02*
Y389394D01*
X582283Y393701D02*
X583071D01*
X582677Y393307D02*
Y394094D01*
X567606Y403000D02*
X568394D01*
X568000Y402606D02*
Y403394D01*
X566606Y424000D02*
X567394D01*
X567000Y423606D02*
Y424394D01*
X472578Y432119D02*
X473366D01*
X472972Y431726D02*
Y432513D01*
X480078Y431619D02*
X480866D01*
X480472Y431226D02*
Y432013D01*
X471078Y439619D02*
X471866D01*
X471472Y439226D02*
Y440013D01*
X479578Y466619D02*
X480366D01*
X479972Y466226D02*
Y467013D01*
X479933Y452918D02*
X480720D01*
X480326Y452525D02*
Y453312D01*
X495078Y430619D02*
X495866D01*
X495472Y430226D02*
Y431013D01*
X488645Y439281D02*
X489433D01*
X489039Y438888D02*
Y439675D01*
X498078Y430619D02*
X498866D01*
X498472Y430226D02*
Y431013D01*
X500578Y430619D02*
X501366D01*
X500972Y430226D02*
Y431013D01*
X486683Y456224D02*
X487470D01*
X487076Y455830D02*
Y456617D01*
X489578Y445119D02*
X490366D01*
X489972Y444726D02*
Y445513D01*
X479169Y477119D02*
X479956D01*
X479563Y476725D02*
Y477513D01*
X478606Y481000D02*
X479394D01*
X479000Y480606D02*
Y481394D01*
X481144Y484071D02*
X481931D01*
X481537Y483677D02*
Y484465D01*
X493387Y489166D02*
X494174D01*
X493781Y488772D02*
Y489560D01*
X494169Y482619D02*
X494956D01*
X494562Y482226D02*
Y483013D01*
X499669Y483119D02*
X500456D01*
X500063Y482725D02*
Y483513D01*
X494669Y486119D02*
X495456D01*
X495062Y485726D02*
Y486513D01*
X499669Y486619D02*
X500456D01*
X500063Y486226D02*
Y487013D01*
X499669Y490119D02*
X500456D01*
X500063Y489725D02*
Y490513D01*
X504513Y431619D02*
X505301D01*
X504907Y431226D02*
Y432013D01*
X512228Y430678D02*
X513015D01*
X512621Y430285D02*
Y431072D01*
X503078Y438619D02*
X503866D01*
X503472Y438226D02*
Y439013D01*
X503543Y440945D02*
X504331D01*
X503937Y440551D02*
Y441338D01*
X532578Y430619D02*
X533366D01*
X532972Y430226D02*
Y431013D01*
X530078Y430619D02*
X530866D01*
X530472Y430226D02*
Y431013D01*
X521578Y444119D02*
X522366D01*
X521972Y443726D02*
Y444513D01*
X521599Y439549D02*
X522386D01*
X521993Y439156D02*
Y439943D01*
X550787Y440945D02*
X551575D01*
X551181Y440551D02*
Y441338D01*
X535039Y440945D02*
X535827D01*
X535433Y440551D02*
Y441338D01*
X512169Y465619D02*
X512956D01*
X512563Y465226D02*
Y466013D01*
X512169Y452119D02*
X512956D01*
X512563Y451725D02*
Y452513D01*
X504169Y482619D02*
X504956D01*
X504563Y482226D02*
Y483013D01*
X503948Y485600D02*
X504735D01*
X504342Y485206D02*
Y485993D01*
X504951Y489166D02*
X505738D01*
X505344Y488772D02*
Y489560D01*
X514954Y485640D02*
X515742D01*
X515348Y485246D02*
Y486034D01*
X518669Y485627D02*
X519456D01*
X519063Y485233D02*
Y486021D01*
X521169Y457619D02*
X521956D01*
X521562Y457226D02*
Y458013D01*
X535039Y456693D02*
X535827D01*
X535433Y456299D02*
Y457087D01*
X570106Y460000D02*
X570894D01*
X570500Y459606D02*
Y460394D01*
X524669Y473988D02*
X525456D01*
X525063Y473595D02*
Y474382D01*
X526169Y476119D02*
X526956D01*
X526562Y475726D02*
Y476513D01*
X563106Y494000D02*
X563894D01*
X563500Y493606D02*
Y494394D01*
X396689Y415177D02*
X397476D01*
X397082Y414783D02*
Y415571D01*
X396777Y419064D02*
X397565D01*
X397171Y418671D02*
Y419458D01*
X310404Y419516D02*
X311192D01*
X310798Y419122D02*
Y419910D01*
X310669Y415486D02*
X311457D01*
X311063Y415093D02*
Y415880D01*
X224656Y419258D02*
X225443D01*
X225050Y418865D02*
Y419652D01*
X224888Y415670D02*
X225676D01*
X225282Y415276D02*
Y416063D01*
X415106Y491000D02*
X415894D01*
X415500Y490606D02*
Y491394D01*
X430044Y441794D02*
X430832D01*
X430438Y441401D02*
Y442188D01*
X436012Y467866D02*
X436799D01*
X436406Y467473D02*
Y468260D01*
X435106Y441500D02*
X435894D01*
X435500Y441106D02*
Y441894D01*
X434857Y477000D02*
X435645D01*
X435251Y476606D02*
Y477394D01*
X264106Y429000D02*
X264894D01*
X264500Y428606D02*
Y429394D01*
X350606Y420500D02*
X351394D01*
X351000Y420106D02*
Y420894D01*
X342246Y422273D02*
X343033D01*
X342640Y421879D02*
Y422667D01*
X366520Y427906D02*
X367307D01*
X366913Y427512D02*
Y428299D01*
X246606Y415215D02*
X247394D01*
X247000Y414822D02*
Y415609D01*
X330840Y419552D02*
X331627D01*
X331233Y419159D02*
Y419946D01*
X415606Y413500D02*
X416394D01*
X416000Y413106D02*
Y413894D01*
X218106Y455500D02*
X218894D01*
X218500Y455106D02*
Y455894D01*
X389606Y455500D02*
X390394D01*
X390000Y455106D02*
Y455894D01*
X391365Y463512D02*
X392152D01*
X391758Y463118D02*
Y463905D01*
X305865Y464291D02*
X306652D01*
X306259Y463897D02*
Y464684D01*
X245473Y470475D02*
X246260D01*
X245866Y470081D02*
Y470868D01*
X241496Y470475D02*
X242284D01*
X241890Y470081D02*
Y470868D01*
X329090Y470864D02*
X329878D01*
X329484Y470471D02*
Y471258D01*
X413634Y470365D02*
X414421D01*
X414028Y469971D02*
Y470758D01*
X257606Y443000D02*
X258394D01*
X258000Y442606D02*
Y443394D01*
X416106Y450772D02*
X416894D01*
X416500Y450378D02*
Y451165D01*
X327606Y452000D02*
X328394D01*
X328000Y451606D02*
Y452394D01*
X235583Y444500D02*
X236370D01*
X235976Y444106D02*
Y444894D01*
X241606Y451500D02*
X242394D01*
X242000Y451106D02*
Y451894D01*
X244106Y450000D02*
X244894D01*
X244500Y449606D02*
Y450394D01*
X232195Y451129D02*
X232983D01*
X232589Y450735D02*
Y451522D01*
X330580Y450772D02*
X331368D01*
X330974Y450379D02*
Y451166D01*
X414765Y416512D02*
X415552D01*
X415159Y416118D02*
Y416905D01*
X423190Y414772D02*
X423977D01*
X423583Y414378D02*
Y415165D01*
X417606Y418500D02*
X418394D01*
X418000Y418106D02*
Y418894D01*
X244106Y413000D02*
X244894D01*
X244500Y412606D02*
Y413394D01*
X257315Y411143D02*
X258103D01*
X257709Y410749D02*
Y411536D01*
X246606Y411239D02*
X247394D01*
X247000Y410846D02*
Y411633D01*
X332106Y423500D02*
X332894D01*
X332500Y423106D02*
Y423894D01*
X435106Y449000D02*
X435894D01*
X435500Y448606D02*
Y449394D01*
X440324Y458607D02*
X441111D01*
X440718Y458214D02*
Y459001D01*
X437429Y463000D02*
X438216D01*
X437823Y462606D02*
Y463394D01*
X439988Y468634D02*
X440776D01*
X440382Y468240D02*
Y469027D01*
X497621Y497823D02*
X498409D01*
X498015Y497429D02*
Y498216D01*
X505669Y497520D02*
X506456D01*
X506063Y497126D02*
Y497914D01*
X495621Y497520D02*
X496409D01*
X496015Y497126D02*
Y497914D01*
X411022Y490336D02*
X411809D01*
X411416Y489943D02*
Y490730D01*
X491621Y497286D02*
X492409D01*
X492015Y496892D02*
Y497679D01*
X501669Y497286D02*
X502456D01*
X502063Y496892D02*
Y497679D01*
X503669Y497286D02*
X504456D01*
X504063Y496892D02*
Y497679D01*
X493621Y497286D02*
X494409D01*
X494015Y496892D02*
Y497679D01*
X389956Y292140D02*
X390743D01*
X390350Y291746D02*
Y292534D01*
X389838Y287417D02*
X390626D01*
X390232Y287023D02*
Y287811D01*
X389694Y296620D02*
X390482D01*
X390088Y296226D02*
Y297014D01*
X391695Y297359D02*
X392483D01*
X392089Y296965D02*
Y297753D01*
X390264Y294218D02*
X391051D01*
X390657Y293825D02*
Y294612D01*
X385256Y291337D02*
X386043D01*
X385650Y290943D02*
Y291731D01*
X389717Y285500D02*
X390504D01*
X390110Y285106D02*
Y285894D01*
X425106Y277500D02*
X425894D01*
X425500Y277106D02*
Y277894D01*
X432094Y281691D02*
X432882D01*
X432488Y281297D02*
Y282084D01*
X437799Y276815D02*
X438586D01*
X438192Y276421D02*
Y277208D01*
X430106Y294000D02*
X430894D01*
X430500Y293606D02*
Y294394D01*
X462431Y281675D02*
X463219D01*
X462825Y281281D02*
Y282069D01*
X413606Y238090D02*
X414394D01*
X414000Y237697D02*
Y238484D01*
X413164Y243629D02*
X413951D01*
X413558Y243236D02*
Y244023D01*
X413612Y240894D02*
X414399D01*
X414005Y240500D02*
Y241288D01*
X432606Y322500D02*
X433394D01*
X433000Y322106D02*
Y322894D01*
X424112Y329306D02*
X424899D01*
X424505Y328913D02*
Y329700D01*
X424106Y326500D02*
X424894D01*
X424500Y326106D02*
Y326894D01*
X423664Y332042D02*
X424451D01*
X424057Y331648D02*
Y332435D01*
X417574Y353737D02*
X418361D01*
X417968Y353343D02*
Y354131D01*
X435496Y374910D02*
X436283D01*
X435889Y374516D02*
Y375304D01*
X438237Y373493D02*
X439024D01*
X438630Y373099D02*
Y373886D01*
X421156Y376130D02*
X421944D01*
X421550Y375736D02*
Y376524D01*
X426606Y378528D02*
X427394D01*
X427000Y378134D02*
Y378921D01*
X266606Y373500D02*
X267394D01*
X267000Y373106D02*
Y373894D01*
X286606Y371500D02*
X287394D01*
X287000Y371106D02*
Y371894D01*
X306693Y354331D02*
X307481D01*
X307087Y353937D02*
Y354725D01*
X290945Y370079D02*
X291732D01*
X291339Y369685D02*
Y370473D01*
X298819Y362205D02*
X299606D01*
X299213Y361811D02*
Y362599D01*
X289606Y381500D02*
X290394D01*
X290000Y381106D02*
Y381894D01*
X281547Y367260D02*
X282335D01*
X281941Y366866D02*
Y367653D01*
X391567Y183637D02*
X392354D01*
X391961Y183243D02*
Y184031D01*
X402606Y332000D02*
X403394D01*
X403000Y331606D02*
Y332394D01*
X233524Y362008D02*
X234312D01*
X233918Y361614D02*
Y362401D01*
X464106Y388000D02*
X464894D01*
X464500Y387606D02*
Y388394D01*
X429860Y384892D02*
X430647D01*
X430253Y384498D02*
Y385286D01*
X426921Y385339D02*
X427708D01*
X427315Y384945D02*
Y385732D01*
X445106Y355500D02*
X445894D01*
X445500Y355106D02*
Y355894D01*
X561917Y224689D02*
X562705D01*
X562311Y224295D02*
Y225083D01*
X562965Y226189D02*
X563752D01*
X563358Y225795D02*
Y226583D01*
X564606Y426000D02*
X565394D01*
X565000Y425606D02*
Y426394D01*
X347106Y385500D02*
X347894D01*
X347500Y385106D02*
Y385894D01*
X339211Y270057D02*
X339999D01*
X339605Y269663D02*
Y270450D01*
X335274Y270057D02*
X336062D01*
X335668Y269663D02*
Y270450D01*
X339211Y273994D02*
X339999D01*
X339605Y273600D02*
Y274387D01*
X335274Y273994D02*
X336062D01*
X335668Y273600D02*
Y274387D01*
X339211Y277931D02*
X339999D01*
X339605Y277537D02*
Y278324D01*
X335274Y277931D02*
X336062D01*
X335668Y277537D02*
Y278324D01*
X243711Y275557D02*
X244499D01*
X244105Y275163D02*
Y275950D01*
X239774Y275557D02*
X240562D01*
X240168Y275163D02*
Y275950D01*
X243711Y279494D02*
X244499D01*
X244105Y279100D02*
Y279887D01*
X239774Y279494D02*
X240562D01*
X240168Y279100D02*
Y279887D01*
X243711Y283431D02*
X244499D01*
X244105Y283037D02*
Y283824D01*
X239774Y283431D02*
X240562D01*
X240168Y283037D02*
Y283824D01*
X487795Y165354D02*
X488583D01*
X488189Y164961D02*
Y165748D01*
X479921Y228347D02*
X480709D01*
X480315Y227953D02*
Y228740D01*
X479921Y165354D02*
X480709D01*
X480315Y164961D02*
Y165748D01*
X479921Y149606D02*
X480709D01*
X480315Y149213D02*
Y150000D01*
X479921Y141732D02*
X480709D01*
X480315Y141339D02*
Y142126D01*
X472048Y377953D02*
X472835D01*
X472441Y377559D02*
Y378347D01*
X472048Y149606D02*
X472835D01*
X472441Y149213D02*
Y150000D01*
X472048Y141732D02*
X472835D01*
X472441Y141339D02*
Y142126D01*
X472048Y133858D02*
X472835D01*
X472441Y133465D02*
Y134252D01*
X464174Y362205D02*
X464961D01*
X464567Y361811D02*
Y362599D01*
X464174Y141732D02*
X464961D01*
X464567Y141339D02*
Y142126D01*
X456299Y322835D02*
X457087D01*
X456693Y322441D02*
Y323229D01*
X456299Y149606D02*
X457087D01*
X456693Y149213D02*
Y150000D01*
X456299Y141732D02*
X457087D01*
X456693Y141339D02*
Y142126D01*
X456299Y133858D02*
X457087D01*
X456693Y133465D02*
Y134252D01*
X448425Y181103D02*
X449213D01*
X448819Y180709D02*
Y181496D01*
X440551Y244095D02*
X441339D01*
X440945Y243701D02*
Y244488D01*
X440551Y149606D02*
X441339D01*
X440945Y149213D02*
Y150000D01*
X440551Y141732D02*
X441339D01*
X440945Y141339D02*
Y142126D01*
X440551Y133858D02*
X441339D01*
X440945Y133465D02*
Y134252D01*
X424803Y157480D02*
X425591D01*
X425197Y157087D02*
Y157874D01*
X424803Y149606D02*
X425591D01*
X425197Y149213D02*
Y150000D01*
X416929Y157480D02*
X417717D01*
X417323Y157087D02*
Y157874D01*
X416929Y149606D02*
X417717D01*
X417323Y149213D02*
Y150000D01*
X409055Y362205D02*
X409843D01*
X409449Y361811D02*
Y362599D01*
X409055Y157480D02*
X409843D01*
X409449Y157087D02*
Y157874D01*
X401181Y314961D02*
X401969D01*
X401575Y314567D02*
Y315354D01*
X393307Y307087D02*
X394095D01*
X393701Y306693D02*
Y307481D01*
X393307Y267717D02*
X394095D01*
X393701Y267323D02*
Y268110D01*
X393307Y259843D02*
X394095D01*
X393701Y259449D02*
Y260236D01*
X393307Y212598D02*
X394095D01*
X393701Y212205D02*
Y212992D01*
X393307Y196851D02*
X394095D01*
X393701Y196457D02*
Y197244D01*
X385433Y307087D02*
X386221D01*
X385827Y306693D02*
Y307481D01*
X385433Y299213D02*
X386221D01*
X385827Y298819D02*
Y299606D01*
X385433Y283465D02*
X386221D01*
X385827Y283071D02*
Y283858D01*
X385433Y275591D02*
X386221D01*
X385827Y275197D02*
Y275984D01*
X385433Y204725D02*
X386221D01*
X385827Y204331D02*
Y205118D01*
X377559Y307087D02*
X378347D01*
X377953Y306693D02*
Y307481D01*
X338189Y362205D02*
X338977D01*
X338583Y361811D02*
Y362599D01*
X330315Y362205D02*
X331102D01*
X330709Y361811D02*
Y362599D01*
X322441Y362205D02*
X323229D01*
X322835Y361811D02*
Y362599D01*
X314567Y362205D02*
X315354D01*
X314961Y361811D02*
Y362599D01*
X314567Y354331D02*
X315354D01*
X314961Y353937D02*
Y354725D01*
X314567Y330709D02*
X315354D01*
X314961Y330315D02*
Y331102D01*
X290945Y354331D02*
X291732D01*
X291339Y353937D02*
Y354725D01*
X290945Y346457D02*
X291732D01*
X291339Y346063D02*
Y346851D01*
X290945Y338583D02*
X291732D01*
X291339Y338189D02*
Y338977D01*
X290945Y330709D02*
X291732D01*
X291339Y330315D02*
Y331102D01*
X259449Y370079D02*
X260236D01*
X259843Y369685D02*
Y370473D01*
X259449Y322835D02*
X260236D01*
X259843Y322441D02*
Y323229D01*
X251575Y322835D02*
X252362D01*
X251969Y322441D02*
Y323229D01*
X243701Y330709D02*
X244488D01*
X244095Y330315D02*
Y331102D01*
X243701Y322835D02*
X244488D01*
X244095Y322441D02*
Y323229D01*
X243701Y314961D02*
X244488D01*
X244095Y314567D02*
Y315354D01*
X417106Y371965D02*
X417894D01*
X417500Y371571D02*
Y372358D01*
X414417Y374000D02*
X415205D01*
X414811Y373606D02*
Y374394D01*
X409106Y375500D02*
X409894D01*
X409500Y375106D02*
Y375894D01*
X411833Y375000D02*
X412620D01*
X412226Y374606D02*
Y375394D01*
X417863Y375941D02*
X418651D01*
X418257Y375547D02*
Y376335D01*
X423119Y304998D02*
X423907D01*
X423513Y304605D02*
Y305392D01*
X413338Y298523D02*
X414125D01*
X413731Y298129D02*
Y298917D01*
X423262Y297217D02*
X424049D01*
X423656Y296823D02*
Y297610D01*
X436630Y385981D02*
X437417D01*
X437024Y385587D02*
Y386374D01*
X438646Y392649D02*
X439433D01*
X439039Y392255D02*
Y393043D01*
X444719Y394203D02*
X445506D01*
X445113Y393810D02*
Y394597D01*
X434701Y392743D02*
X435488D01*
X435094Y392350D02*
Y393137D01*
X402812Y375500D02*
X403600D01*
X403206Y375106D02*
Y375894D01*
X405521Y374915D02*
X406309D01*
X405915Y374521D02*
Y375309D01*
X400606Y377488D02*
X401394D01*
X401000Y377095D02*
Y377882D01*
X433012Y338500D02*
X433799D01*
X433405Y338106D02*
Y338894D01*
X429670Y360064D02*
X430458D01*
X430064Y359670D02*
Y360458D01*
X387606Y376000D02*
X388394D01*
X388000Y375606D02*
Y376394D01*
X381106Y384500D02*
X381894D01*
X381500Y384106D02*
Y384894D01*
X374618Y404017D02*
X375406D01*
X375012Y403623D02*
Y404410D01*
X374588Y401245D02*
X375375D01*
X374981Y400851D02*
Y401639D01*
X366520Y418138D02*
X367307D01*
X366913Y417744D02*
Y418531D01*
X375969Y414862D02*
X376756D01*
X376362Y414469D02*
Y415256D01*
X403606Y369500D02*
X404394D01*
X404000Y369106D02*
Y369894D01*
X389606Y393000D02*
X390394D01*
X390000Y392606D02*
Y393394D01*
X382606Y370000D02*
X383394D01*
X383000Y369606D02*
Y370394D01*
X410569Y298402D02*
X411356D01*
X410962Y298008D02*
Y298795D01*
X409846Y283348D02*
X410634D01*
X410240Y282954D02*
Y283742D01*
X410802Y287434D02*
X411589D01*
X411196Y287040D02*
Y287827D01*
X399934Y277505D02*
X400721D01*
X400327Y277111D02*
Y277899D01*
X411221Y290173D02*
X412009D01*
X411615Y289780D02*
Y290567D01*
X418834Y423456D02*
X419622D01*
X419228Y423062D02*
Y423850D01*
X432267Y410024D02*
X433054D01*
X432660Y409630D02*
Y410417D01*
X419809Y430539D02*
X420597D01*
X420203Y430146D02*
Y430933D01*
X452581Y399134D02*
X453368D01*
X452975Y398740D02*
Y399527D01*
X453746Y396619D02*
X454534D01*
X454140Y396225D02*
Y397013D01*
X463880Y378512D02*
X464668D01*
X464274Y378118D02*
Y378906D01*
X466606Y380500D02*
X467394D01*
X467000Y380106D02*
Y380894D01*
X349141Y393226D02*
X349929D01*
X349535Y392832D02*
Y393620D01*
X358562Y394856D02*
X359350D01*
X358956Y394462D02*
Y395250D01*
X351807Y393983D02*
X352595D01*
X352201Y393589D02*
Y394376D01*
X457178Y370642D02*
X457965D01*
X457571Y370248D02*
Y371035D01*
X335898Y416020D02*
X336685D01*
X336292Y415626D02*
Y416414D01*
X465106Y394500D02*
X465894D01*
X465500Y394106D02*
Y394894D01*
X463443Y396717D02*
X464231D01*
X463837Y396324D02*
Y397111D01*
X470595Y412108D02*
X471382D01*
X470988Y411714D02*
Y412502D01*
X434913Y398539D02*
X435701D01*
X435307Y398146D02*
Y398933D01*
X447116Y420433D02*
X447903D01*
X447510Y420039D02*
Y420827D01*
X451653Y418000D02*
X452441D01*
X452047Y417606D02*
Y418394D01*
X451717Y420799D02*
X452504D01*
X452110Y420405D02*
Y421193D01*
X448148Y417464D02*
X448935D01*
X448542Y417070D02*
Y417858D01*
X460463Y400381D02*
X461251D01*
X460857Y399988D02*
Y400775D01*
X461004Y403100D02*
X461792D01*
X461398Y402706D02*
Y403493D01*
X471606Y394500D02*
X472394D01*
X472000Y394106D02*
Y394894D01*
X471606Y398500D02*
X472394D01*
X472000Y398106D02*
Y398894D01*
X477095Y397875D02*
X477882D01*
X477488Y397481D02*
Y398269D01*
X459335Y372500D02*
X460122D01*
X459728Y372106D02*
Y372894D01*
X385845Y413476D02*
X386632D01*
X386238Y413083D02*
Y413870D01*
X384604Y410998D02*
X385391D01*
X384998Y410604D02*
Y411391D01*
X381915Y410328D02*
X382702D01*
X382308Y409934D02*
Y410721D01*
X334247Y430675D02*
X335035D01*
X334641Y430281D02*
Y431069D01*
X337306Y430468D02*
X338093D01*
X337699Y430075D02*
Y430862D01*
X330857Y435081D02*
X331644D01*
X331250Y434687D02*
Y435475D01*
X364004Y409194D02*
X364791D01*
X364397Y408800D02*
Y409588D01*
X366134Y411000D02*
X366921D01*
X366528Y410606D02*
Y411394D01*
X366520Y421500D02*
X367307D01*
X366913Y421106D02*
Y421894D01*
X536088Y313134D02*
X536875D01*
X536482Y312740D02*
Y313528D01*
X536075Y315206D02*
X536863D01*
X536469Y314812D02*
Y315599D01*
X536152Y317252D02*
X536939D01*
X536545Y316858D02*
Y317646D01*
X536024Y311062D02*
X536812D01*
X536418Y310669D02*
Y311456D01*
X436649Y353060D02*
X437437D01*
X437043Y352667D02*
Y353454D01*
X436689Y346769D02*
X437476D01*
X437083Y346375D02*
Y347162D01*
X432720Y330926D02*
X433507D01*
X433113Y330532D02*
Y331320D01*
X325106Y275500D02*
X325894D01*
X325500Y275106D02*
Y275894D01*
X463106Y158000D02*
X463894D01*
X463500Y157606D02*
Y158394D01*
X325326Y279248D02*
X326114D01*
X325720Y278854D02*
Y279642D01*
X392606Y239500D02*
X393394D01*
X393000Y239106D02*
Y239894D01*
X344496Y439000D02*
X345283D01*
X344889Y438606D02*
Y439394D01*
X333175Y458567D02*
X333963D01*
X333569Y458174D02*
Y458961D01*
X492248Y286000D02*
X493035D01*
X492642Y285606D02*
Y286394D01*
X492445Y282363D02*
X493232D01*
X492839Y281969D02*
Y282757D01*
X492262Y288723D02*
X493049D01*
X492656Y288330D02*
Y289117D01*
X481169Y490009D02*
X481956D01*
X481563Y489615D02*
Y490403D01*
X485169Y490009D02*
X485956D01*
X485563Y489615D02*
Y490403D01*
X514669Y492009D02*
X515456D01*
X515063Y491615D02*
Y492403D01*
X518669Y492009D02*
X519456D01*
X519063Y491615D02*
Y492403D01*
X202794Y416426D02*
X203581D01*
X203188Y416032D02*
Y416819D01*
X475106Y338000D02*
X475894D01*
X475500Y337606D02*
Y338394D01*
X477106Y303000D02*
X477894D01*
X477500Y302606D02*
Y303394D01*
X500106Y351500D02*
X500894D01*
X500500Y351106D02*
Y351894D01*
X464410Y249410D02*
X465197D01*
X464804Y249016D02*
Y249804D01*
X459262Y218436D02*
X460050D01*
X459656Y218042D02*
Y218829D01*
X488289Y246716D02*
X489077D01*
X488683Y246322D02*
Y247110D01*
X422016Y250590D02*
X422803D01*
X422409Y250197D02*
Y250984D01*
X392106Y237500D02*
X392894D01*
X392500Y237106D02*
Y237894D01*
X396378Y398000D02*
X397165D01*
X396772Y397606D02*
Y398394D01*
X393606Y398000D02*
X394394D01*
X394000Y397606D02*
Y398394D01*
X452929Y342190D02*
X453717D01*
X453323Y341796D02*
Y342584D01*
X440961Y325500D02*
X441748D01*
X441354Y325106D02*
Y325894D01*
X451106Y318500D02*
X451894D01*
X451500Y318106D02*
Y318894D01*
X451618Y301000D02*
X452406D01*
X452012Y300606D02*
Y301394D01*
X458098Y347369D02*
X458886D01*
X458492Y346975D02*
Y347762D01*
X394217Y408782D02*
X395005D01*
X394611Y408389D02*
Y409176D01*
X406606Y404806D02*
X407394D01*
X407000Y404412D02*
Y405199D01*
X389106Y408782D02*
X389894D01*
X389500Y408389D02*
Y409176D01*
X351059Y386413D02*
X351847D01*
X351453Y386020D02*
Y386807D01*
X357573Y385397D02*
X358360D01*
X357967Y385003D02*
Y385791D01*
X354994Y386413D02*
X355782D01*
X355388Y386020D02*
Y386807D01*
X464039Y189702D02*
X464827D01*
X464433Y189308D02*
Y190096D01*
X446913Y229749D02*
X447701D01*
X447307Y229355D02*
Y230143D01*
X392106Y245590D02*
X392894D01*
X392500Y245197D02*
Y245984D01*
X434412Y257502D02*
X435200D01*
X434806Y257108D02*
Y257895D01*
X438012Y273124D02*
X438799D01*
X438406Y272730D02*
Y273517D01*
X430606Y264205D02*
X431394D01*
X431000Y263812D02*
Y264599D01*
X430606Y236754D02*
X431393D01*
X430999Y236361D02*
Y237148D01*
X419197Y166909D02*
X419984D01*
X419591Y166516D02*
Y167303D01*
X426106Y224000D02*
X426894D01*
X426500Y223606D02*
Y224394D01*
X391996Y249701D02*
X392783D01*
X392389Y249307D02*
Y250095D01*
X392154Y235543D02*
X392941D01*
X392547Y235150D02*
Y235937D01*
X392154Y233543D02*
X392941D01*
X392547Y233150D02*
Y233937D01*
X410366Y250142D02*
X411154D01*
X410760Y249748D02*
Y250536D01*
X369106Y370000D02*
X369894D01*
X369500Y369606D02*
Y370394D01*
X423106Y412000D02*
X423894D01*
X423500Y411606D02*
Y412394D01*
X474324Y397956D02*
X475111D01*
X474718Y397563D02*
Y398350D01*
X460217Y413000D02*
X461004D01*
X460610Y412606D02*
Y413394D01*
X413218Y174727D02*
X414005D01*
X413612Y174333D02*
Y175121D01*
X412757Y184039D02*
X413544D01*
X413150Y183645D02*
Y184432D01*
X440784Y162119D02*
X441572D01*
X441178Y161726D02*
Y162513D01*
X429606Y158500D02*
X430394D01*
X430000Y158106D02*
Y158894D01*
X446116Y167493D02*
X446903D01*
X446509Y167099D02*
Y167886D01*
X437606Y154500D02*
X438394D01*
X438000Y154106D02*
Y154894D01*
X531912Y371507D02*
X532699D01*
X532305Y371113D02*
Y371900D01*
X328106Y169000D02*
X328894D01*
X328500Y168606D02*
Y169394D01*
X377559Y141732D02*
X378346D01*
X377953Y141339D02*
Y142126D01*
X353937Y141732D02*
X354724D01*
X354331Y141339D02*
Y142126D01*
X353937Y118110D02*
X354724D01*
X354331Y117717D02*
Y118504D01*
X342126Y118110D02*
X342913D01*
X342520Y117717D02*
Y118504D01*
X330315Y129921D02*
X331102D01*
X330709Y129527D02*
Y130315D01*
X318504Y141732D02*
X319291D01*
X318898Y141339D02*
Y142126D01*
X353606Y126000D02*
X354394D01*
X354000Y125606D02*
Y126394D01*
X343106Y126000D02*
X343894D01*
X343500Y125606D02*
Y126394D01*
X348106Y126000D02*
X348894D01*
X348500Y125606D02*
Y126394D01*
X338106Y126000D02*
X338894D01*
X338500Y125606D02*
Y126394D01*
X327606Y126000D02*
X328394D01*
X328000Y125606D02*
Y126394D01*
X332606Y126000D02*
X333394D01*
X333000Y125606D02*
Y126394D01*
X389106Y155000D02*
X389894D01*
X389500Y154606D02*
Y155394D01*
X378606Y155000D02*
X379394D01*
X379000Y154606D02*
Y155394D01*
X383606Y155000D02*
X384394D01*
X384000Y154606D02*
Y155394D01*
X389106Y135000D02*
X389894D01*
X389500Y134606D02*
Y135394D01*
X389106Y145500D02*
X389894D01*
X389500Y145106D02*
Y145894D01*
X389106Y140500D02*
X389894D01*
X389500Y140106D02*
Y140894D01*
X366106Y130500D02*
X366894D01*
X366500Y130106D02*
Y130894D01*
X376606Y130500D02*
X377394D01*
X377000Y130106D02*
Y130894D01*
X371606Y130500D02*
X372394D01*
X372000Y130106D02*
Y130894D01*
X349106Y131000D02*
X349894D01*
X349500Y130606D02*
Y131394D01*
X359606Y131000D02*
X360394D01*
X360000Y130606D02*
Y131394D01*
X354606Y131000D02*
X355394D01*
X355000Y130606D02*
Y131394D01*
X332606Y131500D02*
X333394D01*
X333000Y131106D02*
Y131894D01*
X343106Y131500D02*
X343894D01*
X343500Y131106D02*
Y131894D01*
X338106Y131500D02*
X338894D01*
X338500Y131106D02*
Y131894D01*
X316606Y131500D02*
X317394D01*
X317000Y131106D02*
Y131894D01*
X327106Y131500D02*
X327894D01*
X327500Y131106D02*
Y131894D01*
X322106Y131500D02*
X322894D01*
X322500Y131106D02*
Y131894D01*
X328106Y178000D02*
X328894D01*
X328500Y177606D02*
Y178394D01*
X328106Y172500D02*
X328894D01*
X328500Y172106D02*
Y172894D01*
X325106Y149000D02*
X325894D01*
X325500Y148606D02*
Y149394D01*
X335000Y168990D02*
X335788D01*
X335394Y168596D02*
Y169384D01*
X335000Y175490D02*
X335788D01*
X335394Y175096D02*
Y175883D01*
X335000Y171990D02*
X335788D01*
X335394Y171596D02*
Y172383D01*
X331000Y169490D02*
X331787D01*
X331394Y169096D02*
Y169884D01*
X331000Y172490D02*
X331787D01*
X331394Y172096D02*
Y172883D01*
X331000Y175490D02*
X331787D01*
X331394Y175096D02*
Y175883D01*
X389000Y149990D02*
X389788D01*
X389394Y149596D02*
Y150383D01*
X392106Y247590D02*
X392894D01*
X392500Y247197D02*
Y247984D01*
X362353Y332980D02*
X363140D01*
X362747Y332586D02*
Y333373D01*
X484826Y429151D02*
X485613D01*
X485220Y428758D02*
Y429545D01*
X239022Y490191D02*
X239809D01*
X239416Y489797D02*
Y490585D01*
X236106Y432000D02*
X236894D01*
X236500Y431606D02*
Y432394D01*
X330604Y414144D02*
X331391D01*
X330997Y413750D02*
Y414537D01*
X416467Y434902D02*
X417254D01*
X416861Y434508D02*
Y435295D01*
X434913Y395768D02*
X435701D01*
X435307Y395374D02*
Y396162D01*
X440606Y385981D02*
X441394D01*
X441000Y385587D02*
Y386374D01*
X447598Y259142D02*
X448386D01*
X447992Y258748D02*
Y259535D01*
X444021Y309258D02*
X444809D01*
X444415Y308864D02*
Y309652D01*
X252606Y163000D02*
X253394D01*
X253000Y162606D02*
Y163394D01*
X327156Y155130D02*
X327944D01*
X327550Y154736D02*
Y155524D01*
X420606Y338512D02*
X421394D01*
X421000Y338118D02*
Y338906D01*
X258060Y438600D02*
X258848D01*
X258454Y438207D02*
Y438994D01*
X246590Y165472D02*
X247378D01*
X246984Y165078D02*
Y165866D01*
X432944Y220329D02*
X433732D01*
X433338Y219935D02*
Y220723D01*
X390892Y178961D02*
X391679D01*
X391286Y178567D02*
Y179355D01*
X392106Y177000D02*
X392894D01*
X392500Y176606D02*
Y177394D01*
X392606Y175000D02*
X393394D01*
X393000Y174606D02*
Y175394D01*
X392972Y172828D02*
X393760D01*
X393366Y172434D02*
Y173221D01*
X474106Y436500D02*
X474894D01*
X474500Y436106D02*
Y436894D01*
X519606Y448000D02*
X520394D01*
X520000Y447606D02*
Y448394D01*
X371097Y357683D02*
X371885D01*
X371491Y357290D02*
Y358077D01*
X418790Y392905D02*
X419577D01*
X419184Y392512D02*
Y393299D01*
X421490Y393532D02*
X422277D01*
X421883Y393138D02*
Y393926D01*
X347106Y413000D02*
X347894D01*
X347500Y412606D02*
Y413394D01*
X344118Y411413D02*
X344905D01*
X344512Y411019D02*
Y411807D01*
X330654Y411372D02*
X331441D01*
X331048Y410979D02*
Y411766D01*
X337201Y153383D02*
X337988D01*
X337594Y152989D02*
Y153777D01*
X334431Y153496D02*
X335219D01*
X334825Y153102D02*
Y153890D01*
X244357Y434861D02*
X245144D01*
X244750Y434467D02*
Y435254D01*
X280110Y401988D02*
X280898D01*
X280504Y401594D02*
Y402382D01*
X280647Y396478D02*
X281434D01*
X281040Y396084D02*
Y396871D01*
X261606Y404512D02*
X262394D01*
X262000Y404118D02*
Y404906D01*
X202606Y439000D02*
X203394D01*
X203000Y438606D02*
Y439394D01*
X254095Y426522D02*
X254882D01*
X254488Y426128D02*
Y426916D01*
X250122Y424957D02*
X250909D01*
X250516Y424563D02*
Y425351D01*
X249059Y419560D02*
X249846D01*
X249452Y419166D02*
Y419954D01*
X253606Y423500D02*
X254394D01*
X254000Y423106D02*
Y423894D01*
X280054Y420977D02*
X280841D01*
X280447Y420583D02*
Y421370D01*
X268106Y441000D02*
X268894D01*
X268500Y440606D02*
Y441394D01*
X247072Y421493D02*
X247859D01*
X247466Y421099D02*
Y421886D01*
X245198Y423534D02*
X245985D01*
X245591Y423141D02*
Y423928D01*
X260515Y412949D02*
X261303D01*
X260909Y412555D02*
Y413343D01*
X241461Y427278D02*
X242249D01*
X241855Y426884D02*
Y427671D01*
X221606Y385862D02*
X222394D01*
X222000Y385469D02*
Y386256D01*
X218106Y386500D02*
X218894D01*
X218500Y386106D02*
Y386894D01*
X264596Y386091D02*
X265384D01*
X264990Y385697D02*
Y386485D01*
X346295Y447828D02*
X347083D01*
X346689Y447434D02*
Y448221D01*
X353324Y444598D02*
X354111D01*
X353718Y444205D02*
Y444992D01*
X289606Y442500D02*
X290394D01*
X290000Y442106D02*
Y442894D01*
X282934Y442811D02*
X283721D01*
X283328Y442417D02*
Y443205D01*
X266634Y443402D02*
X267421D01*
X267028Y443008D02*
Y443795D01*
X331218Y439584D02*
X332006D01*
X331612Y439190D02*
Y439978D01*
X443326Y385445D02*
X444113D01*
X443719Y385051D02*
Y385839D01*
X423118Y182670D02*
X423905D01*
X423511Y182277D02*
Y183064D01*
X271215Y385094D02*
X272003D01*
X271609Y384701D02*
Y385488D01*
X508669Y479119D02*
X509456D01*
X509062Y478725D02*
Y479513D01*
X265106Y463110D02*
X265894D01*
X265500Y462716D02*
Y463504D01*
X246675Y458347D02*
X247463D01*
X247069Y457953D02*
Y458741D01*
X259731Y393543D02*
X260519D01*
X260125Y393149D02*
Y393937D01*
X414106Y342500D02*
X414894D01*
X414500Y342106D02*
Y342894D01*
X346231Y393933D02*
X347019D01*
X346625Y393539D02*
Y394327D01*
X406667Y205737D02*
X407454D01*
X407060Y205343D02*
Y206131D01*
X247606Y186000D02*
X248394D01*
X248000Y185606D02*
Y186394D01*
X239606Y248000D02*
X240394D01*
X240000Y247606D02*
Y248394D01*
X250606Y247000D02*
X251394D01*
X251000Y246606D02*
Y247394D01*
X268606Y246500D02*
X269394D01*
X269000Y246106D02*
Y246894D01*
X287106Y245000D02*
X287894D01*
X287500Y244606D02*
Y245394D01*
X286106Y172000D02*
X286894D01*
X286500Y171606D02*
Y172394D01*
X235106Y235000D02*
X235894D01*
X235500Y234606D02*
Y235394D01*
X243606Y235000D02*
X244394D01*
X244000Y234606D02*
Y235394D01*
X258606Y235500D02*
X259394D01*
X259000Y235106D02*
Y235894D01*
X272606Y235500D02*
X273394D01*
X273000Y235106D02*
Y235894D01*
X285606Y236000D02*
X286394D01*
X286000Y235606D02*
Y236394D01*
X234606Y263500D02*
X235394D01*
X235000Y263106D02*
Y263894D01*
X234358Y255215D02*
X235146D01*
X234752Y254821D02*
Y255609D01*
X242606Y256500D02*
X243394D01*
X243000Y256106D02*
Y256894D01*
X235827Y259842D02*
X236614D01*
X236220Y259449D02*
Y260236D01*
X314106Y415390D02*
X314894D01*
X314500Y414996D02*
Y415784D01*
X327063Y457452D02*
X327850D01*
X327456Y457059D02*
Y457846D01*
X329106Y417390D02*
X329894D01*
X329500Y416996D02*
Y417783D01*
X388572Y436349D02*
X389360D01*
X388966Y435955D02*
Y436743D01*
X295606Y436500D02*
X296394D01*
X296000Y436106D02*
Y436894D01*
X285150Y438218D02*
X285937D01*
X285544Y437824D02*
Y438612D01*
X355294Y430435D02*
X356082D01*
X355688Y430042D02*
Y430829D01*
X385720Y441125D02*
X386508D01*
X386114Y440731D02*
Y441519D01*
X354796Y442197D02*
X355584D01*
X355190Y441803D02*
Y442591D01*
X343606Y448500D02*
X344394D01*
X344000Y448106D02*
Y448894D01*
X289606Y446000D02*
X290394D01*
X290000Y445606D02*
Y446394D01*
X283606Y445500D02*
X284394D01*
X284000Y445106D02*
Y445894D01*
X523406Y482152D02*
X524193D01*
X523799Y481758D02*
Y482545D01*
X246971Y438744D02*
X247758D01*
X247364Y438350D02*
Y439138D01*
X333936Y439041D02*
X334724D01*
X334330Y438647D02*
Y439434D01*
X343606Y487000D02*
X344394D01*
X344000Y486606D02*
Y487394D01*
X348606Y439500D02*
X349394D01*
X349000Y439106D02*
Y439894D01*
X405331Y265000D02*
X406119D01*
X405725Y264606D02*
Y265394D01*
X316606Y454220D02*
X317394D01*
X317000Y453827D02*
Y454614D01*
X366742Y415366D02*
X367529D01*
X367136Y414973D02*
Y415760D01*
X314106Y419390D02*
X314894D01*
X314500Y418996D02*
Y419783D01*
X329600Y458567D02*
X330387D01*
X329994Y458174D02*
Y458961D01*
X302106Y457721D02*
X302894D01*
X302500Y457327D02*
Y458114D01*
X496169Y475619D02*
X496956D01*
X496562Y475225D02*
Y476013D01*
X391106Y450000D02*
X391894D01*
X391500Y449606D02*
Y450394D01*
X351339Y430918D02*
X352126D01*
X351732Y430524D02*
Y431311D01*
X296636Y439073D02*
X297423D01*
X297029Y438680D02*
Y439467D01*
X284606Y435500D02*
X285394D01*
X285000Y435106D02*
Y435894D01*
X256999Y393078D02*
X257786D01*
X257393Y392684D02*
Y393471D01*
X343499Y393467D02*
X344286D01*
X343893Y393074D02*
Y393861D01*
X512169Y485619D02*
X512956D01*
X512563Y485225D02*
Y486013D01*
X238606Y498000D02*
X239394D01*
X239000Y497606D02*
Y498394D01*
X266093Y492261D02*
X266881D01*
X266487Y491868D02*
Y492655D01*
X559102Y221874D02*
X559890D01*
X559496Y221480D02*
Y222268D01*
X560510Y223282D02*
X561297D01*
X560904Y222888D02*
Y223675D01*
X425864Y205055D02*
X426652D01*
X426258Y204661D02*
Y205449D01*
X490638Y197020D02*
X491425D01*
X491032Y196626D02*
Y197413D01*
X421652Y190940D02*
X422440D01*
X422046Y190547D02*
Y191334D01*
X410875Y189092D02*
X411662D01*
X411268Y188698D02*
Y189485D01*
X403199Y194500D02*
X403986D01*
X403593Y194106D02*
Y194894D01*
X352606Y413000D02*
X353394D01*
X353000Y412606D02*
Y413394D01*
X288367Y406449D02*
X289155D01*
X288761Y406055D02*
Y406843D01*
X430106Y177500D02*
X430894D01*
X430500Y177106D02*
Y177894D01*
X434106Y207500D02*
X434894D01*
X434500Y207106D02*
Y207894D01*
X256606Y365500D02*
X257394D01*
X257000Y365106D02*
Y365894D01*
X413204Y181303D02*
X413992D01*
X413598Y180910D02*
Y181697D01*
X422459Y173040D02*
X423246D01*
X422853Y172647D02*
Y173434D01*
X391699Y190000D02*
X392486D01*
X392093Y189606D02*
Y190394D01*
X391699Y186000D02*
X392486D01*
X392093Y185606D02*
Y186394D01*
X391699Y188000D02*
X392486D01*
X392093Y187606D02*
Y188394D01*
X516669Y454869D02*
X517456D01*
X517063Y454476D02*
Y455263D01*
X483533Y455796D02*
X484321D01*
X483927Y455403D02*
Y456190D01*
X496106Y452000D02*
X496894D01*
X496500Y451606D02*
Y452394D01*
X445200Y347096D02*
X445987D01*
X445594Y346702D02*
Y347490D01*
X288106Y413110D02*
X288894D01*
X288500Y412716D02*
Y413504D01*
X432972Y166823D02*
X433759D01*
X433366Y166430D02*
Y167217D01*
X432106Y193728D02*
X432894D01*
X432500Y193335D02*
Y194122D01*
X438549Y190409D02*
X439337D01*
X438943Y190016D02*
Y190803D01*
X447606Y205000D02*
X448394D01*
X448000Y204606D02*
Y205394D01*
X492248Y469417D02*
X493035D01*
X492642Y469024D02*
Y469811D01*
X512606Y462000D02*
X513394D01*
X513000Y461606D02*
Y462394D01*
X488106Y442000D02*
X488894D01*
X488500Y441606D02*
Y442394D01*
X437191Y299857D02*
X437978D01*
X437584Y299463D02*
Y300251D01*
X427200Y255361D02*
X427987D01*
X427594Y254967D02*
Y255755D01*
X426606Y195858D02*
X427394D01*
X427000Y195465D02*
Y196252D01*
X321106Y406323D02*
X321894D01*
X321500Y405929D02*
Y406716D01*
X377559Y248031D02*
X378346D01*
X377953Y247638D02*
Y248425D01*
X368106Y162000D02*
X368894D01*
X368500Y161606D02*
Y162394D01*
X463606Y320500D02*
X464394D01*
X464000Y320106D02*
Y320894D01*
X395975Y423017D02*
X396763D01*
X396369Y422623D02*
Y423411D01*
X333106Y416000D02*
X333894D01*
X333500Y415606D02*
Y416394D01*
X389566Y443488D02*
X390353D01*
X389960Y443094D02*
Y443882D01*
X340622Y449004D02*
X341409D01*
X341016Y448610D02*
Y449398D01*
X290150Y448718D02*
X290937D01*
X290544Y448324D02*
Y449112D01*
X283606Y448272D02*
X284394D01*
X284000Y447878D02*
Y448665D01*
X353106Y440000D02*
X353894D01*
X353500Y439606D02*
Y440394D01*
X266416Y438803D02*
X267204D01*
X266810Y438409D02*
Y439197D01*
X500339Y465700D02*
X501127D01*
X500733Y465307D02*
Y466094D01*
X489106Y432000D02*
X489894D01*
X489500Y431606D02*
Y432394D01*
X262591Y392854D02*
X263378D01*
X262984Y392460D02*
Y393248D01*
X351106Y348000D02*
X351894D01*
X351500Y347606D02*
Y348394D01*
X386547Y353260D02*
X387335D01*
X386941Y352866D02*
Y353654D01*
X404606Y410787D02*
X405394D01*
X405000Y410394D02*
Y411181D01*
X254231Y393218D02*
X255018D01*
X254625Y392824D02*
Y393611D01*
X340356Y395493D02*
X341143D01*
X340749Y395099D02*
Y395887D01*
X403606Y254090D02*
X404394D01*
X404000Y253697D02*
Y254484D01*
X246843Y392854D02*
X247630D01*
X247236Y392460D02*
Y393248D01*
X330106Y387500D02*
X330894D01*
X330500Y387106D02*
Y387894D01*
X423525Y242261D02*
X424312D01*
X423919Y241867D02*
Y242655D01*
X268573Y386091D02*
X269360D01*
X268966Y385697D02*
Y386485D01*
X399832Y412488D02*
X400619D01*
X400225Y412094D02*
Y412882D01*
X421135Y288830D02*
X421923D01*
X421529Y288436D02*
Y289223D01*
X266032Y393225D02*
X266819D01*
X266425Y392831D02*
Y393619D01*
X367162Y396640D02*
X367950D01*
X367556Y396247D02*
Y397034D01*
X353971Y473634D02*
X354758D01*
X354364Y473240D02*
Y474027D01*
X567156Y460024D02*
X567943D01*
X567549Y459630D02*
Y460417D01*
X288094Y401004D02*
X288881D01*
X288487Y400610D02*
Y401397D01*
X564606Y402500D02*
X565394D01*
X565000Y402106D02*
Y402894D01*
X288971Y403744D02*
X289758D01*
X289365Y403350D02*
Y404138D01*
X366971Y399405D02*
X367758D01*
X367365Y399011D02*
Y399799D01*
X351606Y463500D02*
X352394D01*
X352000Y463106D02*
Y463894D01*
X437957Y218000D02*
X438744D01*
X438350Y217606D02*
Y218394D01*
X354293Y458686D02*
X355080D01*
X354686Y458293D02*
Y459080D01*
X353971Y469134D02*
X354758D01*
X354364Y468740D02*
Y469527D01*
X353971Y478634D02*
X354758D01*
X354364Y478240D02*
Y479027D01*
X250209Y351957D02*
X250996D01*
X250602Y351563D02*
Y352350D01*
X284047Y356760D02*
X284835D01*
X284441Y356366D02*
Y357154D01*
X438141Y246835D02*
X438929D01*
X438535Y246441D02*
Y247229D01*
X235106Y405500D02*
X235894D01*
X235500Y405106D02*
Y405894D01*
X507669Y497119D02*
X508456D01*
X508063Y496726D02*
Y497513D01*
X492248Y465426D02*
X493035D01*
X492642Y465032D02*
Y465820D01*
X499276Y449542D02*
X500063D01*
X499669Y449148D02*
Y449935D01*
X343106Y370500D02*
X343894D01*
X343500Y370106D02*
Y370894D01*
X349606Y370500D02*
X350394D01*
X350000Y370106D02*
Y370894D01*
X419081Y438634D02*
X419868D01*
X419475Y438240D02*
Y439027D01*
X403539Y267114D02*
X404326D01*
X403932Y266720D02*
Y267507D01*
X351047Y359260D02*
X351835D01*
X351441Y358866D02*
Y359653D01*
X452352Y414866D02*
X453139D01*
X452746Y414473D02*
Y415260D01*
X402106Y454145D02*
X402894D01*
X402500Y453752D02*
Y454539D01*
X439581Y478134D02*
X440368D01*
X439975Y477740D02*
Y478527D01*
X452216Y411500D02*
X453004D01*
X452610Y411106D02*
Y411894D01*
X250209Y363000D02*
X250996D01*
X250602Y362606D02*
Y363394D01*
X439581Y473134D02*
X440368D01*
X439975Y472740D02*
Y473527D01*
X434784Y438632D02*
X435571D01*
X435177Y438239D02*
Y439026D01*
X422777Y429968D02*
X423564D01*
X423170Y429575D02*
Y430362D01*
X436433Y311826D02*
X437220D01*
X436827Y311432D02*
Y312220D01*
X451673Y408782D02*
X452460D01*
X452067Y408389D02*
Y409176D01*
X430106Y438500D02*
X430893D01*
X430500Y438106D02*
Y438894D01*
X418676Y458492D02*
X419463D01*
X419069Y458098D02*
Y458886D01*
X399716Y418890D02*
X400504D01*
X400110Y418496D02*
Y419283D01*
X415100Y458492D02*
X415887D01*
X415494Y458098D02*
Y458886D01*
X387606Y457645D02*
X388394D01*
X388000Y457252D02*
Y458039D01*
X412563Y457377D02*
X413350D01*
X412956Y456984D02*
Y457771D01*
X384047Y363512D02*
X384835D01*
X384441Y363118D02*
Y363906D01*
X469487Y487367D02*
X470275D01*
X469881Y486973D02*
Y487761D01*
X471106Y474000D02*
X471894D01*
X471500Y473606D02*
Y474394D01*
X473606Y485000D02*
X474394D01*
X474000Y484606D02*
Y485394D01*
X476106Y468000D02*
X476894D01*
X476500Y467606D02*
Y468394D01*
X472106Y451500D02*
X472894D01*
X472500Y451106D02*
Y451894D01*
X260303Y385804D02*
X261090D01*
X260696Y385410D02*
Y386197D01*
X272008Y394022D02*
X272795D01*
X272401Y393628D02*
Y394415D01*
X230106Y454000D02*
X230894D01*
X230500Y453606D02*
Y454394D01*
X240563Y457232D02*
X241350D01*
X240956Y456838D02*
Y457626D01*
X243100Y458347D02*
X243887D01*
X243494Y457953D02*
Y458741D01*
X267471Y473244D02*
X268258D01*
X267864Y472850D02*
Y473637D01*
X267735Y458239D02*
X268522D01*
X268129Y457845D02*
Y458633D01*
X267471Y478244D02*
X268258D01*
X267864Y477850D02*
Y478638D01*
X267471Y468744D02*
X268258D01*
X267864Y468350D02*
Y469137D01*
X227606Y415000D02*
X228394D01*
X228000Y414606D02*
Y415394D01*
X227606Y419000D02*
X228394D01*
X228000Y418606D02*
Y419394D01*
X263491Y438743D02*
X264278D01*
X263884Y438349D02*
Y439136D01*
X247699Y430244D02*
X248486D01*
X248093Y429850D02*
Y430638D01*
X280106Y411610D02*
X280894D01*
X280500Y411216D02*
Y412004D01*
X279563Y408892D02*
X280350D01*
X279956Y408499D02*
Y409286D01*
X280242Y414977D02*
X281029D01*
X280635Y414583D02*
Y415370D01*
X230606Y403618D02*
X231394D01*
X231000Y403224D02*
Y404012D01*
X242606Y417000D02*
X243394D01*
X243000Y416606D02*
Y417394D01*
X383047Y335760D02*
X383835D01*
X383441Y335366D02*
Y336154D01*
X349438Y334500D02*
X350225D01*
X349832Y334106D02*
Y334894D01*
X215606Y457500D02*
X216394D01*
X216000Y457106D02*
Y457894D01*
X268547Y361260D02*
X269335D01*
X268941Y360866D02*
Y361653D01*
X259507Y335537D02*
X260295D01*
X259901Y335143D02*
Y335931D01*
X280938Y339973D02*
X281725D01*
X281331Y339580D02*
Y340367D01*
X249106Y340500D02*
X249894D01*
X249500Y340106D02*
Y340894D01*
X425507Y272942D02*
X426295D01*
X425901Y272549D02*
Y273336D01*
X359106Y361500D02*
X359894D01*
X359500Y361106D02*
Y361894D01*
X502106Y458500D02*
X502894D01*
X502500Y458106D02*
Y458894D01*
X515606Y396000D02*
X516394D01*
X516000Y395606D02*
Y396394D01*
X537606Y371500D02*
X538394D01*
X538000Y371106D02*
Y371894D01*
X532853Y389497D02*
X533641D01*
X533247Y389103D02*
Y389891D01*
X525130Y454546D02*
X525918D01*
X525524Y454152D02*
Y454939D01*
X426931Y260191D02*
X427719D01*
X427325Y259797D02*
Y260585D01*
X474811Y425730D02*
X475598D01*
X475205Y425336D02*
Y426123D01*
X506974Y424729D02*
X507761D01*
X507368Y424336D02*
Y425123D01*
X498972Y475614D02*
X499760D01*
X499366Y475220D02*
Y476008D01*
X501708Y476061D02*
X502495D01*
X502101Y475668D02*
Y476455D01*
X522724Y462954D02*
X523511D01*
X523118Y462560D02*
Y463348D01*
X508606Y467500D02*
X509394D01*
X509000Y467106D02*
Y467894D01*
X534356Y371500D02*
X535144D01*
X534750Y371106D02*
Y371894D01*
X534950Y391574D02*
X535738D01*
X535344Y391180D02*
Y391967D01*
X491811Y274000D02*
X492598D01*
X492204Y273606D02*
Y274394D01*
X537106Y393750D02*
X537894D01*
X537500Y393356D02*
Y394144D01*
X423799Y233564D02*
X424587D01*
X424193Y233171D02*
Y233958D01*
X340606Y152646D02*
X341394D01*
X341000Y152252D02*
Y153039D01*
X257606Y161000D02*
X258394D01*
X258000Y160606D02*
Y161394D01*
X255512Y163076D02*
X256299D01*
X255906Y162682D02*
Y163470D01*
X389717Y281500D02*
X390504D01*
X390110Y281106D02*
Y281894D01*
X389717Y283500D02*
X390504D01*
X390110Y283106D02*
Y283894D01*
X402606Y338000D02*
X403394D01*
X403000Y337606D02*
Y338394D01*
X402654Y321953D02*
X403441D01*
X403047Y321559D02*
Y322346D01*
X402606Y336000D02*
X403394D01*
X403000Y335606D02*
Y336394D01*
X402606Y334000D02*
X403394D01*
X403000Y333606D02*
Y334394D01*
X402654Y323953D02*
X403441D01*
X403047Y323559D02*
Y324346D01*
X402654Y325953D02*
X403441D01*
X403047Y325559D02*
Y326346D01*
X402654Y327953D02*
X403441D01*
X403047Y327559D02*
Y328346D01*
X399699Y415257D02*
X400486D01*
X400093Y414863D02*
Y415650D01*
X339024Y314488D02*
X339811D01*
X339417Y314094D02*
Y314882D01*
X306693Y283465D02*
X307480D01*
X307087Y283071D02*
Y283858D01*
X365748Y248031D02*
X366535D01*
X366142Y247638D02*
Y248425D01*
X342126Y248031D02*
X342913D01*
X342520Y247638D02*
Y248425D01*
X318504Y248031D02*
X319291D01*
X318898Y247638D02*
Y248425D01*
X294882Y153543D02*
X295669D01*
X295275Y153150D02*
Y153937D01*
X271260Y153543D02*
X272047D01*
X271654Y153150D02*
Y153937D01*
X271260Y129921D02*
X272047D01*
X271654Y129527D02*
Y130315D01*
X247638Y141732D02*
X248425D01*
X248031Y141339D02*
Y142126D01*
X329106Y294500D02*
X329894D01*
X329500Y294106D02*
Y294894D01*
X339606Y294500D02*
X340394D01*
X340000Y294106D02*
Y294894D01*
X334606Y294500D02*
X335394D01*
X335000Y294106D02*
Y294894D01*
X355106Y294500D02*
X355894D01*
X355500Y294106D02*
Y294894D01*
X365606Y294500D02*
X366394D01*
X366000Y294106D02*
Y294894D01*
X360606Y294500D02*
X361394D01*
X361000Y294106D02*
Y294894D01*
X372106Y287000D02*
X372894D01*
X372500Y286606D02*
Y287394D01*
X372106Y276500D02*
X372894D01*
X372500Y276106D02*
Y276894D01*
X372106Y281500D02*
X372894D01*
X372500Y281106D02*
Y281894D01*
X352606Y264500D02*
X353394D01*
X353000Y264106D02*
Y264894D01*
X347106Y264500D02*
X347894D01*
X347500Y264106D02*
Y264894D01*
X369106Y264500D02*
X369894D01*
X369500Y264106D02*
Y264894D01*
X359106Y264500D02*
X359894D01*
X359500Y264106D02*
Y264894D01*
X363606Y264500D02*
X364394D01*
X364000Y264106D02*
Y264894D01*
X299106Y282000D02*
X299894D01*
X299500Y281606D02*
Y282394D01*
X299106Y292500D02*
X299894D01*
X299500Y292106D02*
Y292894D01*
X299106Y287500D02*
X299894D01*
X299500Y287106D02*
Y287894D01*
X260606Y267000D02*
X261394D01*
X261000Y266606D02*
Y267394D01*
X271106Y267000D02*
X271894D01*
X271500Y266606D02*
Y267394D01*
X266106Y267000D02*
X266894D01*
X266500Y266606D02*
Y267394D01*
X289606Y283000D02*
X290394D01*
X290000Y282606D02*
Y283394D01*
X289606Y272500D02*
X290394D01*
X290000Y272106D02*
Y272894D01*
X289606Y277500D02*
X290394D01*
X290000Y277106D02*
Y277894D01*
X289606Y298000D02*
X290394D01*
X290000Y297606D02*
Y298394D01*
X289606Y287500D02*
X290394D01*
X290000Y287106D02*
Y287894D01*
X289606Y292500D02*
X290394D01*
X290000Y292106D02*
Y292894D01*
X244606Y190000D02*
X245394D01*
X245000Y189606D02*
Y190394D01*
X244606Y179500D02*
X245394D01*
X245000Y179106D02*
Y179894D01*
X244606Y184500D02*
X245394D01*
X245000Y184106D02*
Y184894D01*
X281106Y154000D02*
X281894D01*
X281500Y153606D02*
Y154394D01*
X276106Y154000D02*
X276894D01*
X276500Y153606D02*
Y154394D01*
X291606Y154000D02*
X292394D01*
X292000Y153606D02*
Y154394D01*
X286606Y154000D02*
X287394D01*
X287000Y153606D02*
Y154394D01*
X281106Y130000D02*
X281894D01*
X281500Y129606D02*
Y130394D01*
X276106Y130000D02*
X276894D01*
X276500Y129606D02*
Y130394D01*
X296106Y130000D02*
X296894D01*
X296500Y129606D02*
Y130394D01*
X291106Y130000D02*
X291894D01*
X291500Y129606D02*
Y130394D01*
X302606Y133000D02*
X303394D01*
X303000Y132606D02*
Y133394D01*
X302606Y138000D02*
X303394D01*
X303000Y137606D02*
Y138394D01*
X302606Y144000D02*
X303394D01*
X303000Y143606D02*
Y144394D01*
X302606Y149000D02*
X303394D01*
X303000Y148606D02*
Y149394D01*
X297606Y154000D02*
X298394D01*
X298000Y153606D02*
Y154394D01*
X302606Y154000D02*
X303394D01*
X303000Y153606D02*
Y154394D01*
X249606Y132000D02*
X250394D01*
X250000Y131606D02*
Y132394D01*
X254606Y132000D02*
X255394D01*
X255000Y131606D02*
Y132394D01*
X256606Y144000D02*
X257394D01*
X257000Y143606D02*
Y144394D01*
X251606Y144000D02*
X252394D01*
X252000Y143606D02*
Y144394D01*
X354606Y243000D02*
X355394D01*
X355000Y242606D02*
Y243394D01*
X362606Y243500D02*
X363394D01*
X363000Y243106D02*
Y243894D01*
X329606Y250000D02*
X330394D01*
X330000Y249606D02*
Y250394D01*
X323106Y253500D02*
X323894D01*
X323500Y253106D02*
Y253894D01*
X329106Y256500D02*
X329894D01*
X329500Y256106D02*
Y256894D01*
X330106Y264000D02*
X330894D01*
X330500Y263606D02*
Y264394D01*
X330606Y270000D02*
X331394D01*
X331000Y269606D02*
Y270394D01*
X322606Y245000D02*
X323394D01*
X323000Y244606D02*
Y245394D01*
X329606Y244500D02*
X330394D01*
X330000Y244106D02*
Y244894D01*
X337106Y244500D02*
X337894D01*
X337500Y244106D02*
Y244894D01*
X347606Y244000D02*
X348394D01*
X348000Y243606D02*
Y244394D01*
X373106Y244000D02*
X373894D01*
X373500Y243606D02*
Y244394D01*
X228606Y282000D02*
X229394D01*
X229000Y281606D02*
Y282394D01*
X229106Y285000D02*
X229894D01*
X229500Y284606D02*
Y285394D01*
X344606Y141000D02*
X345394D01*
X345000Y140606D02*
Y141394D01*
X357827Y169760D02*
X358614D01*
X358221Y169366D02*
Y170153D01*
X354709Y165260D02*
X355496D01*
X355102Y164866D02*
Y165654D01*
X357716Y155260D02*
X358504D01*
X358110Y154866D02*
Y155654D01*
X371924Y165923D02*
X372711D01*
X372317Y165529D02*
Y166317D01*
X368981Y341081D02*
X369769D01*
X369375Y340687D02*
Y341474D01*
X372047Y331760D02*
X372835D01*
X372441Y331366D02*
Y332154D01*
X369547Y345260D02*
X370335D01*
X369941Y344866D02*
Y345654D01*
X368547Y322760D02*
X369335D01*
X368941Y322366D02*
Y323153D01*
X369540Y338366D02*
X370328D01*
X369934Y337972D02*
Y338760D01*
X266481Y344581D02*
X267268D01*
X266875Y344187D02*
Y344974D01*
X267040Y341866D02*
X267828D01*
X267434Y341472D02*
Y342260D01*
X269547Y335260D02*
X270335D01*
X269941Y334866D02*
Y335653D01*
X267047Y348760D02*
X267835D01*
X267441Y348366D02*
Y349153D01*
X266047Y326260D02*
X266835D01*
X266441Y325866D02*
Y326654D01*
X224642Y132515D02*
X225430D01*
X225036Y132121D02*
Y132908D01*
X204106Y145500D02*
X204894D01*
X204500Y145106D02*
Y145894D01*
X241142Y159495D02*
X241930D01*
X241536Y159101D02*
Y159888D01*
X247606Y179500D02*
X248394D01*
X248000Y179106D02*
Y179894D01*
X247606Y182500D02*
X248394D01*
X248000Y182106D02*
Y182894D01*
X251606Y186000D02*
X252394D01*
X252000Y185606D02*
Y186394D01*
X251606Y182500D02*
X252394D01*
X252000Y182106D02*
Y182894D01*
X251606Y179500D02*
X252394D01*
X252000Y179106D02*
Y179894D01*
X275217Y180000D02*
X276004D01*
X275610Y179606D02*
Y180394D01*
X272098Y175500D02*
X272886D01*
X272492Y175106D02*
Y175894D01*
X261996Y151240D02*
X262784D01*
X262390Y150847D02*
Y151634D01*
X275106Y165500D02*
X275894D01*
X275500Y165106D02*
Y165894D01*
M02*
