G04*
G04 #@! TF.GenerationSoftware,Altium Limited,Altium Designer,25.3.3 (18)*
G04*
G04 Layer_Color=8421504*
%FSLAX25Y25*%
%MOIN*%
G70*
G04*
G04 #@! TF.SameCoordinates,2C78717C-F5E3-4C58-9D65-8300EA0D7612*
G04*
G04*
G04 #@! TF.FilePolarity,Positive*
G04*
G01*
G75*
%ADD18R,0.05709X0.03937*%
%ADD19R,0.06890X0.04331*%
%ADD20R,0.03740X0.03937*%
%ADD21R,0.02244X0.02441*%
%ADD22R,0.03937X0.05709*%
%ADD23R,0.02756X0.00984*%
%ADD24R,0.02756X0.00984*%
G04:AMPARAMS|DCode=25|XSize=129.92mil|YSize=66.93mil|CornerRadius=1.67mil|HoleSize=0mil|Usage=FLASHONLY|Rotation=270.000|XOffset=0mil|YOffset=0mil|HoleType=Round|Shape=RoundedRectangle|*
%AMROUNDEDRECTD25*
21,1,0.12992,0.06358,0,0,270.0*
21,1,0.12658,0.06693,0,0,270.0*
1,1,0.00335,-0.03179,-0.06329*
1,1,0.00335,-0.03179,0.06329*
1,1,0.00335,0.03179,0.06329*
1,1,0.00335,0.03179,-0.06329*
%
%ADD25ROUNDEDRECTD25*%
%ADD26R,0.04331X0.02362*%
%ADD27R,0.02441X0.02244*%
%ADD28R,0.03937X0.03740*%
%ADD29R,0.05118X0.10630*%
%ADD30R,0.10630X0.05118*%
%ADD31R,0.07087X0.04528*%
%ADD32R,0.04528X0.07087*%
G04:AMPARAMS|DCode=33|XSize=65.17mil|YSize=23.72mil|CornerRadius=11.86mil|HoleSize=0mil|Usage=FLASHONLY|Rotation=270.000|XOffset=0mil|YOffset=0mil|HoleType=Round|Shape=RoundedRectangle|*
%AMROUNDEDRECTD33*
21,1,0.06517,0.00000,0,0,270.0*
21,1,0.04145,0.02372,0,0,270.0*
1,1,0.02372,0.00000,-0.02072*
1,1,0.02372,0.00000,0.02072*
1,1,0.02372,0.00000,0.02072*
1,1,0.02372,0.00000,-0.02072*
%
%ADD33ROUNDEDRECTD33*%
G04:AMPARAMS|DCode=34|XSize=65.17mil|YSize=23.72mil|CornerRadius=11.86mil|HoleSize=0mil|Usage=FLASHONLY|Rotation=180.000|XOffset=0mil|YOffset=0mil|HoleType=Round|Shape=RoundedRectangle|*
%AMROUNDEDRECTD34*
21,1,0.06517,0.00000,0,0,180.0*
21,1,0.04145,0.02372,0,0,180.0*
1,1,0.02372,-0.02072,0.00000*
1,1,0.02372,0.02072,0.00000*
1,1,0.02372,0.02072,0.00000*
1,1,0.02372,-0.02072,0.00000*
%
%ADD34ROUNDEDRECTD34*%
%ADD35R,0.06299X0.01181*%
%ADD36R,0.05000X0.09646*%
%ADD37R,0.11496X0.05000*%
%ADD38R,0.05402X0.02795*%
%ADD39R,0.02323X0.02795*%
%ADD40R,0.15158X0.17795*%
%ADD41R,0.06517X0.02372*%
%ADD42R,0.02372X0.06517*%
%ADD43R,0.05630X0.21654*%
%ADD44R,0.09843X0.13780*%
G04:AMPARAMS|DCode=45|XSize=43.31mil|YSize=23.62mil|CornerRadius=2.01mil|HoleSize=0mil|Usage=FLASHONLY|Rotation=180.000|XOffset=0mil|YOffset=0mil|HoleType=Round|Shape=RoundedRectangle|*
%AMROUNDEDRECTD45*
21,1,0.04331,0.01961,0,0,180.0*
21,1,0.03929,0.02362,0,0,180.0*
1,1,0.00402,-0.01965,0.00980*
1,1,0.00402,0.01965,0.00980*
1,1,0.00402,0.01965,-0.00980*
1,1,0.00402,-0.01965,-0.00980*
%
%ADD45ROUNDEDRECTD45*%
%ADD46R,0.02362X0.04331*%
%ADD47R,0.01181X0.06299*%
%ADD48R,0.06693X0.09843*%
%ADD49R,0.02756X0.00984*%
%ADD50R,0.00984X0.02756*%
%ADD51R,0.09646X0.09646*%
%ADD52R,0.05000X0.11496*%
%ADD53R,0.09646X0.05000*%
D18*
X152000Y75740D02*
D03*
Y68260D02*
D03*
X106000Y88260D02*
D03*
Y95740D02*
D03*
X122000Y365740D02*
D03*
Y358260D02*
D03*
X119000Y296740D02*
D03*
Y289260D02*
D03*
X117000Y235000D02*
D03*
Y227520D02*
D03*
X113000Y163740D02*
D03*
Y156260D02*
D03*
X191098Y142260D02*
D03*
Y149740D02*
D03*
X199902Y142260D02*
D03*
Y149740D02*
D03*
X262000Y210260D02*
D03*
Y217740D02*
D03*
X55098Y127740D02*
D03*
Y120260D02*
D03*
X65098Y127740D02*
D03*
Y120260D02*
D03*
X240000Y193740D02*
D03*
Y186260D02*
D03*
D19*
X99587Y120756D02*
D03*
X110413D02*
D03*
X99587Y115244D02*
D03*
X110413D02*
D03*
X266587Y182756D02*
D03*
X277413D02*
D03*
X266587Y177244D02*
D03*
X277413D02*
D03*
D20*
X146150Y252000D02*
D03*
X139850D02*
D03*
X154150Y352000D02*
D03*
X147850D02*
D03*
X151150Y281000D02*
D03*
X144850D02*
D03*
X153150Y217000D02*
D03*
X146850D02*
D03*
X146150Y150000D02*
D03*
X139850D02*
D03*
X219150Y228000D02*
D03*
X212850D02*
D03*
X219150Y189000D02*
D03*
X212850D02*
D03*
X146000Y315000D02*
D03*
X139701D02*
D03*
X219150Y235000D02*
D03*
X212850D02*
D03*
X256150Y191000D02*
D03*
X249850D02*
D03*
D21*
X151000Y232000D02*
D03*
Y235780D02*
D03*
X41000Y92000D02*
D03*
Y88221D02*
D03*
X14000Y92110D02*
D03*
Y95890D02*
D03*
X137000Y97890D02*
D03*
Y94110D02*
D03*
X149000Y362110D02*
D03*
Y365890D02*
D03*
X146000Y295110D02*
D03*
Y298890D02*
D03*
Y232110D02*
D03*
Y235890D02*
D03*
X140000Y160110D02*
D03*
Y163890D02*
D03*
X245000Y217110D02*
D03*
Y220890D02*
D03*
X114000Y93110D02*
D03*
Y96890D02*
D03*
X255000Y217110D02*
D03*
Y220890D02*
D03*
X145000Y113110D02*
D03*
Y116890D02*
D03*
X143000Y97890D02*
D03*
Y94110D02*
D03*
X154000Y362000D02*
D03*
Y365779D02*
D03*
X150000Y295110D02*
D03*
Y298890D02*
D03*
X145000Y160110D02*
D03*
Y163890D02*
D03*
X263000Y201890D02*
D03*
Y198110D02*
D03*
X41000Y100110D02*
D03*
Y103890D02*
D03*
D22*
X146740Y140902D02*
D03*
X139260D02*
D03*
X147125Y104690D02*
D03*
X139645D02*
D03*
X154740Y343902D02*
D03*
X147260D02*
D03*
X153480Y272000D02*
D03*
X146000D02*
D03*
X154740Y209902D02*
D03*
X147260D02*
D03*
X149260Y372098D02*
D03*
X156740D02*
D03*
X148000Y305000D02*
D03*
X155480D02*
D03*
X146520Y243000D02*
D03*
X154000D02*
D03*
X141260Y171098D02*
D03*
X148740D02*
D03*
X18260Y79098D02*
D03*
X25740D02*
D03*
D23*
X140417Y296126D02*
D03*
Y298095D02*
D03*
Y300063D02*
D03*
Y302031D02*
D03*
Y304000D02*
D03*
Y305968D02*
D03*
Y307937D02*
D03*
X129000Y298095D02*
D03*
Y300063D02*
D03*
Y302031D02*
D03*
Y304000D02*
D03*
Y307937D02*
D03*
Y305968D02*
D03*
X131417Y97000D02*
D03*
Y98968D02*
D03*
Y100937D02*
D03*
Y102905D02*
D03*
Y104874D02*
D03*
Y106843D02*
D03*
Y108811D02*
D03*
X120000Y98968D02*
D03*
Y100937D02*
D03*
Y102905D02*
D03*
Y104874D02*
D03*
Y108811D02*
D03*
Y106843D02*
D03*
X142709Y364094D02*
D03*
Y366063D02*
D03*
Y368032D02*
D03*
Y370000D02*
D03*
Y371969D02*
D03*
Y373937D02*
D03*
Y375905D02*
D03*
X131291Y366063D02*
D03*
Y368032D02*
D03*
Y370000D02*
D03*
Y371969D02*
D03*
Y375905D02*
D03*
Y373937D02*
D03*
X133709Y163094D02*
D03*
Y165063D02*
D03*
Y167032D02*
D03*
Y169000D02*
D03*
Y170968D02*
D03*
Y172937D02*
D03*
Y174906D02*
D03*
X122291Y165063D02*
D03*
Y167032D02*
D03*
Y169000D02*
D03*
Y170968D02*
D03*
Y174906D02*
D03*
Y172937D02*
D03*
X139709Y232095D02*
D03*
Y234063D02*
D03*
Y236032D02*
D03*
Y238000D02*
D03*
Y239968D02*
D03*
Y241937D02*
D03*
Y243905D02*
D03*
X128291Y234063D02*
D03*
Y236032D02*
D03*
Y238000D02*
D03*
Y239968D02*
D03*
Y243905D02*
D03*
Y241937D02*
D03*
D24*
X129000Y296126D02*
D03*
X120000Y97000D02*
D03*
X131291Y364094D02*
D03*
X122291Y163094D02*
D03*
X128291Y232095D02*
D03*
D25*
X134709Y302031D02*
D03*
X125709Y102905D02*
D03*
X137000Y370000D02*
D03*
X128000Y169000D02*
D03*
X134000Y238000D02*
D03*
D26*
X246882Y183740D02*
D03*
Y180000D02*
D03*
Y176260D02*
D03*
X257118D02*
D03*
Y183740D02*
D03*
D27*
X37890Y108000D02*
D03*
X34110D02*
D03*
X158890Y379000D02*
D03*
X155110D02*
D03*
X154780Y311000D02*
D03*
X151000D02*
D03*
X155780Y252000D02*
D03*
X152000D02*
D03*
X149890Y178000D02*
D03*
X146110D02*
D03*
D28*
X97000Y87850D02*
D03*
Y94150D02*
D03*
X250000Y223150D02*
D03*
Y216850D02*
D03*
X112000Y365150D02*
D03*
Y358850D02*
D03*
X108000Y296150D02*
D03*
Y289850D02*
D03*
X106000Y229000D02*
D03*
Y235299D02*
D03*
X136000Y81850D02*
D03*
Y88150D02*
D03*
X105000Y162150D02*
D03*
Y155850D02*
D03*
X139000Y118150D02*
D03*
Y111850D02*
D03*
X149000Y378850D02*
D03*
Y385150D02*
D03*
X141000Y177850D02*
D03*
Y184150D02*
D03*
X203000Y192850D02*
D03*
Y199150D02*
D03*
X220000Y19850D02*
D03*
Y26150D02*
D03*
X238000Y248150D02*
D03*
Y241850D02*
D03*
X270000Y202850D02*
D03*
Y209150D02*
D03*
X220000Y6850D02*
D03*
Y13150D02*
D03*
X257000Y196850D02*
D03*
Y203150D02*
D03*
X250000Y204150D02*
D03*
Y197850D02*
D03*
X232000Y182850D02*
D03*
Y189150D02*
D03*
X239000Y19850D02*
D03*
Y26150D02*
D03*
Y6850D02*
D03*
Y13150D02*
D03*
X47000Y99850D02*
D03*
Y106150D02*
D03*
Y127150D02*
D03*
Y120850D02*
D03*
D29*
X116488Y85000D02*
D03*
X127512D02*
D03*
X129488Y201000D02*
D03*
X140512D02*
D03*
X43488Y61000D02*
D03*
X54512D02*
D03*
X37488Y77000D02*
D03*
X48512D02*
D03*
D30*
X136000Y337512D02*
D03*
Y326488D02*
D03*
X135000Y270512D02*
D03*
Y259488D02*
D03*
X130000Y139512D02*
D03*
Y128488D02*
D03*
X136000Y345488D02*
D03*
Y356512D02*
D03*
X135000Y278488D02*
D03*
Y289512D02*
D03*
X136000Y213488D02*
D03*
Y224512D02*
D03*
X130000Y145488D02*
D03*
Y156512D02*
D03*
X211000Y149512D02*
D03*
Y138488D02*
D03*
X225000D02*
D03*
Y149512D02*
D03*
D31*
X113000Y381291D02*
D03*
Y392709D02*
D03*
X116000Y311291D02*
D03*
Y322709D02*
D03*
X111000Y182291D02*
D03*
Y193709D02*
D03*
D32*
X107291Y253000D02*
D03*
X118709D02*
D03*
D33*
X68520Y64000D02*
D03*
X87000Y326000D02*
D03*
X83260Y333681D02*
D03*
X81000Y126000D02*
D03*
X77260Y133681D02*
D03*
X72260Y56319D02*
D03*
D34*
X88681Y351740D02*
D03*
X86681Y286740D02*
D03*
X85000Y224000D02*
D03*
X81681Y154740D02*
D03*
X79319Y203260D02*
D03*
X87000Y207000D02*
D03*
X77319Y220260D02*
D03*
X79000Y283000D02*
D03*
X81319Y266260D02*
D03*
X89000Y270000D02*
D03*
X81000Y348000D02*
D03*
X74000Y151000D02*
D03*
X71000Y81000D02*
D03*
X63319Y77260D02*
D03*
D35*
X212685Y203874D02*
D03*
X237094Y201905D02*
D03*
Y203874D02*
D03*
Y205842D02*
D03*
Y207811D02*
D03*
Y209780D02*
D03*
Y211748D02*
D03*
Y213717D02*
D03*
Y215685D02*
D03*
X212685D02*
D03*
Y213717D02*
D03*
Y211748D02*
D03*
Y209780D02*
D03*
Y207811D02*
D03*
Y205842D02*
D03*
Y201905D02*
D03*
D36*
X32276Y153713D02*
D03*
Y192098D02*
D03*
X32429Y208632D02*
D03*
Y247018D02*
D03*
X32811Y317807D02*
D03*
Y356193D02*
D03*
X32276Y262713D02*
D03*
Y301098D02*
D03*
D37*
X60228Y178811D02*
D03*
Y167000D02*
D03*
X42000Y178811D02*
D03*
Y167000D02*
D03*
X60381Y233731D02*
D03*
Y221920D02*
D03*
X42153Y233731D02*
D03*
Y221920D02*
D03*
X60764Y342905D02*
D03*
Y331095D02*
D03*
X42535Y342905D02*
D03*
Y331095D02*
D03*
X60228Y287811D02*
D03*
Y276000D02*
D03*
X42000Y287811D02*
D03*
Y276000D02*
D03*
D38*
X99315Y205500D02*
D03*
Y210500D02*
D03*
Y215500D02*
D03*
Y220500D02*
D03*
X95000Y248000D02*
D03*
Y243000D02*
D03*
Y238000D02*
D03*
Y233000D02*
D03*
X99000Y311000D02*
D03*
Y306000D02*
D03*
Y301000D02*
D03*
Y296000D02*
D03*
X100315Y267500D02*
D03*
Y272500D02*
D03*
Y277500D02*
D03*
Y282500D02*
D03*
X94000Y132000D02*
D03*
Y137000D02*
D03*
Y142000D02*
D03*
Y147000D02*
D03*
X100685Y378500D02*
D03*
Y373500D02*
D03*
Y368500D02*
D03*
Y363500D02*
D03*
X100094Y335500D02*
D03*
Y340500D02*
D03*
Y345500D02*
D03*
Y350500D02*
D03*
X87906Y90500D02*
D03*
Y95500D02*
D03*
Y100500D02*
D03*
Y105500D02*
D03*
X84000Y50000D02*
D03*
Y55000D02*
D03*
Y60000D02*
D03*
Y65000D02*
D03*
X97905Y164500D02*
D03*
Y169500D02*
D03*
Y174500D02*
D03*
Y179500D02*
D03*
D39*
X122665Y205500D02*
D03*
Y210500D02*
D03*
Y215500D02*
D03*
Y220500D02*
D03*
X71650Y248000D02*
D03*
Y243000D02*
D03*
Y238000D02*
D03*
Y233000D02*
D03*
X75650Y311000D02*
D03*
Y306000D02*
D03*
Y301000D02*
D03*
Y296000D02*
D03*
X123665Y267500D02*
D03*
Y272500D02*
D03*
Y277500D02*
D03*
Y282500D02*
D03*
X117350Y132000D02*
D03*
Y137000D02*
D03*
Y142000D02*
D03*
Y147000D02*
D03*
X77335Y378500D02*
D03*
Y373500D02*
D03*
Y368500D02*
D03*
Y363500D02*
D03*
X123445Y335500D02*
D03*
Y340500D02*
D03*
Y345500D02*
D03*
Y350500D02*
D03*
X64555Y90500D02*
D03*
Y95500D02*
D03*
Y100500D02*
D03*
Y105500D02*
D03*
X107350Y50000D02*
D03*
Y55000D02*
D03*
Y60000D02*
D03*
Y65000D02*
D03*
X74555Y164500D02*
D03*
Y169500D02*
D03*
Y174500D02*
D03*
Y179500D02*
D03*
D40*
X114000Y213000D02*
D03*
X80315Y240500D02*
D03*
X84315Y303500D02*
D03*
X115000Y275000D02*
D03*
X108685Y139500D02*
D03*
X86000Y371000D02*
D03*
X114779Y343000D02*
D03*
X73220Y98000D02*
D03*
X98685Y57500D02*
D03*
X83220Y172000D02*
D03*
D41*
X87000Y199520D02*
D03*
X85000Y216520D02*
D03*
X86681Y279260D02*
D03*
X89000Y262520D02*
D03*
X88681Y344260D02*
D03*
X81681Y147260D02*
D03*
X71000Y73520D02*
D03*
D42*
X90740Y333681D02*
D03*
X84740Y133681D02*
D03*
X76000Y64000D02*
D03*
D43*
X17047Y127000D02*
D03*
X32953D02*
D03*
D44*
X59000Y13252D02*
D03*
Y44748D02*
D03*
D45*
X230118Y240260D02*
D03*
Y244000D02*
D03*
Y247740D02*
D03*
X219882D02*
D03*
Y240260D02*
D03*
D46*
X271260Y215882D02*
D03*
X275000D02*
D03*
X278740D02*
D03*
Y226118D02*
D03*
X271260D02*
D03*
D47*
X231780Y221000D02*
D03*
X229811D02*
D03*
X227842D02*
D03*
X225874D02*
D03*
X223905D02*
D03*
X221937D02*
D03*
X219969D02*
D03*
X218000D02*
D03*
Y196591D02*
D03*
X219969D02*
D03*
X221937D02*
D03*
X223905D02*
D03*
X225874D02*
D03*
X227842D02*
D03*
X229811D02*
D03*
X231780D02*
D03*
D48*
X261000Y10126D02*
D03*
Y25874D02*
D03*
D49*
X35543Y99417D02*
D03*
Y97449D02*
D03*
Y95480D02*
D03*
Y93512D02*
D03*
Y91543D02*
D03*
X20583Y99417D02*
D03*
Y97449D02*
D03*
Y95480D02*
D03*
Y93512D02*
D03*
Y91543D02*
D03*
D50*
X32000Y102961D02*
D03*
X30031D02*
D03*
X28063D02*
D03*
X26094D02*
D03*
X24126D02*
D03*
X32000Y88000D02*
D03*
X30031D02*
D03*
X28063D02*
D03*
X26094D02*
D03*
X24126D02*
D03*
D51*
X28063Y95480D02*
D03*
D52*
X137906Y41535D02*
D03*
X126094Y59764D02*
D03*
Y41535D02*
D03*
X137906Y59764D02*
D03*
D53*
X112807Y31811D02*
D03*
X151193D02*
D03*
M02*
