G04*
G04 #@! TF.GenerationSoftware,Altium Limited,Altium Designer,25.3.3 (18)*
G04*
G04 Layer_Color=128*
%FSLAX25Y25*%
%MOIN*%
G70*
G04*
G04 #@! TF.SameCoordinates,2C78717C-F5E3-4C58-9D65-8300EA0D7612*
G04*
G04*
G04 #@! TF.FilePolarity,Positive*
G04*
G01*
G75*
%ADD15C,0.00500*%
D15*
X15721Y187276D02*
X25209D01*
X20465Y182531D02*
Y192020D01*
X15721Y158535D02*
X25209D01*
X20465Y153791D02*
Y163279D01*
X15874Y242195D02*
X25362D01*
X20618Y237451D02*
Y246939D01*
X15874Y213455D02*
X25362D01*
X20618Y208711D02*
Y218199D01*
X16256Y351370D02*
X25744D01*
X21000Y346626D02*
Y356114D01*
X16256Y322630D02*
X25744D01*
X21000Y317886D02*
Y327374D01*
X15721Y296276D02*
X25209D01*
X20465Y291531D02*
Y301020D01*
X15721Y267535D02*
X25209D01*
X20465Y262791D02*
Y272280D01*
X165500Y180000D02*
X168500D01*
X167000Y178500D02*
Y181500D01*
X175500Y150000D02*
X178500D01*
X177000Y148500D02*
Y151500D01*
X165500Y150000D02*
X168500D01*
X167000Y148500D02*
Y151500D01*
X175500Y240000D02*
X178500D01*
X177000Y238500D02*
Y241500D01*
X165500Y250000D02*
X168500D01*
X167000Y248500D02*
Y251500D01*
X175500Y250000D02*
X178500D01*
X177000Y248500D02*
Y251500D01*
X165500Y260000D02*
X168500D01*
X167000Y258500D02*
Y261500D01*
X365500Y350000D02*
X368500D01*
X367000Y348500D02*
Y351500D01*
X365500Y340000D02*
X368500D01*
X367000Y338500D02*
Y341500D01*
X365500Y330000D02*
X368500D01*
X367000Y328500D02*
Y331500D01*
X365500Y320000D02*
X368500D01*
X367000Y318500D02*
Y321500D01*
X365500Y310000D02*
X368500D01*
X367000Y308500D02*
Y311500D01*
X365500Y300000D02*
X368500D01*
X367000Y298500D02*
Y301500D01*
X365500Y290000D02*
X368500D01*
X367000Y288500D02*
Y291500D01*
X365500Y280000D02*
X368500D01*
X367000Y278500D02*
Y281500D01*
X365500Y270000D02*
X368500D01*
X367000Y268500D02*
Y271500D01*
X365500Y260000D02*
X368500D01*
X367000Y258500D02*
Y261500D01*
X365500Y250000D02*
X368500D01*
X367000Y248500D02*
Y251500D01*
X365500Y240000D02*
X368500D01*
X367000Y238500D02*
Y241500D01*
X365500Y230000D02*
X368500D01*
X367000Y228500D02*
Y231500D01*
X365500Y220000D02*
X368500D01*
X367000Y218500D02*
Y221500D01*
X365500Y210000D02*
X368500D01*
X367000Y208500D02*
Y211500D01*
X365500Y200000D02*
X368500D01*
X367000Y198500D02*
Y201500D01*
X365500Y190000D02*
X368500D01*
X367000Y188500D02*
Y191500D01*
X365500Y180000D02*
X368500D01*
X367000Y178500D02*
Y181500D01*
X365500Y170000D02*
X368500D01*
X367000Y168500D02*
Y171500D01*
X365500Y160000D02*
X368500D01*
X367000Y158500D02*
Y161500D01*
X365500Y150000D02*
X368500D01*
X367000Y148500D02*
Y151500D01*
X365500Y140000D02*
X368500D01*
X367000Y138500D02*
Y141500D01*
X365500Y130000D02*
X368500D01*
X367000Y128500D02*
Y131500D01*
X355500Y350000D02*
X358500D01*
X357000Y348500D02*
Y351500D01*
X355500Y340000D02*
X358500D01*
X357000Y338500D02*
Y341500D01*
X355500Y330000D02*
X358500D01*
X357000Y328500D02*
Y331500D01*
X355500Y320000D02*
X358500D01*
X357000Y318500D02*
Y321500D01*
X355500Y310000D02*
X358500D01*
X357000Y308500D02*
Y311500D01*
X355500Y300000D02*
X358500D01*
X357000Y298500D02*
Y301500D01*
X355500Y290000D02*
X358500D01*
X357000Y288500D02*
Y291500D01*
X355500Y280000D02*
X358500D01*
X357000Y278500D02*
Y281500D01*
X355500Y270000D02*
X358500D01*
X357000Y268500D02*
Y271500D01*
X355500Y260000D02*
X358500D01*
X357000Y258500D02*
Y261500D01*
X355500Y250000D02*
X358500D01*
X357000Y248500D02*
Y251500D01*
X355500Y240000D02*
X358500D01*
X357000Y238500D02*
Y241500D01*
X355500Y230000D02*
X358500D01*
X357000Y228500D02*
Y231500D01*
X355500Y220000D02*
X358500D01*
X357000Y218500D02*
Y221500D01*
X355500Y210000D02*
X358500D01*
X357000Y208500D02*
Y211500D01*
X355500Y200000D02*
X358500D01*
X357000Y198500D02*
Y201500D01*
X355500Y190000D02*
X358500D01*
X357000Y188500D02*
Y191500D01*
X355500Y180000D02*
X358500D01*
X357000Y178500D02*
Y181500D01*
X355500Y170000D02*
X358500D01*
X357000Y168500D02*
Y171500D01*
X355500Y160000D02*
X358500D01*
X357000Y158500D02*
Y161500D01*
X355500Y150000D02*
X358500D01*
X357000Y148500D02*
Y151500D01*
X355500Y140000D02*
X358500D01*
X357000Y138500D02*
Y141500D01*
X355500Y130000D02*
X358500D01*
X357000Y128500D02*
Y131500D01*
X175500Y350000D02*
X178500D01*
X177000Y348500D02*
Y351500D01*
X175500Y340000D02*
X178500D01*
X177000Y338500D02*
Y341500D01*
X175500Y330000D02*
X178500D01*
X177000Y328500D02*
Y331500D01*
X175500Y320000D02*
X178500D01*
X177000Y318500D02*
Y321500D01*
X175500Y310000D02*
X178500D01*
X177000Y308500D02*
Y311500D01*
X175500Y300000D02*
X178500D01*
X177000Y298500D02*
Y301500D01*
X175500Y290000D02*
X178500D01*
X177000Y288500D02*
Y291500D01*
X175500Y280000D02*
X178500D01*
X177000Y278500D02*
Y281500D01*
X175500Y270000D02*
X178500D01*
X177000Y268500D02*
Y271500D01*
X175500Y260000D02*
X178500D01*
X177000Y258500D02*
Y261500D01*
X175500Y230000D02*
X178500D01*
X177000Y228500D02*
Y231500D01*
X175500Y220000D02*
X178500D01*
X177000Y218500D02*
Y221500D01*
X175500Y210000D02*
X178500D01*
X177000Y208500D02*
Y211500D01*
X175500Y200000D02*
X178500D01*
X177000Y198500D02*
Y201500D01*
X175500Y190000D02*
X178500D01*
X177000Y188500D02*
Y191500D01*
X175500Y180000D02*
X178500D01*
X177000Y178500D02*
Y181500D01*
X175500Y170000D02*
X178500D01*
X177000Y168500D02*
Y171500D01*
X175500Y160000D02*
X178500D01*
X177000Y158500D02*
Y161500D01*
X175500Y140000D02*
X178500D01*
X177000Y138500D02*
Y141500D01*
X175500Y130000D02*
X178500D01*
X177000Y128500D02*
Y131500D01*
X165500Y350000D02*
X168500D01*
X167000Y348500D02*
Y351500D01*
X165500Y340000D02*
X168500D01*
X167000Y338500D02*
Y341500D01*
X165500Y330000D02*
X168500D01*
X167000Y328500D02*
Y331500D01*
X165500Y320000D02*
X168500D01*
X167000Y318500D02*
Y321500D01*
X165500Y310000D02*
X168500D01*
X167000Y308500D02*
Y311500D01*
X165500Y300000D02*
X168500D01*
X167000Y298500D02*
Y301500D01*
X165500Y290000D02*
X168500D01*
X167000Y288500D02*
Y291500D01*
X165500Y280000D02*
X168500D01*
X167000Y278500D02*
Y281500D01*
X165500Y270000D02*
X168500D01*
X167000Y268500D02*
Y271500D01*
X165500Y240000D02*
X168500D01*
X167000Y238500D02*
Y241500D01*
X165500Y230000D02*
X168500D01*
X167000Y228500D02*
Y231500D01*
X165500Y220000D02*
X168500D01*
X167000Y218500D02*
Y221500D01*
X165500Y210000D02*
X168500D01*
X167000Y208500D02*
Y211500D01*
X165500Y200000D02*
X168500D01*
X167000Y198500D02*
Y201500D01*
X165500Y190000D02*
X168500D01*
X167000Y188500D02*
Y191500D01*
X165500Y170000D02*
X168500D01*
X167000Y168500D02*
Y171500D01*
X165500Y160000D02*
X168500D01*
X167000Y158500D02*
Y161500D01*
X165500Y140000D02*
X168500D01*
X167000Y138500D02*
Y141500D01*
X165500Y130000D02*
X168500D01*
X167000Y128500D02*
Y131500D01*
X343791Y370000D02*
X355209D01*
X349500Y364291D02*
Y375709D01*
X178791Y370000D02*
X190209D01*
X184500Y364291D02*
Y375709D01*
X356291Y110000D02*
X367709D01*
X362000Y104291D02*
Y115709D01*
X166291Y110000D02*
X177709D01*
X172000Y104291D02*
Y115709D01*
X163886Y20000D02*
X173374D01*
X168630Y15256D02*
Y24744D01*
X192626Y20000D02*
X202114D01*
X197370Y15256D02*
Y24744D01*
X13307Y380000D02*
X26693D01*
X20000Y373307D02*
Y386693D01*
X141626Y20000D02*
X151114D01*
X146370Y15256D02*
Y24744D01*
X112886Y20000D02*
X122374D01*
X117630Y15256D02*
Y24744D01*
X373307Y20000D02*
X386693D01*
X380000Y13307D02*
Y26693D01*
X373307Y380000D02*
X386693D01*
X380000Y373307D02*
Y386693D01*
X13307Y20000D02*
X26693D01*
X20000Y13307D02*
Y26693D01*
X42543Y74020D02*
X43543D01*
X43043Y73520D02*
Y74520D01*
X238543Y224020D02*
X239543D01*
X239043Y223520D02*
Y224520D01*
X243543Y223020D02*
X244543D01*
X244043Y222520D02*
Y223520D01*
X253743Y236535D02*
X254743D01*
X254242Y236035D02*
Y237035D01*
X256944Y236562D02*
X257944D01*
X257444Y236062D02*
Y237062D01*
X256116Y239047D02*
X257116D01*
X256616Y238546D02*
Y239546D01*
X246717Y90623D02*
X247717D01*
X247217Y90123D02*
Y91123D01*
X249721Y91320D02*
X250721D01*
X250221Y90820D02*
Y91820D01*
X251543Y87020D02*
X252543D01*
X252043Y86520D02*
Y87520D01*
X250543Y89020D02*
X251543D01*
X251043Y88520D02*
Y89520D01*
X36543Y77020D02*
X37543D01*
X37043Y76520D02*
Y77520D01*
X151543Y68020D02*
X152543D01*
X152043Y67520D02*
Y68520D01*
X151543Y76020D02*
X152543D01*
X152043Y75520D02*
Y76520D01*
X285047Y226758D02*
X286228D01*
X285637Y226167D02*
Y227348D01*
X285137Y181000D02*
X286137D01*
X285637Y180500D02*
Y181500D01*
X277806Y211000D02*
X278987D01*
X278396Y210409D02*
Y211591D01*
X126543Y81020D02*
X127543D01*
X127043Y80520D02*
Y81520D01*
X142500Y65000D02*
X143500D01*
X143000Y64500D02*
Y65500D01*
X142547Y131704D02*
X143547D01*
X143047Y131204D02*
Y132204D01*
X148500Y172000D02*
X149500D01*
X149000Y171500D02*
Y172500D01*
X71500Y67000D02*
X72500D01*
X72000Y66500D02*
Y67500D01*
X84500Y84000D02*
X85500D01*
X85000Y83500D02*
Y84500D01*
X252266Y242323D02*
X253266D01*
X252766Y241823D02*
Y242823D01*
X266591Y199819D02*
X267772D01*
X267181Y199228D02*
Y200409D01*
X134409Y103000D02*
X135591D01*
X135000Y102409D02*
Y103591D01*
X92500Y92000D02*
X93500D01*
X93000Y91500D02*
Y92500D01*
X120500Y85000D02*
X121500D01*
X121000Y84500D02*
Y85500D01*
X88963Y354689D02*
X89963D01*
X89463Y354188D02*
Y355188D01*
X107500Y365000D02*
X108500D01*
X108000Y364500D02*
Y365500D01*
X91500Y287000D02*
X92500D01*
X92000Y286500D02*
Y287500D01*
X103500Y296000D02*
X104500D01*
X104000Y295500D02*
Y296500D01*
X89500Y224000D02*
X90500D01*
X90000Y223500D02*
Y224500D01*
X101500Y235000D02*
X102500D01*
X102000Y234500D02*
Y235500D01*
X86500Y155000D02*
X87500D01*
X87000Y154500D02*
Y155500D01*
X100500Y161000D02*
X101500D01*
X101000Y160500D02*
Y161500D01*
X119409Y112000D02*
X120591D01*
X120000Y111409D02*
Y112591D01*
X260409Y233113D02*
X261591D01*
X261000Y232522D02*
Y233703D01*
X136500Y168000D02*
X137500D01*
X137000Y167500D02*
Y168500D01*
X110136Y334012D02*
X111136D01*
X110636Y333512D02*
Y334512D01*
X111136Y262012D02*
X112136D01*
X111636Y261512D02*
Y262512D01*
X114136Y204012D02*
X115136D01*
X114636Y203512D02*
Y204512D01*
X106136Y126012D02*
X107136D01*
X106636Y125512D02*
Y126512D01*
X126136Y117012D02*
X127136D01*
X126636Y116512D02*
Y117512D01*
X42136Y77012D02*
X43136D01*
X42636Y76512D02*
Y77512D01*
X39500Y80000D02*
X40500D01*
X40000Y79500D02*
Y80500D01*
X39500Y75000D02*
X40500D01*
X40000Y74500D02*
Y75500D01*
X240136Y222012D02*
X241136D01*
X240636Y221512D02*
Y222512D01*
X243659Y225818D02*
X244659D01*
X244159Y225318D02*
Y226318D01*
X241500Y225000D02*
X242500D01*
X242000Y224500D02*
Y225500D01*
X248136Y86012D02*
X249136D01*
X248636Y85512D02*
Y86512D01*
X247136Y88012D02*
X248136D01*
X247636Y87512D02*
Y88512D01*
X253595Y239109D02*
X254595D01*
X254095Y238610D02*
Y239610D01*
X251136Y239012D02*
X252136D01*
X251636Y238512D02*
Y239512D01*
X223410Y226000D02*
X224590D01*
X224000Y225410D02*
Y226590D01*
X225410Y229000D02*
X226590D01*
X226000Y228410D02*
Y229591D01*
X227410Y231000D02*
X228590D01*
X228000Y230410D02*
Y231591D01*
X126409Y91260D02*
X127591D01*
X127000Y90669D02*
Y91850D01*
X113136Y333012D02*
X114136D01*
X113636Y332512D02*
Y333512D01*
X107136Y332012D02*
X108136D01*
X107636Y331512D02*
Y332512D01*
X113238Y264621D02*
X114238D01*
X113738Y264121D02*
Y265121D01*
X108136Y264012D02*
X109136D01*
X108636Y263512D02*
Y264512D01*
X110136Y202012D02*
X111136D01*
X110636Y201512D02*
Y202512D01*
X115136Y201012D02*
X116136D01*
X115636Y200512D02*
Y201512D01*
X103136Y128012D02*
X104136D01*
X103636Y127512D02*
Y128512D01*
X108136Y128012D02*
X109136D01*
X108636Y127512D02*
Y128512D01*
X124136Y120012D02*
X125136D01*
X124636Y119512D02*
Y120512D01*
X129136Y120012D02*
X130136D01*
X129636Y119512D02*
Y120512D01*
X109409Y111000D02*
X110591D01*
X110000Y110409D02*
Y111591D01*
X103500Y287000D02*
X104500D01*
X104000Y286500D02*
Y287500D01*
X126500Y120000D02*
X127500D01*
X127000Y119500D02*
Y120500D01*
X110670Y264462D02*
X111670D01*
X111170Y263962D02*
Y264962D01*
X103713Y228826D02*
X104713D01*
X104213Y228326D02*
Y229326D01*
X112500Y201563D02*
X113500D01*
X113000Y201063D02*
Y202063D01*
X119387Y195000D02*
X120387D01*
X119887Y194500D02*
Y195500D01*
X211409Y221000D02*
X212591D01*
X212000Y220409D02*
Y221590D01*
X52500Y85991D02*
X53500D01*
X53000Y85491D02*
Y86491D01*
X133500Y237000D02*
X134500D01*
X134000Y236500D02*
Y237500D01*
X142500Y237726D02*
X143500D01*
X143000Y237226D02*
Y238226D01*
X134500Y243000D02*
X135500D01*
X135000Y242500D02*
Y243500D01*
X134500Y307000D02*
X135500D01*
X135000Y306500D02*
Y307500D01*
X134500Y301000D02*
X135500D01*
X135000Y300500D02*
Y301500D01*
X134500Y298000D02*
X135500D01*
X135000Y297500D02*
Y298500D01*
X136500Y375000D02*
X137500D01*
X137000Y374500D02*
Y375500D01*
X136500Y369000D02*
X137500D01*
X137000Y368500D02*
Y369500D01*
X192409Y138000D02*
X193591D01*
X193000Y137409D02*
Y138591D01*
X207410Y186000D02*
X208591D01*
X208000Y185409D02*
Y186591D01*
X223152Y233410D02*
X224333D01*
X223743Y232820D02*
Y234001D01*
X202409Y236000D02*
X203591D01*
X203000Y235409D02*
Y236591D01*
X224410Y236000D02*
X225590D01*
X225000Y235409D02*
Y236591D01*
X219595Y30883D02*
X220777D01*
X220186Y30293D02*
Y31474D01*
X214409Y223000D02*
X215591D01*
X215000Y222410D02*
Y223590D01*
X222410Y189000D02*
X223590D01*
X223000Y188409D02*
Y189591D01*
X64500Y132000D02*
X65500D01*
X65000Y131500D02*
Y132500D01*
X105500Y128000D02*
X106500D01*
X106000Y127500D02*
Y128500D01*
X124500Y195000D02*
X125500D01*
X125000Y194500D02*
Y195500D01*
X121500Y162000D02*
X122500D01*
X122000Y161500D02*
Y162500D01*
X124500Y190000D02*
X125500D01*
X125000Y189500D02*
Y190500D01*
X110500Y331000D02*
X111500D01*
X111000Y330500D02*
Y331500D01*
X107500Y359000D02*
X108500D01*
X108000Y358500D02*
Y359500D01*
X129500Y361000D02*
X130500D01*
X130000Y360500D02*
Y361500D01*
X154806Y304867D02*
X155987D01*
X155397Y304277D02*
Y305458D01*
X143500Y302000D02*
X144500D01*
X144000Y301500D02*
Y302500D01*
X128500Y294000D02*
X129500D01*
X129000Y293500D02*
Y294500D01*
X127595Y229883D02*
X128777D01*
X128186Y229293D02*
Y230474D01*
X101595Y111148D02*
X102777D01*
X102186Y110557D02*
Y111738D01*
X238409Y181000D02*
X239591D01*
X239000Y180409D02*
Y181591D01*
X259891Y194519D02*
X261072D01*
X260481Y193928D02*
Y195109D01*
X118500Y190000D02*
X119500D01*
X119000Y189500D02*
Y190500D01*
X144781Y370033D02*
X145781D01*
X145281Y369533D02*
Y370533D01*
X151251Y203826D02*
X152251D01*
X151751Y203326D02*
Y204326D01*
X153251Y242826D02*
X154251D01*
X153751Y242326D02*
Y243326D01*
X133251Y233826D02*
X134251D01*
X133751Y233326D02*
Y234326D01*
X146547Y262704D02*
X147547D01*
X147047Y262204D02*
Y263204D01*
X104547Y155704D02*
X105547D01*
X105047Y155204D02*
Y156204D01*
X127547Y164704D02*
X128547D01*
X128047Y164204D02*
Y165204D01*
X127547Y168704D02*
X128547D01*
X128047Y168204D02*
Y169204D01*
X127547Y172704D02*
X128547D01*
X128047Y172204D02*
Y173204D01*
X149547Y331704D02*
X150547D01*
X150047Y331204D02*
Y332204D01*
X156547Y371704D02*
X157547D01*
X157047Y371204D02*
Y372204D01*
X136547Y365704D02*
X137547D01*
X137047Y365204D02*
Y366204D01*
X67517Y330625D02*
X68517D01*
X68017Y330125D02*
Y331125D01*
X64517Y325625D02*
X65517D01*
X65017Y325125D02*
Y326125D01*
X59517Y325625D02*
X60517D01*
X60017Y325125D02*
Y326125D01*
X54517Y325625D02*
X55517D01*
X55017Y325125D02*
Y326125D01*
X52517Y330625D02*
X53517D01*
X53017Y330125D02*
Y331125D01*
X59517Y335625D02*
X60517D01*
X60017Y335125D02*
Y336125D01*
X64517Y335625D02*
X65517D01*
X65017Y335125D02*
Y336125D01*
X54517Y335625D02*
X55517D01*
X55017Y335125D02*
Y336125D01*
X49251Y342826D02*
X50251D01*
X49751Y342326D02*
Y343326D01*
X46251Y337826D02*
X47251D01*
X46751Y337326D02*
Y338326D01*
X41251Y337826D02*
X42251D01*
X41751Y337326D02*
Y338326D01*
X36251Y337826D02*
X37251D01*
X36751Y337326D02*
Y338326D01*
X34251Y342826D02*
X35251D01*
X34751Y342326D02*
Y343326D01*
X41251Y347826D02*
X42251D01*
X41751Y347326D02*
Y348326D01*
X46251Y347826D02*
X47251D01*
X46751Y347326D02*
Y348326D01*
X36251Y347826D02*
X37251D01*
X36751Y347326D02*
Y348326D01*
X48828Y287959D02*
X49828D01*
X49328Y287459D02*
Y288459D01*
X45828Y282959D02*
X46828D01*
X46328Y282459D02*
Y283459D01*
X40828Y282959D02*
X41828D01*
X41328Y282459D02*
Y283459D01*
X35828Y282959D02*
X36828D01*
X36328Y282459D02*
Y283459D01*
X33828Y287959D02*
X34828D01*
X34328Y287459D02*
Y288459D01*
X40828Y292959D02*
X41828D01*
X41328Y292459D02*
Y293459D01*
X45828Y292959D02*
X46828D01*
X46328Y292459D02*
Y293459D01*
X35828Y292959D02*
X36828D01*
X36328Y292459D02*
Y293459D01*
X67235Y275617D02*
X68235D01*
X67735Y275117D02*
Y276117D01*
X64235Y270617D02*
X65235D01*
X64735Y270117D02*
Y271117D01*
X59235Y270617D02*
X60235D01*
X59735Y270117D02*
Y271117D01*
X54235Y270617D02*
X55235D01*
X54735Y270117D02*
Y271117D01*
X52235Y275617D02*
X53235D01*
X52735Y275117D02*
Y276117D01*
X59235Y280617D02*
X60235D01*
X59735Y280117D02*
Y281117D01*
X64235Y280617D02*
X65235D01*
X64735Y280117D02*
Y281117D01*
X54235Y280617D02*
X55235D01*
X54735Y280117D02*
Y281117D01*
X67094Y221596D02*
X68094D01*
X67594Y221096D02*
Y222096D01*
X64094Y216596D02*
X65094D01*
X64594Y216096D02*
Y217096D01*
X59094Y216596D02*
X60094D01*
X59594Y216096D02*
Y217096D01*
X54094Y216596D02*
X55094D01*
X54594Y216096D02*
Y217096D01*
X52094Y221596D02*
X53094D01*
X52594Y221096D02*
Y222096D01*
X59094Y226596D02*
X60094D01*
X59594Y226096D02*
Y227096D01*
X64094Y226596D02*
X65094D01*
X64594Y226096D02*
Y227096D01*
X54094Y226596D02*
X55094D01*
X54594Y226096D02*
Y227096D01*
X49181Y233585D02*
X50181D01*
X49681Y233085D02*
Y234085D01*
X46181Y228585D02*
X47181D01*
X46681Y228085D02*
Y229085D01*
X41181Y228585D02*
X42181D01*
X41681Y228085D02*
Y229085D01*
X36181Y228585D02*
X37181D01*
X36681Y228085D02*
Y229085D01*
X34181Y233585D02*
X35181D01*
X34681Y233085D02*
Y234085D01*
X41181Y238585D02*
X42181D01*
X41681Y238085D02*
Y239085D01*
X46181Y238585D02*
X47181D01*
X46681Y238085D02*
Y239085D01*
X36181Y238585D02*
X37181D01*
X36681Y238085D02*
Y239085D01*
X67275Y166627D02*
X68275D01*
X67775Y166127D02*
Y167127D01*
X64275Y161627D02*
X65275D01*
X64775Y161127D02*
Y162127D01*
X59275Y161627D02*
X60275D01*
X59775Y161127D02*
Y162127D01*
X54275Y161627D02*
X55275D01*
X54775Y161127D02*
Y162127D01*
X52275Y166627D02*
X53275D01*
X52775Y166127D02*
Y167127D01*
X59275Y171627D02*
X60275D01*
X59775Y171127D02*
Y172127D01*
X64275Y171627D02*
X65275D01*
X64775Y171127D02*
Y172127D01*
X54275Y171627D02*
X55275D01*
X54775Y171127D02*
Y172127D01*
X48841Y178840D02*
X49841D01*
X49341Y178340D02*
Y179340D01*
X45841Y173840D02*
X46841D01*
X46341Y173340D02*
Y174340D01*
X40841Y173840D02*
X41841D01*
X41341Y173340D02*
Y174340D01*
X35841Y173840D02*
X36841D01*
X36341Y173340D02*
Y174340D01*
X33841Y178840D02*
X34841D01*
X34341Y178340D02*
Y179340D01*
X40841Y183840D02*
X41841D01*
X41341Y183340D02*
Y184340D01*
X45841Y183840D02*
X46841D01*
X46341Y183340D02*
Y184340D01*
X35841Y183840D02*
X36841D01*
X36341Y183340D02*
Y184340D01*
X54624Y114439D02*
X55624D01*
X55124Y113939D02*
Y114939D01*
X29500Y99000D02*
X30500D01*
X30000Y98500D02*
Y99500D01*
X25500Y99000D02*
X26500D01*
X26000Y98500D02*
Y99500D01*
X25500Y95000D02*
X26500D01*
X26000Y94500D02*
Y95500D01*
X29500Y95000D02*
X30500D01*
X30000Y94500D02*
Y95500D01*
X17500Y79000D02*
X18500D01*
X18000Y78500D02*
Y79500D01*
X40624Y107439D02*
X41624D01*
X41124Y106939D02*
Y107939D01*
X96543Y88020D02*
X97543D01*
X97043Y87520D02*
Y88520D01*
X146543Y105020D02*
X147543D01*
X147043Y104520D02*
Y105520D01*
X188500Y42000D02*
X189500D01*
X189000Y41500D02*
Y42500D01*
X76500Y13000D02*
X77500D01*
X77000Y12500D02*
Y13500D01*
X132500Y55000D02*
X133500D01*
X133000Y54500D02*
Y55500D01*
X130500Y47000D02*
X131500D01*
X131000Y46500D02*
Y47500D01*
X244409Y198000D02*
X245590D01*
X245000Y197409D02*
Y198591D01*
X132500Y65000D02*
X133500D01*
X133000Y64500D02*
Y65500D01*
X233410Y244000D02*
X234591D01*
X234000Y243409D02*
Y244590D01*
X254410Y224000D02*
X255591D01*
X255000Y223410D02*
Y224590D01*
X137500Y52000D02*
X138500D01*
X138000Y51500D02*
Y52500D01*
X132500Y60000D02*
X133500D01*
X133000Y59500D02*
Y60500D01*
X137500Y68000D02*
X138500D01*
X138000Y67500D02*
Y68500D01*
X142500Y60000D02*
X143500D01*
X143000Y59500D02*
Y60500D01*
X142500Y55000D02*
X143500D01*
X143000Y54500D02*
Y55500D01*
X130500Y37000D02*
X131500D01*
X131000Y36500D02*
Y37500D01*
X130500Y42000D02*
X131500D01*
X131000Y41500D02*
Y42500D01*
X125500Y49000D02*
X126500D01*
X126000Y48500D02*
Y49500D01*
X120500Y47000D02*
X121500D01*
X121000Y46500D02*
Y47500D01*
X120500Y42000D02*
X121500D01*
X121000Y41500D02*
Y42500D01*
X120500Y37000D02*
X121500D01*
X121000Y36500D02*
Y37500D01*
X125500Y34000D02*
X126500D01*
X126000Y33500D02*
Y34500D01*
M02*
