G04*
G04 #@! TF.GenerationSoftware,Altium Limited,Altium Designer,25.3.3 (18)*
G04*
G04 Layer_Physical_Order=1*
G04 Layer_Color=1250303*
%FSLAX25Y25*%
%MOIN*%
G70*
G04*
G04 #@! TF.SameCoordinates,2C78717C-F5E3-4C58-9D65-8300EA0D7612*
G04*
G04*
G04 #@! TF.FilePolarity,Positive*
G04*
G01*
G75*
%ADD13C,0.01000*%
%ADD18R,0.05709X0.03937*%
%ADD19R,0.06890X0.04331*%
%ADD20R,0.03740X0.03937*%
%ADD21R,0.02244X0.02441*%
%ADD22R,0.03937X0.05709*%
%ADD23R,0.02756X0.00984*%
%ADD24R,0.02756X0.00984*%
G04:AMPARAMS|DCode=25|XSize=129.92mil|YSize=66.93mil|CornerRadius=1.67mil|HoleSize=0mil|Usage=FLASHONLY|Rotation=270.000|XOffset=0mil|YOffset=0mil|HoleType=Round|Shape=RoundedRectangle|*
%AMROUNDEDRECTD25*
21,1,0.12992,0.06358,0,0,270.0*
21,1,0.12658,0.06693,0,0,270.0*
1,1,0.00335,-0.03179,-0.06329*
1,1,0.00335,-0.03179,0.06329*
1,1,0.00335,0.03179,0.06329*
1,1,0.00335,0.03179,-0.06329*
%
%ADD25ROUNDEDRECTD25*%
%ADD26R,0.04331X0.02362*%
%ADD27R,0.02441X0.02244*%
%ADD28R,0.03937X0.03740*%
%ADD29R,0.05118X0.10630*%
%ADD30R,0.10630X0.05118*%
%ADD31R,0.07087X0.04528*%
%ADD32R,0.04528X0.07087*%
G04:AMPARAMS|DCode=33|XSize=65.17mil|YSize=23.72mil|CornerRadius=11.86mil|HoleSize=0mil|Usage=FLASHONLY|Rotation=270.000|XOffset=0mil|YOffset=0mil|HoleType=Round|Shape=RoundedRectangle|*
%AMROUNDEDRECTD33*
21,1,0.06517,0.00000,0,0,270.0*
21,1,0.04145,0.02372,0,0,270.0*
1,1,0.02372,0.00000,-0.02072*
1,1,0.02372,0.00000,0.02072*
1,1,0.02372,0.00000,0.02072*
1,1,0.02372,0.00000,-0.02072*
%
%ADD33ROUNDEDRECTD33*%
G04:AMPARAMS|DCode=34|XSize=65.17mil|YSize=23.72mil|CornerRadius=11.86mil|HoleSize=0mil|Usage=FLASHONLY|Rotation=180.000|XOffset=0mil|YOffset=0mil|HoleType=Round|Shape=RoundedRectangle|*
%AMROUNDEDRECTD34*
21,1,0.06517,0.00000,0,0,180.0*
21,1,0.04145,0.02372,0,0,180.0*
1,1,0.02372,-0.02072,0.00000*
1,1,0.02372,0.02072,0.00000*
1,1,0.02372,0.02072,0.00000*
1,1,0.02372,-0.02072,0.00000*
%
%ADD34ROUNDEDRECTD34*%
%ADD35R,0.06299X0.01181*%
%ADD36R,0.05000X0.09646*%
%ADD37R,0.11496X0.05000*%
%ADD38R,0.05402X0.02795*%
%ADD39R,0.02323X0.02795*%
%ADD40R,0.15158X0.17795*%
%ADD41R,0.06517X0.02372*%
%ADD42R,0.02372X0.06517*%
%ADD43R,0.05630X0.21654*%
%ADD44R,0.09843X0.13780*%
G04:AMPARAMS|DCode=45|XSize=43.31mil|YSize=23.62mil|CornerRadius=2.01mil|HoleSize=0mil|Usage=FLASHONLY|Rotation=180.000|XOffset=0mil|YOffset=0mil|HoleType=Round|Shape=RoundedRectangle|*
%AMROUNDEDRECTD45*
21,1,0.04331,0.01961,0,0,180.0*
21,1,0.03929,0.02362,0,0,180.0*
1,1,0.00402,-0.01965,0.00980*
1,1,0.00402,0.01965,0.00980*
1,1,0.00402,0.01965,-0.00980*
1,1,0.00402,-0.01965,-0.00980*
%
%ADD45ROUNDEDRECTD45*%
%ADD46R,0.02362X0.04331*%
%ADD47R,0.01181X0.06299*%
%ADD48R,0.06693X0.09843*%
%ADD49R,0.02756X0.00984*%
%ADD50R,0.00984X0.02756*%
%ADD51R,0.09646X0.09646*%
%ADD52R,0.05000X0.11496*%
%ADD53R,0.09646X0.05000*%
%ADD92C,0.05000*%
%ADD93C,0.02000*%
%ADD94C,0.10000*%
%ADD95C,0.03000*%
%ADD96C,0.01500*%
%ADD97C,0.02500*%
%ADD98C,0.04000*%
%ADD99C,0.07874*%
%ADD100C,0.06000*%
%ADD101C,0.24410*%
%ADD102C,0.25591*%
%ADD103C,0.02200*%
G36*
X392683Y398844D02*
X394356Y398150D01*
X395863Y397144D01*
X397144Y395863D01*
X398150Y394356D01*
X398844Y392683D01*
X399197Y390906D01*
Y390000D01*
X399197Y10000D01*
Y9094D01*
X398844Y7317D01*
X398150Y5644D01*
X397144Y4137D01*
X395863Y2856D01*
X394356Y1850D01*
X392683Y1156D01*
X390906Y803D01*
X9094D01*
X7317Y1156D01*
X5644Y1850D01*
X4137Y2856D01*
X2856Y4137D01*
X1850Y5644D01*
X1156Y7317D01*
X803Y9094D01*
Y10000D01*
Y390000D01*
Y390906D01*
X1156Y392683D01*
X1850Y394356D01*
X2856Y395863D01*
X4137Y397144D01*
X5644Y398150D01*
X7317Y398844D01*
X9094Y399197D01*
X390906D01*
X392683Y398844D01*
D02*
G37*
%LPC*%
G36*
X151368Y381120D02*
X146632D01*
Y377878D01*
X145612Y376858D01*
X142818D01*
X142514Y376798D01*
X140931D01*
X140931Y375013D01*
X140931Y374513D01*
Y373045D01*
X142823D01*
X142839Y373042D01*
X146891D01*
Y371392D01*
X146391Y371185D01*
X146187Y371390D01*
X145599Y371633D01*
X144962D01*
X144374Y371390D01*
X143924Y370940D01*
X143918Y370925D01*
X143587D01*
X143419Y370892D01*
X140931D01*
Y369108D01*
X143498D01*
X143587Y369090D01*
X143961D01*
X144374Y368677D01*
X144962Y368433D01*
X145599D01*
X146187Y368677D01*
X146391Y368881D01*
X146891Y368844D01*
X147007Y368844D01*
X151628D01*
Y375353D01*
X147409D01*
X147202Y375853D01*
X147929Y376580D01*
X151368D01*
Y378082D01*
X153490D01*
Y377478D01*
X156731D01*
Y380522D01*
X153490D01*
Y379918D01*
X151368D01*
Y381120D01*
D02*
G37*
G36*
X145000Y397433D02*
X62000D01*
X61694Y397306D01*
X54694Y390306D01*
X54567Y390000D01*
Y342207D01*
X54511Y342123D01*
X46821Y334433D01*
X37479D01*
X37000Y334433D01*
X36931Y334404D01*
X36862Y334433D01*
X36000D01*
X35694Y334306D01*
X35567Y334000D01*
Y330179D01*
X34694Y329306D01*
X34567Y329000D01*
X34694Y328694D01*
X35694Y327694D01*
X36000Y327567D01*
X49000D01*
X49306Y327694D01*
X49433Y328000D01*
Y331821D01*
X56179Y338567D01*
X68000D01*
X68306Y338694D01*
X68433Y339000D01*
Y346000D01*
X68306Y346306D01*
X66306Y348306D01*
X66000Y348433D01*
X64433D01*
Y385821D01*
X67179Y388567D01*
X113821D01*
X120694Y381694D01*
X121000Y381567D01*
X128567D01*
Y375433D01*
X122179D01*
X117433Y380179D01*
Y384000D01*
X117306Y384306D01*
X116306Y385306D01*
X116000Y385433D01*
X108000D01*
X107694Y385306D01*
X106821Y384433D01*
X75000Y384433D01*
X74694Y384306D01*
X74567Y384000D01*
Y361000D01*
X74694Y360694D01*
X75000Y360567D01*
X94000D01*
X94306Y360694D01*
X94433Y361000D01*
Y378821D01*
X96179Y380567D01*
X97196D01*
X97584Y380298D01*
Y378918D01*
X97000D01*
X96649Y378848D01*
X96351Y378649D01*
X95351Y377649D01*
X95152Y377351D01*
X95082Y377000D01*
Y360380D01*
X94620Y359918D01*
X80000D01*
X79649Y359848D01*
X79351Y359649D01*
X74351Y354649D01*
X74152Y354351D01*
X74082Y354000D01*
Y343000D01*
X74152Y342649D01*
X74351Y342351D01*
X81335Y335367D01*
X81633Y335168D01*
X81643Y335166D01*
Y331609D01*
X81766Y330990D01*
X82116Y330465D01*
X82641Y330115D01*
X83260Y329992D01*
X83879Y330115D01*
X84403Y330465D01*
X84754Y330990D01*
X84877Y331609D01*
Y335753D01*
X84754Y336372D01*
X84403Y336897D01*
X83879Y337247D01*
X83260Y337370D01*
X82641Y337247D01*
X82287Y337011D01*
X75918Y343380D01*
Y353620D01*
X80380Y358082D01*
X95000D01*
X95351Y358152D01*
X95649Y358351D01*
X96105Y358807D01*
X96567Y358616D01*
Y357179D01*
X92694Y353306D01*
X92567Y353000D01*
Y352780D01*
X92067Y352629D01*
X91897Y352884D01*
X91372Y353234D01*
X91044Y353299D01*
X90881Y353650D01*
X90846Y353847D01*
X91063Y354370D01*
Y355007D01*
X90820Y355595D01*
X90370Y356045D01*
X89781Y356289D01*
X89145D01*
X88557Y356045D01*
X88107Y355595D01*
X87863Y355007D01*
Y354370D01*
X88082Y353841D01*
Y353357D01*
X86609D01*
X85990Y353234D01*
X85465Y352884D01*
X85115Y352359D01*
X84992Y351740D01*
X85115Y351121D01*
X85465Y350597D01*
X85990Y350246D01*
X86609Y350123D01*
X90753D01*
X91372Y350246D01*
X91897Y350597D01*
X92067Y350852D01*
X92567Y350700D01*
Y349433D01*
X88000D01*
X87694Y349306D01*
X84931Y346544D01*
X84560Y346573D01*
X84354Y347063D01*
X84566Y347381D01*
X84689Y348000D01*
X84566Y348619D01*
X84216Y349143D01*
X83691Y349494D01*
X83072Y349617D01*
X78928D01*
X78309Y349494D01*
X77784Y349143D01*
X77434Y348619D01*
X77311Y348000D01*
X77434Y347381D01*
X77784Y346857D01*
X78309Y346506D01*
X78928Y346383D01*
X83072D01*
X83195Y346407D01*
X83561Y346007D01*
X83567Y345972D01*
Y344179D01*
X82694Y343306D01*
X82567Y343000D01*
X82694Y342694D01*
X87567Y337821D01*
Y330086D01*
X87339Y329803D01*
X87168Y329656D01*
X87000Y329689D01*
X86381Y329566D01*
X85857Y329216D01*
X85506Y328691D01*
X85383Y328072D01*
Y323928D01*
X85506Y323309D01*
X85757Y322933D01*
X85563Y322463D01*
X85536Y322433D01*
X69000D01*
X68694Y322306D01*
X58694Y312306D01*
X58567Y312000D01*
Y291433D01*
X54000D01*
X53694Y291306D01*
X53567Y291000D01*
Y287179D01*
X45821Y279433D01*
X36000D01*
X35694Y279306D01*
X35567Y279000D01*
Y273000D01*
X35694Y272694D01*
X36000Y272567D01*
X48000D01*
X48306Y272694D01*
X48433Y273000D01*
Y276821D01*
X56179Y284567D01*
X66000D01*
X66306Y284694D01*
X66433Y285000D01*
Y291000D01*
X66306Y291306D01*
X66000Y291433D01*
X63433D01*
Y310821D01*
X70179Y317567D01*
X91000D01*
X91306Y317694D01*
X94179Y320567D01*
X110821D01*
X112694Y318694D01*
X113000Y318567D01*
X118821D01*
X123694Y313694D01*
X124000Y313567D01*
X125821D01*
X128388Y311000D01*
X126694Y309306D01*
X126371Y309242D01*
X119306Y316306D01*
X119000Y316433D01*
X73000D01*
X72694Y316306D01*
X72567Y316000D01*
Y295000D01*
X72694Y294694D01*
X73306Y294082D01*
X73612Y293955D01*
X91950D01*
X92181Y293479D01*
X91620Y292918D01*
X82000D01*
X81649Y292848D01*
X81351Y292649D01*
X73351Y284649D01*
X73152Y284351D01*
X73082Y284000D01*
Y279000D01*
X73152Y278649D01*
X73351Y278351D01*
X82351Y269351D01*
X82649Y269152D01*
X83000Y269082D01*
X85633D01*
X85784Y268857D01*
X86309Y268506D01*
X86928Y268383D01*
X91072D01*
X91691Y268506D01*
X92067Y268757D01*
X92537Y268563D01*
X92567Y268536D01*
Y265179D01*
X92491Y265103D01*
X85128D01*
X84860Y265603D01*
X84885Y265641D01*
X85009Y266260D01*
X84885Y266879D01*
X84535Y267403D01*
X84010Y267754D01*
X83391Y267877D01*
X79247D01*
X78628Y267754D01*
X78103Y267403D01*
X77753Y266879D01*
X77630Y266260D01*
X77753Y265641D01*
X78103Y265116D01*
X78628Y264766D01*
X79247Y264643D01*
X83391D01*
X83808Y264726D01*
X84231Y264432D01*
X84285Y264350D01*
Y260718D01*
X83877Y260437D01*
X83868Y260433D01*
X69179D01*
X68306Y261306D01*
X68000Y261433D01*
X67694Y261306D01*
X53556Y247168D01*
X53429Y246862D01*
Y233198D01*
X46694Y226463D01*
X46681Y226433D01*
X34000D01*
X33694Y226306D01*
X33567Y226000D01*
Y218000D01*
X33694Y217694D01*
X34000Y217567D01*
X49000D01*
X49306Y217694D01*
X49433Y218000D01*
Y223260D01*
X55744Y229571D01*
X56990D01*
X57000Y229567D01*
X67000D01*
X67306Y229694D01*
X67433Y230000D01*
Y237000D01*
X67306Y237306D01*
X67000Y237433D01*
X63433D01*
Y247821D01*
X71179Y255567D01*
X72248D01*
X72455Y255067D01*
X68694Y251306D01*
X68567Y251000D01*
Y230000D01*
X68694Y229694D01*
X69000Y229567D01*
X87124D01*
X87391Y229067D01*
X87290Y228918D01*
X74586D01*
X74235Y228848D01*
X73937Y228649D01*
X71351Y226063D01*
X71152Y225765D01*
X71082Y225414D01*
Y217000D01*
X71152Y216649D01*
X71351Y216351D01*
X81351Y206351D01*
X81649Y206152D01*
X82000Y206082D01*
X83633D01*
X83784Y205857D01*
X84309Y205506D01*
X84928Y205383D01*
X89072D01*
X89691Y205506D01*
X90067Y205757D01*
X90537Y205563D01*
X90567Y205536D01*
Y202433D01*
X84000D01*
X83694Y202306D01*
X82694Y201306D01*
X82567Y201000D01*
Y198433D01*
X78000D01*
X77694Y198306D01*
X62821Y183433D01*
X55000D01*
X54694Y183306D01*
X53694Y182306D01*
X53567Y182000D01*
Y178179D01*
X45821Y170433D01*
X36000D01*
X35694Y170306D01*
X35567Y170000D01*
Y164000D01*
X35694Y163694D01*
X36000Y163567D01*
X48000D01*
X48306Y163694D01*
X48433Y164000D01*
Y167821D01*
X56179Y175567D01*
X67000D01*
X67306Y175694D01*
X67433Y176000D01*
Y179821D01*
X79000Y191388D01*
X79694Y190694D01*
X80000Y190567D01*
X110821D01*
X119567Y181821D01*
Y175465D01*
X119067Y175258D01*
X115433Y178892D01*
Y185000D01*
X115306Y185306D01*
X113306Y187306D01*
X113240Y187333D01*
X113194Y187387D01*
X113093Y187394D01*
X113000Y187433D01*
X112934Y187406D01*
X112863Y187411D01*
X109924Y186431D01*
X73988Y185433D01*
X73842Y185368D01*
X73694Y185306D01*
X70694Y182306D01*
X70567Y182000D01*
Y162000D01*
X70694Y161694D01*
X71000Y161567D01*
X92000D01*
X92082Y161512D01*
Y160966D01*
X92034Y160918D01*
X73000D01*
X72649Y160848D01*
X72351Y160649D01*
X67351Y155649D01*
X67152Y155351D01*
X67082Y155000D01*
Y150000D01*
X67152Y149649D01*
X67351Y149351D01*
X76342Y140360D01*
Y137048D01*
X76116Y136897D01*
X75766Y136372D01*
X75643Y135753D01*
Y131609D01*
X75766Y130990D01*
X76116Y130465D01*
X76641Y130115D01*
X77260Y129992D01*
X77879Y130115D01*
X78403Y130465D01*
X78754Y130990D01*
X78877Y131609D01*
Y135753D01*
X78754Y136372D01*
X78403Y136897D01*
X78177Y137048D01*
Y140740D01*
X78108Y141091D01*
X77909Y141389D01*
X68918Y150380D01*
Y154620D01*
X73380Y159082D01*
X92049D01*
X92256Y158582D01*
X90107Y156433D01*
X88859D01*
X88818Y156416D01*
X88774Y156425D01*
X88669Y156354D01*
X88553Y156306D01*
X88140Y156205D01*
X88065Y156198D01*
X87906Y156356D01*
X87318Y156600D01*
X86682D01*
X86094Y156356D01*
X85644Y155906D01*
X85594Y155788D01*
X84961D01*
X84897Y155884D01*
X84372Y156234D01*
X83753Y156357D01*
X79609D01*
X78990Y156234D01*
X78465Y155884D01*
X78115Y155359D01*
X77991Y154740D01*
X78115Y154121D01*
X78465Y153597D01*
X78990Y153246D01*
X79609Y153123D01*
X83753D01*
X84372Y153246D01*
X84897Y153597D01*
X85134Y153952D01*
X85785D01*
X86094Y153644D01*
X86543Y153457D01*
X86567Y153400D01*
Y151179D01*
X84821Y149433D01*
X78000D01*
X77694Y149306D01*
X77567Y149000D01*
Y148179D01*
X76694Y147306D01*
X76567Y147000D01*
X76694Y146694D01*
X80694Y142694D01*
X81000Y142567D01*
X82567D01*
Y129482D01*
X82363Y129353D01*
X82067Y129267D01*
X81619Y129566D01*
X81000Y129689D01*
X80381Y129566D01*
X79857Y129216D01*
X79506Y128691D01*
X79383Y128072D01*
Y124584D01*
X79335Y124546D01*
X78917Y124331D01*
X78868Y124328D01*
X78761Y124276D01*
X78720Y124269D01*
X78706Y124250D01*
X78590Y124202D01*
X61694Y107306D01*
X61567Y107000D01*
X61567Y88000D01*
X61694Y87694D01*
X62000Y87567D01*
X76000D01*
X76306Y87694D01*
X76433Y88000D01*
Y88702D01*
X79991D01*
X80182Y88240D01*
X77926Y85985D01*
X77068D01*
X76716Y85915D01*
X76419Y85716D01*
X73278Y82576D01*
X73072Y82617D01*
X68928D01*
X68309Y82494D01*
X67784Y82143D01*
X67434Y81619D01*
X67311Y81000D01*
X67434Y80381D01*
X67784Y79857D01*
X68309Y79506D01*
X68928Y79383D01*
X73072D01*
X73691Y79506D01*
X74216Y79857D01*
X74566Y80381D01*
X74689Y81000D01*
X74624Y81327D01*
X77448Y84150D01*
X78307D01*
X78658Y84220D01*
X78956Y84419D01*
X83649Y89112D01*
X83848Y89410D01*
X83918Y89761D01*
Y104034D01*
X84085Y104201D01*
X84799D01*
X84805Y103702D01*
X84673Y103257D01*
X84567Y103000D01*
Y88179D01*
X72821Y76433D01*
X67315D01*
X67294Y76443D01*
X66938Y76907D01*
X67009Y77260D01*
X66885Y77879D01*
X66535Y78403D01*
X66010Y78754D01*
X65391Y78877D01*
X61247D01*
X60628Y78754D01*
X60103Y78403D01*
X59753Y77879D01*
X59630Y77260D01*
X59753Y76641D01*
X60103Y76116D01*
X60628Y75766D01*
X61247Y75643D01*
X65391D01*
X66010Y75766D01*
X66067Y75804D01*
X66567Y75537D01*
Y72000D01*
X66577Y71977D01*
X66570Y71952D01*
X66639Y71826D01*
X66694Y71694D01*
X66717Y71684D01*
X66729Y71662D01*
X70698Y68487D01*
X70725Y67988D01*
X70644Y67906D01*
X70509Y67582D01*
X70498Y67571D01*
X69115D01*
X68520Y67689D01*
X67901Y67566D01*
X67376Y67216D01*
X67026Y66691D01*
X66903Y66072D01*
Y61928D01*
X67026Y61309D01*
X67376Y60784D01*
X67901Y60434D01*
X68520Y60311D01*
X69138Y60434D01*
X69663Y60784D01*
X70014Y61309D01*
X70137Y61928D01*
Y64716D01*
X71089D01*
X71089Y64716D01*
X71636Y64825D01*
X72052Y65103D01*
X72167Y65112D01*
X72634Y64962D01*
X74593Y59520D01*
X74637Y59471D01*
X74654Y59407D01*
X79654Y52740D01*
X79681Y52724D01*
X79694Y52694D01*
X79821Y52641D01*
X79939Y52571D01*
X79970Y52579D01*
X80000Y52567D01*
X85862D01*
X86089Y52160D01*
X85763Y51798D01*
X80899D01*
Y48202D01*
X87101D01*
Y50500D01*
X89649Y53048D01*
X89848Y53346D01*
X89918Y53697D01*
Y66620D01*
X90157Y66859D01*
X90274Y66865D01*
X90706Y66481D01*
X90706Y66338D01*
Y48202D01*
X91996D01*
Y47365D01*
X92123Y47058D01*
X92429Y46932D01*
X115429D01*
X115735Y47058D01*
X121608Y52932D01*
X127329D01*
X134968Y45292D01*
Y42535D01*
X135005Y42348D01*
Y35387D01*
X140805D01*
Y47684D01*
X138056D01*
X129862Y55878D01*
Y67185D01*
X139735Y77059D01*
X139862Y77365D01*
Y85365D01*
X139735Y85671D01*
X139429Y85798D01*
X138835D01*
X138368Y85879D01*
X138368Y86298D01*
Y88853D01*
X138427Y89150D01*
Y92490D01*
X138522D01*
Y95731D01*
X135478D01*
Y95731D01*
X134978Y95607D01*
X133195Y97390D01*
X133195Y97892D01*
X133630Y98051D01*
X135478D01*
Y96269D01*
X138522D01*
Y96972D01*
X141478D01*
Y96269D01*
X144522D01*
Y99510D01*
X141478D01*
Y98807D01*
X138522D01*
Y99510D01*
X136677D01*
X136570Y99617D01*
X136272Y99816D01*
X135921Y99886D01*
X132295D01*
X132167Y99861D01*
X129639D01*
X129639Y98076D01*
X129639Y97576D01*
Y96108D01*
X131882D01*
X134315Y93675D01*
X134613Y93476D01*
X134964Y93406D01*
X135478D01*
Y92490D01*
X135573D01*
Y90420D01*
X133632D01*
X133632Y85879D01*
X133165Y85798D01*
X131429D01*
X131123Y85671D01*
X130996Y85365D01*
Y78544D01*
X120429Y67977D01*
X119735Y68671D01*
X119429Y68798D01*
X110682D01*
Y76303D01*
X112302Y77922D01*
X112666Y78468D01*
X112794Y79112D01*
X112666Y79756D01*
X112539Y79946D01*
Y91490D01*
X113512D01*
Y87059D01*
X113529Y86970D01*
Y79285D01*
X119447D01*
Y83583D01*
X119947Y83790D01*
X120094Y83644D01*
X120682Y83400D01*
X121318D01*
X121906Y83644D01*
X122356Y84094D01*
X122600Y84682D01*
Y85318D01*
X122356Y85906D01*
X121906Y86356D01*
X121318Y86600D01*
X120682D01*
X120094Y86356D01*
X119947Y86210D01*
X119447Y86417D01*
Y90715D01*
X115347D01*
Y91490D01*
X115522D01*
Y92193D01*
X116056D01*
X116407Y92263D01*
X116704Y92461D01*
X120351Y96108D01*
X121778D01*
Y97892D01*
X121778D01*
X121778Y98076D01*
X121778Y98392D01*
Y99861D01*
X121778Y99861D01*
Y100045D01*
X121778D01*
X121778Y100361D01*
Y101567D01*
X121915D01*
X122222Y101694D01*
X122348Y102000D01*
Y103539D01*
X122323Y103601D01*
X122329Y103667D01*
X122191Y104110D01*
X122124Y104191D01*
X122084Y104288D01*
X122022Y104314D01*
X121980Y104365D01*
X121875Y104375D01*
X121778Y104415D01*
Y105450D01*
X121778Y105766D01*
X121778D01*
Y105950D01*
X121778Y105950D01*
X121778Y107735D01*
X121778Y108235D01*
Y109703D01*
X119290D01*
X119122Y109737D01*
X118498D01*
X114258Y113977D01*
Y115911D01*
X114276Y116000D01*
X114258Y116089D01*
X114258Y117809D01*
X114714Y117916D01*
X116380Y117917D01*
X118136Y116161D01*
X119264Y115296D01*
X119657Y115133D01*
X120323Y114622D01*
X121637Y114078D01*
X123047Y113892D01*
X136632D01*
Y112768D01*
X134686D01*
X134335Y112698D01*
X134037Y112499D01*
X131241Y109703D01*
X129639D01*
X129639Y107919D01*
X129639Y107419D01*
Y105950D01*
X131469D01*
X131655Y105913D01*
X137276D01*
Y101436D01*
X142013D01*
Y107945D01*
X137276D01*
Y107749D01*
X133625D01*
X133195Y107919D01*
X133195Y108249D01*
Y109062D01*
X135066Y110933D01*
X136632D01*
Y109580D01*
X141368D01*
Y110933D01*
X143839D01*
X144190Y111003D01*
X144487Y111202D01*
X144776Y111490D01*
X146522D01*
Y114731D01*
X143478D01*
Y112787D01*
X143458Y112768D01*
X141368D01*
Y114120D01*
X140425D01*
X140328Y114611D01*
X140354Y114622D01*
X141482Y115487D01*
X142348Y116615D01*
X142892Y117929D01*
X143077Y119339D01*
X142892Y120748D01*
X142348Y122062D01*
X141482Y123190D01*
X140354Y124056D01*
X139040Y124600D01*
X137631Y124785D01*
X127225D01*
X126046Y125273D01*
X124636Y125459D01*
X124244D01*
X123318Y126385D01*
X123801Y132567D01*
X139000Y132567D01*
X139306Y132694D01*
X143306Y136694D01*
X143433Y137000D01*
Y147503D01*
X143879Y147632D01*
X143933Y147632D01*
X148420D01*
Y152368D01*
X147067D01*
Y153862D01*
X146997Y154213D01*
X146799Y154511D01*
X141522Y159787D01*
Y161731D01*
X138478D01*
Y161028D01*
X137270D01*
X135487Y162811D01*
X135487Y163987D01*
X135920Y164146D01*
X138445D01*
X138478Y164114D01*
Y162269D01*
X141522D01*
Y162972D01*
X143478D01*
Y162269D01*
X146522D01*
Y165510D01*
X143478D01*
Y164807D01*
X141522D01*
Y165510D01*
X139677D01*
X139474Y165713D01*
X139177Y165912D01*
X138826Y165982D01*
X137615D01*
X137516Y166482D01*
X137906Y166644D01*
X138356Y167094D01*
X138529Y167511D01*
X138786Y167747D01*
X139062Y167844D01*
X143628D01*
Y174353D01*
X139409D01*
X139202Y174853D01*
X139929Y175580D01*
X143368D01*
Y177082D01*
X144490D01*
Y176478D01*
X147731D01*
Y179522D01*
X144490D01*
Y178918D01*
X143368D01*
Y180121D01*
X138631D01*
Y176878D01*
X137591Y175837D01*
X134015D01*
X133816Y175798D01*
X131931D01*
X131931Y174013D01*
X131931Y173513D01*
Y172045D01*
X133813D01*
X133824Y172043D01*
X135497D01*
X137090Y170450D01*
X137388Y170251D01*
X137739Y170181D01*
X138891D01*
Y168921D01*
X138391Y168822D01*
X138356Y168906D01*
X137906Y169356D01*
X137318Y169600D01*
X136682D01*
X136463Y169510D01*
X136332Y169641D01*
X136034Y169840D01*
X135683Y169910D01*
X133748D01*
X133709Y169918D01*
X133580Y169892D01*
X131931D01*
Y168108D01*
X133549D01*
X133716Y168075D01*
X135303D01*
X135400Y167978D01*
Y167682D01*
X135644Y167094D01*
X136094Y166644D01*
X136484Y166482D01*
X136385Y165982D01*
X134587D01*
X134452Y165955D01*
X131931D01*
X131931Y164171D01*
X131931Y163671D01*
Y162202D01*
X133500D01*
X136241Y159461D01*
X136539Y159263D01*
X136890Y159193D01*
X138478D01*
Y158490D01*
X140224D01*
X145232Y153482D01*
Y152368D01*
X143933D01*
X143879Y152368D01*
X143433Y152497D01*
Y153000D01*
X143306Y153306D01*
X143000Y153433D01*
X123179D01*
X120433Y156179D01*
Y160597D01*
X120933Y160804D01*
X121094Y160644D01*
X121682Y160400D01*
X122318D01*
X122906Y160644D01*
X123356Y161094D01*
X123600Y161682D01*
Y162202D01*
X124069D01*
Y163596D01*
X124306Y163694D01*
X124433Y164000D01*
Y166000D01*
X124306Y166306D01*
X124069Y166404D01*
Y167596D01*
X124306Y167694D01*
X124433Y168000D01*
Y170000D01*
X124306Y170306D01*
X124069Y170404D01*
Y171596D01*
X124306Y171694D01*
X124433Y172000D01*
Y173699D01*
X124400Y173779D01*
X124400Y173865D01*
X124387Y173897D01*
X124338Y173945D01*
X124355Y173984D01*
X124425Y174089D01*
X124416Y174133D01*
X124433Y174174D01*
Y175821D01*
X130701Y182089D01*
X137746D01*
X138495Y181341D01*
X138801Y181214D01*
X138866Y181241D01*
X143379D01*
X143685Y181367D01*
X143812Y181674D01*
Y186621D01*
X143685Y186927D01*
X143306Y187306D01*
X143000Y187433D01*
X128000D01*
X127694Y187306D01*
X126000Y185612D01*
X122992Y188620D01*
X123183Y189082D01*
X123655D01*
X124094Y188644D01*
X124682Y188400D01*
X125318D01*
X125906Y188644D01*
X126356Y189094D01*
X126600Y189682D01*
Y190318D01*
X126356Y190906D01*
X125906Y191356D01*
X125318Y191600D01*
X124682D01*
X124094Y191356D01*
X123655Y190918D01*
X120345D01*
X119906Y191356D01*
X119318Y191600D01*
X118862D01*
X118765Y192085D01*
X118695Y192190D01*
X118647Y192306D01*
X118606Y192323D01*
X118581Y192360D01*
X118457Y192385D01*
X118341Y192433D01*
X116433D01*
Y196469D01*
X116410Y196525D01*
X116417Y196584D01*
X116349Y196672D01*
X116306Y196776D01*
X116285Y197019D01*
X116330Y197311D01*
X116851Y197712D01*
X117717Y198840D01*
X118261Y200153D01*
X118447Y201563D01*
Y202567D01*
X121385D01*
X121712Y201777D01*
X122578Y200649D01*
X123567Y199659D01*
Y198000D01*
X123694Y197694D01*
X124374Y197014D01*
X124257Y196424D01*
X124094Y196356D01*
X123655Y195918D01*
X121232D01*
X120794Y196356D01*
X120206Y196600D01*
X119569D01*
X118981Y196356D01*
X118531Y195906D01*
X118287Y195318D01*
Y194682D01*
X118531Y194094D01*
X118981Y193644D01*
X119569Y193400D01*
X120206D01*
X120794Y193644D01*
X121232Y194082D01*
X123655D01*
X124094Y193644D01*
X124682Y193400D01*
X125318D01*
X125906Y193644D01*
X126356Y194094D01*
X126600Y194682D01*
Y195285D01*
X132447D01*
Y195567D01*
X133000D01*
X133306Y195694D01*
X133433Y196000D01*
Y200268D01*
X133749Y201031D01*
X133935Y202441D01*
X133749Y203851D01*
X133433Y204614D01*
Y204821D01*
X136179Y207567D01*
X136211D01*
X136315Y207553D01*
X142834D01*
X143694Y206694D01*
X144000Y206567D01*
X150000D01*
X150306Y206694D01*
X150433Y207000D01*
Y212000D01*
X150306Y212306D01*
X149628Y212984D01*
Y213156D01*
X149456D01*
X149433Y213179D01*
Y218810D01*
X149921Y219030D01*
X150880Y218071D01*
Y214632D01*
X155420D01*
Y219369D01*
X152177D01*
X146918Y224628D01*
Y230490D01*
X147522D01*
Y233731D01*
X144478D01*
Y233028D01*
X143533D01*
X143494Y233079D01*
X143349Y233528D01*
X144073Y234252D01*
X145378D01*
X145467Y234269D01*
X147522D01*
Y234917D01*
X149478D01*
Y234159D01*
X152522D01*
Y237400D01*
X149478D01*
Y236752D01*
X147522D01*
Y237510D01*
X144600Y237510D01*
X144600Y237562D01*
Y238044D01*
X144356Y238632D01*
X143906Y239082D01*
X143318Y239326D01*
X142682D01*
X142094Y239082D01*
X141921Y238910D01*
X140587D01*
X140498Y238892D01*
X137931D01*
Y237108D01*
X140419D01*
X140587Y237074D01*
X141538D01*
X141644Y236820D01*
X142094Y236369D01*
X142682Y236126D01*
X142852Y235626D01*
X142207Y234981D01*
X139709D01*
X139580Y234955D01*
X137931D01*
X137931Y233171D01*
X137931Y232671D01*
Y231202D01*
X139574D01*
X139649Y231152D01*
X140000Y231082D01*
X140351Y231152D01*
X140412Y231193D01*
X144478D01*
Y230490D01*
X145082D01*
Y224248D01*
X145152Y223897D01*
X145351Y223599D01*
X148030Y220921D01*
X147810Y220433D01*
X144000D01*
X143694Y220306D01*
X141834Y218447D01*
X138212D01*
X137874Y218557D01*
X137410Y218749D01*
X137200Y218777D01*
X137000Y218842D01*
X129138Y220310D01*
X128904Y220323D01*
X128677Y220376D01*
X128188Y220425D01*
X126433Y222179D01*
Y228720D01*
X126453Y228733D01*
X126933Y228873D01*
X127280Y228527D01*
X127868Y228283D01*
X128504D01*
X129092Y228527D01*
X129542Y228977D01*
X129786Y229565D01*
Y230202D01*
X129578Y230702D01*
X129783Y231202D01*
X130069D01*
Y232596D01*
X130306Y232694D01*
X130433Y233000D01*
Y235000D01*
X130306Y235306D01*
X130069Y235404D01*
Y236924D01*
X130069Y236924D01*
X130236Y237355D01*
X130247Y237382D01*
X130312Y237529D01*
X130310Y237534D01*
X130312Y237540D01*
Y238707D01*
X130254Y238849D01*
X130254Y238849D01*
X130203Y238994D01*
X130203Y238994D01*
X130190Y239002D01*
X130185Y239013D01*
X130069Y239076D01*
Y240851D01*
X130081Y240862D01*
X130166Y241068D01*
Y241154D01*
X130199Y241234D01*
Y242519D01*
X130306Y242694D01*
X130347Y242793D01*
X130415Y242875D01*
X130621Y243563D01*
X130615Y243628D01*
X130640Y243688D01*
Y244243D01*
X130718Y244432D01*
X130987Y244543D01*
X131037Y244593D01*
X131142Y244637D01*
X135073Y248567D01*
X141000D01*
X141306Y248694D01*
X142306Y249694D01*
X142433Y250000D01*
Y255000D01*
X142306Y255306D01*
X142000Y255433D01*
X124179D01*
X117306Y262306D01*
X117259Y262326D01*
X117065Y262895D01*
X117138Y262990D01*
X117682Y264304D01*
X117717Y264567D01*
X125000D01*
X125306Y264694D01*
X127179Y266567D01*
X131270D01*
X132277Y265795D01*
X133590Y265251D01*
X135000Y265065D01*
X144532D01*
X145941Y265251D01*
X147255Y265795D01*
X148383Y266660D01*
X148851Y267129D01*
X149275Y267681D01*
X149306Y267694D01*
X149331Y267754D01*
X149717Y268257D01*
X150261Y269571D01*
X150447Y270980D01*
X150261Y272390D01*
X149717Y273704D01*
X149433Y274074D01*
Y276000D01*
X149306Y276306D01*
X148433Y277179D01*
Y278502D01*
X148880Y278631D01*
X148933Y278631D01*
X153420D01*
Y283368D01*
X152067D01*
Y289862D01*
X151997Y290213D01*
X151798Y290511D01*
X147522Y294788D01*
Y296731D01*
X146138D01*
X146065Y296770D01*
X146352Y297269D01*
X147522D01*
Y297972D01*
X148478D01*
Y297269D01*
X151522D01*
Y300510D01*
X148478D01*
Y299807D01*
X147522D01*
Y300510D01*
X145480D01*
X145273Y301010D01*
X145356Y301094D01*
X145450Y301321D01*
X145605Y301682D01*
X146062Y301746D01*
X150368D01*
Y308254D01*
X145632D01*
Y305918D01*
X144646D01*
X143915Y306649D01*
X143617Y306848D01*
X143266Y306918D01*
X142643D01*
X142195Y307045D01*
X142195Y307418D01*
Y308829D01*
X141879D01*
X141687Y309291D01*
X145028Y312632D01*
X147281D01*
X147370Y312614D01*
X147990D01*
X149380Y311224D01*
Y309478D01*
X152620D01*
Y312522D01*
X150677D01*
X149019Y314180D01*
X148721Y314379D01*
X148370Y314449D01*
X148270D01*
Y317369D01*
X143730D01*
Y313929D01*
X142933Y313132D01*
X142433Y313339D01*
Y318000D01*
X142306Y318306D01*
X142000Y318433D01*
X136000D01*
X135694Y318306D01*
X132000Y314612D01*
X128306Y318306D01*
X128000Y318433D01*
X125179D01*
X121433Y322179D01*
Y326000D01*
X121306Y326306D01*
X121000Y326433D01*
X114696D01*
X114536Y326906D01*
X114851Y327149D01*
X115717Y328277D01*
X116261Y329590D01*
X116447Y331000D01*
Y332567D01*
X144000D01*
X144306Y332694D01*
X150306Y338694D01*
X150433Y339000D01*
Y343896D01*
X150447Y344000D01*
X150433Y344104D01*
Y345896D01*
X150447Y346000D01*
Y349000D01*
X150433Y349104D01*
Y356000D01*
X150306Y356306D01*
X150000Y356433D01*
X145000D01*
X144694Y356306D01*
X142694Y354306D01*
X142567Y354000D01*
Y353837D01*
X142277Y353717D01*
X141907Y353433D01*
X129433D01*
Y359234D01*
X129682Y359400D01*
X130318D01*
X130906Y359644D01*
X131356Y360094D01*
X131600Y360682D01*
Y361318D01*
X131356Y361906D01*
X131109Y362154D01*
Y363105D01*
X131157Y363177D01*
X131291D01*
X131420Y363202D01*
X133069D01*
Y364596D01*
X133306Y364694D01*
X133433Y365000D01*
Y367000D01*
X133306Y367306D01*
X133069Y367404D01*
Y368596D01*
X133306Y368694D01*
X133433Y369000D01*
Y371000D01*
X133306Y371306D01*
X133069Y371404D01*
Y372596D01*
X133306Y372694D01*
X133433Y373000D01*
Y375000D01*
X133347Y375207D01*
X133365Y375251D01*
X133435Y375356D01*
X133427Y375399D01*
X133444Y375440D01*
Y377831D01*
X138179Y382567D01*
X153000D01*
X153306Y382694D01*
X153433Y383000D01*
Y386821D01*
X154306Y387694D01*
X154433Y388000D01*
X154306Y388306D01*
X145306Y397306D01*
X145000Y397433D01*
D02*
G37*
G36*
X150522Y367510D02*
X147478D01*
Y366807D01*
X144487D01*
Y366955D01*
X143039D01*
X142820Y366999D01*
X142600Y366955D01*
X140931D01*
Y365487D01*
X140931Y365171D01*
X140931D01*
Y364987D01*
X140931D01*
Y363202D01*
X142500D01*
X144241Y361461D01*
X144539Y361262D01*
X144890Y361193D01*
X147478D01*
Y360490D01*
X149224D01*
X153232Y356482D01*
Y354368D01*
X151880D01*
Y349632D01*
X156420D01*
Y354368D01*
X155067D01*
Y356862D01*
X154997Y357213D01*
X154798Y357511D01*
X150522Y361788D01*
Y363731D01*
X147478D01*
Y363028D01*
X145270D01*
X144487Y363811D01*
Y364972D01*
X147478D01*
Y364269D01*
X150522D01*
Y364917D01*
X152478D01*
Y364159D01*
X155522D01*
Y367400D01*
X152478D01*
Y366752D01*
X150522D01*
Y367510D01*
D02*
G37*
G36*
X381038Y393195D02*
X378961D01*
X376910Y392870D01*
X374935Y392229D01*
X373084Y391286D01*
X371404Y390065D01*
X369935Y388596D01*
X368714Y386916D01*
X367772Y385065D01*
X367130Y383090D01*
X366805Y381038D01*
Y378961D01*
X367130Y376910D01*
X367772Y374935D01*
X368714Y373084D01*
X369935Y371404D01*
X371404Y369935D01*
X373084Y368714D01*
X374935Y367772D01*
X376910Y367130D01*
X378961Y366805D01*
X381038D01*
X383090Y367130D01*
X385065Y367772D01*
X386916Y368714D01*
X388596Y369935D01*
X390065Y371404D01*
X391286Y373084D01*
X392229Y374935D01*
X392870Y376910D01*
X393195Y378961D01*
Y381038D01*
X392870Y383090D01*
X392229Y385065D01*
X391286Y386916D01*
X390065Y388596D01*
X388596Y390065D01*
X386916Y391286D01*
X385065Y392229D01*
X383090Y392870D01*
X381038Y393195D01*
D02*
G37*
G36*
X21038D02*
X18961D01*
X16910Y392870D01*
X14935Y392229D01*
X13084Y391286D01*
X11404Y390065D01*
X9935Y388596D01*
X8714Y386916D01*
X7772Y385065D01*
X7130Y383090D01*
X6805Y381038D01*
Y378961D01*
X7130Y376910D01*
X7772Y374935D01*
X8714Y373084D01*
X9935Y371404D01*
X11404Y369935D01*
X13084Y368714D01*
X14935Y367772D01*
X16910Y367130D01*
X18961Y366805D01*
X21038D01*
X23090Y367130D01*
X25065Y367772D01*
X26916Y368714D01*
X28596Y369935D01*
X30065Y371404D01*
X31286Y373084D01*
X32228Y374935D01*
X32870Y376910D01*
X33195Y378961D01*
Y381038D01*
X32870Y383090D01*
X32228Y385065D01*
X31286Y386916D01*
X30065Y388596D01*
X28596Y390065D01*
X26916Y391286D01*
X25065Y392229D01*
X23090Y392870D01*
X21038Y393195D01*
D02*
G37*
G36*
X350492Y382605D02*
X348508D01*
X346548Y382294D01*
X344661Y381681D01*
X342894Y380781D01*
X341289Y379614D01*
X339886Y378211D01*
X338720Y376606D01*
X337819Y374838D01*
X337206Y372952D01*
X336895Y370992D01*
Y369008D01*
X337206Y367048D01*
X337819Y365161D01*
X338720Y363394D01*
X339886Y361789D01*
X341289Y360386D01*
X342894Y359220D01*
X344661Y358319D01*
X346548Y357706D01*
X348508Y357395D01*
X350492D01*
X352452Y357706D01*
X354339Y358319D01*
X356106Y359220D01*
X357711Y360386D01*
X359114Y361789D01*
X360280Y363394D01*
X361181Y365161D01*
X361794Y367048D01*
X362105Y369008D01*
Y370992D01*
X361794Y372952D01*
X361181Y374838D01*
X360280Y376606D01*
X359114Y378211D01*
X357711Y379614D01*
X356106Y380781D01*
X354339Y381681D01*
X352452Y382294D01*
X350492Y382605D01*
D02*
G37*
G36*
X185492D02*
X183508D01*
X181548Y382294D01*
X179662Y381681D01*
X177894Y380781D01*
X176289Y379614D01*
X174886Y378211D01*
X173720Y376606D01*
X172819Y374838D01*
X172206Y372952D01*
X171895Y370992D01*
Y369008D01*
X172206Y367048D01*
X172819Y365161D01*
X173720Y363394D01*
X174886Y361789D01*
X176289Y360386D01*
X177894Y359220D01*
X179662Y358319D01*
X181548Y357706D01*
X183508Y357395D01*
X185492D01*
X187452Y357706D01*
X189339Y358319D01*
X191106Y359220D01*
X192711Y360386D01*
X194114Y361789D01*
X195281Y363394D01*
X196181Y365161D01*
X196794Y367048D01*
X197105Y369008D01*
Y370992D01*
X196794Y372952D01*
X196181Y374838D01*
X195281Y376606D01*
X194114Y378211D01*
X192711Y379614D01*
X191106Y380781D01*
X189339Y381681D01*
X187452Y382294D01*
X185492Y382605D01*
D02*
G37*
G36*
X35711Y361416D02*
X29911D01*
Y350970D01*
X35711D01*
Y361416D01*
D02*
G37*
G36*
X367448Y353400D02*
X366552D01*
X365688Y353168D01*
X364912Y352721D01*
X364279Y352088D01*
X363832Y351312D01*
X363600Y350448D01*
Y349552D01*
X363832Y348688D01*
X364279Y347912D01*
X364912Y347279D01*
X365688Y346832D01*
X366552Y346600D01*
X367448D01*
X368312Y346832D01*
X369088Y347279D01*
X369721Y347912D01*
X370168Y348688D01*
X370400Y349552D01*
Y350448D01*
X370168Y351312D01*
X369721Y352088D01*
X369088Y352721D01*
X368312Y353168D01*
X367448Y353400D01*
D02*
G37*
G36*
X357448D02*
X356552D01*
X355688Y353168D01*
X354912Y352721D01*
X354279Y352088D01*
X353832Y351312D01*
X353600Y350448D01*
Y349552D01*
X353832Y348688D01*
X354279Y347912D01*
X354912Y347279D01*
X355688Y346832D01*
X356552Y346600D01*
X357448D01*
X358312Y346832D01*
X359088Y347279D01*
X359721Y347912D01*
X360168Y348688D01*
X360400Y349552D01*
Y350448D01*
X360168Y351312D01*
X359721Y352088D01*
X359088Y352721D01*
X358312Y353168D01*
X357448Y353400D01*
D02*
G37*
G36*
X21754Y357098D02*
X20246D01*
X18789Y356708D01*
X17483Y355954D01*
X16416Y354887D01*
X15662Y353581D01*
X15272Y352124D01*
Y350616D01*
X15662Y349159D01*
X16416Y347853D01*
X17483Y346786D01*
X18789Y346032D01*
X20246Y345642D01*
X21754D01*
X23211Y346032D01*
X24517Y346786D01*
X25584Y347853D01*
X26338Y349159D01*
X26728Y350616D01*
Y352124D01*
X26338Y353581D01*
X25584Y354887D01*
X24517Y355954D01*
X23211Y356708D01*
X21754Y357098D01*
D02*
G37*
G36*
X367448Y343400D02*
X366552D01*
X365688Y343168D01*
X364912Y342721D01*
X364279Y342088D01*
X363832Y341312D01*
X363600Y340448D01*
Y339552D01*
X363832Y338688D01*
X364279Y337912D01*
X364912Y337279D01*
X365688Y336832D01*
X366552Y336600D01*
X367448D01*
X368312Y336832D01*
X369088Y337279D01*
X369721Y337912D01*
X370168Y338688D01*
X370400Y339552D01*
Y340448D01*
X370168Y341312D01*
X369721Y342088D01*
X369088Y342721D01*
X368312Y343168D01*
X367448Y343400D01*
D02*
G37*
G36*
X357448D02*
X356552D01*
X355688Y343168D01*
X354912Y342721D01*
X354279Y342088D01*
X353832Y341312D01*
X353600Y340448D01*
Y339552D01*
X353832Y338688D01*
X354279Y337912D01*
X354912Y337279D01*
X355688Y336832D01*
X356552Y336600D01*
X357448D01*
X358312Y336832D01*
X359088Y337279D01*
X359721Y337912D01*
X360168Y338688D01*
X360400Y339552D01*
Y340448D01*
X360168Y341312D01*
X359721Y342088D01*
X359088Y342721D01*
X358312Y343168D01*
X357448Y343400D01*
D02*
G37*
G36*
X367448Y333400D02*
X366552D01*
X365688Y333168D01*
X364912Y332721D01*
X364279Y332088D01*
X363832Y331312D01*
X363600Y330448D01*
Y329552D01*
X363832Y328688D01*
X364279Y327912D01*
X364912Y327279D01*
X365688Y326832D01*
X366552Y326600D01*
X367448D01*
X368312Y326832D01*
X369088Y327279D01*
X369721Y327912D01*
X370168Y328688D01*
X370400Y329552D01*
Y330448D01*
X370168Y331312D01*
X369721Y332088D01*
X369088Y332721D01*
X368312Y333168D01*
X367448Y333400D01*
D02*
G37*
G36*
X357448D02*
X356552D01*
X355688Y333168D01*
X354912Y332721D01*
X354279Y332088D01*
X353832Y331312D01*
X353600Y330448D01*
Y329552D01*
X353832Y328688D01*
X354279Y327912D01*
X354912Y327279D01*
X355688Y326832D01*
X356552Y326600D01*
X357448D01*
X358312Y326832D01*
X359088Y327279D01*
X359721Y327912D01*
X360168Y328688D01*
X360400Y329552D01*
Y330448D01*
X360168Y331312D01*
X359721Y332088D01*
X359088Y332721D01*
X358312Y333168D01*
X357448Y333400D01*
D02*
G37*
G36*
X177448D02*
X176552D01*
X175688Y333168D01*
X174912Y332721D01*
X174279Y332088D01*
X173832Y331312D01*
X173600Y330448D01*
Y329552D01*
X173832Y328688D01*
X174279Y327912D01*
X174912Y327279D01*
X175688Y326832D01*
X176552Y326600D01*
X177448D01*
X178312Y326832D01*
X179088Y327279D01*
X179721Y327912D01*
X180168Y328688D01*
X180400Y329552D01*
Y330448D01*
X180168Y331312D01*
X179721Y332088D01*
X179088Y332721D01*
X178312Y333168D01*
X177448Y333400D01*
D02*
G37*
G36*
X167448D02*
X166552D01*
X165688Y333168D01*
X164912Y332721D01*
X164279Y332088D01*
X163832Y331312D01*
X163600Y330448D01*
Y329552D01*
X163832Y328688D01*
X164279Y327912D01*
X164912Y327279D01*
X165688Y326832D01*
X166552Y326600D01*
X167448D01*
X168312Y326832D01*
X169088Y327279D01*
X169721Y327912D01*
X170168Y328688D01*
X170400Y329552D01*
Y330448D01*
X170168Y331312D01*
X169721Y332088D01*
X169088Y332721D01*
X168312Y333168D01*
X167448Y333400D01*
D02*
G37*
G36*
X21754Y328358D02*
X20246D01*
X18789Y327968D01*
X17483Y327214D01*
X16416Y326147D01*
X15662Y324841D01*
X15272Y323384D01*
Y321876D01*
X15662Y320419D01*
X16416Y319113D01*
X17483Y318046D01*
X18789Y317292D01*
X20246Y316902D01*
X21754D01*
X23211Y317292D01*
X24517Y318046D01*
X25584Y319113D01*
X26338Y320419D01*
X26728Y321876D01*
Y323384D01*
X26338Y324841D01*
X25584Y326147D01*
X24517Y327214D01*
X23211Y327968D01*
X21754Y328358D01*
D02*
G37*
G36*
X367448Y323400D02*
X366552D01*
X365688Y323168D01*
X364912Y322721D01*
X364279Y322088D01*
X363832Y321312D01*
X363600Y320448D01*
Y319552D01*
X363832Y318688D01*
X364279Y317912D01*
X364912Y317279D01*
X365688Y316832D01*
X366552Y316600D01*
X367448D01*
X368312Y316832D01*
X369088Y317279D01*
X369721Y317912D01*
X370168Y318688D01*
X370400Y319552D01*
Y320448D01*
X370168Y321312D01*
X369721Y322088D01*
X369088Y322721D01*
X368312Y323168D01*
X367448Y323400D01*
D02*
G37*
G36*
X357448D02*
X356552D01*
X355688Y323168D01*
X354912Y322721D01*
X354279Y322088D01*
X353832Y321312D01*
X353600Y320448D01*
Y319552D01*
X353832Y318688D01*
X354279Y317912D01*
X354912Y317279D01*
X355688Y316832D01*
X356552Y316600D01*
X357448D01*
X358312Y316832D01*
X359088Y317279D01*
X359721Y317912D01*
X360168Y318688D01*
X360400Y319552D01*
Y320448D01*
X360168Y321312D01*
X359721Y322088D01*
X359088Y322721D01*
X358312Y323168D01*
X357448Y323400D01*
D02*
G37*
G36*
X177448D02*
X176552D01*
X175688Y323168D01*
X174912Y322721D01*
X174279Y322088D01*
X173832Y321312D01*
X173600Y320448D01*
Y319552D01*
X173832Y318688D01*
X174279Y317912D01*
X174912Y317279D01*
X175688Y316832D01*
X176552Y316600D01*
X177448D01*
X178312Y316832D01*
X179088Y317279D01*
X179721Y317912D01*
X180168Y318688D01*
X180400Y319552D01*
Y320448D01*
X180168Y321312D01*
X179721Y322088D01*
X179088Y322721D01*
X178312Y323168D01*
X177448Y323400D01*
D02*
G37*
G36*
X167448D02*
X166552D01*
X165688Y323168D01*
X164912Y322721D01*
X164279Y322088D01*
X163832Y321312D01*
X163600Y320448D01*
Y319552D01*
X163832Y318688D01*
X164279Y317912D01*
X164912Y317279D01*
X165688Y316832D01*
X166552Y316600D01*
X167448D01*
X168312Y316832D01*
X169088Y317279D01*
X169721Y317912D01*
X170168Y318688D01*
X170400Y319552D01*
Y320448D01*
X170168Y321312D01*
X169721Y322088D01*
X169088Y322721D01*
X168312Y323168D01*
X167448Y323400D01*
D02*
G37*
G36*
X35711Y323030D02*
X29911D01*
Y312584D01*
X35711D01*
Y323030D01*
D02*
G37*
G36*
X367448Y313400D02*
X366552D01*
X365688Y313168D01*
X364912Y312721D01*
X364279Y312088D01*
X363832Y311312D01*
X363600Y310448D01*
Y309552D01*
X363832Y308688D01*
X364279Y307912D01*
X364912Y307279D01*
X365688Y306832D01*
X366552Y306600D01*
X367448D01*
X368312Y306832D01*
X369088Y307279D01*
X369721Y307912D01*
X370168Y308688D01*
X370400Y309552D01*
Y310448D01*
X370168Y311312D01*
X369721Y312088D01*
X369088Y312721D01*
X368312Y313168D01*
X367448Y313400D01*
D02*
G37*
G36*
X357448D02*
X356552D01*
X355688Y313168D01*
X354912Y312721D01*
X354279Y312088D01*
X353832Y311312D01*
X353600Y310448D01*
Y309552D01*
X353832Y308688D01*
X354279Y307912D01*
X354912Y307279D01*
X355688Y306832D01*
X356552Y306600D01*
X357448D01*
X358312Y306832D01*
X359088Y307279D01*
X359721Y307912D01*
X360168Y308688D01*
X360400Y309552D01*
Y310448D01*
X360168Y311312D01*
X359721Y312088D01*
X359088Y312721D01*
X358312Y313168D01*
X357448Y313400D01*
D02*
G37*
G36*
X177448D02*
X176552D01*
X175688Y313168D01*
X174912Y312721D01*
X174279Y312088D01*
X173832Y311312D01*
X173600Y310448D01*
Y309552D01*
X173832Y308688D01*
X174279Y307912D01*
X174912Y307279D01*
X175688Y306832D01*
X176552Y306600D01*
X177448D01*
X178312Y306832D01*
X179088Y307279D01*
X179721Y307912D01*
X180168Y308688D01*
X180400Y309552D01*
Y310448D01*
X180168Y311312D01*
X179721Y312088D01*
X179088Y312721D01*
X178312Y313168D01*
X177448Y313400D01*
D02*
G37*
G36*
X167448D02*
X166552D01*
X165688Y313168D01*
X164912Y312721D01*
X164279Y312088D01*
X163832Y311312D01*
X163600Y310448D01*
Y309552D01*
X163832Y308688D01*
X164279Y307912D01*
X164912Y307279D01*
X165688Y306832D01*
X166552Y306600D01*
X167448D01*
X168312Y306832D01*
X169088Y307279D01*
X169721Y307912D01*
X170168Y308688D01*
X170400Y309552D01*
Y310448D01*
X170168Y311312D01*
X169721Y312088D01*
X169088Y312721D01*
X168312Y313168D01*
X167448Y313400D01*
D02*
G37*
G36*
X367448Y303400D02*
X366552D01*
X365688Y303168D01*
X364912Y302721D01*
X364279Y302088D01*
X363832Y301312D01*
X363600Y300448D01*
Y299552D01*
X363832Y298688D01*
X364279Y297912D01*
X364912Y297279D01*
X365688Y296832D01*
X366552Y296600D01*
X367448D01*
X368312Y296832D01*
X369088Y297279D01*
X369721Y297912D01*
X370168Y298688D01*
X370400Y299552D01*
Y300448D01*
X370168Y301312D01*
X369721Y302088D01*
X369088Y302721D01*
X368312Y303168D01*
X367448Y303400D01*
D02*
G37*
G36*
X357448D02*
X356552D01*
X355688Y303168D01*
X354912Y302721D01*
X354279Y302088D01*
X353832Y301312D01*
X353600Y300448D01*
Y299552D01*
X353832Y298688D01*
X354279Y297912D01*
X354912Y297279D01*
X355688Y296832D01*
X356552Y296600D01*
X357448D01*
X358312Y296832D01*
X359088Y297279D01*
X359721Y297912D01*
X360168Y298688D01*
X360400Y299552D01*
Y300448D01*
X360168Y301312D01*
X359721Y302088D01*
X359088Y302721D01*
X358312Y303168D01*
X357448Y303400D01*
D02*
G37*
G36*
X177448D02*
X176552D01*
X175688Y303168D01*
X174912Y302721D01*
X174279Y302088D01*
X173832Y301312D01*
X173600Y300448D01*
Y299552D01*
X173832Y298688D01*
X174279Y297912D01*
X174912Y297279D01*
X175688Y296832D01*
X176552Y296600D01*
X177448D01*
X178312Y296832D01*
X179088Y297279D01*
X179721Y297912D01*
X180168Y298688D01*
X180400Y299552D01*
Y300448D01*
X180168Y301312D01*
X179721Y302088D01*
X179088Y302721D01*
X178312Y303168D01*
X177448Y303400D01*
D02*
G37*
G36*
X167448D02*
X166552D01*
X165688Y303168D01*
X164912Y302721D01*
X164279Y302088D01*
X163832Y301312D01*
X163600Y300448D01*
Y299552D01*
X163832Y298688D01*
X164279Y297912D01*
X164912Y297279D01*
X165688Y296832D01*
X166552Y296600D01*
X167448D01*
X168312Y296832D01*
X169088Y297279D01*
X169721Y297912D01*
X170168Y298688D01*
X170400Y299552D01*
Y300448D01*
X170168Y301312D01*
X169721Y302088D01*
X169088Y302721D01*
X168312Y303168D01*
X167448Y303400D01*
D02*
G37*
G36*
X35176Y306321D02*
X29376D01*
Y295876D01*
X35176D01*
Y306321D01*
D02*
G37*
G36*
X21219Y302004D02*
X19710D01*
X18253Y301613D01*
X16947Y300859D01*
X15881Y299793D01*
X15127Y298487D01*
X14736Y297030D01*
Y295521D01*
X15127Y294064D01*
X15881Y292758D01*
X16947Y291692D01*
X18253Y290938D01*
X19710Y290547D01*
X21219D01*
X22676Y290938D01*
X23982Y291692D01*
X25048Y292758D01*
X25802Y294064D01*
X26193Y295521D01*
Y297030D01*
X25802Y298487D01*
X25048Y299793D01*
X23982Y300859D01*
X22676Y301613D01*
X21219Y302004D01*
D02*
G37*
G36*
X367448Y293400D02*
X366552D01*
X365688Y293168D01*
X364912Y292721D01*
X364279Y292088D01*
X363832Y291312D01*
X363600Y290448D01*
Y289552D01*
X363832Y288688D01*
X364279Y287912D01*
X364912Y287279D01*
X365688Y286832D01*
X366552Y286600D01*
X367448D01*
X368312Y286832D01*
X369088Y287279D01*
X369721Y287912D01*
X370168Y288688D01*
X370400Y289552D01*
Y290448D01*
X370168Y291312D01*
X369721Y292088D01*
X369088Y292721D01*
X368312Y293168D01*
X367448Y293400D01*
D02*
G37*
G36*
X357448D02*
X356552D01*
X355688Y293168D01*
X354912Y292721D01*
X354279Y292088D01*
X353832Y291312D01*
X353600Y290448D01*
Y289552D01*
X353832Y288688D01*
X354279Y287912D01*
X354912Y287279D01*
X355688Y286832D01*
X356552Y286600D01*
X357448D01*
X358312Y286832D01*
X359088Y287279D01*
X359721Y287912D01*
X360168Y288688D01*
X360400Y289552D01*
Y290448D01*
X360168Y291312D01*
X359721Y292088D01*
X359088Y292721D01*
X358312Y293168D01*
X357448Y293400D01*
D02*
G37*
G36*
X167448D02*
X166552D01*
X165688Y293168D01*
X164912Y292721D01*
X164279Y292088D01*
X163832Y291312D01*
X163600Y290448D01*
Y289552D01*
X163832Y288688D01*
X164279Y287912D01*
X164912Y287279D01*
X165688Y286832D01*
X166552Y286600D01*
X167448D01*
X168312Y286832D01*
X169088Y287279D01*
X169721Y287912D01*
X170168Y288688D01*
X170400Y289552D01*
Y290448D01*
X170168Y291312D01*
X169721Y292088D01*
X169088Y292721D01*
X168312Y293168D01*
X167448Y293400D01*
D02*
G37*
G36*
X367448Y283400D02*
X366552D01*
X365688Y283168D01*
X364912Y282721D01*
X364279Y282088D01*
X363832Y281312D01*
X363600Y280448D01*
Y279552D01*
X363832Y278688D01*
X364279Y277912D01*
X364912Y277279D01*
X365688Y276832D01*
X366552Y276600D01*
X367448D01*
X368312Y276832D01*
X369088Y277279D01*
X369721Y277912D01*
X370168Y278688D01*
X370400Y279552D01*
Y280448D01*
X370168Y281312D01*
X369721Y282088D01*
X369088Y282721D01*
X368312Y283168D01*
X367448Y283400D01*
D02*
G37*
G36*
X357448D02*
X356552D01*
X355688Y283168D01*
X354912Y282721D01*
X354279Y282088D01*
X353832Y281312D01*
X353600Y280448D01*
Y279552D01*
X353832Y278688D01*
X354279Y277912D01*
X354912Y277279D01*
X355688Y276832D01*
X356552Y276600D01*
X357448D01*
X358312Y276832D01*
X359088Y277279D01*
X359721Y277912D01*
X360168Y278688D01*
X360400Y279552D01*
Y280448D01*
X360168Y281312D01*
X359721Y282088D01*
X359088Y282721D01*
X358312Y283168D01*
X357448Y283400D01*
D02*
G37*
G36*
X177448D02*
X176552D01*
X175688Y283168D01*
X174912Y282721D01*
X174279Y282088D01*
X173832Y281312D01*
X173600Y280448D01*
Y279552D01*
X173832Y278688D01*
X174279Y277912D01*
X174912Y277279D01*
X175688Y276832D01*
X176552Y276600D01*
X177448D01*
X178312Y276832D01*
X179088Y277279D01*
X179721Y277912D01*
X180168Y278688D01*
X180400Y279552D01*
Y280448D01*
X180168Y281312D01*
X179721Y282088D01*
X179088Y282721D01*
X178312Y283168D01*
X177448Y283400D01*
D02*
G37*
G36*
X167448D02*
X166552D01*
X165688Y283168D01*
X164912Y282721D01*
X164279Y282088D01*
X163832Y281312D01*
X163600Y280448D01*
Y279552D01*
X163832Y278688D01*
X164279Y277912D01*
X164912Y277279D01*
X165688Y276832D01*
X166552Y276600D01*
X167448D01*
X168312Y276832D01*
X169088Y277279D01*
X169721Y277912D01*
X170168Y278688D01*
X170400Y279552D01*
Y280448D01*
X170168Y281312D01*
X169721Y282088D01*
X169088Y282721D01*
X168312Y283168D01*
X167448Y283400D01*
D02*
G37*
G36*
X367448Y273400D02*
X366552D01*
X365688Y273168D01*
X364912Y272721D01*
X364279Y272088D01*
X363832Y271312D01*
X363600Y270448D01*
Y269552D01*
X363832Y268688D01*
X364279Y267912D01*
X364912Y267279D01*
X365688Y266832D01*
X366552Y266600D01*
X367448D01*
X368312Y266832D01*
X369088Y267279D01*
X369721Y267912D01*
X370168Y268688D01*
X370400Y269552D01*
Y270448D01*
X370168Y271312D01*
X369721Y272088D01*
X369088Y272721D01*
X368312Y273168D01*
X367448Y273400D01*
D02*
G37*
G36*
X357448D02*
X356552D01*
X355688Y273168D01*
X354912Y272721D01*
X354279Y272088D01*
X353832Y271312D01*
X353600Y270448D01*
Y269552D01*
X353832Y268688D01*
X354279Y267912D01*
X354912Y267279D01*
X355688Y266832D01*
X356552Y266600D01*
X357448D01*
X358312Y266832D01*
X359088Y267279D01*
X359721Y267912D01*
X360168Y268688D01*
X360400Y269552D01*
Y270448D01*
X360168Y271312D01*
X359721Y272088D01*
X359088Y272721D01*
X358312Y273168D01*
X357448Y273400D01*
D02*
G37*
G36*
X177448D02*
X176552D01*
X175688Y273168D01*
X174912Y272721D01*
X174279Y272088D01*
X173832Y271312D01*
X173600Y270448D01*
Y269552D01*
X173832Y268688D01*
X174279Y267912D01*
X174912Y267279D01*
X175688Y266832D01*
X176552Y266600D01*
X177448D01*
X178312Y266832D01*
X179088Y267279D01*
X179721Y267912D01*
X180168Y268688D01*
X180400Y269552D01*
Y270448D01*
X180168Y271312D01*
X179721Y272088D01*
X179088Y272721D01*
X178312Y273168D01*
X177448Y273400D01*
D02*
G37*
G36*
X167448D02*
X166552D01*
X165688Y273168D01*
X164912Y272721D01*
X164279Y272088D01*
X163832Y271312D01*
X163600Y270448D01*
Y269552D01*
X163832Y268688D01*
X164279Y267912D01*
X164912Y267279D01*
X165688Y266832D01*
X166552Y266600D01*
X167448D01*
X168312Y266832D01*
X169088Y267279D01*
X169721Y267912D01*
X170168Y268688D01*
X170400Y269552D01*
Y270448D01*
X170168Y271312D01*
X169721Y272088D01*
X169088Y272721D01*
X168312Y273168D01*
X167448Y273400D01*
D02*
G37*
G36*
X21219Y273264D02*
X19710D01*
X18253Y272873D01*
X16947Y272119D01*
X15881Y271053D01*
X15127Y269746D01*
X14736Y268290D01*
Y266781D01*
X15127Y265324D01*
X15881Y264018D01*
X16947Y262952D01*
X18253Y262197D01*
X19710Y261807D01*
X21219D01*
X22676Y262197D01*
X23982Y262952D01*
X25048Y264018D01*
X25802Y265324D01*
X26193Y266781D01*
Y268290D01*
X25802Y269746D01*
X25048Y271053D01*
X23982Y272119D01*
X22676Y272873D01*
X21219Y273264D01*
D02*
G37*
G36*
X35176Y267935D02*
X29376D01*
Y257490D01*
X35176D01*
Y267935D01*
D02*
G37*
G36*
X367448Y263400D02*
X366552D01*
X365688Y263168D01*
X364912Y262721D01*
X364279Y262088D01*
X363832Y261312D01*
X363600Y260448D01*
Y259552D01*
X363832Y258688D01*
X364279Y257912D01*
X364912Y257279D01*
X365688Y256832D01*
X366552Y256600D01*
X367448D01*
X368312Y256832D01*
X369088Y257279D01*
X369721Y257912D01*
X370168Y258688D01*
X370400Y259552D01*
Y260448D01*
X370168Y261312D01*
X369721Y262088D01*
X369088Y262721D01*
X368312Y263168D01*
X367448Y263400D01*
D02*
G37*
G36*
X357448D02*
X356552D01*
X355688Y263168D01*
X354912Y262721D01*
X354279Y262088D01*
X353832Y261312D01*
X353600Y260448D01*
Y259552D01*
X353832Y258688D01*
X354279Y257912D01*
X354912Y257279D01*
X355688Y256832D01*
X356552Y256600D01*
X357448D01*
X358312Y256832D01*
X359088Y257279D01*
X359721Y257912D01*
X360168Y258688D01*
X360400Y259552D01*
Y260448D01*
X360168Y261312D01*
X359721Y262088D01*
X359088Y262721D01*
X358312Y263168D01*
X357448Y263400D01*
D02*
G37*
G36*
X177448D02*
X176552D01*
X175688Y263168D01*
X174912Y262721D01*
X174279Y262088D01*
X173832Y261312D01*
X173600Y260448D01*
Y259552D01*
X173832Y258688D01*
X174279Y257912D01*
X174912Y257279D01*
X175688Y256832D01*
X176552Y256600D01*
X177448D01*
X178312Y256832D01*
X179088Y257279D01*
X179721Y257912D01*
X180168Y258688D01*
X180400Y259552D01*
Y260448D01*
X180168Y261312D01*
X179721Y262088D01*
X179088Y262721D01*
X178312Y263168D01*
X177448Y263400D01*
D02*
G37*
G36*
X167448D02*
X166552D01*
X165688Y263168D01*
X164912Y262721D01*
X164279Y262088D01*
X163832Y261312D01*
X163600Y260448D01*
Y259552D01*
X163832Y258688D01*
X164279Y257912D01*
X164912Y257279D01*
X165688Y256832D01*
X166552Y256600D01*
X167448D01*
X168312Y256832D01*
X169088Y257279D01*
X169721Y257912D01*
X170168Y258688D01*
X170400Y259552D01*
Y260448D01*
X170168Y261312D01*
X169721Y262088D01*
X169088Y262721D01*
X168312Y263168D01*
X167448Y263400D01*
D02*
G37*
G36*
X148420Y254368D02*
X143879D01*
Y250868D01*
X143862Y250780D01*
Y249357D01*
X139938Y245432D01*
X139739Y245135D01*
X139676Y244817D01*
X139580Y244798D01*
X137931D01*
X137931Y243013D01*
X137931Y242513D01*
Y241045D01*
X140498D01*
X140587Y241027D01*
X141996D01*
X142347Y241097D01*
X142645Y241296D01*
X143431Y242082D01*
X144151D01*
Y239746D01*
X148888D01*
Y246254D01*
X144151D01*
Y243918D01*
X143051D01*
X142700Y243848D01*
X142402Y243649D01*
X141987Y243233D01*
X141487Y243440D01*
Y243825D01*
X141504Y243913D01*
Y244403D01*
X145428Y248327D01*
X145627Y248625D01*
X145697Y248976D01*
Y249632D01*
X148420D01*
Y251082D01*
X150380D01*
Y250478D01*
X153621D01*
Y253522D01*
X150380D01*
Y252918D01*
X148420D01*
Y254368D01*
D02*
G37*
G36*
X367448Y253400D02*
X366552D01*
X365688Y253168D01*
X364912Y252721D01*
X364279Y252088D01*
X363832Y251312D01*
X363600Y250448D01*
Y249552D01*
X363832Y248688D01*
X364279Y247912D01*
X364912Y247279D01*
X365688Y246832D01*
X366552Y246600D01*
X367448D01*
X368312Y246832D01*
X369088Y247279D01*
X369721Y247912D01*
X370168Y248688D01*
X370400Y249552D01*
Y250448D01*
X370168Y251312D01*
X369721Y252088D01*
X369088Y252721D01*
X368312Y253168D01*
X367448Y253400D01*
D02*
G37*
G36*
X357448D02*
X356552D01*
X355688Y253168D01*
X354912Y252721D01*
X354279Y252088D01*
X353832Y251312D01*
X353600Y250448D01*
Y249552D01*
X353832Y248688D01*
X354279Y247912D01*
X354912Y247279D01*
X355688Y246832D01*
X356552Y246600D01*
X357448D01*
X358312Y246832D01*
X359088Y247279D01*
X359721Y247912D01*
X360168Y248688D01*
X360400Y249552D01*
Y250448D01*
X360168Y251312D01*
X359721Y252088D01*
X359088Y252721D01*
X358312Y253168D01*
X357448Y253400D01*
D02*
G37*
G36*
X177448D02*
X176552D01*
X175688Y253168D01*
X174912Y252721D01*
X174279Y252088D01*
X173832Y251312D01*
X173600Y250448D01*
Y249552D01*
X173832Y248688D01*
X174279Y247912D01*
X174912Y247279D01*
X175688Y246832D01*
X176552Y246600D01*
X177448D01*
X178312Y246832D01*
X179088Y247279D01*
X179721Y247912D01*
X180168Y248688D01*
X180400Y249552D01*
Y250448D01*
X180168Y251312D01*
X179721Y252088D01*
X179088Y252721D01*
X178312Y253168D01*
X177448Y253400D01*
D02*
G37*
G36*
X167448D02*
X166552D01*
X165688Y253168D01*
X164912Y252721D01*
X164279Y252088D01*
X163832Y251312D01*
X163600Y250448D01*
Y249552D01*
X163832Y248688D01*
X164279Y247912D01*
X164912Y247279D01*
X165688Y246832D01*
X166552Y246600D01*
X167448D01*
X168312Y246832D01*
X169088Y247279D01*
X169721Y247912D01*
X170168Y248688D01*
X170400Y249552D01*
Y250448D01*
X170168Y251312D01*
X169721Y252088D01*
X169088Y252721D01*
X168312Y253168D01*
X167448Y253400D01*
D02*
G37*
G36*
X221847Y249371D02*
X217917D01*
X217458Y249180D01*
X217267Y248721D01*
Y246760D01*
X217458Y246300D01*
X217917Y246110D01*
X221847D01*
X222306Y246300D01*
X222497Y246760D01*
Y248721D01*
X222306Y249180D01*
X221847Y249371D01*
D02*
G37*
G36*
X240369Y250420D02*
X235631D01*
Y249423D01*
X229134D01*
X228874Y249371D01*
X228153D01*
X227694Y249180D01*
X227503Y248721D01*
Y248000D01*
X227451Y247740D01*
X227066Y247605D01*
X226686Y247351D01*
X225752Y246417D01*
X225498Y246037D01*
X225409Y245588D01*
Y242412D01*
X225498Y241963D01*
X225752Y241583D01*
X226686Y240649D01*
X226796Y240576D01*
X226852Y240297D01*
X227217Y239751D01*
X227503Y239560D01*
Y239280D01*
X227694Y238820D01*
X228153Y238629D01*
X229082D01*
X229356Y238446D01*
X230000Y238318D01*
X230665D01*
X235173Y233810D01*
X235718Y233446D01*
X236362Y233318D01*
X236362Y233318D01*
X244303D01*
X247810Y229810D01*
X247810Y229810D01*
X248356Y229446D01*
X249000Y229318D01*
X257000D01*
X257644Y229446D01*
X258190Y229810D01*
X259765Y231386D01*
X260348D01*
X266805Y224928D01*
X267351Y224564D01*
X267994Y224436D01*
X267994Y224436D01*
X269679D01*
Y223553D01*
X272841D01*
Y225609D01*
X272942Y226118D01*
X272841Y226627D01*
Y228683D01*
X269679D01*
Y227800D01*
X268691D01*
X262438Y234053D01*
X262646Y234553D01*
X291886D01*
X294553Y231886D01*
Y139632D01*
X247144Y92223D01*
X246899D01*
X246311Y91979D01*
X245861Y91529D01*
X245617Y90941D01*
Y90696D01*
X244785Y89864D01*
X243919Y88736D01*
X243375Y87422D01*
X243190Y86012D01*
X243375Y84603D01*
X243919Y83289D01*
X244785Y82161D01*
X245913Y81296D01*
X247227Y80751D01*
X248636Y80566D01*
X250046Y80751D01*
X251360Y81296D01*
X252487Y82161D01*
X303851Y133525D01*
X304717Y134653D01*
X305261Y135967D01*
X305447Y137376D01*
Y234142D01*
X305261Y235552D01*
X304717Y236865D01*
X303851Y237994D01*
X297993Y243851D01*
X296865Y244717D01*
X295552Y245261D01*
X294142Y245447D01*
X254985D01*
X253576Y245261D01*
X252262Y244717D01*
X251134Y243851D01*
X250243Y242961D01*
X249378Y241833D01*
X248834Y240519D01*
X248648Y239109D01*
X248834Y237700D01*
X249378Y236386D01*
X250243Y235258D01*
X251372Y234393D01*
X252685Y233849D01*
X254095Y233663D01*
X255504Y233849D01*
X256818Y234393D01*
X257005Y234536D01*
X257462Y234466D01*
X257635Y234015D01*
X256303Y232682D01*
X249697D01*
X246190Y236190D01*
X245644Y236554D01*
X245000Y236682D01*
X237059D01*
X232733Y241008D01*
Y241240D01*
X232542Y241700D01*
X232083Y241890D01*
X230489D01*
X230249Y242130D01*
X229703Y242495D01*
X229059Y242623D01*
X228406D01*
X228207Y242584D01*
X228034Y242618D01*
X227754Y242898D01*
Y245102D01*
X228022Y245370D01*
X228364Y245438D01*
X228744Y245692D01*
X229114Y246062D01*
X229134Y246058D01*
X235631D01*
Y245880D01*
X240369D01*
Y250420D01*
D02*
G37*
G36*
X35329Y252241D02*
X29529D01*
Y241795D01*
X35329D01*
Y252241D01*
D02*
G37*
G36*
X367448Y243400D02*
X366552D01*
X365688Y243168D01*
X364912Y242721D01*
X364279Y242088D01*
X363832Y241312D01*
X363600Y240448D01*
Y239552D01*
X363832Y238688D01*
X364279Y237912D01*
X364912Y237279D01*
X365688Y236832D01*
X366552Y236600D01*
X367448D01*
X368312Y236832D01*
X369088Y237279D01*
X369721Y237912D01*
X370168Y238688D01*
X370400Y239552D01*
Y240448D01*
X370168Y241312D01*
X369721Y242088D01*
X369088Y242721D01*
X368312Y243168D01*
X367448Y243400D01*
D02*
G37*
G36*
X357448D02*
X356552D01*
X355688Y243168D01*
X354912Y242721D01*
X354279Y242088D01*
X353832Y241312D01*
X353600Y240448D01*
Y239552D01*
X353832Y238688D01*
X354279Y237912D01*
X354912Y237279D01*
X355688Y236832D01*
X356552Y236600D01*
X357448D01*
X358312Y236832D01*
X359088Y237279D01*
X359721Y237912D01*
X360168Y238688D01*
X360400Y239552D01*
Y240448D01*
X360168Y241312D01*
X359721Y242088D01*
X359088Y242721D01*
X358312Y243168D01*
X357448Y243400D01*
D02*
G37*
G36*
X177448D02*
X176552D01*
X175688Y243168D01*
X174912Y242721D01*
X174279Y242088D01*
X173832Y241312D01*
X173600Y240448D01*
Y239552D01*
X173832Y238688D01*
X174279Y237912D01*
X174912Y237279D01*
X175688Y236832D01*
X176552Y236600D01*
X177448D01*
X178312Y236832D01*
X179088Y237279D01*
X179721Y237912D01*
X180168Y238688D01*
X180400Y239552D01*
Y240448D01*
X180168Y241312D01*
X179721Y242088D01*
X179088Y242721D01*
X178312Y243168D01*
X177448Y243400D01*
D02*
G37*
G36*
X167448D02*
X166552D01*
X165688Y243168D01*
X164912Y242721D01*
X164279Y242088D01*
X163832Y241312D01*
X163600Y240448D01*
Y239552D01*
X163832Y238688D01*
X164279Y237912D01*
X164912Y237279D01*
X165688Y236832D01*
X166552Y236600D01*
X167448D01*
X168312Y236832D01*
X169088Y237279D01*
X169721Y237912D01*
X170168Y238688D01*
X170400Y239552D01*
Y240448D01*
X170168Y241312D01*
X169721Y242088D01*
X169088Y242721D01*
X168312Y243168D01*
X167448Y243400D01*
D02*
G37*
G36*
X21372Y247924D02*
X19863D01*
X18406Y247533D01*
X17100Y246779D01*
X16034Y245713D01*
X15280Y244407D01*
X14889Y242950D01*
Y241441D01*
X15280Y239984D01*
X16034Y238678D01*
X17100Y237612D01*
X18406Y236858D01*
X19863Y236467D01*
X21372D01*
X22829Y236858D01*
X24135Y237612D01*
X25201Y238678D01*
X25956Y239984D01*
X26346Y241441D01*
Y242950D01*
X25956Y244407D01*
X25201Y245713D01*
X24135Y246779D01*
X22829Y247533D01*
X21372Y247924D01*
D02*
G37*
G36*
X225318Y237600D02*
X224682D01*
X224094Y237356D01*
X223644Y236906D01*
X223400Y236318D01*
Y235682D01*
X223471Y235510D01*
X223425Y235010D01*
X222836Y234767D01*
X222387Y234316D01*
X222143Y233728D01*
Y233092D01*
X222387Y232504D01*
X222836Y232054D01*
X223425Y231810D01*
X224061D01*
X224649Y232054D01*
X225065Y232470D01*
X226500D01*
X226707Y231970D01*
X226644Y231906D01*
X226400Y231318D01*
Y231062D01*
X226330Y230669D01*
X225938Y230600D01*
X225682D01*
X225094Y230356D01*
X224644Y229906D01*
X224400Y229318D01*
Y228682D01*
X224644Y228094D01*
X224793Y227945D01*
X224509Y227521D01*
X224318Y227600D01*
X223682D01*
X223094Y227356D01*
X222644Y226906D01*
X222400Y226318D01*
Y225682D01*
X222644Y225094D01*
X222754Y224983D01*
X222915Y224550D01*
X222915Y224550D01*
X222915D01*
X222915Y224550D01*
Y217450D01*
X232770D01*
Y224550D01*
X232697D01*
Y227160D01*
X232797Y227259D01*
X232995Y227557D01*
X233065Y227908D01*
Y232208D01*
X232995Y232560D01*
X232797Y232857D01*
X229005Y236649D01*
X228707Y236848D01*
X228356Y236918D01*
X226345D01*
X225906Y237356D01*
X225318Y237600D01*
D02*
G37*
G36*
X367448Y233400D02*
X366552D01*
X365688Y233168D01*
X364912Y232721D01*
X364279Y232088D01*
X363832Y231312D01*
X363600Y230448D01*
Y229552D01*
X363832Y228688D01*
X364279Y227912D01*
X364912Y227279D01*
X365688Y226832D01*
X366552Y226600D01*
X367448D01*
X368312Y226832D01*
X369088Y227279D01*
X369721Y227912D01*
X370168Y228688D01*
X370400Y229552D01*
Y230448D01*
X370168Y231312D01*
X369721Y232088D01*
X369088Y232721D01*
X368312Y233168D01*
X367448Y233400D01*
D02*
G37*
G36*
X357448D02*
X356552D01*
X355688Y233168D01*
X354912Y232721D01*
X354279Y232088D01*
X353832Y231312D01*
X353600Y230448D01*
Y229552D01*
X353832Y228688D01*
X354279Y227912D01*
X354912Y227279D01*
X355688Y226832D01*
X356552Y226600D01*
X357448D01*
X358312Y226832D01*
X359088Y227279D01*
X359721Y227912D01*
X360168Y228688D01*
X360400Y229552D01*
Y230448D01*
X360168Y231312D01*
X359721Y232088D01*
X359088Y232721D01*
X358312Y233168D01*
X357448Y233400D01*
D02*
G37*
G36*
X177448D02*
X176552D01*
X175688Y233168D01*
X174912Y232721D01*
X174279Y232088D01*
X173832Y231312D01*
X173600Y230448D01*
Y229552D01*
X173832Y228688D01*
X174279Y227912D01*
X174912Y227279D01*
X175688Y226832D01*
X176552Y226600D01*
X177448D01*
X178312Y226832D01*
X179088Y227279D01*
X179721Y227912D01*
X180168Y228688D01*
X180400Y229552D01*
Y230448D01*
X180168Y231312D01*
X179721Y232088D01*
X179088Y232721D01*
X178312Y233168D01*
X177448Y233400D01*
D02*
G37*
G36*
X167448D02*
X166552D01*
X165688Y233168D01*
X164912Y232721D01*
X164279Y232088D01*
X163832Y231312D01*
X163600Y230448D01*
Y229552D01*
X163832Y228688D01*
X164279Y227912D01*
X164912Y227279D01*
X165688Y226832D01*
X166552Y226600D01*
X167448D01*
X168312Y226832D01*
X169088Y227279D01*
X169721Y227912D01*
X170168Y228688D01*
X170400Y229552D01*
Y230448D01*
X170168Y231312D01*
X169721Y232088D01*
X169088Y232721D01*
X168312Y233168D01*
X167448Y233400D01*
D02*
G37*
G36*
X280321Y228683D02*
X277159D01*
Y223553D01*
X280321D01*
Y225082D01*
X282537D01*
X282889Y225152D01*
X283186Y225351D01*
X283445Y225610D01*
X284522D01*
X284731Y225401D01*
X285319Y225157D01*
X285956D01*
X286544Y225401D01*
X286994Y225851D01*
X287237Y226439D01*
Y227076D01*
X286994Y227664D01*
X286544Y228114D01*
X285956Y228358D01*
X285319D01*
X284731Y228114D01*
X284281Y227664D01*
X284191Y227446D01*
X283065D01*
X282714Y227376D01*
X282417Y227177D01*
X282157Y226918D01*
X280321D01*
Y228683D01*
D02*
G37*
G36*
X221847Y241890D02*
X217917D01*
X217458Y241700D01*
X217267Y241240D01*
Y239280D01*
X217458Y238820D01*
X217917Y238629D01*
X218964D01*
Y237368D01*
X216880D01*
Y232631D01*
X218232D01*
Y230368D01*
X216880D01*
Y225631D01*
X219051D01*
Y224550D01*
X217009D01*
Y223918D01*
X216345D01*
X215906Y224356D01*
X215318Y224600D01*
X214682D01*
X214094Y224356D01*
X213644Y223906D01*
X213400Y223318D01*
Y222682D01*
X213644Y222094D01*
X214094Y221644D01*
X214682Y221400D01*
X215318D01*
X215906Y221644D01*
X216345Y222082D01*
X217009D01*
Y217450D01*
X217082D01*
Y215380D01*
X216427Y214725D01*
X212776D01*
X212687Y214707D01*
X209135D01*
Y212726D01*
Y208789D01*
Y204766D01*
X208849D01*
X208498Y204697D01*
X208200Y204498D01*
X205140Y201437D01*
X204370D01*
X204281Y201420D01*
X200631D01*
Y196879D01*
X205368D01*
Y199602D01*
X205520D01*
X205871Y199672D01*
X206169Y199871D01*
X209181Y202884D01*
X216235D01*
Y204852D01*
Y208789D01*
Y212889D01*
X216807D01*
X217158Y212959D01*
X217456Y213158D01*
X218649Y214351D01*
X218848Y214649D01*
X218918Y215000D01*
Y217450D01*
X220959D01*
Y224550D01*
X220886D01*
Y225631D01*
X221420D01*
Y230368D01*
X220067D01*
Y232631D01*
X221420D01*
Y237368D01*
X220799D01*
Y238629D01*
X221847D01*
X222306Y238820D01*
X222497Y239280D01*
Y241240D01*
X222306Y241700D01*
X221847Y241890D01*
D02*
G37*
G36*
X367448Y223400D02*
X366552D01*
X365688Y223168D01*
X364912Y222721D01*
X364279Y222088D01*
X363832Y221312D01*
X363600Y220448D01*
Y219552D01*
X363832Y218688D01*
X364279Y217912D01*
X364912Y217279D01*
X365688Y216832D01*
X366552Y216600D01*
X367448D01*
X368312Y216832D01*
X369088Y217279D01*
X369721Y217912D01*
X370168Y218688D01*
X370400Y219552D01*
Y220448D01*
X370168Y221312D01*
X369721Y222088D01*
X369088Y222721D01*
X368312Y223168D01*
X367448Y223400D01*
D02*
G37*
G36*
X357448D02*
X356552D01*
X355688Y223168D01*
X354912Y222721D01*
X354279Y222088D01*
X353832Y221312D01*
X353600Y220448D01*
Y219552D01*
X353832Y218688D01*
X354279Y217912D01*
X354912Y217279D01*
X355688Y216832D01*
X356552Y216600D01*
X357448D01*
X358312Y216832D01*
X359088Y217279D01*
X359721Y217912D01*
X360168Y218688D01*
X360400Y219552D01*
Y220448D01*
X360168Y221312D01*
X359721Y222088D01*
X359088Y222721D01*
X358312Y223168D01*
X357448Y223400D01*
D02*
G37*
G36*
X177448D02*
X176552D01*
X175688Y223168D01*
X174912Y222721D01*
X174279Y222088D01*
X173832Y221312D01*
X173600Y220448D01*
Y219552D01*
X173832Y218688D01*
X174279Y217912D01*
X174912Y217279D01*
X175688Y216832D01*
X176552Y216600D01*
X177448D01*
X178312Y216832D01*
X179088Y217279D01*
X179721Y217912D01*
X180168Y218688D01*
X180400Y219552D01*
Y220448D01*
X180168Y221312D01*
X179721Y222088D01*
X179088Y222721D01*
X178312Y223168D01*
X177448Y223400D01*
D02*
G37*
G36*
X167448D02*
X166552D01*
X165688Y223168D01*
X164912Y222721D01*
X164279Y222088D01*
X163832Y221312D01*
X163600Y220448D01*
Y219552D01*
X163832Y218688D01*
X164279Y217912D01*
X164912Y217279D01*
X165688Y216832D01*
X166552Y216600D01*
X167448D01*
X168312Y216832D01*
X169088Y217279D01*
X169721Y217912D01*
X170168Y218688D01*
X170400Y219552D01*
Y220448D01*
X170168Y221312D01*
X169721Y222088D01*
X169088Y222721D01*
X168312Y223168D01*
X167448Y223400D01*
D02*
G37*
G36*
X242000Y230447D02*
X240590Y230261D01*
X239277Y229717D01*
X238149Y228851D01*
X237283Y227723D01*
X236739Y226410D01*
X236553Y225000D01*
Y224000D01*
X236739Y222590D01*
X237283Y221277D01*
X238149Y220149D01*
X239277Y219283D01*
X240590Y218739D01*
X242000Y218553D01*
X242978Y218682D01*
X243478Y218245D01*
Y215490D01*
X244082D01*
Y214751D01*
X241106Y211775D01*
X240644Y211966D01*
Y214707D01*
X233545D01*
Y210757D01*
Y206821D01*
Y202884D01*
X240101D01*
X240417Y202568D01*
Y200126D01*
X239351Y199060D01*
X239152Y198762D01*
X239082Y198411D01*
Y196109D01*
X236746D01*
Y193189D01*
X235221D01*
X234869Y193119D01*
X234572Y192920D01*
X233071Y191420D01*
X229631D01*
Y186880D01*
X234368D01*
Y190122D01*
X235601Y191354D01*
X238531D01*
X238620Y191372D01*
X243254D01*
Y196109D01*
X240918D01*
Y198031D01*
X241984Y199097D01*
X242182Y199394D01*
X242252Y199746D01*
Y202948D01*
X242182Y203299D01*
X241984Y203597D01*
X241155Y204425D01*
X241362Y204925D01*
X243551D01*
X243605Y204871D01*
X243903Y204672D01*
X244254Y204602D01*
X247632D01*
Y201880D01*
X252368D01*
Y202082D01*
X254631D01*
Y200880D01*
X259368D01*
Y200972D01*
X261478D01*
Y200269D01*
X264522D01*
Y203510D01*
X261478D01*
Y202807D01*
X259368D01*
Y205420D01*
X254631D01*
Y203918D01*
X252368D01*
Y206420D01*
X249125D01*
X249001Y206537D01*
X249071Y207160D01*
X249074Y207162D01*
X251254Y209342D01*
X258746D01*
Y207891D01*
X265254D01*
Y209082D01*
X267632D01*
Y206879D01*
X272369D01*
Y211420D01*
X267632D01*
Y210918D01*
X265254D01*
Y212628D01*
X258746D01*
Y211177D01*
X250874D01*
X250523Y211108D01*
X250225Y210909D01*
X248045Y208729D01*
X241362D01*
X241155Y209229D01*
X245649Y213722D01*
X245848Y214020D01*
X245918Y214371D01*
Y215490D01*
X246522D01*
Y216193D01*
X247632D01*
Y214580D01*
X252368D01*
Y216193D01*
X253478D01*
Y215490D01*
X256522D01*
Y218731D01*
X253478D01*
Y218028D01*
X252368D01*
Y219121D01*
X247632D01*
Y218028D01*
X246522D01*
Y218731D01*
X245304D01*
X245067Y219231D01*
X245099Y219269D01*
X246522D01*
Y221023D01*
X246717Y221277D01*
X247261Y222590D01*
X247447Y224000D01*
Y225000D01*
X247261Y226410D01*
X246717Y227723D01*
X245851Y228851D01*
X244723Y229717D01*
X243410Y230261D01*
X242000Y230447D01*
D02*
G37*
G36*
X265254Y220109D02*
X258746D01*
Y215372D01*
X263380D01*
X263469Y215354D01*
X266951D01*
X266953Y215351D01*
X267251Y215152D01*
X267602Y215082D01*
X269679D01*
Y213316D01*
X272841D01*
Y218447D01*
X269679D01*
Y216918D01*
X267983D01*
X267980Y216920D01*
X267682Y217119D01*
X267331Y217189D01*
X265254D01*
Y220109D01*
D02*
G37*
G36*
X203318Y237600D02*
X202682D01*
X202094Y237356D01*
X201644Y236906D01*
X201400Y236318D01*
Y235698D01*
X181620Y215918D01*
X172000D01*
X171649Y215848D01*
X171351Y215649D01*
X168666Y212964D01*
X168312Y213168D01*
X167448Y213400D01*
X166552D01*
X165688Y213168D01*
X164912Y212721D01*
X164279Y212088D01*
X163832Y211312D01*
X163600Y210448D01*
Y209552D01*
X163832Y208688D01*
X164279Y207912D01*
X164912Y207279D01*
X165688Y206832D01*
X166552Y206600D01*
X167448D01*
X168312Y206832D01*
X169088Y207279D01*
X169721Y207912D01*
X170168Y208688D01*
X170400Y209552D01*
Y210448D01*
X170168Y211312D01*
X169964Y211666D01*
X172380Y214082D01*
X182000D01*
X182351Y214152D01*
X182649Y214351D01*
X202698Y234400D01*
X203318D01*
X203906Y234644D01*
X204356Y235094D01*
X204600Y235682D01*
Y236318D01*
X204356Y236906D01*
X203906Y237356D01*
X203318Y237600D01*
D02*
G37*
G36*
X280321Y218447D02*
X277159D01*
Y213316D01*
X277650D01*
Y212423D01*
X277490Y212356D01*
X277040Y211906D01*
X276796Y211318D01*
Y210682D01*
X277040Y210094D01*
X277490Y209644D01*
X278078Y209400D01*
X278714D01*
X279303Y209644D01*
X279753Y210094D01*
X279996Y210682D01*
Y211318D01*
X279753Y211906D01*
X279486Y212173D01*
Y213316D01*
X280321D01*
Y218447D01*
D02*
G37*
G36*
X21372Y219184D02*
X19863D01*
X18406Y218793D01*
X17100Y218039D01*
X16034Y216973D01*
X15280Y215666D01*
X14889Y214209D01*
Y212701D01*
X15280Y211244D01*
X16034Y209938D01*
X17100Y208872D01*
X18406Y208117D01*
X19863Y207727D01*
X21372D01*
X22829Y208117D01*
X24135Y208872D01*
X25201Y209938D01*
X25956Y211244D01*
X26346Y212701D01*
Y214209D01*
X25956Y215666D01*
X25201Y216973D01*
X24135Y218039D01*
X22829Y218793D01*
X21372Y219184D01*
D02*
G37*
G36*
X367448Y213400D02*
X366552D01*
X365688Y213168D01*
X364912Y212721D01*
X364279Y212088D01*
X363832Y211312D01*
X363600Y210448D01*
Y209552D01*
X363832Y208688D01*
X364279Y207912D01*
X364912Y207279D01*
X365688Y206832D01*
X366552Y206600D01*
X367448D01*
X368312Y206832D01*
X369088Y207279D01*
X369721Y207912D01*
X370168Y208688D01*
X370400Y209552D01*
Y210448D01*
X370168Y211312D01*
X369721Y212088D01*
X369088Y212721D01*
X368312Y213168D01*
X367448Y213400D01*
D02*
G37*
G36*
X357448D02*
X356552D01*
X355688Y213168D01*
X354912Y212721D01*
X354279Y212088D01*
X353832Y211312D01*
X353600Y210448D01*
Y209552D01*
X353832Y208688D01*
X354279Y207912D01*
X354912Y207279D01*
X355688Y206832D01*
X356552Y206600D01*
X357448D01*
X358312Y206832D01*
X359088Y207279D01*
X359721Y207912D01*
X360168Y208688D01*
X360400Y209552D01*
Y210448D01*
X360168Y211312D01*
X359721Y212088D01*
X359088Y212721D01*
X358312Y213168D01*
X357448Y213400D01*
D02*
G37*
G36*
X177448D02*
X176552D01*
X175688Y213168D01*
X174912Y212721D01*
X174279Y212088D01*
X173832Y211312D01*
X173600Y210448D01*
Y209552D01*
X173832Y208688D01*
X174279Y207912D01*
X174912Y207279D01*
X175688Y206832D01*
X176552Y206600D01*
X177448D01*
X178312Y206832D01*
X179088Y207279D01*
X179721Y207912D01*
X180168Y208688D01*
X180400Y209552D01*
Y210448D01*
X180168Y211312D01*
X179721Y212088D01*
X179088Y212721D01*
X178312Y213168D01*
X177448Y213400D01*
D02*
G37*
G36*
X35329Y213855D02*
X29529D01*
Y203410D01*
X35329D01*
Y213855D01*
D02*
G37*
G36*
X81391Y204877D02*
X77247D01*
X76628Y204754D01*
X76103Y204403D01*
X75753Y203879D01*
X75630Y203260D01*
X75753Y202641D01*
X76103Y202116D01*
X76628Y201766D01*
X77247Y201643D01*
X81391D01*
X82010Y201766D01*
X82535Y202116D01*
X82885Y202641D01*
X83008Y203260D01*
X82885Y203879D01*
X82535Y204403D01*
X82010Y204754D01*
X81391Y204877D01*
D02*
G37*
G36*
X367448Y203400D02*
X366552D01*
X365688Y203168D01*
X364912Y202721D01*
X364279Y202088D01*
X363832Y201312D01*
X363600Y200448D01*
Y199552D01*
X363832Y198688D01*
X364279Y197912D01*
X364912Y197279D01*
X365688Y196832D01*
X366552Y196600D01*
X367448D01*
X368312Y196832D01*
X369088Y197279D01*
X369721Y197912D01*
X370168Y198688D01*
X370400Y199552D01*
Y200448D01*
X370168Y201312D01*
X369721Y202088D01*
X369088Y202721D01*
X368312Y203168D01*
X367448Y203400D01*
D02*
G37*
G36*
X357448D02*
X356552D01*
X355688Y203168D01*
X354912Y202721D01*
X354279Y202088D01*
X353832Y201312D01*
X353600Y200448D01*
Y199552D01*
X353832Y198688D01*
X354279Y197912D01*
X354912Y197279D01*
X355688Y196832D01*
X356552Y196600D01*
X357448D01*
X358312Y196832D01*
X359088Y197279D01*
X359721Y197912D01*
X360168Y198688D01*
X360400Y199552D01*
Y200448D01*
X360168Y201312D01*
X359721Y202088D01*
X359088Y202721D01*
X358312Y203168D01*
X357448Y203400D01*
D02*
G37*
G36*
X177448D02*
X176552D01*
X175688Y203168D01*
X174912Y202721D01*
X174279Y202088D01*
X173832Y201312D01*
X173600Y200448D01*
Y199552D01*
X173832Y198688D01*
X174279Y197912D01*
X174912Y197279D01*
X175688Y196832D01*
X176552Y196600D01*
X177448D01*
X178312Y196832D01*
X179088Y197279D01*
X179721Y197912D01*
X180168Y198688D01*
X180400Y199552D01*
Y200448D01*
X180168Y201312D01*
X179721Y202088D01*
X179088Y202721D01*
X178312Y203168D01*
X177448Y203400D01*
D02*
G37*
G36*
X167448D02*
X166552D01*
X165688Y203168D01*
X164912Y202721D01*
X164279Y202088D01*
X163832Y201312D01*
X163600Y200448D01*
Y199552D01*
X163832Y198688D01*
X164279Y197912D01*
X164912Y197279D01*
X165688Y196832D01*
X166552Y196600D01*
X167448D01*
X168312Y196832D01*
X169088Y197279D01*
X169721Y197912D01*
X170168Y198688D01*
X170400Y199552D01*
Y200448D01*
X170168Y201312D01*
X169721Y202088D01*
X169088Y202721D01*
X168312Y203168D01*
X167448Y203400D01*
D02*
G37*
G36*
X232770Y200140D02*
X224884D01*
Y193041D01*
X232770D01*
Y200140D01*
D02*
G37*
G36*
X35176Y197321D02*
X29376D01*
Y186876D01*
X35176D01*
Y197321D01*
D02*
G37*
G36*
X367448Y193400D02*
X366552D01*
X365688Y193168D01*
X364912Y192721D01*
X364279Y192088D01*
X363832Y191312D01*
X363600Y190448D01*
Y189552D01*
X363832Y188688D01*
X364279Y187912D01*
X364912Y187279D01*
X365688Y186832D01*
X366552Y186600D01*
X367448D01*
X368312Y186832D01*
X369088Y187279D01*
X369721Y187912D01*
X370168Y188688D01*
X370400Y189552D01*
Y190448D01*
X370168Y191312D01*
X369721Y192088D01*
X369088Y192721D01*
X368312Y193168D01*
X367448Y193400D01*
D02*
G37*
G36*
X357448D02*
X356552D01*
X355688Y193168D01*
X354912Y192721D01*
X354279Y192088D01*
X353832Y191312D01*
X353600Y190448D01*
Y189552D01*
X353832Y188688D01*
X354279Y187912D01*
X354912Y187279D01*
X355688Y186832D01*
X356552Y186600D01*
X357448D01*
X358312Y186832D01*
X359088Y187279D01*
X359721Y187912D01*
X360168Y188688D01*
X360400Y189552D01*
Y190448D01*
X360168Y191312D01*
X359721Y192088D01*
X359088Y192721D01*
X358312Y193168D01*
X357448Y193400D01*
D02*
G37*
G36*
X177448D02*
X176552D01*
X175688Y193168D01*
X174912Y192721D01*
X174279Y192088D01*
X173832Y191312D01*
X173600Y190448D01*
Y189552D01*
X173832Y188688D01*
X174279Y187912D01*
X174912Y187279D01*
X175688Y186832D01*
X176552Y186600D01*
X177448D01*
X178312Y186832D01*
X179088Y187279D01*
X179721Y187912D01*
X180168Y188688D01*
X180400Y189552D01*
Y190448D01*
X180168Y191312D01*
X179721Y192088D01*
X179088Y192721D01*
X178312Y193168D01*
X177448Y193400D01*
D02*
G37*
G36*
X167448D02*
X166552D01*
X165688Y193168D01*
X164912Y192721D01*
X164279Y192088D01*
X163832Y191312D01*
X163600Y190448D01*
Y189552D01*
X163832Y188688D01*
X164279Y187912D01*
X164912Y187279D01*
X165688Y186832D01*
X166552Y186600D01*
X167448D01*
X168312Y186832D01*
X169088Y187279D01*
X169721Y187912D01*
X170168Y188688D01*
X170400Y189552D01*
Y190448D01*
X170168Y191312D01*
X169721Y192088D01*
X169088Y192721D01*
X168312Y193168D01*
X167448Y193400D01*
D02*
G37*
G36*
X243254Y188628D02*
X236746D01*
Y183891D01*
X243254D01*
Y184809D01*
X243754Y185016D01*
X244299Y184471D01*
Y184421D01*
X244317Y184333D01*
Y182159D01*
X249447D01*
Y185321D01*
X245985D01*
X245865Y185500D01*
X244457Y186909D01*
X244159Y187108D01*
X243808Y187178D01*
X243254D01*
Y188628D01*
D02*
G37*
G36*
X21219Y193004D02*
X19710D01*
X18253Y192614D01*
X16947Y191859D01*
X15881Y190793D01*
X15127Y189487D01*
X14736Y188030D01*
Y186521D01*
X15127Y185064D01*
X15881Y183758D01*
X16947Y182692D01*
X18253Y181938D01*
X19710Y181547D01*
X21219D01*
X22676Y181938D01*
X23982Y182692D01*
X25048Y183758D01*
X25802Y185064D01*
X26193Y186521D01*
Y188030D01*
X25802Y189487D01*
X25048Y190793D01*
X23982Y191859D01*
X22676Y192614D01*
X21219Y193004D01*
D02*
G37*
G36*
X252368Y200120D02*
X247632D01*
Y199682D01*
X245000D01*
X244356Y199554D01*
X243810Y199190D01*
X243446Y198644D01*
X243318Y198000D01*
X243446Y197356D01*
X243810Y196810D01*
X244356Y196446D01*
X245000Y196318D01*
X247632D01*
Y195580D01*
X248318D01*
Y193368D01*
X247580D01*
Y188631D01*
X249741D01*
X250031Y188342D01*
X250031Y188342D01*
X250577Y187977D01*
X250933Y187906D01*
X253770Y185069D01*
Y184421D01*
X253899Y183777D01*
X254263Y183232D01*
X254553Y182942D01*
Y182159D01*
X255625D01*
X256134Y182058D01*
X256526D01*
X256756Y181904D01*
X257400Y181776D01*
X257400Y181776D01*
X260104D01*
X260598Y181446D01*
X261242Y181318D01*
X261242Y181318D01*
X262742D01*
Y180309D01*
X262742Y180191D01*
Y179809D01*
X262742Y179691D01*
Y177178D01*
X259683D01*
Y177841D01*
X254553D01*
Y174906D01*
X250518D01*
X249447Y175977D01*
Y177841D01*
X244317D01*
Y174679D01*
X248149D01*
X249489Y173339D01*
X249787Y173140D01*
X250138Y173071D01*
X272878D01*
X273229Y173140D01*
X273527Y173339D01*
X274866Y174679D01*
X281258D01*
Y179691D01*
X281258Y179809D01*
Y180191D01*
X281258Y180309D01*
Y181838D01*
X283336D01*
X284037Y181137D01*
Y180682D01*
X284281Y180094D01*
X284731Y179644D01*
X285319Y179400D01*
X285956D01*
X286544Y179644D01*
X286994Y180094D01*
X287237Y180682D01*
Y181318D01*
X286994Y181906D01*
X286544Y182356D01*
X285956Y182600D01*
X285319D01*
X285214Y182556D01*
X284365Y183405D01*
X284068Y183604D01*
X283716Y183674D01*
X281258D01*
Y185321D01*
X273569D01*
Y180309D01*
X273569Y180191D01*
Y179809D01*
X273569Y179691D01*
Y175977D01*
X272498Y174906D01*
X270431D01*
Y179691D01*
X270431Y179809D01*
Y180191D01*
X270431Y180309D01*
Y183987D01*
X270518Y184421D01*
X270431Y184855D01*
Y185321D01*
X270219D01*
X270025Y185611D01*
X269479Y185976D01*
X268835Y186104D01*
X268192Y185976D01*
X267646Y185611D01*
X267356Y185321D01*
X262742D01*
Y184682D01*
X261922D01*
X261427Y185013D01*
X260784Y185141D01*
X259683D01*
Y185321D01*
X257627D01*
X257132Y185420D01*
X257007Y186049D01*
X256642Y186595D01*
X256097Y186960D01*
X255873Y187004D01*
X252926Y189951D01*
X252881Y190175D01*
X252516Y190721D01*
X252196Y190935D01*
X252120Y191011D01*
Y193368D01*
X251682D01*
Y195580D01*
X252368D01*
Y200120D01*
D02*
G37*
G36*
X367448Y183400D02*
X366552D01*
X365688Y183168D01*
X364912Y182721D01*
X364279Y182088D01*
X363832Y181312D01*
X363600Y180448D01*
Y179552D01*
X363832Y178688D01*
X364279Y177912D01*
X364912Y177279D01*
X365688Y176832D01*
X366552Y176600D01*
X367448D01*
X368312Y176832D01*
X369088Y177279D01*
X369721Y177912D01*
X370168Y178688D01*
X370400Y179552D01*
Y180448D01*
X370168Y181312D01*
X369721Y182088D01*
X369088Y182721D01*
X368312Y183168D01*
X367448Y183400D01*
D02*
G37*
G36*
X357448D02*
X356552D01*
X355688Y183168D01*
X354912Y182721D01*
X354279Y182088D01*
X353832Y181312D01*
X353600Y180448D01*
Y179552D01*
X353832Y178688D01*
X354279Y177912D01*
X354912Y177279D01*
X355688Y176832D01*
X356552Y176600D01*
X357448D01*
X358312Y176832D01*
X359088Y177279D01*
X359721Y177912D01*
X360168Y178688D01*
X360400Y179552D01*
Y180448D01*
X360168Y181312D01*
X359721Y182088D01*
X359088Y182721D01*
X358312Y183168D01*
X357448Y183400D01*
D02*
G37*
G36*
X177448D02*
X176552D01*
X175688Y183168D01*
X174912Y182721D01*
X174279Y182088D01*
X173832Y181312D01*
X173600Y180448D01*
Y179552D01*
X173832Y178688D01*
X174279Y177912D01*
X174912Y177279D01*
X175688Y176832D01*
X176552Y176600D01*
X177448D01*
X178312Y176832D01*
X179088Y177279D01*
X179721Y177912D01*
X180168Y178688D01*
X180400Y179552D01*
Y180448D01*
X180168Y181312D01*
X179721Y182088D01*
X179088Y182721D01*
X178312Y183168D01*
X177448Y183400D01*
D02*
G37*
G36*
X167448D02*
X166552D01*
X165688Y183168D01*
X164912Y182721D01*
X164279Y182088D01*
X163832Y181312D01*
X163600Y180448D01*
Y179552D01*
X163832Y178688D01*
X164279Y177912D01*
X164912Y177279D01*
X165688Y176832D01*
X166552Y176600D01*
X167448D01*
X168312Y176832D01*
X169088Y177279D01*
X169721Y177912D01*
X170168Y178688D01*
X170400Y179552D01*
Y180448D01*
X170168Y181312D01*
X169721Y182088D01*
X169088Y182721D01*
X168312Y183168D01*
X167448Y183400D01*
D02*
G37*
G36*
X367448Y173400D02*
X366552D01*
X365688Y173168D01*
X364912Y172721D01*
X364279Y172088D01*
X363832Y171312D01*
X363600Y170448D01*
Y169552D01*
X363832Y168688D01*
X364279Y167912D01*
X364912Y167279D01*
X365688Y166832D01*
X366552Y166600D01*
X367448D01*
X368312Y166832D01*
X369088Y167279D01*
X369721Y167912D01*
X370168Y168688D01*
X370400Y169552D01*
Y170448D01*
X370168Y171312D01*
X369721Y172088D01*
X369088Y172721D01*
X368312Y173168D01*
X367448Y173400D01*
D02*
G37*
G36*
X357448D02*
X356552D01*
X355688Y173168D01*
X354912Y172721D01*
X354279Y172088D01*
X353832Y171312D01*
X353600Y170448D01*
Y169552D01*
X353832Y168688D01*
X354279Y167912D01*
X354912Y167279D01*
X355688Y166832D01*
X356552Y166600D01*
X357448D01*
X358312Y166832D01*
X359088Y167279D01*
X359721Y167912D01*
X360168Y168688D01*
X360400Y169552D01*
Y170448D01*
X360168Y171312D01*
X359721Y172088D01*
X359088Y172721D01*
X358312Y173168D01*
X357448Y173400D01*
D02*
G37*
G36*
X177448D02*
X176552D01*
X175688Y173168D01*
X174912Y172721D01*
X174279Y172088D01*
X173832Y171312D01*
X173600Y170448D01*
Y169552D01*
X173832Y168688D01*
X174279Y167912D01*
X174912Y167279D01*
X175688Y166832D01*
X176552Y166600D01*
X177448D01*
X178312Y166832D01*
X179088Y167279D01*
X179721Y167912D01*
X180168Y168688D01*
X180400Y169552D01*
Y170448D01*
X180168Y171312D01*
X179721Y172088D01*
X179088Y172721D01*
X178312Y173168D01*
X177448Y173400D01*
D02*
G37*
G36*
X167448D02*
X166552D01*
X165688Y173168D01*
X164912Y172721D01*
X164279Y172088D01*
X163832Y171312D01*
X163600Y170448D01*
Y169552D01*
X163832Y168688D01*
X164279Y167912D01*
X164912Y167279D01*
X165688Y166832D01*
X166552Y166600D01*
X167448D01*
X168312Y166832D01*
X169088Y167279D01*
X169721Y167912D01*
X170168Y168688D01*
X170400Y169552D01*
Y170448D01*
X170168Y171312D01*
X169721Y172088D01*
X169088Y172721D01*
X168312Y173168D01*
X167448Y173400D01*
D02*
G37*
G36*
X367448Y163400D02*
X366552D01*
X365688Y163168D01*
X364912Y162721D01*
X364279Y162088D01*
X363832Y161312D01*
X363600Y160448D01*
Y159552D01*
X363832Y158688D01*
X364279Y157912D01*
X364912Y157279D01*
X365688Y156832D01*
X366552Y156600D01*
X367448D01*
X368312Y156832D01*
X369088Y157279D01*
X369721Y157912D01*
X370168Y158688D01*
X370400Y159552D01*
Y160448D01*
X370168Y161312D01*
X369721Y162088D01*
X369088Y162721D01*
X368312Y163168D01*
X367448Y163400D01*
D02*
G37*
G36*
X357448D02*
X356552D01*
X355688Y163168D01*
X354912Y162721D01*
X354279Y162088D01*
X353832Y161312D01*
X353600Y160448D01*
Y159552D01*
X353832Y158688D01*
X354279Y157912D01*
X354912Y157279D01*
X355688Y156832D01*
X356552Y156600D01*
X357448D01*
X358312Y156832D01*
X359088Y157279D01*
X359721Y157912D01*
X360168Y158688D01*
X360400Y159552D01*
Y160448D01*
X360168Y161312D01*
X359721Y162088D01*
X359088Y162721D01*
X358312Y163168D01*
X357448Y163400D01*
D02*
G37*
G36*
X177448D02*
X176552D01*
X175688Y163168D01*
X174912Y162721D01*
X174279Y162088D01*
X173832Y161312D01*
X173600Y160448D01*
Y159552D01*
X173832Y158688D01*
X174279Y157912D01*
X174912Y157279D01*
X175688Y156832D01*
X176552Y156600D01*
X177448D01*
X178312Y156832D01*
X179088Y157279D01*
X179721Y157912D01*
X180168Y158688D01*
X180400Y159552D01*
Y160448D01*
X180168Y161312D01*
X179721Y162088D01*
X179088Y162721D01*
X178312Y163168D01*
X177448Y163400D01*
D02*
G37*
G36*
X167448D02*
X166552D01*
X165688Y163168D01*
X164912Y162721D01*
X164279Y162088D01*
X163832Y161312D01*
X163600Y160448D01*
Y159552D01*
X163832Y158688D01*
X164279Y157912D01*
X164912Y157279D01*
X165688Y156832D01*
X166552Y156600D01*
X167448D01*
X168312Y156832D01*
X169088Y157279D01*
X169721Y157912D01*
X170168Y158688D01*
X170400Y159552D01*
Y160448D01*
X170168Y161312D01*
X169721Y162088D01*
X169088Y162721D01*
X168312Y163168D01*
X167448Y163400D01*
D02*
G37*
G36*
X21219Y164264D02*
X19710D01*
X18253Y163873D01*
X16947Y163119D01*
X15881Y162053D01*
X15127Y160747D01*
X14736Y159290D01*
Y157781D01*
X15127Y156324D01*
X15881Y155018D01*
X16947Y153952D01*
X18253Y153198D01*
X19710Y152807D01*
X21219D01*
X22676Y153198D01*
X23982Y153952D01*
X25048Y155018D01*
X25802Y156324D01*
X26193Y157781D01*
Y159290D01*
X25802Y160747D01*
X25048Y162053D01*
X23982Y163119D01*
X22676Y163873D01*
X21219Y164264D01*
D02*
G37*
G36*
X220959Y200140D02*
X217009D01*
Y193041D01*
X218103D01*
X218388Y192541D01*
X218286Y192032D01*
X218319Y191868D01*
X217908Y191368D01*
X216880D01*
Y186632D01*
X221318D01*
Y176881D01*
X217960Y173523D01*
X217595Y172977D01*
X217467Y172334D01*
Y159850D01*
X217595Y159207D01*
X217960Y158661D01*
X222318Y154303D01*
Y152471D01*
X219285D01*
Y151194D01*
X216715D01*
Y152471D01*
X205285D01*
Y151308D01*
X203156D01*
Y152109D01*
X196647D01*
Y151423D01*
X194353D01*
Y152109D01*
X187844D01*
Y151687D01*
X187839Y151682D01*
X179955D01*
X179721Y152088D01*
X179088Y152721D01*
X178312Y153168D01*
X177448Y153400D01*
X176552D01*
X175688Y153168D01*
X174912Y152721D01*
X174279Y152088D01*
X174045Y151682D01*
X169955D01*
X169721Y152088D01*
X169088Y152721D01*
X168312Y153168D01*
X167448Y153400D01*
X166552D01*
X165688Y153168D01*
X164912Y152721D01*
X164279Y152088D01*
X163832Y151312D01*
X163600Y150448D01*
Y149552D01*
X163832Y148688D01*
X164279Y147912D01*
X164912Y147279D01*
X165688Y146832D01*
X166552Y146600D01*
X167448D01*
X168312Y146832D01*
X169088Y147279D01*
X169721Y147912D01*
X169955Y148318D01*
X174045D01*
X174279Y147912D01*
X174912Y147279D01*
X175688Y146832D01*
X176552Y146600D01*
X177448D01*
X178312Y146832D01*
X179088Y147279D01*
X179721Y147912D01*
X179955Y148318D01*
X187257D01*
X187455Y148186D01*
X187844Y148108D01*
Y147372D01*
X194353D01*
Y148058D01*
X196647D01*
Y147372D01*
X198729D01*
X199000Y147318D01*
X199271Y147372D01*
X203156D01*
Y147944D01*
X205285D01*
Y146553D01*
X216715D01*
Y147829D01*
X219285D01*
Y146553D01*
X228133D01*
Y146185D01*
X228261Y145541D01*
X228625Y144995D01*
X237318Y136303D01*
Y28420D01*
X236631D01*
Y23879D01*
X241369D01*
Y24318D01*
X257254D01*
Y20553D01*
X264746D01*
Y31195D01*
X257254D01*
Y27682D01*
X241369D01*
Y28420D01*
X240682D01*
Y137000D01*
X240682Y137000D01*
X240554Y137644D01*
X240190Y138190D01*
X231497Y146882D01*
Y147453D01*
X231369Y148097D01*
X231005Y148642D01*
X230715Y148932D01*
Y152471D01*
X225682D01*
Y155000D01*
X225682Y155000D01*
X225554Y155644D01*
X225190Y156190D01*
X220832Y160547D01*
Y171637D01*
X224190Y174994D01*
X224190Y174994D01*
X224554Y175540D01*
X224682Y176184D01*
Y189000D01*
X224554Y189644D01*
X224190Y190190D01*
X224190Y190190D01*
X221158Y193221D01*
X221141Y193233D01*
Y196591D01*
X221052Y197039D01*
X220959Y197178D01*
Y200140D01*
D02*
G37*
G36*
X76072Y152617D02*
X71928D01*
X71309Y152494D01*
X70784Y152143D01*
X70434Y151619D01*
X70311Y151000D01*
X70434Y150381D01*
X70784Y149857D01*
X71309Y149506D01*
X71928Y149383D01*
X76072D01*
X76691Y149506D01*
X77216Y149857D01*
X77566Y150381D01*
X77689Y151000D01*
X77566Y151619D01*
X77216Y152143D01*
X76691Y152494D01*
X76072Y152617D01*
D02*
G37*
G36*
X35176Y158935D02*
X29376D01*
Y148490D01*
X35176D01*
Y158935D01*
D02*
G37*
G36*
X367448Y153400D02*
X366552D01*
X365688Y153168D01*
X364912Y152721D01*
X364279Y152088D01*
X363832Y151312D01*
X363600Y150448D01*
Y149552D01*
X363832Y148688D01*
X364279Y147912D01*
X364912Y147279D01*
X365688Y146832D01*
X366552Y146600D01*
X367448D01*
X368312Y146832D01*
X369088Y147279D01*
X369721Y147912D01*
X370168Y148688D01*
X370400Y149552D01*
Y150448D01*
X370168Y151312D01*
X369721Y152088D01*
X369088Y152721D01*
X368312Y153168D01*
X367448Y153400D01*
D02*
G37*
G36*
X357448D02*
X356552D01*
X355688Y153168D01*
X354912Y152721D01*
X354279Y152088D01*
X353832Y151312D01*
X353600Y150448D01*
Y149552D01*
X353832Y148688D01*
X354279Y147912D01*
X354912Y147279D01*
X355688Y146832D01*
X356552Y146600D01*
X357448D01*
X358312Y146832D01*
X359088Y147279D01*
X359721Y147912D01*
X360168Y148688D01*
X360400Y149552D01*
Y150448D01*
X360168Y151312D01*
X359721Y152088D01*
X359088Y152721D01*
X358312Y153168D01*
X357448Y153400D01*
D02*
G37*
G36*
X367448Y143400D02*
X366552D01*
X365688Y143168D01*
X364912Y142721D01*
X364279Y142088D01*
X363832Y141312D01*
X363600Y140448D01*
Y139552D01*
X363832Y138688D01*
X364279Y137912D01*
X364912Y137279D01*
X365688Y136832D01*
X366552Y136600D01*
X367448D01*
X368312Y136832D01*
X369088Y137279D01*
X369721Y137912D01*
X370168Y138688D01*
X370400Y139552D01*
Y140448D01*
X370168Y141312D01*
X369721Y142088D01*
X369088Y142721D01*
X368312Y143168D01*
X367448Y143400D01*
D02*
G37*
G36*
X357448D02*
X356552D01*
X355688Y143168D01*
X354912Y142721D01*
X354279Y142088D01*
X353832Y141312D01*
X353600Y140448D01*
Y139552D01*
X353832Y138688D01*
X354279Y137912D01*
X354912Y137279D01*
X355688Y136832D01*
X356552Y136600D01*
X357448D01*
X358312Y136832D01*
X359088Y137279D01*
X359721Y137912D01*
X360168Y138688D01*
X360400Y139552D01*
Y140448D01*
X360168Y141312D01*
X359721Y142088D01*
X359088Y142721D01*
X358312Y143168D01*
X357448Y143400D01*
D02*
G37*
G36*
X177448D02*
X176552D01*
X175688Y143168D01*
X174912Y142721D01*
X174279Y142088D01*
X173832Y141312D01*
X173600Y140448D01*
Y139552D01*
X173832Y138688D01*
X174279Y137912D01*
X174912Y137279D01*
X175688Y136832D01*
X176552Y136600D01*
X177448D01*
X178312Y136832D01*
X179088Y137279D01*
X179721Y137912D01*
X180168Y138688D01*
X180400Y139552D01*
Y140448D01*
X180168Y141312D01*
X179721Y142088D01*
X179088Y142721D01*
X178312Y143168D01*
X177448Y143400D01*
D02*
G37*
G36*
X167448D02*
X166552D01*
X165688Y143168D01*
X164912Y142721D01*
X164279Y142088D01*
X163832Y141312D01*
X163600Y140448D01*
Y139552D01*
X163832Y138688D01*
X164279Y137912D01*
X164912Y137279D01*
X165688Y136832D01*
X166552Y136600D01*
X167448D01*
X168312Y136832D01*
X169088Y137279D01*
X169721Y137912D01*
X170168Y138688D01*
X170400Y139552D01*
Y140448D01*
X170168Y141312D01*
X169721Y142088D01*
X169088Y142721D01*
X168312Y143168D01*
X167448Y143400D01*
D02*
G37*
G36*
X36168Y138227D02*
X29738D01*
Y115773D01*
X34545D01*
X34819Y115590D01*
X35268Y115501D01*
X35892D01*
X44631Y106762D01*
Y103879D01*
X49369D01*
Y108420D01*
X46290D01*
X37207Y117502D01*
X36827Y117756D01*
X36378Y117846D01*
X36168D01*
Y125828D01*
X44631D01*
Y124880D01*
X49369D01*
Y125977D01*
X51844D01*
Y125372D01*
X58353D01*
Y126568D01*
X61844D01*
Y125372D01*
X68353D01*
Y130109D01*
X66172D01*
Y130910D01*
X66356Y131094D01*
X66600Y131682D01*
Y132318D01*
X66356Y132906D01*
X65906Y133356D01*
X65318Y133600D01*
X64682D01*
X64094Y133356D01*
X63644Y132906D01*
X63400Y132318D01*
Y131682D01*
X63644Y131094D01*
X63828Y130910D01*
Y130109D01*
X61844D01*
Y128913D01*
X58353D01*
Y130109D01*
X51844D01*
Y128322D01*
X49369D01*
Y129420D01*
X44631D01*
Y128173D01*
X36168D01*
Y138227D01*
D02*
G37*
G36*
X35731Y109522D02*
X32490D01*
Y107776D01*
X31596Y106881D01*
X31591D01*
X31240Y106811D01*
X30942Y106613D01*
X29390Y105061D01*
X29192Y104763D01*
X29187Y104739D01*
X29139D01*
Y104501D01*
X29122Y104412D01*
Y103839D01*
X29139Y103750D01*
Y101183D01*
X30924D01*
Y103671D01*
X30957Y103839D01*
Y104032D01*
X31971Y105046D01*
X31975D01*
X32327Y105116D01*
X32624Y105315D01*
X33788Y106478D01*
X35731D01*
Y109522D01*
D02*
G37*
G36*
X49369Y102120D02*
X44631D01*
Y101028D01*
X42522D01*
Y101731D01*
X39478D01*
Y99787D01*
X38026Y98336D01*
X37743D01*
X37321Y98525D01*
X37321Y98841D01*
Y100309D01*
X33765D01*
X33765Y98525D01*
X33765Y98025D01*
X33765Y96557D01*
X33765Y96057D01*
X33765Y94588D01*
X33765Y94088D01*
Y92935D01*
X33765Y92620D01*
X33765D01*
Y92435D01*
X33765D01*
Y90651D01*
X37321D01*
Y91227D01*
X37783Y91418D01*
X37850Y91351D01*
X38148Y91152D01*
X38499Y91082D01*
X39478D01*
Y90380D01*
X42522D01*
Y93621D01*
X39478D01*
Y92918D01*
X38879D01*
X37651Y94146D01*
X37578Y94195D01*
X37339Y94562D01*
X37321Y94822D01*
X37321Y96372D01*
X37768Y96501D01*
X38407D01*
X38758Y96570D01*
X39055Y96769D01*
X40776Y98490D01*
X42522D01*
Y99193D01*
X44631D01*
Y97580D01*
X49369D01*
Y102120D01*
D02*
G37*
G36*
X362992Y122605D02*
X361008D01*
X359048Y122294D01*
X357161Y121681D01*
X355394Y120781D01*
X353789Y119614D01*
X352386Y118211D01*
X351220Y116606D01*
X350319Y114839D01*
X349706Y112952D01*
X349395Y110992D01*
Y109008D01*
X349706Y107048D01*
X350319Y105161D01*
X351220Y103394D01*
X352386Y101789D01*
X353789Y100386D01*
X355394Y99220D01*
X357161Y98319D01*
X359048Y97706D01*
X361008Y97395D01*
X362992D01*
X364952Y97706D01*
X366839Y98319D01*
X368606Y99220D01*
X370211Y100386D01*
X371614Y101789D01*
X372780Y103394D01*
X373681Y105161D01*
X374294Y107048D01*
X374605Y109008D01*
Y110992D01*
X374294Y112952D01*
X373681Y114839D01*
X372780Y116606D01*
X371614Y118211D01*
X370211Y119614D01*
X368606Y120781D01*
X366839Y121681D01*
X364952Y122294D01*
X362992Y122605D01*
D02*
G37*
G36*
X172992D02*
X171008D01*
X169048Y122294D01*
X167162Y121681D01*
X165394Y120781D01*
X163789Y119614D01*
X162386Y118211D01*
X161220Y116606D01*
X160319Y114839D01*
X159706Y112952D01*
X159395Y110992D01*
Y109008D01*
X159706Y107048D01*
X160319Y105161D01*
X161220Y103394D01*
X162386Y101789D01*
X163789Y100386D01*
X165394Y99220D01*
X167162Y98319D01*
X169048Y97706D01*
X171008Y97395D01*
X172992D01*
X174952Y97706D01*
X176839Y98319D01*
X178606Y99220D01*
X180211Y100386D01*
X181614Y101789D01*
X182781Y103394D01*
X183681Y105161D01*
X184294Y107048D01*
X184605Y109008D01*
Y110992D01*
X184294Y112952D01*
X183681Y114839D01*
X182781Y116606D01*
X181614Y118211D01*
X180211Y119614D01*
X178606Y120781D01*
X176839Y121681D01*
X174952Y122294D01*
X172992Y122605D01*
D02*
G37*
G36*
X155254Y78109D02*
X148746D01*
Y73372D01*
X155254D01*
Y78109D01*
D02*
G37*
G36*
Y70628D02*
X148746D01*
Y65891D01*
X155254D01*
Y70628D01*
D02*
G37*
G36*
X72260Y60009D02*
X71641Y59885D01*
X71116Y59535D01*
X70766Y59010D01*
X70643Y58391D01*
Y54247D01*
X70766Y53628D01*
X71116Y53103D01*
X71641Y52753D01*
X72260Y52630D01*
X72879Y52753D01*
X73403Y53103D01*
X73754Y53628D01*
X73877Y54247D01*
Y58391D01*
X73754Y59010D01*
X73403Y59535D01*
X72879Y59885D01*
X72260Y60009D01*
D02*
G37*
G36*
X21000Y141433D02*
X10000D01*
X9694Y141306D01*
X9567Y141000D01*
Y102000D01*
X9694Y101694D01*
X12697Y98690D01*
X12541Y98215D01*
X12223Y98167D01*
X12167Y98133D01*
X12101Y98129D01*
X12030Y98050D01*
X11940Y97995D01*
X11924Y97931D01*
X11880Y97882D01*
X11727Y97446D01*
X11731Y97371D01*
X11702Y97302D01*
Y94202D01*
X11829Y93896D01*
X12135Y93769D01*
X12135Y93769D01*
X12478Y93731D01*
Y90490D01*
X15522D01*
Y91193D01*
X16504D01*
X16802Y90894D01*
X17100Y90696D01*
X17451Y90626D01*
X19705D01*
X19833Y90651D01*
X20386D01*
X20630Y90151D01*
X20567Y90000D01*
X20567Y74258D01*
X20626Y74116D01*
X20676Y73971D01*
X39001Y53281D01*
X39512Y52047D01*
X40378Y50920D01*
X46149Y45149D01*
X46322Y45016D01*
X53676Y36713D01*
X53689Y36707D01*
X53694Y36694D01*
X53836Y36635D01*
X53974Y36568D01*
X53987Y36572D01*
X54000Y36567D01*
X60000D01*
X60306Y36694D01*
X60433Y37000D01*
Y37458D01*
X64321D01*
Y43796D01*
X64447Y44748D01*
Y46716D01*
X64321Y47669D01*
Y52038D01*
X61381D01*
X60568Y52851D01*
X60433Y52955D01*
Y53000D01*
X60306Y53306D01*
X60000Y53433D01*
X59810D01*
X59440Y53717D01*
X58126Y54261D01*
X56717Y54447D01*
X52256D01*
X49676Y57027D01*
Y60259D01*
X49490Y61669D01*
X49433Y61807D01*
Y66000D01*
X49306Y66306D01*
X46306Y69306D01*
X46000Y69433D01*
X45376D01*
Y74462D01*
X45447Y75000D01*
X45261Y76410D01*
X44717Y77723D01*
X43851Y78851D01*
X42433Y80270D01*
Y82000D01*
X42306Y82306D01*
X39306Y85306D01*
X39000Y85433D01*
X32088D01*
X31918Y85761D01*
X32202Y86222D01*
X32892D01*
Y89778D01*
X31433D01*
Y90000D01*
X31306Y90306D01*
X31000Y90433D01*
X22770D01*
X22361Y90651D01*
X22361Y90933D01*
Y92319D01*
X22381Y92327D01*
X22466Y92412D01*
X22528Y92562D01*
X22593Y92710D01*
X22696Y97912D01*
X22695Y97914D01*
X22696Y97916D01*
X22635Y98068D01*
X22576Y98221D01*
X22574Y98221D01*
X22573Y98224D01*
X22223Y98581D01*
X22220Y98582D01*
X22220Y98584D01*
X22068Y98646D01*
X21918Y98711D01*
X21916Y98710D01*
X21914Y98711D01*
X18460D01*
Y99973D01*
X18334Y100279D01*
X16612Y102000D01*
X21306Y106694D01*
X21433Y107000D01*
Y138821D01*
X22306Y139694D01*
X22433Y140000D01*
X22306Y140306D01*
X21306Y141306D01*
X21000Y141433D01*
D02*
G37*
G36*
X156416Y34711D02*
X145970D01*
Y28911D01*
X156416D01*
Y34711D01*
D02*
G37*
G36*
X118030D02*
X107584D01*
Y28911D01*
X118030D01*
Y34711D01*
D02*
G37*
G36*
X220504Y32483D02*
X219868D01*
X219280Y32240D01*
X218829Y31789D01*
X218586Y31201D01*
Y30565D01*
X218829Y29977D01*
X219268Y29538D01*
Y28420D01*
X217632D01*
Y23879D01*
X222369D01*
Y28420D01*
X221104D01*
Y29538D01*
X221542Y29977D01*
X221786Y30565D01*
Y31201D01*
X221542Y31789D01*
X221092Y32240D01*
X220504Y32483D01*
D02*
G37*
G36*
X198124Y25728D02*
X196616D01*
X195159Y25338D01*
X193853Y24584D01*
X192786Y23517D01*
X192032Y22211D01*
X191642Y20754D01*
Y19246D01*
X192032Y17789D01*
X192786Y16483D01*
X193853Y15416D01*
X195159Y14662D01*
X196616Y14272D01*
X198124D01*
X199581Y14662D01*
X200887Y15416D01*
X201954Y16483D01*
X202708Y17789D01*
X203098Y19246D01*
Y20754D01*
X202708Y22211D01*
X201954Y23517D01*
X200887Y24584D01*
X199581Y25338D01*
X198124Y25728D01*
D02*
G37*
G36*
X169384D02*
X167876D01*
X166419Y25338D01*
X165113Y24584D01*
X164046Y23517D01*
X163292Y22211D01*
X162902Y20754D01*
Y19246D01*
X163292Y17789D01*
X164046Y16483D01*
X165113Y15416D01*
X166419Y14662D01*
X167876Y14272D01*
X169384D01*
X170841Y14662D01*
X172147Y15416D01*
X173214Y16483D01*
X173968Y17789D01*
X174358Y19246D01*
Y20754D01*
X173968Y22211D01*
X173214Y23517D01*
X172147Y24584D01*
X170841Y25338D01*
X169384Y25728D01*
D02*
G37*
G36*
X147124D02*
X145616D01*
X144159Y25338D01*
X142853Y24584D01*
X141786Y23517D01*
X141032Y22211D01*
X140642Y20754D01*
Y19246D01*
X141032Y17789D01*
X141786Y16483D01*
X142853Y15416D01*
X144159Y14662D01*
X145616Y14272D01*
X147124D01*
X148581Y14662D01*
X149887Y15416D01*
X150954Y16483D01*
X151708Y17789D01*
X152098Y19246D01*
Y20754D01*
X151708Y22211D01*
X150954Y23517D01*
X149887Y24584D01*
X148581Y25338D01*
X147124Y25728D01*
D02*
G37*
G36*
X118384D02*
X116876D01*
X115419Y25338D01*
X114113Y24584D01*
X113046Y23517D01*
X112292Y22211D01*
X111902Y20754D01*
Y19246D01*
X112292Y17789D01*
X113046Y16483D01*
X114113Y15416D01*
X115419Y14662D01*
X116876Y14272D01*
X118384D01*
X119841Y14662D01*
X121147Y15416D01*
X122214Y16483D01*
X122968Y17789D01*
X123358Y19246D01*
Y20754D01*
X122968Y22211D01*
X122214Y23517D01*
X121147Y24584D01*
X119841Y25338D01*
X118384Y25728D01*
D02*
G37*
G36*
X239000Y22682D02*
X238356Y22554D01*
X237810Y22190D01*
X237764Y22120D01*
X236631D01*
Y17580D01*
X237318D01*
Y15420D01*
X236631D01*
Y10880D01*
X241369D01*
Y15420D01*
X240682D01*
Y17580D01*
X241369D01*
Y22120D01*
X240236D01*
X240190Y22190D01*
X239644Y22554D01*
X239000Y22682D01*
D02*
G37*
G36*
X222369Y22120D02*
X217632D01*
Y17580D01*
X218318D01*
Y15420D01*
X217632D01*
Y10880D01*
X222369D01*
Y15420D01*
X221682D01*
Y17580D01*
X222369D01*
Y22120D01*
D02*
G37*
G36*
X381038Y33195D02*
X378961D01*
X376910Y32870D01*
X374935Y32228D01*
X373084Y31286D01*
X371404Y30065D01*
X369935Y28596D01*
X368714Y26916D01*
X367772Y25065D01*
X367130Y23090D01*
X366805Y21038D01*
Y18961D01*
X367130Y16910D01*
X367772Y14935D01*
X368714Y13084D01*
X369935Y11404D01*
X371404Y9935D01*
X373084Y8714D01*
X374935Y7772D01*
X376910Y7130D01*
X378961Y6805D01*
X381038D01*
X383090Y7130D01*
X385065Y7772D01*
X386916Y8714D01*
X388596Y9935D01*
X390065Y11404D01*
X391286Y13084D01*
X392229Y14935D01*
X392870Y16910D01*
X393195Y18961D01*
Y21038D01*
X392870Y23090D01*
X392229Y25065D01*
X391286Y26916D01*
X390065Y28596D01*
X388596Y30065D01*
X386916Y31286D01*
X385065Y32228D01*
X383090Y32870D01*
X381038Y33195D01*
D02*
G37*
G36*
X21038D02*
X18961D01*
X16910Y32870D01*
X14935Y32228D01*
X13084Y31286D01*
X11404Y30065D01*
X9935Y28596D01*
X8714Y26916D01*
X7772Y25065D01*
X7130Y23090D01*
X6805Y21038D01*
Y18961D01*
X7130Y16910D01*
X7772Y14935D01*
X8714Y13084D01*
X9935Y11404D01*
X11404Y9935D01*
X13084Y8714D01*
X14935Y7772D01*
X16910Y7130D01*
X18961Y6805D01*
X21038D01*
X23090Y7130D01*
X25065Y7772D01*
X26916Y8714D01*
X28596Y9935D01*
X30065Y11404D01*
X31286Y13084D01*
X32228Y14935D01*
X32870Y16910D01*
X33195Y18961D01*
Y21038D01*
X32870Y23090D01*
X32228Y25065D01*
X31286Y26916D01*
X30065Y28596D01*
X28596Y30065D01*
X26916Y31286D01*
X25065Y32228D01*
X23090Y32870D01*
X21038Y33195D01*
D02*
G37*
%LPD*%
G36*
X117000Y384000D02*
Y380000D01*
X122000Y375000D01*
X131070D01*
X131123Y374965D01*
X131669Y374856D01*
X132216Y374965D01*
X132268Y375000D01*
X133000D01*
Y373000D01*
X121000D01*
X116000Y378000D01*
X109000D01*
X106000Y381000D01*
X96000D01*
X94000Y379000D01*
Y361000D01*
X75000D01*
Y384000D01*
X107000Y384000D01*
X108000Y385000D01*
X116000D01*
X117000Y384000D01*
D02*
G37*
G36*
X154000Y388000D02*
X153000Y387000D01*
Y383000D01*
X138000D01*
X133000Y378000D01*
X133011Y377989D01*
Y375440D01*
X133000Y375433D01*
X132268D01*
X132153Y375385D01*
X132131Y375389D01*
X131669Y375297D01*
X131208Y375389D01*
X131186Y375385D01*
X131070Y375433D01*
X129000D01*
Y382000D01*
X121000D01*
X114000Y389000D01*
X67000D01*
X64000Y386000D01*
Y348000D01*
X66000D01*
X68000Y346000D01*
Y339000D01*
X56000D01*
X49000Y332000D01*
Y328000D01*
X36000D01*
X35000Y329000D01*
X36000Y330000D01*
Y334000D01*
X36862D01*
X36896Y333917D01*
X37000Y334000D01*
X37479Y334000D01*
X47000D01*
X55000Y342000D01*
Y390000D01*
X62000Y397000D01*
X145000D01*
X154000Y388000D01*
D02*
G37*
G36*
X108694Y377694D02*
X109000Y377567D01*
X115821D01*
X120019Y373369D01*
X119828Y372907D01*
X108879D01*
X103786Y378000D01*
Y380298D01*
X104174Y380567D01*
X105821D01*
X108694Y377694D01*
D02*
G37*
G36*
X118746Y368109D02*
X118746D01*
Y366067D01*
X114368D01*
Y367420D01*
X109632D01*
Y366338D01*
X109132Y366131D01*
X108906Y366356D01*
X108318Y366600D01*
X107682D01*
X107094Y366356D01*
X106644Y365906D01*
X106400Y365318D01*
Y364682D01*
X106644Y364094D01*
X107094Y363644D01*
X107682Y363400D01*
X108318D01*
X108906Y363644D01*
X109132Y363869D01*
X109632Y363662D01*
Y362879D01*
X114368D01*
Y364232D01*
X118746D01*
Y363372D01*
X125180D01*
X125568Y363001D01*
X125567Y363000D01*
Y360999D01*
X125254Y360628D01*
X118746D01*
Y357189D01*
X117474Y355918D01*
X105586D01*
X105235Y355848D01*
X104937Y355649D01*
X104351Y355063D01*
X104152Y354765D01*
X104082Y354414D01*
Y337649D01*
X103639Y337243D01*
X103554Y337251D01*
X103317Y337710D01*
X103327Y337743D01*
X103433Y338000D01*
Y356821D01*
X105306Y358694D01*
X105433Y359000D01*
Y365821D01*
X108179Y368567D01*
X118645D01*
X118746Y368109D01*
D02*
G37*
G36*
X133000Y365000D02*
X131352D01*
X131291Y365012D01*
X130421D01*
X130360Y365000D01*
X129000D01*
Y362263D01*
X128644Y361906D01*
X128400Y361318D01*
Y360682D01*
X128644Y360094D01*
X129000Y359737D01*
Y353000D01*
X143000D01*
Y354000D01*
X145000Y356000D01*
X150000D01*
Y339000D01*
X144000Y333000D01*
X109000D01*
Y352000D01*
X110000Y353000D01*
X126000D01*
Y363000D01*
X130000Y367000D01*
X133000D01*
Y365000D01*
D02*
G37*
G36*
X125254Y355891D02*
X125567Y355521D01*
Y353433D01*
X110000D01*
X109694Y353306D01*
X108694Y352306D01*
X108690Y352298D01*
X106801D01*
Y341398D01*
X106418Y340899D01*
X105918Y341068D01*
Y354034D01*
X105966Y354082D01*
X117854D01*
X118205Y354152D01*
X118503Y354351D01*
X120043Y355891D01*
X125254D01*
D02*
G37*
G36*
X106000Y373190D02*
Y371000D01*
X133000D01*
Y369000D01*
X108000D01*
X105000Y366000D01*
Y359000D01*
X103000Y357000D01*
Y338000D01*
X95000D01*
X94000Y337000D01*
Y330000D01*
X88000D01*
Y338000D01*
X83000Y343000D01*
X84000Y344000D01*
Y346000D01*
X85000D01*
X88000Y349000D01*
X93000D01*
Y353000D01*
X97000Y357000D01*
Y376000D01*
X103191D01*
X106000Y373190D01*
D02*
G37*
G36*
X121000Y322000D02*
X125000Y318000D01*
X128000D01*
X132000Y314000D01*
X136000Y318000D01*
X142000D01*
Y313000D01*
X135399D01*
X131263Y308864D01*
X131095Y308794D01*
X131026Y308627D01*
X131000Y308601D01*
Y308564D01*
X130915Y308360D01*
Y307533D01*
X130885Y307475D01*
X130415Y307127D01*
X129655Y307217D01*
X129511Y307176D01*
X129478Y307170D01*
X129462Y307173D01*
X129000Y307081D01*
X128623Y307156D01*
X128375Y307321D01*
X128275Y307341D01*
X128186Y307391D01*
X127620Y307458D01*
X127619Y307533D01*
X127293Y308277D01*
X127234Y308334D01*
X127203Y308410D01*
X127000Y308612D01*
Y309000D01*
X129000Y311000D01*
X126000Y314000D01*
X124000D01*
X119000Y319000D01*
X113000D01*
X111000Y321000D01*
X94000D01*
X91000Y318000D01*
X70000D01*
X63000Y311000D01*
Y291000D01*
X66000D01*
Y285000D01*
X56000D01*
X48000Y277000D01*
Y273000D01*
X36000D01*
Y279000D01*
X46000D01*
X54000Y287000D01*
Y291000D01*
X59000D01*
Y312000D01*
X69000Y322000D01*
X89000D01*
X93000Y326000D01*
X108960D01*
X109590Y325739D01*
X111000Y325553D01*
X112410Y325739D01*
X113040Y326000D01*
X121000D01*
Y322000D01*
D02*
G37*
G36*
X96994Y337298D02*
Y333702D01*
X103195D01*
Y335378D01*
X104295D01*
X104646Y335448D01*
X104944Y335646D01*
X105092Y335794D01*
X105553Y335602D01*
Y331000D01*
X105739Y329590D01*
X106283Y328277D01*
X107149Y327149D01*
X107464Y326906D01*
X107304Y326433D01*
X93000D01*
X92694Y326306D01*
X88920Y322532D01*
X88837Y322520D01*
X88527Y322567D01*
X88320Y323048D01*
X88494Y323309D01*
X88617Y323928D01*
Y328072D01*
X88494Y328691D01*
X88243Y329067D01*
X88437Y329537D01*
X88464Y329567D01*
X94000D01*
X94306Y329694D01*
X94433Y330000D01*
Y336821D01*
X95179Y337567D01*
X96605D01*
X96994Y337298D01*
D02*
G37*
G36*
X109694Y307694D02*
X110000Y307567D01*
X120279D01*
X120585Y307694D01*
X121004Y308113D01*
X123242Y305876D01*
X123034Y305376D01*
X108922D01*
X103547Y310751D01*
X103249Y310950D01*
X102898Y311020D01*
X102101D01*
Y312798D01*
X95899D01*
Y311308D01*
X95390D01*
X95039Y311238D01*
X94741Y311039D01*
X93351Y309649D01*
X93152Y309351D01*
X93082Y309000D01*
Y294863D01*
X93057Y294847D01*
X92557Y295123D01*
Y313294D01*
X92898Y313625D01*
X103762D01*
X109694Y307694D01*
D02*
G37*
G36*
X126896Y308104D02*
X127222Y307360D01*
Y307045D01*
X127428D01*
X128135Y306961D01*
X128454Y306748D01*
X129000Y306640D01*
X129546Y306748D01*
X129604Y306787D01*
X130638Y306665D01*
X130638Y306665D01*
X130703Y306599D01*
Y305182D01*
X127540D01*
X127028Y305694D01*
X124036D01*
X121004Y308725D01*
X120279Y308000D01*
X110000D01*
X103942Y314058D01*
X92662D01*
X92011Y313407D01*
X92124Y313294D01*
Y294388D01*
X73612D01*
X73000Y295000D01*
Y316000D01*
X119000D01*
X126896Y308104D01*
D02*
G37*
G36*
X141868Y312067D02*
X139351Y309550D01*
X139152Y309253D01*
X139082Y308902D01*
Y308829D01*
X138639D01*
X138639Y307045D01*
X138639Y306545D01*
Y305076D01*
X142195D01*
Y305082D01*
X142886D01*
X143617Y304351D01*
X143915Y304152D01*
X144177Y304100D01*
X144128Y303600D01*
X143682D01*
X143094Y303356D01*
X142685Y302948D01*
X142195Y302924D01*
X142195Y302924D01*
X142195Y302924D01*
X138639D01*
Y301139D01*
X140713D01*
X141000Y301082D01*
X142655D01*
X143094Y300644D01*
X143682Y300400D01*
X143639Y299918D01*
X143000D01*
X142649Y299848D01*
X142351Y299649D01*
X141722Y299020D01*
X140425D01*
X140257Y298987D01*
X138639D01*
X138639Y297202D01*
X138639Y296702D01*
Y295234D01*
X142195D01*
Y295254D01*
X144478D01*
Y293490D01*
X146224D01*
X150232Y289482D01*
Y283368D01*
X148880D01*
Y283228D01*
X148380Y283129D01*
X148306Y283306D01*
X147306Y284306D01*
X147000Y284433D01*
X142000D01*
X141694Y284306D01*
X141323Y283935D01*
X135000D01*
X133590Y283749D01*
X132827Y283433D01*
X127433D01*
Y292597D01*
X127933Y292804D01*
X128094Y292644D01*
X128682Y292400D01*
X129318D01*
X129906Y292644D01*
X130356Y293094D01*
X130600Y293682D01*
Y294318D01*
X130428Y294734D01*
X130682Y295234D01*
X130778D01*
Y297018D01*
X130778Y297018D01*
X131013Y297125D01*
X131140Y297431D01*
Y298764D01*
X131013Y299070D01*
X130965Y299118D01*
X130818Y299179D01*
X130778Y299197D01*
Y300696D01*
X131015Y300794D01*
X131142Y301100D01*
Y302696D01*
X131015Y303002D01*
X130999Y303018D01*
X130851Y303080D01*
X130778Y303112D01*
Y304780D01*
X131009Y304875D01*
X131136Y305182D01*
Y306599D01*
X131071Y306757D01*
X131210Y307190D01*
X131270Y307276D01*
X131300Y307334D01*
X131305Y307397D01*
X131314Y307411D01*
X131308Y307432D01*
X131309Y307437D01*
X131348Y307533D01*
Y308274D01*
X131400Y308399D01*
Y308435D01*
X131426Y308461D01*
X131427Y308463D01*
X131429Y308464D01*
X131490Y308525D01*
X131569Y308558D01*
X135578Y312567D01*
X141661D01*
X141868Y312067D01*
D02*
G37*
G36*
X122015Y300167D02*
X120957Y299109D01*
X115746D01*
Y297067D01*
X110369D01*
Y298420D01*
X105631D01*
Y297338D01*
X105131Y297131D01*
X104906Y297356D01*
X104318Y297600D01*
X103789D01*
Y298177D01*
X106280Y300667D01*
X121808D01*
X122015Y300167D01*
D02*
G37*
G36*
X124311Y299013D02*
X124556Y298664D01*
X124567Y298640D01*
Y284433D01*
X107876D01*
X107609Y284933D01*
X107710Y285082D01*
X115000D01*
X115351Y285152D01*
X115649Y285351D01*
X115848Y285649D01*
X115859Y285707D01*
X117043Y286891D01*
X122254D01*
Y291628D01*
X115746D01*
Y288189D01*
X114474Y286918D01*
X107000D01*
X106649Y286848D01*
X106351Y286649D01*
X104365Y284663D01*
X104289Y284550D01*
X103789Y284701D01*
Y285535D01*
X103756Y285614D01*
Y285700D01*
X103696Y285761D01*
X103663Y285841D01*
X103583Y285874D01*
X103522Y285935D01*
X103339Y286011D01*
X103011Y286339D01*
X102833Y286768D01*
Y287232D01*
X103011Y287661D01*
X103339Y287989D01*
X103522Y288065D01*
X103583Y288126D01*
X103663Y288159D01*
X103696Y288239D01*
X103756Y288300D01*
Y288386D01*
X103789Y288465D01*
Y294400D01*
X104318D01*
X104906Y294644D01*
X105131Y294869D01*
X105631Y294662D01*
Y293880D01*
X110369D01*
Y295232D01*
X115746D01*
Y294372D01*
X122254D01*
Y297811D01*
X123526Y299082D01*
X124209D01*
X124311Y299013D01*
D02*
G37*
G36*
X95170Y293231D02*
Y287782D01*
X94100Y286712D01*
X93600Y286919D01*
Y287318D01*
X93356Y287906D01*
X92906Y288356D01*
X92318Y288600D01*
X91682D01*
X91094Y288356D01*
X90644Y287906D01*
X90594Y287788D01*
X89961D01*
X89897Y287884D01*
X89372Y288234D01*
X88753Y288357D01*
X84609D01*
X83990Y288234D01*
X83465Y287884D01*
X83115Y287359D01*
X82991Y286740D01*
X83115Y286121D01*
X83465Y285597D01*
X83990Y285246D01*
X84609Y285123D01*
X88753D01*
X89372Y285246D01*
X89897Y285597D01*
X90134Y285952D01*
X90785D01*
X91094Y285644D01*
X91682Y285400D01*
X92081D01*
X92288Y284900D01*
X89270Y281883D01*
X82835D01*
X82632Y282128D01*
X82540Y282343D01*
X82566Y282381D01*
X82689Y283000D01*
X82566Y283619D01*
X82216Y284143D01*
X81691Y284494D01*
X81072Y284617D01*
X76928D01*
X76546Y284541D01*
X76300Y285002D01*
X82380Y291082D01*
X92000D01*
X92351Y291152D01*
X92649Y291351D01*
X94649Y293351D01*
X94670Y293383D01*
X95170Y293231D01*
D02*
G37*
G36*
X75434Y282381D02*
X75784Y281857D01*
X76309Y281506D01*
X76928Y281383D01*
X81072D01*
X81691Y281506D01*
X81842Y281607D01*
X81972Y281563D01*
X82304Y281314D01*
Y278916D01*
X81694Y278306D01*
X81567Y278000D01*
X81694Y277694D01*
X83694Y275694D01*
X84000Y275567D01*
X92567D01*
Y271464D01*
X92537Y271437D01*
X92067Y271243D01*
X91691Y271494D01*
X91072Y271617D01*
X86928D01*
X86309Y271494D01*
X85784Y271143D01*
X85633Y270918D01*
X83380D01*
X74918Y279380D01*
Y282413D01*
X75418Y282462D01*
X75434Y282381D01*
D02*
G37*
G36*
X106567Y283108D02*
Y267334D01*
X106453Y267185D01*
X105909Y265872D01*
X105723Y264462D01*
X105909Y263052D01*
X105993Y262849D01*
X105715Y262433D01*
X99000D01*
X98694Y262306D01*
X96933Y260545D01*
X96433Y260704D01*
Y268730D01*
X96750Y268981D01*
X97214Y268777D01*
Y265702D01*
X103416D01*
Y266582D01*
X104428D01*
X104779Y266652D01*
X105077Y266851D01*
X105663Y267437D01*
X105861Y267735D01*
X105931Y268086D01*
Y283284D01*
X106067Y283375D01*
X106567Y283108D01*
D02*
G37*
G36*
X130658Y298812D02*
X130707Y298764D01*
Y297431D01*
X127431D01*
X127000Y297000D01*
Y283000D01*
X141000D01*
X142000Y284000D01*
X147000D01*
X148000Y283000D01*
Y277000D01*
X149000Y276000D01*
Y268000D01*
X143000D01*
X142000Y267000D01*
X127000D01*
X125000Y265000D01*
X107000D01*
Y284000D01*
X125000D01*
Y298640D01*
X125359Y298988D01*
X130658Y298812D01*
D02*
G37*
G36*
X103087Y307472D02*
Y303390D01*
X130693Y302712D01*
X130709Y302696D01*
Y301100D01*
X106100D01*
X103357Y298357D01*
Y297465D01*
X103094Y297356D01*
X102644Y296906D01*
X102400Y296318D01*
Y295682D01*
X102644Y295094D01*
X103094Y294644D01*
X103357Y294535D01*
Y288465D01*
X103094Y288356D01*
X102644Y287906D01*
X102400Y287318D01*
Y286682D01*
X102644Y286094D01*
X103094Y285644D01*
X103357Y285535D01*
Y270296D01*
X97296D01*
X96000Y269000D01*
Y260433D01*
X84837D01*
X84718Y260718D01*
Y264670D01*
X92670D01*
X93000Y265000D01*
Y276000D01*
X84000D01*
X82000Y278000D01*
X82737Y278737D01*
Y281450D01*
X89450D01*
X95603Y287603D01*
Y307891D01*
X102891D01*
X103087Y307472D01*
D02*
G37*
G36*
X124000Y255000D02*
X142000D01*
Y250000D01*
X141000Y249000D01*
X134893D01*
X130836Y244943D01*
X130821D01*
X130387Y244763D01*
X130207Y244329D01*
Y243688D01*
X130000Y243000D01*
X127252D01*
X127088Y243145D01*
X127000Y243175D01*
Y243428D01*
X125789Y244638D01*
X124182D01*
Y244705D01*
X119886Y249000D01*
X116931D01*
X116439Y249394D01*
X116370Y249414D01*
X116351Y249461D01*
X116328Y249471D01*
X116316Y249493D01*
X116000Y249746D01*
Y254000D01*
X112000Y258000D01*
X101000D01*
X99000Y256000D01*
X71000D01*
X63000Y248000D01*
Y237000D01*
X67000D01*
Y230000D01*
X57000D01*
X56996Y230004D01*
X55529D01*
Y229969D01*
X48967Y223407D01*
X49000Y223374D01*
Y218000D01*
X34000D01*
Y226000D01*
X47000D01*
Y226157D01*
X53862Y233019D01*
Y246862D01*
X68000Y261000D01*
X69000Y260000D01*
X97000D01*
X99000Y262000D01*
X106345D01*
X106453Y261739D01*
X107318Y260611D01*
X108447Y259745D01*
X109760Y259201D01*
X111170Y259015D01*
X112580Y259201D01*
X113893Y259745D01*
X115021Y260611D01*
X116273Y261862D01*
X116273Y261862D01*
X116378Y262000D01*
X117000D01*
X124000Y255000D01*
D02*
G37*
G36*
X102814Y248273D02*
X102846Y248263D01*
X102866Y248236D01*
X106340Y246133D01*
X106409Y246123D01*
X106466Y246082D01*
X117173Y243587D01*
X119893Y242407D01*
X119791Y241918D01*
X116380D01*
X116043Y242255D01*
X115745Y242454D01*
X115394Y242524D01*
X105038D01*
X104620Y242941D01*
X104323Y243141D01*
X103972Y243210D01*
X102087D01*
X101918Y243380D01*
Y246000D01*
X101848Y246351D01*
X101649Y246649D01*
X99649Y248649D01*
X99351Y248848D01*
X99000Y248918D01*
X98101D01*
Y249798D01*
X91899D01*
Y248308D01*
X91390D01*
X91039Y248238D01*
X90741Y248039D01*
X89387Y246685D01*
X89235Y246700D01*
X88887Y246854D01*
Y250567D01*
X98000Y250567D01*
X98306Y250694D01*
X99027Y251415D01*
X102814Y248273D01*
D02*
G37*
G36*
X110000Y256692D02*
Y254000D01*
X116045Y249155D01*
Y249057D01*
X116168D01*
X122845Y243705D01*
X126801Y242821D01*
X127167Y242497D01*
X127167Y242497D01*
X127427Y242519D01*
X127689Y242519D01*
X129766D01*
Y241234D01*
X129681Y241028D01*
X124160D01*
X122501Y241748D01*
X122351Y241848D01*
X122202Y241878D01*
X117309Y244000D01*
X106564Y246504D01*
X103091Y248606D01*
X99000Y252000D01*
X98000Y251000D01*
X88454Y251000D01*
Y230454D01*
X88000Y230000D01*
X69000D01*
Y251000D01*
X73000Y255000D01*
X100000D01*
X101706Y256706D01*
X109925D01*
X110000Y256692D01*
D02*
G37*
G36*
X99000Y242000D02*
X103315Y240315D01*
X122704Y239141D01*
X123000Y239082D01*
X123677D01*
X129879Y238707D01*
Y237540D01*
X129384Y237068D01*
X98557Y238881D01*
X98000Y238324D01*
Y229000D01*
X102496Y224504D01*
Y208165D01*
X95165D01*
X95000Y208000D01*
Y201000D01*
X91000Y197000D01*
X83000D01*
Y201000D01*
X84000Y202000D01*
X91000D01*
Y212000D01*
X90000Y213000D01*
X82000D01*
X80000Y215000D01*
Y217000D01*
X82000Y219000D01*
X91000D01*
Y222737D01*
X91356Y223094D01*
X91600Y223682D01*
Y224318D01*
X91356Y224906D01*
X91000Y225263D01*
Y244000D01*
X92000Y245000D01*
X99000D01*
Y242000D01*
D02*
G37*
G36*
X104982Y238069D02*
X104967Y237569D01*
X103631D01*
Y236338D01*
X103131Y236131D01*
X102906Y236356D01*
X102318Y236600D01*
X101682D01*
X101094Y236356D01*
X100644Y235906D01*
X100400Y235318D01*
Y234682D01*
X100644Y234094D01*
X101094Y233644D01*
X101682Y233400D01*
X102318D01*
X102906Y233644D01*
X103131Y233869D01*
X103631Y233662D01*
Y233029D01*
X108369D01*
Y234082D01*
X113746D01*
Y232631D01*
X120254D01*
Y235114D01*
X122848D01*
X123040Y234652D01*
X121694Y233306D01*
X121567Y233000D01*
Y222433D01*
X106876D01*
X106609Y222933D01*
X106710Y223082D01*
X108323D01*
X108674Y223152D01*
X108972Y223351D01*
X112703Y227082D01*
X113746D01*
Y225151D01*
X120254D01*
Y229888D01*
X113746D01*
Y228918D01*
X112323D01*
X111972Y228848D01*
X111674Y228649D01*
X107943Y224918D01*
X106000D01*
X105649Y224848D01*
X105351Y224649D01*
X103429Y222727D01*
X103122Y222795D01*
X102929Y222917D01*
Y224504D01*
X102802Y224810D01*
X98433Y229179D01*
Y238066D01*
X98814Y238432D01*
X104982Y238069D01*
D02*
G37*
G36*
X90567Y228616D02*
Y225766D01*
X90318Y225600D01*
X89682D01*
X89094Y225356D01*
X88807Y225070D01*
X88236Y225113D01*
X88216Y225143D01*
X87691Y225494D01*
X87072Y225617D01*
X82928D01*
X82309Y225494D01*
X81784Y225143D01*
X81434Y224619D01*
X81311Y224000D01*
X81434Y223381D01*
X81784Y222857D01*
X82309Y222506D01*
X82928Y222383D01*
X87072D01*
X87691Y222506D01*
X88216Y222857D01*
X88236Y222887D01*
X88807Y222930D01*
X89094Y222644D01*
X89682Y222400D01*
X90318D01*
X90567Y222234D01*
Y219433D01*
X82000D01*
X81694Y219306D01*
X79694Y217306D01*
X79567Y217000D01*
Y215000D01*
X79694Y214694D01*
X81694Y212694D01*
X82000Y212567D01*
X89821D01*
X90567Y211821D01*
Y208464D01*
X90537Y208437D01*
X90067Y208243D01*
X89691Y208494D01*
X89072Y208617D01*
X84928D01*
X84309Y208494D01*
X83784Y208143D01*
X83633Y207918D01*
X82380D01*
X72918Y217380D01*
Y225034D01*
X74966Y227082D01*
X88000D01*
X88351Y227152D01*
X88649Y227351D01*
X90105Y228807D01*
X90567Y228616D01*
D02*
G37*
G36*
X130000Y233000D02*
X126000D01*
Y222000D01*
X131000Y217000D01*
X142000D01*
Y218000D01*
X144000Y220000D01*
X148000D01*
X149000Y219000D01*
Y213000D01*
X150000Y212000D01*
Y207000D01*
X144000D01*
X143000Y208000D01*
X136000D01*
X133000Y205000D01*
Y196000D01*
X126263D01*
X125906Y196356D01*
X125458Y196542D01*
X124000Y198000D01*
Y203000D01*
X105653D01*
X105462Y203462D01*
X106000Y204000D01*
Y222000D01*
X122000D01*
Y233000D01*
X124000Y235000D01*
X130000D01*
Y233000D01*
D02*
G37*
G36*
X105567Y221124D02*
Y204179D01*
X105156Y203768D01*
X105123Y203689D01*
X105062Y203628D01*
Y203541D01*
X105029Y203462D01*
X105062Y203382D01*
Y203296D01*
X105253Y202834D01*
X105314Y202773D01*
X105347Y202694D01*
X105427Y202661D01*
X105488Y202600D01*
X105574D01*
X105653Y202567D01*
X107553D01*
Y201563D01*
X107739Y200153D01*
X108245Y198933D01*
X108037Y198433D01*
X93699D01*
X93507Y198895D01*
X95306Y200694D01*
X95433Y201000D01*
Y207732D01*
X96056D01*
X96214Y207298D01*
X96214Y207232D01*
Y203702D01*
X102416D01*
Y205082D01*
X103414D01*
X103765Y205152D01*
X104063Y205351D01*
X104649Y205937D01*
X104848Y206235D01*
X104918Y206586D01*
Y221290D01*
X105067Y221391D01*
X105567Y221124D01*
D02*
G37*
G36*
X109149Y197712D02*
X110277Y196846D01*
X111590Y196302D01*
X113000Y196116D01*
X114410Y196302D01*
X115500Y196754D01*
X116000Y196469D01*
Y192000D01*
X118341D01*
X118440Y191500D01*
X118094Y191356D01*
X117644Y190906D01*
X117400Y190318D01*
Y189682D01*
X117644Y189094D01*
X118094Y188644D01*
X118682Y188400D01*
X119318D01*
X119906Y188644D01*
X120345Y189082D01*
X121918D01*
X126000Y185000D01*
X128000Y187000D01*
X143000D01*
X143379Y186621D01*
Y181674D01*
X138828D01*
X138801Y181647D01*
X137925Y182522D01*
X130522D01*
X124000Y176000D01*
Y174174D01*
X123986Y174165D01*
X120835D01*
X120000Y175000D01*
Y182000D01*
X111000Y191000D01*
X80000D01*
X79000Y192000D01*
X67000Y180000D01*
Y176000D01*
X56000D01*
X48000Y168000D01*
Y164000D01*
X36000D01*
Y170000D01*
X46000D01*
X54000Y178000D01*
Y182000D01*
X55000Y183000D01*
X63000D01*
X78000Y198000D01*
X82567D01*
Y197000D01*
X82694Y196694D01*
X83000Y196567D01*
X91000D01*
X91306Y196694D01*
X92612Y198000D01*
X108927D01*
X109149Y197712D01*
D02*
G37*
G36*
X104567Y181000D02*
X104694Y180694D01*
X106694Y178694D01*
X107000Y178567D01*
X112567D01*
Y177435D01*
X112694Y177129D01*
X116444Y173380D01*
X116252Y172918D01*
X111185D01*
X103990Y180112D01*
X103693Y180311D01*
X103341Y180381D01*
X101006D01*
Y181298D01*
X94805D01*
Y179520D01*
X94602D01*
X94251Y179450D01*
X93954Y179251D01*
X92895Y178193D01*
X92433Y178384D01*
Y180821D01*
X94179Y182567D01*
X104567D01*
Y181000D01*
D02*
G37*
G36*
X115000Y185000D02*
Y178713D01*
X119819Y173894D01*
Y173732D01*
X123986D01*
X124000Y173699D01*
Y172000D01*
X118435D01*
X113000Y177435D01*
Y179000D01*
X107000D01*
X105000Y181000D01*
Y183000D01*
X94000D01*
X92000Y181000D01*
Y162000D01*
X71000D01*
Y182000D01*
X74000Y185000D01*
X110000Y186000D01*
X113000Y187000D01*
X115000Y185000D01*
D02*
G37*
G36*
X109297Y172211D02*
X109080Y171760D01*
X103433Y172388D01*
Y175000D01*
X103306Y175306D01*
X101878Y176735D01*
X101572Y176862D01*
X94866D01*
X94681Y177310D01*
X94989Y177685D01*
X97008D01*
X97097Y177702D01*
X101006D01*
Y178546D01*
X102961D01*
X109297Y172211D01*
D02*
G37*
G36*
X115953Y167105D02*
X114957Y166109D01*
X109746D01*
Y163067D01*
X107369D01*
Y164420D01*
X102631D01*
X102433Y164838D01*
Y167567D01*
X115762D01*
X115953Y167105D01*
D02*
G37*
G36*
X103000Y175000D02*
Y172000D01*
X110419Y171176D01*
X110454Y171152D01*
X110805Y171082D01*
X111259D01*
X117290Y170412D01*
X117383Y170320D01*
X117680Y170121D01*
X118032Y170051D01*
X120542D01*
X121000Y170000D01*
X124000D01*
Y168000D01*
X102000D01*
Y162859D01*
X101500Y162525D01*
X101318Y162600D01*
X100682D01*
X100094Y162356D01*
X99644Y161906D01*
X99400Y161318D01*
Y160682D01*
X99644Y160094D01*
X99869Y159869D01*
X97000Y157000D01*
Y134000D01*
X89000D01*
X87000Y132000D01*
Y129000D01*
X83000D01*
Y143000D01*
X81000D01*
X77000Y147000D01*
X78000Y148000D01*
Y149000D01*
X85000D01*
X87000Y151000D01*
Y153400D01*
X87318D01*
X87906Y153644D01*
X88356Y154094D01*
X88600Y154682D01*
Y155318D01*
X88525Y155500D01*
X88859Y156000D01*
X90286D01*
X94546Y160259D01*
Y176428D01*
X101572D01*
X103000Y175000D01*
D02*
G37*
G36*
X117567Y165417D02*
Y150433D01*
X101876D01*
X101610Y150933D01*
X101710Y151082D01*
X107854D01*
X108205Y151152D01*
X108503Y151351D01*
X111043Y153891D01*
X116254D01*
Y158628D01*
X109746D01*
Y155189D01*
X107474Y152918D01*
X101000D01*
X100649Y152848D01*
X100351Y152649D01*
X98351Y150649D01*
X98152Y150351D01*
X98082Y150000D01*
Y132966D01*
X98034Y132918D01*
X97101D01*
Y133609D01*
X97306Y133694D01*
X97433Y134000D01*
Y156821D01*
X100175Y159563D01*
X100192Y159603D01*
X100682Y159400D01*
X101318D01*
X101906Y159644D01*
X102135Y159872D01*
X102631Y159880D01*
Y159880D01*
X107369D01*
Y161232D01*
X110524D01*
X110875Y161302D01*
X110979Y161372D01*
X116254D01*
Y164811D01*
X117067Y165624D01*
X117567Y165417D01*
D02*
G37*
G36*
X90899Y130202D02*
X97101D01*
Y131082D01*
X98414D01*
X98765Y131152D01*
X99063Y131351D01*
X99105Y131393D01*
X99567Y131202D01*
Y129000D01*
X99608Y128900D01*
X99620Y128793D01*
X100713Y126789D01*
X100739Y126590D01*
X101283Y125277D01*
X101586Y124881D01*
X101365Y124433D01*
X82617D01*
Y128072D01*
X82593Y128194D01*
X82993Y128561D01*
X83028Y128567D01*
X87000D01*
X87306Y128694D01*
X87433Y129000D01*
Y131821D01*
X89179Y133567D01*
X90899D01*
Y130202D01*
D02*
G37*
G36*
X102717Y123114D02*
X102767Y123074D01*
X102791Y123015D01*
X102891Y122974D01*
X102975Y122906D01*
X102998Y122885D01*
Y122709D01*
X103040Y122609D01*
X103051Y122502D01*
X104000Y120763D01*
Y118000D01*
X81000D01*
X76000Y110000D01*
Y88000D01*
X62000D01*
X62000Y107000D01*
X78896Y123896D01*
X78945Y123899D01*
X79411Y123786D01*
X79506Y123309D01*
X79857Y122784D01*
X80381Y122434D01*
X81000Y122311D01*
X81619Y122434D01*
X82143Y122784D01*
X82494Y123309D01*
X82617Y123928D01*
Y124000D01*
X102234D01*
X102717Y123114D01*
D02*
G37*
G36*
X124000Y164000D02*
X120000D01*
Y156000D01*
X123000Y153000D01*
X143000D01*
Y137000D01*
X139000Y133000D01*
X123400Y133000D01*
X122256Y118344D01*
X118446Y118351D01*
X105813Y118344D01*
X103431Y122709D01*
Y123321D01*
X103097D01*
X100000Y129000D01*
Y149000D01*
X101000Y150000D01*
X118000D01*
Y166000D01*
X124000D01*
Y164000D01*
D02*
G37*
G36*
X105432Y118136D02*
X105482Y118096D01*
X105507Y118037D01*
X105606Y117996D01*
X105690Y117928D01*
X105754Y117935D01*
X105813Y117911D01*
X106111Y117911D01*
X106569Y117411D01*
Y112679D01*
X108709D01*
X108916Y112179D01*
X108644Y111906D01*
X108400Y111318D01*
Y110682D01*
X108644Y110094D01*
X109094Y109644D01*
X109682Y109400D01*
X110318D01*
X110906Y109644D01*
X111356Y110094D01*
X111600Y110682D01*
Y111318D01*
X111356Y111906D01*
X111084Y112179D01*
X111291Y112679D01*
X112961D01*
X117379Y108260D01*
X117289Y107908D01*
X117188Y107760D01*
X109648D01*
X103431Y113977D01*
Y117567D01*
X104000D01*
X104306Y117694D01*
X104433Y118000D01*
Y118957D01*
X104918Y119080D01*
X105432Y118136D01*
D02*
G37*
G36*
X95742Y112679D02*
X100747D01*
X100954Y112179D01*
X100830Y112054D01*
X100586Y111466D01*
Y110829D01*
X100830Y110241D01*
X101280Y109791D01*
X101868Y109548D01*
X102504D01*
X103092Y109791D01*
X103542Y110241D01*
X103637Y110469D01*
X104226Y110586D01*
X108513Y106299D01*
X108388Y105883D01*
X108327Y105799D01*
X91006D01*
Y107298D01*
X84805D01*
Y106037D01*
X83705D01*
X83354Y105967D01*
X83056Y105768D01*
X82351Y105063D01*
X82152Y104765D01*
X82082Y104414D01*
Y90141D01*
X81661Y89720D01*
X81199Y89911D01*
Y107298D01*
X76433D01*
Y109876D01*
X81240Y117567D01*
X95742D01*
Y112679D01*
D02*
G37*
G36*
X121778Y103982D02*
X121915Y103539D01*
Y102000D01*
X120354D01*
X120118Y102047D01*
X112785D01*
X112566Y102193D01*
X112020Y102302D01*
X111474Y102193D01*
X111185Y102000D01*
X95000D01*
X92000Y99000D01*
Y93263D01*
X91644Y92906D01*
X91400Y92318D01*
Y91682D01*
X91644Y91094D01*
X92000Y90737D01*
Y78000D01*
X90000Y76000D01*
Y71000D01*
X87000Y68000D01*
Y54000D01*
X86000Y53000D01*
X80000D01*
X75000Y59667D01*
X72856Y65623D01*
X72906Y65644D01*
X73356Y66094D01*
X73529Y66510D01*
X86009Y78991D01*
X86009Y78991D01*
X86319Y79454D01*
X86427Y80000D01*
X86427Y80000D01*
Y83265D01*
X86600Y83682D01*
Y84318D01*
X86356Y84906D01*
X85906Y85356D01*
X85318Y85600D01*
X84682D01*
X84094Y85356D01*
X83644Y84906D01*
X83400Y84318D01*
Y83682D01*
X83573Y83265D01*
Y80591D01*
X71510Y68529D01*
X71397Y68482D01*
X67000Y72000D01*
Y76000D01*
X73000D01*
X85000Y88000D01*
Y103000D01*
X92000D01*
X92964Y103964D01*
X119960D01*
X120000Y103956D01*
X120128Y103982D01*
X121778D01*
D02*
G37*
G36*
X110232Y101105D02*
X107236Y98109D01*
X102746D01*
Y97168D01*
X101167D01*
X101167Y97168D01*
X100621Y97059D01*
X100454Y96947D01*
X98370D01*
X98370Y96947D01*
X97824Y96838D01*
X97361Y96529D01*
X97361Y96529D01*
X97251Y96420D01*
X94631D01*
Y94207D01*
X94050D01*
X94050Y94207D01*
X93504Y94098D01*
X93041Y93789D01*
X93041Y93789D01*
X92933Y93681D01*
X92433Y93796D01*
Y98821D01*
X95179Y101567D01*
X110041D01*
X110232Y101105D01*
D02*
G37*
G36*
X102746Y93372D02*
X109254D01*
Y93372D01*
X109685Y93203D01*
Y90797D01*
X109254Y90628D01*
X109185Y90628D01*
X102746D01*
Y85891D01*
X105082D01*
Y84380D01*
X88351Y67649D01*
X88152Y67351D01*
X88082Y67000D01*
Y54338D01*
X87933Y54246D01*
X87433Y54525D01*
Y67821D01*
X90306Y70694D01*
X90433Y71000D01*
Y75821D01*
X92306Y77694D01*
X92433Y78000D01*
Y90234D01*
X92682Y90400D01*
X93318D01*
X93906Y90644D01*
X94200Y90937D01*
X94280Y90991D01*
X94641Y91352D01*
X95630D01*
X95630Y91352D01*
X96176Y91461D01*
X96639Y91770D01*
X96749Y91879D01*
X99369D01*
Y94092D01*
X100947D01*
X100947Y94092D01*
X101493Y94201D01*
X101661Y94313D01*
X102746D01*
Y93372D01*
D02*
G37*
G36*
X139429Y77365D02*
X129429Y67365D01*
Y53365D01*
X121429D01*
X115429Y47365D01*
X92429D01*
Y67365D01*
X93429Y68365D01*
X119429D01*
X120429Y67365D01*
X131429Y78365D01*
Y85365D01*
X139429D01*
Y77365D01*
D02*
G37*
G36*
X109185Y85891D02*
X109254Y85891D01*
X109685Y85723D01*
Y80064D01*
X107810Y78190D01*
X107446Y77644D01*
X107318Y77000D01*
Y68798D01*
X93429D01*
X93123Y68671D01*
X92123Y67671D01*
X91996Y67365D01*
Y66798D01*
X91196D01*
X91023Y66798D01*
X90640Y67230D01*
X90645Y67347D01*
X106649Y83351D01*
X106848Y83649D01*
X106918Y84000D01*
Y85891D01*
X109185D01*
D02*
G37*
%LPC*%
G36*
X79391Y221877D02*
X75247D01*
X74628Y221754D01*
X74103Y221403D01*
X73753Y220879D01*
X73630Y220260D01*
X73753Y219641D01*
X74103Y219116D01*
X74628Y218766D01*
X75247Y218643D01*
X79391D01*
X80010Y218766D01*
X80535Y219116D01*
X80885Y219641D01*
X81008Y220260D01*
X80885Y220879D01*
X80535Y221403D01*
X80010Y221754D01*
X79391Y221877D01*
D02*
G37*
%LPD*%
G36*
X22000Y140000D02*
X21000Y139000D01*
Y107000D01*
X16000Y102000D01*
X18027Y99973D01*
Y98278D01*
X21914D01*
X22264Y97921D01*
X22160Y92718D01*
X22075Y92634D01*
X17830D01*
X16238Y94225D01*
X16214Y94202D01*
X12135D01*
Y97302D01*
X12288Y97739D01*
X14000Y98000D01*
X10000Y102000D01*
Y141000D01*
X21000D01*
X22000Y140000D01*
D02*
G37*
G36*
X31000Y85000D02*
X39000D01*
X42000Y82000D01*
Y69000D01*
X46000D01*
X49000Y66000D01*
Y55000D01*
X51000Y53000D01*
X60000D01*
Y37000D01*
X54000D01*
X21000Y74258D01*
X21000Y90000D01*
X31000D01*
Y85000D01*
D02*
G37*
D13*
X282537Y226000D02*
X283065Y226528D01*
X285408D02*
X285637Y226758D01*
X279000Y226000D02*
X282537D01*
X277413Y182756D02*
X283716D01*
X283065Y226528D02*
X285408D01*
X285472Y181000D02*
X285637D01*
X283716Y182756D02*
X285472Y181000D01*
X211916Y188066D02*
X212850Y189000D01*
X210066Y188066D02*
X211916D01*
X208000Y186000D02*
X210066Y188066D01*
X204370Y200520D02*
X205520D01*
X203000Y199150D02*
X204370Y200520D01*
X205520D02*
X208849Y203849D01*
X212643D02*
X212677Y203883D01*
X208849Y203849D02*
X212643D01*
X182000Y215000D02*
X203000Y236000D01*
X172000Y215000D02*
X182000D01*
X167000Y210000D02*
X172000Y215000D01*
X278568Y211172D02*
Y215710D01*
X278396Y211000D02*
X278568Y211172D01*
Y215710D02*
X278740Y215882D01*
X143000Y132000D02*
X143343D01*
X139832Y128488D02*
X143000Y131657D01*
X143343Y132000D02*
X146740Y135397D01*
X143000Y131879D02*
Y132000D01*
Y131879D02*
X144879Y130000D01*
X167000D01*
X177000D01*
X148740Y171740D02*
X149890Y172890D01*
Y177890D02*
X150000Y178000D01*
X145000Y160000D02*
X145036Y160036D01*
X149890Y172890D02*
Y177890D01*
X148740Y171098D02*
Y171740D01*
X149000Y172000D01*
Y162000D02*
Y170839D01*
X148740Y171098D02*
X149000Y170839D01*
X267181Y200130D02*
X269902Y202850D01*
X267181Y199819D02*
Y200130D01*
X145000Y116890D02*
Y129751D01*
X131417Y103000D02*
X135000D01*
X143000Y364000D02*
X144890Y362110D01*
X149000D01*
X149012Y362000D02*
X154150Y356862D01*
Y352000D02*
Y356862D01*
X140465Y296171D02*
X144939D01*
X145280Y295831D01*
X145378D01*
X146000Y295209D01*
Y295110D02*
Y295209D01*
X146012Y295000D02*
X151150Y289862D01*
Y281000D02*
Y289862D01*
X140000Y232000D02*
X140110Y232110D01*
X146000D01*
Y224248D02*
Y232000D01*
Y224248D02*
X153150Y217098D01*
Y217000D02*
Y217098D01*
X134000Y163000D02*
X136890Y160110D01*
X140000D01*
X140012Y160000D02*
X146150Y153862D01*
Y150000D02*
Y153862D01*
X132295Y96992D02*
X134964Y94324D01*
X136676D02*
X137000Y94000D01*
X134964Y94324D02*
X136676D01*
X136000Y88150D02*
X137000Y89150D01*
Y97890D02*
X143000D01*
X136279Y98610D02*
X136378D01*
X137000Y97988D01*
Y97890D02*
Y97988D01*
X132295Y98968D02*
X135921D01*
X136279Y98610D01*
X149165Y365835D02*
X153945D01*
X154000Y365779D01*
X143011Y365890D02*
X149000D01*
Y366000D02*
X149165Y365835D01*
X142820Y366081D02*
X143011Y365890D01*
X146110Y298890D02*
X150000D01*
X143000Y299000D02*
X146000D01*
X146110Y298890D01*
X142102Y298102D02*
X143000Y299000D01*
X140425Y298102D02*
X142102D01*
X140417Y298095D02*
X140425Y298102D01*
X146055Y235835D02*
X150835D01*
X151000Y236000D01*
X143693Y235169D02*
X145378D01*
X146000Y235791D01*
Y235890D02*
X146055Y235835D01*
X142587Y234063D02*
X143693Y235169D01*
X139709Y234063D02*
X142587D01*
X140000Y163890D02*
X144890D01*
X145000Y164000D01*
X139279Y164610D02*
X139378D01*
X140000Y163988D01*
Y163890D02*
Y163988D01*
X134587Y165064D02*
X138826D01*
X139279Y164610D01*
X116056Y93110D02*
X119761Y96815D01*
X114429Y87059D02*
X116488Y85000D01*
X114429Y87059D02*
Y92742D01*
X114110Y93110D02*
X116056D01*
X114012Y93159D02*
X114429Y92742D01*
X114000Y93000D02*
X114110Y93110D01*
X116488Y85000D02*
X121000D01*
X139645Y104690D02*
Y105363D01*
X138176Y106831D02*
X139645Y105363D01*
X131655Y106831D02*
X138176D01*
X122000Y365740D02*
X126547D01*
X112000Y365150D02*
X121150D01*
X128807Y368000D02*
X131000D01*
X126547Y365740D02*
X128807Y368000D01*
X121150Y365150D02*
X122000Y366000D01*
X88681Y351740D02*
X89000Y352059D01*
Y355000D01*
X108000Y365000D02*
X111850D01*
X112000Y365150D01*
X108000Y296150D02*
X118150D01*
X118870Y296870D01*
X119000Y296740D02*
X119886D01*
X123146Y300000D01*
X129000D01*
X91870Y286870D02*
X92000Y287000D01*
X88130Y286870D02*
X91870D01*
X88000Y287000D02*
X88130Y286870D01*
X107850Y296000D02*
X108000Y296150D01*
X104000Y296000D02*
X107850D01*
X119032Y236032D02*
X128291D01*
X119000Y236000D02*
X119032Y236032D01*
X107000Y235000D02*
X117000D01*
X105701D02*
X106000Y235299D01*
X102000Y235000D02*
X105701D01*
X85000Y224000D02*
X90000D01*
X105000Y162150D02*
X110524D01*
X112374Y164000D01*
X113000D01*
Y163740D02*
X113886D01*
X117161Y167016D01*
X122210D01*
X86870Y154870D02*
X87000Y155000D01*
X82130Y154870D02*
X86870D01*
X82000Y155000D02*
X82130Y154870D01*
X103850Y161000D02*
X105000Y162150D01*
X101000Y161000D02*
X103850D01*
X149260Y372098D02*
Y372491D01*
X147791Y373959D02*
X149260Y372491D01*
X142839Y373959D02*
X147791D01*
X144266Y305000D02*
X148000D01*
X143266Y306000D02*
X144266Y305000D01*
X141000Y306000D02*
X143266D01*
X143051Y243000D02*
X146520D01*
X141996Y241945D02*
X143051Y243000D01*
X140587Y241945D02*
X141996D01*
X137739Y171098D02*
X141260D01*
X135877Y172960D02*
X137739Y171098D01*
X133824Y172960D02*
X135877D01*
X139000Y111850D02*
X143839D01*
X144988Y113000D01*
X145000D01*
X131764Y108929D02*
X134686Y111850D01*
X139000D01*
X148902Y378850D02*
X149000D01*
X145992Y375941D02*
X148902Y378850D01*
X142818Y375941D02*
X145992D01*
X149000Y378850D02*
X149150Y379000D01*
X155000D01*
X150902Y311000D02*
X151000D01*
X148370Y313531D02*
X150902Y311000D01*
X147370Y313531D02*
X148370D01*
X146000Y314902D02*
X147370Y313531D01*
X146000Y314902D02*
Y315000D01*
X140000Y308902D02*
X146000Y314902D01*
X140000Y308000D02*
Y308902D01*
X139709Y243905D02*
X140579D01*
X140587Y243913D01*
Y244783D01*
X144780Y248976D01*
Y250780D01*
X146000Y252000D01*
X146150D02*
X152000D01*
X141000Y177850D02*
X141150Y178000D01*
X146110D01*
X140902Y177850D02*
X141000D01*
X137971Y174920D02*
X140902Y177850D01*
X134015Y174920D02*
X137971D01*
X151789Y203789D02*
X153272Y205272D01*
X118118Y108819D02*
X119122D01*
X111693Y115244D02*
X118118Y108819D01*
X136675Y168000D02*
X137000D01*
X133716Y168992D02*
X135683D01*
X136675Y168000D01*
X223953Y222357D02*
Y225953D01*
X224000Y226000D01*
X223953Y222357D02*
X223968Y222342D01*
X226000Y228675D02*
Y229000D01*
X228989Y233387D02*
X230387Y231989D01*
X226387Y225011D02*
Y228288D01*
X226000Y228675D02*
X226387Y228288D01*
X228000Y230675D02*
Y231000D01*
Y230675D02*
X228387Y230288D01*
X223765Y233387D02*
X228989D01*
X228387Y227241D02*
Y230288D01*
X131417Y102905D02*
Y103000D01*
Y104798D01*
X130000Y128488D02*
X139832D01*
X148000Y104690D02*
Y116000D01*
X110421Y114000D02*
X111000D01*
X110000Y113579D02*
X110421Y114000D01*
X110000Y111000D02*
Y113579D01*
X111909Y116910D02*
X112449D01*
X113358Y116000D01*
X148000Y97000D02*
Y104690D01*
X107000Y288949D02*
Y290000D01*
X105281Y287230D02*
X107000Y288949D01*
X104230Y287230D02*
X105281D01*
X104000Y287000D02*
X104230Y287230D01*
X99000Y283398D02*
X99898Y282500D01*
X88000Y279000D02*
X89013D01*
X90513Y277500D02*
X100315D01*
X99000Y283398D02*
Y296000D01*
X99898Y282500D02*
X100315D01*
X100000Y272815D02*
Y282500D01*
X119887Y195000D02*
X125000D01*
X212000Y227000D02*
X213000Y228000D01*
X212000Y221000D02*
Y227000D01*
Y216000D02*
Y221000D01*
X212850Y228150D02*
X213000Y228000D01*
X45122Y84000D02*
X52756D01*
X53000D02*
Y85991D01*
X52756Y84000D02*
X53000D01*
X140587Y237992D02*
X142409D01*
X134000Y237000D02*
Y238000D01*
X142675Y237726D02*
X143000D01*
X142409Y237992D02*
X142675Y237726D01*
X134000Y238000D02*
X135968Y236032D01*
X139709D01*
X135937Y300063D02*
X140417D01*
X135000Y298000D02*
Y301000D01*
Y301445D02*
X137555Y304000D01*
X135000Y301000D02*
X135937Y300063D01*
X137555Y304000D02*
X140417D01*
X135000Y301000D02*
Y301445D01*
X134709Y289803D02*
X135000Y289512D01*
X134709Y289803D02*
Y298000D01*
X193230Y138230D02*
X194985D01*
X199016Y142260D01*
X193000Y138000D02*
X193230Y138230D01*
X199016Y142260D02*
X199902D01*
X190000Y142000D02*
X190260Y142260D01*
X199902Y142000D02*
X203732D01*
X207770Y186230D02*
X208000Y186000D01*
X203000Y192949D02*
X207770Y188178D01*
Y186230D02*
Y188178D01*
X225965Y224588D02*
X226387Y225011D01*
X225965Y222857D02*
Y224588D01*
X225874Y222766D02*
X225965Y222857D01*
X227842Y221000D02*
Y226696D01*
X223743Y233410D02*
X223765Y233387D01*
X227842Y226696D02*
X228387Y227241D01*
X229811Y229216D02*
X230387Y229792D01*
Y231989D01*
X225000Y236000D02*
X228356D01*
X232148Y227908D02*
Y232208D01*
X229811Y222120D02*
Y229216D01*
X228356Y236000D02*
X232148Y232208D01*
X220000Y31000D02*
X220186Y30814D01*
Y26336D02*
Y30814D01*
X220000Y26150D02*
X220186Y26336D01*
X215000Y223000D02*
X217910D01*
X218000Y222909D01*
Y221000D02*
Y222909D01*
X189260Y142260D02*
X197756D01*
X119000Y190000D02*
X125000D01*
X108000Y359000D02*
X111850D01*
X112000Y358850D01*
X130191Y363462D02*
X130413Y363684D01*
X130000Y361000D02*
X130191Y361191D01*
Y363462D01*
X154780Y304221D02*
X155000Y304000D01*
X154780Y304221D02*
Y311000D01*
X154012Y302646D02*
X155366Y304000D01*
X154012Y299179D02*
Y302646D01*
X153586Y298753D02*
X154012Y299179D01*
X153586Y298753D02*
Y299323D01*
X141000Y302000D02*
X144000D01*
X129000Y294000D02*
Y296000D01*
X128000Y232000D02*
X128048Y231952D01*
Y230021D02*
Y231952D01*
Y230021D02*
X128186Y229883D01*
X111000Y116000D02*
X111909Y116910D01*
X110413Y115244D02*
X111693D01*
X102186Y111148D02*
Y113579D01*
X100521Y115244D02*
X102186Y113579D01*
X99587Y115244D02*
X100521D01*
X102359Y113751D02*
X109268Y106843D01*
X188909Y134909D02*
X192138Y138138D01*
X181909Y134909D02*
X188909D01*
X177000Y130000D02*
X181909Y134909D01*
X263608Y198817D02*
X265622D01*
X266805Y200000D01*
X267000D01*
X263000Y198209D02*
X263608Y198817D01*
X224512Y138488D02*
X225000Y138000D01*
X234000Y181000D02*
X239000D01*
X232000Y182949D02*
Y183000D01*
X239000Y181000D02*
X239195D01*
X260469Y194532D02*
X260481Y194519D01*
X260469Y194532D02*
Y196286D01*
X133709Y169000D02*
X133716Y168992D01*
X143587Y370008D02*
X145255D01*
X145281Y370033D01*
X130413Y363684D02*
Y364087D01*
X130421Y364094D01*
X131291D01*
X84000Y244185D02*
Y251000D01*
X86000Y253000D02*
X107291D01*
X84000Y251000D02*
X86000Y253000D01*
X80315Y240500D02*
X84000Y244185D01*
X108000Y251012D02*
Y252000D01*
Y251012D02*
X109055Y249957D01*
X110043D01*
X114000Y246000D01*
X118768D01*
X121435Y243333D01*
X122110D01*
X122550Y242893D01*
X123255D01*
X124211Y241937D01*
X128291D01*
X123000Y240000D02*
X128000D01*
X122000Y241000D02*
X123000Y240000D01*
X116000Y241000D02*
X122000D01*
X115394Y241606D02*
X116000Y241000D01*
X104658Y241606D02*
X115394D01*
X103972Y242293D02*
X104658Y241606D01*
X101707Y242293D02*
X103972D01*
X101000Y243000D02*
X101707Y242293D01*
X101000Y243000D02*
Y246000D01*
X99000Y248000D02*
X101000Y246000D01*
X95000Y248000D02*
X99000D01*
X95000Y210000D02*
X99000D01*
X92000Y207000D02*
X95000Y210000D01*
X92000Y201000D02*
Y207000D01*
X99315Y216315D02*
Y220500D01*
X88092Y215500D02*
X99315D01*
X91206Y200206D02*
X92000Y201000D01*
X87686Y200206D02*
X91206D01*
X87000Y199520D02*
X87686Y200206D01*
X85000Y217000D02*
X86592D01*
X88092Y215500D01*
X99000Y211000D02*
X99315Y211315D01*
Y215500D01*
X99000Y216000D02*
X99315Y216315D01*
X98512Y220000D02*
X99000D01*
X95000Y223512D02*
X98512Y220000D01*
X95000Y223512D02*
Y233000D01*
Y238000D01*
X96303D01*
X97201Y238898D01*
Y239888D01*
X97656Y240344D01*
X96000Y242000D02*
X97656Y240344D01*
X100940D01*
X101758Y239526D01*
X104953D01*
X105225Y239253D01*
X109744D01*
X110094Y238903D01*
X116521D01*
X116911Y238513D01*
X124156D01*
X124669Y238000D01*
X128291D01*
X112323Y228000D02*
X116000D01*
X93390Y247390D02*
X94000Y248000D01*
X91390Y247390D02*
X93390D01*
X90000Y246000D02*
X91390Y247390D01*
X74586Y228000D02*
X88000D01*
X90000Y230000D02*
Y246000D01*
X88000Y228000D02*
X90000Y230000D01*
X72000Y225414D02*
X74586Y228000D01*
X72000Y217000D02*
Y225414D01*
Y217000D02*
X82000Y207000D01*
X87000D01*
X108323Y224000D02*
X112323Y228000D01*
X106000Y224000D02*
X108323D01*
X104000Y222000D02*
X106000Y224000D01*
X104000Y206586D02*
Y222000D01*
X103414Y206000D02*
X104000Y206586D01*
X99815Y206000D02*
X103414D01*
X99315Y205500D02*
X99815Y206000D01*
X153272Y208272D02*
X155000Y210000D01*
X153272Y205272D02*
Y208272D01*
X150000Y202000D02*
X151789Y203789D01*
X140512Y202000D02*
X150000D01*
X134000Y226512D02*
Y234000D01*
Y226512D02*
X136000Y224512D01*
X155468Y251468D02*
X156000Y252000D01*
X155468Y244543D02*
Y251468D01*
X153751Y242826D02*
X155468Y244543D01*
X152469Y233469D02*
X152574D01*
X151000Y232000D02*
Y232098D01*
X151622Y232720D02*
X151720D01*
X152574Y233469D02*
X153213Y234107D01*
Y234213D01*
X153751Y234751D02*
Y242826D01*
X151000Y232098D02*
X151622Y232720D01*
X153213Y234213D02*
X153751Y234751D01*
X151720Y232720D02*
X152469Y233469D01*
X134000Y238000D02*
X135968Y239968D01*
X139709D01*
X24697Y98847D02*
X26094Y97449D01*
X24126Y99417D02*
X25583D01*
X24697Y98847D02*
Y99417D01*
X28063Y96366D02*
X30348Y98652D01*
X26094Y97449D02*
Y102961D01*
X47000Y120949D02*
X50826Y117123D01*
X131417Y100906D02*
Y102905D01*
X128000Y158512D02*
Y168000D01*
X125842Y102905D02*
X131417D01*
Y104798D02*
X131459Y104839D01*
X128000Y169000D02*
X129969Y167032D01*
X207244Y138488D02*
X224512D01*
X232000Y182949D02*
X233469Y181480D01*
X240195Y180000D02*
X247000D01*
X222028Y197000D02*
X224000D01*
X223905Y196591D02*
Y200811D01*
X263000Y198012D02*
Y198209D01*
X137000Y357512D02*
Y366000D01*
X154000Y335657D02*
Y344000D01*
X157000Y372000D02*
Y373244D01*
X250000Y224000D02*
X254414D01*
X255000Y223414D01*
X275000Y207752D02*
Y216000D01*
X233784Y244000D02*
X234563Y243220D01*
X230000Y244000D02*
X233784D01*
X75650Y300650D02*
X76000Y301000D01*
X75650Y296000D02*
Y300650D01*
X76000Y301350D02*
Y305000D01*
X75650Y306350D02*
X76000Y306000D01*
X75650Y306350D02*
Y311000D01*
X84000Y304000D02*
X86000Y306000D01*
Y314414D01*
X86586Y315000D01*
X105000D01*
X108709Y311291D01*
X116000D01*
X118000Y311000D02*
X119000Y310000D01*
X122000D01*
X124437Y307563D01*
X125616D01*
X126824Y306354D01*
X127744D01*
X128130Y305968D01*
X129000D01*
X99000Y311000D02*
X99898Y310102D01*
X102898D01*
X108542Y304458D01*
X126225D01*
X126683Y304000D01*
X129000D01*
X105000Y302000D02*
X129000D01*
X104000Y301000D02*
X105000Y302000D01*
X99000Y301000D02*
X104000D01*
X99000D02*
Y306000D01*
Y296000D02*
Y300000D01*
X89013Y279000D02*
X90513Y277500D01*
X100000Y272815D02*
X100315Y272500D01*
X99957Y271957D02*
X100000Y272000D01*
X95951Y271957D02*
X99957D01*
X94281Y270286D02*
X95951Y271957D01*
X94281Y263106D02*
Y270286D01*
X93695Y262520D02*
X94281Y263106D01*
X89000Y262520D02*
X93695D01*
X89000Y344000D02*
X90314D01*
X90740Y343574D01*
Y333681D02*
Y343574D01*
X100685Y368500D02*
Y372685D01*
X100094Y345500D02*
Y349905D01*
X100000Y340595D02*
Y346000D01*
X90000Y344260D02*
X95031D01*
X82626Y336016D02*
X83000Y335642D01*
X75000Y343000D02*
X81984Y336016D01*
X75000Y343000D02*
Y354000D01*
X81984Y336016D02*
X82626D01*
X83000Y335000D02*
Y335642D01*
X98390Y310390D02*
X99000Y311000D01*
X95390Y310390D02*
X98390D01*
X94000Y309000D02*
X95390Y310390D01*
X94000Y294000D02*
Y309000D01*
X92000Y292000D02*
X94000Y294000D01*
X82000Y292000D02*
X92000D01*
X74000Y284000D02*
X82000Y292000D01*
X74000Y279000D02*
Y284000D01*
Y279000D02*
X83000Y270000D01*
X89000D01*
X117854Y289000D02*
X119000D01*
X115000Y286146D02*
X117854Y289000D01*
X115000Y286000D02*
Y286146D01*
X107000Y286000D02*
X115000D01*
X105014Y284014D02*
X107000Y286000D01*
X105014Y268086D02*
Y284014D01*
X104428Y267500D02*
X105014Y268086D01*
X100315Y267500D02*
X104428D01*
X153586Y296586D02*
Y298753D01*
X152110Y295110D02*
X153586Y296586D01*
X150000Y295110D02*
X152110D01*
X152414Y270414D02*
X153000Y271000D01*
X152414Y268000D02*
Y270414D01*
X152343Y268000D02*
X152414D01*
X147047Y262704D02*
X152343Y268000D01*
X143832Y259488D02*
X147000Y262657D01*
X135000Y259488D02*
X143832D01*
X146740Y135397D02*
Y140902D01*
X145036Y160036D02*
X147036D01*
X149000Y162000D01*
X128000Y158512D02*
X130000Y156512D01*
X128000Y169000D02*
X129969Y170968D01*
X133709D01*
X129969Y167032D02*
X133709D01*
X99000Y180000D02*
X99537Y179464D01*
X103341D01*
X110805Y172000D01*
X117000D01*
X118032Y170968D01*
X122291D01*
X99000Y169000D02*
X99008Y169008D01*
X122283D01*
X122291Y169000D01*
X97905Y174906D02*
X98000Y175000D01*
X97905Y169500D02*
Y174906D01*
X98000Y164594D02*
Y169000D01*
X97905Y164500D02*
X98000Y164594D01*
Y161000D02*
Y164000D01*
X94000Y157000D02*
X98000Y161000D01*
X94000Y147000D02*
Y157000D01*
X83000Y147000D02*
X83130Y147130D01*
X93870D01*
X94000Y147000D01*
Y142000D02*
Y147000D01*
Y137000D02*
Y142000D01*
X88893Y137000D02*
X93000D01*
X88332Y136439D02*
X88893Y137000D01*
X85426Y136439D02*
X88332D01*
X84740Y135753D02*
X85426Y136439D01*
X84740Y133681D02*
Y135753D01*
X74953Y165000D02*
X75000D01*
X74555Y165398D02*
X74953Y165000D01*
X74555Y174500D02*
Y179500D01*
Y165398D02*
Y174500D01*
X85000Y178000D02*
X86602D01*
X89000Y180398D01*
Y182000D01*
X91525Y184525D01*
X105733D01*
X106203Y184055D01*
X109236D01*
X111000Y182291D01*
X93000Y160586D02*
Y177000D01*
X92414Y160000D02*
X93000Y160586D01*
X73000Y160000D02*
X92414D01*
X68000Y155000D02*
X73000Y160000D01*
X97008Y178602D02*
X97905Y179500D01*
X94602Y178602D02*
X97008D01*
X93000Y177000D02*
X94602Y178602D01*
X68000Y150000D02*
Y155000D01*
Y150000D02*
X77260Y140740D01*
Y133681D02*
Y140740D01*
X114043Y177957D02*
Y180528D01*
Y177957D02*
X119055Y172945D01*
X122283D01*
X111854Y156000D02*
X113000D01*
X107854Y152000D02*
X111854Y156000D01*
X101000Y152000D02*
X107854D01*
X99000Y150000D02*
X101000Y152000D01*
X99000Y132586D02*
Y150000D01*
X98414Y132000D02*
X99000Y132586D01*
X94000Y132000D02*
X98414D01*
X111000Y182000D02*
X112571D01*
X114043Y180528D01*
X122283Y172945D02*
X122291Y172937D01*
X86000Y376000D02*
X87586Y377586D01*
Y381000D01*
X87682D01*
X89000Y382318D01*
X111973D01*
X86000Y371000D02*
X88000Y373000D01*
X88586Y382318D02*
X89000D01*
X111973D02*
X113000Y381291D01*
X136000Y356512D02*
X137000Y357512D01*
X150047Y331704D02*
X154000Y335657D01*
X144832Y326488D02*
X150000Y331657D01*
X136000Y326488D02*
X144832D01*
X157000Y371000D02*
X158000Y370000D01*
Y363586D02*
Y370000D01*
X157414Y363000D02*
X158000Y363586D01*
X155000Y363000D02*
X157414D01*
X154720Y362720D02*
X155000Y363000D01*
X154622Y362720D02*
X154720D01*
X154000Y362098D02*
X154622Y362720D01*
X154000Y362000D02*
Y362098D01*
X157000Y373244D02*
X158890Y375134D01*
Y379000D01*
X100094Y350500D02*
Y363906D01*
X96000Y360000D02*
Y377000D01*
X80000Y359000D02*
X95000D01*
X96000Y360000D01*
X100685Y363500D02*
Y368500D01*
X100000Y364000D02*
X100094Y363906D01*
X108499Y371989D02*
X131229D01*
X101988Y378500D02*
X108499Y371989D01*
X100685Y378500D02*
X101988D01*
X121607Y373964D02*
X131398D01*
X114279Y381291D02*
X121607Y373964D01*
X107649Y370000D02*
X130413D01*
X106149Y368500D02*
X107649Y370000D01*
X100685Y368500D02*
X106149D01*
X100685Y372685D02*
X101000Y373000D01*
X99797Y350203D02*
X100094Y349905D01*
X100000Y340595D02*
X100094Y340500D01*
X98291Y341000D02*
X99000D01*
X95031Y344260D02*
X98291Y341000D01*
X100185Y378000D02*
X100685Y378500D01*
X97000Y378000D02*
X100185D01*
X96000Y377000D02*
X97000Y378000D01*
X75000Y354000D02*
X80000Y359000D01*
X105586Y355000D02*
X117854D01*
X105000Y337000D02*
Y354414D01*
X105586Y355000D01*
X104295Y336295D02*
X105000Y337000D01*
X117854Y355000D02*
X120854Y358000D01*
X122000D01*
X100890Y336295D02*
X104295D01*
X100094Y335500D02*
X100890Y336295D01*
X137969Y371969D02*
X142709D01*
X138000Y369000D02*
X138969Y368032D01*
X142709D01*
X113000Y381291D02*
X114279D01*
X109268Y106843D02*
X120000D01*
X16327Y117000D02*
X17000D01*
X16000Y116673D02*
X16327Y117000D01*
X16000Y111000D02*
Y116673D01*
X12000Y107000D02*
X16000Y111000D01*
X12000Y103000D02*
Y107000D01*
Y103000D02*
X17000Y98000D01*
Y96000D02*
Y98000D01*
Y96000D02*
X20000D01*
X14000D02*
X17000D01*
X20000D02*
Y97000D01*
Y93520D02*
Y95000D01*
Y93520D02*
X20008Y93512D01*
X20583D01*
X55124Y114439D02*
X60015Y119330D01*
X64330D01*
X65000Y120000D01*
X47000Y120949D02*
Y121000D01*
X50826Y117123D02*
X52440D01*
X55124Y114439D01*
X55000Y120000D02*
X55124Y119876D01*
Y114439D02*
Y119876D01*
X26094Y97449D02*
X28063Y95480D01*
Y97063D02*
X30000Y99000D01*
X28063Y96366D02*
Y97063D01*
X30848Y98652D02*
X32000Y99803D01*
Y102961D01*
X28063Y95480D02*
Y96366D01*
X30348Y98652D02*
X30848D01*
X24126Y102961D02*
X24134Y102953D01*
Y100930D02*
X24183Y100881D01*
Y99803D02*
Y100881D01*
Y99803D02*
X24569Y99417D01*
X24134Y100930D02*
Y102953D01*
X24126Y99417D02*
X24697Y98847D01*
X25583Y99417D02*
X26000Y99000D01*
X38000Y108000D02*
X38370Y107630D01*
X40933D01*
X41124Y107439D01*
X41000Y104000D02*
X41062Y104062D01*
Y107377D01*
X41124Y107439D01*
X41122Y88000D02*
X45122Y84000D01*
X48000Y79244D02*
X52756Y84000D01*
X53000D02*
X54512Y82488D01*
Y61000D02*
Y82488D01*
X28000Y98000D02*
X28063Y98063D01*
Y102961D01*
X20583Y99417D02*
X24126D01*
X34000Y117941D02*
Y118000D01*
Y117941D02*
X35268Y116673D01*
X46902Y106150D02*
X47000D01*
X54150Y127150D02*
X55000Y128000D01*
X30039Y103839D02*
Y104412D01*
X31591Y105964D01*
X31975D01*
X34012Y108000D01*
X34110D01*
X46890Y100110D02*
X47000Y100000D01*
X41000Y100110D02*
X46890D01*
X35600Y97418D02*
X38407D01*
X41000Y100012D01*
Y100110D01*
X35600Y93497D02*
X37002D01*
X38499Y92000D01*
X41000D01*
X17451Y91543D02*
X19705D01*
X16884Y92110D02*
X17451Y91543D01*
X14000Y92110D02*
X16884D01*
X147110Y116890D02*
X148000Y116000D01*
X145000Y116890D02*
X147110D01*
X145622Y94622D02*
X148000Y97000D01*
X143512Y94622D02*
X145622D01*
X143000Y94110D02*
X143512Y94622D01*
X87119Y105119D02*
X88000Y106000D01*
X88605Y104882D02*
X119992D01*
X203732Y142000D02*
X207244Y138488D01*
X85303Y50000D02*
X89000Y53697D01*
Y67000D02*
X106000Y84000D01*
X89000Y53697D02*
Y67000D01*
X106000Y84000D02*
Y88000D01*
X84000Y50000D02*
X85303D01*
X83705Y105119D02*
X87119D01*
X83000Y104414D02*
X83705Y105119D01*
X83000Y89761D02*
Y104414D01*
X78307Y85067D02*
X83000Y89761D01*
X77068Y85067D02*
X78307D01*
X73000Y81000D02*
X77068Y85067D01*
X71000Y81000D02*
X73000D01*
X87927Y105560D02*
X88605Y104882D01*
X119992D02*
X120000Y104874D01*
X59252Y13000D02*
X77000D01*
X59000Y13252D02*
X59252Y13000D01*
X260138Y196894D02*
X260633Y197390D01*
X262378D01*
X260138Y196617D02*
X260469Y196286D01*
X257240Y196894D02*
X260138D01*
X269902Y202850D02*
X270000D01*
X233469Y181480D02*
X233520D01*
X234000Y181000D01*
X239195D02*
X240195Y180000D01*
X125803Y102867D02*
X125842Y102905D01*
X118513Y98926D02*
X119898D01*
X117328Y97741D02*
X118513Y98926D01*
X117328Y97732D02*
Y97741D01*
X116486Y96890D02*
X117328Y97732D01*
X114000Y96890D02*
X116486D01*
X234563Y243220D02*
X236630D01*
X238000Y241850D01*
X219057Y234727D02*
X219882Y235552D01*
Y240260D01*
X270098Y202850D02*
X275000Y207752D01*
X275890Y177000D02*
X278000D01*
X272878Y173988D02*
X275890Y177000D01*
X250138Y173988D02*
X272878D01*
X247866Y176260D02*
X250138Y173988D01*
X246882Y176260D02*
X247866D01*
X257000Y176000D02*
X257260Y176260D01*
X265602D01*
X266587Y177244D01*
X232000Y189000D02*
Y189051D01*
X235221Y192272D01*
X238531D01*
X240000Y193740D01*
X245994Y183644D02*
X246424D01*
X245216Y184421D02*
X245994Y183644D01*
X245216Y184421D02*
Y184852D01*
X243808Y186260D02*
X245216Y184852D01*
X240000Y186260D02*
X243808D01*
X237203Y204031D02*
X240251D01*
X241335Y202948D01*
Y199746D02*
Y202948D01*
X240000Y198411D02*
X241335Y199746D01*
X240000Y193740D02*
Y198411D01*
X237251Y207732D02*
X237330Y207811D01*
X248425D01*
X250874Y210260D01*
X262000D01*
Y210000D02*
X269150D01*
X270000Y209150D01*
X267602Y216000D02*
X271000D01*
X267331Y216272D02*
X267602Y216000D01*
X263469Y216272D02*
X267331D01*
X262000Y217740D02*
X263469Y216272D01*
X255000Y220890D02*
Y223414D01*
X254890Y217110D02*
X255000Y217000D01*
X250260Y217110D02*
X254890D01*
X250000Y216850D02*
X250260Y217110D01*
X249890D02*
X250000Y217000D01*
X245000Y217110D02*
X249890D01*
X245000Y214371D02*
Y217000D01*
X240280Y209651D02*
X245000Y214371D01*
X237279Y209651D02*
X240280D01*
X262378Y197390D02*
X263000Y198012D01*
X262890Y201890D02*
X263000Y202000D01*
X258260Y201890D02*
X262890D01*
X257000Y203150D02*
X258260Y201890D01*
X251150Y203000D02*
X257000D01*
X250000Y204150D02*
X251150Y203000D01*
X238267Y205919D02*
X238344Y205842D01*
X243931D01*
X244254Y205520D01*
X248630D01*
X250000Y204150D01*
X212850Y228150D02*
Y235000D01*
X229741Y222050D02*
X229811Y222120D01*
X231780Y223284D02*
X231819Y223245D01*
X231780Y223284D02*
Y227540D01*
X232148Y227908D01*
X219000Y228000D02*
X219150Y228150D01*
Y234727D01*
X219000Y228000D02*
X219969Y227031D01*
Y221000D02*
Y227031D01*
X221937Y205063D02*
X225000Y202000D01*
X221937Y205063D02*
Y221000D01*
X218000D02*
X220000D01*
X218000Y215000D02*
Y219000D01*
X216807Y213807D02*
X218000Y215000D01*
X212776Y213807D02*
X216807D01*
X212685Y213717D02*
X212776Y213807D01*
X231000Y202000D02*
Y215000D01*
X231685Y215685D01*
X237094D01*
X223905Y200811D02*
X225000Y201905D01*
X234906D01*
X235000Y202000D01*
X212685Y201905D02*
X225000D01*
X221937Y196909D02*
X222028Y197000D01*
X221937Y196591D02*
Y196909D01*
D18*
X152000Y75740D02*
D03*
Y68260D02*
D03*
X106000Y88260D02*
D03*
Y95740D02*
D03*
X122000Y365740D02*
D03*
Y358260D02*
D03*
X119000Y296740D02*
D03*
Y289260D02*
D03*
X117000Y235000D02*
D03*
Y227520D02*
D03*
X113000Y163740D02*
D03*
Y156260D02*
D03*
X191098Y142260D02*
D03*
Y149740D02*
D03*
X199902Y142260D02*
D03*
Y149740D02*
D03*
X262000Y210260D02*
D03*
Y217740D02*
D03*
X55098Y127740D02*
D03*
Y120260D02*
D03*
X65098Y127740D02*
D03*
Y120260D02*
D03*
X240000Y193740D02*
D03*
Y186260D02*
D03*
D19*
X99587Y120756D02*
D03*
X110413D02*
D03*
X99587Y115244D02*
D03*
X110413D02*
D03*
X266587Y182756D02*
D03*
X277413D02*
D03*
X266587Y177244D02*
D03*
X277413D02*
D03*
D20*
X146150Y252000D02*
D03*
X139850D02*
D03*
X154150Y352000D02*
D03*
X147850D02*
D03*
X151150Y281000D02*
D03*
X144850D02*
D03*
X153150Y217000D02*
D03*
X146850D02*
D03*
X146150Y150000D02*
D03*
X139850D02*
D03*
X219150Y228000D02*
D03*
X212850D02*
D03*
X219150Y189000D02*
D03*
X212850D02*
D03*
X146000Y315000D02*
D03*
X139701D02*
D03*
X219150Y235000D02*
D03*
X212850D02*
D03*
X256150Y191000D02*
D03*
X249850D02*
D03*
D21*
X151000Y232000D02*
D03*
Y235780D02*
D03*
X41000Y92000D02*
D03*
Y88221D02*
D03*
X14000Y92110D02*
D03*
Y95890D02*
D03*
X137000Y97890D02*
D03*
Y94110D02*
D03*
X149000Y362110D02*
D03*
Y365890D02*
D03*
X146000Y295110D02*
D03*
Y298890D02*
D03*
Y232110D02*
D03*
Y235890D02*
D03*
X140000Y160110D02*
D03*
Y163890D02*
D03*
X245000Y217110D02*
D03*
Y220890D02*
D03*
X114000Y93110D02*
D03*
Y96890D02*
D03*
X255000Y217110D02*
D03*
Y220890D02*
D03*
X145000Y113110D02*
D03*
Y116890D02*
D03*
X143000Y97890D02*
D03*
Y94110D02*
D03*
X154000Y362000D02*
D03*
Y365779D02*
D03*
X150000Y295110D02*
D03*
Y298890D02*
D03*
X145000Y160110D02*
D03*
Y163890D02*
D03*
X263000Y201890D02*
D03*
Y198110D02*
D03*
X41000Y100110D02*
D03*
Y103890D02*
D03*
D22*
X146740Y140902D02*
D03*
X139260D02*
D03*
X147125Y104690D02*
D03*
X139645D02*
D03*
X154740Y343902D02*
D03*
X147260D02*
D03*
X153480Y272000D02*
D03*
X146000D02*
D03*
X154740Y209902D02*
D03*
X147260D02*
D03*
X149260Y372098D02*
D03*
X156740D02*
D03*
X148000Y305000D02*
D03*
X155480D02*
D03*
X146520Y243000D02*
D03*
X154000D02*
D03*
X141260Y171098D02*
D03*
X148740D02*
D03*
X18260Y79098D02*
D03*
X25740D02*
D03*
D23*
X140417Y296126D02*
D03*
Y298095D02*
D03*
Y300063D02*
D03*
Y302031D02*
D03*
Y304000D02*
D03*
Y305968D02*
D03*
Y307937D02*
D03*
X129000Y298095D02*
D03*
Y300063D02*
D03*
Y302031D02*
D03*
Y304000D02*
D03*
Y307937D02*
D03*
Y305968D02*
D03*
X131417Y97000D02*
D03*
Y98968D02*
D03*
Y100937D02*
D03*
Y102905D02*
D03*
Y104874D02*
D03*
Y106843D02*
D03*
Y108811D02*
D03*
X120000Y98968D02*
D03*
Y100937D02*
D03*
Y102905D02*
D03*
Y104874D02*
D03*
Y108811D02*
D03*
Y106843D02*
D03*
X142709Y364094D02*
D03*
Y366063D02*
D03*
Y368032D02*
D03*
Y370000D02*
D03*
Y371969D02*
D03*
Y373937D02*
D03*
Y375905D02*
D03*
X131291Y366063D02*
D03*
Y368032D02*
D03*
Y370000D02*
D03*
Y371969D02*
D03*
Y375905D02*
D03*
Y373937D02*
D03*
X133709Y163094D02*
D03*
Y165063D02*
D03*
Y167032D02*
D03*
Y169000D02*
D03*
Y170968D02*
D03*
Y172937D02*
D03*
Y174906D02*
D03*
X122291Y165063D02*
D03*
Y167032D02*
D03*
Y169000D02*
D03*
Y170968D02*
D03*
Y174906D02*
D03*
Y172937D02*
D03*
X139709Y232095D02*
D03*
Y234063D02*
D03*
Y236032D02*
D03*
Y238000D02*
D03*
Y239968D02*
D03*
Y241937D02*
D03*
Y243905D02*
D03*
X128291Y234063D02*
D03*
Y236032D02*
D03*
Y238000D02*
D03*
Y239968D02*
D03*
Y243905D02*
D03*
Y241937D02*
D03*
D24*
X129000Y296126D02*
D03*
X120000Y97000D02*
D03*
X131291Y364094D02*
D03*
X122291Y163094D02*
D03*
X128291Y232095D02*
D03*
D25*
X134709Y302031D02*
D03*
X125709Y102905D02*
D03*
X137000Y370000D02*
D03*
X128000Y169000D02*
D03*
X134000Y238000D02*
D03*
D26*
X246882Y183740D02*
D03*
Y180000D02*
D03*
Y176260D02*
D03*
X257118D02*
D03*
Y183740D02*
D03*
D27*
X37890Y108000D02*
D03*
X34110D02*
D03*
X158890Y379000D02*
D03*
X155110D02*
D03*
X154780Y311000D02*
D03*
X151000D02*
D03*
X155780Y252000D02*
D03*
X152000D02*
D03*
X149890Y178000D02*
D03*
X146110D02*
D03*
D28*
X97000Y87850D02*
D03*
Y94150D02*
D03*
X250000Y223150D02*
D03*
Y216850D02*
D03*
X112000Y365150D02*
D03*
Y358850D02*
D03*
X108000Y296150D02*
D03*
Y289850D02*
D03*
X106000Y229000D02*
D03*
Y235299D02*
D03*
X136000Y81850D02*
D03*
Y88150D02*
D03*
X105000Y162150D02*
D03*
Y155850D02*
D03*
X139000Y118150D02*
D03*
Y111850D02*
D03*
X149000Y378850D02*
D03*
Y385150D02*
D03*
X141000Y177850D02*
D03*
Y184150D02*
D03*
X203000Y192850D02*
D03*
Y199150D02*
D03*
X220000Y19850D02*
D03*
Y26150D02*
D03*
X238000Y248150D02*
D03*
Y241850D02*
D03*
X270000Y202850D02*
D03*
Y209150D02*
D03*
X220000Y6850D02*
D03*
Y13150D02*
D03*
X257000Y196850D02*
D03*
Y203150D02*
D03*
X250000Y204150D02*
D03*
Y197850D02*
D03*
X232000Y182850D02*
D03*
Y189150D02*
D03*
X239000Y19850D02*
D03*
Y26150D02*
D03*
Y6850D02*
D03*
Y13150D02*
D03*
X47000Y99850D02*
D03*
Y106150D02*
D03*
Y127150D02*
D03*
Y120850D02*
D03*
D29*
X116488Y85000D02*
D03*
X127512D02*
D03*
X129488Y201000D02*
D03*
X140512D02*
D03*
X43488Y61000D02*
D03*
X54512D02*
D03*
X37488Y77000D02*
D03*
X48512D02*
D03*
D30*
X136000Y337512D02*
D03*
Y326488D02*
D03*
X135000Y270512D02*
D03*
Y259488D02*
D03*
X130000Y139512D02*
D03*
Y128488D02*
D03*
X136000Y345488D02*
D03*
Y356512D02*
D03*
X135000Y278488D02*
D03*
Y289512D02*
D03*
X136000Y213488D02*
D03*
Y224512D02*
D03*
X130000Y145488D02*
D03*
Y156512D02*
D03*
X211000Y149512D02*
D03*
Y138488D02*
D03*
X225000D02*
D03*
Y149512D02*
D03*
D31*
X113000Y381291D02*
D03*
Y392709D02*
D03*
X116000Y311291D02*
D03*
Y322709D02*
D03*
X111000Y182291D02*
D03*
Y193709D02*
D03*
D32*
X107291Y253000D02*
D03*
X118709D02*
D03*
D33*
X68520Y64000D02*
D03*
X87000Y326000D02*
D03*
X83260Y333681D02*
D03*
X81000Y126000D02*
D03*
X77260Y133681D02*
D03*
X72260Y56319D02*
D03*
D34*
X88681Y351740D02*
D03*
X86681Y286740D02*
D03*
X85000Y224000D02*
D03*
X81681Y154740D02*
D03*
X79319Y203260D02*
D03*
X87000Y207000D02*
D03*
X77319Y220260D02*
D03*
X79000Y283000D02*
D03*
X81319Y266260D02*
D03*
X89000Y270000D02*
D03*
X81000Y348000D02*
D03*
X74000Y151000D02*
D03*
X71000Y81000D02*
D03*
X63319Y77260D02*
D03*
D35*
X212685Y203874D02*
D03*
X237094Y201905D02*
D03*
Y203874D02*
D03*
Y205842D02*
D03*
Y207811D02*
D03*
Y209780D02*
D03*
Y211748D02*
D03*
Y213717D02*
D03*
Y215685D02*
D03*
X212685D02*
D03*
Y213717D02*
D03*
Y211748D02*
D03*
Y209780D02*
D03*
Y207811D02*
D03*
Y205842D02*
D03*
Y201905D02*
D03*
D36*
X32276Y153713D02*
D03*
Y192098D02*
D03*
X32429Y208632D02*
D03*
Y247018D02*
D03*
X32811Y317807D02*
D03*
Y356193D02*
D03*
X32276Y262713D02*
D03*
Y301098D02*
D03*
D37*
X60228Y178811D02*
D03*
Y167000D02*
D03*
X42000Y178811D02*
D03*
Y167000D02*
D03*
X60381Y233731D02*
D03*
Y221920D02*
D03*
X42153Y233731D02*
D03*
Y221920D02*
D03*
X60764Y342905D02*
D03*
Y331095D02*
D03*
X42535Y342905D02*
D03*
Y331095D02*
D03*
X60228Y287811D02*
D03*
Y276000D02*
D03*
X42000Y287811D02*
D03*
Y276000D02*
D03*
D38*
X99315Y205500D02*
D03*
Y210500D02*
D03*
Y215500D02*
D03*
Y220500D02*
D03*
X95000Y248000D02*
D03*
Y243000D02*
D03*
Y238000D02*
D03*
Y233000D02*
D03*
X99000Y311000D02*
D03*
Y306000D02*
D03*
Y301000D02*
D03*
Y296000D02*
D03*
X100315Y267500D02*
D03*
Y272500D02*
D03*
Y277500D02*
D03*
Y282500D02*
D03*
X94000Y132000D02*
D03*
Y137000D02*
D03*
Y142000D02*
D03*
Y147000D02*
D03*
X100685Y378500D02*
D03*
Y373500D02*
D03*
Y368500D02*
D03*
Y363500D02*
D03*
X100094Y335500D02*
D03*
Y340500D02*
D03*
Y345500D02*
D03*
Y350500D02*
D03*
X87906Y90500D02*
D03*
Y95500D02*
D03*
Y100500D02*
D03*
Y105500D02*
D03*
X84000Y50000D02*
D03*
Y55000D02*
D03*
Y60000D02*
D03*
Y65000D02*
D03*
X97905Y164500D02*
D03*
Y169500D02*
D03*
Y174500D02*
D03*
Y179500D02*
D03*
D39*
X122665Y205500D02*
D03*
Y210500D02*
D03*
Y215500D02*
D03*
Y220500D02*
D03*
X71650Y248000D02*
D03*
Y243000D02*
D03*
Y238000D02*
D03*
Y233000D02*
D03*
X75650Y311000D02*
D03*
Y306000D02*
D03*
Y301000D02*
D03*
Y296000D02*
D03*
X123665Y267500D02*
D03*
Y272500D02*
D03*
Y277500D02*
D03*
Y282500D02*
D03*
X117350Y132000D02*
D03*
Y137000D02*
D03*
Y142000D02*
D03*
Y147000D02*
D03*
X77335Y378500D02*
D03*
Y373500D02*
D03*
Y368500D02*
D03*
Y363500D02*
D03*
X123445Y335500D02*
D03*
Y340500D02*
D03*
Y345500D02*
D03*
Y350500D02*
D03*
X64555Y90500D02*
D03*
Y95500D02*
D03*
Y100500D02*
D03*
Y105500D02*
D03*
X107350Y50000D02*
D03*
Y55000D02*
D03*
Y60000D02*
D03*
Y65000D02*
D03*
X74555Y164500D02*
D03*
Y169500D02*
D03*
Y174500D02*
D03*
Y179500D02*
D03*
D40*
X114000Y213000D02*
D03*
X80315Y240500D02*
D03*
X84315Y303500D02*
D03*
X115000Y275000D02*
D03*
X108685Y139500D02*
D03*
X86000Y371000D02*
D03*
X114779Y343000D02*
D03*
X73220Y98000D02*
D03*
X98685Y57500D02*
D03*
X83220Y172000D02*
D03*
D41*
X87000Y199520D02*
D03*
X85000Y216520D02*
D03*
X86681Y279260D02*
D03*
X89000Y262520D02*
D03*
X88681Y344260D02*
D03*
X81681Y147260D02*
D03*
X71000Y73520D02*
D03*
D42*
X90740Y333681D02*
D03*
X84740Y133681D02*
D03*
X76000Y64000D02*
D03*
D43*
X17047Y127000D02*
D03*
X32953D02*
D03*
D44*
X59000Y13252D02*
D03*
Y44748D02*
D03*
D45*
X230118Y240260D02*
D03*
Y244000D02*
D03*
Y247740D02*
D03*
X219882D02*
D03*
Y240260D02*
D03*
D46*
X271260Y215882D02*
D03*
X275000D02*
D03*
X278740D02*
D03*
Y226118D02*
D03*
X271260D02*
D03*
D47*
X231780Y221000D02*
D03*
X229811D02*
D03*
X227842D02*
D03*
X225874D02*
D03*
X223905D02*
D03*
X221937D02*
D03*
X219969D02*
D03*
X218000D02*
D03*
Y196591D02*
D03*
X219969D02*
D03*
X221937D02*
D03*
X223905D02*
D03*
X225874D02*
D03*
X227842D02*
D03*
X229811D02*
D03*
X231780D02*
D03*
D48*
X261000Y10126D02*
D03*
Y25874D02*
D03*
D49*
X35543Y99417D02*
D03*
Y97449D02*
D03*
Y95480D02*
D03*
Y93512D02*
D03*
Y91543D02*
D03*
X20583Y99417D02*
D03*
Y97449D02*
D03*
Y95480D02*
D03*
Y93512D02*
D03*
Y91543D02*
D03*
D50*
X32000Y102961D02*
D03*
X30031D02*
D03*
X28063D02*
D03*
X26094D02*
D03*
X24126D02*
D03*
X32000Y88000D02*
D03*
X30031D02*
D03*
X28063D02*
D03*
X26094D02*
D03*
X24126D02*
D03*
D51*
X28063Y95480D02*
D03*
D52*
X137906Y41535D02*
D03*
X126094Y59764D02*
D03*
Y41535D02*
D03*
X137906Y59764D02*
D03*
D53*
X112807Y31811D02*
D03*
X151193D02*
D03*
D92*
X107000Y50000D02*
X107350Y50350D01*
Y65000D01*
X101764Y59764D02*
X126094D01*
X100000Y58000D02*
X101764Y59764D01*
D93*
X72000Y67000D02*
X85000Y80000D01*
Y84000D01*
X137000Y89150D02*
Y94110D01*
X68520Y65972D02*
X68691Y66144D01*
X68520Y64000D02*
Y65972D01*
X68691Y66144D02*
X71089D01*
X71946Y67000D01*
X72000D01*
X106886Y95740D02*
X112020Y100874D01*
X125003Y245997D02*
X130003D01*
X94050Y92779D02*
X95630D01*
X100947Y95520D02*
X101167Y95740D01*
X93000Y92000D02*
X93271D01*
X94050Y92779D01*
X98370Y95520D02*
X100947D01*
X95630Y92779D02*
X98370Y95520D01*
X101167Y95740D02*
X106886D01*
X110214Y258134D02*
X110286Y258062D01*
X114926D01*
X118709Y254279D01*
X60381Y248381D02*
X70134Y258134D01*
X110214D01*
X60381Y233731D02*
Y248381D01*
X118709Y253000D02*
Y254279D01*
X119000Y251429D02*
Y252000D01*
Y251429D02*
X119972Y250457D01*
X120543D01*
X125003Y245997D01*
X130003D02*
X135038Y251031D01*
X139032D02*
X140000Y252000D01*
X135038Y251031D02*
X139032D01*
X129063Y245057D02*
X130003Y245997D01*
X129063Y244807D02*
Y245057D01*
X128291Y244035D02*
X129063Y244807D01*
X61000Y311000D02*
X70000Y320000D01*
X90374D02*
X93083Y322709D01*
X70000Y320000D02*
X90374D01*
X59000Y288000D02*
X61000D01*
X60228Y287811D02*
X61000Y288583D01*
Y311000D01*
X93083Y322709D02*
X116000D01*
X118000Y321988D02*
Y323000D01*
Y321988D02*
X123937Y316052D01*
X125948D01*
X131342Y310658D01*
X135683Y315000D01*
X139000D01*
X129772Y309088D02*
X131342Y310658D01*
X129772Y308839D02*
Y309088D01*
X129000Y308067D02*
X129772Y308839D01*
X110291Y193709D02*
X111000Y193000D01*
X122000Y175197D02*
Y176000D01*
X130000Y184000D02*
X141000D01*
X122000Y176000D02*
X130000Y184000D01*
X122000Y176000D02*
Y182709D01*
X113543Y191165D02*
X122000Y182709D01*
X113543Y191165D02*
Y192445D01*
X112279Y193709D02*
X113543Y192445D01*
X111000Y193709D02*
X112279D01*
X78374D02*
X110291D01*
X63476Y178811D02*
X78374Y193709D01*
X60228Y178811D02*
X63476D01*
X131669Y376284D02*
Y378669D01*
X113224Y96926D02*
X113858D01*
X111112Y94814D02*
X113224Y96926D01*
X111112Y79112D02*
Y94814D01*
X57169Y179000D02*
X60000D01*
X55480Y177311D02*
X57169Y179000D01*
X55480Y177232D02*
Y177311D01*
X45248Y167000D02*
X55480Y177232D01*
X42000Y167000D02*
X45248D01*
X57402Y234000D02*
X60000D01*
X55633Y232231D02*
X57402Y234000D01*
X55633Y232152D02*
Y232231D01*
X45401Y221920D02*
X55633Y232152D01*
X42153Y221920D02*
X45401D01*
X42000Y276000D02*
X45248D01*
X46748Y277500D01*
Y277579D01*
X56980Y287811D01*
X59000D01*
X45783Y331095D02*
X56016Y341327D01*
X251327Y189532D02*
X255453Y185406D01*
D94*
X43488Y61000D02*
X44229Y60259D01*
X294142Y240000D02*
X300000Y234142D01*
X254985Y240000D02*
X294142D01*
X300000Y137376D02*
Y234142D01*
X248636Y86012D02*
X300000Y137376D01*
X254095Y239109D02*
X254985Y240000D01*
X39929Y74929D02*
X40000Y75000D01*
X39929Y64559D02*
X43488Y61000D01*
X39929Y64559D02*
Y74929D01*
X27685Y77315D02*
X35047D01*
X26885Y78115D02*
X27685Y77315D01*
X26885Y78115D02*
Y83244D01*
X130315Y147000D02*
X137000D01*
X130000Y146685D02*
X130315Y147000D01*
X130000Y145488D02*
Y146685D01*
X136315Y213000D02*
X144000D01*
X136000Y213315D02*
X136315Y213000D01*
X136000Y213315D02*
Y213488D01*
X122665Y215500D02*
X128138Y214956D01*
X136000Y213488D01*
X126429Y204500D02*
X128488Y202441D01*
X135436Y338075D02*
Y344924D01*
X145000Y346000D02*
Y349000D01*
X137488Y344000D02*
X145000D01*
X110000Y124000D02*
X118000D01*
X121988Y120012D01*
X123047Y119339D02*
X137631D01*
X121988Y120012D02*
X124636D01*
X106000Y128000D02*
X110000Y124000D01*
X112421Y265714D02*
Y272421D01*
X111170Y264462D02*
X112421Y265714D01*
X38000Y77000D02*
X40000Y75000D01*
X242000Y224000D02*
Y225000D01*
X113000Y201563D02*
Y209102D01*
X114000D01*
X112421Y272421D02*
X115000Y275000D01*
X59000Y44748D02*
Y46716D01*
X44229Y54771D02*
Y60259D01*
X50000Y49000D02*
X56717D01*
X44229Y54771D02*
X50000Y49000D01*
X56717D02*
X59000Y46716D01*
X136000Y345488D02*
X137488Y344000D01*
X124106Y345488D02*
X136000D01*
X123445Y340555D02*
Y345500D01*
X117350Y137000D02*
Y141650D01*
Y142000D02*
X123756D01*
X132059Y143429D02*
X137618D01*
X123665Y277665D02*
X124000Y278000D01*
X123665Y272500D02*
Y277665D01*
X135000Y271000D02*
Y277500D01*
Y270512D02*
X144532D01*
X145000Y270980D01*
X123665Y277500D02*
X135500D01*
X135000Y278488D02*
X142437D01*
X111000Y331000D02*
Y338000D01*
X114000Y341000D01*
X106000Y128000D02*
Y133000D01*
X107000Y134000D01*
X108685Y139500D02*
X110413Y137772D01*
X122665Y208665D02*
X123000Y209000D01*
X122665Y209500D02*
Y213665D01*
X123000Y214000D01*
D95*
X126094Y59764D02*
Y67086D01*
X136000Y76991D02*
Y81850D01*
X126094Y67086D02*
X136000Y76991D01*
X136906Y42535D02*
X137906Y41535D01*
X127484Y55516D02*
X136906Y46095D01*
Y42535D02*
Y46095D01*
D96*
X226581Y245588D02*
X227515Y246522D01*
X226581Y242412D02*
X227515Y241478D01*
X226581Y242412D02*
Y245588D01*
X227915Y246522D02*
X229134Y247740D01*
X227515Y246522D02*
X227915D01*
X219969Y192032D02*
Y196591D01*
X112020Y100874D02*
X120118D01*
X227869Y241478D02*
X228406Y240941D01*
X227515Y241478D02*
X227869D01*
X65000Y127839D02*
X65098Y127740D01*
X65000Y127839D02*
Y132000D01*
X55098Y127740D02*
X65098D01*
X35268Y116673D02*
X36378D01*
X46902Y106150D01*
X47000Y127150D02*
X54150D01*
X32953Y127000D02*
X47000D01*
D97*
X219969Y192032D02*
X223000Y189000D01*
X249000Y231000D02*
X257000D01*
X245000Y235000D02*
X249000Y231000D01*
X259209Y233209D02*
X260903D01*
X257000Y231000D02*
X259209Y233209D01*
X236362Y235000D02*
X245000D01*
X231362Y240000D02*
X236362Y235000D01*
X260903Y233209D02*
X267994Y226118D01*
X271260D01*
X229815Y146185D02*
Y147453D01*
Y146185D02*
X239000Y137000D01*
Y26000D02*
Y137000D01*
X227756Y149512D02*
X229815Y147453D01*
X225000Y149512D02*
X227756D01*
X198016Y149626D02*
X209626D01*
X239150Y26000D02*
X260000D01*
X220000Y13150D02*
Y20000D01*
X239000Y13150D02*
Y21000D01*
X267170Y182756D02*
X268835Y184421D01*
X266587Y182756D02*
X267170D01*
X219150Y159850D02*
Y172334D01*
X223000Y176184D01*
X219150Y189000D02*
X223000D01*
Y176184D02*
Y189000D01*
X219150Y159850D02*
X224000Y155000D01*
X177000Y150000D02*
X187839D01*
X190839D02*
X191098Y149740D01*
X112000Y392000D02*
X113000Y393000D01*
X64000Y392000D02*
X112000D01*
X60764Y388764D02*
X64000Y392000D01*
X60764Y342905D02*
Y388764D01*
X121988Y385000D02*
X138000D01*
X114279Y392709D02*
X121988Y385000D01*
X113000Y392709D02*
X114279D01*
X138000Y385000D02*
X149000D01*
X131669Y378669D02*
X138000Y385000D01*
X109000Y77000D02*
X111112Y79112D01*
X109000Y66650D02*
Y77000D01*
X57610Y343000D02*
X61000D01*
X56016Y341406D02*
X57610Y343000D01*
X56016Y341327D02*
Y341406D01*
X42535Y331095D02*
X45783D01*
X224000Y149000D02*
Y155000D01*
X250000Y191150D02*
Y198000D01*
X249850Y191000D02*
X250000Y191150D01*
X245000Y198000D02*
X250000D01*
X230000Y240000D02*
X231362D01*
X229059Y240941D02*
X230000Y240000D01*
X228406Y240941D02*
X229059D01*
X229134Y247740D02*
X230118D01*
X237740D02*
X238000Y248000D01*
X230118Y247740D02*
X237740D01*
X250000Y190752D02*
X251220Y189532D01*
X255453Y184421D02*
X256134Y183740D01*
X257118D01*
X255453Y184421D02*
Y185406D01*
X251220Y189532D02*
X251327D01*
X261242Y183000D02*
X267000D01*
X260784Y183459D02*
X261242Y183000D01*
X257400Y183459D02*
X260784D01*
X257118Y183740D02*
X257400Y183459D01*
X210000Y149512D02*
X223512D01*
X197902Y149740D02*
X198016Y149626D01*
X198260Y149740D02*
X199000Y149000D01*
X188098Y149740D02*
X197260D01*
X167000Y150000D02*
X177000D01*
D98*
X107350Y65000D02*
X109000Y66650D01*
D99*
X20465Y187276D02*
D03*
Y158535D02*
D03*
X20618Y242195D02*
D03*
Y213455D02*
D03*
X21000Y351370D02*
D03*
Y322630D02*
D03*
X20465Y296276D02*
D03*
Y267535D02*
D03*
X168630Y20000D02*
D03*
X197370D02*
D03*
X146370D02*
D03*
X117630D02*
D03*
D100*
X167000Y180000D02*
D03*
X177000Y150000D02*
D03*
X167000D02*
D03*
X177000Y240000D02*
D03*
X167000Y250000D02*
D03*
X177000D02*
D03*
X167000Y260000D02*
D03*
X367000Y350000D02*
D03*
Y340000D02*
D03*
Y330000D02*
D03*
Y320000D02*
D03*
Y310000D02*
D03*
Y300000D02*
D03*
Y290000D02*
D03*
Y280000D02*
D03*
Y270000D02*
D03*
Y260000D02*
D03*
Y250000D02*
D03*
Y240000D02*
D03*
Y230000D02*
D03*
Y220000D02*
D03*
Y210000D02*
D03*
Y200000D02*
D03*
Y190000D02*
D03*
Y180000D02*
D03*
Y170000D02*
D03*
Y160000D02*
D03*
Y150000D02*
D03*
Y140000D02*
D03*
Y130000D02*
D03*
X357000Y350000D02*
D03*
Y340000D02*
D03*
Y330000D02*
D03*
Y320000D02*
D03*
Y310000D02*
D03*
Y300000D02*
D03*
Y290000D02*
D03*
Y280000D02*
D03*
Y270000D02*
D03*
Y260000D02*
D03*
Y250000D02*
D03*
Y240000D02*
D03*
Y230000D02*
D03*
Y220000D02*
D03*
Y210000D02*
D03*
Y200000D02*
D03*
Y190000D02*
D03*
Y180000D02*
D03*
Y170000D02*
D03*
Y160000D02*
D03*
Y150000D02*
D03*
Y140000D02*
D03*
Y130000D02*
D03*
X177000Y350000D02*
D03*
Y340000D02*
D03*
Y330000D02*
D03*
Y320000D02*
D03*
Y310000D02*
D03*
Y300000D02*
D03*
Y290000D02*
D03*
Y280000D02*
D03*
Y270000D02*
D03*
Y260000D02*
D03*
Y230000D02*
D03*
Y220000D02*
D03*
Y210000D02*
D03*
Y200000D02*
D03*
Y190000D02*
D03*
Y180000D02*
D03*
Y170000D02*
D03*
Y160000D02*
D03*
Y140000D02*
D03*
Y130000D02*
D03*
X167000Y350000D02*
D03*
Y340000D02*
D03*
Y330000D02*
D03*
Y320000D02*
D03*
Y310000D02*
D03*
Y300000D02*
D03*
Y290000D02*
D03*
Y280000D02*
D03*
Y270000D02*
D03*
Y240000D02*
D03*
Y230000D02*
D03*
Y220000D02*
D03*
Y210000D02*
D03*
Y200000D02*
D03*
Y190000D02*
D03*
Y170000D02*
D03*
Y160000D02*
D03*
Y140000D02*
D03*
Y130000D02*
D03*
D101*
X349500Y370000D02*
D03*
X184500D02*
D03*
X362000Y110000D02*
D03*
X172000D02*
D03*
D102*
X20000Y380000D02*
D03*
X380000Y20000D02*
D03*
Y380000D02*
D03*
X20000Y20000D02*
D03*
D103*
X43043Y74020D02*
D03*
X239043Y224020D02*
D03*
X244043Y223020D02*
D03*
X254242Y236535D02*
D03*
X257444Y236562D02*
D03*
X256616Y239047D02*
D03*
X247217Y90623D02*
D03*
X250221Y91320D02*
D03*
X252043Y87020D02*
D03*
X251043Y89020D02*
D03*
X37043Y77020D02*
D03*
X152043Y68020D02*
D03*
Y76020D02*
D03*
X285637Y226758D02*
D03*
Y181000D02*
D03*
X278396Y211000D02*
D03*
X127043Y81020D02*
D03*
X143000Y65000D02*
D03*
X143047Y131704D02*
D03*
X149000Y172000D02*
D03*
X72000Y67000D02*
D03*
X85000Y84000D02*
D03*
X252766Y242323D02*
D03*
X267181Y199819D02*
D03*
X135000Y103000D02*
D03*
X93000Y92000D02*
D03*
X121000Y85000D02*
D03*
X89463Y354689D02*
D03*
X108000Y365000D02*
D03*
X92000Y287000D02*
D03*
X104000Y296000D02*
D03*
X90000Y224000D02*
D03*
X102000Y235000D02*
D03*
X87000Y155000D02*
D03*
X101000Y161000D02*
D03*
X120000Y112000D02*
D03*
X261000Y233113D02*
D03*
X137000Y168000D02*
D03*
X110636Y334012D02*
D03*
X111636Y262012D02*
D03*
X114636Y204012D02*
D03*
X106636Y126012D02*
D03*
X126636Y117012D02*
D03*
X42636Y77012D02*
D03*
X40000Y80000D02*
D03*
Y75000D02*
D03*
X240636Y222012D02*
D03*
X244159Y225818D02*
D03*
X242000Y225000D02*
D03*
X248636Y86012D02*
D03*
X247636Y88012D02*
D03*
X254095Y239109D02*
D03*
X251636Y239012D02*
D03*
X224000Y226000D02*
D03*
X226000Y229000D02*
D03*
X228000Y231000D02*
D03*
X127000Y91260D02*
D03*
X113636Y333012D02*
D03*
X107636Y332012D02*
D03*
X113738Y264621D02*
D03*
X108636Y264012D02*
D03*
X110636Y202012D02*
D03*
X115636Y201012D02*
D03*
X103636Y128012D02*
D03*
X108636D02*
D03*
X124636Y120012D02*
D03*
X129636D02*
D03*
X110000Y111000D02*
D03*
X104000Y287000D02*
D03*
X127000Y120000D02*
D03*
X111170Y264462D02*
D03*
X104213Y228826D02*
D03*
X113000Y201563D02*
D03*
X119887Y195000D02*
D03*
X212000Y221000D02*
D03*
X53000Y85991D02*
D03*
X134000Y237000D02*
D03*
X143000Y237726D02*
D03*
X135000Y243000D02*
D03*
Y307000D02*
D03*
Y301000D02*
D03*
Y298000D02*
D03*
X137000Y375000D02*
D03*
Y369000D02*
D03*
X193000Y138000D02*
D03*
X208000Y186000D02*
D03*
X223743Y233410D02*
D03*
X203000Y236000D02*
D03*
X225000D02*
D03*
X220186Y30883D02*
D03*
X215000Y223000D02*
D03*
X223000Y189000D02*
D03*
X65000Y132000D02*
D03*
X106000Y128000D02*
D03*
X125000Y195000D02*
D03*
X122000Y162000D02*
D03*
X125000Y190000D02*
D03*
X111000Y331000D02*
D03*
X108000Y359000D02*
D03*
X130000Y361000D02*
D03*
X155397Y304867D02*
D03*
X144000Y302000D02*
D03*
X129000Y294000D02*
D03*
X128186Y229883D02*
D03*
X102186Y111148D02*
D03*
X239000Y181000D02*
D03*
X260481Y194519D02*
D03*
X119000Y190000D02*
D03*
X145281Y370033D02*
D03*
X151751Y203826D02*
D03*
X153751Y242826D02*
D03*
X133751Y233826D02*
D03*
X147047Y262704D02*
D03*
X105047Y155704D02*
D03*
X128047Y164704D02*
D03*
Y168704D02*
D03*
Y172704D02*
D03*
X150047Y331704D02*
D03*
X157047Y371704D02*
D03*
X137047Y365704D02*
D03*
X68017Y330625D02*
D03*
X65017Y325625D02*
D03*
X60017D02*
D03*
X55017D02*
D03*
X53017Y330625D02*
D03*
X60017Y335625D02*
D03*
X65017D02*
D03*
X55017D02*
D03*
X49751Y342826D02*
D03*
X46751Y337826D02*
D03*
X41751D02*
D03*
X36751D02*
D03*
X34751Y342826D02*
D03*
X41751Y347826D02*
D03*
X46751D02*
D03*
X36751D02*
D03*
X49328Y287959D02*
D03*
X46328Y282959D02*
D03*
X41328D02*
D03*
X36328D02*
D03*
X34328Y287959D02*
D03*
X41328Y292959D02*
D03*
X46328D02*
D03*
X36328D02*
D03*
X67735Y275617D02*
D03*
X64735Y270617D02*
D03*
X59735D02*
D03*
X54735D02*
D03*
X52735Y275617D02*
D03*
X59735Y280617D02*
D03*
X64735D02*
D03*
X54735D02*
D03*
X67594Y221596D02*
D03*
X64594Y216596D02*
D03*
X59594D02*
D03*
X54594D02*
D03*
X52594Y221596D02*
D03*
X59594Y226596D02*
D03*
X64594D02*
D03*
X54594D02*
D03*
X49681Y233585D02*
D03*
X46681Y228585D02*
D03*
X41681D02*
D03*
X36681D02*
D03*
X34681Y233585D02*
D03*
X41681Y238585D02*
D03*
X46681D02*
D03*
X36681D02*
D03*
X67775Y166627D02*
D03*
X64775Y161627D02*
D03*
X59775D02*
D03*
X54775D02*
D03*
X52775Y166627D02*
D03*
X59775Y171627D02*
D03*
X64775D02*
D03*
X54775D02*
D03*
X49341Y178840D02*
D03*
X46341Y173840D02*
D03*
X41341D02*
D03*
X36341D02*
D03*
X34341Y178840D02*
D03*
X41341Y183840D02*
D03*
X46341D02*
D03*
X36341D02*
D03*
X55124Y114439D02*
D03*
X30000Y99000D02*
D03*
X26000D02*
D03*
Y95000D02*
D03*
X30000D02*
D03*
X18000Y79000D02*
D03*
X41124Y107439D02*
D03*
X97043Y88020D02*
D03*
X147043Y105020D02*
D03*
X189000Y42000D02*
D03*
X77000Y13000D02*
D03*
X133000Y55000D02*
D03*
X131000Y47000D02*
D03*
X245000Y198000D02*
D03*
X133000Y65000D02*
D03*
X234000Y244000D02*
D03*
X255000Y224000D02*
D03*
X138000Y52000D02*
D03*
X133000Y60000D02*
D03*
X138000Y68000D02*
D03*
X143000Y60000D02*
D03*
Y55000D02*
D03*
X131000Y37000D02*
D03*
Y42000D02*
D03*
X126000Y49000D02*
D03*
X121000Y47000D02*
D03*
Y42000D02*
D03*
Y37000D02*
D03*
X126000Y34000D02*
D03*
M02*
