G04*
G04 #@! TF.GenerationSoftware,Altium Limited,Altium Designer,25.3.3 (18)*
G04*
G04 Layer_Physical_Order=4*
G04 Layer_Color=16711680*
%FSLAX25Y25*%
%MOIN*%
G70*
G04*
G04 #@! TF.SameCoordinates,2C78717C-F5E3-4C58-9D65-8300EA0D7612*
G04*
G04*
G04 #@! TF.FilePolarity,Positive*
G04*
G01*
G75*
%ADD13C,0.01000*%
%ADD52R,0.05000X0.11496*%
%ADD53R,0.09646X0.05000*%
%ADD93C,0.02000*%
%ADD94C,0.10000*%
%ADD96C,0.01500*%
%ADD97C,0.02500*%
%ADD99C,0.07874*%
%ADD100C,0.06000*%
%ADD101C,0.24410*%
%ADD102C,0.25591*%
%ADD103C,0.02200*%
G36*
X392683Y398844D02*
X394356Y398150D01*
X395863Y397144D01*
X397144Y395863D01*
X398150Y394356D01*
X398844Y392683D01*
X399197Y390906D01*
Y390000D01*
X399197Y10000D01*
Y9094D01*
X398844Y7317D01*
X398150Y5644D01*
X397144Y4137D01*
X395863Y2856D01*
X394356Y1850D01*
X392683Y1156D01*
X390906Y803D01*
X9094D01*
X7317Y1156D01*
X5644Y1850D01*
X4137Y2856D01*
X2856Y4137D01*
X1850Y5644D01*
X1156Y7317D01*
X803Y9094D01*
Y10000D01*
Y390000D01*
Y390906D01*
X1156Y392683D01*
X1850Y394356D01*
X2856Y395863D01*
X4137Y397144D01*
X5644Y398150D01*
X7317Y398844D01*
X9094Y399197D01*
X390906D01*
X392683Y398844D01*
D02*
G37*
%LPC*%
G36*
X143713Y373205D02*
X136053D01*
X135701Y373135D01*
X135404Y372936D01*
X117511Y355043D01*
X117312Y354746D01*
X117242Y354395D01*
Y265816D01*
X117312Y265465D01*
X117511Y265167D01*
X117982Y264696D01*
Y204762D01*
X117482Y204592D01*
X116851Y205414D01*
X116547Y205648D01*
Y264462D01*
X116447Y265222D01*
Y331000D01*
X116261Y332410D01*
X115717Y333723D01*
X114851Y334851D01*
X113723Y335717D01*
X112410Y336261D01*
X111000Y336447D01*
X109590Y336261D01*
X108277Y335717D01*
X107149Y334851D01*
X106283Y333723D01*
X105739Y332410D01*
X105553Y331000D01*
Y297416D01*
X105053Y297209D01*
X104906Y297356D01*
X104318Y297600D01*
X103682D01*
X103094Y297356D01*
X102644Y296906D01*
X102400Y296318D01*
Y295682D01*
X102644Y295094D01*
X103082Y294655D01*
Y292455D01*
X98371Y287744D01*
X93424D01*
X93356Y287906D01*
X92906Y288356D01*
X92318Y288600D01*
X91682D01*
X91094Y288356D01*
X90644Y287906D01*
X90400Y287318D01*
Y286682D01*
X90644Y286094D01*
X91094Y285644D01*
X91682Y285400D01*
X92318D01*
X92906Y285644D01*
X93171Y285908D01*
X98751D01*
X99102Y285978D01*
X99400Y286177D01*
X104649Y291426D01*
X104848Y291724D01*
X104918Y292075D01*
Y294306D01*
X105053Y294396D01*
X105553Y294129D01*
Y264632D01*
X105653Y263872D01*
Y201563D01*
X105779Y200613D01*
X105653Y199663D01*
Y176674D01*
X105839Y175265D01*
X106383Y173951D01*
X106488Y173814D01*
Y155107D01*
X102149Y150768D01*
X101283Y149640D01*
X100739Y148326D01*
X100553Y146916D01*
Y128000D01*
X100739Y126590D01*
X101283Y125277D01*
X102149Y124149D01*
X103277Y123283D01*
X104590Y122739D01*
X106000Y122553D01*
X107410Y122739D01*
X108723Y123283D01*
X109851Y124149D01*
X110717Y125277D01*
X111261Y126590D01*
X111447Y128000D01*
Y144660D01*
X115786Y149000D01*
X116651Y150128D01*
X117196Y151441D01*
X117381Y152851D01*
Y175840D01*
X117196Y177249D01*
X116651Y178563D01*
X116547Y178700D01*
Y190502D01*
X117008Y190694D01*
X117400Y190302D01*
Y189682D01*
X117644Y189094D01*
X118094Y188644D01*
X118682Y188400D01*
X119318D01*
X119906Y188644D01*
X120356Y189094D01*
X120600Y189682D01*
X121082Y189639D01*
Y163345D01*
X120644Y162906D01*
X120400Y162318D01*
Y161682D01*
X120644Y161094D01*
X121094Y160644D01*
X121682Y160400D01*
X122318D01*
X122906Y160644D01*
X123356Y161094D01*
X123600Y161682D01*
Y162318D01*
X123356Y162906D01*
X122918Y163345D01*
Y189100D01*
X123144Y189231D01*
X123418Y189307D01*
X123608Y189180D01*
X123644Y189094D01*
X124094Y188644D01*
X124682Y188400D01*
X125318D01*
X125906Y188644D01*
X126345Y189082D01*
X163726D01*
X163832Y188688D01*
X164279Y187912D01*
X164912Y187279D01*
X165688Y186832D01*
X166552Y186600D01*
X167448D01*
X168312Y186832D01*
X169088Y187279D01*
X169721Y187912D01*
X170168Y188688D01*
X170400Y189552D01*
Y190448D01*
X170168Y191312D01*
X169721Y192088D01*
X169088Y192721D01*
X168312Y193168D01*
X167448Y193400D01*
X166552D01*
X165688Y193168D01*
X164912Y192721D01*
X164279Y192088D01*
X163832Y191312D01*
X163726Y190918D01*
X126345D01*
X125906Y191356D01*
X125318Y191600D01*
X124682D01*
X124094Y191356D01*
X123644Y190906D01*
X123608Y190821D01*
X123418Y190693D01*
X123144Y190769D01*
X122918Y190900D01*
Y193356D01*
X122924Y193362D01*
X123123Y193660D01*
X123165Y193874D01*
X123298Y193966D01*
X123471Y194030D01*
X123692Y194045D01*
X124094Y193644D01*
X124682Y193400D01*
X125318D01*
X125906Y193644D01*
X126345Y194082D01*
X171620D01*
X174036Y191666D01*
X173832Y191312D01*
X173600Y190448D01*
Y189552D01*
X173832Y188688D01*
X174279Y187912D01*
X174912Y187279D01*
X175688Y186832D01*
X176552Y186600D01*
X177448D01*
X178312Y186832D01*
X179088Y187279D01*
X179721Y187912D01*
X180168Y188688D01*
X180400Y189552D01*
Y190448D01*
X180168Y191312D01*
X179721Y192088D01*
X179088Y192721D01*
X178312Y193168D01*
X177448Y193400D01*
X176552D01*
X175688Y193168D01*
X175334Y192964D01*
X172649Y195649D01*
X172351Y195848D01*
X172000Y195918D01*
X126345D01*
X125906Y196356D01*
X125318Y196600D01*
X124682D01*
X124094Y196356D01*
X123692Y195955D01*
X123464Y195987D01*
X123300Y196060D01*
X123192Y196144D01*
Y233779D01*
X133883Y244470D01*
X154188D01*
X154480Y244274D01*
X154831Y244204D01*
X169020D01*
X169372Y244274D01*
X169669Y244473D01*
X172527Y247331D01*
X172726Y247628D01*
X172796Y247979D01*
Y255122D01*
X172726Y255473D01*
X172527Y255771D01*
X169964Y258334D01*
X170168Y258688D01*
X170400Y259552D01*
Y260448D01*
X170168Y261312D01*
X169721Y262088D01*
X169088Y262721D01*
X168312Y263168D01*
X167448Y263400D01*
X166552D01*
X165688Y263168D01*
X164912Y262721D01*
X164279Y262088D01*
X163832Y261312D01*
X163600Y260448D01*
Y259552D01*
X163832Y258688D01*
X164279Y257912D01*
X164912Y257279D01*
X165688Y256832D01*
X166552Y256600D01*
X167448D01*
X168312Y256832D01*
X168666Y257036D01*
X170960Y254742D01*
Y248360D01*
X168640Y246040D01*
X155210D01*
X154917Y246235D01*
X154566Y246305D01*
X133503D01*
X133152Y246235D01*
X132854Y246036D01*
X121718Y234900D01*
X121359Y234993D01*
X121218Y235091D01*
Y290811D01*
X133489Y303082D01*
X141620D01*
X142400Y302302D01*
Y301682D01*
X142644Y301094D01*
X143094Y300644D01*
X143682Y300400D01*
X144318D01*
X144906Y300644D01*
X145356Y301094D01*
X145600Y301682D01*
Y302318D01*
X145356Y302906D01*
X144906Y303356D01*
X144318Y303600D01*
X143698D01*
X142649Y304649D01*
X142351Y304848D01*
X142000Y304918D01*
X133109D01*
X132757Y304848D01*
X132460Y304649D01*
X119651Y291840D01*
X119577Y291730D01*
X119077Y291881D01*
Y354014D01*
X136433Y371370D01*
X143333D01*
X143877Y370826D01*
X143681Y370352D01*
Y369715D01*
X143924Y369127D01*
X144374Y368677D01*
X144962Y368433D01*
X145599D01*
X146187Y368677D01*
X146637Y369127D01*
X146880Y369715D01*
Y369813D01*
X146918Y370000D01*
X146880Y370187D01*
Y370352D01*
X146637Y370940D01*
X146187Y371390D01*
X145711Y371587D01*
X144361Y372936D01*
X144064Y373135D01*
X143713Y373205D01*
D02*
G37*
G36*
X381038Y393195D02*
X378961D01*
X376910Y392870D01*
X374935Y392229D01*
X373084Y391286D01*
X371404Y390065D01*
X369935Y388596D01*
X368714Y386916D01*
X367772Y385065D01*
X367130Y383090D01*
X366805Y381038D01*
Y378961D01*
X367130Y376910D01*
X367772Y374935D01*
X368714Y373084D01*
X369935Y371404D01*
X371404Y369935D01*
X373084Y368714D01*
X374935Y367772D01*
X376910Y367130D01*
X378961Y366805D01*
X381038D01*
X383090Y367130D01*
X385065Y367772D01*
X386916Y368714D01*
X388596Y369935D01*
X390065Y371404D01*
X391286Y373084D01*
X392229Y374935D01*
X392870Y376910D01*
X393195Y378961D01*
Y381038D01*
X392870Y383090D01*
X392229Y385065D01*
X391286Y386916D01*
X390065Y388596D01*
X388596Y390065D01*
X386916Y391286D01*
X385065Y392229D01*
X383090Y392870D01*
X381038Y393195D01*
D02*
G37*
G36*
X21038D02*
X18961D01*
X16910Y392870D01*
X14935Y392229D01*
X13084Y391286D01*
X11404Y390065D01*
X9935Y388596D01*
X8714Y386916D01*
X7772Y385065D01*
X7130Y383090D01*
X6805Y381038D01*
Y378961D01*
X7130Y376910D01*
X7772Y374935D01*
X8714Y373084D01*
X9935Y371404D01*
X11404Y369935D01*
X13084Y368714D01*
X14935Y367772D01*
X16910Y367130D01*
X18961Y366805D01*
X21038D01*
X23090Y367130D01*
X25065Y367772D01*
X26916Y368714D01*
X28596Y369935D01*
X30065Y371404D01*
X31286Y373084D01*
X32228Y374935D01*
X32870Y376910D01*
X33195Y378961D01*
Y381038D01*
X32870Y383090D01*
X32228Y385065D01*
X31286Y386916D01*
X30065Y388596D01*
X28596Y390065D01*
X26916Y391286D01*
X25065Y392229D01*
X23090Y392870D01*
X21038Y393195D01*
D02*
G37*
G36*
X108318Y366600D02*
X107682D01*
X107265Y366427D01*
X102343D01*
X102343Y366427D01*
X101797Y366319D01*
X101334Y366009D01*
X101334Y366009D01*
X95528Y360203D01*
X93551D01*
X93004Y360095D01*
X92541Y359785D01*
X92541Y359785D01*
X88973Y356218D01*
X88557Y356045D01*
X88107Y355595D01*
X87863Y355007D01*
Y354370D01*
X88107Y353782D01*
X88557Y353332D01*
X89145Y353088D01*
X89781D01*
X90370Y353332D01*
X90820Y353782D01*
X90992Y354199D01*
X94142Y357348D01*
X96119D01*
X96119Y357348D01*
X96666Y357457D01*
X97129Y357767D01*
X102935Y363573D01*
X107265D01*
X107682Y363400D01*
X108318D01*
X108906Y363644D01*
X109356Y364094D01*
X109600Y364682D01*
Y365318D01*
X109356Y365906D01*
X108906Y366356D01*
X108318Y366600D01*
D02*
G37*
G36*
X350492Y382605D02*
X348508D01*
X346548Y382294D01*
X344661Y381681D01*
X342894Y380781D01*
X341289Y379614D01*
X339886Y378211D01*
X338720Y376606D01*
X337819Y374838D01*
X337206Y372952D01*
X336895Y370992D01*
Y369008D01*
X337206Y367048D01*
X337819Y365161D01*
X338720Y363394D01*
X339886Y361789D01*
X341289Y360386D01*
X342894Y359220D01*
X344661Y358319D01*
X346548Y357706D01*
X348508Y357395D01*
X350492D01*
X352452Y357706D01*
X354339Y358319D01*
X356106Y359220D01*
X357711Y360386D01*
X359114Y361789D01*
X360280Y363394D01*
X361181Y365161D01*
X361794Y367048D01*
X362105Y369008D01*
Y370992D01*
X361794Y372952D01*
X361181Y374838D01*
X360280Y376606D01*
X359114Y378211D01*
X357711Y379614D01*
X356106Y380781D01*
X354339Y381681D01*
X352452Y382294D01*
X350492Y382605D01*
D02*
G37*
G36*
X185492D02*
X183508D01*
X181548Y382294D01*
X179662Y381681D01*
X177894Y380781D01*
X176289Y379614D01*
X174886Y378211D01*
X173720Y376606D01*
X172819Y374838D01*
X172206Y372952D01*
X171895Y370992D01*
Y369008D01*
X172206Y367048D01*
X172819Y365161D01*
X173720Y363394D01*
X174886Y361789D01*
X176289Y360386D01*
X177894Y359220D01*
X179662Y358319D01*
X181548Y357706D01*
X183508Y357395D01*
X185492D01*
X187452Y357706D01*
X189339Y358319D01*
X191106Y359220D01*
X192711Y360386D01*
X194114Y361789D01*
X195281Y363394D01*
X196181Y365161D01*
X196794Y367048D01*
X197105Y369008D01*
Y370992D01*
X196794Y372952D01*
X196181Y374838D01*
X195281Y376606D01*
X194114Y378211D01*
X192711Y379614D01*
X191106Y380781D01*
X189339Y381681D01*
X187452Y382294D01*
X185492Y382605D01*
D02*
G37*
G36*
X367448Y353400D02*
X366552D01*
X365688Y353168D01*
X364912Y352721D01*
X364279Y352088D01*
X363832Y351312D01*
X363600Y350448D01*
Y349552D01*
X363832Y348688D01*
X364279Y347912D01*
X364912Y347279D01*
X365688Y346832D01*
X366552Y346600D01*
X367448D01*
X368312Y346832D01*
X369088Y347279D01*
X369721Y347912D01*
X370168Y348688D01*
X370400Y349552D01*
Y350448D01*
X370168Y351312D01*
X369721Y352088D01*
X369088Y352721D01*
X368312Y353168D01*
X367448Y353400D01*
D02*
G37*
G36*
X357448D02*
X356552D01*
X355688Y353168D01*
X354912Y352721D01*
X354279Y352088D01*
X353832Y351312D01*
X353600Y350448D01*
Y349552D01*
X353832Y348688D01*
X354279Y347912D01*
X354912Y347279D01*
X355688Y346832D01*
X356552Y346600D01*
X357448D01*
X358312Y346832D01*
X359088Y347279D01*
X359721Y347912D01*
X360168Y348688D01*
X360400Y349552D01*
Y350448D01*
X360168Y351312D01*
X359721Y352088D01*
X359088Y352721D01*
X358312Y353168D01*
X357448Y353400D01*
D02*
G37*
G36*
X21754Y357098D02*
X20246D01*
X18789Y356708D01*
X17483Y355954D01*
X16416Y354887D01*
X15662Y353581D01*
X15272Y352124D01*
Y350616D01*
X15662Y349159D01*
X16416Y347853D01*
X17483Y346786D01*
X18789Y346032D01*
X20246Y345642D01*
X21754D01*
X23211Y346032D01*
X24517Y346786D01*
X25584Y347853D01*
X26338Y349159D01*
X26728Y350616D01*
Y352124D01*
X26338Y353581D01*
X25584Y354887D01*
X24517Y355954D01*
X23211Y356708D01*
X21754Y357098D01*
D02*
G37*
G36*
X367448Y343400D02*
X366552D01*
X365688Y343168D01*
X364912Y342721D01*
X364279Y342088D01*
X363832Y341312D01*
X363600Y340448D01*
Y339552D01*
X363832Y338688D01*
X364279Y337912D01*
X364912Y337279D01*
X365688Y336832D01*
X366552Y336600D01*
X367448D01*
X368312Y336832D01*
X369088Y337279D01*
X369721Y337912D01*
X370168Y338688D01*
X370400Y339552D01*
Y340448D01*
X370168Y341312D01*
X369721Y342088D01*
X369088Y342721D01*
X368312Y343168D01*
X367448Y343400D01*
D02*
G37*
G36*
X357448D02*
X356552D01*
X355688Y343168D01*
X354912Y342721D01*
X354279Y342088D01*
X353832Y341312D01*
X353600Y340448D01*
Y339552D01*
X353832Y338688D01*
X354279Y337912D01*
X354912Y337279D01*
X355688Y336832D01*
X356552Y336600D01*
X357448D01*
X358312Y336832D01*
X359088Y337279D01*
X359721Y337912D01*
X360168Y338688D01*
X360400Y339552D01*
Y340448D01*
X360168Y341312D01*
X359721Y342088D01*
X359088Y342721D01*
X358312Y343168D01*
X357448Y343400D01*
D02*
G37*
G36*
X367448Y333400D02*
X366552D01*
X365688Y333168D01*
X364912Y332721D01*
X364279Y332088D01*
X363832Y331312D01*
X363600Y330448D01*
Y329552D01*
X363832Y328688D01*
X364279Y327912D01*
X364912Y327279D01*
X365688Y326832D01*
X366552Y326600D01*
X367448D01*
X368312Y326832D01*
X369088Y327279D01*
X369721Y327912D01*
X370168Y328688D01*
X370400Y329552D01*
Y330448D01*
X370168Y331312D01*
X369721Y332088D01*
X369088Y332721D01*
X368312Y333168D01*
X367448Y333400D01*
D02*
G37*
G36*
X357448D02*
X356552D01*
X355688Y333168D01*
X354912Y332721D01*
X354279Y332088D01*
X353832Y331312D01*
X353600Y330448D01*
Y329552D01*
X353832Y328688D01*
X354279Y327912D01*
X354912Y327279D01*
X355688Y326832D01*
X356552Y326600D01*
X357448D01*
X358312Y326832D01*
X359088Y327279D01*
X359721Y327912D01*
X360168Y328688D01*
X360400Y329552D01*
Y330448D01*
X360168Y331312D01*
X359721Y332088D01*
X359088Y332721D01*
X358312Y333168D01*
X357448Y333400D01*
D02*
G37*
G36*
X177448D02*
X176552D01*
X175688Y333168D01*
X174912Y332721D01*
X174279Y332088D01*
X173832Y331312D01*
X173600Y330448D01*
Y329552D01*
X173832Y328688D01*
X174279Y327912D01*
X174912Y327279D01*
X175688Y326832D01*
X176552Y326600D01*
X177448D01*
X178312Y326832D01*
X179088Y327279D01*
X179721Y327912D01*
X180168Y328688D01*
X180400Y329552D01*
Y330448D01*
X180168Y331312D01*
X179721Y332088D01*
X179088Y332721D01*
X178312Y333168D01*
X177448Y333400D01*
D02*
G37*
G36*
X167448D02*
X166552D01*
X165688Y333168D01*
X164912Y332721D01*
X164279Y332088D01*
X163832Y331312D01*
X163600Y330448D01*
Y329552D01*
X163832Y328688D01*
X164279Y327912D01*
X164912Y327279D01*
X165688Y326832D01*
X166552Y326600D01*
X167448D01*
X168312Y326832D01*
X169088Y327279D01*
X169721Y327912D01*
X170168Y328688D01*
X170400Y329552D01*
Y330448D01*
X170168Y331312D01*
X169721Y332088D01*
X169088Y332721D01*
X168312Y333168D01*
X167448Y333400D01*
D02*
G37*
G36*
X21754Y328358D02*
X20246D01*
X18789Y327968D01*
X17483Y327214D01*
X16416Y326147D01*
X15662Y324841D01*
X15272Y323384D01*
Y321876D01*
X15662Y320419D01*
X16416Y319113D01*
X17483Y318046D01*
X18789Y317292D01*
X20246Y316902D01*
X21754D01*
X23211Y317292D01*
X24517Y318046D01*
X25584Y319113D01*
X26338Y320419D01*
X26728Y321876D01*
Y323384D01*
X26338Y324841D01*
X25584Y326147D01*
X24517Y327214D01*
X23211Y327968D01*
X21754Y328358D01*
D02*
G37*
G36*
X367448Y323400D02*
X366552D01*
X365688Y323168D01*
X364912Y322721D01*
X364279Y322088D01*
X363832Y321312D01*
X363600Y320448D01*
Y319552D01*
X363832Y318688D01*
X364279Y317912D01*
X364912Y317279D01*
X365688Y316832D01*
X366552Y316600D01*
X367448D01*
X368312Y316832D01*
X369088Y317279D01*
X369721Y317912D01*
X370168Y318688D01*
X370400Y319552D01*
Y320448D01*
X370168Y321312D01*
X369721Y322088D01*
X369088Y322721D01*
X368312Y323168D01*
X367448Y323400D01*
D02*
G37*
G36*
X357448D02*
X356552D01*
X355688Y323168D01*
X354912Y322721D01*
X354279Y322088D01*
X353832Y321312D01*
X353600Y320448D01*
Y319552D01*
X353832Y318688D01*
X354279Y317912D01*
X354912Y317279D01*
X355688Y316832D01*
X356552Y316600D01*
X357448D01*
X358312Y316832D01*
X359088Y317279D01*
X359721Y317912D01*
X360168Y318688D01*
X360400Y319552D01*
Y320448D01*
X360168Y321312D01*
X359721Y322088D01*
X359088Y322721D01*
X358312Y323168D01*
X357448Y323400D01*
D02*
G37*
G36*
X177448D02*
X176552D01*
X175688Y323168D01*
X174912Y322721D01*
X174279Y322088D01*
X173832Y321312D01*
X173600Y320448D01*
Y319552D01*
X173832Y318688D01*
X174279Y317912D01*
X174912Y317279D01*
X175688Y316832D01*
X176552Y316600D01*
X177448D01*
X178312Y316832D01*
X179088Y317279D01*
X179721Y317912D01*
X180168Y318688D01*
X180400Y319552D01*
Y320448D01*
X180168Y321312D01*
X179721Y322088D01*
X179088Y322721D01*
X178312Y323168D01*
X177448Y323400D01*
D02*
G37*
G36*
X167448D02*
X166552D01*
X165688Y323168D01*
X164912Y322721D01*
X164279Y322088D01*
X163832Y321312D01*
X163600Y320448D01*
Y319552D01*
X163832Y318688D01*
X164279Y317912D01*
X164912Y317279D01*
X165688Y316832D01*
X166552Y316600D01*
X167448D01*
X168312Y316832D01*
X169088Y317279D01*
X169721Y317912D01*
X170168Y318688D01*
X170400Y319552D01*
Y320448D01*
X170168Y321312D01*
X169721Y322088D01*
X169088Y322721D01*
X168312Y323168D01*
X167448Y323400D01*
D02*
G37*
G36*
X367448Y313400D02*
X366552D01*
X365688Y313168D01*
X364912Y312721D01*
X364279Y312088D01*
X363832Y311312D01*
X363600Y310448D01*
Y309552D01*
X363832Y308688D01*
X364279Y307912D01*
X364912Y307279D01*
X365688Y306832D01*
X366552Y306600D01*
X367448D01*
X368312Y306832D01*
X369088Y307279D01*
X369721Y307912D01*
X370168Y308688D01*
X370400Y309552D01*
Y310448D01*
X370168Y311312D01*
X369721Y312088D01*
X369088Y312721D01*
X368312Y313168D01*
X367448Y313400D01*
D02*
G37*
G36*
X357448D02*
X356552D01*
X355688Y313168D01*
X354912Y312721D01*
X354279Y312088D01*
X353832Y311312D01*
X353600Y310448D01*
Y309552D01*
X353832Y308688D01*
X354279Y307912D01*
X354912Y307279D01*
X355688Y306832D01*
X356552Y306600D01*
X357448D01*
X358312Y306832D01*
X359088Y307279D01*
X359721Y307912D01*
X360168Y308688D01*
X360400Y309552D01*
Y310448D01*
X360168Y311312D01*
X359721Y312088D01*
X359088Y312721D01*
X358312Y313168D01*
X357448Y313400D01*
D02*
G37*
G36*
X177448D02*
X176552D01*
X175688Y313168D01*
X174912Y312721D01*
X174279Y312088D01*
X173832Y311312D01*
X173600Y310448D01*
Y309552D01*
X173832Y308688D01*
X174279Y307912D01*
X174912Y307279D01*
X175688Y306832D01*
X176552Y306600D01*
X177448D01*
X178312Y306832D01*
X179088Y307279D01*
X179721Y307912D01*
X180168Y308688D01*
X180400Y309552D01*
Y310448D01*
X180168Y311312D01*
X179721Y312088D01*
X179088Y312721D01*
X178312Y313168D01*
X177448Y313400D01*
D02*
G37*
G36*
X167448D02*
X166552D01*
X165688Y313168D01*
X164912Y312721D01*
X164279Y312088D01*
X163832Y311312D01*
X163600Y310448D01*
Y309552D01*
X163832Y308688D01*
X164279Y307912D01*
X164912Y307279D01*
X165688Y306832D01*
X166552Y306600D01*
X167448D01*
X168312Y306832D01*
X169088Y307279D01*
X169721Y307912D01*
X170168Y308688D01*
X170400Y309552D01*
Y310448D01*
X170168Y311312D01*
X169721Y312088D01*
X169088Y312721D01*
X168312Y313168D01*
X167448Y313400D01*
D02*
G37*
G36*
X367448Y303400D02*
X366552D01*
X365688Y303168D01*
X364912Y302721D01*
X364279Y302088D01*
X363832Y301312D01*
X363600Y300448D01*
Y299552D01*
X363832Y298688D01*
X364279Y297912D01*
X364912Y297279D01*
X365688Y296832D01*
X366552Y296600D01*
X367448D01*
X368312Y296832D01*
X369088Y297279D01*
X369721Y297912D01*
X370168Y298688D01*
X370400Y299552D01*
Y300448D01*
X370168Y301312D01*
X369721Y302088D01*
X369088Y302721D01*
X368312Y303168D01*
X367448Y303400D01*
D02*
G37*
G36*
X357448D02*
X356552D01*
X355688Y303168D01*
X354912Y302721D01*
X354279Y302088D01*
X353832Y301312D01*
X353600Y300448D01*
Y299552D01*
X353832Y298688D01*
X354279Y297912D01*
X354912Y297279D01*
X355688Y296832D01*
X356552Y296600D01*
X357448D01*
X358312Y296832D01*
X359088Y297279D01*
X359721Y297912D01*
X360168Y298688D01*
X360400Y299552D01*
Y300448D01*
X360168Y301312D01*
X359721Y302088D01*
X359088Y302721D01*
X358312Y303168D01*
X357448Y303400D01*
D02*
G37*
G36*
X177448D02*
X176552D01*
X175688Y303168D01*
X174912Y302721D01*
X174279Y302088D01*
X173832Y301312D01*
X173600Y300448D01*
Y299552D01*
X173832Y298688D01*
X174279Y297912D01*
X174912Y297279D01*
X175688Y296832D01*
X176552Y296600D01*
X177448D01*
X178312Y296832D01*
X179088Y297279D01*
X179721Y297912D01*
X180168Y298688D01*
X180400Y299552D01*
Y300448D01*
X180168Y301312D01*
X179721Y302088D01*
X179088Y302721D01*
X178312Y303168D01*
X177448Y303400D01*
D02*
G37*
G36*
X167448D02*
X166552D01*
X165688Y303168D01*
X164912Y302721D01*
X164279Y302088D01*
X163832Y301312D01*
X163600Y300448D01*
Y299552D01*
X163832Y298688D01*
X164279Y297912D01*
X164912Y297279D01*
X165688Y296832D01*
X166552Y296600D01*
X167448D01*
X168312Y296832D01*
X169088Y297279D01*
X169721Y297912D01*
X170168Y298688D01*
X170400Y299552D01*
Y300448D01*
X170168Y301312D01*
X169721Y302088D01*
X169088Y302721D01*
X168312Y303168D01*
X167448Y303400D01*
D02*
G37*
G36*
X21219Y302004D02*
X19710D01*
X18253Y301613D01*
X16947Y300859D01*
X15881Y299793D01*
X15127Y298487D01*
X14736Y297030D01*
Y295521D01*
X15127Y294064D01*
X15881Y292758D01*
X16947Y291692D01*
X18253Y290938D01*
X19710Y290547D01*
X21219D01*
X22676Y290938D01*
X23982Y291692D01*
X25048Y292758D01*
X25802Y294064D01*
X26193Y295521D01*
Y297030D01*
X25802Y298487D01*
X25048Y299793D01*
X23982Y300859D01*
X22676Y301613D01*
X21219Y302004D01*
D02*
G37*
G36*
X367448Y293400D02*
X366552D01*
X365688Y293168D01*
X364912Y292721D01*
X364279Y292088D01*
X363832Y291312D01*
X363600Y290448D01*
Y289552D01*
X363832Y288688D01*
X364279Y287912D01*
X364912Y287279D01*
X365688Y286832D01*
X366552Y286600D01*
X367448D01*
X368312Y286832D01*
X369088Y287279D01*
X369721Y287912D01*
X370168Y288688D01*
X370400Y289552D01*
Y290448D01*
X370168Y291312D01*
X369721Y292088D01*
X369088Y292721D01*
X368312Y293168D01*
X367448Y293400D01*
D02*
G37*
G36*
X357448D02*
X356552D01*
X355688Y293168D01*
X354912Y292721D01*
X354279Y292088D01*
X353832Y291312D01*
X353600Y290448D01*
Y289552D01*
X353832Y288688D01*
X354279Y287912D01*
X354912Y287279D01*
X355688Y286832D01*
X356552Y286600D01*
X357448D01*
X358312Y286832D01*
X359088Y287279D01*
X359721Y287912D01*
X360168Y288688D01*
X360400Y289552D01*
Y290448D01*
X360168Y291312D01*
X359721Y292088D01*
X359088Y292721D01*
X358312Y293168D01*
X357448Y293400D01*
D02*
G37*
G36*
X167448D02*
X166552D01*
X165688Y293168D01*
X164912Y292721D01*
X164279Y292088D01*
X163832Y291312D01*
X163600Y290448D01*
Y289552D01*
X163832Y288688D01*
X164279Y287912D01*
X164912Y287279D01*
X165688Y286832D01*
X166552Y286600D01*
X167448D01*
X168312Y286832D01*
X169088Y287279D01*
X169721Y287912D01*
X170168Y288688D01*
X170400Y289552D01*
Y290448D01*
X170168Y291312D01*
X169721Y292088D01*
X169088Y292721D01*
X168312Y293168D01*
X167448Y293400D01*
D02*
G37*
G36*
X367448Y283400D02*
X366552D01*
X365688Y283168D01*
X364912Y282721D01*
X364279Y282088D01*
X363832Y281312D01*
X363600Y280448D01*
Y279552D01*
X363832Y278688D01*
X364279Y277912D01*
X364912Y277279D01*
X365688Y276832D01*
X366552Y276600D01*
X367448D01*
X368312Y276832D01*
X369088Y277279D01*
X369721Y277912D01*
X370168Y278688D01*
X370400Y279552D01*
Y280448D01*
X370168Y281312D01*
X369721Y282088D01*
X369088Y282721D01*
X368312Y283168D01*
X367448Y283400D01*
D02*
G37*
G36*
X357448D02*
X356552D01*
X355688Y283168D01*
X354912Y282721D01*
X354279Y282088D01*
X353832Y281312D01*
X353600Y280448D01*
Y279552D01*
X353832Y278688D01*
X354279Y277912D01*
X354912Y277279D01*
X355688Y276832D01*
X356552Y276600D01*
X357448D01*
X358312Y276832D01*
X359088Y277279D01*
X359721Y277912D01*
X360168Y278688D01*
X360400Y279552D01*
Y280448D01*
X360168Y281312D01*
X359721Y282088D01*
X359088Y282721D01*
X358312Y283168D01*
X357448Y283400D01*
D02*
G37*
G36*
X177448D02*
X176552D01*
X175688Y283168D01*
X174912Y282721D01*
X174279Y282088D01*
X173832Y281312D01*
X173600Y280448D01*
Y279552D01*
X173832Y278688D01*
X174279Y277912D01*
X174912Y277279D01*
X175688Y276832D01*
X176552Y276600D01*
X177448D01*
X178312Y276832D01*
X179088Y277279D01*
X179721Y277912D01*
X180168Y278688D01*
X180400Y279552D01*
Y280448D01*
X180168Y281312D01*
X179721Y282088D01*
X179088Y282721D01*
X178312Y283168D01*
X177448Y283400D01*
D02*
G37*
G36*
X167448D02*
X166552D01*
X165688Y283168D01*
X164912Y282721D01*
X164279Y282088D01*
X163832Y281312D01*
X163600Y280448D01*
Y279552D01*
X163832Y278688D01*
X164279Y277912D01*
X164912Y277279D01*
X165688Y276832D01*
X166552Y276600D01*
X167448D01*
X168312Y276832D01*
X169088Y277279D01*
X169721Y277912D01*
X170168Y278688D01*
X170400Y279552D01*
Y280448D01*
X170168Y281312D01*
X169721Y282088D01*
X169088Y282721D01*
X168312Y283168D01*
X167448Y283400D01*
D02*
G37*
G36*
X367448Y273400D02*
X366552D01*
X365688Y273168D01*
X364912Y272721D01*
X364279Y272088D01*
X363832Y271312D01*
X363600Y270448D01*
Y269552D01*
X363832Y268688D01*
X364279Y267912D01*
X364912Y267279D01*
X365688Y266832D01*
X366552Y266600D01*
X367448D01*
X368312Y266832D01*
X369088Y267279D01*
X369721Y267912D01*
X370168Y268688D01*
X370400Y269552D01*
Y270448D01*
X370168Y271312D01*
X369721Y272088D01*
X369088Y272721D01*
X368312Y273168D01*
X367448Y273400D01*
D02*
G37*
G36*
X357448D02*
X356552D01*
X355688Y273168D01*
X354912Y272721D01*
X354279Y272088D01*
X353832Y271312D01*
X353600Y270448D01*
Y269552D01*
X353832Y268688D01*
X354279Y267912D01*
X354912Y267279D01*
X355688Y266832D01*
X356552Y266600D01*
X357448D01*
X358312Y266832D01*
X359088Y267279D01*
X359721Y267912D01*
X360168Y268688D01*
X360400Y269552D01*
Y270448D01*
X360168Y271312D01*
X359721Y272088D01*
X359088Y272721D01*
X358312Y273168D01*
X357448Y273400D01*
D02*
G37*
G36*
X177448D02*
X176552D01*
X175688Y273168D01*
X174912Y272721D01*
X174279Y272088D01*
X173832Y271312D01*
X173600Y270448D01*
Y269552D01*
X173832Y268688D01*
X174279Y267912D01*
X174912Y267279D01*
X175688Y266832D01*
X176552Y266600D01*
X177448D01*
X178312Y266832D01*
X179088Y267279D01*
X179721Y267912D01*
X180168Y268688D01*
X180400Y269552D01*
Y270448D01*
X180168Y271312D01*
X179721Y272088D01*
X179088Y272721D01*
X178312Y273168D01*
X177448Y273400D01*
D02*
G37*
G36*
X167448D02*
X166552D01*
X165688Y273168D01*
X164912Y272721D01*
X164279Y272088D01*
X163832Y271312D01*
X163600Y270448D01*
Y269552D01*
X163832Y268688D01*
X164279Y267912D01*
X164912Y267279D01*
X165688Y266832D01*
X166552Y266600D01*
X167448D01*
X168312Y266832D01*
X169088Y267279D01*
X169721Y267912D01*
X170168Y268688D01*
X170400Y269552D01*
Y270448D01*
X170168Y271312D01*
X169721Y272088D01*
X169088Y272721D01*
X168312Y273168D01*
X167448Y273400D01*
D02*
G37*
G36*
X21219Y273264D02*
X19710D01*
X18253Y272873D01*
X16947Y272119D01*
X15881Y271053D01*
X15127Y269746D01*
X14736Y268290D01*
Y266781D01*
X15127Y265324D01*
X15881Y264018D01*
X16947Y262952D01*
X18253Y262197D01*
X19710Y261807D01*
X21219D01*
X22676Y262197D01*
X23982Y262952D01*
X25048Y264018D01*
X25802Y265324D01*
X26193Y266781D01*
Y268290D01*
X25802Y269746D01*
X25048Y271053D01*
X23982Y272119D01*
X22676Y272873D01*
X21219Y273264D01*
D02*
G37*
G36*
X367448Y263400D02*
X366552D01*
X365688Y263168D01*
X364912Y262721D01*
X364279Y262088D01*
X363832Y261312D01*
X363600Y260448D01*
Y259552D01*
X363832Y258688D01*
X364279Y257912D01*
X364912Y257279D01*
X365688Y256832D01*
X366552Y256600D01*
X367448D01*
X368312Y256832D01*
X369088Y257279D01*
X369721Y257912D01*
X370168Y258688D01*
X370400Y259552D01*
Y260448D01*
X370168Y261312D01*
X369721Y262088D01*
X369088Y262721D01*
X368312Y263168D01*
X367448Y263400D01*
D02*
G37*
G36*
X357448D02*
X356552D01*
X355688Y263168D01*
X354912Y262721D01*
X354279Y262088D01*
X353832Y261312D01*
X353600Y260448D01*
Y259552D01*
X353832Y258688D01*
X354279Y257912D01*
X354912Y257279D01*
X355688Y256832D01*
X356552Y256600D01*
X357448D01*
X358312Y256832D01*
X359088Y257279D01*
X359721Y257912D01*
X360168Y258688D01*
X360400Y259552D01*
Y260448D01*
X360168Y261312D01*
X359721Y262088D01*
X359088Y262721D01*
X358312Y263168D01*
X357448Y263400D01*
D02*
G37*
G36*
X177448D02*
X176552D01*
X175688Y263168D01*
X174912Y262721D01*
X174279Y262088D01*
X173832Y261312D01*
X173600Y260448D01*
Y259552D01*
X173832Y258688D01*
X174279Y257912D01*
X174912Y257279D01*
X175688Y256832D01*
X176552Y256600D01*
X177448D01*
X178312Y256832D01*
X179088Y257279D01*
X179721Y257912D01*
X180168Y258688D01*
X180400Y259552D01*
Y260448D01*
X180168Y261312D01*
X179721Y262088D01*
X179088Y262721D01*
X178312Y263168D01*
X177448Y263400D01*
D02*
G37*
G36*
X367448Y253400D02*
X366552D01*
X365688Y253168D01*
X364912Y252721D01*
X364279Y252088D01*
X363832Y251312D01*
X363600Y250448D01*
Y249552D01*
X363832Y248688D01*
X364279Y247912D01*
X364912Y247279D01*
X365688Y246832D01*
X366552Y246600D01*
X367448D01*
X368312Y246832D01*
X369088Y247279D01*
X369721Y247912D01*
X370168Y248688D01*
X370400Y249552D01*
Y250448D01*
X370168Y251312D01*
X369721Y252088D01*
X369088Y252721D01*
X368312Y253168D01*
X367448Y253400D01*
D02*
G37*
G36*
X357448D02*
X356552D01*
X355688Y253168D01*
X354912Y252721D01*
X354279Y252088D01*
X353832Y251312D01*
X353600Y250448D01*
Y249552D01*
X353832Y248688D01*
X354279Y247912D01*
X354912Y247279D01*
X355688Y246832D01*
X356552Y246600D01*
X357448D01*
X358312Y246832D01*
X359088Y247279D01*
X359721Y247912D01*
X360168Y248688D01*
X360400Y249552D01*
Y250448D01*
X360168Y251312D01*
X359721Y252088D01*
X359088Y252721D01*
X358312Y253168D01*
X357448Y253400D01*
D02*
G37*
G36*
X129318Y295600D02*
X128682D01*
X128094Y295356D01*
X127644Y294906D01*
X127400Y294318D01*
Y293682D01*
X127644Y293094D01*
X127828Y292910D01*
Y288000D01*
X127917Y287551D01*
X128171Y287171D01*
X163904Y251438D01*
X163832Y251312D01*
X163600Y250448D01*
Y249552D01*
X163832Y248688D01*
X164279Y247912D01*
X164912Y247279D01*
X165688Y246832D01*
X166552Y246600D01*
X167448D01*
X168312Y246832D01*
X169088Y247279D01*
X169721Y247912D01*
X170168Y248688D01*
X170400Y249552D01*
Y250448D01*
X170168Y251312D01*
X169721Y252088D01*
X169088Y252721D01*
X168312Y253168D01*
X167448Y253400D01*
X166552D01*
X165688Y253168D01*
X165562Y253096D01*
X130173Y288486D01*
Y292910D01*
X130356Y293094D01*
X130600Y293682D01*
Y294318D01*
X130356Y294906D01*
X129906Y295356D01*
X129318Y295600D01*
D02*
G37*
G36*
X130318Y362600D02*
X129682D01*
X129094Y362356D01*
X128644Y361906D01*
X128400Y361318D01*
Y360682D01*
X128644Y360094D01*
X129094Y359644D01*
X129510Y359471D01*
X129991Y358991D01*
X129991Y358991D01*
X130454Y358681D01*
X131000Y358573D01*
X173861D01*
X173892Y358566D01*
X174011Y358590D01*
X180960Y351640D01*
Y245258D01*
X178666Y242964D01*
X178312Y243168D01*
X177448Y243400D01*
X176552D01*
X175688Y243168D01*
X174912Y242721D01*
X174279Y242088D01*
X173832Y241312D01*
X173600Y240448D01*
Y239552D01*
X173832Y238688D01*
X174279Y237912D01*
X174912Y237279D01*
X175688Y236832D01*
X176552Y236600D01*
X177448D01*
X178312Y236832D01*
X179088Y237279D01*
X179721Y237912D01*
X180168Y238688D01*
X180400Y239552D01*
Y240448D01*
X180168Y241312D01*
X179964Y241666D01*
X182527Y244229D01*
X182726Y244527D01*
X182796Y244878D01*
Y352021D01*
X182726Y352372D01*
X182527Y352669D01*
X175300Y359896D01*
X175319Y359994D01*
X175211Y360540D01*
X174925Y360968D01*
X174935Y360978D01*
X174930Y360984D01*
X174896Y361009D01*
X174896Y361009D01*
X174432Y361319D01*
X173886Y361427D01*
X131591D01*
X131529Y361490D01*
X131356Y361906D01*
X130906Y362356D01*
X130318Y362600D01*
D02*
G37*
G36*
X367448Y243400D02*
X366552D01*
X365688Y243168D01*
X364912Y242721D01*
X364279Y242088D01*
X363832Y241312D01*
X363600Y240448D01*
Y239552D01*
X363832Y238688D01*
X364279Y237912D01*
X364912Y237279D01*
X365688Y236832D01*
X366552Y236600D01*
X367448D01*
X368312Y236832D01*
X369088Y237279D01*
X369721Y237912D01*
X370168Y238688D01*
X370400Y239552D01*
Y240448D01*
X370168Y241312D01*
X369721Y242088D01*
X369088Y242721D01*
X368312Y243168D01*
X367448Y243400D01*
D02*
G37*
G36*
X357448D02*
X356552D01*
X355688Y243168D01*
X354912Y242721D01*
X354279Y242088D01*
X353832Y241312D01*
X353600Y240448D01*
Y239552D01*
X353832Y238688D01*
X354279Y237912D01*
X354912Y237279D01*
X355688Y236832D01*
X356552Y236600D01*
X357448D01*
X358312Y236832D01*
X359088Y237279D01*
X359721Y237912D01*
X360168Y238688D01*
X360400Y239552D01*
Y240448D01*
X360168Y241312D01*
X359721Y242088D01*
X359088Y242721D01*
X358312Y243168D01*
X357448Y243400D01*
D02*
G37*
G36*
X167448D02*
X166552D01*
X165688Y243168D01*
X164912Y242721D01*
X164279Y242088D01*
X163832Y241312D01*
X163600Y240448D01*
Y239552D01*
X163832Y238688D01*
X164279Y237912D01*
X164912Y237279D01*
X165688Y236832D01*
X166552Y236600D01*
X167448D01*
X168312Y236832D01*
X169088Y237279D01*
X169721Y237912D01*
X170168Y238688D01*
X170400Y239552D01*
Y240448D01*
X170168Y241312D01*
X169721Y242088D01*
X169088Y242721D01*
X168312Y243168D01*
X167448Y243400D01*
D02*
G37*
G36*
X21372Y247924D02*
X19863D01*
X18406Y247533D01*
X17100Y246779D01*
X16034Y245713D01*
X15280Y244407D01*
X14889Y242950D01*
Y241441D01*
X15280Y239984D01*
X16034Y238678D01*
X17100Y237612D01*
X18406Y236858D01*
X19863Y236467D01*
X21372D01*
X22829Y236858D01*
X24135Y237612D01*
X25201Y238678D01*
X25956Y239984D01*
X26346Y241441D01*
Y242950D01*
X25956Y244407D01*
X25201Y245713D01*
X24135Y246779D01*
X22829Y247533D01*
X21372Y247924D01*
D02*
G37*
G36*
X367448Y233400D02*
X366552D01*
X365688Y233168D01*
X364912Y232721D01*
X364279Y232088D01*
X363832Y231312D01*
X363600Y230448D01*
Y229552D01*
X363832Y228688D01*
X364279Y227912D01*
X364912Y227279D01*
X365688Y226832D01*
X366552Y226600D01*
X367448D01*
X368312Y226832D01*
X369088Y227279D01*
X369721Y227912D01*
X370168Y228688D01*
X370400Y229552D01*
Y230448D01*
X370168Y231312D01*
X369721Y232088D01*
X369088Y232721D01*
X368312Y233168D01*
X367448Y233400D01*
D02*
G37*
G36*
X357448D02*
X356552D01*
X355688Y233168D01*
X354912Y232721D01*
X354279Y232088D01*
X353832Y231312D01*
X353600Y230448D01*
Y229552D01*
X353832Y228688D01*
X354279Y227912D01*
X354912Y227279D01*
X355688Y226832D01*
X356552Y226600D01*
X357448D01*
X358312Y226832D01*
X359088Y227279D01*
X359721Y227912D01*
X360168Y228688D01*
X360400Y229552D01*
Y230448D01*
X360168Y231312D01*
X359721Y232088D01*
X359088Y232721D01*
X358312Y233168D01*
X357448Y233400D01*
D02*
G37*
G36*
X102318Y236600D02*
X101682D01*
X101094Y236356D01*
X100644Y235906D01*
X100400Y235318D01*
Y234682D01*
X100644Y234094D01*
X101082Y233655D01*
Y231455D01*
X94371Y224744D01*
X91424D01*
X91356Y224906D01*
X90906Y225356D01*
X90318Y225600D01*
X89682D01*
X89094Y225356D01*
X88644Y224906D01*
X88400Y224318D01*
Y223682D01*
X88644Y223094D01*
X89094Y222644D01*
X89682Y222400D01*
X90318D01*
X90906Y222644D01*
X91171Y222908D01*
X94751D01*
X95102Y222978D01*
X95400Y223177D01*
X102649Y230426D01*
X102848Y230724D01*
X102918Y231075D01*
Y233655D01*
X103356Y234094D01*
X103600Y234682D01*
Y235318D01*
X103356Y235906D01*
X102906Y236356D01*
X102318Y236600D01*
D02*
G37*
G36*
X253085Y243923D02*
X252448D01*
X251860Y243679D01*
X251410Y243229D01*
X251166Y242641D01*
Y242004D01*
X251284Y241720D01*
X251277Y241717D01*
X250149Y240851D01*
X238149Y228851D01*
X237283Y227723D01*
X236739Y226410D01*
X236553Y225000D01*
X236739Y223590D01*
X237283Y222277D01*
X238149Y221149D01*
X239277Y220283D01*
X240590Y219739D01*
X242000Y219553D01*
X243410Y219739D01*
X244723Y220283D01*
X245851Y221149D01*
X257851Y233149D01*
X258717Y234277D01*
X259261Y235590D01*
X259447Y237000D01*
X259261Y238410D01*
X258717Y239723D01*
X257851Y240851D01*
X256723Y241717D01*
X255410Y242261D01*
X254366Y242398D01*
Y242641D01*
X254123Y243229D01*
X253673Y243679D01*
X253085Y243923D01*
D02*
G37*
G36*
X367448Y223400D02*
X366552D01*
X365688Y223168D01*
X364912Y222721D01*
X364279Y222088D01*
X363832Y221312D01*
X363600Y220448D01*
Y219552D01*
X363832Y218688D01*
X364279Y217912D01*
X364912Y217279D01*
X365688Y216832D01*
X366552Y216600D01*
X367448D01*
X368312Y216832D01*
X369088Y217279D01*
X369721Y217912D01*
X370168Y218688D01*
X370400Y219552D01*
Y220448D01*
X370168Y221312D01*
X369721Y222088D01*
X369088Y222721D01*
X368312Y223168D01*
X367448Y223400D01*
D02*
G37*
G36*
X357448D02*
X356552D01*
X355688Y223168D01*
X354912Y222721D01*
X354279Y222088D01*
X353832Y221312D01*
X353600Y220448D01*
Y219552D01*
X353832Y218688D01*
X354279Y217912D01*
X354912Y217279D01*
X355688Y216832D01*
X356552Y216600D01*
X357448D01*
X358312Y216832D01*
X359088Y217279D01*
X359721Y217912D01*
X360168Y218688D01*
X360400Y219552D01*
Y220448D01*
X360168Y221312D01*
X359721Y222088D01*
X359088Y222721D01*
X358312Y223168D01*
X357448Y223400D01*
D02*
G37*
G36*
X177448D02*
X176552D01*
X175688Y223168D01*
X174912Y222721D01*
X174279Y222088D01*
X173832Y221312D01*
X173600Y220448D01*
Y219552D01*
X173832Y218688D01*
X174279Y217912D01*
X174912Y217279D01*
X175688Y216832D01*
X176552Y216600D01*
X177448D01*
X178312Y216832D01*
X179088Y217279D01*
X179721Y217912D01*
X180168Y218688D01*
X180400Y219552D01*
Y220448D01*
X180168Y221312D01*
X179721Y222088D01*
X179088Y222721D01*
X178312Y223168D01*
X177448Y223400D01*
D02*
G37*
G36*
X167448D02*
X166552D01*
X165688Y223168D01*
X164912Y222721D01*
X164279Y222088D01*
X163832Y221312D01*
X163600Y220448D01*
Y219552D01*
X163832Y218688D01*
X164279Y217912D01*
X164912Y217279D01*
X165688Y216832D01*
X166552Y216600D01*
X167448D01*
X168312Y216832D01*
X169088Y217279D01*
X169721Y217912D01*
X170168Y218688D01*
X170400Y219552D01*
Y220448D01*
X170168Y221312D01*
X169721Y222088D01*
X169088Y222721D01*
X168312Y223168D01*
X167448Y223400D01*
D02*
G37*
G36*
X261887Y234795D02*
X261000D01*
X260356Y234667D01*
X259810Y234302D01*
X259446Y233756D01*
X259318Y233113D01*
X259446Y232469D01*
X259810Y231923D01*
X260356Y231558D01*
X261000Y231430D01*
X261191D01*
X279649Y212972D01*
X279610Y212729D01*
X279581Y212695D01*
X279066Y212455D01*
X278714Y212600D01*
X278078D01*
X277490Y212356D01*
X277051Y211918D01*
X228000D01*
X227649Y211848D01*
X227351Y211649D01*
X181757Y166055D01*
X179965Y165918D01*
X154000D01*
X153649Y165848D01*
X153351Y165649D01*
X101537Y113835D01*
X101338Y113537D01*
X101268Y113186D01*
Y112493D01*
X100830Y112054D01*
X100586Y111466D01*
Y110829D01*
X100830Y110241D01*
X101280Y109791D01*
X101868Y109548D01*
X102504D01*
X103092Y109791D01*
X103542Y110241D01*
X103786Y110829D01*
Y111466D01*
X103542Y112054D01*
X103104Y112493D01*
Y112806D01*
X154380Y164082D01*
X180000D01*
X180035Y164089D01*
X180070Y164085D01*
X181866Y164222D01*
X182235Y164251D01*
X182375Y164289D01*
X182517Y164318D01*
X182546Y164337D01*
X182580Y164347D01*
X182694Y164436D01*
X182814Y164517D01*
X183076Y164778D01*
X183076Y164778D01*
X228380Y210082D01*
X277051D01*
X277490Y209644D01*
X278078Y209400D01*
X278714D01*
X279066Y209545D01*
X279581Y209305D01*
X279610Y209271D01*
X279649Y209028D01*
X278303Y207682D01*
X253000D01*
X253000Y207682D01*
X252356Y207554D01*
X251810Y207190D01*
X243810Y199190D01*
X235303Y190682D01*
X223000D01*
X222356Y190554D01*
X221810Y190190D01*
X221446Y189644D01*
X221318Y189000D01*
X221446Y188356D01*
X221810Y187810D01*
X222356Y187446D01*
X223000Y187318D01*
X236000D01*
X236644Y187446D01*
X237190Y187810D01*
X246190Y196810D01*
X253697Y204318D01*
X279000D01*
X279644Y204446D01*
X280190Y204810D01*
X282723Y207344D01*
X283088Y207890D01*
X283216Y208534D01*
Y213466D01*
X283088Y214110D01*
X282723Y214656D01*
X263077Y234302D01*
X262531Y234667D01*
X261887Y234795D01*
D02*
G37*
G36*
X21372Y219184D02*
X19863D01*
X18406Y218793D01*
X17100Y218039D01*
X16034Y216973D01*
X15280Y215666D01*
X14889Y214209D01*
Y212701D01*
X15280Y211244D01*
X16034Y209938D01*
X17100Y208872D01*
X18406Y208117D01*
X19863Y207727D01*
X21372D01*
X22829Y208117D01*
X24135Y208872D01*
X25201Y209938D01*
X25956Y211244D01*
X26346Y212701D01*
Y214209D01*
X25956Y215666D01*
X25201Y216973D01*
X24135Y218039D01*
X22829Y218793D01*
X21372Y219184D01*
D02*
G37*
G36*
X367448Y213400D02*
X366552D01*
X365688Y213168D01*
X364912Y212721D01*
X364279Y212088D01*
X363832Y211312D01*
X363600Y210448D01*
Y209552D01*
X363832Y208688D01*
X364279Y207912D01*
X364912Y207279D01*
X365688Y206832D01*
X366552Y206600D01*
X367448D01*
X368312Y206832D01*
X369088Y207279D01*
X369721Y207912D01*
X370168Y208688D01*
X370400Y209552D01*
Y210448D01*
X370168Y211312D01*
X369721Y212088D01*
X369088Y212721D01*
X368312Y213168D01*
X367448Y213400D01*
D02*
G37*
G36*
X357448D02*
X356552D01*
X355688Y213168D01*
X354912Y212721D01*
X354279Y212088D01*
X353832Y211312D01*
X353600Y210448D01*
Y209552D01*
X353832Y208688D01*
X354279Y207912D01*
X354912Y207279D01*
X355688Y206832D01*
X356552Y206600D01*
X357448D01*
X358312Y206832D01*
X359088Y207279D01*
X359721Y207912D01*
X360168Y208688D01*
X360400Y209552D01*
Y210448D01*
X360168Y211312D01*
X359721Y212088D01*
X359088Y212721D01*
X358312Y213168D01*
X357448Y213400D01*
D02*
G37*
G36*
X167448D02*
X166552D01*
X165688Y213168D01*
X164912Y212721D01*
X164279Y212088D01*
X163832Y211312D01*
X163600Y210448D01*
Y209552D01*
X163832Y208688D01*
X164279Y207912D01*
X164912Y207279D01*
X165688Y206832D01*
X166552Y206600D01*
X167448D01*
X168312Y206832D01*
X169088Y207279D01*
X169721Y207912D01*
X170168Y208688D01*
X170400Y209552D01*
Y210448D01*
X170168Y211312D01*
X169721Y212088D01*
X169088Y212721D01*
X168312Y213168D01*
X167448Y213400D01*
D02*
G37*
G36*
X367448Y203400D02*
X366552D01*
X365688Y203168D01*
X364912Y202721D01*
X364279Y202088D01*
X363832Y201312D01*
X363600Y200448D01*
Y199552D01*
X363832Y198688D01*
X364279Y197912D01*
X364912Y197279D01*
X365688Y196832D01*
X366552Y196600D01*
X367448D01*
X368312Y196832D01*
X369088Y197279D01*
X369721Y197912D01*
X370168Y198688D01*
X370400Y199552D01*
Y200448D01*
X370168Y201312D01*
X369721Y202088D01*
X369088Y202721D01*
X368312Y203168D01*
X367448Y203400D01*
D02*
G37*
G36*
X357448D02*
X356552D01*
X355688Y203168D01*
X354912Y202721D01*
X354279Y202088D01*
X353832Y201312D01*
X353600Y200448D01*
Y199552D01*
X353832Y198688D01*
X354279Y197912D01*
X354912Y197279D01*
X355688Y196832D01*
X356552Y196600D01*
X357448D01*
X358312Y196832D01*
X359088Y197279D01*
X359721Y197912D01*
X360168Y198688D01*
X360400Y199552D01*
Y200448D01*
X360168Y201312D01*
X359721Y202088D01*
X359088Y202721D01*
X358312Y203168D01*
X357448Y203400D01*
D02*
G37*
G36*
X367448Y193400D02*
X366552D01*
X365688Y193168D01*
X364912Y192721D01*
X364279Y192088D01*
X363832Y191312D01*
X363600Y190448D01*
Y189552D01*
X363832Y188688D01*
X364279Y187912D01*
X364912Y187279D01*
X365688Y186832D01*
X366552Y186600D01*
X367448D01*
X368312Y186832D01*
X369088Y187279D01*
X369721Y187912D01*
X370168Y188688D01*
X370400Y189552D01*
Y190448D01*
X370168Y191312D01*
X369721Y192088D01*
X369088Y192721D01*
X368312Y193168D01*
X367448Y193400D01*
D02*
G37*
G36*
X357448D02*
X356552D01*
X355688Y193168D01*
X354912Y192721D01*
X354279Y192088D01*
X353832Y191312D01*
X353600Y190448D01*
Y189552D01*
X353832Y188688D01*
X354279Y187912D01*
X354912Y187279D01*
X355688Y186832D01*
X356552Y186600D01*
X357448D01*
X358312Y186832D01*
X359088Y187279D01*
X359721Y187912D01*
X360168Y188688D01*
X360400Y189552D01*
Y190448D01*
X360168Y191312D01*
X359721Y192088D01*
X359088Y192721D01*
X358312Y193168D01*
X357448Y193400D01*
D02*
G37*
G36*
X21219Y193004D02*
X19710D01*
X18253Y192614D01*
X16947Y191859D01*
X15881Y190793D01*
X15127Y189487D01*
X14736Y188030D01*
Y186521D01*
X15127Y185064D01*
X15881Y183758D01*
X16947Y182692D01*
X18253Y181938D01*
X19710Y181547D01*
X21219D01*
X22676Y181938D01*
X23982Y182692D01*
X25048Y183758D01*
X25802Y185064D01*
X26193Y186521D01*
Y188030D01*
X25802Y189487D01*
X25048Y190793D01*
X23982Y191859D01*
X22676Y192614D01*
X21219Y193004D01*
D02*
G37*
G36*
X367448Y183400D02*
X366552D01*
X365688Y183168D01*
X364912Y182721D01*
X364279Y182088D01*
X363832Y181312D01*
X363600Y180448D01*
Y179552D01*
X363832Y178688D01*
X364279Y177912D01*
X364912Y177279D01*
X365688Y176832D01*
X366552Y176600D01*
X367448D01*
X368312Y176832D01*
X369088Y177279D01*
X369721Y177912D01*
X370168Y178688D01*
X370400Y179552D01*
Y180448D01*
X370168Y181312D01*
X369721Y182088D01*
X369088Y182721D01*
X368312Y183168D01*
X367448Y183400D01*
D02*
G37*
G36*
X357448D02*
X356552D01*
X355688Y183168D01*
X354912Y182721D01*
X354279Y182088D01*
X353832Y181312D01*
X353600Y180448D01*
Y179552D01*
X353832Y178688D01*
X354279Y177912D01*
X354912Y177279D01*
X355688Y176832D01*
X356552Y176600D01*
X357448D01*
X358312Y176832D01*
X359088Y177279D01*
X359721Y177912D01*
X360168Y178688D01*
X360400Y179552D01*
Y180448D01*
X360168Y181312D01*
X359721Y182088D01*
X359088Y182721D01*
X358312Y183168D01*
X357448Y183400D01*
D02*
G37*
G36*
X177448D02*
X176552D01*
X175688Y183168D01*
X174912Y182721D01*
X174279Y182088D01*
X173832Y181312D01*
X173600Y180448D01*
Y179552D01*
X173832Y178688D01*
X174279Y177912D01*
X174912Y177279D01*
X175688Y176832D01*
X176552Y176600D01*
X177448D01*
X178312Y176832D01*
X179088Y177279D01*
X179721Y177912D01*
X180168Y178688D01*
X180400Y179552D01*
Y180448D01*
X180168Y181312D01*
X179721Y182088D01*
X179088Y182721D01*
X178312Y183168D01*
X177448Y183400D01*
D02*
G37*
G36*
Y203400D02*
X176552D01*
X175688Y203168D01*
X174912Y202721D01*
X174279Y202088D01*
X173832Y201312D01*
X173600Y200448D01*
Y199552D01*
X173832Y198688D01*
X174279Y197912D01*
X174912Y197279D01*
X175688Y196832D01*
X176552Y196600D01*
X177448D01*
X178312Y196832D01*
X178666Y197036D01*
X182082Y193620D01*
Y188380D01*
X179498Y185796D01*
X154045D01*
X153694Y185726D01*
X153396Y185527D01*
X137571Y169701D01*
X137351Y169848D01*
X137000Y169918D01*
X136649Y169848D01*
X136351Y169649D01*
X136179Y169392D01*
X136094Y169356D01*
X135644Y168906D01*
X135400Y168318D01*
Y167682D01*
X135644Y167094D01*
X136094Y166644D01*
X136682Y166400D01*
X137318D01*
X137906Y166644D01*
X138356Y167094D01*
X138600Y167682D01*
Y168135D01*
X154425Y183960D01*
X179878D01*
X180229Y184030D01*
X180527Y184229D01*
X183649Y187351D01*
X183848Y187649D01*
X183918Y188000D01*
Y194000D01*
X183848Y194351D01*
X183649Y194649D01*
X179964Y198334D01*
X180168Y198688D01*
X180400Y199552D01*
Y200448D01*
X180168Y201312D01*
X179721Y202088D01*
X179088Y202721D01*
X178312Y203168D01*
X177448Y203400D01*
D02*
G37*
G36*
X367448Y173400D02*
X366552D01*
X365688Y173168D01*
X364912Y172721D01*
X364279Y172088D01*
X363832Y171312D01*
X363600Y170448D01*
Y169552D01*
X363832Y168688D01*
X364279Y167912D01*
X364912Y167279D01*
X365688Y166832D01*
X366552Y166600D01*
X367448D01*
X368312Y166832D01*
X369088Y167279D01*
X369721Y167912D01*
X370168Y168688D01*
X370400Y169552D01*
Y170448D01*
X370168Y171312D01*
X369721Y172088D01*
X369088Y172721D01*
X368312Y173168D01*
X367448Y173400D01*
D02*
G37*
G36*
X357448D02*
X356552D01*
X355688Y173168D01*
X354912Y172721D01*
X354279Y172088D01*
X353832Y171312D01*
X353600Y170448D01*
Y169552D01*
X353832Y168688D01*
X354279Y167912D01*
X354912Y167279D01*
X355688Y166832D01*
X356552Y166600D01*
X357448D01*
X358312Y166832D01*
X359088Y167279D01*
X359721Y167912D01*
X360168Y168688D01*
X360400Y169552D01*
Y170448D01*
X360168Y171312D01*
X359721Y172088D01*
X359088Y172721D01*
X358312Y173168D01*
X357448Y173400D01*
D02*
G37*
G36*
X177448D02*
X176552D01*
X175688Y173168D01*
X174912Y172721D01*
X174279Y172088D01*
X173832Y171312D01*
X173600Y170448D01*
Y169552D01*
X173832Y168688D01*
X174279Y167912D01*
X174912Y167279D01*
X175688Y166832D01*
X176552Y166600D01*
X177448D01*
X178312Y166832D01*
X179088Y167279D01*
X179721Y167912D01*
X180168Y168688D01*
X180400Y169552D01*
Y170448D01*
X180168Y171312D01*
X179721Y172088D01*
X179088Y172721D01*
X178312Y173168D01*
X177448Y173400D01*
D02*
G37*
G36*
X167448D02*
X166552D01*
X165688Y173168D01*
X164912Y172721D01*
X164279Y172088D01*
X163832Y171312D01*
X163600Y170448D01*
Y169552D01*
X163832Y168688D01*
X164279Y167912D01*
X164912Y167279D01*
X165688Y166832D01*
X166552Y166600D01*
X167448D01*
X168312Y166832D01*
X169088Y167279D01*
X169721Y167912D01*
X170168Y168688D01*
X170400Y169552D01*
Y170448D01*
X170168Y171312D01*
X169721Y172088D01*
X169088Y172721D01*
X168312Y173168D01*
X167448Y173400D01*
D02*
G37*
G36*
X367448Y163400D02*
X366552D01*
X365688Y163168D01*
X364912Y162721D01*
X364279Y162088D01*
X363832Y161312D01*
X363600Y160448D01*
Y159552D01*
X363832Y158688D01*
X364279Y157912D01*
X364912Y157279D01*
X365688Y156832D01*
X366552Y156600D01*
X367448D01*
X368312Y156832D01*
X369088Y157279D01*
X369721Y157912D01*
X370168Y158688D01*
X370400Y159552D01*
Y160448D01*
X370168Y161312D01*
X369721Y162088D01*
X369088Y162721D01*
X368312Y163168D01*
X367448Y163400D01*
D02*
G37*
G36*
X357448D02*
X356552D01*
X355688Y163168D01*
X354912Y162721D01*
X354279Y162088D01*
X353832Y161312D01*
X353600Y160448D01*
Y159552D01*
X353832Y158688D01*
X354279Y157912D01*
X354912Y157279D01*
X355688Y156832D01*
X356552Y156600D01*
X357448D01*
X358312Y156832D01*
X359088Y157279D01*
X359721Y157912D01*
X360168Y158688D01*
X360400Y159552D01*
Y160448D01*
X360168Y161312D01*
X359721Y162088D01*
X359088Y162721D01*
X358312Y163168D01*
X357448Y163400D01*
D02*
G37*
G36*
X177448D02*
X176552D01*
X175688Y163168D01*
X174912Y162721D01*
X174279Y162088D01*
X173832Y161312D01*
X173600Y160448D01*
Y159552D01*
X173832Y158688D01*
X174279Y157912D01*
X174912Y157279D01*
X175688Y156832D01*
X176552Y156600D01*
X177448D01*
X178312Y156832D01*
X179088Y157279D01*
X179721Y157912D01*
X180168Y158688D01*
X180400Y159552D01*
Y160448D01*
X180168Y161312D01*
X179721Y162088D01*
X179088Y162721D01*
X178312Y163168D01*
X177448Y163400D01*
D02*
G37*
G36*
X167448D02*
X166552D01*
X165688Y163168D01*
X164912Y162721D01*
X164279Y162088D01*
X163832Y161312D01*
X163600Y160448D01*
Y159552D01*
X163832Y158688D01*
X164279Y157912D01*
X164912Y157279D01*
X165688Y156832D01*
X166552Y156600D01*
X167448D01*
X168312Y156832D01*
X169088Y157279D01*
X169721Y157912D01*
X170168Y158688D01*
X170400Y159552D01*
Y160448D01*
X170168Y161312D01*
X169721Y162088D01*
X169088Y162721D01*
X168312Y163168D01*
X167448Y163400D01*
D02*
G37*
G36*
X101318Y162600D02*
X100682D01*
X100094Y162356D01*
X99644Y161906D01*
X99400Y161318D01*
Y160682D01*
X99644Y160094D01*
X100082Y159655D01*
Y158037D01*
X97667Y155621D01*
X93187D01*
X93160Y155649D01*
X92862Y155848D01*
X92511Y155918D01*
X88345D01*
X87906Y156356D01*
X87318Y156600D01*
X86682D01*
X86094Y156356D01*
X85644Y155906D01*
X85400Y155318D01*
Y154682D01*
X85644Y154094D01*
X86094Y153644D01*
X86682Y153400D01*
X87318D01*
X87906Y153644D01*
X88345Y154082D01*
X92131D01*
X92158Y154055D01*
X92456Y153856D01*
X92807Y153786D01*
X98047D01*
X98398Y153856D01*
X98696Y154055D01*
X101649Y157008D01*
X101848Y157305D01*
X101918Y157657D01*
Y159655D01*
X102356Y160094D01*
X102600Y160682D01*
Y161318D01*
X102356Y161906D01*
X101906Y162356D01*
X101318Y162600D01*
D02*
G37*
G36*
X21219Y164264D02*
X19710D01*
X18253Y163873D01*
X16947Y163119D01*
X15881Y162053D01*
X15127Y160747D01*
X14736Y159290D01*
Y157781D01*
X15127Y156324D01*
X15881Y155018D01*
X16947Y153952D01*
X18253Y153198D01*
X19710Y152807D01*
X21219D01*
X22676Y153198D01*
X23982Y153952D01*
X25048Y155018D01*
X25802Y156324D01*
X26193Y157781D01*
Y159290D01*
X25802Y160747D01*
X25048Y162053D01*
X23982Y163119D01*
X22676Y163873D01*
X21219Y164264D01*
D02*
G37*
G36*
X367448Y153400D02*
X366552D01*
X365688Y153168D01*
X364912Y152721D01*
X364279Y152088D01*
X363832Y151312D01*
X363600Y150448D01*
Y149552D01*
X363832Y148688D01*
X364279Y147912D01*
X364912Y147279D01*
X365688Y146832D01*
X366552Y146600D01*
X367448D01*
X368312Y146832D01*
X369088Y147279D01*
X369721Y147912D01*
X370168Y148688D01*
X370400Y149552D01*
Y150448D01*
X370168Y151312D01*
X369721Y152088D01*
X369088Y152721D01*
X368312Y153168D01*
X367448Y153400D01*
D02*
G37*
G36*
X357448D02*
X356552D01*
X355688Y153168D01*
X354912Y152721D01*
X354279Y152088D01*
X353832Y151312D01*
X353600Y150448D01*
Y149552D01*
X353832Y148688D01*
X354279Y147912D01*
X354912Y147279D01*
X355688Y146832D01*
X356552Y146600D01*
X357448D01*
X358312Y146832D01*
X359088Y147279D01*
X359721Y147912D01*
X360168Y148688D01*
X360400Y149552D01*
Y150448D01*
X360168Y151312D01*
X359721Y152088D01*
X359088Y152721D01*
X358312Y153168D01*
X357448Y153400D01*
D02*
G37*
G36*
X177448D02*
X176552D01*
X175688Y153168D01*
X174912Y152721D01*
X174279Y152088D01*
X173832Y151312D01*
X173600Y150448D01*
Y149552D01*
X173832Y148688D01*
X174279Y147912D01*
X174912Y147279D01*
X175688Y146832D01*
X176552Y146600D01*
X177448D01*
X178312Y146832D01*
X179088Y147279D01*
X179721Y147912D01*
X180168Y148688D01*
X180400Y149552D01*
Y150448D01*
X180168Y151312D01*
X179721Y152088D01*
X179088Y152721D01*
X178312Y153168D01*
X177448Y153400D01*
D02*
G37*
G36*
X167448D02*
X166552D01*
X165688Y153168D01*
X164912Y152721D01*
X164279Y152088D01*
X163832Y151312D01*
X163600Y150448D01*
Y149552D01*
X163832Y148688D01*
X164279Y147912D01*
X164912Y147279D01*
X165688Y146832D01*
X166552Y146600D01*
X167448D01*
X168312Y146832D01*
X169088Y147279D01*
X169721Y147912D01*
X170168Y148688D01*
X170400Y149552D01*
Y150448D01*
X170168Y151312D01*
X169721Y152088D01*
X169088Y152721D01*
X168312Y153168D01*
X167448Y153400D01*
D02*
G37*
G36*
X367448Y143400D02*
X366552D01*
X365688Y143168D01*
X364912Y142721D01*
X364279Y142088D01*
X363832Y141312D01*
X363600Y140448D01*
Y139552D01*
X363832Y138688D01*
X364279Y137912D01*
X364912Y137279D01*
X365688Y136832D01*
X366552Y136600D01*
X367448D01*
X368312Y136832D01*
X369088Y137279D01*
X369721Y137912D01*
X370168Y138688D01*
X370400Y139552D01*
Y140448D01*
X370168Y141312D01*
X369721Y142088D01*
X369088Y142721D01*
X368312Y143168D01*
X367448Y143400D01*
D02*
G37*
G36*
X357448D02*
X356552D01*
X355688Y143168D01*
X354912Y142721D01*
X354279Y142088D01*
X353832Y141312D01*
X353600Y140448D01*
Y139552D01*
X353832Y138688D01*
X354279Y137912D01*
X354912Y137279D01*
X355688Y136832D01*
X356552Y136600D01*
X357448D01*
X358312Y136832D01*
X359088Y137279D01*
X359721Y137912D01*
X360168Y138688D01*
X360400Y139552D01*
Y140448D01*
X360168Y141312D01*
X359721Y142088D01*
X359088Y142721D01*
X358312Y143168D01*
X357448Y143400D01*
D02*
G37*
G36*
X177448D02*
X176552D01*
X175688Y143168D01*
X174912Y142721D01*
X174279Y142088D01*
X173832Y141312D01*
X173600Y140448D01*
Y139552D01*
X173832Y138688D01*
X174279Y137912D01*
X174912Y137279D01*
X175688Y136832D01*
X176552Y136600D01*
X177448D01*
X178312Y136832D01*
X179088Y137279D01*
X179721Y137912D01*
X180168Y138688D01*
X180400Y139552D01*
Y140448D01*
X180168Y141312D01*
X179721Y142088D01*
X179088Y142721D01*
X178312Y143168D01*
X177448Y143400D01*
D02*
G37*
G36*
X167448D02*
X166552D01*
X165688Y143168D01*
X164912Y142721D01*
X164279Y142088D01*
X163832Y141312D01*
X163600Y140448D01*
Y139552D01*
X163832Y138688D01*
X164279Y137912D01*
X164912Y137279D01*
X165688Y136832D01*
X166552Y136600D01*
X167448D01*
X168312Y136832D01*
X169088Y137279D01*
X169721Y137912D01*
X170168Y138688D01*
X170400Y139552D01*
Y140448D01*
X170168Y141312D01*
X169721Y142088D01*
X169088Y142721D01*
X168312Y143168D01*
X167448Y143400D01*
D02*
G37*
G36*
X362992Y122605D02*
X361008D01*
X359048Y122294D01*
X357161Y121681D01*
X355394Y120781D01*
X353789Y119614D01*
X352386Y118211D01*
X351220Y116606D01*
X350319Y114839D01*
X349706Y112952D01*
X349395Y110992D01*
Y109008D01*
X349706Y107048D01*
X350319Y105161D01*
X351220Y103394D01*
X352386Y101789D01*
X353789Y100386D01*
X355394Y99220D01*
X357161Y98319D01*
X359048Y97706D01*
X361008Y97395D01*
X362992D01*
X364952Y97706D01*
X366839Y98319D01*
X368606Y99220D01*
X370211Y100386D01*
X371614Y101789D01*
X372780Y103394D01*
X373681Y105161D01*
X374294Y107048D01*
X374605Y109008D01*
Y110992D01*
X374294Y112952D01*
X373681Y114839D01*
X372780Y116606D01*
X371614Y118211D01*
X370211Y119614D01*
X368606Y120781D01*
X366839Y121681D01*
X364952Y122294D01*
X362992Y122605D01*
D02*
G37*
G36*
X172992D02*
X171008D01*
X169048Y122294D01*
X167162Y121681D01*
X165394Y120781D01*
X163789Y119614D01*
X162386Y118211D01*
X161220Y116606D01*
X160319Y114839D01*
X159706Y112952D01*
X159395Y110992D01*
Y109008D01*
X159706Y107048D01*
X160319Y105161D01*
X161220Y103394D01*
X162386Y101789D01*
X163789Y100386D01*
X165394Y99220D01*
X167162Y98319D01*
X169048Y97706D01*
X171008Y97395D01*
X172992D01*
X174952Y97706D01*
X176839Y98319D01*
X178606Y99220D01*
X180211Y100386D01*
X181614Y101789D01*
X182781Y103394D01*
X183681Y105161D01*
X184294Y107048D01*
X184605Y109008D01*
Y110992D01*
X184294Y112952D01*
X183681Y114839D01*
X182781Y116606D01*
X181614Y118211D01*
X180211Y119614D01*
X178606Y120781D01*
X176839Y121681D01*
X174952Y122294D01*
X172992Y122605D01*
D02*
G37*
G36*
X93318Y93600D02*
X92682D01*
X92094Y93356D01*
X91644Y92906D01*
X91471Y92490D01*
X84510Y85529D01*
X84094Y85356D01*
X83644Y84906D01*
X83404Y84329D01*
X83285Y84150D01*
X83176Y83604D01*
X83285Y83057D01*
X83594Y82594D01*
X84057Y82285D01*
X84604Y82176D01*
X85150Y82285D01*
X85329Y82404D01*
X85906Y82644D01*
X86356Y83094D01*
X86529Y83510D01*
X93490Y90471D01*
X93906Y90644D01*
X94356Y91094D01*
X94600Y91682D01*
Y92318D01*
X94356Y92906D01*
X93906Y93356D01*
X93318Y93600D01*
D02*
G37*
G36*
X72318Y68600D02*
X71682D01*
X71094Y68356D01*
X70644Y67906D01*
X70400Y67318D01*
Y66682D01*
X70644Y66094D01*
X71094Y65644D01*
X71682Y65400D01*
X72318D01*
X72906Y65644D01*
X73356Y66094D01*
X73600Y66682D01*
Y67318D01*
X73356Y67906D01*
X72906Y68356D01*
X72318Y68600D01*
D02*
G37*
G36*
X152361Y69620D02*
X151724D01*
X151136Y69376D01*
X150686Y68926D01*
X150443Y68338D01*
Y67701D01*
X150686Y67113D01*
X151136Y66663D01*
X151724Y66420D01*
X151985D01*
X172450Y45954D01*
X172830Y45700D01*
X173279Y45611D01*
X174195D01*
Y35387D01*
X179994D01*
Y47684D01*
X175818D01*
X175543Y47867D01*
X175094Y47956D01*
X173765D01*
X153643Y68078D01*
Y68338D01*
X153399Y68926D01*
X152949Y69376D01*
X152361Y69620D01*
D02*
G37*
G36*
X177448Y253400D02*
X176552D01*
X175688Y253168D01*
X174912Y252721D01*
X174279Y252088D01*
X173832Y251312D01*
X173600Y250448D01*
Y249552D01*
X173832Y248688D01*
X174279Y247912D01*
X174912Y247279D01*
X174920Y247218D01*
X171473Y243771D01*
X171274Y243473D01*
X171204Y243122D01*
Y238604D01*
X168640Y236040D01*
X165360D01*
X163040Y238360D01*
Y240292D01*
X162970Y240643D01*
X162771Y240941D01*
X162185Y241527D01*
X161887Y241726D01*
X161536Y241796D01*
X155179D01*
X154828Y241726D01*
X154531Y241527D01*
X154035Y241031D01*
X132804D01*
X132452Y240961D01*
X132155Y240762D01*
X129849Y238456D01*
X129650Y238158D01*
X129580Y237807D01*
Y233878D01*
X127351Y231649D01*
X127152Y231351D01*
X127093Y231053D01*
X126830Y230789D01*
X126586Y230202D01*
Y229565D01*
X126830Y228977D01*
X127280Y228527D01*
X127868Y228283D01*
X128504D01*
X129092Y228527D01*
X129542Y228977D01*
X129786Y229565D01*
Y230202D01*
X129542Y230789D01*
X129315Y231017D01*
X131146Y232849D01*
X131345Y233146D01*
X131415Y233498D01*
Y237427D01*
X133184Y239196D01*
X141500D01*
X141707Y238696D01*
X141644Y238632D01*
X141400Y238044D01*
Y237408D01*
X141644Y236820D01*
X142082Y236381D01*
Y225000D01*
X142152Y224649D01*
X142351Y224351D01*
X164447Y202255D01*
X164279Y202088D01*
X163832Y201312D01*
X163600Y200448D01*
Y199552D01*
X163832Y198688D01*
X164279Y197912D01*
X164912Y197279D01*
X165688Y196832D01*
X166552Y196600D01*
X167448D01*
X168312Y196832D01*
X169088Y197279D01*
X169721Y197912D01*
X170168Y198688D01*
X170400Y199552D01*
Y200448D01*
X170168Y201312D01*
X169721Y202088D01*
X169088Y202721D01*
X168312Y203168D01*
X167448Y203400D01*
X166552D01*
X166036Y203262D01*
X143918Y225380D01*
Y236381D01*
X144356Y236820D01*
X144600Y237408D01*
Y238044D01*
X144356Y238632D01*
X144293Y238696D01*
X144500Y239196D01*
X154415D01*
X154766Y239266D01*
X155064Y239464D01*
X155560Y239960D01*
X161156D01*
X161204Y239912D01*
Y237980D01*
X161274Y237628D01*
X161473Y237331D01*
X164331Y234473D01*
X164628Y234274D01*
X164980Y234204D01*
X169020D01*
X169244Y234249D01*
X169520Y233818D01*
X168666Y232964D01*
X168312Y233168D01*
X167448Y233400D01*
X166552D01*
X165688Y233168D01*
X164912Y232721D01*
X164279Y232088D01*
X163832Y231312D01*
X163600Y230448D01*
Y229552D01*
X163832Y228688D01*
X164279Y227912D01*
X164912Y227279D01*
X165688Y226832D01*
X166552Y226600D01*
X167448D01*
X168312Y226832D01*
X169088Y227279D01*
X169721Y227912D01*
X170168Y228688D01*
X170400Y229552D01*
Y230448D01*
X170168Y231312D01*
X169964Y231666D01*
X172258Y233960D01*
X197667D01*
X200210Y231418D01*
X200003Y230918D01*
X180274D01*
X180168Y231312D01*
X179721Y232088D01*
X179088Y232721D01*
X178312Y233168D01*
X177448Y233400D01*
X176552D01*
X175688Y233168D01*
X174912Y232721D01*
X174279Y232088D01*
X173832Y231312D01*
X173600Y230448D01*
Y229552D01*
X173832Y228688D01*
X174279Y227912D01*
X174912Y227279D01*
X175688Y226832D01*
X176552Y226600D01*
X177448D01*
X178312Y226832D01*
X179088Y227279D01*
X179721Y227912D01*
X180168Y228688D01*
X180274Y229082D01*
X209509D01*
X209716Y228582D01*
X192051Y210918D01*
X180274D01*
X180168Y211312D01*
X179721Y212088D01*
X179088Y212721D01*
X178312Y213168D01*
X177448Y213400D01*
X176552D01*
X175688Y213168D01*
X174912Y212721D01*
X174279Y212088D01*
X173832Y211312D01*
X173600Y210448D01*
Y209552D01*
X173832Y208688D01*
X174279Y207912D01*
X174912Y207279D01*
X175688Y206832D01*
X176552Y206600D01*
X177448D01*
X178312Y206832D01*
X179088Y207279D01*
X179721Y207912D01*
X180168Y208688D01*
X180274Y209082D01*
X192431D01*
X192782Y209152D01*
X193080Y209351D01*
X210959Y227230D01*
X212321D01*
X212473Y226730D01*
X212351Y226649D01*
X186351Y200649D01*
X186152Y200351D01*
X186082Y200000D01*
Y180380D01*
X181620Y175918D01*
X172380D01*
X169964Y178334D01*
X170168Y178688D01*
X170400Y179552D01*
Y180448D01*
X170168Y181312D01*
X169721Y182088D01*
X169088Y182721D01*
X168312Y183168D01*
X167448Y183400D01*
X166552D01*
X165688Y183168D01*
X164912Y182721D01*
X164279Y182088D01*
X163832Y181312D01*
X163600Y180448D01*
Y179552D01*
X163832Y178688D01*
X164279Y177912D01*
X164912Y177279D01*
X165688Y176832D01*
X166552Y176600D01*
X167448D01*
X168312Y176832D01*
X168666Y177036D01*
X171351Y174351D01*
X171649Y174152D01*
X172000Y174082D01*
X182000D01*
X182351Y174152D01*
X182649Y174351D01*
X187649Y179351D01*
X187848Y179649D01*
X187918Y180000D01*
Y199620D01*
X213380Y225082D01*
X214639D01*
X214682Y224600D01*
X214094Y224356D01*
X213644Y223906D01*
X213400Y223318D01*
Y222682D01*
X213644Y222094D01*
X214094Y221644D01*
X214682Y221400D01*
X215318D01*
X215906Y221644D01*
X216345Y222082D01*
X227000D01*
X227351Y222152D01*
X227649Y222351D01*
X251380Y246082D01*
X266915D01*
X283154Y229844D01*
X283212Y229551D01*
X283466Y229171D01*
X283846Y228917D01*
X284295Y228828D01*
X285246D01*
X285319Y228358D01*
X284731Y228114D01*
X284281Y227664D01*
X284037Y227076D01*
Y226439D01*
X284281Y225851D01*
X284720Y225412D01*
Y207017D01*
X213498Y135796D01*
X128878D01*
X128527Y135726D01*
X128229Y135527D01*
X109351Y116649D01*
X109152Y116351D01*
X109082Y116000D01*
Y112345D01*
X108644Y111906D01*
X108400Y111318D01*
Y110682D01*
X108644Y110094D01*
X109094Y109644D01*
X109682Y109400D01*
X109639Y108918D01*
X89380D01*
X66600Y131698D01*
Y132318D01*
X66356Y132906D01*
X65906Y133356D01*
X65318Y133600D01*
X64682D01*
X64094Y133356D01*
X63644Y132906D01*
X63400Y132318D01*
Y131682D01*
X63644Y131094D01*
X64094Y130644D01*
X64682Y130400D01*
X65302D01*
X88351Y107351D01*
X88649Y107152D01*
X89000Y107082D01*
X112376D01*
X112727Y107152D01*
X113025Y107351D01*
X120036Y114362D01*
X120235Y114660D01*
X120305Y115011D01*
Y120351D01*
X121215Y121261D01*
X121689Y121028D01*
X121553Y120000D01*
Y103256D01*
X98744Y80447D01*
X41547D01*
X41356Y80906D01*
X40906Y81356D01*
X40318Y81600D01*
X39682D01*
X39094Y81356D01*
X38644Y80906D01*
X38400Y80318D01*
Y80182D01*
X37277Y79717D01*
X36149Y78851D01*
X35283Y77723D01*
X34739Y76410D01*
X34553Y75000D01*
X34739Y73590D01*
X35283Y72277D01*
X36149Y71149D01*
X37277Y70283D01*
X38590Y69739D01*
X40000Y69553D01*
X101000D01*
X102410Y69739D01*
X103723Y70283D01*
X104851Y71149D01*
X118900Y85197D01*
X119400Y84990D01*
Y84682D01*
X119644Y84094D01*
X120094Y83644D01*
X120682Y83400D01*
X121318D01*
X121735Y83573D01*
X128409D01*
X136971Y75010D01*
X136971Y75010D01*
X137434Y74701D01*
X137980Y74592D01*
X137980Y74592D01*
X151308D01*
X151724Y74420D01*
X152361D01*
X152949Y74663D01*
X153399Y75113D01*
X153643Y75701D01*
Y76338D01*
X153399Y76926D01*
X152949Y77376D01*
X152361Y77620D01*
X151724D01*
X151308Y77447D01*
X138572D01*
X130009Y86009D01*
X129546Y86319D01*
X129000Y86427D01*
X129000Y86427D01*
X121735D01*
X121318Y86600D01*
X121010D01*
X120803Y87100D01*
X127000Y93297D01*
X136149Y84149D01*
X137277Y83283D01*
X138590Y82739D01*
X140000Y82553D01*
X140000Y82553D01*
X248000D01*
X249410Y82739D01*
X250723Y83283D01*
X251851Y84149D01*
X252851Y85149D01*
X253717Y86277D01*
X254261Y87590D01*
X254447Y89000D01*
X254261Y90410D01*
X253717Y91723D01*
X252851Y92851D01*
X251723Y93717D01*
X250410Y94261D01*
X249000Y94447D01*
X247590Y94261D01*
X246277Y93717D01*
X245924Y93447D01*
X142256D01*
X132447Y103256D01*
Y120000D01*
X132261Y121410D01*
X131717Y122723D01*
X130851Y123851D01*
X130035Y124478D01*
X130205Y124978D01*
X150664D01*
X151598Y124043D01*
X151979Y123789D01*
X152427Y123699D01*
X179124D01*
X179573Y123789D01*
X179631Y123828D01*
X229000D01*
X229449Y123917D01*
X229829Y124171D01*
X282843Y177185D01*
X283171Y177169D01*
X283383Y176674D01*
X282171Y175462D01*
X281917Y175082D01*
X281827Y174633D01*
Y94183D01*
X220128Y32483D01*
X219868D01*
X219280Y32240D01*
X218829Y31789D01*
X218586Y31201D01*
Y30565D01*
X218829Y29977D01*
X219280Y29527D01*
X219868Y29283D01*
X220504D01*
X221092Y29527D01*
X221542Y29977D01*
X221786Y30565D01*
Y30825D01*
X283829Y92868D01*
X284083Y93248D01*
X284173Y93697D01*
Y174147D01*
X290829Y180804D01*
X291083Y181184D01*
X291173Y181633D01*
Y229000D01*
X291083Y229449D01*
X290829Y229829D01*
X289829Y230829D01*
X289449Y231083D01*
X289000Y231172D01*
X284420D01*
X267944Y247649D01*
X267646Y247848D01*
X267295Y247918D01*
X251000D01*
X250649Y247848D01*
X250351Y247649D01*
X226620Y223918D01*
X224361D01*
X224318Y224400D01*
X224906Y224644D01*
X225356Y225094D01*
X225600Y225682D01*
Y226318D01*
X225356Y226906D01*
X225207Y227055D01*
X225491Y227479D01*
X225682Y227400D01*
X226318D01*
X226906Y227644D01*
X227356Y228094D01*
X227600Y228682D01*
Y228938D01*
X227670Y229330D01*
X228062Y229400D01*
X228318D01*
X228906Y229644D01*
X229356Y230094D01*
X229600Y230682D01*
Y231318D01*
X229356Y231906D01*
X228906Y232356D01*
X228318Y232600D01*
X227682D01*
X227094Y232356D01*
X227033Y232296D01*
X226989Y232305D01*
X225554D01*
X225224Y232805D01*
X225343Y233092D01*
Y233728D01*
X225272Y233900D01*
X225318Y234400D01*
X225906Y234644D01*
X226356Y235094D01*
X226600Y235682D01*
Y236318D01*
X226356Y236906D01*
X225906Y237356D01*
X225318Y237600D01*
X224682D01*
X224094Y237356D01*
X223655Y236918D01*
X204345D01*
X203906Y237356D01*
X203318Y237600D01*
X202682D01*
X202094Y237356D01*
X201644Y236906D01*
X201400Y236318D01*
Y235682D01*
X201644Y235094D01*
X202094Y234644D01*
X202682Y234400D01*
X203318D01*
X203906Y234644D01*
X204345Y235082D01*
X222445D01*
X222652Y234582D01*
X222387Y234316D01*
X222143Y233728D01*
Y233108D01*
X221805Y232770D01*
X201453D01*
X198696Y235527D01*
X198399Y235726D01*
X198047Y235796D01*
X171878D01*
X171573Y236245D01*
X171561Y236365D01*
X172771Y237575D01*
X172970Y237872D01*
X173040Y238224D01*
Y242742D01*
X176692Y246394D01*
X176830Y246600D01*
X177448D01*
X178312Y246832D01*
X179088Y247279D01*
X179721Y247912D01*
X180168Y248688D01*
X180400Y249552D01*
Y250448D01*
X180168Y251312D01*
X179721Y252088D01*
X179088Y252721D01*
X178312Y253168D01*
X177448Y253400D01*
D02*
G37*
G36*
X207416Y33530D02*
X196970D01*
Y27730D01*
X207416D01*
Y33530D01*
D02*
G37*
G36*
X169030D02*
X158584D01*
Y27730D01*
X169030D01*
Y33530D01*
D02*
G37*
G36*
X198124Y25728D02*
X196616D01*
X195159Y25338D01*
X193853Y24584D01*
X192786Y23517D01*
X192032Y22211D01*
X191642Y20754D01*
Y19246D01*
X192032Y17789D01*
X192786Y16483D01*
X193853Y15416D01*
X195159Y14662D01*
X196616Y14272D01*
X198124D01*
X199581Y14662D01*
X200887Y15416D01*
X201954Y16483D01*
X202708Y17789D01*
X203098Y19246D01*
Y20754D01*
X202708Y22211D01*
X201954Y23517D01*
X200887Y24584D01*
X199581Y25338D01*
X198124Y25728D01*
D02*
G37*
G36*
X169384D02*
X167876D01*
X166419Y25338D01*
X165113Y24584D01*
X164046Y23517D01*
X163292Y22211D01*
X162902Y20754D01*
Y19246D01*
X163292Y17789D01*
X164046Y16483D01*
X165113Y15416D01*
X166419Y14662D01*
X167876Y14272D01*
X169384D01*
X170841Y14662D01*
X172147Y15416D01*
X173214Y16483D01*
X173968Y17789D01*
X174358Y19246D01*
Y20754D01*
X173968Y22211D01*
X173214Y23517D01*
X172147Y24584D01*
X170841Y25338D01*
X169384Y25728D01*
D02*
G37*
G36*
X147124D02*
X145616D01*
X144159Y25338D01*
X142853Y24584D01*
X141786Y23517D01*
X141032Y22211D01*
X140642Y20754D01*
Y19246D01*
X141032Y17789D01*
X141786Y16483D01*
X142853Y15416D01*
X144159Y14662D01*
X145616Y14272D01*
X147124D01*
X148581Y14662D01*
X149887Y15416D01*
X150954Y16483D01*
X151708Y17789D01*
X152098Y19246D01*
Y20754D01*
X151708Y22211D01*
X150954Y23517D01*
X149887Y24584D01*
X148581Y25338D01*
X147124Y25728D01*
D02*
G37*
G36*
X118384D02*
X116876D01*
X115419Y25338D01*
X114113Y24584D01*
X113046Y23517D01*
X112292Y22211D01*
X111902Y20754D01*
Y19246D01*
X112292Y17789D01*
X113046Y16483D01*
X114113Y15416D01*
X115419Y14662D01*
X116876Y14272D01*
X118384D01*
X119841Y14662D01*
X121147Y15416D01*
X122214Y16483D01*
X122968Y17789D01*
X123358Y19246D01*
Y20754D01*
X122968Y22211D01*
X122214Y23517D01*
X121147Y24584D01*
X119841Y25338D01*
X118384Y25728D01*
D02*
G37*
G36*
X381038Y33195D02*
X378961D01*
X376910Y32870D01*
X374935Y32228D01*
X373084Y31286D01*
X371404Y30065D01*
X369935Y28596D01*
X368714Y26916D01*
X367772Y25065D01*
X367130Y23090D01*
X366805Y21038D01*
Y18961D01*
X367130Y16910D01*
X367772Y14935D01*
X368714Y13084D01*
X369935Y11404D01*
X371404Y9935D01*
X373084Y8714D01*
X374935Y7772D01*
X376910Y7130D01*
X378961Y6805D01*
X381038D01*
X383090Y7130D01*
X385065Y7772D01*
X386916Y8714D01*
X388596Y9935D01*
X390065Y11404D01*
X391286Y13084D01*
X392229Y14935D01*
X392870Y16910D01*
X393195Y18961D01*
Y21038D01*
X392870Y23090D01*
X392229Y25065D01*
X391286Y26916D01*
X390065Y28596D01*
X388596Y30065D01*
X386916Y31286D01*
X385065Y32228D01*
X383090Y32870D01*
X381038Y33195D01*
D02*
G37*
G36*
X21038D02*
X18961D01*
X16910Y32870D01*
X14935Y32228D01*
X13084Y31286D01*
X11404Y30065D01*
X9935Y28596D01*
X8714Y26916D01*
X7772Y25065D01*
X7130Y23090D01*
X6805Y21038D01*
Y18961D01*
X7130Y16910D01*
X7772Y14935D01*
X8714Y13084D01*
X9935Y11404D01*
X11404Y9935D01*
X13084Y8714D01*
X14935Y7772D01*
X16910Y7130D01*
X18961Y6805D01*
X21038D01*
X23090Y7130D01*
X25065Y7772D01*
X26916Y8714D01*
X28596Y9935D01*
X30065Y11404D01*
X31286Y13084D01*
X32228Y14935D01*
X32870Y16910D01*
X33195Y18961D01*
Y21038D01*
X32870Y23090D01*
X32228Y25065D01*
X31286Y26916D01*
X30065Y28596D01*
X28596Y30065D01*
X26916Y31286D01*
X25065Y32228D01*
X23090Y32870D01*
X21038Y33195D01*
D02*
G37*
%LPD*%
G36*
X288827Y228514D02*
Y182118D01*
X287737Y181028D01*
X287237Y181236D01*
Y181318D01*
X286994Y181906D01*
X286544Y182356D01*
X285956Y182600D01*
X285319D01*
X284731Y182356D01*
X284281Y181906D01*
X284037Y181318D01*
Y181058D01*
X282571Y179592D01*
X282420D01*
X281971Y179503D01*
X281591Y179249D01*
X228514Y126172D01*
X179252D01*
X178803Y126083D01*
X178745Y126045D01*
X152913D01*
X151978Y126979D01*
X151598Y127233D01*
X151149Y127322D01*
X124453D01*
X124004Y127233D01*
X123624Y126979D01*
X122650Y126006D01*
X122396Y125626D01*
X122307Y125177D01*
X122345Y124986D01*
X118738Y121380D01*
X118540Y121082D01*
X118470Y120731D01*
Y115391D01*
X111996Y108918D01*
X110361D01*
X110318Y109400D01*
X110906Y109644D01*
X111356Y110094D01*
X111600Y110682D01*
Y111318D01*
X111356Y111906D01*
X110918Y112345D01*
Y115620D01*
X129258Y133960D01*
X213878D01*
X214229Y134030D01*
X214527Y134229D01*
X286286Y205989D01*
X286485Y206286D01*
X286555Y206637D01*
Y225412D01*
X286994Y225851D01*
X287237Y226439D01*
Y227076D01*
X286994Y227664D01*
X286544Y228114D01*
X285956Y228358D01*
X286028Y228828D01*
X288514D01*
X288827Y228514D01*
D02*
G37*
D13*
X152000Y68000D02*
X152062D01*
X175094Y46784D02*
X177094Y44783D01*
Y41535D02*
Y44783D01*
X285637Y206637D02*
Y226758D01*
X201073Y231852D02*
X222185D01*
X223743Y233410D01*
X228000Y211000D02*
X278396D01*
X182427Y165427D02*
X228000Y211000D01*
X213878Y134878D02*
X285637Y206637D01*
X128878Y134878D02*
X213878D01*
X65000Y132000D02*
X89000Y108000D01*
X112376D01*
X110000Y116000D02*
X128878Y134878D01*
X183000Y188000D02*
Y194000D01*
X154045Y184878D02*
X179878D01*
X183000Y188000D01*
X137584Y168416D02*
X154045Y184878D01*
X143000Y225000D02*
X167000Y201000D01*
X143000Y225000D02*
Y237726D01*
X167000Y200000D02*
Y201000D01*
X176043Y247043D02*
Y249043D01*
X172122Y238224D02*
Y243122D01*
X176043Y249043D02*
X177000Y250000D01*
X172122Y243122D02*
X176043Y247043D01*
X173993Y359906D02*
X181878Y352021D01*
X173892Y359994D02*
X173993Y359906D01*
X119387Y120731D02*
X123479Y124823D01*
Y125177D01*
X267295Y247000D02*
X284295Y230000D01*
X177000D02*
X223624D01*
X110000Y111000D02*
Y116000D01*
X251000Y247000D02*
X267295D01*
X182000Y175000D02*
X187000Y180000D01*
Y200000D02*
X213000Y226000D01*
X187000Y180000D02*
Y200000D01*
X198047Y234878D02*
X201073Y231852D01*
X167000Y230000D02*
X171878Y234878D01*
X198047D01*
X92000Y287000D02*
X92174Y286826D01*
X98751D01*
X104000Y292075D02*
Y296000D01*
X98751Y286826D02*
X104000Y292075D01*
X90174Y223826D02*
X94751D01*
X90000Y224000D02*
X90174Y223826D01*
X94751D02*
X102000Y231075D01*
Y235000D01*
X92807Y154704D02*
X98047D01*
X87000Y155000D02*
X92511D01*
X92807Y154704D01*
X101000Y157657D02*
Y161000D01*
X98047Y154704D02*
X101000Y157657D01*
X119387Y115011D02*
Y120731D01*
X112376Y108000D02*
X119387Y115011D01*
X215000Y223000D02*
X227000D01*
X251000Y247000D01*
X192431Y210000D02*
X210579Y228148D01*
X213000Y226000D02*
X224000D01*
X223140Y228387D02*
X223991D01*
X210579Y228148D02*
X222900D01*
X223140Y228387D01*
X223991D02*
X224374Y228770D01*
X227147Y231230D02*
X227770D01*
X225011Y231387D02*
X226989D01*
X227770Y231230D02*
X228000Y231000D01*
X224374Y228770D02*
X225770D01*
X226000Y229000D01*
X226989Y231387D02*
X227147Y231230D01*
X223624Y230000D02*
X225011Y231387D01*
X118160Y265816D02*
X118900Y265076D01*
X118160Y265816D02*
Y354395D01*
X136053Y372287D01*
X102186Y111148D02*
Y113186D01*
X154000Y165000D02*
X180000D01*
X102186Y113186D02*
X154000Y165000D01*
X122275Y234159D02*
X133503Y245387D01*
X117000Y192000D02*
Y197219D01*
X120300Y291191D02*
X133109Y304000D01*
X119887Y195000D02*
Y198127D01*
X122000Y193736D02*
X122275Y194011D01*
X118900Y199119D02*
Y265076D01*
X122275Y194011D02*
Y234159D01*
X119887Y198127D02*
X120300Y198539D01*
X122000Y162000D02*
Y193736D01*
X120300Y198539D02*
Y291191D01*
X117000Y192000D02*
X119000Y190000D01*
X117000Y197219D02*
X118900Y199119D01*
X182166Y165165D02*
X182427Y165427D01*
X180000Y165000D02*
X181796Y165137D01*
X182166Y165165D01*
X154415Y240113D02*
X155179Y240878D01*
X162122Y237980D02*
Y240292D01*
X132804Y240113D02*
X154415D01*
X155179Y240878D02*
X161536D01*
X162122Y240292D01*
X130498Y233498D02*
Y237807D01*
X132804Y240113D01*
X154566Y245387D02*
X154831Y245122D01*
X133503Y245387D02*
X154566D01*
X154831Y245122D02*
X169020D01*
X171878Y247979D01*
X133109Y304000D02*
X142000D01*
X144000Y302000D01*
X136053Y372287D02*
X143713D01*
X146000Y370000D01*
X203000Y236000D02*
X225000D01*
X125000Y195000D02*
X172000D01*
X124000Y190000D02*
X125000D01*
X124000Y195000D02*
X125000D01*
Y190000D02*
X167000D01*
X128000Y230000D02*
Y231000D01*
X172000Y195000D02*
X177000Y190000D01*
X181878Y244878D02*
Y352021D01*
X177000Y240000D02*
X181878Y244878D01*
X171878Y247979D02*
Y255122D01*
X167000Y260000D02*
X171878Y255122D01*
X128000Y231000D02*
X130498Y233498D01*
X162122Y237980D02*
X164980Y235122D01*
X169020D01*
X172122Y238224D01*
X137000Y169000D02*
X137584Y168416D01*
X177000Y200000D02*
X183000Y194000D01*
X172000Y175000D02*
X182000D01*
X167000Y180000D02*
X172000Y175000D01*
X177000Y210000D02*
X192431D01*
D52*
X177094Y41535D02*
D03*
X188906D02*
D03*
D53*
X163807Y30630D02*
D03*
X202193D02*
D03*
D93*
X173886Y360000D02*
G03*
X173892Y359994I10614J10000D01*
G01*
X129000Y85000D02*
X137980Y76020D01*
X152043D01*
X121000Y85000D02*
X129000D01*
X131000Y360000D02*
X173886D01*
X130000Y361000D02*
X131000Y360000D01*
X173892Y359994D02*
Y359994D01*
X84604Y83604D02*
X93000Y92000D01*
X93551Y358776D02*
X96119D01*
X89463Y354689D02*
X93551Y358776D01*
X102343Y365000D02*
X108000D01*
X96119Y358776D02*
X102343Y365000D01*
D94*
X127000Y101000D02*
Y120000D01*
X111100Y201563D02*
Y264462D01*
X111000Y264632D02*
Y331000D01*
X101000Y75000D02*
X127000Y101000D01*
X40000Y75000D02*
X101000D01*
X242000Y225000D02*
X254000Y237000D01*
X248000Y88000D02*
X249000Y89000D01*
X140000Y88000D02*
X248000D01*
X127000Y101000D02*
X140000Y88000D01*
X111935Y152851D02*
Y175840D01*
X111100Y176674D02*
Y199663D01*
X106000Y128000D02*
Y146916D01*
X111100Y199663D02*
X113000Y201563D01*
X111100Y176674D02*
X111935Y175840D01*
X106000Y146916D02*
X111935Y152851D01*
D96*
X152062Y68000D02*
X173279Y46784D01*
X175094D01*
X283057Y178420D02*
X285637Y181000D01*
X229000Y125000D02*
X282420Y178420D01*
X283057D01*
X283000Y93697D02*
Y174633D01*
X220186Y30883D02*
X283000Y93697D01*
X123479Y125177D02*
X124453Y126150D01*
X151149D02*
X152427Y124872D01*
X179252Y125000D02*
X229000D01*
X179124Y124872D02*
X179252Y125000D01*
X124453Y126150D02*
X151149D01*
X152427Y124872D02*
X179124D01*
X284295Y230000D02*
X289000D01*
X290000Y229000D01*
Y181633D02*
Y229000D01*
X283000Y174633D02*
X290000Y181633D01*
X129000Y288000D02*
Y294000D01*
Y288000D02*
X167000Y250000D01*
D97*
X279000Y206000D02*
X281534Y208534D01*
X236000Y189000D02*
X245000Y198000D01*
X253000Y206000D01*
X279000D01*
X281534Y208534D02*
Y213466D01*
X261887Y233113D02*
X281534Y213466D01*
X261000Y233113D02*
X261887D01*
X223000Y189000D02*
X236000D01*
D99*
X20465Y187276D02*
D03*
Y158535D02*
D03*
X20618Y242195D02*
D03*
Y213455D02*
D03*
X21000Y351370D02*
D03*
Y322630D02*
D03*
X20465Y296276D02*
D03*
Y267535D02*
D03*
X168630Y20000D02*
D03*
X197370D02*
D03*
X146370D02*
D03*
X117630D02*
D03*
D100*
X167000Y180000D02*
D03*
X177000Y150000D02*
D03*
X167000D02*
D03*
X177000Y240000D02*
D03*
X167000Y250000D02*
D03*
X177000D02*
D03*
X167000Y260000D02*
D03*
X367000Y350000D02*
D03*
Y340000D02*
D03*
Y330000D02*
D03*
Y320000D02*
D03*
Y310000D02*
D03*
Y300000D02*
D03*
Y290000D02*
D03*
Y280000D02*
D03*
Y270000D02*
D03*
Y260000D02*
D03*
Y250000D02*
D03*
Y240000D02*
D03*
Y230000D02*
D03*
Y220000D02*
D03*
Y210000D02*
D03*
Y200000D02*
D03*
Y190000D02*
D03*
Y180000D02*
D03*
Y170000D02*
D03*
Y160000D02*
D03*
Y150000D02*
D03*
Y140000D02*
D03*
Y130000D02*
D03*
X357000Y350000D02*
D03*
Y340000D02*
D03*
Y330000D02*
D03*
Y320000D02*
D03*
Y310000D02*
D03*
Y300000D02*
D03*
Y290000D02*
D03*
Y280000D02*
D03*
Y270000D02*
D03*
Y260000D02*
D03*
Y250000D02*
D03*
Y240000D02*
D03*
Y230000D02*
D03*
Y220000D02*
D03*
Y210000D02*
D03*
Y200000D02*
D03*
Y190000D02*
D03*
Y180000D02*
D03*
Y170000D02*
D03*
Y160000D02*
D03*
Y150000D02*
D03*
Y140000D02*
D03*
Y130000D02*
D03*
X177000Y350000D02*
D03*
Y340000D02*
D03*
Y330000D02*
D03*
Y320000D02*
D03*
Y310000D02*
D03*
Y300000D02*
D03*
Y290000D02*
D03*
Y280000D02*
D03*
Y270000D02*
D03*
Y260000D02*
D03*
Y230000D02*
D03*
Y220000D02*
D03*
Y210000D02*
D03*
Y200000D02*
D03*
Y190000D02*
D03*
Y180000D02*
D03*
Y170000D02*
D03*
Y160000D02*
D03*
Y140000D02*
D03*
Y130000D02*
D03*
X167000Y350000D02*
D03*
Y340000D02*
D03*
Y330000D02*
D03*
Y320000D02*
D03*
Y310000D02*
D03*
Y300000D02*
D03*
Y290000D02*
D03*
Y280000D02*
D03*
Y270000D02*
D03*
Y240000D02*
D03*
Y230000D02*
D03*
Y220000D02*
D03*
Y210000D02*
D03*
Y200000D02*
D03*
Y190000D02*
D03*
Y170000D02*
D03*
Y160000D02*
D03*
Y140000D02*
D03*
Y130000D02*
D03*
D101*
X349500Y370000D02*
D03*
X184500D02*
D03*
X362000Y110000D02*
D03*
X172000D02*
D03*
D102*
X20000Y380000D02*
D03*
X380000Y20000D02*
D03*
Y380000D02*
D03*
X20000Y20000D02*
D03*
D103*
X43043Y74020D02*
D03*
X239043Y224020D02*
D03*
X244043Y223020D02*
D03*
X254242Y236535D02*
D03*
X257444Y236562D02*
D03*
X256616Y239047D02*
D03*
X247217Y90623D02*
D03*
X250221Y91320D02*
D03*
X252043Y87020D02*
D03*
X251043Y89020D02*
D03*
X37043Y77020D02*
D03*
X152043Y68020D02*
D03*
Y76020D02*
D03*
X285637Y226758D02*
D03*
Y181000D02*
D03*
X278396Y211000D02*
D03*
X127043Y81020D02*
D03*
X143000Y65000D02*
D03*
X143047Y131704D02*
D03*
X149000Y172000D02*
D03*
X72000Y67000D02*
D03*
X85000Y84000D02*
D03*
X252766Y242323D02*
D03*
X267181Y199819D02*
D03*
X135000Y103000D02*
D03*
X93000Y92000D02*
D03*
X121000Y85000D02*
D03*
X89463Y354689D02*
D03*
X108000Y365000D02*
D03*
X92000Y287000D02*
D03*
X104000Y296000D02*
D03*
X90000Y224000D02*
D03*
X102000Y235000D02*
D03*
X87000Y155000D02*
D03*
X101000Y161000D02*
D03*
X120000Y112000D02*
D03*
X261000Y233113D02*
D03*
X137000Y168000D02*
D03*
X110636Y334012D02*
D03*
X111636Y262012D02*
D03*
X114636Y204012D02*
D03*
X106636Y126012D02*
D03*
X126636Y117012D02*
D03*
X42636Y77012D02*
D03*
X40000Y80000D02*
D03*
Y75000D02*
D03*
X240636Y222012D02*
D03*
X244159Y225818D02*
D03*
X242000Y225000D02*
D03*
X248636Y86012D02*
D03*
X247636Y88012D02*
D03*
X254095Y239109D02*
D03*
X251636Y239012D02*
D03*
X224000Y226000D02*
D03*
X226000Y229000D02*
D03*
X228000Y231000D02*
D03*
X127000Y91260D02*
D03*
X113636Y333012D02*
D03*
X107636Y332012D02*
D03*
X113738Y264621D02*
D03*
X108636Y264012D02*
D03*
X110636Y202012D02*
D03*
X115636Y201012D02*
D03*
X103636Y128012D02*
D03*
X108636D02*
D03*
X124636Y120012D02*
D03*
X129636D02*
D03*
X110000Y111000D02*
D03*
X104000Y287000D02*
D03*
X127000Y120000D02*
D03*
X111170Y264462D02*
D03*
X104213Y228826D02*
D03*
X113000Y201563D02*
D03*
X119887Y195000D02*
D03*
X212000Y221000D02*
D03*
X53000Y85991D02*
D03*
X134000Y237000D02*
D03*
X143000Y237726D02*
D03*
X135000Y243000D02*
D03*
Y307000D02*
D03*
Y301000D02*
D03*
Y298000D02*
D03*
X137000Y375000D02*
D03*
Y369000D02*
D03*
X193000Y138000D02*
D03*
X208000Y186000D02*
D03*
X223743Y233410D02*
D03*
X203000Y236000D02*
D03*
X225000D02*
D03*
X220186Y30883D02*
D03*
X215000Y223000D02*
D03*
X223000Y189000D02*
D03*
X65000Y132000D02*
D03*
X106000Y128000D02*
D03*
X125000Y195000D02*
D03*
X122000Y162000D02*
D03*
X125000Y190000D02*
D03*
X111000Y331000D02*
D03*
X108000Y359000D02*
D03*
X130000Y361000D02*
D03*
X155397Y304867D02*
D03*
X144000Y302000D02*
D03*
X129000Y294000D02*
D03*
X128186Y229883D02*
D03*
X102186Y111148D02*
D03*
X239000Y181000D02*
D03*
X260481Y194519D02*
D03*
X119000Y190000D02*
D03*
X145281Y370033D02*
D03*
X151751Y203826D02*
D03*
X153751Y242826D02*
D03*
X133751Y233826D02*
D03*
X147047Y262704D02*
D03*
X105047Y155704D02*
D03*
X128047Y164704D02*
D03*
Y168704D02*
D03*
Y172704D02*
D03*
X150047Y331704D02*
D03*
X157047Y371704D02*
D03*
X137047Y365704D02*
D03*
X68017Y330625D02*
D03*
X65017Y325625D02*
D03*
X60017D02*
D03*
X55017D02*
D03*
X53017Y330625D02*
D03*
X60017Y335625D02*
D03*
X65017D02*
D03*
X55017D02*
D03*
X49751Y342826D02*
D03*
X46751Y337826D02*
D03*
X41751D02*
D03*
X36751D02*
D03*
X34751Y342826D02*
D03*
X41751Y347826D02*
D03*
X46751D02*
D03*
X36751D02*
D03*
X49328Y287959D02*
D03*
X46328Y282959D02*
D03*
X41328D02*
D03*
X36328D02*
D03*
X34328Y287959D02*
D03*
X41328Y292959D02*
D03*
X46328D02*
D03*
X36328D02*
D03*
X67735Y275617D02*
D03*
X64735Y270617D02*
D03*
X59735D02*
D03*
X54735D02*
D03*
X52735Y275617D02*
D03*
X59735Y280617D02*
D03*
X64735D02*
D03*
X54735D02*
D03*
X67594Y221596D02*
D03*
X64594Y216596D02*
D03*
X59594D02*
D03*
X54594D02*
D03*
X52594Y221596D02*
D03*
X59594Y226596D02*
D03*
X64594D02*
D03*
X54594D02*
D03*
X49681Y233585D02*
D03*
X46681Y228585D02*
D03*
X41681D02*
D03*
X36681D02*
D03*
X34681Y233585D02*
D03*
X41681Y238585D02*
D03*
X46681D02*
D03*
X36681D02*
D03*
X67775Y166627D02*
D03*
X64775Y161627D02*
D03*
X59775D02*
D03*
X54775D02*
D03*
X52775Y166627D02*
D03*
X59775Y171627D02*
D03*
X64775D02*
D03*
X54775D02*
D03*
X49341Y178840D02*
D03*
X46341Y173840D02*
D03*
X41341D02*
D03*
X36341D02*
D03*
X34341Y178840D02*
D03*
X41341Y183840D02*
D03*
X46341D02*
D03*
X36341D02*
D03*
X55124Y114439D02*
D03*
X30000Y99000D02*
D03*
X26000D02*
D03*
Y95000D02*
D03*
X30000D02*
D03*
X18000Y79000D02*
D03*
X41124Y107439D02*
D03*
X97043Y88020D02*
D03*
X147043Y105020D02*
D03*
X189000Y42000D02*
D03*
X77000Y13000D02*
D03*
X133000Y55000D02*
D03*
X131000Y47000D02*
D03*
X245000Y198000D02*
D03*
X133000Y65000D02*
D03*
X234000Y244000D02*
D03*
X255000Y224000D02*
D03*
X138000Y52000D02*
D03*
X133000Y60000D02*
D03*
X138000Y68000D02*
D03*
X143000Y60000D02*
D03*
Y55000D02*
D03*
X131000Y37000D02*
D03*
Y42000D02*
D03*
X126000Y49000D02*
D03*
X121000Y47000D02*
D03*
Y42000D02*
D03*
Y37000D02*
D03*
X126000Y34000D02*
D03*
M02*
