M48
;Layer_Color=9474304
;FILE_FORMAT=2:4
INCH,TZ
;TYPE=PLATED
T01F00S00C0.0100
T02F00S00C0.0118
T03F00S00C0.0300
T04F00S00C0.1142
T05F00S00C0.1339
;TYPE=NON_PLATED
T06F00S00C0.0949
%
T01
X7700Y1300
X18900Y4200
X24864Y8601
X24764Y8801
X24722Y9062
X25022Y9132
X25104Y8902
X25204Y8702
X28564Y18100
X14900Y17200
X13700Y16800
X12805Y16870
Y16470
Y17270
X12200Y16200
X10100Y16100
X10505Y15570
X8700Y15500
X6478Y16163
X5978
X5478
X5278Y16663
X5478Y17163
X5978
X6478
X6778Y16663
X4634Y17384
X4134
X3634
X3434Y17884
X4934
X6500Y13200
X5512Y11444
X4112Y10744
X3000Y9900
X2600
Y9500
X3000
X4000Y8000
Y7500
X4304Y7402
X4264Y7701
X3704Y7702
X1800Y7900
X5300Y8599
X8500Y8400
X9300Y9200
X9704Y8802
X12100Y8500
X12704Y8102
X13300Y6500
Y6000
Y5500
X13800Y5200
X14300Y5500
Y6000
Y6500
X13800Y6800
X15204Y6802
Y7602
X14704Y10502
X14305Y13170
X12964Y12001
X12700Y12000
X12464Y12001
X12664Y11701
X10664Y12601
X10600Y12800
X10364Y12801
X10864
X12100Y4700
Y4200
Y3700
X12600Y3400
X13100Y3700
Y4200
Y4700
X12600Y4900
X7200Y6700
X4634Y18384
X4134
X3634
X3668Y22858
X4168
X4668
X4968Y23358
X4668Y23858
X4168
X3668
X3468Y23358
X5459Y22660
X5959
X6459
X6759Y22160
X6459Y21660
X5959
X5459
X5259Y22160
X9000Y22400
X10421Y22883
X10200Y23500
X13375Y23383
X13400Y23700
X13500Y24300
X14300Y23773
X15375Y24283
X14705Y26270
X11374Y26462
X11117Y26446
X11164Y26201
X10864Y26401
X10400Y28700
Y29600
X9200Y28700
X6473Y28062
X5973
X5473
X5273Y27562
X5473Y27062
X5973
X6473
X6773Y27562
X4633Y28296
X4133
X3633
X3433Y28796
X3633Y29296
X4133
X4633
X4933Y28796
X5502Y32563
X6002
X6502
X6802Y33063
X6502Y33563
X6002
X5502
X5302Y33063
X4675Y33783
X4175
X3675
X10764Y33201
X11100Y33100
X11064Y33401
X11364Y33301
X15005Y33170
X14400Y30200
X13500Y30100
Y29800
Y30700
X12900Y29400
X12500Y19500
Y19000
X11900
X11989Y19500
X11564Y20101
X11300Y20156
X11064Y20201
X11464Y20401
X15175Y20383
X24064Y22201
X23904Y22402
X24200Y22500
X24416Y22582
X24404Y22302
X25164Y23901
X25409Y23911
X25662Y23905
X25744Y23656
X25424Y23653
X25277Y24232
X15705Y37170
X14528Y37003
X13700Y36900
X13705Y36570
X13700Y37500
X13000Y36100
X10800Y35900
Y36500
X8946Y35469
X4675Y34783
X4175
X3675
X3475Y34283
X4975
T02
X22019Y3088
X19300Y13800
X23900Y18100
X13500Y10300
X12700Y9126
X12000Y11200
X11000Y11100
X10219Y11115
X12819Y22988
X15540Y30487
X20300Y23600
X22500
X22374Y23341
X22600Y22900
X22800Y23100
X22400Y22600
X21500Y22300
X21200Y22100
X20800Y18600
X22300Y18900
X24500Y19800
X26048Y19452
X26718Y19982
X27840Y21100
X28564Y22676
X26100Y23311
X25500Y22400
X23400Y24400
T03
X35700Y13000
X36700
Y14000
Y15000
Y16000
Y17000
Y18000
X35700
Y17000
Y16000
Y15000
Y14000
X17700
Y15000
X16700
Y16000
X17700
Y17000
Y18000
X16700
Y17000
Y14000
Y13000
X17700
Y19000
Y20000
Y21000
Y22000
Y23000
Y24000
Y25000
X16700
Y26000
X17700
Y27000
Y28000
Y29000
Y30000
Y31000
Y32000
Y33000
X16700
Y32000
Y31000
Y30000
Y29000
Y28000
Y27000
Y24000
Y23000
Y22000
Y21000
Y20000
Y19000
X35700
X36700
Y20000
Y21000
Y22000
Y23000
Y24000
Y25000
Y26000
Y27000
Y28000
Y29000
Y30000
Y31000
Y32000
Y33000
X35700
Y32000
Y31000
Y30000
Y29000
Y28000
Y27000
Y26000
Y25000
Y24000
Y23000
Y22000
Y21000
Y20000
Y34000
X36700
Y35000
X35700
X17700
Y34000
X16700
Y35000
T04
X36200Y11000
X17200
X34950Y37000
X18450
T05
X2000Y2000
X38000
Y38000
X2000
T06
X11763Y2000
X14637
X16863
X19737
X2046Y15854
Y18728
X2062Y21346
Y24220
X2046Y26754
Y29628
X2100Y32263
Y35137
M30
