G04*
G04 #@! TF.GenerationSoftware,Altium Limited,Altium Designer,25.3.3 (18)*
G04*
G04 Layer_Color=65535*
%FSLAX25Y25*%
%MOIN*%
G70*
G04*
G04 #@! TF.SameCoordinates,2C78717C-F5E3-4C58-9D65-8300EA0D7612*
G04*
G04*
G04 #@! TF.FilePolarity,Positive*
G04*
G01*
G75*
%ADD10C,0.00984*%
%ADD11C,0.00394*%
%ADD12C,0.02362*%
%ADD13C,0.01000*%
%ADD14C,0.00787*%
%ADD15C,0.00500*%
%ADD16R,0.03150X0.00492*%
%ADD17R,0.01575X0.01083*%
G36*
X250217Y344693D02*
Y344541D01*
X250065D01*
Y344389D01*
X249913D01*
Y344237D01*
Y344085D01*
X249761D01*
Y343933D01*
X249608D01*
Y343781D01*
X249456D01*
Y343629D01*
Y343477D01*
X249304D01*
Y343324D01*
X249152D01*
Y343172D01*
Y343020D01*
X249000D01*
Y342868D01*
X248848D01*
Y342716D01*
Y342564D01*
X248696D01*
Y342412D01*
X248544D01*
Y342260D01*
Y342108D01*
X248392D01*
Y341956D01*
X248239D01*
Y341804D01*
X248087D01*
Y341651D01*
Y341499D01*
X247935D01*
Y341347D01*
X247783D01*
Y341195D01*
Y341043D01*
X247631D01*
Y340891D01*
X247479D01*
Y340739D01*
X247327D01*
Y340587D01*
Y340435D01*
X247175D01*
Y340283D01*
X247023D01*
Y340130D01*
Y339978D01*
X246871D01*
Y339826D01*
X246719D01*
Y339674D01*
Y339522D01*
X246566D01*
Y339370D01*
X246414D01*
Y339218D01*
Y339066D01*
X246262D01*
Y338914D01*
X246110D01*
Y338761D01*
X245958D01*
Y338609D01*
Y338457D01*
X245806D01*
Y338305D01*
X245654D01*
Y338153D01*
Y338001D01*
X245502D01*
Y337849D01*
X245350D01*
Y337697D01*
Y337545D01*
X245198D01*
Y337393D01*
X245045D01*
Y337241D01*
X244893D01*
Y337088D01*
Y336936D01*
X244741D01*
Y336784D01*
X244589D01*
Y336632D01*
Y336480D01*
X244437D01*
Y336328D01*
X244285D01*
Y336176D01*
Y336024D01*
X244133D01*
Y335872D01*
X243981D01*
Y335719D01*
Y335567D01*
X243829D01*
Y335415D01*
X243677D01*
Y335263D01*
X243525D01*
Y335111D01*
Y334959D01*
X243372D01*
Y334807D01*
X243220D01*
Y334655D01*
Y334503D01*
X243068D01*
Y334351D01*
X242916D01*
Y334198D01*
Y334046D01*
X242764D01*
Y333894D01*
X242612D01*
Y333742D01*
X242460D01*
Y333590D01*
Y333438D01*
X242308D01*
Y333286D01*
X242156D01*
Y333134D01*
Y332982D01*
X242003D01*
Y332830D01*
X241851D01*
Y332678D01*
Y332525D01*
X241699D01*
Y332373D01*
X241547D01*
Y332221D01*
Y332069D01*
X241395D01*
Y331917D01*
X241243D01*
Y331765D01*
X241091D01*
Y331613D01*
Y331461D01*
X240939D01*
Y331309D01*
X240787D01*
Y331157D01*
Y331004D01*
X240635D01*
Y330852D01*
X240482D01*
Y330700D01*
Y330548D01*
X240330D01*
Y330396D01*
X240178D01*
Y330244D01*
X240026D01*
Y330092D01*
Y329940D01*
X239874D01*
Y329788D01*
X239722D01*
Y329636D01*
Y329484D01*
X239570D01*
Y329331D01*
X239418D01*
Y329179D01*
Y329027D01*
X239266D01*
Y328875D01*
X239114D01*
Y328723D01*
X238962D01*
Y328571D01*
Y328419D01*
X238809D01*
Y328267D01*
X238657D01*
Y328115D01*
Y327962D01*
X238505D01*
Y327810D01*
X238353D01*
Y327658D01*
Y327506D01*
X238201D01*
Y327354D01*
X238049D01*
Y327202D01*
Y327050D01*
X237897D01*
Y326898D01*
X237745D01*
Y326746D01*
X237593D01*
Y326594D01*
Y326442D01*
X237440D01*
Y326289D01*
X237288D01*
Y326137D01*
Y325985D01*
X237136D01*
Y325833D01*
X236984D01*
Y325681D01*
Y325529D01*
X236832D01*
Y325377D01*
X236680D01*
Y325225D01*
X236528D01*
Y325073D01*
Y324921D01*
X236376D01*
Y324768D01*
X236224D01*
Y324616D01*
Y324464D01*
Y324312D01*
Y324160D01*
Y324008D01*
Y323856D01*
Y323704D01*
Y323552D01*
Y323399D01*
Y323247D01*
Y323095D01*
Y322943D01*
Y322791D01*
Y322639D01*
Y322487D01*
Y322335D01*
Y322183D01*
Y322031D01*
Y321879D01*
Y321726D01*
Y321574D01*
Y321422D01*
Y321270D01*
Y321118D01*
Y320966D01*
Y320814D01*
Y320662D01*
Y320510D01*
Y320357D01*
Y320205D01*
Y320053D01*
Y319901D01*
Y319749D01*
Y319597D01*
Y319445D01*
Y319293D01*
Y319141D01*
Y318989D01*
Y318836D01*
Y318684D01*
Y318532D01*
Y318380D01*
Y318228D01*
Y318076D01*
Y317924D01*
Y317772D01*
Y317620D01*
Y317468D01*
Y317316D01*
Y317163D01*
Y317011D01*
Y316859D01*
Y316707D01*
X236072D01*
Y316555D01*
Y316403D01*
X235919D01*
Y316251D01*
X235767D01*
Y316099D01*
X235615D01*
Y315947D01*
Y315794D01*
X235463D01*
Y315642D01*
X235311D01*
Y315490D01*
Y315338D01*
X235159D01*
Y315186D01*
X235007D01*
Y315034D01*
Y314882D01*
X234855D01*
Y314730D01*
X234703D01*
Y314578D01*
X234551D01*
Y314426D01*
Y314274D01*
X234399D01*
Y314122D01*
X234246D01*
Y313969D01*
Y313817D01*
X234094D01*
Y313665D01*
X233942D01*
Y313513D01*
Y313361D01*
X233790D01*
Y313209D01*
X233638D01*
Y313057D01*
X233486D01*
Y312905D01*
Y312753D01*
X233334D01*
Y312600D01*
X233182D01*
Y312448D01*
Y312296D01*
X233030D01*
Y312144D01*
X232877D01*
Y311992D01*
Y311840D01*
X232725D01*
Y311688D01*
X232573D01*
Y311536D01*
X232421D01*
Y311384D01*
Y311232D01*
X232269D01*
Y311080D01*
X232117D01*
Y310927D01*
Y310775D01*
X231965D01*
Y310623D01*
X231813D01*
Y310471D01*
Y310319D01*
X231661D01*
Y310167D01*
X231509D01*
Y310015D01*
Y309863D01*
X231357D01*
Y309711D01*
X231204D01*
Y309559D01*
X231052D01*
Y309406D01*
Y309254D01*
X230900D01*
Y309102D01*
X230748D01*
Y308950D01*
Y308798D01*
X230596D01*
Y308950D01*
Y309102D01*
Y309254D01*
Y309406D01*
Y309559D01*
Y309711D01*
Y309863D01*
Y310015D01*
Y310167D01*
Y310319D01*
Y310471D01*
Y310623D01*
Y310775D01*
Y310927D01*
Y311080D01*
Y311232D01*
Y311384D01*
Y311536D01*
Y311688D01*
Y311840D01*
Y311992D01*
Y312144D01*
Y312296D01*
Y312448D01*
Y312600D01*
Y312753D01*
Y312905D01*
Y313057D01*
Y313209D01*
Y313361D01*
Y313513D01*
Y313665D01*
Y313817D01*
Y313969D01*
Y314122D01*
Y314274D01*
Y314426D01*
Y314578D01*
Y314730D01*
Y314882D01*
Y315034D01*
Y315186D01*
Y315338D01*
Y315490D01*
Y315642D01*
Y315794D01*
Y315947D01*
Y316099D01*
Y316251D01*
Y316403D01*
Y316555D01*
Y316707D01*
Y316859D01*
Y317011D01*
Y317163D01*
Y317316D01*
Y317468D01*
Y317620D01*
Y317772D01*
Y317924D01*
Y318076D01*
Y318228D01*
Y318380D01*
Y318532D01*
Y318684D01*
Y318836D01*
Y318989D01*
Y319141D01*
Y319293D01*
Y319445D01*
Y319597D01*
Y319749D01*
Y319901D01*
Y320053D01*
Y320205D01*
Y320357D01*
Y320510D01*
Y320662D01*
Y320814D01*
Y320966D01*
Y321118D01*
Y321270D01*
Y321422D01*
Y321574D01*
Y321726D01*
Y321879D01*
Y322031D01*
Y322183D01*
Y322335D01*
Y322487D01*
Y322639D01*
Y322791D01*
Y322943D01*
Y323095D01*
Y323247D01*
Y323399D01*
Y323552D01*
Y323704D01*
Y323856D01*
Y324008D01*
Y324160D01*
Y324312D01*
Y324464D01*
Y324616D01*
Y324768D01*
X230444D01*
Y324921D01*
Y325073D01*
X230292D01*
Y325225D01*
X230140D01*
Y325377D01*
Y325529D01*
X229988D01*
Y325681D01*
X229836D01*
Y325833D01*
X229683D01*
Y325985D01*
Y326137D01*
X229531D01*
Y326289D01*
X229379D01*
Y326442D01*
Y326594D01*
X229227D01*
Y326746D01*
X229075D01*
Y326898D01*
Y327050D01*
X228923D01*
Y327202D01*
X228771D01*
Y327354D01*
X228619D01*
Y327506D01*
Y327658D01*
X228467D01*
Y327810D01*
X228315D01*
Y327962D01*
Y328115D01*
X228163D01*
Y328267D01*
X228010D01*
Y328419D01*
Y328571D01*
X227858D01*
Y328723D01*
X227706D01*
Y328875D01*
Y329027D01*
X227554D01*
Y329179D01*
X227402D01*
Y329331D01*
X227250D01*
Y329484D01*
Y329636D01*
X227098D01*
Y329788D01*
X226946D01*
Y329940D01*
Y330092D01*
X226794D01*
Y330244D01*
X226642D01*
Y330396D01*
Y330548D01*
X226489D01*
Y330700D01*
X226337D01*
Y330852D01*
X226185D01*
Y331004D01*
Y331157D01*
X226033D01*
Y331309D01*
X225881D01*
Y331461D01*
Y331613D01*
X225729D01*
Y331765D01*
X225577D01*
Y331917D01*
Y332069D01*
X225425D01*
Y332221D01*
X225273D01*
Y332373D01*
Y332525D01*
X225120D01*
Y332678D01*
X224968D01*
Y332830D01*
X224816D01*
Y332982D01*
Y333134D01*
X224664D01*
Y333286D01*
X224512D01*
Y333438D01*
Y333590D01*
X224360D01*
Y333742D01*
X224208D01*
Y333894D01*
Y334046D01*
X224056D01*
Y334198D01*
X223904D01*
Y334351D01*
X223752D01*
Y334503D01*
Y334655D01*
X223600D01*
Y334807D01*
X223447D01*
Y334959D01*
Y335111D01*
X223295D01*
Y335263D01*
X223143D01*
Y335415D01*
Y335567D01*
X222991D01*
Y335719D01*
X222839D01*
Y335872D01*
X222687D01*
Y336024D01*
Y336176D01*
X222535D01*
Y336328D01*
X222383D01*
Y336480D01*
Y336632D01*
X222231D01*
Y336784D01*
X222078D01*
Y336936D01*
Y337088D01*
X221926D01*
Y337241D01*
X221774D01*
Y337393D01*
X221622D01*
Y337545D01*
Y337697D01*
X221470D01*
Y337849D01*
X221318D01*
Y338001D01*
Y338153D01*
X221166D01*
Y338305D01*
X221014D01*
Y338457D01*
Y338609D01*
X220862D01*
Y338761D01*
X220710D01*
Y338914D01*
Y339066D01*
X220557D01*
Y339218D01*
X220405D01*
Y339370D01*
X220253D01*
Y339522D01*
Y339674D01*
X220101D01*
Y339826D01*
X219949D01*
Y339978D01*
Y340130D01*
X219797D01*
Y340283D01*
X219645D01*
Y340435D01*
Y340587D01*
X219493D01*
Y340739D01*
X219341D01*
Y340891D01*
Y341043D01*
X219189D01*
Y341195D01*
X219037D01*
Y341347D01*
X218884D01*
Y341499D01*
Y341651D01*
X218732D01*
Y341804D01*
X218580D01*
Y341956D01*
Y342108D01*
X218428D01*
Y342260D01*
X218276D01*
Y342412D01*
Y342564D01*
X218124D01*
Y342716D01*
X217972D01*
Y342868D01*
X217820D01*
Y343020D01*
Y343172D01*
X217668D01*
Y343324D01*
X217515D01*
Y343477D01*
Y343629D01*
X217363D01*
Y343781D01*
X217211D01*
Y343933D01*
Y344085D01*
X217059D01*
Y344237D01*
X216907D01*
Y344389D01*
Y344541D01*
X216755D01*
Y344693D01*
X216603D01*
Y344846D01*
X222535D01*
Y344693D01*
X222687D01*
Y344541D01*
X222839D01*
Y344389D01*
X222991D01*
Y344237D01*
Y344085D01*
X223143D01*
Y343933D01*
X223295D01*
Y343781D01*
Y343629D01*
X223447D01*
Y343477D01*
X223600D01*
Y343324D01*
Y343172D01*
X223752D01*
Y343020D01*
X223904D01*
Y342868D01*
X224056D01*
Y342716D01*
Y342564D01*
X224208D01*
Y342412D01*
X224360D01*
Y342260D01*
Y342108D01*
X224512D01*
Y341956D01*
X224664D01*
Y341804D01*
Y341651D01*
X224816D01*
Y341499D01*
X224968D01*
Y341347D01*
Y341195D01*
X225120D01*
Y341043D01*
X225273D01*
Y340891D01*
X225425D01*
Y340739D01*
Y340587D01*
X225577D01*
Y340435D01*
X225729D01*
Y340283D01*
Y340130D01*
X225881D01*
Y339978D01*
X226033D01*
Y339826D01*
Y339674D01*
X226185D01*
Y339522D01*
X226337D01*
Y339370D01*
X226489D01*
Y339218D01*
Y339066D01*
X226642D01*
Y338914D01*
X226794D01*
Y338761D01*
Y338609D01*
X226946D01*
Y338457D01*
X227098D01*
Y338305D01*
Y338153D01*
X227250D01*
Y338001D01*
X227402D01*
Y337849D01*
Y337697D01*
X227554D01*
Y337545D01*
X227706D01*
Y337393D01*
X227858D01*
Y337241D01*
Y337088D01*
X228010D01*
Y336936D01*
X228163D01*
Y336784D01*
Y336632D01*
X228315D01*
Y336480D01*
X228467D01*
Y336328D01*
Y336176D01*
X228619D01*
Y336024D01*
X228771D01*
Y335872D01*
X228923D01*
Y335719D01*
Y335567D01*
X229075D01*
Y335415D01*
X229227D01*
Y335263D01*
Y335111D01*
X229379D01*
Y334959D01*
X229531D01*
Y334807D01*
Y334655D01*
X229683D01*
Y334503D01*
X229836D01*
Y334351D01*
X229988D01*
Y334198D01*
Y334046D01*
X230140D01*
Y333894D01*
X230292D01*
Y333742D01*
Y333590D01*
X230444D01*
Y333438D01*
X230596D01*
Y333286D01*
Y333134D01*
X230748D01*
Y332982D01*
X230900D01*
Y332830D01*
Y332678D01*
X231052D01*
Y332525D01*
X231204D01*
Y332373D01*
X231357D01*
Y332221D01*
Y332069D01*
X231509D01*
Y331917D01*
X231661D01*
Y331765D01*
Y331613D01*
X231813D01*
Y331461D01*
X231965D01*
Y331309D01*
Y331157D01*
X232117D01*
Y331004D01*
X232269D01*
Y330852D01*
X232421D01*
Y330700D01*
Y330548D01*
X232573D01*
Y330396D01*
X232725D01*
Y330244D01*
Y330092D01*
X232877D01*
Y329940D01*
X233030D01*
Y329788D01*
Y329636D01*
X233182D01*
Y329484D01*
X233334D01*
Y329331D01*
X233638D01*
Y329484D01*
Y329636D01*
X233790D01*
Y329788D01*
X233942D01*
Y329940D01*
Y330092D01*
X234094D01*
Y330244D01*
X234246D01*
Y330396D01*
Y330548D01*
X234399D01*
Y330700D01*
X234551D01*
Y330852D01*
X234703D01*
Y331004D01*
Y331157D01*
X234855D01*
Y331309D01*
X235007D01*
Y331461D01*
Y331613D01*
X235159D01*
Y331765D01*
X235311D01*
Y331917D01*
Y332069D01*
X235463D01*
Y332221D01*
X235615D01*
Y332373D01*
X235767D01*
Y332525D01*
Y332678D01*
X235919D01*
Y332830D01*
X236072D01*
Y332982D01*
Y333134D01*
X236224D01*
Y333286D01*
X236376D01*
Y333438D01*
Y333590D01*
X236528D01*
Y333742D01*
X236680D01*
Y333894D01*
X236832D01*
Y334046D01*
Y334198D01*
X236984D01*
Y334351D01*
X237136D01*
Y334503D01*
Y334655D01*
X237288D01*
Y334807D01*
X237440D01*
Y334959D01*
Y335111D01*
X237593D01*
Y335263D01*
X237745D01*
Y335415D01*
Y335567D01*
X237897D01*
Y335719D01*
X238049D01*
Y335872D01*
X238201D01*
Y336024D01*
Y336176D01*
X238353D01*
Y336328D01*
X238505D01*
Y336480D01*
Y336632D01*
X238657D01*
Y336784D01*
X238809D01*
Y336936D01*
Y337088D01*
X238962D01*
Y337241D01*
X239114D01*
Y337393D01*
X239266D01*
Y337545D01*
Y337697D01*
X239418D01*
Y337849D01*
X239570D01*
Y338001D01*
Y338153D01*
X239722D01*
Y338305D01*
X239874D01*
Y338457D01*
Y338609D01*
X240026D01*
Y338761D01*
X240178D01*
Y338914D01*
Y339066D01*
X240330D01*
Y339218D01*
X240482D01*
Y339370D01*
X240635D01*
Y339522D01*
Y339674D01*
X240787D01*
Y339826D01*
X240939D01*
Y339978D01*
Y340130D01*
X241091D01*
Y340283D01*
X241243D01*
Y340435D01*
Y340587D01*
X241395D01*
Y340739D01*
X241547D01*
Y340891D01*
X241699D01*
Y341043D01*
Y341195D01*
X241851D01*
Y341347D01*
X242003D01*
Y341499D01*
Y341651D01*
X242156D01*
Y341804D01*
X242308D01*
Y341956D01*
Y342108D01*
X242460D01*
Y342260D01*
X242612D01*
Y342412D01*
Y342564D01*
X242764D01*
Y342716D01*
X242916D01*
Y342868D01*
X243068D01*
Y343020D01*
Y343172D01*
X243220D01*
Y343324D01*
X243372D01*
Y343477D01*
Y343629D01*
X243525D01*
Y343781D01*
X243677D01*
Y343933D01*
Y344085D01*
X243829D01*
Y344237D01*
X243981D01*
Y344389D01*
X244133D01*
Y344541D01*
Y344693D01*
X244285D01*
Y344846D01*
X250217D01*
Y344693D01*
D02*
G37*
G36*
X284287D02*
Y344541D01*
X284135D01*
Y344389D01*
X283983D01*
Y344237D01*
X283831D01*
Y344085D01*
X283679D01*
Y343933D01*
Y343781D01*
X283526D01*
Y343629D01*
X283374D01*
Y343477D01*
X283222D01*
Y343324D01*
Y343172D01*
X283070D01*
Y343020D01*
X282918D01*
Y342868D01*
X282766D01*
Y342716D01*
Y342564D01*
X282614D01*
Y342412D01*
X282462D01*
Y342260D01*
X282310D01*
Y342108D01*
X282158D01*
Y341956D01*
Y341804D01*
X282006D01*
Y341651D01*
X281853D01*
Y341499D01*
X281701D01*
Y341347D01*
X281549D01*
Y341195D01*
Y341043D01*
X281397D01*
Y340891D01*
X281245D01*
Y340739D01*
X281093D01*
Y340587D01*
X280941D01*
Y340435D01*
X280789D01*
Y340283D01*
Y340130D01*
X280637D01*
Y339978D01*
X280485D01*
Y339826D01*
X280332D01*
Y339674D01*
X280180D01*
Y339522D01*
Y339370D01*
X280028D01*
Y339218D01*
X268164D01*
Y339066D01*
X267404D01*
Y338914D01*
X266948D01*
Y338761D01*
X266644D01*
Y338609D01*
X266339D01*
Y338457D01*
X266035D01*
Y338305D01*
X265883D01*
Y338153D01*
X265579D01*
Y338001D01*
X265427D01*
Y337849D01*
X265275D01*
Y337697D01*
X265123D01*
Y337545D01*
X264970D01*
Y337393D01*
Y337241D01*
X264818D01*
Y337088D01*
X264666D01*
Y336936D01*
X264514D01*
Y336784D01*
Y336632D01*
X264362D01*
Y336480D01*
Y336328D01*
X264210D01*
Y336176D01*
Y336024D01*
Y335872D01*
X264058D01*
Y335719D01*
Y335567D01*
Y335415D01*
X263906D01*
Y335263D01*
Y335111D01*
Y334959D01*
Y334807D01*
Y334655D01*
Y334503D01*
Y334351D01*
Y334198D01*
Y334046D01*
Y333894D01*
Y333742D01*
Y333590D01*
Y333438D01*
Y333286D01*
X264058D01*
Y333134D01*
Y332982D01*
Y332830D01*
Y332678D01*
X264210D01*
Y332525D01*
Y332373D01*
X264362D01*
Y332221D01*
Y332069D01*
X264514D01*
Y331917D01*
Y331765D01*
X264666D01*
Y331613D01*
X264818D01*
Y331461D01*
Y331309D01*
X264970D01*
Y331157D01*
X265123D01*
Y331004D01*
X265275D01*
Y330852D01*
X265427D01*
Y330700D01*
X265579D01*
Y330548D01*
X265883D01*
Y330396D01*
X266035D01*
Y330244D01*
X266339D01*
Y330092D01*
X266491D01*
Y329940D01*
X266948D01*
Y329788D01*
X267404D01*
Y329636D01*
X268012D01*
Y329484D01*
X271206D01*
Y329331D01*
X271054D01*
Y329179D01*
X270902D01*
Y329027D01*
X270750D01*
Y328875D01*
Y328723D01*
X270598D01*
Y328571D01*
X270446D01*
Y328419D01*
X270294D01*
Y328267D01*
X270142D01*
Y328115D01*
X269990D01*
Y327962D01*
X269838D01*
Y327810D01*
X269686D01*
Y327658D01*
X269533D01*
Y327506D01*
X269381D01*
Y327354D01*
X269229D01*
Y327202D01*
X269077D01*
Y327050D01*
X268925D01*
Y326898D01*
X268773D01*
Y326746D01*
X268621D01*
Y326594D01*
X268469D01*
Y326442D01*
X268317D01*
Y326289D01*
X268164D01*
Y326137D01*
X268012D01*
Y325985D01*
X267860D01*
Y325833D01*
X267708D01*
Y325681D01*
X267556D01*
Y325529D01*
X267404D01*
Y325377D01*
Y325225D01*
X267252D01*
Y325073D01*
X267100D01*
Y324921D01*
X266948D01*
Y324768D01*
X266796D01*
Y324616D01*
X266644D01*
Y324464D01*
X266491D01*
Y324312D01*
X266339D01*
Y324160D01*
X266035D01*
Y324312D01*
X265579D01*
Y324464D01*
X265123D01*
Y324616D01*
X264666D01*
Y324768D01*
X264362D01*
Y324921D01*
X264058D01*
Y325073D01*
X263754D01*
Y325225D01*
X263449D01*
Y325377D01*
X263145D01*
Y325529D01*
X262993D01*
Y325681D01*
X262689D01*
Y325833D01*
X262537D01*
Y325985D01*
X262385D01*
Y326137D01*
X262081D01*
Y326289D01*
X261928D01*
Y326442D01*
X261776D01*
Y326594D01*
X261624D01*
Y326746D01*
X261472D01*
Y326898D01*
X261320D01*
Y327050D01*
X261168D01*
Y327202D01*
X261016D01*
Y327354D01*
X260864D01*
Y327506D01*
X260712D01*
Y327658D01*
X260560D01*
Y327810D01*
X260407D01*
Y327962D01*
Y328115D01*
X260255D01*
Y328267D01*
X260103D01*
Y328419D01*
X259951D01*
Y328571D01*
Y328723D01*
X259799D01*
Y328875D01*
Y329027D01*
X259647D01*
Y329179D01*
X259495D01*
Y329331D01*
Y329484D01*
X259343D01*
Y329636D01*
Y329788D01*
X259191D01*
Y329940D01*
Y330092D01*
X259038D01*
Y330244D01*
Y330396D01*
Y330548D01*
X258886D01*
Y330700D01*
Y330852D01*
Y331004D01*
X258734D01*
Y331157D01*
Y331309D01*
Y331461D01*
X258582D01*
Y331613D01*
Y331765D01*
Y331917D01*
Y332069D01*
X258430D01*
Y332221D01*
Y332373D01*
Y332525D01*
Y332678D01*
Y332830D01*
X258278D01*
Y332982D01*
Y333134D01*
Y333286D01*
Y333438D01*
Y333590D01*
Y333742D01*
Y333894D01*
Y334046D01*
Y334198D01*
Y334351D01*
Y334503D01*
Y334655D01*
Y334807D01*
Y334959D01*
Y335111D01*
Y335263D01*
Y335415D01*
Y335567D01*
Y335719D01*
Y335872D01*
X258430D01*
Y336024D01*
Y336176D01*
Y336328D01*
Y336480D01*
Y336632D01*
X258582D01*
Y336784D01*
Y336936D01*
Y337088D01*
Y337241D01*
X258734D01*
Y337393D01*
Y337545D01*
Y337697D01*
X258886D01*
Y337849D01*
Y338001D01*
Y338153D01*
X259038D01*
Y338305D01*
Y338457D01*
X259191D01*
Y338609D01*
Y338761D01*
Y338914D01*
X259343D01*
Y339066D01*
Y339218D01*
X259495D01*
Y339370D01*
Y339522D01*
X259647D01*
Y339674D01*
X259799D01*
Y339826D01*
Y339978D01*
X259951D01*
Y340130D01*
X260103D01*
Y340283D01*
Y340435D01*
X260255D01*
Y340587D01*
X260407D01*
Y340739D01*
Y340891D01*
X260560D01*
Y341043D01*
X260712D01*
Y341195D01*
X260864D01*
Y341347D01*
X261016D01*
Y341499D01*
X261168D01*
Y341651D01*
X261320D01*
Y341804D01*
X261472D01*
Y341956D01*
X261624D01*
Y342108D01*
X261776D01*
Y342260D01*
X261928D01*
Y342412D01*
X262081D01*
Y342564D01*
X262385D01*
Y342716D01*
X262537D01*
Y342868D01*
X262689D01*
Y343020D01*
X262993D01*
Y343172D01*
X263145D01*
Y343324D01*
X263449D01*
Y343477D01*
X263754D01*
Y343629D01*
X264058D01*
Y343781D01*
X264362D01*
Y343933D01*
X264666D01*
Y344085D01*
X265123D01*
Y344237D01*
X265579D01*
Y344389D01*
X266035D01*
Y344541D01*
X266796D01*
Y344693D01*
X268164D01*
Y344846D01*
X284287D01*
Y344693D01*
D02*
G37*
G36*
X301322D02*
X302691D01*
Y344541D01*
X303451D01*
Y344389D01*
X303908D01*
Y344237D01*
X304364D01*
Y344085D01*
X304820D01*
Y343933D01*
X305124D01*
Y343781D01*
X305429D01*
Y343629D01*
X305733D01*
Y343477D01*
X306037D01*
Y343324D01*
X306341D01*
Y343172D01*
X306493D01*
Y343020D01*
X306798D01*
Y342868D01*
X306950D01*
Y342716D01*
X307254D01*
Y342564D01*
X307406D01*
Y342412D01*
X307558D01*
Y342260D01*
X307710D01*
Y342108D01*
X307862D01*
Y341956D01*
X308014D01*
Y341804D01*
X308167D01*
Y341651D01*
X308319D01*
Y341499D01*
X308471D01*
Y341347D01*
X308623D01*
Y341195D01*
X308775D01*
Y341043D01*
X308927D01*
Y340891D01*
X309079D01*
Y340739D01*
Y340587D01*
X309231D01*
Y340435D01*
X309383D01*
Y340283D01*
X309535D01*
Y340130D01*
Y339978D01*
X309687D01*
Y339826D01*
Y339674D01*
X309840D01*
Y339522D01*
X309992D01*
Y339370D01*
Y339218D01*
X310144D01*
Y339066D01*
Y338914D01*
X310296D01*
Y338761D01*
Y338609D01*
X310448D01*
Y338457D01*
Y338305D01*
Y338153D01*
X310600D01*
Y338001D01*
Y337849D01*
X310752D01*
Y337697D01*
Y337545D01*
Y337393D01*
X310904D01*
Y337241D01*
Y337088D01*
Y336936D01*
Y336784D01*
X311056D01*
Y336632D01*
Y336480D01*
Y336328D01*
Y336176D01*
Y336024D01*
X311209D01*
Y335872D01*
Y335719D01*
Y335567D01*
Y335415D01*
Y335263D01*
Y335111D01*
Y334959D01*
Y334807D01*
Y334655D01*
Y334503D01*
X311361D01*
Y334351D01*
Y334198D01*
Y334046D01*
X311209D01*
Y333894D01*
Y333742D01*
Y333590D01*
Y333438D01*
Y333286D01*
Y333134D01*
Y332982D01*
Y332830D01*
Y332678D01*
X311056D01*
Y332525D01*
Y332373D01*
Y332221D01*
Y332069D01*
Y331917D01*
X310904D01*
Y331765D01*
Y331613D01*
Y331461D01*
Y331309D01*
X310752D01*
Y331157D01*
Y331004D01*
Y330852D01*
X310600D01*
Y330700D01*
Y330548D01*
X310448D01*
Y330396D01*
Y330244D01*
Y330092D01*
X310296D01*
Y329940D01*
Y329788D01*
X310144D01*
Y329636D01*
Y329484D01*
X309992D01*
Y329331D01*
Y329179D01*
X309840D01*
Y329027D01*
Y328875D01*
X309687D01*
Y328723D01*
X309535D01*
Y328571D01*
Y328419D01*
X309383D01*
Y328267D01*
X309231D01*
Y328115D01*
Y327962D01*
X309079D01*
Y327810D01*
X308927D01*
Y327658D01*
X308775D01*
Y327506D01*
X308623D01*
Y327354D01*
X308471D01*
Y327202D01*
X308319D01*
Y327050D01*
X308167D01*
Y326898D01*
X308014D01*
Y326746D01*
X307862D01*
Y326594D01*
X307710D01*
Y326442D01*
X307558D01*
Y326289D01*
X307406D01*
Y326137D01*
X307254D01*
Y325985D01*
X306950D01*
Y325833D01*
X306798D01*
Y325681D01*
X306493D01*
Y325529D01*
X306341D01*
Y325377D01*
X306037D01*
Y325225D01*
X305733D01*
Y325073D01*
X305429D01*
Y324921D01*
X305124D01*
Y324768D01*
X304820D01*
Y324616D01*
X304516D01*
Y324464D01*
X304060D01*
Y324312D01*
X303451D01*
Y324160D01*
X302843D01*
Y324008D01*
X301626D01*
Y323856D01*
X292652D01*
Y323704D01*
Y323552D01*
Y323399D01*
Y323247D01*
Y323095D01*
Y322943D01*
Y322791D01*
Y322639D01*
Y322487D01*
Y322335D01*
Y322183D01*
Y322031D01*
Y321879D01*
Y321726D01*
Y321574D01*
Y321422D01*
Y321270D01*
Y321118D01*
Y320966D01*
Y320814D01*
Y320662D01*
Y320510D01*
Y320357D01*
Y320205D01*
Y320053D01*
Y319901D01*
Y319749D01*
Y319597D01*
Y319445D01*
Y319293D01*
Y319141D01*
Y318989D01*
Y318836D01*
Y318684D01*
Y318532D01*
Y318380D01*
Y318228D01*
Y318076D01*
Y317924D01*
Y317772D01*
Y317620D01*
Y317468D01*
Y317316D01*
Y317163D01*
Y317011D01*
X292805D01*
Y316859D01*
X292652D01*
Y316707D01*
X292500D01*
Y316555D01*
Y316403D01*
X292348D01*
Y316251D01*
X292196D01*
Y316099D01*
Y315947D01*
X292044D01*
Y315794D01*
X291892D01*
Y315642D01*
Y315490D01*
X291740D01*
Y315338D01*
X291588D01*
Y315186D01*
Y315034D01*
X291436D01*
Y314882D01*
X291283D01*
Y314730D01*
X291131D01*
Y314578D01*
Y314426D01*
X290979D01*
Y314274D01*
X290827D01*
Y314122D01*
Y313969D01*
X290675D01*
Y313817D01*
X290523D01*
Y313665D01*
Y313513D01*
X290371D01*
Y313361D01*
X290219D01*
Y313209D01*
X290067D01*
Y313057D01*
Y312905D01*
X289915D01*
Y312753D01*
X289762D01*
Y312600D01*
Y312448D01*
X289610D01*
Y312296D01*
X289458D01*
Y312144D01*
Y311992D01*
X289306D01*
Y311840D01*
X289154D01*
Y311688D01*
X289002D01*
Y311536D01*
Y311384D01*
X288850D01*
Y311232D01*
X288698D01*
Y311080D01*
Y310927D01*
X288546D01*
Y310775D01*
X288394D01*
Y310623D01*
Y310471D01*
X288242D01*
Y310319D01*
X288089D01*
Y310167D01*
Y310015D01*
X287937D01*
Y309863D01*
X287785D01*
Y309711D01*
X287633D01*
Y309559D01*
Y309406D01*
X287481D01*
Y309254D01*
X287329D01*
Y309102D01*
Y308950D01*
X287177D01*
Y309102D01*
Y309254D01*
Y309406D01*
Y309559D01*
Y309711D01*
Y309863D01*
Y310015D01*
Y310167D01*
Y310319D01*
Y310471D01*
Y310623D01*
Y310775D01*
Y310927D01*
Y311080D01*
Y311232D01*
Y311384D01*
Y311536D01*
Y311688D01*
Y311840D01*
Y311992D01*
Y312144D01*
Y312296D01*
Y312448D01*
Y312600D01*
Y312753D01*
Y312905D01*
Y313057D01*
Y313209D01*
Y313361D01*
Y313513D01*
Y313665D01*
Y313817D01*
Y313969D01*
Y314122D01*
Y314274D01*
Y314426D01*
Y314578D01*
Y314730D01*
Y314882D01*
Y315034D01*
Y315186D01*
Y315338D01*
Y315490D01*
Y315642D01*
Y315794D01*
Y315947D01*
Y316099D01*
Y316251D01*
Y316403D01*
Y316555D01*
Y316707D01*
Y316859D01*
Y317011D01*
Y317163D01*
Y317316D01*
Y317468D01*
Y317620D01*
Y317772D01*
Y317924D01*
Y318076D01*
Y318228D01*
Y318380D01*
Y318532D01*
Y318684D01*
Y318836D01*
Y318989D01*
Y319141D01*
Y319293D01*
Y319445D01*
Y319597D01*
Y319749D01*
Y319901D01*
Y320053D01*
Y320205D01*
Y320357D01*
Y320510D01*
Y320662D01*
Y320814D01*
Y320966D01*
Y321118D01*
Y321270D01*
Y321422D01*
Y321574D01*
Y321726D01*
Y321879D01*
Y322031D01*
Y322183D01*
Y322335D01*
Y322487D01*
Y322639D01*
Y322791D01*
Y322943D01*
Y323095D01*
Y323247D01*
Y323399D01*
Y323552D01*
Y323704D01*
Y323856D01*
Y324008D01*
Y324160D01*
Y324312D01*
Y324464D01*
Y324616D01*
Y324768D01*
Y324921D01*
Y325073D01*
Y325225D01*
Y325377D01*
Y325529D01*
Y325681D01*
Y325833D01*
Y325985D01*
Y326137D01*
Y326289D01*
Y326442D01*
Y326594D01*
Y326746D01*
Y326898D01*
Y327050D01*
Y327202D01*
Y327354D01*
Y327506D01*
Y327658D01*
Y327810D01*
Y327962D01*
Y328115D01*
Y328267D01*
Y328419D01*
Y328571D01*
Y328723D01*
Y328875D01*
Y329027D01*
Y329179D01*
Y329331D01*
X287025D01*
Y329484D01*
X301474D01*
Y329636D01*
X302235D01*
Y329788D01*
X302691D01*
Y329940D01*
X302995D01*
Y330092D01*
X303299D01*
Y330244D01*
X303451D01*
Y330396D01*
X303756D01*
Y330548D01*
X303908D01*
Y330700D01*
X304060D01*
Y330852D01*
X304212D01*
Y331004D01*
X304364D01*
Y331157D01*
X304516D01*
Y331309D01*
X304668D01*
Y331461D01*
X304820D01*
Y331613D01*
Y331765D01*
X304972D01*
Y331917D01*
Y332069D01*
X305124D01*
Y332221D01*
Y332373D01*
X305277D01*
Y332525D01*
Y332678D01*
X305429D01*
Y332830D01*
Y332982D01*
Y333134D01*
X305581D01*
Y333286D01*
Y333438D01*
Y333590D01*
Y333742D01*
Y333894D01*
Y334046D01*
Y334198D01*
Y334351D01*
Y334503D01*
Y334655D01*
Y334807D01*
Y334959D01*
Y335111D01*
Y335263D01*
Y335415D01*
Y335567D01*
X305429D01*
Y335719D01*
Y335872D01*
Y336024D01*
X305277D01*
Y336176D01*
Y336328D01*
X305124D01*
Y336480D01*
Y336632D01*
X304972D01*
Y336784D01*
Y336936D01*
X304820D01*
Y337088D01*
X304668D01*
Y337241D01*
Y337393D01*
X304516D01*
Y337545D01*
X304364D01*
Y337697D01*
X304212D01*
Y337849D01*
X304060D01*
Y338001D01*
X303908D01*
Y338153D01*
X303604D01*
Y338305D01*
X303451D01*
Y338457D01*
X303147D01*
Y338609D01*
X302843D01*
Y338761D01*
X302539D01*
Y338914D01*
X302083D01*
Y339066D01*
X301322D01*
Y339218D01*
X287177D01*
Y339370D01*
X287329D01*
Y339522D01*
X287481D01*
Y339674D01*
X287633D01*
Y339826D01*
Y339978D01*
X287785D01*
Y340130D01*
X287937D01*
Y340283D01*
Y340435D01*
X288089D01*
Y340587D01*
X288242D01*
Y340739D01*
X288394D01*
Y340891D01*
Y341043D01*
X288546D01*
Y341195D01*
X288698D01*
Y341347D01*
Y341499D01*
X288850D01*
Y341651D01*
X289002D01*
Y341804D01*
Y341956D01*
X289154D01*
Y342108D01*
X289306D01*
Y342260D01*
Y342412D01*
X289458D01*
Y342564D01*
X289610D01*
Y342716D01*
X289762D01*
Y342868D01*
Y343020D01*
X289915D01*
Y343172D01*
X290067D01*
Y343324D01*
Y343477D01*
X290219D01*
Y343629D01*
X290371D01*
Y343781D01*
Y343933D01*
X290523D01*
Y344085D01*
X290675D01*
Y344237D01*
X290827D01*
Y344389D01*
Y344541D01*
X290979D01*
Y344693D01*
X291131D01*
Y344846D01*
X301322D01*
Y344693D01*
D02*
G37*
G36*
X278203Y327506D02*
X278355D01*
Y327354D01*
X278507D01*
Y327202D01*
X278811D01*
Y327050D01*
X278963D01*
Y326898D01*
X279116D01*
Y326746D01*
X279268D01*
Y326594D01*
X279420D01*
Y326442D01*
X279572D01*
Y326289D01*
X279724D01*
Y326137D01*
X279876D01*
Y325985D01*
X280028D01*
Y325833D01*
X280180D01*
Y325681D01*
X280332D01*
Y325529D01*
Y325377D01*
X280485D01*
Y325225D01*
X280637D01*
Y325073D01*
X280789D01*
Y324921D01*
Y324768D01*
X280941D01*
Y324616D01*
Y324464D01*
X281093D01*
Y324312D01*
X281245D01*
Y324160D01*
Y324008D01*
X281397D01*
Y323856D01*
Y323704D01*
X281549D01*
Y323552D01*
Y323399D01*
X281701D01*
Y323247D01*
Y323095D01*
Y322943D01*
X281853D01*
Y322791D01*
Y322639D01*
X282006D01*
Y322487D01*
Y322335D01*
Y322183D01*
X282158D01*
Y322031D01*
Y321879D01*
Y321726D01*
Y321574D01*
X282310D01*
Y321422D01*
Y321270D01*
Y321118D01*
Y320966D01*
Y320814D01*
X282462D01*
Y320662D01*
Y320510D01*
Y320357D01*
Y320205D01*
Y320053D01*
Y319901D01*
Y319749D01*
Y319597D01*
Y319445D01*
Y319293D01*
Y319141D01*
X282614D01*
Y318989D01*
X282462D01*
Y318836D01*
Y318684D01*
Y318532D01*
Y318380D01*
Y318228D01*
Y318076D01*
Y317924D01*
Y317772D01*
Y317620D01*
Y317468D01*
Y317316D01*
X282310D01*
Y317163D01*
Y317011D01*
Y316859D01*
Y316707D01*
Y316555D01*
X282158D01*
Y316403D01*
Y316251D01*
Y316099D01*
Y315947D01*
X282006D01*
Y315794D01*
Y315642D01*
Y315490D01*
X281853D01*
Y315338D01*
Y315186D01*
X281701D01*
Y315034D01*
Y314882D01*
Y314730D01*
X281549D01*
Y314578D01*
Y314426D01*
X281397D01*
Y314274D01*
Y314122D01*
X281245D01*
Y313969D01*
Y313817D01*
X281093D01*
Y313665D01*
X280941D01*
Y313513D01*
Y313361D01*
X280789D01*
Y313209D01*
X280637D01*
Y313057D01*
Y312905D01*
X280485D01*
Y312753D01*
X280332D01*
Y312600D01*
X280180D01*
Y312448D01*
Y312296D01*
X280028D01*
Y312144D01*
X279876D01*
Y311992D01*
X279724D01*
Y311840D01*
X279572D01*
Y311688D01*
X279420D01*
Y311536D01*
X279268D01*
Y311384D01*
X279116D01*
Y311232D01*
X278963D01*
Y311080D01*
X278811D01*
Y310927D01*
X278507D01*
Y310775D01*
X278355D01*
Y310623D01*
X278203D01*
Y310471D01*
X277899D01*
Y310319D01*
X277747D01*
Y310167D01*
X277443D01*
Y310015D01*
X277138D01*
Y309863D01*
X276834D01*
Y309711D01*
X276530D01*
Y309559D01*
X276226D01*
Y309406D01*
X275922D01*
Y309254D01*
X275465D01*
Y309102D01*
X275009D01*
Y308950D01*
X274400D01*
Y308798D01*
X273488D01*
Y308646D01*
X259191D01*
Y308798D01*
X259343D01*
Y308950D01*
X259495D01*
Y309102D01*
X259647D01*
Y309254D01*
X259799D01*
Y309406D01*
X259951D01*
Y309559D01*
X260255D01*
Y309711D01*
X260407D01*
Y309863D01*
X260560D01*
Y310015D01*
X260712D01*
Y310167D01*
X260864D01*
Y310319D01*
X261016D01*
Y310471D01*
X261168D01*
Y310623D01*
X261320D01*
Y310775D01*
X261624D01*
Y310927D01*
X261776D01*
Y311080D01*
X261928D01*
Y311232D01*
X262081D01*
Y311384D01*
X262233D01*
Y311536D01*
X262385D01*
Y311688D01*
X262537D01*
Y311840D01*
X262689D01*
Y311992D01*
X262993D01*
Y312144D01*
Y312296D01*
X263297D01*
Y312448D01*
X263449D01*
Y312600D01*
X263601D01*
Y312753D01*
X263754D01*
Y312905D01*
X263906D01*
Y313057D01*
X264058D01*
Y313209D01*
X264210D01*
Y313361D01*
X264362D01*
Y313513D01*
X264514D01*
Y313665D01*
X264666D01*
Y313817D01*
X264818D01*
Y313969D01*
X264970D01*
Y314122D01*
X265275D01*
Y314274D01*
X273032D01*
Y314426D01*
X273640D01*
Y314578D01*
X274096D01*
Y314730D01*
X274400D01*
Y314882D01*
X274553D01*
Y315034D01*
X274857D01*
Y315186D01*
X275009D01*
Y315338D01*
X275161D01*
Y315490D01*
X275465D01*
Y315642D01*
X275617D01*
Y315794D01*
Y315947D01*
X275769D01*
Y316099D01*
X275922D01*
Y316251D01*
X276074D01*
Y316403D01*
X276226D01*
Y316555D01*
Y316707D01*
X276378D01*
Y316859D01*
Y317011D01*
X276530D01*
Y317163D01*
Y317316D01*
X276682D01*
Y317468D01*
Y317620D01*
Y317772D01*
X276834D01*
Y317924D01*
Y318076D01*
Y318228D01*
Y318380D01*
Y318532D01*
Y318684D01*
X276986D01*
Y318836D01*
Y318989D01*
Y319141D01*
Y319293D01*
Y319445D01*
Y319597D01*
X276834D01*
Y319749D01*
Y319901D01*
Y320053D01*
Y320205D01*
Y320357D01*
X276682D01*
Y320510D01*
Y320662D01*
Y320814D01*
X276530D01*
Y320966D01*
Y321118D01*
X276378D01*
Y321270D01*
Y321422D01*
X276226D01*
Y321574D01*
Y321726D01*
X276074D01*
Y321879D01*
X275922D01*
Y322031D01*
X275769D01*
Y322183D01*
Y322335D01*
X275617D01*
Y322487D01*
X275465D01*
Y322639D01*
X275313D01*
Y322791D01*
X275009D01*
Y322943D01*
X274857D01*
Y323095D01*
X274553D01*
Y323247D01*
X274400D01*
Y323399D01*
X274249D01*
Y323552D01*
X274400D01*
Y323704D01*
X274553D01*
Y323856D01*
X274705D01*
Y324008D01*
X274857D01*
Y324160D01*
X275009D01*
Y324312D01*
X275161D01*
Y324464D01*
X275313D01*
Y324616D01*
X275465D01*
Y324768D01*
X275617D01*
Y324921D01*
X275769D01*
Y325073D01*
X275922D01*
Y325225D01*
Y325377D01*
X276074D01*
Y325529D01*
X276226D01*
Y325681D01*
X276378D01*
Y325833D01*
X276530D01*
Y325985D01*
X276682D01*
Y326137D01*
X276834D01*
Y326289D01*
X276986D01*
Y326442D01*
X277138D01*
Y326594D01*
Y326746D01*
X277291D01*
Y326898D01*
X277443D01*
Y327050D01*
X277595D01*
Y327202D01*
X277747D01*
Y327354D01*
X277899D01*
Y327506D01*
X278051D01*
Y327658D01*
X278203D01*
Y327506D01*
D02*
G37*
G36*
X254628Y344389D02*
Y344237D01*
Y344085D01*
Y343933D01*
Y343781D01*
Y343629D01*
Y343477D01*
Y343324D01*
Y343172D01*
Y343020D01*
Y342868D01*
Y342716D01*
Y342564D01*
Y342412D01*
Y342260D01*
Y342108D01*
Y341956D01*
Y341804D01*
Y341651D01*
Y341499D01*
Y341347D01*
Y341195D01*
Y341043D01*
Y340891D01*
Y340739D01*
Y340587D01*
Y340435D01*
Y340283D01*
Y340130D01*
Y339978D01*
Y339826D01*
Y339674D01*
Y339522D01*
Y339370D01*
Y339218D01*
Y339066D01*
Y338914D01*
Y338761D01*
Y338609D01*
Y338457D01*
Y338305D01*
Y338153D01*
Y338001D01*
Y337849D01*
Y337697D01*
Y337545D01*
Y337393D01*
Y337241D01*
Y337088D01*
Y336936D01*
Y336784D01*
Y336632D01*
Y336480D01*
Y336328D01*
Y336176D01*
Y336024D01*
Y335872D01*
Y335719D01*
Y335567D01*
Y335415D01*
Y335263D01*
Y335111D01*
Y334959D01*
Y334807D01*
Y334655D01*
Y334503D01*
Y334351D01*
Y334198D01*
Y334046D01*
Y333894D01*
Y333742D01*
Y333590D01*
Y333438D01*
Y333286D01*
Y333134D01*
Y332982D01*
Y332830D01*
Y332678D01*
Y332525D01*
Y332373D01*
Y332221D01*
Y332069D01*
Y331917D01*
Y331765D01*
Y331613D01*
Y331461D01*
Y331309D01*
Y331157D01*
Y331004D01*
Y330852D01*
Y330700D01*
Y330548D01*
Y330396D01*
Y330244D01*
Y330092D01*
Y329940D01*
Y329788D01*
Y329636D01*
Y329484D01*
Y329331D01*
Y329179D01*
Y329027D01*
Y328875D01*
Y328723D01*
Y328571D01*
Y328419D01*
Y328267D01*
Y328115D01*
Y327962D01*
Y327810D01*
Y327658D01*
Y327506D01*
Y327354D01*
Y327202D01*
Y327050D01*
Y326898D01*
Y326746D01*
Y326594D01*
Y326442D01*
Y326289D01*
Y326137D01*
Y325985D01*
Y325833D01*
Y325681D01*
Y325529D01*
Y325377D01*
Y325225D01*
Y325073D01*
Y324921D01*
Y324768D01*
Y324616D01*
Y324464D01*
Y324312D01*
Y324160D01*
Y324008D01*
Y323856D01*
Y323704D01*
Y323552D01*
Y323399D01*
Y323247D01*
Y323095D01*
Y322943D01*
Y322791D01*
Y322639D01*
Y322487D01*
Y322335D01*
Y322183D01*
Y322031D01*
Y321879D01*
Y321726D01*
Y321574D01*
Y321422D01*
Y321270D01*
Y321118D01*
Y320966D01*
Y320814D01*
Y320662D01*
Y320510D01*
Y320357D01*
Y320205D01*
Y320053D01*
Y319901D01*
Y319749D01*
Y319597D01*
Y319445D01*
Y319293D01*
Y319141D01*
Y318989D01*
Y318836D01*
Y318684D01*
Y318532D01*
Y318380D01*
Y318228D01*
Y318076D01*
Y317924D01*
X254476D01*
Y317772D01*
Y317620D01*
Y317468D01*
Y317316D01*
Y317163D01*
Y317011D01*
Y316859D01*
X254324D01*
Y316707D01*
Y316555D01*
Y316403D01*
Y316251D01*
X254171D01*
Y316099D01*
Y315947D01*
Y315794D01*
X254019D01*
Y315642D01*
Y315490D01*
Y315338D01*
X253867D01*
Y315186D01*
Y315034D01*
X253715D01*
Y314882D01*
Y314730D01*
Y314578D01*
X253563D01*
Y314426D01*
Y314274D01*
X253411D01*
Y314122D01*
Y313969D01*
X253259D01*
Y313817D01*
X253107D01*
Y313665D01*
Y313513D01*
X252955D01*
Y313361D01*
Y313209D01*
X252802D01*
Y313057D01*
X252650D01*
Y312905D01*
Y312753D01*
X252498D01*
Y312600D01*
X252346D01*
Y312448D01*
X252194D01*
Y312296D01*
X252042D01*
Y312144D01*
X251890D01*
Y311992D01*
Y311840D01*
X251738D01*
Y311688D01*
X251586D01*
Y311536D01*
X251434D01*
Y311384D01*
X251129D01*
Y311232D01*
X250977D01*
Y311080D01*
X250825D01*
Y310927D01*
X250673D01*
Y310775D01*
X250521D01*
Y310623D01*
X250217D01*
Y310471D01*
X250065D01*
Y310319D01*
X249761D01*
Y310167D01*
X249608D01*
Y310015D01*
X249304D01*
Y309863D01*
X249000D01*
Y309711D01*
X248696D01*
Y309559D01*
X248392D01*
Y309406D01*
X247935D01*
Y309254D01*
X247479D01*
Y309102D01*
X247023D01*
Y308950D01*
X246414D01*
Y308798D01*
X245654D01*
Y308646D01*
X234246D01*
Y308798D01*
X234399D01*
Y308950D01*
X234551D01*
Y309102D01*
X234703D01*
Y309254D01*
Y309406D01*
X234855D01*
Y309559D01*
X235007D01*
Y309711D01*
Y309863D01*
X235159D01*
Y310015D01*
X235311D01*
Y310167D01*
X235463D01*
Y310319D01*
Y310471D01*
X235615D01*
Y310623D01*
X235767D01*
Y310775D01*
Y310927D01*
X235919D01*
Y311080D01*
X236072D01*
Y311232D01*
X236224D01*
Y311384D01*
Y311536D01*
X236376D01*
Y311688D01*
X236528D01*
Y311840D01*
Y311992D01*
X236680D01*
Y312144D01*
X236832D01*
Y312296D01*
Y312448D01*
X236984D01*
Y312600D01*
X237136D01*
Y312753D01*
Y312905D01*
X237288D01*
Y313057D01*
X237440D01*
Y313209D01*
X237593D01*
Y313361D01*
Y313513D01*
X237745D01*
Y313665D01*
X237897D01*
Y313817D01*
Y313969D01*
X238049D01*
Y314122D01*
X238201D01*
Y314274D01*
X245198D01*
Y314426D01*
X245806D01*
Y314578D01*
X246262D01*
Y314730D01*
X246566D01*
Y314882D01*
X246719D01*
Y315034D01*
X247023D01*
Y315186D01*
X247175D01*
Y315338D01*
X247327D01*
Y315490D01*
X247631D01*
Y315642D01*
X247783D01*
Y315794D01*
X247935D01*
Y315947D01*
Y316099D01*
X248087D01*
Y316251D01*
X248239D01*
Y316403D01*
X248392D01*
Y316555D01*
Y316707D01*
X248544D01*
Y316859D01*
Y317011D01*
X248696D01*
Y317163D01*
Y317316D01*
X248848D01*
Y317468D01*
Y317620D01*
Y317772D01*
X249000D01*
Y317924D01*
Y318076D01*
Y318228D01*
Y318380D01*
Y318532D01*
Y318684D01*
Y318836D01*
X249152D01*
Y318989D01*
Y319141D01*
Y319293D01*
Y319445D01*
Y319597D01*
Y319749D01*
Y319901D01*
Y320053D01*
Y320205D01*
Y320357D01*
Y320510D01*
Y320662D01*
Y320814D01*
Y320966D01*
Y321118D01*
Y321270D01*
Y321422D01*
Y321574D01*
Y321726D01*
Y321879D01*
Y322031D01*
Y322183D01*
Y322335D01*
Y322487D01*
Y322639D01*
Y322791D01*
Y322943D01*
Y323095D01*
Y323247D01*
Y323399D01*
Y323552D01*
Y323704D01*
Y323856D01*
Y324008D01*
Y324160D01*
Y324312D01*
Y324464D01*
Y324616D01*
Y324768D01*
Y324921D01*
Y325073D01*
Y325225D01*
Y325377D01*
Y325529D01*
Y325681D01*
Y325833D01*
Y325985D01*
Y326137D01*
Y326289D01*
Y326442D01*
Y326594D01*
Y326746D01*
Y326898D01*
Y327050D01*
Y327202D01*
Y327354D01*
Y327506D01*
Y327658D01*
Y327810D01*
Y327962D01*
Y328115D01*
Y328267D01*
Y328419D01*
Y328571D01*
Y328723D01*
Y328875D01*
Y329027D01*
Y329179D01*
Y329331D01*
Y329484D01*
Y329636D01*
Y329788D01*
Y329940D01*
Y330092D01*
Y330244D01*
Y330396D01*
Y330548D01*
Y330700D01*
Y330852D01*
Y331004D01*
Y331157D01*
Y331309D01*
Y331461D01*
Y331613D01*
Y331765D01*
Y331917D01*
Y332069D01*
Y332221D01*
Y332373D01*
Y332525D01*
Y332678D01*
Y332830D01*
Y332982D01*
Y333134D01*
Y333286D01*
Y333438D01*
Y333590D01*
Y333742D01*
Y333894D01*
Y334046D01*
Y334198D01*
Y334351D01*
Y334503D01*
Y334655D01*
Y334807D01*
Y334959D01*
Y335111D01*
Y335263D01*
Y335415D01*
Y335567D01*
Y335719D01*
Y335872D01*
Y336024D01*
Y336176D01*
Y336328D01*
Y336480D01*
Y336632D01*
Y336784D01*
Y336936D01*
X249304D01*
Y337088D01*
X249456D01*
Y337241D01*
X249608D01*
Y337393D01*
Y337545D01*
X249761D01*
Y337697D01*
X249913D01*
Y337849D01*
Y338001D01*
X250065D01*
Y338153D01*
X250217D01*
Y338305D01*
Y338457D01*
X250369D01*
Y338609D01*
X250521D01*
Y338761D01*
X250673D01*
Y338914D01*
Y339066D01*
X250825D01*
Y339218D01*
X250977D01*
Y339370D01*
Y339522D01*
X251129D01*
Y339674D01*
X251281D01*
Y339826D01*
Y339978D01*
X251434D01*
Y340130D01*
X251586D01*
Y340283D01*
Y340435D01*
X251738D01*
Y340587D01*
X251890D01*
Y340739D01*
X252042D01*
Y340891D01*
Y341043D01*
X252194D01*
Y341195D01*
X252346D01*
Y341347D01*
Y341499D01*
X252498D01*
Y341651D01*
X252650D01*
Y341804D01*
Y341956D01*
X252802D01*
Y342108D01*
X252955D01*
Y342260D01*
X253107D01*
Y342412D01*
Y342564D01*
X253259D01*
Y342716D01*
X253411D01*
Y342868D01*
Y343020D01*
X253563D01*
Y343172D01*
X253715D01*
Y343324D01*
Y343477D01*
X253867D01*
Y343629D01*
X254019D01*
Y343781D01*
Y343933D01*
X254171D01*
Y344085D01*
X254324D01*
Y344237D01*
X254476D01*
Y344389D01*
Y344541D01*
X254628D01*
Y344389D01*
D02*
G37*
G36*
X293565Y358534D02*
Y358382D01*
Y358230D01*
Y358078D01*
Y357926D01*
Y357774D01*
Y357622D01*
X293717D01*
Y357470D01*
Y357318D01*
Y357166D01*
Y357013D01*
X293565D01*
Y356861D01*
Y356709D01*
Y356557D01*
Y356405D01*
Y356253D01*
Y356101D01*
Y355949D01*
Y355797D01*
X293413D01*
Y355644D01*
Y355492D01*
Y355340D01*
Y355188D01*
Y355036D01*
X293261D01*
Y354884D01*
Y354732D01*
Y354580D01*
X293109D01*
Y354428D01*
Y354276D01*
Y354123D01*
Y353971D01*
X292957D01*
Y353819D01*
Y353667D01*
Y353515D01*
X292805D01*
Y353363D01*
Y353211D01*
Y353059D01*
X292652D01*
Y352907D01*
Y352755D01*
Y352603D01*
X292500D01*
Y352450D01*
Y352298D01*
X292348D01*
Y352146D01*
Y351994D01*
Y351842D01*
X292196D01*
Y351690D01*
Y351538D01*
X292044D01*
Y351386D01*
Y351234D01*
X291892D01*
Y351081D01*
Y350929D01*
Y350777D01*
X291740D01*
Y350625D01*
Y350473D01*
X291588D01*
Y350321D01*
Y350169D01*
X291436D01*
Y350017D01*
Y349865D01*
X291283D01*
Y349713D01*
Y349560D01*
X291131D01*
Y349408D01*
Y349256D01*
X290979D01*
Y349104D01*
Y348952D01*
X290827D01*
Y348800D01*
Y348648D01*
X290675D01*
Y348496D01*
Y348344D01*
X290523D01*
Y348192D01*
Y348040D01*
X290371D01*
Y347887D01*
Y347735D01*
X290219D01*
Y347583D01*
X290067D01*
Y347431D01*
Y347279D01*
X289915D01*
Y347127D01*
Y346975D01*
X289762D01*
Y346823D01*
Y346671D01*
X289610D01*
Y346518D01*
Y346366D01*
X289458D01*
Y346214D01*
X289306D01*
Y346062D01*
Y345910D01*
X289154D01*
Y345758D01*
Y345606D01*
X289002D01*
Y345454D01*
X288850D01*
Y345302D01*
Y345150D01*
X288698D01*
Y344998D01*
Y344846D01*
X288546D01*
Y344693D01*
X288394D01*
Y344541D01*
Y344389D01*
X288242D01*
Y344237D01*
Y344085D01*
X288089D01*
Y343933D01*
X287937D01*
Y343781D01*
Y343629D01*
X287785D01*
Y343477D01*
X287633D01*
Y343324D01*
Y343172D01*
X287481D01*
Y343020D01*
Y342868D01*
X287329D01*
Y342716D01*
X287177D01*
Y342564D01*
Y342412D01*
X287025D01*
Y342260D01*
X286873D01*
Y342108D01*
Y341956D01*
X286721D01*
Y341804D01*
X286568D01*
Y341651D01*
Y341499D01*
X286416D01*
Y341347D01*
X286264D01*
Y341195D01*
Y341043D01*
X286112D01*
Y340891D01*
X285960D01*
Y340739D01*
Y340587D01*
X285808D01*
Y340435D01*
X285656D01*
Y340283D01*
Y340130D01*
X285504D01*
Y339978D01*
X285352D01*
Y339826D01*
X285200D01*
Y339674D01*
Y339522D01*
X285048D01*
Y339370D01*
X284895D01*
Y339218D01*
Y339066D01*
X284743D01*
Y338914D01*
X284591D01*
Y338761D01*
X284439D01*
Y338609D01*
Y338457D01*
X284287D01*
Y338305D01*
X284135D01*
Y338153D01*
Y338001D01*
X283983D01*
Y337849D01*
X283831D01*
Y337697D01*
X283679D01*
Y337545D01*
Y337393D01*
X283526D01*
Y337241D01*
X283374D01*
Y337088D01*
X283222D01*
Y336936D01*
Y336784D01*
X283070D01*
Y336632D01*
X282918D01*
Y336480D01*
X282766D01*
Y336328D01*
Y336176D01*
X282614D01*
Y336024D01*
X282462D01*
Y335872D01*
X282310D01*
Y335719D01*
Y335567D01*
X282158D01*
Y335415D01*
X282006D01*
Y335263D01*
X281853D01*
Y335111D01*
X281701D01*
Y334959D01*
Y334807D01*
X281549D01*
Y334655D01*
X281397D01*
Y334503D01*
X281245D01*
Y334351D01*
Y334198D01*
X281093D01*
Y334046D01*
X280941D01*
Y333894D01*
X280789D01*
Y333742D01*
X280637D01*
Y333590D01*
Y333438D01*
X280485D01*
Y333286D01*
X280332D01*
Y333134D01*
X280180D01*
Y332982D01*
X280028D01*
Y332830D01*
Y332678D01*
X279876D01*
Y332525D01*
X279724D01*
Y332373D01*
X279572D01*
Y332221D01*
X279420D01*
Y332069D01*
Y331917D01*
X279268D01*
Y331765D01*
X279116D01*
Y331613D01*
X278963D01*
Y331461D01*
X278811D01*
Y331309D01*
Y331157D01*
X278659D01*
Y331004D01*
X278507D01*
Y330852D01*
X278355D01*
Y330700D01*
X278203D01*
Y330548D01*
X278051D01*
Y330396D01*
Y330244D01*
X277899D01*
Y330092D01*
X277747D01*
Y329940D01*
X277595D01*
Y329788D01*
X277443D01*
Y329636D01*
X277291D01*
Y329484D01*
X277138D01*
Y329331D01*
Y329179D01*
X276986D01*
Y329027D01*
X276834D01*
Y328875D01*
X276682D01*
Y328723D01*
X276530D01*
Y328571D01*
X276378D01*
Y328419D01*
X276226D01*
Y328267D01*
X276074D01*
Y328115D01*
Y327962D01*
X275922D01*
Y327810D01*
X275769D01*
Y327658D01*
X275617D01*
Y327506D01*
X275465D01*
Y327354D01*
X275313D01*
Y327202D01*
X275161D01*
Y327050D01*
Y326898D01*
X275009D01*
Y326746D01*
X274857D01*
Y326594D01*
X274705D01*
Y326442D01*
X274553D01*
Y326289D01*
X274400D01*
Y326137D01*
X274249D01*
Y325985D01*
X274096D01*
Y325833D01*
X273944D01*
Y325681D01*
X273792D01*
Y325529D01*
Y325377D01*
X273640D01*
Y325225D01*
X273488D01*
Y325073D01*
X273336D01*
Y324921D01*
X273184D01*
Y324768D01*
X273032D01*
Y324616D01*
X272880D01*
Y324464D01*
X272727D01*
Y324312D01*
X272575D01*
Y324160D01*
X272423D01*
Y324008D01*
X272271D01*
Y323856D01*
X272119D01*
Y323704D01*
X271967D01*
Y323552D01*
X271815D01*
Y323399D01*
Y323247D01*
X271663D01*
Y323095D01*
X271511D01*
Y322943D01*
X271359D01*
Y322791D01*
X271206D01*
Y322639D01*
X271054D01*
Y322487D01*
X270902D01*
Y322335D01*
X270750D01*
Y322183D01*
X270598D01*
Y322031D01*
X270446D01*
Y321879D01*
X270294D01*
Y321726D01*
X270142D01*
Y321574D01*
X269990D01*
Y321422D01*
X269838D01*
Y321270D01*
X269686D01*
Y321118D01*
X269533D01*
Y320966D01*
X269381D01*
Y320814D01*
X269229D01*
Y320662D01*
X269077D01*
Y320510D01*
X268925D01*
Y320357D01*
X268773D01*
Y320205D01*
X268621D01*
Y320053D01*
Y319901D01*
X268469D01*
Y319749D01*
X268317D01*
Y319597D01*
X268164D01*
Y319445D01*
X268012D01*
Y319293D01*
X267860D01*
Y319141D01*
X267708D01*
Y318989D01*
X267556D01*
Y318836D01*
X267404D01*
Y318684D01*
X267252D01*
Y318532D01*
X267100D01*
Y318380D01*
X266948D01*
Y318228D01*
X266796D01*
Y318076D01*
X266491D01*
Y317924D01*
X266339D01*
Y317772D01*
X266187D01*
Y317620D01*
X266035D01*
Y317468D01*
X265883D01*
Y317316D01*
X265731D01*
Y317163D01*
X265579D01*
Y317011D01*
X265427D01*
Y316859D01*
X265275D01*
Y316707D01*
X265123D01*
Y316555D01*
X264970D01*
Y316403D01*
X264818D01*
Y316251D01*
X264666D01*
Y316099D01*
X264514D01*
Y315947D01*
X264362D01*
Y315794D01*
X264210D01*
Y315642D01*
X264058D01*
Y315490D01*
X263906D01*
Y315338D01*
X263754D01*
Y315186D01*
X263601D01*
Y315034D01*
X263449D01*
Y314882D01*
X263297D01*
Y314730D01*
X263145D01*
Y314578D01*
X262993D01*
Y314426D01*
X262689D01*
Y314274D01*
X262537D01*
Y314122D01*
X262385D01*
Y313969D01*
X262233D01*
Y313817D01*
X262081D01*
Y313665D01*
X261928D01*
Y313513D01*
X261776D01*
Y313361D01*
X261624D01*
Y313209D01*
X261472D01*
Y313057D01*
X261320D01*
Y312905D01*
X261168D01*
Y312753D01*
X260864D01*
Y312600D01*
X260712D01*
Y312448D01*
X260560D01*
Y312296D01*
X260407D01*
Y312144D01*
X260255D01*
Y311992D01*
X260103D01*
Y311840D01*
X259951D01*
Y311688D01*
X259799D01*
Y311536D01*
X259647D01*
Y311384D01*
X259343D01*
Y311232D01*
X259191D01*
Y311080D01*
X259038D01*
Y310927D01*
X258886D01*
Y310775D01*
X258734D01*
Y310623D01*
X258582D01*
Y310471D01*
X258430D01*
Y310319D01*
X258126D01*
Y310167D01*
X257974D01*
Y310015D01*
X257822D01*
Y309863D01*
X257670D01*
Y309711D01*
X257518D01*
Y309559D01*
X257365D01*
Y309406D01*
X257061D01*
Y309254D01*
X256909D01*
Y309102D01*
X256757D01*
Y308950D01*
X256605D01*
Y308798D01*
X256453D01*
Y308646D01*
X256301D01*
Y308494D01*
X255997D01*
Y308342D01*
X255844D01*
Y308190D01*
X255692D01*
Y308037D01*
X255540D01*
Y307885D01*
X255388D01*
Y307733D01*
X255084D01*
Y307581D01*
X254932D01*
Y307429D01*
X254780D01*
Y307277D01*
X254628D01*
Y307125D01*
X254324D01*
Y306973D01*
X254171D01*
Y306821D01*
X254019D01*
Y306669D01*
X253867D01*
Y306517D01*
X253715D01*
Y306364D01*
X253411D01*
Y306212D01*
X253259D01*
Y306060D01*
X253107D01*
Y305908D01*
X252955D01*
Y305756D01*
X252650D01*
Y305604D01*
X252498D01*
Y305452D01*
X252346D01*
Y305300D01*
X252194D01*
Y305148D01*
X251890D01*
Y304995D01*
X251738D01*
Y304843D01*
X251586D01*
Y304691D01*
X251281D01*
Y304539D01*
X251129D01*
Y304387D01*
X250977D01*
Y304235D01*
X250673D01*
Y304083D01*
X250521D01*
Y303931D01*
X250369D01*
Y303779D01*
X250065D01*
Y303627D01*
X249913D01*
Y303474D01*
X249761D01*
Y303322D01*
X249456D01*
Y303170D01*
X249304D01*
Y303018D01*
X249152D01*
Y302866D01*
X248848D01*
Y302714D01*
X248696D01*
Y302562D01*
X248544D01*
Y302410D01*
X248239D01*
Y302258D01*
X248087D01*
Y302106D01*
X247935D01*
Y301954D01*
X247631D01*
Y301801D01*
X247479D01*
Y301649D01*
X247175D01*
Y301497D01*
X247023D01*
Y301345D01*
X246871D01*
Y301193D01*
X246566D01*
Y301041D01*
X246414D01*
Y300889D01*
X246110D01*
Y300737D01*
X245958D01*
Y300585D01*
X245654D01*
Y300433D01*
X245502D01*
Y300280D01*
X245198D01*
Y300128D01*
X245045D01*
Y299976D01*
X244741D01*
Y299824D01*
X244589D01*
Y299672D01*
X244285D01*
Y299520D01*
X244133D01*
Y299368D01*
X243829D01*
Y299216D01*
X243677D01*
Y299064D01*
X243372D01*
Y298912D01*
X243220D01*
Y298760D01*
X242916D01*
Y298607D01*
X242764D01*
Y298455D01*
X242460D01*
Y298303D01*
X242156D01*
Y298151D01*
X242003D01*
Y297999D01*
X241699D01*
Y297847D01*
X241395D01*
Y297695D01*
X241243D01*
Y297543D01*
X240939D01*
Y297391D01*
X240635D01*
Y297238D01*
X240482D01*
Y297086D01*
X240178D01*
Y296934D01*
X239874D01*
Y296782D01*
X239570D01*
Y296630D01*
X239418D01*
Y296478D01*
X239114D01*
Y296326D01*
X238809D01*
Y296174D01*
X238505D01*
Y296022D01*
X238201D01*
Y295870D01*
X237897D01*
Y295718D01*
X237593D01*
Y295565D01*
X237288D01*
Y295413D01*
X236984D01*
Y295261D01*
X236680D01*
Y295109D01*
X236376D01*
Y294957D01*
X236072D01*
Y294805D01*
X235767D01*
Y294653D01*
X235463D01*
Y294501D01*
X235007D01*
Y294349D01*
X234703D01*
Y294197D01*
X234246D01*
Y294044D01*
X233942D01*
Y293892D01*
X233486D01*
Y293740D01*
X233030D01*
Y293588D01*
X232573D01*
Y293436D01*
X232117D01*
Y293284D01*
X231509D01*
Y293132D01*
X230748D01*
Y292980D01*
X229683D01*
Y292828D01*
X228923D01*
Y292980D01*
X228010D01*
Y293132D01*
X229683D01*
Y293284D01*
X230292D01*
Y293436D01*
X230900D01*
Y293588D01*
X231357D01*
Y293740D01*
X231661D01*
Y293892D01*
X232117D01*
Y294044D01*
X232421D01*
Y294197D01*
X232725D01*
Y294349D01*
X233030D01*
Y294501D01*
X233334D01*
Y294653D01*
X233638D01*
Y294805D01*
X233942D01*
Y294957D01*
X234246D01*
Y295109D01*
X234551D01*
Y295261D01*
X234855D01*
Y295413D01*
X235007D01*
Y295565D01*
X235311D01*
Y295718D01*
X235615D01*
Y295870D01*
X235919D01*
Y296022D01*
X236072D01*
Y296174D01*
X236376D01*
Y296326D01*
X236528D01*
Y296478D01*
X236832D01*
Y296630D01*
X237136D01*
Y296782D01*
X237288D01*
Y296934D01*
X237593D01*
Y297086D01*
X237745D01*
Y297238D01*
X238049D01*
Y297391D01*
X238201D01*
Y297543D01*
X238505D01*
Y297695D01*
X238657D01*
Y297847D01*
X238962D01*
Y297999D01*
X239114D01*
Y298151D01*
X239418D01*
Y298303D01*
X239570D01*
Y298455D01*
X239722D01*
Y298607D01*
X240026D01*
Y298760D01*
X240178D01*
Y298912D01*
X240482D01*
Y299064D01*
X240635D01*
Y299216D01*
X240939D01*
Y299368D01*
X241091D01*
Y299520D01*
X241243D01*
Y299672D01*
X241547D01*
Y299824D01*
X241699D01*
Y299976D01*
X241851D01*
Y300128D01*
X242156D01*
Y300280D01*
X242308D01*
Y300433D01*
X242460D01*
Y300585D01*
X242764D01*
Y300737D01*
X242916D01*
Y300889D01*
X243068D01*
Y301041D01*
X243372D01*
Y301193D01*
X243525D01*
Y301345D01*
X243677D01*
Y301497D01*
X243981D01*
Y301649D01*
X244133D01*
Y301801D01*
X244285D01*
Y301954D01*
X244437D01*
Y302106D01*
X244741D01*
Y302258D01*
X244893D01*
Y302410D01*
X245045D01*
Y302562D01*
X245350D01*
Y302714D01*
X245502D01*
Y302866D01*
X245654D01*
Y303018D01*
X245806D01*
Y303170D01*
X246110D01*
Y303322D01*
X246262D01*
Y303474D01*
X246414D01*
Y303627D01*
X246566D01*
Y303779D01*
X246871D01*
Y303931D01*
X247023D01*
Y304083D01*
X247175D01*
Y304235D01*
X247327D01*
Y304387D01*
X247479D01*
Y304539D01*
X247783D01*
Y304691D01*
X247935D01*
Y304843D01*
X248087D01*
Y304995D01*
X248239D01*
Y305148D01*
X248392D01*
Y305300D01*
X248696D01*
Y305452D01*
X248848D01*
Y305604D01*
X249000D01*
Y305756D01*
X249152D01*
Y305908D01*
X249304D01*
Y306060D01*
X249608D01*
Y306212D01*
X249761D01*
Y306364D01*
X249913D01*
Y306517D01*
X250065D01*
Y306669D01*
X250217D01*
Y306821D01*
X250369D01*
Y306973D01*
X250673D01*
Y307125D01*
X250825D01*
Y307277D01*
X250977D01*
Y307429D01*
X251129D01*
Y307581D01*
X251281D01*
Y307733D01*
X251586D01*
Y307885D01*
X251738D01*
Y308037D01*
X251890D01*
Y308190D01*
X252042D01*
Y308342D01*
X252194D01*
Y308494D01*
X252346D01*
Y308646D01*
X252498D01*
Y308798D01*
X252802D01*
Y308950D01*
X252955D01*
Y309102D01*
X253107D01*
Y309254D01*
X253259D01*
Y309406D01*
X253411D01*
Y309559D01*
X253563D01*
Y309711D01*
X253715D01*
Y309863D01*
X253867D01*
Y310015D01*
X254171D01*
Y310167D01*
X254324D01*
Y310319D01*
X254476D01*
Y310471D01*
X254628D01*
Y310623D01*
X254780D01*
Y310775D01*
X254932D01*
Y310927D01*
X255084D01*
Y311080D01*
X255236D01*
Y311232D01*
X255388D01*
Y311384D01*
X255540D01*
Y311536D01*
X255844D01*
Y311688D01*
X255997D01*
Y311840D01*
X256149D01*
Y311992D01*
X256301D01*
Y312144D01*
X256453D01*
Y312296D01*
X256605D01*
Y312448D01*
X256757D01*
Y312600D01*
X256909D01*
Y312753D01*
X257061D01*
Y312905D01*
X257213D01*
Y313057D01*
X257365D01*
Y313209D01*
X257670D01*
Y313361D01*
X257822D01*
Y313513D01*
X257974D01*
Y313665D01*
X258126D01*
Y313817D01*
X258278D01*
Y313969D01*
X258430D01*
Y314122D01*
X258582D01*
Y314274D01*
X258734D01*
Y314426D01*
X258886D01*
Y314578D01*
X259038D01*
Y314730D01*
X259191D01*
Y314882D01*
X259343D01*
Y315034D01*
X259495D01*
Y315186D01*
X259647D01*
Y315338D01*
X259799D01*
Y315490D01*
X259951D01*
Y315642D01*
X260255D01*
Y315794D01*
X260407D01*
Y315947D01*
X260560D01*
Y316099D01*
X260712D01*
Y316251D01*
X260864D01*
Y316403D01*
X261016D01*
Y316555D01*
X261168D01*
Y316707D01*
X261320D01*
Y316859D01*
X261472D01*
Y317011D01*
X261624D01*
Y317163D01*
X261776D01*
Y317316D01*
X261928D01*
Y317468D01*
X262081D01*
Y317620D01*
X262233D01*
Y317772D01*
X262385D01*
Y317924D01*
X262537D01*
Y318076D01*
X262689D01*
Y318228D01*
X262841D01*
Y318380D01*
X262993D01*
Y318532D01*
X263145D01*
Y318684D01*
X263297D01*
Y318836D01*
X263449D01*
Y318989D01*
X263601D01*
Y319141D01*
X263754D01*
Y319293D01*
X263906D01*
Y319445D01*
X264058D01*
Y319597D01*
X264210D01*
Y319749D01*
X264362D01*
Y319901D01*
X264514D01*
Y320053D01*
X264666D01*
Y320205D01*
X264818D01*
Y320357D01*
X264970D01*
Y320510D01*
X265123D01*
Y320662D01*
X265275D01*
Y320814D01*
X265427D01*
Y320966D01*
X265579D01*
Y321118D01*
X265731D01*
Y321270D01*
X265883D01*
Y321422D01*
X266035D01*
Y321574D01*
X266187D01*
Y321726D01*
X266339D01*
Y321879D01*
X266491D01*
Y322031D01*
X266644D01*
Y322183D01*
X266796D01*
Y322335D01*
X266948D01*
Y322487D01*
X267100D01*
Y322639D01*
X267252D01*
Y322791D01*
X267404D01*
Y322943D01*
X267556D01*
Y323095D01*
X267708D01*
Y323247D01*
X267860D01*
Y323399D01*
X268012D01*
Y323552D01*
X268164D01*
Y323704D01*
X268317D01*
Y323856D01*
X268469D01*
Y324008D01*
X268621D01*
Y324160D01*
X268773D01*
Y324312D01*
X268925D01*
Y324464D01*
X269077D01*
Y324616D01*
X269229D01*
Y324768D01*
X269381D01*
Y324921D01*
X269533D01*
Y325073D01*
X269686D01*
Y325225D01*
X269838D01*
Y325377D01*
X269990D01*
Y325529D01*
X270142D01*
Y325681D01*
X270294D01*
Y325833D01*
X270446D01*
Y325985D01*
X270598D01*
Y326137D01*
X270750D01*
Y326289D01*
X270902D01*
Y326442D01*
Y326594D01*
X271054D01*
Y326746D01*
X271206D01*
Y326898D01*
X271359D01*
Y327050D01*
X271511D01*
Y327202D01*
X271663D01*
Y327354D01*
X271815D01*
Y327506D01*
X271967D01*
Y327658D01*
X272119D01*
Y327810D01*
X272271D01*
Y327962D01*
X272423D01*
Y328115D01*
X272575D01*
Y328267D01*
X272727D01*
Y328419D01*
X272880D01*
Y328571D01*
X273032D01*
Y328723D01*
Y328875D01*
X273184D01*
Y329027D01*
X273336D01*
Y329179D01*
X273488D01*
Y329331D01*
X273640D01*
Y329484D01*
X273792D01*
Y329636D01*
X273944D01*
Y329788D01*
X274096D01*
Y329940D01*
X274249D01*
Y330092D01*
X274400D01*
Y330244D01*
X274553D01*
Y330396D01*
X274705D01*
Y330548D01*
X274857D01*
Y330700D01*
Y330852D01*
X275009D01*
Y331004D01*
X275161D01*
Y331157D01*
X275313D01*
Y331309D01*
X275465D01*
Y331461D01*
X275617D01*
Y331613D01*
X275769D01*
Y331765D01*
X275922D01*
Y331917D01*
X276074D01*
Y332069D01*
X276226D01*
Y332221D01*
Y332373D01*
X276378D01*
Y332525D01*
X276530D01*
Y332678D01*
X276682D01*
Y332830D01*
X276834D01*
Y332982D01*
X276986D01*
Y333134D01*
X277138D01*
Y333286D01*
X277291D01*
Y333438D01*
X277443D01*
Y333590D01*
Y333742D01*
X277595D01*
Y333894D01*
X277747D01*
Y334046D01*
X277899D01*
Y334198D01*
X278051D01*
Y334351D01*
X278203D01*
Y334503D01*
X278355D01*
Y334655D01*
X278507D01*
Y334807D01*
Y334959D01*
X278659D01*
Y335111D01*
X278811D01*
Y335263D01*
X278963D01*
Y335415D01*
X279116D01*
Y335567D01*
X279268D01*
Y335719D01*
X279420D01*
Y335872D01*
Y336024D01*
X279572D01*
Y336176D01*
X279724D01*
Y336328D01*
X279876D01*
Y336480D01*
X280028D01*
Y336632D01*
X280180D01*
Y336784D01*
X280332D01*
Y336936D01*
Y337088D01*
X280485D01*
Y337241D01*
X280637D01*
Y337393D01*
X280789D01*
Y337545D01*
X280941D01*
Y337697D01*
X281093D01*
Y337849D01*
Y338001D01*
X281245D01*
Y338153D01*
X281397D01*
Y338305D01*
X281549D01*
Y338457D01*
X281701D01*
Y338609D01*
X281853D01*
Y338761D01*
Y338914D01*
X282006D01*
Y339066D01*
X282158D01*
Y339218D01*
X282310D01*
Y339370D01*
X282462D01*
Y339522D01*
Y339674D01*
X282614D01*
Y339826D01*
X282766D01*
Y339978D01*
X282918D01*
Y340130D01*
X283070D01*
Y340283D01*
X283222D01*
Y340435D01*
Y340587D01*
X283374D01*
Y340739D01*
X283526D01*
Y340891D01*
X283679D01*
Y341043D01*
X283831D01*
Y341195D01*
Y341347D01*
X283983D01*
Y341499D01*
X284135D01*
Y341651D01*
X284287D01*
Y341804D01*
Y341956D01*
X284439D01*
Y342108D01*
X284591D01*
Y342260D01*
X284743D01*
Y342412D01*
X284895D01*
Y342564D01*
Y342716D01*
X285048D01*
Y342868D01*
X285200D01*
Y343020D01*
X285352D01*
Y343172D01*
Y343324D01*
X285504D01*
Y343477D01*
X285656D01*
Y343629D01*
X285808D01*
Y343781D01*
Y343933D01*
X285960D01*
Y344085D01*
X286112D01*
Y344237D01*
X286264D01*
Y344389D01*
Y344541D01*
X286416D01*
Y344693D01*
X286568D01*
Y344846D01*
X286721D01*
Y344998D01*
Y345150D01*
X286873D01*
Y345302D01*
X287025D01*
Y345454D01*
X287177D01*
Y345606D01*
Y345758D01*
X287329D01*
Y345910D01*
X287481D01*
Y346062D01*
Y346214D01*
X287633D01*
Y346366D01*
X287785D01*
Y346518D01*
X287937D01*
Y346671D01*
Y346823D01*
X288089D01*
Y346975D01*
X288242D01*
Y347127D01*
Y347279D01*
X288394D01*
Y347431D01*
X288546D01*
Y347583D01*
Y347735D01*
X288698D01*
Y347887D01*
X288850D01*
Y348040D01*
Y348192D01*
X289002D01*
Y348344D01*
X289154D01*
Y348496D01*
Y348648D01*
X289306D01*
Y348800D01*
X289458D01*
Y348952D01*
Y349104D01*
X289610D01*
Y349256D01*
X289762D01*
Y349408D01*
Y349560D01*
X289915D01*
Y349713D01*
X290067D01*
Y349865D01*
Y350017D01*
X290219D01*
Y350169D01*
X290371D01*
Y350321D01*
Y350473D01*
X290523D01*
Y350625D01*
Y350777D01*
X290675D01*
Y350929D01*
X290827D01*
Y351081D01*
Y351234D01*
X290979D01*
Y351386D01*
Y351538D01*
X291131D01*
Y351690D01*
Y351842D01*
X291283D01*
Y351994D01*
Y352146D01*
X291436D01*
Y352298D01*
X291588D01*
Y352450D01*
Y352603D01*
X291740D01*
Y352755D01*
Y352907D01*
X291892D01*
Y353059D01*
Y353211D01*
X292044D01*
Y353363D01*
Y353515D01*
X292196D01*
Y353667D01*
Y353819D01*
X292348D01*
Y353971D01*
Y354123D01*
X292500D01*
Y354276D01*
Y354428D01*
Y354580D01*
X292652D01*
Y354732D01*
Y354884D01*
X292805D01*
Y355036D01*
Y355188D01*
Y355340D01*
X292957D01*
Y355492D01*
Y355644D01*
X293109D01*
Y355797D01*
Y355949D01*
Y356101D01*
X293261D01*
Y356253D01*
Y356405D01*
Y356557D01*
Y356709D01*
Y356861D01*
X293413D01*
Y357013D01*
Y357166D01*
Y357318D01*
Y357470D01*
Y357622D01*
Y357774D01*
Y357926D01*
Y358078D01*
Y358230D01*
Y358382D01*
Y358534D01*
Y358686D01*
X293565D01*
Y358534D01*
D02*
G37*
G36*
X284182Y109726D02*
X284218D01*
Y109582D01*
X284254D01*
Y109366D01*
X284290D01*
Y109150D01*
X284326D01*
Y108789D01*
X284362D01*
Y101471D01*
X284254D01*
Y101435D01*
X284218D01*
Y101399D01*
X284146D01*
Y101363D01*
X284074D01*
Y101327D01*
X284037D01*
Y101291D01*
X283965D01*
Y101255D01*
X283893D01*
Y101147D01*
X283929D01*
Y101075D01*
X283965D01*
Y101003D01*
X284001D01*
Y100966D01*
X284037D01*
Y100894D01*
X284074D01*
Y100822D01*
X284110D01*
Y100786D01*
X284146D01*
Y100714D01*
X284182D01*
Y100606D01*
X284218D01*
Y100534D01*
X284254D01*
Y100462D01*
X284290D01*
Y100390D01*
X284326D01*
Y100282D01*
X284362D01*
Y100173D01*
X284398D01*
Y99993D01*
X284434D01*
Y99849D01*
X284470D01*
Y99669D01*
X284506D01*
Y98912D01*
X284470D01*
Y98731D01*
X284434D01*
Y98551D01*
X284398D01*
Y98407D01*
X284362D01*
Y98263D01*
X284326D01*
Y98155D01*
X284290D01*
Y98083D01*
X284254D01*
Y97974D01*
X284218D01*
Y97902D01*
X284182D01*
Y97830D01*
X284146D01*
Y97758D01*
X284110D01*
Y97686D01*
X284074D01*
Y97614D01*
X284037D01*
Y97578D01*
X284001D01*
Y97506D01*
X283965D01*
Y97434D01*
X283929D01*
Y97361D01*
X283893D01*
Y97325D01*
X283857D01*
Y97253D01*
X283821D01*
Y97217D01*
X283785D01*
Y97145D01*
X283749D01*
Y97073D01*
X283713D01*
Y97037D01*
X283677D01*
Y97001D01*
Y96965D01*
X283641D01*
Y96929D01*
X283605D01*
Y96857D01*
X283569D01*
Y96821D01*
X283533D01*
Y96785D01*
X283497D01*
Y96713D01*
X283461D01*
Y96676D01*
X283425D01*
Y96640D01*
X283389D01*
Y96568D01*
X283353D01*
Y96532D01*
X283316D01*
Y96496D01*
X283280D01*
Y96460D01*
X283244D01*
Y96388D01*
X283208D01*
Y96352D01*
X283172D01*
Y96280D01*
X283136D01*
Y96244D01*
X283100D01*
Y96208D01*
X283064D01*
Y96172D01*
X283028D01*
Y96136D01*
X282992D01*
Y96100D01*
X282956D01*
Y96028D01*
X282920D01*
Y95992D01*
X282884D01*
Y95956D01*
X282848D01*
Y95920D01*
X282812D01*
Y95884D01*
X282776D01*
Y95847D01*
X282740D01*
Y95811D01*
X282704D01*
Y95775D01*
X282668D01*
Y95739D01*
X282632D01*
Y95703D01*
X282596D01*
Y95667D01*
X282559D01*
Y95595D01*
X282523D01*
Y95559D01*
X282487D01*
Y95523D01*
X282451D01*
Y95487D01*
X282415D01*
Y95451D01*
X282379D01*
Y95415D01*
X282343D01*
Y95379D01*
X282307D01*
Y95343D01*
X282271D01*
Y95307D01*
X282235D01*
Y95271D01*
X282199D01*
Y95235D01*
X282163D01*
Y95199D01*
X282127D01*
Y95162D01*
X282091D01*
Y95126D01*
X282055D01*
Y95090D01*
X282019D01*
Y95054D01*
X281983D01*
Y95018D01*
X281947D01*
Y94982D01*
X281911D01*
Y94946D01*
X281875D01*
Y94910D01*
X281838D01*
Y94874D01*
X281803D01*
Y94838D01*
X281766D01*
Y94802D01*
X281730D01*
Y94766D01*
X281694D01*
Y94730D01*
X281622D01*
Y94694D01*
X281586D01*
Y94658D01*
X281550D01*
Y94622D01*
X281514D01*
Y94586D01*
X281478D01*
Y94550D01*
X281442D01*
Y94514D01*
X281370D01*
Y94477D01*
X281334D01*
Y94441D01*
X281298D01*
Y94405D01*
X281262D01*
Y94369D01*
X281226D01*
Y94333D01*
X281190D01*
Y94297D01*
X281154D01*
Y94261D01*
X281082D01*
Y94225D01*
X281045D01*
Y94189D01*
X281009D01*
Y94153D01*
X280937D01*
Y94117D01*
X280901D01*
Y94081D01*
X280865D01*
Y94045D01*
X280793D01*
Y94009D01*
X280757D01*
Y93973D01*
X280721D01*
Y93937D01*
X280685D01*
Y93901D01*
X280613D01*
Y93865D01*
X280577D01*
Y93829D01*
X280505D01*
Y93793D01*
X280469D01*
Y93757D01*
X280433D01*
Y93721D01*
X280361D01*
Y93684D01*
X280324D01*
Y93648D01*
X280288D01*
Y93612D01*
X280216D01*
Y93576D01*
X280180D01*
Y93540D01*
X280108D01*
Y93504D01*
X280072D01*
Y93468D01*
X280000D01*
Y93432D01*
X279964D01*
Y93396D01*
X279892D01*
Y93360D01*
X279856D01*
Y93324D01*
X279784D01*
Y93288D01*
X279712D01*
Y93252D01*
X279676D01*
Y93216D01*
X279604D01*
Y93180D01*
X279531D01*
Y93144D01*
X279495D01*
Y93108D01*
X279423D01*
Y93072D01*
X279351D01*
Y93036D01*
X279243D01*
Y93000D01*
X279207D01*
Y92963D01*
X279099D01*
Y92927D01*
X279027D01*
Y92891D01*
X278883D01*
Y92855D01*
X278774D01*
Y92819D01*
X278630D01*
Y92783D01*
X278414D01*
Y92747D01*
X277549D01*
Y92783D01*
X277332D01*
Y92819D01*
X277152D01*
Y92855D01*
X277044D01*
Y92891D01*
X276900D01*
Y92927D01*
X276828D01*
Y92963D01*
X276719D01*
Y93000D01*
X276647D01*
Y93036D01*
X276575D01*
Y93072D01*
X276503D01*
Y93108D01*
X276431D01*
Y93144D01*
X276359D01*
Y93180D01*
X276287D01*
Y93216D01*
X276251D01*
Y93252D01*
X276179D01*
Y93288D01*
X276143D01*
Y93324D01*
X276071D01*
Y93360D01*
X276035D01*
Y93396D01*
X275962D01*
Y93432D01*
X275890D01*
Y93468D01*
X275854D01*
Y93504D01*
X275818D01*
Y93540D01*
X275746D01*
Y93576D01*
X275710D01*
Y93612D01*
X275638D01*
Y93648D01*
X275602D01*
Y93684D01*
X275530D01*
Y93721D01*
X275494D01*
Y93757D01*
X275458D01*
Y93793D01*
X275386D01*
Y93829D01*
X275350D01*
Y93865D01*
X275314D01*
Y93901D01*
X275277D01*
Y93937D01*
X275205D01*
Y93973D01*
X275169D01*
Y94009D01*
X275133D01*
Y94045D01*
X275097D01*
Y94081D01*
X275025D01*
Y94117D01*
X274989D01*
Y94153D01*
X274953D01*
Y94189D01*
X274881D01*
Y94225D01*
X274845D01*
Y94261D01*
X274809D01*
Y94297D01*
X274773D01*
Y94333D01*
X274737D01*
Y94369D01*
X274665D01*
Y94405D01*
X274629D01*
Y94441D01*
X274593D01*
Y94477D01*
X274556D01*
Y94514D01*
X274520D01*
Y94550D01*
X274484D01*
Y94586D01*
X274412D01*
Y94622D01*
X274376D01*
Y94658D01*
X274340D01*
Y94694D01*
X274304D01*
Y94730D01*
X274268D01*
Y94766D01*
X274232D01*
Y94802D01*
X274160D01*
Y94838D01*
X274124D01*
Y94874D01*
X274088D01*
Y94910D01*
X274052D01*
Y94946D01*
X274016D01*
Y94982D01*
X273980D01*
Y95018D01*
X273944D01*
Y95054D01*
X273908D01*
Y95090D01*
X273872D01*
Y95126D01*
X273836D01*
Y95162D01*
X273799D01*
Y95199D01*
X273763D01*
Y95235D01*
X273727D01*
Y95271D01*
X273691D01*
Y95307D01*
X273655D01*
Y95343D01*
X273619D01*
Y95379D01*
X273583D01*
Y95415D01*
X273547D01*
Y95451D01*
X273511D01*
Y95487D01*
X273475D01*
Y95523D01*
X273439D01*
Y95559D01*
X273403D01*
Y95595D01*
X273367D01*
Y95631D01*
X273331D01*
Y95667D01*
X273295D01*
Y95703D01*
X273259D01*
Y95775D01*
X273223D01*
Y95811D01*
X273187D01*
Y95847D01*
X273151D01*
Y95884D01*
X273115D01*
Y95920D01*
X273078D01*
Y95956D01*
X273042D01*
Y95992D01*
X273006D01*
Y96028D01*
X272970D01*
Y96064D01*
X272934D01*
Y96136D01*
X272898D01*
Y96172D01*
X272862D01*
Y96208D01*
X272826D01*
Y96244D01*
X272790D01*
Y96280D01*
X272754D01*
Y96352D01*
X272718D01*
Y96388D01*
X272682D01*
Y96424D01*
X272646D01*
Y96460D01*
X272610D01*
Y96532D01*
X272574D01*
Y96568D01*
X272538D01*
Y96604D01*
X272502D01*
Y96640D01*
X272466D01*
Y96713D01*
X272430D01*
Y96749D01*
X272394D01*
Y96785D01*
X272358D01*
Y96857D01*
X272322D01*
Y96893D01*
X272285D01*
Y96965D01*
X272249D01*
Y97001D01*
X272213D01*
Y97073D01*
X272177D01*
Y97109D01*
X272141D01*
Y97181D01*
X272105D01*
Y97217D01*
X272069D01*
Y97289D01*
X272033D01*
Y97325D01*
X271997D01*
Y97398D01*
X271961D01*
Y97470D01*
X271925D01*
Y97542D01*
X271889D01*
Y97614D01*
X271853D01*
Y97686D01*
X271817D01*
Y97758D01*
X271781D01*
Y97794D01*
X271745D01*
Y97902D01*
X271709D01*
Y97974D01*
X271673D01*
Y98046D01*
X271637D01*
Y98155D01*
X271601D01*
Y98227D01*
X271564D01*
Y98371D01*
X271528D01*
Y98515D01*
X271492D01*
Y98659D01*
X271456D01*
Y98912D01*
X271420D01*
Y99669D01*
X271456D01*
Y99885D01*
X271492D01*
Y100029D01*
X271528D01*
Y100173D01*
X271564D01*
Y100282D01*
X271601D01*
Y100390D01*
X271637D01*
Y100498D01*
X271673D01*
Y100570D01*
X271709D01*
Y100642D01*
X271745D01*
Y100714D01*
X271781D01*
Y100786D01*
X271817D01*
Y100858D01*
X271853D01*
Y100894D01*
X271889D01*
Y100966D01*
X271925D01*
Y101039D01*
X271961D01*
Y101075D01*
X271997D01*
Y101147D01*
X272033D01*
Y101183D01*
X272069D01*
Y101255D01*
X271997D01*
Y101291D01*
X271961D01*
Y101327D01*
X271889D01*
Y101363D01*
X271853D01*
Y101399D01*
X271781D01*
Y101435D01*
X271709D01*
Y101471D01*
X271637D01*
Y101543D01*
X271601D01*
Y107203D01*
X271637D01*
Y108825D01*
X271673D01*
Y109150D01*
X271709D01*
Y109366D01*
X271745D01*
Y109582D01*
X271781D01*
Y109726D01*
X271817D01*
Y109799D01*
X271889D01*
Y109763D01*
X271925D01*
Y109726D01*
X271961D01*
Y109690D01*
X271997D01*
Y109618D01*
X272033D01*
Y109582D01*
X272069D01*
Y109546D01*
X272105D01*
Y109510D01*
X272141D01*
Y109474D01*
X272177D01*
Y109402D01*
X272213D01*
Y109366D01*
X272249D01*
Y109330D01*
X272285D01*
Y109294D01*
X272322D01*
Y109222D01*
X272358D01*
Y109186D01*
X272394D01*
Y109150D01*
X272430D01*
Y109078D01*
X272466D01*
Y109042D01*
X272502D01*
Y109005D01*
X272538D01*
Y108933D01*
X272574D01*
Y108897D01*
X272610D01*
Y108861D01*
X272646D01*
Y108825D01*
X272682D01*
Y108753D01*
X272718D01*
Y108717D01*
X272754D01*
Y108645D01*
X272790D01*
Y108609D01*
X272826D01*
Y108537D01*
X272862D01*
Y108501D01*
X272898D01*
Y108465D01*
X272934D01*
Y108393D01*
X272970D01*
Y108356D01*
X273006D01*
Y108320D01*
X273042D01*
Y108248D01*
X273078D01*
Y108212D01*
X273115D01*
Y108140D01*
X273151D01*
Y108104D01*
X273187D01*
Y108068D01*
X273223D01*
Y107996D01*
X273259D01*
Y107960D01*
X273295D01*
Y107888D01*
X273331D01*
Y107852D01*
X273367D01*
Y107816D01*
X273403D01*
Y107744D01*
X273439D01*
Y107672D01*
X273475D01*
Y107636D01*
X273511D01*
Y107563D01*
X273547D01*
Y107527D01*
X273583D01*
Y107491D01*
X273619D01*
Y107419D01*
X273655D01*
Y107383D01*
X273691D01*
Y107311D01*
X273727D01*
Y107275D01*
X273763D01*
Y107203D01*
X273799D01*
Y107167D01*
X273836D01*
Y107095D01*
X273872D01*
Y107059D01*
X273908D01*
Y106987D01*
X273944D01*
Y106951D01*
X273980D01*
Y106915D01*
X274016D01*
Y106843D01*
X274052D01*
Y106770D01*
X274088D01*
Y106734D01*
X274124D01*
Y106662D01*
X274160D01*
Y106626D01*
X274196D01*
Y106554D01*
X274232D01*
Y106518D01*
X274268D01*
Y106446D01*
X274304D01*
Y106410D01*
X274340D01*
Y106338D01*
X274376D01*
Y106302D01*
X274412D01*
Y106230D01*
X274448D01*
Y106194D01*
X274484D01*
Y106122D01*
X274520D01*
Y106049D01*
X274556D01*
Y106013D01*
X274593D01*
Y105941D01*
X274629D01*
Y105869D01*
X274665D01*
Y105833D01*
X274701D01*
Y105761D01*
X274737D01*
Y105725D01*
X274773D01*
Y105653D01*
X274809D01*
Y105581D01*
X274845D01*
Y105545D01*
X274881D01*
Y105473D01*
X274917D01*
Y105401D01*
X274953D01*
Y105328D01*
X274989D01*
Y105292D01*
X275025D01*
Y105220D01*
X275061D01*
Y105184D01*
X275097D01*
Y105112D01*
X275133D01*
Y105040D01*
X275169D01*
Y104968D01*
X275205D01*
Y104932D01*
X275241D01*
Y104824D01*
X275277D01*
Y104788D01*
X275314D01*
Y104716D01*
X275350D01*
Y104643D01*
X275386D01*
Y104607D01*
X275422D01*
Y104535D01*
X275458D01*
Y104463D01*
X275494D01*
Y104391D01*
X275530D01*
Y104319D01*
X275566D01*
Y104283D01*
X275602D01*
Y104211D01*
X275638D01*
Y104139D01*
X275674D01*
Y104067D01*
X275710D01*
Y103995D01*
X275746D01*
Y103922D01*
X275782D01*
Y103886D01*
X275818D01*
Y103814D01*
X275854D01*
Y103706D01*
X275890D01*
Y103634D01*
X275926D01*
Y103562D01*
X275962D01*
Y103490D01*
X276071D01*
Y103526D01*
X276251D01*
Y103562D01*
X276431D01*
Y103598D01*
X276611D01*
Y103634D01*
X276828D01*
Y103670D01*
X277116D01*
Y103706D01*
X278774D01*
Y103670D01*
X279135D01*
Y103634D01*
X279387D01*
Y103598D01*
X279567D01*
Y103562D01*
X279748D01*
Y103526D01*
X279928D01*
Y103490D01*
X280036D01*
Y103562D01*
X280072D01*
Y103634D01*
X280108D01*
Y103706D01*
X280144D01*
Y103778D01*
X280180D01*
Y103850D01*
X280216D01*
Y103886D01*
X280252D01*
Y103958D01*
X280288D01*
Y104031D01*
X280324D01*
Y104103D01*
X280361D01*
Y104175D01*
X280397D01*
Y104211D01*
X280433D01*
Y104283D01*
X280469D01*
Y104355D01*
X280505D01*
Y104427D01*
X280541D01*
Y104499D01*
X280577D01*
Y104535D01*
X280613D01*
Y104607D01*
X280649D01*
Y104680D01*
X280685D01*
Y104752D01*
X280721D01*
Y104824D01*
X280757D01*
Y104860D01*
X280793D01*
Y104932D01*
X280829D01*
Y105004D01*
X280865D01*
Y105040D01*
X280901D01*
Y105112D01*
X280937D01*
Y105184D01*
X280973D01*
Y105220D01*
X281009D01*
Y105292D01*
X281045D01*
Y105364D01*
X281082D01*
Y105401D01*
X281118D01*
Y105473D01*
X281154D01*
Y105545D01*
X281190D01*
Y105617D01*
X281226D01*
Y105653D01*
X281262D01*
Y105725D01*
X281298D01*
Y105761D01*
X281334D01*
Y105833D01*
X281370D01*
Y105905D01*
X281406D01*
Y105941D01*
X281442D01*
Y106013D01*
X281478D01*
Y106085D01*
X281514D01*
Y106122D01*
X281550D01*
Y106194D01*
X281586D01*
Y106230D01*
X281622D01*
Y106302D01*
X281658D01*
Y106374D01*
X281694D01*
Y106410D01*
X281730D01*
Y106482D01*
X281766D01*
Y106518D01*
X281803D01*
Y106590D01*
X281838D01*
Y106626D01*
X281875D01*
Y106698D01*
X281911D01*
Y106734D01*
X281947D01*
Y106806D01*
X281983D01*
Y106843D01*
X282019D01*
Y106915D01*
X282055D01*
Y106987D01*
X282091D01*
Y107023D01*
X282127D01*
Y107059D01*
X282163D01*
Y107131D01*
X282199D01*
Y107167D01*
X282235D01*
Y107239D01*
X282271D01*
Y107275D01*
X282307D01*
Y107347D01*
X282343D01*
Y107383D01*
X282379D01*
Y107455D01*
X282415D01*
Y107491D01*
X282451D01*
Y107563D01*
X282487D01*
Y107599D01*
X282523D01*
Y107672D01*
X282559D01*
Y107708D01*
X282596D01*
Y107780D01*
X282632D01*
Y107816D01*
X282668D01*
Y107888D01*
X282704D01*
Y107924D01*
X282740D01*
Y107996D01*
X282776D01*
Y108032D01*
X282812D01*
Y108068D01*
X282848D01*
Y108140D01*
X282884D01*
Y108176D01*
X282920D01*
Y108212D01*
X282956D01*
Y108284D01*
X282992D01*
Y108320D01*
X283028D01*
Y108393D01*
X283064D01*
Y108429D01*
X283100D01*
Y108465D01*
X283136D01*
Y108537D01*
X283172D01*
Y108609D01*
X283208D01*
Y108645D01*
X283244D01*
Y108681D01*
X283280D01*
Y108753D01*
X283316D01*
Y108789D01*
X283353D01*
Y108825D01*
X283389D01*
Y108861D01*
X283425D01*
Y108933D01*
X283461D01*
Y108969D01*
X283497D01*
Y109042D01*
X283533D01*
Y109078D01*
X283569D01*
Y109114D01*
X283605D01*
Y109186D01*
X283641D01*
Y109222D01*
X283677D01*
Y109258D01*
X283713D01*
Y109294D01*
X283749D01*
Y109366D01*
X283785D01*
Y109402D01*
X283821D01*
Y109438D01*
X283857D01*
Y109474D01*
X283893D01*
Y109510D01*
X283929D01*
Y109582D01*
X283965D01*
Y109618D01*
X284001D01*
Y109654D01*
X284037D01*
Y109690D01*
X284074D01*
Y109763D01*
X284110D01*
Y109799D01*
X284182D01*
Y109726D01*
D02*
G37*
G36*
X281586Y94441D02*
X281622D01*
Y94405D01*
X281586D01*
Y94369D01*
X281622D01*
Y93540D01*
X281658D01*
Y93216D01*
X281694D01*
Y93000D01*
X281730D01*
Y92783D01*
X281766D01*
Y92639D01*
X281803D01*
Y92495D01*
X281838D01*
Y92315D01*
X281766D01*
Y92278D01*
X281694D01*
Y92242D01*
X281622D01*
Y92206D01*
X281550D01*
Y92170D01*
X281442D01*
Y92134D01*
X281370D01*
Y92098D01*
X281262D01*
Y92062D01*
X281190D01*
Y92026D01*
X281082D01*
Y91990D01*
X280973D01*
Y91954D01*
X280865D01*
Y91918D01*
X280721D01*
Y91882D01*
X280613D01*
Y91846D01*
X280505D01*
Y91810D01*
X280361D01*
Y91774D01*
X280216D01*
Y91738D01*
X280072D01*
Y91702D01*
X279892D01*
Y91666D01*
X279676D01*
Y91630D01*
X279459D01*
Y91594D01*
X279243D01*
Y91558D01*
X278919D01*
Y91522D01*
X278414D01*
Y91485D01*
X277513D01*
Y91522D01*
X277008D01*
Y91558D01*
X276683D01*
Y91594D01*
X276467D01*
Y91630D01*
X276215D01*
Y91666D01*
X276035D01*
Y91702D01*
X275854D01*
Y91738D01*
X275674D01*
Y91774D01*
X275566D01*
Y91810D01*
X275422D01*
Y91846D01*
X275314D01*
Y91882D01*
X275169D01*
Y91918D01*
X275061D01*
Y91954D01*
X274953D01*
Y91990D01*
X274845D01*
Y92026D01*
X274737D01*
Y92062D01*
X274665D01*
Y92098D01*
X274556D01*
Y92134D01*
X274448D01*
Y92170D01*
X274376D01*
Y92206D01*
X274304D01*
Y92242D01*
X274232D01*
Y92278D01*
X274124D01*
Y92423D01*
X274160D01*
Y92567D01*
X274196D01*
Y92675D01*
X274232D01*
Y92855D01*
X274268D01*
Y93036D01*
X274304D01*
Y93252D01*
X274340D01*
Y93576D01*
X274376D01*
Y94153D01*
X274412D01*
Y94225D01*
X274376D01*
Y94261D01*
X274412D01*
Y94297D01*
X274376D01*
Y94369D01*
X274448D01*
Y94333D01*
X274484D01*
Y94297D01*
X274520D01*
Y94261D01*
X274593D01*
Y94225D01*
X274629D01*
Y94189D01*
X274665D01*
Y94153D01*
X274701D01*
Y94117D01*
X274773D01*
Y94081D01*
X274809D01*
Y94045D01*
X274845D01*
Y94009D01*
X274917D01*
Y93973D01*
X274953D01*
Y93937D01*
X274989D01*
Y93901D01*
X275025D01*
Y93865D01*
X275097D01*
Y93829D01*
X275133D01*
Y93793D01*
X275205D01*
Y93757D01*
X275241D01*
Y93721D01*
X275277D01*
Y93684D01*
X275314D01*
Y93648D01*
X275350D01*
Y93612D01*
X275422D01*
Y93576D01*
X275458D01*
Y93540D01*
X275530D01*
Y93504D01*
X275566D01*
Y93468D01*
X275638D01*
Y93432D01*
X275674D01*
Y93396D01*
X275710D01*
Y93360D01*
X275782D01*
Y93324D01*
X275818D01*
Y93288D01*
X275890D01*
Y93252D01*
X275926D01*
Y93216D01*
X275998D01*
Y93180D01*
X276035D01*
Y93144D01*
X276107D01*
Y93108D01*
X276179D01*
Y93072D01*
X276215D01*
Y93036D01*
X276287D01*
Y93000D01*
X276359D01*
Y92963D01*
X276431D01*
Y92927D01*
X276503D01*
Y92891D01*
X276575D01*
Y92855D01*
X276647D01*
Y92819D01*
X276719D01*
Y92783D01*
X276828D01*
Y92747D01*
X276936D01*
Y92711D01*
X277044D01*
Y92675D01*
X277152D01*
Y92639D01*
X277332D01*
Y92603D01*
X277621D01*
Y92567D01*
X278342D01*
Y92603D01*
X278630D01*
Y92639D01*
X278810D01*
Y92675D01*
X278919D01*
Y92711D01*
X279027D01*
Y92747D01*
X279135D01*
Y92783D01*
X279207D01*
Y92819D01*
X279279D01*
Y92855D01*
X279351D01*
Y92891D01*
X279459D01*
Y92927D01*
X279531D01*
Y92963D01*
X279604D01*
Y93000D01*
X279640D01*
Y93036D01*
X279712D01*
Y93072D01*
X279784D01*
Y93108D01*
X279856D01*
Y93144D01*
X279892D01*
Y93180D01*
X279928D01*
Y93216D01*
X280000D01*
Y93252D01*
X280072D01*
Y93288D01*
X280108D01*
Y93324D01*
X280144D01*
Y93360D01*
X280216D01*
Y93396D01*
X280252D01*
Y93432D01*
X280324D01*
Y93468D01*
X280361D01*
Y93504D01*
X280433D01*
Y93540D01*
X280469D01*
Y93576D01*
X280505D01*
Y93612D01*
X280577D01*
Y93648D01*
X280613D01*
Y93684D01*
X280649D01*
Y93721D01*
X280685D01*
Y93757D01*
X280757D01*
Y93793D01*
X280793D01*
Y93829D01*
X280829D01*
Y93865D01*
X280865D01*
Y93901D01*
X280937D01*
Y93937D01*
X280973D01*
Y93973D01*
X281009D01*
Y94009D01*
X281045D01*
Y94045D01*
X281118D01*
Y94081D01*
X281154D01*
Y94117D01*
X281190D01*
Y94153D01*
X281262D01*
Y94189D01*
X281298D01*
Y94225D01*
X281334D01*
Y94261D01*
X281370D01*
Y94297D01*
X281406D01*
Y94333D01*
X281442D01*
Y94369D01*
X281478D01*
Y94405D01*
X281514D01*
Y94441D01*
X281550D01*
Y94477D01*
X281586D01*
Y94441D01*
D02*
G37*
G36*
X281947Y91954D02*
X281983D01*
Y91846D01*
X282019D01*
Y91774D01*
X282055D01*
Y91666D01*
X282091D01*
Y91558D01*
X282127D01*
Y91485D01*
X282163D01*
Y91377D01*
X282199D01*
Y91305D01*
X282235D01*
Y91197D01*
X282271D01*
Y91125D01*
X282307D01*
Y91053D01*
X282343D01*
Y90945D01*
X282271D01*
Y90909D01*
X282199D01*
Y90873D01*
X282127D01*
Y90837D01*
X282019D01*
Y90800D01*
X281947D01*
Y90764D01*
X281875D01*
Y90728D01*
X281766D01*
Y90692D01*
X281694D01*
Y90656D01*
X281586D01*
Y90620D01*
X281514D01*
Y90584D01*
X281406D01*
Y90548D01*
X281298D01*
Y90512D01*
X281190D01*
Y90476D01*
X281082D01*
Y90440D01*
X280937D01*
Y90404D01*
X280793D01*
Y90368D01*
X280685D01*
Y90332D01*
X280541D01*
Y90296D01*
X280397D01*
Y90260D01*
X280216D01*
Y90224D01*
X280072D01*
Y90188D01*
X279892D01*
Y90152D01*
X279640D01*
Y90116D01*
X279423D01*
Y90079D01*
X279063D01*
Y90043D01*
X278666D01*
Y90007D01*
X277260D01*
Y90043D01*
X276828D01*
Y90079D01*
X276539D01*
Y90116D01*
X276251D01*
Y90152D01*
X276071D01*
Y90188D01*
X275854D01*
Y90224D01*
X275710D01*
Y90260D01*
X275530D01*
Y90296D01*
X275386D01*
Y90332D01*
X275241D01*
Y90368D01*
X275097D01*
Y90404D01*
X274989D01*
Y90440D01*
X274845D01*
Y90476D01*
X274737D01*
Y90512D01*
X274629D01*
Y90548D01*
X274520D01*
Y90584D01*
X274412D01*
Y90620D01*
X274304D01*
Y90656D01*
X274232D01*
Y90692D01*
X274124D01*
Y90728D01*
X274052D01*
Y90764D01*
X273944D01*
Y90800D01*
X273872D01*
Y90837D01*
X273799D01*
Y90873D01*
X273727D01*
Y90909D01*
X273619D01*
Y91017D01*
X273655D01*
Y91089D01*
X273691D01*
Y91197D01*
X273727D01*
Y91269D01*
X273763D01*
Y91341D01*
X273799D01*
Y91449D01*
X273836D01*
Y91522D01*
X273872D01*
Y91630D01*
X273908D01*
Y91702D01*
X273944D01*
Y91810D01*
X273980D01*
Y91918D01*
X274016D01*
Y92026D01*
X274088D01*
Y91990D01*
X274160D01*
Y91954D01*
X274268D01*
Y91918D01*
X274340D01*
Y91882D01*
X274448D01*
Y91846D01*
X274520D01*
Y91810D01*
X274629D01*
Y91774D01*
X274701D01*
Y91738D01*
X274809D01*
Y91702D01*
X274953D01*
Y91666D01*
X275061D01*
Y91630D01*
X275169D01*
Y91594D01*
X275277D01*
Y91558D01*
X275422D01*
Y91522D01*
X275566D01*
Y91485D01*
X275710D01*
Y91449D01*
X275854D01*
Y91413D01*
X276035D01*
Y91377D01*
X276251D01*
Y91341D01*
X276467D01*
Y91305D01*
X276719D01*
Y91269D01*
X277080D01*
Y91233D01*
X277693D01*
Y91197D01*
X278234D01*
Y91233D01*
X278846D01*
Y91269D01*
X279171D01*
Y91305D01*
X279423D01*
Y91341D01*
X279676D01*
Y91377D01*
X279892D01*
Y91413D01*
X280036D01*
Y91449D01*
X280180D01*
Y91485D01*
X280361D01*
Y91522D01*
X280469D01*
Y91558D01*
X280613D01*
Y91594D01*
X280757D01*
Y91630D01*
X280865D01*
Y91666D01*
X280973D01*
Y91702D01*
X281082D01*
Y91738D01*
X281226D01*
Y91774D01*
X281298D01*
Y91810D01*
X281370D01*
Y91846D01*
X281478D01*
Y91882D01*
X281586D01*
Y91918D01*
X281658D01*
Y91954D01*
X281730D01*
Y91990D01*
X281838D01*
Y92026D01*
X281911D01*
Y92062D01*
X281947D01*
Y91954D01*
D02*
G37*
G36*
X282523Y90548D02*
X282559D01*
Y90476D01*
X282596D01*
Y90404D01*
X282632D01*
Y90332D01*
X282668D01*
Y90260D01*
X282704D01*
Y90152D01*
X282740D01*
Y90116D01*
X282776D01*
Y90007D01*
X282812D01*
Y89935D01*
X282848D01*
Y89863D01*
X282884D01*
Y89791D01*
X282920D01*
Y89719D01*
X282956D01*
Y89647D01*
X282992D01*
Y89575D01*
X282920D01*
Y89539D01*
X282848D01*
Y89503D01*
X282776D01*
Y89467D01*
X282704D01*
Y89431D01*
X282632D01*
Y89395D01*
X282559D01*
Y89359D01*
X282487D01*
Y89323D01*
X282415D01*
Y89286D01*
X282307D01*
Y89250D01*
X282235D01*
Y89214D01*
X282127D01*
Y89178D01*
X282055D01*
Y89142D01*
X281947D01*
Y89106D01*
X281875D01*
Y89070D01*
X281766D01*
Y89034D01*
X281658D01*
Y88998D01*
X281550D01*
Y88962D01*
X281442D01*
Y88926D01*
X281334D01*
Y88890D01*
X281226D01*
Y88854D01*
X281082D01*
Y88818D01*
X280973D01*
Y88782D01*
X280829D01*
Y88746D01*
X280685D01*
Y88710D01*
X280541D01*
Y88674D01*
X280361D01*
Y88638D01*
X280144D01*
Y88601D01*
X279928D01*
Y88565D01*
X279712D01*
Y88529D01*
X279423D01*
Y88493D01*
X279099D01*
Y88457D01*
X278630D01*
Y88421D01*
X277332D01*
Y88457D01*
X276828D01*
Y88493D01*
X276503D01*
Y88529D01*
X276251D01*
Y88565D01*
X276035D01*
Y88601D01*
X275782D01*
Y88638D01*
X275602D01*
Y88674D01*
X275422D01*
Y88710D01*
X275277D01*
Y88746D01*
X275133D01*
Y88782D01*
X274989D01*
Y88818D01*
X274845D01*
Y88854D01*
X274737D01*
Y88890D01*
X274629D01*
Y88926D01*
X274484D01*
Y88962D01*
X274376D01*
Y88998D01*
X274304D01*
Y89034D01*
X274196D01*
Y89070D01*
X274088D01*
Y89106D01*
X273980D01*
Y89142D01*
X273908D01*
Y89178D01*
X273799D01*
Y89214D01*
X273727D01*
Y89250D01*
X273619D01*
Y89286D01*
X273547D01*
Y89323D01*
X273475D01*
Y89359D01*
X273367D01*
Y89395D01*
X273295D01*
Y89431D01*
X273223D01*
Y89467D01*
X273151D01*
Y89503D01*
X273078D01*
Y89539D01*
X273006D01*
Y89575D01*
X272970D01*
Y89647D01*
X273006D01*
Y89755D01*
X273042D01*
Y89827D01*
X273078D01*
Y89899D01*
X273115D01*
Y89971D01*
X273151D01*
Y90043D01*
X273187D01*
Y90116D01*
X273223D01*
Y90188D01*
X273259D01*
Y90260D01*
X273295D01*
Y90332D01*
X273331D01*
Y90404D01*
X273367D01*
Y90476D01*
X273403D01*
Y90548D01*
X273547D01*
Y90512D01*
X273619D01*
Y90476D01*
X273691D01*
Y90440D01*
X273799D01*
Y90404D01*
X273872D01*
Y90368D01*
X273980D01*
Y90332D01*
X274052D01*
Y90296D01*
X274160D01*
Y90260D01*
X274232D01*
Y90224D01*
X274340D01*
Y90188D01*
X274448D01*
Y90152D01*
X274556D01*
Y90116D01*
X274665D01*
Y90079D01*
X274773D01*
Y90043D01*
X274917D01*
Y90007D01*
X275025D01*
Y89971D01*
X275169D01*
Y89935D01*
X275277D01*
Y89899D01*
X275458D01*
Y89863D01*
X275638D01*
Y89827D01*
X275818D01*
Y89791D01*
X276035D01*
Y89755D01*
X276251D01*
Y89719D01*
X276467D01*
Y89683D01*
X276792D01*
Y89647D01*
X277224D01*
Y89611D01*
X278666D01*
Y89647D01*
X279135D01*
Y89683D01*
X279423D01*
Y89719D01*
X279712D01*
Y89755D01*
X279892D01*
Y89791D01*
X280108D01*
Y89827D01*
X280288D01*
Y89863D01*
X280469D01*
Y89899D01*
X280613D01*
Y89935D01*
X280757D01*
Y89971D01*
X280865D01*
Y90007D01*
X281009D01*
Y90043D01*
X281154D01*
Y90079D01*
X281262D01*
Y90116D01*
X281334D01*
Y90152D01*
X281442D01*
Y90188D01*
X281550D01*
Y90224D01*
X281658D01*
Y90260D01*
X281766D01*
Y90296D01*
X281838D01*
Y90332D01*
X281947D01*
Y90368D01*
X282019D01*
Y90404D01*
X282127D01*
Y90440D01*
X282199D01*
Y90476D01*
X282307D01*
Y90512D01*
X282379D01*
Y90548D01*
X282451D01*
Y90584D01*
X282523D01*
Y90548D01*
D02*
G37*
G36*
X283244Y89034D02*
X283280D01*
Y88962D01*
X283316D01*
Y88890D01*
X283353D01*
Y88818D01*
X283389D01*
Y88746D01*
X283425D01*
Y88674D01*
X283461D01*
Y88601D01*
X283497D01*
Y88529D01*
X283533D01*
Y88457D01*
X283569D01*
Y88385D01*
X283605D01*
Y88313D01*
X283641D01*
Y88241D01*
X283677D01*
Y88169D01*
X283713D01*
Y88097D01*
X283749D01*
Y88025D01*
X283785D01*
Y87953D01*
X283821D01*
Y87880D01*
X283857D01*
Y87808D01*
X283893D01*
Y87736D01*
X283929D01*
Y87664D01*
X283965D01*
Y87592D01*
X284001D01*
Y87520D01*
X284037D01*
Y87448D01*
X284074D01*
Y87376D01*
X284110D01*
Y87304D01*
X284146D01*
Y87232D01*
X284182D01*
Y87160D01*
X284218D01*
Y87087D01*
X284254D01*
Y87015D01*
X284290D01*
Y86943D01*
X284326D01*
Y86871D01*
X284362D01*
Y86799D01*
X284398D01*
Y86691D01*
X284434D01*
Y86619D01*
X284470D01*
Y86547D01*
X284506D01*
Y86475D01*
X284542D01*
Y86366D01*
X284578D01*
Y86294D01*
X284614D01*
Y86222D01*
X284650D01*
Y86150D01*
X284686D01*
Y86042D01*
X284722D01*
Y85970D01*
X284758D01*
Y85898D01*
X284795D01*
Y85790D01*
X284831D01*
Y85717D01*
X284867D01*
Y85609D01*
X284903D01*
Y85537D01*
X284939D01*
Y85429D01*
X284975D01*
Y85357D01*
X285011D01*
Y85213D01*
X285047D01*
Y85105D01*
X285083D01*
Y84996D01*
X285119D01*
Y84888D01*
X285155D01*
Y84780D01*
X285191D01*
Y84636D01*
X285227D01*
Y84528D01*
X285263D01*
Y84420D01*
X285299D01*
Y84240D01*
X285335D01*
Y84131D01*
X285371D01*
Y83951D01*
X285407D01*
Y83771D01*
X285443D01*
Y83555D01*
X285479D01*
Y83302D01*
X285516D01*
Y82906D01*
X285552D01*
Y82185D01*
X285516D01*
Y81824D01*
X285479D01*
Y81572D01*
X285443D01*
Y81356D01*
X285407D01*
Y81175D01*
X285371D01*
Y80959D01*
X285335D01*
Y80815D01*
X285299D01*
Y80671D01*
X285263D01*
Y80526D01*
X285227D01*
Y80346D01*
X285191D01*
Y80202D01*
X285155D01*
Y80058D01*
X285119D01*
Y79878D01*
X285083D01*
Y79697D01*
X285047D01*
Y79517D01*
X285011D01*
Y79229D01*
X284975D01*
Y78976D01*
X284939D01*
Y78652D01*
X284903D01*
Y77931D01*
X284939D01*
Y77066D01*
X284975D01*
Y76020D01*
X284939D01*
Y75444D01*
X284903D01*
Y75047D01*
X284867D01*
Y74758D01*
X284831D01*
Y74506D01*
X284795D01*
Y74254D01*
X284758D01*
Y74001D01*
X284722D01*
Y73785D01*
X284686D01*
Y73569D01*
X284650D01*
Y73353D01*
X284614D01*
Y73100D01*
X284578D01*
Y72884D01*
X284542D01*
Y72668D01*
X284506D01*
Y72451D01*
X284470D01*
Y72235D01*
X284434D01*
Y72019D01*
X284398D01*
Y71730D01*
X284362D01*
Y71514D01*
X284326D01*
Y71334D01*
X284290D01*
Y71118D01*
X284254D01*
Y70901D01*
X284218D01*
Y70685D01*
X284182D01*
Y70469D01*
X284146D01*
Y70288D01*
X284110D01*
Y70036D01*
X284074D01*
Y69856D01*
X284037D01*
Y69639D01*
X284001D01*
Y69423D01*
X283965D01*
Y69207D01*
X283929D01*
Y68991D01*
X283893D01*
Y68774D01*
X283857D01*
Y68522D01*
X283821D01*
Y68306D01*
X283785D01*
Y68053D01*
X283749D01*
Y67801D01*
X283713D01*
Y67585D01*
X283677D01*
Y67332D01*
X283641D01*
Y67116D01*
X283605D01*
Y66828D01*
X283569D01*
Y66611D01*
X283533D01*
Y66359D01*
X283497D01*
Y66107D01*
X283461D01*
Y65854D01*
X283425D01*
Y65566D01*
X283389D01*
Y65458D01*
Y65422D01*
Y65314D01*
X283353D01*
Y65025D01*
X283316D01*
Y64773D01*
X283280D01*
Y64448D01*
X283244D01*
Y64160D01*
X283208D01*
Y63872D01*
X283172D01*
Y63439D01*
X283136D01*
Y63115D01*
X283100D01*
Y62790D01*
X283064D01*
Y62430D01*
X283028D01*
Y62069D01*
X282992D01*
Y61637D01*
X282956D01*
Y61240D01*
X282920D01*
Y60771D01*
X282884D01*
Y60303D01*
X282848D01*
Y59798D01*
X282812D01*
Y59221D01*
X282776D01*
Y58680D01*
X282740D01*
Y58032D01*
X282704D01*
Y57203D01*
X282668D01*
Y56265D01*
X282632D01*
Y56157D01*
X282668D01*
Y56085D01*
X282776D01*
Y56049D01*
X282884D01*
Y56013D01*
X282992D01*
Y55977D01*
X283064D01*
Y55941D01*
X283172D01*
Y55905D01*
X283208D01*
Y55869D01*
X283280D01*
Y55833D01*
X283316D01*
Y55796D01*
X283353D01*
Y55761D01*
X283389D01*
Y55724D01*
X283425D01*
Y55688D01*
X283461D01*
Y55616D01*
X283497D01*
Y55580D01*
X283533D01*
Y55508D01*
X283569D01*
Y55400D01*
X283605D01*
Y54715D01*
X283641D01*
Y54679D01*
X283605D01*
Y54102D01*
X283569D01*
Y53958D01*
X283533D01*
Y53886D01*
X283497D01*
Y53814D01*
X283461D01*
Y53742D01*
X283425D01*
Y53706D01*
X283389D01*
Y53670D01*
X283353D01*
Y53634D01*
X283316D01*
Y53597D01*
X283280D01*
Y53562D01*
X283244D01*
Y53525D01*
X283208D01*
Y53489D01*
X283172D01*
Y53453D01*
X283064D01*
Y53417D01*
X282884D01*
Y53381D01*
X279640D01*
Y53417D01*
X279495D01*
Y53453D01*
X279423D01*
Y53489D01*
X279351D01*
Y53525D01*
X279315D01*
Y53562D01*
X279279D01*
Y53597D01*
X279243D01*
Y53634D01*
X279207D01*
Y53670D01*
X279171D01*
Y53706D01*
X279135D01*
Y53742D01*
X279099D01*
Y53814D01*
X279063D01*
Y53922D01*
X279027D01*
Y54066D01*
X278991D01*
Y55256D01*
X279027D01*
Y55400D01*
X279063D01*
Y55508D01*
X279099D01*
Y55580D01*
X279135D01*
Y55616D01*
X279171D01*
Y55688D01*
X279207D01*
Y55724D01*
X279243D01*
Y55761D01*
X279279D01*
Y55796D01*
X279351D01*
Y55833D01*
X279387D01*
Y55869D01*
X279423D01*
Y55905D01*
X279495D01*
Y55941D01*
X279531D01*
Y55977D01*
X279604D01*
Y56013D01*
X279712D01*
Y56049D01*
X279820D01*
Y56085D01*
X280000D01*
Y56121D01*
X280036D01*
Y57383D01*
X280000D01*
Y64232D01*
X279964D01*
Y64304D01*
X280000D01*
Y64521D01*
X279964D01*
Y64701D01*
X280000D01*
Y64809D01*
X279964D01*
Y64917D01*
X280000D01*
Y67801D01*
X280036D01*
Y70000D01*
X280000D01*
Y68846D01*
X279964D01*
Y66936D01*
X279928D01*
Y64593D01*
X279892D01*
Y58608D01*
X279928D01*
Y57455D01*
X279964D01*
Y56193D01*
X275926D01*
Y57203D01*
X275962D01*
Y58825D01*
X275998D01*
Y63078D01*
X275962D01*
Y65602D01*
X275926D01*
Y67260D01*
X275890D01*
Y68558D01*
X275854D01*
Y66287D01*
X275890D01*
Y66251D01*
X275854D01*
Y66179D01*
X275890D01*
Y57311D01*
X275854D01*
Y56157D01*
X275890D01*
Y56121D01*
X275926D01*
Y56085D01*
X276071D01*
Y56049D01*
X276179D01*
Y56013D01*
X276287D01*
Y55977D01*
X276395D01*
Y55941D01*
X276431D01*
Y55905D01*
X276503D01*
Y55869D01*
X276539D01*
Y55833D01*
X276611D01*
Y55796D01*
X276647D01*
Y55761D01*
X276683D01*
Y55724D01*
X276719D01*
Y55652D01*
X276756D01*
Y55616D01*
X276792D01*
Y55580D01*
X276828D01*
Y55508D01*
X276864D01*
Y55400D01*
X276900D01*
Y55184D01*
X276936D01*
Y54246D01*
X276900D01*
Y54030D01*
X276864D01*
Y53922D01*
X276828D01*
Y53814D01*
X276792D01*
Y53778D01*
X276756D01*
Y53706D01*
X276719D01*
Y53670D01*
X276683D01*
Y53597D01*
X276647D01*
Y53562D01*
X276575D01*
Y53525D01*
X276539D01*
Y53489D01*
X276467D01*
Y53453D01*
X276395D01*
Y53417D01*
X276251D01*
Y53381D01*
X274809D01*
Y53345D01*
X274520D01*
Y53381D01*
X272970D01*
Y53417D01*
X272862D01*
Y53453D01*
X272790D01*
Y53489D01*
X272718D01*
Y53525D01*
X272646D01*
Y53562D01*
X272610D01*
Y53597D01*
X272574D01*
Y53634D01*
X272538D01*
Y53670D01*
X272502D01*
Y53706D01*
X272466D01*
Y53778D01*
X272430D01*
Y53850D01*
X272394D01*
Y53922D01*
X272358D01*
Y54066D01*
X272322D01*
Y55292D01*
X272358D01*
Y55436D01*
X272394D01*
Y55544D01*
X272430D01*
Y55616D01*
X272466D01*
Y55652D01*
X272502D01*
Y55724D01*
X272538D01*
Y55761D01*
X272574D01*
Y55796D01*
X272610D01*
Y55833D01*
X272646D01*
Y55869D01*
X272718D01*
Y55905D01*
X272790D01*
Y55941D01*
X272826D01*
Y55977D01*
X272934D01*
Y56013D01*
X273042D01*
Y56049D01*
X273187D01*
Y56085D01*
X273259D01*
Y57239D01*
X273223D01*
Y58176D01*
X273187D01*
Y58825D01*
X273151D01*
Y59365D01*
X273115D01*
Y59906D01*
X273078D01*
Y60339D01*
X273042D01*
Y60807D01*
X273006D01*
Y61276D01*
X272970D01*
Y61673D01*
X272934D01*
Y62033D01*
X272898D01*
Y62394D01*
X272862D01*
Y62790D01*
X272826D01*
Y63115D01*
X272790D01*
Y63547D01*
X272754D01*
Y63836D01*
X272718D01*
Y64196D01*
X272682D01*
Y64484D01*
X272646D01*
Y64809D01*
X272610D01*
Y65097D01*
X272574D01*
Y65350D01*
X272538D01*
Y65602D01*
X272502D01*
Y65890D01*
X272466D01*
Y66179D01*
X272430D01*
Y66431D01*
X272394D01*
Y66684D01*
X272358D01*
Y66936D01*
X272322D01*
Y67188D01*
X272285D01*
Y67404D01*
X272249D01*
Y67621D01*
X272213D01*
Y67873D01*
X272177D01*
Y68161D01*
X272141D01*
Y68342D01*
X272105D01*
Y68558D01*
X272069D01*
Y68774D01*
X272033D01*
Y68991D01*
X271997D01*
Y69207D01*
X271961D01*
Y69423D01*
X271925D01*
Y69639D01*
X271889D01*
Y69856D01*
X271853D01*
Y70072D01*
X271817D01*
Y70288D01*
X271781D01*
Y70469D01*
X271745D01*
Y70685D01*
X271709D01*
Y70865D01*
X271673D01*
Y71082D01*
X271637D01*
Y71298D01*
X271601D01*
Y71514D01*
X271564D01*
Y71766D01*
X271528D01*
Y71983D01*
X271492D01*
Y72199D01*
X271456D01*
Y72415D01*
X271420D01*
Y72632D01*
X271384D01*
Y72848D01*
X271348D01*
Y73064D01*
X271312D01*
Y73317D01*
X271276D01*
Y73533D01*
X271240D01*
Y73749D01*
X271204D01*
Y74001D01*
X271168D01*
Y74218D01*
X271132D01*
Y74470D01*
X271096D01*
Y74722D01*
X271060D01*
Y74975D01*
X271024D01*
Y75299D01*
X270988D01*
Y75660D01*
X270952D01*
Y77354D01*
X270988D01*
Y78832D01*
X270952D01*
Y79120D01*
X270916D01*
Y79337D01*
X270880D01*
Y79517D01*
X270844D01*
Y79697D01*
X270807D01*
Y79842D01*
X270771D01*
Y80022D01*
X270735D01*
Y80166D01*
X270699D01*
Y80346D01*
X270663D01*
Y80490D01*
X270627D01*
Y80671D01*
X270591D01*
Y80851D01*
X270555D01*
Y81031D01*
X270519D01*
Y81175D01*
X270483D01*
Y81392D01*
X270447D01*
Y81644D01*
X270411D01*
Y81932D01*
X270375D01*
Y83122D01*
X270411D01*
Y83410D01*
X270447D01*
Y83663D01*
X270483D01*
Y83843D01*
X270519D01*
Y83987D01*
X270555D01*
Y84167D01*
X270591D01*
Y84312D01*
X270627D01*
Y84420D01*
X270663D01*
Y84564D01*
X270699D01*
Y84708D01*
X270735D01*
Y84780D01*
X270771D01*
Y84924D01*
X270807D01*
Y84996D01*
X270844D01*
Y85105D01*
X270880D01*
Y85213D01*
X270916D01*
Y85321D01*
X270952D01*
Y85429D01*
X270988D01*
Y85537D01*
X271024D01*
Y85645D01*
X271060D01*
Y85717D01*
X271096D01*
Y85790D01*
X271132D01*
Y85862D01*
X271168D01*
Y85970D01*
X271204D01*
Y86042D01*
X271240D01*
Y86150D01*
X271276D01*
Y86222D01*
X271312D01*
Y86294D01*
X271348D01*
Y86366D01*
X271384D01*
Y86439D01*
X271420D01*
Y86547D01*
X271456D01*
Y86619D01*
X271492D01*
Y86691D01*
X271528D01*
Y86763D01*
X271564D01*
Y86835D01*
X271601D01*
Y86943D01*
X271637D01*
Y87015D01*
X271673D01*
Y87051D01*
X271709D01*
Y87160D01*
X271745D01*
Y87232D01*
X271781D01*
Y87304D01*
X271817D01*
Y87376D01*
X271853D01*
Y87412D01*
X271889D01*
Y87520D01*
X271925D01*
Y87592D01*
X271961D01*
Y87664D01*
X271997D01*
Y87736D01*
X272033D01*
Y87808D01*
X272069D01*
Y87880D01*
X272105D01*
Y87953D01*
X272141D01*
Y87989D01*
X272177D01*
Y88097D01*
X272213D01*
Y88169D01*
X272249D01*
Y88241D01*
X272285D01*
Y88313D01*
X272322D01*
Y88385D01*
X272358D01*
Y88457D01*
X272394D01*
Y88529D01*
X272430D01*
Y88601D01*
X272466D01*
Y88674D01*
X272502D01*
Y88746D01*
X272538D01*
Y88818D01*
X272574D01*
Y88890D01*
X272610D01*
Y88962D01*
X272646D01*
Y89034D01*
X272682D01*
Y89070D01*
X272790D01*
Y89034D01*
X272862D01*
Y88998D01*
X272934D01*
Y88962D01*
X273006D01*
Y88926D01*
X273078D01*
Y88890D01*
X273151D01*
Y88854D01*
X273223D01*
Y88818D01*
X273295D01*
Y88782D01*
X273403D01*
Y88746D01*
X273475D01*
Y88710D01*
X273547D01*
Y88674D01*
X273655D01*
Y88638D01*
X273727D01*
Y88601D01*
X273836D01*
Y88565D01*
X273944D01*
Y88529D01*
X274016D01*
Y88493D01*
X274124D01*
Y88457D01*
X274232D01*
Y88421D01*
X274376D01*
Y88385D01*
X274484D01*
Y88349D01*
X274593D01*
Y88313D01*
X274737D01*
Y88277D01*
X274845D01*
Y88241D01*
X274989D01*
Y88205D01*
X275169D01*
Y88169D01*
X275314D01*
Y88133D01*
X275458D01*
Y88097D01*
X275638D01*
Y88061D01*
X275818D01*
Y88025D01*
X276071D01*
Y87989D01*
X276359D01*
Y87953D01*
X276647D01*
Y87916D01*
X277044D01*
Y87880D01*
X278919D01*
Y87916D01*
X279315D01*
Y87953D01*
X279604D01*
Y87989D01*
X279892D01*
Y88025D01*
X280108D01*
Y88061D01*
X280324D01*
Y88097D01*
X280505D01*
Y88133D01*
X280649D01*
Y88169D01*
X280793D01*
Y88205D01*
X280973D01*
Y88241D01*
X281082D01*
Y88277D01*
X281226D01*
Y88313D01*
X281334D01*
Y88349D01*
X281478D01*
Y88385D01*
X281586D01*
Y88421D01*
X281694D01*
Y88457D01*
X281803D01*
Y88493D01*
X281911D01*
Y88529D01*
X282019D01*
Y88565D01*
X282091D01*
Y88601D01*
X282199D01*
Y88638D01*
X282307D01*
Y88674D01*
X282379D01*
Y88710D01*
X282487D01*
Y88746D01*
X282559D01*
Y88782D01*
X282632D01*
Y88818D01*
X282704D01*
Y88854D01*
X282812D01*
Y88890D01*
X282884D01*
Y88926D01*
X282956D01*
Y88962D01*
X283028D01*
Y88998D01*
X283100D01*
Y89034D01*
X283172D01*
Y89070D01*
X283244D01*
Y89034D01*
D02*
G37*
G36*
X287246Y74542D02*
X287462D01*
Y74506D01*
X287570D01*
Y74470D01*
X287643D01*
Y74434D01*
X287715D01*
Y74398D01*
X287787D01*
Y74362D01*
X287859D01*
Y74326D01*
X287895D01*
Y74290D01*
X287967D01*
Y74254D01*
X288003D01*
Y74218D01*
X288039D01*
Y74182D01*
X288075D01*
Y74146D01*
X288111D01*
Y74110D01*
X288183D01*
Y74074D01*
X288219D01*
Y74001D01*
X288255D01*
Y73965D01*
X288327D01*
Y73893D01*
X288364D01*
Y73857D01*
X288400D01*
Y73821D01*
X288436D01*
Y73785D01*
X288472D01*
Y73749D01*
X288508D01*
Y73713D01*
X288544D01*
Y73641D01*
X288580D01*
Y73605D01*
X288616D01*
Y73569D01*
X288652D01*
Y73497D01*
X288688D01*
Y73425D01*
X288724D01*
Y73389D01*
X288760D01*
Y73317D01*
X288796D01*
Y73281D01*
X288832D01*
Y73208D01*
X288868D01*
Y73136D01*
X288904D01*
Y73064D01*
X288940D01*
Y73028D01*
X288976D01*
Y72956D01*
X289012D01*
Y72884D01*
X289048D01*
Y72812D01*
X289084D01*
Y72740D01*
X289121D01*
Y72632D01*
X289157D01*
Y72559D01*
X289193D01*
Y72487D01*
X289229D01*
Y72415D01*
X289265D01*
Y72307D01*
X289301D01*
Y72199D01*
X289337D01*
Y72091D01*
X289373D01*
Y72019D01*
X289409D01*
Y71875D01*
X289445D01*
Y71730D01*
X289481D01*
Y71622D01*
X289517D01*
Y71478D01*
X289553D01*
Y71334D01*
X289589D01*
Y71154D01*
X289625D01*
Y70973D01*
X289661D01*
Y70757D01*
X289697D01*
Y70505D01*
X289733D01*
Y70144D01*
X289769D01*
Y68414D01*
X289733D01*
Y68089D01*
X289697D01*
Y67837D01*
X289661D01*
Y67621D01*
X289625D01*
Y67404D01*
X289589D01*
Y67224D01*
X289553D01*
Y67044D01*
X289517D01*
Y66900D01*
X289481D01*
Y66720D01*
X289445D01*
Y66575D01*
X289409D01*
Y66431D01*
X289373D01*
Y66323D01*
X289337D01*
Y66179D01*
X289301D01*
Y65999D01*
X289265D01*
Y65890D01*
X289229D01*
Y65782D01*
X289193D01*
Y65674D01*
X289157D01*
Y65566D01*
X289121D01*
Y65458D01*
X289084D01*
Y65350D01*
X289048D01*
Y65241D01*
X289012D01*
Y65133D01*
X288976D01*
Y65025D01*
X288940D01*
Y64917D01*
X288904D01*
Y64809D01*
X288868D01*
Y64737D01*
X288832D01*
Y64629D01*
X288796D01*
Y64521D01*
X288760D01*
Y64448D01*
X288724D01*
Y64340D01*
X288688D01*
Y64232D01*
X288652D01*
Y64160D01*
X288616D01*
Y64052D01*
X288580D01*
Y63944D01*
X288544D01*
Y63872D01*
X288508D01*
Y63800D01*
X288472D01*
Y63727D01*
X288436D01*
Y63655D01*
X288400D01*
Y63547D01*
X288364D01*
Y63475D01*
X288327D01*
Y63403D01*
X288291D01*
Y63331D01*
X288255D01*
Y63259D01*
X288219D01*
Y63187D01*
X288183D01*
Y63115D01*
X288147D01*
Y63006D01*
X288111D01*
Y62970D01*
X288075D01*
Y62862D01*
X288039D01*
Y62790D01*
X288003D01*
Y62718D01*
X287967D01*
Y62646D01*
X287931D01*
Y62574D01*
X287895D01*
Y62502D01*
X287859D01*
Y62430D01*
X287823D01*
Y62357D01*
X287787D01*
Y62285D01*
X287751D01*
Y62213D01*
X287715D01*
Y62141D01*
X287679D01*
Y62069D01*
X287643D01*
Y62033D01*
X287606D01*
Y61925D01*
X287570D01*
Y61889D01*
X287534D01*
Y61817D01*
X287498D01*
Y61745D01*
X287462D01*
Y61673D01*
X287426D01*
Y61601D01*
X287390D01*
Y61528D01*
X287354D01*
Y61492D01*
X287318D01*
Y61420D01*
X287282D01*
Y61348D01*
X287246D01*
Y61276D01*
X287210D01*
Y61204D01*
X287174D01*
Y61168D01*
X287138D01*
Y61096D01*
X287102D01*
Y61024D01*
X287066D01*
Y60988D01*
X287030D01*
Y60916D01*
X286994D01*
Y60843D01*
X286958D01*
Y60807D01*
X286922D01*
Y60735D01*
X286885D01*
Y60663D01*
X286849D01*
Y60591D01*
X286813D01*
Y60555D01*
X286777D01*
Y60483D01*
X286741D01*
Y60411D01*
X286705D01*
Y60375D01*
X286669D01*
Y60303D01*
X286633D01*
Y60267D01*
X286597D01*
Y60195D01*
X286561D01*
Y60123D01*
X286525D01*
Y60086D01*
X286489D01*
Y60014D01*
X286453D01*
Y59978D01*
X286417D01*
Y59906D01*
X286381D01*
Y59870D01*
X286345D01*
Y59798D01*
X286309D01*
Y59726D01*
X286273D01*
Y59690D01*
X286237D01*
Y59618D01*
X286200D01*
Y59546D01*
X286164D01*
Y59474D01*
X286128D01*
Y59438D01*
X286092D01*
Y59402D01*
X286056D01*
Y59329D01*
X286020D01*
Y59257D01*
X285984D01*
Y59221D01*
X285948D01*
Y59185D01*
X285912D01*
Y59113D01*
X285876D01*
Y59077D01*
X285840D01*
Y59005D01*
X285804D01*
Y58969D01*
X285768D01*
Y58897D01*
X288976D01*
Y58933D01*
X289769D01*
Y58969D01*
X290238D01*
Y59005D01*
X290599D01*
Y59041D01*
X290887D01*
Y59077D01*
X291139D01*
Y59113D01*
X291356D01*
Y59149D01*
X291536D01*
Y59185D01*
X291716D01*
Y59221D01*
X291824D01*
Y59257D01*
X292040D01*
Y59293D01*
X292149D01*
Y59329D01*
X292257D01*
Y59365D01*
X292365D01*
Y59402D01*
X292473D01*
Y59438D01*
X292545D01*
Y59474D01*
X292653D01*
Y59510D01*
X292725D01*
Y59546D01*
X292834D01*
Y59582D01*
X292906D01*
Y59618D01*
X292978D01*
Y59654D01*
X293050D01*
Y59690D01*
X293122D01*
Y59726D01*
X293158D01*
Y59762D01*
X293230D01*
Y59798D01*
X293302D01*
Y59834D01*
X293338D01*
Y59870D01*
X293410D01*
Y59906D01*
X293482D01*
Y59942D01*
X293555D01*
Y59978D01*
X293591D01*
Y60014D01*
X293627D01*
Y60050D01*
X293699D01*
Y60086D01*
X293735D01*
Y60123D01*
X293771D01*
Y60158D01*
X293843D01*
Y60195D01*
X293879D01*
Y60231D01*
X293915D01*
Y60267D01*
X293951D01*
Y60303D01*
X293987D01*
Y60339D01*
X294023D01*
Y60375D01*
X294095D01*
Y60411D01*
X294131D01*
Y60447D01*
X294167D01*
Y60483D01*
X294203D01*
Y60519D01*
X294239D01*
Y60555D01*
X294276D01*
Y60591D01*
X294312D01*
Y60627D01*
X294348D01*
Y60663D01*
X294384D01*
Y60699D01*
X294420D01*
Y60735D01*
X294456D01*
Y60771D01*
X294492D01*
Y60807D01*
X294528D01*
Y60879D01*
X294564D01*
Y60916D01*
X294600D01*
Y60952D01*
X294636D01*
Y60988D01*
X294672D01*
Y61024D01*
X294708D01*
Y61060D01*
X294744D01*
Y61132D01*
X294780D01*
Y61168D01*
X294816D01*
Y61204D01*
X294852D01*
Y61276D01*
X294888D01*
Y61312D01*
X294924D01*
Y61348D01*
X294960D01*
Y61420D01*
X294997D01*
Y61456D01*
X295033D01*
Y61528D01*
X295069D01*
Y61564D01*
X295105D01*
Y61637D01*
X295141D01*
Y61709D01*
X295177D01*
Y61745D01*
X295213D01*
Y61817D01*
X295249D01*
Y61853D01*
X295285D01*
Y61925D01*
X295321D01*
Y61997D01*
X295357D01*
Y62069D01*
X295393D01*
Y62141D01*
X295429D01*
Y62213D01*
X295465D01*
Y62285D01*
X295501D01*
Y62357D01*
X295537D01*
Y62430D01*
X295573D01*
Y62502D01*
X295609D01*
Y62610D01*
X295645D01*
Y62682D01*
X295682D01*
Y62790D01*
X295718D01*
Y62862D01*
X295754D01*
Y62970D01*
X295790D01*
Y63078D01*
X295826D01*
Y63187D01*
X295862D01*
Y63295D01*
X295898D01*
Y63439D01*
X295934D01*
Y63547D01*
X295970D01*
Y63727D01*
X296006D01*
Y63872D01*
X296042D01*
Y64160D01*
X296078D01*
Y64412D01*
X296114D01*
Y64809D01*
X296150D01*
Y65782D01*
X296114D01*
Y66143D01*
X296078D01*
Y66395D01*
X296042D01*
Y66647D01*
X296006D01*
Y66828D01*
X295970D01*
Y66936D01*
X295934D01*
Y67080D01*
X295898D01*
Y67188D01*
X295862D01*
Y67296D01*
X295826D01*
Y67404D01*
X295790D01*
Y67513D01*
X295754D01*
Y67585D01*
X295718D01*
Y67693D01*
X295682D01*
Y67765D01*
X295645D01*
Y67837D01*
X295609D01*
Y67909D01*
X295573D01*
Y67981D01*
X295537D01*
Y68053D01*
X295501D01*
Y68125D01*
X295465D01*
Y68198D01*
X295429D01*
Y68306D01*
X295393D01*
Y68342D01*
X295357D01*
Y68414D01*
X295321D01*
Y68486D01*
X295285D01*
Y68522D01*
X295249D01*
Y68594D01*
X295213D01*
Y68666D01*
X295177D01*
Y68702D01*
X295141D01*
Y68738D01*
X295105D01*
Y68810D01*
X295069D01*
Y68846D01*
X295033D01*
Y68919D01*
X294997D01*
Y68955D01*
X294960D01*
Y68991D01*
X294924D01*
Y69063D01*
X294888D01*
Y69099D01*
X294852D01*
Y69135D01*
X294816D01*
Y69171D01*
X294780D01*
Y69243D01*
X294744D01*
Y69279D01*
X294708D01*
Y69315D01*
X294672D01*
Y69351D01*
X294636D01*
Y69387D01*
X294600D01*
Y69423D01*
X294564D01*
Y69459D01*
X294528D01*
Y69495D01*
X294492D01*
Y69531D01*
X294456D01*
Y69567D01*
X294420D01*
Y69604D01*
X294384D01*
Y69639D01*
X294348D01*
Y69676D01*
X294312D01*
Y69712D01*
X294276D01*
Y69748D01*
X294239D01*
Y69784D01*
X294203D01*
Y69820D01*
X294131D01*
Y69856D01*
X294095D01*
Y69892D01*
X294059D01*
Y69928D01*
X294023D01*
Y69964D01*
X293987D01*
Y70000D01*
X293915D01*
Y70036D01*
X293879D01*
Y70072D01*
X293843D01*
Y70108D01*
X293807D01*
Y70144D01*
X293735D01*
Y70180D01*
X293699D01*
Y70216D01*
X293663D01*
Y70252D01*
X293591D01*
Y70288D01*
X293555D01*
Y70324D01*
X293482D01*
Y70360D01*
X293410D01*
Y70397D01*
X293374D01*
Y70433D01*
X293302D01*
Y70469D01*
X293266D01*
Y70505D01*
X293194D01*
Y70541D01*
X293122D01*
Y70577D01*
X293050D01*
Y70613D01*
X292978D01*
Y70649D01*
X292906D01*
Y70685D01*
X292834D01*
Y70721D01*
X292761D01*
Y70757D01*
X292689D01*
Y70793D01*
X292653D01*
Y70829D01*
X293014D01*
Y70793D01*
X293266D01*
Y70757D01*
X293410D01*
Y70721D01*
X293555D01*
Y70685D01*
X293699D01*
Y70649D01*
X293843D01*
Y70613D01*
X293951D01*
Y70577D01*
X294059D01*
Y70541D01*
X294167D01*
Y70505D01*
X294239D01*
Y70469D01*
X294348D01*
Y70433D01*
X294456D01*
Y70397D01*
X294528D01*
Y70360D01*
X294600D01*
Y70324D01*
X294672D01*
Y70288D01*
X294780D01*
Y70252D01*
X294852D01*
Y70216D01*
X294924D01*
Y70180D01*
X294997D01*
Y70144D01*
X295033D01*
Y70108D01*
X295105D01*
Y70072D01*
X295177D01*
Y70036D01*
X295213D01*
Y70000D01*
X295285D01*
Y69964D01*
X295357D01*
Y69928D01*
X295393D01*
Y69892D01*
X295429D01*
Y69856D01*
X295501D01*
Y69820D01*
X295573D01*
Y69784D01*
X295609D01*
Y69748D01*
X295645D01*
Y69712D01*
X295718D01*
Y69676D01*
X295754D01*
Y69639D01*
X295790D01*
Y69604D01*
X295862D01*
Y69567D01*
X295898D01*
Y69531D01*
X295934D01*
Y69495D01*
X295970D01*
Y69459D01*
X296042D01*
Y69423D01*
X296078D01*
Y69387D01*
X296114D01*
Y69351D01*
X296150D01*
Y69315D01*
X296186D01*
Y69279D01*
X296222D01*
Y69243D01*
X296258D01*
Y69207D01*
X296294D01*
Y69171D01*
X296330D01*
Y69135D01*
X296366D01*
Y69099D01*
X296403D01*
Y69063D01*
X296439D01*
Y69027D01*
X296475D01*
Y68991D01*
X296511D01*
Y68955D01*
X296547D01*
Y68919D01*
X296583D01*
Y68883D01*
X296619D01*
Y68846D01*
X296655D01*
Y68810D01*
X296691D01*
Y68738D01*
X296727D01*
Y68702D01*
X296763D01*
Y68666D01*
X296799D01*
Y68630D01*
X296835D01*
Y68594D01*
X296871D01*
Y68522D01*
X296907D01*
Y68486D01*
X296943D01*
Y68450D01*
X296979D01*
Y68414D01*
X297015D01*
Y68342D01*
X297051D01*
Y68306D01*
X297087D01*
Y68270D01*
X297124D01*
Y68198D01*
X297160D01*
Y68161D01*
X297196D01*
Y68089D01*
X297232D01*
Y68053D01*
X297268D01*
Y67981D01*
X297304D01*
Y67909D01*
X297340D01*
Y67837D01*
X297376D01*
Y67801D01*
X297412D01*
Y67729D01*
X297448D01*
Y67693D01*
X297484D01*
Y67621D01*
X297520D01*
Y67549D01*
X297556D01*
Y67476D01*
X297592D01*
Y67404D01*
X297628D01*
Y67332D01*
X297664D01*
Y67260D01*
X297700D01*
Y67188D01*
X297736D01*
Y67116D01*
X297772D01*
Y67008D01*
X297808D01*
Y66936D01*
X297844D01*
Y66864D01*
X297881D01*
Y66720D01*
X297917D01*
Y66647D01*
X297953D01*
Y66539D01*
X297989D01*
Y66467D01*
X298025D01*
Y66323D01*
X298061D01*
Y66215D01*
X298097D01*
Y66107D01*
X298133D01*
Y65962D01*
X298169D01*
Y65818D01*
X298205D01*
Y65674D01*
X298241D01*
Y65458D01*
X298277D01*
Y65277D01*
X298313D01*
Y64989D01*
X298349D01*
Y64629D01*
X298385D01*
Y63655D01*
X298349D01*
Y63223D01*
X298313D01*
Y62970D01*
X298277D01*
Y62754D01*
X298241D01*
Y62574D01*
X298205D01*
Y62394D01*
X298169D01*
Y62285D01*
X298133D01*
Y62105D01*
X298097D01*
Y61997D01*
X298061D01*
Y61889D01*
X298025D01*
Y61745D01*
X297989D01*
Y61637D01*
X297953D01*
Y61564D01*
X297917D01*
Y61456D01*
X297881D01*
Y61312D01*
X297844D01*
Y61240D01*
X297808D01*
Y61132D01*
X297772D01*
Y61060D01*
X297736D01*
Y60988D01*
X297700D01*
Y60916D01*
X297664D01*
Y60807D01*
X297628D01*
Y60735D01*
X297592D01*
Y60663D01*
X297556D01*
Y60591D01*
X297520D01*
Y60519D01*
X297484D01*
Y60447D01*
X297448D01*
Y60375D01*
X297412D01*
Y60303D01*
X297376D01*
Y60267D01*
X297340D01*
Y60195D01*
X297304D01*
Y60123D01*
X297268D01*
Y60050D01*
X297232D01*
Y60014D01*
X297196D01*
Y59942D01*
X297160D01*
Y59870D01*
X297124D01*
Y59834D01*
X297087D01*
Y59762D01*
X297051D01*
Y59726D01*
X297015D01*
Y59654D01*
X296979D01*
Y59618D01*
X296943D01*
Y59546D01*
X296907D01*
Y59510D01*
X296871D01*
Y59438D01*
X296835D01*
Y59402D01*
X296799D01*
Y59329D01*
X296763D01*
Y59293D01*
X296727D01*
Y59257D01*
X296691D01*
Y59221D01*
X296655D01*
Y59149D01*
X296619D01*
Y59113D01*
X296583D01*
Y59041D01*
X296547D01*
Y59005D01*
X296511D01*
Y58969D01*
X296475D01*
Y58933D01*
X296439D01*
Y58897D01*
X296403D01*
Y58861D01*
X296366D01*
Y58825D01*
X296330D01*
Y58789D01*
X296294D01*
Y58716D01*
X296222D01*
Y58644D01*
X296150D01*
Y58608D01*
X296114D01*
Y58572D01*
X296078D01*
Y58500D01*
X296042D01*
Y58464D01*
X296006D01*
Y58428D01*
X295970D01*
Y58392D01*
X295898D01*
Y58356D01*
X295862D01*
Y58320D01*
X295826D01*
Y58284D01*
X295790D01*
Y58248D01*
X295754D01*
Y58212D01*
X295718D01*
Y58176D01*
X295682D01*
Y58140D01*
X295645D01*
Y58104D01*
X295609D01*
Y58068D01*
X295573D01*
Y58032D01*
X295501D01*
Y57996D01*
X295465D01*
Y57960D01*
X295429D01*
Y57924D01*
X295357D01*
Y57887D01*
X295321D01*
Y57851D01*
X295285D01*
Y57815D01*
X295213D01*
Y57779D01*
X295177D01*
Y57743D01*
X295141D01*
Y57707D01*
X295069D01*
Y57671D01*
X295033D01*
Y57635D01*
X294960D01*
Y57599D01*
X294924D01*
Y57563D01*
X294852D01*
Y57527D01*
X294816D01*
Y57491D01*
X294744D01*
Y57455D01*
X294708D01*
Y57419D01*
X294636D01*
Y57383D01*
X294564D01*
Y57347D01*
X294492D01*
Y57311D01*
X294420D01*
Y57275D01*
X294384D01*
Y57239D01*
X294312D01*
Y57203D01*
X294239D01*
Y57166D01*
X294167D01*
Y57130D01*
X294095D01*
Y57094D01*
X294023D01*
Y57058D01*
X293951D01*
Y57022D01*
X293843D01*
Y56986D01*
X293771D01*
Y56950D01*
X293699D01*
Y56914D01*
X293591D01*
Y56878D01*
X293518D01*
Y56842D01*
X293410D01*
Y56806D01*
X293302D01*
Y56770D01*
X293194D01*
Y56734D01*
X293086D01*
Y56698D01*
X292978D01*
Y56662D01*
X292834D01*
Y56626D01*
X292689D01*
Y56590D01*
X292581D01*
Y56554D01*
X292401D01*
Y56517D01*
X292257D01*
Y56481D01*
X292076D01*
Y56445D01*
X291860D01*
Y56409D01*
X291608D01*
Y56373D01*
X291356D01*
Y56337D01*
X290959D01*
Y56301D01*
X290526D01*
Y56265D01*
X288940D01*
Y56229D01*
X282776D01*
Y56662D01*
X282812D01*
Y57383D01*
X282848D01*
Y58068D01*
X282884D01*
Y58608D01*
X282920D01*
Y59149D01*
X282956D01*
Y59618D01*
X282992D01*
Y60050D01*
X283028D01*
Y60483D01*
X283064D01*
Y60879D01*
X283100D01*
Y61276D01*
X283136D01*
Y61673D01*
X283172D01*
Y62177D01*
X283208D01*
Y62574D01*
X283244D01*
Y62934D01*
X283280D01*
Y63259D01*
X283316D01*
Y63583D01*
X283353D01*
Y63908D01*
X283389D01*
Y64196D01*
X283425D01*
Y64484D01*
X283461D01*
Y64773D01*
X283497D01*
Y65061D01*
X283533D01*
Y65314D01*
X283569D01*
Y65566D01*
X283605D01*
Y65818D01*
X283641D01*
Y66071D01*
X283677D01*
Y66323D01*
X283713D01*
Y66575D01*
X283749D01*
Y66828D01*
X283785D01*
Y67116D01*
X283821D01*
Y67404D01*
X283857D01*
Y67621D01*
X283893D01*
Y67837D01*
X283929D01*
Y68089D01*
X283965D01*
Y68306D01*
X284001D01*
Y68558D01*
X284037D01*
Y68774D01*
X284074D01*
Y68991D01*
X284110D01*
Y69207D01*
X284146D01*
Y69423D01*
X284182D01*
Y69639D01*
X284218D01*
Y69856D01*
X284254D01*
Y70072D01*
X284290D01*
Y70252D01*
X284326D01*
Y70469D01*
X284362D01*
Y70685D01*
X284398D01*
Y70937D01*
X284434D01*
Y71154D01*
X284470D01*
Y71334D01*
X284506D01*
Y71478D01*
X284542D01*
Y71586D01*
X284578D01*
Y71730D01*
X284614D01*
Y71838D01*
X284650D01*
Y71911D01*
X284686D01*
Y72019D01*
X284722D01*
Y72091D01*
X284758D01*
Y72163D01*
X284795D01*
Y72235D01*
X284831D01*
Y72307D01*
X284867D01*
Y72415D01*
X284903D01*
Y72487D01*
X284939D01*
Y72559D01*
X284975D01*
Y72632D01*
X285011D01*
Y72704D01*
X285047D01*
Y72776D01*
X285083D01*
Y72848D01*
X285119D01*
Y72920D01*
X285155D01*
Y72956D01*
X285191D01*
Y73028D01*
X285227D01*
Y73100D01*
X285263D01*
Y73172D01*
X285299D01*
Y73208D01*
X285335D01*
Y73281D01*
X285371D01*
Y73317D01*
X285407D01*
Y73353D01*
X285443D01*
Y73425D01*
X285479D01*
Y73461D01*
X285516D01*
Y73533D01*
X285552D01*
Y73569D01*
X285588D01*
Y73605D01*
X285624D01*
Y73677D01*
X285660D01*
Y73713D01*
X285696D01*
Y73749D01*
X285732D01*
Y73785D01*
X285768D01*
Y73857D01*
X285804D01*
Y73893D01*
X285840D01*
Y73929D01*
X285876D01*
Y73965D01*
X285912D01*
Y74001D01*
X285948D01*
Y74037D01*
X285984D01*
Y74074D01*
X286020D01*
Y74110D01*
X286056D01*
Y74146D01*
X286092D01*
Y74182D01*
X286164D01*
Y74218D01*
X286200D01*
Y74254D01*
X286237D01*
Y74290D01*
X286309D01*
Y74326D01*
X286345D01*
Y74362D01*
X286417D01*
Y74398D01*
X286489D01*
Y74434D01*
X286561D01*
Y74470D01*
X286633D01*
Y74506D01*
X286741D01*
Y74542D01*
X286922D01*
Y74578D01*
X287246D01*
Y74542D01*
D02*
G37*
G36*
X269113Y74506D02*
X269257D01*
Y74470D01*
X269329D01*
Y74434D01*
X269402D01*
Y74398D01*
X269474D01*
Y74362D01*
X269546D01*
Y74326D01*
X269618D01*
Y74290D01*
X269654D01*
Y74254D01*
X269690D01*
Y74218D01*
X269762D01*
Y74182D01*
X269798D01*
Y74146D01*
X269834D01*
Y74110D01*
X269870D01*
Y74074D01*
X269906D01*
Y74037D01*
X269942D01*
Y74001D01*
X269978D01*
Y73965D01*
X270050D01*
Y73929D01*
X270086D01*
Y73857D01*
X270123D01*
Y73821D01*
X270159D01*
Y73785D01*
X270195D01*
Y73749D01*
X270231D01*
Y73713D01*
X270267D01*
Y73677D01*
X270303D01*
Y73605D01*
X270339D01*
Y73569D01*
X270375D01*
Y73497D01*
X270411D01*
Y73461D01*
X270447D01*
Y73425D01*
X270483D01*
Y73353D01*
X270519D01*
Y73317D01*
X270555D01*
Y73244D01*
X270591D01*
Y73208D01*
X270627D01*
Y73136D01*
X270663D01*
Y73064D01*
X270699D01*
Y73028D01*
X270735D01*
Y72956D01*
X270771D01*
Y72884D01*
X270807D01*
Y72848D01*
X270844D01*
Y72776D01*
X270880D01*
Y72704D01*
X270916D01*
Y72632D01*
X270952D01*
Y72559D01*
X270988D01*
Y72487D01*
X271024D01*
Y72415D01*
X271060D01*
Y72343D01*
X271096D01*
Y72271D01*
X271132D01*
Y72163D01*
X271168D01*
Y72127D01*
X271204D01*
Y72019D01*
X271240D01*
Y71911D01*
X271276D01*
Y71803D01*
X271312D01*
Y71730D01*
X271348D01*
Y71586D01*
X271384D01*
Y71478D01*
X271420D01*
Y71334D01*
X271456D01*
Y71190D01*
X271492D01*
Y71009D01*
X271528D01*
Y70865D01*
X271564D01*
Y70577D01*
X271601D01*
Y70360D01*
X271637D01*
Y70144D01*
X271673D01*
Y69928D01*
X271709D01*
Y69712D01*
X271745D01*
Y69495D01*
X271781D01*
Y69279D01*
X271817D01*
Y69063D01*
X271853D01*
Y68846D01*
X271889D01*
Y68630D01*
X271925D01*
Y68414D01*
X271961D01*
Y68198D01*
X271997D01*
Y67981D01*
X272033D01*
Y67729D01*
X272069D01*
Y67513D01*
X272105D01*
Y67260D01*
X272141D01*
Y67044D01*
X272177D01*
Y66720D01*
X272213D01*
Y66467D01*
X272249D01*
Y66215D01*
X272285D01*
Y65962D01*
X272322D01*
Y65674D01*
X272358D01*
Y65386D01*
X272394D01*
Y65097D01*
X272430D01*
Y64809D01*
X272466D01*
Y64556D01*
X272502D01*
Y64304D01*
X272538D01*
Y64016D01*
X272574D01*
Y63691D01*
X272610D01*
Y63367D01*
X272646D01*
Y63006D01*
X272682D01*
Y62682D01*
X272718D01*
Y62357D01*
X272754D01*
Y61997D01*
X272790D01*
Y61492D01*
X272826D01*
Y61096D01*
X272862D01*
Y60663D01*
X272898D01*
Y60195D01*
X272934D01*
Y59690D01*
X272970D01*
Y59185D01*
X273006D01*
Y58644D01*
X273042D01*
Y58068D01*
X273078D01*
Y57419D01*
X273115D01*
Y56626D01*
X273151D01*
Y56229D01*
X267887D01*
Y56265D01*
X267671D01*
Y56301D01*
X267563D01*
Y56337D01*
X267455D01*
Y56373D01*
X267383D01*
Y56409D01*
X267275D01*
Y56445D01*
X267238D01*
Y56481D01*
X267166D01*
Y56517D01*
X267130D01*
Y56554D01*
X267058D01*
Y56590D01*
X267022D01*
Y56626D01*
X266986D01*
Y56662D01*
X266950D01*
Y56698D01*
X266914D01*
Y56734D01*
X266878D01*
Y56770D01*
X266842D01*
Y56806D01*
X266806D01*
Y56842D01*
X266770D01*
Y56878D01*
X266734D01*
Y56950D01*
X266698D01*
Y57022D01*
X266662D01*
Y57130D01*
X266626D01*
Y57203D01*
X266590D01*
Y57455D01*
X266554D01*
Y57743D01*
X266590D01*
Y57887D01*
X266626D01*
Y57996D01*
X266662D01*
Y58104D01*
X266698D01*
Y58176D01*
X266734D01*
Y58248D01*
X266770D01*
Y58284D01*
X266806D01*
Y58320D01*
X266842D01*
Y58356D01*
X266878D01*
Y58392D01*
X266914D01*
Y58428D01*
X266950D01*
Y58464D01*
X266986D01*
Y58500D01*
X267022D01*
Y58536D01*
X267058D01*
Y58572D01*
X267094D01*
Y58608D01*
X267166D01*
Y58644D01*
X267238D01*
Y58680D01*
X267311D01*
Y58716D01*
X267383D01*
Y58753D01*
X267491D01*
Y58789D01*
X267563D01*
Y58825D01*
X267707D01*
Y58861D01*
X269474D01*
Y58897D01*
X270267D01*
Y58933D01*
X270231D01*
Y58969D01*
X270195D01*
Y59041D01*
X270159D01*
Y59077D01*
X270123D01*
Y59149D01*
X270086D01*
Y59185D01*
X270050D01*
Y59257D01*
X270014D01*
Y59293D01*
X269978D01*
Y59329D01*
X269942D01*
Y59402D01*
X269906D01*
Y59474D01*
X269870D01*
Y59510D01*
X269834D01*
Y59582D01*
X269798D01*
Y59618D01*
X269762D01*
Y59690D01*
X269726D01*
Y59762D01*
X269690D01*
Y59798D01*
X269654D01*
Y59834D01*
X269618D01*
Y59906D01*
X269582D01*
Y59942D01*
X269546D01*
Y60014D01*
X269510D01*
Y60086D01*
X269474D01*
Y60123D01*
X269438D01*
Y60195D01*
X269402D01*
Y60231D01*
X269365D01*
Y60303D01*
X269329D01*
Y60375D01*
X269293D01*
Y60411D01*
X269257D01*
Y60483D01*
X269221D01*
Y60519D01*
X269185D01*
Y60591D01*
X269149D01*
Y60627D01*
X269113D01*
Y60699D01*
X269077D01*
Y60771D01*
X269041D01*
Y60843D01*
X269005D01*
Y60916D01*
X268969D01*
Y60952D01*
X268933D01*
Y61024D01*
X268897D01*
Y61060D01*
X268861D01*
Y61132D01*
X268825D01*
Y61168D01*
X268789D01*
Y61240D01*
X268753D01*
Y61312D01*
X268717D01*
Y61384D01*
X268681D01*
Y61456D01*
X268644D01*
Y61492D01*
X268608D01*
Y61564D01*
X268572D01*
Y61637D01*
X268536D01*
Y61709D01*
X268500D01*
Y61781D01*
X268464D01*
Y61817D01*
X268428D01*
Y61889D01*
X268392D01*
Y61961D01*
X268356D01*
Y62033D01*
X268320D01*
Y62105D01*
X268284D01*
Y62177D01*
X268248D01*
Y62249D01*
X268212D01*
Y62322D01*
X268176D01*
Y62357D01*
X268140D01*
Y62430D01*
X268104D01*
Y62502D01*
X268068D01*
Y62574D01*
X268032D01*
Y62646D01*
X267996D01*
Y62718D01*
X267959D01*
Y62790D01*
X267923D01*
Y62862D01*
X267887D01*
Y62934D01*
X267851D01*
Y63006D01*
X267815D01*
Y63078D01*
X267779D01*
Y63187D01*
X267743D01*
Y63259D01*
X267707D01*
Y63331D01*
X267671D01*
Y63403D01*
X267635D01*
Y63475D01*
X267599D01*
Y63547D01*
X267563D01*
Y63619D01*
X267527D01*
Y63727D01*
X267491D01*
Y63800D01*
X267455D01*
Y63872D01*
X267419D01*
Y63944D01*
X267383D01*
Y64052D01*
X267347D01*
Y64124D01*
X267311D01*
Y64232D01*
X267275D01*
Y64340D01*
X267238D01*
Y64412D01*
X267202D01*
Y64521D01*
X267166D01*
Y64593D01*
X267130D01*
Y64701D01*
X267094D01*
Y64773D01*
X267058D01*
Y64881D01*
X267022D01*
Y64989D01*
X266986D01*
Y65061D01*
X266950D01*
Y65169D01*
X266914D01*
Y65277D01*
X266878D01*
Y65386D01*
X266842D01*
Y65494D01*
X266806D01*
Y65602D01*
X266770D01*
Y65710D01*
X266734D01*
Y65818D01*
X266698D01*
Y65962D01*
X266662D01*
Y66107D01*
X266626D01*
Y66251D01*
X266590D01*
Y66359D01*
X266554D01*
Y66503D01*
X266517D01*
Y66647D01*
X266481D01*
Y66792D01*
X266445D01*
Y66972D01*
X266409D01*
Y67116D01*
X266373D01*
Y67296D01*
X266337D01*
Y67513D01*
X266301D01*
Y67693D01*
X266265D01*
Y67981D01*
X266229D01*
Y68198D01*
X266193D01*
Y68666D01*
X266157D01*
Y70072D01*
X266193D01*
Y70469D01*
X266229D01*
Y70721D01*
X266265D01*
Y70937D01*
X266301D01*
Y71118D01*
X266337D01*
Y71298D01*
X266373D01*
Y71442D01*
X266409D01*
Y71586D01*
X266445D01*
Y71730D01*
X266481D01*
Y71838D01*
X266517D01*
Y71983D01*
X266554D01*
Y72091D01*
X266590D01*
Y72163D01*
X266626D01*
Y72271D01*
X266662D01*
Y72379D01*
X266698D01*
Y72487D01*
X266734D01*
Y72596D01*
X266770D01*
Y72668D01*
X266806D01*
Y72740D01*
X266842D01*
Y72812D01*
X266878D01*
Y72884D01*
X266914D01*
Y72956D01*
X266950D01*
Y73028D01*
X266986D01*
Y73100D01*
X267022D01*
Y73172D01*
X267058D01*
Y73244D01*
X267094D01*
Y73281D01*
X267130D01*
Y73353D01*
X267166D01*
Y73389D01*
X267202D01*
Y73461D01*
X267238D01*
Y73497D01*
X267275D01*
Y73569D01*
X267311D01*
Y73605D01*
X267347D01*
Y73677D01*
X267383D01*
Y73713D01*
X267419D01*
Y73749D01*
X267455D01*
Y73785D01*
X267491D01*
Y73857D01*
X267527D01*
Y73893D01*
X267563D01*
Y73929D01*
X267599D01*
Y73965D01*
X267635D01*
Y74001D01*
X267671D01*
Y74037D01*
X267707D01*
Y74074D01*
X267743D01*
Y74110D01*
X267779D01*
Y74146D01*
X267815D01*
Y74182D01*
X267887D01*
Y74254D01*
X267959D01*
Y74290D01*
X267996D01*
Y74326D01*
X268068D01*
Y74362D01*
X268104D01*
Y74398D01*
X268176D01*
Y74434D01*
X268248D01*
Y74470D01*
X268320D01*
Y74506D01*
X268428D01*
Y74542D01*
X269113D01*
Y74506D01*
D02*
G37*
%LPC*%
G36*
X273223Y99849D02*
X273187D01*
Y99741D01*
X273223D01*
Y99705D01*
X273259D01*
Y99669D01*
X273295D01*
Y99633D01*
X273331D01*
Y99597D01*
X273367D01*
Y99560D01*
X273403D01*
Y99488D01*
X273439D01*
Y99452D01*
X273475D01*
Y99416D01*
X273511D01*
Y99380D01*
X273547D01*
Y99344D01*
X273583D01*
Y99272D01*
X273619D01*
Y99236D01*
X273655D01*
Y99200D01*
X273691D01*
Y99164D01*
X273727D01*
Y99128D01*
X273763D01*
Y99056D01*
X273799D01*
Y99020D01*
X273836D01*
Y98984D01*
X273872D01*
Y98948D01*
X273908D01*
Y98912D01*
X273944D01*
Y98876D01*
X273980D01*
Y98839D01*
X274016D01*
Y98804D01*
X274052D01*
Y98767D01*
X274088D01*
Y98731D01*
X274160D01*
Y98695D01*
X274196D01*
Y98659D01*
X274232D01*
Y98623D01*
X274304D01*
Y98587D01*
X274340D01*
Y98551D01*
X274376D01*
Y98515D01*
X274448D01*
Y98479D01*
X274520D01*
Y98443D01*
X274593D01*
Y98407D01*
X274665D01*
Y98371D01*
X274737D01*
Y98335D01*
X274845D01*
Y98299D01*
X274953D01*
Y98263D01*
X275097D01*
Y98227D01*
X275205D01*
Y98191D01*
X275350D01*
Y98155D01*
X275494D01*
Y98119D01*
X275602D01*
Y98083D01*
X275746D01*
Y98046D01*
X275854D01*
Y98010D01*
X275962D01*
Y97974D01*
X276071D01*
Y97938D01*
X276215D01*
Y97902D01*
X276323D01*
Y97866D01*
X276395D01*
Y97902D01*
X276359D01*
Y98010D01*
X276323D01*
Y98083D01*
X276287D01*
Y98155D01*
X276251D01*
Y98227D01*
X276215D01*
Y98299D01*
X276179D01*
Y98371D01*
X276143D01*
Y98407D01*
X276107D01*
Y98479D01*
X276071D01*
Y98551D01*
X276035D01*
Y98623D01*
X275998D01*
Y98659D01*
X275962D01*
Y98731D01*
X275926D01*
Y98767D01*
X275890D01*
Y98839D01*
X275854D01*
Y98876D01*
X275818D01*
Y98948D01*
X275782D01*
Y98984D01*
X275746D01*
Y99020D01*
X275710D01*
Y99056D01*
X275674D01*
Y99092D01*
X275638D01*
Y99128D01*
X275602D01*
Y99164D01*
X275566D01*
Y99200D01*
X275530D01*
Y99236D01*
X275494D01*
Y99272D01*
X275458D01*
Y99308D01*
X275422D01*
Y99344D01*
X275386D01*
Y99380D01*
X275314D01*
Y99416D01*
X275241D01*
Y99452D01*
X275205D01*
Y99488D01*
X275133D01*
Y99524D01*
X275061D01*
Y99560D01*
X274989D01*
Y99597D01*
X274881D01*
Y99633D01*
X274737D01*
Y99669D01*
X274593D01*
Y99705D01*
X274412D01*
Y99741D01*
X274160D01*
Y99777D01*
X273799D01*
Y99813D01*
X273223D01*
Y99849D01*
D02*
G37*
G36*
X282740D02*
X282704D01*
Y99813D01*
X282019D01*
Y99777D01*
X281730D01*
Y99741D01*
X281514D01*
Y99705D01*
X281334D01*
Y99669D01*
X281190D01*
Y99633D01*
X281045D01*
Y99597D01*
X280937D01*
Y99560D01*
X280865D01*
Y99524D01*
X280793D01*
Y99488D01*
X280721D01*
Y99452D01*
X280685D01*
Y99416D01*
X280613D01*
Y99380D01*
X280541D01*
Y99344D01*
X280505D01*
Y99308D01*
X280469D01*
Y99272D01*
X280433D01*
Y99236D01*
X280397D01*
Y99200D01*
X280361D01*
Y99164D01*
X280288D01*
Y99128D01*
X280252D01*
Y99056D01*
X280216D01*
Y99020D01*
X280180D01*
Y98984D01*
X280144D01*
Y98948D01*
X280108D01*
Y98876D01*
X280072D01*
Y98839D01*
X280036D01*
Y98767D01*
X280000D01*
Y98731D01*
X279964D01*
Y98659D01*
X279928D01*
Y98623D01*
X279892D01*
Y98551D01*
X279856D01*
Y98479D01*
X279820D01*
Y98407D01*
X279784D01*
Y98371D01*
X279748D01*
Y98335D01*
Y98299D01*
X279712D01*
Y98227D01*
X279676D01*
Y98155D01*
X279640D01*
Y98083D01*
X279604D01*
Y98010D01*
X279567D01*
Y97938D01*
X279531D01*
Y97830D01*
X279604D01*
Y97866D01*
X279676D01*
Y97902D01*
X279784D01*
Y97938D01*
X279892D01*
Y97974D01*
X280000D01*
Y98010D01*
X280108D01*
Y98046D01*
X280216D01*
Y98083D01*
X280361D01*
Y98119D01*
X280505D01*
Y98155D01*
X280613D01*
Y98191D01*
X280757D01*
Y98227D01*
X280865D01*
Y98263D01*
X280973D01*
Y98299D01*
X281082D01*
Y98335D01*
X281190D01*
Y98371D01*
X281262D01*
Y98407D01*
X281370D01*
Y98443D01*
X281406D01*
Y98479D01*
X281478D01*
Y98515D01*
X281550D01*
Y98551D01*
X281586D01*
Y98587D01*
X281658D01*
Y98623D01*
X281694D01*
Y98659D01*
X281730D01*
Y98695D01*
X281766D01*
Y98731D01*
X281838D01*
Y98767D01*
X281875D01*
Y98804D01*
X281911D01*
Y98839D01*
X281947D01*
Y98876D01*
X281983D01*
Y98912D01*
X282019D01*
Y98948D01*
X282055D01*
Y98984D01*
X282091D01*
Y99020D01*
X282127D01*
Y99056D01*
X282163D01*
Y99092D01*
X282199D01*
Y99128D01*
X282235D01*
Y99164D01*
X282271D01*
Y99236D01*
X282307D01*
Y99272D01*
X282343D01*
Y99308D01*
X282379D01*
Y99344D01*
X282415D01*
Y99380D01*
X282451D01*
Y99416D01*
X282487D01*
Y99452D01*
X282523D01*
Y99524D01*
X282559D01*
Y99560D01*
X282596D01*
Y99597D01*
X282632D01*
Y99633D01*
X282668D01*
Y99669D01*
X282704D01*
Y99741D01*
X282740D01*
Y99777D01*
X282776D01*
Y99813D01*
X282740D01*
Y99849D01*
D02*
G37*
G36*
X278162Y96532D02*
X277729D01*
Y96496D01*
X277585D01*
Y96460D01*
X277477D01*
Y96424D01*
X277368D01*
Y96388D01*
X277296D01*
Y96352D01*
X277188D01*
Y96316D01*
X277116D01*
Y96280D01*
X277080D01*
Y96244D01*
X277116D01*
Y96208D01*
X277224D01*
Y96172D01*
X277296D01*
Y96136D01*
X277368D01*
Y96100D01*
X277404D01*
Y96064D01*
X277477D01*
Y96028D01*
X277513D01*
Y95992D01*
X277585D01*
Y95956D01*
X277621D01*
Y95920D01*
X277657D01*
Y95884D01*
X277693D01*
Y95811D01*
X277729D01*
Y95775D01*
X277765D01*
Y95703D01*
X277801D01*
Y95631D01*
X277837D01*
Y95559D01*
X277873D01*
Y95487D01*
X277909D01*
Y95379D01*
X277945D01*
Y95343D01*
X277981D01*
Y95415D01*
X278017D01*
Y95487D01*
X278053D01*
Y95559D01*
X278089D01*
Y95631D01*
X278125D01*
Y95703D01*
X278162D01*
Y95739D01*
X278198D01*
Y95811D01*
X278234D01*
Y95847D01*
X278270D01*
Y95884D01*
X278306D01*
Y95956D01*
X278378D01*
Y95992D01*
X278414D01*
Y96028D01*
X278450D01*
Y96064D01*
X278486D01*
Y96100D01*
X278558D01*
Y96136D01*
X278630D01*
Y96172D01*
X278702D01*
Y96208D01*
X278810D01*
Y96244D01*
X278846D01*
Y96280D01*
X278774D01*
Y96316D01*
X278702D01*
Y96352D01*
X278630D01*
Y96388D01*
X278558D01*
Y96424D01*
X278450D01*
Y96460D01*
X278378D01*
Y96496D01*
X278162D01*
Y96532D01*
D02*
G37*
%LPD*%
D10*
X127524Y310102D02*
G03*
X127524Y310102I-492J0D01*
G01*
X247374Y187087D02*
G03*
X247374Y187087I-492J0D01*
G01*
X118524Y110976D02*
G03*
X118524Y110976I-492J0D01*
G01*
X129815Y378071D02*
G03*
X129815Y378071I-492J0D01*
G01*
X120815Y177071D02*
G03*
X120815Y177071I-492J0D01*
G01*
X126815Y246071D02*
G03*
X126815Y246071I-492J0D01*
G01*
X46547Y162079D02*
G03*
X46547Y162079I-492J0D01*
G01*
X46700Y216999D02*
G03*
X46700Y216999I-492J0D01*
G01*
X47083Y326173D02*
G03*
X47083Y326173I-492J0D01*
G01*
X46547Y271079D02*
G03*
X46547Y271079I-492J0D01*
G01*
X230610Y237000D02*
G03*
X230610Y237000I-492J0D01*
G01*
X268406Y215882D02*
G03*
X268406Y215882I-492J0D01*
G01*
X237587Y199150D02*
G03*
X237587Y199150I-492J0D01*
G01*
X255980Y29811D02*
G03*
X255980Y29811I-492J0D01*
G01*
X20555Y84980D02*
G03*
X20555Y84980I-492J0D01*
G01*
X143319Y45591D02*
G03*
X143319Y45591I-492J0D01*
G01*
D11*
X222165Y4095D02*
G03*
X222165Y4095I-197J0D01*
G01*
X241165D02*
G03*
X241165Y4095I-197J0D01*
G01*
X155051Y71213D02*
Y72787D01*
X148949Y71213D02*
Y72787D01*
X142606Y249835D02*
X143394D01*
X142606Y254165D02*
X143394D01*
X142213Y143953D02*
X143787D01*
X142213Y137850D02*
X143787D01*
X94835Y90606D02*
Y91394D01*
X99165Y90606D02*
Y91394D01*
X252165Y219606D02*
Y220394D01*
X247835Y219606D02*
Y220394D01*
X142597Y107742D02*
X144172D01*
X142597Y101639D02*
X144172D01*
X150213Y346953D02*
X151787D01*
X150213Y340850D02*
X151787D01*
X148953Y275051D02*
X150528D01*
X148953Y268949D02*
X150528D01*
X150213Y212953D02*
X151787D01*
X150213Y206850D02*
X151787D01*
X114165Y361606D02*
Y362394D01*
X109835Y361606D02*
Y362394D01*
X110165Y292606D02*
Y293394D01*
X105835Y292606D02*
Y293394D01*
X103835Y231756D02*
Y232543D01*
X108165Y231756D02*
Y232543D01*
X133835Y84606D02*
Y85394D01*
X138165Y84606D02*
Y85394D01*
X150606Y349835D02*
X151394D01*
X150606Y354165D02*
X151394D01*
X147606Y278835D02*
X148394D01*
X147606Y283165D02*
X148394D01*
X149606Y214835D02*
X150394D01*
X149606Y219165D02*
X150394D01*
X142606Y147835D02*
X143394D01*
X142606Y152165D02*
X143394D01*
X107165Y158606D02*
Y159394D01*
X102835Y158606D02*
Y159394D01*
X152213Y369047D02*
X153787D01*
X152213Y375150D02*
X153787D01*
X150953Y301949D02*
X152528D01*
X150953Y308051D02*
X152528D01*
X149472Y239949D02*
X151047D01*
X149472Y246051D02*
X151047D01*
X144213Y168047D02*
X145787D01*
X144213Y174150D02*
X145787D01*
X215606Y225835D02*
X216394D01*
X215606Y230165D02*
X216394D01*
X215606Y186835D02*
X216394D01*
X215606Y191165D02*
X216394D01*
X102949Y91213D02*
Y92787D01*
X109051Y91213D02*
Y92787D01*
X141165Y114606D02*
Y115394D01*
X136835Y114606D02*
Y115394D01*
X125051Y361213D02*
Y362787D01*
X118949Y361213D02*
Y362787D01*
X122051Y292213D02*
Y293787D01*
X115949Y292213D02*
Y293787D01*
X120051Y230472D02*
Y232047D01*
X113949Y230472D02*
Y232047D01*
X116051Y159213D02*
Y160787D01*
X109949Y159213D02*
Y160787D01*
X146835Y381606D02*
Y382394D01*
X151165Y381606D02*
Y382394D01*
X142457Y312835D02*
X143244D01*
X142457Y317165D02*
X143244D01*
X138835Y180606D02*
Y181394D01*
X143165Y180606D02*
Y181394D01*
X200835Y195606D02*
Y196394D01*
X205165Y195606D02*
Y196394D01*
X217835Y22606D02*
Y23394D01*
X222165Y22606D02*
Y23394D01*
X194150Y145213D02*
Y146787D01*
X188047Y145213D02*
Y146787D01*
X202953Y145213D02*
Y146787D01*
X196850Y145213D02*
Y146787D01*
X240165Y244606D02*
Y245394D01*
X235835Y244606D02*
Y245394D01*
X215606Y232835D02*
X216394D01*
X215606Y237165D02*
X216394D01*
X258949Y213213D02*
Y214787D01*
X265051Y213213D02*
Y214787D01*
X267835Y205606D02*
Y206394D01*
X272165Y205606D02*
Y206394D01*
X217835Y9606D02*
Y10394D01*
X222165Y9606D02*
Y10394D01*
X254835Y199606D02*
Y200394D01*
X259165Y199606D02*
Y200394D01*
X52047Y123213D02*
Y124787D01*
X58150Y123213D02*
Y124787D01*
X62047Y123213D02*
Y124787D01*
X68150Y123213D02*
Y124787D01*
X252165Y200606D02*
Y201394D01*
X247835Y200606D02*
Y201394D01*
X243051Y189213D02*
Y190787D01*
X236949Y189213D02*
Y190787D01*
X229835Y185606D02*
Y186394D01*
X234165Y185606D02*
Y186394D01*
X236835Y22606D02*
Y23394D01*
X241165Y22606D02*
Y23394D01*
X236835Y9606D02*
Y10394D01*
X241165Y9606D02*
Y10394D01*
X21213Y76047D02*
X22787D01*
X21213Y82150D02*
X22787D01*
X44835Y102606D02*
Y103394D01*
X49165Y102606D02*
Y103394D01*
Y123606D02*
Y124394D01*
X44835Y123606D02*
Y124394D01*
X252606Y188835D02*
X253394D01*
X252606Y193165D02*
X253394D01*
D12*
X230402Y204465D02*
G03*
X230402Y204465I-1181J0D01*
G01*
D13*
X349500Y52500D02*
G03*
X374500Y77500I0J25000D01*
G01*
X159500Y77522D02*
G03*
X179320Y53047I25022J0D01*
G01*
X206670Y392500D02*
G03*
X159500Y345330I0J-47170D01*
G01*
X374500D02*
G03*
X327330Y392500I-47170J0D01*
G01*
X37347Y48685D02*
X39315D01*
Y46716D02*
Y48685D01*
X41284D01*
X39315D02*
Y50654D01*
X214500Y52500D02*
X244500D01*
X309500Y42500D02*
Y122500D01*
X244500D02*
X309500D01*
X244500Y42500D02*
Y122500D01*
Y42500D02*
X309500D01*
Y52500D02*
X349500D01*
X179500Y42500D02*
Y98000D01*
X214500D01*
Y42500D02*
Y98000D01*
X179500Y42500D02*
X214500D01*
X206670Y392500D02*
X327330D01*
X278000Y31394D02*
Y27396D01*
X279999D01*
X280666Y28062D01*
Y30728D01*
X279999Y31394D01*
X278000D01*
X282665Y30061D02*
X283998D01*
X284665Y29395D01*
Y27396D01*
X282665D01*
X281999Y28062D01*
X282665Y28729D01*
X284665D01*
X285997Y30061D02*
Y27396D01*
Y28729D01*
X286664Y29395D01*
X287330Y30061D01*
X287997D01*
X292662D02*
X290663D01*
X289996Y29395D01*
Y28062D01*
X290663Y27396D01*
X292662D01*
X293995Y30061D02*
Y28062D01*
X294661Y27396D01*
X296661D01*
Y26729D01*
X295994Y26063D01*
X295328D01*
X296661Y27396D02*
Y30061D01*
X301992Y31394D02*
Y27396D01*
X303992D01*
X304658Y28062D01*
Y28729D01*
X303992Y29395D01*
X301992D01*
X303992D01*
X304658Y30061D01*
Y30728D01*
X303992Y31394D01*
X301992D01*
X305991Y27396D02*
Y31394D01*
X307324Y30061D01*
X308657Y31394D01*
Y27396D01*
X312655Y30728D02*
X311989Y31394D01*
X310656D01*
X309990Y30728D01*
Y30061D01*
X310656Y29395D01*
X311989D01*
X312655Y28729D01*
Y28062D01*
X311989Y27396D01*
X310656D01*
X309990Y28062D01*
X278000Y18864D02*
Y22863D01*
X279999D01*
X280666Y22197D01*
Y20864D01*
X279999Y20197D01*
X278000D01*
X279333D02*
X280666Y18864D01*
X284665Y22863D02*
X281999D01*
Y18864D01*
X284665D01*
X281999Y20864D02*
X283332D01*
X285997Y21530D02*
X286664D01*
Y20864D01*
X285997D01*
Y21530D01*
Y19531D02*
X286664D01*
Y18864D01*
X285997D01*
Y19531D01*
X293328Y22863D02*
X295994D01*
X294661D01*
Y18864D01*
X297327Y21530D02*
Y19531D01*
X297994Y18864D01*
X299993D01*
Y18198D01*
X299326Y17531D01*
X298660D01*
X299993Y18864D02*
Y21530D01*
X301326Y18864D02*
Y21530D01*
X301992D01*
X302659Y20864D01*
Y18864D01*
Y20864D01*
X303325Y21530D01*
X303992Y20864D01*
Y18864D01*
X305325Y21530D02*
Y19531D01*
X305991Y18864D01*
X307990D01*
Y21530D01*
X309323D02*
Y18864D01*
Y20197D01*
X309990Y20864D01*
X310656Y21530D01*
X311323D01*
X317321Y22863D02*
X319987D01*
X318653D01*
Y18864D01*
X321319D02*
Y22863D01*
Y20197D02*
X323319Y21530D01*
X321319Y20197D02*
X323319Y18864D01*
X325985Y21530D02*
X327317D01*
X327984Y20864D01*
Y18864D01*
X325985D01*
X325318Y19531D01*
X325985Y20197D01*
X327984D01*
X331983Y21530D02*
X329983D01*
X329317Y20864D01*
Y19531D01*
X329983Y18864D01*
X331983D01*
X333315Y22863D02*
Y18864D01*
Y20864D01*
X333982Y21530D01*
X335315D01*
X335981Y20864D01*
Y18864D01*
X339314D02*
X337981D01*
X337314Y19531D01*
Y20864D01*
X337981Y21530D01*
X339314D01*
X339980Y20864D01*
Y20197D01*
X337314D01*
X341313Y18864D02*
Y21530D01*
X343312D01*
X343979Y20864D01*
Y18864D01*
X345312D02*
Y22863D01*
Y20197D02*
X347311Y21530D01*
X345312Y20197D02*
X347311Y18864D01*
X349977D02*
X351310D01*
X351976Y19531D01*
Y20864D01*
X351310Y21530D01*
X349977D01*
X349310Y20864D01*
Y19531D01*
X349977Y18864D01*
X278000Y10333D02*
Y14332D01*
X279999D01*
X280666Y13665D01*
Y12332D01*
X279999Y11666D01*
X278000D01*
X284665Y13665D02*
X283998Y14332D01*
X282665D01*
X281999Y13665D01*
Y10999D01*
X282665Y10333D01*
X283998D01*
X284665Y10999D01*
X285997Y14332D02*
Y10333D01*
X287997D01*
X288663Y10999D01*
Y11666D01*
X287997Y12332D01*
X285997D01*
X287997D01*
X288663Y12999D01*
Y13665D01*
X287997Y14332D01*
X285997D01*
X289996Y12999D02*
X290663D01*
Y12332D01*
X289996D01*
Y12999D01*
Y10999D02*
X290663D01*
Y10333D01*
X289996D01*
Y10999D01*
X297327Y10333D02*
Y14332D01*
X299326D01*
X299993Y13665D01*
Y12332D01*
X299326Y11666D01*
X297327D01*
X301326Y12999D02*
Y10333D01*
Y11666D01*
X301992Y12332D01*
X302659Y12999D01*
X303325D01*
X305991D02*
X307324D01*
X307990Y12332D01*
Y10333D01*
X305991D01*
X305325Y10999D01*
X305991Y11666D01*
X307990D01*
X309990Y13665D02*
Y12999D01*
X309323D01*
X310656D01*
X309990D01*
Y10999D01*
X310656Y10333D01*
X312655Y14332D02*
Y10333D01*
Y12332D01*
X313322Y12999D01*
X314655D01*
X315321Y12332D01*
Y10333D01*
X317321Y12999D02*
X318653D01*
X319320Y12332D01*
Y10333D01*
X317321D01*
X316654Y10999D01*
X317321Y11666D01*
X319320D01*
X320653Y10333D02*
Y12999D01*
X321319D01*
X321986Y12332D01*
Y10333D01*
Y12332D01*
X322652Y12999D01*
X323319Y12332D01*
Y10333D01*
X328650Y14332D02*
X329983D01*
X329317D01*
Y10333D01*
X328650D01*
X329983D01*
X331983D02*
Y12999D01*
X333982D01*
X334648Y12332D01*
Y10333D01*
X337314Y9000D02*
X337981D01*
X338647Y9667D01*
Y12999D01*
X336648D01*
X335981Y12332D01*
Y10999D01*
X336648Y10333D01*
X338647D01*
X340647Y12999D02*
X341979D01*
X342646Y12332D01*
Y10333D01*
X340647D01*
X339980Y10999D01*
X340647Y11666D01*
X342646D01*
X343979Y10333D02*
X345312D01*
X344645D01*
Y14332D01*
X343979D01*
X349310Y10333D02*
X347977D01*
X347311Y10999D01*
Y12332D01*
X347977Y12999D01*
X349310D01*
X349977Y12332D01*
Y11666D01*
X347311D01*
D14*
X94665Y122724D02*
Y124693D01*
X115335D01*
Y110913D02*
Y124693D01*
X94665Y110913D02*
X115335D01*
X94665D02*
Y122724D01*
X128606Y293961D02*
X140811D01*
X128606Y310102D02*
X140811D01*
X250031Y186102D02*
X253969D01*
X250031Y173898D02*
X253969D01*
X250031D02*
Y186102D01*
X253969Y173898D02*
Y186102D01*
X120425Y90315D02*
X123575D01*
X120425Y79685D02*
X123575D01*
X141315Y330425D02*
Y333575D01*
X130685Y330425D02*
Y333575D01*
X140315Y263425D02*
Y266575D01*
X129685Y263425D02*
Y266575D01*
X133425Y206315D02*
X136575D01*
X133425Y195685D02*
X136575D01*
X135315Y132425D02*
Y135575D01*
X124685Y132425D02*
Y135575D01*
X130685Y349425D02*
Y352575D01*
X141315Y349425D02*
Y352575D01*
X129685Y282425D02*
Y285575D01*
X140315Y282425D02*
Y285575D01*
X130685Y217425D02*
Y220575D01*
X141315Y217425D02*
Y220575D01*
X124685Y149425D02*
Y152575D01*
X135315Y149425D02*
Y152575D01*
X116543Y385032D02*
Y388968D01*
X109457Y385032D02*
Y388968D01*
X119543Y315032D02*
Y318969D01*
X112457Y315032D02*
Y318969D01*
X111031Y249457D02*
X114969D01*
X111031Y256543D02*
X114969D01*
X114543Y186031D02*
Y189969D01*
X107457Y186031D02*
Y189969D01*
X119606Y94835D02*
X131811D01*
X119606Y110976D02*
X131811D01*
X130898Y361929D02*
X143102D01*
X130898Y378071D02*
X143102D01*
X121898Y160929D02*
X134102D01*
X121898Y177071D02*
X134102D01*
X127898Y229929D02*
X140102D01*
X127898Y246071D02*
X140102D01*
X216315Y142425D02*
Y145575D01*
X205685Y142425D02*
Y145575D01*
X42118Y153220D02*
Y162669D01*
X2748Y159126D02*
Y186685D01*
X42118Y182748D02*
Y192197D01*
X2748Y159126D02*
X7669Y154205D01*
X2748Y186685D02*
X7669Y191606D01*
X42271Y208140D02*
Y217589D01*
X2901Y214046D02*
Y241605D01*
X42271Y237668D02*
Y247117D01*
X2901Y214046D02*
X7822Y209125D01*
X2901Y241605D02*
X7822Y246526D01*
X42654Y317315D02*
Y326764D01*
X3283Y323220D02*
Y350780D01*
X42654Y346843D02*
Y356291D01*
X3283Y323220D02*
X8205Y318299D01*
X3283Y350780D02*
X8205Y355701D01*
X42118Y262221D02*
Y271669D01*
X2748Y268126D02*
Y295685D01*
X42118Y291748D02*
Y301197D01*
X2748Y268126D02*
X7669Y263205D01*
X2748Y295685D02*
X7669Y300606D01*
X98854Y203134D02*
X122083D01*
X98854Y222827D02*
X122083D01*
X80601Y197551D02*
Y200406D01*
Y197551D02*
X83160D01*
X80601Y206114D02*
Y208968D01*
X83160D01*
X78601Y214551D02*
Y217406D01*
Y214551D02*
X81160D01*
X78601Y223114D02*
Y225969D01*
X81160D01*
X72232Y250366D02*
X95461D01*
X72232Y230673D02*
X95461D01*
X76232Y313366D02*
X99461D01*
X76232Y293673D02*
X99461D01*
X99854Y265134D02*
X123083D01*
X99854Y284827D02*
X123083D01*
X80281Y277291D02*
Y280146D01*
Y277291D02*
X82841D01*
X80281Y285854D02*
Y288709D01*
X82841D01*
X82600Y260551D02*
Y263405D01*
Y260551D02*
X85159D01*
X82600Y269114D02*
Y271969D01*
X85159D01*
X93539Y129634D02*
X116768D01*
X93539Y149327D02*
X116768D01*
X77917Y380866D02*
X101146D01*
X77917Y361173D02*
X101146D01*
X89854Y327281D02*
X92709D01*
Y329840D01*
X81291Y327281D02*
X84146D01*
X81291D02*
Y329840D01*
X82281Y342291D02*
Y345146D01*
Y342291D02*
X84841D01*
X82281Y350854D02*
Y353709D01*
X84841D01*
X99634Y333134D02*
X122862D01*
X99634Y352827D02*
X122862D01*
X75281Y145291D02*
Y148146D01*
Y145291D02*
X77841D01*
X75281Y153854D02*
Y156709D01*
X77841D01*
X83854Y127281D02*
X86709D01*
Y129841D01*
X75291Y127281D02*
X78146D01*
X75291D02*
Y129841D01*
X38780Y112827D02*
Y141173D01*
X11220Y112827D02*
Y141173D01*
Y112827D02*
X38780D01*
X11220Y141173D02*
X38780D01*
X65138Y88173D02*
X88366D01*
X65138Y107866D02*
X88366D01*
X83539Y47634D02*
X106768D01*
X83539Y67327D02*
X106768D01*
X38331Y9118D02*
Y42779D01*
Y9118D02*
X49354D01*
X68646D02*
X79669D01*
Y42779D01*
X44433Y48882D02*
X49354D01*
X38331Y42779D02*
X44433Y48882D01*
X73567D02*
X79669Y42779D01*
X68646Y48882D02*
X73567D01*
X219685Y142425D02*
Y145575D01*
X230315Y142425D02*
Y145575D01*
X223524Y237996D02*
X226476D01*
X221555Y242917D02*
Y245083D01*
X223524Y250004D02*
X226476D01*
X268898Y219032D02*
Y222969D01*
X281102Y219032D02*
Y222969D01*
X268898Y219032D02*
X281102D01*
X268898Y222969D02*
X281102D01*
X261665Y184724D02*
Y186693D01*
X282335D01*
Y172913D02*
Y186693D01*
X261665Y172913D02*
X282335D01*
X261665D02*
Y184724D01*
X75138Y162173D02*
X98366D01*
X75138Y181866D02*
X98366D01*
X64600Y82968D02*
X67159D01*
X64600Y80114D02*
Y82968D01*
Y71551D02*
X67159D01*
X64600D02*
Y74405D01*
X66551Y57600D02*
Y60159D01*
Y57600D02*
X69406D01*
X77969D02*
Y60159D01*
X75114Y57600D02*
X77969D01*
X233157Y200528D02*
Y217063D01*
X216622Y200528D02*
Y217063D01*
Y200528D02*
X233157D01*
X216622Y217063D02*
X233157D01*
X255095Y8945D02*
Y27055D01*
X266905Y8945D02*
Y27055D01*
X255095Y8945D02*
X256079D01*
X255095Y27055D02*
X256079D01*
X265921Y8945D02*
X266905D01*
X265921Y27055D02*
X266905D01*
X47425Y66315D02*
X50575D01*
X47425Y55685D02*
X50575D01*
X19563Y86980D02*
X22063D01*
X19563D02*
Y89480D01*
Y101386D02*
Y103980D01*
X22158D01*
X33968D02*
X36563D01*
Y101386D02*
Y103980D01*
X33968Y86980D02*
X36563D01*
Y89575D01*
X41425Y82315D02*
X44575D01*
X41425Y71685D02*
X44575D01*
X113299Y7205D02*
X118220Y2283D01*
X145780D02*
X150701Y7205D01*
X112709Y41653D02*
X122158D01*
X118220Y2283D02*
X145780D01*
X142236Y41653D02*
X151685D01*
D15*
X252681Y205823D02*
Y208822D01*
X254181D01*
X254680Y208322D01*
Y207322D01*
X254181Y206823D01*
X252681D01*
X253681D02*
X254680Y205823D01*
X255680Y208322D02*
X256180Y208822D01*
X257180D01*
X257680Y208322D01*
Y207822D01*
X257180Y207322D01*
X256680D01*
X257180D01*
X257680Y206823D01*
Y206323D01*
X257180Y205823D01*
X256180D01*
X255680Y206323D01*
X8500Y94000D02*
X8000Y94499D01*
X7001D01*
X6501Y94000D01*
Y92000D01*
X7001Y91501D01*
X8000D01*
X8500Y92000D01*
X9500Y94499D02*
X11499D01*
Y94000D01*
X9500Y92000D01*
Y91501D01*
X140251Y71500D02*
Y74499D01*
X141751D01*
X142251Y74000D01*
Y73000D01*
X141751Y72500D01*
X140251D01*
X141251D02*
X142251Y71500D01*
X143250D02*
X144250D01*
X143750D01*
Y74499D01*
X143250Y74000D01*
X147749Y74499D02*
X145749D01*
Y73000D01*
X146749Y73500D01*
X147249D01*
X147749Y73000D01*
Y72000D01*
X147249Y71500D01*
X146249D01*
X145749Y72000D01*
X131749Y92500D02*
Y89500D01*
X130249D01*
X129749Y90000D01*
Y91000D01*
X130249Y91500D01*
X131749D01*
X130749D02*
X129749Y92500D01*
X128750D02*
X127750D01*
X128250D01*
Y89500D01*
X128750Y90000D01*
X124251Y89500D02*
X125251Y90000D01*
X126251Y91000D01*
Y92000D01*
X125751Y92500D01*
X124751D01*
X124251Y92000D01*
Y91500D01*
X124751Y91000D01*
X126251D01*
X139251Y88500D02*
Y91500D01*
X140751D01*
X141251Y91000D01*
Y90000D01*
X140751Y89500D01*
X139251D01*
X140251D02*
X141251Y88500D01*
X142250D02*
X143250D01*
X142750D01*
Y91500D01*
X142250Y91000D01*
X144749D02*
X145249Y91500D01*
X146249D01*
X146749Y91000D01*
Y90500D01*
X146249Y90000D01*
X146749Y89500D01*
Y89000D01*
X146249Y88500D01*
X145249D01*
X144749Y89000D01*
Y89500D01*
X145249Y90000D01*
X144749Y90500D01*
Y91000D01*
X145249Y90000D02*
X146249D01*
X157498Y367250D02*
Y364251D01*
X155998D01*
X155499Y364750D01*
Y365750D01*
X155998Y366250D01*
X157498D01*
X156498D02*
X155499Y367250D01*
X152499D02*
X154499D01*
X152499Y365250D01*
Y364750D01*
X152999Y364251D01*
X153999D01*
X154499Y364750D01*
X151500D02*
X151000Y364251D01*
X150000D01*
X149501Y364750D01*
Y365250D01*
X150000Y365750D01*
X150500D01*
X150000D01*
X149501Y366250D01*
Y366750D01*
X150000Y367250D01*
X151000D01*
X151500Y366750D01*
X148501Y367749D02*
X146502D01*
X145502Y367250D02*
X144502D01*
X145002D01*
Y364251D01*
X145502Y364750D01*
X142002Y275750D02*
Y278749D01*
X143502D01*
X144002Y278250D01*
Y277250D01*
X143502Y276750D01*
X142002D01*
X143002D02*
X144002Y275750D01*
X147001D02*
X145001D01*
X147001Y277750D01*
Y278250D01*
X146501Y278749D01*
X145501D01*
X145001Y278250D01*
X148000D02*
X148500Y278749D01*
X149500D01*
X150000Y278250D01*
Y277750D01*
X149500Y277250D01*
X149000D01*
X149500D01*
X150000Y276750D01*
Y276250D01*
X149500Y275750D01*
X148500D01*
X148000Y276250D01*
X150999Y275251D02*
X152999D01*
X155998Y275750D02*
X153998D01*
X155998Y277750D01*
Y278250D01*
X155498Y278749D01*
X154498D01*
X153998Y278250D01*
X144250Y207002D02*
X141251D01*
Y208502D01*
X141750Y209002D01*
X142750D01*
X143250Y208502D01*
Y207002D01*
Y208002D02*
X144250Y209002D01*
Y212001D02*
Y210001D01*
X142250Y212001D01*
X141750D01*
X141251Y211501D01*
Y210501D01*
X141750Y210001D01*
Y213000D02*
X141251Y213500D01*
Y214500D01*
X141750Y215000D01*
X142250D01*
X142750Y214500D01*
Y214000D01*
Y214500D01*
X143250Y215000D01*
X143750D01*
X144250Y214500D01*
Y213500D01*
X143750Y213000D01*
X144749Y215999D02*
Y217999D01*
X141750Y218998D02*
X141251Y219498D01*
Y220498D01*
X141750Y220998D01*
X142250D01*
X142750Y220498D01*
Y219998D01*
Y220498D01*
X143250Y220998D01*
X143750D01*
X144250Y220498D01*
Y219498D01*
X143750Y218998D01*
X130750Y163998D02*
X133749D01*
Y162498D01*
X133250Y161998D01*
X132250D01*
X131750Y162498D01*
Y163998D01*
Y162998D02*
X130750Y161998D01*
Y158999D02*
Y160999D01*
X132750Y158999D01*
X133250D01*
X133749Y159499D01*
Y160499D01*
X133250Y160999D01*
Y158000D02*
X133749Y157500D01*
Y156500D01*
X133250Y156000D01*
X132750D01*
X132250Y156500D01*
Y157000D01*
Y156500D01*
X131750Y156000D01*
X131250D01*
X130750Y156500D01*
Y157500D01*
X131250Y158000D01*
X130251Y155001D02*
Y153001D01*
X130750Y150502D02*
X133749D01*
X132250Y152002D01*
Y150002D01*
X143502Y355750D02*
Y358749D01*
X145002D01*
X145501Y358250D01*
Y357250D01*
X145002Y356750D01*
X143502D01*
X144502D02*
X145501Y355750D01*
X148501D02*
X146501D01*
X148501Y357750D01*
Y358250D01*
X148001Y358749D01*
X147001D01*
X146501Y358250D01*
X151499Y358749D02*
X149500D01*
Y357250D01*
X150500Y357750D01*
X151000D01*
X151499Y357250D01*
Y356250D01*
X151000Y355750D01*
X150000D01*
X149500Y356250D01*
X152499Y355251D02*
X154499D01*
X155498Y355750D02*
X156498D01*
X155998D01*
Y358749D01*
X155498Y358250D01*
X140002Y289750D02*
Y292749D01*
X141502D01*
X142002Y292250D01*
Y291250D01*
X141502Y290750D01*
X140002D01*
X141002D02*
X142002Y289750D01*
X145001D02*
X143001D01*
X145001Y291750D01*
Y292250D01*
X144501Y292749D01*
X143501D01*
X143001Y292250D01*
X148000Y292749D02*
X146000D01*
Y291250D01*
X147000Y291750D01*
X147500D01*
X148000Y291250D01*
Y290250D01*
X147500Y289750D01*
X146500D01*
X146000Y290250D01*
X148999Y289251D02*
X150999D01*
X153998Y289750D02*
X151998D01*
X153998Y291750D01*
Y292250D01*
X153498Y292749D01*
X152498D01*
X151998Y292250D01*
X142002Y221750D02*
Y224749D01*
X143502D01*
X144002Y224250D01*
Y223250D01*
X143502Y222750D01*
X142002D01*
X143002D02*
X144002Y221750D01*
X147001D02*
X145001D01*
X147001Y223750D01*
Y224250D01*
X146501Y224749D01*
X145501D01*
X145001Y224250D01*
X150000Y224749D02*
X148000D01*
Y223250D01*
X149000Y223750D01*
X149500D01*
X150000Y223250D01*
Y222250D01*
X149500Y221750D01*
X148500D01*
X148000Y222250D01*
X150999Y221251D02*
X152999D01*
X153998Y224250D02*
X154498Y224749D01*
X155498D01*
X155998Y224250D01*
Y223750D01*
X155498Y223250D01*
X154998D01*
X155498D01*
X155998Y222750D01*
Y222250D01*
X155498Y221750D01*
X154498D01*
X153998Y222250D01*
X151250Y153002D02*
X148251D01*
Y154502D01*
X148750Y155002D01*
X149750D01*
X150250Y154502D01*
Y153002D01*
Y154002D02*
X151250Y155002D01*
Y158001D02*
Y156001D01*
X149250Y158001D01*
X148750D01*
X148251Y157501D01*
Y156501D01*
X148750Y156001D01*
X148251Y161000D02*
Y159000D01*
X149750D01*
X149250Y160000D01*
Y160500D01*
X149750Y161000D01*
X150750D01*
X151250Y160500D01*
Y159500D01*
X150750Y159000D01*
X151749Y161999D02*
Y163999D01*
X151250Y166498D02*
X148251D01*
X149750Y164998D01*
Y166998D01*
X233501Y221499D02*
Y219000D01*
X234001Y218500D01*
X235000D01*
X235500Y219000D01*
Y221499D01*
X236500D02*
X238499D01*
Y221000D01*
X236500Y219000D01*
Y218500D01*
X221501Y254500D02*
Y252000D01*
X222001Y251501D01*
X223000D01*
X223500Y252000D01*
Y254500D01*
X224500Y254000D02*
X225000Y254500D01*
X225999D01*
X226499Y254000D01*
Y253500D01*
X225999Y253000D01*
X225500D01*
X225999D01*
X226499Y252500D01*
Y252000D01*
X225999Y251501D01*
X225000D01*
X224500Y252000D01*
X211501Y19500D02*
Y22500D01*
X213000D01*
X213500Y22000D01*
Y21000D01*
X213000Y20500D01*
X211501D01*
X212501D02*
X213500Y19500D01*
X214500Y22500D02*
X216499D01*
Y22000D01*
X214500Y20000D01*
Y19500D01*
X210501Y10499D02*
Y7501D01*
X212000D01*
X212500Y8000D01*
Y10000D01*
X212000Y10499D01*
X210501D01*
X215499Y7501D02*
X213500D01*
X215499Y9500D01*
Y10000D01*
X214999Y10499D01*
X214000D01*
X213500Y10000D01*
X197000Y193001D02*
X196501Y192501D01*
Y191501D01*
X197000Y191001D01*
X199000D01*
X199499Y191501D01*
Y192501D01*
X199000Y193001D01*
X197000Y194000D02*
X196501Y194500D01*
Y195500D01*
X197000Y196000D01*
X197500D01*
X198000Y195500D01*
Y195000D01*
Y195500D01*
X198500Y196000D01*
X199000D01*
X199499Y195500D01*
Y194500D01*
X199000Y194000D01*
X199499Y198999D02*
Y196999D01*
X197500Y198999D01*
X197000D01*
X196501Y198499D01*
Y197499D01*
X197000Y196999D01*
X210501Y195000D02*
X210001Y195500D01*
X209001D01*
X208501Y195000D01*
Y193000D01*
X209001Y192500D01*
X210001D01*
X210501Y193000D01*
X211500Y195000D02*
X212000Y195500D01*
X213000D01*
X213499Y195000D01*
Y194500D01*
X213000Y194000D01*
X212500D01*
X213000D01*
X213499Y193500D01*
Y193000D01*
X213000Y192500D01*
X212000D01*
X211500Y193000D01*
X214499Y192500D02*
X215499D01*
X214999D01*
Y195500D01*
X214499Y195000D01*
X204001Y229000D02*
X203501Y229500D01*
X202501D01*
X202001Y229000D01*
Y227000D01*
X202501Y226501D01*
X203501D01*
X204001Y227000D01*
X205000Y229000D02*
X205500Y229500D01*
X206500D01*
X207000Y229000D01*
Y228500D01*
X206500Y228000D01*
X206000D01*
X206500D01*
X207000Y227500D01*
Y227000D01*
X206500Y226501D01*
X205500D01*
X205000Y227000D01*
X207999Y229000D02*
X208499Y229500D01*
X209499D01*
X209999Y229000D01*
Y227000D01*
X209499Y226501D01*
X208499D01*
X207999Y227000D01*
Y229000D01*
X211251Y241000D02*
X210751Y241499D01*
X209751D01*
X209251Y241000D01*
Y239000D01*
X209751Y238500D01*
X210751D01*
X211251Y239000D01*
X212250Y238500D02*
X213250D01*
X212750D01*
Y241499D01*
X212250Y241000D01*
X214749Y241499D02*
X216749D01*
Y241000D01*
X214749Y239000D01*
Y238500D01*
X122502Y182749D02*
Y180250D01*
X123002Y179750D01*
X124001D01*
X124501Y180250D01*
Y182749D01*
X127500D02*
X126500Y182250D01*
X125501Y181250D01*
Y180250D01*
X126001Y179750D01*
X127000D01*
X127500Y180250D01*
Y180750D01*
X127000Y181250D01*
X125501D01*
X128500Y179251D02*
X130499D01*
X132998Y179750D02*
Y182749D01*
X131499Y181250D01*
X133498D01*
X125502Y250749D02*
Y248250D01*
X126002Y247750D01*
X127001D01*
X127501Y248250D01*
Y250749D01*
X130500D02*
X129500Y250250D01*
X128501Y249250D01*
Y248250D01*
X129001Y247750D01*
X130000D01*
X130500Y248250D01*
Y248750D01*
X130000Y249250D01*
X128501D01*
X131500Y247251D02*
X133499D01*
X134499Y250250D02*
X134999Y250749D01*
X135998D01*
X136498Y250250D01*
Y249750D01*
X135998Y249250D01*
X135499D01*
X135998D01*
X136498Y248750D01*
Y248250D01*
X135998Y247750D01*
X134999D01*
X134499Y248250D01*
X125502Y315749D02*
Y313250D01*
X126002Y312750D01*
X127001D01*
X127501Y313250D01*
Y315749D01*
X130500D02*
X129500Y315250D01*
X128501Y314250D01*
Y313250D01*
X129001Y312750D01*
X130000D01*
X130500Y313250D01*
Y313750D01*
X130000Y314250D01*
X128501D01*
X131500Y312251D02*
X133499D01*
X136498Y312750D02*
X134499D01*
X136498Y314750D01*
Y315250D01*
X135998Y315749D01*
X134999D01*
X134499Y315250D01*
X120002Y383749D02*
Y381250D01*
X120501Y380750D01*
X121501D01*
X122001Y381250D01*
Y383749D01*
X125000D02*
X124000Y383250D01*
X123001Y382250D01*
Y381250D01*
X123501Y380750D01*
X124500D01*
X125000Y381250D01*
Y381750D01*
X124500Y382250D01*
X123001D01*
X126000Y380251D02*
X127999D01*
X128999Y380750D02*
X129998D01*
X129499D01*
Y383749D01*
X128999Y383250D01*
X118501Y116499D02*
Y114000D01*
X119001Y113500D01*
X120000D01*
X120500Y114000D01*
Y116499D01*
X123499D02*
X121500D01*
Y115000D01*
X122500Y115500D01*
X122999D01*
X123499Y115000D01*
Y114000D01*
X122999Y113500D01*
X122000D01*
X121500Y114000D01*
X283501Y222499D02*
Y220000D01*
X284001Y219500D01*
X285000D01*
X285500Y220000D01*
Y222499D01*
X287999Y219500D02*
Y222499D01*
X286500Y221000D01*
X288499D01*
X12501Y104499D02*
Y102000D01*
X13001Y101500D01*
X14000D01*
X14500Y102000D01*
Y104499D01*
X17499Y101500D02*
X15500D01*
X17499Y103500D01*
Y104000D01*
X16999Y104499D01*
X16000D01*
X15500Y104000D01*
X265499Y178999D02*
X263000D01*
X262501Y178499D01*
Y177500D01*
X263000Y177000D01*
X265499D01*
X262501Y176000D02*
Y175001D01*
Y175501D01*
X265499D01*
X265000Y176000D01*
X157250Y152002D02*
X154251D01*
Y153502D01*
X154750Y154002D01*
X155750D01*
X156250Y153502D01*
Y152002D01*
Y153002D02*
X157250Y154002D01*
Y157001D02*
Y155001D01*
X155250Y157001D01*
X154750D01*
X154251Y156501D01*
Y155501D01*
X154750Y155001D01*
X154251Y158000D02*
Y160000D01*
X154750D01*
X156750Y158000D01*
X157250D01*
X157749Y160999D02*
Y162999D01*
X157250Y165498D02*
X154251D01*
X155750Y163998D01*
Y165998D01*
X142002Y226750D02*
Y229749D01*
X143502D01*
X144002Y229250D01*
Y228250D01*
X143502Y227750D01*
X142002D01*
X143002D02*
X144002Y226750D01*
X147001D02*
X145001D01*
X147001Y228750D01*
Y229250D01*
X146501Y229749D01*
X145501D01*
X145001Y229250D01*
X148000Y229749D02*
X150000D01*
Y229250D01*
X148000Y227250D01*
Y226750D01*
X150999Y226251D02*
X152999D01*
X153998Y229250D02*
X154498Y229749D01*
X155498D01*
X155998Y229250D01*
Y228750D01*
X155498Y228250D01*
X154998D01*
X155498D01*
X155998Y227750D01*
Y227250D01*
X155498Y226750D01*
X154498D01*
X153998Y227250D01*
X141002Y284750D02*
Y287749D01*
X142502D01*
X143002Y287250D01*
Y286250D01*
X142502Y285750D01*
X141002D01*
X142002D02*
X143002Y284750D01*
X146001D02*
X144001D01*
X146001Y286750D01*
Y287250D01*
X145501Y287749D01*
X144501D01*
X144001Y287250D01*
X147000Y287749D02*
X149000D01*
Y287250D01*
X147000Y285250D01*
Y284750D01*
X149999Y284251D02*
X151999D01*
X154998Y284750D02*
X152998D01*
X154998Y286750D01*
Y287250D01*
X154498Y287749D01*
X153498D01*
X152998Y287250D01*
X164250Y370502D02*
X161251D01*
Y372002D01*
X161750Y372501D01*
X162750D01*
X163250Y372002D01*
Y370502D01*
Y371502D02*
X164250Y372501D01*
Y375500D02*
Y373501D01*
X162250Y375500D01*
X161750D01*
X161251Y375001D01*
Y374001D01*
X161750Y373501D01*
X161251Y376500D02*
Y378500D01*
X161750D01*
X163750Y376500D01*
X164250D01*
X164749Y379499D02*
Y381499D01*
X164250Y382498D02*
Y383498D01*
Y382998D01*
X161251D01*
X161750Y382498D01*
X145002Y183750D02*
Y186749D01*
X146502D01*
X147002Y186250D01*
Y185250D01*
X146502Y184750D01*
X145002D01*
X146002D02*
X147002Y183750D01*
X150001D02*
X148001D01*
X150001Y185750D01*
Y186250D01*
X149501Y186749D01*
X148501D01*
X148001Y186250D01*
X153000Y186749D02*
X152000Y186250D01*
X151000Y185250D01*
Y184250D01*
X151500Y183750D01*
X152500D01*
X153000Y184250D01*
Y184750D01*
X152500Y185250D01*
X151000D01*
X153999Y183251D02*
X155999D01*
X158498Y183750D02*
Y186749D01*
X156998Y185250D01*
X158998D01*
X142002Y256750D02*
Y259749D01*
X143502D01*
X144002Y259250D01*
Y258250D01*
X143502Y257750D01*
X142002D01*
X143002D02*
X144002Y256750D01*
X147001D02*
X145001D01*
X147001Y258750D01*
Y259250D01*
X146501Y259749D01*
X145501D01*
X145001Y259250D01*
X150000Y259749D02*
X149000Y259250D01*
X148000Y258250D01*
Y257250D01*
X148500Y256750D01*
X149500D01*
X150000Y257250D01*
Y257750D01*
X149500Y258250D01*
X148000D01*
X150999Y256251D02*
X152999D01*
X153998Y259250D02*
X154498Y259749D01*
X155498D01*
X155998Y259250D01*
Y258750D01*
X155498Y258250D01*
X154998D01*
X155498D01*
X155998Y257750D01*
Y257250D01*
X155498Y256750D01*
X154498D01*
X153998Y257250D01*
X156250Y314002D02*
X153251D01*
Y315502D01*
X153750Y316002D01*
X154750D01*
X155250Y315502D01*
Y314002D01*
Y315002D02*
X156250Y316002D01*
Y319001D02*
Y317001D01*
X154250Y319001D01*
X153750D01*
X153251Y318501D01*
Y317501D01*
X153750Y317001D01*
X153251Y322000D02*
X153750Y321000D01*
X154750Y320000D01*
X155750D01*
X156250Y320500D01*
Y321500D01*
X155750Y322000D01*
X155250D01*
X154750Y321500D01*
Y320000D01*
X156749Y322999D02*
Y324999D01*
X156250Y327998D02*
Y325998D01*
X154250Y327998D01*
X153750D01*
X153251Y327498D01*
Y326498D01*
X153750Y325998D01*
X155250Y382502D02*
X152251D01*
Y384002D01*
X152750Y384502D01*
X153750D01*
X154250Y384002D01*
Y382502D01*
Y383502D02*
X155250Y384502D01*
Y387501D02*
Y385501D01*
X153250Y387501D01*
X152750D01*
X152251Y387001D01*
Y386001D01*
X152750Y385501D01*
X152251Y390499D02*
X152750Y389500D01*
X153750Y388500D01*
X154750D01*
X155250Y389000D01*
Y390000D01*
X154750Y390499D01*
X154250D01*
X153750Y390000D01*
Y388500D01*
X155749Y391499D02*
Y393498D01*
X155250Y394498D02*
Y395498D01*
Y394998D01*
X152251D01*
X152750Y394498D01*
X129002Y186750D02*
Y189749D01*
X130502D01*
X131002Y189250D01*
Y188250D01*
X130502Y187750D01*
X129002D01*
X130002D02*
X131002Y186750D01*
X134001D02*
X132001D01*
X134001Y188750D01*
Y189250D01*
X133501Y189749D01*
X132501D01*
X132001Y189250D01*
X136500Y186750D02*
Y189749D01*
X135000Y188250D01*
X137000D01*
X137999Y186251D02*
X139999D01*
X142498Y186750D02*
Y189749D01*
X140998Y188250D01*
X142998D01*
X122002Y252750D02*
Y255749D01*
X123502D01*
X124002Y255250D01*
Y254250D01*
X123502Y253750D01*
X122002D01*
X123002D02*
X124002Y252750D01*
X127001D02*
X125001D01*
X127001Y254750D01*
Y255250D01*
X126501Y255749D01*
X125501D01*
X125001Y255250D01*
X129500Y252750D02*
Y255749D01*
X128000Y254250D01*
X130000D01*
X130999Y252251D02*
X132999D01*
X133998Y255250D02*
X134498Y255749D01*
X135498D01*
X135998Y255250D01*
Y254750D01*
X135498Y254250D01*
X134998D01*
X135498D01*
X135998Y253750D01*
Y253250D01*
X135498Y252750D01*
X134498D01*
X133998Y253250D01*
X138002Y318750D02*
Y321749D01*
X139502D01*
X140002Y321250D01*
Y320250D01*
X139502Y319750D01*
X138002D01*
X139002D02*
X140002Y318750D01*
X143001D02*
X141001D01*
X143001Y320750D01*
Y321250D01*
X142501Y321749D01*
X141501D01*
X141001Y321250D01*
X145500Y318750D02*
Y321749D01*
X144000Y320250D01*
X146000D01*
X146999Y318251D02*
X148999D01*
X151998Y318750D02*
X149998D01*
X151998Y320750D01*
Y321250D01*
X151498Y321749D01*
X150498D01*
X149998Y321250D01*
X131502Y380750D02*
Y383749D01*
X133002D01*
X133501Y383250D01*
Y382250D01*
X133002Y381750D01*
X131502D01*
X132502D02*
X133501Y380750D01*
X136501D02*
X134501D01*
X136501Y382750D01*
Y383250D01*
X136001Y383749D01*
X135001D01*
X134501Y383250D01*
X139000Y380750D02*
Y383749D01*
X137500Y382250D01*
X139499D01*
X140499Y380251D02*
X142499D01*
X143498Y380750D02*
X144498D01*
X143998D01*
Y383749D01*
X143498Y383250D01*
X101002Y174750D02*
Y177749D01*
X102502D01*
X103002Y177250D01*
Y176250D01*
X102502Y175750D01*
X101002D01*
X102002D02*
X103002Y174750D01*
X106001D02*
X104001D01*
X106001Y176750D01*
Y177250D01*
X105501Y177749D01*
X104501D01*
X104001Y177250D01*
X109000Y174750D02*
X107000D01*
X109000Y176750D01*
Y177250D01*
X108500Y177749D01*
X107500D01*
X107000Y177250D01*
X109999Y174251D02*
X111999D01*
X114498Y174750D02*
Y177749D01*
X112998Y176250D01*
X114998D01*
X112250Y225262D02*
X109251D01*
Y226762D01*
X109750Y227261D01*
X110750D01*
X111250Y226762D01*
Y225262D01*
Y226262D02*
X112250Y227261D01*
Y230260D02*
Y228261D01*
X110250Y230260D01*
X109750D01*
X109251Y229761D01*
Y228761D01*
X109750Y228261D01*
X112250Y233260D02*
Y231260D01*
X110250Y233260D01*
X109750D01*
X109251Y232760D01*
Y231760D01*
X109750Y231260D01*
X112749Y234259D02*
Y236259D01*
X109750Y237258D02*
X109251Y237758D01*
Y238758D01*
X109750Y239258D01*
X110250D01*
X110750Y238758D01*
Y238258D01*
Y238758D01*
X111250Y239258D01*
X111750D01*
X112250Y238758D01*
Y237758D01*
X111750Y237258D01*
X114250Y287002D02*
X111251D01*
Y288502D01*
X111750Y289002D01*
X112750D01*
X113250Y288502D01*
Y287002D01*
Y288002D02*
X114250Y289002D01*
Y292001D02*
Y290001D01*
X112250Y292001D01*
X111750D01*
X111251Y291501D01*
Y290501D01*
X111750Y290001D01*
X114250Y295000D02*
Y293000D01*
X112250Y295000D01*
X111750D01*
X111251Y294500D01*
Y293500D01*
X111750Y293000D01*
X114749Y295999D02*
Y297999D01*
X114250Y300998D02*
Y298998D01*
X112250Y300998D01*
X111750D01*
X111251Y300498D01*
Y299498D01*
X111750Y298998D01*
X118250Y356502D02*
X115251D01*
Y358002D01*
X115750Y358502D01*
X116750D01*
X117250Y358002D01*
Y356502D01*
Y357502D02*
X118250Y358502D01*
Y361501D02*
Y359501D01*
X116250Y361501D01*
X115750D01*
X115251Y361001D01*
Y360001D01*
X115750Y359501D01*
X118250Y364499D02*
Y362500D01*
X116250Y364499D01*
X115750D01*
X115251Y364000D01*
Y363000D01*
X115750Y362500D01*
X118749Y365499D02*
Y367498D01*
X118250Y368498D02*
Y369498D01*
Y368998D01*
X115251D01*
X115750Y368498D01*
X90252Y187750D02*
Y190749D01*
X91752D01*
X92251Y190250D01*
Y189250D01*
X91752Y188750D01*
X90252D01*
X91252D02*
X92251Y187750D01*
X95251D02*
X93251D01*
X95251Y189750D01*
Y190250D01*
X94751Y190749D01*
X93751D01*
X93251Y190250D01*
X96250Y187750D02*
X97250D01*
X96750D01*
Y190749D01*
X96250Y190250D01*
X98749Y187251D02*
X100749D01*
X103248Y187750D02*
Y190749D01*
X101749Y189250D01*
X103748D01*
X108252Y243750D02*
Y246749D01*
X109752D01*
X110251Y246250D01*
Y245250D01*
X109752Y244750D01*
X108252D01*
X109252D02*
X110251Y243750D01*
X113251D02*
X111251D01*
X113251Y245750D01*
Y246250D01*
X112751Y246749D01*
X111751D01*
X111251Y246250D01*
X114250Y243750D02*
X115250D01*
X114750D01*
Y246749D01*
X114250Y246250D01*
X116749Y243251D02*
X118749D01*
X119748Y246250D02*
X120248Y246749D01*
X121248D01*
X121748Y246250D01*
Y245750D01*
X121248Y245250D01*
X120748D01*
X121248D01*
X121748Y244750D01*
Y244250D01*
X121248Y243750D01*
X120248D01*
X119748Y244250D01*
X110250Y311252D02*
X107251D01*
Y312752D01*
X107750Y313251D01*
X108750D01*
X109250Y312752D01*
Y311252D01*
Y312252D02*
X110250Y313251D01*
Y316251D02*
Y314251D01*
X108250Y316251D01*
X107750D01*
X107251Y315751D01*
Y314751D01*
X107750Y314251D01*
X110250Y317250D02*
Y318250D01*
Y317750D01*
X107251D01*
X107750Y317250D01*
X110749Y319749D02*
Y321749D01*
X110250Y324748D02*
Y322748D01*
X108250Y324748D01*
X107750D01*
X107251Y324248D01*
Y323248D01*
X107750Y322748D01*
X119752Y391750D02*
Y394749D01*
X121251D01*
X121751Y394250D01*
Y393250D01*
X121251Y392750D01*
X119752D01*
X120752D02*
X121751Y391750D01*
X124750D02*
X122751D01*
X124750Y393750D01*
Y394250D01*
X124251Y394749D01*
X123251D01*
X122751Y394250D01*
X125750Y391750D02*
X126750D01*
X126250D01*
Y394749D01*
X125750Y394250D01*
X128249Y391251D02*
X130249D01*
X131248Y391750D02*
X132248D01*
X131748D01*
Y394749D01*
X131248Y394250D01*
X148001Y92501D02*
Y95499D01*
X149501D01*
X150001Y95000D01*
Y94000D01*
X149501Y93500D01*
X148001D01*
X149001D02*
X150001Y92501D01*
X153000D02*
X151000D01*
X153000Y94500D01*
Y95000D01*
X152500Y95499D01*
X151500D01*
X151000Y95000D01*
X153999D02*
X154499Y95499D01*
X155499D01*
X155999Y95000D01*
Y93000D01*
X155499Y92501D01*
X154499D01*
X153999Y93000D01*
Y95000D01*
X144251Y119501D02*
Y122500D01*
X145751D01*
X146251Y122000D01*
Y121000D01*
X145751Y120500D01*
X144251D01*
X145251D02*
X146251Y119501D01*
X147250D02*
X148250D01*
X147750D01*
Y122500D01*
X147250Y122000D01*
X149749Y120000D02*
X150249Y119501D01*
X151249D01*
X151749Y120000D01*
Y122000D01*
X151249Y122500D01*
X150249D01*
X149749Y122000D01*
Y121500D01*
X150249Y121000D01*
X151749D01*
X127251Y114500D02*
Y117499D01*
X128751D01*
X129251Y117000D01*
Y116000D01*
X128751Y115500D01*
X127251D01*
X128251D02*
X129251Y114500D01*
X130250D02*
X131250D01*
X130750D01*
Y117499D01*
X130250Y117000D01*
X132749Y117499D02*
X134749D01*
Y117000D01*
X132749Y115000D01*
Y114500D01*
X101779Y99680D02*
Y102679D01*
X103278D01*
X103778Y102180D01*
Y101180D01*
X103278Y100680D01*
X101779D01*
X102778D02*
X103778Y99680D01*
X104778D02*
X105778D01*
X105278D01*
Y102679D01*
X104778Y102180D01*
X107277D02*
X107777Y102679D01*
X108776D01*
X109276Y102180D01*
Y101680D01*
X108776Y101180D01*
X108277D01*
X108776D01*
X109276Y100680D01*
Y100180D01*
X108776Y99680D01*
X107777D01*
X107277Y100180D01*
X250762Y211505D02*
Y214504D01*
X252262D01*
X252762Y214004D01*
Y213004D01*
X252262Y212504D01*
X250762D01*
X251762D02*
X252762Y211505D01*
X253761D02*
X254761D01*
X254261D01*
Y214504D01*
X253761Y214004D01*
X257760Y211505D02*
Y214504D01*
X256260Y213004D01*
X258260D01*
X239251Y223500D02*
Y226500D01*
X240751D01*
X241251Y226000D01*
Y225000D01*
X240751Y224500D01*
X239251D01*
X240251D02*
X241251Y223500D01*
X242250D02*
X243250D01*
X242750D01*
Y226500D01*
X242250Y226000D01*
X246749Y223500D02*
X244749D01*
X246749Y225500D01*
Y226000D01*
X246249Y226500D01*
X245249D01*
X244749Y226000D01*
X93751Y81501D02*
Y84500D01*
X95251D01*
X95750Y84000D01*
Y83000D01*
X95251Y82500D01*
X93751D01*
X94751D02*
X95750Y81501D01*
X96750D02*
X97750D01*
X97250D01*
Y84500D01*
X96750Y84000D01*
X99249Y81501D02*
X100249D01*
X99749D01*
Y84500D01*
X99249Y84000D01*
X85251Y113500D02*
Y116499D01*
X86751D01*
X87251Y116000D01*
Y115000D01*
X86751Y114500D01*
X85251D01*
X86251D02*
X87251Y113500D01*
X88250D02*
X89250D01*
X88750D01*
Y116499D01*
X88250Y116000D01*
X90749D02*
X91249Y116499D01*
X92249D01*
X92749Y116000D01*
Y114000D01*
X92249Y113500D01*
X91249D01*
X90749Y114000D01*
Y116000D01*
X257501Y220500D02*
Y223499D01*
X259000D01*
X259500Y223000D01*
Y222000D01*
X259000Y221500D01*
X257501D01*
X258501D02*
X259500Y220500D01*
X260500Y221000D02*
X261000Y220500D01*
X261999D01*
X262499Y221000D01*
Y223000D01*
X261999Y223499D01*
X261000D01*
X260500Y223000D01*
Y222500D01*
X261000Y222000D01*
X262499D01*
X230501Y19500D02*
Y22500D01*
X232000D01*
X232500Y22000D01*
Y21000D01*
X232000Y20500D01*
X230501D01*
X231501D02*
X232500Y19500D01*
X233500Y22000D02*
X234000Y22500D01*
X234999D01*
X235499Y22000D01*
Y21500D01*
X234999Y21000D01*
X235499Y20500D01*
Y20000D01*
X234999Y19500D01*
X234000D01*
X233500Y20000D01*
Y20500D01*
X234000Y21000D01*
X233500Y21500D01*
Y22000D01*
X234000Y21000D02*
X234999D01*
X46499Y91501D02*
X43501D01*
Y93000D01*
X44000Y93500D01*
X45000D01*
X45500Y93000D01*
Y91501D01*
Y92501D02*
X46499Y93500D01*
X43501Y96499D02*
X44000Y95499D01*
X45000Y94500D01*
X46000D01*
X46499Y95000D01*
Y95999D01*
X46000Y96499D01*
X45500D01*
X45000Y95999D01*
Y94500D01*
X266501Y194501D02*
Y197500D01*
X268000D01*
X268500Y197000D01*
Y196000D01*
X268000Y195500D01*
X266501D01*
X267500D02*
X268500Y194501D01*
X271499Y197500D02*
X269500D01*
Y196000D01*
X270499Y196500D01*
X270999D01*
X271499Y196000D01*
Y195000D01*
X270999Y194501D01*
X270000D01*
X269500Y195000D01*
X50501Y98501D02*
Y101499D01*
X52000D01*
X52500Y101000D01*
Y100000D01*
X52000Y99500D01*
X50501D01*
X51500D02*
X52500Y98501D01*
X54999D02*
Y101499D01*
X53500Y100000D01*
X55499D01*
X275501Y188500D02*
Y191499D01*
X277000D01*
X277500Y191000D01*
Y190000D01*
X277000Y189500D01*
X275501D01*
X276501D02*
X277500Y188500D01*
X280499D02*
X278500D01*
X280499Y190500D01*
Y191000D01*
X279999Y191499D01*
X279000D01*
X278500Y191000D01*
X241499Y175741D02*
X238500D01*
Y177240D01*
X239000Y177740D01*
X240000D01*
X240500Y177240D01*
Y175741D01*
Y176741D02*
X241499Y177740D01*
Y178740D02*
Y179739D01*
Y179240D01*
X238500D01*
X239000Y178740D01*
X73899Y187100D02*
Y189099D01*
X73400Y189599D01*
X72400D01*
X71900Y189099D01*
Y187100D01*
X72400Y186600D01*
X73400D01*
X72900Y187600D02*
X73899Y186600D01*
X73400D02*
X73899Y187100D01*
X76898Y189599D02*
X74899D01*
Y188100D01*
X75899Y188599D01*
X76398D01*
X76898Y188100D01*
Y187100D01*
X76398Y186600D01*
X75399D01*
X74899Y187100D01*
X77898Y186100D02*
X79897D01*
X82397Y186600D02*
Y189599D01*
X80897Y188100D01*
X82896D01*
X86501Y252250D02*
Y254250D01*
X86001Y254749D01*
X85002D01*
X84502Y254250D01*
Y252250D01*
X85002Y251750D01*
X86001D01*
X85501Y252750D02*
X86501Y251750D01*
X86001D02*
X86501Y252250D01*
X89500Y254749D02*
X87501D01*
Y253250D01*
X88500Y253750D01*
X89000D01*
X89500Y253250D01*
Y252250D01*
X89000Y251750D01*
X88001D01*
X87501Y252250D01*
X90500Y251251D02*
X92499D01*
X93499Y254250D02*
X93999Y254749D01*
X94998D01*
X95498Y254250D01*
Y253750D01*
X94998Y253250D01*
X94499D01*
X94998D01*
X95498Y252750D01*
Y252250D01*
X94998Y251750D01*
X93999D01*
X93499Y252250D01*
X71750Y305501D02*
X69750D01*
X69251Y305001D01*
Y304002D01*
X69750Y303502D01*
X71750D01*
X72250Y304002D01*
Y305001D01*
X71250Y304502D02*
X72250Y305501D01*
Y305001D02*
X71750Y305501D01*
X69251Y308500D02*
Y306501D01*
X70750D01*
X70250Y307501D01*
Y308000D01*
X70750Y308500D01*
X71750D01*
X72250Y308000D01*
Y307001D01*
X71750Y306501D01*
X72749Y309500D02*
Y311499D01*
X72250Y314498D02*
Y312499D01*
X70250Y314498D01*
X69750D01*
X69251Y313998D01*
Y312999D01*
X69750Y312499D01*
X79001Y383250D02*
Y385250D01*
X78501Y385749D01*
X77501D01*
X77002Y385250D01*
Y383250D01*
X77501Y382750D01*
X78501D01*
X78001Y383750D02*
X79001Y382750D01*
X78501D02*
X79001Y383250D01*
X82000Y385749D02*
X80001D01*
Y384250D01*
X81000Y384750D01*
X81500D01*
X82000Y384250D01*
Y383250D01*
X81500Y382750D01*
X80501D01*
X80001Y383250D01*
X83000Y382251D02*
X84999D01*
X85999Y382750D02*
X86998D01*
X86499D01*
Y385749D01*
X85999Y385250D01*
X92501Y153250D02*
Y155250D01*
X92001Y155749D01*
X91002D01*
X90502Y155250D01*
Y153250D01*
X91002Y152750D01*
X92001D01*
X91501Y153750D02*
X92501Y152750D01*
X92001D02*
X92501Y153250D01*
X95000Y152750D02*
Y155749D01*
X93501Y154250D01*
X95500D01*
X96500Y152251D02*
X98499D01*
X100998Y152750D02*
Y155749D01*
X99499Y154250D01*
X101498D01*
X105501Y198250D02*
Y200250D01*
X105001Y200749D01*
X104002D01*
X103502Y200250D01*
Y198250D01*
X104002Y197750D01*
X105001D01*
X104501Y198750D02*
X105501Y197750D01*
X105001D02*
X105501Y198250D01*
X108000Y197750D02*
Y200749D01*
X106501Y199250D01*
X108500D01*
X109500Y197251D02*
X111499D01*
X112499Y200250D02*
X112999Y200749D01*
X113998D01*
X114498Y200250D01*
Y199750D01*
X113998Y199250D01*
X113499D01*
X113998D01*
X114498Y198750D01*
Y198250D01*
X113998Y197750D01*
X112999D01*
X112499Y198250D01*
X95501Y287250D02*
Y289250D01*
X95001Y289749D01*
X94002D01*
X93502Y289250D01*
Y287250D01*
X94002Y286750D01*
X95001D01*
X94502Y287750D02*
X95501Y286750D01*
X95001D02*
X95501Y287250D01*
X98000Y286750D02*
Y289749D01*
X96501Y288250D01*
X98500D01*
X99500Y286251D02*
X101499D01*
X104498Y286750D02*
X102499D01*
X104498Y288750D01*
Y289250D01*
X103998Y289749D01*
X102999D01*
X102499Y289250D01*
X113001Y329250D02*
Y331250D01*
X112501Y331749D01*
X111502D01*
X111002Y331250D01*
Y329250D01*
X111502Y328750D01*
X112501D01*
X112001Y329750D02*
X113001Y328750D01*
X112501D02*
X113001Y329250D01*
X115500Y328750D02*
Y331749D01*
X114001Y330250D01*
X116000D01*
X117000Y328251D02*
X118999D01*
X119999Y328750D02*
X120998D01*
X120499D01*
Y331749D01*
X119999Y331250D01*
X66500Y111000D02*
Y113000D01*
X66000Y113499D01*
X65001D01*
X64501Y113000D01*
Y111000D01*
X65001Y110501D01*
X66000D01*
X65500Y111500D02*
X66500Y110501D01*
X66000D02*
X66500Y111000D01*
X67500Y113000D02*
X68000Y113499D01*
X68999D01*
X69499Y113000D01*
Y112500D01*
X68999Y112000D01*
X68499D01*
X68999D01*
X69499Y111500D01*
Y111000D01*
X68999Y110501D01*
X68000D01*
X67500Y111000D01*
X87500Y43000D02*
Y45000D01*
X87000Y45500D01*
X86001D01*
X85501Y45000D01*
Y43000D01*
X86001Y42500D01*
X87000D01*
X86501Y43500D02*
X87500Y42500D01*
X87000D02*
X87500Y43000D01*
X90499Y42500D02*
X88500D01*
X90499Y44500D01*
Y45000D01*
X89999Y45500D01*
X89000D01*
X88500Y45000D01*
X18001Y146500D02*
Y143500D01*
X20000D01*
X21000D02*
X21999D01*
X21499D01*
Y146500D01*
X21000Y146000D01*
X9501Y196749D02*
X8501D01*
X9001D01*
Y194250D01*
X8501Y193750D01*
X8002D01*
X7502Y194250D01*
X10501Y196250D02*
X11001Y196749D01*
X12000D01*
X12500Y196250D01*
Y195750D01*
X12000Y195250D01*
X11501D01*
X12000D01*
X12500Y194750D01*
Y194250D01*
X12000Y193750D01*
X11001D01*
X10501Y194250D01*
X13500Y193251D02*
X15499D01*
X17998Y193750D02*
Y196749D01*
X16499Y195250D01*
X18498D01*
X9501Y252749D02*
X8501D01*
X9001D01*
Y250250D01*
X8501Y249750D01*
X8002D01*
X7502Y250250D01*
X10501Y252250D02*
X11001Y252749D01*
X12000D01*
X12500Y252250D01*
Y251750D01*
X12000Y251250D01*
X11501D01*
X12000D01*
X12500Y250750D01*
Y250250D01*
X12000Y249750D01*
X11001D01*
X10501Y250250D01*
X13500Y249251D02*
X15499D01*
X16499Y252250D02*
X16999Y252749D01*
X17998D01*
X18498Y252250D01*
Y251750D01*
X17998Y251250D01*
X17499D01*
X17998D01*
X18498Y250750D01*
Y250250D01*
X17998Y249750D01*
X16999D01*
X16499Y250250D01*
X8501Y305749D02*
X7502D01*
X8001D01*
Y303250D01*
X7502Y302750D01*
X7002D01*
X6502Y303250D01*
X9501Y305250D02*
X10001Y305749D01*
X11000D01*
X11500Y305250D01*
Y304750D01*
X11000Y304250D01*
X10501D01*
X11000D01*
X11500Y303750D01*
Y303250D01*
X11000Y302750D01*
X10001D01*
X9501Y303250D01*
X12500Y302251D02*
X14499D01*
X17498Y302750D02*
X15499D01*
X17498Y304750D01*
Y305250D01*
X16998Y305749D01*
X15999D01*
X15499Y305250D01*
X10001Y362749D02*
X9001D01*
X9501D01*
Y360250D01*
X9001Y359750D01*
X8501D01*
X8002Y360250D01*
X11001Y362250D02*
X11501Y362749D01*
X12500D01*
X13000Y362250D01*
Y361750D01*
X12500Y361250D01*
X12000D01*
X12500D01*
X13000Y360750D01*
Y360250D01*
X12500Y359750D01*
X11501D01*
X11001Y360250D01*
X14000Y359251D02*
X15999D01*
X16999Y359750D02*
X17998D01*
X17499D01*
Y362749D01*
X16999Y362250D01*
X61502Y140749D02*
Y137750D01*
X63001D01*
X63501Y138250D01*
Y140250D01*
X63001Y140749D01*
X61502D01*
X64501D02*
X66500D01*
Y140250D01*
X64501Y138250D01*
Y137750D01*
X67500Y137251D02*
X69499D01*
X71998Y137750D02*
Y140749D01*
X70499Y139250D01*
X72498D01*
X70250Y198502D02*
X73250D01*
Y200001D01*
X72750Y200501D01*
X70750D01*
X70250Y200001D01*
Y198502D01*
Y201501D02*
Y203500D01*
X70750D01*
X72750Y201501D01*
X73250D01*
X73749Y204500D02*
Y206499D01*
X70750Y207499D02*
X70250Y207999D01*
Y208998D01*
X70750Y209498D01*
X71250D01*
X71750Y208998D01*
Y208499D01*
Y208998D01*
X72250Y209498D01*
X72750D01*
X73250Y208998D01*
Y207999D01*
X72750Y207499D01*
X72251Y261502D02*
X75250D01*
Y263001D01*
X74750Y263501D01*
X72750D01*
X72251Y263001D01*
Y261502D01*
Y264501D02*
Y266500D01*
X72750D01*
X74750Y264501D01*
X75250D01*
X75749Y267500D02*
Y269499D01*
X75250Y272498D02*
Y270499D01*
X73250Y272498D01*
X72750D01*
X72251Y271998D01*
Y270999D01*
X72750Y270499D01*
X96251Y324002D02*
X99250D01*
Y325501D01*
X98750Y326001D01*
X96750D01*
X96251Y325501D01*
Y324002D01*
Y327001D02*
Y329000D01*
X96750D01*
X98750Y327001D01*
X99250D01*
X99749Y330000D02*
Y331999D01*
X99250Y332999D02*
Y333998D01*
Y333499D01*
X96251D01*
X96750Y332999D01*
X56502Y148749D02*
Y145750D01*
X58001D01*
X58501Y146250D01*
Y148250D01*
X58001Y148749D01*
X56502D01*
X61500D02*
X60501Y148250D01*
X59501Y147250D01*
Y146250D01*
X60001Y145750D01*
X61000D01*
X61500Y146250D01*
Y146750D01*
X61000Y147250D01*
X59501D01*
X62500Y145251D02*
X64499D01*
X66998Y145750D02*
Y148749D01*
X65499Y147250D01*
X67498D01*
X91250Y216502D02*
X94250D01*
Y218001D01*
X93750Y218501D01*
X91750D01*
X91250Y218001D01*
Y216502D01*
Y221500D02*
X91750Y220500D01*
X92750Y219501D01*
X93750D01*
X94250Y220001D01*
Y221000D01*
X93750Y221500D01*
X93250D01*
X92750Y221000D01*
Y219501D01*
X94749Y222500D02*
Y224499D01*
X91750Y225499D02*
X91250Y225999D01*
Y226998D01*
X91750Y227498D01*
X92250D01*
X92750Y226998D01*
Y226499D01*
Y226998D01*
X93250Y227498D01*
X93750D01*
X94250Y226998D01*
Y225999D01*
X93750Y225499D01*
X69091Y277502D02*
X72090D01*
Y279001D01*
X71590Y279501D01*
X69591D01*
X69091Y279001D01*
Y277502D01*
Y282500D02*
X69591Y281501D01*
X70591Y280501D01*
X71590D01*
X72090Y281001D01*
Y282000D01*
X71590Y282500D01*
X71090D01*
X70591Y282000D01*
Y280501D01*
X72590Y283500D02*
Y285499D01*
X72090Y288498D02*
Y286499D01*
X70091Y288498D01*
X69591D01*
X69091Y287998D01*
Y286999D01*
X69591Y286499D01*
X70251Y349002D02*
X73250D01*
Y350501D01*
X72750Y351001D01*
X70750D01*
X70251Y350501D01*
Y349002D01*
Y354000D02*
X70750Y353000D01*
X71750Y352001D01*
X72750D01*
X73250Y352501D01*
Y353500D01*
X72750Y354000D01*
X72250D01*
X71750Y353500D01*
Y352001D01*
X73749Y355000D02*
Y356999D01*
X73250Y357999D02*
Y358998D01*
Y358499D01*
X70251D01*
X70750Y357999D01*
X78501Y74499D02*
Y71500D01*
X80000D01*
X80500Y72000D01*
Y74000D01*
X80000Y74499D01*
X78501D01*
X83499D02*
X81500D01*
Y73000D01*
X82499Y73500D01*
X82999D01*
X83499Y73000D01*
Y72000D01*
X82999Y71500D01*
X82000D01*
X81500Y72000D01*
X58501Y62499D02*
Y59500D01*
X60000D01*
X60500Y60000D01*
Y62000D01*
X60000Y62499D01*
X58501D01*
X62999Y59500D02*
Y62499D01*
X61500Y61000D01*
X63499D01*
X230501Y11500D02*
Y8501D01*
X232000D01*
X232500Y9000D01*
Y11000D01*
X232000Y11500D01*
X230501D01*
X233500Y11000D02*
X234000Y11500D01*
X234999D01*
X235499Y11000D01*
Y10500D01*
X234999Y10000D01*
X234500D01*
X234999D01*
X235499Y9500D01*
Y9000D01*
X234999Y8501D01*
X234000D01*
X233500Y9000D01*
X250001Y11500D02*
Y8501D01*
X251500D01*
X252000Y9000D01*
Y11000D01*
X251500Y11500D01*
X250001D01*
X253000Y8501D02*
X253999D01*
X253500D01*
Y11500D01*
X253000Y11000D01*
X154750Y170002D02*
X154251Y169502D01*
Y168502D01*
X154750Y168002D01*
X156750D01*
X157250Y168502D01*
Y169502D01*
X156750Y170002D01*
X157250Y173001D02*
Y171001D01*
X155250Y173001D01*
X154750D01*
X154251Y172501D01*
Y171501D01*
X154750Y171001D01*
X156750Y174000D02*
X157250Y174500D01*
Y175500D01*
X156750Y176000D01*
X154750D01*
X154251Y175500D01*
Y174500D01*
X154750Y174000D01*
X155250D01*
X155750Y174500D01*
Y176000D01*
X157749Y176999D02*
Y178999D01*
X157250Y181498D02*
X154251D01*
X155750Y179998D01*
Y181998D01*
X146002Y249250D02*
X145502Y249749D01*
X144502D01*
X144002Y249250D01*
Y247250D01*
X144502Y246750D01*
X145502D01*
X146002Y247250D01*
X149001Y246750D02*
X147001D01*
X149001Y248750D01*
Y249250D01*
X148501Y249749D01*
X147501D01*
X147001Y249250D01*
X150000Y247250D02*
X150500Y246750D01*
X151500D01*
X152000Y247250D01*
Y249250D01*
X151500Y249749D01*
X150500D01*
X150000Y249250D01*
Y248750D01*
X150500Y248250D01*
X152000D01*
X152999Y246251D02*
X154999D01*
X155998Y249250D02*
X156498Y249749D01*
X157498D01*
X157998Y249250D01*
Y248750D01*
X157498Y248250D01*
X156998D01*
X157498D01*
X157998Y247750D01*
Y247250D01*
X157498Y246750D01*
X156498D01*
X155998Y247250D01*
X158491Y296903D02*
X157991Y296403D01*
Y295404D01*
X158491Y294904D01*
X160490D01*
X160990Y295404D01*
Y296403D01*
X160490Y296903D01*
X160990Y299902D02*
Y297903D01*
X158990Y299902D01*
X158491D01*
X157991Y299402D01*
Y298403D01*
X158491Y297903D01*
X160490Y300902D02*
X160990Y301402D01*
Y302401D01*
X160490Y302901D01*
X158491D01*
X157991Y302401D01*
Y301402D01*
X158491Y300902D01*
X158990D01*
X159490Y301402D01*
Y302901D01*
X161490Y303901D02*
Y305900D01*
X160990Y308899D02*
Y306900D01*
X158990Y308899D01*
X158491D01*
X157991Y308400D01*
Y307400D01*
X158491Y306900D01*
X157750Y383502D02*
X157251Y383002D01*
Y382002D01*
X157750Y381502D01*
X159750D01*
X160250Y382002D01*
Y383002D01*
X159750Y383502D01*
X160250Y386501D02*
Y384501D01*
X158250Y386501D01*
X157750D01*
X157251Y386001D01*
Y385001D01*
X157750Y384501D01*
X159750Y387500D02*
X160250Y388000D01*
Y389000D01*
X159750Y389499D01*
X157750D01*
X157251Y389000D01*
Y388000D01*
X157750Y387500D01*
X158250D01*
X158750Y388000D01*
Y389499D01*
X160749Y390499D02*
Y392498D01*
X160250Y393498D02*
Y394498D01*
Y393998D01*
X157251D01*
X157750Y393498D01*
X106002Y170250D02*
X105502Y170749D01*
X104502D01*
X104002Y170250D01*
Y168250D01*
X104502Y167750D01*
X105502D01*
X106002Y168250D01*
X109001Y167750D02*
X107001D01*
X109001Y169750D01*
Y170250D01*
X108501Y170749D01*
X107501D01*
X107001Y170250D01*
X110000D02*
X110500Y170749D01*
X111500D01*
X112000Y170250D01*
Y169750D01*
X111500Y169250D01*
X112000Y168750D01*
Y168250D01*
X111500Y167750D01*
X110500D01*
X110000Y168250D01*
Y168750D01*
X110500Y169250D01*
X110000Y169750D01*
Y170250D01*
X110500Y169250D02*
X111500D01*
X112999Y167251D02*
X114999D01*
X117498Y167750D02*
Y170749D01*
X115998Y169250D01*
X117998D01*
X99750Y228002D02*
X99251Y227502D01*
Y226502D01*
X99750Y226002D01*
X101750D01*
X102250Y226502D01*
Y227502D01*
X101750Y228002D01*
X102250Y231001D02*
Y229001D01*
X100250Y231001D01*
X99750D01*
X99251Y230501D01*
Y229501D01*
X99750Y229001D01*
Y232000D02*
X99251Y232500D01*
Y233500D01*
X99750Y234000D01*
X100250D01*
X100750Y233500D01*
X101250Y234000D01*
X101750D01*
X102250Y233500D01*
Y232500D01*
X101750Y232000D01*
X101250D01*
X100750Y232500D01*
X100250Y232000D01*
X99750D01*
X100750Y232500D02*
Y233500D01*
X102749Y234999D02*
Y236999D01*
X99750Y237998D02*
X99251Y238498D01*
Y239498D01*
X99750Y239998D01*
X100250D01*
X100750Y239498D01*
Y238998D01*
Y239498D01*
X101250Y239998D01*
X101750D01*
X102250Y239498D01*
Y238498D01*
X101750Y237998D01*
X109002Y305250D02*
X108502Y305749D01*
X107502D01*
X107002Y305250D01*
Y303250D01*
X107502Y302750D01*
X108502D01*
X109002Y303250D01*
X112001Y302750D02*
X110001D01*
X112001Y304750D01*
Y305250D01*
X111501Y305749D01*
X110501D01*
X110001Y305250D01*
X113000D02*
X113500Y305749D01*
X114500D01*
X115000Y305250D01*
Y304750D01*
X114500Y304250D01*
X115000Y303750D01*
Y303250D01*
X114500Y302750D01*
X113500D01*
X113000Y303250D01*
Y303750D01*
X113500Y304250D01*
X113000Y304750D01*
Y305250D01*
X113500Y304250D02*
X114500D01*
X115999Y302251D02*
X117999D01*
X120998Y302750D02*
X118998D01*
X120998Y304750D01*
Y305250D01*
X120498Y305749D01*
X119498D01*
X118998Y305250D01*
X105750Y358502D02*
X105251Y358002D01*
Y357002D01*
X105750Y356502D01*
X107750D01*
X108250Y357002D01*
Y358002D01*
X107750Y358502D01*
X108250Y361501D02*
Y359501D01*
X106250Y361501D01*
X105750D01*
X105251Y361001D01*
Y360001D01*
X105750Y359501D01*
Y362500D02*
X105251Y363000D01*
Y364000D01*
X105750Y364499D01*
X106250D01*
X106750Y364000D01*
X107250Y364499D01*
X107750D01*
X108250Y364000D01*
Y363000D01*
X107750Y362500D01*
X107250D01*
X106750Y363000D01*
X106250Y362500D01*
X105750D01*
X106750Y363000D02*
Y364000D01*
X108749Y365499D02*
Y367498D01*
X108250Y368498D02*
Y369498D01*
Y368998D01*
X105251D01*
X105750Y368498D01*
X139002Y136250D02*
X138502Y136749D01*
X137502D01*
X137002Y136250D01*
Y134250D01*
X137502Y133750D01*
X138502D01*
X139002Y134250D01*
X142001Y133750D02*
X140001D01*
X142001Y135750D01*
Y136250D01*
X141501Y136749D01*
X140501D01*
X140001Y136250D01*
X143000Y136749D02*
X145000D01*
Y136250D01*
X143000Y134250D01*
Y133750D01*
X145999Y133251D02*
X147999D01*
X150498Y133750D02*
Y136749D01*
X148998Y135250D01*
X150998D01*
X147002Y204250D02*
X146502Y204749D01*
X145502D01*
X145002Y204250D01*
Y202250D01*
X145502Y201750D01*
X146502D01*
X147002Y202250D01*
X150001Y201750D02*
X148001D01*
X150001Y203750D01*
Y204250D01*
X149501Y204749D01*
X148501D01*
X148001Y204250D01*
X151000Y204749D02*
X153000D01*
Y204250D01*
X151000Y202250D01*
Y201750D01*
X153999Y201251D02*
X155999D01*
X156998Y204250D02*
X157498Y204749D01*
X158498D01*
X158998Y204250D01*
Y203750D01*
X158498Y203250D01*
X157998D01*
X158498D01*
X158998Y202750D01*
Y202250D01*
X158498Y201750D01*
X157498D01*
X156998Y202250D01*
X144002Y266250D02*
X143502Y266749D01*
X142502D01*
X142002Y266250D01*
Y264250D01*
X142502Y263750D01*
X143502D01*
X144002Y264250D01*
X147001Y263750D02*
X145001D01*
X147001Y265750D01*
Y266250D01*
X146501Y266749D01*
X145501D01*
X145001Y266250D01*
X148000Y266749D02*
X150000D01*
Y266250D01*
X148000Y264250D01*
Y263750D01*
X150999Y263251D02*
X152999D01*
X155998Y263750D02*
X153998D01*
X155998Y265750D01*
Y266250D01*
X155498Y266749D01*
X154498D01*
X153998Y266250D01*
X146501Y334250D02*
X146002Y334749D01*
X145002D01*
X144502Y334250D01*
Y332250D01*
X145002Y331750D01*
X146002D01*
X146501Y332250D01*
X149501Y331750D02*
X147501D01*
X149501Y333750D01*
Y334250D01*
X149001Y334749D01*
X148001D01*
X147501Y334250D01*
X150500Y334749D02*
X152499D01*
Y334250D01*
X150500Y332250D01*
Y331750D01*
X153499Y331251D02*
X155499D01*
X156498Y331750D02*
X157498D01*
X156998D01*
Y334749D01*
X156498Y334250D01*
X120750Y143002D02*
X120251Y142502D01*
Y141502D01*
X120750Y141002D01*
X122750D01*
X123250Y141502D01*
Y142502D01*
X122750Y143002D01*
X123250Y146001D02*
Y144001D01*
X121250Y146001D01*
X120750D01*
X120251Y145501D01*
Y144501D01*
X120750Y144001D01*
X120251Y149000D02*
X120750Y148000D01*
X121750Y147000D01*
X122750D01*
X123250Y147500D01*
Y148500D01*
X122750Y149000D01*
X122250D01*
X121750Y148500D01*
Y147000D01*
X123749Y149999D02*
Y151999D01*
X123250Y154498D02*
X120251D01*
X121750Y152998D01*
Y154998D01*
X126750Y213002D02*
X126251Y212502D01*
Y211502D01*
X126750Y211002D01*
X128750D01*
X129250Y211502D01*
Y212502D01*
X128750Y213002D01*
X129250Y216001D02*
Y214001D01*
X127250Y216001D01*
X126750D01*
X126251Y215501D01*
Y214501D01*
X126750Y214001D01*
X126251Y219000D02*
X126750Y218000D01*
X127750Y217000D01*
X128750D01*
X129250Y217500D01*
Y218500D01*
X128750Y219000D01*
X128250D01*
X127750Y218500D01*
Y217000D01*
X129749Y219999D02*
Y221999D01*
X126750Y222998D02*
X126251Y223498D01*
Y224498D01*
X126750Y224998D01*
X127250D01*
X127750Y224498D01*
Y223998D01*
Y224498D01*
X128250Y224998D01*
X128750D01*
X129250Y224498D01*
Y223498D01*
X128750Y222998D01*
X125750Y280513D02*
X125251Y280014D01*
Y279014D01*
X125750Y278514D01*
X127750D01*
X128250Y279014D01*
Y280014D01*
X127750Y280513D01*
X128250Y283512D02*
Y281513D01*
X126250Y283512D01*
X125750D01*
X125251Y283013D01*
Y282013D01*
X125750Y281513D01*
X125251Y286511D02*
X125750Y285512D01*
X126750Y284512D01*
X127750D01*
X128250Y285012D01*
Y286012D01*
X127750Y286511D01*
X127250D01*
X126750Y286012D01*
Y284512D01*
X128749Y287511D02*
Y289510D01*
X128250Y292510D02*
Y290510D01*
X126250Y292510D01*
X125750D01*
X125251Y292010D01*
Y291010D01*
X125750Y290510D01*
X126750Y347501D02*
X126251Y347002D01*
Y346002D01*
X126750Y345502D01*
X128750D01*
X129250Y346002D01*
Y347002D01*
X128750Y347501D01*
X129250Y350500D02*
Y348501D01*
X127250Y350500D01*
X126750D01*
X126251Y350001D01*
Y349001D01*
X126750Y348501D01*
X126251Y353500D02*
X126750Y352500D01*
X127750Y351500D01*
X128750D01*
X129250Y352000D01*
Y353000D01*
X128750Y353500D01*
X128250D01*
X127750Y353000D01*
Y351500D01*
X129749Y354499D02*
Y356499D01*
X129250Y357498D02*
Y358498D01*
Y357998D01*
X126251D01*
X126750Y357498D01*
X140002Y129250D02*
X139502Y129749D01*
X138502D01*
X138002Y129250D01*
Y127250D01*
X138502Y126750D01*
X139502D01*
X140002Y127250D01*
X143001Y126750D02*
X141001D01*
X143001Y128750D01*
Y129250D01*
X142501Y129749D01*
X141501D01*
X141001Y129250D01*
X146000Y129749D02*
X144000D01*
Y128250D01*
X145000Y128750D01*
X145500D01*
X146000Y128250D01*
Y127250D01*
X145500Y126750D01*
X144500D01*
X144000Y127250D01*
X146999Y126251D02*
X148999D01*
X151498Y126750D02*
Y129749D01*
X149998Y128250D01*
X151998D01*
X130002Y194250D02*
X129502Y194749D01*
X128502D01*
X128002Y194250D01*
Y192250D01*
X128502Y191750D01*
X129502D01*
X130002Y192250D01*
X133001Y191750D02*
X131001D01*
X133001Y193750D01*
Y194250D01*
X132501Y194749D01*
X131501D01*
X131001Y194250D01*
X136000Y194749D02*
X134000D01*
Y193250D01*
X135000Y193750D01*
X135500D01*
X136000Y193250D01*
Y192250D01*
X135500Y191750D01*
X134500D01*
X134000Y192250D01*
X136999Y191251D02*
X138999D01*
X139998Y194250D02*
X140498Y194749D01*
X141498D01*
X141998Y194250D01*
Y193750D01*
X141498Y193250D01*
X140998D01*
X141498D01*
X141998Y192750D01*
Y192250D01*
X141498Y191750D01*
X140498D01*
X139998Y192250D01*
X125750Y261002D02*
X125251Y260502D01*
Y259502D01*
X125750Y259002D01*
X127750D01*
X128250Y259502D01*
Y260502D01*
X127750Y261002D01*
X128250Y264001D02*
Y262001D01*
X126250Y264001D01*
X125750D01*
X125251Y263501D01*
Y262501D01*
X125750Y262001D01*
X125251Y267000D02*
Y265000D01*
X126750D01*
X126250Y266000D01*
Y266500D01*
X126750Y267000D01*
X127750D01*
X128250Y266500D01*
Y265500D01*
X127750Y265000D01*
X128749Y267999D02*
Y269999D01*
X128250Y272998D02*
Y270998D01*
X126250Y272998D01*
X125750D01*
X125251Y272498D01*
Y271498D01*
X125750Y270998D01*
X125501Y322250D02*
X125002Y322749D01*
X124002D01*
X123502Y322250D01*
Y320250D01*
X124002Y319750D01*
X125002D01*
X125501Y320250D01*
X128500Y319750D02*
X126501D01*
X128500Y321750D01*
Y322250D01*
X128001Y322749D01*
X127001D01*
X126501Y322250D01*
X131500Y322749D02*
X129500D01*
Y321250D01*
X130500Y321750D01*
X131000D01*
X131500Y321250D01*
Y320250D01*
X131000Y319750D01*
X130000D01*
X129500Y320250D01*
X132499Y319251D02*
X134499D01*
X135498Y319750D02*
X136498D01*
X135998D01*
Y322749D01*
X135498Y322250D01*
X152001Y106000D02*
X151501Y106500D01*
X150501D01*
X150001Y106000D01*
Y104000D01*
X150501Y103500D01*
X151501D01*
X152001Y104000D01*
X155000Y103500D02*
X153000D01*
X155000Y105500D01*
Y106000D01*
X154500Y106500D01*
X153500D01*
X153000Y106000D01*
X157499Y103500D02*
Y106500D01*
X155999Y105000D01*
X157999D01*
X123001Y77000D02*
X122501Y77500D01*
X121501D01*
X121001Y77000D01*
Y75000D01*
X121501Y74501D01*
X122501D01*
X123001Y75000D01*
X126000Y74501D02*
X124000D01*
X126000Y76500D01*
Y77000D01*
X125500Y77500D01*
X124500D01*
X124000Y77000D01*
X126999D02*
X127499Y77500D01*
X128499D01*
X128999Y77000D01*
Y76500D01*
X128499Y76000D01*
X127999D01*
X128499D01*
X128999Y75500D01*
Y75000D01*
X128499Y74501D01*
X127499D01*
X126999Y75000D01*
X250001Y229000D02*
X249501Y229500D01*
X248501D01*
X248001Y229000D01*
Y227000D01*
X248501Y226501D01*
X249501D01*
X250001Y227000D01*
X253000Y226501D02*
X251000D01*
X253000Y228500D01*
Y229000D01*
X252500Y229500D01*
X251500D01*
X251000Y229000D01*
X255999Y226501D02*
X253999D01*
X255999Y228500D01*
Y229000D01*
X255499Y229500D01*
X254499D01*
X253999Y229000D01*
X94500Y100000D02*
X94001Y100499D01*
X93001D01*
X92501Y100000D01*
Y98000D01*
X93001Y97500D01*
X94001D01*
X94500Y98000D01*
X97500Y97500D02*
X95500D01*
X97500Y99500D01*
Y100000D01*
X97000Y100499D01*
X96000D01*
X95500Y100000D01*
X98499Y97500D02*
X99499D01*
X98999D01*
Y100499D01*
X98499Y100000D01*
X74001Y6000D02*
X73501Y6499D01*
X72501D01*
X72001Y6000D01*
Y4000D01*
X72501Y3500D01*
X73501D01*
X74001Y4000D01*
X77000Y3500D02*
X75000D01*
X77000Y5500D01*
Y6000D01*
X76500Y6499D01*
X75500D01*
X75000Y6000D01*
X77999D02*
X78499Y6499D01*
X79499D01*
X79999Y6000D01*
Y4000D01*
X79499Y3500D01*
X78499D01*
X77999Y4000D01*
Y6000D01*
X243251Y242000D02*
X242751Y242499D01*
X241751D01*
X241251Y242000D01*
Y240000D01*
X241751Y239500D01*
X242751D01*
X243251Y240000D01*
X244250Y239500D02*
X245250D01*
X244750D01*
Y242499D01*
X244250Y242000D01*
X246749D02*
X247249Y242499D01*
X248249D01*
X248749Y242000D01*
Y241500D01*
X248249Y241000D01*
X248749Y240500D01*
Y240000D01*
X248249Y239500D01*
X247249D01*
X246749Y240000D01*
Y240500D01*
X247249Y241000D01*
X246749Y241500D01*
Y242000D01*
X247249Y241000D02*
X248249D01*
X276251Y204000D02*
X275751Y204500D01*
X274751D01*
X274251Y204000D01*
Y202000D01*
X274751Y201501D01*
X275751D01*
X276251Y202000D01*
X277250Y201501D02*
X278250D01*
X277750D01*
Y204500D01*
X277250Y204000D01*
X279749Y202000D02*
X280249Y201501D01*
X281249D01*
X281749Y202000D01*
Y204000D01*
X281249Y204500D01*
X280249D01*
X279749Y204000D01*
Y203500D01*
X280249Y203000D01*
X281749D01*
X261251Y192000D02*
X260751Y192499D01*
X259751D01*
X259251Y192000D01*
Y190000D01*
X259751Y189500D01*
X260751D01*
X261251Y190000D01*
X262250Y189500D02*
X263250D01*
X262750D01*
Y192499D01*
X262250Y192000D01*
X266749Y192499D02*
X265749Y192000D01*
X264749Y191000D01*
Y190000D01*
X265249Y189500D01*
X266249D01*
X266749Y190000D01*
Y190500D01*
X266249Y191000D01*
X264749D01*
X45251Y89000D02*
X44751Y89499D01*
X43751D01*
X43251Y89000D01*
Y87000D01*
X43751Y86501D01*
X44751D01*
X45251Y87000D01*
X46250Y86501D02*
X47250D01*
X46750D01*
Y89499D01*
X46250Y89000D01*
X50749Y89499D02*
X48749D01*
Y88000D01*
X49749Y88500D01*
X50249D01*
X50749Y88000D01*
Y87000D01*
X50249Y86501D01*
X49249D01*
X48749Y87000D01*
X25098Y109513D02*
X24598Y110013D01*
X23599D01*
X23099Y109513D01*
Y107514D01*
X23599Y107014D01*
X24598D01*
X25098Y107514D01*
X26098Y107014D02*
X27097D01*
X26598D01*
Y110013D01*
X26098Y109513D01*
X30097Y107014D02*
Y110013D01*
X28597Y108513D01*
X30596D01*
X43251Y134000D02*
X42751Y134500D01*
X41751D01*
X41251Y134000D01*
Y132000D01*
X41751Y131500D01*
X42751D01*
X43251Y132000D01*
X44250Y131500D02*
X45250D01*
X44750D01*
Y134500D01*
X44250Y134000D01*
X46749D02*
X47249Y134500D01*
X48249D01*
X48749Y134000D01*
Y133500D01*
X48249Y133000D01*
X47749D01*
X48249D01*
X48749Y132500D01*
Y132000D01*
X48249Y131500D01*
X47249D01*
X46749Y132000D01*
X53251Y134000D02*
X52751Y134500D01*
X51751D01*
X51251Y134000D01*
Y132000D01*
X51751Y131500D01*
X52751D01*
X53251Y132000D01*
X54250Y131500D02*
X55250D01*
X54750D01*
Y134500D01*
X54250Y134000D01*
X58749Y131500D02*
X56749D01*
X58749Y133500D01*
Y134000D01*
X58249Y134500D01*
X57249D01*
X56749Y134000D01*
X63750D02*
X63251Y134500D01*
X62251D01*
X61751Y134000D01*
Y132000D01*
X62251Y131500D01*
X63251D01*
X63750Y132000D01*
X64750Y131500D02*
X65750D01*
X65250D01*
Y134500D01*
X64750Y134000D01*
X67249Y131500D02*
X68249D01*
X67749D01*
Y134500D01*
X67249Y134000D01*
X9251Y80000D02*
X8751Y80500D01*
X7751D01*
X7251Y80000D01*
Y78000D01*
X7751Y77500D01*
X8751D01*
X9251Y78000D01*
X10250Y77500D02*
X11250D01*
X10750D01*
Y80500D01*
X10250Y80000D01*
X12749D02*
X13249Y80500D01*
X14249D01*
X14749Y80000D01*
Y78000D01*
X14249Y77500D01*
X13249D01*
X12749Y78000D01*
Y80000D01*
X36500Y64000D02*
X36000Y64499D01*
X35001D01*
X34501Y64000D01*
Y62000D01*
X35001Y61501D01*
X36000D01*
X36500Y62000D01*
X37500D02*
X38000Y61501D01*
X38999D01*
X39499Y62000D01*
Y64000D01*
X38999Y64499D01*
X38000D01*
X37500Y64000D01*
Y63500D01*
X38000Y63000D01*
X39499D01*
X30500Y80000D02*
X30000Y80500D01*
X29001D01*
X28501Y80000D01*
Y78000D01*
X29001Y77500D01*
X30000D01*
X30500Y78000D01*
X31500Y80000D02*
X32000Y80500D01*
X32999D01*
X33499Y80000D01*
Y79500D01*
X32999Y79000D01*
X33499Y78500D01*
Y78000D01*
X32999Y77500D01*
X32000D01*
X31500Y78000D01*
Y78500D01*
X32000Y79000D01*
X31500Y79500D01*
Y80000D01*
X32000Y79000D02*
X32999D01*
X226000Y185500D02*
X225500Y185000D01*
Y184001D01*
X226000Y183501D01*
X228000D01*
X228500Y184001D01*
Y185000D01*
X228000Y185500D01*
X225500Y188499D02*
X226000Y187499D01*
X227000Y186500D01*
X228000D01*
X228500Y187000D01*
Y187999D01*
X228000Y188499D01*
X227500D01*
X227000Y187999D01*
Y186500D01*
X245000Y191500D02*
X244500Y191000D01*
Y190001D01*
X245000Y189501D01*
X247000D01*
X247499Y190001D01*
Y191000D01*
X247000Y191500D01*
X244500Y194499D02*
Y192500D01*
X246000D01*
X245500Y193500D01*
Y193999D01*
X246000Y194499D01*
X247000D01*
X247499Y193999D01*
Y193000D01*
X247000Y192500D01*
X198500Y156000D02*
X198000Y156500D01*
X197001D01*
X196501Y156000D01*
Y154000D01*
X197001Y153500D01*
X198000D01*
X198500Y154000D01*
X200999Y153500D02*
Y156500D01*
X199500Y155000D01*
X201499D01*
X190500Y156000D02*
X190000Y156500D01*
X189001D01*
X188501Y156000D01*
Y154000D01*
X189001Y153500D01*
X190000D01*
X190500Y154000D01*
X191500Y156000D02*
X192000Y156500D01*
X192999D01*
X193499Y156000D01*
Y155500D01*
X192999Y155000D01*
X192499D01*
X192999D01*
X193499Y154500D01*
Y154000D01*
X192999Y153500D01*
X192000D01*
X191500Y154000D01*
X208500Y156000D02*
X208000Y156500D01*
X207001D01*
X206501Y156000D01*
Y154000D01*
X207001Y153500D01*
X208000D01*
X208500Y154000D01*
X211499Y153500D02*
X209500D01*
X211499Y155500D01*
Y156000D01*
X210999Y156500D01*
X210000D01*
X209500Y156000D01*
X220000D02*
X219500Y156500D01*
X218500D01*
X218001Y156000D01*
Y154000D01*
X218500Y153500D01*
X219500D01*
X220000Y154000D01*
X221000Y153500D02*
X221999D01*
X221499D01*
Y156500D01*
X221000Y156000D01*
D16*
X220000Y10148D02*
D03*
X239000D02*
D03*
D17*
X220003Y9852D02*
D03*
X239007Y9854D02*
D03*
M02*
