<svg version="1.1" xmlns="http://www.w3.org/2000/svg" xmlns:xlink="http://www.w3.org/1999/xlink" stroke-linecap="round" stroke-linejoin="round" stroke-width="0" fill-rule="evenodd" clip-rule="evenodd" id="S4_SfYiCsz_U_bottom" viewBox="104.3 204.25 631.53 1236.26" width="0.6315299999999999in" height="1.23626in"><defs><style>.S4_SfYiCsz_U_fr4 {color: #0d3126;}
.S4_SfYiCsz_U_cu {color: #d48a3a;}
.S4_SfYiCsz_U_cf {color: #d48a3a; opacity: 0.55;}
.S4_SfYiCsz_U_sm {color: #25b77f; opacity: 0.78;}
.S4_SfYiCsz_U_ss {color: #e7edf5; opacity: 0.92;}
.S4_SfYiCsz_U_sp {color: #cad5e1; opacity: 0.45;}
.S4_SfYiCsz_U_out {color: #000000;}</style><mask id="J35sZhnD0_8-_clear-1" fill="#000" stroke="#000"><g><rect x="52.7" y="170.59" width="963.37" height="644.49" fill="#fff"/><path d="M 597.86 603.36 583.24 603.36 569.12 599.58 556.46 592.27 546.12 581.93 538.81 569.27 535.02 555.15 535.02 540.52 538.81 526.4 546.12 513.74 556.46 503.4 569.12 496.09 583.24 492.31 597.86 492.31 611.98 496.09 624.65 503.4 634.98 513.74 642.3 526.4 646.08 540.52 646.08 555.15 642.3 569.27 634.98 581.93 624.65 592.27 611.98 599.58 597.86 603.36"/><path d="M 358.29 540.9 350.37 540.9 342.72 538.86 335.86 534.9 330.26 529.3 326.3 522.44 324.25 514.79 324.25 506.87 326.3 499.22 330.26 492.36 335.86 486.76 342.72 482.8 350.37 480.75 358.29 480.75 365.94 482.8 372.8 486.76 378.4 492.36 382.36 499.22 384.41 506.87 384.41 514.79 382.36 522.44 378.4 529.3 372.8 534.9 365.94 538.86 358.29 540.9"/><path d="M 393.34 411.35 378.31 411.35 363.79 407.46 350.76 399.94 340.13 389.31 332.62 376.29 328.72 361.77 328.72 346.73 332.62 332.21 340.13 319.19 350.76 308.56 353.9 306.75 353.9 301.75 350.76 299.94 340.13 289.31 332.62 276.29 328.72 261.77 328.72 246.73 332.62 232.21 340.13 219.19 350.76 208.56 363.79 201.04 378.31 197.15 393.34 197.15 407.87 201.04 420.89 208.56 431.52 219.19 433.33 222.32 438.33 222.32 440.13 219.19 450.77 208.56 463.79 201.04 478.31 197.15 493.34 197.15 507.87 201.04 520.89 208.56 531.52 219.19 539.04 232.21 542.93 246.73 542.93 261.77 539.04 276.29 531.52 289.31 520.89 299.94 507.87 307.46 493.34 311.35 478.31 311.35 463.79 307.46 450.77 299.94 440.13 289.31 438.33 286.18 433.33 286.18 431.52 289.31 420.89 299.94 417.76 301.75 417.76 306.75 420.89 308.56 431.52 319.19 439.04 332.21 442.93 346.73 442.93 361.77 439.04 376.29 431.52 389.31 420.89 399.94 407.87 407.46 393.34 411.35"/></g></mask><circle cx="0" cy="0" r="30.905" id="J35sZhnD0_8-_pad-15"/><rect x="-30.905" y="-30.905" width="61.81" height="61.81" id="J35sZhnD0_8-_pad-20"/><circle cx="0" cy="0" r="20.08" id="J35sZhnD0_8-_pad-21"/><circle cx="0" cy="0" r="32.48" id="J35sZhnD0_8-_pad-25"/><circle cx="0" cy="0" r="31.89" id="J35sZhnD0_8-_pad-26"/><rect x="-31.89" y="-31.89" width="63.78" height="63.78" id="J35sZhnD0_8-_pad-27"/><circle cx="0" cy="0" r="108.27" id="J35sZhnD0_8-_pad-28"/><circle cx="0" cy="0" r="10" id="J35sZhnD0_8-_pad-29"/><rect x="-11.81" y="-19.685" width="23.62" height="39.37" id="J35sZhnD0_8-_pad-30"/><rect x="-43.305" y="-42.325" width="86.61" height="84.65" id="J35sZhnD0_8-_pad-31"/><mask id="JjDk_w5-TLT1_clear-1" fill="#000" stroke="#000"><g><rect x="147.99" y="643.63" width="671.03" height="511.85" fill="#fff"/><path d="M 581.62 836.16 576.37 836.16 568.87 824.5 561.33 836.16 556.19 836.16 566.24 820.33 555.37 803.46 561.03 803.46 568.94 816.02 576.93 803.46 582.48 803.46 571.61 820.26 581.62 836.16"/><path d="M 523.64 836.16 517.68 836.16 509.02 816.81 505.87 809.35 505.87 826.86 505.87 836.16 501.41 836.16 501.41 803.46 507.48 803.46 516.56 823.86 519.18 830.42 519.18 813.92 519.18 803.46 523.64 803.46 523.64 836.16"/><path d="M 608.96 836.16 585.11 836.16 585.11 832.37 594.78 832.37 594.78 803.46 599.28 803.46 599.28 832.37 608.96 832.37 608.96 836.16"/><path d="M 466.34 836.16 456.52 836.16 456.26 836.12 455.66 836.08 454.94 836.01 454.16 835.93 453.33 835.78 452.51 835.6 452.47 835.6 452.39 835.56 452.28 835.56 452.13 835.48 451.72 835.37 451.19 835.18 450.59 834.96 449.92 834.66 449.24 834.28 448.61 833.87 448.57 833.87 448.53 833.83 448.34 833.64 448.01 833.38 447.63 833.05 447.22 832.59 446.77 832.07 446.32 831.43 445.91 830.76 445.91 830.72 445.87 830.68 445.79 830.57 445.76 830.42 445.68 830.23 445.57 830.01 445.38 829.48 445.23 828.81 445.04 828.02 444.93 827.12 444.89 826.14 444.89 825.81 444.93 825.39 444.97 824.91 445.08 824.27 445.19 823.63 445.38 822.92 445.64 822.17 445.64 822.13 445.68 822.09 445.72 821.98 445.79 821.83 445.98 821.46 446.21 821.01 446.54 820.45 446.96 819.85 447.41 819.24 447.97 818.65 448.04 818.57 448.27 818.38 448.61 818.12 449.06 817.74 449.66 817.37 450.33 816.92 451.12 816.51 452.02 816.13 452.06 816.13 452.13 816.09 452.28 816.06 452.47 815.98 452.69 815.91 452.96 815.83 453.29 815.76 453.67 815.68 454.08 815.57 454.53 815.5 455.51 815.34 456.63 815.23 457.87 815.2 461.88 815.2 461.88 803.46 466.34 803.46 466.34 836.16"/><path d="M 478.38 838.78 474.26 838.78 491.43 798.09 495.56 798.09 478.38 838.78"/></g></mask><mask id="JjDk_w5-TLT1_clear-2" fill="#000" stroke="#000"><g><rect x="147.99" y="643.63" width="671.03" height="511.85" fill="#fff"/><path d="M 785.91 833.72 780.66 833.72 773.16 822.06 765.62 833.72 760.48 833.72 770.53 817.9 759.66 801.02 765.32 801.02 773.23 813.59 781.22 801.02 786.77 801.02 775.89 817.82 785.91 833.72"/><path d="M 671.61 833.72 665.64 833.72 656.98 814.37 653.83 806.91 653.83 824.42 653.83 833.72 649.37 833.72 649.37 801.02 655.44 801.02 664.52 821.42 667.14 827.99 667.14 811.49 667.14 801.02 671.61 801.02 671.61 833.72"/><path d="M 811.14 833.72 801.69 833.72 801.39 833.69 800.72 833.65 799.97 833.57 799.14 833.46 798.28 833.31 797.49 833.09 797.46 833.09 797.42 833.05 797.31 833.01 797.16 832.97 796.78 832.82 796.29 832.64 795.77 832.37 795.21 832.07 794.64 831.74 794.12 831.32 794.04 831.29 793.89 831.14 793.67 830.87 793.37 830.57 793.07 830.16 792.77 829.71 792.47 829.19 792.21 828.62 792.17 828.55 792.09 828.36 792.02 828.02 791.87 827.61 791.76 827.09 791.68 826.49 791.61 825.81 791.57 825.1 791.57 825.02 791.57 824.84 791.61 824.54 791.64 824.16 791.68 823.75 791.76 823.26 791.91 822.74 792.06 822.21 792.09 822.14 792.13 821.99 792.24 821.72 792.39 821.39 792.58 821.01 792.81 820.6 793.11 820.15 793.41 819.74 793.44 819.7 793.56 819.55 793.74 819.36 794.01 819.1 794.31 818.8 794.68 818.46 795.09 818.16 795.58 817.82 795.66 817.79 795.81 817.67 796.07 817.56 796.44 817.37 796.89 817.19 797.38 816.96 797.98 816.77 798.58 816.62 798.51 816.59 798.36 816.55 798.09 816.4 797.79 816.25 797.42 815.99 797.04 815.72 796.63 815.35 796.26 814.94 796.22 814.9 796.07 814.71 795.88 814.45 795.66 814.11 795.36 813.62 795.02 813.1 794.68 812.5 794.31 811.79 789.09 801.02 794.16 801.02 799.03 811.49 799.07 811.52 799.11 811.67 799.22 811.9 799.37 812.2 799.74 812.84 799.93 813.17 800.16 813.47 800.19 813.51 800.27 813.62 800.38 813.74 800.53 813.92 800.91 814.34 801.39 814.71 801.43 814.75 801.51 814.79 801.62 814.86 801.81 814.97 802.26 815.2 802.82 815.39 802.86 815.39 802.97 815.42 803.12 815.46 803.34 815.5 803.61 815.54 803.91 815.57 804.58 815.61 806.68 815.61 806.68 801.02 811.14 801.02 811.14 833.72"/><path d="M 726.96 833.72 717.13 833.72 716.87 833.69 716.27 833.65 715.56 833.57 714.77 833.5 713.94 833.35 713.12 833.16 713.08 833.16 713.01 833.12 712.89 833.12 712.74 833.05 712.33 832.94 711.81 832.75 711.21 832.52 710.53 832.22 709.86 831.85 709.22 831.44 709.18 831.44 709.14 831.4 708.96 831.21 708.62 830.95 708.24 830.61 707.83 830.16 707.38 829.64 706.93 829 706.52 828.32 706.52 828.29 706.48 828.25 706.41 828.14 706.37 827.99 706.29 827.8 706.18 827.57 705.99 827.05 705.84 826.37 705.66 825.59 705.54 824.69 705.51 823.71 705.51 823.37 705.54 822.96 705.58 822.47 705.69 821.84 705.81 821.2 705.99 820.49 706.26 819.74 706.26 819.7 706.29 819.66 706.33 819.55 706.41 819.4 706.59 819.02 706.82 818.57 707.16 818.01 707.57 817.41 708.02 816.81 708.58 816.21 708.66 816.14 708.88 815.95 709.22 815.69 709.67 815.31 710.27 814.94 710.94 814.49 711.73 814.07 712.63 813.7 712.67 813.7 712.74 813.66 712.89 813.62 713.08 813.55 713.31 813.47 713.57 813.4 713.91 813.32 714.28 813.25 714.69 813.14 715.14 813.06 716.12 812.91 717.24 812.8 718.48 812.76 722.49 812.76 722.49 801.02 726.96 801.02 726.96 833.72"/><path d="M 682.67 836.35 678.54 836.35 695.72 795.66 699.84 795.66 682.67 836.35"/></g></mask><mask id="JjDk_w5-TLT1_clear-3" fill="#000" stroke="#000"><g><rect x="147.99" y="643.63" width="671.03" height="511.85" fill="#fff"/><path d="M 288.87 1147.16 270.27 1147.16 270.27 1143.41 284.41 1143.41 284.41 1133.28 270.84 1133.28 270.84 1129.53 284.41 1129.53 284.41 1118.25 270.27 1118.25 270.27 1114.46 288.87 1114.46 288.87 1147.16"/><path d="M 235.44 1147.16 211.59 1147.16 211.59 1143.37 221.26 1143.37 221.26 1114.46 225.76 1114.46 225.76 1143.37 235.44 1143.37 235.44 1147.16"/><path d="M 177.31 1147.16 167.49 1147.16 167.22 1147.12 166.62 1147.08 165.91 1147.01 165.12 1146.93 164.3 1146.78 163.47 1146.6 163.44 1146.6 163.36 1146.56 163.25 1146.56 163.1 1146.48 162.69 1146.37 162.16 1146.18 161.56 1145.96 160.89 1145.66 160.21 1145.28 159.57 1144.87 159.54 1144.87 159.5 1144.83 159.31 1144.65 158.97 1144.38 158.6 1144.05 158.19 1143.6 157.74 1143.07 157.29 1142.43 156.87 1141.76 156.87 1141.72 156.84 1141.68 156.76 1141.57 156.72 1141.42 156.65 1141.23 156.54 1141.01 156.35 1140.48 156.2 1139.81 156.01 1139.02 155.9 1138.12 155.86 1137.15 155.86 1136.81 155.9 1136.4 155.94 1135.91 156.05 1135.27 156.16 1134.63 156.35 1133.92 156.61 1133.17 156.61 1133.13 156.65 1133.1 156.69 1132.98 156.76 1132.83 156.95 1132.46 157.17 1132.01 157.51 1131.45 157.92 1130.85 158.37 1130.25 158.94 1129.65 159.01 1129.57 159.24 1129.38 159.57 1129.12 160.02 1128.75 160.62 1128.37 161.3 1127.92 162.09 1127.51 162.99 1127.13 163.02 1127.13 163.1 1127.1 163.25 1127.06 163.44 1126.98 163.66 1126.91 163.92 1126.83 164.26 1126.76 164.64 1126.68 165.05 1126.57 165.5 1126.5 166.47 1126.35 167.6 1126.23 168.84 1126.2 172.85 1126.2 172.85 1114.46 177.31 1114.46 177.31 1147.16"/><path d="M 250.4 1147.61 249.61 1147.61 249.27 1147.57 248.6 1147.53 248.41 1147.53 248.22 1147.5 248 1147.5 247.7 1147.46 247.36 1147.42 246.65 1147.31 246.61 1147.31 246.46 1147.27 246.27 1147.27 246.05 1147.2 245.75 1147.16 245.41 1147.12 244.7 1146.97 244.66 1146.97 244.55 1146.93 244.36 1146.93 244.1 1146.86 243.84 1146.82 243.54 1146.78 242.9 1146.63 242.9 1142.62 242.94 1142.62 242.97 1142.66 243.09 1142.66 243.24 1142.7 243.61 1142.81 244.1 1142.92 244.7 1143.07 245.34 1143.18 246.05 1143.33 246.76 1143.45 246.84 1143.45 246.95 1143.48 247.1 1143.48 247.47 1143.56 247.92 1143.6 248.52 1143.67 249.12 1143.71 250.47 1143.75 251.11 1143.75 251.41 1143.71 251.79 1143.67 252.16 1143.63 252.61 1143.6 253.51 1143.45 254.45 1143.22 255.35 1142.88 255.72 1142.7 256.1 1142.47 256.14 1142.47 256.17 1142.4 256.36 1142.25 256.66 1141.95 257 1141.57 257.34 1141.08 257.6 1140.48 257.82 1139.81 257.86 1139.43 257.9 1139.02 257.9 1138.95 257.9 1138.8 257.86 1138.57 257.82 1138.23 257.71 1137.9 257.6 1137.52 257.41 1137.11 257.19 1136.73 257.15 1136.7 257.04 1136.58 256.89 1136.4 256.66 1136.17 256.36 1135.91 256.06 1135.65 255.65 1135.35 255.24 1135.05 255.2 1135.01 255.01 1134.93 254.79 1134.78 254.45 1134.6 254.04 1134.37 253.59 1134.15 253.06 1133.92 252.5 1133.7 252.42 1133.66 252.24 1133.58 251.94 1133.47 251.52 1133.32 251.07 1133.13 250.55 1132.91 249.99 1132.68 249.39 1132.42 249.35 1132.42 249.31 1132.38 249.12 1132.31 248.79 1132.2 248.37 1132.01 247.92 1131.78 247.36 1131.56 246.24 1131 246.16 1130.96 245.97 1130.85 245.67 1130.7 245.3 1130.47 244.89 1130.21 244.44 1129.91 243.5 1129.16 243.46 1129.12 243.31 1128.97 243.09 1128.75 242.79 1128.45 242.49 1128.11 242.19 1127.66 241.85 1127.21 241.55 1126.68 241.51 1126.61 241.44 1126.42 241.32 1126.12 241.17 1125.75 241.02 1125.22 240.91 1124.66 240.84 1124.02 240.8 1123.31 240.8 1122.93 240.84 1122.71 240.84 1122.48 240.91 1121.92 241.02 1121.28 241.21 1120.61 241.44 1119.9 241.77 1119.22 241.77 1119.18 241.81 1119.15 241.96 1118.92 242.15 1118.62 242.45 1118.21 242.82 1117.72 243.27 1117.23 243.84 1116.75 244.44 1116.3 244.51 1116.26 244.74 1116.11 245.11 1115.88 245.56 1115.66 246.16 1115.36 246.87 1115.1 247.66 1114.8 248.52 1114.57 248.56 1114.57 248.64 1114.53 248.75 1114.53 248.94 1114.5 249.16 1114.46 249.42 1114.38 249.72 1114.35 250.06 1114.31 250.85 1114.2 251.75 1114.08 252.72 1114.05 253.77 1114.01 254.6 1114.01 254.97 1114.05 255.42 1114.05 256.36 1114.12 256.4 1114.12 256.59 1114.16 256.81 1114.16 257.15 1114.2 257.52 1114.23 257.94 1114.27 258.84 1114.38 258.87 1114.38 259.02 1114.42 259.29 1114.42 259.55 1114.46 259.92 1114.5 260.3 1114.57 261.09 1114.68 261.12 1114.68 261.27 1114.72 261.46 1114.76 261.72 1114.83 261.99 1114.91 262.32 1114.98 262.96 1115.13 262.96 1119.45 262.92 1119.45 262.89 1119.41 262.77 1119.37 262.62 1119.33 262.25 1119.18 261.72 1119.03 261.12 1118.85 260.41 1118.66 259.62 1118.47 258.76 1118.32 258.65 1118.32 258.54 1118.28 258.35 1118.25 258.12 1118.25 257.86 1118.21 257.56 1118.17 257.22 1118.13 256.44 1118.06 255.54 1118.02 254.52 1117.95 252.69 1117.95 252.16 1117.98 251.6 1118.02 251 1118.06 250.4 1118.13 249.8 1118.25 249.72 1118.25 249.54 1118.32 249.27 1118.4 248.9 1118.51 248.52 1118.66 248.11 1118.81 247.7 1119.03 247.32 1119.26 247.29 1119.3 247.17 1119.37 246.99 1119.52 246.76 1119.71 246.54 1119.93 246.31 1120.23 246.09 1120.53 245.9 1120.87 245.86 1120.91 245.82 1121.02 245.75 1121.25 245.67 1121.51 245.6 1121.81 245.52 1122.18 245.45 1122.6 245.45 1123.05 245.45 1123.12 245.45 1123.27 245.49 1123.5 245.52 1123.83 245.64 1124.17 245.75 1124.55 245.94 1124.92 246.2 1125.3 246.24 1125.33 246.35 1125.45 246.5 1125.63 246.72 1125.86 246.99 1126.12 247.32 1126.42 247.74 1126.68 248.15 1126.98 248.19 1127.02 248.37 1127.1 248.6 1127.25 248.94 1127.43 249.35 1127.66 249.8 1127.88 250.32 1128.11 250.89 1128.33 250.96 1128.37 251.15 1128.45 251.45 1128.56 251.86 1128.71 252.31 1128.9 252.87 1129.12 253.44 1129.35 254.04 1129.57 254.11 1129.61 254.3 1129.68 254.6 1129.83 255.01 1130.02 255.5 1130.21 256.02 1130.47 257.15 1131 257.22 1131.03 257.41 1131.15 257.71 1131.3 258.05 1131.52 258.5 1131.78 258.95 1132.08 259.89 1132.8 259.92 1132.83 260.07 1132.98 260.3 1133.21 260.56 1133.51 260.9 1133.85 261.2 1134.26 261.54 1134.75 261.84 1135.23 261.87 1135.31 261.95 1135.5 262.06 1135.8 262.17 1136.17 262.32 1136.66 262.44 1137.26 262.51 1137.9 262.55 1138.57 262.55 1138.61 262.55 1138.65 262.55 1138.87 262.51 1139.21 262.47 1139.62 262.4 1140.11 262.25 1140.67 262.1 1141.27 261.87 1141.87 261.87 1141.91 261.84 1141.95 261.72 1142.13 261.57 1142.47 261.35 1142.85 261.01 1143.3 260.64 1143.78 260.22 1144.27 259.7 1144.76 259.62 1144.83 259.44 1144.98 259.1 1145.21 258.65 1145.51 258.12 1145.81 257.45 1146.18 256.74 1146.52 255.91 1146.82 255.87 1146.82 255.8 1146.86 255.69 1146.9 255.5 1146.93 255.27 1147.01 255.01 1147.08 254.71 1147.16 254.34 1147.23 253.55 1147.35 252.61 1147.5 251.56 1147.57 250.4 1147.61"/><path d="M 195.09 1147.61 194.56 1147.61 194.3 1147.57 193.96 1147.53 193.62 1147.5 193.21 1147.46 192.35 1147.31 191.45 1147.12 190.51 1146.82 189.61 1146.45 189.57 1146.45 189.5 1146.41 189.39 1146.33 189.24 1146.22 188.79 1145.96 188.26 1145.58 187.66 1145.13 186.99 1144.57 186.35 1143.9 185.75 1143.15 185.71 1143.11 185.67 1143.03 185.6 1142.92 185.49 1142.77 185.37 1142.55 185.22 1142.32 185.04 1142.02 184.85 1141.68 184.47 1140.93 184.1 1140.03 183.72 1139.06 183.42 1137.93 183.42 1137.9 183.39 1137.78 183.35 1137.63 183.31 1137.41 183.24 1137.11 183.16 1136.77 183.09 1136.36 183.01 1135.91 182.97 1135.42 182.9 1134.9 182.82 1134.33 182.75 1133.7 182.67 1132.42 182.64 1131 182.64 1130.25 182.67 1129.87 182.67 1129.42 182.71 1128.93 182.75 1128.41 182.82 1127.81 182.9 1127.21 183.09 1125.93 183.35 1124.62 183.69 1123.38 183.69 1123.35 183.72 1123.23 183.8 1123.08 183.87 1122.86 183.99 1122.6 184.1 1122.26 184.44 1121.55 184.85 1120.68 185.3 1119.82 185.86 1118.92 186.5 1118.1 186.54 1118.06 186.57 1118.02 186.69 1117.91 186.8 1117.76 187.17 1117.38 187.66 1116.93 188.26 1116.45 188.97 1115.92 189.76 1115.43 190.62 1115.02 190.66 1115.02 190.74 1114.98 190.85 1114.95 191.04 1114.87 191.26 1114.8 191.52 1114.68 192.12 1114.53 192.87 1114.35 193.74 1114.16 194.64 1114.05 195.61 1114.01 195.91 1114.01 196.14 1114.05 196.4 1114.05 196.74 1114.08 197.07 1114.12 197.49 1114.16 198.35 1114.27 199.25 1114.5 200.19 1114.76 201.09 1115.13 201.12 1115.13 201.2 1115.17 201.31 1115.25 201.46 1115.36 201.91 1115.62 202.44 1115.96 203.04 1116.41 203.71 1116.97 204.35 1117.65 204.95 1118.4 204.95 1118.43 205.02 1118.51 205.1 1118.62 205.21 1118.77 205.32 1119 205.47 1119.26 205.62 1119.52 205.81 1119.86 206.19 1120.65 206.56 1121.55 206.94 1122.52 207.24 1123.65 207.24 1123.68 207.27 1123.8 207.31 1123.95 207.35 1124.21 207.42 1124.47 207.46 1124.85 207.54 1125.22 207.61 1125.67 207.69 1126.2 207.76 1126.72 207.8 1127.28 207.87 1127.92 207.95 1129.2 207.99 1130.62 207.99 1131.33 207.95 1131.75 207.95 1132.16 207.91 1132.65 207.87 1133.21 207.72 1134.37 207.57 1135.65 207.31 1136.92 206.97 1138.16 206.97 1138.2 206.94 1138.31 206.86 1138.46 206.79 1138.68 206.67 1138.98 206.56 1139.28 206.26 1140.03 205.85 1140.86 205.36 1141.76 204.84 1142.62 204.2 1143.45 204.16 1143.48 204.12 1143.52 204.01 1143.63 203.9 1143.78 203.52 1144.16 203.04 1144.61 202.4 1145.13 201.72 1145.66 200.94 1146.15 200.07 1146.56 200.04 1146.56 199.96 1146.6 199.85 1146.67 199.66 1146.71 199.44 1146.82 199.17 1146.9 198.57 1147.08 197.82 1147.27 196.96 1147.46 196.06 1147.57 195.09 1147.61"/></g></mask><mask id="JjDk_w5-TLT1_clear-4" fill="#000" stroke="#000"><g><rect x="147.99" y="643.63" width="671.03" height="511.85" fill="#fff"/><path d="M 202.69 921.4 196.73 921.4 188.06 902.05 184.91 894.58 184.91 912.1 184.91 921.4 180.45 921.4 180.45 888.7 186.53 888.7 195.6 909.1 198.23 915.66 198.23 899.16 198.23 888.7 202.69 888.7 202.69 921.4"/><path d="M 257.74 921.4 248.29 921.4 247.99 921.36 247.31 921.32 246.56 921.25 245.74 921.13 244.88 920.98 244.09 920.76 244.05 920.76 244.01 920.72 243.9 920.68 243.75 920.65 243.38 920.5 242.89 920.31 242.36 920.05 241.8 919.75 241.24 919.41 240.71 919 240.64 918.96 240.49 918.81 240.26 918.55 239.96 918.25 239.66 917.83 239.36 917.38 239.06 916.86 238.8 916.3 238.76 916.22 238.69 916.03 238.61 915.7 238.46 915.28 238.35 914.76 238.28 914.16 238.2 913.48 238.16 912.77 238.16 912.7 238.16 912.51 238.2 912.21 238.24 911.83 238.28 911.42 238.35 910.93 238.5 910.41 238.65 909.88 238.69 909.81 238.73 909.66 238.84 909.4 238.99 909.06 239.18 908.68 239.4 908.27 239.7 907.82 240 907.41 240.04 907.37 240.15 907.22 240.34 907.03 240.6 906.77 240.9 906.47 241.28 906.13 241.69 905.83 242.18 905.5 242.25 905.46 242.4 905.35 242.66 905.23 243.04 905.05 243.49 904.86 243.98 904.63 244.58 904.45 245.18 904.3 245.1 904.26 244.95 904.22 244.69 904.07 244.39 903.92 244.01 903.66 243.64 903.4 243.23 903.02 242.85 902.61 242.81 902.57 242.66 902.38 242.48 902.12 242.25 901.78 241.95 901.3 241.61 900.77 241.28 900.17 240.9 899.46 235.69 888.7 240.75 888.7 245.63 899.16 245.66 899.2 245.7 899.35 245.81 899.57 245.96 899.87 246.34 900.51 246.53 900.85 246.75 901.15 246.79 901.18 246.86 901.3 246.98 901.41 247.13 901.6 247.5 902.01 247.99 902.38 248.03 902.42 248.1 902.46 248.21 902.53 248.4 902.65 248.85 902.87 249.41 903.06 249.45 903.06 249.56 903.1 249.71 903.13 249.94 903.17 250.2 903.21 250.5 903.25 251.18 903.28 253.28 903.28 253.28 888.7 257.74 888.7 257.74 921.4"/><path d="M 231.68 921.4 207.83 921.4 207.83 917.61 217.5 917.61 217.5 888.7 222 888.7 222 917.61 231.68 917.61 231.68 921.4"/></g></mask><rect x="-21.81" y="-29.685" width="43.62" height="59.37" id="AuYhuykixLmY_pad-34"/><rect x="-53.305" y="-52.325" width="106.61" height="104.65" id="AuYhuykixLmY_pad-35"/><circle cx="0" cy="0" r="30.905" id="NKopPO01Loj2_pad-15"/><circle cx="0" cy="0" r="33.975" id="NKopPO01Loj2_pad-16"/><circle cx="0" cy="0" r="33.385" id="NKopPO01Loj2_pad-17"/><rect x="-33.385" y="-33.385" width="66.77" height="66.77" id="NKopPO01Loj2_pad-18"/><circle cx="0" cy="0" r="21.575" id="NKopPO01Loj2_pad-19"/><rect x="-30.905" y="-30.905" width="61.81" height="61.81" id="NKopPO01Loj2_pad-20"/><circle cx="0" cy="0" r="20.08" id="NKopPO01Loj2_pad-21"/><circle cx="0" cy="0" r="109.765" id="NKopPO01Loj2_pad-22"/><rect x="-13.305" y="-21.18" width="26.61" height="42.36" id="NKopPO01Loj2_pad-32"/><rect x="-44.805" y="-43.82" width="89.61" height="87.64" id="NKopPO01Loj2_pad-33"/><g id="S4_SfYiCsz_U_bottom_copper"><g mask="url(#J35sZhnD0_8-_clear-1)"><path d="M 207.08 672.57 207.73 669.39 207.95 666.15 208.71 664.64 209.05 662.97 210.87 660.29 212.31 657.38 213.59 656.27 214.54 654.87 215.4 654.3 215.4 625.16 214.74 624.72 213.85 623.37 212.64 622.3 211.18 619.31 209.35 616.54 209.04 614.95 208.33 613.5 208.13 610.18 207.5 606.92 207.58 594.37 196.85 583.63 56.23 583.63 52.7 587.18 53.02 743.12 206.63 743.12 207.08 672.57"/><path d="M 716.05 693.86 711.05 692.52 707.42 698.79 700.98 705.23 697.29 707.36 696.84 710.33 697.07 713.26 702.93 719.12 707.49 727.02 709.85 735.83 709.85 744.94 707.49 753.75 702.93 761.64 696.49 768.09 688.59 772.65 679.79 775 670.67 775 661.87 772.65 653.97 768.09 647.53 761.64 642.97 753.75 640.61 744.94 640.61 735.83 642.97 727.02 647.53 719.12 653.97 712.68 657.66 710.55 658.11 707.58 657.88 704.65 652.01 698.79 647.46 690.89 646.93 688.93 645.61 688.48 641.64 688.51 634.98 700.04 624.65 710.38 611.98 717.69 597.86 721.47 583.24 721.47 569.12 717.69 556.46 710.38 546.12 700.04 538.81 687.38 535.02 673.26 535.02 658.64 538.81 644.51 546.12 631.85 556.46 621.51 569.12 614.2 583.24 610.42 597.86 610.42 611.98 614.2 624.65 621.51 634.98 631.85 642.3 644.51 645.7 657.21 650.09 658.28 650.9 658.2 652.01 656.27 658.46 649.82 666.36 645.27 671.75 643.82 671.09 638.82 670.17 638.82 661.37 636.46 653.47 631.9 647.03 625.46 642.47 617.56 640.11 608.76 640.11 599.64 642.47 590.84 647.03 582.94 653.47 576.49 661.37 571.94 670.17 569.58 679.29 569.58 688.09 571.94 695.99 576.49 702.44 582.94 706.99 590.84 709.35 599.64 709.35 608.76 706.99 617.56 702.44 625.46 695.99 631.9 688.09 636.46 682.7 637.91 683.36 642.91 684.28 642.91 693.08 645.27 700.98 649.82 707.42 656.27 711.05 662.54 716.05 661.2 716.05 543.53 712.62 540.9 704.7 540.9 697.05 538.86 690.19 534.9 684.59 529.3 680.63 522.44 678.58 514.79 678.58 506.87 680.63 499.22 684.59 492.36 690.19 486.76 697.05 482.8 704.7 480.75 712.62 480.75 716.05 478.12 716.05 428.01 698.11 410.08 693.35 411.35 678.31 411.35 663.79 407.46 650.77 399.94 640.13 389.31 632.62 376.29 628.72 361.77 628.72 346.73 632.62 332.21 640.13 319.19 650.77 308.56 653.9 306.75 653.9 301.75 650.77 299.94 640.13 289.31 632.62 276.29 628.72 261.77 628.72 246.73 632.62 232.21 640.13 219.19 650.77 208.56 663.79 201.04 678.31 197.15 693.35 197.15 707.87 201.04 720.89 208.56 731.52 219.19 733.99 223.46 769.64 223.46 769.64 223.46 777.61 224.51 785.04 227.59 791.41 232.48 798.33 239.4 798.33 239.4 803.22 245.77 806.3 253.2 807.35 261.17 807.35 261.17 807.35 340.16 812.35 342.23 822.88 331.71 839.8 319.41 858.44 309.92 878.33 303.45 898.99 300.18 919.91 300.18 940.57 303.45 960.46 309.92 979.1 319.41 996.02 331.71 1010.81 346.5 1011.47 347.4 1016.07 345.45 1014.29 335.19 1007.56 311.72 998.37 289.1 986.83 267.58 973.05 247.42 957.2 228.84 939.46 212.06 920.04 197.26 899.15 184.62 877.03 174.28 867.69 171.08 236.93 170.59 235.4 170.93 234.43 321.85 248 331.71 262.8 346.5 275.09 363.42 284.59 382.06 291.05 401.95 294.32 422.61 294.32 443.53 291.05 464.19 284.59 484.08 275.09 502.72 262.8 519.64 248 534.43 233 545.33 232.6 607.08 236.93 609.59 240.08 607.77 248.89 605.41 258 605.41 266.81 607.77 274.7 612.33 281.15 618.78 285.71 626.67 288.06 635.48 288.06 644.59 285.71 653.4 281.15 661.29 274.7 667.74 266.81 672.3 258 674.66 248.89 674.66 240.08 672.3 236.52 670.24 232.18 672.73 231.36 800.72 234.89 804.27 235.32 804.27 244.12 806.63 252.02 811.19 255.91 815.08 360.1 815.08 364.71 813.84 373.82 813.84 378.43 815.08 716.05 815.08 716.05 693.86"/></g><path d="M 571.85 1281.33 575.54 1281.33 M 631.4 1250.06 656.98 1275.64 M 590.3 1218.43 595.03 1218.43 M 630.82 1250.06 631.4 1250.06 M 575.54 1281.33 600.89 1255.98 M 620.89 1221.86 620.89 1240.13 630.82 1250.06 M 620.89 1221.86 628.75 1214 651.48 1214 M 600.89 1224.29 600.89 1255.98 M 583.49 1203.75 583.49 1211.62 590.3 1218.43 M 595.03 1218.43 600.89 1224.29 M 658.29 1195.87 658.29 1207.19 M 651.48 1214 658.29 1207.19 M 656.98 1275.64 656.98 1290.51 M 571.85 1281.33 571.85 1290.51 M 599.91 1163.94 610.89 1174.92 M 590.3 1192.28 601.81 1192.28 M 626.87 953.58 697.9 953.58 M 551.99 1089.27 569.56 1071.69 M 618.64 990.1 635.16 973.58 M 551.99 1121.35 594.58 1163.94 M 601.81 1192.28 610.89 1183.2 M 577.46 1071.69 598.64 1050.51 M 610.89 1174.92 610.89 1183.2 M 679.58 1014.51 689.87 1024.8 M 712.49 1024.8 718.35 1018.94 M 689.87 1024.8 712.49 1024.8 M 630.89 1166.63 630.89 1183.2 M 689.61 973.58 718.35 1002.32 M 569.56 1071.69 577.46 1071.69 M 598.64 981.82 626.87 953.58 M 583.49 1199.1 590.3 1192.28 M 697.9 953.58 738.35 994.03 M 738.35 1018.94 744.2 1024.8 787.4 1024.8 M 738.35 994.03 738.35 1018.94 M 594.58 1163.94 599.91 1163.94 M 602.86 1143.94 608.2 1143.94 M 718.35 1002.32 718.35 1018.94 M 585.74 1091.69 618.64 1058.8 M 577.85 1091.69 585.74 1091.69 M 618.64 990.1 618.64 1058.8 M 635.16 973.58 689.61 973.58 M 669.29 1024.8 679.58 1014.51 M 598.64 981.82 598.64 1050.51 M 571.99 1097.55 577.85 1091.69 M 608.2 1143.94 630.89 1166.63 M 571.99 1097.55 571.99 1113.07 M 551.99 1089.27 551.99 1121.35 M 571.99 1113.07 602.86 1143.94 M 630.89 1183.2 636.75 1189.06 651.48 1189.06 658.29 1195.87 M 656.98 1290.51 671.85 1290.51 M 371.85 1290.51 382.37 1280 407.04 1280 411.26 1275.77 M 417.48 1203.75 417.48 1211.62 M 424.29 1218.43 439.03 1218.43 M 439.03 1238.43 444.88 1232.57 M 444.88 1224.29 444.88 1232.57 M 439.03 1218.43 444.88 1224.29 M 417.48 1211.62 424.29 1218.43 M 411.26 1255.67 428.5 1238.43 439.03 1238.43 M 411.26 1255.67 411.26 1275.77 M 461.33 1280 471.85 1290.51 M 435.48 1280 461.33 1280 M 431.26 1275.77 435.48 1280 M 431.26 1263.96 431.26 1275.77 M 431.26 1263.96 436.79 1258.43 447.31 1258.43 464.88 1240.86 M 464.88 1224.29 470.74 1218.43 M 464.88 1224.29 464.88 1240.86 M 492.29 1203.75 492.29 1211.62 M 485.47 1218.43 492.29 1211.62 M 470.74 1218.43 485.47 1218.43 M 492.29 1195.87 492.29 1203.75 M 470.74 1189.06 485.47 1189.06 492.29 1195.87 M 464.88 1183.2 470.74 1189.06 M 470.74 1169.06 476.07 1169.06 M 464.88 1174.92 470.74 1169.06 M 502.13 1030.66 502.13 1143.01 M 476.07 1169.06 502.13 1143.01 M 464.88 1174.92 464.88 1183.2 M 507.98 1024.8 551.18 1024.8 M 502.13 1030.66 507.98 1024.8 M 444.88 1166.63 462.46 1149.06 467.79 1149.06 M 444.88 1166.63 444.88 1183.2 M 424.29 1189.06 439.03 1189.06 444.88 1183.2 M 417.48 1195.87 424.29 1189.06 M 417.48 1195.87 417.48 1203.75 M 467.79 1149.06 482.13 1134.72 M 476.27 1024.8 482.13 1030.66 M 433.07 1024.8 476.27 1024.8 M 482.13 1030.66 482.13 1134.72" fill="none" stroke-width="10"/><use xlink:href="#J35sZhnD0_8-_pad-15" x="590.55" y="547.83"/><use xlink:href="#J35sZhnD0_8-_pad-15" x="590.55" y="665.94"/><use xlink:href="#J35sZhnD0_8-_pad-15" x="472.44" y="547.83"/><use xlink:href="#J35sZhnD0_8-_pad-20" x="472.44" y="665.94"/><use xlink:href="#J35sZhnD0_8-_pad-21" x="905.51" y="1061.81"/><use xlink:href="#J35sZhnD0_8-_pad-21" x="196.85" y="1061.81"/><use xlink:href="#J35sZhnD0_8-_pad-21" x="708.66" y="510.83"/><use xlink:href="#J35sZhnD0_8-_pad-21" x="354.33" y="510.83"/><path d="M 685.83 354.25 746.84 415.26 746.84 829.15 M 669.29 906.69 746.84 829.15 M 769.64 254.25 776.56 261.17 776.56 895.85 787.4 906.69 M 685.83 254.25 769.64 254.25" fill="none" stroke-width="11.81"/><path d="M 620.89 1109.11 620.89 1109.26 M 620.89 1109.11 622.7 1107.3 651.48 1107.3 M 454.88 1109.11 454.88 1109.26 M 453.07 1107.3 454.88 1109.11 M 407.04 1107.3 453.07 1107.3 M 253.06 961.15 304.63 909.58 M 253.06 961.15 253.06 1166.35 303.15 1216.44 303.15 1321.81 371.85 1390.51" fill="none" stroke-width="20"/><use xlink:href="#J35sZhnD0_8-_pad-25" x="485.83" y="254.25"/><use xlink:href="#J35sZhnD0_8-_pad-25" x="485.83" y="354.25"/><use xlink:href="#J35sZhnD0_8-_pad-25" x="385.83" y="254.25"/><use xlink:href="#J35sZhnD0_8-_pad-25" x="385.83" y="354.25"/><use xlink:href="#J35sZhnD0_8-_pad-25" x="571.85" y="1290.51"/><use xlink:href="#J35sZhnD0_8-_pad-25" x="671.85" y="1290.51"/><use xlink:href="#J35sZhnD0_8-_pad-25" x="471.85" y="1290.51"/><use xlink:href="#J35sZhnD0_8-_pad-25" x="371.85" y="1290.51"/><use xlink:href="#J35sZhnD0_8-_pad-25" x="671.85" y="1390.51"/><use xlink:href="#J35sZhnD0_8-_pad-25" x="571.85" y="1390.51"/><use xlink:href="#J35sZhnD0_8-_pad-25" x="471.85" y="1390.51"/><use xlink:href="#J35sZhnD0_8-_pad-25" x="371.85" y="1390.51"/><use xlink:href="#J35sZhnD0_8-_pad-25" x="685.83" y="354.25"/><use xlink:href="#J35sZhnD0_8-_pad-25" x="685.83" y="254.25"/><use xlink:href="#J35sZhnD0_8-_pad-25" x="585.83" y="254.25"/><use xlink:href="#J35sZhnD0_8-_pad-25" x="585.83" y="354.25"/><use xlink:href="#J35sZhnD0_8-_pad-26" x="787.4" y="1024.8"/><use xlink:href="#J35sZhnD0_8-_pad-26" x="669.29" y="1024.8"/><use xlink:href="#J35sZhnD0_8-_pad-26" x="669.29" y="906.69"/><use xlink:href="#J35sZhnD0_8-_pad-26" x="551.18" y="908.31"/><use xlink:href="#J35sZhnD0_8-_pad-26" x="433.07" y="908.31"/><use xlink:href="#J35sZhnD0_8-_pad-26" x="314.96" y="908.31"/><use xlink:href="#J35sZhnD0_8-_pad-26" x="551.18" y="1024.8"/><use xlink:href="#J35sZhnD0_8-_pad-26" x="433.07" y="1024.8"/><use xlink:href="#J35sZhnD0_8-_pad-26" x="314.96" y="1024.8"/><use xlink:href="#J35sZhnD0_8-_pad-27" x="787.4" y="906.69"/><use xlink:href="#J35sZhnD0_8-_pad-28" x="909.45" y="433.07"/><use xlink:href="#J35sZhnD0_8-_pad-28" x="161.43" y="433.07"/><use xlink:href="#J35sZhnD0_8-_pad-28" x="909.46" y="1340"/><use xlink:href="#J35sZhnD0_8-_pad-28" x="161.43" y="1340"/><use xlink:href="#J35sZhnD0_8-_pad-29" x="522.09" y="967.35"/><use xlink:href="#J35sZhnD0_8-_pad-29" x="545.86" y="1201.82"/><use xlink:href="#J35sZhnD0_8-_pad-29" x="359.19" y="1203.59"/><use xlink:href="#J35sZhnD0_8-_pad-29" x="675.23" y="740.38"/><use xlink:href="#J35sZhnD0_8-_pad-29" x="674.73" y="604.2"/><use xlink:href="#J35sZhnD0_8-_pad-29" x="679.72" y="677.53"/><use xlink:href="#J35sZhnD0_8-_pad-29" x="921.15" y="712.54"/><use xlink:href="#J35sZhnD0_8-_pad-29" x="972.95" y="642.95"/><use xlink:href="#J35sZhnD0_8-_pad-29" x="972.42" y="798.6"/><use xlink:href="#J35sZhnD0_8-_pad-29" x="372.29" y="964.81"/><use xlink:href="#J35sZhnD0_8-_pad-29" x="230.76" y="838.89"/><use xlink:href="#J35sZhnD0_8-_pad-29" x="369.26" y="848.46"/><use xlink:href="#J35sZhnD0_8-_pad-29" x="731.39" y="1083.16"/><use xlink:href="#J35sZhnD0_8-_pad-29" x="622.6" y="1456.37"/><use xlink:href="#J35sZhnD0_8-_pad-29" x="516.83" y="1456.37"/><use xlink:href="#J35sZhnD0_8-_pad-29" x="266.01" y="1451.33"/><use xlink:href="#J35sZhnD0_8-_pad-29" x="95.28" y="1181.88"/><use xlink:href="#J35sZhnD0_8-_pad-29" x="762.07" y="1334.38"/><use xlink:href="#J35sZhnD0_8-_pad-29" x="788.04" y="1430.39"/><use xlink:href="#J35sZhnD0_8-_pad-29" x="987.07" y="1189.26"/><use xlink:href="#J35sZhnD0_8-_pad-29" x="875.85" y="1157.91"/><use xlink:href="#J35sZhnD0_8-_pad-29" x="747.66" y="1189.34"/><use xlink:href="#J35sZhnD0_8-_pad-29" x="921.82" y="1124.18"/><use xlink:href="#J35sZhnD0_8-_pad-29" x="921.82" y="1006.07"/><use xlink:href="#J35sZhnD0_8-_pad-29" x="921.82" y="887.96"/><use xlink:href="#J35sZhnD0_8-_pad-29" x="803.71" y="1242.29"/><use xlink:href="#J35sZhnD0_8-_pad-29" x="803.71" y="1124.18"/><use xlink:href="#J35sZhnD0_8-_pad-29" x="685.6" y="1124.18"/><use xlink:href="#J35sZhnD0_8-_pad-29" x="213.16" y="1124.18"/><use xlink:href="#J35sZhnD0_8-_pad-29" x="213.16" y="1006.07"/><use xlink:href="#J35sZhnD0_8-_pad-29" x="213.16" y="887.96"/><use xlink:href="#J35sZhnD0_8-_pad-29" x="95.05" y="1124.18"/><use xlink:href="#J35sZhnD0_8-_pad-29" x="95.05" y="1006.07"/><use xlink:href="#J35sZhnD0_8-_pad-29" x="95.05" y="887.96"/><use xlink:href="#J35sZhnD0_8-_pad-29" x="279.89" y="551.16"/><use xlink:href="#J35sZhnD0_8-_pad-29" x="279.77" y="278.77"/><use xlink:href="#J35sZhnD0_8-_pad-29" x="310.54" y="755.37"/><use xlink:href="#J35sZhnD0_8-_pad-29" x="487.13" y="753.08"/><use xlink:href="#J35sZhnD0_8-_pad-29" x="431.26" y="752.2"/><use xlink:href="#J35sZhnD0_8-_pad-29" x="378.33" y="752.2"/><use xlink:href="#J35sZhnD0_8-_pad-29" x="842.31" y="272.81"/><use xlink:href="#J35sZhnD0_8-_pad-29" x="636.34" y="430.21"/><use xlink:href="#J35sZhnD0_8-_pad-29" x="585.61" y="417.78"/><use xlink:href="#J35sZhnD0_8-_pad-29" x="902.14" y="198.98"/><use xlink:href="#J35sZhnD0_8-_pad-29" x="803.72" y="198.98"/><use xlink:href="#J35sZhnD0_8-_pad-29" x="606.87" y="297.41"/><use xlink:href="#J35sZhnD0_8-_pad-29" x="606.87" y="198.98"/><use xlink:href="#J35sZhnD0_8-_pad-29" x="508.44" y="592.68"/><use xlink:href="#J35sZhnD0_8-_pad-29" x="410.01" y="691.11"/><use xlink:href="#J35sZhnD0_8-_pad-29" x="410.01" y="592.68"/><use xlink:href="#J35sZhnD0_8-_pad-29" x="311.59" y="592.68"/><use xlink:href="#J35sZhnD0_8-_pad-29" x="311.59" y="494.26"/><use xlink:href="#J35sZhnD0_8-_pad-29" x="651.48" y="1107.3"/><use xlink:href="#J35sZhnD0_8-_pad-29" x="407.04" y="1107.3"/><use xlink:href="#J35sZhnD0_8-_pad-29" x="883.36" y="955"/><use xlink:href="#J35sZhnD0_8-_pad-29" x="883.36" y="640.04"/><use xlink:href="#J35sZhnD0_8-_pad-29" x="883.36" y="797.52"/><use xlink:href="#J35sZhnD0_8-_pad-29" x="176.65" y="723.3"/><use xlink:href="#J35sZhnD0_8-_pad-29" x="253.44" y="640.04"/><use xlink:href="#J35sZhnD0_8-_pad-29" x="95.96" y="955"/><use xlink:href="#J35sZhnD0_8-_pad-29" x="95.96" y="797.52"/><use xlink:href="#J35sZhnD0_8-_pad-29" x="67.3" y="661.29"/><use xlink:href="#J35sZhnD0_8-_pad-29" x="137.77" y="601.55"/><use xlink:href="#J35sZhnD0_8-_pad-30" x="583.49" y="1203.75"/><use xlink:href="#J35sZhnD0_8-_pad-30" x="658.29" y="1203.75"/><use xlink:href="#J35sZhnD0_8-_pad-30" x="620.89" y="1109.26"/><use xlink:href="#J35sZhnD0_8-_pad-30" x="454.88" y="1109.26"/><use xlink:href="#J35sZhnD0_8-_pad-30" x="417.48" y="1203.75"/><use xlink:href="#J35sZhnD0_8-_pad-30" x="492.29" y="1203.75"/><use xlink:href="#J35sZhnD0_8-_pad-31" x="157.45" y="658.64"/><use xlink:href="#J35sZhnD0_8-_pad-31" x="330.68" y="658.64"/></g><g id="S4_SfYiCsz_U_bottom_silkscreen"><g mask="url(#JjDk_w5-TLT1_clear-4)"><g mask="url(#JjDk_w5-TLT1_clear-3)"><g mask="url(#JjDk_w5-TLT1_clear-2)"><g mask="url(#JjDk_w5-TLT1_clear-1)"><path d="M 254.07 658.64 239.07 643.63 239.07 673.64 254.07 658.64"/><path d="M 616.83 790.22 437.02 790.22 437.02 846.66 616.83 846.66 616.83 790.22"/><path d="M 819.02 787.79 641.49 787.79 641.49 844.22 819.02 844.22 819.02 787.79"/><path d="M 296.75 1106.13 147.99 1106.13 147.99 1155.48 296.75 1155.48 296.75 1106.13"/><path d="M 265.61 880.82 172.58 880.82 172.58 929.27 265.61 929.27 265.61 880.82"/></g><path d="M 461.88 818.98 457.38 818.98 457.12 819.02 456.78 819.02 456.37 819.06 455.96 819.13 455.51 819.21 454.53 819.4 453.48 819.69 452.51 820.15 452.06 820.41 451.64 820.71 451.61 820.74 451.57 820.78 451.46 820.9 451.31 821.04 451.16 821.23 450.97 821.42 450.78 821.72 450.56 822.02 450.37 822.36 450.18 822.73 449.99 823.18 449.84 823.63 449.69 824.16 449.58 824.68 449.54 825.28 449.51 825.92 449.51 825.96 449.51 826.07 449.51 826.22 449.54 826.44 449.58 826.71 449.62 827.01 449.77 827.72 449.99 828.47 450.37 829.29 450.59 829.67 450.89 830.08 451.19 830.42 451.57 830.76 451.61 830.79 451.68 830.83 451.79 830.91 451.94 831.02 452.17 831.13 452.43 831.28 452.73 831.43 453.07 831.62 453.44 831.77 453.89 831.92 454.34 832.07 454.87 832.18 455.43 832.3 456.03 832.37 456.67 832.45 461.88 832.45 461.88 818.98"/></g><path d="M 806.68 819.17 802.82 819.17 802.52 819.21 802.14 819.21 801.69 819.25 801.24 819.32 800.27 819.51 800.19 819.51 800.04 819.59 799.82 819.66 799.52 819.77 799.18 819.96 798.84 820.11 798.47 820.34 798.13 820.6 798.09 820.64 797.98 820.71 797.83 820.86 797.61 821.09 797.38 821.35 797.16 821.61 796.93 821.95 796.74 822.32 796.71 822.36 796.67 822.51 796.59 822.74 796.48 823.04 796.37 823.37 796.29 823.79 796.26 824.24 796.22 824.72 796.22 824.76 796.22 824.84 796.22 824.99 796.26 825.17 796.26 825.36 796.29 825.62 796.41 826.19 796.63 826.82 796.93 827.5 797.31 828.1 797.57 828.4 797.87 828.66 797.94 828.74 798.06 828.77 798.17 828.89 798.54 829.07 799.07 829.34 799.71 829.56 800.49 829.79 801.43 829.94 802.48 829.97 806.68 829.97 806.68 819.17"/><path d="M 722.49 816.55 717.99 816.55 717.73 816.59 717.39 816.59 716.98 816.62 716.57 816.7 716.12 816.77 715.14 816.96 714.09 817.26 713.12 817.71 712.67 817.97 712.26 818.27 712.22 818.31 712.18 818.35 712.07 818.46 711.92 818.61 711.77 818.8 711.58 818.99 711.39 819.29 711.17 819.59 710.98 819.92 710.79 820.3 710.61 820.75 710.46 821.2 710.31 821.72 710.19 822.25 710.16 822.85 710.12 823.49 710.12 823.52 710.12 823.64 710.12 823.79 710.16 824.01 710.19 824.27 710.23 824.57 710.38 825.29 710.61 826.04 710.98 826.86 711.21 827.24 711.51 827.65 711.81 827.99 712.18 828.32 712.22 828.36 712.29 828.4 712.41 828.47 712.56 828.59 712.78 828.7 713.04 828.85 713.34 829 713.68 829.19 714.06 829.34 714.51 829.49 714.96 829.64 715.48 829.75 716.04 829.86 716.64 829.94 717.28 830.01 722.49 830.01 722.49 816.55"/></g><path d="M 172.85 1129.98 168.35 1129.98 168.09 1130.02 167.75 1130.02 167.34 1130.06 166.92 1130.13 166.47 1130.21 165.5 1130.4 164.45 1130.7 163.47 1131.15 163.02 1131.41 162.61 1131.71 162.57 1131.75 162.54 1131.78 162.42 1131.9 162.27 1132.05 162.12 1132.23 161.94 1132.42 161.75 1132.72 161.52 1133.02 161.34 1133.36 161.15 1133.73 160.96 1134.18 160.81 1134.63 160.66 1135.16 160.55 1135.68 160.51 1136.28 160.47 1136.92 160.47 1136.96 160.47 1137.07 160.47 1137.22 160.51 1137.45 160.55 1137.71 160.59 1138.01 160.74 1138.72 160.96 1139.47 161.34 1140.3 161.56 1140.67 161.86 1141.08 162.16 1141.42 162.54 1141.76 162.57 1141.8 162.65 1141.83 162.76 1141.91 162.91 1142.02 163.14 1142.13 163.4 1142.28 163.7 1142.43 164.04 1142.62 164.41 1142.77 164.86 1142.92 165.31 1143.07 165.84 1143.18 166.4 1143.3 167 1143.37 167.64 1143.45 172.85 1143.45 172.85 1129.98"/><path d="M 196.1 1143.67 196.62 1143.6 197.19 1143.45 197.82 1143.26 198.46 1143 199.06 1142.66 199.14 1142.62 199.32 1142.47 199.59 1142.25 199.96 1141.95 200.37 1141.53 200.79 1141.08 201.2 1140.52 201.61 1139.92 201.61 1139.88 201.65 1139.85 201.76 1139.62 201.95 1139.25 202.17 1138.76 202.4 1138.16 202.62 1137.48 202.89 1136.7 203.07 1135.83 203.07 1135.8 203.07 1135.72 203.11 1135.61 203.15 1135.42 203.19 1135.23 203.22 1134.97 203.3 1134.33 203.37 1133.62 203.45 1132.76 203.49 1131.86 203.52 1130.88 203.52 1130.85 203.52 1130.77 203.52 1130.58 203.52 1130.4 203.52 1130.13 203.49 1129.83 203.49 1129.5 203.45 1129.12 203.41 1128.3 203.34 1127.4 203.22 1126.5 203.07 1125.56 203.07 1125.52 203.04 1125.45 203.04 1125.33 203 1125.15 202.92 1124.96 202.89 1124.73 202.74 1124.17 202.51 1123.53 202.29 1122.82 201.99 1122.15 201.65 1121.47 201.61 1121.4 201.46 1121.17 201.27 1120.87 200.97 1120.5 200.6 1120.05 200.19 1119.63 199.7 1119.18 199.14 1118.81 199.06 1118.77 198.84 1118.66 198.54 1118.51 198.09 1118.36 197.52 1118.17 196.89 1118.02 196.14 1117.91 195.35 1117.87 194.97 1117.87 194.6 1117.91 194.07 1117.98 193.51 1118.13 192.91 1118.28 192.27 1118.55 191.67 1118.88 191.6 1118.92 191.41 1119.07 191.11 1119.3 190.77 1119.6 190.36 1120.01 189.91 1120.46 189.5 1121.02 189.09 1121.62 189.09 1121.66 189.05 1121.7 188.94 1121.92 188.75 1122.3 188.52 1122.78 188.26 1123.38 188.04 1124.06 187.77 1124.85 187.59 1125.67 187.59 1125.71 187.55 1125.78 187.55 1125.9 187.51 1126.08 187.47 1126.31 187.44 1126.57 187.32 1127.17 187.25 1127.92 187.17 1128.78 187.14 1129.68 187.1 1130.66 187.1 1130.7 187.1 1130.77 187.1 1130.96 187.1 1131.15 187.1 1131.41 187.14 1131.71 187.14 1132.05 187.14 1132.42 187.21 1133.21 187.29 1134.11 187.4 1135.05 187.55 1135.95 187.55 1135.98 187.59 1136.06 187.59 1136.17 187.62 1136.36 187.7 1136.55 187.74 1136.81 187.89 1137.37 188.11 1138.01 188.34 1138.68 188.67 1139.4 189.01 1140.07 189.01 1140.11 189.05 1140.15 189.2 1140.37 189.39 1140.67 189.69 1141.05 190.06 1141.5 190.51 1141.91 191 1142.36 191.56 1142.73 191.64 1142.77 191.82 1142.88 192.16 1143.03 192.61 1143.22 193.17 1143.41 193.81 1143.56 194.56 1143.67 195.35 1143.71 195.72 1143.71 196.1 1143.67"/></g><path d="M 253.28 906.85 249.41 906.85 249.11 906.88 248.74 906.88 248.29 906.92 247.84 907 246.86 907.18 246.79 907.18 246.64 907.26 246.41 907.33 246.11 907.45 245.78 907.63 245.44 907.78 245.06 908.01 244.73 908.27 244.69 908.31 244.58 908.38 244.43 908.53 244.2 908.76 243.98 909.02 243.75 909.28 243.53 909.62 243.34 910 243.3 910.03 243.26 910.18 243.19 910.41 243.08 910.71 242.96 911.05 242.89 911.46 242.85 911.91 242.81 912.4 242.81 912.43 242.81 912.51 242.81 912.66 242.85 912.85 242.85 913.03 242.89 913.3 243 913.86 243.23 914.5 243.53 915.17 243.9 915.77 244.16 916.07 244.46 916.33 244.54 916.41 244.65 916.45 244.76 916.56 245.14 916.75 245.66 917.01 246.3 917.23 247.09 917.46 248.03 917.61 249.08 917.65 253.28 917.65 253.28 906.85"/><path d="M 554.94 1203.75 A 4.92 4.92 0 0 1 545.1 1203.75 4.92 4.92 0 0 1 554.94 1203.75 M 388.94 1203.75 A 4.92 4.92 0 0 1 379.1 1203.75 4.92 4.92 0 0 1 388.94 1203.75 M 752.77 1417.51 A 4.92 4.92 0 0 1 742.93 1417.51 4.92 4.92 0 0 1 752.77 1417.51 M 766.75 381.25 A 4.92 4.92 0 0 1 756.91 381.25 4.92 4.92 0 0 1 766.75 381.25" fill="none" stroke-width="9.84"/><path d="M 736.44 574.22 796.42 574.22 796.42 604.21 786.43 614.21 766.43 614.21 756.44 604.21 756.44 574.22 M 796.42 634.2 736.44 634.2 756.44 654.19 736.44 674.19 796.42 674.19 M 736.44 694.18 796.42 694.18 796.42 724.17 786.43 734.17 766.43 734.17 756.44 724.17 756.44 694.18 M 756.44 714.17 736.44 734.17 M 130.33 936.07 130.33 896.08 70.35 896.08 70.35 936.07 M 100.34 896.08 100.34 916.07 M 130.33 956.06 130.33 996.05 130.33 976.05 70.35 976.05 M 130.33 1016.04 70.35 1016.04 100.34 1016.04 100.34 1056.03 130.33 1056.03 70.35 1056.03" fill="none" stroke-width="10"/><path d="M 373 718.64 A 3.94 3.94 0 0 1 365.12 718.64 3.94 3.94 0 0 1 373 718.64 M 561.83 1128.94 561.83 1168.31 M 561.83 1128.94 593.33 1128.94 M 679.94 1128.94 679.94 1168.31 M 648.45 1128.94 679.94 1128.94 M 395.83 1128.94 395.83 1168.31 M 395.83 1128.94 427.33 1128.94 M 513.94 1128.94 513.94 1168.31 M 482.44 1128.94 513.94 1128.94 M 521.85 1440.51 721.85 1440.51 M 721.85 1240.51 721.85 1440.51 M 321.85 1240.51 721.85 1240.51 M 321.85 1240.51 321.85 1440.51 521.85 1440.51 M 137.77 588.64 137.77 601.55 M 350.37 588.64 350.37 601.55 M 137.77 713.75 137.77 728.64 M 350.37 713.75 350.37 728.64 M 137.77 588.64 350.37 588.64 M 137.77 728.64 350.37 728.64 M 239.07 673.64 254.07 658.64 M 239.07 643.63 239.07 673.64 M 239.07 643.63 254.07 658.64 M 535.83 404.25 735.83 404.25 M 735.83 204.25 735.83 404.25 M 335.83 204.25 735.83 204.25 M 335.83 204.25 335.83 404.25 535.83 404.25" fill="none" stroke-width="7.87"/><path d="M 993.01 645.72 969.4 645.72 969.4 657.53 973.34 661.46 989.08 661.46 993.01 657.53 993.01 645.72 M 969.4 681.14 969.4 673.27 973.34 669.33 981.21 669.33 985.14 673.27 985.14 681.14 981.21 685.07 977.27 685.07 977.27 669.33 M 969.4 692.95 969.4 704.75 973.34 708.69 977.27 704.75 977.27 696.88 981.21 692.95 985.14 696.88 985.14 708.69 M 969.4 716.56 969.4 724.43 969.4 720.5 985.14 720.5 985.14 716.56 M 961.53 744.11 961.53 748.05 965.46 751.98 985.14 751.98 985.14 740.18 981.21 736.24 973.34 736.24 969.4 740.18 969.4 751.98 M 969.4 759.85 985.14 759.85 985.14 771.66 981.21 775.6 969.4 775.6 M 969.4 795.28 969.4 787.4 973.34 783.47 981.21 783.47 985.14 787.4 985.14 795.28 981.21 799.21 977.27 799.21 977.27 783.47 M 985.14 807.08 969.4 807.08 977.27 807.08 981.21 811.02 985.14 814.95 985.14 818.89 M 985.14 830.7 985.14 834.63 981.21 834.63 981.21 830.7 985.14 830.7 M 973.34 830.7 973.34 834.63 969.4 834.63 969.4 830.7 973.34 830.7 M 920.91 584.71 944.52 584.71 944.52 596.52 940.59 600.46 932.71 600.46 928.78 596.52 928.78 584.71 M 936.65 608.33 920.91 608.33 928.78 608.33 932.71 612.26 936.65 616.2 936.65 620.14 M 936.65 635.88 936.65 643.75 932.71 647.69 920.91 647.69 920.91 635.88 924.84 631.94 928.78 635.88 928.78 647.69 M 940.59 659.49 936.65 659.49 936.65 655.56 936.65 663.43 936.65 659.49 924.84 659.49 920.91 663.43 M 944.52 675.24 920.91 675.24 932.71 675.24 936.65 679.17 936.65 687.04 932.71 690.98 920.91 690.98 M 936.65 702.79 936.65 710.66 932.71 714.59 920.91 714.59 920.91 702.79 924.84 698.85 928.78 702.79 928.78 714.59 M 920.91 722.46 936.65 722.46 936.65 726.4 932.71 730.34 920.91 730.34 932.71 730.34 936.65 734.27 932.71 738.21 920.91 738.21 M 944.52 769.69 944.52 777.57 944.52 773.63 920.91 773.63 920.91 769.69 920.91 777.57 M 920.91 789.37 936.65 789.37 936.65 801.18 932.71 805.11 920.91 805.11 M 913.04 820.86 913.04 824.79 916.97 828.73 936.65 828.73 936.65 816.92 932.71 812.99 924.84 812.99 920.91 816.92 920.91 828.73 M 936.65 840.54 936.65 848.41 932.71 852.34 920.91 852.34 920.91 840.54 924.84 836.6 928.78 840.54 928.78 852.34 M 920.91 860.22 920.91 868.09 920.91 864.15 944.52 864.15 944.52 860.22 M 920.91 891.7 920.91 883.83 924.84 879.89 932.71 879.89 936.65 883.83 936.65 891.7 932.71 895.64 928.78 895.64 928.78 879.89 M 992.56 999.84 968.95 999.84 968.95 1011.65 972.89 1015.58 988.63 1015.58 992.56 1011.65 992.56 999.84 M 968.95 1023.45 984.69 1023.45 992.56 1031.32 984.69 1039.2 968.95 1039.2 980.76 1039.2 980.76 1023.45 M 968.95 1047.07 992.56 1047.07 992.56 1058.87 988.63 1062.81 980.76 1062.81 976.82 1058.87 976.82 1047.07 M 976.82 1054.94 968.95 1062.81 M 988.63 1086.42 992.56 1082.49 992.56 1074.62 988.63 1070.68 972.89 1070.68 968.95 1074.62 968.95 1082.49 972.89 1086.42 M 992.56 1094.3 988.63 1094.3 980.76 1102.17 988.63 1110.04 992.56 1110.04 M 980.76 1102.17 968.95 1102.17" fill="none" stroke-width="5.12"/><path d="M 748.15 1151.73 748.15 1124.18 734.38 1124.18 729.79 1128.77 729.79 1147.14 734.38 1151.73 748.15 1151.73 M 706.83 1124.18 706.83 1151.73 720.6 1137.95 702.24 1137.95 M 375.05 1151.73 375.05 1124.18 361.28 1124.18 356.69 1128.77 356.69 1147.14 361.28 1151.73 375.05 1151.73 M 347.5 1147.14 342.91 1151.73 333.73 1151.73 329.14 1147.14 329.14 1142.55 333.73 1137.95 338.32 1137.95 333.73 1137.95 329.14 1133.36 329.14 1128.77 333.73 1124.18 342.91 1124.18 347.5 1128.77 M 377.63 777.05 377.63 749.5 363.86 749.5 359.27 754.09 359.27 772.46 363.86 777.05 377.63 777.05 M 350.08 749.5 340.9 749.5 345.49 749.5 345.49 777.05 350.08 772.46" fill="none" stroke-width="6.06"/><path d="M 742.15 1321.24 742.15 1334.36 742.15 1327.8 774.95 1327.8 781.5 1334.36 781.5 1340.92 774.95 1347.48 M 781.5 1288.44 742.15 1288.44 761.83 1308.12 761.83 1281.88 M 767.72 284.57 767.72 297.69 767.72 291.13 800.52 291.13 807.08 297.69 807.08 304.24 800.52 310.8 M 807.08 271.45 807.08 258.33 807.08 264.89 767.72 264.89 774.28 271.45" fill="none" stroke-width="5.91"/></g><g id="S4_SfYiCsz_U_bottom_solderpaste"><use xlink:href="#AuYhuykixLmY_pad-34" x="583.49" y="1203.75"/><use xlink:href="#AuYhuykixLmY_pad-34" x="658.29" y="1203.75"/><use xlink:href="#AuYhuykixLmY_pad-34" x="620.89" y="1109.26"/><use xlink:href="#AuYhuykixLmY_pad-34" x="454.88" y="1109.26"/><use xlink:href="#AuYhuykixLmY_pad-34" x="417.48" y="1203.75"/><use xlink:href="#AuYhuykixLmY_pad-34" x="492.29" y="1203.75"/><use xlink:href="#AuYhuykixLmY_pad-35" x="157.45" y="658.64"/><use xlink:href="#AuYhuykixLmY_pad-35" x="330.68" y="658.64"/></g><g id="S4_SfYiCsz_U_bottom_soldermask"><use xlink:href="#NKopPO01Loj2_pad-15" x="590.55" y="547.83"/><use xlink:href="#NKopPO01Loj2_pad-15" x="590.55" y="665.94"/><use xlink:href="#NKopPO01Loj2_pad-15" x="472.44" y="547.83"/><use xlink:href="#NKopPO01Loj2_pad-16" x="485.83" y="254.25"/><use xlink:href="#NKopPO01Loj2_pad-16" x="485.83" y="354.25"/><use xlink:href="#NKopPO01Loj2_pad-16" x="385.83" y="254.25"/><use xlink:href="#NKopPO01Loj2_pad-16" x="385.83" y="354.25"/><use xlink:href="#NKopPO01Loj2_pad-16" x="571.85" y="1290.51"/><use xlink:href="#NKopPO01Loj2_pad-16" x="671.85" y="1290.51"/><use xlink:href="#NKopPO01Loj2_pad-16" x="471.85" y="1290.51"/><use xlink:href="#NKopPO01Loj2_pad-16" x="371.85" y="1290.51"/><use xlink:href="#NKopPO01Loj2_pad-16" x="671.85" y="1390.51"/><use xlink:href="#NKopPO01Loj2_pad-16" x="571.85" y="1390.51"/><use xlink:href="#NKopPO01Loj2_pad-16" x="471.85" y="1390.51"/><use xlink:href="#NKopPO01Loj2_pad-16" x="371.85" y="1390.51"/><use xlink:href="#NKopPO01Loj2_pad-16" x="685.83" y="354.25"/><use xlink:href="#NKopPO01Loj2_pad-16" x="685.83" y="254.25"/><use xlink:href="#NKopPO01Loj2_pad-16" x="585.83" y="254.25"/><use xlink:href="#NKopPO01Loj2_pad-16" x="585.83" y="354.25"/><use xlink:href="#NKopPO01Loj2_pad-17" x="787.4" y="1024.8"/><use xlink:href="#NKopPO01Loj2_pad-17" x="669.29" y="1024.8"/><use xlink:href="#NKopPO01Loj2_pad-17" x="669.29" y="906.69"/><use xlink:href="#NKopPO01Loj2_pad-17" x="551.18" y="908.31"/><use xlink:href="#NKopPO01Loj2_pad-17" x="433.07" y="908.31"/><use xlink:href="#NKopPO01Loj2_pad-17" x="314.96" y="908.31"/><use xlink:href="#NKopPO01Loj2_pad-17" x="551.18" y="1024.8"/><use xlink:href="#NKopPO01Loj2_pad-17" x="433.07" y="1024.8"/><use xlink:href="#NKopPO01Loj2_pad-17" x="314.96" y="1024.8"/><use xlink:href="#NKopPO01Loj2_pad-18" x="787.4" y="906.69"/><use xlink:href="#NKopPO01Loj2_pad-19" x="905.51" y="1061.81"/><use xlink:href="#NKopPO01Loj2_pad-19" x="196.85" y="1061.81"/><use xlink:href="#NKopPO01Loj2_pad-20" x="472.44" y="665.94"/><use xlink:href="#NKopPO01Loj2_pad-21" x="708.66" y="510.83"/><use xlink:href="#NKopPO01Loj2_pad-21" x="354.33" y="510.83"/><use xlink:href="#NKopPO01Loj2_pad-22" x="909.45" y="433.07"/><use xlink:href="#NKopPO01Loj2_pad-22" x="161.43" y="433.07"/><use xlink:href="#NKopPO01Loj2_pad-22" x="909.46" y="1340"/><use xlink:href="#NKopPO01Loj2_pad-22" x="161.43" y="1340"/><use xlink:href="#NKopPO01Loj2_pad-32" x="583.49" y="1203.75"/><use xlink:href="#NKopPO01Loj2_pad-32" x="658.29" y="1203.75"/><use xlink:href="#NKopPO01Loj2_pad-32" x="620.89" y="1109.26"/><use xlink:href="#NKopPO01Loj2_pad-32" x="454.88" y="1109.26"/><use xlink:href="#NKopPO01Loj2_pad-32" x="417.48" y="1203.75"/><use xlink:href="#NKopPO01Loj2_pad-32" x="492.29" y="1203.75"/><use xlink:href="#NKopPO01Loj2_pad-33" x="157.45" y="658.64"/><use xlink:href="#NKopPO01Loj2_pad-33" x="330.68" y="658.64"/></g><clipPath id="S4_SfYiCsz_U_bottom_outline"><path d="M 551.99 1232.29 689.79 1232.29 689.79 1080.71 551.99 1080.71 551.99 1232.29 M 385.99 1232.29 523.78 1232.29 523.78 1080.71 385.99 1080.71 385.99 1232.29 M 383.83 583.63 383.83 733.64 104.3 733.64 104.3 583.63 383.83 583.63 M 620.89 1136.82 620.89 1176.19 M 601.2 1156.5 640.57 1156.5 M 454.88 1136.82 454.88 1176.19 M 435.2 1156.5 474.57 1156.5 M 502.17 1340.51 541.54 1340.51 M 521.85 1320.83 521.85 1360.2 M 321.85 1440.51 721.85 1440.51 721.85 1240.51 321.85 1240.51 321.85 1440.51 M 335.83 204.25 735.83 204.25 735.83 404.25 335.83 404.25 335.83 204.25 M 516.14 304.25 555.51 304.25 M 535.83 284.57 535.83 323.94" fill="none" stroke-width="1.97"/></clipPath><mask id="S4_SfYiCsz_U_bottom_mech-mask"><g fill="#000" stroke="#000"><rect x="104.3" y="204.25" width="631.53" height="1236.26" fill="#fff"/></g></mask><mask id="S4_SfYiCsz_U_bottom_cf-mask"><g fill="#fff" stroke="#fff"><use xlink:href="#S4_SfYiCsz_U_bottom_soldermask"/></g></mask><mask id="S4_SfYiCsz_U_bottom_sm-mask"><g fill="#000" stroke="#000"><rect x="104.3" y="204.25" width="631.53" height="1236.26" fill="#fff"/><use xlink:href="#S4_SfYiCsz_U_bottom_soldermask"/></g></mask></defs><g transform="translate(0,1644.76) scale(1,-1)"><g mask="url(#S4_SfYiCsz_U_bottom_mech-mask)" clip-path="url(#S4_SfYiCsz_U_bottom_outline)" transform="translate(840.13,0) scale(-1,1)"><rect x="104.3" y="204.25" width="631.53" height="1236.26" fill="currentColor" class="S4_SfYiCsz_U_fr4"/><use xlink:href="#S4_SfYiCsz_U_bottom_copper" fill="currentColor" stroke="currentColor" class="S4_SfYiCsz_U_cu"/><use xlink:href="#S4_SfYiCsz_U_bottom_copper" fill="currentColor" stroke="currentColor" class="S4_SfYiCsz_U_cf" mask="url(#S4_SfYiCsz_U_bottom_cf-mask)"/><g mask="url(#S4_SfYiCsz_U_bottom_sm-mask)"><rect x="104.3" y="204.25" width="631.53" height="1236.26" fill="currentColor" class="S4_SfYiCsz_U_sm"/><use xlink:href="#S4_SfYiCsz_U_bottom_silkscreen" fill="currentColor" stroke="currentColor" class="S4_SfYiCsz_U_ss"/></g><use xlink:href="#S4_SfYiCsz_U_bottom_solderpaste" fill="currentColor" stroke="currentColor" class="S4_SfYiCsz_U_sp"/></g></g></svg>