<svg color="#0f7a43" fill="#0f7a43" stroke="#0f7a43" version="1.1" xmlns="http://www.w3.org/2000/svg" xmlns:xlink="http://www.w3.org/1999/xlink" stroke-linecap="round" stroke-linejoin="round" stroke-width="0" fill-rule="evenodd" width="0.96701in" height="1.31098in" viewBox="52.69 170.59 967.01 1310.98"><defs><mask id="Zfmz_l7scqIb_clear-1" fill="#000" stroke="#000"><g><rect x="52.69" y="170.59" width="967.01" height="1310.98" fill="#fff"/><path d="M 679.37 1447.61 664.33 1447.61 649.81 1443.72 636.79 1436.21 626.16 1425.57 624.35 1422.44 619.35 1422.44 617.54 1425.57 606.91 1436.21 593.89 1443.72 579.37 1447.61 564.33 1447.61 549.81 1443.72 536.79 1436.21 526.16 1425.57 524.35 1422.44 519.35 1422.44 517.54 1425.57 506.91 1436.21 493.89 1443.72 479.37 1447.61 464.33 1447.61 449.81 1443.72 436.79 1436.21 426.16 1425.57 424.35 1422.44 419.35 1422.44 417.54 1425.57 406.91 1436.21 393.89 1443.72 379.37 1447.61 364.33 1447.61 349.81 1443.72 336.79 1436.21 326.16 1425.57 318.64 1412.55 314.75 1398.03 314.75 1382.99 318.64 1368.47 326.16 1355.45 336.79 1344.82 339.92 1343.01 339.92 1338.01 336.79 1336.21 326.16 1325.57 318.64 1312.55 314.75 1298.03 314.75 1282.99 318.64 1268.47 326.16 1255.45 336.79 1244.82 349.81 1237.3 364.33 1233.41 379.37 1233.41 393.89 1237.3 406.91 1244.82 417.54 1255.45 419.35 1258.58 424.35 1258.58 426.16 1255.45 436.79 1244.82 449.81 1237.3 464.33 1233.41 479.37 1233.41 493.89 1237.3 506.91 1244.82 517.54 1255.45 519.35 1258.58 524.35 1258.58 526.16 1255.45 536.79 1244.82 549.81 1237.3 564.33 1233.41 579.37 1233.41 593.89 1237.3 606.91 1244.82 617.54 1255.45 619.35 1258.58 624.35 1258.58 626.16 1255.45 636.79 1244.82 649.81 1237.3 664.33 1233.41 679.37 1233.41 693.89 1237.3 706.91 1244.82 717.54 1255.45 725.06 1268.47 728.95 1282.99 728.95 1298.03 725.06 1312.55 717.54 1325.57 706.91 1336.21 703.78 1338.01 703.78 1343.01 706.91 1344.82 717.54 1355.45 725.06 1368.47 728.95 1382.99 728.95 1398.03 725.06 1412.55 717.54 1425.57 706.91 1436.21 693.89 1443.72 679.37 1447.61"/><path d="M 909.47 1091.89 901.55 1091.89 893.9 1089.84 887.04 1085.88 881.44 1080.28 877.48 1073.42 875.43 1065.77 875.43 1057.85 877.48 1050.2 881.44 1043.34 887.04 1037.74 893.9 1033.78 901.55 1031.73 909.47 1031.73 917.12 1033.78 923.98 1037.74 929.58 1043.34 933.54 1050.2 935.59 1057.85 935.59 1065.77 933.54 1073.42 929.58 1080.28 923.98 1085.88 917.12 1089.84 909.47 1091.89"/><path d="M 200.81 1091.89 192.89 1091.89 185.24 1089.84 178.38 1085.88 172.78 1080.28 168.82 1073.42 166.77 1065.77 166.77 1057.85 168.82 1050.2 172.78 1043.34 178.38 1037.74 185.24 1033.78 192.89 1031.73 200.81 1031.73 208.46 1033.78 215.32 1037.74 220.92 1043.34 224.88 1050.2 226.93 1057.85 226.93 1065.77 224.88 1073.42 220.92 1080.28 215.32 1085.88 208.46 1089.84 200.81 1091.89"/><path d="M 794.84 1081.32 779.96 1081.32 765.59 1077.46 752.7 1070.02 742.18 1059.5 734.74 1046.62 730.89 1032.24 730.89 1017.36 734.74 1002.99 742.18 990.1 752.7 979.58 765.59 972.14 779.96 968.29 794.84 968.29 809.21 972.14 822.1 979.58 832.62 990.1 840.06 1002.99 843.91 1017.36 843.91 1032.24 840.06 1046.62 832.62 1059.5 822.1 1070.02 809.21 1077.46 794.84 1081.32"/><path d="M 676.73 1081.32 661.85 1081.32 647.48 1077.46 634.59 1070.02 624.07 1059.5 616.63 1046.62 612.78 1032.24 612.78 1017.36 616.63 1002.99 624.07 990.1 634.59 979.58 647.48 972.14 661.85 968.29 676.73 968.29 691.1 972.14 703.99 979.58 714.51 990.1 721.95 1002.99 725.8 1017.36 725.8 1032.24 721.95 1046.62 714.51 1059.5 703.99 1070.02 691.1 1077.46 676.73 1081.32"/><path d="M 558.62 1081.32 543.74 1081.32 529.37 1077.46 516.48 1070.02 505.96 1059.5 498.52 1046.62 494.67 1032.24 494.67 1017.36 498.52 1002.99 505.96 990.1 516.48 979.58 529.37 972.14 540.55 969.15 540.55 963.97 529.37 960.97 516.48 953.53 505.96 943.01 498.52 930.12 494.67 915.75 494.67 900.87 498.52 886.5 505.96 873.61 516.48 863.09 529.37 855.65 543.74 851.8 558.62 851.8 572.99 855.65 585.88 863.09 596.4 873.61 603.84 886.5 607.69 900.87 607.69 915.75 603.84 930.12 596.4 943.01 585.88 953.53 572.99 960.97 561.81 963.97 561.81 969.15 572.99 972.14 585.88 979.58 596.4 990.1 603.84 1002.99 607.69 1017.36 607.69 1032.24 603.84 1046.62 596.4 1059.5 585.88 1070.02 572.99 1077.46 558.62 1081.32"/><path d="M 440.51 1081.32 425.63 1081.32 411.26 1077.46 398.37 1070.02 387.85 1059.5 380.41 1046.62 376.56 1032.24 376.56 1017.36 380.41 1002.99 387.85 990.1 398.37 979.58 411.26 972.14 422.44 969.15 422.44 963.97 411.26 960.97 398.37 953.53 387.85 943.01 380.41 930.12 376.56 915.75 376.56 900.87 380.41 886.5 387.85 873.61 398.37 863.09 411.26 855.65 425.63 851.8 440.51 851.8 454.88 855.65 467.77 863.09 478.29 873.61 485.73 886.5 489.58 900.87 489.58 915.75 485.73 930.12 478.29 943.01 467.77 953.53 454.88 960.97 443.7 963.97 443.7 969.15 454.88 972.14 467.77 979.58 478.29 990.1 485.73 1002.99 489.58 1017.36 489.58 1032.24 485.73 1046.62 478.29 1059.5 467.77 1070.02 454.88 1077.46 440.51 1081.32"/><path d="M 322.4 1081.32 307.52 1081.32 293.15 1077.46 280.26 1070.02 269.74 1059.5 262.3 1046.62 258.45 1032.24 258.45 1017.36 262.3 1002.99 269.74 990.1 280.26 979.58 293.15 972.14 304.33 969.15 304.33 963.97 293.15 960.97 280.26 953.53 269.74 943.01 262.3 930.12 258.45 915.75 258.45 900.87 262.3 886.5 269.74 873.61 280.26 863.09 293.15 855.65 307.52 851.8 322.4 851.8 336.77 855.65 349.66 863.09 360.18 873.61 367.62 886.5 371.47 900.87 371.47 915.75 367.62 930.12 360.18 943.01 349.66 953.53 336.77 960.97 325.59 963.97 325.59 969.15 336.77 972.14 349.66 979.58 360.18 990.1 367.62 1002.99 371.47 1017.36 371.47 1032.24 367.62 1046.62 360.18 1059.5 349.66 1070.02 336.77 1077.46 322.4 1081.32"/><path d="M 843.91 963.2 730.89 963.2 730.89 850.18 843.91 850.18 843.91 963.2"/><path d="M 676.73 963.2 661.85 963.2 647.48 959.35 634.59 951.91 624.07 941.39 616.63 928.51 612.78 914.13 612.78 899.25 616.63 884.88 624.07 871.99 634.59 861.47 647.48 854.03 661.85 850.18 676.73 850.18 691.1 854.03 703.99 861.47 714.51 871.99 721.95 884.88 725.8 899.25 725.8 914.13 721.95 928.51 714.51 941.39 703.99 951.91 691.1 959.35 676.73 963.2"/><path d="M 315.09 789.99 305.98 789.99 297.17 787.63 289.28 783.07 282.83 776.62 278.27 768.73 275.91 759.92 275.91 750.81 278.27 742 282.83 734.11 289.28 727.66 297.17 723.1 305.98 720.74 315.09 720.74 323.9 723.1 331.79 727.66 338.24 734.11 340.92 738.75 344.1 738.8 346.41 738.25 350.63 730.94 357.07 724.49 364.97 719.94 373.77 717.58 380.45 717.58 382.52 712.58 382.31 712.37 377.75 704.47 375.39 695.67 375.39 686.55 377.75 677.75 382.31 669.85 388.76 663.41 396.65 658.85 405.46 656.49 414.57 656.49 416.91 654.69 416.91 629.1 414.57 627.31 405.46 627.31 396.65 624.95 388.76 620.39 382.31 613.94 377.75 606.05 375.39 597.24 375.39 588.13 377.75 579.32 382.31 571.43 388.76 564.98 396.65 560.42 405.46 558.06 412.52 558.06 415.64 555.99 416.91 553.51 416.91 540.52 420.7 526.4 428.01 513.74 438.35 503.4 451.01 496.09 465.13 492.31 479.75 492.31 493.87 496.09 506.54 503.4 516.87 513.74 524.18 526.4 527.97 540.52 527.97 555.15 525.92 562.8 529.7 564.98 536.14 571.43 540.7 579.32 543.06 588.13 543.06 597.24 540.7 606.05 536.14 613.94 529.7 620.39 527.97 621.39 527.97 721.47 511.03 721.47 509.48 726.47 514.83 731.82 519.39 739.72 521.75 748.52 521.75 757.64 519.39 766.44 514.83 774.34 508.38 780.79 500.49 785.34 491.68 787.7 482.57 787.7 473.76 785.34 465.87 780.79 462.29 777.21 455.49 776.93 452.52 779.9 444.63 784.46 435.82 786.82 426.7 786.82 417.9 784.46 410 779.9 404.8 774.7 399.59 779.9 391.7 784.46 382.89 786.82 373.77 786.82 364.97 784.46 357.07 779.9 350.63 773.46 347.95 768.82 344.77 768.76 342.46 769.31 338.24 776.62 331.79 783.07 323.9 787.63 315.09 789.99"/><path d="M 712.62 540.9 704.7 540.9 697.05 538.86 690.19 534.9 684.59 529.3 680.63 522.44 678.58 514.79 678.58 506.87 680.63 499.22 684.59 492.36 690.19 486.76 697.05 482.8 704.7 480.75 712.62 480.75 720.27 482.8 727.13 486.76 732.73 492.36 736.69 499.22 738.74 506.87 738.74 514.79 736.69 522.44 732.73 529.3 727.13 534.9 720.27 538.86 712.62 540.9"/><path d="M 284.33 313.39 275.22 313.39 266.41 311.03 258.52 306.48 252.07 300.03 247.51 292.13 245.15 283.33 245.15 274.21 247.51 265.41 252.07 257.51 258.52 251.07 266.41 246.51 275.22 244.15 284.33 244.15 293.14 246.51 301.03 251.07 307.48 257.51 312.04 265.41 314.4 274.21 314.4 283.33 312.04 292.13 307.48 300.03 301.03 306.48 293.14 311.03 284.33 313.39"/><path d="M 846.87 307.43 837.76 307.43 828.95 305.07 821.06 300.51 814.61 294.06 810.05 286.17 807.69 277.36 807.69 268.25 810.05 259.44 814.61 251.55 821.06 245.1 828.95 240.54 837.76 238.18 846.87 238.18 855.68 240.54 863.57 245.1 870.02 251.55 874.58 259.44 876.94 268.25 876.94 277.36 874.58 286.17 870.02 294.06 863.57 300.51 855.68 305.07 846.87 307.43"/></g></mask><circle cx="0" cy="0" r="30.905" id="Zfmz_l7scqIb_pad-15"/><circle cx="0" cy="0" r="32.48" id="Zfmz_l7scqIb_pad-25"/><circle cx="0" cy="0" r="10" id="Zfmz_l7scqIb_pad-29"/></defs><g transform="translate(0,1652.16) scale(1,-1)" fill="#0f7a43" stroke="#0f7a43"><g mask="url(#Zfmz_l7scqIb_clear-1)"><path d="M 943.16 1481.2 950.22 1479.97 965.96 1474.2 980.43 1465.75 993.17 1454.86 1002.71 1443.22 1002.73 1441.74 997.75 1439.64 996.03 1441.36 979.11 1453.65 960.48 1463.15 940.58 1469.61 919.92 1472.88 899 1472.88 878.35 1469.61 858.45 1463.15 839.81 1453.65 822.89 1441.36 808.1 1426.57 795.81 1409.64 786.31 1391.01 779.85 1371.11 776.57 1350.45 776.57 1329.54 779.85 1308.88 786.31 1288.98 795.81 1270.34 808.1 1253.42 822.89 1238.63 839.81 1226.34 858.45 1216.84 878.35 1210.38 899 1207.11 919.92 1207.11 940.58 1210.38 960.48 1216.84 979.11 1226.34 996.03 1238.63 1010.83 1253.42 1014.94 1259.09 1019.7 1257.54 1019.57 515.68 1014.81 514.14 1010.81 519.64 996.02 534.43 979.1 546.73 960.46 556.23 940.57 562.69 919.91 565.96 898.99 565.96 878.33 562.69 858.44 556.23 839.8 546.73 822.88 534.43 808.09 519.64 795.79 502.72 786.29 484.08 779.83 464.19 776.56 443.53 776.56 422.61 779.83 401.95 786.29 382.06 795.79 363.42 808.09 346.5 822.88 331.71 839.8 319.41 858.44 309.92 878.33 303.45 898.99 300.18 919.91 300.18 940.57 303.45 960.46 309.92 979.1 319.41 996.02 331.71 1010.81 346.5 1011.47 347.4 1016.07 345.45 1014.29 335.19 1007.56 311.72 998.37 289.1 986.83 267.58 973.05 247.42 957.2 228.84 939.46 212.06 939.14 211.81 933.54 213.84 929.85 220.24 923.4 226.69 915.5 231.25 906.7 233.61 897.58 233.61 888.78 231.25 880.88 226.69 874.44 220.24 869.88 212.35 867.52 203.54 867.52 194.43 869.88 185.62 873.98 178.52 873.48 175.36 872.4 172.69 867.69 171.08 831.82 171.05 829.74 176.05 831.42 177.73 835.98 185.62 838.34 194.43 838.34 203.54 835.98 212.35 831.42 220.24 824.98 226.69 817.08 231.25 808.27 233.61 799.16 233.61 790.35 231.25 782.46 226.69 776.01 220.24 771.45 212.35 769.09 203.54 769.09 194.43 771.45 185.62 776.01 177.73 777.73 176.01 775.66 171.01 634.81 170.9 632.74 175.9 634.57 177.73 639.13 185.62 641.49 194.43 641.49 203.54 639.13 212.35 638.07 214.19 642.07 217.26 650.77 208.56 663.79 201.04 678.31 197.15 693.35 197.15 707.87 201.04 720.89 208.56 731.52 219.19 739.04 232.21 742.93 246.73 742.93 261.77 739.04 276.29 731.52 289.31 720.89 299.94 717.76 301.75 717.76 306.75 720.89 308.56 731.52 319.19 739.04 332.21 742.93 346.73 742.93 361.77 739.04 376.29 731.52 389.31 720.89 399.94 707.87 407.46 693.35 411.35 678.31 411.35 669.9 409.1 666.61 413.39 668.6 416.85 670.96 425.65 670.96 434.77 668.6 443.57 664.04 451.47 657.6 457.92 649.7 462.47 640.9 464.83 631.78 464.83 622.97 462.47 615.08 457.92 608.63 451.47 605.6 446.21 598.97 450.04 590.17 452.4 581.05 452.4 572.25 450.04 564.35 445.48 557.91 439.04 553.35 431.14 550.99 422.33 550.99 413.22 553.35 404.41 554.64 402.18 550.76 399.94 540.13 389.31 538.33 386.18 533.33 386.18 531.52 389.31 520.89 399.94 507.87 407.46 493.34 411.35 478.31 411.35 463.79 407.46 450.77 399.94 440.13 389.31 432.62 376.29 428.72 361.77 428.72 346.73 432.62 332.21 440.13 319.19 450.77 308.56 463.79 301.04 478.31 297.15 493.34 297.15 507.87 301.04 520.89 308.56 531.52 319.19 533.33 322.32 538.33 322.32 540.13 319.19 550.76 308.56 553.89 306.75 553.89 301.75 550.76 299.94 540.13 289.31 532.62 276.29 528.73 261.77 528.73 246.73 532.62 232.21 540.13 219.19 550.76 208.56 563.79 201.04 572.24 198.77 572.24 194.43 574.6 185.62 579.16 177.73 581.03 175.86 578.96 170.86 236.93 170.59 225.72 173.1 201.03 181.53 177.42 192.61 155.17 206.21 134.53 222.17 115.77 240.28 99.1 260.34 84.72 282.1 72.81 305.31 63.51 329.68 61.28 338.22 65.78 340.79 74.86 331.71 91.78 319.41 110.42 309.92 130.31 303.45 150.97 300.18 171.89 300.18 192.55 303.45 212.44 309.92 231.08 319.41 248 331.71 262.8 346.5 275.09 363.42 284.59 382.06 291.05 401.95 294.32 422.61 294.32 443.53 291.72 459.98 296.28 463.12 298.23 462 307.03 459.64 316.15 459.64 324.95 462 332.85 466.55 339.29 473 343.85 480.9 345.74 481.99 350.37 480.75 358.29 480.75 365.94 482.8 372.8 486.76 378.4 492.36 382.36 499.22 384.41 506.87 384.41 514.79 382.36 522.44 378.4 529.3 372.8 534.9 365.94 538.86 358.29 540.9 350.37 540.9 342.72 538.86 335.86 534.9 330.26 529.3 329.34 527.7 324.95 526.52 316.15 528.88 312.78 528.88 309.89 533.88 312.15 537.79 314.51 546.6 314.51 555.71 318.86 558.79 324.95 560.42 332.85 564.98 339.29 571.43 343.85 579.32 346.21 588.13 346.21 597.24 343.85 606.05 339.29 613.94 332.85 620.39 324.95 624.95 316.15 627.31 307.03 627.31 298.23 624.95 290.33 620.39 283.89 613.94 279.33 606.05 276.97 597.24 276.97 588.13 272.62 585.05 266.52 583.42 258.63 578.86 252.18 572.41 247.62 564.52 245.26 555.71 245.26 546.6 246.59 541.64 242.22 538.64 231.08 546.73 212.44 556.23 192.55 562.69 171.89 565.96 150.97 565.96 130.31 562.69 110.42 556.23 91.78 546.73 74.86 534.43 60.07 519.64 57.45 516.04 52.69 517.58 52.69 1255.49 57.45 1257.03 60.07 1253.42 74.86 1238.63 91.78 1226.34 110.42 1216.84 130.31 1210.38 150.97 1207.11 171.89 1207.11 192.55 1210.38 212.44 1216.84 231.08 1226.34 248 1238.63 262.8 1253.42 275.09 1270.34 284.59 1288.98 291.05 1308.88 294.32 1329.54 294.32 1350.45 291.05 1371.11 284.59 1391.01 275.09 1409.64 262.8 1426.57 248 1441.36 231.08 1453.65 212.44 1463.15 192.55 1469.61 171.89 1472.88 150.97 1472.88 130.31 1469.61 110.42 1463.15 91.78 1453.65 74.86 1441.36 60.07 1426.57 57.84 1423.5 52.94 1425.26 53.02 1426.6 55.82 1438.01 60.63 1448.73 67.3 1458.4 75.59 1466.72 85.25 1473.41 95.96 1478.25 107.37 1481.08 113.23 1481.44 113.7 1481.57 943.16 1481.2"/></g><use xlink:href="#Zfmz_l7scqIb_pad-15" x="590.55" y="547.83"/><use xlink:href="#Zfmz_l7scqIb_pad-15" x="590.55" y="665.94"/><use xlink:href="#Zfmz_l7scqIb_pad-25" x="485.83" y="254.25"/><use xlink:href="#Zfmz_l7scqIb_pad-25" x="385.83" y="254.25"/><use xlink:href="#Zfmz_l7scqIb_pad-25" x="385.83" y="354.25"/><use xlink:href="#Zfmz_l7scqIb_pad-29" x="522.09" y="967.35"/><use xlink:href="#Zfmz_l7scqIb_pad-29" x="545.86" y="1201.82"/><use xlink:href="#Zfmz_l7scqIb_pad-29" x="359.19" y="1203.59"/><use xlink:href="#Zfmz_l7scqIb_pad-29" x="675.23" y="740.38"/><use xlink:href="#Zfmz_l7scqIb_pad-29" x="674.73" y="604.2"/><use xlink:href="#Zfmz_l7scqIb_pad-29" x="679.72" y="677.53"/><use xlink:href="#Zfmz_l7scqIb_pad-29" x="921.15" y="712.54"/><use xlink:href="#Zfmz_l7scqIb_pad-29" x="972.95" y="642.95"/><use xlink:href="#Zfmz_l7scqIb_pad-29" x="972.42" y="798.6"/><use xlink:href="#Zfmz_l7scqIb_pad-29" x="372.29" y="964.81"/><use xlink:href="#Zfmz_l7scqIb_pad-29" x="230.76" y="838.89"/><use xlink:href="#Zfmz_l7scqIb_pad-29" x="369.26" y="848.46"/><use xlink:href="#Zfmz_l7scqIb_pad-29" x="731.39" y="1083.16"/><use xlink:href="#Zfmz_l7scqIb_pad-29" x="622.6" y="1456.37"/><use xlink:href="#Zfmz_l7scqIb_pad-29" x="516.83" y="1456.37"/><use xlink:href="#Zfmz_l7scqIb_pad-29" x="266.01" y="1451.33"/><use xlink:href="#Zfmz_l7scqIb_pad-29" x="95.28" y="1181.88"/><use xlink:href="#Zfmz_l7scqIb_pad-29" x="762.07" y="1334.38"/><use xlink:href="#Zfmz_l7scqIb_pad-29" x="788.04" y="1430.39"/><use xlink:href="#Zfmz_l7scqIb_pad-29" x="987.07" y="1189.26"/><use xlink:href="#Zfmz_l7scqIb_pad-29" x="875.85" y="1157.91"/><use xlink:href="#Zfmz_l7scqIb_pad-29" x="747.66" y="1189.34"/><use xlink:href="#Zfmz_l7scqIb_pad-29" x="921.82" y="1124.18"/><use xlink:href="#Zfmz_l7scqIb_pad-29" x="921.82" y="1006.07"/><use xlink:href="#Zfmz_l7scqIb_pad-29" x="921.82" y="887.96"/><use xlink:href="#Zfmz_l7scqIb_pad-29" x="803.71" y="1242.29"/><use xlink:href="#Zfmz_l7scqIb_pad-29" x="803.71" y="1124.18"/><use xlink:href="#Zfmz_l7scqIb_pad-29" x="685.6" y="1124.18"/><use xlink:href="#Zfmz_l7scqIb_pad-29" x="213.16" y="1124.18"/><use xlink:href="#Zfmz_l7scqIb_pad-29" x="213.16" y="1006.07"/><use xlink:href="#Zfmz_l7scqIb_pad-29" x="213.16" y="887.96"/><use xlink:href="#Zfmz_l7scqIb_pad-29" x="95.05" y="1124.18"/><use xlink:href="#Zfmz_l7scqIb_pad-29" x="95.05" y="1006.07"/><use xlink:href="#Zfmz_l7scqIb_pad-29" x="95.05" y="887.96"/><use xlink:href="#Zfmz_l7scqIb_pad-29" x="651.48" y="1107.3"/><use xlink:href="#Zfmz_l7scqIb_pad-29" x="407.04" y="1107.3"/><use xlink:href="#Zfmz_l7scqIb_pad-29" x="883.36" y="955"/><use xlink:href="#Zfmz_l7scqIb_pad-29" x="883.36" y="640.04"/><use xlink:href="#Zfmz_l7scqIb_pad-29" x="883.36" y="797.52"/><use xlink:href="#Zfmz_l7scqIb_pad-29" x="176.65" y="723.3"/><use xlink:href="#Zfmz_l7scqIb_pad-29" x="253.44" y="640.04"/><use xlink:href="#Zfmz_l7scqIb_pad-29" x="95.96" y="955"/><use xlink:href="#Zfmz_l7scqIb_pad-29" x="95.96" y="797.52"/><use xlink:href="#Zfmz_l7scqIb_pad-29" x="67.3" y="661.29"/><use xlink:href="#Zfmz_l7scqIb_pad-29" x="137.77" y="601.55"/></g></svg>