<svg color="#151cff" fill="#151cff" stroke="#151cff" version="1.1" xmlns="http://www.w3.org/2000/svg" xmlns:xlink="http://www.w3.org/1999/xlink" stroke-linecap="round" stroke-linejoin="round" stroke-width="0" fill-rule="evenodd" width="0.9650299999999999in" height="1.29578in" viewBox="52.7 170.59 965.03 1295.78"><defs><mask id="WTYxiDmIS4Q3_clear-1" fill="#000" stroke="#000"><g><rect x="52.7" y="170.59" width="963.37" height="644.49" fill="#fff"/><path d="M 597.86 603.36 583.24 603.36 569.12 599.58 556.46 592.27 546.12 581.93 538.81 569.27 535.02 555.15 535.02 540.52 538.81 526.4 546.12 513.74 556.46 503.4 569.12 496.09 583.24 492.31 597.86 492.31 611.98 496.09 624.65 503.4 634.98 513.74 642.3 526.4 646.08 540.52 646.08 555.15 642.3 569.27 634.98 581.93 624.65 592.27 611.98 599.58 597.86 603.36"/><path d="M 358.29 540.9 350.37 540.9 342.72 538.86 335.86 534.9 330.26 529.3 326.3 522.44 324.25 514.79 324.25 506.87 326.3 499.22 330.26 492.36 335.86 486.76 342.72 482.8 350.37 480.75 358.29 480.75 365.94 482.8 372.8 486.76 378.4 492.36 382.36 499.22 384.41 506.87 384.41 514.79 382.36 522.44 378.4 529.3 372.8 534.9 365.94 538.86 358.29 540.9"/><path d="M 393.34 411.35 378.31 411.35 363.79 407.46 350.76 399.94 340.13 389.31 332.62 376.29 328.72 361.77 328.72 346.73 332.62 332.21 340.13 319.19 350.76 308.56 353.9 306.75 353.9 301.75 350.76 299.94 340.13 289.31 332.62 276.29 328.72 261.77 328.72 246.73 332.62 232.21 340.13 219.19 350.76 208.56 363.79 201.04 378.31 197.15 393.34 197.15 407.87 201.04 420.89 208.56 431.52 219.19 433.33 222.32 438.33 222.32 440.13 219.19 450.77 208.56 463.79 201.04 478.31 197.15 493.34 197.15 507.87 201.04 520.89 208.56 531.52 219.19 539.04 232.21 542.93 246.73 542.93 261.77 539.04 276.29 531.52 289.31 520.89 299.94 507.87 307.46 493.34 311.35 478.31 311.35 463.79 307.46 450.77 299.94 440.13 289.31 438.33 286.18 433.33 286.18 431.52 289.31 420.89 299.94 417.76 301.75 417.76 306.75 420.89 308.56 431.52 319.19 439.04 332.21 442.93 346.73 442.93 361.77 439.04 376.29 431.52 389.31 420.89 399.94 407.87 407.46 393.34 411.35"/></g></mask><circle cx="0" cy="0" r="30.905" id="WTYxiDmIS4Q3_pad-15"/><rect x="-30.905" y="-30.905" width="61.81" height="61.81" id="WTYxiDmIS4Q3_pad-20"/><circle cx="0" cy="0" r="20.08" id="WTYxiDmIS4Q3_pad-21"/><circle cx="0" cy="0" r="32.48" id="WTYxiDmIS4Q3_pad-25"/><circle cx="0" cy="0" r="31.89" id="WTYxiDmIS4Q3_pad-26"/><rect x="-31.89" y="-31.89" width="63.78" height="63.78" id="WTYxiDmIS4Q3_pad-27"/><circle cx="0" cy="0" r="108.27" id="WTYxiDmIS4Q3_pad-28"/><circle cx="0" cy="0" r="10" id="WTYxiDmIS4Q3_pad-29"/><rect x="-11.81" y="-19.685" width="23.62" height="39.37" id="WTYxiDmIS4Q3_pad-30"/><rect x="-43.305" y="-42.325" width="86.61" height="84.65" id="WTYxiDmIS4Q3_pad-31"/></defs><g transform="translate(0,1636.96) scale(1,-1)" fill="#151cff" stroke="#151cff"><g mask="url(#WTYxiDmIS4Q3_clear-1)"><path d="M 207.08 672.57 207.73 669.39 207.95 666.15 208.71 664.64 209.05 662.97 210.87 660.29 212.31 657.38 213.59 656.27 214.54 654.87 215.4 654.3 215.4 625.16 214.74 624.72 213.85 623.37 212.64 622.3 211.18 619.31 209.35 616.54 209.04 614.95 208.33 613.5 208.13 610.18 207.5 606.92 207.58 594.37 196.85 583.63 56.23 583.63 52.7 587.18 53.02 743.12 206.63 743.12 207.08 672.57"/><path d="M 716.05 693.86 711.05 692.52 707.42 698.79 700.98 705.23 697.29 707.36 696.84 710.33 697.07 713.26 702.93 719.12 707.49 727.02 709.85 735.83 709.85 744.94 707.49 753.75 702.93 761.64 696.49 768.09 688.59 772.65 679.79 775 670.67 775 661.87 772.65 653.97 768.09 647.53 761.64 642.97 753.75 640.61 744.94 640.61 735.83 642.97 727.02 647.53 719.12 653.97 712.68 657.66 710.55 658.11 707.58 657.88 704.65 652.01 698.79 647.46 690.89 646.93 688.93 645.61 688.48 641.64 688.51 634.98 700.04 624.65 710.38 611.98 717.69 597.86 721.47 583.24 721.47 569.12 717.69 556.46 710.38 546.12 700.04 538.81 687.38 535.02 673.26 535.02 658.64 538.81 644.51 546.12 631.85 556.46 621.51 569.12 614.2 583.24 610.42 597.86 610.42 611.98 614.2 624.65 621.51 634.98 631.85 642.3 644.51 645.7 657.21 650.09 658.28 650.9 658.2 652.01 656.27 658.46 649.82 666.36 645.27 671.75 643.82 671.09 638.82 670.17 638.82 661.37 636.46 653.47 631.9 647.03 625.46 642.47 617.56 640.11 608.76 640.11 599.64 642.47 590.84 647.03 582.94 653.47 576.49 661.37 571.94 670.17 569.58 679.29 569.58 688.09 571.94 695.99 576.49 702.44 582.94 706.99 590.84 709.35 599.64 709.35 608.76 706.99 617.56 702.44 625.46 695.99 631.9 688.09 636.46 682.7 637.91 683.36 642.91 684.28 642.91 693.08 645.27 700.98 649.82 707.42 656.27 711.05 662.54 716.05 661.2 716.05 543.53 712.62 540.9 704.7 540.9 697.05 538.86 690.19 534.9 684.59 529.3 680.63 522.44 678.58 514.79 678.58 506.87 680.63 499.22 684.59 492.36 690.19 486.76 697.05 482.8 704.7 480.75 712.62 480.75 716.05 478.12 716.05 428.01 698.11 410.08 693.35 411.35 678.31 411.35 663.79 407.46 650.77 399.94 640.13 389.31 632.62 376.29 628.72 361.77 628.72 346.73 632.62 332.21 640.13 319.19 650.77 308.56 653.9 306.75 653.9 301.75 650.77 299.94 640.13 289.31 632.62 276.29 628.72 261.77 628.72 246.73 632.62 232.21 640.13 219.19 650.77 208.56 663.79 201.04 678.31 197.15 693.35 197.15 707.87 201.04 720.89 208.56 731.52 219.19 733.99 223.46 769.64 223.46 769.64 223.46 777.61 224.51 785.04 227.59 791.41 232.48 798.33 239.4 798.33 239.4 803.22 245.77 806.3 253.2 807.35 261.17 807.35 261.17 807.35 340.16 812.35 342.23 822.88 331.71 839.8 319.41 858.44 309.92 878.33 303.45 898.99 300.18 919.91 300.18 940.57 303.45 960.46 309.92 979.1 319.41 996.02 331.71 1010.81 346.5 1011.47 347.4 1016.07 345.45 1014.29 335.19 1007.56 311.72 998.37 289.1 986.83 267.58 973.05 247.42 957.2 228.84 939.46 212.06 920.04 197.26 899.15 184.62 877.03 174.28 867.69 171.08 236.93 170.59 235.4 170.93 234.43 321.85 248 331.71 262.8 346.5 275.09 363.42 284.59 382.06 291.05 401.95 294.32 422.61 294.32 443.53 291.05 464.19 284.59 484.08 275.09 502.72 262.8 519.64 248 534.43 233 545.33 232.6 607.08 236.93 609.59 240.08 607.77 248.89 605.41 258 605.41 266.81 607.77 274.7 612.33 281.15 618.78 285.71 626.67 288.06 635.48 288.06 644.59 285.71 653.4 281.15 661.29 274.7 667.74 266.81 672.3 258 674.66 248.89 674.66 240.08 672.3 236.52 670.24 232.18 672.73 231.36 800.72 234.89 804.27 235.32 804.27 244.12 806.63 252.02 811.19 255.91 815.08 360.1 815.08 364.71 813.84 373.82 813.84 378.43 815.08 716.05 815.08 716.05 693.86"/></g><path d="M 571.85 1281.33 575.54 1281.33 M 631.4 1250.06 656.98 1275.64 M 590.3 1218.43 595.03 1218.43 M 630.82 1250.06 631.4 1250.06 M 575.54 1281.33 600.89 1255.98 M 620.89 1221.86 620.89 1240.13 630.82 1250.06 M 620.89 1221.86 628.75 1214 651.48 1214 M 600.89 1224.29 600.89 1255.98 M 583.49 1203.75 583.49 1211.62 590.3 1218.43 M 595.03 1218.43 600.89 1224.29 M 658.29 1195.87 658.29 1207.19 M 651.48 1214 658.29 1207.19 M 656.98 1275.64 656.98 1290.51 M 571.85 1281.33 571.85 1290.51 M 599.91 1163.94 610.89 1174.92 M 590.3 1192.28 601.81 1192.28 M 626.87 953.58 697.9 953.58 M 551.99 1089.27 569.56 1071.69 M 618.64 990.1 635.16 973.58 M 551.99 1121.35 594.58 1163.94 M 601.81 1192.28 610.89 1183.2 M 577.46 1071.69 598.64 1050.51 M 610.89 1174.92 610.89 1183.2 M 679.58 1014.51 689.87 1024.8 M 712.49 1024.8 718.35 1018.94 M 689.87 1024.8 712.49 1024.8 M 630.89 1166.63 630.89 1183.2 M 689.61 973.58 718.35 1002.32 M 569.56 1071.69 577.46 1071.69 M 598.64 981.82 626.87 953.58 M 583.49 1199.1 590.3 1192.28 M 697.9 953.58 738.35 994.03 M 738.35 1018.94 744.2 1024.8 787.4 1024.8 M 738.35 994.03 738.35 1018.94 M 594.58 1163.94 599.91 1163.94 M 602.86 1143.94 608.2 1143.94 M 718.35 1002.32 718.35 1018.94 M 585.74 1091.69 618.64 1058.8 M 577.85 1091.69 585.74 1091.69 M 618.64 990.1 618.64 1058.8 M 635.16 973.58 689.61 973.58 M 669.29 1024.8 679.58 1014.51 M 598.64 981.82 598.64 1050.51 M 571.99 1097.55 577.85 1091.69 M 608.2 1143.94 630.89 1166.63 M 571.99 1097.55 571.99 1113.07 M 551.99 1089.27 551.99 1121.35 M 571.99 1113.07 602.86 1143.94 M 630.89 1183.2 636.75 1189.06 651.48 1189.06 658.29 1195.87 M 656.98 1290.51 671.85 1290.51 M 371.85 1290.51 382.37 1280 407.04 1280 411.26 1275.77 M 417.48 1203.75 417.48 1211.62 M 424.29 1218.43 439.03 1218.43 M 439.03 1238.43 444.88 1232.57 M 444.88 1224.29 444.88 1232.57 M 439.03 1218.43 444.88 1224.29 M 417.48 1211.62 424.29 1218.43 M 411.26 1255.67 428.5 1238.43 439.03 1238.43 M 411.26 1255.67 411.26 1275.77 M 461.33 1280 471.85 1290.51 M 435.48 1280 461.33 1280 M 431.26 1275.77 435.48 1280 M 431.26 1263.96 431.26 1275.77 M 431.26 1263.96 436.79 1258.43 447.31 1258.43 464.88 1240.86 M 464.88 1224.29 470.74 1218.43 M 464.88 1224.29 464.88 1240.86 M 492.29 1203.75 492.29 1211.62 M 485.47 1218.43 492.29 1211.62 M 470.74 1218.43 485.47 1218.43 M 492.29 1195.87 492.29 1203.75 M 470.74 1189.06 485.47 1189.06 492.29 1195.87 M 464.88 1183.2 470.74 1189.06 M 470.74 1169.06 476.07 1169.06 M 464.88 1174.92 470.74 1169.06 M 502.13 1030.66 502.13 1143.01 M 476.07 1169.06 502.13 1143.01 M 464.88 1174.92 464.88 1183.2 M 507.98 1024.8 551.18 1024.8 M 502.13 1030.66 507.98 1024.8 M 444.88 1166.63 462.46 1149.06 467.79 1149.06 M 444.88 1166.63 444.88 1183.2 M 424.29 1189.06 439.03 1189.06 444.88 1183.2 M 417.48 1195.87 424.29 1189.06 M 417.48 1195.87 417.48 1203.75 M 467.79 1149.06 482.13 1134.72 M 476.27 1024.8 482.13 1030.66 M 433.07 1024.8 476.27 1024.8 M 482.13 1030.66 482.13 1134.72" fill="none" stroke-width="10"/><use xlink:href="#WTYxiDmIS4Q3_pad-15" x="590.55" y="547.83"/><use xlink:href="#WTYxiDmIS4Q3_pad-15" x="590.55" y="665.94"/><use xlink:href="#WTYxiDmIS4Q3_pad-15" x="472.44" y="547.83"/><use xlink:href="#WTYxiDmIS4Q3_pad-20" x="472.44" y="665.94"/><use xlink:href="#WTYxiDmIS4Q3_pad-21" x="905.51" y="1061.81"/><use xlink:href="#WTYxiDmIS4Q3_pad-21" x="196.85" y="1061.81"/><use xlink:href="#WTYxiDmIS4Q3_pad-21" x="708.66" y="510.83"/><use xlink:href="#WTYxiDmIS4Q3_pad-21" x="354.33" y="510.83"/><path d="M 685.83 354.25 746.84 415.26 746.84 829.15 M 669.29 906.69 746.84 829.15 M 769.64 254.25 776.56 261.17 776.56 895.85 787.4 906.69 M 685.83 254.25 769.64 254.25" fill="none" stroke-width="11.81"/><path d="M 620.89 1109.11 620.89 1109.26 M 620.89 1109.11 622.7 1107.3 651.48 1107.3 M 454.88 1109.11 454.88 1109.26 M 453.07 1107.3 454.88 1109.11 M 407.04 1107.3 453.07 1107.3 M 253.06 961.15 304.63 909.58 M 253.06 961.15 253.06 1166.35 303.15 1216.44 303.15 1321.81 371.85 1390.51" fill="none" stroke-width="20"/><use xlink:href="#WTYxiDmIS4Q3_pad-25" x="485.83" y="254.25"/><use xlink:href="#WTYxiDmIS4Q3_pad-25" x="485.83" y="354.25"/><use xlink:href="#WTYxiDmIS4Q3_pad-25" x="385.83" y="254.25"/><use xlink:href="#WTYxiDmIS4Q3_pad-25" x="385.83" y="354.25"/><use xlink:href="#WTYxiDmIS4Q3_pad-25" x="571.85" y="1290.51"/><use xlink:href="#WTYxiDmIS4Q3_pad-25" x="671.85" y="1290.51"/><use xlink:href="#WTYxiDmIS4Q3_pad-25" x="471.85" y="1290.51"/><use xlink:href="#WTYxiDmIS4Q3_pad-25" x="371.85" y="1290.51"/><use xlink:href="#WTYxiDmIS4Q3_pad-25" x="671.85" y="1390.51"/><use xlink:href="#WTYxiDmIS4Q3_pad-25" x="571.85" y="1390.51"/><use xlink:href="#WTYxiDmIS4Q3_pad-25" x="471.85" y="1390.51"/><use xlink:href="#WTYxiDmIS4Q3_pad-25" x="371.85" y="1390.51"/><use xlink:href="#WTYxiDmIS4Q3_pad-25" x="685.83" y="354.25"/><use xlink:href="#WTYxiDmIS4Q3_pad-25" x="685.83" y="254.25"/><use xlink:href="#WTYxiDmIS4Q3_pad-25" x="585.83" y="254.25"/><use xlink:href="#WTYxiDmIS4Q3_pad-25" x="585.83" y="354.25"/><use xlink:href="#WTYxiDmIS4Q3_pad-26" x="787.4" y="1024.8"/><use xlink:href="#WTYxiDmIS4Q3_pad-26" x="669.29" y="1024.8"/><use xlink:href="#WTYxiDmIS4Q3_pad-26" x="669.29" y="906.69"/><use xlink:href="#WTYxiDmIS4Q3_pad-26" x="551.18" y="908.31"/><use xlink:href="#WTYxiDmIS4Q3_pad-26" x="433.07" y="908.31"/><use xlink:href="#WTYxiDmIS4Q3_pad-26" x="314.96" y="908.31"/><use xlink:href="#WTYxiDmIS4Q3_pad-26" x="551.18" y="1024.8"/><use xlink:href="#WTYxiDmIS4Q3_pad-26" x="433.07" y="1024.8"/><use xlink:href="#WTYxiDmIS4Q3_pad-26" x="314.96" y="1024.8"/><use xlink:href="#WTYxiDmIS4Q3_pad-27" x="787.4" y="906.69"/><use xlink:href="#WTYxiDmIS4Q3_pad-28" x="909.45" y="433.07"/><use xlink:href="#WTYxiDmIS4Q3_pad-28" x="161.43" y="433.07"/><use xlink:href="#WTYxiDmIS4Q3_pad-28" x="909.46" y="1340"/><use xlink:href="#WTYxiDmIS4Q3_pad-28" x="161.43" y="1340"/><use xlink:href="#WTYxiDmIS4Q3_pad-29" x="522.09" y="967.35"/><use xlink:href="#WTYxiDmIS4Q3_pad-29" x="545.86" y="1201.82"/><use xlink:href="#WTYxiDmIS4Q3_pad-29" x="359.19" y="1203.59"/><use xlink:href="#WTYxiDmIS4Q3_pad-29" x="675.23" y="740.38"/><use xlink:href="#WTYxiDmIS4Q3_pad-29" x="674.73" y="604.2"/><use xlink:href="#WTYxiDmIS4Q3_pad-29" x="679.72" y="677.53"/><use xlink:href="#WTYxiDmIS4Q3_pad-29" x="921.15" y="712.54"/><use xlink:href="#WTYxiDmIS4Q3_pad-29" x="972.95" y="642.95"/><use xlink:href="#WTYxiDmIS4Q3_pad-29" x="972.42" y="798.6"/><use xlink:href="#WTYxiDmIS4Q3_pad-29" x="372.29" y="964.81"/><use xlink:href="#WTYxiDmIS4Q3_pad-29" x="230.76" y="838.89"/><use xlink:href="#WTYxiDmIS4Q3_pad-29" x="369.26" y="848.46"/><use xlink:href="#WTYxiDmIS4Q3_pad-29" x="731.39" y="1083.16"/><use xlink:href="#WTYxiDmIS4Q3_pad-29" x="622.6" y="1456.37"/><use xlink:href="#WTYxiDmIS4Q3_pad-29" x="516.83" y="1456.37"/><use xlink:href="#WTYxiDmIS4Q3_pad-29" x="266.01" y="1451.33"/><use xlink:href="#WTYxiDmIS4Q3_pad-29" x="95.28" y="1181.88"/><use xlink:href="#WTYxiDmIS4Q3_pad-29" x="762.07" y="1334.38"/><use xlink:href="#WTYxiDmIS4Q3_pad-29" x="788.04" y="1430.39"/><use xlink:href="#WTYxiDmIS4Q3_pad-29" x="987.07" y="1189.26"/><use xlink:href="#WTYxiDmIS4Q3_pad-29" x="875.85" y="1157.91"/><use xlink:href="#WTYxiDmIS4Q3_pad-29" x="747.66" y="1189.34"/><use xlink:href="#WTYxiDmIS4Q3_pad-29" x="921.82" y="1124.18"/><use xlink:href="#WTYxiDmIS4Q3_pad-29" x="921.82" y="1006.07"/><use xlink:href="#WTYxiDmIS4Q3_pad-29" x="921.82" y="887.96"/><use xlink:href="#WTYxiDmIS4Q3_pad-29" x="803.71" y="1242.29"/><use xlink:href="#WTYxiDmIS4Q3_pad-29" x="803.71" y="1124.18"/><use xlink:href="#WTYxiDmIS4Q3_pad-29" x="685.6" y="1124.18"/><use xlink:href="#WTYxiDmIS4Q3_pad-29" x="213.16" y="1124.18"/><use xlink:href="#WTYxiDmIS4Q3_pad-29" x="213.16" y="1006.07"/><use xlink:href="#WTYxiDmIS4Q3_pad-29" x="213.16" y="887.96"/><use xlink:href="#WTYxiDmIS4Q3_pad-29" x="95.05" y="1124.18"/><use xlink:href="#WTYxiDmIS4Q3_pad-29" x="95.05" y="1006.07"/><use xlink:href="#WTYxiDmIS4Q3_pad-29" x="95.05" y="887.96"/><use xlink:href="#WTYxiDmIS4Q3_pad-29" x="279.89" y="551.16"/><use xlink:href="#WTYxiDmIS4Q3_pad-29" x="279.77" y="278.77"/><use xlink:href="#WTYxiDmIS4Q3_pad-29" x="310.54" y="755.37"/><use xlink:href="#WTYxiDmIS4Q3_pad-29" x="487.13" y="753.08"/><use xlink:href="#WTYxiDmIS4Q3_pad-29" x="431.26" y="752.2"/><use xlink:href="#WTYxiDmIS4Q3_pad-29" x="378.33" y="752.2"/><use xlink:href="#WTYxiDmIS4Q3_pad-29" x="842.31" y="272.81"/><use xlink:href="#WTYxiDmIS4Q3_pad-29" x="636.34" y="430.21"/><use xlink:href="#WTYxiDmIS4Q3_pad-29" x="585.61" y="417.78"/><use xlink:href="#WTYxiDmIS4Q3_pad-29" x="902.14" y="198.98"/><use xlink:href="#WTYxiDmIS4Q3_pad-29" x="803.72" y="198.98"/><use xlink:href="#WTYxiDmIS4Q3_pad-29" x="606.87" y="297.41"/><use xlink:href="#WTYxiDmIS4Q3_pad-29" x="606.87" y="198.98"/><use xlink:href="#WTYxiDmIS4Q3_pad-29" x="508.44" y="592.68"/><use xlink:href="#WTYxiDmIS4Q3_pad-29" x="410.01" y="691.11"/><use xlink:href="#WTYxiDmIS4Q3_pad-29" x="410.01" y="592.68"/><use xlink:href="#WTYxiDmIS4Q3_pad-29" x="311.59" y="592.68"/><use xlink:href="#WTYxiDmIS4Q3_pad-29" x="311.59" y="494.26"/><use xlink:href="#WTYxiDmIS4Q3_pad-29" x="651.48" y="1107.3"/><use xlink:href="#WTYxiDmIS4Q3_pad-29" x="407.04" y="1107.3"/><use xlink:href="#WTYxiDmIS4Q3_pad-29" x="883.36" y="955"/><use xlink:href="#WTYxiDmIS4Q3_pad-29" x="883.36" y="640.04"/><use xlink:href="#WTYxiDmIS4Q3_pad-29" x="883.36" y="797.52"/><use xlink:href="#WTYxiDmIS4Q3_pad-29" x="176.65" y="723.3"/><use xlink:href="#WTYxiDmIS4Q3_pad-29" x="253.44" y="640.04"/><use xlink:href="#WTYxiDmIS4Q3_pad-29" x="95.96" y="955"/><use xlink:href="#WTYxiDmIS4Q3_pad-29" x="95.96" y="797.52"/><use xlink:href="#WTYxiDmIS4Q3_pad-29" x="67.3" y="661.29"/><use xlink:href="#WTYxiDmIS4Q3_pad-29" x="137.77" y="601.55"/><use xlink:href="#WTYxiDmIS4Q3_pad-30" x="583.49" y="1203.75"/><use xlink:href="#WTYxiDmIS4Q3_pad-30" x="658.29" y="1203.75"/><use xlink:href="#WTYxiDmIS4Q3_pad-30" x="620.89" y="1109.26"/><use xlink:href="#WTYxiDmIS4Q3_pad-30" x="454.88" y="1109.26"/><use xlink:href="#WTYxiDmIS4Q3_pad-30" x="417.48" y="1203.75"/><use xlink:href="#WTYxiDmIS4Q3_pad-30" x="492.29" y="1203.75"/><use xlink:href="#WTYxiDmIS4Q3_pad-31" x="157.45" y="658.64"/><use xlink:href="#WTYxiDmIS4Q3_pad-31" x="330.68" y="658.64"/></g></svg>