<svg version="1.1" xmlns="http://www.w3.org/2000/svg" xmlns:xlink="http://www.w3.org/1999/xlink" stroke-linecap="round" stroke-linejoin="round" stroke-width="0" fill-rule="evenodd" clip-rule="evenodd" id="S4_SfYiCsz_U_top" viewBox="104.3 204.25 631.53 1236.26" width="0.6315299999999999in" height="1.23626in"><defs><style>.S4_SfYiCsz_U_fr4 {color: #0d3126;}
.S4_SfYiCsz_U_cu {color: #d48a3a;}
.S4_SfYiCsz_U_cf {color: #d48a3a; opacity: 0.55;}
.S4_SfYiCsz_U_sm {color: #25b77f; opacity: 0.78;}
.S4_SfYiCsz_U_ss {color: #e7edf5; opacity: 0.92;}
.S4_SfYiCsz_U_sp {color: #cad5e1; opacity: 0.45;}
.S4_SfYiCsz_U_out {color: #000000;}</style><mask id="V6LVI3efxeop_clear-1" fill="#000" stroke="#000"><g><rect x="52.69" y="170.59" width="966.93" height="649.09" fill="#fff"/><path d="M 181.21 757.93 172.09 757.93 163.29 755.57 155.39 751.01 148.95 744.56 144.39 736.67 142.03 727.86 142.03 718.75 144.39 709.94 148.95 702.05 155.39 695.6 163.29 691.04 172.09 688.68 181.21 688.68 190.02 691.04 197.91 695.6 204.36 702.05 208.91 709.94 211.27 718.75 211.27 727.86 208.91 736.67 204.36 744.56 197.91 751.01 190.02 755.57 181.21 757.93"/><path d="M 679.79 775 670.67 775 661.87 772.65 653.97 768.09 647.53 761.64 642.97 753.75 640.61 744.94 640.61 735.83 642.97 727.02 647.53 719.12 653.97 712.68 657.66 710.55 658.11 707.58 657.88 704.65 652.01 698.79 647.46 690.89 646.93 688.93 645.61 688.48 641.64 688.51 634.98 700.04 624.65 710.38 611.98 717.69 597.86 721.47 583.24 721.47 569.12 717.69 556.46 710.38 546.12 700.04 538.81 687.38 535.02 673.26 535.02 658.64 538.81 644.51 546.12 631.85 556.46 621.51 569.12 614.2 583.24 610.42 597.86 610.42 611.98 614.2 624.65 621.51 634.98 631.85 642.3 644.51 645.7 657.21 650.09 658.28 650.9 658.2 652.01 656.27 658.46 649.82 666.36 645.27 671.75 643.82 671.09 638.82 670.17 638.82 661.37 636.46 653.47 631.9 647.03 625.46 642.47 617.56 640.11 608.76 640.11 599.64 642.47 590.84 647.03 582.94 653.47 576.49 661.37 571.94 670.17 569.58 679.29 569.58 688.09 571.94 695.99 576.49 702.44 582.94 706.99 590.84 709.35 599.64 709.35 608.76 706.99 617.56 702.44 625.46 695.99 631.9 688.09 636.46 682.7 637.91 683.36 642.91 684.28 642.91 693.08 645.27 700.98 649.82 707.42 656.27 711.98 664.17 714.34 672.97 714.34 682.09 711.98 690.89 707.42 698.79 700.98 705.23 697.29 707.36 696.84 710.33 697.07 713.26 702.93 719.12 707.49 727.02 709.85 735.83 709.85 744.94 707.49 753.75 702.93 761.64 696.49 768.09 688.59 772.65 679.79 775"/><path d="M 925.71 747.16 916.6 747.16 907.79 744.8 899.9 740.24 893.45 733.8 888.89 725.9 886.53 717.1 886.53 707.98 888.89 699.18 893.45 691.28 899.9 684.84 907.79 680.28 916.6 677.92 925.71 677.92 934.52 680.28 942.41 684.84 948.86 691.28 953.42 699.18 955.78 707.98 955.78 717.1 953.42 725.9 948.86 733.8 942.41 740.24 934.52 744.8 925.71 747.16"/><path d="M 977.51 677.57 968.39 677.57 959.59 675.21 951.69 670.65 945.25 664.21 940.69 656.31 938.33 647.5 938.33 638.39 940.69 629.58 945.25 621.69 951.69 615.24 959.59 610.68 968.39 608.33 977.51 608.33 986.31 610.68 994.21 615.24 1000.66 621.69 1005.21 629.58 1007.57 638.39 1007.57 647.5 1005.21 656.31 1000.66 664.21 994.21 670.65 986.31 675.21 977.51 677.57"/><path d="M 887.92 674.66 878.81 674.66 870 672.3 862.11 667.74 855.66 661.29 851.1 653.4 848.74 644.59 848.74 635.48 851.1 626.67 855.66 618.78 862.11 612.33 870 607.77 878.81 605.41 887.92 605.41 896.73 607.77 904.62 612.33 911.07 618.78 915.63 626.67 917.99 635.48 917.99 644.59 915.63 653.4 911.07 661.29 904.62 667.74 896.73 672.3 887.92 674.66"/><path d="M 258 674.66 248.89 674.66 240.08 672.3 232.19 667.74 225.74 661.29 221.18 653.4 218.82 644.59 218.82 635.48 221.18 626.67 225.74 618.78 232.19 612.33 240.08 607.77 248.89 605.41 258 605.41 266.81 607.77 274.7 612.33 281.15 618.78 285.71 626.67 288.06 635.48 288.06 644.59 285.71 653.4 281.15 661.29 274.7 667.74 266.81 672.3 258 674.66"/><path d="M 597.86 603.36 583.24 603.36 569.12 599.58 556.46 592.27 546.12 581.93 538.81 569.27 535.02 555.15 535.02 540.52 538.81 526.4 546.12 513.74 556.46 503.4 569.12 496.09 583.24 492.31 597.86 492.31 611.98 496.09 624.65 503.4 634.98 513.74 642.3 526.4 646.08 540.52 646.08 555.15 642.3 569.27 634.98 581.93 624.65 592.27 611.98 599.58 597.86 603.36"/><path d="M 712.62 540.9 704.7 540.9 697.05 538.86 690.19 534.9 684.59 529.3 680.63 522.44 678.58 514.79 678.58 506.87 680.63 499.22 684.59 492.36 690.19 486.76 697.05 482.8 704.7 480.75 712.62 480.75 720.27 482.8 727.13 486.76 732.73 492.36 736.69 499.22 738.74 506.87 738.74 514.79 736.69 522.44 732.73 529.3 727.13 534.9 720.27 538.86 712.62 540.9"/><path d="M 358.29 540.9 350.37 540.9 342.72 538.86 335.86 534.9 330.26 529.3 326.3 522.44 324.25 514.79 324.25 506.87 326.3 499.22 330.26 492.36 335.86 486.76 342.72 482.8 350.37 480.75 358.29 480.75 365.94 482.8 372.8 486.76 378.4 492.36 382.36 499.22 384.41 506.87 384.41 514.79 382.36 522.44 378.4 529.3 372.8 534.9 365.94 538.86 358.29 540.9"/><path d="M 693.35 411.35 678.31 411.35 663.79 407.46 650.77 399.94 640.13 389.31 632.62 376.29 628.72 361.77 628.72 346.73 632.62 332.21 640.13 319.19 650.77 308.56 653.9 306.75 653.9 301.75 650.77 299.94 640.13 289.31 632.62 276.29 628.72 261.77 628.72 246.73 632.62 232.21 640.13 219.19 650.77 208.56 663.79 201.04 678.31 197.15 693.35 197.15 707.87 201.04 720.89 208.56 731.52 219.19 739.04 232.21 742.93 246.73 742.93 261.77 739.04 276.29 731.52 289.31 720.89 299.94 717.76 301.75 717.76 306.75 720.89 308.56 731.52 319.19 739.04 332.21 742.93 346.73 742.93 361.77 739.04 376.29 731.52 389.31 720.89 399.94 707.87 407.46 693.35 411.35"/><path d="M 393.34 411.35 378.31 411.35 363.79 407.46 350.76 399.94 340.13 389.31 332.62 376.29 328.72 361.77 328.72 346.73 332.62 332.21 340.13 319.19 350.76 308.56 353.9 306.75 353.9 301.75 350.76 299.94 340.13 289.31 332.62 276.29 328.72 261.77 328.72 246.73 332.62 232.21 340.13 219.19 350.76 208.56 363.79 201.04 378.31 197.15 393.34 197.15 407.87 201.04 420.89 208.56 431.52 219.19 433.33 222.32 438.33 222.32 440.13 219.19 450.77 208.56 463.79 201.04 478.31 197.15 493.34 197.15 507.87 201.04 520.89 208.56 531.52 219.19 539.04 232.21 542.93 246.73 542.93 261.77 539.04 276.29 531.52 289.31 520.89 299.94 507.87 307.46 493.34 311.35 478.31 311.35 463.79 307.46 450.77 299.94 440.13 289.31 438.33 286.18 433.33 286.18 431.52 289.31 420.89 299.94 417.76 301.75 417.76 306.75 420.89 308.56 431.52 319.19 439.04 332.21 442.93 346.73 442.93 361.77 439.04 376.29 431.52 389.31 420.89 399.94 407.87 407.46 393.34 411.35"/></g></mask><circle cx="0" cy="0" r="30.905" id="V6LVI3efxeop_pad-15"/><rect x="-30.905" y="-30.905" width="61.81" height="61.81" id="V6LVI3efxeop_pad-20"/><circle cx="0" cy="0" r="20.08" id="V6LVI3efxeop_pad-21"/><circle cx="0" cy="0" r="32.48" id="V6LVI3efxeop_pad-25"/><circle cx="0" cy="0" r="31.89" id="V6LVI3efxeop_pad-26"/><rect x="-31.89" y="-31.89" width="63.78" height="63.78" id="V6LVI3efxeop_pad-27"/><circle cx="0" cy="0" r="108.27" id="V6LVI3efxeop_pad-28"/><circle cx="0" cy="0" r="10" id="V6LVI3efxeop_pad-29"/><circle cx="0" cy="0" r="30.905" id="zhO5qoNHKudN_pad-15"/><circle cx="0" cy="0" r="33.975" id="zhO5qoNHKudN_pad-16"/><circle cx="0" cy="0" r="33.385" id="zhO5qoNHKudN_pad-17"/><rect x="-33.385" y="-33.385" width="66.77" height="66.77" id="zhO5qoNHKudN_pad-18"/><circle cx="0" cy="0" r="21.575" id="zhO5qoNHKudN_pad-19"/><rect x="-30.905" y="-30.905" width="61.81" height="61.81" id="zhO5qoNHKudN_pad-20"/><circle cx="0" cy="0" r="20.08" id="zhO5qoNHKudN_pad-21"/><circle cx="0" cy="0" r="109.765" id="zhO5qoNHKudN_pad-22"/><g id="S4_SfYiCsz_U_top_copper"><g mask="url(#V6LVI3efxeop_clear-1)"><path d="M 1019.62 816.15 1019.57 515.68 1014.81 514.14 1010.81 519.64 996.02 534.43 979.1 546.73 960.46 556.23 940.57 562.69 919.91 565.96 898.99 565.96 878.33 562.69 858.44 556.23 839.8 546.73 822.88 534.43 808.09 519.64 795.79 502.72 786.29 484.08 779.83 464.19 776.56 443.53 776.56 422.61 779.83 401.95 786.29 382.06 795.79 363.42 808.09 346.5 822.88 331.71 839.8 319.41 858.44 309.92 878.33 303.45 898.99 300.18 919.91 300.18 940.57 303.45 960.46 309.92 979.1 319.41 996.02 331.71 1010.81 346.5 1011.47 347.4 1016.07 345.45 1014.29 335.19 1007.56 311.72 998.37 289.1 986.83 267.58 973.05 247.42 957.2 228.84 939.46 212.06 920.04 197.26 899.15 184.62 877.03 174.28 867.69 171.08 236.93 170.59 225.72 173.1 201.03 181.53 177.42 192.61 155.17 206.21 134.53 222.17 115.77 240.28 99.1 260.34 84.72 282.1 72.81 305.31 63.51 329.68 61.28 338.22 65.78 340.79 74.86 331.71 91.78 319.41 110.42 309.92 130.31 303.45 150.97 300.18 171.89 300.18 192.55 303.45 212.44 309.92 231.08 319.41 248 331.71 262.8 346.5 275.09 363.42 284.59 382.06 291.05 401.95 294.32 422.61 294.32 443.53 291.05 464.19 284.59 484.08 275.09 502.72 262.8 519.64 248 534.43 231.08 546.73 212.44 556.23 192.55 562.69 171.89 565.96 155.37 565.96 154.03 570.96 159.03 573.84 165.47 580.29 170.03 588.19 172.39 596.99 172.39 606.11 170.03 614.91 165.47 622.81 159.03 629.25 151.13 633.81 142.33 636.17 133.21 636.17 124.4 633.81 116.51 629.25 110.06 622.81 105.5 614.91 103.15 606.11 103.15 596.99 105.5 588.19 110.06 580.29 116.51 573.84 124.4 569.29 130.04 567.78 130.28 563.08 130.04 562.6 110.42 556.23 91.78 546.73 74.86 534.43 60.07 519.64 57.45 516.04 52.69 517.58 52.69 624.19 57.69 628.02 62.74 626.67 71.85 626.67 80.66 629.03 88.56 633.59 95 640.04 99.56 647.93 101.92 656.74 101.92 665.85 99.56 674.66 95 682.55 88.56 689 80.66 693.56 71.85 695.92 62.74 695.92 57.69 694.56 52.69 698.4 52.69 819.68 63.01 819.68 65.9 814.68 63.7 810.88 61.34 802.07 61.34 792.96 63.7 784.15 68.26 776.26 74.7 769.81 82.6 765.25 91.4 762.89 100.52 762.89 109.33 765.25 117.22 769.81 123.67 776.26 128.23 784.15 130.58 792.96 130.58 802.07 128.23 810.88 126.03 814.68 128.91 819.68 201.87 819.68 203.06 817.63 209.5 811.19 217.4 806.63 226.2 804.27 235.32 804.27 244.12 806.63 252.02 811.19 258.46 817.63 259.65 819.68 273.77 819.68 349.87 819.68 355.9 816.2 364.71 813.84 373.82 813.84 382.63 816.2 388.66 819.68 440.41 819.68 850.41 819.68 853.3 814.68 851.1 810.88 848.74 802.07 848.74 792.96 851.1 784.15 855.66 776.26 862.11 769.81 870 765.25 878.81 762.89 887.92 762.89 896.73 765.25 904.62 769.81 911.07 776.26 915.63 784.15 917.99 792.96 917.99 802.07 915.63 810.88 913.43 814.68 916.32 819.68 939.61 819.68 942.11 815.36 940.16 811.97 937.8 803.16 937.8 794.04 940.16 785.24 944.72 777.34 951.16 770.9 959.06 766.34 967.86 763.98 976.98 763.98 985.78 766.34 993.68 770.9 1000.12 777.34 1004.68 785.24 1007.04 794.04 1007.04 803.16 1004.68 811.97 1002.73 815.36 1005.23 819.68 1016.08 819.68 1019.62 816.15"/></g><use xlink:href="#V6LVI3efxeop_pad-15" x="590.55" y="547.83"/><use xlink:href="#V6LVI3efxeop_pad-15" x="590.55" y="665.94"/><use xlink:href="#V6LVI3efxeop_pad-15" x="472.44" y="547.83"/><use xlink:href="#V6LVI3efxeop_pad-20" x="472.44" y="665.94"/><use xlink:href="#V6LVI3efxeop_pad-21" x="905.51" y="1061.81"/><use xlink:href="#V6LVI3efxeop_pad-21" x="196.85" y="1061.81"/><use xlink:href="#V6LVI3efxeop_pad-21" x="708.66" y="510.83"/><use xlink:href="#V6LVI3efxeop_pad-21" x="354.33" y="510.83"/><path d="M 491.23 1133.8 520.24 1162.8 520.24 1338.9 M 484.96 960.2 491.23 1133.8 M 433.07 908.31 484.96 960.2 M 520.24 1338.9 571.85 1390.51 M 671.85 1390.51 720.24 1342.13 M 720.24 1243.66 720.24 1342.13 M 611.95 1135.37 720.24 1243.66 M 611.95 969.08 611.95 1135.37 M 551.18 908.31 611.95 969.08" fill="none" stroke-width="11.81"/><path d="M 314.96 1005.95 314.96 1444.98 326.68 1456.69 405.67 1456.69 471.85 1390.51" fill="none" stroke-width="20"/><use xlink:href="#V6LVI3efxeop_pad-25" x="485.83" y="254.25"/><use xlink:href="#V6LVI3efxeop_pad-25" x="485.83" y="354.25"/><use xlink:href="#V6LVI3efxeop_pad-25" x="385.83" y="254.25"/><use xlink:href="#V6LVI3efxeop_pad-25" x="385.83" y="354.25"/><use xlink:href="#V6LVI3efxeop_pad-25" x="571.85" y="1290.51"/><use xlink:href="#V6LVI3efxeop_pad-25" x="671.85" y="1290.51"/><use xlink:href="#V6LVI3efxeop_pad-25" x="471.85" y="1290.51"/><use xlink:href="#V6LVI3efxeop_pad-25" x="371.85" y="1290.51"/><use xlink:href="#V6LVI3efxeop_pad-25" x="671.85" y="1390.51"/><use xlink:href="#V6LVI3efxeop_pad-25" x="571.85" y="1390.51"/><use xlink:href="#V6LVI3efxeop_pad-25" x="471.85" y="1390.51"/><use xlink:href="#V6LVI3efxeop_pad-25" x="371.85" y="1390.51"/><use xlink:href="#V6LVI3efxeop_pad-25" x="685.83" y="354.25"/><use xlink:href="#V6LVI3efxeop_pad-25" x="685.83" y="254.25"/><use xlink:href="#V6LVI3efxeop_pad-25" x="585.83" y="254.25"/><use xlink:href="#V6LVI3efxeop_pad-25" x="585.83" y="354.25"/><use xlink:href="#V6LVI3efxeop_pad-26" x="787.4" y="1024.8"/><use xlink:href="#V6LVI3efxeop_pad-26" x="669.29" y="1024.8"/><use xlink:href="#V6LVI3efxeop_pad-26" x="669.29" y="906.69"/><use xlink:href="#V6LVI3efxeop_pad-26" x="551.18" y="908.31"/><use xlink:href="#V6LVI3efxeop_pad-26" x="433.07" y="908.31"/><use xlink:href="#V6LVI3efxeop_pad-26" x="314.96" y="908.31"/><use xlink:href="#V6LVI3efxeop_pad-26" x="551.18" y="1024.8"/><use xlink:href="#V6LVI3efxeop_pad-26" x="433.07" y="1024.8"/><use xlink:href="#V6LVI3efxeop_pad-26" x="314.96" y="1024.8"/><use xlink:href="#V6LVI3efxeop_pad-27" x="787.4" y="906.69"/><use xlink:href="#V6LVI3efxeop_pad-28" x="909.45" y="433.07"/><use xlink:href="#V6LVI3efxeop_pad-28" x="161.43" y="433.07"/><use xlink:href="#V6LVI3efxeop_pad-28" x="909.46" y="1340"/><use xlink:href="#V6LVI3efxeop_pad-28" x="161.43" y="1340"/><use xlink:href="#V6LVI3efxeop_pad-29" x="522.09" y="967.35"/><use xlink:href="#V6LVI3efxeop_pad-29" x="545.86" y="1201.82"/><use xlink:href="#V6LVI3efxeop_pad-29" x="359.19" y="1203.59"/><use xlink:href="#V6LVI3efxeop_pad-29" x="675.23" y="740.38"/><use xlink:href="#V6LVI3efxeop_pad-29" x="674.73" y="604.2"/><use xlink:href="#V6LVI3efxeop_pad-29" x="679.72" y="677.53"/><use xlink:href="#V6LVI3efxeop_pad-29" x="921.15" y="712.54"/><use xlink:href="#V6LVI3efxeop_pad-29" x="972.95" y="642.95"/><use xlink:href="#V6LVI3efxeop_pad-29" x="972.42" y="798.6"/><use xlink:href="#V6LVI3efxeop_pad-29" x="372.29" y="964.81"/><use xlink:href="#V6LVI3efxeop_pad-29" x="230.76" y="838.89"/><use xlink:href="#V6LVI3efxeop_pad-29" x="369.26" y="848.46"/><use xlink:href="#V6LVI3efxeop_pad-29" x="731.39" y="1083.16"/><use xlink:href="#V6LVI3efxeop_pad-29" x="622.6" y="1456.37"/><use xlink:href="#V6LVI3efxeop_pad-29" x="516.83" y="1456.37"/><use xlink:href="#V6LVI3efxeop_pad-29" x="266.01" y="1451.33"/><use xlink:href="#V6LVI3efxeop_pad-29" x="95.28" y="1181.88"/><use xlink:href="#V6LVI3efxeop_pad-29" x="762.07" y="1334.38"/><use xlink:href="#V6LVI3efxeop_pad-29" x="788.04" y="1430.39"/><use xlink:href="#V6LVI3efxeop_pad-29" x="987.07" y="1189.26"/><use xlink:href="#V6LVI3efxeop_pad-29" x="875.85" y="1157.91"/><use xlink:href="#V6LVI3efxeop_pad-29" x="747.66" y="1189.34"/><use xlink:href="#V6LVI3efxeop_pad-29" x="921.82" y="1124.18"/><use xlink:href="#V6LVI3efxeop_pad-29" x="921.82" y="1006.07"/><use xlink:href="#V6LVI3efxeop_pad-29" x="921.82" y="887.96"/><use xlink:href="#V6LVI3efxeop_pad-29" x="803.71" y="1242.29"/><use xlink:href="#V6LVI3efxeop_pad-29" x="803.71" y="1124.18"/><use xlink:href="#V6LVI3efxeop_pad-29" x="685.6" y="1124.18"/><use xlink:href="#V6LVI3efxeop_pad-29" x="213.16" y="1124.18"/><use xlink:href="#V6LVI3efxeop_pad-29" x="213.16" y="1006.07"/><use xlink:href="#V6LVI3efxeop_pad-29" x="213.16" y="887.96"/><use xlink:href="#V6LVI3efxeop_pad-29" x="95.05" y="1124.18"/><use xlink:href="#V6LVI3efxeop_pad-29" x="95.05" y="1006.07"/><use xlink:href="#V6LVI3efxeop_pad-29" x="95.05" y="887.96"/><use xlink:href="#V6LVI3efxeop_pad-29" x="279.89" y="551.16"/><use xlink:href="#V6LVI3efxeop_pad-29" x="279.77" y="278.77"/><use xlink:href="#V6LVI3efxeop_pad-29" x="310.54" y="755.37"/><use xlink:href="#V6LVI3efxeop_pad-29" x="487.13" y="753.08"/><use xlink:href="#V6LVI3efxeop_pad-29" x="431.26" y="752.2"/><use xlink:href="#V6LVI3efxeop_pad-29" x="378.33" y="752.2"/><use xlink:href="#V6LVI3efxeop_pad-29" x="842.31" y="272.81"/><use xlink:href="#V6LVI3efxeop_pad-29" x="636.34" y="430.21"/><use xlink:href="#V6LVI3efxeop_pad-29" x="585.61" y="417.78"/><use xlink:href="#V6LVI3efxeop_pad-29" x="902.14" y="198.98"/><use xlink:href="#V6LVI3efxeop_pad-29" x="803.72" y="198.98"/><use xlink:href="#V6LVI3efxeop_pad-29" x="606.87" y="297.41"/><use xlink:href="#V6LVI3efxeop_pad-29" x="606.87" y="198.98"/><use xlink:href="#V6LVI3efxeop_pad-29" x="508.44" y="592.68"/><use xlink:href="#V6LVI3efxeop_pad-29" x="410.01" y="691.11"/><use xlink:href="#V6LVI3efxeop_pad-29" x="410.01" y="592.68"/><use xlink:href="#V6LVI3efxeop_pad-29" x="311.59" y="592.68"/><use xlink:href="#V6LVI3efxeop_pad-29" x="311.59" y="494.26"/><use xlink:href="#V6LVI3efxeop_pad-29" x="651.48" y="1107.3"/><use xlink:href="#V6LVI3efxeop_pad-29" x="407.04" y="1107.3"/><use xlink:href="#V6LVI3efxeop_pad-29" x="883.36" y="955"/><use xlink:href="#V6LVI3efxeop_pad-29" x="883.36" y="640.04"/><use xlink:href="#V6LVI3efxeop_pad-29" x="883.36" y="797.52"/><use xlink:href="#V6LVI3efxeop_pad-29" x="176.65" y="723.3"/><use xlink:href="#V6LVI3efxeop_pad-29" x="253.44" y="640.04"/><use xlink:href="#V6LVI3efxeop_pad-29" x="95.96" y="955"/><use xlink:href="#V6LVI3efxeop_pad-29" x="95.96" y="797.52"/><use xlink:href="#V6LVI3efxeop_pad-29" x="67.3" y="661.29"/><use xlink:href="#V6LVI3efxeop_pad-29" x="137.77" y="601.55"/></g><g id="S4_SfYiCsz_U_top_silkscreen"><path d="M 979.33 816.93 A 4.92 4.92 0 0 1 969.49 816.93 4.92 4.92 0 0 1 979.33 816.93 M 308.07 665.94 A 4.92 4.92 0 0 1 298.23 665.94 4.92 4.92 0 0 1 308.07 665.94" fill="none" stroke-width="9.84"/><path d="M 163.82 799.21 163.82 1167.1 M 163.82 799.21 940.42 799.21 M 163.82 1167.1 940.42 1167.1 M 940.42 799.21 940.42 1167.1 M 810.3 676.95 954.63 676.95 M 807.16 735.76 826.77 735.76 M 807.16 716.14 807.16 735.76 M 807.16 615.48 807.16 716.14 M 826.77 735.76 958.68 735.76 M 880.36 620.19 880.36 732.3 M 958.68 617.65 958.68 735.76 M 807.16 615.48 956.51 615.48 M 265.59 589.32 205.61 589.32 205.61 619.31 215.61 629.3 235.6 629.3 245.59 619.31 245.59 589.32 M 205.61 649.3 265.59 649.3 245.59 669.29 265.59 689.28 205.61 689.28 M 265.59 709.28 205.61 709.28 205.61 739.27 215.61 749.27 235.6 749.27 245.59 739.27 245.59 709.28 M 245.59 729.27 265.59 749.27 M 78.41 1000.93 78.41 960.94 138.39 960.94 138.39 1000.93 M 108.4 960.94 108.4 980.93 M 78.41 1020.92 78.41 1060.91 78.41 1040.91 138.39 1040.91 M 78.41 1080.9 138.39 1080.9 108.4 1080.9 108.4 1120.89 78.41 1120.89 138.39 1120.89" fill="none" stroke-width="10"/><path d="M 326.77 408.07 736.22 408.07 M 326.77 545.67 326.77 773.03 M 326.77 408.07 326.77 475.98 M 326.77 773.03 736.22 773.03 M 736.22 545.67 736.22 773.03 M 736.22 408.07 736.22 475.98" fill="none" stroke-width="7.87"/><path d="M 833.46 703.25 859.7 703.25 M 846.58 716.36 846.58 690.13 M 912.18 703.25 938.42 703.25 M 833.46 639.95 859.7 639.95 M 846.58 653.07 846.58 626.83 M 912.18 639.95 938.42 639.95" fill="none" stroke-width="6.69"/><path d="M 1002.6 1032.75 978.99 1032.75 978.99 1020.94 982.92 1017.01 998.67 1017.01 1002.6 1020.94 1002.6 1032.75 M 978.99 1009.13 994.73 1009.13 1002.6 1001.26 994.73 993.39 978.99 993.39 990.8 993.39 990.8 1009.13 M 978.99 985.52 1002.6 985.52 1002.6 973.71 998.67 969.78 990.8 969.78 986.86 973.71 986.86 985.52 M 986.86 977.65 978.99 969.78 M 998.67 946.16 1002.6 950.1 1002.6 957.97 998.67 961.91 982.92 961.91 978.99 957.97 978.99 950.1 982.92 946.16 M 1002.6 938.29 998.67 938.29 990.8 930.42 998.67 922.55 1002.6 922.55 M 990.8 930.42 978.99 930.42 M 107.43 631.45 131.04 631.45 131.04 643.26 127.11 647.2 111.36 647.2 107.43 643.26 107.43 631.45 M 131.04 655.07 115.3 655.07 107.43 662.94 115.3 670.81 131.04 670.81 119.24 670.81 119.24 655.07 M 131.04 678.68 107.43 678.68 107.43 690.49 111.36 694.43 119.24 694.43 123.17 690.49 123.17 678.68 M 123.17 686.55 131.04 694.43 M 111.36 718.04 107.43 714.1 107.43 706.23 111.36 702.3 127.11 702.3 131.04 706.23 131.04 714.1 127.11 718.04 M 107.43 725.91 111.36 725.91 119.24 733.78 111.36 741.65 107.43 741.65 M 119.24 733.78 131.04 733.78" fill="none" stroke-width="5.12"/></g><g id="S4_SfYiCsz_U_top_soldermask"><use xlink:href="#zhO5qoNHKudN_pad-15" x="590.55" y="547.83"/><use xlink:href="#zhO5qoNHKudN_pad-15" x="590.55" y="665.94"/><use xlink:href="#zhO5qoNHKudN_pad-15" x="472.44" y="547.83"/><use xlink:href="#zhO5qoNHKudN_pad-16" x="485.83" y="254.25"/><use xlink:href="#zhO5qoNHKudN_pad-16" x="485.83" y="354.25"/><use xlink:href="#zhO5qoNHKudN_pad-16" x="385.83" y="254.25"/><use xlink:href="#zhO5qoNHKudN_pad-16" x="385.83" y="354.25"/><use xlink:href="#zhO5qoNHKudN_pad-16" x="571.85" y="1290.51"/><use xlink:href="#zhO5qoNHKudN_pad-16" x="671.85" y="1290.51"/><use xlink:href="#zhO5qoNHKudN_pad-16" x="471.85" y="1290.51"/><use xlink:href="#zhO5qoNHKudN_pad-16" x="371.85" y="1290.51"/><use xlink:href="#zhO5qoNHKudN_pad-16" x="671.85" y="1390.51"/><use xlink:href="#zhO5qoNHKudN_pad-16" x="571.85" y="1390.51"/><use xlink:href="#zhO5qoNHKudN_pad-16" x="471.85" y="1390.51"/><use xlink:href="#zhO5qoNHKudN_pad-16" x="371.85" y="1390.51"/><use xlink:href="#zhO5qoNHKudN_pad-16" x="685.83" y="354.25"/><use xlink:href="#zhO5qoNHKudN_pad-16" x="685.83" y="254.25"/><use xlink:href="#zhO5qoNHKudN_pad-16" x="585.83" y="254.25"/><use xlink:href="#zhO5qoNHKudN_pad-16" x="585.83" y="354.25"/><use xlink:href="#zhO5qoNHKudN_pad-17" x="787.4" y="1024.8"/><use xlink:href="#zhO5qoNHKudN_pad-17" x="669.29" y="1024.8"/><use xlink:href="#zhO5qoNHKudN_pad-17" x="669.29" y="906.69"/><use xlink:href="#zhO5qoNHKudN_pad-17" x="551.18" y="908.31"/><use xlink:href="#zhO5qoNHKudN_pad-17" x="433.07" y="908.31"/><use xlink:href="#zhO5qoNHKudN_pad-17" x="314.96" y="908.31"/><use xlink:href="#zhO5qoNHKudN_pad-17" x="551.18" y="1024.8"/><use xlink:href="#zhO5qoNHKudN_pad-17" x="433.07" y="1024.8"/><use xlink:href="#zhO5qoNHKudN_pad-17" x="314.96" y="1024.8"/><use xlink:href="#zhO5qoNHKudN_pad-18" x="787.4" y="906.69"/><use xlink:href="#zhO5qoNHKudN_pad-19" x="905.51" y="1061.81"/><use xlink:href="#zhO5qoNHKudN_pad-19" x="196.85" y="1061.81"/><use xlink:href="#zhO5qoNHKudN_pad-20" x="472.44" y="665.94"/><use xlink:href="#zhO5qoNHKudN_pad-21" x="708.66" y="510.83"/><use xlink:href="#zhO5qoNHKudN_pad-21" x="354.33" y="510.83"/><use xlink:href="#zhO5qoNHKudN_pad-22" x="909.45" y="433.07"/><use xlink:href="#zhO5qoNHKudN_pad-22" x="161.43" y="433.07"/><use xlink:href="#zhO5qoNHKudN_pad-22" x="909.46" y="1340"/><use xlink:href="#zhO5qoNHKudN_pad-22" x="161.43" y="1340"/></g><clipPath id="S4_SfYiCsz_U_top_outline"><path d="M 551.99 1232.29 689.79 1232.29 689.79 1080.71 551.99 1080.71 551.99 1232.29 M 385.99 1232.29 523.78 1232.29 523.78 1080.71 385.99 1080.71 385.99 1232.29 M 383.83 583.63 383.83 733.64 104.3 733.64 104.3 583.63 383.83 583.63 M 620.89 1136.82 620.89 1176.19 M 601.2 1156.5 640.57 1156.5 M 454.88 1136.82 454.88 1176.19 M 435.2 1156.5 474.57 1156.5 M 502.17 1340.51 541.54 1340.51 M 521.85 1320.83 521.85 1360.2 M 321.85 1440.51 721.85 1440.51 721.85 1240.51 321.85 1240.51 321.85 1440.51 M 335.83 204.25 735.83 204.25 735.83 404.25 335.83 404.25 335.83 204.25 M 516.14 304.25 555.51 304.25 M 535.83 284.57 535.83 323.94" fill="none" stroke-width="1.97"/></clipPath><mask id="S4_SfYiCsz_U_top_mech-mask"><g fill="#000" stroke="#000"><rect x="104.3" y="204.25" width="631.53" height="1236.26" fill="#fff"/></g></mask><mask id="S4_SfYiCsz_U_top_cf-mask"><g fill="#fff" stroke="#fff"><use xlink:href="#S4_SfYiCsz_U_top_soldermask"/></g></mask><mask id="S4_SfYiCsz_U_top_sm-mask"><g fill="#000" stroke="#000"><rect x="104.3" y="204.25" width="631.53" height="1236.26" fill="#fff"/><use xlink:href="#S4_SfYiCsz_U_top_soldermask"/></g></mask></defs><g transform="translate(0,1644.76) scale(1,-1)"><g mask="url(#S4_SfYiCsz_U_top_mech-mask)" clip-path="url(#S4_SfYiCsz_U_top_outline)"><rect x="104.3" y="204.25" width="631.53" height="1236.26" fill="currentColor" class="S4_SfYiCsz_U_fr4"/><use xlink:href="#S4_SfYiCsz_U_top_copper" fill="currentColor" stroke="currentColor" class="S4_SfYiCsz_U_cu"/><use xlink:href="#S4_SfYiCsz_U_top_copper" fill="currentColor" stroke="currentColor" class="S4_SfYiCsz_U_cf" mask="url(#S4_SfYiCsz_U_top_cf-mask)"/><g mask="url(#S4_SfYiCsz_U_top_sm-mask)"><rect x="104.3" y="204.25" width="631.53" height="1236.26" fill="currentColor" class="S4_SfYiCsz_U_sm"/><use xlink:href="#S4_SfYiCsz_U_top_silkscreen" fill="currentColor" stroke="currentColor" class="S4_SfYiCsz_U_ss"/></g></g></g></svg>