G04*
G04 #@! TF.GenerationSoftware,Altium Limited,DefaultClient, ()*
G04*
G04 Layer_Color=32896*
G04 Board_Origin=74640000|43876300*
%FSLAX25Y25*%
%MOIN*%
G70*
G04*
G04 #@! TF.SameCoordinates,7376E26B-85FC-40E6-8FC3-DD4050A09F07*
G04*
G04*
G04 #@! TF.FilePolarity,Positive*
G04*
G01*
G75*
%ADD10C,0.00984*%
%ADD11C,0.00787*%
%ADD12C,0.00394*%
%ADD15C,0.01000*%
%ADD16C,0.02362*%
%ADD20C,0.00333*%
%ADD21C,0.00333*%
%ADD131C,0.00317*%
%ADD132C,0.00335*%
G36*
X1078876Y740828D02*
X1079132D01*
Y740742D01*
X1079474D01*
Y740657D01*
X1080072D01*
Y740742D01*
X1080158D01*
Y740657D01*
X1080243D01*
Y740571D01*
X1080500D01*
Y740486D01*
X1080585D01*
Y740401D01*
X1080756D01*
Y740315D01*
X1080842D01*
Y740230D01*
X1081013D01*
Y740144D01*
X1081526D01*
Y740059D01*
X1081611D01*
Y739973D01*
X1081782D01*
Y739888D01*
X1082209D01*
Y739973D01*
X1083064D01*
Y740059D01*
X1083321D01*
Y739973D01*
X1083406D01*
Y739888D01*
X1083492D01*
Y739802D01*
X1083577D01*
Y739888D01*
X1083748D01*
Y739802D01*
X1083919D01*
Y739631D01*
X1084005D01*
Y739717D01*
X1084090D01*
Y739460D01*
X1084176D01*
Y739546D01*
X1084261D01*
Y739802D01*
X1084347D01*
Y739717D01*
X1084432D01*
Y739631D01*
X1084689D01*
Y739546D01*
X1084774D01*
Y739460D01*
X1084945D01*
Y739289D01*
X1085031D01*
Y739204D01*
X1085287D01*
Y738947D01*
X1085373D01*
Y738263D01*
X1085458D01*
Y738092D01*
X1085544D01*
Y738007D01*
X1085629D01*
Y737921D01*
X1085715D01*
Y737836D01*
X1085800D01*
Y737750D01*
X1085886D01*
Y737665D01*
X1086142D01*
Y737579D01*
X1086228D01*
Y737408D01*
X1086313D01*
Y737323D01*
X1086399D01*
Y737237D01*
X1086569D01*
Y737066D01*
X1086826D01*
Y737665D01*
X1086911D01*
Y738007D01*
X1086997D01*
Y738092D01*
X1087168D01*
Y738007D01*
X1087253D01*
Y737836D01*
X1087339D01*
Y737750D01*
X1087852D01*
Y737665D01*
X1087937D01*
Y737579D01*
X1088023D01*
Y737494D01*
X1088194D01*
Y737408D01*
X1088279D01*
Y737237D01*
X1088365D01*
Y737066D01*
X1088450D01*
Y736981D01*
X1088536D01*
Y736810D01*
X1088621D01*
Y736725D01*
X1088707D01*
Y736639D01*
X1089049D01*
Y736211D01*
X1089134D01*
Y736040D01*
X1089305D01*
Y735955D01*
X1089561D01*
Y735699D01*
X1089647D01*
Y735613D01*
X1089561D01*
Y735528D01*
X1089647D01*
Y735271D01*
X1089732D01*
Y735186D01*
X1089904D01*
Y735100D01*
X1089989D01*
Y734844D01*
X1090075D01*
Y734587D01*
X1090245D01*
Y734502D01*
X1090331D01*
Y734416D01*
X1090673D01*
Y734331D01*
X1090844D01*
Y734245D01*
X1091015D01*
Y733989D01*
X1090929D01*
Y733903D01*
X1091015D01*
Y733134D01*
X1090929D01*
Y733048D01*
X1091015D01*
Y732963D01*
X1090929D01*
Y732792D01*
X1091613D01*
Y732706D01*
X1091699D01*
Y732621D01*
X1091784D01*
Y732279D01*
X1091699D01*
Y732194D01*
X1091613D01*
Y732108D01*
X1091528D01*
Y732023D01*
X1091442D01*
Y731852D01*
X1091357D01*
Y731681D01*
X1091442D01*
Y731595D01*
X1091528D01*
Y731510D01*
X1091613D01*
Y731424D01*
X1091699D01*
Y731339D01*
X1091613D01*
Y731253D01*
X1091699D01*
Y730997D01*
X1091784D01*
Y730740D01*
X1092212D01*
Y730313D01*
X1092041D01*
Y730227D01*
X1092126D01*
Y729885D01*
X1092212D01*
Y729287D01*
X1092297D01*
Y729202D01*
X1092383D01*
Y729116D01*
X1092468D01*
Y729031D01*
X1092383D01*
Y728945D01*
X1092468D01*
Y728860D01*
X1092554D01*
Y728774D01*
X1092468D01*
Y728689D01*
X1092383D01*
Y728603D01*
X1092468D01*
Y728518D01*
X1092383D01*
Y728090D01*
X1092212D01*
Y728005D01*
X1092126D01*
Y727919D01*
X1092041D01*
Y727748D01*
X1091955D01*
Y727577D01*
X1091784D01*
Y727492D01*
X1091613D01*
Y727406D01*
X1091699D01*
Y727321D01*
X1091613D01*
Y727064D01*
X1091528D01*
Y726979D01*
X1091442D01*
Y726893D01*
X1091357D01*
Y726637D01*
X1091271D01*
Y726295D01*
X1091186D01*
Y726038D01*
X1091271D01*
Y725868D01*
X1091186D01*
Y725782D01*
X1091100D01*
Y725526D01*
X1091015D01*
Y725440D01*
X1091100D01*
Y725354D01*
X1091015D01*
Y725184D01*
X1091271D01*
Y724842D01*
X1091357D01*
Y724585D01*
X1091271D01*
Y724329D01*
X1091186D01*
Y724243D01*
X1091100D01*
Y724158D01*
X1091015D01*
Y724072D01*
X1090929D01*
Y723901D01*
X1090844D01*
Y723987D01*
X1090758D01*
Y723901D01*
X1090673D01*
Y723730D01*
X1090758D01*
Y723559D01*
X1091100D01*
Y723474D01*
X1091442D01*
Y723559D01*
X1091699D01*
Y723474D01*
X1091784D01*
Y723132D01*
X1091613D01*
Y723046D01*
X1091528D01*
Y722961D01*
X1091186D01*
Y722875D01*
X1091100D01*
Y722790D01*
X1090929D01*
Y722704D01*
X1091015D01*
Y722619D01*
X1090929D01*
Y722448D01*
X1091100D01*
Y722277D01*
X1091186D01*
Y722191D01*
X1091100D01*
Y722106D01*
X1091186D01*
Y722020D01*
X1090929D01*
Y721935D01*
X1090844D01*
Y721764D01*
X1090758D01*
Y721678D01*
X1090673D01*
Y721593D01*
X1090758D01*
Y721422D01*
X1090673D01*
Y721080D01*
X1090587D01*
Y720995D01*
X1090416D01*
Y720909D01*
X1090331D01*
Y720824D01*
X1090160D01*
Y720738D01*
X1089904D01*
Y720824D01*
X1089647D01*
Y720653D01*
X1089561D01*
Y720482D01*
X1089647D01*
Y720396D01*
X1089732D01*
Y720311D01*
X1089818D01*
Y720225D01*
X1090075D01*
Y720054D01*
X1089989D01*
Y719969D01*
X1089904D01*
Y719883D01*
X1089732D01*
Y719798D01*
X1089476D01*
Y719712D01*
X1089390D01*
Y719798D01*
X1089220D01*
Y719712D01*
X1089134D01*
Y719541D01*
X1088963D01*
Y719456D01*
X1088878D01*
Y719370D01*
X1088792D01*
Y719285D01*
X1088621D01*
Y719199D01*
X1088536D01*
Y719114D01*
X1088365D01*
Y719028D01*
X1088108D01*
Y718943D01*
X1088023D01*
Y718857D01*
X1087937D01*
Y718686D01*
X1087852D01*
Y718601D01*
X1087766D01*
Y718515D01*
X1087681D01*
Y718430D01*
X1087595D01*
Y718344D01*
X1087424D01*
Y718259D01*
X1087339D01*
Y718174D01*
X1087253D01*
Y718088D01*
X1087168D01*
Y718003D01*
X1086997D01*
Y717917D01*
X1086826D01*
Y717832D01*
X1086569D01*
Y717746D01*
X1086313D01*
Y717661D01*
X1086142D01*
Y717575D01*
X1085715D01*
Y717490D01*
X1085458D01*
Y717404D01*
X1085287D01*
Y717319D01*
X1084945D01*
Y717233D01*
X1084689D01*
Y717148D01*
X1084432D01*
Y717062D01*
X1084090D01*
Y716977D01*
X1084005D01*
Y716891D01*
X1083834D01*
Y716806D01*
X1083406D01*
Y716720D01*
X1083150D01*
Y716635D01*
X1082893D01*
Y716549D01*
X1082637D01*
Y716464D01*
X1082039D01*
Y716378D01*
X1081697D01*
Y716293D01*
X1081526D01*
Y716207D01*
X1081098D01*
Y716122D01*
X1080671D01*
Y716036D01*
X1080243D01*
Y715951D01*
X1079645D01*
Y715865D01*
X1079388D01*
Y715780D01*
X1079303D01*
Y715694D01*
X1079132D01*
Y715609D01*
X1079047D01*
Y715523D01*
X1078961D01*
Y715438D01*
X1078704D01*
Y715352D01*
X1078448D01*
Y715267D01*
X1078192D01*
Y715181D01*
X1078106D01*
Y715096D01*
X1078021D01*
Y715010D01*
X1077935D01*
Y714925D01*
X1077850D01*
Y714754D01*
X1077764D01*
Y714498D01*
X1077679D01*
Y714327D01*
X1077593D01*
Y714241D01*
X1077508D01*
Y714156D01*
X1077422D01*
Y714070D01*
X1077251D01*
Y713985D01*
X1077166D01*
Y713899D01*
X1077080D01*
Y713814D01*
X1076995D01*
Y713728D01*
X1076909D01*
Y713643D01*
X1076824D01*
Y713557D01*
X1076653D01*
Y713472D01*
X1076311D01*
Y713386D01*
X1076140D01*
Y713301D01*
X1075969D01*
Y713130D01*
X1075883D01*
Y713044D01*
X1075798D01*
Y712873D01*
X1075712D01*
Y712788D01*
X1075627D01*
Y712702D01*
X1075456D01*
Y712617D01*
X1074259D01*
Y712702D01*
X1074003D01*
Y712788D01*
X1073490D01*
Y712702D01*
X1073319D01*
Y712617D01*
X1073233D01*
Y712446D01*
X1073148D01*
Y712360D01*
X1073062D01*
Y711933D01*
X1072977D01*
Y711762D01*
X1072891D01*
Y711335D01*
X1072977D01*
Y710907D01*
X1072891D01*
Y710651D01*
X1072977D01*
Y710480D01*
X1073062D01*
Y710223D01*
X1072977D01*
Y710138D01*
X1073062D01*
Y710052D01*
X1073148D01*
Y709967D01*
X1073233D01*
Y709796D01*
X1073319D01*
Y709454D01*
X1073233D01*
Y709283D01*
X1073319D01*
Y708941D01*
X1073404D01*
Y708855D01*
X1073490D01*
Y708599D01*
X1073575D01*
Y708086D01*
X1073490D01*
Y707744D01*
X1073404D01*
Y707573D01*
X1073490D01*
Y707402D01*
X1073404D01*
Y706376D01*
X1073490D01*
Y705778D01*
X1073575D01*
Y705607D01*
X1073490D01*
Y705436D01*
X1073404D01*
Y705350D01*
X1073319D01*
Y705008D01*
X1073233D01*
Y704837D01*
X1073319D01*
Y704752D01*
X1073233D01*
Y704495D01*
X1073319D01*
Y704410D01*
X1073490D01*
Y703982D01*
X1073404D01*
Y703812D01*
X1073575D01*
Y703726D01*
X1073661D01*
Y703555D01*
X1073575D01*
Y703470D01*
X1073404D01*
Y703384D01*
X1073490D01*
Y703299D01*
X1073404D01*
Y703042D01*
X1073575D01*
Y702786D01*
X1073490D01*
Y702529D01*
X1073404D01*
Y702444D01*
X1073490D01*
Y702358D01*
X1073404D01*
Y701931D01*
X1073490D01*
Y701674D01*
X1073575D01*
Y701503D01*
X1073661D01*
Y701247D01*
X1073575D01*
Y701161D01*
X1073490D01*
Y700990D01*
X1073575D01*
Y700905D01*
X1073490D01*
Y700648D01*
X1073575D01*
Y700307D01*
X1073490D01*
Y700050D01*
X1073404D01*
Y699965D01*
X1073319D01*
Y699537D01*
X1073404D01*
Y699281D01*
X1073319D01*
Y699110D01*
X1073233D01*
Y698768D01*
X1073148D01*
Y698682D01*
X1072891D01*
Y698597D01*
X1072720D01*
Y698682D01*
X1072464D01*
Y698597D01*
X1072207D01*
Y698511D01*
X1072122D01*
Y698426D01*
X1072207D01*
Y698340D01*
X1072464D01*
Y698426D01*
X1072549D01*
Y698511D01*
X1072891D01*
Y698426D01*
X1072977D01*
Y698340D01*
X1073148D01*
Y698255D01*
X1073233D01*
Y698169D01*
X1073319D01*
Y697998D01*
X1073233D01*
Y697827D01*
X1073319D01*
Y697742D01*
X1072977D01*
Y697656D01*
X1072891D01*
Y697571D01*
X1072720D01*
Y697485D01*
X1072635D01*
Y697400D01*
X1072549D01*
Y697485D01*
X1072122D01*
Y697314D01*
X1072036D01*
Y697229D01*
X1072122D01*
Y697143D01*
X1072635D01*
Y697058D01*
X1072891D01*
Y696973D01*
X1072977D01*
Y696802D01*
X1073148D01*
Y696716D01*
X1073233D01*
Y696630D01*
X1073062D01*
Y696545D01*
X1072977D01*
Y696374D01*
X1072891D01*
Y696289D01*
X1072635D01*
Y696203D01*
X1072464D01*
Y695861D01*
X1072549D01*
Y695776D01*
X1072635D01*
Y695690D01*
X1072806D01*
Y695605D01*
X1072891D01*
Y695519D01*
X1072977D01*
Y695263D01*
X1073062D01*
Y695177D01*
X1073148D01*
Y695092D01*
X1073062D01*
Y694921D01*
X1072720D01*
Y694835D01*
X1072635D01*
Y694750D01*
X1072293D01*
Y694664D01*
X1072122D01*
Y694493D01*
X1072293D01*
Y694322D01*
X1072378D01*
Y694237D01*
X1072464D01*
Y694151D01*
X1072891D01*
Y693895D01*
X1072977D01*
Y693809D01*
X1072891D01*
Y693467D01*
X1072806D01*
Y693382D01*
X1072549D01*
Y693296D01*
X1072464D01*
Y692954D01*
X1072549D01*
Y692783D01*
X1072635D01*
Y692698D01*
X1072806D01*
Y692527D01*
X1072977D01*
Y692442D01*
X1073062D01*
Y692100D01*
X1072977D01*
Y692014D01*
X1072891D01*
Y691929D01*
X1072549D01*
Y691501D01*
X1072635D01*
Y691416D01*
X1072720D01*
Y690988D01*
X1072806D01*
Y690903D01*
X1072977D01*
Y690817D01*
X1073148D01*
Y690732D01*
X1073233D01*
Y690475D01*
X1072806D01*
Y690390D01*
X1072720D01*
Y690048D01*
X1072806D01*
Y689877D01*
X1072891D01*
Y689620D01*
X1072977D01*
Y689535D01*
X1073319D01*
Y689450D01*
X1073490D01*
Y689279D01*
X1073404D01*
Y689022D01*
X1073319D01*
Y688937D01*
X1073148D01*
Y688851D01*
X1073062D01*
Y688766D01*
X1072891D01*
Y688595D01*
X1072806D01*
Y688509D01*
X1072891D01*
Y688424D01*
X1073062D01*
Y688338D01*
X1073319D01*
Y688253D01*
X1073404D01*
Y688167D01*
X1073575D01*
Y688082D01*
X1073746D01*
Y687825D01*
X1073319D01*
Y687740D01*
X1072977D01*
Y687569D01*
X1073062D01*
Y687483D01*
X1073233D01*
Y687398D01*
X1073575D01*
Y687312D01*
X1073661D01*
Y687141D01*
X1073490D01*
Y687056D01*
X1073404D01*
Y686714D01*
X1073490D01*
Y686628D01*
X1073746D01*
Y686543D01*
X1074003D01*
Y686372D01*
X1074259D01*
Y686286D01*
X1074430D01*
Y686201D01*
X1074516D01*
Y686116D01*
X1074601D01*
Y685945D01*
X1074687D01*
Y685859D01*
X1074858D01*
Y685774D01*
X1075114D01*
Y685688D01*
X1075541D01*
Y685603D01*
X1075627D01*
Y685517D01*
X1075798D01*
Y685431D01*
X1076311D01*
Y685346D01*
X1076653D01*
Y685261D01*
X1076909D01*
Y685175D01*
X1077422D01*
Y685090D01*
X1077764D01*
Y685004D01*
X1077935D01*
Y684919D01*
X1078192D01*
Y684833D01*
X1078876D01*
Y684748D01*
X1079132D01*
Y684662D01*
X1079303D01*
Y684577D01*
X1080072D01*
Y684491D01*
X1080329D01*
Y684406D01*
X1080585D01*
Y684320D01*
X1080842D01*
Y684235D01*
X1081440D01*
Y684149D01*
X1081611D01*
Y683978D01*
X1081697D01*
Y683893D01*
X1082039D01*
Y683978D01*
X1082808D01*
Y683893D01*
X1082893D01*
Y683807D01*
X1082979D01*
Y683722D01*
X1083492D01*
Y683636D01*
X1083748D01*
Y683551D01*
X1084090D01*
Y683465D01*
X1084774D01*
Y683380D01*
X1085031D01*
Y683294D01*
X1085202D01*
Y683209D01*
X1086142D01*
Y683123D01*
X1087253D01*
Y683038D01*
X1087424D01*
Y682952D01*
X1087766D01*
Y682867D01*
X1088108D01*
Y682952D01*
X1088194D01*
Y682867D01*
X1088707D01*
Y682781D01*
X1088878D01*
Y682696D01*
X1089390D01*
Y682611D01*
X1089818D01*
Y682525D01*
X1089989D01*
Y682440D01*
X1090587D01*
Y682354D01*
X1090929D01*
Y682268D01*
X1091100D01*
Y682183D01*
X1092126D01*
Y682012D01*
X1092981D01*
Y681926D01*
X1093579D01*
Y681841D01*
X1093750D01*
Y681756D01*
X1094263D01*
Y681670D01*
X1094434D01*
Y681585D01*
X1094776D01*
Y681670D01*
X1095033D01*
Y681585D01*
X1095289D01*
Y681499D01*
X1095375D01*
Y681414D01*
X1095973D01*
Y681328D01*
X1096743D01*
Y681243D01*
X1097170D01*
Y681157D01*
X1097597D01*
Y681072D01*
X1098281D01*
Y680986D01*
X1098452D01*
Y680901D01*
X1099051D01*
Y680986D01*
X1099222D01*
Y680901D01*
X1099820D01*
Y680815D01*
X1099906D01*
Y680901D01*
X1100247D01*
Y680815D01*
X1100504D01*
Y680730D01*
X1100589D01*
Y680644D01*
X1100760D01*
Y680559D01*
X1100846D01*
Y680217D01*
X1100931D01*
Y680131D01*
X1101530D01*
Y680217D01*
X1101957D01*
Y680131D01*
X1102385D01*
Y680046D01*
X1102299D01*
Y679960D01*
X1102128D01*
Y679875D01*
X1102043D01*
Y679960D01*
X1101872D01*
Y680046D01*
X1101786D01*
Y679960D01*
X1101530D01*
Y680046D01*
X1101102D01*
Y679960D01*
X1101188D01*
Y679789D01*
X1101273D01*
Y679704D01*
X1101359D01*
Y679618D01*
X1101530D01*
Y679533D01*
X1101701D01*
Y679447D01*
X1101872D01*
Y679362D01*
X1102214D01*
Y679447D01*
X1102385D01*
Y679533D01*
X1102470D01*
Y679618D01*
X1102556D01*
Y679704D01*
X1102727D01*
Y679618D01*
X1102898D01*
Y679533D01*
X1103069D01*
Y679447D01*
X1103240D01*
Y679362D01*
X1103325D01*
Y679276D01*
X1103240D01*
Y679191D01*
X1103154D01*
Y679105D01*
X1102983D01*
Y679020D01*
X1102898D01*
Y678934D01*
X1102812D01*
Y678849D01*
X1102727D01*
Y678763D01*
X1102641D01*
Y678592D01*
X1101444D01*
Y678678D01*
X1101017D01*
Y678763D01*
X1100418D01*
Y678849D01*
X1100162D01*
Y678934D01*
X1099906D01*
Y679020D01*
X1099051D01*
Y679105D01*
X1097854D01*
Y679020D01*
X1097426D01*
Y678934D01*
X1096230D01*
Y679020D01*
X1095888D01*
Y679105D01*
X1095546D01*
Y679191D01*
X1095204D01*
Y679276D01*
X1094947D01*
Y679362D01*
X1094520D01*
Y679447D01*
X1094092D01*
Y679533D01*
X1093665D01*
Y679618D01*
X1093152D01*
Y679704D01*
X1092639D01*
Y679789D01*
X1092297D01*
Y679875D01*
X1092041D01*
Y679960D01*
X1091699D01*
Y680046D01*
X1089989D01*
Y680131D01*
X1089732D01*
Y680217D01*
X1089390D01*
Y680302D01*
X1088792D01*
Y680388D01*
X1088621D01*
Y680473D01*
X1087852D01*
Y680559D01*
X1087339D01*
Y680644D01*
X1087168D01*
Y680730D01*
X1086911D01*
Y680815D01*
X1086569D01*
Y680901D01*
X1086142D01*
Y680815D01*
X1085715D01*
Y680901D01*
X1085287D01*
Y680986D01*
X1084774D01*
Y681072D01*
X1084432D01*
Y681157D01*
X1083919D01*
Y681243D01*
X1083577D01*
Y681328D01*
X1083406D01*
Y681414D01*
X1083150D01*
Y681499D01*
X1082979D01*
Y681585D01*
X1082637D01*
Y681670D01*
X1082295D01*
Y681756D01*
X1082039D01*
Y681841D01*
X1081868D01*
Y681926D01*
X1081697D01*
Y682012D01*
X1081440D01*
Y682097D01*
X1079987D01*
Y682183D01*
X1079730D01*
Y682268D01*
X1079388D01*
Y682354D01*
X1079132D01*
Y682440D01*
X1078961D01*
Y682525D01*
X1078704D01*
Y682611D01*
X1078533D01*
Y682696D01*
X1078448D01*
Y682781D01*
X1078192D01*
Y682867D01*
X1078106D01*
Y682952D01*
X1077679D01*
Y683038D01*
X1077422D01*
Y683123D01*
X1077166D01*
Y683209D01*
X1076909D01*
Y683294D01*
X1076824D01*
Y683380D01*
X1076567D01*
Y683465D01*
X1076311D01*
Y683551D01*
X1076140D01*
Y683636D01*
X1075712D01*
Y683722D01*
X1075200D01*
Y683807D01*
X1074858D01*
Y683722D01*
X1074516D01*
Y683636D01*
X1074088D01*
Y683722D01*
X1073746D01*
Y683636D01*
X1073661D01*
Y683551D01*
X1073575D01*
Y683465D01*
X1073490D01*
Y683294D01*
X1073404D01*
Y683123D01*
X1073319D01*
Y683038D01*
X1073233D01*
Y682781D01*
X1073148D01*
Y682611D01*
X1073062D01*
Y682097D01*
X1072977D01*
Y682012D01*
X1072891D01*
Y682440D01*
X1072977D01*
Y682781D01*
X1072891D01*
Y683465D01*
X1072977D01*
Y683722D01*
X1073062D01*
Y683978D01*
X1073148D01*
Y684406D01*
X1073233D01*
Y685090D01*
X1073148D01*
Y685175D01*
X1073062D01*
Y685261D01*
X1072977D01*
Y685346D01*
X1072293D01*
Y685261D01*
X1072122D01*
Y685175D01*
X1071951D01*
Y685004D01*
X1071865D01*
Y685090D01*
X1071780D01*
Y685175D01*
X1071523D01*
Y685261D01*
X1071182D01*
Y685175D01*
X1071096D01*
Y685090D01*
X1071011D01*
Y685004D01*
X1070925D01*
Y684919D01*
X1070840D01*
Y684406D01*
X1070925D01*
Y684149D01*
X1071011D01*
Y683722D01*
X1071096D01*
Y683209D01*
X1071011D01*
Y683038D01*
X1070925D01*
Y682696D01*
X1071011D01*
Y682781D01*
X1071096D01*
Y682354D01*
X1071011D01*
Y682183D01*
X1070840D01*
Y682012D01*
X1070925D01*
Y681926D01*
X1071011D01*
Y681670D01*
X1070925D01*
Y681499D01*
X1070840D01*
Y681414D01*
X1070754D01*
Y681243D01*
X1070669D01*
Y680644D01*
X1070583D01*
Y680473D01*
X1070498D01*
Y680302D01*
X1070412D01*
Y680131D01*
X1070327D01*
Y679960D01*
X1070241D01*
Y679447D01*
X1070156D01*
Y680046D01*
X1070070D01*
Y680473D01*
X1069985D01*
Y680559D01*
X1070070D01*
Y680986D01*
X1070156D01*
Y681157D01*
X1070241D01*
Y681328D01*
X1070327D01*
Y681585D01*
X1070412D01*
Y682611D01*
X1070327D01*
Y682867D01*
X1070241D01*
Y683038D01*
X1070070D01*
Y683123D01*
X1069899D01*
Y683209D01*
X1069557D01*
Y683294D01*
X1069301D01*
Y683380D01*
X1067506D01*
Y683294D01*
X1067164D01*
Y683209D01*
X1066822D01*
Y683123D01*
X1066223D01*
Y683038D01*
X1065625D01*
Y682952D01*
X1065197D01*
Y682867D01*
X1064941D01*
Y682781D01*
X1064599D01*
Y682696D01*
X1063830D01*
Y682611D01*
X1063573D01*
Y682525D01*
X1062889D01*
Y682440D01*
X1062633D01*
Y682354D01*
X1062291D01*
Y682268D01*
X1061949D01*
Y682183D01*
X1061692D01*
Y682097D01*
X1061094D01*
Y682012D01*
X1060495D01*
Y681926D01*
X1060325D01*
Y681841D01*
X1059983D01*
Y681756D01*
X1059213D01*
Y681670D01*
X1058444D01*
Y681585D01*
X1057589D01*
Y681499D01*
X1057418D01*
Y681414D01*
X1056820D01*
Y681328D01*
X1056307D01*
Y681243D01*
X1055965D01*
Y681157D01*
X1055452D01*
Y681072D01*
X1055281D01*
Y680986D01*
X1054853D01*
Y680901D01*
X1054340D01*
Y680815D01*
X1054084D01*
Y680730D01*
X1052802D01*
Y680644D01*
X1052289D01*
Y680559D01*
X1052032D01*
Y680473D01*
X1051263D01*
Y680388D01*
X1050921D01*
Y680302D01*
X1049981D01*
Y680217D01*
X1049382D01*
Y680131D01*
X1048784D01*
Y680046D01*
X1047074D01*
Y680131D01*
X1046390D01*
Y680217D01*
X1045963D01*
Y680131D01*
X1045621D01*
Y680046D01*
X1044851D01*
Y680131D01*
X1044509D01*
Y680217D01*
X1043996D01*
Y680302D01*
X1042885D01*
Y680388D01*
X1042201D01*
Y680473D01*
X1040919D01*
Y680559D01*
X1042201D01*
Y680644D01*
X1042970D01*
Y680730D01*
X1043227D01*
Y680815D01*
X1043740D01*
Y680901D01*
X1043996D01*
Y680815D01*
X1044167D01*
Y680730D01*
X1044424D01*
Y680815D01*
X1044766D01*
Y680901D01*
X1045022D01*
Y680986D01*
X1045108D01*
Y681072D01*
X1045279D01*
Y681157D01*
X1045621D01*
Y681243D01*
X1046476D01*
Y681328D01*
X1046732D01*
Y681414D01*
X1046903D01*
Y681328D01*
X1047245D01*
Y681414D01*
X1047416D01*
Y681499D01*
X1047758D01*
Y681414D01*
X1047929D01*
Y681328D01*
X1048014D01*
Y681414D01*
X1048100D01*
Y681499D01*
X1048356D01*
Y681585D01*
X1048613D01*
Y681499D01*
X1049382D01*
Y681585D01*
X1050152D01*
Y681670D01*
X1050408D01*
Y681756D01*
X1050921D01*
Y681841D01*
X1051092D01*
Y681756D01*
X1051519D01*
Y681841D01*
X1051690D01*
Y681926D01*
X1052118D01*
Y681841D01*
X1052289D01*
Y681926D01*
X1052716D01*
Y682012D01*
X1052802D01*
Y682097D01*
X1053827D01*
Y682183D01*
X1054084D01*
Y682268D01*
X1054169D01*
Y682354D01*
X1054340D01*
Y682440D01*
X1054426D01*
Y682354D01*
X1054853D01*
Y682440D01*
X1055110D01*
Y682611D01*
X1055195D01*
Y682696D01*
X1055452D01*
Y682611D01*
X1055623D01*
Y682696D01*
X1055794D01*
Y682611D01*
X1056136D01*
Y682696D01*
X1056307D01*
Y682867D01*
X1056563D01*
Y682952D01*
X1056820D01*
Y683038D01*
X1057162D01*
Y682952D01*
X1057503D01*
Y683038D01*
X1057589D01*
Y682952D01*
X1058102D01*
Y683123D01*
X1058273D01*
Y683209D01*
X1058358D01*
Y683123D01*
X1059042D01*
Y683209D01*
X1059128D01*
Y683294D01*
X1059641D01*
Y683380D01*
X1059726D01*
Y683294D01*
X1059897D01*
Y683380D01*
X1060495D01*
Y683465D01*
X1060666D01*
Y683551D01*
X1061094D01*
Y683636D01*
X1061350D01*
Y683722D01*
X1061521D01*
Y683807D01*
X1062376D01*
Y683893D01*
X1062547D01*
Y683978D01*
X1062804D01*
Y684064D01*
X1063060D01*
Y684149D01*
X1063830D01*
Y684235D01*
X1064001D01*
Y684406D01*
X1064086D01*
Y684577D01*
X1064428D01*
Y684491D01*
X1064941D01*
Y684577D01*
X1065112D01*
Y684662D01*
X1065197D01*
Y684748D01*
X1065283D01*
Y684833D01*
X1065368D01*
Y684919D01*
X1065796D01*
Y685004D01*
X1065539D01*
Y685090D01*
X1065796D01*
Y685004D01*
X1065967D01*
Y685090D01*
X1066223D01*
Y685175D01*
X1066309D01*
Y685261D01*
X1066138D01*
Y685346D01*
X1066309D01*
Y685431D01*
X1066394D01*
Y685517D01*
X1066565D01*
Y685431D01*
X1066480D01*
Y685346D01*
X1066907D01*
Y685431D01*
X1067078D01*
Y685517D01*
X1067249D01*
Y685603D01*
X1067420D01*
Y685688D01*
X1067335D01*
Y685774D01*
X1067078D01*
Y685945D01*
X1067249D01*
Y686030D01*
X1067420D01*
Y686116D01*
X1067506D01*
Y686201D01*
X1067677D01*
Y686286D01*
X1067762D01*
Y686372D01*
X1067848D01*
Y686457D01*
X1067933D01*
Y686714D01*
X1068019D01*
Y687141D01*
X1068104D01*
Y688253D01*
X1068019D01*
Y688424D01*
X1067933D01*
Y688595D01*
X1067848D01*
Y688680D01*
X1067762D01*
Y688766D01*
X1067677D01*
Y688851D01*
X1067506D01*
Y688937D01*
X1067335D01*
Y689022D01*
X1066993D01*
Y689108D01*
X1066822D01*
Y689193D01*
X1066565D01*
Y689279D01*
X1066394D01*
Y689364D01*
X1066223D01*
Y689450D01*
X1066138D01*
Y689535D01*
X1066052D01*
Y689620D01*
X1065967D01*
Y689706D01*
X1065881D01*
Y689877D01*
X1065796D01*
Y689962D01*
X1065710D01*
Y690048D01*
X1065625D01*
Y690133D01*
X1065539D01*
Y690219D01*
X1065454D01*
Y690304D01*
X1065368D01*
Y690390D01*
X1065283D01*
Y690561D01*
X1065197D01*
Y690646D01*
X1065026D01*
Y690817D01*
X1064855D01*
Y690903D01*
X1064770D01*
Y690988D01*
X1064599D01*
Y691074D01*
X1064342D01*
Y691159D01*
X1064172D01*
Y691245D01*
X1063915D01*
Y691330D01*
X1063830D01*
Y691416D01*
X1063744D01*
Y691501D01*
X1063659D01*
Y691587D01*
X1063573D01*
Y691672D01*
X1063488D01*
Y691929D01*
X1063830D01*
Y691672D01*
X1063915D01*
Y691587D01*
X1064086D01*
Y691501D01*
X1064172D01*
Y691416D01*
X1064342D01*
Y691330D01*
X1064513D01*
Y691245D01*
X1064770D01*
Y691159D01*
X1065026D01*
Y691074D01*
X1065197D01*
Y691159D01*
X1065283D01*
Y690988D01*
X1065368D01*
Y690817D01*
X1065454D01*
Y690646D01*
X1065539D01*
Y690561D01*
X1065796D01*
Y690475D01*
X1065967D01*
Y690390D01*
X1065881D01*
Y690304D01*
X1065967D01*
Y690219D01*
X1066052D01*
Y690133D01*
X1066223D01*
Y689962D01*
X1066394D01*
Y689877D01*
X1066565D01*
Y689791D01*
X1066736D01*
Y689706D01*
X1066907D01*
Y689620D01*
X1066993D01*
Y689535D01*
X1067164D01*
Y689450D01*
X1067335D01*
Y689364D01*
X1067420D01*
Y689279D01*
X1067506D01*
Y689193D01*
X1067591D01*
Y689108D01*
X1067677D01*
Y689022D01*
X1067762D01*
Y688937D01*
X1067848D01*
Y688851D01*
X1068019D01*
Y688766D01*
X1068190D01*
Y688680D01*
X1068702D01*
Y688766D01*
X1068873D01*
Y688851D01*
X1069044D01*
Y688937D01*
X1069130D01*
Y689022D01*
X1069215D01*
Y689108D01*
X1069301D01*
Y689364D01*
X1069472D01*
Y689450D01*
X1069557D01*
Y689620D01*
X1069643D01*
Y689791D01*
X1069728D01*
Y690133D01*
X1069814D01*
Y690304D01*
X1069899D01*
Y690561D01*
X1069985D01*
Y690903D01*
X1070070D01*
Y691074D01*
X1070156D01*
Y691330D01*
X1070241D01*
Y692527D01*
X1070327D01*
Y693467D01*
X1070241D01*
Y693809D01*
X1070327D01*
Y696118D01*
X1070241D01*
Y696459D01*
X1070156D01*
Y697913D01*
X1070070D01*
Y698255D01*
X1069985D01*
Y698597D01*
X1069899D01*
Y698768D01*
X1069814D01*
Y698939D01*
X1069728D01*
Y699452D01*
X1069643D01*
Y699708D01*
X1069557D01*
Y699965D01*
X1069472D01*
Y700392D01*
X1069386D01*
Y700734D01*
X1069301D01*
Y701076D01*
X1069215D01*
Y701247D01*
X1069130D01*
Y701503D01*
X1069044D01*
Y701931D01*
X1068959D01*
Y702187D01*
X1068873D01*
Y702529D01*
X1068788D01*
Y702786D01*
X1068702D01*
Y703641D01*
X1068788D01*
Y703897D01*
X1068873D01*
Y704153D01*
X1068959D01*
Y704324D01*
X1069044D01*
Y704495D01*
X1069130D01*
Y704923D01*
X1069215D01*
Y705436D01*
X1069130D01*
Y706205D01*
X1069215D01*
Y706462D01*
X1069301D01*
Y706718D01*
X1069386D01*
Y707573D01*
X1069472D01*
Y708000D01*
X1069557D01*
Y708428D01*
X1069643D01*
Y708770D01*
X1069728D01*
Y709539D01*
X1069814D01*
Y709710D01*
X1069899D01*
Y709881D01*
X1069985D01*
Y710223D01*
X1070070D01*
Y710309D01*
X1070156D01*
Y710480D01*
X1070241D01*
Y710907D01*
X1070327D01*
Y712018D01*
X1070241D01*
Y712360D01*
X1070156D01*
Y712446D01*
X1069985D01*
Y712531D01*
X1069557D01*
Y712617D01*
X1069215D01*
Y712702D01*
X1069130D01*
Y712788D01*
X1069044D01*
Y712873D01*
X1068959D01*
Y712959D01*
X1068873D01*
Y713044D01*
X1068702D01*
Y713130D01*
X1068617D01*
Y713215D01*
X1068531D01*
Y713301D01*
X1068446D01*
Y713386D01*
X1068360D01*
Y713472D01*
X1068275D01*
Y713557D01*
X1067933D01*
Y713643D01*
X1067506D01*
Y713728D01*
X1067420D01*
Y714412D01*
X1067335D01*
Y714583D01*
X1067164D01*
Y714669D01*
X1066651D01*
Y714754D01*
X1066480D01*
Y714840D01*
X1066223D01*
Y714925D01*
X1065454D01*
Y715010D01*
X1065283D01*
Y715096D01*
X1065197D01*
Y715181D01*
X1065112D01*
Y715267D01*
X1064941D01*
Y715352D01*
X1064342D01*
Y715267D01*
X1064086D01*
Y715352D01*
X1063744D01*
Y715438D01*
X1062889D01*
Y715523D01*
X1062547D01*
Y715609D01*
X1062376D01*
Y715694D01*
X1061607D01*
Y715780D01*
X1061436D01*
Y715865D01*
X1061265D01*
Y715951D01*
X1061008D01*
Y716036D01*
X1060495D01*
Y716122D01*
X1060154D01*
Y716207D01*
X1059983D01*
Y716293D01*
X1059897D01*
Y716378D01*
X1059726D01*
Y716464D01*
X1059555D01*
Y716549D01*
X1059384D01*
Y716635D01*
X1059042D01*
Y716720D01*
X1058871D01*
Y716806D01*
X1058615D01*
Y716891D01*
X1058187D01*
Y716977D01*
X1058016D01*
Y717062D01*
X1057931D01*
Y717148D01*
X1057845D01*
Y717233D01*
X1057760D01*
Y717319D01*
X1057589D01*
Y717404D01*
X1057503D01*
Y717490D01*
X1057247D01*
Y717575D01*
X1057162D01*
Y717661D01*
X1057076D01*
Y717746D01*
X1056991D01*
Y717832D01*
X1056905D01*
Y717917D01*
X1056820D01*
Y718003D01*
X1056734D01*
Y718088D01*
X1056649D01*
Y718174D01*
X1056563D01*
Y718259D01*
X1056478D01*
Y718344D01*
X1056307D01*
Y718430D01*
X1055879D01*
Y718515D01*
X1055708D01*
Y718601D01*
X1055623D01*
Y718772D01*
X1055537D01*
Y718943D01*
X1055452D01*
Y719028D01*
X1055366D01*
Y719199D01*
X1055281D01*
Y719370D01*
X1055195D01*
Y719456D01*
X1055110D01*
Y719627D01*
X1055024D01*
Y719712D01*
X1054939D01*
Y720653D01*
X1054853D01*
Y720824D01*
X1054768D01*
Y720909D01*
X1054682D01*
Y720995D01*
X1054511D01*
Y721080D01*
X1054340D01*
Y721166D01*
X1054169D01*
Y721251D01*
X1054084D01*
Y721422D01*
X1053998D01*
Y721593D01*
X1053913D01*
Y721849D01*
X1053827D01*
Y722020D01*
X1053742D01*
Y722106D01*
X1053656D01*
Y722191D01*
X1053571D01*
Y722277D01*
X1053400D01*
Y722362D01*
X1053144D01*
Y722448D01*
X1052887D01*
Y722533D01*
X1052203D01*
Y722619D01*
X1051861D01*
Y722704D01*
X1051519D01*
Y722790D01*
X1051263D01*
Y722875D01*
X1048527D01*
Y722790D01*
X1048356D01*
Y722704D01*
X1047074D01*
Y722619D01*
X1046646D01*
Y722533D01*
X1046476D01*
Y722448D01*
X1045621D01*
Y722362D01*
X1045279D01*
Y722277D01*
X1044937D01*
Y722191D01*
X1043996D01*
Y722106D01*
X1043825D01*
Y722020D01*
X1043312D01*
Y721935D01*
X1042970D01*
Y721849D01*
X1042628D01*
Y721764D01*
X1041945D01*
Y721678D01*
X1041774D01*
Y721593D01*
X1041517D01*
Y721508D01*
X1041175D01*
Y721422D01*
X1041090D01*
Y721337D01*
X1040833D01*
Y721422D01*
X1040748D01*
Y722106D01*
X1040833D01*
Y722277D01*
X1040919D01*
Y722362D01*
X1041004D01*
Y722533D01*
X1041175D01*
Y722704D01*
X1041261D01*
Y722790D01*
X1041346D01*
Y722961D01*
X1041432D01*
Y723046D01*
X1041517D01*
Y723132D01*
X1041603D01*
Y723303D01*
X1041688D01*
Y723388D01*
X1041774D01*
Y723474D01*
X1041859D01*
Y723559D01*
X1041945D01*
Y723645D01*
X1042030D01*
Y723730D01*
X1042116D01*
Y723816D01*
X1042201D01*
Y723901D01*
X1042287D01*
Y723987D01*
X1042372D01*
Y724072D01*
X1042457D01*
Y724158D01*
X1042543D01*
Y724243D01*
X1042628D01*
Y724329D01*
X1042714D01*
Y724414D01*
X1042799D01*
Y724500D01*
X1042970D01*
Y724585D01*
X1043056D01*
Y724671D01*
X1043141D01*
Y724756D01*
X1043227D01*
Y725013D01*
X1043312D01*
Y725098D01*
X1043398D01*
Y725184D01*
X1043483D01*
Y725269D01*
X1043569D01*
Y725354D01*
X1043654D01*
Y725440D01*
X1043740D01*
Y725526D01*
X1043825D01*
Y725611D01*
X1043911D01*
Y725697D01*
X1044082D01*
Y725782D01*
X1044167D01*
Y725868D01*
X1044253D01*
Y725953D01*
X1044338D01*
Y726038D01*
X1044424D01*
Y726124D01*
X1044509D01*
Y726209D01*
X1044595D01*
Y726295D01*
X1044766D01*
Y726380D01*
X1044851D01*
Y726466D01*
X1044937D01*
Y726551D01*
X1045022D01*
Y726637D01*
X1045193D01*
Y726722D01*
X1045279D01*
Y726808D01*
X1045364D01*
Y726893D01*
X1045535D01*
Y726979D01*
X1045706D01*
Y727064D01*
X1045792D01*
Y727150D01*
X1045877D01*
Y727235D01*
X1045963D01*
Y727321D01*
X1046134D01*
Y727406D01*
X1046305D01*
Y727492D01*
X1046390D01*
Y727577D01*
X1046561D01*
Y727663D01*
X1046646D01*
Y727748D01*
X1046903D01*
Y727834D01*
X1047074D01*
Y727919D01*
X1047245D01*
Y728005D01*
X1047501D01*
Y728090D01*
X1047672D01*
Y728176D01*
X1047758D01*
Y728261D01*
X1047929D01*
Y728347D01*
X1048100D01*
Y728432D01*
X1048271D01*
Y728518D01*
X1048356D01*
Y728603D01*
X1048527D01*
Y728689D01*
X1048698D01*
Y728774D01*
X1048784D01*
Y728860D01*
X1048869D01*
Y728945D01*
X1049040D01*
Y729031D01*
X1049382D01*
Y729116D01*
X1049468D01*
Y729202D01*
X1049638D01*
Y729287D01*
X1049809D01*
Y729373D01*
X1049981D01*
Y729458D01*
X1050323D01*
Y729543D01*
X1050493D01*
Y729458D01*
X1050835D01*
Y729629D01*
X1050921D01*
Y729714D01*
X1051006D01*
Y729800D01*
X1051092D01*
Y729885D01*
X1051177D01*
Y729971D01*
X1051348D01*
Y730142D01*
X1051434D01*
Y730227D01*
X1051690D01*
Y730313D01*
X1051776D01*
Y730398D01*
X1051947D01*
Y730484D01*
X1052032D01*
Y730569D01*
X1052203D01*
Y730655D01*
X1052289D01*
Y730740D01*
X1052460D01*
Y730826D01*
X1052545D01*
Y730911D01*
X1052631D01*
Y731082D01*
X1052545D01*
Y731168D01*
X1052460D01*
Y731339D01*
X1052289D01*
Y731424D01*
X1052118D01*
Y731510D01*
X1051690D01*
Y731595D01*
X1051006D01*
Y731510D01*
X1050493D01*
Y731424D01*
X1050323D01*
Y731339D01*
X1049981D01*
Y731253D01*
X1049553D01*
Y731339D01*
X1049638D01*
Y731510D01*
X1049809D01*
Y731595D01*
X1049895D01*
Y731681D01*
X1049981D01*
Y731766D01*
X1050152D01*
Y731852D01*
X1050237D01*
Y731937D01*
X1050408D01*
Y732023D01*
X1050579D01*
Y732108D01*
X1050664D01*
Y732194D01*
X1050835D01*
Y732279D01*
X1051006D01*
Y732365D01*
X1051092D01*
Y732450D01*
X1051263D01*
Y732536D01*
X1051348D01*
Y732621D01*
X1051519D01*
Y732706D01*
X1051776D01*
Y732792D01*
X1051861D01*
Y732877D01*
X1052203D01*
Y732963D01*
X1052374D01*
Y733048D01*
X1052460D01*
Y733134D01*
X1052545D01*
Y733305D01*
X1052631D01*
Y733476D01*
X1052716D01*
Y733561D01*
X1052802D01*
Y733647D01*
X1052887D01*
Y733732D01*
X1052973D01*
Y733818D01*
X1053314D01*
Y733903D01*
X1053400D01*
Y733989D01*
X1053656D01*
Y734074D01*
X1053827D01*
Y734160D01*
X1053998D01*
Y734245D01*
X1054255D01*
Y734331D01*
X1054939D01*
Y734416D01*
X1055110D01*
Y734502D01*
X1055195D01*
Y734587D01*
X1055366D01*
Y734673D01*
X1055537D01*
Y734587D01*
X1055623D01*
Y734502D01*
X1055794D01*
Y734587D01*
X1055879D01*
Y734673D01*
X1055965D01*
Y734844D01*
X1056136D01*
Y734929D01*
X1056478D01*
Y735015D01*
X1056734D01*
Y735100D01*
X1056905D01*
Y735186D01*
X1056991D01*
Y735271D01*
X1057162D01*
Y735357D01*
X1057247D01*
Y735442D01*
X1057333D01*
Y735699D01*
X1057418D01*
Y735784D01*
X1057589D01*
Y735870D01*
X1057674D01*
Y735955D01*
X1057845D01*
Y736126D01*
X1057931D01*
Y736297D01*
X1057845D01*
Y736382D01*
X1057760D01*
Y736468D01*
X1057589D01*
Y736725D01*
X1057845D01*
Y736810D01*
X1058871D01*
Y736895D01*
X1059213D01*
Y736810D01*
X1059299D01*
Y736725D01*
X1059555D01*
Y736895D01*
X1059641D01*
Y737152D01*
X1059897D01*
Y737323D01*
X1060410D01*
Y737408D01*
X1060581D01*
Y737665D01*
X1060666D01*
Y737750D01*
X1060837D01*
Y737665D01*
X1061179D01*
Y737579D01*
X1061350D01*
Y737665D01*
X1061436D01*
Y737579D01*
X1061949D01*
Y737665D01*
X1062034D01*
Y737836D01*
X1062120D01*
Y737750D01*
X1062205D01*
Y737836D01*
X1062376D01*
Y738092D01*
X1062547D01*
Y738349D01*
X1062633D01*
Y738434D01*
X1062718D01*
Y738520D01*
X1063402D01*
Y738776D01*
X1063659D01*
Y738862D01*
X1063915D01*
Y738947D01*
X1064257D01*
Y739033D01*
X1064342D01*
Y738947D01*
X1064599D01*
Y739033D01*
X1064770D01*
Y739375D01*
X1064855D01*
Y739460D01*
X1064941D01*
Y739631D01*
X1065539D01*
Y739717D01*
X1065881D01*
Y739802D01*
X1066138D01*
Y739888D01*
X1066993D01*
Y740059D01*
X1067420D01*
Y740144D01*
X1067762D01*
Y740230D01*
X1068275D01*
Y740144D01*
X1068531D01*
Y740230D01*
X1069301D01*
Y740144D01*
X1069386D01*
Y740230D01*
X1069472D01*
Y740144D01*
X1069557D01*
Y740059D01*
X1069643D01*
Y739973D01*
X1069728D01*
Y740059D01*
X1069899D01*
Y739888D01*
X1069985D01*
Y740230D01*
X1069899D01*
Y740315D01*
X1070327D01*
Y740401D01*
X1070840D01*
Y740486D01*
X1070925D01*
Y740571D01*
X1071523D01*
Y740401D01*
X1071609D01*
Y740144D01*
X1071780D01*
Y740059D01*
X1072036D01*
Y739888D01*
X1072122D01*
Y739802D01*
X1072207D01*
Y739717D01*
X1072293D01*
Y739631D01*
X1072635D01*
Y739717D01*
X1072720D01*
Y739802D01*
X1072806D01*
Y739888D01*
X1072891D01*
Y739973D01*
X1072977D01*
Y740144D01*
X1073062D01*
Y740230D01*
X1073148D01*
Y740315D01*
X1073233D01*
Y740401D01*
X1073319D01*
Y740486D01*
X1073490D01*
Y740571D01*
X1073575D01*
Y740657D01*
X1073832D01*
Y740742D01*
X1074259D01*
Y740828D01*
X1074943D01*
Y740742D01*
X1075029D01*
Y740913D01*
X1075371D01*
Y740828D01*
X1075541D01*
Y740913D01*
X1076909D01*
Y740828D01*
X1077251D01*
Y740913D01*
X1078876D01*
Y740828D01*
D02*
G37*
G36*
X1086740Y737152D02*
X1086655D01*
Y737237D01*
X1086740D01*
Y737152D01*
D02*
G37*
G36*
X1092639Y728518D02*
X1092554D01*
Y728603D01*
X1092639D01*
Y728518D01*
D02*
G37*
G36*
X1092126Y724329D02*
X1092041D01*
Y724414D01*
X1092126D01*
Y724329D01*
D02*
G37*
G36*
X1074003Y686628D02*
X1073917D01*
Y686714D01*
X1074003D01*
Y686628D01*
D02*
G37*
G36*
X1063573Y684662D02*
X1063402D01*
Y684748D01*
X1063573D01*
Y684662D01*
D02*
G37*
G36*
X1060325Y683893D02*
X1060154D01*
Y683807D01*
X1059299D01*
Y683893D01*
X1059726D01*
Y683978D01*
X1060325D01*
Y683893D01*
D02*
G37*
G36*
X1058273Y683636D02*
X1057760D01*
Y683722D01*
X1058273D01*
Y683636D01*
D02*
G37*
G36*
X1057674Y683551D02*
X1057589D01*
Y683636D01*
X1057674D01*
Y683551D01*
D02*
G37*
G36*
X1057589Y683465D02*
X1057333D01*
Y683551D01*
X1057589D01*
Y683465D01*
D02*
G37*
G36*
X1072806Y680644D02*
Y680559D01*
Y679618D01*
X1072720D01*
Y681157D01*
X1072806D01*
Y680644D01*
D02*
G37*
G36*
X1072293Y677396D02*
X1072207D01*
Y677481D01*
X1072293D01*
Y677396D01*
D02*
G37*
G36*
X1072122Y676712D02*
Y676626D01*
X1072036D01*
Y676797D01*
X1072122D01*
Y676712D01*
D02*
G37*
G36*
X1071951Y675771D02*
Y675686D01*
Y675600D01*
X1071780D01*
Y675686D01*
X1071865D01*
Y675857D01*
X1071951D01*
Y675771D01*
D02*
G37*
G36*
X1069643Y672608D02*
X1069728D01*
Y672523D01*
X1069643D01*
Y672437D01*
X1069386D01*
Y672523D01*
X1069301D01*
Y672608D01*
X1069386D01*
Y672694D01*
X1069643D01*
Y672608D01*
D02*
G37*
G36*
X1068446Y671241D02*
X1068360D01*
Y671412D01*
X1068446D01*
Y671241D01*
D02*
G37*
G36*
X1068360Y671069D02*
X1068275D01*
Y671155D01*
X1068360D01*
Y671069D01*
D02*
G37*
G36*
X1068275Y670984D02*
Y670899D01*
X1068190D01*
Y671069D01*
X1068275D01*
Y670984D01*
D02*
G37*
G36*
X1068019Y670300D02*
X1067933D01*
Y670386D01*
X1067848D01*
Y670471D01*
X1067933D01*
Y670557D01*
X1068019D01*
Y670300D01*
D02*
G37*
G36*
X1071694Y674831D02*
X1071609D01*
Y674575D01*
X1071523D01*
Y674489D01*
X1071438D01*
Y673976D01*
X1071352D01*
Y673720D01*
X1071267D01*
Y673463D01*
X1071182D01*
Y673036D01*
X1071096D01*
Y672865D01*
X1071011D01*
Y672779D01*
X1070925D01*
Y672608D01*
X1070840D01*
Y672437D01*
X1070754D01*
Y672095D01*
X1070840D01*
Y671839D01*
X1070925D01*
Y671753D01*
X1070840D01*
Y671583D01*
X1071011D01*
Y671326D01*
X1071096D01*
Y671241D01*
X1071011D01*
Y670899D01*
X1070925D01*
Y670813D01*
X1070840D01*
Y670642D01*
X1070754D01*
Y670471D01*
X1070669D01*
Y670386D01*
X1070241D01*
Y670300D01*
X1069899D01*
Y670215D01*
X1068360D01*
Y670300D01*
X1068446D01*
Y670471D01*
X1068531D01*
Y670557D01*
X1068617D01*
Y670642D01*
X1068702D01*
Y670728D01*
X1068788D01*
Y670813D01*
X1069044D01*
Y670899D01*
X1069215D01*
Y670984D01*
X1069301D01*
Y671069D01*
X1069472D01*
Y671155D01*
X1069557D01*
Y671241D01*
X1069643D01*
Y671326D01*
X1069728D01*
Y671497D01*
X1069814D01*
Y671583D01*
X1069899D01*
Y671668D01*
X1070070D01*
Y671753D01*
X1070156D01*
Y671924D01*
Y672010D01*
X1070070D01*
Y672095D01*
X1069985D01*
Y672608D01*
X1070070D01*
Y672694D01*
X1070156D01*
Y672779D01*
X1070241D01*
Y672865D01*
X1070327D01*
Y673036D01*
X1070498D01*
Y673121D01*
X1070840D01*
Y673207D01*
X1070925D01*
Y673292D01*
X1071096D01*
Y673463D01*
X1071011D01*
Y673634D01*
X1070925D01*
Y674062D01*
X1071011D01*
Y674233D01*
X1071096D01*
Y674318D01*
X1071182D01*
Y674660D01*
X1071267D01*
Y674746D01*
X1071352D01*
Y674917D01*
X1071694D01*
Y674831D01*
D02*
G37*
%LPC*%
G36*
X1071267Y739973D02*
X1070840D01*
Y739802D01*
X1071267D01*
Y739973D01*
D02*
G37*
G36*
X1062205Y737665D02*
X1062120D01*
Y737579D01*
X1062205D01*
Y737665D01*
D02*
G37*
G36*
X1055110Y729031D02*
X1054511D01*
Y728945D01*
X1054255D01*
Y728860D01*
X1053998D01*
Y728774D01*
X1053827D01*
Y728689D01*
X1053742D01*
Y728603D01*
X1053571D01*
Y728518D01*
X1053400D01*
Y728432D01*
X1053314D01*
Y728261D01*
X1053742D01*
Y728176D01*
X1054084D01*
Y728090D01*
X1054597D01*
Y728005D01*
X1055024D01*
Y727919D01*
X1055623D01*
Y728005D01*
X1055708D01*
Y728090D01*
X1055879D01*
Y728176D01*
X1055965D01*
Y728261D01*
X1056050D01*
Y728347D01*
X1056136D01*
Y728432D01*
X1056221D01*
Y728518D01*
X1056307D01*
Y728603D01*
X1056136D01*
Y728689D01*
X1056050D01*
Y728774D01*
X1055879D01*
Y728860D01*
X1055708D01*
Y728945D01*
X1055110D01*
Y729031D01*
D02*
G37*
G36*
X1044082Y724842D02*
X1043911D01*
Y724756D01*
X1043654D01*
Y724671D01*
X1043483D01*
Y724585D01*
X1043312D01*
Y724243D01*
X1043227D01*
Y724072D01*
X1043569D01*
Y724158D01*
X1043825D01*
Y724243D01*
X1043911D01*
Y724329D01*
X1043996D01*
Y724414D01*
X1044082D01*
Y724585D01*
X1044167D01*
Y724756D01*
X1044082D01*
Y724842D01*
D02*
G37*
G36*
X1089561Y722191D02*
X1089476D01*
Y722106D01*
X1089390D01*
Y721935D01*
X1089561D01*
Y722020D01*
X1089647D01*
Y722106D01*
X1089561D01*
Y722191D01*
D02*
G37*
G36*
X1073404Y704324D02*
X1073233D01*
Y704239D01*
X1073404D01*
Y704324D01*
D02*
G37*
G36*
X1068788Y686799D02*
X1068617D01*
Y686714D01*
X1068788D01*
Y686799D01*
D02*
G37*
%LPD*%
D10*
X839635Y520800D02*
G03*
X839635Y520800I-492J0D01*
G01*
X1100839Y630391D02*
G03*
X1100839Y630391I-492J0D01*
G01*
X802981Y519571D02*
G03*
X802981Y519571I-492J0D01*
G01*
X1099132Y589105D02*
G03*
X1099132Y589105I-492J0D01*
G01*
D11*
X859832Y503772D02*
Y516371D01*
X840147Y503772D02*
Y516371D01*
Y503772D02*
X859832D01*
X840147Y516371D02*
X859832D01*
X1101233Y626763D02*
X1113044D01*
X1101233Y623455D02*
X1113044D01*
X1101233D02*
Y626763D01*
X1113044Y623455D02*
Y626763D01*
X1111337Y582207D02*
Y585763D01*
X1099526Y582207D02*
Y585763D01*
Y582207D02*
X1111337D01*
X1099526Y585763D02*
X1111337D01*
D12*
X811027Y536674D02*
X811814D01*
X811027Y532343D02*
X811814D01*
X811766Y477784D02*
X812553D01*
X811766Y482115D02*
X812553D01*
X1120981Y628718D02*
X1121769D01*
X1120981Y633048D02*
X1121769D01*
X1119838Y586939D02*
X1120625D01*
X1119838Y591270D02*
X1120625D01*
X1130392Y617858D02*
Y655858D01*
Y617858D02*
X1169392D01*
Y655858D01*
X1130392D02*
X1169392D01*
X1130392Y576858D02*
Y614857D01*
Y576858D02*
X1169392D01*
Y614857D01*
X1130392D02*
X1169392D01*
X811533Y488376D02*
X812320D01*
X811533Y484045D02*
X812320D01*
D15*
X1161400Y438763D02*
G03*
X1171400Y448763I0J10000D01*
G01*
X1171400Y803763D02*
G03*
X1161400Y813763I-10000J0D01*
G01*
X756400Y813763D02*
G03*
X746400Y803763I0J-10000D01*
G01*
Y448763D02*
G03*
X756400Y438763I10000J0D01*
G01*
X1171400Y448763D02*
X1171400Y803763D01*
X756400Y438763D02*
X1161400D01*
X756400Y813763D02*
X1161400Y813763D01*
X746400Y803763D02*
X746400Y448763D01*
D16*
X845265Y512434D02*
G03*
X845265Y512434I-1181J0D01*
G01*
D20*
X845881Y549763D02*
Y551763D01*
X844881D01*
X844548Y551430D01*
Y550763D01*
X844881Y550430D01*
X845881D01*
X845214D02*
X844548Y549763D01*
X842881D02*
Y551763D01*
X843881Y550763D01*
X842548D01*
X840549Y551763D02*
X841882D01*
Y550763D01*
X841215Y551096D01*
X840882D01*
X840549Y550763D01*
Y550097D01*
X840882Y549763D01*
X841549D01*
X841882Y550097D01*
X837066Y553763D02*
Y555763D01*
X836066D01*
X835733Y555430D01*
Y554763D01*
X836066Y554430D01*
X837066D01*
X836399D02*
X835733Y553763D01*
X834067D02*
Y555763D01*
X835067Y554763D01*
X833733D01*
X832067Y553763D02*
Y555763D01*
X833067Y554763D01*
X831734D01*
D21*
X836400Y516262D02*
X838066D01*
X838400Y515929D01*
Y515263D01*
X838066Y514929D01*
X836400D01*
X838400Y514263D02*
Y513596D01*
Y513930D01*
X836400D01*
X836734Y514263D01*
Y512597D02*
X836400Y512263D01*
Y511597D01*
X836734Y511264D01*
X837067D01*
X837400Y511597D01*
Y511930D01*
Y511597D01*
X837733Y511264D01*
X838066D01*
X838400Y511597D01*
Y512263D01*
X838066Y512597D01*
X1096375Y634333D02*
X1098042D01*
X1098375Y633999D01*
Y633333D01*
X1098042Y633000D01*
X1096375D01*
X1098375Y632333D02*
Y631667D01*
Y632000D01*
X1096375D01*
X1096709Y632333D01*
X1098375Y629334D02*
Y630667D01*
X1097042Y629334D01*
X1096709D01*
X1096375Y629668D01*
Y630334D01*
X1096709Y630667D01*
X1095041Y594184D02*
X1096707D01*
X1097041Y593851D01*
Y593185D01*
X1096707Y592851D01*
X1095041D01*
X1097041Y592185D02*
Y591518D01*
Y591852D01*
X1095041D01*
X1095374Y592185D01*
X1097041Y590519D02*
Y589852D01*
Y590185D01*
X1095041D01*
X1095374Y590519D01*
X1124041Y634962D02*
Y636962D01*
X1123041D01*
X1122708Y636628D01*
Y635962D01*
X1123041Y635629D01*
X1124041D01*
X1123374D02*
X1122708Y634962D01*
X1122042Y636628D02*
X1121708Y636962D01*
X1121042D01*
X1120709Y636628D01*
Y636295D01*
X1121042Y635962D01*
X1121375D01*
X1121042D01*
X1120709Y635629D01*
Y635295D01*
X1121042Y634962D01*
X1121708D01*
X1122042Y635295D01*
X1120042Y636628D02*
X1119709Y636962D01*
X1119042D01*
X1118709Y636628D01*
Y636295D01*
X1119042Y635962D01*
X1118709Y635629D01*
Y635295D01*
X1119042Y634962D01*
X1119709D01*
X1120042Y635295D01*
Y635629D01*
X1119709Y635962D01*
X1120042Y636295D01*
Y636628D01*
X1119709Y635962D02*
X1119042D01*
X1122898Y593546D02*
Y595545D01*
X1121898D01*
X1121565Y595212D01*
Y594546D01*
X1121898Y594212D01*
X1122898D01*
X1122231D02*
X1121565Y593546D01*
X1120898Y595212D02*
X1120565Y595545D01*
X1119898D01*
X1119565Y595212D01*
Y594879D01*
X1119898Y594546D01*
X1120232D01*
X1119898D01*
X1119565Y594212D01*
Y593879D01*
X1119898Y593546D01*
X1120565D01*
X1120898Y593879D01*
X1118899Y595545D02*
X1117566D01*
Y595212D01*
X1118899Y593879D01*
Y593546D01*
X1122083Y614834D02*
Y616833D01*
X1121084D01*
X1120750Y616500D01*
Y615834D01*
X1121084Y615500D01*
X1122083D01*
X1121417D02*
X1120750Y614834D01*
X1120084D02*
X1119417D01*
X1119751D01*
Y616833D01*
X1120084Y616500D01*
X1117085Y616833D02*
X1118418D01*
Y615834D01*
X1117751Y616167D01*
X1117418D01*
X1117085Y615834D01*
Y615167D01*
X1117418Y614834D01*
X1118084D01*
X1118418Y615167D01*
X1119991Y573548D02*
Y575547D01*
X1118992D01*
X1118659Y575214D01*
Y574548D01*
X1118992Y574214D01*
X1119991D01*
X1119325D02*
X1118659Y573548D01*
X1117992D02*
X1117326D01*
X1117659D01*
Y575547D01*
X1117992Y575214D01*
X1115326Y573548D02*
Y575547D01*
X1116326Y574548D01*
X1114993D01*
X1127570Y654096D02*
Y654763D01*
Y654429D01*
X1129236D01*
X1129569Y654763D01*
Y655096D01*
X1129236Y655429D01*
X1127570Y652097D02*
X1127903Y652763D01*
X1128569Y653430D01*
X1129236D01*
X1129569Y653096D01*
Y652430D01*
X1129236Y652097D01*
X1128903D01*
X1128569Y652430D01*
Y653430D01*
X1127570Y613096D02*
Y613763D01*
Y613429D01*
X1129236D01*
X1129569Y613763D01*
Y614096D01*
X1129236Y614429D01*
X1127570Y611097D02*
Y612430D01*
X1128569D01*
X1128236Y611763D01*
Y611430D01*
X1128569Y611097D01*
X1129236D01*
X1129569Y611430D01*
Y612097D01*
X1129236Y612430D01*
X803983Y487096D02*
X804316Y487430D01*
X804982D01*
X805316Y487096D01*
Y485763D01*
X804982Y485430D01*
X804316D01*
X803983Y485763D01*
X801984Y487430D02*
X803316D01*
Y486430D01*
X802650Y486763D01*
X802317D01*
X801984Y486430D01*
Y485763D01*
X802317Y485430D01*
X802983D01*
X803316Y485763D01*
X801317Y487096D02*
X800984Y487430D01*
X800317D01*
X799984Y487096D01*
Y485763D01*
X800317Y485430D01*
X800984D01*
X801317Y485763D01*
Y487096D01*
X832734Y502096D02*
X832400Y502429D01*
Y503096D01*
X832734Y503429D01*
X834066D01*
X834400Y503096D01*
Y502429D01*
X834066Y502096D01*
X834400Y500430D02*
X832400D01*
X833400Y501429D01*
Y500097D01*
X834066Y499430D02*
X834400Y499097D01*
Y498430D01*
X834066Y498097D01*
X832734D01*
X832400Y498430D01*
Y499097D01*
X832734Y499430D01*
X833067D01*
X833400Y499097D01*
Y498097D01*
X807346Y492206D02*
X807679Y492540D01*
X808346D01*
X808679Y492206D01*
Y490874D01*
X808346Y490540D01*
X807679D01*
X807346Y490874D01*
X805680Y490540D02*
Y492540D01*
X806680Y491540D01*
X805347D01*
X804680Y492206D02*
X804347Y492540D01*
X803681D01*
X803347Y492206D01*
Y491873D01*
X803681Y491540D01*
X803347Y491207D01*
Y490874D01*
X803681Y490540D01*
X804347D01*
X804680Y490874D01*
Y491207D01*
X804347Y491540D01*
X804680Y491873D01*
Y492206D01*
X804347Y491540D02*
X803681D01*
X804045Y529552D02*
X804378Y529885D01*
X805045D01*
X805378Y529552D01*
Y528219D01*
X805045Y527886D01*
X804378D01*
X804045Y528219D01*
X802379Y527886D02*
Y529885D01*
X803379Y528885D01*
X802046D01*
X801379Y529885D02*
X800047D01*
Y529552D01*
X801379Y528219D01*
Y527886D01*
X841882Y532359D02*
X842215Y532692D01*
X842881D01*
X843215Y532359D01*
Y531026D01*
X842881Y530692D01*
X842215D01*
X841882Y531026D01*
X840216Y530692D02*
Y532692D01*
X841215Y531692D01*
X839882D01*
X837883Y532692D02*
X838550Y532359D01*
X839216Y531692D01*
Y531026D01*
X838883Y530692D01*
X838216D01*
X837883Y531026D01*
Y531359D01*
X838216Y531692D01*
X839216D01*
X802903Y535175D02*
X803236Y535508D01*
X803903D01*
X804236Y535175D01*
Y533842D01*
X803903Y533509D01*
X803236D01*
X802903Y533842D01*
X801237Y533509D02*
Y535508D01*
X802236Y534508D01*
X800904D01*
X798904Y535508D02*
X800237D01*
Y534508D01*
X799571Y534841D01*
X799237D01*
X798904Y534508D01*
Y533842D01*
X799237Y533509D01*
X799904D01*
X800237Y533842D01*
X800400Y516096D02*
X802066D01*
X802400Y515763D01*
Y515096D01*
X802066Y514763D01*
X800400D01*
X802400Y514097D02*
Y513430D01*
Y513763D01*
X800400D01*
X800733Y514097D01*
D131*
X807248Y496282D02*
X807581Y496615D01*
X808248D01*
X808581Y496282D01*
Y494949D01*
X808248Y494616D01*
X807581D01*
X807248Y494949D01*
X805249Y496615D02*
X806582D01*
Y495615D01*
X805915Y495949D01*
X805582D01*
X805249Y495615D01*
Y494949D01*
X805582Y494616D01*
X806248D01*
X806582Y494949D01*
X804582Y496282D02*
X804249Y496615D01*
X803583D01*
X803249Y496282D01*
Y495949D01*
X803583Y495615D01*
X803916D01*
X803583D01*
X803249Y495282D01*
Y494949D01*
X803583Y494616D01*
X804249D01*
X804582Y494949D01*
X803987Y525177D02*
X804320Y525511D01*
X804987D01*
X805320Y525177D01*
Y523845D01*
X804987Y523511D01*
X804320D01*
X803987Y523845D01*
X801988Y525511D02*
X803321D01*
Y524511D01*
X802654Y524844D01*
X802321D01*
X801988Y524511D01*
Y523845D01*
X802321Y523511D01*
X802987D01*
X803321Y523845D01*
X799988Y523511D02*
X801321D01*
X799988Y524844D01*
Y525177D01*
X800321Y525511D01*
X800988D01*
X801321Y525177D01*
D132*
X803883Y480594D02*
X804216Y480927D01*
X804882D01*
X805215Y480594D01*
Y479261D01*
X804882Y478928D01*
X804216D01*
X803883Y479261D01*
X801883Y480927D02*
X803216D01*
Y479927D01*
X802550Y480261D01*
X802216D01*
X801883Y479927D01*
Y479261D01*
X802216Y478928D01*
X802883D01*
X803216Y479261D01*
X801217Y478928D02*
X800550D01*
X800883D01*
Y480927D01*
X801217Y480594D01*
M02*
