G04*
G04 #@! TF.GenerationSoftware,Altium Limited,DefaultClient, ()*
G04*
G04 Layer_Color=16711935*
G04 Board_Origin=74640000|43876300*
%FSLAX25Y25*%
%MOIN*%
G70*
G04*
G04 #@! TF.SameCoordinates,7376E26B-85FC-40E6-8FC3-DD4050A09F07*
G04*
G04*
G04 #@! TF.FilePolarity,Negative*
G04*
G01*
G75*
%ADD15C,0.01000*%
%ADD57R,0.03228X0.03032*%
%ADD62R,0.03032X0.03228*%
%ADD65R,0.04528X0.04724*%
%ADD76C,0.06787*%
%ADD77C,0.18787*%
%ADD78C,0.00069*%
%ADD79C,0.07480*%
%ADD80C,0.06000*%
%ADD81R,0.06787X0.06787*%
%ADD82C,0.12598*%
%ADD83C,0.16535*%
%ADD84R,0.06000X0.06000*%
%ADD85C,0.25197*%
%ADD125O,0.03150X0.06496*%
G04:AMPARAMS|DCode=126|XSize=19.68mil|YSize=31.5mil|CornerRadius=5.12mil|HoleSize=0mil|Usage=FLASHONLY|Rotation=180.000|XOffset=0mil|YOffset=0mil|HoleType=Round|Shape=RoundedRectangle|*
%AMROUNDEDRECTD126*
21,1,0.01968,0.02126,0,0,180.0*
21,1,0.00945,0.03150,0,0,180.0*
1,1,0.01024,-0.00472,0.01063*
1,1,0.01024,0.00472,0.01063*
1,1,0.01024,0.00472,-0.01063*
1,1,0.01024,-0.00472,-0.01063*
%
%ADD126ROUNDEDRECTD126*%
%ADD127R,0.02362X0.05591*%
G36*
X813320Y502195D02*
X813371Y502185D01*
X813420Y502168D01*
X813466Y502145D01*
X813509Y502117D01*
X813548Y502083D01*
X813582Y502044D01*
X813610Y502001D01*
X813633Y501955D01*
X813650Y501906D01*
X813660Y501855D01*
X813663Y501804D01*
Y500623D01*
X813660Y500571D01*
X813650Y500521D01*
X813633Y500472D01*
X813610Y500425D01*
X813582Y500382D01*
X813548Y500344D01*
X813509Y500310D01*
X813466Y500281D01*
X813420Y500258D01*
X813371Y500242D01*
X813320Y500232D01*
X813269Y500228D01*
X811695D01*
Y499560D01*
Y499536D01*
Y499536D01*
Y499536D01*
X811691Y499485D01*
X811687Y499461D01*
X811681Y499434D01*
X811665Y499385D01*
X811665Y499385D01*
X811665Y499385D01*
X811647Y499342D01*
X811647Y499342D01*
X811624Y499296D01*
X811595Y499253D01*
X811595Y499253D01*
X811595Y499253D01*
X811561Y499214D01*
X811561Y499214D01*
X811528Y499181D01*
X811528Y499181D01*
X811489Y499147D01*
X811489Y499147D01*
X811489Y499147D01*
X811446Y499118D01*
X811400Y499095D01*
X811400Y499095D01*
X811357Y499077D01*
X811357Y499077D01*
X811357Y499077D01*
X811308Y499060D01*
X811281Y499055D01*
X811257Y499050D01*
X811206Y499047D01*
X811206D01*
X811206D01*
X810214D01*
X810214D01*
X810214D01*
X810162Y499050D01*
X810139Y499055D01*
X810112Y499060D01*
X810063Y499077D01*
X810063Y499077D01*
X810063Y499077D01*
X810019Y499095D01*
X810019Y499095D01*
X809973Y499118D01*
X809930Y499147D01*
X809930Y499147D01*
X809930Y499147D01*
X809891Y499181D01*
X809891Y499181D01*
X809858Y499214D01*
X809858Y499214D01*
X809824Y499253D01*
X809824Y499253D01*
X809824Y499253D01*
X809795Y499296D01*
X809773Y499342D01*
X809773Y499342D01*
X809755Y499385D01*
X809755Y499385D01*
X809755Y499385D01*
X809738Y499434D01*
X809733Y499461D01*
X809728Y499485D01*
X809725Y499536D01*
Y499536D01*
Y499536D01*
Y499560D01*
Y500228D01*
X808151D01*
X808099Y500232D01*
X808049Y500242D01*
X808000Y500258D01*
X807953Y500281D01*
X807910Y500310D01*
X807872Y500344D01*
X807838Y500382D01*
X807809Y500425D01*
X807786Y500472D01*
X807769Y500521D01*
X807759Y500571D01*
X807756Y500623D01*
Y501804D01*
X807759Y501855D01*
X807769Y501906D01*
X807786Y501955D01*
X807809Y502001D01*
X807838Y502044D01*
X807872Y502083D01*
X807910Y502117D01*
X807953Y502145D01*
X808000Y502168D01*
X808049Y502185D01*
X808099Y502195D01*
X808151Y502198D01*
X813269D01*
X813320Y502195D01*
D02*
G37*
G36*
X813816Y521093D02*
X813840Y521088D01*
X813867Y521082D01*
X813916Y521066D01*
X813916Y521066D01*
X813916Y521066D01*
X813959Y521048D01*
X813959Y521048D01*
X814005Y521025D01*
X814048Y520996D01*
X814048Y520996D01*
X814048Y520996D01*
X814087Y520962D01*
X814087Y520962D01*
X814120Y520929D01*
X814120Y520929D01*
X814154Y520890D01*
X814154Y520890D01*
X814154Y520890D01*
X814183Y520847D01*
X814206Y520801D01*
X814206Y520801D01*
X814224Y520758D01*
X814224Y520758D01*
X814224Y520758D01*
X814240Y520709D01*
X814246Y520682D01*
X814250Y520658D01*
X814254Y520607D01*
Y520607D01*
Y520607D01*
Y520583D01*
Y519915D01*
X815828D01*
X815879Y519911D01*
X815930Y519901D01*
X815979Y519885D01*
X816025Y519862D01*
X816068Y519833D01*
X816107Y519799D01*
X816141Y519761D01*
X816169Y519718D01*
X816192Y519671D01*
X816209Y519622D01*
X816219Y519572D01*
X816222Y519520D01*
Y518339D01*
X816219Y518288D01*
X816209Y518237D01*
X816192Y518188D01*
X816169Y518142D01*
X816141Y518099D01*
X816107Y518060D01*
X816068Y518026D01*
X816025Y517998D01*
X815979Y517975D01*
X815930Y517958D01*
X815879Y517948D01*
X815828Y517945D01*
X810710D01*
X810658Y517948D01*
X810608Y517958D01*
X810559Y517975D01*
X810512Y517998D01*
X810470Y518026D01*
X810431Y518060D01*
X810397Y518099D01*
X810368Y518142D01*
X810345Y518188D01*
X810329Y518237D01*
X810318Y518288D01*
X810315Y518339D01*
Y519520D01*
X810318Y519572D01*
X810329Y519622D01*
X810345Y519671D01*
X810368Y519718D01*
X810397Y519761D01*
X810431Y519799D01*
X810470Y519833D01*
X810512Y519862D01*
X810559Y519885D01*
X810608Y519901D01*
X810658Y519911D01*
X810710Y519915D01*
X812284D01*
Y520583D01*
Y520607D01*
Y520607D01*
Y520607D01*
X812287Y520658D01*
X812292Y520682D01*
X812297Y520709D01*
X812314Y520758D01*
X812314Y520758D01*
X812314Y520758D01*
X812332Y520801D01*
X812332Y520801D01*
X812354Y520847D01*
X812383Y520890D01*
X812383Y520890D01*
X812383Y520890D01*
X812417Y520929D01*
X812417Y520929D01*
X812450Y520962D01*
X812450Y520962D01*
X812489Y520996D01*
X812489Y520996D01*
X812489Y520996D01*
X812532Y521025D01*
X812578Y521048D01*
X812578Y521048D01*
X812622Y521066D01*
X812622Y521066D01*
X812622Y521066D01*
X812671Y521082D01*
X812698Y521088D01*
X812721Y521093D01*
X812773Y521096D01*
X812773D01*
X812773D01*
X813765D01*
X813765D01*
X813765D01*
X813816Y521093D01*
D02*
G37*
D15*
X1161400Y438763D02*
G03*
X1171400Y448763I0J10000D01*
G01*
X1171400Y803763D02*
G03*
X1161400Y813763I-10000J0D01*
G01*
X756400Y813763D02*
G03*
X746400Y803763I0J-10000D01*
G01*
Y448763D02*
G03*
X756400Y438763I10000J0D01*
G01*
X1171400Y448763D02*
X1171400Y803763D01*
X756400Y438763D02*
X1161400D01*
X756400Y813763D02*
X1161400Y813763D01*
X746400Y803763D02*
X746400Y448763D01*
D57*
X838659Y528184D02*
D03*
X842439D02*
D03*
X833449Y551706D02*
D03*
X837228D02*
D03*
X844053Y547030D02*
D03*
X840273D02*
D03*
X812286Y528885D02*
D03*
X811926Y524511D02*
D03*
X808506Y528885D02*
D03*
X808147Y524511D02*
D03*
X815158Y491614D02*
D03*
X815513Y495911D02*
D03*
X811734D02*
D03*
X1117922Y620076D02*
D03*
X1121702D02*
D03*
X1116255Y578548D02*
D03*
X1120035D02*
D03*
X811379Y491614D02*
D03*
D62*
X837251Y502512D02*
D03*
Y498733D02*
D03*
D65*
X814570Y534508D02*
D03*
X808271D02*
D03*
X815076Y486211D02*
D03*
X815309Y479949D02*
D03*
X809010D02*
D03*
X1118225Y630883D02*
D03*
X1124525D02*
D03*
X1117082Y589105D02*
D03*
X1123381D02*
D03*
X808777Y486211D02*
D03*
D76*
X1156400Y538763D02*
D03*
Y528763D02*
D03*
Y518763D02*
D03*
Y508763D02*
D03*
Y498763D02*
D03*
Y568763D02*
D03*
Y558763D02*
D03*
Y548763D02*
D03*
X996400Y578763D02*
D03*
Y538763D02*
D03*
Y528763D02*
D03*
Y518763D02*
D03*
Y508763D02*
D03*
Y498763D02*
D03*
Y488763D02*
D03*
Y568763D02*
D03*
Y558763D02*
D03*
Y548763D02*
D03*
X757943Y594070D02*
D03*
Y614070D02*
D03*
X767943Y634070D02*
D03*
X757943Y664070D02*
D03*
Y694070D02*
D03*
X767943Y714070D02*
D03*
X757943Y734070D02*
D03*
X767943Y564070D02*
D03*
X757943Y744070D02*
D03*
Y724070D02*
D03*
Y714070D02*
D03*
Y704070D02*
D03*
X767943Y754070D02*
D03*
Y744070D02*
D03*
Y734070D02*
D03*
Y724070D02*
D03*
Y704070D02*
D03*
Y694070D02*
D03*
X757943Y684070D02*
D03*
Y674070D02*
D03*
Y654070D02*
D03*
Y644070D02*
D03*
Y634070D02*
D03*
X767943Y684070D02*
D03*
Y674070D02*
D03*
Y664070D02*
D03*
Y654070D02*
D03*
Y644070D02*
D03*
X757943Y624070D02*
D03*
X767943D02*
D03*
X757943Y604070D02*
D03*
Y584070D02*
D03*
Y574070D02*
D03*
Y564070D02*
D03*
X767943Y614070D02*
D03*
Y604070D02*
D03*
Y594070D02*
D03*
Y584070D02*
D03*
Y574070D02*
D03*
D77*
X1001400Y473763D02*
D03*
X1151400D02*
D03*
X1001400Y623763D02*
D03*
D78*
X925591Y625562D02*
D03*
Y621294D02*
D03*
X920426Y625562D02*
D03*
Y621294D02*
D03*
X915256Y625562D02*
D03*
Y621294D02*
D03*
X928839Y608239D02*
D03*
Y611814D02*
D03*
X927792Y615389D02*
D03*
X924016D02*
D03*
Y611814D02*
D03*
Y608239D02*
D03*
D79*
X1040207Y487582D02*
D03*
Y475771D02*
D03*
X1111400Y475763D02*
D03*
Y487574D02*
D03*
X825408Y776755D02*
D03*
Y764944D02*
D03*
X877502Y776755D02*
D03*
Y764944D02*
D03*
X1063829Y475771D02*
D03*
Y487582D02*
D03*
X1123211Y475763D02*
D03*
Y487574D02*
D03*
X865691Y776755D02*
D03*
Y764944D02*
D03*
X813597D02*
D03*
Y776755D02*
D03*
X1134392Y630858D02*
D03*
Y642668D02*
D03*
Y589857D02*
D03*
Y601669D02*
D03*
X1028396Y487582D02*
D03*
X1052018D02*
D03*
X1075640D02*
D03*
X1028396Y475771D02*
D03*
X1052018D02*
D03*
X1075640D02*
D03*
D80*
X1082400Y764113D02*
D03*
Y754113D02*
D03*
X1072400D02*
D03*
X1052400D02*
D03*
Y764113D02*
D03*
X1062400Y754113D02*
D03*
Y764113D02*
D03*
X1072400D02*
D03*
X1092400Y754113D02*
D03*
Y764113D02*
D03*
X1102400Y754113D02*
D03*
Y764113D02*
D03*
X1112400Y754113D02*
D03*
D81*
X757943Y754070D02*
D03*
D82*
X1151400Y636763D02*
D03*
Y595763D02*
D03*
X1036900Y458763D02*
D03*
X1067294D02*
D03*
X871597Y793763D02*
D03*
X819502D02*
D03*
X1117305Y458755D02*
D03*
D83*
X1135900Y781613D02*
D03*
Y666613D02*
D03*
X1020900Y781613D02*
D03*
Y666613D02*
D03*
D84*
X1112400Y764113D02*
D03*
D85*
X762943Y773243D02*
D03*
Y544897D02*
D03*
X955857D02*
D03*
Y773243D02*
D03*
D125*
X857489Y499343D02*
D03*
X852489D02*
D03*
X847489D02*
D03*
X842489D02*
D03*
X852489Y520800D02*
D03*
X847489D02*
D03*
X857489D02*
D03*
X842489D02*
D03*
D126*
X815828Y519520D02*
D03*
X818387D02*
D03*
X810710D02*
D03*
X808151D02*
D03*
X805592D02*
D03*
X815828Y500623D02*
D03*
X818387D02*
D03*
X805592D02*
D03*
X808151D02*
D03*
X813269D02*
D03*
D127*
X1103300Y630391D02*
D03*
X1105859D02*
D03*
X1108418D02*
D03*
X1110977D02*
D03*
X1103300Y620076D02*
D03*
X1105859D02*
D03*
X1108418D02*
D03*
X1110977D02*
D03*
X1109270Y578790D02*
D03*
X1106711D02*
D03*
X1104152D02*
D03*
X1101593D02*
D03*
X1109270Y589105D02*
D03*
X1106711D02*
D03*
X1104152D02*
D03*
X1101593D02*
D03*
M02*
