G04*
G04 #@! TF.GenerationSoftware,Altium Limited,DefaultClient, ()*
G04*
G04 Layer_Physical_Order=2*
G04 Layer_Color=36540*
G04 Board_Origin=74640000|43876300*
%FSLAX25Y25*%
%MOIN*%
G70*
G04*
G04 #@! TF.SameCoordinates,7376E26B-85FC-40E6-8FC3-DD4050A09F07*
G04*
G04*
G04 #@! TF.FilePolarity,Positive*
G04*
G01*
G75*
%ADD15C,0.01000*%
%ADD80C,0.06000*%
%ADD115C,0.01968*%
%ADD116C,0.06693*%
%ADD121C,0.01772*%
G36*
X1162285Y812743D02*
X1164019Y812398D01*
X1165654Y811721D01*
X1167125Y810738D01*
X1168376Y809488D01*
X1169358Y808017D01*
X1170035Y806382D01*
X1170380Y804648D01*
X1170380Y803763D01*
X1170380Y448763D01*
X1170380Y447878D01*
X1170035Y446143D01*
X1169358Y444509D01*
X1168375Y443038D01*
X1167125Y441787D01*
X1165654Y440805D01*
X1164019Y440128D01*
X1162284Y439782D01*
X1161400Y439782D01*
X755515D01*
X753781Y440128D01*
X752146Y440805D01*
X750675Y441787D01*
X749424Y443038D01*
X748442Y444509D01*
X747765Y446143D01*
X747420Y447879D01*
Y448763D01*
Y803763D01*
Y804648D01*
X747765Y806382D01*
X748442Y808017D01*
X749424Y809488D01*
X750675Y810739D01*
X752146Y811721D01*
X753781Y812398D01*
X755515Y812743D01*
X756400Y812743D01*
X1161400Y812743D01*
X1162285Y812743D01*
D02*
G37*
%LPC*%
G36*
X1037630Y798122D02*
X1036965D01*
X1036350Y797867D01*
X1035879Y797397D01*
X1035624Y796782D01*
Y796116D01*
X1035879Y795501D01*
X1036350Y795030D01*
X1036965Y794775D01*
X1037630D01*
X1038245Y795030D01*
X1038716Y795501D01*
X1038971Y796116D01*
Y796782D01*
X1038716Y797397D01*
X1038245Y797867D01*
X1037630Y798122D01*
D02*
G37*
G36*
X911903Y792239D02*
X911237D01*
X910622Y791985D01*
X910152Y791514D01*
X909897Y790899D01*
Y790233D01*
X910152Y789618D01*
X910622Y789148D01*
X911237Y788893D01*
X911903D01*
X912518Y789148D01*
X912989Y789618D01*
X913243Y790233D01*
Y790899D01*
X912989Y791514D01*
X912518Y791985D01*
X911903Y792239D01*
D02*
G37*
G36*
X872256Y800456D02*
X870938D01*
X869645Y800199D01*
X868427Y799694D01*
X867330Y798962D01*
X866398Y798030D01*
X865666Y796933D01*
X865161Y795715D01*
X864904Y794422D01*
Y793104D01*
X865161Y791811D01*
X865666Y790593D01*
X866398Y789497D01*
X867330Y788564D01*
X868427Y787832D01*
X869645Y787327D01*
X870938Y787070D01*
X872256D01*
X873549Y787327D01*
X874767Y787832D01*
X875863Y788564D01*
X876796Y789497D01*
X877528Y790593D01*
X878033Y791811D01*
X878290Y793104D01*
Y794422D01*
X878033Y795715D01*
X877528Y796933D01*
X876796Y798030D01*
X875863Y798962D01*
X874767Y799694D01*
X873549Y800199D01*
X872256Y800456D01*
D02*
G37*
G36*
X820162D02*
X818843D01*
X817550Y800199D01*
X816332Y799694D01*
X815236Y798962D01*
X814304Y798030D01*
X813571Y796933D01*
X813067Y795715D01*
X812809Y794422D01*
Y793104D01*
X813067Y791811D01*
X813571Y790593D01*
X814304Y789497D01*
X815236Y788564D01*
X816332Y787832D01*
X817550Y787327D01*
X818843Y787070D01*
X820162D01*
X821455Y787327D01*
X822673Y787832D01*
X823769Y788564D01*
X824701Y789497D01*
X825434Y790593D01*
X825938Y791811D01*
X826195Y793104D01*
Y794422D01*
X825938Y795715D01*
X825434Y796933D01*
X824701Y798030D01*
X823769Y798962D01*
X822673Y799694D01*
X821455Y800199D01*
X820162Y800456D01*
D02*
G37*
G36*
X1084758Y789591D02*
X1084092D01*
X1083477Y789336D01*
X1083006Y788865D01*
X1082752Y788250D01*
Y787585D01*
X1083006Y786970D01*
X1083477Y786499D01*
X1084092Y786244D01*
X1084758D01*
X1085373Y786499D01*
X1085843Y786970D01*
X1086098Y787585D01*
Y788250D01*
X1085843Y788865D01*
X1085373Y789336D01*
X1084758Y789591D01*
D02*
G37*
G36*
X1136753Y790275D02*
X1135047D01*
X1133374Y789942D01*
X1131797Y789289D01*
X1130379Y788341D01*
X1129172Y787135D01*
X1128224Y785716D01*
X1127571Y784140D01*
X1127239Y782467D01*
Y780760D01*
X1127571Y779087D01*
X1128224Y777511D01*
X1129172Y776092D01*
X1130379Y774886D01*
X1131797Y773938D01*
X1133374Y773285D01*
X1135047Y772952D01*
X1136753D01*
X1138426Y773285D01*
X1140003Y773938D01*
X1141421Y774886D01*
X1142628Y776092D01*
X1143576Y777511D01*
X1144229Y779087D01*
X1144561Y780760D01*
Y782467D01*
X1144229Y784140D01*
X1143576Y785716D01*
X1142628Y787135D01*
X1141421Y788341D01*
X1140003Y789289D01*
X1138426Y789942D01*
X1136753Y790275D01*
D02*
G37*
G36*
X1021753D02*
X1020047D01*
X1018374Y789942D01*
X1016797Y789289D01*
X1015379Y788341D01*
X1014172Y787135D01*
X1013224Y785716D01*
X1012571Y784140D01*
X1012239Y782467D01*
Y780760D01*
X1012571Y779087D01*
X1013224Y777511D01*
X1014172Y776092D01*
X1015379Y774886D01*
X1016797Y773938D01*
X1018374Y773285D01*
X1020047Y772952D01*
X1021753D01*
X1023426Y773285D01*
X1025003Y773938D01*
X1026421Y774886D01*
X1027628Y776092D01*
X1028576Y777511D01*
X1029229Y779087D01*
X1029561Y780760D01*
Y782467D01*
X1029229Y784140D01*
X1028576Y785716D01*
X1027628Y787135D01*
X1026421Y788341D01*
X1025003Y789289D01*
X1023426Y789942D01*
X1021753Y790275D01*
D02*
G37*
G36*
X866236Y780889D02*
X865147D01*
X864096Y780607D01*
X863153Y780063D01*
X862383Y779293D01*
X861839Y778351D01*
X861557Y777299D01*
Y776211D01*
X861839Y775160D01*
X862383Y774217D01*
X863153Y773447D01*
X864096Y772903D01*
X865147Y772621D01*
X866236D01*
X867287Y772903D01*
X868230Y773447D01*
X868999Y774217D01*
X869543Y775160D01*
X869825Y776211D01*
Y777299D01*
X869543Y778351D01*
X868999Y779293D01*
X868230Y780063D01*
X867287Y780607D01*
X866236Y780889D01*
D02*
G37*
G36*
X814141D02*
X813053D01*
X812001Y780607D01*
X811059Y780063D01*
X810289Y779293D01*
X809745Y778351D01*
X809463Y777299D01*
Y776211D01*
X809745Y775160D01*
X810289Y774217D01*
X811059Y773447D01*
X812001Y772903D01*
X813053Y772621D01*
X814141D01*
X815193Y772903D01*
X816135Y773447D01*
X816905Y774217D01*
X817449Y775160D01*
X817731Y776211D01*
Y777299D01*
X817449Y778351D01*
X816905Y779293D01*
X816135Y780063D01*
X815193Y780607D01*
X814141Y780889D01*
D02*
G37*
G36*
X866236Y769078D02*
X865147D01*
X864096Y768796D01*
X863153Y768252D01*
X862383Y767482D01*
X861839Y766540D01*
X861557Y765488D01*
Y764400D01*
X861839Y763348D01*
X862383Y762406D01*
X863153Y761636D01*
X864096Y761092D01*
X865147Y760810D01*
X866236D01*
X867287Y761092D01*
X868230Y761636D01*
X868999Y762406D01*
X869543Y763348D01*
X869825Y764400D01*
Y765488D01*
X869543Y766540D01*
X868999Y767482D01*
X868230Y768252D01*
X867287Y768796D01*
X866236Y769078D01*
D02*
G37*
G36*
X814141D02*
X813053D01*
X812001Y768796D01*
X811059Y768252D01*
X810289Y767482D01*
X809745Y766540D01*
X809463Y765488D01*
Y764400D01*
X809745Y763348D01*
X810289Y762406D01*
X811059Y761636D01*
X812001Y761092D01*
X813053Y760810D01*
X814141D01*
X815193Y761092D01*
X816135Y761636D01*
X816905Y762406D01*
X817449Y763348D01*
X817731Y764400D01*
Y765488D01*
X817449Y766540D01*
X816905Y767482D01*
X816135Y768252D01*
X815193Y768796D01*
X814141Y769078D01*
D02*
G37*
G36*
X1112899Y767901D02*
X1111901D01*
X1110938Y767643D01*
X1110075Y767144D01*
X1109369Y766439D01*
X1108871Y765575D01*
X1108613Y764612D01*
Y763615D01*
X1108871Y762651D01*
X1109369Y761788D01*
X1110075Y761083D01*
X1110938Y760584D01*
X1111901Y760326D01*
X1112899D01*
X1113862Y760584D01*
X1114725Y761083D01*
X1115431Y761788D01*
X1115929Y762651D01*
X1116187Y763615D01*
Y764612D01*
X1115929Y765575D01*
X1115431Y766439D01*
X1114725Y767144D01*
X1113862Y767643D01*
X1112899Y767901D01*
D02*
G37*
G36*
X1102899D02*
X1101901D01*
X1100938Y767643D01*
X1100074Y767144D01*
X1099369Y766439D01*
X1098871Y765575D01*
X1098613Y764612D01*
Y763615D01*
X1098871Y762651D01*
X1099369Y761788D01*
X1100074Y761083D01*
X1100938Y760584D01*
X1101901Y760326D01*
X1102899D01*
X1103862Y760584D01*
X1104725Y761083D01*
X1105431Y761788D01*
X1105929Y762651D01*
X1106187Y763615D01*
Y764612D01*
X1105929Y765575D01*
X1105431Y766439D01*
X1104725Y767144D01*
X1103862Y767643D01*
X1102899Y767901D01*
D02*
G37*
G36*
X1092899D02*
X1091901D01*
X1090938Y767643D01*
X1090075Y767144D01*
X1089369Y766439D01*
X1088871Y765575D01*
X1088613Y764612D01*
Y763615D01*
X1088871Y762651D01*
X1089369Y761788D01*
X1090075Y761083D01*
X1090938Y760584D01*
X1091901Y760326D01*
X1092899D01*
X1093862Y760584D01*
X1094726Y761083D01*
X1095431Y761788D01*
X1095929Y762651D01*
X1096187Y763615D01*
Y764612D01*
X1095929Y765575D01*
X1095431Y766439D01*
X1094726Y767144D01*
X1093862Y767643D01*
X1092899Y767901D01*
D02*
G37*
G36*
X1072899D02*
X1071901D01*
X1070938Y767643D01*
X1070074Y767144D01*
X1069369Y766439D01*
X1068871Y765575D01*
X1068613Y764612D01*
Y763615D01*
X1068871Y762651D01*
X1069369Y761788D01*
X1070074Y761083D01*
X1070938Y760584D01*
X1071901Y760326D01*
X1072899D01*
X1073862Y760584D01*
X1074726Y761083D01*
X1075431Y761788D01*
X1075929Y762651D01*
X1076187Y763615D01*
Y764612D01*
X1075929Y765575D01*
X1075431Y766439D01*
X1074726Y767144D01*
X1073862Y767643D01*
X1072899Y767901D01*
D02*
G37*
G36*
X1062899D02*
X1061901D01*
X1060938Y767643D01*
X1060075Y767144D01*
X1059369Y766439D01*
X1058871Y765575D01*
X1058613Y764612D01*
Y763615D01*
X1058871Y762651D01*
X1059369Y761788D01*
X1060075Y761083D01*
X1060938Y760584D01*
X1061901Y760326D01*
X1062899D01*
X1063862Y760584D01*
X1064725Y761083D01*
X1065431Y761788D01*
X1065929Y762651D01*
X1066187Y763615D01*
Y764612D01*
X1065929Y765575D01*
X1065431Y766439D01*
X1064725Y767144D01*
X1063862Y767643D01*
X1062899Y767901D01*
D02*
G37*
G36*
X1052899D02*
X1051901D01*
X1050938Y767643D01*
X1050074Y767144D01*
X1049369Y766439D01*
X1048871Y765575D01*
X1048613Y764612D01*
Y763615D01*
X1048871Y762651D01*
X1049369Y761788D01*
X1050074Y761083D01*
X1050938Y760584D01*
X1051901Y760326D01*
X1052899D01*
X1053862Y760584D01*
X1054725Y761083D01*
X1055431Y761788D01*
X1055929Y762651D01*
X1056187Y763615D01*
Y764612D01*
X1055929Y765575D01*
X1055431Y766439D01*
X1054725Y767144D01*
X1053862Y767643D01*
X1052899Y767901D01*
D02*
G37*
G36*
X956879Y786236D02*
X954834D01*
X952814Y785916D01*
X950869Y785284D01*
X949047Y784355D01*
X947393Y783153D01*
X945947Y781707D01*
X944745Y780053D01*
X943816Y778231D01*
X943184Y776286D01*
X942865Y774266D01*
Y772221D01*
X943184Y770201D01*
X943816Y768256D01*
X944745Y766434D01*
X945947Y764780D01*
X947393Y763334D01*
X949047Y762132D01*
X950869Y761203D01*
X952814Y760571D01*
X954834Y760251D01*
X956879D01*
X958899Y760571D01*
X960844Y761203D01*
X962666Y762132D01*
X964320Y763334D01*
X965767Y764780D01*
X966969Y766434D01*
X967897Y768256D01*
X968529Y770201D01*
X968849Y772221D01*
Y774266D01*
X968529Y776286D01*
X967897Y778231D01*
X966969Y780053D01*
X965767Y781707D01*
X964320Y783153D01*
X962666Y784355D01*
X960844Y785284D01*
X958899Y785916D01*
X956879Y786236D01*
D02*
G37*
G36*
X763966D02*
X761921D01*
X759901Y785916D01*
X757956Y785284D01*
X756134Y784355D01*
X754480Y783153D01*
X753033Y781707D01*
X751831Y780053D01*
X750903Y778231D01*
X750271Y776286D01*
X749951Y774266D01*
Y772221D01*
X750271Y770201D01*
X750903Y768256D01*
X751831Y766434D01*
X753033Y764780D01*
X754480Y763334D01*
X756134Y762132D01*
X757956Y761203D01*
X759901Y760571D01*
X761921Y760251D01*
X763966D01*
X765986Y760571D01*
X767931Y761203D01*
X769753Y762132D01*
X771407Y763334D01*
X772853Y764780D01*
X774055Y766434D01*
X774984Y768256D01*
X775616Y770201D01*
X775936Y772221D01*
Y774266D01*
X775616Y776286D01*
X774984Y778231D01*
X774055Y780053D01*
X772853Y781707D01*
X771407Y783153D01*
X769753Y784355D01*
X767931Y785284D01*
X765986Y785916D01*
X763966Y786236D01*
D02*
G37*
G36*
X900561Y762370D02*
X899896D01*
X899281Y762115D01*
X898810Y761645D01*
X898555Y761030D01*
Y760364D01*
X898810Y759749D01*
X899281Y759278D01*
X899896Y759024D01*
X900561D01*
X901176Y759278D01*
X901647Y759749D01*
X901902Y760364D01*
Y761030D01*
X901647Y761645D01*
X901176Y762115D01*
X900561Y762370D01*
D02*
G37*
G36*
X906640Y762113D02*
X905974D01*
X905359Y761858D01*
X904889Y761387D01*
X904634Y760772D01*
Y760107D01*
X904889Y759492D01*
X905359Y759021D01*
X905974Y758766D01*
X906640D01*
X907255Y759021D01*
X907726Y759492D01*
X907980Y760107D01*
Y760772D01*
X907726Y761387D01*
X907255Y761858D01*
X906640Y762113D01*
D02*
G37*
G36*
X1112899Y757901D02*
X1111901D01*
X1110938Y757643D01*
X1110075Y757144D01*
X1109369Y756439D01*
X1108871Y755575D01*
X1108613Y754612D01*
Y753615D01*
X1108871Y752652D01*
X1109369Y751788D01*
X1110075Y751083D01*
X1110938Y750584D01*
X1111901Y750326D01*
X1112899D01*
X1113862Y750584D01*
X1114725Y751083D01*
X1115431Y751788D01*
X1115929Y752652D01*
X1116187Y753615D01*
Y754612D01*
X1115929Y755575D01*
X1115431Y756439D01*
X1114725Y757144D01*
X1113862Y757643D01*
X1112899Y757901D01*
D02*
G37*
G36*
X1102899D02*
X1101901D01*
X1100938Y757643D01*
X1100074Y757144D01*
X1099369Y756439D01*
X1098871Y755575D01*
X1098613Y754612D01*
Y753615D01*
X1098871Y752652D01*
X1099369Y751788D01*
X1100074Y751083D01*
X1100938Y750584D01*
X1101901Y750326D01*
X1102899D01*
X1103862Y750584D01*
X1104725Y751083D01*
X1105431Y751788D01*
X1105929Y752652D01*
X1106187Y753615D01*
Y754612D01*
X1105929Y755575D01*
X1105431Y756439D01*
X1104725Y757144D01*
X1103862Y757643D01*
X1102899Y757901D01*
D02*
G37*
G36*
X1092899D02*
X1091901D01*
X1090938Y757643D01*
X1090075Y757144D01*
X1089369Y756439D01*
X1088871Y755575D01*
X1088613Y754612D01*
Y753615D01*
X1088871Y752652D01*
X1089369Y751788D01*
X1090075Y751083D01*
X1090938Y750584D01*
X1091901Y750326D01*
X1092899D01*
X1093862Y750584D01*
X1094726Y751083D01*
X1095431Y751788D01*
X1095929Y752652D01*
X1096187Y753615D01*
Y754612D01*
X1095929Y755575D01*
X1095431Y756439D01*
X1094726Y757144D01*
X1093862Y757643D01*
X1092899Y757901D01*
D02*
G37*
G36*
X1062899D02*
X1061901D01*
X1060938Y757643D01*
X1060075Y757144D01*
X1059369Y756439D01*
X1058871Y755575D01*
X1058613Y754612D01*
Y753615D01*
X1058871Y752652D01*
X1059369Y751788D01*
X1060075Y751083D01*
X1060938Y750584D01*
X1061901Y750326D01*
X1062899D01*
X1063862Y750584D01*
X1064725Y751083D01*
X1065431Y751788D01*
X1065929Y752652D01*
X1066187Y753615D01*
Y754612D01*
X1065929Y755575D01*
X1065431Y756439D01*
X1064725Y757144D01*
X1063862Y757643D01*
X1062899Y757901D01*
D02*
G37*
G36*
X1052899D02*
X1051901D01*
X1050938Y757643D01*
X1050074Y757144D01*
X1049369Y756439D01*
X1048871Y755575D01*
X1048613Y754612D01*
Y753615D01*
X1048871Y752652D01*
X1049369Y751788D01*
X1050074Y751083D01*
X1050938Y750584D01*
X1051901Y750326D01*
X1052899D01*
X1053862Y750584D01*
X1054725Y751083D01*
X1055431Y751788D01*
X1055929Y752652D01*
X1056187Y753615D01*
Y754612D01*
X1055929Y755575D01*
X1055431Y756439D01*
X1054725Y757144D01*
X1053862Y757643D01*
X1052899Y757901D01*
D02*
G37*
G36*
X768442Y757858D02*
X767445D01*
X766481Y757599D01*
X765618Y757101D01*
X764913Y756396D01*
X764414Y755532D01*
X764156Y754569D01*
Y753572D01*
X764414Y752608D01*
X764913Y751745D01*
X765618Y751040D01*
X766481Y750541D01*
X767445Y750283D01*
X768442D01*
X769405Y750541D01*
X770269Y751040D01*
X770974Y751745D01*
X771473Y752608D01*
X771731Y753572D01*
Y754569D01*
X771473Y755532D01*
X770974Y756396D01*
X770269Y757101D01*
X769405Y757599D01*
X768442Y757858D01*
D02*
G37*
G36*
X761731D02*
X754156D01*
Y750283D01*
X761731D01*
Y757858D01*
D02*
G37*
G36*
X976623Y750352D02*
X975957D01*
X975342Y750098D01*
X975256Y750011D01*
X974741Y749705D01*
X974227Y750011D01*
X974140Y750098D01*
X973525Y750352D01*
X972860D01*
X972245Y750098D01*
X971774Y749627D01*
X971519Y749012D01*
Y748346D01*
X971774Y747731D01*
X972245Y747261D01*
X972860Y747006D01*
X973525D01*
X974140Y747261D01*
X974227Y747347D01*
X974741Y747654D01*
X975256Y747347D01*
X975342Y747261D01*
X975957Y747006D01*
X976623D01*
X977238Y747261D01*
X977709Y747731D01*
X977963Y748346D01*
Y749012D01*
X977709Y749627D01*
X977238Y750098D01*
X976623Y750352D01*
D02*
G37*
G36*
X1137878Y744712D02*
X1137213D01*
X1136598Y744457D01*
X1136127Y743987D01*
X1135872Y743371D01*
Y742706D01*
X1136039Y742304D01*
X1135542Y741689D01*
X1135514Y741669D01*
X1135167Y741813D01*
X1134501D01*
X1133886Y741559D01*
X1133415Y741088D01*
X1133161Y740473D01*
Y739807D01*
X1133415Y739192D01*
X1133886Y738722D01*
X1134501Y738467D01*
X1135167D01*
X1135782Y738722D01*
X1136252Y739192D01*
X1136507Y739807D01*
Y740473D01*
X1136341Y740874D01*
X1136837Y741490D01*
X1136865Y741509D01*
X1137213Y741365D01*
X1137878D01*
X1138493Y741620D01*
X1138964Y742091D01*
X1139219Y742706D01*
Y743371D01*
X1138964Y743987D01*
X1138493Y744457D01*
X1137878Y744712D01*
D02*
G37*
G36*
X768442Y747858D02*
X767445D01*
X766481Y747599D01*
X765618Y747101D01*
X764913Y746396D01*
X764414Y745532D01*
X764156Y744569D01*
Y743572D01*
X764414Y742608D01*
X764913Y741745D01*
X765618Y741040D01*
X766481Y740541D01*
X767445Y740283D01*
X768442D01*
X769405Y740541D01*
X770269Y741040D01*
X770974Y741745D01*
X771473Y742608D01*
X771731Y743572D01*
Y744569D01*
X771473Y745532D01*
X770974Y746396D01*
X770269Y747101D01*
X769405Y747599D01*
X768442Y747858D01*
D02*
G37*
G36*
X758442D02*
X757445D01*
X756482Y747599D01*
X755618Y747101D01*
X754913Y746396D01*
X754414Y745532D01*
X754156Y744569D01*
Y743572D01*
X754414Y742608D01*
X754913Y741745D01*
X755618Y741040D01*
X756482Y740541D01*
X757445Y740283D01*
X758442D01*
X759405Y740541D01*
X760269Y741040D01*
X760974Y741745D01*
X761473Y742608D01*
X761731Y743572D01*
Y744569D01*
X761473Y745532D01*
X760974Y746396D01*
X760269Y747101D01*
X759405Y747599D01*
X758442Y747858D01*
D02*
G37*
G36*
X1131787Y739225D02*
X1131121D01*
X1130506Y738970D01*
X1130036Y738499D01*
X1129781Y737884D01*
Y737219D01*
X1130036Y736604D01*
X1130506Y736133D01*
X1131121Y735878D01*
X1131787D01*
X1132402Y736133D01*
X1132873Y736604D01*
X1133127Y737219D01*
Y737884D01*
X1132873Y738499D01*
X1132402Y738970D01*
X1131787Y739225D01*
D02*
G37*
G36*
X768442Y737857D02*
X767445D01*
X766481Y737599D01*
X765618Y737101D01*
X764913Y736396D01*
X764414Y735532D01*
X764156Y734569D01*
Y733571D01*
X764414Y732608D01*
X764913Y731745D01*
X765618Y731039D01*
X766481Y730541D01*
X767445Y730283D01*
X768442D01*
X769405Y730541D01*
X770269Y731039D01*
X770974Y731745D01*
X771473Y732608D01*
X771731Y733571D01*
Y734569D01*
X771473Y735532D01*
X770974Y736396D01*
X770269Y737101D01*
X769405Y737599D01*
X768442Y737857D01*
D02*
G37*
G36*
X884370Y733436D02*
X883705D01*
X883090Y733181D01*
X882619Y732711D01*
X882364Y732096D01*
Y731430D01*
X882619Y730815D01*
X883090Y730344D01*
X883705Y730090D01*
X884370D01*
X884985Y730344D01*
X885456Y730815D01*
X885711Y731430D01*
Y732096D01*
X885456Y732711D01*
X884985Y733181D01*
X884370Y733436D01*
D02*
G37*
G36*
X871217Y729984D02*
X870551D01*
X869936Y729729D01*
X869466Y729258D01*
X869211Y728643D01*
Y727977D01*
X869466Y727362D01*
X869936Y726892D01*
X870551Y726637D01*
X871217D01*
X871832Y726892D01*
X872303Y727362D01*
X872558Y727977D01*
Y728643D01*
X872303Y729258D01*
X871832Y729729D01*
X871217Y729984D01*
D02*
G37*
G36*
X1092402Y724519D02*
X1091737D01*
X1091121Y724264D01*
X1090651Y723794D01*
X1090396Y723178D01*
Y722513D01*
X1090651Y721898D01*
X1091121Y721427D01*
X1091737Y721173D01*
X1092402D01*
X1093017Y721427D01*
X1093488Y721898D01*
X1093742Y722513D01*
Y723178D01*
X1093488Y723794D01*
X1093017Y724264D01*
X1092402Y724519D01*
D02*
G37*
G36*
X768442Y727857D02*
X767445D01*
X766481Y727599D01*
X765618Y727101D01*
X764913Y726396D01*
X764414Y725532D01*
X764156Y724569D01*
Y723571D01*
X764414Y722608D01*
X764913Y721745D01*
X765618Y721039D01*
X766481Y720541D01*
X767445Y720283D01*
X768442D01*
X769405Y720541D01*
X770269Y721039D01*
X770974Y721745D01*
X771473Y722608D01*
X771731Y723571D01*
Y724569D01*
X771473Y725532D01*
X770974Y726396D01*
X770269Y727101D01*
X769405Y727599D01*
X768442Y727857D01*
D02*
G37*
G36*
X758442D02*
X757445D01*
X756482Y727599D01*
X755618Y727101D01*
X754913Y726396D01*
X754414Y725532D01*
X754156Y724569D01*
Y723571D01*
X754414Y722608D01*
X754913Y721745D01*
X755618Y721039D01*
X756482Y720541D01*
X757445Y720283D01*
X758442D01*
X759405Y720541D01*
X760269Y721039D01*
X760974Y721745D01*
X761473Y722608D01*
X761731Y723571D01*
Y724569D01*
X761473Y725532D01*
X760974Y726396D01*
X760269Y727101D01*
X759405Y727599D01*
X758442Y727857D01*
D02*
G37*
G36*
X942810Y721467D02*
X942144D01*
X941529Y721213D01*
X941059Y720742D01*
X940804Y720127D01*
Y719461D01*
X941059Y718846D01*
X941529Y718376D01*
X942144Y718121D01*
X942810D01*
X943425Y718376D01*
X943896Y718846D01*
X944151Y719461D01*
Y720127D01*
X943896Y720742D01*
X943425Y721213D01*
X942810Y721467D01*
D02*
G37*
G36*
X1083733Y721354D02*
X1083067D01*
X1082452Y721099D01*
X1081981Y720628D01*
X1081727Y720014D01*
Y719348D01*
X1081981Y718733D01*
X1082452Y718262D01*
X1083067Y718007D01*
X1083733D01*
X1084348Y718262D01*
X1084818Y718733D01*
X1085073Y719348D01*
Y720014D01*
X1084818Y720628D01*
X1084348Y721099D01*
X1083733Y721354D01*
D02*
G37*
G36*
X787174Y720586D02*
X786508D01*
X785893Y720331D01*
X785423Y719860D01*
X785168Y719245D01*
Y718580D01*
X785423Y717965D01*
X785893Y717494D01*
X786508Y717239D01*
X787174D01*
X787789Y717494D01*
X788260Y717965D01*
X788514Y718580D01*
Y719245D01*
X788260Y719860D01*
X787789Y720331D01*
X787174Y720586D01*
D02*
G37*
G36*
X788867Y715645D02*
X788201D01*
X787586Y715390D01*
X787115Y714920D01*
X786861Y714305D01*
Y713639D01*
X787115Y713024D01*
X787586Y712554D01*
X788201Y712299D01*
X788867D01*
X789482Y712554D01*
X789952Y713024D01*
X790207Y713639D01*
Y714305D01*
X789952Y714920D01*
X789482Y715390D01*
X788867Y715645D01*
D02*
G37*
G36*
X904754Y714956D02*
X904088D01*
X903473Y714701D01*
X903003Y714230D01*
X902748Y713615D01*
Y712950D01*
X903003Y712335D01*
X903473Y711864D01*
X904088Y711609D01*
X904754D01*
X905369Y711864D01*
X905840Y712335D01*
X906094Y712950D01*
Y713615D01*
X905840Y714230D01*
X905369Y714701D01*
X904754Y714956D01*
D02*
G37*
G36*
X758442Y717858D02*
X757445D01*
X756482Y717599D01*
X755618Y717101D01*
X754913Y716396D01*
X754414Y715532D01*
X754156Y714569D01*
Y713572D01*
X754414Y712608D01*
X754913Y711745D01*
X755618Y711039D01*
X756482Y710541D01*
X757445Y710283D01*
X758442D01*
X759405Y710541D01*
X760269Y711039D01*
X760974Y711745D01*
X761473Y712608D01*
X761731Y713572D01*
Y714569D01*
X761473Y715532D01*
X760974Y716396D01*
X760269Y717101D01*
X759405Y717599D01*
X758442Y717858D01*
D02*
G37*
G36*
X792567Y712247D02*
X791901D01*
X791286Y711993D01*
X790815Y711522D01*
X790561Y710907D01*
Y710241D01*
X790815Y709626D01*
X791286Y709156D01*
X791901Y708901D01*
X792567D01*
X793182Y709156D01*
X793652Y709626D01*
X793907Y710241D01*
Y710907D01*
X793652Y711522D01*
X793182Y711993D01*
X792567Y712247D01*
D02*
G37*
G36*
X1096733Y710921D02*
X1096067D01*
X1095452Y710666D01*
X1094981Y710195D01*
X1094727Y709580D01*
Y708915D01*
X1094981Y708300D01*
X1095452Y707829D01*
X1096067Y707574D01*
X1096733D01*
X1097348Y707829D01*
X1097818Y708300D01*
X1098073Y708915D01*
Y709580D01*
X1097818Y710195D01*
X1097348Y710666D01*
X1096733Y710921D01*
D02*
G37*
G36*
X1091052Y709771D02*
X1090386D01*
X1089771Y709516D01*
X1089300Y709045D01*
X1089046Y708430D01*
Y707765D01*
X1089300Y707150D01*
X1089771Y706679D01*
X1090386Y706424D01*
X1091052D01*
X1091667Y706679D01*
X1092137Y707150D01*
X1092392Y707765D01*
Y708430D01*
X1092137Y709045D01*
X1091667Y709516D01*
X1091052Y709771D01*
D02*
G37*
G36*
X795733Y709334D02*
X795067D01*
X794452Y709079D01*
X793982Y708608D01*
X793727Y707994D01*
Y707328D01*
X793982Y706713D01*
X794452Y706242D01*
X795067Y705987D01*
X795733D01*
X796348Y706242D01*
X796818Y706713D01*
X797073Y707328D01*
Y707994D01*
X796818Y708608D01*
X796348Y709079D01*
X795733Y709334D01*
D02*
G37*
G36*
X1077753Y709105D02*
X1077087D01*
X1076472Y708851D01*
X1076001Y708380D01*
X1075747Y707765D01*
Y707099D01*
X1076001Y706485D01*
X1076472Y706014D01*
X1077087Y705759D01*
X1077753D01*
X1078368Y706014D01*
X1078838Y706485D01*
X1079093Y707099D01*
Y707765D01*
X1078838Y708380D01*
X1078368Y708851D01*
X1077753Y709105D01*
D02*
G37*
G36*
X1084076Y707763D02*
X1083410D01*
X1082795Y707508D01*
X1082324Y707037D01*
X1082070Y706422D01*
Y705757D01*
X1082324Y705142D01*
X1082795Y704671D01*
X1083410Y704416D01*
X1084076D01*
X1084691Y704671D01*
X1085161Y705142D01*
X1085416Y705757D01*
Y706422D01*
X1085161Y707037D01*
X1084691Y707508D01*
X1084076Y707763D01*
D02*
G37*
G36*
X920717Y707492D02*
X920051D01*
X919436Y707237D01*
X918966Y706766D01*
X918711Y706151D01*
Y705486D01*
X918966Y704871D01*
X919436Y704400D01*
X920051Y704145D01*
X920717D01*
X921332Y704400D01*
X921803Y704871D01*
X922058Y705486D01*
Y706151D01*
X921803Y706766D01*
X921332Y707237D01*
X920717Y707492D01*
D02*
G37*
G36*
X798674Y706247D02*
X798008D01*
X797393Y705993D01*
X796922Y705522D01*
X796668Y704907D01*
Y704241D01*
X796922Y703626D01*
X797393Y703156D01*
X798008Y702901D01*
X798674D01*
X799289Y703156D01*
X799759Y703626D01*
X800014Y704241D01*
Y704907D01*
X799759Y705522D01*
X799289Y705993D01*
X798674Y706247D01*
D02*
G37*
G36*
X913356Y704436D02*
X912690D01*
X912075Y704181D01*
X911605Y703711D01*
X911350Y703096D01*
Y702430D01*
X911404Y702299D01*
X910789Y701728D01*
X910443Y701871D01*
X909778D01*
X909163Y701616D01*
X908692Y701145D01*
X908437Y700530D01*
Y699865D01*
X908692Y699250D01*
X909163Y698779D01*
X909778Y698524D01*
X910443D01*
X911059Y698779D01*
X911529Y699250D01*
X911784Y699865D01*
Y700530D01*
X911730Y700661D01*
X912345Y701233D01*
X912690Y701090D01*
X913356D01*
X913971Y701344D01*
X914441Y701815D01*
X914696Y702430D01*
Y703096D01*
X914441Y703711D01*
X913971Y704181D01*
X913356Y704436D01*
D02*
G37*
G36*
X1069284Y704759D02*
X1068618D01*
X1068003Y704504D01*
X1067533Y704034D01*
X1067278Y703418D01*
Y702753D01*
X1067533Y702138D01*
X1068003Y701667D01*
X1068618Y701412D01*
X1069284D01*
X1069899Y701667D01*
X1070370Y702138D01*
X1070624Y702753D01*
Y703418D01*
X1070370Y704034D01*
X1069899Y704504D01*
X1069284Y704759D01*
D02*
G37*
G36*
X768442Y707858D02*
X767445D01*
X766481Y707599D01*
X765618Y707101D01*
X764913Y706396D01*
X764414Y705532D01*
X764156Y704569D01*
Y703572D01*
X764414Y702608D01*
X764913Y701745D01*
X765618Y701040D01*
X766481Y700541D01*
X767445Y700283D01*
X768442D01*
X769405Y700541D01*
X770269Y701040D01*
X770974Y701745D01*
X771473Y702608D01*
X771731Y703572D01*
Y704569D01*
X771473Y705532D01*
X770974Y706396D01*
X770269Y707101D01*
X769405Y707599D01*
X768442Y707858D01*
D02*
G37*
G36*
X758442D02*
X757445D01*
X756482Y707599D01*
X755618Y707101D01*
X754913Y706396D01*
X754414Y705532D01*
X754156Y704569D01*
Y703572D01*
X754414Y702608D01*
X754913Y701745D01*
X755618Y701040D01*
X756482Y700541D01*
X757445Y700283D01*
X758442D01*
X759405Y700541D01*
X760269Y701040D01*
X760974Y701745D01*
X761473Y702608D01*
X761731Y703572D01*
Y704569D01*
X761473Y705532D01*
X760974Y706396D01*
X760269Y707101D01*
X759405Y707599D01*
X758442Y707858D01*
D02*
G37*
G36*
X1135512Y700405D02*
X1134847D01*
X1134232Y700150D01*
X1133761Y699679D01*
X1133506Y699064D01*
Y698436D01*
X1132878D01*
X1132263Y698181D01*
X1131793Y697711D01*
X1131538Y697096D01*
Y696430D01*
X1131793Y695815D01*
X1132263Y695344D01*
X1132878Y695090D01*
X1133544D01*
X1134159Y695344D01*
X1134630Y695815D01*
X1134884Y696430D01*
Y697058D01*
X1135512D01*
X1136127Y697313D01*
X1136598Y697784D01*
X1136853Y698399D01*
Y699064D01*
X1136598Y699679D01*
X1136127Y700150D01*
X1135512Y700405D01*
D02*
G37*
G36*
X920392Y696881D02*
X919726D01*
X919111Y696626D01*
X918641Y696156D01*
X918386Y695541D01*
Y694875D01*
X918641Y694260D01*
X919111Y693789D01*
X919726Y693535D01*
X920392D01*
X921007Y693789D01*
X921478Y694260D01*
X921732Y694875D01*
Y695541D01*
X921478Y696156D01*
X921007Y696626D01*
X920392Y696881D01*
D02*
G37*
G36*
X875154D02*
X874488D01*
X873874Y696626D01*
X873403Y696156D01*
X873148Y695541D01*
Y694875D01*
X873403Y694260D01*
X873874Y693789D01*
X874488Y693535D01*
X875154D01*
X875769Y693789D01*
X876240Y694260D01*
X876495Y694875D01*
Y695541D01*
X876240Y696156D01*
X875769Y696626D01*
X875154Y696881D01*
D02*
G37*
G36*
X768442Y697858D02*
X767445D01*
X766481Y697599D01*
X765618Y697101D01*
X764913Y696396D01*
X764414Y695532D01*
X764156Y694569D01*
Y693572D01*
X764414Y692608D01*
X764913Y691745D01*
X765618Y691040D01*
X766481Y690541D01*
X767445Y690283D01*
X768442D01*
X769405Y690541D01*
X770269Y691040D01*
X770974Y691745D01*
X771473Y692608D01*
X771731Y693572D01*
Y694569D01*
X771473Y695532D01*
X770974Y696396D01*
X770269Y697101D01*
X769405Y697599D01*
X768442Y697858D01*
D02*
G37*
G36*
Y687857D02*
X767445D01*
X766481Y687599D01*
X765618Y687101D01*
X764913Y686396D01*
X764414Y685532D01*
X764156Y684569D01*
Y683571D01*
X764414Y682608D01*
X764913Y681745D01*
X765618Y681039D01*
X766481Y680541D01*
X767445Y680283D01*
X768442D01*
X769405Y680541D01*
X770269Y681039D01*
X770974Y681745D01*
X771473Y682608D01*
X771731Y683571D01*
Y684569D01*
X771473Y685532D01*
X770974Y686396D01*
X770269Y687101D01*
X769405Y687599D01*
X768442Y687857D01*
D02*
G37*
G36*
X758442D02*
X757445D01*
X756482Y687599D01*
X755618Y687101D01*
X754913Y686396D01*
X754414Y685532D01*
X754156Y684569D01*
Y683571D01*
X754414Y682608D01*
X754913Y681745D01*
X755618Y681039D01*
X756482Y680541D01*
X757445Y680283D01*
X758442D01*
X759405Y680541D01*
X760269Y681039D01*
X760974Y681745D01*
X761473Y682608D01*
X761731Y683571D01*
Y684569D01*
X761473Y685532D01*
X760974Y686396D01*
X760269Y687101D01*
X759405Y687599D01*
X758442Y687857D01*
D02*
G37*
G36*
X923571Y675783D02*
X922906D01*
X922291Y675528D01*
X921820Y675057D01*
X921565Y674442D01*
Y673777D01*
X921820Y673162D01*
X922291Y672691D01*
X922906Y672436D01*
X923571D01*
X924186Y672691D01*
X924657Y673162D01*
X924912Y673777D01*
Y674442D01*
X924657Y675057D01*
X924186Y675528D01*
X923571Y675783D01*
D02*
G37*
G36*
X885131Y674609D02*
X884466D01*
X883851Y674355D01*
X883380Y673884D01*
X883125Y673269D01*
Y672603D01*
X883380Y671988D01*
X883851Y671518D01*
X884466Y671263D01*
X885131D01*
X885746Y671518D01*
X886217Y671988D01*
X886472Y672603D01*
Y673269D01*
X886217Y673884D01*
X885746Y674355D01*
X885131Y674609D01*
D02*
G37*
G36*
X768442Y677857D02*
X767445D01*
X766481Y677599D01*
X765618Y677101D01*
X764913Y676396D01*
X764414Y675532D01*
X764156Y674569D01*
Y673571D01*
X764414Y672608D01*
X764913Y671745D01*
X765618Y671039D01*
X766481Y670541D01*
X767445Y670283D01*
X768442D01*
X769405Y670541D01*
X770269Y671039D01*
X770974Y671745D01*
X771473Y672608D01*
X771731Y673571D01*
Y674569D01*
X771473Y675532D01*
X770974Y676396D01*
X770269Y677101D01*
X769405Y677599D01*
X768442Y677857D01*
D02*
G37*
G36*
X758442D02*
X757445D01*
X756482Y677599D01*
X755618Y677101D01*
X754913Y676396D01*
X754414Y675532D01*
X754156Y674569D01*
Y673571D01*
X754414Y672608D01*
X754913Y671745D01*
X755618Y671039D01*
X756482Y670541D01*
X757445Y670283D01*
X758442D01*
X759405Y670541D01*
X760269Y671039D01*
X760974Y671745D01*
X761473Y672608D01*
X761731Y673571D01*
Y674569D01*
X761473Y675532D01*
X760974Y676396D01*
X760269Y677101D01*
X759405Y677599D01*
X758442Y677857D01*
D02*
G37*
G36*
X788473Y667554D02*
X787807D01*
X787192Y667300D01*
X786722Y666829D01*
X786467Y666214D01*
Y665548D01*
X786722Y664933D01*
X787192Y664463D01*
X787807Y664208D01*
X788473D01*
X789088Y664463D01*
X789559Y664933D01*
X789813Y665548D01*
Y666214D01*
X789559Y666829D01*
X789088Y667300D01*
X788473Y667554D01*
D02*
G37*
G36*
X768442Y667858D02*
X767445D01*
X766481Y667599D01*
X765618Y667101D01*
X764913Y666396D01*
X764414Y665532D01*
X764156Y664569D01*
Y663572D01*
X764414Y662608D01*
X764913Y661745D01*
X765618Y661039D01*
X766481Y660541D01*
X767445Y660283D01*
X768442D01*
X769405Y660541D01*
X770269Y661039D01*
X770974Y661745D01*
X771473Y662608D01*
X771731Y663572D01*
Y664569D01*
X771473Y665532D01*
X770974Y666396D01*
X770269Y667101D01*
X769405Y667599D01*
X768442Y667858D01*
D02*
G37*
G36*
X1136753Y675275D02*
X1135047D01*
X1133374Y674942D01*
X1131797Y674289D01*
X1130379Y673341D01*
X1129172Y672135D01*
X1128224Y670716D01*
X1127571Y669140D01*
X1127239Y667466D01*
Y665760D01*
X1127571Y664087D01*
X1128224Y662511D01*
X1129172Y661092D01*
X1130379Y659886D01*
X1131797Y658938D01*
X1133374Y658285D01*
X1135047Y657952D01*
X1136753D01*
X1138426Y658285D01*
X1140003Y658938D01*
X1141421Y659886D01*
X1142628Y661092D01*
X1143576Y662511D01*
X1144229Y664087D01*
X1144561Y665760D01*
Y667466D01*
X1144229Y669140D01*
X1143576Y670716D01*
X1142628Y672135D01*
X1141421Y673341D01*
X1140003Y674289D01*
X1138426Y674942D01*
X1136753Y675275D01*
D02*
G37*
G36*
X1021753D02*
X1020047D01*
X1018374Y674942D01*
X1016797Y674289D01*
X1015379Y673341D01*
X1014172Y672135D01*
X1013224Y670716D01*
X1012571Y669140D01*
X1012239Y667466D01*
Y665760D01*
X1012571Y664087D01*
X1013224Y662511D01*
X1014172Y661092D01*
X1015379Y659886D01*
X1016797Y658938D01*
X1018374Y658285D01*
X1020047Y657952D01*
X1021753D01*
X1023426Y658285D01*
X1025003Y658938D01*
X1026421Y659886D01*
X1027628Y661092D01*
X1028576Y662511D01*
X1029229Y664087D01*
X1029561Y665760D01*
Y667466D01*
X1029229Y669140D01*
X1028576Y670716D01*
X1027628Y672135D01*
X1026421Y673341D01*
X1025003Y674289D01*
X1023426Y674942D01*
X1021753Y675275D01*
D02*
G37*
G36*
X791709Y660279D02*
X791043D01*
X790428Y660024D01*
X789958Y659553D01*
X789703Y658938D01*
Y658273D01*
X789958Y657657D01*
X790428Y657187D01*
X791043Y656932D01*
X791709D01*
X792324Y657187D01*
X792795Y657657D01*
X793049Y658273D01*
Y658938D01*
X792795Y659553D01*
X792324Y660024D01*
X791709Y660279D01*
D02*
G37*
G36*
X988733Y657436D02*
X988067D01*
X987452Y657182D01*
X986981Y656711D01*
X986727Y656096D01*
Y655430D01*
X986981Y654815D01*
X987452Y654345D01*
X988067Y654090D01*
X988733D01*
X989348Y654345D01*
X989818Y654815D01*
X990073Y655430D01*
Y656096D01*
X989818Y656711D01*
X989348Y657182D01*
X988733Y657436D01*
D02*
G37*
G36*
X768442Y657858D02*
X767445D01*
X766481Y657599D01*
X765618Y657101D01*
X764913Y656396D01*
X764414Y655532D01*
X764156Y654569D01*
Y653572D01*
X764414Y652608D01*
X764913Y651745D01*
X765618Y651040D01*
X766481Y650541D01*
X767445Y650283D01*
X768442D01*
X769405Y650541D01*
X770269Y651040D01*
X770974Y651745D01*
X771473Y652608D01*
X771731Y653572D01*
Y654569D01*
X771473Y655532D01*
X770974Y656396D01*
X770269Y657101D01*
X769405Y657599D01*
X768442Y657858D01*
D02*
G37*
G36*
X758442D02*
X757445D01*
X756482Y657599D01*
X755618Y657101D01*
X754913Y656396D01*
X754414Y655532D01*
X754156Y654569D01*
Y653572D01*
X754414Y652608D01*
X754913Y651745D01*
X755618Y651040D01*
X756482Y650541D01*
X757445Y650283D01*
X758442D01*
X759405Y650541D01*
X760269Y651040D01*
X760974Y651745D01*
X761473Y652608D01*
X761731Y653572D01*
Y654569D01*
X761473Y655532D01*
X760974Y656396D01*
X760269Y657101D01*
X759405Y657599D01*
X758442Y657858D01*
D02*
G37*
G36*
X788867Y648436D02*
X788201D01*
X787586Y648182D01*
X787115Y647711D01*
X786861Y647096D01*
Y646430D01*
X787115Y645816D01*
X787586Y645345D01*
X788201Y645090D01*
X788867D01*
X789482Y645345D01*
X789952Y645816D01*
X790207Y646430D01*
Y647096D01*
X789952Y647711D01*
X789482Y648182D01*
X788867Y648436D01*
D02*
G37*
G36*
X768442Y647858D02*
X767445D01*
X766481Y647599D01*
X765618Y647101D01*
X764913Y646396D01*
X764414Y645532D01*
X764156Y644569D01*
Y643572D01*
X764414Y642608D01*
X764913Y641745D01*
X765618Y641040D01*
X766481Y640541D01*
X767445Y640283D01*
X768442D01*
X769405Y640541D01*
X770269Y641040D01*
X770974Y641745D01*
X771473Y642608D01*
X771731Y643572D01*
Y644569D01*
X771473Y645532D01*
X770974Y646396D01*
X770269Y647101D01*
X769405Y647599D01*
X768442Y647858D01*
D02*
G37*
G36*
X758442D02*
X757445D01*
X756482Y647599D01*
X755618Y647101D01*
X754913Y646396D01*
X754414Y645532D01*
X754156Y644569D01*
Y643572D01*
X754414Y642608D01*
X754913Y641745D01*
X755618Y641040D01*
X756482Y640541D01*
X757445Y640283D01*
X758442D01*
X759405Y640541D01*
X760269Y641040D01*
X760974Y641745D01*
X761473Y642608D01*
X761731Y643572D01*
Y644569D01*
X761473Y645532D01*
X760974Y646396D01*
X760269Y647101D01*
X759405Y647599D01*
X758442Y647858D01*
D02*
G37*
G36*
X1134936Y646802D02*
X1133848D01*
X1132796Y646521D01*
X1131854Y645976D01*
X1131084Y645207D01*
X1130540Y644264D01*
X1130258Y643213D01*
Y642124D01*
X1130540Y641073D01*
X1131084Y640130D01*
X1131854Y639361D01*
X1132796Y638816D01*
X1133848Y638535D01*
X1134936D01*
X1135988Y638816D01*
X1136930Y639361D01*
X1137700Y640130D01*
X1138244Y641073D01*
X1138526Y642124D01*
Y643213D01*
X1138244Y644264D01*
X1137700Y645207D01*
X1136930Y645976D01*
X1135988Y646521D01*
X1134936Y646802D01*
D02*
G37*
G36*
X928984Y641753D02*
X928319D01*
X927704Y641499D01*
X927233Y641028D01*
X926978Y640413D01*
Y639747D01*
X927233Y639132D01*
X927704Y638662D01*
X928319Y638407D01*
X928984D01*
X929599Y638662D01*
X930070Y639132D01*
X930325Y639747D01*
Y640413D01*
X930070Y641028D01*
X929599Y641499D01*
X928984Y641753D01*
D02*
G37*
G36*
X791272Y640751D02*
X790606D01*
X789992Y640496D01*
X789521Y640026D01*
X789266Y639411D01*
Y638745D01*
X789521Y638130D01*
X789992Y637660D01*
X790606Y637405D01*
X791272D01*
X791887Y637660D01*
X792358Y638130D01*
X792613Y638745D01*
Y639411D01*
X792358Y640026D01*
X791887Y640496D01*
X791272Y640751D01*
D02*
G37*
G36*
X930887Y637700D02*
X930221D01*
X929606Y637445D01*
X929136Y636975D01*
X928881Y636360D01*
Y635694D01*
X929136Y635079D01*
X929606Y634608D01*
X930221Y634353D01*
X930887D01*
X931502Y634608D01*
X931973Y635079D01*
X932227Y635694D01*
Y636360D01*
X931973Y636975D01*
X931502Y637445D01*
X930887Y637700D01*
D02*
G37*
G36*
X758442Y637857D02*
X757445D01*
X756482Y637599D01*
X755618Y637101D01*
X754913Y636396D01*
X754414Y635532D01*
X754156Y634569D01*
Y633571D01*
X754414Y632608D01*
X754913Y631745D01*
X755618Y631039D01*
X756482Y630541D01*
X757445Y630283D01*
X758442D01*
X759405Y630541D01*
X760269Y631039D01*
X760974Y631745D01*
X761473Y632608D01*
X761731Y633571D01*
Y634569D01*
X761473Y635532D01*
X760974Y636396D01*
X760269Y637101D01*
X759405Y637599D01*
X758442Y637857D01*
D02*
G37*
G36*
X938007Y633593D02*
X937341D01*
X936726Y633338D01*
X936256Y632868D01*
X936001Y632253D01*
Y631587D01*
X936256Y630972D01*
X936726Y630501D01*
X937341Y630247D01*
X938007D01*
X938622Y630501D01*
X939093Y630972D01*
X939347Y631587D01*
Y632253D01*
X939093Y632868D01*
X938622Y633338D01*
X938007Y633593D01*
D02*
G37*
G36*
X1152059Y643456D02*
X1150741D01*
X1149448Y643199D01*
X1148230Y642694D01*
X1147134Y641962D01*
X1146201Y641030D01*
X1145469Y639933D01*
X1144964Y638715D01*
X1144707Y637422D01*
Y636104D01*
X1144964Y634811D01*
X1145469Y633593D01*
X1146201Y632497D01*
X1147134Y631564D01*
X1148230Y630832D01*
X1149448Y630327D01*
X1150741Y630070D01*
X1152059D01*
X1153352Y630327D01*
X1154570Y630832D01*
X1155667Y631564D01*
X1156599Y632497D01*
X1157331Y633593D01*
X1157836Y634811D01*
X1158093Y636104D01*
Y637422D01*
X1157836Y638715D01*
X1157331Y639933D01*
X1156599Y641030D01*
X1155667Y641962D01*
X1154570Y642694D01*
X1153352Y643199D01*
X1152059Y643456D01*
D02*
G37*
G36*
X943598Y633099D02*
X942932D01*
X942317Y632844D01*
X941846Y632373D01*
X941591Y631758D01*
Y631093D01*
X941846Y630478D01*
X942317Y630007D01*
X942932Y629752D01*
X943598D01*
X944213Y630007D01*
X944683Y630478D01*
X944938Y631093D01*
Y631758D01*
X944683Y632373D01*
X944213Y632844D01*
X943598Y633099D01*
D02*
G37*
G36*
X791709Y630625D02*
X791043D01*
X790428Y630370D01*
X789958Y629900D01*
X789703Y629285D01*
Y628619D01*
X789958Y628004D01*
X790428Y627533D01*
X791043Y627279D01*
X791709D01*
X792324Y627533D01*
X792795Y628004D01*
X793049Y628619D01*
Y629285D01*
X792795Y629900D01*
X792324Y630370D01*
X791709Y630625D01*
D02*
G37*
G36*
X1134936Y634991D02*
X1133848D01*
X1132796Y634710D01*
X1131854Y634165D01*
X1131084Y633396D01*
X1130540Y632453D01*
X1130258Y631402D01*
Y630313D01*
X1130540Y629262D01*
X1131084Y628319D01*
X1131854Y627550D01*
X1132796Y627005D01*
X1133848Y626724D01*
X1134936D01*
X1135988Y627005D01*
X1136930Y627550D01*
X1137700Y628319D01*
X1138244Y629262D01*
X1138526Y630313D01*
Y631402D01*
X1138244Y632453D01*
X1137700Y633396D01*
X1136930Y634165D01*
X1135988Y634710D01*
X1134936Y634991D01*
D02*
G37*
G36*
X768442Y627857D02*
X767445D01*
X766481Y627599D01*
X765618Y627101D01*
X764913Y626396D01*
X764414Y625532D01*
X764156Y624569D01*
Y623571D01*
X764414Y622608D01*
X764913Y621745D01*
X765618Y621039D01*
X766481Y620541D01*
X767445Y620283D01*
X768442D01*
X769405Y620541D01*
X770269Y621039D01*
X770974Y621745D01*
X771473Y622608D01*
X771731Y623571D01*
Y624569D01*
X771473Y625532D01*
X770974Y626396D01*
X770269Y627101D01*
X769405Y627599D01*
X768442Y627857D01*
D02*
G37*
G36*
X758442D02*
X757445D01*
X756482Y627599D01*
X755618Y627101D01*
X754913Y626396D01*
X754414Y625532D01*
X754156Y624569D01*
Y623571D01*
X754414Y622608D01*
X754913Y621745D01*
X755618Y621039D01*
X756482Y620541D01*
X757445Y620283D01*
X758442D01*
X759405Y620541D01*
X760269Y621039D01*
X760974Y621745D01*
X761473Y622608D01*
X761731Y623571D01*
Y624569D01*
X761473Y625532D01*
X760974Y626396D01*
X760269Y627101D01*
X759405Y627599D01*
X758442Y627857D01*
D02*
G37*
G36*
X965666Y622405D02*
X965001D01*
X964386Y622150D01*
X963915Y621679D01*
X963660Y621064D01*
Y620399D01*
X963915Y619784D01*
X964386Y619313D01*
X965001Y619058D01*
X965666D01*
X966281Y619313D01*
X966752Y619784D01*
X967007Y620399D01*
Y621064D01*
X966752Y621679D01*
X966281Y622150D01*
X965666Y622405D01*
D02*
G37*
G36*
X864798Y620911D02*
X864132D01*
X863517Y620656D01*
X863046Y620185D01*
X862792Y619570D01*
Y618905D01*
X863046Y618290D01*
X863517Y617819D01*
X864132Y617564D01*
X864798D01*
X865413Y617819D01*
X865883Y618290D01*
X866138Y618905D01*
Y619570D01*
X865883Y620185D01*
X865413Y620656D01*
X864798Y620911D01*
D02*
G37*
G36*
X928144Y617161D02*
X927439D01*
X926788Y616891D01*
X926347Y616449D01*
X925904Y616419D01*
X925461Y616449D01*
X925020Y616891D01*
X924369Y617161D01*
X923664D01*
X923013Y616891D01*
X922514Y616393D01*
X922244Y615741D01*
Y615037D01*
X922514Y614385D01*
X922814Y614086D01*
X922939Y613602D01*
X922814Y613117D01*
X922514Y612818D01*
X922244Y612167D01*
Y611462D01*
X922514Y610811D01*
X922814Y610511D01*
X922939Y610027D01*
X922814Y609542D01*
X922514Y609243D01*
X922244Y608592D01*
Y607887D01*
X922514Y607236D01*
X923013Y606737D01*
X923664Y606468D01*
X924369D01*
X925020Y606737D01*
X925518Y607236D01*
X925788Y607887D01*
Y608592D01*
X925518Y609243D01*
X925219Y609542D01*
X925093Y610027D01*
X925219Y610511D01*
X925518Y610811D01*
X925788Y611462D01*
Y612167D01*
X925518Y612818D01*
X925219Y613117D01*
X925093Y613602D01*
X925219Y614086D01*
X925461Y614328D01*
X925904Y614359D01*
X926347Y614328D01*
X926788Y613887D01*
X927145Y613739D01*
X927385Y612968D01*
X927376Y612856D01*
X927337Y612818D01*
X927067Y612167D01*
Y611462D01*
X927337Y610811D01*
X927637Y610511D01*
X927762Y610027D01*
X927637Y609542D01*
X927337Y609243D01*
X927067Y608592D01*
Y607887D01*
X927337Y607236D01*
X927835Y606737D01*
X928487Y606468D01*
X929191D01*
X929843Y606737D01*
X930341Y607236D01*
X930611Y607887D01*
Y608592D01*
X930341Y609243D01*
X930042Y609542D01*
X929916Y610027D01*
X930042Y610511D01*
X930341Y610811D01*
X930611Y611462D01*
Y612167D01*
X930341Y612818D01*
X929843Y613316D01*
X929486Y613464D01*
X929246Y614235D01*
X929255Y614347D01*
X929294Y614385D01*
X929563Y615037D01*
Y615741D01*
X929294Y616393D01*
X928795Y616891D01*
X928144Y617161D01*
D02*
G37*
G36*
X869171Y619100D02*
X868505D01*
X867890Y618845D01*
X867420Y618374D01*
X867165Y617759D01*
Y617094D01*
X867420Y616479D01*
X867890Y616008D01*
X868505Y615753D01*
X869171D01*
X869786Y616008D01*
X870257Y616479D01*
X870511Y617094D01*
Y617759D01*
X870257Y618374D01*
X869786Y618845D01*
X869171Y619100D01*
D02*
G37*
G36*
X1002364Y633550D02*
X1000436D01*
X998545Y633174D01*
X996764Y632437D01*
X995161Y631365D01*
X993798Y630002D01*
X992727Y628399D01*
X991989Y626618D01*
X991613Y624727D01*
Y622799D01*
X991989Y620908D01*
X992727Y619127D01*
X993798Y617524D01*
X995161Y616161D01*
X996764Y615090D01*
X998545Y614352D01*
X1000436Y613976D01*
X1002364D01*
X1004255Y614352D01*
X1006036Y615090D01*
X1007639Y616161D01*
X1009002Y617524D01*
X1010073Y619127D01*
X1010811Y620908D01*
X1011187Y622799D01*
Y624727D01*
X1010811Y626618D01*
X1010073Y628399D01*
X1009002Y630002D01*
X1007639Y631365D01*
X1006036Y632437D01*
X1004255Y633174D01*
X1002364Y633550D01*
D02*
G37*
G36*
X1109507Y614436D02*
X1108842D01*
X1108227Y614182D01*
X1107756Y613711D01*
X1107501Y613096D01*
Y612430D01*
X1107756Y611815D01*
X1108227Y611344D01*
X1108842Y611090D01*
X1109507D01*
X1110122Y611344D01*
X1110593Y611815D01*
X1110848Y612430D01*
Y613096D01*
X1110593Y613711D01*
X1110122Y614182D01*
X1109507Y614436D01*
D02*
G37*
G36*
X768442Y617858D02*
X767445D01*
X766481Y617599D01*
X765618Y617101D01*
X764913Y616396D01*
X764414Y615532D01*
X764156Y614569D01*
Y613572D01*
X764414Y612608D01*
X764913Y611745D01*
X765618Y611039D01*
X766481Y610541D01*
X767445Y610283D01*
X768442D01*
X769405Y610541D01*
X770269Y611039D01*
X770974Y611745D01*
X771473Y612608D01*
X771731Y613572D01*
Y614569D01*
X771473Y615532D01*
X770974Y616396D01*
X770269Y617101D01*
X769405Y617599D01*
X768442Y617858D01*
D02*
G37*
G36*
X852659Y610720D02*
X851993D01*
X851378Y610465D01*
X850908Y609994D01*
X850653Y609379D01*
Y608714D01*
X850908Y608099D01*
X851378Y607628D01*
X851993Y607373D01*
X852659D01*
X853274Y607628D01*
X853745Y608099D01*
X853999Y608714D01*
Y609379D01*
X853745Y609994D01*
X853274Y610465D01*
X852659Y610720D01*
D02*
G37*
G36*
X983324Y604747D02*
X982658D01*
X982043Y604493D01*
X981572Y604022D01*
X981318Y603407D01*
Y602741D01*
X981572Y602126D01*
X982043Y601655D01*
X982658Y601401D01*
X983324D01*
X983939Y601655D01*
X984409Y602126D01*
X984664Y602741D01*
Y603407D01*
X984409Y604022D01*
X983939Y604493D01*
X983324Y604747D01*
D02*
G37*
G36*
X768442Y607858D02*
X767445D01*
X766481Y607599D01*
X765618Y607101D01*
X764913Y606396D01*
X764414Y605532D01*
X764156Y604569D01*
Y603572D01*
X764414Y602608D01*
X764913Y601745D01*
X765618Y601040D01*
X766481Y600541D01*
X767445Y600283D01*
X768442D01*
X769405Y600541D01*
X770269Y601040D01*
X770974Y601745D01*
X771473Y602608D01*
X771731Y603572D01*
Y604569D01*
X771473Y605532D01*
X770974Y606396D01*
X770269Y607101D01*
X769405Y607599D01*
X768442Y607858D01*
D02*
G37*
G36*
X758442D02*
X757445D01*
X756482Y607599D01*
X755618Y607101D01*
X754913Y606396D01*
X754414Y605532D01*
X754156Y604569D01*
Y603572D01*
X754414Y602608D01*
X754913Y601745D01*
X755618Y601040D01*
X756482Y600541D01*
X757445Y600283D01*
X758442D01*
X759405Y600541D01*
X760269Y601040D01*
X760974Y601745D01*
X761473Y602608D01*
X761731Y603572D01*
Y604569D01*
X761473Y605532D01*
X760974Y606396D01*
X760269Y607101D01*
X759405Y607599D01*
X758442Y607858D01*
D02*
G37*
G36*
X779755Y601665D02*
X779090D01*
X778475Y601410D01*
X778004Y600939D01*
X777749Y600324D01*
Y599658D01*
X778004Y599044D01*
X778475Y598573D01*
X779090Y598318D01*
X779755D01*
X780370Y598573D01*
X780841Y599044D01*
X781096Y599658D01*
Y600324D01*
X780841Y600939D01*
X780370Y601410D01*
X779755Y601665D01*
D02*
G37*
G36*
X1134936Y605802D02*
X1133848D01*
X1132796Y605521D01*
X1131854Y604976D01*
X1131084Y604207D01*
X1130540Y603264D01*
X1130258Y602213D01*
Y601124D01*
X1130540Y600073D01*
X1131084Y599130D01*
X1131854Y598361D01*
X1132796Y597816D01*
X1133848Y597535D01*
X1134936D01*
X1135988Y597816D01*
X1136930Y598361D01*
X1137700Y599130D01*
X1138244Y600073D01*
X1138526Y601124D01*
Y602213D01*
X1138244Y603264D01*
X1137700Y604207D01*
X1136930Y604976D01*
X1135988Y605521D01*
X1134936Y605802D01*
D02*
G37*
G36*
X787612Y594977D02*
X786947D01*
X786332Y594723D01*
X785861Y594252D01*
X785606Y593637D01*
Y592971D01*
X785861Y592356D01*
X786332Y591886D01*
X786947Y591631D01*
X787612D01*
X788227Y591886D01*
X788698Y592356D01*
X788953Y592971D01*
Y593637D01*
X788698Y594252D01*
X788227Y594723D01*
X787612Y594977D01*
D02*
G37*
G36*
X768442Y597858D02*
X767445D01*
X766481Y597599D01*
X765618Y597101D01*
X764913Y596396D01*
X764414Y595532D01*
X764156Y594569D01*
Y593572D01*
X764414Y592608D01*
X764913Y591745D01*
X765618Y591040D01*
X766481Y590541D01*
X767445Y590283D01*
X768442D01*
X769405Y590541D01*
X770269Y591040D01*
X770974Y591745D01*
X771473Y592608D01*
X771731Y593572D01*
Y594569D01*
X771473Y595532D01*
X770974Y596396D01*
X770269Y597101D01*
X769405Y597599D01*
X768442Y597858D01*
D02*
G37*
G36*
X1152059Y602456D02*
X1150741D01*
X1149448Y602199D01*
X1148230Y601694D01*
X1147134Y600962D01*
X1146201Y600030D01*
X1145469Y598933D01*
X1144964Y597715D01*
X1144707Y596422D01*
Y595104D01*
X1144964Y593811D01*
X1145469Y592593D01*
X1146201Y591497D01*
X1147134Y590564D01*
X1148230Y589832D01*
X1149448Y589327D01*
X1150741Y589070D01*
X1152059D01*
X1153352Y589327D01*
X1154570Y589832D01*
X1155667Y590564D01*
X1156599Y591497D01*
X1157331Y592593D01*
X1157836Y593811D01*
X1158093Y595104D01*
Y596422D01*
X1157836Y597715D01*
X1157331Y598933D01*
X1156599Y600030D01*
X1155667Y600962D01*
X1154570Y601694D01*
X1153352Y602199D01*
X1152059Y602456D01*
D02*
G37*
G36*
X1134936Y593991D02*
X1133848D01*
X1132796Y593710D01*
X1131854Y593165D01*
X1131084Y592396D01*
X1130540Y591453D01*
X1130258Y590402D01*
Y589313D01*
X1130540Y588262D01*
X1131084Y587319D01*
X1131854Y586550D01*
X1132796Y586005D01*
X1133848Y585724D01*
X1134936D01*
X1135988Y586005D01*
X1136930Y586550D01*
X1137700Y587319D01*
X1138244Y588262D01*
X1138526Y589313D01*
Y590402D01*
X1138244Y591453D01*
X1137700Y592396D01*
X1136930Y593165D01*
X1135988Y593710D01*
X1134936Y593991D01*
D02*
G37*
G36*
X827512Y595165D02*
X826847D01*
X826232Y594910D01*
X825761Y594439D01*
X825506Y593824D01*
Y593158D01*
X825761Y592544D01*
X825391Y591799D01*
X825000D01*
X824386Y591545D01*
X823915Y591074D01*
X823660Y590459D01*
Y589793D01*
X823915Y589179D01*
X824241Y588853D01*
X824061Y588372D01*
X823891Y588125D01*
X823303D01*
X822688Y587871D01*
X822218Y587400D01*
X821963Y586785D01*
Y586119D01*
X822218Y585504D01*
X822688Y585034D01*
X823303Y584779D01*
X823969D01*
X824584Y585034D01*
X825055Y585504D01*
X825309Y586119D01*
Y586785D01*
X825055Y587400D01*
X824729Y587726D01*
X824908Y588206D01*
X825078Y588453D01*
X825666D01*
X826281Y588708D01*
X826752Y589179D01*
X827007Y589793D01*
Y590459D01*
X826752Y591074D01*
X827121Y591818D01*
X827512D01*
X828127Y592073D01*
X828598Y592544D01*
X828853Y593158D01*
Y593824D01*
X828598Y594439D01*
X828127Y594910D01*
X827512Y595165D01*
D02*
G37*
G36*
X1008618Y586008D02*
X1007952D01*
X1007337Y585753D01*
X1006866Y585282D01*
X1006612Y584667D01*
Y584001D01*
X1006866Y583387D01*
X1007337Y582916D01*
X1007952Y582661D01*
X1008618D01*
X1009233Y582916D01*
X1009703Y583387D01*
X1009958Y584001D01*
Y584667D01*
X1009703Y585282D01*
X1009233Y585753D01*
X1008618Y586008D01*
D02*
G37*
G36*
X768442Y587857D02*
X767445D01*
X766481Y587599D01*
X765618Y587101D01*
X764913Y586396D01*
X764414Y585532D01*
X764156Y584569D01*
Y583571D01*
X764414Y582608D01*
X764913Y581745D01*
X765618Y581039D01*
X766481Y580541D01*
X767445Y580283D01*
X768442D01*
X769405Y580541D01*
X770269Y581039D01*
X770974Y581745D01*
X771473Y582608D01*
X771731Y583571D01*
Y584569D01*
X771473Y585532D01*
X770974Y586396D01*
X770269Y587101D01*
X769405Y587599D01*
X768442Y587857D01*
D02*
G37*
G36*
X758442D02*
X757445D01*
X756482Y587599D01*
X755618Y587101D01*
X754913Y586396D01*
X754414Y585532D01*
X754156Y584569D01*
Y583571D01*
X754414Y582608D01*
X754913Y581745D01*
X755618Y581039D01*
X756482Y580541D01*
X757445Y580283D01*
X758442D01*
X759405Y580541D01*
X760269Y581039D01*
X760974Y581745D01*
X761473Y582608D01*
X761731Y583571D01*
Y584569D01*
X761473Y585532D01*
X760974Y586396D01*
X760269Y587101D01*
X759405Y587599D01*
X758442Y587857D01*
D02*
G37*
G36*
X859340Y578936D02*
X858674D01*
X858059Y578681D01*
X857588Y578211D01*
X857334Y577596D01*
Y576930D01*
X857588Y576315D01*
X858059Y575844D01*
X858674Y575590D01*
X859340D01*
X859955Y575844D01*
X860425Y576315D01*
X860680Y576930D01*
Y577596D01*
X860425Y578211D01*
X859955Y578681D01*
X859340Y578936D01*
D02*
G37*
G36*
X768442Y577857D02*
X767445D01*
X766481Y577599D01*
X765618Y577101D01*
X764913Y576396D01*
X764414Y575532D01*
X764156Y574569D01*
Y573571D01*
X764414Y572608D01*
X764913Y571745D01*
X765618Y571039D01*
X766481Y570541D01*
X767445Y570283D01*
X768442D01*
X769405Y570541D01*
X770269Y571039D01*
X770974Y571745D01*
X771473Y572608D01*
X771731Y573571D01*
Y574569D01*
X771473Y575532D01*
X770974Y576396D01*
X770269Y577101D01*
X769405Y577599D01*
X768442Y577857D01*
D02*
G37*
G36*
X758442D02*
X757445D01*
X756482Y577599D01*
X755618Y577101D01*
X754913Y576396D01*
X754414Y575532D01*
X754156Y574569D01*
Y573571D01*
X754414Y572608D01*
X754913Y571745D01*
X755618Y571039D01*
X756482Y570541D01*
X757445Y570283D01*
X758442D01*
X759405Y570541D01*
X760269Y571039D01*
X760974Y571745D01*
X761473Y572608D01*
X761731Y573571D01*
Y574569D01*
X761473Y575532D01*
X760974Y576396D01*
X760269Y577101D01*
X759405Y577599D01*
X758442Y577857D01*
D02*
G37*
G36*
X1105332Y572892D02*
X1104667D01*
X1104052Y572638D01*
X1103581Y572167D01*
X1103326Y571552D01*
Y570886D01*
X1103581Y570271D01*
X1104052Y569801D01*
X1104667Y569546D01*
X1105332D01*
X1105947Y569801D01*
X1106418Y570271D01*
X1106673Y570886D01*
Y571552D01*
X1106418Y572167D01*
X1105947Y572638D01*
X1105332Y572892D01*
D02*
G37*
G36*
X1156899Y572550D02*
X1155901D01*
X1154938Y572292D01*
X1154074Y571794D01*
X1153369Y571089D01*
X1152871Y570225D01*
X1152613Y569262D01*
Y568264D01*
X1152871Y567301D01*
X1153369Y566437D01*
X1154074Y565732D01*
X1154938Y565234D01*
X1155901Y564976D01*
X1156899D01*
X1157862Y565234D01*
X1158725Y565732D01*
X1159431Y566437D01*
X1159929Y567301D01*
X1160187Y568264D01*
Y569262D01*
X1159929Y570225D01*
X1159431Y571089D01*
X1158725Y571794D01*
X1157862Y572292D01*
X1156899Y572550D01*
D02*
G37*
G36*
X997083Y585700D02*
X995717D01*
X994376Y585433D01*
X993114Y584910D01*
X991978Y584151D01*
X991012Y583185D01*
X990252Y582049D01*
X989730Y580786D01*
X989463Y579446D01*
Y578080D01*
X989730Y576740D01*
X990252Y575477D01*
X991012Y574341D01*
X991978Y573375D01*
X993114Y572615D01*
X993626Y572404D01*
X993638Y572387D01*
X993772Y571491D01*
X993369Y571089D01*
X992871Y570225D01*
X992613Y569262D01*
Y568264D01*
X992871Y567301D01*
X993369Y566437D01*
X994075Y565732D01*
X994938Y565234D01*
X995901Y564976D01*
X996899D01*
X997862Y565234D01*
X998726Y565732D01*
X999431Y566437D01*
X999929Y567301D01*
X1000187Y568264D01*
Y569262D01*
X999929Y570225D01*
X999431Y571089D01*
X999028Y571491D01*
X999162Y572387D01*
X999174Y572404D01*
X999686Y572615D01*
X1000822Y573375D01*
X1001788Y574341D01*
X1002547Y575477D01*
X1003070Y576740D01*
X1003337Y578080D01*
Y579446D01*
X1003070Y580786D01*
X1002547Y582049D01*
X1001788Y583185D01*
X1000822Y584151D01*
X999686Y584910D01*
X998423Y585433D01*
X997083Y585700D01*
D02*
G37*
G36*
X758442Y567858D02*
X757445D01*
X756482Y567599D01*
X755618Y567101D01*
X754913Y566396D01*
X754414Y565532D01*
X754156Y564569D01*
Y563572D01*
X754414Y562608D01*
X754913Y561745D01*
X755618Y561039D01*
X756482Y560541D01*
X757445Y560283D01*
X758442D01*
X759405Y560541D01*
X760269Y561039D01*
X760974Y561745D01*
X761473Y562608D01*
X761731Y563572D01*
Y564569D01*
X761473Y565532D01*
X760974Y566396D01*
X760269Y567101D01*
X759405Y567599D01*
X758442Y567858D01*
D02*
G37*
G36*
X870119Y563436D02*
X869453D01*
X868838Y563181D01*
X868367Y562711D01*
X868113Y562096D01*
Y561430D01*
X868367Y560815D01*
X868838Y560345D01*
X869453Y560090D01*
X870119D01*
X870734Y560345D01*
X871204Y560815D01*
X871459Y561430D01*
Y562096D01*
X871204Y562711D01*
X870734Y563181D01*
X870119Y563436D01*
D02*
G37*
G36*
X823780Y559232D02*
X823115D01*
X822500Y558977D01*
X822029Y558506D01*
X821774Y557892D01*
Y557226D01*
X822029Y556611D01*
X822500Y556140D01*
X823115Y555886D01*
X823780D01*
X824395Y556140D01*
X824866Y556611D01*
X825121Y557226D01*
Y557892D01*
X824866Y558506D01*
X824395Y558977D01*
X823780Y559232D01*
D02*
G37*
G36*
X1156899Y562550D02*
X1155901D01*
X1154938Y562292D01*
X1154074Y561794D01*
X1153369Y561089D01*
X1152871Y560225D01*
X1152613Y559262D01*
Y558264D01*
X1152871Y557301D01*
X1153369Y556437D01*
X1154074Y555732D01*
X1154938Y555234D01*
X1155901Y554976D01*
X1156899D01*
X1157862Y555234D01*
X1158725Y555732D01*
X1159431Y556437D01*
X1159929Y557301D01*
X1160187Y558264D01*
Y559262D01*
X1159929Y560225D01*
X1159431Y561089D01*
X1158725Y561794D01*
X1157862Y562292D01*
X1156899Y562550D01*
D02*
G37*
G36*
X996899D02*
X995901D01*
X994938Y562292D01*
X994075Y561794D01*
X993369Y561089D01*
X992871Y560225D01*
X992613Y559262D01*
Y558264D01*
X992871Y557301D01*
X993369Y556437D01*
X994075Y555732D01*
X994938Y555234D01*
X995901Y554976D01*
X996899D01*
X997862Y555234D01*
X998726Y555732D01*
X999431Y556437D01*
X999929Y557301D01*
X1000187Y558264D01*
Y559262D01*
X999929Y560225D01*
X999431Y561089D01*
X998726Y561794D01*
X997862Y562292D01*
X996899Y562550D01*
D02*
G37*
G36*
X1156899Y552550D02*
X1155901D01*
X1154938Y552292D01*
X1154074Y551794D01*
X1153369Y551088D01*
X1152871Y550225D01*
X1152613Y549262D01*
Y548264D01*
X1152871Y547301D01*
X1153369Y546438D01*
X1154074Y545732D01*
X1154938Y545234D01*
X1155901Y544976D01*
X1156899D01*
X1157862Y545234D01*
X1158725Y545732D01*
X1159431Y546438D01*
X1159929Y547301D01*
X1160187Y548264D01*
Y549262D01*
X1159929Y550225D01*
X1159431Y551088D01*
X1158725Y551794D01*
X1157862Y552292D01*
X1156899Y552550D01*
D02*
G37*
G36*
X996899D02*
X995901D01*
X994938Y552292D01*
X994075Y551794D01*
X993369Y551088D01*
X992871Y550225D01*
X992613Y549262D01*
Y548264D01*
X992871Y547301D01*
X993369Y546438D01*
X994075Y545732D01*
X994938Y545234D01*
X995901Y544976D01*
X996899D01*
X997862Y545234D01*
X998726Y545732D01*
X999431Y546438D01*
X999929Y547301D01*
X1000187Y548264D01*
Y549262D01*
X999929Y550225D01*
X999431Y551088D01*
X998726Y551794D01*
X997862Y552292D01*
X996899Y552550D01*
D02*
G37*
G36*
X1156899Y542550D02*
X1155901D01*
X1154938Y542292D01*
X1154074Y541794D01*
X1153369Y541088D01*
X1152871Y540225D01*
X1152613Y539262D01*
Y538264D01*
X1152871Y537301D01*
X1153369Y536438D01*
X1154074Y535732D01*
X1154938Y535234D01*
X1155901Y534976D01*
X1156899D01*
X1157862Y535234D01*
X1158725Y535732D01*
X1159431Y536438D01*
X1159929Y537301D01*
X1160187Y538264D01*
Y539262D01*
X1159929Y540225D01*
X1159431Y541088D01*
X1158725Y541794D01*
X1157862Y542292D01*
X1156899Y542550D01*
D02*
G37*
G36*
X996899D02*
X995901D01*
X994938Y542292D01*
X994075Y541794D01*
X993369Y541088D01*
X992871Y540225D01*
X992613Y539262D01*
Y538264D01*
X992871Y537301D01*
X993369Y536438D01*
X994075Y535732D01*
X994938Y535234D01*
X995901Y534976D01*
X996899D01*
X997862Y535234D01*
X998726Y535732D01*
X999431Y536438D01*
X999929Y537301D01*
X1000187Y538264D01*
Y539262D01*
X999929Y540225D01*
X999431Y541088D01*
X998726Y541794D01*
X997862Y542292D01*
X996899Y542550D01*
D02*
G37*
G36*
X853747Y535440D02*
X853081D01*
X852466Y535185D01*
X851995Y534715D01*
X851741Y534100D01*
Y533434D01*
X851995Y532819D01*
X852466Y532348D01*
X853081Y532094D01*
X853747D01*
X854362Y532348D01*
X854832Y532819D01*
X855087Y533434D01*
Y534100D01*
X854832Y534715D01*
X854362Y535185D01*
X853747Y535440D01*
D02*
G37*
G36*
X956879Y557889D02*
X954834D01*
X952814Y557569D01*
X950869Y556937D01*
X949047Y556009D01*
X947393Y554807D01*
X945947Y553361D01*
X944745Y551706D01*
X943816Y549884D01*
X943184Y547939D01*
X942865Y545919D01*
Y543874D01*
X943184Y541855D01*
X943816Y539910D01*
X944745Y538088D01*
X945947Y536433D01*
X947393Y534987D01*
X949047Y533785D01*
X950869Y532857D01*
X952814Y532225D01*
X954834Y531905D01*
X956879D01*
X958899Y532225D01*
X960844Y532857D01*
X962666Y533785D01*
X964320Y534987D01*
X965767Y536433D01*
X966969Y538088D01*
X967897Y539910D01*
X968529Y541855D01*
X968849Y543874D01*
Y545919D01*
X968529Y547939D01*
X967897Y549884D01*
X966969Y551706D01*
X965767Y553361D01*
X964320Y554807D01*
X962666Y556009D01*
X960844Y556937D01*
X958899Y557569D01*
X956879Y557889D01*
D02*
G37*
G36*
X763966D02*
X761921D01*
X759901Y557569D01*
X757956Y556937D01*
X756134Y556009D01*
X754480Y554807D01*
X753033Y553361D01*
X751831Y551706D01*
X750903Y549884D01*
X750271Y547939D01*
X749951Y545919D01*
Y543874D01*
X750271Y541855D01*
X750903Y539910D01*
X751831Y538088D01*
X753033Y536433D01*
X754480Y534987D01*
X756134Y533785D01*
X757956Y532857D01*
X759901Y532225D01*
X761921Y531905D01*
X763966D01*
X765986Y532225D01*
X767931Y532857D01*
X769753Y533785D01*
X771407Y534987D01*
X772853Y536433D01*
X774055Y538088D01*
X774984Y539910D01*
X775616Y541855D01*
X775936Y543874D01*
Y545919D01*
X775616Y547939D01*
X774984Y549884D01*
X774055Y551706D01*
X772853Y553361D01*
X771407Y554807D01*
X769753Y556009D01*
X767931Y556937D01*
X765986Y557569D01*
X763966Y557889D01*
D02*
G37*
G36*
X841457Y533898D02*
X840792D01*
X840177Y533643D01*
X839706Y533173D01*
X839451Y532557D01*
Y531892D01*
X839706Y531277D01*
X840177Y530806D01*
X840792Y530551D01*
X841457D01*
X842072Y530806D01*
X842543Y531277D01*
X842798Y531892D01*
Y532557D01*
X842543Y533173D01*
X842072Y533643D01*
X841457Y533898D01*
D02*
G37*
G36*
X1156899Y532550D02*
X1155901D01*
X1154938Y532292D01*
X1154074Y531794D01*
X1153369Y531088D01*
X1152871Y530225D01*
X1152613Y529262D01*
Y528264D01*
X1152871Y527301D01*
X1153369Y526438D01*
X1154074Y525732D01*
X1154938Y525234D01*
X1155901Y524976D01*
X1156899D01*
X1157862Y525234D01*
X1158725Y525732D01*
X1159431Y526438D01*
X1159929Y527301D01*
X1160187Y528264D01*
Y529262D01*
X1159929Y530225D01*
X1159431Y531088D01*
X1158725Y531794D01*
X1157862Y532292D01*
X1156899Y532550D01*
D02*
G37*
G36*
X996899D02*
X995901D01*
X994938Y532292D01*
X994075Y531794D01*
X993369Y531088D01*
X992871Y530225D01*
X992613Y529262D01*
Y528264D01*
X992871Y527301D01*
X993369Y526438D01*
X994075Y525732D01*
X994938Y525234D01*
X995901Y524976D01*
X996899D01*
X997862Y525234D01*
X998726Y525732D01*
X999431Y526438D01*
X999929Y527301D01*
X1000187Y528264D01*
Y529262D01*
X999929Y530225D01*
X999431Y531088D01*
X998726Y531794D01*
X997862Y532292D01*
X996899Y532550D01*
D02*
G37*
G36*
X1156899Y522550D02*
X1155901D01*
X1154938Y522292D01*
X1154074Y521794D01*
X1153369Y521089D01*
X1152871Y520225D01*
X1152613Y519262D01*
Y518264D01*
X1152871Y517301D01*
X1153369Y516437D01*
X1154074Y515732D01*
X1154938Y515234D01*
X1155901Y514976D01*
X1156899D01*
X1157862Y515234D01*
X1158725Y515732D01*
X1159431Y516437D01*
X1159929Y517301D01*
X1160187Y518264D01*
Y519262D01*
X1159929Y520225D01*
X1159431Y521089D01*
X1158725Y521794D01*
X1157862Y522292D01*
X1156899Y522550D01*
D02*
G37*
G36*
X996899D02*
X995901D01*
X994938Y522292D01*
X994075Y521794D01*
X993369Y521089D01*
X992871Y520225D01*
X992613Y519262D01*
Y518264D01*
X992871Y517301D01*
X993369Y516437D01*
X994075Y515732D01*
X994938Y515234D01*
X995901Y514976D01*
X996899D01*
X997862Y515234D01*
X998726Y515732D01*
X999431Y516437D01*
X999929Y517301D01*
X1000187Y518264D01*
Y519262D01*
X999929Y520225D01*
X999431Y521089D01*
X998726Y521794D01*
X997862Y522292D01*
X996899Y522550D01*
D02*
G37*
G36*
X813703Y508406D02*
X812433D01*
X811416Y508133D01*
X810398Y508406D01*
X809128D01*
X808205Y508159D01*
X807282Y508406D01*
X806013D01*
X804786Y508077D01*
X803686Y507442D01*
X802788Y506544D01*
X802153Y505445D01*
X801825Y504218D01*
Y502948D01*
X802153Y501722D01*
X802788Y500622D01*
X803686Y499724D01*
X804176Y499441D01*
X804638Y498811D01*
X804439Y498438D01*
X804012Y497699D01*
X803683Y496472D01*
Y495202D01*
X804012Y493976D01*
X804156Y493726D01*
X804012Y493476D01*
X803683Y492249D01*
Y490979D01*
X803754Y490716D01*
X802904Y490488D01*
X801805Y489853D01*
X800907Y488955D01*
X800272Y487855D01*
X799943Y486629D01*
Y485359D01*
X800272Y484132D01*
X800907Y483033D01*
X800968Y482972D01*
X800907Y482911D01*
X800272Y481811D01*
X799943Y480584D01*
Y479315D01*
X800272Y478088D01*
X800907Y476988D01*
X801805Y476090D01*
X802904Y475455D01*
X804131Y475127D01*
X805401D01*
X806627Y475455D01*
X807727Y476090D01*
X808625Y476988D01*
X809260Y478088D01*
X809589Y479315D01*
Y480584D01*
X809260Y481811D01*
X808625Y482911D01*
X808564Y482972D01*
X808625Y483033D01*
X809260Y484132D01*
X809589Y485359D01*
Y486629D01*
X809518Y486892D01*
X810368Y487120D01*
X811468Y487755D01*
X812366Y488653D01*
X813000Y489753D01*
X813329Y490979D01*
Y492249D01*
X813000Y493476D01*
X812856Y493726D01*
X813000Y493976D01*
X813329Y495202D01*
Y496472D01*
X813000Y497699D01*
X812842Y497973D01*
X813297Y498760D01*
X813703D01*
X814930Y499089D01*
X816029Y499724D01*
X816927Y500622D01*
X817562Y501722D01*
X817891Y502948D01*
Y504218D01*
X817562Y505445D01*
X816927Y506544D01*
X816029Y507442D01*
X814930Y508077D01*
X813703Y508406D01*
D02*
G37*
G36*
X943006Y510963D02*
X942340D01*
X941725Y510708D01*
X941255Y510237D01*
X941000Y509622D01*
Y508957D01*
X941255Y508342D01*
X941725Y507871D01*
X942340Y507616D01*
X943006D01*
X943621Y507871D01*
X944092Y508342D01*
X944346Y508957D01*
Y509622D01*
X944092Y510237D01*
X943621Y510708D01*
X943006Y510963D01*
D02*
G37*
G36*
X1156899Y512550D02*
X1155901D01*
X1154938Y512292D01*
X1154074Y511794D01*
X1153369Y511089D01*
X1152871Y510225D01*
X1152613Y509262D01*
Y508264D01*
X1152871Y507301D01*
X1153369Y506437D01*
X1154074Y505732D01*
X1154938Y505234D01*
X1155901Y504976D01*
X1156899D01*
X1157862Y505234D01*
X1158725Y505732D01*
X1159431Y506437D01*
X1159929Y507301D01*
X1160187Y508264D01*
Y509262D01*
X1159929Y510225D01*
X1159431Y511089D01*
X1158725Y511794D01*
X1157862Y512292D01*
X1156899Y512550D01*
D02*
G37*
G36*
X996899D02*
X995901D01*
X994938Y512292D01*
X994075Y511794D01*
X993369Y511089D01*
X992871Y510225D01*
X992613Y509262D01*
Y508264D01*
X992871Y507301D01*
X993369Y506437D01*
X994075Y505732D01*
X994938Y505234D01*
X995901Y504976D01*
X996899D01*
X997862Y505234D01*
X998726Y505732D01*
X999431Y506437D01*
X999929Y507301D01*
X1000187Y508264D01*
Y509262D01*
X999929Y510225D01*
X999431Y511089D01*
X998726Y511794D01*
X997862Y512292D01*
X996899Y512550D01*
D02*
G37*
G36*
X858124Y508586D02*
X856854D01*
X855628Y508257D01*
X854528Y507622D01*
X853630Y506724D01*
X852995Y505624D01*
X852666Y504398D01*
Y503128D01*
X852995Y501901D01*
X853630Y500802D01*
X854528Y499904D01*
X855628Y499269D01*
X856854Y498940D01*
X858124D01*
X859351Y499269D01*
X860450Y499904D01*
X861348Y500802D01*
X861983Y501901D01*
X862312Y503128D01*
Y504398D01*
X861983Y505624D01*
X861348Y506724D01*
X860450Y507622D01*
X859351Y508257D01*
X858124Y508586D01*
D02*
G37*
G36*
X840560D02*
X839290D01*
X838064Y508257D01*
X836964Y507622D01*
X836066Y506724D01*
X835431Y505624D01*
X835102Y504398D01*
Y503128D01*
X835431Y501901D01*
X836066Y500802D01*
X836964Y499904D01*
X838064Y499269D01*
X839290Y498940D01*
X840560D01*
X841787Y499269D01*
X842887Y499904D01*
X843784Y500802D01*
X844419Y501901D01*
X844748Y503128D01*
Y504398D01*
X844419Y505624D01*
X843784Y506724D01*
X842887Y507622D01*
X841787Y508257D01*
X840560Y508586D01*
D02*
G37*
G36*
X1156899Y502550D02*
X1155901D01*
X1154938Y502292D01*
X1154074Y501794D01*
X1153369Y501088D01*
X1152871Y500225D01*
X1152613Y499262D01*
Y498264D01*
X1152871Y497301D01*
X1153369Y496438D01*
X1154074Y495732D01*
X1154938Y495234D01*
X1155901Y494976D01*
X1156899D01*
X1157862Y495234D01*
X1158725Y495732D01*
X1159431Y496438D01*
X1159929Y497301D01*
X1160187Y498264D01*
Y499262D01*
X1159929Y500225D01*
X1159431Y501088D01*
X1158725Y501794D01*
X1157862Y502292D01*
X1156899Y502550D01*
D02*
G37*
G36*
X996899D02*
X995901D01*
X994938Y502292D01*
X994075Y501794D01*
X993369Y501088D01*
X992871Y500225D01*
X992613Y499262D01*
Y498264D01*
X992871Y497301D01*
X993369Y496438D01*
X994075Y495732D01*
X994938Y495234D01*
X995901Y494976D01*
X996899D01*
X997862Y495234D01*
X998726Y495732D01*
X999431Y496438D01*
X999929Y497301D01*
X1000187Y498264D01*
Y499262D01*
X999929Y500225D01*
X999431Y501088D01*
X998726Y501794D01*
X997862Y502292D01*
X996899Y502550D01*
D02*
G37*
G36*
Y492550D02*
X995901D01*
X994938Y492292D01*
X994075Y491794D01*
X993369Y491088D01*
X992871Y490225D01*
X992613Y489262D01*
Y488264D01*
X992871Y487301D01*
X993369Y486438D01*
X994075Y485732D01*
X994938Y485234D01*
X995901Y484976D01*
X996899D01*
X997862Y485234D01*
X998726Y485732D01*
X999431Y486438D01*
X999929Y487301D01*
X1000187Y488264D01*
Y489262D01*
X999929Y490225D01*
X999431Y491088D01*
X998726Y491794D01*
X997862Y492292D01*
X996899Y492550D01*
D02*
G37*
G36*
X1076184Y491716D02*
X1075096D01*
X1074045Y491434D01*
X1073102Y490890D01*
X1072332Y490120D01*
X1071788Y489178D01*
X1071506Y488126D01*
Y487038D01*
X1071788Y485986D01*
X1072332Y485044D01*
X1073102Y484274D01*
X1074045Y483730D01*
X1075096Y483448D01*
X1076184D01*
X1077236Y483730D01*
X1078178Y484274D01*
X1078948Y485044D01*
X1079492Y485986D01*
X1079774Y487038D01*
Y488126D01*
X1079492Y489178D01*
X1078948Y490120D01*
X1078178Y490890D01*
X1077236Y491434D01*
X1076184Y491716D01*
D02*
G37*
G36*
X1052562D02*
X1051474D01*
X1050422Y491434D01*
X1049480Y490890D01*
X1048710Y490120D01*
X1048166Y489178D01*
X1047884Y488126D01*
Y487038D01*
X1048166Y485986D01*
X1048710Y485044D01*
X1049480Y484274D01*
X1050422Y483730D01*
X1051474Y483448D01*
X1052562D01*
X1053614Y483730D01*
X1054556Y484274D01*
X1055326Y485044D01*
X1055870Y485986D01*
X1056152Y487038D01*
Y488126D01*
X1055870Y489178D01*
X1055326Y490120D01*
X1054556Y490890D01*
X1053614Y491434D01*
X1052562Y491716D01*
D02*
G37*
G36*
X1028940D02*
X1027852D01*
X1026801Y491434D01*
X1025858Y490890D01*
X1025088Y490120D01*
X1024544Y489178D01*
X1024262Y488126D01*
Y487038D01*
X1024544Y485986D01*
X1025088Y485044D01*
X1025858Y484274D01*
X1026801Y483730D01*
X1027852Y483448D01*
X1028940D01*
X1029992Y483730D01*
X1030934Y484274D01*
X1031704Y485044D01*
X1032248Y485986D01*
X1032530Y487038D01*
Y488126D01*
X1032248Y489178D01*
X1031704Y490120D01*
X1030934Y490890D01*
X1029992Y491434D01*
X1028940Y491716D01*
D02*
G37*
G36*
X1123755Y491708D02*
X1122667D01*
X1121615Y491426D01*
X1120673Y490882D01*
X1119903Y490112D01*
X1119359Y489170D01*
X1119077Y488118D01*
Y487030D01*
X1119359Y485978D01*
X1119903Y485036D01*
X1120673Y484266D01*
X1121615Y483722D01*
X1122667Y483440D01*
X1123755D01*
X1124807Y483722D01*
X1125749Y484266D01*
X1126519Y485036D01*
X1127063Y485978D01*
X1127345Y487030D01*
Y488118D01*
X1127063Y489170D01*
X1126519Y490112D01*
X1125749Y490882D01*
X1124807Y491426D01*
X1123755Y491708D01*
D02*
G37*
G36*
X1076184Y479905D02*
X1075096D01*
X1074045Y479623D01*
X1073102Y479079D01*
X1072332Y478309D01*
X1071788Y477366D01*
X1071506Y476315D01*
Y475227D01*
X1071788Y474175D01*
X1072332Y473233D01*
X1073102Y472463D01*
X1074045Y471919D01*
X1075096Y471637D01*
X1076184D01*
X1077236Y471919D01*
X1078178Y472463D01*
X1078948Y473233D01*
X1079492Y474175D01*
X1079774Y475227D01*
Y476315D01*
X1079492Y477366D01*
X1078948Y478309D01*
X1078178Y479079D01*
X1077236Y479623D01*
X1076184Y479905D01*
D02*
G37*
G36*
X1052562D02*
X1051474D01*
X1050422Y479623D01*
X1049480Y479079D01*
X1048710Y478309D01*
X1048166Y477366D01*
X1047884Y476315D01*
Y475227D01*
X1048166Y474175D01*
X1048710Y473233D01*
X1049480Y472463D01*
X1050422Y471919D01*
X1051474Y471637D01*
X1052562D01*
X1053614Y471919D01*
X1054556Y472463D01*
X1055326Y473233D01*
X1055870Y474175D01*
X1056152Y475227D01*
Y476315D01*
X1055870Y477366D01*
X1055326Y478309D01*
X1054556Y479079D01*
X1053614Y479623D01*
X1052562Y479905D01*
D02*
G37*
G36*
X1028940D02*
X1027852D01*
X1026800Y479623D01*
X1025858Y479079D01*
X1025088Y478309D01*
X1024544Y477366D01*
X1024262Y476315D01*
Y475227D01*
X1024544Y474175D01*
X1025088Y473233D01*
X1025858Y472463D01*
X1026800Y471919D01*
X1027852Y471637D01*
X1028940D01*
X1029992Y471919D01*
X1030934Y472463D01*
X1031704Y473233D01*
X1032248Y474175D01*
X1032530Y475227D01*
Y476315D01*
X1032248Y477366D01*
X1031704Y478309D01*
X1030934Y479079D01*
X1029992Y479623D01*
X1028940Y479905D01*
D02*
G37*
G36*
X1123755Y479897D02*
X1122667D01*
X1121615Y479615D01*
X1120673Y479071D01*
X1119903Y478301D01*
X1119359Y477359D01*
X1119077Y476307D01*
Y475219D01*
X1119359Y474167D01*
X1119903Y473225D01*
X1120673Y472455D01*
X1121615Y471911D01*
X1122667Y471629D01*
X1123755D01*
X1124807Y471911D01*
X1125749Y472455D01*
X1126519Y473225D01*
X1127063Y474167D01*
X1127345Y475219D01*
Y476307D01*
X1127063Y477359D01*
X1126519Y478301D01*
X1125749Y479071D01*
X1124807Y479615D01*
X1123755Y479897D01*
D02*
G37*
G36*
X980190Y467669D02*
X979524D01*
X978909Y467414D01*
X978438Y466943D01*
X978184Y466328D01*
Y465663D01*
X978438Y465048D01*
X978909Y464577D01*
X979524Y464322D01*
X980190D01*
X980805Y464577D01*
X981275Y465048D01*
X981530Y465663D01*
Y466328D01*
X981275Y466943D01*
X980805Y467414D01*
X980190Y467669D01*
D02*
G37*
G36*
X1152364Y483550D02*
X1150436D01*
X1148545Y483174D01*
X1146764Y482437D01*
X1145161Y481365D01*
X1143798Y480002D01*
X1142727Y478399D01*
X1141989Y476618D01*
X1141613Y474727D01*
Y472799D01*
X1141989Y470908D01*
X1142727Y469127D01*
X1143798Y467524D01*
X1145161Y466161D01*
X1146764Y465090D01*
X1148545Y464352D01*
X1150436Y463976D01*
X1152364D01*
X1154255Y464352D01*
X1156036Y465090D01*
X1157639Y466161D01*
X1159002Y467524D01*
X1160073Y469127D01*
X1160811Y470908D01*
X1161187Y472799D01*
Y474727D01*
X1160811Y476618D01*
X1160073Y478399D01*
X1159002Y480002D01*
X1157639Y481365D01*
X1156036Y482437D01*
X1154255Y483174D01*
X1152364Y483550D01*
D02*
G37*
G36*
X1002364D02*
X1000436D01*
X998545Y483174D01*
X996764Y482437D01*
X995161Y481365D01*
X993798Y480002D01*
X992727Y478399D01*
X991989Y476618D01*
X991613Y474727D01*
Y472799D01*
X991989Y470908D01*
X992727Y469127D01*
X993798Y467524D01*
X995161Y466161D01*
X996764Y465090D01*
X998545Y464352D01*
X1000436Y463976D01*
X1002364D01*
X1004255Y464352D01*
X1006036Y465090D01*
X1007639Y466161D01*
X1009002Y467524D01*
X1010073Y469127D01*
X1010811Y470908D01*
X1011187Y472799D01*
Y474727D01*
X1010811Y476618D01*
X1010073Y478399D01*
X1009002Y480002D01*
X1007639Y481365D01*
X1006036Y482437D01*
X1004255Y483174D01*
X1002364Y483550D01*
D02*
G37*
G36*
X988779Y466486D02*
X988113D01*
X987498Y466231D01*
X987027Y465760D01*
X986773Y465145D01*
Y464479D01*
X987027Y463864D01*
X987498Y463394D01*
X988113Y463139D01*
X988779D01*
X989394Y463394D01*
X989865Y463864D01*
X990119Y464479D01*
Y465145D01*
X989865Y465760D01*
X989394Y466231D01*
X988779Y466486D01*
D02*
G37*
G36*
X1067953Y465456D02*
X1066634D01*
X1065341Y465199D01*
X1064123Y464694D01*
X1063027Y463962D01*
X1062095Y463029D01*
X1061362Y461933D01*
X1060858Y460715D01*
X1060601Y459422D01*
Y458104D01*
X1060858Y456811D01*
X1061362Y455593D01*
X1062095Y454496D01*
X1063027Y453564D01*
X1064123Y452832D01*
X1065341Y452327D01*
X1066634Y452070D01*
X1067953D01*
X1069246Y452327D01*
X1070464Y452832D01*
X1071560Y453564D01*
X1072492Y454496D01*
X1073225Y455593D01*
X1073729Y456811D01*
X1073987Y458104D01*
Y459422D01*
X1073729Y460715D01*
X1073225Y461933D01*
X1072492Y463029D01*
X1071560Y463962D01*
X1070464Y464694D01*
X1069246Y465199D01*
X1067953Y465456D01*
D02*
G37*
G36*
X1037559D02*
X1036241D01*
X1034948Y465199D01*
X1033730Y464694D01*
X1032633Y463962D01*
X1031701Y463029D01*
X1030969Y461933D01*
X1030464Y460715D01*
X1030207Y459422D01*
Y458104D01*
X1030464Y456811D01*
X1030969Y455593D01*
X1031701Y454496D01*
X1032633Y453564D01*
X1033730Y452832D01*
X1034948Y452327D01*
X1036241Y452070D01*
X1037559D01*
X1038852Y452327D01*
X1040070Y452832D01*
X1041166Y453564D01*
X1042099Y454496D01*
X1042831Y455593D01*
X1043336Y456811D01*
X1043593Y458104D01*
Y459422D01*
X1043336Y460715D01*
X1042831Y461933D01*
X1042099Y463029D01*
X1041166Y463962D01*
X1040070Y464694D01*
X1038852Y465199D01*
X1037559Y465456D01*
D02*
G37*
G36*
X1117965Y465448D02*
X1116646D01*
X1115353Y465191D01*
X1114135Y464686D01*
X1113039Y463954D01*
X1112107Y463022D01*
X1111374Y461925D01*
X1110870Y460707D01*
X1110613Y459414D01*
Y458096D01*
X1110870Y456803D01*
X1111374Y455585D01*
X1112107Y454489D01*
X1113039Y453556D01*
X1114135Y452824D01*
X1115353Y452319D01*
X1116646Y452062D01*
X1117965D01*
X1119258Y452319D01*
X1120476Y452824D01*
X1121572Y453556D01*
X1122504Y454489D01*
X1123237Y455585D01*
X1123741Y456803D01*
X1123998Y458096D01*
Y459414D01*
X1123741Y460707D01*
X1123237Y461925D01*
X1122504Y463022D01*
X1121572Y463954D01*
X1120476Y464686D01*
X1119258Y465191D01*
X1117965Y465448D01*
D02*
G37*
G36*
X1053356Y447484D02*
X1052690D01*
X1052075Y447229D01*
X1051604Y446759D01*
X1051350Y446144D01*
Y445478D01*
X1051604Y444863D01*
X1052075Y444392D01*
X1052690Y444138D01*
X1053356D01*
X1053971Y444392D01*
X1054441Y444863D01*
X1054696Y445478D01*
Y446144D01*
X1054441Y446759D01*
X1053971Y447229D01*
X1053356Y447484D01*
D02*
G37*
%LPD*%
D15*
X1161400Y438763D02*
G03*
X1171400Y448763I0J10000D01*
G01*
X1171400Y803763D02*
G03*
X1161400Y813763I-10000J0D01*
G01*
X756400Y813763D02*
G03*
X746400Y803763I0J-10000D01*
G01*
Y448763D02*
G03*
X756400Y438763I10000J0D01*
G01*
X1171400Y448763D02*
X1171400Y803763D01*
X756400Y438763D02*
X1161400D01*
X756400Y813763D02*
X1161400Y813763D01*
X746400Y803763D02*
X746400Y448763D01*
D80*
X757943Y594070D02*
D03*
Y614070D02*
D03*
X767943Y634070D02*
D03*
X757943Y664070D02*
D03*
Y694070D02*
D03*
X767943Y714070D02*
D03*
X757943Y734070D02*
D03*
X767943Y564070D02*
D03*
X1082400Y764113D02*
D03*
Y754113D02*
D03*
X1072400D02*
D03*
D115*
X925591Y625562D02*
D03*
Y621294D02*
D03*
X920426Y625562D02*
D03*
Y621294D02*
D03*
X915256Y625562D02*
D03*
Y621294D02*
D03*
D116*
X1040207Y487582D02*
D03*
Y475771D02*
D03*
X1111400Y475763D02*
D03*
Y487574D02*
D03*
X825408Y776755D02*
D03*
Y764944D02*
D03*
X877502Y776755D02*
D03*
Y764944D02*
D03*
X1063829Y475771D02*
D03*
Y487582D02*
D03*
D121*
X911400Y532583D02*
D03*
Y528415D02*
D03*
X918785Y532858D02*
D03*
Y528690D02*
D03*
X925765Y528965D02*
D03*
Y533133D02*
D03*
X888400Y532500D02*
D03*
Y528332D02*
D03*
X895785Y532774D02*
D03*
Y528606D02*
D03*
X902765Y528881D02*
D03*
Y533049D02*
D03*
X864132Y532225D02*
D03*
Y528057D02*
D03*
X871517Y532500D02*
D03*
Y528332D02*
D03*
X878497Y528606D02*
D03*
Y532774D02*
D03*
X838716Y525604D02*
D03*
X1111463Y716712D02*
D03*
X911570Y733362D02*
D03*
X928638Y722161D02*
D03*
X907744D02*
D03*
X857489Y516371D02*
D03*
X908563Y627515D02*
D03*
X915832Y603373D02*
D03*
X912697Y603449D02*
D03*
X885572Y575763D02*
D03*
X891772Y576113D02*
D03*
X817331Y516560D02*
D03*
X814215D02*
D03*
X810910D02*
D03*
X815059Y528853D02*
D03*
X1090400Y704519D02*
D03*
X1082400Y702399D02*
D03*
X1090400Y719681D02*
D03*
X791789Y645847D02*
D03*
X785280Y668043D02*
D03*
X788140Y659739D02*
D03*
X777662Y603090D02*
D03*
X824201Y592809D02*
D03*
X785187Y714653D02*
D03*
Y721913D02*
D03*
X1139006Y746763D02*
D03*
X1139211Y740140D02*
D03*
X1127313Y737176D02*
D03*
X920483Y698653D02*
D03*
X915999Y701661D02*
D03*
X907602Y702765D02*
D03*
X899806Y624465D02*
D03*
X825408Y666975D02*
D03*
X1104702Y490033D02*
D03*
Y487002D02*
D03*
Y484119D02*
D03*
X1104602Y478795D02*
D03*
Y475763D02*
D03*
Y472880D02*
D03*
X1108368Y481531D02*
D03*
X1111400D02*
D03*
X1114283D02*
D03*
X1147400Y501731D02*
D03*
Y504763D02*
D03*
Y507646D02*
D03*
X1013708Y445810D02*
D03*
X975400Y445416D02*
D03*
X948501Y583203D02*
D03*
X954230Y589040D02*
D03*
X955370Y614116D02*
D03*
X923490Y590126D02*
D03*
X924016Y601188D02*
D03*
X948501Y629269D02*
D03*
X937477Y645727D02*
D03*
X928015Y644216D02*
D03*
X917141Y648144D02*
D03*
X912582Y653702D02*
D03*
X898995Y645727D02*
D03*
X864351Y575698D02*
D03*
X860893Y631920D02*
D03*
Y639385D02*
D03*
X862400Y622977D02*
D03*
X840210Y621359D02*
D03*
X855225Y591053D02*
D03*
X855331Y582420D02*
D03*
X855160Y574597D02*
D03*
X838790Y634535D02*
D03*
X836874Y638194D02*
D03*
X826639Y637797D02*
D03*
X825010Y634535D02*
D03*
X823448Y630970D02*
D03*
X840342Y630020D02*
D03*
X850016Y665857D02*
D03*
X865955Y702666D02*
D03*
X872770Y651554D02*
D03*
X876420D02*
D03*
X762603Y659674D02*
D03*
X762246Y618590D02*
D03*
X762392Y596398D02*
D03*
X773735Y563544D02*
D03*
X772391Y636027D02*
D03*
X752692Y693065D02*
D03*
X773396Y714070D02*
D03*
X751899Y734597D02*
D03*
X832242Y766684D02*
D03*
X832290Y762524D02*
D03*
Y770151D02*
D03*
Y775232D02*
D03*
X832242Y778433D02*
D03*
Y781853D02*
D03*
X884038Y779208D02*
D03*
X884319Y776183D02*
D03*
X884038Y772705D02*
D03*
Y767385D02*
D03*
Y763755D02*
D03*
X879292Y770409D02*
D03*
X909223Y770785D02*
D03*
X918173Y757491D02*
D03*
X886327Y752405D02*
D03*
X879889Y731678D02*
D03*
X889004Y707537D02*
D03*
X874446Y709141D02*
D03*
X788305Y739176D02*
D03*
X792999Y740869D02*
D03*
X793262Y748717D02*
D03*
X792932Y757786D02*
D03*
X787909Y759255D02*
D03*
X1076829Y750652D02*
D03*
X1078300Y757705D02*
D03*
X1078488Y767664D02*
D03*
X1084118Y758901D02*
D03*
X1133259Y708604D02*
D03*
X1126211Y712200D02*
D03*
X1121522D02*
D03*
X1114451Y710531D02*
D03*
X1111463Y721938D02*
D03*
X1040211Y710846D02*
D03*
Y714448D02*
D03*
X1036589Y714320D02*
D03*
X1025103Y716585D02*
D03*
X940010Y752832D02*
D03*
X931428Y756423D02*
D03*
X1061635Y598781D02*
D03*
X1103401Y600631D02*
D03*
X1104152Y641437D02*
D03*
X1129110Y649592D02*
D03*
X1123211Y611815D02*
D03*
X1116255Y583578D02*
D03*
X1118029Y625234D02*
D03*
X1059600Y522229D02*
D03*
X1061635Y520193D02*
D03*
X1063833Y517996D02*
D03*
X952765Y460637D02*
D03*
Y456469D02*
D03*
Y450789D02*
D03*
Y446484D02*
D03*
X945785Y446209D02*
D03*
Y450515D02*
D03*
Y456194D02*
D03*
Y460362D02*
D03*
X938400Y445934D02*
D03*
Y450240D02*
D03*
Y455919D02*
D03*
Y460087D02*
D03*
X917035Y459767D02*
D03*
Y455599D02*
D03*
Y449919D02*
D03*
Y445614D02*
D03*
X924420Y460041D02*
D03*
Y455873D02*
D03*
Y450194D02*
D03*
Y445889D02*
D03*
X931400Y446164D02*
D03*
Y450469D02*
D03*
Y456148D02*
D03*
Y460316D02*
D03*
X759936Y524482D02*
D03*
Y520315D02*
D03*
Y514635D02*
D03*
Y510330D02*
D03*
X767321Y524757D02*
D03*
Y520589D02*
D03*
Y514910D02*
D03*
Y510605D02*
D03*
X774301Y510879D02*
D03*
Y515185D02*
D03*
Y520864D02*
D03*
Y525032D02*
D03*
X838211Y660642D02*
D03*
Y656474D02*
D03*
Y650795D02*
D03*
Y646490D02*
D03*
X845595Y660917D02*
D03*
Y656749D02*
D03*
Y651070D02*
D03*
Y646765D02*
D03*
X852575Y647039D02*
D03*
Y651345D02*
D03*
Y657024D02*
D03*
Y661192D02*
D03*
X949262Y659171D02*
D03*
Y655003D02*
D03*
Y649324D02*
D03*
Y645018D02*
D03*
X956647Y659446D02*
D03*
Y655278D02*
D03*
Y649598D02*
D03*
Y645293D02*
D03*
X963627Y645568D02*
D03*
Y649873D02*
D03*
Y655552D02*
D03*
Y659721D02*
D03*
X1026228Y651792D02*
D03*
Y647624D02*
D03*
Y641945D02*
D03*
Y637640D02*
D03*
X1033613Y652067D02*
D03*
Y647899D02*
D03*
Y642220D02*
D03*
Y637915D02*
D03*
X1040593Y638189D02*
D03*
Y642495D02*
D03*
Y648174D02*
D03*
Y652342D02*
D03*
X1045789Y630334D02*
D03*
Y626166D02*
D03*
Y620486D02*
D03*
Y616181D02*
D03*
X1053174Y630608D02*
D03*
Y626440D02*
D03*
Y620761D02*
D03*
Y616456D02*
D03*
X1060154Y616730D02*
D03*
Y621036D02*
D03*
Y626715D02*
D03*
Y630883D02*
D03*
X1078616Y586390D02*
D03*
Y582222D02*
D03*
Y576543D02*
D03*
Y572237D02*
D03*
X1086001Y586665D02*
D03*
Y582497D02*
D03*
Y576817D02*
D03*
Y572512D02*
D03*
X1092981Y572787D02*
D03*
Y577092D02*
D03*
Y582771D02*
D03*
Y586939D02*
D03*
X1133035Y535013D02*
D03*
Y530845D02*
D03*
Y525165D02*
D03*
Y520860D02*
D03*
X1140420Y535287D02*
D03*
Y531119D02*
D03*
Y525440D02*
D03*
Y521135D02*
D03*
X1147400Y521410D02*
D03*
Y525715D02*
D03*
Y531394D02*
D03*
Y535562D02*
D03*
X989719Y784213D02*
D03*
Y780045D02*
D03*
Y770061D02*
D03*
X997104Y784488D02*
D03*
Y780320D02*
D03*
Y774641D02*
D03*
Y770335D02*
D03*
X1004084Y770610D02*
D03*
Y774916D02*
D03*
Y780595D02*
D03*
Y784763D02*
D03*
X779668Y779614D02*
D03*
Y775447D02*
D03*
Y769767D02*
D03*
Y765462D02*
D03*
X787052Y779889D02*
D03*
Y775721D02*
D03*
Y770042D02*
D03*
Y765737D02*
D03*
X794032Y766011D02*
D03*
Y770317D02*
D03*
Y775996D02*
D03*
Y780164D02*
D03*
X890226Y666439D02*
D03*
Y662271D02*
D03*
Y656592D02*
D03*
Y652287D02*
D03*
X897611Y666714D02*
D03*
Y662546D02*
D03*
Y656867D02*
D03*
Y652562D02*
D03*
X904591Y652836D02*
D03*
Y657142D02*
D03*
Y662821D02*
D03*
Y666989D02*
D03*
X814915Y524515D02*
D03*
X818095Y534508D02*
D03*
X853363Y691273D02*
D03*
X861974Y707364D02*
D03*
X837454Y665881D02*
D03*
X1068896Y479038D02*
D03*
X1059859Y483235D02*
D03*
X1034886Y473037D02*
D03*
X1044622Y483841D02*
D03*
X825605Y770785D02*
D03*
X958838Y678079D02*
D03*
Y673912D02*
D03*
X951859Y673637D02*
D03*
Y677805D02*
D03*
X944474Y673362D02*
D03*
Y677530D02*
D03*
X1016797Y716263D02*
D03*
Y712095D02*
D03*
X1009817Y711821D02*
D03*
Y715989D02*
D03*
X1002433Y711546D02*
D03*
Y715714D02*
D03*
X1105557Y689931D02*
D03*
Y685763D02*
D03*
X1098577Y685488D02*
D03*
Y689656D02*
D03*
X1091192Y685213D02*
D03*
Y689381D02*
D03*
X1061635Y644481D02*
D03*
Y640313D02*
D03*
X1054655Y640039D02*
D03*
Y644207D02*
D03*
X1047271Y639764D02*
D03*
Y643932D02*
D03*
X1025858Y613411D02*
D03*
Y609243D02*
D03*
X1018878Y608968D02*
D03*
Y613136D02*
D03*
X1011494Y608693D02*
D03*
Y612861D02*
D03*
X1062794Y571942D02*
D03*
Y567774D02*
D03*
X1055814Y567499D02*
D03*
Y571667D02*
D03*
X1048429Y567225D02*
D03*
Y571393D02*
D03*
X1155667Y623404D02*
D03*
Y619236D02*
D03*
X1148687Y618961D02*
D03*
Y623129D02*
D03*
X1141302Y618686D02*
D03*
Y622854D02*
D03*
X1155667Y614427D02*
D03*
Y610259D02*
D03*
X1148687Y609984D02*
D03*
Y614152D02*
D03*
X1141302Y609709D02*
D03*
Y613877D02*
D03*
X1144229Y761724D02*
D03*
Y757556D02*
D03*
X1137249Y757281D02*
D03*
Y761449D02*
D03*
X1129864Y757006D02*
D03*
Y761174D02*
D03*
X1072456Y781679D02*
D03*
Y777511D02*
D03*
X1065476Y777236D02*
D03*
Y781404D02*
D03*
X1058092Y776961D02*
D03*
Y781129D02*
D03*
X1038245Y766746D02*
D03*
Y762578D02*
D03*
X1031266Y762303D02*
D03*
Y766471D02*
D03*
X1023881Y762028D02*
D03*
Y766196D02*
D03*
X834640Y755616D02*
D03*
Y751448D02*
D03*
X827660Y751174D02*
D03*
Y755342D02*
D03*
X820275Y750899D02*
D03*
Y755067D02*
D03*
X934853Y660642D02*
D03*
Y656474D02*
D03*
X927873Y656200D02*
D03*
Y660368D02*
D03*
X920488Y655925D02*
D03*
Y660093D02*
D03*
X921691Y581428D02*
D03*
Y577260D02*
D03*
X914711Y576985D02*
D03*
Y581153D02*
D03*
X907326Y576710D02*
D03*
Y580878D02*
D03*
X924508Y512271D02*
D03*
Y508103D02*
D03*
X917528Y507828D02*
D03*
Y511996D02*
D03*
X910144Y507553D02*
D03*
Y511721D02*
D03*
X799206Y536393D02*
D03*
Y532225D02*
D03*
X792226Y531950D02*
D03*
Y536118D02*
D03*
X784842Y531675D02*
D03*
Y535843D02*
D03*
X1013179Y654041D02*
D03*
Y649873D02*
D03*
X1006199Y649598D02*
D03*
Y653766D02*
D03*
X998814Y649324D02*
D03*
Y653491D02*
D03*
X964386Y703781D02*
D03*
Y699613D02*
D03*
X957406Y699339D02*
D03*
Y703507D02*
D03*
X950021Y699064D02*
D03*
Y703232D02*
D03*
M02*
