G04*
G04 #@! TF.GenerationSoftware,Altium Limited,DefaultClient, ()*
G04*
G04 Layer_Color=128*
G04 Board_Origin=74640000|43876300*
%FSLAX25Y25*%
%MOIN*%
G70*
G04*
G04 #@! TF.SameCoordinates,7376E26B-85FC-40E6-8FC3-DD4050A09F07*
G04*
G04*
G04 #@! TF.FilePolarity,Positive*
G04*
G01*
G75*
%ADD15C,0.01000*%
%ADD32R,0.04441X0.04244*%
%ADD38R,0.04244X0.04441*%
%ADD41R,0.05740X0.05937*%
%ADD128O,0.04362X0.07709*%
G04:AMPARAMS|DCode=129|XSize=31.81mil|YSize=43.62mil|CornerRadius=11.18mil|HoleSize=0mil|Usage=FLASHONLY|Rotation=180.000|XOffset=0mil|YOffset=0mil|HoleType=Round|Shape=RoundedRectangle|*
%AMROUNDEDRECTD129*
21,1,0.03181,0.02126,0,0,180.0*
21,1,0.00945,0.04362,0,0,180.0*
1,1,0.02236,-0.00472,0.01063*
1,1,0.02236,0.00472,0.01063*
1,1,0.02236,0.00472,-0.01063*
1,1,0.02236,-0.00472,-0.01063*
%
%ADD129ROUNDEDRECTD129*%
%ADD130R,0.03575X0.06803*%
G36*
X813356Y502801D02*
X813443Y502789D01*
X813528Y502771D01*
X813611Y502744D01*
X813692Y502711D01*
X813769Y502671D01*
X813843Y502624D01*
X813912Y502570D01*
X813976Y502512D01*
X814036Y502447D01*
X814089Y502378D01*
X814136Y502304D01*
X814176Y502227D01*
X814209Y502146D01*
X814235Y502063D01*
X814254Y501977D01*
X814266Y501891D01*
X814270Y501804D01*
Y500623D01*
X814266Y500535D01*
X814254Y500449D01*
X814235Y500364D01*
X814209Y500280D01*
X814176Y500200D01*
X814136Y500122D01*
X814089Y500048D01*
X814036Y499979D01*
X813976Y499915D01*
X813912Y499856D01*
X813843Y499803D01*
X813769Y499756D01*
X813692Y499716D01*
X813611Y499682D01*
X813528Y499656D01*
X813443Y499637D01*
X813356Y499625D01*
X813269Y499622D01*
X812301D01*
Y499560D01*
Y499536D01*
X812300Y499514D01*
Y499492D01*
X812298Y499471D01*
X812297Y499449D01*
X812294Y499427D01*
X812293Y499405D01*
X812289Y499384D01*
X812286Y499362D01*
X812281Y499341D01*
X812277Y499319D01*
X812272Y499298D01*
X812267Y499277D01*
X812261Y499256D01*
X812255Y499235D01*
X812247Y499215D01*
X812241Y499194D01*
X812232Y499173D01*
X812225Y499153D01*
X812207Y499110D01*
X812198Y499090D01*
X812189Y499070D01*
X812179Y499050D01*
X812170Y499030D01*
X812159Y499012D01*
X812149Y498992D01*
X812137Y498974D01*
X812126Y498955D01*
X812114Y498937D01*
X812102Y498919D01*
X812089Y498901D01*
X812076Y498883D01*
X812062Y498867D01*
X812049Y498849D01*
X812034Y498833D01*
X812020Y498816D01*
X812005Y498801D01*
X811990Y498785D01*
X811957Y498752D01*
X811941Y498737D01*
X811925Y498722D01*
X811909Y498707D01*
X811892Y498693D01*
X811875Y498679D01*
X811858Y498666D01*
X811841Y498653D01*
X811823Y498640D01*
X811805Y498628D01*
X811787Y498615D01*
X811768Y498604D01*
X811749Y498593D01*
X811730Y498583D01*
X811711Y498572D01*
X811692Y498562D01*
X811672Y498552D01*
X811652Y498544D01*
X811632Y498535D01*
X811589Y498517D01*
X811568Y498509D01*
X811548Y498501D01*
X811527Y498494D01*
X811507Y498487D01*
X811485Y498481D01*
X811465Y498475D01*
X811443Y498470D01*
X811422Y498464D01*
X811401Y498460D01*
X811379Y498456D01*
X811358Y498453D01*
X811336Y498449D01*
X811314Y498447D01*
X811293Y498444D01*
X811271Y498444D01*
X811249Y498442D01*
X811227D01*
X811206Y498441D01*
X810214D01*
X810192Y498442D01*
X810170D01*
X810148Y498444D01*
X810126Y498444D01*
X810105Y498447D01*
X810083Y498449D01*
X810061Y498453D01*
X810040Y498456D01*
X810019Y498460D01*
X809997Y498464D01*
X809976Y498470D01*
X809955Y498475D01*
X809934Y498481D01*
X809913Y498487D01*
X809892Y498494D01*
X809871Y498501D01*
X809851Y498509D01*
X809830Y498517D01*
X809787Y498535D01*
X809768Y498544D01*
X809747Y498552D01*
X809728Y498562D01*
X809708Y498572D01*
X809689Y498583D01*
X809670Y498593D01*
X809651Y498604D01*
X809632Y498615D01*
X809614Y498628D01*
X809596Y498640D01*
X809579Y498653D01*
X809561Y498666D01*
X809544Y498679D01*
X809527Y498693D01*
X809511Y498707D01*
X809494Y498722D01*
X809478Y498737D01*
X809463Y498752D01*
X809429Y498785D01*
X809415Y498801D01*
X809399Y498816D01*
X809385Y498833D01*
X809370Y498849D01*
X809357Y498867D01*
X809343Y498883D01*
X809331Y498901D01*
X809317Y498919D01*
X809305Y498937D01*
X809293Y498955D01*
X809282Y498974D01*
X809270Y498992D01*
X809260Y499012D01*
X809249Y499030D01*
X809240Y499050D01*
X809230Y499070D01*
X809221Y499090D01*
X809212Y499110D01*
X809194Y499153D01*
X809187Y499173D01*
X809179Y499194D01*
X809172Y499215D01*
X809165Y499235D01*
X809159Y499256D01*
X809152Y499277D01*
X809148Y499298D01*
X809142Y499319D01*
X809138Y499341D01*
X809133Y499362D01*
X809130Y499384D01*
X809127Y499405D01*
X809125Y499427D01*
X809122Y499449D01*
X809121Y499471D01*
X809119Y499492D01*
Y499514D01*
X809118Y499536D01*
Y499560D01*
Y499622D01*
X808151D01*
X808063Y499625D01*
X807977Y499637D01*
X807891Y499656D01*
X807808Y499682D01*
X807728Y499716D01*
X807650Y499756D01*
X807576Y499803D01*
X807507Y499856D01*
X807443Y499915D01*
X807384Y499979D01*
X807331Y500048D01*
X807284Y500122D01*
X807243Y500200D01*
X807210Y500280D01*
X807184Y500364D01*
X807165Y500449D01*
X807154Y500535D01*
X807150Y500623D01*
Y501804D01*
X807154Y501891D01*
X807165Y501977D01*
X807184Y502063D01*
X807210Y502146D01*
X807243Y502227D01*
X807284Y502304D01*
X807331Y502378D01*
X807384Y502447D01*
X807443Y502512D01*
X807507Y502570D01*
X807576Y502624D01*
X807650Y502671D01*
X807728Y502711D01*
X807808Y502744D01*
X807891Y502771D01*
X807977Y502789D01*
X808063Y502801D01*
X808151Y502805D01*
X813269D01*
X813356Y502801D01*
D02*
G37*
G36*
X813786Y521701D02*
X813809D01*
X813830Y521699D01*
X813852Y521699D01*
X813874Y521696D01*
X813896Y521694D01*
X813917Y521690D01*
X813939Y521687D01*
X813960Y521682D01*
X813982Y521678D01*
X814003Y521673D01*
X814024Y521668D01*
X814045Y521662D01*
X814066Y521656D01*
X814086Y521649D01*
X814107Y521642D01*
X814127Y521633D01*
X814148Y521626D01*
X814191Y521608D01*
X814211Y521599D01*
X814231Y521591D01*
X814251Y521580D01*
X814270Y521571D01*
X814289Y521560D01*
X814308Y521550D01*
X814327Y521538D01*
X814346Y521527D01*
X814364Y521515D01*
X814382Y521503D01*
X814400Y521490D01*
X814417Y521477D01*
X814434Y521463D01*
X814452Y521450D01*
X814468Y521435D01*
X814484Y521421D01*
X814500Y521406D01*
X814516Y521391D01*
X814549Y521358D01*
X814564Y521342D01*
X814579Y521326D01*
X814593Y521310D01*
X814608Y521294D01*
X814621Y521276D01*
X814635Y521260D01*
X814648Y521242D01*
X814661Y521224D01*
X814673Y521206D01*
X814685Y521188D01*
X814696Y521169D01*
X814708Y521151D01*
X814718Y521131D01*
X814729Y521112D01*
X814738Y521093D01*
X814748Y521073D01*
X814757Y521053D01*
X814766Y521033D01*
X814784Y520990D01*
X814791Y520969D01*
X814800Y520949D01*
X814806Y520928D01*
X814814Y520908D01*
X814820Y520887D01*
X814826Y520866D01*
X814831Y520845D01*
X814836Y520824D01*
X814840Y520802D01*
X814845Y520781D01*
X814848Y520759D01*
X814852Y520738D01*
X814853Y520716D01*
X814856Y520694D01*
X814857Y520672D01*
X814859Y520651D01*
Y520628D01*
X814860Y520607D01*
Y520583D01*
Y520521D01*
X815828D01*
X815915Y520517D01*
X816002Y520506D01*
X816087Y520487D01*
X816170Y520461D01*
X816251Y520427D01*
X816328Y520387D01*
X816402Y520340D01*
X816471Y520287D01*
X816535Y520228D01*
X816595Y520164D01*
X816648Y520094D01*
X816695Y520021D01*
X816735Y519943D01*
X816768Y519863D01*
X816795Y519779D01*
X816813Y519694D01*
X816825Y519607D01*
X816829Y519520D01*
Y518339D01*
X816825Y518252D01*
X816813Y518165D01*
X816795Y518080D01*
X816768Y517997D01*
X816735Y517916D01*
X816695Y517839D01*
X816648Y517765D01*
X816595Y517696D01*
X816535Y517631D01*
X816471Y517572D01*
X816402Y517519D01*
X816328Y517472D01*
X816251Y517432D01*
X816170Y517399D01*
X816087Y517372D01*
X816002Y517353D01*
X815915Y517342D01*
X815828Y517338D01*
X810710D01*
X810622Y517342D01*
X810536Y517353D01*
X810451Y517372D01*
X810367Y517399D01*
X810287Y517432D01*
X810209Y517472D01*
X810135Y517519D01*
X810066Y517572D01*
X810002Y517631D01*
X809943Y517696D01*
X809890Y517765D01*
X809843Y517839D01*
X809803Y517916D01*
X809769Y517997D01*
X809743Y518080D01*
X809724Y518165D01*
X809713Y518252D01*
X809709Y518339D01*
Y519520D01*
X809713Y519607D01*
X809724Y519694D01*
X809743Y519779D01*
X809769Y519863D01*
X809803Y519943D01*
X809843Y520021D01*
X809890Y520094D01*
X809943Y520164D01*
X810002Y520228D01*
X810066Y520287D01*
X810135Y520340D01*
X810209Y520387D01*
X810287Y520427D01*
X810367Y520461D01*
X810451Y520487D01*
X810536Y520506D01*
X810622Y520517D01*
X810710Y520521D01*
X811677D01*
Y520583D01*
Y520607D01*
X811678Y520628D01*
Y520651D01*
X811680Y520672D01*
X811681Y520694D01*
X811684Y520716D01*
X811686Y520738D01*
X811690Y520759D01*
X811692Y520781D01*
X811697Y520802D01*
X811701Y520824D01*
X811707Y520845D01*
X811711Y520866D01*
X811718Y520887D01*
X811724Y520908D01*
X811731Y520928D01*
X811738Y520949D01*
X811746Y520969D01*
X811753Y520990D01*
X811771Y521033D01*
X811781Y521053D01*
X811789Y521073D01*
X811799Y521093D01*
X811808Y521112D01*
X811819Y521131D01*
X811829Y521151D01*
X811841Y521169D01*
X811852Y521188D01*
X811864Y521206D01*
X811876Y521224D01*
X811890Y521242D01*
X811902Y521260D01*
X811916Y521276D01*
X811929Y521294D01*
X811944Y521310D01*
X811958Y521326D01*
X811974Y521342D01*
X811988Y521358D01*
X812022Y521391D01*
X812038Y521406D01*
X812053Y521421D01*
X812070Y521435D01*
X812086Y521450D01*
X812103Y521463D01*
X812120Y521477D01*
X812138Y521490D01*
X812155Y521503D01*
X812174Y521515D01*
X812191Y521527D01*
X812210Y521538D01*
X812229Y521550D01*
X812248Y521560D01*
X812267Y521571D01*
X812287Y521580D01*
X812306Y521591D01*
X812327Y521599D01*
X812346Y521608D01*
X812390Y521626D01*
X812410Y521633D01*
X812430Y521642D01*
X812451Y521649D01*
X812472Y521656D01*
X812493Y521662D01*
X812514Y521668D01*
X812535Y521673D01*
X812556Y521678D01*
X812578Y521682D01*
X812599Y521687D01*
X812621Y521690D01*
X812642Y521694D01*
X812664Y521696D01*
X812685Y521699D01*
X812707Y521699D01*
X812729Y521701D01*
X812751D01*
X812773Y521702D01*
X813765D01*
X813786Y521701D01*
D02*
G37*
D15*
X1161400Y438763D02*
G03*
X1171400Y448763I0J10000D01*
G01*
X1171400Y803763D02*
G03*
X1161400Y813763I-10000J0D01*
G01*
X756400Y813763D02*
G03*
X746400Y803763I0J-10000D01*
G01*
Y448763D02*
G03*
X756400Y438763I10000J0D01*
G01*
X1171400Y448763D02*
X1171400Y803763D01*
X756400Y438763D02*
X1161400D01*
X756400Y813763D02*
X1161400Y813763D01*
X746400Y803763D02*
X746400Y448763D01*
D32*
X838659Y528184D02*
D03*
X842439D02*
D03*
X833449Y551706D02*
D03*
X837228D02*
D03*
X844053Y547030D02*
D03*
X840273D02*
D03*
X812286Y528885D02*
D03*
X811926Y524511D02*
D03*
X808506Y528885D02*
D03*
X808147Y524511D02*
D03*
X815158Y491614D02*
D03*
X815513Y495911D02*
D03*
X811734D02*
D03*
X1117922Y620076D02*
D03*
X1121702D02*
D03*
X1116255Y578548D02*
D03*
X1120035D02*
D03*
X811379Y491614D02*
D03*
D38*
X837251Y502512D02*
D03*
Y498733D02*
D03*
D41*
X814570Y534508D02*
D03*
X808271D02*
D03*
X815076Y486211D02*
D03*
X815309Y479949D02*
D03*
X809010D02*
D03*
X1118225Y630883D02*
D03*
X1124525D02*
D03*
X1117082Y589105D02*
D03*
X1123381D02*
D03*
X808777Y486211D02*
D03*
D128*
X857489Y499343D02*
D03*
X852489D02*
D03*
X847489D02*
D03*
X842489D02*
D03*
X852489Y520800D02*
D03*
X847489D02*
D03*
X857489D02*
D03*
X842489D02*
D03*
D129*
X815828Y519520D02*
D03*
X818387D02*
D03*
X810710D02*
D03*
X808151D02*
D03*
X805592D02*
D03*
X815828Y500623D02*
D03*
X818387D02*
D03*
X805592D02*
D03*
X808151D02*
D03*
X813269D02*
D03*
D130*
X1103300Y630391D02*
D03*
X1105859D02*
D03*
X1108418D02*
D03*
X1110977D02*
D03*
X1103300Y620076D02*
D03*
X1105859D02*
D03*
X1108418D02*
D03*
X1110977D02*
D03*
X1109270Y578790D02*
D03*
X1106711D02*
D03*
X1104152D02*
D03*
X1101593D02*
D03*
X1109270Y589105D02*
D03*
X1106711D02*
D03*
X1104152D02*
D03*
X1101593D02*
D03*
M02*
