G04*
G04 #@! TF.GenerationSoftware,Altium Limited,DefaultClient, ()*
G04*
G04 Layer_Color=8421504*
G04 Board_Origin=74640000|43876300*
%FSLAX25Y25*%
%MOIN*%
G70*
G04*
G04 #@! TF.SameCoordinates,7376E26B-85FC-40E6-8FC3-DD4050A09F07*
G04*
G04*
G04 #@! TF.FilePolarity,Positive*
G04*
G01*
G75*
%ADD15C,0.01000*%
%ADD25R,0.00984X0.02362*%
%ADD26R,0.02362X0.00984*%
%ADD27R,0.01051X0.00984*%
%ADD28R,0.01154X0.00984*%
%ADD29R,0.00984X0.01016*%
G04:AMPARAMS|DCode=30|XSize=177.48mil|YSize=98.74mil|CornerRadius=29.69mil|HoleSize=0mil|Usage=FLASHONLY|Rotation=0.000|XOffset=0mil|YOffset=0mil|HoleType=Round|Shape=RoundedRectangle|*
%AMROUNDEDRECTD30*
21,1,0.17748,0.03937,0,0,0.0*
21,1,0.11811,0.09874,0,0,0.0*
1,1,0.05937,0.05906,-0.01968*
1,1,0.05937,-0.05906,-0.01968*
1,1,0.05937,-0.05906,0.01968*
1,1,0.05937,0.05906,0.01968*
%
%ADD30ROUNDEDRECTD30*%
%ADD31R,0.04362X0.06331*%
%ADD32R,0.04441X0.04244*%
%ADD33R,0.05937X0.05740*%
G04:AMPARAMS|DCode=34|XSize=43.31mil|YSize=23.62mil|CornerRadius=2.01mil|HoleSize=0mil|Usage=FLASHONLY|Rotation=0.000|XOffset=0mil|YOffset=0mil|HoleType=Round|Shape=RoundedRectangle|*
%AMROUNDEDRECTD34*
21,1,0.04331,0.01961,0,0,0.0*
21,1,0.03929,0.02362,0,0,0.0*
1,1,0.00402,0.01965,-0.00980*
1,1,0.00402,-0.01965,-0.00980*
1,1,0.00402,-0.01965,0.00980*
1,1,0.00402,0.01965,0.00980*
%
%ADD34ROUNDEDRECTD34*%
%ADD35R,0.08299X0.03181*%
%ADD36R,0.03181X0.08299*%
%ADD37R,0.11843X0.08693*%
%ADD38R,0.04244X0.04441*%
%ADD39R,0.08693X0.11843*%
%ADD40R,0.05937X0.07709*%
%ADD41R,0.05740X0.05937*%
%ADD42R,0.07118X0.12630*%
%ADD43R,0.07709X0.05937*%
%ADD44R,0.03083X0.02984*%
G04:AMPARAMS|DCode=45|XSize=118.43mil|YSize=157.8mil|CornerRadius=0mil|HoleSize=0mil|Usage=FLASHONLY|Rotation=315.000|XOffset=0mil|YOffset=0mil|HoleType=Round|Shape=Rectangle|*
%AMROTATEDRECTD45*
4,1,4,-0.09766,-0.01392,0.01392,0.09766,0.09766,0.01392,-0.01392,-0.09766,-0.09766,-0.01392,0.0*
%
%ADD45ROTATEDRECTD45*%

G04:AMPARAMS|DCode=46|XSize=71.58mil|YSize=40.87mil|CornerRadius=11.36mil|HoleSize=0mil|Usage=FLASHONLY|Rotation=0.000|XOffset=0mil|YOffset=0mil|HoleType=Round|Shape=RoundedRectangle|*
%AMROUNDEDRECTD46*
21,1,0.07158,0.01815,0,0,0.0*
21,1,0.04886,0.04087,0,0,0.0*
1,1,0.02271,0.02443,-0.00908*
1,1,0.02271,-0.02443,-0.00908*
1,1,0.02271,-0.02443,0.00908*
1,1,0.02271,0.02443,0.00908*
%
%ADD46ROUNDEDRECTD46*%
%ADD47R,0.05740X0.10661*%
%ADD48R,0.06528X0.09087*%
%ADD49R,0.06685X0.07787*%
G04:AMPARAMS|DCode=50|XSize=177.48mil|YSize=98.74mil|CornerRadius=29.69mil|HoleSize=0mil|Usage=FLASHONLY|Rotation=270.000|XOffset=0mil|YOffset=0mil|HoleType=Round|Shape=RoundedRectangle|*
%AMROUNDEDRECTD50*
21,1,0.17748,0.03937,0,0,270.0*
21,1,0.11811,0.09874,0,0,270.0*
1,1,0.05937,-0.01968,-0.05906*
1,1,0.05937,-0.01968,0.05906*
1,1,0.05937,0.01968,0.05906*
1,1,0.05937,0.01968,-0.05906*
%
%ADD50ROUNDEDRECTD50*%
%ADD51R,0.06100X0.23600*%
%ADD52R,0.28772X0.30347*%
G36*
X920032Y626027D02*
Y620830D01*
X919835Y620633D01*
X914914D01*
X914717Y620830D01*
Y626027D01*
X914914Y626224D01*
X919835D01*
X920032Y626027D01*
D02*
G37*
G36*
X920701Y617216D02*
Y610720D01*
X920504Y610523D01*
X915898D01*
X915701Y610720D01*
Y617216D01*
X915898Y617413D01*
X920504D01*
X920701Y617216D01*
D02*
G37*
G36*
X914914D02*
Y610720D01*
X914717Y610523D01*
X910111D01*
X909914Y610720D01*
Y617216D01*
X910111Y617413D01*
X914717D01*
X914914Y617216D01*
D02*
G37*
G36*
X929284Y608074D02*
X929087Y607877D01*
X923575D01*
X923378Y608074D01*
Y611224D01*
X923575Y611420D01*
X929087D01*
X929284Y611224D01*
Y608074D01*
D02*
G37*
G36*
X930264Y607877D02*
X930067Y608074D01*
Y611224D01*
X930264Y611420D01*
X931130D01*
X931327Y611224D01*
Y608074D01*
X931130Y607877D01*
X930264D01*
D02*
G37*
G36*
X929087Y612208D02*
X923575Y612208D01*
X923378Y612405D01*
Y615948D01*
X923575Y616145D01*
X928103Y616145D01*
X929284Y614964D01*
Y612405D01*
X929087Y612208D01*
D02*
G37*
G36*
X926134Y620830D02*
X925937Y620633D01*
X921016D01*
X920819Y620830D01*
Y626027D01*
X921016Y626224D01*
X925937D01*
X926134Y626027D01*
Y620830D01*
D02*
G37*
D15*
X1161400Y438763D02*
G03*
X1171400Y448763I0J10000D01*
G01*
X1171400Y803763D02*
G03*
X1161400Y813763I-10000J0D01*
G01*
X756400Y813763D02*
G03*
X746400Y803763I0J-10000D01*
G01*
Y448763D02*
G03*
X756400Y438763I10000J0D01*
G01*
X1171400Y448763D02*
X1171400Y803763D01*
X756400Y438763D02*
X1161400D01*
X756400Y813763D02*
X1161400Y813763D01*
X746400Y803763D02*
X746400Y448763D01*
D25*
X920571Y629696D02*
D03*
X918603Y606861D02*
D03*
X916634D02*
D03*
X914666D02*
D03*
X912697D02*
D03*
X926477Y629696D02*
D03*
X928445D02*
D03*
X924508D02*
D03*
X918603D02*
D03*
X916634D02*
D03*
X914666D02*
D03*
X912697D02*
D03*
D26*
X931989Y623200D02*
D03*
X909154Y625169D02*
D03*
X931989Y627137D02*
D03*
Y613357D02*
D03*
Y617295D02*
D03*
Y619263D02*
D03*
Y625169D02*
D03*
X909154Y623200D02*
D03*
Y621232D02*
D03*
D27*
X932642Y609420D02*
D03*
Y611389D02*
D03*
D28*
X908548Y615326D02*
D03*
Y613357D02*
D03*
Y611389D02*
D03*
D29*
X924508Y606188D02*
D03*
X926477D02*
D03*
X928445D02*
D03*
D30*
X892266Y568787D02*
D03*
D31*
X864280Y585668D02*
D03*
X861821Y696881D02*
D03*
X858081D02*
D03*
X868020Y585668D02*
D03*
X860540Y595904D02*
D03*
X868020D02*
D03*
X860540Y585668D02*
D03*
X865561Y696881D02*
D03*
X858081Y686645D02*
D03*
X865561D02*
D03*
D32*
X864465Y579770D02*
D03*
X923120Y711263D02*
D03*
X861742Y702763D02*
D03*
X889045Y717161D02*
D03*
X889010Y727161D02*
D03*
Y737365D02*
D03*
Y747633D02*
D03*
X902136Y765263D02*
D03*
X927227Y601263D02*
D03*
X900510Y627728D02*
D03*
X1114022Y707900D02*
D03*
X931006Y601263D02*
D03*
X979857Y458460D02*
D03*
X857963Y702763D02*
D03*
X868244Y579770D02*
D03*
X1005191Y458460D02*
D03*
X988301D02*
D03*
X776054Y584070D02*
D03*
X779833D02*
D03*
X1067101Y713003D02*
D03*
X1063321D02*
D03*
X1110242Y707900D02*
D03*
X983636Y458460D02*
D03*
X992081D02*
D03*
X1008970D02*
D03*
X1000600D02*
D03*
X996821D02*
D03*
X941021Y619237D02*
D03*
X937241D02*
D03*
Y614716D02*
D03*
X941021D02*
D03*
X904290Y627728D02*
D03*
X905916Y765263D02*
D03*
X889004Y742750D02*
D03*
X892784D02*
D03*
X889010Y732365D02*
D03*
X892790D02*
D03*
X889010Y722161D02*
D03*
X892790D02*
D03*
X889045Y712161D02*
D03*
X892824D02*
D03*
X892790Y747633D02*
D03*
Y737365D02*
D03*
Y727161D02*
D03*
X892824Y717161D02*
D03*
X780594Y644070D02*
D03*
X776814D02*
D03*
X780266Y664070D02*
D03*
X776487D02*
D03*
X780594Y718913D02*
D03*
X776814D02*
D03*
X780229Y708763D02*
D03*
X776450D02*
D03*
X776604Y568763D02*
D03*
X780383D02*
D03*
X776604Y559174D02*
D03*
X780383D02*
D03*
X926900Y711263D02*
D03*
D33*
X825408Y671747D02*
D03*
X850408Y671353D02*
D03*
X940010Y743673D02*
D03*
X898878Y639592D02*
D03*
X1031400Y715464D02*
D03*
X1123578Y607426D02*
D03*
X1125063Y647464D02*
D03*
X825408Y678047D02*
D03*
X1125063Y641165D02*
D03*
X1123578Y601127D02*
D03*
X1031400Y721763D02*
D03*
X898878Y633293D02*
D03*
X940010Y737373D02*
D03*
X850408Y677653D02*
D03*
D34*
X832290Y674503D02*
D03*
Y678243D02*
D03*
Y670763D02*
D03*
X842526D02*
D03*
Y678243D02*
D03*
D35*
X905916Y738153D02*
D03*
Y724373D02*
D03*
X930325D02*
D03*
Y738153D02*
D03*
Y736184D02*
D03*
Y734216D02*
D03*
Y732247D02*
D03*
Y730279D02*
D03*
Y728310D02*
D03*
Y726342D02*
D03*
X905916D02*
D03*
Y728310D02*
D03*
Y730279D02*
D03*
Y732247D02*
D03*
Y734216D02*
D03*
Y736184D02*
D03*
D36*
X921073Y719058D02*
D03*
Y743468D02*
D03*
X919105D02*
D03*
X911231D02*
D03*
X913199D02*
D03*
X915168D02*
D03*
X917136D02*
D03*
X923042D02*
D03*
X925010D02*
D03*
Y719058D02*
D03*
X923042D02*
D03*
X919105D02*
D03*
X917136D02*
D03*
X915168D02*
D03*
X913199D02*
D03*
X911231D02*
D03*
D37*
X1139274Y504763D02*
D03*
X1123526D02*
D03*
D38*
X876400Y713283D02*
D03*
Y735287D02*
D03*
X909866Y649703D02*
D03*
X914834Y640764D02*
D03*
X842464Y616294D02*
D03*
X934873Y640968D02*
D03*
X924548Y644019D02*
D03*
X919914D02*
D03*
X1121211Y715295D02*
D03*
X1126211D02*
D03*
X1038400Y718810D02*
D03*
X911034Y754679D02*
D03*
X1100432Y600631D02*
D03*
Y642741D02*
D03*
X895029Y757076D02*
D03*
X939599Y640968D02*
D03*
X876400Y747712D02*
D03*
X842464Y612515D02*
D03*
X895029Y753296D02*
D03*
X899997Y757068D02*
D03*
Y753288D02*
D03*
X1100432Y646521D02*
D03*
Y610670D02*
D03*
Y614450D02*
D03*
Y604411D02*
D03*
X905671Y751071D02*
D03*
Y754850D02*
D03*
X911034Y750900D02*
D03*
X1063400Y703731D02*
D03*
Y707511D02*
D03*
X1101400Y711358D02*
D03*
Y715137D02*
D03*
X1119400Y704121D02*
D03*
Y707900D02*
D03*
X1038400Y722590D02*
D03*
X1126211Y719074D02*
D03*
X1121211D02*
D03*
X904290Y632464D02*
D03*
Y636243D02*
D03*
X919914Y640239D02*
D03*
X924548D02*
D03*
X909866Y636957D02*
D03*
Y640737D02*
D03*
X934873Y637188D02*
D03*
X939599D02*
D03*
X914834Y636984D02*
D03*
X909866Y645924D02*
D03*
X876400Y743932D02*
D03*
Y739066D02*
D03*
Y722385D02*
D03*
Y726164D02*
D03*
Y717062D02*
D03*
D39*
X831900Y630401D02*
D03*
X876790Y660920D02*
D03*
X831900Y614653D02*
D03*
X876790Y676669D02*
D03*
D40*
X788140Y754169D02*
D03*
Y745263D02*
D03*
X856997Y614405D02*
D03*
X857103Y622527D02*
D03*
Y630920D02*
D03*
Y639078D02*
D03*
X850410Y578770D02*
D03*
Y595263D02*
D03*
Y586810D02*
D03*
Y570461D02*
D03*
X849623Y622527D02*
D03*
X780660Y745263D02*
D03*
Y754169D02*
D03*
X849623Y639078D02*
D03*
Y630920D02*
D03*
X849516Y614405D02*
D03*
X842930Y578770D02*
D03*
Y570461D02*
D03*
Y586810D02*
D03*
Y595263D02*
D03*
X858081Y677763D02*
D03*
X865561D02*
D03*
D41*
X918272Y753367D02*
D03*
X923900Y595263D02*
D03*
X946021Y625169D02*
D03*
X1066681Y593631D02*
D03*
X930199Y595263D02*
D03*
X1072980Y593631D02*
D03*
X939721Y625169D02*
D03*
X924572Y753367D02*
D03*
D42*
X952044Y605405D02*
D03*
X948501Y591850D02*
D03*
X941021Y605405D02*
D03*
X937477Y591850D02*
D03*
D43*
X998632Y445811D02*
D03*
X981747Y445811D02*
D03*
X990112Y445810D02*
D03*
X1133211Y712200D02*
D03*
X1007081Y445811D02*
D03*
Y453291D02*
D03*
X1133211Y719681D02*
D03*
X990112Y453291D02*
D03*
X981747Y453291D02*
D03*
X998632Y453291D02*
D03*
D44*
X1110416Y719153D02*
D03*
X1112384D02*
D03*
X1108447Y717185D02*
D03*
X1114353Y715216D02*
D03*
X1112384Y713248D02*
D03*
X1114353D02*
D03*
X1110416D02*
D03*
X1108447D02*
D03*
Y715216D02*
D03*
X1114353Y717185D02*
D03*
Y719153D02*
D03*
X1108447D02*
D03*
D45*
X1070296Y526844D02*
D03*
X1092567Y549115D02*
D03*
D46*
X1046676Y717924D02*
D03*
Y713003D02*
D03*
X1056124Y717924D02*
D03*
Y713003D02*
D03*
Y708082D02*
D03*
X1046676D02*
D03*
X1056124Y722846D02*
D03*
X1046676D02*
D03*
D47*
X1072416Y603111D02*
D03*
X1090447D02*
D03*
D48*
X856603Y604519D02*
D03*
X868020D02*
D03*
X923676Y763263D02*
D03*
X912259D02*
D03*
D49*
X916723Y773263D02*
D03*
X923455D02*
D03*
D50*
X807400Y616491D02*
D03*
X903271Y678763D02*
D03*
D51*
X879071Y604169D02*
D03*
X899471D02*
D03*
D52*
X1081431Y634631D02*
D03*
M02*
