G04*
G04 #@! TF.GenerationSoftware,Altium Limited,DefaultClient, ()*
G04*
G04 Layer_Physical_Order=4*
G04 Layer_Color=16711680*
G04 Board_Origin=74640000|43876300*
%FSLAX25Y25*%
%MOIN*%
G70*
G04*
G04 #@! TF.SameCoordinates,7376E26B-85FC-40E6-8FC3-DD4050A09F07*
G04*
G04*
G04 #@! TF.FilePolarity,Positive*
G04*
G01*
G75*
%ADD11C,0.00787*%
%ADD13C,0.02000*%
%ADD14C,0.01575*%
%ADD15C,0.01000*%
%ADD80C,0.06000*%
%ADD84R,0.06000X0.06000*%
%ADD88R,0.02441X0.02244*%
%ADD93R,0.02244X0.02441*%
%ADD96R,0.03740X0.03937*%
%ADD107C,0.01181*%
%ADD114C,0.18000*%
%ADD115C,0.01968*%
%ADD116C,0.06693*%
%ADD117R,0.06000X0.06000*%
%ADD118C,0.11811*%
%ADD119C,0.15748*%
%ADD120C,0.24410*%
%ADD121C,0.01772*%
%ADD122O,0.02362X0.05709*%
G04:AMPARAMS|DCode=123|XSize=11.81mil|YSize=23.62mil|CornerRadius=1.18mil|HoleSize=0mil|Usage=FLASHONLY|Rotation=180.000|XOffset=0mil|YOffset=0mil|HoleType=Round|Shape=RoundedRectangle|*
%AMROUNDEDRECTD123*
21,1,0.01181,0.02126,0,0,180.0*
21,1,0.00945,0.02362,0,0,180.0*
1,1,0.00236,-0.00472,0.01063*
1,1,0.00236,0.00472,0.01063*
1,1,0.00236,0.00472,-0.01063*
1,1,0.00236,-0.00472,-0.01063*
%
%ADD123ROUNDEDRECTD123*%
%ADD124R,0.01575X0.04803*%
G36*
X1162285Y812743D02*
X1164019Y812398D01*
X1165654Y811721D01*
X1167125Y810738D01*
X1168376Y809488D01*
X1169358Y808017D01*
X1170035Y806382D01*
X1170380Y804648D01*
X1170380Y803763D01*
X1170380Y448763D01*
X1170380Y447878D01*
X1170035Y446143D01*
X1169358Y444509D01*
X1168375Y443038D01*
X1167125Y441787D01*
X1165654Y440805D01*
X1164019Y440128D01*
X1162284Y439782D01*
X1161400Y439782D01*
X755515D01*
X753781Y440128D01*
X752146Y440805D01*
X750675Y441787D01*
X749424Y443038D01*
X748442Y444509D01*
X747765Y446143D01*
X747420Y447879D01*
Y448763D01*
Y803763D01*
Y804648D01*
X747765Y806382D01*
X748442Y808017D01*
X749424Y809488D01*
X750675Y810739D01*
X752146Y811721D01*
X753781Y812398D01*
X755515Y812743D01*
X756400Y812743D01*
X1161400Y812743D01*
X1162285Y812743D01*
D02*
G37*
%LPC*%
G36*
X1086069Y808967D02*
X1086069Y808967D01*
X867014D01*
X867014Y808967D01*
X866553Y808876D01*
X866162Y808615D01*
X854631Y797084D01*
X854370Y796693D01*
X854278Y796232D01*
X854278Y796232D01*
Y765019D01*
X828931Y739672D01*
X806396D01*
X805935Y739580D01*
X805545Y739319D01*
X786846Y720621D01*
X786838Y720615D01*
X786819Y720602D01*
X786816Y720600D01*
X786815Y720600D01*
X786755Y720586D01*
X786508D01*
X785893Y720331D01*
X785423Y719860D01*
X785168Y719245D01*
Y718580D01*
X785423Y717965D01*
X785893Y717494D01*
X786508Y717239D01*
X787174D01*
X787789Y717494D01*
X788260Y717965D01*
X788514Y718580D01*
Y718827D01*
X788529Y718887D01*
X788529Y718887D01*
X788531Y718891D01*
X788543Y718910D01*
X788549Y718918D01*
X806895Y737263D01*
X809009D01*
X809335Y736476D01*
X788539Y715680D01*
X788531Y715674D01*
X788512Y715662D01*
X788509Y715660D01*
X788508Y715660D01*
X788448Y715645D01*
X788201D01*
X787586Y715390D01*
X787115Y714920D01*
X786861Y714305D01*
Y713639D01*
X787115Y713024D01*
X787586Y712554D01*
X788201Y712299D01*
X788867D01*
X789482Y712554D01*
X789952Y713024D01*
X790207Y713639D01*
Y713886D01*
X790222Y713946D01*
X790222Y713947D01*
X790224Y713950D01*
X790236Y713969D01*
X790242Y713977D01*
X811245Y734980D01*
X813823D01*
X814149Y734193D01*
X792239Y712282D01*
X792231Y712276D01*
X792212Y712264D01*
X792209Y712262D01*
X792208Y712262D01*
X792148Y712247D01*
X791901D01*
X791286Y711993D01*
X790815Y711522D01*
X790561Y710907D01*
Y710241D01*
X790815Y709626D01*
X791286Y709156D01*
X791901Y708901D01*
X792567D01*
X793182Y709156D01*
X793652Y709626D01*
X793907Y710241D01*
Y710488D01*
X793922Y710548D01*
X793922Y710549D01*
X793924Y710552D01*
X793936Y710571D01*
X793942Y710579D01*
X816229Y732866D01*
X817789D01*
X818115Y732079D01*
X795405Y709369D01*
X795397Y709363D01*
X795378Y709350D01*
X795375Y709348D01*
X795374Y709348D01*
X795314Y709334D01*
X795067D01*
X794452Y709079D01*
X793982Y708608D01*
X793727Y707994D01*
Y707328D01*
X793982Y706713D01*
X794452Y706242D01*
X795067Y705987D01*
X795733D01*
X796348Y706242D01*
X796818Y706713D01*
X797073Y707328D01*
Y707575D01*
X797088Y707635D01*
X797088Y707635D01*
X797090Y707639D01*
X797102Y707658D01*
X797108Y707666D01*
X819917Y730474D01*
X821424D01*
X821751Y729687D01*
X798346Y706282D01*
X798338Y706276D01*
X798319Y706264D01*
X798316Y706262D01*
X798315Y706262D01*
X798255Y706247D01*
X798008D01*
X797393Y705993D01*
X796922Y705522D01*
X796668Y704907D01*
Y704241D01*
X796922Y703626D01*
X797393Y703156D01*
X798008Y702901D01*
X798674D01*
X799289Y703156D01*
X799759Y703626D01*
X800014Y704241D01*
Y704488D01*
X800029Y704548D01*
X800029Y704549D01*
X800031Y704552D01*
X800043Y704571D01*
X800049Y704579D01*
X823560Y728090D01*
X833230D01*
X833230Y728090D01*
X833691Y728182D01*
X834081Y728443D01*
X861584Y755945D01*
X889240D01*
X889240Y755945D01*
X889701Y756037D01*
X890092Y756298D01*
X924969Y791175D01*
X1079465D01*
X1082716Y787923D01*
X1082723Y787915D01*
X1082735Y787896D01*
X1082737Y787892D01*
X1082737Y787892D01*
X1082752Y787832D01*
Y787585D01*
X1083006Y786970D01*
X1083477Y786499D01*
X1084092Y786244D01*
X1084758D01*
X1085373Y786499D01*
X1085843Y786970D01*
X1086098Y787585D01*
Y788250D01*
X1085843Y788865D01*
X1085373Y789336D01*
X1084758Y789591D01*
X1084511D01*
X1084451Y789606D01*
X1084450Y789606D01*
X1084447Y789607D01*
X1084428Y789620D01*
X1084420Y789626D01*
X1080815Y793231D01*
X1080424Y793492D01*
X1079963Y793583D01*
X1079963Y793583D01*
X925120D01*
X924794Y794371D01*
X925667Y795245D01*
X1036086D01*
X1036096Y795243D01*
X1036118Y795238D01*
X1036122Y795237D01*
X1036122Y795237D01*
X1036175Y795205D01*
X1036350Y795030D01*
X1036965Y794775D01*
X1037630D01*
X1038245Y795030D01*
X1038716Y795501D01*
X1038971Y796116D01*
Y796782D01*
X1038716Y797397D01*
X1038245Y797867D01*
X1037630Y798122D01*
X1036965D01*
X1036350Y797867D01*
X1036175Y797692D01*
X1036122Y797660D01*
X1036122Y797660D01*
X1036118Y797659D01*
X1036096Y797654D01*
X1036086Y797653D01*
X925169D01*
X925168Y797653D01*
X924708Y797561D01*
X924317Y797300D01*
X924317Y797300D01*
X887476Y760459D01*
X867766D01*
X867555Y761247D01*
X868230Y761636D01*
X868999Y762406D01*
X869543Y763348D01*
X869825Y764400D01*
Y765488D01*
X869543Y766540D01*
X868999Y767482D01*
X868230Y768252D01*
X867287Y768796D01*
X866236Y769078D01*
X865147D01*
X864096Y768796D01*
X863153Y768252D01*
X862383Y767482D01*
X861872Y766596D01*
X861800Y766577D01*
X861084Y766966D01*
Y774733D01*
X861800Y775123D01*
X861872Y775103D01*
X862383Y774217D01*
X863153Y773447D01*
X864096Y772903D01*
X865147Y772621D01*
X866236D01*
X867287Y772903D01*
X868230Y773447D01*
X868999Y774217D01*
X869543Y775160D01*
X869825Y776211D01*
Y777299D01*
X869543Y778351D01*
X868999Y779293D01*
X868230Y780063D01*
X867287Y780607D01*
X866236Y780889D01*
X865147D01*
X864096Y780607D01*
X863153Y780063D01*
X862383Y779293D01*
X861872Y778407D01*
X861800Y778388D01*
X861084Y778777D01*
Y781355D01*
X863289Y783559D01*
X905767D01*
X905767Y783559D01*
X906228Y783650D01*
X906619Y783912D01*
X911565Y788858D01*
X911573Y788864D01*
X911592Y788876D01*
X911595Y788878D01*
X911596Y788878D01*
X911656Y788893D01*
X911903D01*
X912518Y789148D01*
X912989Y789618D01*
X913243Y790233D01*
Y790899D01*
X912989Y791514D01*
X912518Y791985D01*
X911903Y792239D01*
X911237D01*
X910622Y791985D01*
X910152Y791514D01*
X909897Y790899D01*
Y790652D01*
X909882Y790592D01*
X909882Y790591D01*
X909880Y790588D01*
X909868Y790569D01*
X909862Y790561D01*
X905268Y785967D01*
X862790D01*
X862790Y785967D01*
X862329Y785876D01*
X861938Y785614D01*
X861938Y785614D01*
X859758Y783434D01*
X858970Y783760D01*
Y793557D01*
X868972Y803559D01*
X1081635D01*
X1091196Y793998D01*
Y777762D01*
X1086549Y773115D01*
X1086287Y772724D01*
X1086196Y772263D01*
X1086196Y772263D01*
Y750092D01*
X1086196Y750092D01*
X1086287Y749631D01*
X1086549Y749241D01*
X1089878Y745912D01*
X1089878Y745912D01*
X1090268Y745650D01*
X1090729Y745559D01*
X1103649D01*
X1103649Y745559D01*
X1104110Y745650D01*
X1104500Y745912D01*
X1108309Y749721D01*
X1108571Y750111D01*
X1108662Y750572D01*
Y751438D01*
X1109107Y751658D01*
X1109450Y751708D01*
X1110075Y751083D01*
X1110938Y750584D01*
X1111901Y750326D01*
X1112899D01*
X1113862Y750584D01*
X1114725Y751083D01*
X1115431Y751788D01*
X1115929Y752652D01*
X1116187Y753615D01*
Y754612D01*
X1115929Y755575D01*
X1115431Y756439D01*
X1114725Y757144D01*
X1113862Y757643D01*
X1112899Y757901D01*
X1111901D01*
X1110938Y757643D01*
X1110075Y757144D01*
X1109450Y756519D01*
X1109107Y756569D01*
X1108662Y756789D01*
Y757838D01*
X1110645Y759821D01*
X1110906Y760212D01*
X1110929Y760326D01*
X1116187D01*
Y767901D01*
X1108853D01*
Y790659D01*
X1114068Y795874D01*
X1147375D01*
X1155511Y787738D01*
Y671344D01*
X1141134Y656967D01*
X1061546D01*
X1028214Y690299D01*
X1027823Y690560D01*
X1027362Y690652D01*
X1027362Y690652D01*
X1007648D01*
X1007648Y690652D01*
X1007187Y690560D01*
X1006796Y690299D01*
X980065Y663568D01*
X979804Y663178D01*
X979713Y662717D01*
X979713Y662717D01*
Y624684D01*
X969811Y614783D01*
X969550Y614392D01*
X969458Y613932D01*
X969458Y613932D01*
Y590082D01*
X960028Y580652D01*
X931042D01*
X931042Y580652D01*
X930581Y580560D01*
X930190Y580299D01*
X930190Y580299D01*
X921856Y571965D01*
X850409D01*
X828888Y593486D01*
X828882Y593494D01*
X828869Y593513D01*
X828867Y593516D01*
X828867Y593517D01*
X828853Y593577D01*
Y593824D01*
X828598Y594439D01*
X828127Y594910D01*
X827512Y595165D01*
X826847D01*
X826232Y594910D01*
X825761Y594439D01*
X825506Y593824D01*
Y593158D01*
X825761Y592544D01*
X825391Y591799D01*
X825000D01*
X824386Y591545D01*
X823915Y591074D01*
X823660Y590459D01*
Y589793D01*
X823915Y589179D01*
X824241Y588853D01*
X824061Y588372D01*
X823891Y588125D01*
X823303D01*
X822688Y587871D01*
X822218Y587400D01*
X821963Y586785D01*
Y586119D01*
X822218Y585504D01*
X822688Y585034D01*
X823303Y584779D01*
X823551D01*
X823611Y584764D01*
X823611Y584764D01*
X823615Y584762D01*
X823633Y584750D01*
X823642Y584744D01*
X843474Y564912D01*
X843474Y564912D01*
X843864Y564650D01*
X844325Y564559D01*
X844325Y564559D01*
X927939D01*
X927940Y564559D01*
X928400Y564650D01*
X928791Y564912D01*
X934640Y570760D01*
X963627D01*
X963627Y570760D01*
X964088Y570852D01*
X964478Y571113D01*
X978997Y585632D01*
X978997Y585632D01*
X979258Y586023D01*
X979350Y586484D01*
X979350Y586484D01*
Y610333D01*
X989252Y620235D01*
X989513Y620625D01*
X989604Y621086D01*
X989604Y621086D01*
Y654551D01*
X989606Y654561D01*
X989610Y654584D01*
X989611Y654587D01*
X989612Y654588D01*
X989644Y654640D01*
X989818Y654815D01*
X990073Y655430D01*
Y656096D01*
X989818Y656711D01*
X989348Y657182D01*
X988733Y657436D01*
X988067D01*
X987452Y657182D01*
X986981Y656711D01*
X986727Y656096D01*
Y655430D01*
X986981Y654815D01*
X987156Y654640D01*
X987189Y654588D01*
X987189Y654587D01*
X987190Y654584D01*
X987194Y654561D01*
X987196Y654551D01*
Y621585D01*
X977294Y611683D01*
X977033Y611293D01*
X976941Y610832D01*
X976942Y610832D01*
Y586982D01*
X963128Y573169D01*
X934141D01*
X934141Y573169D01*
X933680Y573077D01*
X933290Y572816D01*
X933290Y572816D01*
X927441Y566967D01*
X926589D01*
X926263Y567755D01*
X933067Y574559D01*
X962053D01*
X962054Y574559D01*
X962514Y574650D01*
X962905Y574911D01*
X975199Y587206D01*
X975199Y587206D01*
X975460Y587596D01*
X975552Y588057D01*
X975552Y588057D01*
Y611906D01*
X985453Y621808D01*
X985714Y622198D01*
X985806Y622659D01*
X985806Y622659D01*
Y660692D01*
X1009673Y684559D01*
X1025337D01*
X1056984Y652912D01*
X1056984Y652912D01*
X1057375Y652650D01*
X1057836Y652559D01*
X1143663D01*
X1143663Y652559D01*
X1144124Y652650D01*
X1144515Y652912D01*
X1161252Y669648D01*
X1161252Y669648D01*
X1161513Y670039D01*
X1161604Y670500D01*
X1161604Y670500D01*
Y789763D01*
X1161604Y789763D01*
X1161513Y790224D01*
X1161252Y790615D01*
X1161252Y790615D01*
X1150251Y801614D01*
X1149861Y801876D01*
X1149400Y801967D01*
X1149400Y801967D01*
X1112043D01*
X1112043Y801967D01*
X1111582Y801876D01*
X1111192Y801614D01*
X1111192Y801614D01*
X1101548Y791971D01*
X1101287Y791581D01*
X1101196Y791120D01*
X1101196Y791120D01*
Y768832D01*
X1101194Y768817D01*
X1101169Y768711D01*
X1101115Y768567D01*
X1101028Y768391D01*
X1100905Y768186D01*
X1100756Y767971D01*
X1100033Y767128D01*
X1099730Y766821D01*
X1099687Y766757D01*
X1099369Y766439D01*
X1098871Y765575D01*
X1098613Y764612D01*
Y763615D01*
X1098871Y762651D01*
X1099369Y761788D01*
X1100074Y761083D01*
X1100938Y760584D01*
X1101901Y760326D01*
X1102481D01*
X1102807Y759539D01*
X1101953Y758685D01*
X1101692Y758294D01*
X1101600Y757833D01*
X1101600Y757833D01*
Y757820D01*
X1100938Y757643D01*
X1100074Y757144D01*
X1099369Y756439D01*
X1098871Y755575D01*
X1098613Y754612D01*
Y753615D01*
X1098871Y752652D01*
X1099369Y751788D01*
X1100074Y751083D01*
X1100938Y750584D01*
X1101901Y750326D01*
X1102899D01*
X1103862Y750584D01*
X1104725Y751083D01*
X1105166Y751523D01*
X1106002Y751267D01*
X1106062Y750880D01*
X1103150Y747967D01*
X1091228D01*
X1088604Y750591D01*
Y751538D01*
X1089288Y751761D01*
X1089392Y751766D01*
X1090075Y751083D01*
X1090938Y750584D01*
X1091901Y750326D01*
X1092899D01*
X1093862Y750584D01*
X1094726Y751083D01*
X1095431Y751788D01*
X1095929Y752652D01*
X1096187Y753615D01*
Y754612D01*
X1095929Y755575D01*
X1095431Y756439D01*
X1094726Y757144D01*
X1093862Y757643D01*
X1092899Y757901D01*
X1091901D01*
X1090938Y757643D01*
X1090075Y757144D01*
X1089392Y756461D01*
X1089288Y756465D01*
X1088604Y756688D01*
Y761538D01*
X1089288Y761761D01*
X1089392Y761766D01*
X1090075Y761083D01*
X1090938Y760584D01*
X1091901Y760326D01*
X1092899D01*
X1093862Y760584D01*
X1094726Y761083D01*
X1095431Y761788D01*
X1095929Y762651D01*
X1096187Y763615D01*
Y764065D01*
X1096203Y764140D01*
X1096205Y764579D01*
X1096249Y765351D01*
X1096287Y765660D01*
X1096337Y765936D01*
X1096395Y766168D01*
X1096458Y766354D01*
X1096521Y766494D01*
X1096579Y766587D01*
X1096588Y766598D01*
X1096743Y766754D01*
X1097005Y767144D01*
X1097096Y767605D01*
X1097096Y767605D01*
Y797940D01*
X1097096Y797940D01*
X1097005Y798401D01*
X1096743Y798792D01*
X1096743Y798792D01*
X1086921Y808615D01*
X1086530Y808876D01*
X1086069Y808967D01*
D02*
G37*
G36*
X872256Y800456D02*
X870938D01*
X869645Y800199D01*
X868427Y799694D01*
X867330Y798962D01*
X866398Y798030D01*
X865666Y796933D01*
X865161Y795715D01*
X864904Y794422D01*
Y793104D01*
X865161Y791811D01*
X865666Y790593D01*
X866398Y789497D01*
X867330Y788564D01*
X868427Y787832D01*
X869645Y787327D01*
X870938Y787070D01*
X872256D01*
X873549Y787327D01*
X874767Y787832D01*
X875863Y788564D01*
X876796Y789497D01*
X877528Y790593D01*
X878033Y791811D01*
X878290Y793104D01*
Y794422D01*
X878033Y795715D01*
X877528Y796933D01*
X876796Y798030D01*
X875863Y798962D01*
X874767Y799694D01*
X873549Y800199D01*
X872256Y800456D01*
D02*
G37*
G36*
X820162D02*
X818843D01*
X817550Y800199D01*
X816332Y799694D01*
X815236Y798962D01*
X814304Y798030D01*
X813571Y796933D01*
X813067Y795715D01*
X812809Y794422D01*
Y793104D01*
X813067Y791811D01*
X813571Y790593D01*
X814304Y789497D01*
X815236Y788564D01*
X816332Y787832D01*
X817550Y787327D01*
X818843Y787070D01*
X820162D01*
X821455Y787327D01*
X822673Y787832D01*
X823769Y788564D01*
X824701Y789497D01*
X825434Y790593D01*
X825938Y791811D01*
X826195Y793104D01*
Y794422D01*
X825938Y795715D01*
X825434Y796933D01*
X824701Y798030D01*
X823769Y798962D01*
X822673Y799694D01*
X821455Y800199D01*
X820162Y800456D01*
D02*
G37*
G36*
X1136753Y790275D02*
X1135047D01*
X1133374Y789942D01*
X1131797Y789289D01*
X1130379Y788341D01*
X1129172Y787135D01*
X1128224Y785716D01*
X1127571Y784140D01*
X1127239Y782467D01*
Y780760D01*
X1127571Y779087D01*
X1128224Y777511D01*
X1129172Y776092D01*
X1130379Y774886D01*
X1131797Y773938D01*
X1133374Y773285D01*
X1135047Y772952D01*
X1136753D01*
X1138426Y773285D01*
X1140003Y773938D01*
X1141421Y774886D01*
X1142628Y776092D01*
X1143576Y777511D01*
X1144229Y779087D01*
X1144561Y780760D01*
Y782467D01*
X1144229Y784140D01*
X1143576Y785716D01*
X1142628Y787135D01*
X1141421Y788341D01*
X1140003Y789289D01*
X1138426Y789942D01*
X1136753Y790275D01*
D02*
G37*
G36*
X1021753D02*
X1020047D01*
X1018374Y789942D01*
X1016797Y789289D01*
X1015379Y788341D01*
X1014172Y787135D01*
X1013224Y785716D01*
X1012571Y784140D01*
X1012239Y782467D01*
Y780760D01*
X1012571Y779087D01*
X1013224Y777511D01*
X1014172Y776092D01*
X1015379Y774886D01*
X1016797Y773938D01*
X1018374Y773285D01*
X1020047Y772952D01*
X1021753D01*
X1023426Y773285D01*
X1025003Y773938D01*
X1026421Y774886D01*
X1027628Y776092D01*
X1028576Y777511D01*
X1029229Y779087D01*
X1029561Y780760D01*
Y782467D01*
X1029229Y784140D01*
X1028576Y785716D01*
X1027628Y787135D01*
X1026421Y788341D01*
X1025003Y789289D01*
X1023426Y789942D01*
X1021753Y790275D01*
D02*
G37*
G36*
X814141Y780889D02*
X813053D01*
X812001Y780607D01*
X811059Y780063D01*
X810289Y779293D01*
X809745Y778351D01*
X809463Y777299D01*
Y776211D01*
X809745Y775160D01*
X810289Y774217D01*
X811059Y773447D01*
X812001Y772903D01*
X813053Y772621D01*
X814141D01*
X815193Y772903D01*
X816135Y773447D01*
X816905Y774217D01*
X817449Y775160D01*
X817731Y776211D01*
Y777299D01*
X817449Y778351D01*
X816905Y779293D01*
X816135Y780063D01*
X815193Y780607D01*
X814141Y780889D01*
D02*
G37*
G36*
Y769078D02*
X813053D01*
X812001Y768796D01*
X811059Y768252D01*
X810289Y767482D01*
X809745Y766540D01*
X809463Y765488D01*
Y764400D01*
X809745Y763348D01*
X810289Y762406D01*
X811059Y761636D01*
X812001Y761092D01*
X813053Y760810D01*
X814141D01*
X815193Y761092D01*
X816135Y761636D01*
X816905Y762406D01*
X817449Y763348D01*
X817731Y764400D01*
Y765488D01*
X817449Y766540D01*
X816905Y767482D01*
X816135Y768252D01*
X815193Y768796D01*
X814141Y769078D01*
D02*
G37*
G36*
X1072899Y767901D02*
X1071901D01*
X1070938Y767643D01*
X1070074Y767144D01*
X1069369Y766439D01*
X1068871Y765575D01*
X1068613Y764612D01*
Y763615D01*
X1068871Y762651D01*
X1069369Y761788D01*
X1070074Y761083D01*
X1070938Y760584D01*
X1071901Y760326D01*
X1072899D01*
X1073862Y760584D01*
X1074726Y761083D01*
X1075431Y761788D01*
X1075929Y762651D01*
X1076187Y763615D01*
Y764612D01*
X1075929Y765575D01*
X1075431Y766439D01*
X1074726Y767144D01*
X1073862Y767643D01*
X1072899Y767901D01*
D02*
G37*
G36*
X1062899D02*
X1061901D01*
X1060938Y767643D01*
X1060075Y767144D01*
X1059369Y766439D01*
X1058871Y765575D01*
X1058613Y764612D01*
Y763615D01*
X1058871Y762651D01*
X1059369Y761788D01*
X1060075Y761083D01*
X1060938Y760584D01*
X1061901Y760326D01*
X1062899D01*
X1063862Y760584D01*
X1064725Y761083D01*
X1065431Y761788D01*
X1065929Y762651D01*
X1066187Y763615D01*
Y764612D01*
X1065929Y765575D01*
X1065431Y766439D01*
X1064725Y767144D01*
X1063862Y767643D01*
X1062899Y767901D01*
D02*
G37*
G36*
X1052899D02*
X1051901D01*
X1050938Y767643D01*
X1050074Y767144D01*
X1049369Y766439D01*
X1048871Y765575D01*
X1048613Y764612D01*
Y763615D01*
X1048871Y762651D01*
X1049369Y761788D01*
X1050074Y761083D01*
X1050938Y760584D01*
X1051901Y760326D01*
X1052899D01*
X1053862Y760584D01*
X1054725Y761083D01*
X1055431Y761788D01*
X1055929Y762651D01*
X1056187Y763615D01*
Y764612D01*
X1055929Y765575D01*
X1055431Y766439D01*
X1054725Y767144D01*
X1053862Y767643D01*
X1052899Y767901D01*
D02*
G37*
G36*
X763966Y786236D02*
X761921D01*
X759901Y785916D01*
X757956Y785284D01*
X756134Y784355D01*
X754480Y783153D01*
X753033Y781707D01*
X751831Y780053D01*
X750903Y778231D01*
X750271Y776286D01*
X749951Y774266D01*
Y772221D01*
X750271Y770201D01*
X750903Y768256D01*
X751831Y766434D01*
X753033Y764780D01*
X754480Y763334D01*
X756134Y762132D01*
X757956Y761203D01*
X759901Y760571D01*
X761921Y760251D01*
X763966D01*
X765986Y760571D01*
X767931Y761203D01*
X769753Y762132D01*
X771407Y763334D01*
X772853Y764780D01*
X774055Y766434D01*
X774984Y768256D01*
X775616Y770201D01*
X775936Y772221D01*
Y774266D01*
X775616Y776286D01*
X774984Y778231D01*
X774055Y780053D01*
X772853Y781707D01*
X771407Y783153D01*
X769753Y784355D01*
X767931Y785284D01*
X765986Y785916D01*
X763966Y786236D01*
D02*
G37*
G36*
X956879D02*
X954834D01*
X952814Y785916D01*
X950869Y785284D01*
X949047Y784355D01*
X947393Y783153D01*
X945947Y781707D01*
X944745Y780053D01*
X943816Y778231D01*
X943184Y776286D01*
X942865Y774266D01*
Y772221D01*
X943184Y770201D01*
X943816Y768256D01*
X944745Y766434D01*
X945947Y764780D01*
X947393Y763334D01*
X949047Y762132D01*
X950869Y761203D01*
X952814Y760571D01*
X954558Y760295D01*
X954496Y759508D01*
X940509D01*
X931177Y768840D01*
X930786Y769101D01*
X930325Y769193D01*
X930325Y769193D01*
X913856D01*
X913856Y769193D01*
X913395Y769101D01*
X913004Y768840D01*
X906312Y762148D01*
X906304Y762142D01*
X906285Y762129D01*
X906282Y762127D01*
X906281Y762127D01*
X906221Y762113D01*
X905974D01*
X905359Y761858D01*
X904889Y761387D01*
X904634Y760772D01*
Y760107D01*
X904889Y759492D01*
X905359Y759021D01*
X905974Y758766D01*
X906640D01*
X907255Y759021D01*
X907726Y759492D01*
X907980Y760107D01*
Y760354D01*
X907995Y760414D01*
X907995Y760414D01*
X907997Y760418D01*
X908009Y760437D01*
X908015Y760445D01*
X914355Y766784D01*
X929826D01*
X938667Y757944D01*
X938340Y757157D01*
X937054D01*
X937054Y757157D01*
X936594Y757065D01*
X936203Y756804D01*
X932903Y753504D01*
X906094D01*
X901433Y758166D01*
Y759485D01*
X901434Y759495D01*
X901439Y759517D01*
X901440Y759521D01*
X901440Y759521D01*
X901472Y759574D01*
X901647Y759749D01*
X901902Y760364D01*
Y761030D01*
X901647Y761645D01*
X901176Y762115D01*
X900561Y762370D01*
X899896D01*
X899281Y762115D01*
X898810Y761645D01*
X898555Y761030D01*
Y760364D01*
X898810Y759749D01*
X898985Y759574D01*
X899017Y759521D01*
X899017Y759521D01*
X899018Y759517D01*
X899023Y759495D01*
X899024Y759485D01*
Y757667D01*
X899024Y757667D01*
X899116Y757206D01*
X899377Y756815D01*
X904744Y751448D01*
X905134Y751187D01*
X905595Y751096D01*
X933402D01*
X933402Y751096D01*
X933863Y751187D01*
X934253Y751448D01*
X937553Y754748D01*
X965421D01*
X971484Y748685D01*
X971490Y748676D01*
X971503Y748657D01*
X971505Y748654D01*
X971505Y748654D01*
X971519Y748594D01*
Y748346D01*
X971774Y747731D01*
X972245Y747261D01*
X972860Y747006D01*
X973525D01*
X974140Y747261D01*
X974227Y747347D01*
X974741Y747654D01*
X975256Y747347D01*
X975342Y747261D01*
X975957Y747006D01*
X976623D01*
X977238Y747261D01*
X977709Y747731D01*
X977963Y748346D01*
Y749012D01*
X977709Y749627D01*
X977238Y750098D01*
X976623Y750352D01*
X976528D01*
X976524Y750354D01*
X976509Y750363D01*
X976486Y750377D01*
X976466Y750391D01*
X976438Y750415D01*
X967698Y759155D01*
X967307Y759416D01*
X966846Y759508D01*
X966846Y759508D01*
X957217D01*
X957156Y760295D01*
X958899Y760571D01*
X960844Y761203D01*
X962666Y762132D01*
X964320Y763334D01*
X965767Y764780D01*
X966969Y766434D01*
X967897Y768256D01*
X968529Y770201D01*
X968849Y772221D01*
Y774266D01*
X968529Y776286D01*
X967897Y778231D01*
X966969Y780053D01*
X965767Y781707D01*
X964320Y783153D01*
X962666Y784355D01*
X960844Y785284D01*
X958899Y785916D01*
X956879Y786236D01*
D02*
G37*
G36*
X1062899Y757901D02*
X1061901D01*
X1060938Y757643D01*
X1060075Y757144D01*
X1059369Y756439D01*
X1058871Y755575D01*
X1058613Y754612D01*
Y753615D01*
X1058871Y752652D01*
X1059369Y751788D01*
X1060075Y751083D01*
X1060938Y750584D01*
X1061901Y750326D01*
X1062899D01*
X1063862Y750584D01*
X1064725Y751083D01*
X1065431Y751788D01*
X1065929Y752652D01*
X1066187Y753615D01*
Y754612D01*
X1065929Y755575D01*
X1065431Y756439D01*
X1064725Y757144D01*
X1063862Y757643D01*
X1062899Y757901D01*
D02*
G37*
G36*
X1052899D02*
X1051901D01*
X1050938Y757643D01*
X1050074Y757144D01*
X1049369Y756439D01*
X1048871Y755575D01*
X1048613Y754612D01*
Y753615D01*
X1048871Y752652D01*
X1049369Y751788D01*
X1050074Y751083D01*
X1050938Y750584D01*
X1051901Y750326D01*
X1052899D01*
X1053862Y750584D01*
X1054725Y751083D01*
X1055431Y751788D01*
X1055929Y752652D01*
X1056187Y753615D01*
Y754612D01*
X1055929Y755575D01*
X1055431Y756439D01*
X1054725Y757144D01*
X1053862Y757643D01*
X1052899Y757901D01*
D02*
G37*
G36*
X768442Y757858D02*
X767445D01*
X766481Y757599D01*
X765618Y757101D01*
X764913Y756396D01*
X764414Y755532D01*
X764156Y754569D01*
Y753572D01*
X764414Y752608D01*
X764913Y751745D01*
X765618Y751040D01*
X766481Y750541D01*
X767445Y750283D01*
X768442D01*
X769405Y750541D01*
X770269Y751040D01*
X770974Y751745D01*
X771473Y752608D01*
X771731Y753572D01*
Y754569D01*
X771473Y755532D01*
X770974Y756396D01*
X770269Y757101D01*
X769405Y757599D01*
X768442Y757858D01*
D02*
G37*
G36*
X761731D02*
X754156D01*
Y750283D01*
X761731D01*
Y757858D01*
D02*
G37*
G36*
X1137878Y744712D02*
X1137213D01*
X1136598Y744457D01*
X1136127Y743987D01*
X1135872Y743371D01*
Y742706D01*
X1136039Y742304D01*
X1135542Y741689D01*
X1135514Y741669D01*
X1135167Y741813D01*
X1134501D01*
X1133886Y741559D01*
X1133415Y741088D01*
X1133161Y740473D01*
Y739807D01*
X1133415Y739192D01*
X1133886Y738722D01*
X1134501Y738467D01*
X1134748D01*
X1134808Y738452D01*
X1134809Y738452D01*
X1134812Y738450D01*
X1134831Y738438D01*
X1134839Y738432D01*
X1143196Y730075D01*
Y694299D01*
X1134864Y685967D01*
X1126243D01*
X1126243Y685967D01*
X1125782Y685876D01*
X1125391Y685614D01*
X1125391Y685614D01*
X1115744Y675967D01*
X1058521Y675967D01*
X1032874Y701615D01*
X1032483Y701876D01*
X1032022Y701967D01*
X1032022Y701967D01*
X994092D01*
X994092Y701967D01*
X993631Y701876D01*
X993241Y701615D01*
X981625Y689999D01*
X923658D01*
X923548Y690079D01*
X923543Y690220D01*
X924001Y690866D01*
X980767D01*
X980767Y690866D01*
X981228Y690958D01*
X981618Y691219D01*
X993234Y702834D01*
X1032880D01*
X1058527Y677187D01*
X1058527Y677187D01*
X1058918Y676926D01*
X1059379Y676834D01*
X1059379Y676834D01*
X1114886D01*
X1114886Y676834D01*
X1115347Y676926D01*
X1115737Y677187D01*
X1125385Y686834D01*
X1134006D01*
X1134006Y686834D01*
X1134467Y686926D01*
X1134858Y687187D01*
X1141976Y694305D01*
X1141976Y694305D01*
X1142237Y694696D01*
X1142329Y695157D01*
X1142329Y695157D01*
Y727881D01*
X1142237Y728342D01*
X1141976Y728733D01*
X1141976Y728733D01*
X1133162Y737546D01*
X1133156Y737554D01*
X1133144Y737573D01*
X1133142Y737576D01*
X1133142Y737577D01*
X1133127Y737637D01*
Y737884D01*
X1132873Y738499D01*
X1132402Y738970D01*
X1131787Y739225D01*
X1131121D01*
X1130506Y738970D01*
X1130036Y738499D01*
X1129781Y737884D01*
Y737219D01*
X1130036Y736604D01*
X1130506Y736133D01*
X1131121Y735878D01*
X1131369D01*
X1131429Y735863D01*
X1131429Y735863D01*
X1131433Y735862D01*
X1131451Y735849D01*
X1131460Y735843D01*
X1139920Y727382D01*
Y695655D01*
X1133508Y689243D01*
X1124886D01*
X1124886Y689243D01*
X1124425Y689151D01*
X1124034Y688890D01*
X1124034Y688890D01*
X1114387Y679243D01*
X1059878D01*
X1034230Y704890D01*
X1033840Y705151D01*
X1033379Y705243D01*
X1033379Y705243D01*
X992735D01*
X992274Y705151D01*
X991884Y704890D01*
X991884Y704890D01*
X980268Y693275D01*
X923566D01*
X921738Y695102D01*
X921735Y695106D01*
X921734Y695108D01*
X921732Y695123D01*
Y695541D01*
X921478Y696156D01*
X921007Y696626D01*
X920392Y696881D01*
X919726D01*
X919111Y696626D01*
X918641Y696156D01*
X918433Y695655D01*
X917976Y695455D01*
X917598Y695376D01*
X914227Y698747D01*
Y701551D01*
X914229Y701561D01*
X914233Y701583D01*
X914234Y701587D01*
X914235Y701587D01*
X914267Y701640D01*
X914441Y701815D01*
X914696Y702430D01*
Y703096D01*
X914441Y703711D01*
X913971Y704181D01*
X913356Y704436D01*
X912690D01*
X912075Y704181D01*
X911605Y703711D01*
X911350Y703096D01*
Y702430D01*
X911404Y702299D01*
X910789Y701728D01*
X910443Y701871D01*
X909778D01*
X909163Y701616D01*
X908692Y701145D01*
X908437Y700530D01*
Y699865D01*
X908692Y699250D01*
X908867Y699075D01*
X908899Y699022D01*
X908899Y699022D01*
X908900Y699018D01*
X908905Y698996D01*
X908906Y698986D01*
Y696248D01*
X908906Y696248D01*
X908998Y695787D01*
X909259Y695397D01*
X920186Y684470D01*
X920186Y684470D01*
X920577Y684209D01*
X921038Y684117D01*
X921038Y684117D01*
X983563Y684117D01*
X983563Y684117D01*
X984023Y684209D01*
X984414Y684470D01*
X996030Y696085D01*
X1030084D01*
X1055732Y670438D01*
X1055732Y670438D01*
X1056122Y670177D01*
X1056583Y670085D01*
X1056583Y670085D01*
X1117681Y670085D01*
X1117681Y670085D01*
X1118142Y670177D01*
X1118533Y670438D01*
X1128180Y680085D01*
X1136802D01*
X1136802Y680085D01*
X1137263Y680177D01*
X1137654Y680438D01*
X1148725Y691509D01*
X1148986Y691900D01*
X1149078Y692361D01*
Y736289D01*
X1148986Y736750D01*
X1148725Y737141D01*
X1148725Y737141D01*
X1141976Y743890D01*
X1141585Y744151D01*
X1141124Y744243D01*
X1141124Y744243D01*
X1138757D01*
X1138747Y744244D01*
X1138725Y744249D01*
X1138721Y744250D01*
X1138721Y744250D01*
X1138668Y744282D01*
X1138493Y744457D01*
X1137878Y744712D01*
D02*
G37*
G36*
X758442Y747858D02*
X757445D01*
X756482Y747599D01*
X755618Y747101D01*
X754913Y746396D01*
X754414Y745532D01*
X754156Y744569D01*
Y743572D01*
X754414Y742608D01*
X754913Y741745D01*
X755618Y741040D01*
X756482Y740541D01*
X757445Y740283D01*
X758442D01*
X759405Y740541D01*
X760269Y741040D01*
X760974Y741745D01*
X761473Y742608D01*
X761731Y743572D01*
Y744569D01*
X761473Y745532D01*
X760974Y746396D01*
X760269Y747101D01*
X759405Y747599D01*
X758442Y747858D01*
D02*
G37*
G36*
Y727857D02*
X757445D01*
X756482Y727599D01*
X755618Y727101D01*
X754913Y726396D01*
X754414Y725532D01*
X754156Y724569D01*
Y723571D01*
X754414Y722608D01*
X754913Y721745D01*
X755618Y721039D01*
X756482Y720541D01*
X757445Y720283D01*
X758442D01*
X759405Y720541D01*
X760269Y721039D01*
X760974Y721745D01*
X761473Y722608D01*
X761731Y723571D01*
Y724569D01*
X761473Y725532D01*
X760974Y726396D01*
X760269Y727101D01*
X759405Y727599D01*
X758442Y727857D01*
D02*
G37*
G36*
X956769Y737467D02*
X956769Y737467D01*
X872133D01*
X871672Y737376D01*
X871281Y737114D01*
X871281Y737114D01*
X799745Y665579D01*
X799484Y665188D01*
X799393Y664727D01*
X799393Y664727D01*
Y638671D01*
X791382Y630660D01*
X791373Y630654D01*
X791355Y630642D01*
X791351Y630640D01*
X791351Y630640D01*
X791291Y630625D01*
X791043D01*
X790428Y630370D01*
X789958Y629900D01*
X789703Y629285D01*
Y628619D01*
X789958Y628004D01*
X790428Y627533D01*
X791043Y627279D01*
X791709D01*
X792324Y627533D01*
X792795Y628004D01*
X793049Y628619D01*
Y628866D01*
X793064Y628926D01*
X793064Y628927D01*
X793066Y628930D01*
X793078Y628949D01*
X793085Y628957D01*
X801448Y637321D01*
X801709Y637712D01*
X801801Y638172D01*
X801801Y638172D01*
Y664228D01*
X872631Y735059D01*
X956271D01*
X961201Y730128D01*
X961592Y729867D01*
X962053Y729775D01*
X962053Y729775D01*
X1076921D01*
X1078408Y728288D01*
Y723468D01*
X1078408Y723468D01*
X1078500Y723007D01*
X1078761Y722616D01*
X1081692Y719686D01*
X1081698Y719678D01*
X1081710Y719659D01*
X1081712Y719656D01*
X1081712Y719655D01*
X1081727Y719595D01*
Y719348D01*
X1081981Y718733D01*
X1082452Y718262D01*
X1083067Y718007D01*
X1083733D01*
X1084348Y718262D01*
X1084818Y718733D01*
X1085073Y719348D01*
Y720014D01*
X1084818Y720628D01*
X1084348Y721099D01*
X1083733Y721354D01*
X1083486D01*
X1083426Y721369D01*
X1083425Y721369D01*
X1083422Y721370D01*
X1083403Y721383D01*
X1083395Y721389D01*
X1080817Y723967D01*
Y728787D01*
X1080817Y728787D01*
X1080725Y729248D01*
X1080464Y729638D01*
X1080464Y729638D01*
X1078271Y731831D01*
X1077881Y732092D01*
X1077420Y732184D01*
X1077420Y732184D01*
X962552D01*
X957621Y737114D01*
X957230Y737376D01*
X956769Y737467D01*
D02*
G37*
G36*
X758442Y717858D02*
X757445D01*
X756482Y717599D01*
X755618Y717101D01*
X754913Y716396D01*
X754414Y715532D01*
X754156Y714569D01*
Y713572D01*
X754414Y712608D01*
X754913Y711745D01*
X755618Y711039D01*
X756482Y710541D01*
X757445Y710283D01*
X758442D01*
X759405Y710541D01*
X760269Y711039D01*
X760974Y711745D01*
X761473Y712608D01*
X761731Y713572D01*
Y714569D01*
X761473Y715532D01*
X760974Y716396D01*
X760269Y717101D01*
X759405Y717599D01*
X758442Y717858D01*
D02*
G37*
G36*
X942810Y721467D02*
X942144D01*
X941529Y721213D01*
X941059Y720742D01*
X940804Y720127D01*
Y719880D01*
X940789Y719820D01*
X940789Y719819D01*
X940788Y719816D01*
X940775Y719797D01*
X940769Y719789D01*
X928003Y707023D01*
X921596D01*
X921586Y707024D01*
X921564Y707029D01*
X921560Y707030D01*
X921560Y707030D01*
X921507Y707062D01*
X921332Y707237D01*
X920717Y707492D01*
X920051D01*
X919436Y707237D01*
X918966Y706766D01*
X918711Y706151D01*
Y705486D01*
X918966Y704871D01*
X919436Y704400D01*
X920051Y704145D01*
X920717D01*
X921332Y704400D01*
X921507Y704575D01*
X921560Y704607D01*
X921560Y704607D01*
X921564Y704608D01*
X921586Y704613D01*
X921596Y704614D01*
X928502D01*
X928502Y704614D01*
X928963Y704706D01*
X929353Y704967D01*
X942472Y718086D01*
X942480Y718092D01*
X942499Y718104D01*
X942502Y718106D01*
X942503Y718106D01*
X942563Y718121D01*
X942810D01*
X943425Y718376D01*
X943896Y718846D01*
X944151Y719461D01*
Y720127D01*
X943896Y720742D01*
X943425Y721213D01*
X942810Y721467D01*
D02*
G37*
G36*
X768442Y707858D02*
X767445D01*
X766481Y707599D01*
X765618Y707101D01*
X764913Y706396D01*
X764414Y705532D01*
X764156Y704569D01*
Y703572D01*
X764414Y702608D01*
X764913Y701745D01*
X765618Y701040D01*
X766481Y700541D01*
X767445Y700283D01*
X768442D01*
X769405Y700541D01*
X770269Y701040D01*
X770974Y701745D01*
X771473Y702608D01*
X771731Y703572D01*
Y704569D01*
X771473Y705532D01*
X770974Y706396D01*
X770269Y707101D01*
X769405Y707599D01*
X768442Y707858D01*
D02*
G37*
G36*
X758442D02*
X757445D01*
X756482Y707599D01*
X755618Y707101D01*
X754913Y706396D01*
X754414Y705532D01*
X754156Y704569D01*
Y703572D01*
X754414Y702608D01*
X754913Y701745D01*
X755618Y701040D01*
X756482Y700541D01*
X757445Y700283D01*
X758442D01*
X759405Y700541D01*
X760269Y701040D01*
X760974Y701745D01*
X761473Y702608D01*
X761731Y703572D01*
Y704569D01*
X761473Y705532D01*
X760974Y706396D01*
X760269Y707101D01*
X759405Y707599D01*
X758442Y707858D01*
D02*
G37*
G36*
X961929Y749924D02*
X961929Y749924D01*
X866973D01*
X866512Y749832D01*
X866121Y749571D01*
X866121Y749571D01*
X787289Y670739D01*
X787028Y670348D01*
X786936Y669887D01*
X786936Y669887D01*
Y667093D01*
X786935Y667083D01*
X786930Y667061D01*
X786929Y667057D01*
X786929Y667057D01*
X786897Y667004D01*
X786722Y666829D01*
X786467Y666214D01*
Y665548D01*
X786722Y664933D01*
X787192Y664463D01*
X787807Y664208D01*
X788473D01*
X789088Y664463D01*
X789385Y664759D01*
X790172Y664513D01*
Y659817D01*
X790170Y659807D01*
X790166Y659785D01*
X790165Y659781D01*
X790165Y659781D01*
X790133Y659728D01*
X789958Y659553D01*
X789703Y658938D01*
Y658273D01*
X789958Y657657D01*
X790428Y657187D01*
X791043Y656932D01*
X791709D01*
X792324Y657187D01*
X792408Y657271D01*
X793196Y656945D01*
Y653128D01*
X788539Y648472D01*
X788531Y648465D01*
X788512Y648453D01*
X788509Y648451D01*
X788508Y648451D01*
X788448Y648436D01*
X788201D01*
X787586Y648182D01*
X787115Y647711D01*
X786861Y647096D01*
Y646430D01*
X787115Y645816D01*
X787586Y645345D01*
X788201Y645090D01*
X788867D01*
X789482Y645345D01*
X789952Y645816D01*
X790207Y646430D01*
Y646678D01*
X790222Y646738D01*
X790222Y646738D01*
X790224Y646742D01*
X790236Y646760D01*
X790242Y646769D01*
X795252Y651778D01*
X795252Y651778D01*
X795408Y652013D01*
X796196Y651874D01*
Y646037D01*
X790945Y640786D01*
X790936Y640780D01*
X790918Y640768D01*
X790914Y640766D01*
X790914Y640766D01*
X790854Y640751D01*
X790606D01*
X789992Y640496D01*
X789521Y640026D01*
X789266Y639411D01*
Y638745D01*
X789521Y638130D01*
X789992Y637660D01*
X790606Y637405D01*
X791272D01*
X791887Y637660D01*
X792358Y638130D01*
X792613Y638745D01*
Y638992D01*
X792627Y639052D01*
X792627Y639053D01*
X792629Y639056D01*
X792641Y639075D01*
X792648Y639083D01*
X798251Y644687D01*
X798251Y644687D01*
X798513Y645078D01*
X798604Y645539D01*
Y665553D01*
X871307Y738256D01*
X957595D01*
X962525Y733325D01*
X962916Y733064D01*
X963377Y732972D01*
X963377Y732972D01*
X1078245D01*
X1081605Y729612D01*
Y726409D01*
X1081605Y726409D01*
X1081697Y725948D01*
X1081958Y725557D01*
X1086196Y721319D01*
Y714604D01*
X1080228Y708637D01*
X1078632D01*
X1078621Y708638D01*
X1078599Y708642D01*
X1078596Y708644D01*
X1078595Y708644D01*
X1078542Y708676D01*
X1078368Y708851D01*
X1077753Y709105D01*
X1077087D01*
X1076472Y708851D01*
X1076001Y708380D01*
X1075747Y707765D01*
Y707099D01*
X1076001Y706485D01*
X1076472Y706014D01*
X1077087Y705759D01*
X1077753D01*
X1078368Y706014D01*
X1078542Y706189D01*
X1078595Y706221D01*
X1078596Y706221D01*
X1078599Y706222D01*
X1078621Y706227D01*
X1078632Y706228D01*
X1080727D01*
X1080727Y706228D01*
X1081188Y706320D01*
X1081282Y706383D01*
X1082056Y706013D01*
X1082070Y705997D01*
Y705757D01*
X1082324Y705142D01*
X1082795Y704671D01*
X1083410Y704416D01*
X1084076D01*
X1084691Y704671D01*
X1085161Y705142D01*
X1085416Y705757D01*
Y706004D01*
X1085431Y706064D01*
X1085431Y706064D01*
X1085433Y706068D01*
X1085445Y706087D01*
X1085451Y706095D01*
X1088481Y709125D01*
X1089149Y708679D01*
X1089046Y708430D01*
Y707765D01*
X1089300Y707150D01*
X1089771Y706679D01*
X1090386Y706424D01*
X1091052D01*
X1091667Y706679D01*
X1092137Y707150D01*
X1092392Y707765D01*
Y708012D01*
X1092407Y708072D01*
X1092407Y708072D01*
X1092409Y708076D01*
X1092421Y708095D01*
X1092427Y708103D01*
X1093964Y709639D01*
X1094727Y709289D01*
Y708915D01*
X1094981Y708300D01*
X1095452Y707829D01*
X1096067Y707574D01*
X1096314D01*
X1096374Y707560D01*
X1096375Y707560D01*
X1096378Y707558D01*
X1096397Y707545D01*
X1096405Y707539D01*
X1105141Y698803D01*
X1104840Y698076D01*
X1075664D01*
X1070660Y703080D01*
X1070653Y703089D01*
X1070641Y703107D01*
X1070639Y703111D01*
X1070639Y703111D01*
X1070624Y703171D01*
Y703418D01*
X1070370Y704034D01*
X1069899Y704504D01*
X1069284Y704759D01*
X1068618D01*
X1068003Y704504D01*
X1067533Y704034D01*
X1067278Y703418D01*
Y702753D01*
X1067533Y702138D01*
X1068003Y701667D01*
X1068618Y701412D01*
X1068865D01*
X1068926Y701398D01*
X1068926Y701398D01*
X1068929Y701396D01*
X1068948Y701384D01*
X1068956Y701377D01*
X1074058Y696276D01*
X1074061Y696261D01*
X1074346Y695835D01*
X1074772Y695550D01*
X1075274Y695450D01*
X1106603D01*
X1107249Y695428D01*
X1107629Y695392D01*
X1107736Y695374D01*
X1107752Y695370D01*
X1108187Y695079D01*
X1108885Y694941D01*
X1133211D01*
X1133211Y694941D01*
X1133908Y695079D01*
X1134500Y695474D01*
X1136468Y697443D01*
X1136863Y698034D01*
X1137002Y698732D01*
X1136863Y699429D01*
X1136468Y700020D01*
X1135877Y700415D01*
X1135180Y700554D01*
X1134482Y700415D01*
X1133891Y700020D01*
X1132456Y698585D01*
X1108930D01*
X1108831Y698647D01*
X1108715Y698729D01*
X1107959Y699391D01*
X1098108Y709242D01*
X1098102Y709250D01*
X1098090Y709269D01*
X1098088Y709273D01*
X1098088Y709273D01*
X1098073Y709333D01*
Y709580D01*
X1097818Y710195D01*
X1097348Y710666D01*
X1096733Y710921D01*
X1096359D01*
X1096008Y711684D01*
X1100441Y716116D01*
X1100441Y716116D01*
X1100702Y716507D01*
X1100793Y716967D01*
Y726427D01*
X1100793Y726427D01*
X1100702Y726888D01*
X1100441Y727278D01*
X1083431Y744288D01*
X1083040Y744549D01*
X1082580Y744640D01*
X1082580Y744640D01*
X967711D01*
X962781Y749571D01*
X962390Y749832D01*
X961929Y749924D01*
D02*
G37*
G36*
X871217Y729984D02*
X870551D01*
X869936Y729729D01*
X869466Y729258D01*
X869211Y728643D01*
Y727977D01*
X869466Y727362D01*
X869641Y727188D01*
X869673Y727135D01*
X869673Y727135D01*
X869674Y727131D01*
X869679Y727109D01*
X869680Y727098D01*
Y699145D01*
X869680Y699145D01*
X869772Y698684D01*
X870033Y698293D01*
X873113Y695213D01*
X873119Y695205D01*
X873131Y695186D01*
X873133Y695183D01*
X873133Y695182D01*
X873148Y695122D01*
Y694875D01*
X873403Y694260D01*
X873874Y693789D01*
X874488Y693535D01*
X875154D01*
X875769Y693789D01*
X876240Y694260D01*
X876495Y694875D01*
Y695541D01*
X876240Y696156D01*
X875769Y696626D01*
X875154Y696881D01*
X874907D01*
X874847Y696896D01*
X874846Y696896D01*
X874843Y696898D01*
X874824Y696910D01*
X874816Y696916D01*
X872089Y699644D01*
Y727098D01*
X872090Y727109D01*
X872095Y727131D01*
X872095Y727135D01*
X872096Y727135D01*
X872128Y727188D01*
X872303Y727362D01*
X872558Y727977D01*
Y728643D01*
X872303Y729258D01*
X871832Y729729D01*
X871217Y729984D01*
D02*
G37*
G36*
X768442Y697858D02*
X767445D01*
X766481Y697599D01*
X765618Y697101D01*
X764913Y696396D01*
X764414Y695532D01*
X764156Y694569D01*
Y693572D01*
X764414Y692608D01*
X764913Y691745D01*
X765618Y691040D01*
X766481Y690541D01*
X767445Y690283D01*
X768442D01*
X769405Y690541D01*
X770269Y691040D01*
X770974Y691745D01*
X771473Y692608D01*
X771731Y693572D01*
Y694569D01*
X771473Y695532D01*
X770974Y696396D01*
X770269Y697101D01*
X769405Y697599D01*
X768442Y697858D01*
D02*
G37*
G36*
Y687857D02*
X767445D01*
X766481Y687599D01*
X765618Y687101D01*
X764913Y686396D01*
X764414Y685532D01*
X764156Y684569D01*
Y683571D01*
X764414Y682608D01*
X764913Y681745D01*
X765618Y681039D01*
X766481Y680541D01*
X767445Y680283D01*
X768442D01*
X769405Y680541D01*
X770269Y681039D01*
X770974Y681745D01*
X771473Y682608D01*
X771731Y683571D01*
Y684569D01*
X771473Y685532D01*
X770974Y686396D01*
X770269Y687101D01*
X769405Y687599D01*
X768442Y687857D01*
D02*
G37*
G36*
X758442D02*
X757445D01*
X756482Y687599D01*
X755618Y687101D01*
X754913Y686396D01*
X754414Y685532D01*
X754156Y684569D01*
Y683571D01*
X754414Y682608D01*
X754913Y681745D01*
X755618Y681039D01*
X756482Y680541D01*
X757445Y680283D01*
X758442D01*
X759405Y680541D01*
X760269Y681039D01*
X760974Y681745D01*
X761473Y682608D01*
X761731Y683571D01*
Y684569D01*
X761473Y685532D01*
X760974Y686396D01*
X760269Y687101D01*
X759405Y687599D01*
X758442Y687857D01*
D02*
G37*
G36*
X904754Y714956D02*
X904088D01*
X903473Y714701D01*
X903003Y714230D01*
X902748Y713615D01*
Y712950D01*
X903003Y712335D01*
X903031Y712307D01*
X903032Y712301D01*
X903038Y712271D01*
X903043Y712241D01*
X903045Y712208D01*
Y693098D01*
X903045Y693098D01*
X903137Y692638D01*
X903398Y692247D01*
X921530Y674115D01*
X921536Y674107D01*
X921549Y674088D01*
X921551Y674084D01*
X921551Y674084D01*
X921565Y674024D01*
Y673777D01*
X921820Y673162D01*
X922291Y672691D01*
X922906Y672436D01*
X923571D01*
X924186Y672691D01*
X924657Y673162D01*
X924912Y673777D01*
Y674442D01*
X924657Y675057D01*
X924186Y675528D01*
X923571Y675783D01*
X923324D01*
X923264Y675797D01*
X923264Y675797D01*
X923260Y675799D01*
X923242Y675812D01*
X923233Y675818D01*
X905454Y693597D01*
Y711949D01*
X905840Y712335D01*
X906094Y712950D01*
Y713615D01*
X905840Y714230D01*
X905369Y714701D01*
X904754Y714956D01*
D02*
G37*
G36*
X768442Y677857D02*
X767445D01*
X766481Y677599D01*
X765618Y677101D01*
X764913Y676396D01*
X764414Y675532D01*
X764156Y674569D01*
Y673571D01*
X764414Y672608D01*
X764913Y671745D01*
X765618Y671039D01*
X766481Y670541D01*
X767445Y670283D01*
X768442D01*
X769405Y670541D01*
X770269Y671039D01*
X770974Y671745D01*
X771473Y672608D01*
X771731Y673571D01*
Y674569D01*
X771473Y675532D01*
X770974Y676396D01*
X770269Y677101D01*
X769405Y677599D01*
X768442Y677857D01*
D02*
G37*
G36*
X758442D02*
X757445D01*
X756482Y677599D01*
X755618Y677101D01*
X754913Y676396D01*
X754414Y675532D01*
X754156Y674569D01*
Y673571D01*
X754414Y672608D01*
X754913Y671745D01*
X755618Y671039D01*
X756482Y670541D01*
X757445Y670283D01*
X758442D01*
X759405Y670541D01*
X760269Y671039D01*
X760974Y671745D01*
X761473Y672608D01*
X761731Y673571D01*
Y674569D01*
X761473Y675532D01*
X760974Y676396D01*
X760269Y677101D01*
X759405Y677599D01*
X758442Y677857D01*
D02*
G37*
G36*
X768442Y667858D02*
X767445D01*
X766481Y667599D01*
X765618Y667101D01*
X764913Y666396D01*
X764414Y665532D01*
X764156Y664569D01*
Y663572D01*
X764414Y662608D01*
X764913Y661745D01*
X765618Y661039D01*
X766481Y660541D01*
X767445Y660283D01*
X768442D01*
X769405Y660541D01*
X770269Y661039D01*
X770974Y661745D01*
X771473Y662608D01*
X771731Y663572D01*
Y664569D01*
X771473Y665532D01*
X770974Y666396D01*
X770269Y667101D01*
X769405Y667599D01*
X768442Y667858D01*
D02*
G37*
G36*
X1136753Y675275D02*
X1135047D01*
X1133374Y674942D01*
X1131797Y674289D01*
X1130379Y673341D01*
X1129172Y672135D01*
X1128224Y670716D01*
X1127571Y669140D01*
X1127239Y667466D01*
Y665760D01*
X1127571Y664087D01*
X1128224Y662511D01*
X1129172Y661092D01*
X1130379Y659886D01*
X1131797Y658938D01*
X1133374Y658285D01*
X1135047Y657952D01*
X1136753D01*
X1138426Y658285D01*
X1140003Y658938D01*
X1141421Y659886D01*
X1142628Y661092D01*
X1143576Y662511D01*
X1144229Y664087D01*
X1144561Y665760D01*
Y667466D01*
X1144229Y669140D01*
X1143576Y670716D01*
X1142628Y672135D01*
X1141421Y673341D01*
X1140003Y674289D01*
X1138426Y674942D01*
X1136753Y675275D01*
D02*
G37*
G36*
X1021753D02*
X1020047D01*
X1018374Y674942D01*
X1016797Y674289D01*
X1015379Y673341D01*
X1014172Y672135D01*
X1013224Y670716D01*
X1012571Y669140D01*
X1012239Y667466D01*
Y665760D01*
X1012571Y664087D01*
X1013224Y662511D01*
X1014172Y661092D01*
X1015379Y659886D01*
X1016797Y658938D01*
X1018374Y658285D01*
X1020047Y657952D01*
X1021753D01*
X1023426Y658285D01*
X1025003Y658938D01*
X1026421Y659886D01*
X1027628Y661092D01*
X1028576Y662511D01*
X1029229Y664087D01*
X1029561Y665760D01*
Y667466D01*
X1029229Y669140D01*
X1028576Y670716D01*
X1027628Y672135D01*
X1026421Y673341D01*
X1025003Y674289D01*
X1023426Y674942D01*
X1021753Y675275D01*
D02*
G37*
G36*
X768442Y657858D02*
X767445D01*
X766481Y657599D01*
X765618Y657101D01*
X764913Y656396D01*
X764414Y655532D01*
X764156Y654569D01*
Y653572D01*
X764414Y652608D01*
X764913Y651745D01*
X765618Y651040D01*
X766481Y650541D01*
X767445Y650283D01*
X768442D01*
X769405Y650541D01*
X770269Y651040D01*
X770974Y651745D01*
X771473Y652608D01*
X771731Y653572D01*
Y654569D01*
X771473Y655532D01*
X770974Y656396D01*
X770269Y657101D01*
X769405Y657599D01*
X768442Y657858D01*
D02*
G37*
G36*
X758442D02*
X757445D01*
X756482Y657599D01*
X755618Y657101D01*
X754913Y656396D01*
X754414Y655532D01*
X754156Y654569D01*
Y653572D01*
X754414Y652608D01*
X754913Y651745D01*
X755618Y651040D01*
X756482Y650541D01*
X757445Y650283D01*
X758442D01*
X759405Y650541D01*
X760269Y651040D01*
X760974Y651745D01*
X761473Y652608D01*
X761731Y653572D01*
Y654569D01*
X761473Y655532D01*
X760974Y656396D01*
X760269Y657101D01*
X759405Y657599D01*
X758442Y657858D01*
D02*
G37*
G36*
X928984Y641753D02*
X928319D01*
X927704Y641499D01*
X927233Y641028D01*
X926978Y640413D01*
Y640318D01*
X885813D01*
X885813Y640318D01*
X885352Y640226D01*
X884961Y639965D01*
X884961Y639965D01*
X865532Y620536D01*
X865413Y620656D01*
X864798Y620911D01*
X864132D01*
X863517Y620656D01*
X863046Y620185D01*
X862792Y619570D01*
Y618905D01*
X863046Y618290D01*
X863517Y617819D01*
X864132Y617564D01*
X864798D01*
X865413Y617819D01*
X865587Y617994D01*
X865640Y618026D01*
X865641Y618026D01*
X865644Y618027D01*
X865666Y618032D01*
X865677Y618033D01*
X865937D01*
X865937Y618033D01*
X866398Y618125D01*
X866490Y618186D01*
X866948Y617897D01*
X867165Y617691D01*
Y617094D01*
X867420Y616479D01*
X867890Y616008D01*
X868505Y615753D01*
X869171D01*
X869786Y616008D01*
X870257Y616479D01*
X870511Y617094D01*
Y617759D01*
X870257Y618374D01*
X870082Y618549D01*
X870050Y618602D01*
X870049Y618602D01*
X870048Y618606D01*
X870044Y618628D01*
X870042Y618638D01*
Y618761D01*
X887295Y636014D01*
X928858D01*
X928864Y636005D01*
X928866Y636002D01*
X928866Y636001D01*
X928881Y635941D01*
Y635694D01*
X929136Y635079D01*
X929606Y634608D01*
X930221Y634353D01*
X930887D01*
X931502Y634608D01*
X931973Y635079D01*
X932227Y635694D01*
Y636360D01*
X931973Y636975D01*
X931502Y637445D01*
X930887Y637700D01*
X930640D01*
X930580Y637715D01*
X930579Y637715D01*
X930576Y637717D01*
X930557Y637729D01*
X930549Y637735D01*
X930214Y638070D01*
X930158Y638107D01*
X929990Y638982D01*
X930015Y639078D01*
X930070Y639132D01*
X930325Y639747D01*
Y640413D01*
X930070Y641028D01*
X929599Y641499D01*
X928984Y641753D01*
D02*
G37*
G36*
X768442Y647858D02*
X767445D01*
X766481Y647599D01*
X765618Y647101D01*
X764913Y646396D01*
X764414Y645532D01*
X764156Y644569D01*
Y643572D01*
X764414Y642608D01*
X764913Y641745D01*
X765618Y641040D01*
X766481Y640541D01*
X767445Y640283D01*
X768442D01*
X769405Y640541D01*
X770269Y641040D01*
X770974Y641745D01*
X771473Y642608D01*
X771731Y643572D01*
Y644569D01*
X771473Y645532D01*
X770974Y646396D01*
X770269Y647101D01*
X769405Y647599D01*
X768442Y647858D01*
D02*
G37*
G36*
X758442D02*
X757445D01*
X756482Y647599D01*
X755618Y647101D01*
X754913Y646396D01*
X754414Y645532D01*
X754156Y644569D01*
Y643572D01*
X754414Y642608D01*
X754913Y641745D01*
X755618Y641040D01*
X756482Y640541D01*
X757445Y640283D01*
X758442D01*
X759405Y640541D01*
X760269Y641040D01*
X760974Y641745D01*
X761473Y642608D01*
X761731Y643572D01*
Y644569D01*
X761473Y645532D01*
X760974Y646396D01*
X760269Y647101D01*
X759405Y647599D01*
X758442Y647858D01*
D02*
G37*
G36*
X1134936Y646802D02*
X1133848D01*
X1132796Y646521D01*
X1131854Y645976D01*
X1131084Y645207D01*
X1130540Y644264D01*
X1130258Y643213D01*
Y642124D01*
X1130540Y641073D01*
X1131084Y640130D01*
X1131854Y639361D01*
X1132796Y638816D01*
X1133848Y638535D01*
X1134936D01*
X1135988Y638816D01*
X1136930Y639361D01*
X1137700Y640130D01*
X1138244Y641073D01*
X1138526Y642124D01*
Y643213D01*
X1138244Y644264D01*
X1137700Y645207D01*
X1136930Y645976D01*
X1135988Y646521D01*
X1134936Y646802D01*
D02*
G37*
G36*
X1120883Y633639D02*
X1115568D01*
Y632087D01*
X1112551D01*
Y633580D01*
X1101725D01*
Y627202D01*
X1112551D01*
Y629679D01*
X1115568D01*
Y628127D01*
X1120883D01*
Y633639D01*
D02*
G37*
G36*
X1134936Y634991D02*
X1133848D01*
X1132796Y634710D01*
X1131854Y634165D01*
X1131501Y633812D01*
X1131437Y633770D01*
X1131078Y633414D01*
X1130418Y632820D01*
X1130134Y632596D01*
X1129869Y632409D01*
X1129633Y632264D01*
X1129430Y632160D01*
X1129264Y632095D01*
X1129141Y632065D01*
X1129110Y632062D01*
X1127182D01*
Y633639D01*
X1121867D01*
Y628127D01*
X1123320D01*
Y623398D01*
X1122120Y622197D01*
X1122088Y622170D01*
X1122018Y622117D01*
X1121954Y622076D01*
X1121896Y622044D01*
X1121846Y622022D01*
X1121802Y622006D01*
X1121764Y621997D01*
X1121730Y621992D01*
X1121658Y621988D01*
X1121649Y621985D01*
X1121631D01*
X1121628Y621986D01*
X1121627Y621985D01*
X1115915D01*
Y621280D01*
X1112551D01*
Y623265D01*
X1101725D01*
Y616887D01*
X1104654D01*
Y616079D01*
X1104654Y616079D01*
X1104746Y615618D01*
X1105007Y615227D01*
X1107466Y612768D01*
X1107472Y612760D01*
X1107485Y612741D01*
X1107487Y612738D01*
X1107487Y612737D01*
X1107501Y612677D01*
Y612430D01*
X1107756Y611815D01*
X1108227Y611344D01*
X1108842Y611090D01*
X1109507D01*
X1110122Y611344D01*
X1110593Y611815D01*
X1110848Y612430D01*
Y613096D01*
X1110593Y613711D01*
X1110122Y614182D01*
X1109507Y614436D01*
X1109260D01*
X1109200Y614451D01*
X1109200Y614451D01*
X1109196Y614453D01*
X1109177Y614465D01*
X1109169Y614471D01*
X1107541Y616100D01*
X1107867Y616887D01*
X1112551D01*
Y618872D01*
X1115915D01*
Y618167D01*
X1123710D01*
Y620121D01*
X1123712Y620131D01*
X1123716Y620203D01*
X1123721Y620236D01*
X1123731Y620275D01*
X1123746Y620319D01*
X1123769Y620369D01*
X1123800Y620426D01*
X1123842Y620490D01*
X1123894Y620561D01*
X1123922Y620593D01*
X1125376Y622047D01*
X1125376Y622047D01*
X1125637Y622438D01*
X1125729Y622899D01*
Y628127D01*
X1127182D01*
Y629653D01*
X1129110D01*
X1129141Y629650D01*
X1129264Y629620D01*
X1129430Y629555D01*
X1129633Y629451D01*
X1129869Y629306D01*
X1130119Y629130D01*
X1131083Y628296D01*
X1131437Y627945D01*
X1131501Y627903D01*
X1131854Y627550D01*
X1132796Y627005D01*
X1133848Y626724D01*
X1134936D01*
X1135988Y627005D01*
X1136930Y627550D01*
X1137700Y628319D01*
X1138244Y629262D01*
X1138526Y630313D01*
Y631402D01*
X1138244Y632453D01*
X1137700Y633396D01*
X1136930Y634165D01*
X1135988Y634710D01*
X1134936Y634991D01*
D02*
G37*
G36*
X758442Y637857D02*
X757445D01*
X756482Y637599D01*
X755618Y637101D01*
X754913Y636396D01*
X754414Y635532D01*
X754156Y634569D01*
Y633571D01*
X754414Y632608D01*
X754913Y631745D01*
X755618Y631039D01*
X756482Y630541D01*
X757445Y630283D01*
X758442D01*
X759405Y630541D01*
X760269Y631039D01*
X760974Y631745D01*
X761473Y632608D01*
X761731Y633571D01*
Y634569D01*
X761473Y635532D01*
X760974Y636396D01*
X760269Y637101D01*
X759405Y637599D01*
X758442Y637857D01*
D02*
G37*
G36*
X1152059Y643456D02*
X1150741D01*
X1149448Y643199D01*
X1148230Y642694D01*
X1147134Y641962D01*
X1146201Y641030D01*
X1145469Y639933D01*
X1144964Y638715D01*
X1144707Y637422D01*
Y636104D01*
X1144964Y634811D01*
X1145469Y633593D01*
X1146201Y632497D01*
X1147134Y631564D01*
X1148230Y630832D01*
X1149448Y630327D01*
X1150741Y630070D01*
X1152059D01*
X1153352Y630327D01*
X1154570Y630832D01*
X1155667Y631564D01*
X1156599Y632497D01*
X1157331Y633593D01*
X1157836Y634811D01*
X1158093Y636104D01*
Y637422D01*
X1157836Y638715D01*
X1157331Y639933D01*
X1156599Y641030D01*
X1155667Y641962D01*
X1154570Y642694D01*
X1153352Y643199D01*
X1152059Y643456D01*
D02*
G37*
G36*
X943598Y633099D02*
X942932D01*
X942317Y632844D01*
X941846Y632373D01*
X941591Y631758D01*
Y631511D01*
X941577Y631451D01*
X941577Y631451D01*
X941575Y631447D01*
X941563Y631428D01*
X941556Y631420D01*
X939586Y629450D01*
X936193D01*
X934300Y631343D01*
X933909Y631604D01*
X933448Y631696D01*
X933448Y631696D01*
X890834D01*
X890373Y631604D01*
X889983Y631343D01*
X889983Y631343D01*
X868890Y610251D01*
X853538D01*
X853528Y610252D01*
X853506Y610257D01*
X853502Y610258D01*
X853502Y610258D01*
X853449Y610290D01*
X853274Y610465D01*
X852659Y610720D01*
X851993D01*
X851378Y610465D01*
X850908Y609994D01*
X850653Y609379D01*
Y608714D01*
X850908Y608099D01*
X851378Y607628D01*
X851993Y607373D01*
X852659D01*
X853274Y607628D01*
X853449Y607803D01*
X853502Y607835D01*
X853502Y607835D01*
X853506Y607836D01*
X853528Y607841D01*
X853538Y607842D01*
X869389D01*
X869389Y607842D01*
X869850Y607934D01*
X870240Y608195D01*
X891333Y629287D01*
X932950D01*
X934843Y627394D01*
X935233Y627133D01*
X935694Y627042D01*
X940085D01*
X940085Y627042D01*
X940546Y627133D01*
X940937Y627394D01*
X943259Y629717D01*
X943268Y629723D01*
X943286Y629736D01*
X943290Y629738D01*
X943290Y629738D01*
X943350Y629752D01*
X943598D01*
X944213Y630007D01*
X944683Y630478D01*
X944938Y631093D01*
Y631758D01*
X944683Y632373D01*
X944213Y632844D01*
X943598Y633099D01*
D02*
G37*
G36*
X768442Y627857D02*
X767445D01*
X766481Y627599D01*
X765618Y627101D01*
X764913Y626396D01*
X764414Y625532D01*
X764156Y624569D01*
Y623571D01*
X764414Y622608D01*
X764913Y621745D01*
X765618Y621039D01*
X766481Y620541D01*
X767445Y620283D01*
X768442D01*
X769405Y620541D01*
X770269Y621039D01*
X770974Y621745D01*
X771473Y622608D01*
X771731Y623571D01*
Y624569D01*
X771473Y625532D01*
X770974Y626396D01*
X770269Y627101D01*
X769405Y627599D01*
X768442Y627857D01*
D02*
G37*
G36*
X758442D02*
X757445D01*
X756482Y627599D01*
X755618Y627101D01*
X754913Y626396D01*
X754414Y625532D01*
X754156Y624569D01*
Y623571D01*
X754414Y622608D01*
X754913Y621745D01*
X755618Y621039D01*
X756482Y620541D01*
X757445Y620283D01*
X758442D01*
X759405Y620541D01*
X760269Y621039D01*
X760974Y621745D01*
X761473Y622608D01*
X761731Y623571D01*
Y624569D01*
X761473Y625532D01*
X760974Y626396D01*
X760269Y627101D01*
X759405Y627599D01*
X758442Y627857D01*
D02*
G37*
G36*
X950038Y637231D02*
X950038Y637231D01*
X941781D01*
X941320Y637139D01*
X940930Y636878D01*
X940929Y636878D01*
X937679Y633628D01*
X937671Y633622D01*
X937652Y633610D01*
X937649Y633608D01*
X937648Y633608D01*
X937589Y633593D01*
X937341D01*
X936726Y633338D01*
X936256Y632868D01*
X936001Y632253D01*
Y631587D01*
X936256Y630972D01*
X936726Y630501D01*
X937341Y630247D01*
X938007D01*
X938622Y630501D01*
X939093Y630972D01*
X939347Y631587D01*
Y631834D01*
X939362Y631894D01*
X939362Y631895D01*
X939364Y631898D01*
X939376Y631917D01*
X939382Y631925D01*
X942280Y634823D01*
X949539D01*
X963625Y620737D01*
X963631Y620729D01*
X963644Y620710D01*
X963645Y620706D01*
X963645Y620706D01*
X963660Y620646D01*
Y620399D01*
X963915Y619784D01*
X964386Y619313D01*
X965001Y619058D01*
X965666D01*
X966281Y619313D01*
X966752Y619784D01*
X967007Y620399D01*
Y621064D01*
X966752Y621679D01*
X966281Y622150D01*
X965666Y622405D01*
X965419D01*
X965359Y622419D01*
X965359Y622419D01*
X965355Y622421D01*
X965336Y622434D01*
X965328Y622440D01*
X950890Y636878D01*
X950499Y637139D01*
X950038Y637231D01*
D02*
G37*
G36*
X928144Y617161D02*
X927439D01*
X926788Y616891D01*
X926347Y616449D01*
X925904Y616419D01*
X925461Y616449D01*
X925020Y616891D01*
X924369Y617161D01*
X923664D01*
X923013Y616891D01*
X922514Y616393D01*
X922244Y615741D01*
Y615037D01*
X922514Y614385D01*
X922814Y614086D01*
X922939Y613602D01*
X922814Y613117D01*
X922514Y612818D01*
X922244Y612167D01*
Y611462D01*
X922514Y610811D01*
X922814Y610511D01*
X922939Y610027D01*
X922814Y609542D01*
X922514Y609243D01*
X922244Y608592D01*
Y607887D01*
X922514Y607236D01*
X923013Y606737D01*
X923664Y606468D01*
X924369D01*
X925020Y606737D01*
X925518Y607236D01*
X925788Y607887D01*
Y608592D01*
X925518Y609243D01*
X925219Y609542D01*
X925093Y610027D01*
X925219Y610511D01*
X925518Y610811D01*
X925788Y611462D01*
Y612167D01*
X925518Y612818D01*
X925219Y613117D01*
X925093Y613602D01*
X925219Y614086D01*
X925461Y614328D01*
X925904Y614359D01*
X926347Y614328D01*
X926788Y613887D01*
X927145Y613739D01*
X927385Y612968D01*
X927376Y612856D01*
X927337Y612818D01*
X927067Y612167D01*
Y611462D01*
X927337Y610811D01*
X927637Y610511D01*
X927762Y610027D01*
X927637Y609542D01*
X927337Y609243D01*
X927067Y608592D01*
Y607887D01*
X927337Y607236D01*
X927835Y606737D01*
X928487Y606468D01*
X929191D01*
X929843Y606737D01*
X930341Y607236D01*
X930611Y607887D01*
Y608592D01*
X930341Y609243D01*
X930042Y609542D01*
X929916Y610027D01*
X930042Y610511D01*
X930341Y610811D01*
X930611Y611462D01*
Y612167D01*
X930341Y612818D01*
X929843Y613316D01*
X929486Y613464D01*
X929246Y614235D01*
X929255Y614347D01*
X929294Y614385D01*
X929563Y615037D01*
Y615741D01*
X929294Y616393D01*
X928795Y616891D01*
X928144Y617161D01*
D02*
G37*
G36*
X1002364Y633550D02*
X1000436D01*
X998545Y633174D01*
X996764Y632437D01*
X995161Y631365D01*
X993798Y630002D01*
X992727Y628399D01*
X991989Y626618D01*
X991613Y624727D01*
Y622799D01*
X991989Y620908D01*
X992727Y619127D01*
X993798Y617524D01*
X995161Y616161D01*
X996764Y615090D01*
X998545Y614352D01*
X1000436Y613976D01*
X1002364D01*
X1004255Y614352D01*
X1006036Y615090D01*
X1007639Y616161D01*
X1009002Y617524D01*
X1010073Y619127D01*
X1010811Y620908D01*
X1011187Y622799D01*
Y624727D01*
X1010811Y626618D01*
X1010073Y628399D01*
X1009002Y630002D01*
X1007639Y631365D01*
X1006036Y632437D01*
X1004255Y633174D01*
X1002364Y633550D01*
D02*
G37*
G36*
X768442Y617858D02*
X767445D01*
X766481Y617599D01*
X765618Y617101D01*
X764913Y616396D01*
X764414Y615532D01*
X764156Y614569D01*
Y613572D01*
X764414Y612608D01*
X764913Y611745D01*
X765618Y611039D01*
X766481Y610541D01*
X767445Y610283D01*
X768442D01*
X769405Y610541D01*
X770269Y611039D01*
X770974Y611745D01*
X771473Y612608D01*
X771731Y613572D01*
Y614569D01*
X771473Y615532D01*
X770974Y616396D01*
X770269Y617101D01*
X769405Y617599D01*
X768442Y617858D01*
D02*
G37*
G36*
Y607858D02*
X767445D01*
X766481Y607599D01*
X765618Y607101D01*
X764913Y606396D01*
X764414Y605532D01*
X764156Y604569D01*
Y603572D01*
X764414Y602608D01*
X764913Y601745D01*
X765618Y601040D01*
X766481Y600541D01*
X767445Y600283D01*
X768442D01*
X769405Y600541D01*
X770269Y601040D01*
X770974Y601745D01*
X771473Y602608D01*
X771731Y603572D01*
Y604569D01*
X771473Y605532D01*
X770974Y606396D01*
X770269Y607101D01*
X769405Y607599D01*
X768442Y607858D01*
D02*
G37*
G36*
X758442D02*
X757445D01*
X756482Y607599D01*
X755618Y607101D01*
X754913Y606396D01*
X754414Y605532D01*
X754156Y604569D01*
Y603572D01*
X754414Y602608D01*
X754913Y601745D01*
X755618Y601040D01*
X756482Y600541D01*
X757445Y600283D01*
X758442D01*
X759405Y600541D01*
X760269Y601040D01*
X760974Y601745D01*
X761473Y602608D01*
X761731Y603572D01*
Y604569D01*
X761473Y605532D01*
X760974Y606396D01*
X760269Y607101D01*
X759405Y607599D01*
X758442Y607858D01*
D02*
G37*
G36*
X1134936Y605802D02*
X1133848D01*
X1132796Y605521D01*
X1131854Y604976D01*
X1131084Y604207D01*
X1130540Y603264D01*
X1130258Y602213D01*
Y601124D01*
X1130540Y600073D01*
X1131084Y599130D01*
X1131854Y598361D01*
X1132796Y597816D01*
X1133848Y597535D01*
X1134936D01*
X1135988Y597816D01*
X1136930Y598361D01*
X1137700Y599130D01*
X1138244Y600073D01*
X1138526Y601124D01*
Y602213D01*
X1138244Y603264D01*
X1137700Y604207D01*
X1136930Y604976D01*
X1135988Y605521D01*
X1134936Y605802D01*
D02*
G37*
G36*
X779755Y601665D02*
X779090D01*
X778475Y601410D01*
X778004Y600939D01*
X777749Y600324D01*
Y600077D01*
X777735Y600017D01*
X777735Y600016D01*
X777733Y600013D01*
X777720Y599994D01*
X777714Y599986D01*
X773002Y595274D01*
X772662D01*
X772647Y595276D01*
X772541Y595301D01*
X772397Y595355D01*
X772221Y595442D01*
X772016Y595565D01*
X771801Y595714D01*
X770958Y596437D01*
X770651Y596741D01*
X770587Y596783D01*
X770269Y597101D01*
X769405Y597599D01*
X768442Y597858D01*
X767445D01*
X766481Y597599D01*
X765618Y597101D01*
X764913Y596396D01*
X764414Y595532D01*
X764156Y594569D01*
Y593572D01*
X764414Y592608D01*
X764913Y591745D01*
X765618Y591040D01*
X766481Y590541D01*
X767445Y590283D01*
X768442D01*
X769405Y590541D01*
X770269Y591040D01*
X770587Y591358D01*
X770651Y591400D01*
X770963Y591709D01*
X771540Y592224D01*
X771786Y592415D01*
X772016Y592575D01*
X772221Y592698D01*
X772397Y592785D01*
X772541Y592839D01*
X772647Y592865D01*
X772662Y592866D01*
X773501D01*
X773501Y592866D01*
X773962Y592958D01*
X774353Y593219D01*
X779417Y598283D01*
X779425Y598289D01*
X779444Y598302D01*
X779448Y598303D01*
X779448Y598304D01*
X779508Y598318D01*
X779755D01*
X780370Y598573D01*
X780841Y599044D01*
X781096Y599658D01*
Y600324D01*
X780841Y600939D01*
X780370Y601410D01*
X779755Y601665D01*
D02*
G37*
G36*
X1134936Y593991D02*
X1133848D01*
X1132796Y593710D01*
X1131854Y593165D01*
X1131501Y592812D01*
X1131437Y592770D01*
X1131078Y592414D01*
X1130418Y591820D01*
X1130134Y591596D01*
X1129869Y591409D01*
X1129633Y591264D01*
X1129430Y591160D01*
X1129264Y591095D01*
X1129141Y591065D01*
X1129110Y591062D01*
X1126039D01*
Y591861D01*
X1120724D01*
Y586349D01*
X1122177D01*
Y582393D01*
X1120453Y580669D01*
X1120421Y580642D01*
X1120351Y580589D01*
X1120287Y580547D01*
X1120229Y580516D01*
X1120179Y580493D01*
X1120135Y580478D01*
X1120097Y580468D01*
X1120063Y580463D01*
X1119991Y580459D01*
X1119981Y580457D01*
X1119964D01*
X1119961Y580457D01*
X1119960Y580457D01*
X1114247D01*
Y579752D01*
X1110845D01*
Y581979D01*
X1100018D01*
Y575601D01*
X1102948D01*
Y572172D01*
X1102948Y572172D01*
X1103039Y571712D01*
X1103300Y571321D01*
X1103326Y571295D01*
Y570886D01*
X1103581Y570271D01*
X1104052Y569801D01*
X1104667Y569546D01*
X1105332D01*
X1105947Y569801D01*
X1106418Y570271D01*
X1106673Y570886D01*
Y571552D01*
X1106418Y572167D01*
X1105947Y572638D01*
X1105356Y572882D01*
Y575601D01*
X1110845D01*
Y577343D01*
X1114247D01*
Y576638D01*
X1121255D01*
X1122035Y576638D01*
X1122587Y576076D01*
X1114544Y568034D01*
X1065879Y568034D01*
X1065621Y568000D01*
X1065361D01*
X1065109Y567933D01*
X1064851Y567899D01*
X1064611Y567799D01*
X1064359Y567732D01*
X1064134Y567601D01*
X1063894Y567502D01*
X1063687Y567343D01*
X1063462Y567213D01*
X1063223Y567030D01*
X1063016Y566944D01*
X1062794Y566915D01*
X1062571Y566944D01*
X1062351Y567035D01*
X1062149Y567152D01*
X1061942Y567311D01*
X1061702Y567410D01*
X1061477Y567540D01*
X1061225Y567608D01*
X1060984Y567707D01*
X1060279Y567896D01*
X1060022Y567930D01*
X1059772Y567997D01*
X1059511D01*
X1059252Y568031D01*
X1058994Y567997D01*
X1058735D01*
X1058483Y567929D01*
X1058224Y567895D01*
X1057984Y567796D01*
X1057734Y567729D01*
X1057508Y567598D01*
X1057266Y567498D01*
X1057061Y567340D01*
X1056836Y567210D01*
X1056243Y566755D01*
X1056036Y566670D01*
X1055814Y566640D01*
X1055591Y566670D01*
X1055384Y566755D01*
X1054791Y567210D01*
X1054610Y567315D01*
X1054447Y567447D01*
X1054163Y567573D01*
X1053893Y567729D01*
X1053691Y567783D01*
X1053499Y567868D01*
X1053192Y567916D01*
X1052892Y567997D01*
X1052682D01*
X1052475Y568029D01*
X1052166Y567997D01*
X1051856D01*
X1051653Y567942D01*
X1051445Y567920D01*
X1051155Y567809D01*
X1050854Y567729D01*
X1050673Y567624D01*
X1050477Y567548D01*
X1049971Y567274D01*
X1049720Y567091D01*
X1049451Y566935D01*
X1048859Y566481D01*
X1048651Y566395D01*
X1048429Y566365D01*
X1048207Y566395D01*
X1047999Y566481D01*
X1047717Y566697D01*
X1047584Y566871D01*
X1047377Y567029D01*
X1047193Y567213D01*
X1046968Y567343D01*
X1046761Y567502D01*
X1046521Y567601D01*
X1046296Y567732D01*
X1046044Y567799D01*
X1045804Y567899D01*
X1045546Y567933D01*
X1045294Y568000D01*
X1045034D01*
X1044776Y568034D01*
X1019779Y568034D01*
X1001243Y586570D01*
X1000421Y587201D01*
X999463Y587597D01*
X998435Y587733D01*
X991400D01*
X990372Y587597D01*
X989415Y587201D01*
X988592Y586570D01*
X973158Y571136D01*
X972527Y570314D01*
X972131Y569356D01*
X971995Y568328D01*
X971995Y534646D01*
X939047Y501698D01*
X886147D01*
X878274Y509571D01*
X877451Y510202D01*
X876494Y510599D01*
X875466Y510734D01*
X801459D01*
X800432Y510599D01*
X799474Y510202D01*
X798651Y509571D01*
X798651Y509571D01*
X791592Y502512D01*
X790961Y501689D01*
X790564Y500732D01*
X790429Y499704D01*
Y477193D01*
X790564Y476166D01*
X790961Y475208D01*
X791592Y474386D01*
X803023Y462955D01*
X803845Y462324D01*
X804803Y461927D01*
X805830Y461792D01*
X948390D01*
X949417Y461927D01*
X950375Y462324D01*
X951198Y462955D01*
X951198Y462955D01*
X993068Y504826D01*
X993098D01*
X993350Y504893D01*
X993608Y504927D01*
X993848Y505027D01*
X994100Y505094D01*
X994325Y505224D01*
X994565Y505324D01*
X994658Y505395D01*
X994938Y505234D01*
X995901Y504976D01*
X996899D01*
X997862Y505234D01*
X998142Y505395D01*
X998235Y505324D01*
X998475Y505224D01*
X998701Y505094D01*
X998952Y505027D01*
X999192Y504927D01*
X999450Y504893D01*
X999702Y504826D01*
X999962D01*
X1000220Y504792D01*
X1086392D01*
X1087420Y504927D01*
X1088378Y505324D01*
X1089200Y505955D01*
X1089200Y505955D01*
X1123037Y539792D01*
X1152206D01*
X1152613Y539262D01*
Y538264D01*
X1152871Y537301D01*
X1153369Y536438D01*
X1154074Y535732D01*
X1154938Y535234D01*
X1155901Y534976D01*
X1156899D01*
X1157862Y535234D01*
X1158725Y535732D01*
X1159431Y536438D01*
X1159929Y537301D01*
X1160187Y538264D01*
Y539262D01*
X1160138Y539447D01*
X1160458Y539927D01*
X1161416Y540324D01*
X1162239Y540955D01*
X1162239Y540955D01*
X1167208Y545924D01*
X1167839Y546747D01*
X1168236Y547705D01*
X1168371Y548732D01*
Y569893D01*
X1168236Y570920D01*
X1167839Y571878D01*
X1167208Y572700D01*
X1167208Y572700D01*
X1161118Y578790D01*
X1160295Y579421D01*
X1159338Y579818D01*
X1158310Y579953D01*
X1128109D01*
X1128109Y579953D01*
X1127081Y579818D01*
X1126123Y579421D01*
X1125301Y578790D01*
X1122605Y576094D01*
X1122043Y576646D01*
X1122043Y577423D01*
Y578593D01*
X1122045Y578603D01*
X1122049Y578674D01*
X1122054Y578708D01*
X1122063Y578746D01*
X1122079Y578790D01*
X1122101Y578840D01*
X1122133Y578898D01*
X1122174Y578962D01*
X1122227Y579032D01*
X1122255Y579065D01*
X1124233Y581043D01*
X1124494Y581433D01*
X1124586Y581894D01*
X1124586Y581894D01*
Y586349D01*
X1126039D01*
Y588653D01*
X1129110D01*
X1129141Y588650D01*
X1129264Y588620D01*
X1129430Y588555D01*
X1129633Y588451D01*
X1129869Y588306D01*
X1130119Y588130D01*
X1131083Y587296D01*
X1131437Y586945D01*
X1131501Y586903D01*
X1131854Y586550D01*
X1132796Y586005D01*
X1133848Y585724D01*
X1134936D01*
X1135988Y586005D01*
X1136930Y586550D01*
X1137700Y587319D01*
X1138244Y588262D01*
X1138526Y589313D01*
Y590402D01*
X1138244Y591453D01*
X1137700Y592396D01*
X1136930Y593165D01*
X1135988Y593710D01*
X1134936Y593991D01*
D02*
G37*
G36*
X1152059Y602456D02*
X1150741D01*
X1149448Y602199D01*
X1148230Y601694D01*
X1147134Y600962D01*
X1146201Y600030D01*
X1145469Y598933D01*
X1144964Y597715D01*
X1144707Y596422D01*
Y595104D01*
X1144964Y593811D01*
X1145469Y592593D01*
X1146201Y591497D01*
X1147134Y590564D01*
X1148230Y589832D01*
X1149448Y589327D01*
X1150741Y589070D01*
X1152059D01*
X1153352Y589327D01*
X1154570Y589832D01*
X1155667Y590564D01*
X1156599Y591497D01*
X1157331Y592593D01*
X1157836Y593811D01*
X1158093Y595104D01*
Y596422D01*
X1157836Y597715D01*
X1157331Y598933D01*
X1156599Y600030D01*
X1155667Y600962D01*
X1154570Y601694D01*
X1153352Y602199D01*
X1152059Y602456D01*
D02*
G37*
G36*
X1110845Y592294D02*
X1100018D01*
Y585916D01*
X1110845D01*
Y587901D01*
X1114425D01*
Y586349D01*
X1119740D01*
Y591861D01*
X1114425D01*
Y590309D01*
X1110845D01*
Y592294D01*
D02*
G37*
G36*
X983324Y604747D02*
X982658D01*
X982043Y604493D01*
X981572Y604022D01*
X981318Y603407D01*
Y602741D01*
X981572Y602126D01*
X982043Y601655D01*
X982658Y601401D01*
X983324D01*
X983939Y601655D01*
X984113Y601830D01*
X984166Y601862D01*
X984167Y601863D01*
X984170Y601864D01*
X984192Y601868D01*
X984203Y601870D01*
X989046D01*
X1006577Y584340D01*
X1006583Y584331D01*
X1006595Y584313D01*
X1006597Y584309D01*
X1006597Y584309D01*
X1006612Y584249D01*
Y584001D01*
X1006866Y583387D01*
X1007337Y582916D01*
X1007952Y582661D01*
X1008618D01*
X1009233Y582916D01*
X1009703Y583387D01*
X1009958Y584001D01*
Y584667D01*
X1009703Y585282D01*
X1009233Y585753D01*
X1008618Y586008D01*
X1008370D01*
X1008310Y586022D01*
X1008310Y586022D01*
X1008307Y586024D01*
X1008288Y586036D01*
X1008280Y586043D01*
X990397Y603926D01*
X990006Y604187D01*
X989545Y604278D01*
X989545Y604278D01*
X984203D01*
X984192Y604280D01*
X984170Y604284D01*
X984167Y604285D01*
X984166Y604286D01*
X984113Y604318D01*
X983939Y604493D01*
X983324Y604747D01*
D02*
G37*
G36*
X768442Y587857D02*
X767445D01*
X766481Y587599D01*
X765618Y587101D01*
X764913Y586396D01*
X764414Y585532D01*
X764156Y584569D01*
Y583571D01*
X764414Y582608D01*
X764913Y581745D01*
X765618Y581039D01*
X766481Y580541D01*
X767445Y580283D01*
X768442D01*
X769405Y580541D01*
X770269Y581039D01*
X770974Y581745D01*
X771473Y582608D01*
X771731Y583571D01*
Y584569D01*
X771473Y585532D01*
X770974Y586396D01*
X770269Y587101D01*
X769405Y587599D01*
X768442Y587857D01*
D02*
G37*
G36*
X758442D02*
X757445D01*
X756482Y587599D01*
X755618Y587101D01*
X754913Y586396D01*
X754414Y585532D01*
X754156Y584569D01*
Y583571D01*
X754414Y582608D01*
X754913Y581745D01*
X755618Y581039D01*
X756482Y580541D01*
X757445Y580283D01*
X758442D01*
X759405Y580541D01*
X760269Y581039D01*
X760974Y581745D01*
X761473Y582608D01*
X761731Y583571D01*
Y584569D01*
X761473Y585532D01*
X760974Y586396D01*
X760269Y587101D01*
X759405Y587599D01*
X758442Y587857D01*
D02*
G37*
G36*
X768442Y747858D02*
X767445D01*
X766481Y747599D01*
X765618Y747101D01*
X764913Y746396D01*
X764414Y745532D01*
X764156Y744569D01*
Y744119D01*
X764141Y744044D01*
X764139Y743604D01*
X764095Y742833D01*
X764056Y742523D01*
X764007Y742247D01*
X763948Y742016D01*
X763885Y741829D01*
X763822Y741690D01*
X763765Y741596D01*
X763755Y741585D01*
X761559Y739389D01*
X761298Y738998D01*
X761206Y738538D01*
X761206Y738537D01*
Y732143D01*
X761206Y732143D01*
X761298Y731682D01*
X761559Y731291D01*
X764407Y728443D01*
X764407Y728443D01*
X764798Y728182D01*
X765259Y728090D01*
X765259Y728090D01*
X765757D01*
X765968Y727303D01*
X765618Y727101D01*
X764913Y726396D01*
X764414Y725532D01*
X764156Y724569D01*
Y723571D01*
X764414Y722608D01*
X764913Y721745D01*
X765618Y721039D01*
X766481Y720541D01*
X767445Y720283D01*
X768442D01*
X769405Y720541D01*
X770269Y721039D01*
X770974Y721745D01*
X771473Y722608D01*
X771731Y723571D01*
Y724569D01*
X771473Y725532D01*
X771152Y726088D01*
X771782Y726571D01*
X778218Y720135D01*
Y614259D01*
X778218Y614259D01*
X778310Y613799D01*
X778571Y613408D01*
X836047Y555932D01*
Y553616D01*
X831441D01*
Y549797D01*
X832028D01*
X832037Y549739D01*
X832044Y549668D01*
Y539901D01*
X832151Y539363D01*
X832455Y538907D01*
X839451Y531911D01*
Y531892D01*
X839706Y531277D01*
X840177Y530806D01*
X840431Y530093D01*
X840431Y530093D01*
X840431Y530093D01*
Y526275D01*
X841068D01*
X841078Y526217D01*
X841084Y526146D01*
Y524395D01*
X841066Y524172D01*
X841047Y524053D01*
X841023Y523942D01*
X840996Y523848D01*
X840968Y523771D01*
X840940Y523711D01*
X840914Y523667D01*
X840865Y523600D01*
X840842Y523551D01*
X840635Y523241D01*
X840482Y522473D01*
Y519127D01*
X840635Y518359D01*
X841070Y517707D01*
X841721Y517272D01*
X842489Y517120D01*
X843257Y517272D01*
X843908Y517707D01*
X844343Y518359D01*
X844496Y519127D01*
Y522473D01*
X844343Y523241D01*
X844137Y523551D01*
X844113Y523600D01*
X844064Y523667D01*
X844038Y523711D01*
X844011Y523771D01*
X843982Y523848D01*
X843955Y523942D01*
X843931Y524053D01*
X843912Y524172D01*
X843894Y524395D01*
Y526153D01*
X843900Y526221D01*
X843909Y526275D01*
X844447D01*
Y527057D01*
X844450Y527074D01*
X844447Y527091D01*
Y530093D01*
X843859D01*
X843850Y530151D01*
X843844Y530222D01*
Y530751D01*
X843737Y531288D01*
X843719Y531315D01*
X844330Y531817D01*
X846285Y529863D01*
Y524222D01*
X846283Y524199D01*
X846273Y524136D01*
X846260Y524085D01*
X846247Y524046D01*
X846235Y524017D01*
X846223Y523997D01*
X846220Y523993D01*
X846070Y523892D01*
X845635Y523241D01*
X845482Y522473D01*
Y519127D01*
X845635Y518359D01*
X846070Y517707D01*
X846721Y517272D01*
X847489Y517120D01*
X848257Y517272D01*
X848908Y517707D01*
X849343Y518359D01*
X849496Y519127D01*
Y522473D01*
X849343Y523241D01*
X848908Y523892D01*
X848758Y523993D01*
X848755Y523997D01*
X848744Y524017D01*
X848731Y524046D01*
X848718Y524085D01*
X848706Y524136D01*
X848696Y524199D01*
X848693Y524222D01*
Y530361D01*
X848693Y530361D01*
X848631Y530677D01*
X849044Y531030D01*
X849280Y531141D01*
X851285Y529136D01*
Y524222D01*
X851283Y524199D01*
X851273Y524136D01*
X851260Y524085D01*
X851247Y524046D01*
X851235Y524017D01*
X851223Y523997D01*
X851220Y523993D01*
X851070Y523892D01*
X850635Y523241D01*
X850482Y522473D01*
Y519127D01*
X850635Y518359D01*
X851070Y517707D01*
X851721Y517272D01*
X852489Y517120D01*
X853257Y517272D01*
X853908Y517707D01*
X854344Y518359D01*
X854496Y519127D01*
Y522473D01*
X854344Y523241D01*
X853908Y523892D01*
X853758Y523993D01*
X853755Y523997D01*
X853744Y524017D01*
X853731Y524046D01*
X853718Y524085D01*
X853706Y524136D01*
X853696Y524199D01*
X853693Y524222D01*
Y529635D01*
X853693Y529635D01*
X853602Y530096D01*
X853341Y530486D01*
X853341Y530486D01*
X852235Y531592D01*
X852681Y532259D01*
X853081Y532094D01*
X853747D01*
X854362Y532348D01*
X854832Y532819D01*
X855087Y533434D01*
Y534100D01*
X854832Y534715D01*
X854362Y535185D01*
X853747Y535440D01*
X853730D01*
X853705Y535463D01*
X850449Y538719D01*
Y546698D01*
Y553168D01*
X850342Y553706D01*
X850037Y554162D01*
X819887Y584312D01*
Y606038D01*
X828621Y614771D01*
X839980D01*
X840518Y614878D01*
X840974Y615183D01*
X857170Y631379D01*
X857475Y631835D01*
X857582Y632373D01*
Y643732D01*
X885112Y671263D01*
X885131D01*
X885303Y671334D01*
X886091Y670833D01*
Y653252D01*
X845818Y612980D01*
X845557Y612589D01*
X845465Y612128D01*
X845465Y612128D01*
Y586770D01*
X845465Y586770D01*
X845557Y586309D01*
X845818Y585918D01*
X855325Y576411D01*
X855716Y576150D01*
X856177Y576059D01*
X857795D01*
X857805Y576057D01*
X857827Y576053D01*
X857831Y576052D01*
X857831Y576051D01*
X857884Y576019D01*
X858059Y575844D01*
X858674Y575590D01*
X859340D01*
X859955Y575844D01*
X860425Y576315D01*
X860680Y576930D01*
Y577596D01*
X860425Y578211D01*
X859955Y578681D01*
X859340Y578936D01*
X858674D01*
X858059Y578681D01*
X857884Y578507D01*
X857831Y578474D01*
X857831Y578474D01*
X857827Y578473D01*
X857805Y578469D01*
X857795Y578467D01*
X856675D01*
X847874Y587268D01*
Y611629D01*
X888147Y651902D01*
X888147Y651902D01*
X888408Y652293D01*
X888499Y652753D01*
Y706323D01*
X888408Y706784D01*
X888147Y707174D01*
X888142Y707179D01*
Y707894D01*
X888147Y707899D01*
X888408Y708290D01*
X888499Y708751D01*
Y728421D01*
X888499Y728421D01*
X888408Y728882D01*
X888147Y729272D01*
X888147Y729272D01*
X885728Y731691D01*
X885724Y731696D01*
X885718Y731705D01*
X885711Y731748D01*
Y732096D01*
X885456Y732711D01*
X884985Y733181D01*
X884370Y733436D01*
X883705D01*
X883090Y733181D01*
X882619Y732711D01*
X882364Y732096D01*
Y731430D01*
X882619Y730815D01*
X883090Y730344D01*
X883705Y730090D01*
X883871D01*
X883900Y730081D01*
X883914Y730079D01*
X883920Y730076D01*
X883937Y730066D01*
X883951Y730057D01*
X883980Y730033D01*
X886091Y727922D01*
Y709250D01*
X886086Y709244D01*
X885825Y708854D01*
X885733Y708393D01*
X885733Y708393D01*
Y706681D01*
X885733Y706681D01*
X885825Y706220D01*
X886086Y705829D01*
X886091Y705824D01*
Y675039D01*
X885303Y674538D01*
X885131Y674609D01*
X884466D01*
X883851Y674355D01*
X883380Y673884D01*
X883125Y673269D01*
Y673252D01*
X883102Y673227D01*
X855183Y645307D01*
X854879Y644852D01*
X854772Y644314D01*
Y632955D01*
X839398Y617581D01*
X828039D01*
X827501Y617474D01*
X827045Y617170D01*
X817488Y607613D01*
X817184Y607157D01*
X817077Y606619D01*
Y583730D01*
X817086Y583686D01*
X816360Y583298D01*
X783648Y616010D01*
Y721393D01*
X783648Y721393D01*
X783557Y721854D01*
X783296Y722245D01*
X783296Y722245D01*
X772968Y732572D01*
X771485Y735487D01*
X771473Y735532D01*
X770974Y736396D01*
X770269Y737101D01*
X769405Y737599D01*
X768442Y737857D01*
X767445D01*
X766481Y737599D01*
X765618Y737101D01*
X764913Y736396D01*
X764414Y735532D01*
X764402Y735488D01*
X763615Y735592D01*
Y738039D01*
X765458Y739882D01*
X765470Y739892D01*
X765563Y739949D01*
X765702Y740012D01*
X765889Y740075D01*
X766121Y740133D01*
X766378Y740180D01*
X767486Y740265D01*
X767917Y740268D01*
X767992Y740283D01*
X768442D01*
X769405Y740541D01*
X770269Y741040D01*
X770974Y741745D01*
X771473Y742608D01*
X771731Y743572D01*
Y744569D01*
X771473Y745532D01*
X770974Y746396D01*
X770269Y747101D01*
X769405Y747599D01*
X768442Y747858D01*
D02*
G37*
G36*
X787612Y594977D02*
X786947D01*
X786332Y594723D01*
X785861Y594252D01*
X785606Y593637D01*
Y593487D01*
X785599Y593464D01*
X785597Y593448D01*
X785593Y593439D01*
X785582Y593422D01*
X785572Y593407D01*
X785547Y593377D01*
X770428Y578258D01*
X770417Y578249D01*
X770324Y578192D01*
X770184Y578128D01*
X769998Y578065D01*
X769766Y578007D01*
X769509Y577960D01*
X768401Y577875D01*
X767969Y577873D01*
X767895Y577857D01*
X767445D01*
X766481Y577599D01*
X765618Y577101D01*
X764913Y576396D01*
X764414Y575532D01*
X764156Y574569D01*
Y573571D01*
X764414Y572608D01*
X764913Y571745D01*
X765618Y571039D01*
X766481Y570541D01*
X767445Y570283D01*
X768442D01*
X769405Y570541D01*
X770269Y571039D01*
X770974Y571745D01*
X771473Y572608D01*
X771731Y573571D01*
Y574021D01*
X771746Y574096D01*
X771748Y574536D01*
X771792Y575307D01*
X771831Y575617D01*
X771880Y575893D01*
X771938Y576125D01*
X772001Y576311D01*
X772065Y576450D01*
X772122Y576544D01*
X772131Y576555D01*
X787194Y591618D01*
X787199Y591621D01*
X787205Y591625D01*
X787239Y591631D01*
X787612D01*
X788227Y591886D01*
X788698Y592356D01*
X788953Y592971D01*
Y593637D01*
X788698Y594252D01*
X788227Y594723D01*
X787612Y594977D01*
D02*
G37*
G36*
X758442Y577857D02*
X757445D01*
X756482Y577599D01*
X755618Y577101D01*
X754913Y576396D01*
X754414Y575532D01*
X754156Y574569D01*
Y573571D01*
X754414Y572608D01*
X754913Y571745D01*
X755618Y571039D01*
X756482Y570541D01*
X757445Y570283D01*
X758442D01*
X759405Y570541D01*
X760269Y571039D01*
X760974Y571745D01*
X761473Y572608D01*
X761731Y573571D01*
Y574569D01*
X761473Y575532D01*
X760974Y576396D01*
X760269Y577101D01*
X759405Y577599D01*
X758442Y577857D01*
D02*
G37*
G36*
Y567858D02*
X757445D01*
X756482Y567599D01*
X755618Y567101D01*
X754913Y566396D01*
X754414Y565532D01*
X754156Y564569D01*
Y563572D01*
X754414Y562608D01*
X754913Y561745D01*
X755618Y561039D01*
X756482Y560541D01*
X757445Y560283D01*
X758442D01*
X759405Y560541D01*
X760269Y561039D01*
X760974Y561745D01*
X761473Y562608D01*
X761731Y563572D01*
Y564569D01*
X761473Y565532D01*
X760974Y566396D01*
X760269Y567101D01*
X759405Y567599D01*
X758442Y567858D01*
D02*
G37*
G36*
X956879Y557889D02*
X954834D01*
X952814Y557569D01*
X950869Y556937D01*
X949047Y556009D01*
X947393Y554807D01*
X945947Y553361D01*
X944745Y551706D01*
X943816Y549884D01*
X943184Y547939D01*
X942865Y545919D01*
Y543874D01*
X943184Y541855D01*
X943816Y539910D01*
X944745Y538088D01*
X945947Y536433D01*
X947393Y534987D01*
X949047Y533785D01*
X950869Y532857D01*
X952814Y532225D01*
X954834Y531905D01*
X956879D01*
X958899Y532225D01*
X960844Y532857D01*
X962666Y533785D01*
X964320Y534987D01*
X965767Y536433D01*
X966969Y538088D01*
X967897Y539910D01*
X968529Y541855D01*
X968849Y543874D01*
Y545919D01*
X968529Y547939D01*
X967897Y549884D01*
X966969Y551706D01*
X965767Y553361D01*
X964320Y554807D01*
X962666Y556009D01*
X960844Y556937D01*
X958899Y557569D01*
X956879Y557889D01*
D02*
G37*
G36*
X763966D02*
X761921D01*
X759901Y557569D01*
X757956Y556937D01*
X756134Y556009D01*
X754480Y554807D01*
X753033Y553361D01*
X751831Y551706D01*
X750903Y549884D01*
X750271Y547939D01*
X749951Y545919D01*
Y543874D01*
X750271Y541855D01*
X750903Y539910D01*
X751831Y538088D01*
X753033Y536433D01*
X754480Y534987D01*
X756134Y533785D01*
X757956Y532857D01*
X759901Y532225D01*
X761921Y531905D01*
X763966D01*
X765986Y532225D01*
X767931Y532857D01*
X769753Y533785D01*
X771407Y534987D01*
X772853Y536433D01*
X774055Y538088D01*
X774984Y539910D01*
X775616Y541855D01*
X775936Y543874D01*
Y545919D01*
X775616Y547939D01*
X774984Y549884D01*
X774055Y551706D01*
X772853Y553361D01*
X771407Y554807D01*
X769753Y556009D01*
X767931Y556937D01*
X765986Y557569D01*
X763966Y557889D01*
D02*
G37*
G36*
X1156899Y532550D02*
X1155901D01*
X1154938Y532292D01*
X1154074Y531794D01*
X1153369Y531088D01*
X1152871Y530225D01*
X1152613Y529262D01*
Y528264D01*
X1152871Y527301D01*
X1153369Y526438D01*
X1154074Y525732D01*
X1154938Y525234D01*
X1155901Y524976D01*
X1156899D01*
X1157862Y525234D01*
X1158725Y525732D01*
X1159431Y526438D01*
X1159929Y527301D01*
X1160187Y528264D01*
Y529262D01*
X1159929Y530225D01*
X1159431Y531088D01*
X1158725Y531794D01*
X1157862Y532292D01*
X1156899Y532550D01*
D02*
G37*
G36*
X823780Y559232D02*
X823115D01*
X822500Y558977D01*
X822029Y558506D01*
X821961Y558343D01*
X807135Y543517D01*
X806787Y542996D01*
X806665Y542382D01*
X806665Y542382D01*
Y537690D01*
X806655Y537574D01*
X806627Y537407D01*
X806595Y537289D01*
X806585Y537264D01*
X805613D01*
Y531752D01*
X806376D01*
X806386Y531728D01*
X806417Y531609D01*
X806445Y531442D01*
X806456Y531326D01*
Y530146D01*
X806456Y530146D01*
X806468Y530085D01*
Y528955D01*
X806468Y528955D01*
X806498Y528800D01*
Y527792D01*
X806495Y527775D01*
X806498Y527761D01*
X806495Y527746D01*
X806498Y527667D01*
Y526976D01*
X806139Y526420D01*
X806139D01*
Y525638D01*
X806136Y525621D01*
X806139Y525604D01*
Y523418D01*
X806136Y523401D01*
X806139Y523384D01*
Y522602D01*
X806139D01*
X806200Y522237D01*
X805606Y521507D01*
X805119D01*
X804766Y521436D01*
X804466Y521236D01*
X804266Y520937D01*
X804196Y520583D01*
Y520266D01*
X804108Y520135D01*
X803986Y519520D01*
X804108Y518906D01*
X804196Y518775D01*
Y518457D01*
X804266Y518104D01*
X804466Y517804D01*
X804766Y517604D01*
X805119Y517534D01*
X806064D01*
X806417Y517604D01*
X806771Y517721D01*
X807133D01*
X807185Y517697D01*
X807325Y517604D01*
X807678Y517534D01*
X808623D01*
X808976Y517604D01*
X809276Y517804D01*
X809476Y518104D01*
X809546Y518457D01*
Y518775D01*
X809634Y518906D01*
X809756Y519520D01*
X809753Y519539D01*
Y522333D01*
X809753Y522345D01*
X809770Y522536D01*
X809779Y522602D01*
X810155D01*
Y523384D01*
X810158Y523401D01*
X810155Y523418D01*
Y525604D01*
X810158Y525621D01*
X810155Y525638D01*
Y526337D01*
X810514Y526976D01*
X810514D01*
X810514Y526976D01*
Y527758D01*
X810518Y527775D01*
X810514Y527792D01*
Y530795D01*
X810514Y530795D01*
X810341Y531582D01*
X810498Y531752D01*
X810928D01*
Y537264D01*
X809956D01*
X809946Y537289D01*
X809914Y537407D01*
X809887Y537574D01*
X809876Y537690D01*
Y541717D01*
X824232Y556073D01*
X824395Y556140D01*
X824866Y556611D01*
X825121Y557226D01*
Y557892D01*
X824866Y558506D01*
X824395Y558977D01*
X823780Y559232D01*
D02*
G37*
G36*
X1156899Y522550D02*
X1155901D01*
X1154938Y522292D01*
X1154074Y521794D01*
X1153369Y521089D01*
X1152871Y520225D01*
X1152613Y519262D01*
Y518264D01*
X1152871Y517301D01*
X1153369Y516437D01*
X1154074Y515732D01*
X1154938Y515234D01*
X1155901Y514976D01*
X1156899D01*
X1157862Y515234D01*
X1158725Y515732D01*
X1159431Y516437D01*
X1159929Y517301D01*
X1160187Y518264D01*
Y519262D01*
X1159929Y520225D01*
X1159431Y521089D01*
X1158725Y521794D01*
X1157862Y522292D01*
X1156899Y522550D01*
D02*
G37*
G36*
X870119Y563436D02*
X869453D01*
X868838Y563181D01*
X868367Y562711D01*
X868113Y562096D01*
Y561430D01*
X868367Y560815D01*
X868838Y560345D01*
X869453Y560090D01*
X870119D01*
X870734Y560345D01*
X870909Y560519D01*
X870961Y560552D01*
X870962Y560552D01*
X870965Y560553D01*
X870988Y560557D01*
X870998Y560559D01*
X914669D01*
X941469Y533759D01*
Y510501D01*
X941467Y510491D01*
X941463Y510469D01*
X941462Y510465D01*
X941461Y510465D01*
X941429Y510412D01*
X941255Y510237D01*
X941000Y509622D01*
Y508957D01*
X941255Y508342D01*
X941725Y507871D01*
X942340Y507616D01*
X943006D01*
X943621Y507871D01*
X944092Y508342D01*
X944346Y508957D01*
Y509622D01*
X944092Y510237D01*
X943917Y510412D01*
X943885Y510465D01*
X943884Y510465D01*
X943883Y510469D01*
X943879Y510491D01*
X943877Y510501D01*
Y534258D01*
X943877Y534258D01*
X943786Y534719D01*
X943524Y535109D01*
X943524Y535109D01*
X916019Y562614D01*
X915629Y562876D01*
X915168Y562967D01*
X915168Y562967D01*
X870998D01*
X870988Y562969D01*
X870965Y562973D01*
X870962Y562974D01*
X870961Y562975D01*
X870909Y563007D01*
X870734Y563181D01*
X870119Y563436D01*
D02*
G37*
G36*
X1156899Y512550D02*
X1155901D01*
X1154938Y512292D01*
X1154074Y511794D01*
X1153369Y511089D01*
X1152871Y510225D01*
X1152613Y509262D01*
Y508264D01*
X1152871Y507301D01*
X1153369Y506437D01*
X1154074Y505732D01*
X1154938Y505234D01*
X1155901Y504976D01*
X1156899D01*
X1157862Y505234D01*
X1158725Y505732D01*
X1159431Y506437D01*
X1159929Y507301D01*
X1160187Y508264D01*
Y509262D01*
X1159929Y510225D01*
X1159431Y511089D01*
X1158725Y511794D01*
X1157862Y512292D01*
X1156899Y512550D01*
D02*
G37*
G36*
Y502550D02*
X1155901D01*
X1154938Y502292D01*
X1154074Y501794D01*
X1153369Y501088D01*
X1152871Y500225D01*
X1152613Y499262D01*
Y498264D01*
X1152871Y497301D01*
X1153369Y496438D01*
X1154074Y495732D01*
X1154938Y495234D01*
X1155901Y494976D01*
X1156899D01*
X1157862Y495234D01*
X1158725Y495732D01*
X1159431Y496438D01*
X1159929Y497301D01*
X1160187Y498264D01*
Y499262D01*
X1159929Y500225D01*
X1159431Y501088D01*
X1158725Y501794D01*
X1157862Y502292D01*
X1156899Y502550D01*
D02*
G37*
G36*
X996899D02*
X995901D01*
X994938Y502292D01*
X994075Y501794D01*
X993369Y501088D01*
X992871Y500225D01*
X992613Y499262D01*
Y498264D01*
X992871Y497301D01*
X993369Y496438D01*
X994075Y495732D01*
X994938Y495234D01*
X995901Y494976D01*
X996899D01*
X997862Y495234D01*
X998726Y495732D01*
X999431Y496438D01*
X999929Y497301D01*
X1000187Y498264D01*
Y499262D01*
X999929Y500225D01*
X999431Y501088D01*
X998726Y501794D01*
X997862Y502292D01*
X996899Y502550D01*
D02*
G37*
G36*
Y492550D02*
X995901D01*
X994938Y492292D01*
X994075Y491794D01*
X993369Y491088D01*
X992871Y490225D01*
X992613Y489262D01*
Y488264D01*
X992871Y487301D01*
X993369Y486438D01*
X994075Y485732D01*
X994938Y485234D01*
X995901Y484976D01*
X996899D01*
X997862Y485234D01*
X998726Y485732D01*
X999431Y486438D01*
X999929Y487301D01*
X1000187Y488264D01*
Y489262D01*
X999929Y490225D01*
X999431Y491088D01*
X998726Y491794D01*
X997862Y492292D01*
X996899Y492550D01*
D02*
G37*
G36*
X1076184Y491716D02*
X1075096D01*
X1074045Y491434D01*
X1073102Y490890D01*
X1072332Y490120D01*
X1071788Y489178D01*
X1071506Y488126D01*
Y487038D01*
X1071788Y485986D01*
X1072332Y485044D01*
X1073102Y484274D01*
X1074045Y483730D01*
X1075096Y483448D01*
X1076184D01*
X1077236Y483730D01*
X1078178Y484274D01*
X1078948Y485044D01*
X1079492Y485986D01*
X1079774Y487038D01*
Y488126D01*
X1079492Y489178D01*
X1078948Y490120D01*
X1078178Y490890D01*
X1077236Y491434D01*
X1076184Y491716D01*
D02*
G37*
G36*
X1052562D02*
X1051474D01*
X1050422Y491434D01*
X1049480Y490890D01*
X1048710Y490120D01*
X1048166Y489178D01*
X1047884Y488126D01*
Y487038D01*
X1048166Y485986D01*
X1048710Y485044D01*
X1049480Y484274D01*
X1050422Y483730D01*
X1051474Y483448D01*
X1052562D01*
X1053614Y483730D01*
X1054556Y484274D01*
X1055326Y485044D01*
X1055870Y485986D01*
X1056152Y487038D01*
Y488126D01*
X1055870Y489178D01*
X1055326Y490120D01*
X1054556Y490890D01*
X1053614Y491434D01*
X1052562Y491716D01*
D02*
G37*
G36*
X1028940D02*
X1027852D01*
X1026801Y491434D01*
X1025858Y490890D01*
X1025088Y490120D01*
X1024544Y489178D01*
X1024262Y488126D01*
Y487038D01*
X1024544Y485986D01*
X1025088Y485044D01*
X1025858Y484274D01*
X1026801Y483730D01*
X1027852Y483448D01*
X1028940D01*
X1029992Y483730D01*
X1030934Y484274D01*
X1031704Y485044D01*
X1032248Y485986D01*
X1032530Y487038D01*
Y488126D01*
X1032248Y489178D01*
X1031704Y490120D01*
X1030934Y490890D01*
X1029992Y491434D01*
X1028940Y491716D01*
D02*
G37*
G36*
X1123755Y491708D02*
X1122667D01*
X1121615Y491426D01*
X1120673Y490882D01*
X1119903Y490112D01*
X1119359Y489170D01*
X1119077Y488118D01*
Y487030D01*
X1119359Y485978D01*
X1119903Y485036D01*
X1120673Y484266D01*
X1121615Y483722D01*
X1122667Y483440D01*
X1123755D01*
X1124807Y483722D01*
X1125749Y484266D01*
X1126519Y485036D01*
X1127063Y485978D01*
X1127345Y487030D01*
Y488118D01*
X1127063Y489170D01*
X1126519Y490112D01*
X1125749Y490882D01*
X1124807Y491426D01*
X1123755Y491708D01*
D02*
G37*
G36*
X1076184Y479905D02*
X1075096D01*
X1074045Y479623D01*
X1073102Y479079D01*
X1072332Y478309D01*
X1071788Y477366D01*
X1071506Y476315D01*
Y475227D01*
X1071788Y474175D01*
X1072332Y473233D01*
X1073102Y472463D01*
X1074045Y471919D01*
X1075096Y471637D01*
X1076184D01*
X1077236Y471919D01*
X1078178Y472463D01*
X1078948Y473233D01*
X1079492Y474175D01*
X1079774Y475227D01*
Y476315D01*
X1079492Y477366D01*
X1078948Y478309D01*
X1078178Y479079D01*
X1077236Y479623D01*
X1076184Y479905D01*
D02*
G37*
G36*
X1052562D02*
X1051474D01*
X1050422Y479623D01*
X1049480Y479079D01*
X1048710Y478309D01*
X1048166Y477366D01*
X1047884Y476315D01*
Y475227D01*
X1048166Y474175D01*
X1048710Y473233D01*
X1049480Y472463D01*
X1050422Y471919D01*
X1051474Y471637D01*
X1052562D01*
X1053614Y471919D01*
X1054556Y472463D01*
X1055326Y473233D01*
X1055870Y474175D01*
X1056152Y475227D01*
Y476315D01*
X1055870Y477366D01*
X1055326Y478309D01*
X1054556Y479079D01*
X1053614Y479623D01*
X1052562Y479905D01*
D02*
G37*
G36*
X1028940D02*
X1027852D01*
X1026800Y479623D01*
X1025858Y479079D01*
X1025088Y478309D01*
X1024544Y477366D01*
X1024262Y476315D01*
Y475227D01*
X1024544Y474175D01*
X1025088Y473233D01*
X1025858Y472463D01*
X1026800Y471919D01*
X1027852Y471637D01*
X1028940D01*
X1029992Y471919D01*
X1030934Y472463D01*
X1031704Y473233D01*
X1032248Y474175D01*
X1032530Y475227D01*
Y476315D01*
X1032248Y477366D01*
X1031704Y478309D01*
X1030934Y479079D01*
X1029992Y479623D01*
X1028940Y479905D01*
D02*
G37*
G36*
X1152364Y483550D02*
X1150436D01*
X1148545Y483174D01*
X1146764Y482437D01*
X1145161Y481365D01*
X1143798Y480002D01*
X1142727Y478399D01*
X1141989Y476618D01*
X1141613Y474727D01*
Y472799D01*
X1141989Y470908D01*
X1142727Y469127D01*
X1143798Y467524D01*
X1145161Y466161D01*
X1146764Y465090D01*
X1148545Y464352D01*
X1150436Y463976D01*
X1152364D01*
X1154255Y464352D01*
X1156036Y465090D01*
X1157639Y466161D01*
X1159002Y467524D01*
X1160073Y469127D01*
X1160811Y470908D01*
X1161187Y472799D01*
Y474727D01*
X1160811Y476618D01*
X1160073Y478399D01*
X1159002Y480002D01*
X1157639Y481365D01*
X1156036Y482437D01*
X1154255Y483174D01*
X1152364Y483550D01*
D02*
G37*
G36*
X1002364D02*
X1000436D01*
X998545Y483174D01*
X996764Y482437D01*
X995161Y481365D01*
X993798Y480002D01*
X992727Y478399D01*
X991989Y476618D01*
X991613Y474727D01*
Y472799D01*
X991989Y470908D01*
X992727Y469127D01*
X993798Y467524D01*
X995161Y466161D01*
X996764Y465090D01*
X998545Y464352D01*
X1000436Y463976D01*
X1002364D01*
X1004255Y464352D01*
X1006036Y465090D01*
X1007639Y466161D01*
X1009002Y467524D01*
X1010073Y469127D01*
X1010811Y470908D01*
X1011187Y472799D01*
Y474727D01*
X1010811Y476618D01*
X1010073Y478399D01*
X1009002Y480002D01*
X1007639Y481365D01*
X1006036Y482437D01*
X1004255Y483174D01*
X1002364Y483550D01*
D02*
G37*
G36*
X1067953Y465456D02*
X1066634D01*
X1065341Y465199D01*
X1064123Y464694D01*
X1063027Y463962D01*
X1062095Y463029D01*
X1061362Y461933D01*
X1060858Y460715D01*
X1060601Y459422D01*
Y458104D01*
X1060858Y456811D01*
X1061362Y455593D01*
X1062095Y454496D01*
X1063027Y453564D01*
X1064123Y452832D01*
X1065341Y452327D01*
X1066634Y452070D01*
X1067953D01*
X1069246Y452327D01*
X1070464Y452832D01*
X1071560Y453564D01*
X1072492Y454496D01*
X1073225Y455593D01*
X1073729Y456811D01*
X1073987Y458104D01*
Y459422D01*
X1073729Y460715D01*
X1073225Y461933D01*
X1072492Y463029D01*
X1071560Y463962D01*
X1070464Y464694D01*
X1069246Y465199D01*
X1067953Y465456D01*
D02*
G37*
G36*
X1037559D02*
X1036241D01*
X1034948Y465199D01*
X1033730Y464694D01*
X1032633Y463962D01*
X1031701Y463029D01*
X1030969Y461933D01*
X1030464Y460715D01*
X1030207Y459422D01*
Y458104D01*
X1030464Y456811D01*
X1030969Y455593D01*
X1031701Y454496D01*
X1032633Y453564D01*
X1033730Y452832D01*
X1034948Y452327D01*
X1036241Y452070D01*
X1037559D01*
X1038852Y452327D01*
X1040070Y452832D01*
X1041166Y453564D01*
X1042099Y454496D01*
X1042831Y455593D01*
X1043336Y456811D01*
X1043593Y458104D01*
Y459422D01*
X1043336Y460715D01*
X1042831Y461933D01*
X1042099Y463029D01*
X1041166Y463962D01*
X1040070Y464694D01*
X1038852Y465199D01*
X1037559Y465456D01*
D02*
G37*
G36*
X1117965Y465448D02*
X1116646D01*
X1115353Y465191D01*
X1114135Y464686D01*
X1113039Y463954D01*
X1112107Y463022D01*
X1111374Y461925D01*
X1110870Y460707D01*
X1110613Y459414D01*
Y458096D01*
X1110870Y456803D01*
X1111374Y455585D01*
X1112107Y454489D01*
X1113039Y453556D01*
X1114135Y452824D01*
X1115353Y452319D01*
X1116646Y452062D01*
X1117965D01*
X1119258Y452319D01*
X1120476Y452824D01*
X1121572Y453556D01*
X1122504Y454489D01*
X1123237Y455585D01*
X1123741Y456803D01*
X1123998Y458096D01*
Y459414D01*
X1123741Y460707D01*
X1123237Y461925D01*
X1122504Y463022D01*
X1121572Y463954D01*
X1120476Y464686D01*
X1119258Y465191D01*
X1117965Y465448D01*
D02*
G37*
G36*
X1123755Y479897D02*
X1122667D01*
X1121615Y479615D01*
X1120673Y479071D01*
X1119903Y478301D01*
X1119359Y477359D01*
X1119077Y476307D01*
Y475219D01*
X1119359Y474167D01*
X1119903Y473225D01*
X1120256Y472872D01*
X1120299Y472808D01*
X1120655Y472449D01*
X1121248Y471788D01*
X1121473Y471504D01*
X1121660Y471240D01*
X1121805Y471004D01*
X1121908Y470801D01*
X1121973Y470635D01*
X1122004Y470512D01*
X1122007Y470481D01*
Y469952D01*
X1122007Y469952D01*
X1122099Y469491D01*
X1122359Y469101D01*
X1127196Y464264D01*
Y455262D01*
X1115996Y444062D01*
X1054754D01*
X1054428Y444850D01*
X1054441Y444863D01*
X1054696Y445478D01*
Y446144D01*
X1054441Y446759D01*
X1053971Y447229D01*
X1053356Y447484D01*
X1052690D01*
X1052075Y447229D01*
X1051900Y447054D01*
X1051847Y447022D01*
X1051847Y447022D01*
X1051843Y447021D01*
X1051821Y447016D01*
X1051811Y447015D01*
X1020498D01*
X1014804Y452709D01*
X1014414Y452970D01*
X1013953Y453062D01*
X1013953Y453062D01*
X1001900D01*
X990154Y464807D01*
X990148Y464815D01*
X990136Y464834D01*
X990134Y464837D01*
X990134Y464838D01*
X990119Y464898D01*
Y465145D01*
X989865Y465760D01*
X989394Y466231D01*
X988779Y466486D01*
X988113D01*
X987498Y466231D01*
X987027Y465760D01*
X986773Y465145D01*
Y464479D01*
X987027Y463864D01*
X987498Y463394D01*
X988113Y463139D01*
X988360D01*
X988420Y463124D01*
X988421Y463124D01*
X988424Y463122D01*
X988443Y463110D01*
X988451Y463104D01*
X1000549Y451006D01*
X1000549Y451006D01*
X1000940Y450745D01*
X1001401Y450653D01*
X1013454D01*
X1019148Y444959D01*
X1019312Y444850D01*
X1019073Y444062D01*
X991183D01*
X981061Y454184D01*
Y464784D01*
X981063Y464794D01*
X981067Y464816D01*
X981068Y464820D01*
X981069Y464820D01*
X981101Y464873D01*
X981275Y465048D01*
X981530Y465663D01*
Y466328D01*
X981275Y466943D01*
X980805Y467414D01*
X980190Y467669D01*
X979524D01*
X978909Y467414D01*
X978438Y466943D01*
X978184Y466328D01*
Y465663D01*
X978438Y465048D01*
X978613Y464873D01*
X978645Y464820D01*
X978646Y464820D01*
X978647Y464816D01*
X978651Y464794D01*
X978653Y464784D01*
Y453685D01*
X978653Y453685D01*
X978744Y453224D01*
X979005Y452833D01*
X989832Y442006D01*
X990223Y441746D01*
X990684Y441654D01*
X1116495D01*
X1116495Y441654D01*
X1116956Y441746D01*
X1117347Y442006D01*
X1129251Y453911D01*
X1129513Y454302D01*
X1129604Y454763D01*
X1129604Y454763D01*
Y464763D01*
X1129604Y464763D01*
X1129513Y465224D01*
X1129251Y465615D01*
X1129251Y465615D01*
X1124415Y470451D01*
Y470481D01*
X1124418Y470512D01*
X1124449Y470635D01*
X1124514Y470801D01*
X1124617Y471004D01*
X1124762Y471240D01*
X1124939Y471490D01*
X1125773Y472454D01*
X1126124Y472808D01*
X1126166Y472872D01*
X1126519Y473225D01*
X1127063Y474167D01*
X1127345Y475219D01*
Y476307D01*
X1127063Y477359D01*
X1126519Y478301D01*
X1125749Y479071D01*
X1124807Y479615D01*
X1123755Y479897D01*
D02*
G37*
%LPD*%
G36*
X1036665Y795829D02*
X1036618Y795872D01*
X1036566Y795910D01*
X1036510Y795944D01*
X1036448Y795973D01*
X1036381Y795998D01*
X1036309Y796019D01*
X1036233Y796035D01*
X1036151Y796046D01*
X1036064Y796053D01*
X1035973Y796055D01*
Y796842D01*
X1036064Y796845D01*
X1036151Y796851D01*
X1036233Y796863D01*
X1036309Y796879D01*
X1036381Y796899D01*
X1036448Y796924D01*
X1036510Y796953D01*
X1036566Y796987D01*
X1036618Y797026D01*
X1036665Y797069D01*
Y795829D01*
D02*
G37*
G36*
X911561Y789680D02*
X911498Y789678D01*
X911434Y789668D01*
X911370Y789652D01*
X911305Y789629D01*
X911240Y789600D01*
X911175Y789563D01*
X911110Y789520D01*
X911044Y789470D01*
X910978Y789414D01*
X910912Y789351D01*
X910355Y789908D01*
X910418Y789974D01*
X910475Y790040D01*
X910524Y790106D01*
X910567Y790171D01*
X910604Y790236D01*
X910633Y790301D01*
X910656Y790366D01*
X910672Y790430D01*
X910682Y790494D01*
X910684Y790557D01*
X911561Y789680D01*
D02*
G37*
G36*
X1083833Y789070D02*
X1083899Y789013D01*
X1083965Y788964D01*
X1084030Y788920D01*
X1084095Y788884D01*
X1084160Y788855D01*
X1084225Y788832D01*
X1084289Y788815D01*
X1084352Y788806D01*
X1084416Y788803D01*
X1083539Y787926D01*
X1083536Y787990D01*
X1083527Y788054D01*
X1083511Y788118D01*
X1083488Y788182D01*
X1083458Y788247D01*
X1083422Y788312D01*
X1083379Y788378D01*
X1083329Y788444D01*
X1083273Y788510D01*
X1083210Y788576D01*
X1083766Y789133D01*
X1083833Y789070D01*
D02*
G37*
G36*
X1102811Y768688D02*
X1102862Y768475D01*
X1102947Y768248D01*
X1103067Y768006D01*
X1103220Y767750D01*
X1103408Y767480D01*
X1103630Y767195D01*
X1104176Y766583D01*
X1104500Y766256D01*
X1100300D01*
X1100624Y766583D01*
X1101392Y767480D01*
X1101580Y767750D01*
X1101733Y768006D01*
X1101853Y768248D01*
X1101938Y768475D01*
X1101989Y768688D01*
X1102006Y768887D01*
X1102794D01*
X1102811Y768688D01*
D02*
G37*
G36*
X1096054Y767211D02*
X1095926Y767058D01*
X1095811Y766871D01*
X1095710Y766650D01*
X1095624Y766394D01*
X1095551Y766105D01*
X1095493Y765781D01*
X1095449Y765423D01*
X1095402Y764604D01*
X1095400Y764143D01*
X1092430Y767113D01*
X1092891Y767115D01*
X1094068Y767206D01*
X1094391Y767265D01*
X1094681Y767337D01*
X1094936Y767424D01*
X1095158Y767524D01*
X1095345Y767639D01*
X1095497Y767767D01*
X1096054Y767211D01*
D02*
G37*
G36*
X1110235Y761121D02*
X1110225Y761107D01*
X1110216Y761085D01*
X1110209Y761053D01*
X1110202Y761012D01*
X1110193Y760904D01*
X1110188Y760759D01*
X1110187Y760673D01*
X1109400D01*
X1109412Y761125D01*
X1110246D01*
X1110235Y761121D01*
D02*
G37*
G36*
X1103203Y757682D02*
X1103216Y757542D01*
X1103239Y757414D01*
X1103271Y757297D01*
X1103311Y757192D01*
X1103361Y757099D01*
X1103420Y757017D01*
X1103488Y756946D01*
X1103565Y756887D01*
X1103651Y756840D01*
X1101923Y757075D01*
X1102016Y757097D01*
X1102099Y757131D01*
X1102172Y757176D01*
X1102235Y757234D01*
X1102289Y757304D01*
X1102333Y757386D01*
X1102367Y757480D01*
X1102391Y757585D01*
X1102406Y757703D01*
X1102411Y757833D01*
X1103198D01*
X1103203Y757682D01*
D02*
G37*
G36*
X788056Y719571D02*
X787993Y719505D01*
X787937Y719439D01*
X787887Y719373D01*
X787844Y719307D01*
X787808Y719242D01*
X787778Y719177D01*
X787755Y719113D01*
X787739Y719049D01*
X787730Y718985D01*
X787727Y718921D01*
X786850Y719798D01*
X786913Y719801D01*
X786977Y719810D01*
X787041Y719827D01*
X787106Y719849D01*
X787171Y719879D01*
X787236Y719915D01*
X787301Y719958D01*
X787367Y720008D01*
X787433Y720065D01*
X787500Y720128D01*
X788056Y719571D01*
D02*
G37*
G36*
X789749Y714631D02*
X789686Y714564D01*
X789630Y714498D01*
X789580Y714432D01*
X789537Y714367D01*
X789500Y714302D01*
X789471Y714237D01*
X789448Y714173D01*
X789432Y714108D01*
X789422Y714044D01*
X789420Y713981D01*
X788543Y714858D01*
X788606Y714860D01*
X788670Y714870D01*
X788734Y714886D01*
X788799Y714909D01*
X788864Y714939D01*
X788929Y714975D01*
X788994Y715018D01*
X789060Y715068D01*
X789126Y715124D01*
X789192Y715187D01*
X789749Y714631D01*
D02*
G37*
G36*
X793449Y711233D02*
X793386Y711166D01*
X793330Y711100D01*
X793280Y711034D01*
X793237Y710969D01*
X793200Y710904D01*
X793171Y710839D01*
X793148Y710775D01*
X793132Y710710D01*
X793122Y710646D01*
X793120Y710583D01*
X792243Y711460D01*
X792306Y711462D01*
X792370Y711472D01*
X792434Y711488D01*
X792499Y711511D01*
X792564Y711541D01*
X792629Y711577D01*
X792694Y711620D01*
X792760Y711670D01*
X792826Y711726D01*
X792892Y711789D01*
X793449Y711233D01*
D02*
G37*
G36*
X796615Y708319D02*
X796552Y708253D01*
X796496Y708187D01*
X796446Y708121D01*
X796403Y708055D01*
X796367Y707990D01*
X796337Y707926D01*
X796314Y707861D01*
X796298Y707797D01*
X796288Y707733D01*
X796286Y707669D01*
X795409Y708546D01*
X795472Y708549D01*
X795536Y708559D01*
X795601Y708575D01*
X795665Y708598D01*
X795730Y708627D01*
X795795Y708664D01*
X795860Y708707D01*
X795926Y708756D01*
X795992Y708813D01*
X796059Y708876D01*
X796615Y708319D01*
D02*
G37*
G36*
X799556Y705233D02*
X799493Y705166D01*
X799437Y705100D01*
X799387Y705034D01*
X799344Y704969D01*
X799307Y704904D01*
X799278Y704839D01*
X799255Y704775D01*
X799239Y704710D01*
X799229Y704646D01*
X799227Y704583D01*
X798350Y705460D01*
X798413Y705463D01*
X798477Y705472D01*
X798541Y705488D01*
X798606Y705511D01*
X798671Y705541D01*
X798736Y705577D01*
X798801Y705620D01*
X798867Y705670D01*
X798933Y705726D01*
X799000Y705789D01*
X799556Y705233D01*
D02*
G37*
G36*
X988977Y655084D02*
X988939Y655032D01*
X988905Y654975D01*
X988875Y654913D01*
X988850Y654846D01*
X988830Y654775D01*
X988814Y654698D01*
X988803Y654616D01*
X988796Y654530D01*
X988794Y654438D01*
X988006D01*
X988004Y654530D01*
X987997Y654616D01*
X987986Y654698D01*
X987970Y654775D01*
X987950Y654846D01*
X987925Y654913D01*
X987895Y654975D01*
X987861Y655032D01*
X987823Y655084D01*
X987780Y655130D01*
X989020D01*
X988977Y655084D01*
D02*
G37*
G36*
X828068Y593419D02*
X828078Y593355D01*
X828094Y593291D01*
X828117Y593226D01*
X828146Y593162D01*
X828182Y593096D01*
X828225Y593031D01*
X828275Y592965D01*
X828332Y592899D01*
X828395Y592833D01*
X827838Y592276D01*
X827772Y592339D01*
X827706Y592396D01*
X827640Y592445D01*
X827574Y592488D01*
X827509Y592525D01*
X827444Y592554D01*
X827380Y592577D01*
X827316Y592593D01*
X827252Y592603D01*
X827188Y592606D01*
X828065Y593482D01*
X828068Y593419D01*
D02*
G37*
G36*
X826222Y590054D02*
X826231Y589990D01*
X826248Y589926D01*
X826270Y589861D01*
X826300Y589797D01*
X826336Y589731D01*
X826379Y589666D01*
X826429Y589600D01*
X826486Y589534D01*
X826549Y589468D01*
X825992Y588911D01*
X825926Y588974D01*
X825859Y589031D01*
X825794Y589080D01*
X825728Y589123D01*
X825663Y589160D01*
X825598Y589189D01*
X825534Y589212D01*
X825470Y589228D01*
X825406Y589238D01*
X825342Y589241D01*
X826219Y590118D01*
X826222Y590054D01*
D02*
G37*
G36*
X824525Y586380D02*
X824534Y586316D01*
X824550Y586251D01*
X824573Y586187D01*
X824603Y586122D01*
X824639Y586057D01*
X824682Y585992D01*
X824732Y585926D01*
X824788Y585860D01*
X824852Y585793D01*
X824295Y585237D01*
X824228Y585300D01*
X824162Y585356D01*
X824097Y585406D01*
X824031Y585449D01*
X823966Y585485D01*
X823901Y585515D01*
X823837Y585538D01*
X823773Y585554D01*
X823709Y585564D01*
X823645Y585566D01*
X824522Y586443D01*
X824525Y586380D01*
D02*
G37*
G36*
X907522Y761098D02*
X907459Y761032D01*
X907403Y760966D01*
X907353Y760900D01*
X907310Y760834D01*
X907274Y760769D01*
X907244Y760705D01*
X907221Y760640D01*
X907205Y760576D01*
X907195Y760512D01*
X907193Y760448D01*
X906316Y761325D01*
X906379Y761328D01*
X906443Y761338D01*
X906507Y761354D01*
X906572Y761376D01*
X906637Y761406D01*
X906702Y761442D01*
X906767Y761485D01*
X906833Y761535D01*
X906899Y761592D01*
X906966Y761655D01*
X907522Y761098D01*
D02*
G37*
G36*
X900806Y760018D02*
X900767Y759966D01*
X900733Y759909D01*
X900704Y759847D01*
X900679Y759780D01*
X900658Y759709D01*
X900643Y759632D01*
X900631Y759550D01*
X900624Y759464D01*
X900622Y759372D01*
X899835D01*
X899833Y759464D01*
X899826Y759550D01*
X899815Y759632D01*
X899799Y759709D01*
X899778Y759780D01*
X899753Y759847D01*
X899724Y759909D01*
X899690Y759966D01*
X899651Y760018D01*
X899608Y760064D01*
X900849D01*
X900806Y760018D01*
D02*
G37*
G36*
X975843Y749866D02*
X975973Y749757D01*
X976037Y749711D01*
X976101Y749671D01*
X976164Y749636D01*
X976226Y749608D01*
X976288Y749585D01*
X976349Y749568D01*
X976409Y749557D01*
X975415Y748815D01*
X975421Y748878D01*
X975419Y748942D01*
X975410Y749006D01*
X975393Y749070D01*
X975368Y749134D01*
X975335Y749200D01*
X975295Y749265D01*
X975247Y749331D01*
X975192Y749397D01*
X975129Y749464D01*
X975777Y749930D01*
X975843Y749866D01*
D02*
G37*
G36*
X972600Y749831D02*
X972666Y749775D01*
X972732Y749725D01*
X972798Y749682D01*
X972863Y749646D01*
X972928Y749616D01*
X972992Y749593D01*
X973056Y749577D01*
X973120Y749568D01*
X973184Y749565D01*
X972307Y748688D01*
X972304Y748751D01*
X972295Y748815D01*
X972278Y748880D01*
X972256Y748944D01*
X972226Y749009D01*
X972190Y749074D01*
X972147Y749139D01*
X972097Y749205D01*
X972040Y749271D01*
X971977Y749338D01*
X972534Y749894D01*
X972600Y749831D01*
D02*
G37*
G36*
X1138225Y743616D02*
X1138277Y743577D01*
X1138334Y743543D01*
X1138396Y743514D01*
X1138462Y743489D01*
X1138534Y743469D01*
X1138611Y743453D01*
X1138692Y743441D01*
X1138779Y743435D01*
X1138871Y743432D01*
Y742645D01*
X1138779Y742643D01*
X1138692Y742636D01*
X1138611Y742625D01*
X1138534Y742609D01*
X1138462Y742588D01*
X1138396Y742563D01*
X1138334Y742534D01*
X1138277Y742500D01*
X1138225Y742462D01*
X1138178Y742419D01*
Y743659D01*
X1138225Y743616D01*
D02*
G37*
G36*
X1146669Y735790D02*
Y692860D01*
X1136303Y682494D01*
X1127681D01*
X1127681Y682494D01*
X1127221Y682402D01*
X1126830Y682141D01*
X1126830Y682141D01*
X1117183Y672494D01*
X1057082Y672494D01*
X1031435Y698141D01*
X1031044Y698402D01*
X1030583Y698494D01*
X1030583Y698494D01*
X995531D01*
X995531Y698494D01*
X995070Y698402D01*
X994679Y698141D01*
X983064Y686525D01*
X921537Y686525D01*
X911551Y696510D01*
X911609Y696855D01*
X912450Y697118D01*
X921625Y687943D01*
X921625Y687943D01*
X922016Y687682D01*
X922476Y687591D01*
X922476Y687591D01*
X982124D01*
X982124Y687591D01*
X982585Y687682D01*
X982975Y687943D01*
X994591Y699559D01*
X1031523D01*
X1057170Y673912D01*
X1057170Y673912D01*
X1057561Y673650D01*
X1058022Y673559D01*
X1058022Y673559D01*
X1116242Y673559D01*
X1116243Y673559D01*
X1116703Y673650D01*
X1117094Y673912D01*
X1126741Y683559D01*
X1135363D01*
X1135363Y683559D01*
X1135824Y683650D01*
X1136215Y683912D01*
X1145251Y692948D01*
X1145251Y692948D01*
X1145513Y693339D01*
X1145604Y693800D01*
X1145604Y693800D01*
Y730574D01*
X1145604Y730574D01*
X1145513Y731035D01*
X1145251Y731426D01*
X1136542Y740135D01*
X1136536Y740143D01*
X1136524Y740162D01*
X1136522Y740165D01*
X1136522Y740166D01*
X1136507Y740226D01*
Y740473D01*
X1136341Y740874D01*
X1136837Y741490D01*
X1136865Y741509D01*
X1137213Y741365D01*
X1137878D01*
X1138493Y741620D01*
X1138668Y741795D01*
X1138721Y741827D01*
X1138721Y741827D01*
X1138725Y741828D01*
X1138747Y741833D01*
X1138757Y741834D01*
X1140625D01*
X1146669Y735790D01*
D02*
G37*
G36*
X1135722Y740068D02*
X1135732Y740004D01*
X1135748Y739940D01*
X1135771Y739875D01*
X1135800Y739810D01*
X1135837Y739745D01*
X1135880Y739680D01*
X1135930Y739614D01*
X1135986Y739548D01*
X1136049Y739482D01*
X1135493Y738925D01*
X1135426Y738988D01*
X1135360Y739044D01*
X1135294Y739094D01*
X1135229Y739137D01*
X1135164Y739174D01*
X1135099Y739203D01*
X1135034Y739226D01*
X1134970Y739242D01*
X1134906Y739252D01*
X1134843Y739254D01*
X1135720Y740131D01*
X1135722Y740068D01*
D02*
G37*
G36*
X1132343Y737479D02*
X1132352Y737415D01*
X1132368Y737351D01*
X1132391Y737286D01*
X1132421Y737222D01*
X1132457Y737156D01*
X1132500Y737091D01*
X1132550Y737025D01*
X1132606Y736959D01*
X1132670Y736893D01*
X1132113Y736336D01*
X1132046Y736399D01*
X1131980Y736456D01*
X1131915Y736506D01*
X1131849Y736549D01*
X1131784Y736585D01*
X1131719Y736614D01*
X1131655Y736637D01*
X1131590Y736653D01*
X1131527Y736663D01*
X1131463Y736666D01*
X1132340Y737542D01*
X1132343Y737479D01*
D02*
G37*
G36*
X913600Y702083D02*
X913562Y702032D01*
X913528Y701975D01*
X913498Y701913D01*
X913473Y701846D01*
X913453Y701775D01*
X913437Y701698D01*
X913426Y701616D01*
X913419Y701530D01*
X913417Y701438D01*
X912629D01*
X912627Y701530D01*
X912620Y701616D01*
X912609Y701698D01*
X912593Y701775D01*
X912573Y701846D01*
X912548Y701913D01*
X912518Y701975D01*
X912484Y702032D01*
X912446Y702083D01*
X912403Y702130D01*
X913643D01*
X913600Y702083D01*
D02*
G37*
G36*
X910688Y699518D02*
X910649Y699466D01*
X910615Y699409D01*
X910586Y699348D01*
X910561Y699281D01*
X910541Y699209D01*
X910525Y699132D01*
X910513Y699051D01*
X910507Y698964D01*
X910504Y698873D01*
X909717D01*
X909715Y698964D01*
X909708Y699051D01*
X909697Y699132D01*
X909681Y699209D01*
X909660Y699281D01*
X909636Y699348D01*
X909606Y699409D01*
X909572Y699466D01*
X909534Y699518D01*
X909491Y699565D01*
X910731D01*
X910688Y699518D01*
D02*
G37*
G36*
X920936Y695044D02*
X920940Y694980D01*
X920951Y694916D01*
X920969Y694852D01*
X920996Y694787D01*
X921029Y694722D01*
X921070Y694656D01*
X921118Y694590D01*
X921174Y694524D01*
X921237Y694457D01*
X920616Y693965D01*
X920550Y694028D01*
X920419Y694137D01*
X920354Y694182D01*
X920290Y694221D01*
X920226Y694254D01*
X920163Y694281D01*
X920100Y694302D01*
X920038Y694317D01*
X919976Y694326D01*
X920939Y695108D01*
X920936Y695044D01*
D02*
G37*
G36*
X1082808Y720833D02*
X1082874Y720776D01*
X1082940Y720727D01*
X1083005Y720683D01*
X1083070Y720647D01*
X1083135Y720618D01*
X1083200Y720595D01*
X1083264Y720579D01*
X1083328Y720569D01*
X1083391Y720566D01*
X1082514Y719690D01*
X1082512Y719753D01*
X1082502Y719817D01*
X1082486Y719881D01*
X1082463Y719946D01*
X1082433Y720010D01*
X1082397Y720076D01*
X1082354Y720141D01*
X1082304Y720207D01*
X1082248Y720273D01*
X1082185Y720339D01*
X1082742Y720896D01*
X1082808Y720833D01*
D02*
G37*
G36*
X792591Y629610D02*
X792528Y629544D01*
X792472Y629478D01*
X792422Y629412D01*
X792379Y629347D01*
X792343Y629282D01*
X792313Y629217D01*
X792290Y629152D01*
X792274Y629088D01*
X792265Y629024D01*
X792262Y628961D01*
X791385Y629838D01*
X791449Y629840D01*
X791512Y629850D01*
X791577Y629866D01*
X791641Y629889D01*
X791706Y629918D01*
X791771Y629955D01*
X791837Y629998D01*
X791902Y630047D01*
X791968Y630104D01*
X792035Y630167D01*
X792591Y629610D01*
D02*
G37*
G36*
X942468Y718908D02*
X942405Y718906D01*
X942341Y718896D01*
X942277Y718880D01*
X942212Y718857D01*
X942148Y718827D01*
X942082Y718791D01*
X942017Y718748D01*
X941951Y718698D01*
X941885Y718642D01*
X941819Y718579D01*
X941262Y719136D01*
X941325Y719202D01*
X941382Y719268D01*
X941431Y719334D01*
X941474Y719399D01*
X941511Y719464D01*
X941540Y719529D01*
X941563Y719594D01*
X941579Y719658D01*
X941589Y719722D01*
X941591Y719785D01*
X942468Y718908D01*
D02*
G37*
G36*
X921064Y706395D02*
X921116Y706357D01*
X921172Y706323D01*
X921234Y706294D01*
X921301Y706269D01*
X921373Y706248D01*
X921449Y706233D01*
X921531Y706221D01*
X921618Y706214D01*
X921709Y706212D01*
Y705425D01*
X921618Y705422D01*
X921531Y705416D01*
X921449Y705404D01*
X921373Y705388D01*
X921301Y705368D01*
X921234Y705343D01*
X921172Y705314D01*
X921116Y705280D01*
X921064Y705241D01*
X921017Y705198D01*
Y706438D01*
X921064Y706395D01*
D02*
G37*
G36*
X1091477Y723998D02*
X1091543Y723941D01*
X1091609Y723892D01*
X1091674Y723849D01*
X1091739Y723812D01*
X1091804Y723783D01*
X1091869Y723760D01*
X1091933Y723744D01*
X1091997Y723734D01*
X1092060Y723732D01*
X1091183Y722855D01*
X1091181Y722918D01*
X1091171Y722982D01*
X1091155Y723046D01*
X1091132Y723111D01*
X1091103Y723175D01*
X1091066Y723241D01*
X1091023Y723306D01*
X1090974Y723372D01*
X1090917Y723438D01*
X1090854Y723504D01*
X1091411Y724061D01*
X1091477Y723998D01*
D02*
G37*
G36*
X1084958Y728254D02*
X1090361Y722851D01*
X1090367Y722843D01*
X1090380Y722824D01*
X1090381Y722821D01*
X1090381Y722820D01*
X1090396Y722760D01*
Y722513D01*
X1090651Y721898D01*
X1091121Y721427D01*
X1091737Y721173D01*
X1092402D01*
X1093017Y721427D01*
X1093408Y721818D01*
X1093780Y721765D01*
X1094196Y721577D01*
Y718246D01*
X1089230Y713280D01*
X1088554Y713634D01*
X1088520Y713684D01*
X1088604Y714106D01*
Y721818D01*
X1088513Y722279D01*
X1088251Y722670D01*
X1088251Y722670D01*
X1084014Y726907D01*
Y728350D01*
X1084801Y728489D01*
X1084958Y728254D01*
D02*
G37*
G36*
X1091934Y708756D02*
X1091871Y708689D01*
X1091815Y708624D01*
X1091765Y708558D01*
X1091722Y708492D01*
X1091685Y708427D01*
X1091656Y708362D01*
X1091633Y708298D01*
X1091617Y708234D01*
X1091607Y708170D01*
X1091605Y708106D01*
X1090728Y708983D01*
X1090791Y708986D01*
X1090855Y708995D01*
X1090919Y709012D01*
X1090984Y709034D01*
X1091049Y709064D01*
X1091114Y709100D01*
X1091179Y709143D01*
X1091245Y709193D01*
X1091311Y709249D01*
X1091377Y709313D01*
X1091934Y708756D01*
D02*
G37*
G36*
X1097289Y709175D02*
X1097298Y709111D01*
X1097314Y709047D01*
X1097337Y708983D01*
X1097367Y708918D01*
X1097403Y708853D01*
X1097446Y708787D01*
X1097496Y708721D01*
X1097552Y708655D01*
X1097615Y708589D01*
X1097058Y708032D01*
X1096992Y708095D01*
X1096926Y708152D01*
X1096860Y708202D01*
X1096795Y708245D01*
X1096730Y708281D01*
X1096665Y708311D01*
X1096601Y708333D01*
X1096536Y708350D01*
X1096472Y708359D01*
X1096409Y708362D01*
X1097286Y709239D01*
X1097289Y709175D01*
D02*
G37*
G36*
X1078099Y708009D02*
X1078151Y707971D01*
X1078208Y707937D01*
X1078270Y707907D01*
X1078336Y707883D01*
X1078408Y707862D01*
X1078485Y707846D01*
X1078566Y707835D01*
X1078653Y707828D01*
X1078745Y707826D01*
Y707039D01*
X1078653Y707036D01*
X1078566Y707029D01*
X1078485Y707018D01*
X1078408Y707002D01*
X1078336Y706982D01*
X1078270Y706957D01*
X1078208Y706928D01*
X1078151Y706894D01*
X1078099Y706855D01*
X1078052Y706812D01*
Y708052D01*
X1078099Y708009D01*
D02*
G37*
G36*
X1084958Y706748D02*
X1084895Y706682D01*
X1084838Y706616D01*
X1084789Y706550D01*
X1084746Y706484D01*
X1084709Y706419D01*
X1084680Y706355D01*
X1084657Y706290D01*
X1084641Y706226D01*
X1084631Y706162D01*
X1084629Y706098D01*
X1083752Y706975D01*
X1083815Y706978D01*
X1083879Y706987D01*
X1083943Y707004D01*
X1084008Y707026D01*
X1084073Y707056D01*
X1084138Y707092D01*
X1084203Y707135D01*
X1084269Y707185D01*
X1084335Y707242D01*
X1084401Y707305D01*
X1084958Y706748D01*
D02*
G37*
G36*
X1069840Y703013D02*
X1069849Y702949D01*
X1069865Y702885D01*
X1069888Y702821D01*
X1069918Y702756D01*
X1069954Y702691D01*
X1069997Y702625D01*
X1070047Y702560D01*
X1070103Y702493D01*
X1070166Y702427D01*
X1069610Y701870D01*
X1069543Y701934D01*
X1069477Y701990D01*
X1069411Y702040D01*
X1069346Y702083D01*
X1069281Y702119D01*
X1069216Y702149D01*
X1069152Y702172D01*
X1069088Y702188D01*
X1069024Y702197D01*
X1068960Y702200D01*
X1069837Y703077D01*
X1069840Y703013D01*
D02*
G37*
G36*
X1107358Y698851D02*
X1108216Y698099D01*
X1108386Y697978D01*
X1108538Y697884D01*
X1108672Y697817D01*
X1108787Y697777D01*
X1108885Y697763D01*
X1108178Y697056D01*
Y696056D01*
X1108119Y696095D01*
X1108025Y696130D01*
X1107896Y696161D01*
X1107733Y696188D01*
X1107301Y696230D01*
X1106391Y696261D01*
X1106019Y696263D01*
Y697263D01*
X1106391Y697265D01*
X1107610Y697346D01*
X1107549Y697431D01*
X1107227Y697824D01*
X1106797Y698289D01*
X1106542Y698549D01*
X1107099Y699106D01*
X1107358Y698851D01*
D02*
G37*
G36*
X788536Y667114D02*
X788543Y667028D01*
X788554Y666946D01*
X788570Y666869D01*
X788590Y666798D01*
X788615Y666731D01*
X788645Y666669D01*
X788679Y666612D01*
X788717Y666561D01*
X788760Y666514D01*
X787520D01*
X787563Y666561D01*
X787602Y666612D01*
X787636Y666669D01*
X787665Y666731D01*
X787690Y666798D01*
X787710Y666869D01*
X787726Y666946D01*
X787737Y667028D01*
X787744Y667114D01*
X787746Y667206D01*
X788534D01*
X788536Y667114D01*
D02*
G37*
G36*
X791772Y659839D02*
X791779Y659752D01*
X791790Y659670D01*
X791806Y659594D01*
X791826Y659522D01*
X791851Y659455D01*
X791881Y659393D01*
X791915Y659337D01*
X791953Y659285D01*
X791996Y659238D01*
X790756D01*
X790799Y659285D01*
X790838Y659337D01*
X790871Y659393D01*
X790901Y659455D01*
X790926Y659522D01*
X790946Y659594D01*
X790962Y659670D01*
X790973Y659752D01*
X790980Y659839D01*
X790982Y659930D01*
X791770D01*
X791772Y659839D01*
D02*
G37*
G36*
X789749Y647422D02*
X789686Y647356D01*
X789630Y647289D01*
X789580Y647224D01*
X789537Y647158D01*
X789500Y647093D01*
X789471Y647028D01*
X789448Y646964D01*
X789432Y646900D01*
X789422Y646836D01*
X789420Y646772D01*
X788543Y647649D01*
X788606Y647652D01*
X788670Y647661D01*
X788734Y647677D01*
X788799Y647700D01*
X788864Y647730D01*
X788929Y647766D01*
X788994Y647809D01*
X789060Y647859D01*
X789126Y647916D01*
X789192Y647979D01*
X789749Y647422D01*
D02*
G37*
G36*
X792155Y639737D02*
X792092Y639670D01*
X792035Y639604D01*
X791985Y639538D01*
X791942Y639473D01*
X791906Y639408D01*
X791876Y639343D01*
X791854Y639278D01*
X791837Y639214D01*
X791828Y639150D01*
X791825Y639087D01*
X790948Y639964D01*
X791012Y639966D01*
X791076Y639976D01*
X791140Y639992D01*
X791204Y640015D01*
X791269Y640044D01*
X791334Y640081D01*
X791400Y640124D01*
X791465Y640174D01*
X791532Y640230D01*
X791598Y640293D01*
X792155Y639737D01*
D02*
G37*
G36*
X871461Y727631D02*
X871423Y727579D01*
X871389Y727522D01*
X871359Y727460D01*
X871334Y727394D01*
X871314Y727322D01*
X871298Y727245D01*
X871287Y727164D01*
X871280Y727077D01*
X871278Y726985D01*
X870491D01*
X870488Y727077D01*
X870481Y727164D01*
X870470Y727245D01*
X870454Y727322D01*
X870434Y727394D01*
X870409Y727460D01*
X870380Y727522D01*
X870346Y727579D01*
X870307Y727631D01*
X870264Y727678D01*
X871504D01*
X871461Y727631D01*
D02*
G37*
G36*
X874229Y696360D02*
X874295Y696304D01*
X874361Y696254D01*
X874426Y696211D01*
X874492Y696174D01*
X874556Y696145D01*
X874621Y696122D01*
X874685Y696106D01*
X874749Y696096D01*
X874812Y696094D01*
X873936Y695217D01*
X873933Y695280D01*
X873923Y695344D01*
X873907Y695408D01*
X873884Y695473D01*
X873855Y695538D01*
X873818Y695603D01*
X873775Y695668D01*
X873726Y695734D01*
X873669Y695800D01*
X873606Y695866D01*
X874163Y696423D01*
X874229Y696360D01*
D02*
G37*
G36*
X904907Y712542D02*
X904857Y712504D01*
X904812Y712461D01*
X904772Y712411D01*
X904738Y712355D01*
X904709Y712293D01*
X904685Y712225D01*
X904667Y712152D01*
X904654Y712072D01*
X904646Y711986D01*
X904643Y711894D01*
X903856Y712069D01*
X903854Y712161D01*
X903841Y712331D01*
X903829Y712409D01*
X903815Y712483D01*
X903796Y712552D01*
X903775Y712616D01*
X903750Y712676D01*
X903722Y712731D01*
X903690Y712782D01*
X904907Y712542D01*
D02*
G37*
G36*
X922646Y675262D02*
X922713Y675205D01*
X922778Y675155D01*
X922844Y675112D01*
X922909Y675076D01*
X922974Y675046D01*
X923038Y675024D01*
X923102Y675007D01*
X923166Y674998D01*
X923230Y674995D01*
X922353Y674118D01*
X922350Y674182D01*
X922341Y674246D01*
X922324Y674310D01*
X922302Y674374D01*
X922272Y674439D01*
X922236Y674504D01*
X922193Y674570D01*
X922143Y674636D01*
X922086Y674702D01*
X922023Y674768D01*
X922580Y675325D01*
X922646Y675262D01*
D02*
G37*
G36*
X928564Y639199D02*
X928519Y639199D01*
X928472Y639192D01*
X928422Y639178D01*
X928369Y639155D01*
X928313Y639126D01*
X928255Y639089D01*
X928193Y639044D01*
X928129Y638992D01*
X927993Y638865D01*
X927436Y639422D01*
X927503Y639491D01*
X927615Y639622D01*
X927660Y639683D01*
X927697Y639742D01*
X927727Y639798D01*
X927749Y639851D01*
X927763Y639901D01*
X927770Y639948D01*
X927770Y639993D01*
X928564Y639199D01*
D02*
G37*
G36*
X929962Y637179D02*
X930028Y637122D01*
X930094Y637073D01*
X930159Y637030D01*
X930224Y636993D01*
X930289Y636964D01*
X930354Y636941D01*
X930418Y636925D01*
X930482Y636915D01*
X930545Y636913D01*
X929668Y636036D01*
X929666Y636099D01*
X929656Y636163D01*
X929640Y636227D01*
X929617Y636292D01*
X929587Y636356D01*
X929551Y636422D01*
X929508Y636487D01*
X929458Y636553D01*
X929402Y636619D01*
X929339Y636685D01*
X929895Y637242D01*
X929962Y637179D01*
D02*
G37*
G36*
X865144Y619814D02*
X865196Y619776D01*
X865253Y619742D01*
X865315Y619713D01*
X865382Y619688D01*
X865453Y619667D01*
X865530Y619652D01*
X865612Y619640D01*
X865698Y619633D01*
X865790Y619631D01*
Y618844D01*
X865698Y618842D01*
X865612Y618835D01*
X865530Y618823D01*
X865453Y618808D01*
X865382Y618787D01*
X865315Y618762D01*
X865253Y618733D01*
X865196Y618699D01*
X865144Y618660D01*
X865098Y618617D01*
Y619858D01*
X865144Y619814D01*
D02*
G37*
G36*
X869234Y618660D02*
X869241Y618573D01*
X869252Y618492D01*
X869268Y618415D01*
X869288Y618343D01*
X869313Y618276D01*
X869343Y618215D01*
X869377Y618158D01*
X869415Y618106D01*
X869458Y618059D01*
X868218D01*
X868261Y618106D01*
X868300Y618158D01*
X868334Y618215D01*
X868363Y618276D01*
X868388Y618343D01*
X868408Y618415D01*
X868424Y618492D01*
X868435Y618573D01*
X868442Y618660D01*
X868444Y618751D01*
X869232D01*
X869234Y618660D01*
D02*
G37*
G36*
X1107642Y630096D02*
X1107634Y630171D01*
X1107611Y630237D01*
X1107571Y630297D01*
X1107516Y630348D01*
X1107445Y630391D01*
X1107359Y630427D01*
X1107256Y630454D01*
X1107138Y630474D01*
X1107138Y630474D01*
X1107138Y630474D01*
X1107020Y630454D01*
X1106917Y630427D01*
X1106831Y630391D01*
X1106760Y630348D01*
X1106705Y630297D01*
X1106666Y630237D01*
X1106642Y630171D01*
X1106634Y630096D01*
Y631671D01*
X1106642Y631596D01*
X1106666Y631529D01*
X1106705Y631470D01*
X1106760Y631419D01*
X1106831Y631375D01*
X1106917Y631340D01*
X1107020Y631312D01*
X1107138Y631293D01*
X1107138Y631293D01*
X1107138Y631293D01*
X1107256Y631312D01*
X1107359Y631340D01*
X1107445Y631375D01*
X1107516Y631419D01*
X1107571Y631470D01*
X1107611Y631529D01*
X1107634Y631596D01*
X1107642Y631671D01*
Y630096D01*
D02*
G37*
G36*
X1110201D02*
X1110193Y630171D01*
X1110170Y630237D01*
X1110130Y630297D01*
X1110075Y630348D01*
X1110004Y630391D01*
X1109918Y630427D01*
X1109816Y630454D01*
X1109697Y630474D01*
X1109697Y630474D01*
X1109697Y630474D01*
X1109579Y630454D01*
X1109476Y630427D01*
X1109390Y630391D01*
X1109319Y630348D01*
X1109264Y630297D01*
X1109225Y630237D01*
X1109201Y630171D01*
X1109193Y630096D01*
Y631671D01*
X1109201Y631596D01*
X1109225Y631529D01*
X1109264Y631470D01*
X1109319Y631419D01*
X1109390Y631375D01*
X1109476Y631340D01*
X1109579Y631312D01*
X1109697Y631293D01*
X1109697Y631293D01*
X1109697Y631293D01*
X1109816Y631312D01*
X1109918Y631340D01*
X1110004Y631375D01*
X1110075Y631419D01*
X1110130Y631470D01*
X1110170Y631529D01*
X1110193Y631596D01*
X1110201Y631671D01*
Y630096D01*
D02*
G37*
G36*
X1116367D02*
X1116360Y630171D01*
X1116336Y630237D01*
X1116297Y630297D01*
X1116241Y630348D01*
X1116171Y630391D01*
X1116084Y630427D01*
X1115982Y630454D01*
X1115864Y630474D01*
X1115730Y630485D01*
X1115580Y630489D01*
Y631277D01*
X1115730Y631281D01*
X1115864Y631293D01*
X1115982Y631312D01*
X1116084Y631340D01*
X1116171Y631375D01*
X1116241Y631419D01*
X1116297Y631470D01*
X1116336Y631529D01*
X1116360Y631596D01*
X1116367Y631671D01*
Y630096D01*
D02*
G37*
G36*
X1111760Y631596D02*
X1111784Y631529D01*
X1111823Y631470D01*
X1111878Y631419D01*
X1111949Y631375D01*
X1112036Y631340D01*
X1112138Y631312D01*
X1112256Y631293D01*
X1112390Y631281D01*
X1112539Y631277D01*
Y630489D01*
X1112390Y630485D01*
X1112256Y630474D01*
X1112138Y630454D01*
X1112036Y630427D01*
X1111949Y630391D01*
X1111878Y630348D01*
X1111823Y630297D01*
X1111784Y630237D01*
X1111760Y630171D01*
X1111752Y630096D01*
Y631671D01*
X1111760Y631596D01*
D02*
G37*
G36*
X1126391Y631570D02*
X1126414Y631503D01*
X1126454Y631444D01*
X1126509Y631393D01*
X1126580Y631350D01*
X1126666Y631314D01*
X1126769Y631287D01*
X1126887Y631267D01*
X1127021Y631255D01*
X1127170Y631251D01*
Y630464D01*
X1127021Y630460D01*
X1126887Y630448D01*
X1126769Y630428D01*
X1126666Y630401D01*
X1126580Y630365D01*
X1126509Y630322D01*
X1126454Y630271D01*
X1126414Y630212D01*
X1126391Y630145D01*
X1126383Y630070D01*
Y631645D01*
X1126391Y631570D01*
D02*
G37*
G36*
X1132002Y628515D02*
X1131629Y628885D01*
X1130615Y629762D01*
X1130312Y629977D01*
X1130027Y630152D01*
X1129759Y630288D01*
X1129509Y630386D01*
X1129276Y630444D01*
X1129061Y630464D01*
Y631251D01*
X1129276Y631271D01*
X1129509Y631329D01*
X1129759Y631427D01*
X1130027Y631563D01*
X1130312Y631738D01*
X1130615Y631953D01*
X1130935Y632206D01*
X1131629Y632830D01*
X1132002Y633200D01*
Y628515D01*
D02*
G37*
G36*
X1125237Y628919D02*
X1125170Y628895D01*
X1125111Y628856D01*
X1125060Y628801D01*
X1125017Y628730D01*
X1124981Y628643D01*
X1124954Y628541D01*
X1124934Y628423D01*
X1124922Y628289D01*
X1124918Y628139D01*
X1124131D01*
X1124127Y628289D01*
X1124115Y628423D01*
X1124096Y628541D01*
X1124068Y628643D01*
X1124033Y628730D01*
X1123989Y628801D01*
X1123938Y628856D01*
X1123879Y628895D01*
X1123812Y628919D01*
X1123737Y628927D01*
X1125312D01*
X1125237Y628919D01*
D02*
G37*
G36*
X1105083Y619289D02*
X1105075Y619363D01*
X1105052Y619430D01*
X1105012Y619489D01*
X1104957Y619541D01*
X1104886Y619584D01*
X1104800Y619619D01*
X1104697Y619647D01*
X1104579Y619667D01*
X1104579Y619667D01*
X1104579Y619667D01*
X1104461Y619647D01*
X1104358Y619619D01*
X1104272Y619584D01*
X1104201Y619541D01*
X1104146Y619489D01*
X1104106Y619430D01*
X1104083Y619363D01*
X1104075Y619289D01*
Y620863D01*
X1104083Y620789D01*
X1104106Y620722D01*
X1104146Y620663D01*
X1104201Y620611D01*
X1104272Y620568D01*
X1104358Y620533D01*
X1104461Y620505D01*
X1104579Y620485D01*
X1104579Y620485D01*
X1104579Y620485D01*
X1104697Y620505D01*
X1104800Y620533D01*
X1104886Y620568D01*
X1104957Y620611D01*
X1105012Y620663D01*
X1105052Y620722D01*
X1105075Y620789D01*
X1105083Y620863D01*
Y619289D01*
D02*
G37*
G36*
X1123467Y621285D02*
X1123361Y621173D01*
X1123267Y621062D01*
X1123183Y620951D01*
X1123111Y620839D01*
X1123050Y620728D01*
X1123000Y620616D01*
X1122961Y620505D01*
X1122933Y620394D01*
X1122916Y620282D01*
X1122910Y620171D01*
X1121699Y621186D01*
X1121810Y621192D01*
X1121921Y621208D01*
X1122033Y621236D01*
X1122144Y621275D01*
X1122255Y621325D01*
X1122367Y621387D01*
X1122478Y621459D01*
X1122589Y621543D01*
X1122701Y621637D01*
X1122812Y621743D01*
X1123467Y621285D01*
D02*
G37*
G36*
X1116714Y619289D02*
X1116706Y619363D01*
X1116683Y619430D01*
X1116643Y619489D01*
X1116588Y619541D01*
X1116517Y619584D01*
X1116431Y619619D01*
X1116328Y619647D01*
X1116210Y619667D01*
X1116076Y619678D01*
X1115927Y619682D01*
Y620470D01*
X1116076Y620474D01*
X1116210Y620485D01*
X1116328Y620505D01*
X1116431Y620533D01*
X1116517Y620568D01*
X1116588Y620611D01*
X1116643Y620663D01*
X1116683Y620722D01*
X1116706Y620789D01*
X1116714Y620863D01*
Y619289D01*
D02*
G37*
G36*
X1111760Y620789D02*
X1111784Y620722D01*
X1111823Y620663D01*
X1111878Y620611D01*
X1111949Y620568D01*
X1112036Y620533D01*
X1112138Y620505D01*
X1112256Y620485D01*
X1112390Y620474D01*
X1112539Y620470D01*
Y619682D01*
X1112390Y619678D01*
X1112256Y619667D01*
X1112138Y619647D01*
X1112036Y619619D01*
X1111949Y619584D01*
X1111878Y619541D01*
X1111823Y619489D01*
X1111784Y619430D01*
X1111760Y619363D01*
X1111752Y619289D01*
Y620863D01*
X1111760Y620789D01*
D02*
G37*
G36*
X1106561Y617679D02*
X1106497Y617655D01*
X1106439Y617616D01*
X1106390Y617560D01*
X1106348Y617490D01*
X1106313Y617403D01*
X1106287Y617301D01*
X1106268Y617183D01*
X1106256Y617049D01*
X1106252Y616899D01*
X1105465D01*
X1105461Y617049D01*
X1105450Y617183D01*
X1105431Y617301D01*
X1105404Y617403D01*
X1105369Y617490D01*
X1105328Y617560D01*
X1105278Y617616D01*
X1105221Y617655D01*
X1105156Y617679D01*
X1105083Y617687D01*
X1106634D01*
X1106561Y617679D01*
D02*
G37*
G36*
X1108582Y613915D02*
X1108648Y613859D01*
X1108714Y613809D01*
X1108780Y613766D01*
X1108845Y613730D01*
X1108910Y613700D01*
X1108974Y613677D01*
X1109038Y613661D01*
X1109102Y613652D01*
X1109166Y613649D01*
X1108289Y612772D01*
X1108286Y612835D01*
X1108276Y612899D01*
X1108260Y612963D01*
X1108237Y613028D01*
X1108208Y613093D01*
X1108172Y613158D01*
X1108129Y613223D01*
X1108079Y613289D01*
X1108022Y613355D01*
X1107959Y613421D01*
X1108516Y613978D01*
X1108582Y613915D01*
D02*
G37*
G36*
X943256Y630540D02*
X943192Y630537D01*
X943128Y630527D01*
X943064Y630511D01*
X943000Y630488D01*
X942935Y630459D01*
X942870Y630423D01*
X942804Y630379D01*
X942739Y630330D01*
X942673Y630273D01*
X942606Y630210D01*
X942049Y630767D01*
X942113Y630833D01*
X942169Y630899D01*
X942219Y630965D01*
X942262Y631031D01*
X942298Y631096D01*
X942328Y631160D01*
X942351Y631225D01*
X942367Y631289D01*
X942376Y631353D01*
X942379Y631417D01*
X943256Y630540D01*
D02*
G37*
G36*
X853006Y609623D02*
X853057Y609585D01*
X853114Y609551D01*
X853176Y609522D01*
X853243Y609497D01*
X853315Y609476D01*
X853391Y609460D01*
X853473Y609449D01*
X853560Y609442D01*
X853651Y609440D01*
Y608653D01*
X853560Y608650D01*
X853473Y608644D01*
X853391Y608632D01*
X853315Y608617D01*
X853243Y608596D01*
X853176Y608571D01*
X853114Y608542D01*
X853057Y608508D01*
X853006Y608469D01*
X852959Y608426D01*
Y609667D01*
X853006Y609623D01*
D02*
G37*
G36*
X938890Y632579D02*
X938826Y632512D01*
X938770Y632446D01*
X938720Y632380D01*
X938677Y632315D01*
X938641Y632250D01*
X938611Y632185D01*
X938588Y632120D01*
X938572Y632056D01*
X938563Y631992D01*
X938560Y631929D01*
X937683Y632806D01*
X937747Y632808D01*
X937810Y632818D01*
X937875Y632834D01*
X937939Y632857D01*
X938004Y632887D01*
X938069Y632923D01*
X938134Y632966D01*
X938200Y633016D01*
X938266Y633072D01*
X938333Y633135D01*
X938890Y632579D01*
D02*
G37*
G36*
X964741Y621884D02*
X964807Y621827D01*
X964873Y621777D01*
X964939Y621734D01*
X965004Y621698D01*
X965068Y621668D01*
X965133Y621646D01*
X965197Y621629D01*
X965261Y621620D01*
X965324Y621617D01*
X964448Y620740D01*
X964445Y620804D01*
X964435Y620868D01*
X964419Y620932D01*
X964396Y620997D01*
X964367Y621061D01*
X964330Y621126D01*
X964287Y621192D01*
X964238Y621258D01*
X964181Y621324D01*
X964118Y621390D01*
X964675Y621947D01*
X964741Y621884D01*
D02*
G37*
G36*
X779414Y599106D02*
X779350Y599103D01*
X779286Y599093D01*
X779222Y599077D01*
X779157Y599054D01*
X779093Y599025D01*
X779028Y598988D01*
X778962Y598945D01*
X778896Y598896D01*
X778830Y598839D01*
X778764Y598776D01*
X778207Y599333D01*
X778270Y599399D01*
X778327Y599465D01*
X778376Y599531D01*
X778420Y599597D01*
X778456Y599662D01*
X778485Y599726D01*
X778508Y599791D01*
X778524Y599855D01*
X778534Y599919D01*
X778537Y599983D01*
X779414Y599106D01*
D02*
G37*
G36*
X770413Y595846D02*
X771310Y595078D01*
X771580Y594890D01*
X771836Y594737D01*
X772078Y594617D01*
X772305Y594532D01*
X772518Y594481D01*
X772717Y594464D01*
Y593676D01*
X772518Y593659D01*
X772305Y593608D01*
X772078Y593523D01*
X771836Y593403D01*
X771580Y593250D01*
X771310Y593062D01*
X771025Y592840D01*
X770413Y592294D01*
X770086Y591970D01*
Y596170D01*
X770413Y595846D01*
D02*
G37*
G36*
X1125247Y590570D02*
X1125271Y590503D01*
X1125310Y590444D01*
X1125365Y590393D01*
X1125436Y590350D01*
X1125523Y590314D01*
X1125625Y590287D01*
X1125743Y590267D01*
X1125877Y590255D01*
X1126027Y590251D01*
Y589464D01*
X1125877Y589460D01*
X1125743Y589448D01*
X1125625Y589428D01*
X1125523Y589401D01*
X1125436Y589365D01*
X1125365Y589322D01*
X1125310Y589271D01*
X1125271Y589212D01*
X1125247Y589145D01*
X1125239Y589070D01*
Y590645D01*
X1125247Y590570D01*
D02*
G37*
G36*
X1132002Y587515D02*
X1131629Y587885D01*
X1130615Y588762D01*
X1130312Y588977D01*
X1130027Y589152D01*
X1129759Y589288D01*
X1129509Y589386D01*
X1129276Y589444D01*
X1129061Y589464D01*
Y590251D01*
X1129276Y590271D01*
X1129509Y590329D01*
X1129759Y590427D01*
X1130027Y590563D01*
X1130312Y590738D01*
X1130615Y590953D01*
X1130935Y591206D01*
X1131629Y591830D01*
X1132002Y592200D01*
Y587515D01*
D02*
G37*
G36*
X1124094Y587140D02*
X1124027Y587117D01*
X1123968Y587077D01*
X1123917Y587022D01*
X1123873Y586951D01*
X1123838Y586865D01*
X1123810Y586763D01*
X1123791Y586644D01*
X1123779Y586511D01*
X1123775Y586361D01*
X1122988D01*
X1122984Y586511D01*
X1122972Y586644D01*
X1122952Y586763D01*
X1122925Y586865D01*
X1122889Y586951D01*
X1122846Y587022D01*
X1122795Y587077D01*
X1122736Y587117D01*
X1122669Y587140D01*
X1122594Y587148D01*
X1124169D01*
X1124094Y587140D01*
D02*
G37*
G36*
X1103377Y578003D02*
X1103369Y578077D01*
X1103345Y578144D01*
X1103306Y578203D01*
X1103251Y578254D01*
X1103180Y578298D01*
X1103093Y578333D01*
X1102991Y578361D01*
X1102873Y578380D01*
X1102872Y578380D01*
X1102872Y578380D01*
X1102754Y578361D01*
X1102652Y578333D01*
X1102565Y578298D01*
X1102494Y578254D01*
X1102439Y578203D01*
X1102400Y578144D01*
X1102376Y578077D01*
X1102368Y578003D01*
Y579577D01*
X1102376Y579502D01*
X1102400Y579435D01*
X1102439Y579377D01*
X1102494Y579325D01*
X1102565Y579282D01*
X1102652Y579247D01*
X1102754Y579219D01*
X1102872Y579199D01*
X1102872Y579199D01*
X1102873Y579199D01*
X1102991Y579219D01*
X1103093Y579247D01*
X1103180Y579282D01*
X1103251Y579325D01*
X1103306Y579377D01*
X1103345Y579435D01*
X1103369Y579502D01*
X1103377Y579577D01*
Y578003D01*
D02*
G37*
G36*
X1121800Y579756D02*
X1121694Y579645D01*
X1121600Y579533D01*
X1121516Y579422D01*
X1121444Y579311D01*
X1121383Y579199D01*
X1121332Y579088D01*
X1121293Y578977D01*
X1121266Y578865D01*
X1121249Y578754D01*
X1121243Y578643D01*
X1120031Y579658D01*
X1120143Y579663D01*
X1120254Y579680D01*
X1120365Y579708D01*
X1120477Y579747D01*
X1120588Y579797D01*
X1120699Y579858D01*
X1120811Y579930D01*
X1120922Y580014D01*
X1121033Y580109D01*
X1121145Y580215D01*
X1121800Y579756D01*
D02*
G37*
G36*
X1115047Y577760D02*
X1115039Y577835D01*
X1115015Y577902D01*
X1114976Y577961D01*
X1114921Y578012D01*
X1114850Y578055D01*
X1114763Y578091D01*
X1114661Y578119D01*
X1114543Y578138D01*
X1114409Y578150D01*
X1114259Y578154D01*
Y578941D01*
X1114409Y578945D01*
X1114543Y578957D01*
X1114661Y578977D01*
X1114763Y579004D01*
X1114850Y579040D01*
X1114921Y579083D01*
X1114976Y579134D01*
X1115015Y579193D01*
X1115039Y579260D01*
X1115047Y579335D01*
Y577760D01*
D02*
G37*
G36*
X1110053Y579260D02*
X1110077Y579193D01*
X1110116Y579134D01*
X1110172Y579083D01*
X1110242Y579040D01*
X1110329Y579004D01*
X1110431Y578977D01*
X1110549Y578957D01*
X1110683Y578945D01*
X1110833Y578941D01*
Y578154D01*
X1110683Y578150D01*
X1110549Y578138D01*
X1110431Y578119D01*
X1110329Y578091D01*
X1110242Y578055D01*
X1110172Y578012D01*
X1110116Y577961D01*
X1110077Y577902D01*
X1110053Y577835D01*
X1110046Y577760D01*
Y579335D01*
X1110053Y579260D01*
D02*
G37*
G36*
X1104855Y576392D02*
X1104790Y576369D01*
X1104733Y576329D01*
X1104683Y576274D01*
X1104641Y576203D01*
X1104607Y576117D01*
X1104580Y576015D01*
X1104561Y575896D01*
X1104550Y575763D01*
X1104546Y575613D01*
X1103758D01*
X1103754Y575763D01*
X1103743Y575896D01*
X1103724Y576015D01*
X1103697Y576117D01*
X1103663Y576203D01*
X1103621Y576274D01*
X1103571Y576329D01*
X1103514Y576369D01*
X1103449Y576392D01*
X1103377Y576400D01*
X1104927D01*
X1104855Y576392D01*
D02*
G37*
G36*
X1104501Y572381D02*
X1104794Y572122D01*
X1104822Y572105D01*
X1104843Y572095D01*
X1104858Y572093D01*
X1104161Y571505D01*
X1104163Y571523D01*
X1104158Y571545D01*
X1104146Y571572D01*
X1104128Y571604D01*
X1104102Y571640D01*
X1104070Y571681D01*
X1103985Y571778D01*
X1103874Y571894D01*
X1104430Y572451D01*
X1104501Y572381D01*
D02*
G37*
G36*
X1154258Y566663D02*
X1153965Y566950D01*
X1153402Y567433D01*
X1153132Y567629D01*
X1152868Y567795D01*
X1152612Y567931D01*
X1152363Y568037D01*
X1152121Y568112D01*
X1151886Y568157D01*
X1151659Y568173D01*
Y569353D01*
X1151886Y569369D01*
X1152121Y569414D01*
X1152363Y569489D01*
X1152612Y569595D01*
X1152868Y569731D01*
X1153132Y569897D01*
X1153402Y570093D01*
X1153680Y570320D01*
X1154258Y570863D01*
Y566663D01*
D02*
G37*
G36*
X999404Y568324D02*
X999460Y567584D01*
X999513Y567254D01*
X999582Y566950D01*
X999667Y566673D01*
X999768Y566422D01*
X999886Y566197D01*
X1000020Y566000D01*
X1000170Y565828D01*
X999335Y564993D01*
X999164Y565143D01*
X998966Y565277D01*
X998741Y565395D01*
X998490Y565496D01*
X998213Y565581D01*
X997909Y565650D01*
X997579Y565703D01*
X997223Y565739D01*
X996430Y565763D01*
X999400Y568733D01*
X999404Y568324D01*
D02*
G37*
G36*
X1018134Y564063D02*
X1044776Y564063D01*
X1044989Y563785D01*
X1045997Y563012D01*
X1047170Y562526D01*
X1048429Y562360D01*
X1049688Y562526D01*
X1050861Y563012D01*
X1051869Y563785D01*
X1052374Y564060D01*
X1053381Y563287D01*
X1054555Y562801D01*
X1055814Y562635D01*
X1057073Y562801D01*
X1058246Y563287D01*
X1059253Y564060D01*
X1059958Y563871D01*
X1060361Y563561D01*
X1061535Y563076D01*
X1062794Y562910D01*
X1064052Y563076D01*
X1065226Y563561D01*
X1065879Y564063D01*
X1116189Y564063D01*
X1128109Y575982D01*
X1158310D01*
X1164400Y569893D01*
Y548732D01*
X1159431Y543763D01*
X1121392D01*
X1086392Y508763D01*
X1000220D01*
X1000090Y509752D01*
X999708Y510673D01*
X999101Y511464D01*
X998962Y511571D01*
X999230Y512358D01*
X1076981D01*
X1077518Y512465D01*
X1077974Y512770D01*
X1132563Y567358D01*
X1151791D01*
X1151925Y567332D01*
X1152086Y567282D01*
X1152266Y567205D01*
X1152466Y567100D01*
X1152682Y566964D01*
X1152904Y566802D01*
X1153422Y566358D01*
X1153622Y566162D01*
X1153699Y566062D01*
X1154490Y565455D01*
X1155411Y565073D01*
X1156400Y564943D01*
X1157389Y565073D01*
X1158310Y565455D01*
X1159101Y566062D01*
X1159708Y566853D01*
X1160090Y567774D01*
X1160220Y568763D01*
X1160090Y569752D01*
X1159708Y570673D01*
X1159101Y571464D01*
X1158310Y572071D01*
X1157389Y572453D01*
X1156400Y572583D01*
X1155411Y572453D01*
X1154490Y572071D01*
X1153699Y571464D01*
X1153631Y571376D01*
X1153151Y570924D01*
X1152913Y570730D01*
X1152682Y570562D01*
X1152466Y570426D01*
X1152266Y570321D01*
X1152086Y570244D01*
X1151925Y570194D01*
X1151791Y570168D01*
X1131981D01*
X1131443Y570061D01*
X1130987Y569757D01*
X1076399Y515168D01*
X1068679D01*
X1068208Y515955D01*
X1068532Y516737D01*
X1068698Y517996D01*
X1068532Y519255D01*
X1068046Y520428D01*
X1067273Y521435D01*
X1066265Y522208D01*
X1065970Y522331D01*
X1065848Y522625D01*
X1065075Y523633D01*
X1064068Y524406D01*
X1063887Y524481D01*
X1063813Y524661D01*
X1063040Y525668D01*
X1062032Y526442D01*
X1060859Y526928D01*
X1059600Y527093D01*
X1058341Y526928D01*
X1057168Y526442D01*
X1056160Y525668D01*
X1055387Y524661D01*
X1054901Y523488D01*
X1054735Y522229D01*
X1054901Y520970D01*
X1055387Y519797D01*
X1056160Y518789D01*
X1057168Y518016D01*
X1057348Y517941D01*
X1057423Y517761D01*
X1058196Y516754D01*
X1059203Y515981D01*
X1059031Y515228D01*
X1058987Y515168D01*
X999230D01*
X998962Y515955D01*
X999101Y516062D01*
X999708Y516853D01*
X1000090Y517774D01*
X1000220Y518763D01*
X1000090Y519752D01*
X999708Y520673D01*
X999119Y521441D01*
X999135Y521552D01*
X999399Y522228D01*
X999431D01*
X999968Y522335D01*
X1000424Y522640D01*
X1008633Y530848D01*
X1008937Y531304D01*
X1009044Y531841D01*
Y557524D01*
X1008937Y558062D01*
X1008633Y558517D01*
X1000652Y566498D01*
X1000576Y566610D01*
X1000498Y566760D01*
X1000424Y566941D01*
X1000358Y567157D01*
X1000302Y567406D01*
X1000258Y567678D01*
X1000206Y568358D01*
X1000204Y568638D01*
X1000220Y568763D01*
X1000090Y569752D01*
X999708Y570673D01*
X999101Y571464D01*
X998310Y572071D01*
X997389Y572453D01*
X996400Y572583D01*
X995411Y572453D01*
X994490Y572071D01*
X993699Y571464D01*
X993092Y570673D01*
X992710Y569752D01*
X992580Y568763D01*
X992710Y567774D01*
X993092Y566853D01*
X993699Y566062D01*
X994490Y565455D01*
X995411Y565073D01*
X996400Y564943D01*
X996511Y564958D01*
X997169Y564937D01*
X997475Y564906D01*
X997757Y564861D01*
X998006Y564805D01*
X998221Y564739D01*
X998403Y564665D01*
X998553Y564587D01*
X998666Y564511D01*
X1006234Y556942D01*
Y532423D01*
X1000488Y526677D01*
X999820Y527123D01*
X1000090Y527774D01*
X1000220Y528763D01*
X1000090Y529752D01*
X999708Y530673D01*
X999101Y531464D01*
X998310Y532071D01*
X997389Y532453D01*
X996400Y532583D01*
X995411Y532453D01*
X994490Y532071D01*
X993699Y531464D01*
X993092Y530673D01*
X992710Y529752D01*
X992580Y528763D01*
X992710Y527774D01*
X993092Y526853D01*
X993699Y526062D01*
X994007Y525825D01*
X993740Y525038D01*
X991673D01*
X991135Y524931D01*
X990679Y524626D01*
X950163Y484110D01*
X849387D01*
X838656Y494841D01*
Y496619D01*
X838661Y496679D01*
X838668Y496725D01*
X839161D01*
Y497312D01*
X839219Y497322D01*
X839289Y497328D01*
X840375D01*
X840440Y497322D01*
X840544Y497304D01*
X840555Y497301D01*
X840635Y496902D01*
X841070Y496251D01*
X841721Y495816D01*
X842489Y495663D01*
X843257Y495816D01*
X843908Y496251D01*
X844343Y496902D01*
X844496Y497670D01*
Y501016D01*
X844343Y501784D01*
X843908Y502436D01*
X843257Y502871D01*
X842489Y503023D01*
X841721Y502871D01*
X841070Y502436D01*
X840635Y501784D01*
X840482Y501016D01*
Y500148D01*
X840457Y500144D01*
X840386Y500138D01*
X839289D01*
X839218Y500144D01*
X839161Y500154D01*
Y500741D01*
X835342D01*
Y497542D01*
X835338Y497524D01*
X835342Y497507D01*
Y496725D01*
X835835D01*
X835842Y496679D01*
X835846Y496619D01*
Y494259D01*
X835953Y493721D01*
X836258Y493265D01*
X847811Y481712D01*
X848267Y481407D01*
X848805Y481300D01*
X950745D01*
X951283Y481407D01*
X951738Y481712D01*
X992255Y522228D01*
X993401D01*
X993665Y521552D01*
X993681Y521441D01*
X993092Y520673D01*
X992710Y519752D01*
X992580Y518763D01*
X992710Y517774D01*
X993092Y516853D01*
X993699Y516062D01*
X993838Y515955D01*
X993570Y515168D01*
X987833D01*
X987295Y515061D01*
X986839Y514756D01*
X948215Y476132D01*
X821113D01*
X818389Y478857D01*
X818329Y478927D01*
X818235Y479053D01*
X818157Y479172D01*
X818095Y479285D01*
X818047Y479391D01*
X818012Y479491D01*
X817989Y479585D01*
X817975Y479674D01*
X817969Y479802D01*
X817968Y479805D01*
X817968Y479809D01*
X817966Y479817D01*
Y482705D01*
X817825D01*
X817733Y483455D01*
X817733D01*
Y488967D01*
X817285D01*
X817166Y489705D01*
X817166D01*
Y492707D01*
X817170Y492724D01*
X817166Y492741D01*
Y493361D01*
X817521Y494001D01*
X817529Y494727D01*
X817521Y494768D01*
X817521Y494771D01*
X817523Y494795D01*
X817525Y494801D01*
X817524Y494803D01*
X817525Y494811D01*
X817521Y494823D01*
Y497004D01*
X817525Y497021D01*
X817521Y497038D01*
Y497820D01*
X817521D01*
X817764Y498507D01*
X817914Y498636D01*
X818859D01*
X819213Y498707D01*
X819512Y498907D01*
X819712Y499206D01*
X819783Y499560D01*
Y500576D01*
X819792Y500623D01*
X819783Y500669D01*
Y501686D01*
X819712Y502039D01*
X819512Y502339D01*
X819213Y502539D01*
X818859Y502609D01*
X817914D01*
X817561Y502539D01*
X817069Y502377D01*
X816904D01*
X816855Y502404D01*
X816855Y502404D01*
X816654Y502539D01*
X816300Y502609D01*
X815355D01*
X815002Y502539D01*
X814703Y502339D01*
X814502Y502039D01*
X814432Y501686D01*
Y500669D01*
X814423Y500623D01*
Y497949D01*
X814417Y497878D01*
X814407Y497820D01*
X813505D01*
Y494001D01*
X813151Y493524D01*
X813151D01*
Y490521D01*
X813147Y490504D01*
X813151Y490487D01*
Y489705D01*
X813151Y489705D01*
X813032Y488967D01*
X812419D01*
Y483455D01*
X812560D01*
X812652Y482705D01*
X812652D01*
Y477193D01*
X815545D01*
X815555Y477191D01*
X815683Y477185D01*
X815772Y477171D01*
X815866Y477148D01*
X815965Y477113D01*
X816072Y477065D01*
X816185Y477003D01*
X816304Y476925D01*
X816430Y476831D01*
X816500Y476771D01*
X819538Y473734D01*
X819994Y473429D01*
X820531Y473322D01*
X948797D01*
X949335Y473429D01*
X949790Y473734D01*
X988415Y512358D01*
X993570D01*
X993838Y511571D01*
X993699Y511464D01*
X993092Y510673D01*
X992710Y509752D01*
X992580Y508763D01*
X991390D01*
X948390Y465763D01*
X805830D01*
X794400Y477193D01*
Y499704D01*
X801459Y506763D01*
X875466D01*
X884502Y497727D01*
X940692D01*
X975966Y533002D01*
X975966Y568328D01*
X991400Y583762D01*
X998435D01*
X1018134Y564063D01*
D02*
G37*
G36*
X817833Y499478D02*
X817780Y499584D01*
X817711Y499678D01*
X817628Y499761D01*
X817529Y499833D01*
X817415Y499894D01*
X817286Y499943D01*
X817142Y499982D01*
X817107Y499988D01*
X817073Y499982D01*
X816929Y499943D01*
X816800Y499894D01*
X816686Y499833D01*
X816587Y499761D01*
X816503Y499678D01*
X816435Y499584D01*
X816381Y499478D01*
Y501767D01*
X816435Y501662D01*
X816503Y501568D01*
X816587Y501484D01*
X816686Y501412D01*
X816800Y501352D01*
X816929Y501302D01*
X817073Y501263D01*
X817107Y501257D01*
X817142Y501263D01*
X817286Y501302D01*
X817415Y501352D01*
X817529Y501412D01*
X817628Y501484D01*
X817711Y501568D01*
X817780Y501662D01*
X817833Y501767D01*
Y499478D01*
D02*
G37*
G36*
X841326Y497552D02*
X841304Y497664D01*
X841260Y497764D01*
X841194Y497853D01*
X841107Y497930D01*
X840999Y497995D01*
X840869Y498048D01*
X840717Y498089D01*
X840544Y498119D01*
X840349Y498136D01*
X840133Y498142D01*
Y499323D01*
X840358Y499329D01*
X840559Y499347D01*
X840736Y499377D01*
X840889Y499418D01*
X841019Y499471D01*
X841125Y499536D01*
X841208Y499613D01*
X841267Y499701D01*
X841303Y499802D01*
X841314Y499914D01*
X841326Y497552D01*
D02*
G37*
G36*
X838373Y499802D02*
X838408Y499701D01*
X838468Y499613D01*
X838550Y499536D01*
X838657Y499471D01*
X838787Y499418D01*
X838940Y499377D01*
X839117Y499347D01*
X839318Y499329D01*
X839542Y499323D01*
Y498142D01*
X839318Y498136D01*
X839117Y498119D01*
X838940Y498089D01*
X838787Y498048D01*
X838657Y497995D01*
X838550Y497930D01*
X838468Y497853D01*
X838408Y497764D01*
X838373Y497664D01*
X838361Y497552D01*
Y499914D01*
X838373Y499802D01*
D02*
G37*
G36*
X816421Y497978D02*
X816467Y497446D01*
X816494Y497316D01*
X816527Y497210D01*
X816567Y497127D01*
X816612Y497068D01*
X816664Y497033D01*
X816722Y497021D01*
X814647D01*
X814759Y497033D01*
X814859Y497068D01*
X814948Y497127D01*
X815025Y497210D01*
X815090Y497316D01*
X815143Y497446D01*
X815184Y497600D01*
X815214Y497777D01*
X815231Y497978D01*
X815237Y498202D01*
X816418D01*
X816421Y497978D01*
D02*
G37*
G36*
X838263Y497513D02*
X838174Y497477D01*
X838096Y497418D01*
X838029Y497335D01*
X837972Y497229D01*
X837925Y497099D01*
X837889Y496946D01*
X837863Y496769D01*
X837847Y496568D01*
X837842Y496343D01*
X836661D01*
X836656Y496568D01*
X836640Y496769D01*
X836614Y496946D01*
X836578Y497099D01*
X836531Y497229D01*
X836474Y497335D01*
X836406Y497418D01*
X836328Y497477D01*
X836240Y497513D01*
X836141Y497524D01*
X838361D01*
X838263Y497513D01*
D02*
G37*
G36*
X816610Y494789D02*
X816511Y494754D01*
X816471Y494727D01*
X816726D01*
X816614Y494715D01*
X816514Y494680D01*
X816425Y494621D01*
X816348Y494538D01*
X816283Y494432D01*
X816230Y494302D01*
X816189Y494148D01*
X816159Y493971D01*
X816142Y493771D01*
X816139Y493667D01*
X816173Y493150D01*
X816194Y493020D01*
X816219Y492913D01*
X816249Y492831D01*
X816284Y492771D01*
X816323Y492736D01*
X816367Y492724D01*
X814364D01*
X814476Y492736D01*
X814577Y492771D01*
X814665Y492831D01*
X814742Y492913D01*
X814807Y493020D01*
X814860Y493150D01*
X814902Y493303D01*
X814931Y493480D01*
X814949Y493681D01*
X814950Y493726D01*
X814949Y493771D01*
X814931Y493971D01*
X814902Y494148D01*
X814860Y494302D01*
X814807Y494432D01*
X814742Y494538D01*
X814665Y494621D01*
X814577Y494680D01*
X814476Y494715D01*
X814364Y494727D01*
X814616D01*
X814577Y494754D01*
X814476Y494789D01*
X814364Y494801D01*
X816722D01*
X816610Y494789D01*
D02*
G37*
G36*
X815984Y490492D02*
X815884Y490457D01*
X815795Y490398D01*
X815718Y490315D01*
X815654Y490209D01*
X815600Y490079D01*
X815559Y489925D01*
X815530Y489748D01*
X815512Y489547D01*
X815506Y489336D01*
X815512Y489124D01*
X815530Y488923D01*
X815559Y488746D01*
X815600Y488592D01*
X815654Y488462D01*
X815718Y488356D01*
X815795Y488273D01*
X815884Y488214D01*
X815984Y488179D01*
X816096Y488167D01*
X813734D01*
X813846Y488179D01*
X813947Y488214D01*
X814035Y488273D01*
X814112Y488356D01*
X814177Y488462D01*
X814230Y488592D01*
X814272Y488746D01*
X814301Y488923D01*
X814319Y489124D01*
X814324Y489338D01*
X814321Y489547D01*
X814291Y489925D01*
X814265Y490079D01*
X814231Y490209D01*
X814190Y490315D01*
X814141Y490398D01*
X814085Y490457D01*
X814021Y490492D01*
X813950Y490504D01*
X816096D01*
X815984Y490492D01*
D02*
G37*
G36*
Y484242D02*
X815884Y484207D01*
X815795Y484148D01*
X815718Y484065D01*
X815654Y483959D01*
X815600Y483829D01*
X815559Y483675D01*
X815530Y483498D01*
X815512Y483297D01*
X815506Y483080D01*
X815512Y482863D01*
X815530Y482662D01*
X815559Y482485D01*
X815600Y482331D01*
X815654Y482201D01*
X815718Y482095D01*
X815795Y482012D01*
X815884Y481953D01*
X815984Y481918D01*
X816096Y481906D01*
X813734D01*
X813846Y481918D01*
X813947Y481953D01*
X814035Y482012D01*
X814112Y482095D01*
X814177Y482201D01*
X814230Y482331D01*
X814272Y482485D01*
X814301Y482662D01*
X814319Y482863D01*
X814325Y483080D01*
X814319Y483297D01*
X814301Y483498D01*
X814272Y483675D01*
X814230Y483829D01*
X814177Y483959D01*
X814112Y484065D01*
X814035Y484148D01*
X813947Y484207D01*
X813846Y484242D01*
X813734Y484254D01*
X816096D01*
X815984Y484242D01*
D02*
G37*
G36*
X817175Y479595D02*
X817200Y479428D01*
X817242Y479261D01*
X817301Y479094D01*
X817376Y478927D01*
X817468Y478759D01*
X817576Y478592D01*
X817702Y478425D01*
X817844Y478258D01*
X818002Y478091D01*
X817266Y477158D01*
X817099Y477316D01*
X816932Y477458D01*
X816764Y477584D01*
X816597Y477692D01*
X816430Y477784D01*
X816263Y477859D01*
X816096Y477918D01*
X815929Y477959D01*
X815762Y477985D01*
X815595Y477993D01*
X817167Y479762D01*
X817175Y479595D01*
D02*
G37*
%LPC*%
G36*
X1156400Y562583D02*
X1155411Y562453D01*
X1154490Y562071D01*
X1153699Y561464D01*
X1153092Y560673D01*
X1152710Y559752D01*
X1152580Y558763D01*
X1152710Y557774D01*
X1153092Y556853D01*
X1153699Y556062D01*
X1154490Y555455D01*
X1155411Y555073D01*
X1156400Y554943D01*
X1157389Y555073D01*
X1158310Y555455D01*
X1159101Y556062D01*
X1159708Y556853D01*
X1160090Y557774D01*
X1160220Y558763D01*
X1160090Y559752D01*
X1159708Y560673D01*
X1159101Y561464D01*
X1158310Y562071D01*
X1157389Y562453D01*
X1156400Y562583D01*
D02*
G37*
G36*
X996400D02*
X995411Y562453D01*
X994490Y562071D01*
X993699Y561464D01*
X993092Y560673D01*
X992710Y559752D01*
X992580Y558763D01*
X992710Y557774D01*
X993092Y556853D01*
X993699Y556062D01*
X994490Y555455D01*
X995411Y555073D01*
X996400Y554943D01*
X996529Y554960D01*
X996866Y554958D01*
X997637Y554914D01*
X997947Y554876D01*
X998223Y554826D01*
X998454Y554768D01*
X998641Y554705D01*
X998780Y554642D01*
X998874Y554585D01*
X998885Y554575D01*
X1001474Y551986D01*
Y546073D01*
X1000405Y545004D01*
X999016D01*
X998748Y545791D01*
X999101Y546062D01*
X999708Y546853D01*
X1000090Y547774D01*
X1000220Y548763D01*
X1000090Y549752D01*
X999708Y550673D01*
X999101Y551464D01*
X998310Y552071D01*
X997389Y552453D01*
X996400Y552583D01*
X995411Y552453D01*
X994490Y552071D01*
X993699Y551464D01*
X993620Y551361D01*
X993380Y551124D01*
X992804Y550610D01*
X992558Y550418D01*
X992327Y550258D01*
X992122Y550135D01*
X991946Y550048D01*
X991803Y549994D01*
X991696Y549968D01*
X991682Y549967D01*
X987437D01*
X986976Y549876D01*
X986586Y549614D01*
X982719Y545748D01*
X982458Y545358D01*
X982367Y544897D01*
X982367Y544897D01*
Y528799D01*
X946323Y492755D01*
X856764D01*
X854052Y495467D01*
X853908Y496251D01*
X854344Y496902D01*
X854496Y497670D01*
Y501016D01*
X854344Y501784D01*
X853908Y502436D01*
X853257Y502871D01*
X852489Y503023D01*
X851721Y502871D01*
X851070Y502436D01*
X850635Y501784D01*
X850482Y501016D01*
Y497670D01*
X850635Y496902D01*
X851070Y496251D01*
X851220Y496150D01*
X851223Y496146D01*
X851235Y496126D01*
X851247Y496097D01*
X851260Y496058D01*
X851273Y496007D01*
X851283Y495944D01*
X851285Y495921D01*
Y495327D01*
X851285Y495327D01*
X851377Y494866D01*
X851638Y494476D01*
X855414Y490700D01*
X855414Y490700D01*
X855804Y490439D01*
X856265Y490347D01*
X856265Y490347D01*
X946821D01*
X946821Y490347D01*
X947282Y490439D01*
X947673Y490700D01*
X984422Y527449D01*
X984422Y527449D01*
X984684Y527840D01*
X984775Y528301D01*
Y544398D01*
X987936Y547559D01*
X991682D01*
X991696Y547557D01*
X991803Y547532D01*
X991946Y547478D01*
X992122Y547391D01*
X992327Y547268D01*
X992542Y547119D01*
X993386Y546396D01*
X993620Y546165D01*
X993699Y546062D01*
X994052Y545791D01*
X993785Y545004D01*
X992219D01*
X992219Y545004D01*
X991758Y544912D01*
X991367Y544651D01*
X991367Y544651D01*
X987219Y540503D01*
X986958Y540112D01*
X986867Y539652D01*
X986867Y539652D01*
Y526976D01*
X948948Y489057D01*
X854855D01*
X848693Y495219D01*
Y495921D01*
X848696Y495944D01*
X848706Y496007D01*
X848718Y496058D01*
X848731Y496097D01*
X848744Y496126D01*
X848755Y496146D01*
X848758Y496150D01*
X848908Y496251D01*
X849343Y496902D01*
X849496Y497670D01*
Y501016D01*
X849343Y501784D01*
X848908Y502436D01*
X848257Y502871D01*
X847489Y503023D01*
X846721Y502871D01*
X846070Y502436D01*
X845635Y501784D01*
X845482Y501016D01*
Y497670D01*
X845635Y496902D01*
X846070Y496251D01*
X846220Y496150D01*
X846223Y496146D01*
X846235Y496126D01*
X846247Y496097D01*
X846260Y496058D01*
X846273Y496007D01*
X846283Y495944D01*
X846285Y495921D01*
Y494720D01*
X846285Y494720D01*
X846377Y494259D01*
X846638Y493868D01*
X853505Y487001D01*
X853505Y487001D01*
X853895Y486740D01*
X854356Y486648D01*
X949446D01*
X949446Y486648D01*
X949907Y486740D01*
X950298Y487001D01*
X988922Y525626D01*
X988922Y525626D01*
X989184Y526016D01*
X989275Y526477D01*
Y539153D01*
X992717Y542595D01*
X993879D01*
X994146Y541808D01*
X993699Y541464D01*
X993092Y540673D01*
X992710Y539752D01*
X992580Y538763D01*
X992710Y537774D01*
X993092Y536853D01*
X993699Y536062D01*
X994490Y535455D01*
X995411Y535073D01*
X996400Y534943D01*
X997389Y535073D01*
X998310Y535455D01*
X999101Y536062D01*
X999708Y536853D01*
X1000090Y537774D01*
X1000220Y538763D01*
X1000090Y539752D01*
X999708Y540673D01*
X999101Y541464D01*
X998654Y541808D01*
X998921Y542595D01*
X1000903D01*
X1000904Y542595D01*
X1001364Y542687D01*
X1001755Y542948D01*
X1003530Y544723D01*
X1003530Y544723D01*
X1003791Y545113D01*
X1003883Y545574D01*
Y552485D01*
X1003883Y552485D01*
X1003791Y552946D01*
X1003530Y553336D01*
X1003530Y553336D01*
X1000588Y556278D01*
X1000578Y556289D01*
X1000521Y556383D01*
X1000458Y556522D01*
X1000395Y556708D01*
X1000337Y556940D01*
X1000290Y557198D01*
X1000205Y558305D01*
X1000203Y558635D01*
X1000220Y558763D01*
X1000090Y559752D01*
X999708Y560673D01*
X999101Y561464D01*
X998310Y562071D01*
X997389Y562453D01*
X996400Y562583D01*
D02*
G37*
G36*
X1156400Y552583D02*
X1155411Y552453D01*
X1154490Y552071D01*
X1153699Y551464D01*
X1153092Y550673D01*
X1152710Y549752D01*
X1152580Y548763D01*
X1152710Y547774D01*
X1153092Y546853D01*
X1153699Y546062D01*
X1154490Y545455D01*
X1155411Y545073D01*
X1156400Y544943D01*
X1157389Y545073D01*
X1158310Y545455D01*
X1159101Y546062D01*
X1159708Y546853D01*
X1160090Y547774D01*
X1160220Y548763D01*
X1160090Y549752D01*
X1159708Y550673D01*
X1159101Y551464D01*
X1158310Y552071D01*
X1157389Y552453D01*
X1156400Y552583D01*
D02*
G37*
%LPD*%
G36*
X999402Y558272D02*
X999493Y557095D01*
X999551Y556772D01*
X999624Y556482D01*
X999710Y556226D01*
X999811Y556005D01*
X999926Y555818D01*
X1000054Y555666D01*
X999497Y555109D01*
X999345Y555237D01*
X999158Y555352D01*
X998936Y555453D01*
X998681Y555539D01*
X998391Y555612D01*
X998068Y555670D01*
X997709Y555714D01*
X996891Y555761D01*
X996430Y555763D01*
X999400Y558733D01*
X999402Y558272D01*
D02*
G37*
G36*
X994258Y546663D02*
X993930Y546987D01*
X993034Y547755D01*
X992763Y547943D01*
X992507Y548096D01*
X992266Y548216D01*
X992038Y548301D01*
X991825Y548352D01*
X991626Y548369D01*
Y549157D01*
X991825Y549174D01*
X992038Y549225D01*
X992266Y549310D01*
X992507Y549430D01*
X992763Y549583D01*
X993034Y549771D01*
X993318Y549993D01*
X993930Y550539D01*
X994258Y550863D01*
Y546663D01*
D02*
G37*
G36*
X853202Y496735D02*
X853135Y496659D01*
X853076Y496576D01*
X853025Y496485D01*
X852981Y496386D01*
X852946Y496280D01*
X852918Y496167D01*
X852899Y496045D01*
X852887Y495917D01*
X852883Y495780D01*
X852096D01*
X852092Y495917D01*
X852080Y496045D01*
X852060Y496167D01*
X852032Y496280D01*
X851997Y496386D01*
X851954Y496485D01*
X851903Y496576D01*
X851843Y496659D01*
X851777Y496735D01*
X851702Y496804D01*
X853277D01*
X853202Y496735D01*
D02*
G37*
G36*
X848202D02*
X848135Y496659D01*
X848076Y496576D01*
X848025Y496485D01*
X847981Y496386D01*
X847946Y496280D01*
X847918Y496167D01*
X847899Y496045D01*
X847887Y495917D01*
X847883Y495780D01*
X847095D01*
X847091Y495917D01*
X847080Y496045D01*
X847060Y496167D01*
X847033Y496280D01*
X846997Y496386D01*
X846954Y496485D01*
X846903Y496576D01*
X846844Y496659D01*
X846777Y496735D01*
X846702Y496804D01*
X848277D01*
X848202Y496735D01*
D02*
G37*
G36*
X1105936Y588317D02*
X1105928Y588392D01*
X1105904Y588459D01*
X1105865Y588518D01*
X1105810Y588569D01*
X1105739Y588613D01*
X1105652Y588648D01*
X1105550Y588676D01*
X1105432Y588695D01*
X1105431Y588695D01*
X1105431Y588695D01*
X1105313Y588676D01*
X1105211Y588648D01*
X1105124Y588613D01*
X1105053Y588569D01*
X1104998Y588518D01*
X1104959Y588459D01*
X1104935Y588392D01*
X1104927Y588317D01*
Y589892D01*
X1104935Y589817D01*
X1104959Y589750D01*
X1104998Y589691D01*
X1105053Y589640D01*
X1105124Y589597D01*
X1105211Y589562D01*
X1105313Y589534D01*
X1105431Y589514D01*
X1105431Y589514D01*
X1105432Y589514D01*
X1105550Y589534D01*
X1105652Y589562D01*
X1105739Y589597D01*
X1105810Y589640D01*
X1105865Y589691D01*
X1105904Y589750D01*
X1105928Y589817D01*
X1105936Y589892D01*
Y588317D01*
D02*
G37*
G36*
X1108495D02*
X1108487Y588392D01*
X1108463Y588459D01*
X1108424Y588518D01*
X1108369Y588569D01*
X1108298Y588613D01*
X1108211Y588648D01*
X1108109Y588676D01*
X1107991Y588695D01*
X1107991Y588695D01*
X1107990Y588695D01*
X1107872Y588676D01*
X1107770Y588648D01*
X1107683Y588613D01*
X1107612Y588569D01*
X1107557Y588518D01*
X1107518Y588459D01*
X1107494Y588392D01*
X1107486Y588317D01*
Y589892D01*
X1107494Y589817D01*
X1107518Y589750D01*
X1107557Y589691D01*
X1107612Y589640D01*
X1107683Y589597D01*
X1107770Y589562D01*
X1107872Y589534D01*
X1107990Y589514D01*
X1107991Y589514D01*
X1107991Y589514D01*
X1108109Y589534D01*
X1108211Y589562D01*
X1108298Y589597D01*
X1108369Y589640D01*
X1108424Y589691D01*
X1108463Y589750D01*
X1108487Y589817D01*
X1108495Y589892D01*
Y588317D01*
D02*
G37*
G36*
X1115224D02*
X1115216Y588392D01*
X1115193Y588459D01*
X1115153Y588518D01*
X1115098Y588569D01*
X1115027Y588613D01*
X1114940Y588648D01*
X1114838Y588676D01*
X1114720Y588695D01*
X1114586Y588707D01*
X1114437Y588711D01*
Y589499D01*
X1114586Y589502D01*
X1114720Y589514D01*
X1114838Y589534D01*
X1114940Y589562D01*
X1115027Y589597D01*
X1115098Y589640D01*
X1115153Y589691D01*
X1115193Y589750D01*
X1115216Y589817D01*
X1115224Y589892D01*
Y588317D01*
D02*
G37*
G36*
X1110053Y589817D02*
X1110077Y589750D01*
X1110116Y589691D01*
X1110172Y589640D01*
X1110242Y589597D01*
X1110329Y589562D01*
X1110431Y589534D01*
X1110549Y589514D01*
X1110683Y589502D01*
X1110833Y589499D01*
Y588711D01*
X1110683Y588707D01*
X1110549Y588695D01*
X1110431Y588676D01*
X1110329Y588648D01*
X1110242Y588613D01*
X1110172Y588569D01*
X1110116Y588518D01*
X1110077Y588459D01*
X1110053Y588392D01*
X1110046Y588317D01*
Y589892D01*
X1110053Y589817D01*
D02*
G37*
G36*
X983670Y603651D02*
X983722Y603613D01*
X983779Y603579D01*
X983841Y603549D01*
X983908Y603524D01*
X983979Y603504D01*
X984056Y603488D01*
X984138Y603477D01*
X984224Y603470D01*
X984316Y603468D01*
Y602680D01*
X984224Y602678D01*
X984138Y602671D01*
X984056Y602660D01*
X983979Y602644D01*
X983908Y602624D01*
X983841Y602599D01*
X983779Y602569D01*
X983722Y602535D01*
X983670Y602497D01*
X983624Y602454D01*
Y603694D01*
X983670Y603651D01*
D02*
G37*
G36*
X1007693Y585487D02*
X1007759Y585430D01*
X1007825Y585380D01*
X1007890Y585337D01*
X1007955Y585301D01*
X1008020Y585271D01*
X1008084Y585248D01*
X1008149Y585232D01*
X1008212Y585223D01*
X1008276Y585220D01*
X1007399Y584343D01*
X1007396Y584407D01*
X1007387Y584471D01*
X1007371Y584535D01*
X1007348Y584599D01*
X1007318Y584664D01*
X1007282Y584729D01*
X1007239Y584795D01*
X1007189Y584860D01*
X1007133Y584927D01*
X1007069Y584993D01*
X1007626Y585550D01*
X1007693Y585487D01*
D02*
G37*
G36*
X767913Y741070D02*
X767453Y741068D01*
X766276Y740977D01*
X765952Y740919D01*
X765662Y740846D01*
X765407Y740760D01*
X765186Y740659D01*
X764999Y740545D01*
X764846Y740416D01*
X764289Y740973D01*
X764418Y741125D01*
X764532Y741313D01*
X764633Y741534D01*
X764719Y741789D01*
X764792Y742079D01*
X764850Y742403D01*
X764895Y742761D01*
X764941Y743579D01*
X764944Y744040D01*
X767913Y741070D01*
D02*
G37*
G36*
X772322Y732072D02*
X771874Y731406D01*
X771698Y731557D01*
X771502Y731673D01*
X771288Y731755D01*
X771055Y731803D01*
X770802Y731817D01*
X770532Y731797D01*
X770242Y731742D01*
X769934Y731654D01*
X769606Y731531D01*
X769260Y731375D01*
X770684Y735291D01*
X772322Y732072D01*
D02*
G37*
G36*
X884919Y731631D02*
X884925Y731567D01*
X884938Y731502D01*
X884958Y731438D01*
X884986Y731373D01*
X885020Y731307D01*
X885062Y731242D01*
X885110Y731176D01*
X885166Y731110D01*
X885230Y731043D01*
X884631Y730528D01*
X884564Y730592D01*
X884433Y730699D01*
X884368Y730744D01*
X884303Y730782D01*
X884239Y730814D01*
X884175Y730840D01*
X884112Y730859D01*
X884049Y730872D01*
X883986Y730879D01*
X884921Y731694D01*
X884919Y731631D01*
D02*
G37*
G36*
X884790Y672050D02*
X884778Y672047D01*
X884760Y672036D01*
X884735Y672017D01*
X884665Y671957D01*
X884445Y671747D01*
X884373Y671676D01*
X883538Y672511D01*
X883913Y672927D01*
X884790Y672050D01*
D02*
G37*
G36*
X858374Y576643D02*
X858327Y576686D01*
X858276Y576724D01*
X858219Y576758D01*
X858157Y576788D01*
X858090Y576813D01*
X858018Y576833D01*
X857942Y576849D01*
X857860Y576860D01*
X857773Y576867D01*
X857682Y576869D01*
Y577657D01*
X857773Y577659D01*
X857860Y577666D01*
X857942Y577677D01*
X858018Y577693D01*
X858090Y577713D01*
X858157Y577738D01*
X858219Y577768D01*
X858276Y577802D01*
X858327Y577840D01*
X858374Y577883D01*
Y576643D01*
D02*
G37*
G36*
X837649Y553454D02*
X837661Y553320D01*
X837680Y553202D01*
X837708Y553100D01*
X837743Y553013D01*
X837787Y552942D01*
X837838Y552887D01*
X837897Y552848D01*
X837964Y552824D01*
X838039Y552816D01*
X836464D01*
X836539Y552824D01*
X836606Y552848D01*
X836665Y552887D01*
X836716Y552942D01*
X836759Y553013D01*
X836794Y553100D01*
X836822Y553202D01*
X836842Y553320D01*
X836854Y553454D01*
X836858Y553604D01*
X837645D01*
X837649Y553454D01*
D02*
G37*
G36*
X837964Y550588D02*
X837897Y550565D01*
X837838Y550525D01*
X837787Y550470D01*
X837743Y550399D01*
X837708Y550313D01*
X837680Y550210D01*
X837661Y550092D01*
X837649Y549958D01*
X837645Y549809D01*
X836858D01*
X836854Y549958D01*
X836842Y550092D01*
X836822Y550210D01*
X836794Y550313D01*
X836759Y550399D01*
X836716Y550470D01*
X836665Y550525D01*
X836606Y550565D01*
X836539Y550588D01*
X836464Y550596D01*
X838039D01*
X837964Y550588D01*
D02*
G37*
G36*
X834517Y550584D02*
X834417Y550549D01*
X834328Y550490D01*
X834252Y550407D01*
X834187Y550301D01*
X834134Y550171D01*
X834092Y550017D01*
X834063Y549840D01*
X834045Y549640D01*
X834039Y549415D01*
X832858D01*
X832852Y549640D01*
X832834Y549840D01*
X832805Y550017D01*
X832764Y550171D01*
X832710Y550301D01*
X832645Y550407D01*
X832569Y550490D01*
X832480Y550549D01*
X832380Y550584D01*
X832267Y550596D01*
X834630D01*
X834517Y550584D01*
D02*
G37*
G36*
X840671Y548778D02*
X840682Y548644D01*
X840702Y548526D01*
X840730Y548424D01*
X840765Y548337D01*
X840808Y548266D01*
X840860Y548211D01*
X840919Y548172D01*
X840986Y548148D01*
X841060Y548140D01*
X839486D01*
X839560Y548148D01*
X839627Y548172D01*
X839686Y548211D01*
X839738Y548266D01*
X839781Y548337D01*
X839816Y548424D01*
X839844Y548526D01*
X839863Y548644D01*
X839875Y548778D01*
X839879Y548928D01*
X840667D01*
X840671Y548778D01*
D02*
G37*
G36*
X845273Y548042D02*
X845308Y547953D01*
X845367Y547875D01*
X845450Y547808D01*
X845556Y547751D01*
X845686Y547704D01*
X845840Y547668D01*
X846017Y547642D01*
X846218Y547626D01*
X846442Y547621D01*
Y546440D01*
X846218Y546435D01*
X846017Y546419D01*
X845840Y546393D01*
X845686Y546357D01*
X845556Y546310D01*
X845450Y546253D01*
X845367Y546185D01*
X845308Y546107D01*
X845273Y546019D01*
X845261Y545920D01*
Y548140D01*
X845273Y548042D01*
D02*
G37*
G36*
X840986Y545913D02*
X840919Y545889D01*
X840860Y545850D01*
X840808Y545794D01*
X840765Y545723D01*
X840730Y545637D01*
X840702Y545535D01*
X840682Y545416D01*
X840671Y545283D01*
X840667Y545133D01*
X839879D01*
X839875Y545283D01*
X839863Y545416D01*
X839844Y545535D01*
X839816Y545637D01*
X839781Y545723D01*
X839738Y545794D01*
X839686Y545850D01*
X839627Y545889D01*
X839560Y545913D01*
X839486Y545920D01*
X841060D01*
X840986Y545913D01*
D02*
G37*
G36*
X853405Y534653D02*
X852528Y533776D01*
X852524Y533787D01*
X852513Y533806D01*
X852495Y533830D01*
X852435Y533900D01*
X852225Y534120D01*
X852154Y534192D01*
X852989Y535027D01*
X853405Y534653D01*
D02*
G37*
G36*
X841116Y533111D02*
X840239Y532234D01*
X840235Y532245D01*
X840224Y532263D01*
X840205Y532288D01*
X840145Y532358D01*
X839935Y532578D01*
X839864Y532650D01*
X840699Y533485D01*
X841116Y533111D01*
D02*
G37*
G36*
X842004Y532086D02*
X842013Y532063D01*
X842031Y532033D01*
X842055Y531998D01*
X842088Y531957D01*
X842231Y531796D01*
X842366Y531659D01*
X841383Y530971D01*
X841020Y531345D01*
X842002Y532103D01*
X842004Y532086D01*
D02*
G37*
G36*
X843035Y530251D02*
X843053Y530050D01*
X843082Y529873D01*
X843124Y529719D01*
X843177Y529589D01*
X843242Y529483D01*
X843319Y529400D01*
X843407Y529341D01*
X843508Y529306D01*
X843620Y529294D01*
X841258D01*
X841370Y529306D01*
X841470Y529341D01*
X841559Y529400D01*
X841636Y529483D01*
X841700Y529589D01*
X841754Y529719D01*
X841795Y529873D01*
X841825Y530050D01*
X841842Y530251D01*
X841848Y530475D01*
X843029D01*
X843035Y530251D01*
D02*
G37*
G36*
X843539Y527062D02*
X843443Y527027D01*
X843358Y526968D01*
X843284Y526885D01*
X843222Y526779D01*
X843171Y526649D01*
X843131Y526495D01*
X843102Y526318D01*
X843085Y526117D01*
X843080Y525893D01*
X841899D01*
X841893Y526117D01*
X841875Y526318D01*
X841846Y526495D01*
X841804Y526649D01*
X841751Y526779D01*
X841686Y526885D01*
X841609Y526968D01*
X841521Y527027D01*
X841420Y527062D01*
X841308Y527074D01*
X843647D01*
X843539Y527062D01*
D02*
G37*
G36*
X852887Y524226D02*
X852899Y524098D01*
X852918Y523977D01*
X852946Y523863D01*
X852981Y523757D01*
X853025Y523658D01*
X853076Y523567D01*
X853135Y523484D01*
X853202Y523408D01*
X853277Y523339D01*
X851702D01*
X851777Y523408D01*
X851843Y523484D01*
X851903Y523567D01*
X851954Y523658D01*
X851997Y523757D01*
X852032Y523863D01*
X852060Y523977D01*
X852080Y524098D01*
X852092Y524226D01*
X852096Y524363D01*
X852883D01*
X852887Y524226D01*
D02*
G37*
G36*
X847887D02*
X847899Y524098D01*
X847918Y523977D01*
X847946Y523863D01*
X847981Y523757D01*
X848025Y523658D01*
X848076Y523567D01*
X848135Y523484D01*
X848202Y523408D01*
X848277Y523339D01*
X846702D01*
X846777Y523408D01*
X846844Y523484D01*
X846903Y523567D01*
X846954Y523658D01*
X846997Y523757D01*
X847033Y523863D01*
X847060Y523977D01*
X847080Y524098D01*
X847091Y524226D01*
X847095Y524363D01*
X847883D01*
X847887Y524226D01*
D02*
G37*
G36*
X843084Y524457D02*
X843114Y524077D01*
X843141Y523905D01*
X843176Y523746D01*
X843219Y523598D01*
X843269Y523462D01*
X843327Y523338D01*
X843393Y523226D01*
X843466Y523126D01*
X841512D01*
X841586Y523226D01*
X841651Y523338D01*
X841709Y523462D01*
X841760Y523598D01*
X841802Y523746D01*
X841837Y523905D01*
X841864Y524077D01*
X841895Y524457D01*
X841899Y524664D01*
X843080D01*
X843084Y524457D01*
D02*
G37*
G36*
X787198Y592422D02*
X787135Y592424D01*
X787071Y592419D01*
X787007Y592407D01*
X786942Y592387D01*
X786877Y592360D01*
X786812Y592326D01*
X786746Y592285D01*
X786680Y592236D01*
X786614Y592180D01*
X786547Y592117D01*
X786042Y592725D01*
X786105Y592791D01*
X786213Y592922D01*
X786258Y592987D01*
X786296Y593052D01*
X786329Y593116D01*
X786355Y593179D01*
X786375Y593243D01*
X786388Y593305D01*
X786396Y593368D01*
X787198Y592422D01*
D02*
G37*
G36*
X771597Y577168D02*
X771469Y577015D01*
X771354Y576828D01*
X771254Y576607D01*
X771167Y576351D01*
X771095Y576062D01*
X771036Y575738D01*
X770992Y575380D01*
X770945Y574561D01*
X770943Y574100D01*
X767973Y577070D01*
X768434Y577072D01*
X769611Y577163D01*
X769935Y577222D01*
X770224Y577294D01*
X770480Y577381D01*
X770701Y577481D01*
X770888Y577596D01*
X771041Y577724D01*
X771597Y577168D01*
D02*
G37*
G36*
X809066Y537740D02*
X809090Y537473D01*
X809129Y537236D01*
X809184Y537032D01*
X809255Y536859D01*
X809342Y536717D01*
X809444Y536607D01*
X809562Y536528D01*
X809696Y536481D01*
X809846Y536465D01*
X806696D01*
X806846Y536481D01*
X806979Y536528D01*
X807098Y536607D01*
X807200Y536717D01*
X807286Y536859D01*
X807357Y537032D01*
X807413Y537236D01*
X807452Y537473D01*
X807475Y537740D01*
X807483Y538040D01*
X809058D01*
X809066Y537740D01*
D02*
G37*
G36*
X809486Y532536D02*
X809352Y532489D01*
X809234Y532410D01*
X809132Y532300D01*
X809045Y532158D01*
X808975Y531985D01*
X808920Y531780D01*
X808880Y531544D01*
X808856Y531276D01*
X808849Y530977D01*
X807274D01*
X807266Y531276D01*
X807242Y531544D01*
X807203Y531780D01*
X807148Y531985D01*
X807077Y532158D01*
X806990Y532300D01*
X806888Y532410D01*
X806770Y532489D01*
X806636Y532536D01*
X806486Y532552D01*
X809636D01*
X809486Y532536D01*
D02*
G37*
G36*
X809566Y527759D02*
X809433Y527712D01*
X809315Y527633D01*
X809213Y527523D01*
X809127Y527382D01*
X809056Y527208D01*
X809001Y527003D01*
X808962Y526767D01*
X808952Y526649D01*
X808969Y526393D01*
X808999Y526188D01*
X809037Y526015D01*
X809083Y525873D01*
X809139Y525763D01*
X809202Y525684D01*
X809275Y525637D01*
X809355Y525621D01*
X806938D01*
X807018Y525637D01*
X807089Y525684D01*
X807151Y525763D01*
X807206Y525873D01*
X807251Y526015D01*
X807289Y526188D01*
X807318Y526393D01*
X807339Y526629D01*
X807339Y526643D01*
X807298Y527775D01*
X809715D01*
X809566Y527759D01*
D02*
G37*
G36*
X809275Y523385D02*
X809204Y523338D01*
X809141Y523259D01*
X809086Y523149D01*
X809040Y523007D01*
X809002Y522834D01*
X808972Y522629D01*
X808951Y522393D01*
X808934Y521826D01*
X807360D01*
X807355Y522125D01*
X807322Y522629D01*
X807292Y522834D01*
X807254Y523007D01*
X807208Y523149D01*
X807153Y523259D01*
X807090Y523338D01*
X807018Y523385D01*
X806938Y523401D01*
X809355D01*
X809275Y523385D01*
D02*
G37*
G36*
X807597Y520310D02*
X807754Y520308D01*
Y518733D01*
X807597Y518731D01*
Y518376D01*
X807554Y518444D01*
X807485Y518504D01*
X807390Y518558D01*
X807269Y518604D01*
X807121Y518644D01*
X806947Y518676D01*
X806888Y518683D01*
X806795Y518676D01*
X806621Y518644D01*
X806474Y518604D01*
X806352Y518558D01*
X806257Y518504D01*
X806188Y518444D01*
X806145Y518376D01*
Y518731D01*
X805989Y518733D01*
Y520308D01*
X806145Y520310D01*
Y520665D01*
X806188Y520597D01*
X806257Y520536D01*
X806352Y520482D01*
X806474Y520436D01*
X806621Y520397D01*
X806795Y520365D01*
X806854Y520357D01*
X806947Y520365D01*
X807121Y520397D01*
X807269Y520436D01*
X807390Y520482D01*
X807485Y520536D01*
X807554Y520597D01*
X807597Y520665D01*
Y520310D01*
D02*
G37*
G36*
X870465Y562340D02*
X870517Y562302D01*
X870574Y562268D01*
X870636Y562238D01*
X870703Y562213D01*
X870774Y562193D01*
X870851Y562177D01*
X870933Y562166D01*
X871019Y562159D01*
X871111Y562157D01*
Y561369D01*
X871019Y561367D01*
X870933Y561360D01*
X870851Y561349D01*
X870774Y561333D01*
X870703Y561313D01*
X870636Y561288D01*
X870574Y561258D01*
X870517Y561224D01*
X870465Y561186D01*
X870419Y561143D01*
Y562383D01*
X870465Y562340D01*
D02*
G37*
G36*
X943069Y510523D02*
X943076Y510436D01*
X943087Y510355D01*
X943103Y510278D01*
X943123Y510206D01*
X943148Y510140D01*
X943178Y510078D01*
X943212Y510021D01*
X943250Y509969D01*
X943293Y509922D01*
X942053D01*
X942096Y509969D01*
X942134Y510021D01*
X942168Y510078D01*
X942198Y510140D01*
X942223Y510206D01*
X942243Y510278D01*
X942259Y510355D01*
X942270Y510436D01*
X942277Y510523D01*
X942279Y510615D01*
X943067D01*
X943069Y510523D01*
D02*
G37*
G36*
X1125183Y473000D02*
X1124306Y471986D01*
X1124092Y471683D01*
X1123917Y471397D01*
X1123780Y471130D01*
X1123683Y470880D01*
X1123624Y470647D01*
X1123605Y470432D01*
X1122817D01*
X1122798Y470647D01*
X1122739Y470880D01*
X1122642Y471130D01*
X1122505Y471397D01*
X1122330Y471683D01*
X1122116Y471986D01*
X1121862Y472306D01*
X1121239Y473000D01*
X1120868Y473373D01*
X1125554D01*
X1125183Y473000D01*
D02*
G37*
G36*
X980434Y465316D02*
X980396Y465264D01*
X980362Y465207D01*
X980332Y465146D01*
X980307Y465079D01*
X980287Y465007D01*
X980271Y464930D01*
X980260Y464849D01*
X980253Y464762D01*
X980251Y464671D01*
X979463D01*
X979461Y464762D01*
X979454Y464849D01*
X979443Y464930D01*
X979427Y465007D01*
X979407Y465079D01*
X979382Y465146D01*
X979352Y465207D01*
X979318Y465264D01*
X979280Y465316D01*
X979237Y465363D01*
X980477D01*
X980434Y465316D01*
D02*
G37*
G36*
X989334Y464740D02*
X989344Y464676D01*
X989360Y464612D01*
X989383Y464547D01*
X989413Y464482D01*
X989449Y464417D01*
X989492Y464352D01*
X989542Y464286D01*
X989598Y464220D01*
X989661Y464154D01*
X989104Y463597D01*
X989038Y463660D01*
X988972Y463717D01*
X988906Y463766D01*
X988841Y463809D01*
X988776Y463846D01*
X988711Y463875D01*
X988647Y463898D01*
X988582Y463914D01*
X988518Y463924D01*
X988455Y463927D01*
X989332Y464803D01*
X989334Y464740D01*
D02*
G37*
G36*
X1052390Y445191D02*
X1052343Y445234D01*
X1052292Y445272D01*
X1052235Y445306D01*
X1052173Y445336D01*
X1052106Y445361D01*
X1052034Y445381D01*
X1051958Y445397D01*
X1051876Y445408D01*
X1051789Y445415D01*
X1051698Y445417D01*
Y446205D01*
X1051789Y446207D01*
X1051876Y446213D01*
X1051958Y446225D01*
X1052034Y446241D01*
X1052106Y446261D01*
X1052173Y446286D01*
X1052235Y446315D01*
X1052292Y446349D01*
X1052343Y446388D01*
X1052390Y446431D01*
Y445191D01*
D02*
G37*
G36*
G01X810710Y519520D02*
G01X812678D01*
G01Y520583D01*
G02X812796Y520701I118J0D01*
G01X813741D01*
G02X813859Y520583I0J-118D01*
G01Y519520D01*
G01X815828D01*
G01Y518339D01*
G01X810710D01*
G01Y519520D01*
D02*
G37*
G36*
G01X808151Y500623D02*
G01X810119D01*
G01Y499560D01*
G03X810237Y499441I118J0D01*
G01X811182D01*
G03X811300Y499560I0J118D01*
G01Y500623D01*
G01X813269D01*
G01Y501804D01*
G01X808151D01*
G01Y500623D01*
D02*
G37*
D11*
X996400Y558763D02*
X1002678Y552485D01*
Y545574D02*
Y552485D01*
X1000904Y543799D02*
X1002678Y545574D01*
X949446Y487853D02*
X988071Y526477D01*
Y539652D01*
X992219Y543799D01*
X982991Y603074D02*
X989545D01*
X1008285Y584334D01*
X854356Y487853D02*
X949446D01*
X847489Y494720D02*
X854356Y487853D01*
X847489Y494720D02*
Y499343D01*
X856265Y491551D02*
X946821D01*
X852489Y495327D02*
Y499343D01*
Y495327D02*
X856265Y491551D01*
X946821D02*
X983571Y528301D01*
Y544897D01*
X987437Y548763D01*
X996400D01*
X992219Y543799D02*
X1000904D01*
X869786Y561763D02*
X915168D01*
X942673Y534258D01*
Y509290D02*
Y534258D01*
X844325Y565763D02*
X927940D01*
X934141Y571965D01*
X823636Y586452D02*
X844325Y565763D01*
X925133Y568328D02*
X932568Y575763D01*
X847132Y568328D02*
X925133D01*
X825333Y590126D02*
X847132Y568328D01*
X922354Y570760D02*
X931042Y579448D01*
X849910Y570760D02*
X922354D01*
X827180Y593491D02*
X849910Y570760D01*
X846670Y586770D02*
Y612128D01*
X887295Y652753D01*
X884038Y731678D02*
X887295Y728421D01*
Y708751D02*
Y728421D01*
X886937Y706681D02*
Y708393D01*
X887295Y652753D02*
Y706323D01*
X886937Y706681D02*
X887295Y706323D01*
X886937Y708393D02*
X887295Y708751D01*
X884038Y731678D02*
Y731763D01*
X870884Y699145D02*
Y728310D01*
Y699145D02*
X874821Y695208D01*
X1123211Y469952D02*
Y475763D01*
Y469952D02*
X1128400Y464763D01*
Y454763D02*
Y464763D01*
X979857Y453685D02*
Y465996D01*
X990684Y442858D02*
X1116495D01*
X979857Y453685D02*
X990684Y442858D01*
X1116495D02*
X1128400Y454763D01*
X933448Y630492D02*
X935694Y628246D01*
X940085D02*
X943265Y631426D01*
X935694Y628246D02*
X940085D01*
X890834Y630492D02*
X933448D01*
X869389Y609047D02*
X890834Y630492D01*
X865937Y619237D02*
X885813Y639113D01*
X927685D02*
X928651Y640080D01*
X885813Y639113D02*
X927685D01*
X852326Y609047D02*
X869389D01*
X864465Y619237D02*
X865937D01*
X815085Y491688D02*
X815158Y491614D01*
X840273Y547939D02*
Y557682D01*
Y546122D02*
Y547939D01*
X1109794Y760673D02*
Y761507D01*
X1107458Y750572D02*
Y758337D01*
X1109794Y761507D02*
X1112400Y764113D01*
X1107458Y758337D02*
X1109794Y760673D01*
X1103649Y746763D02*
X1107458Y750572D01*
X1102804Y754518D02*
Y757833D01*
X1107649Y762677D02*
Y791157D01*
X1102400Y754113D02*
X1102804Y754518D01*
Y757833D02*
X1107649Y762677D01*
X940010Y758303D02*
X966846D01*
X976290Y748679D02*
Y748860D01*
X966846Y758303D02*
X976290Y748860D01*
X768941Y733073D02*
X770765D01*
X782444Y615511D02*
Y721393D01*
X770765Y733073D02*
X782444Y721393D01*
X767943Y734070D02*
X768941Y733073D01*
X770762Y729294D02*
X779423Y720634D01*
X765259Y729294D02*
X770762D01*
X779423Y614259D02*
Y720634D01*
X762411Y738538D02*
X767943Y744070D01*
X762411Y732143D02*
Y738538D01*
Y732143D02*
X765259Y729294D01*
X782444Y615511D02*
X840273Y557682D01*
X852489Y520800D02*
Y529635D01*
X840273Y541851D02*
X852489Y529635D01*
X847489Y519194D02*
Y530361D01*
X837251Y540599D02*
X847489Y530361D01*
X929363Y637218D02*
X930554Y636027D01*
X886796Y637218D02*
X929363D01*
X868838Y619260D02*
X886796Y637218D01*
X868838Y617426D02*
Y619260D01*
X846670Y586770D02*
X856177Y577263D01*
X859007D01*
X900229Y757667D02*
Y760697D01*
Y757667D02*
X905595Y752300D01*
X933402D01*
X937054Y755952D01*
X965919D01*
X906307Y760439D02*
X913856Y767988D01*
X930325D01*
X940010Y758303D01*
X965919Y755952D02*
X973193Y748679D01*
X920384Y705818D02*
X928502D01*
X942477Y719794D01*
X833230Y729294D02*
X861085Y757149D01*
X889240D02*
X924470Y792379D01*
X861085Y757149D02*
X889240D01*
X832242Y731678D02*
X859819Y759255D01*
X887975D01*
X925168Y796449D01*
X988446Y464812D02*
X1001401Y451858D01*
X1013953D01*
X1020000Y445811D01*
X1053023D01*
X1124550Y630858D02*
X1134392D01*
X1124525Y630883D02*
X1124550Y630858D01*
X1105859Y630391D02*
Y630489D01*
X1106252Y630883D01*
X1118225D01*
X1124525Y622899D02*
Y630883D01*
X1122529Y620903D02*
X1124525Y622899D01*
X1122529Y620804D02*
Y620903D01*
X1121801Y620076D02*
X1122529Y620804D01*
X1121702Y620076D02*
X1121801D01*
X1110977D02*
X1117922D01*
X1124134Y589857D02*
X1134392D01*
X1123381Y589105D02*
X1124134Y589857D01*
X1123381Y581894D02*
Y589105D01*
X1120862Y579374D02*
X1123381Y581894D01*
X1120862Y579276D02*
Y579374D01*
X1120133Y578548D02*
X1120862Y579276D01*
X1120035Y578548D02*
X1120133D01*
X1109512D02*
X1116255D01*
X1109270Y578790D02*
X1109512Y578548D01*
X1104152Y589105D02*
X1117082D01*
X1104152Y572172D02*
X1105000Y571325D01*
X1104152Y572172D02*
Y578790D01*
X1105000Y571219D02*
Y571325D01*
X1101593Y578790D02*
X1104152D01*
X1103300Y620076D02*
X1105859D01*
Y616079D02*
Y620076D01*
Y616079D02*
X1109175Y612763D01*
X855483Y764520D02*
Y796232D01*
X867014Y807763D02*
X1086069D01*
X855483Y796232D02*
X867014Y807763D01*
X857766Y763574D02*
Y794056D01*
X868473Y804763D02*
X1082133D01*
X857766Y794056D02*
X868473Y804763D01*
X840273Y541851D02*
Y546122D01*
X837251Y540599D02*
Y556431D01*
X779423Y614259D02*
X837251Y556431D01*
X1025836Y685763D02*
X1057836Y653763D01*
X1143663D02*
X1160400Y670500D01*
X1057836Y653763D02*
X1143663D01*
X1027362Y689448D02*
X1061047Y655763D01*
X1141632D02*
X1156715Y670846D01*
X1061047Y655763D02*
X1141632D01*
X1160400Y670500D02*
Y789763D01*
X1156715Y670846D02*
Y788237D01*
X1134834Y740140D02*
X1144400Y730574D01*
Y693800D02*
Y730574D01*
X941781Y636027D02*
X950038D01*
X937674Y631920D02*
X941781Y636027D01*
X950038D02*
X965333Y620731D01*
X920059Y695079D02*
Y695208D01*
Y695079D02*
X923067Y692070D01*
X980767D01*
X904250Y693098D02*
Y713111D01*
X904421Y713283D01*
X904250Y693098D02*
X923239Y674110D01*
X913023Y698248D02*
Y702763D01*
Y698248D02*
X922476Y688795D01*
X982124D01*
X910111Y696248D02*
X921038Y685321D01*
X910111Y696248D02*
Y700198D01*
X921038Y685321D02*
X983563Y685321D01*
X980767Y692070D02*
X992735Y704039D01*
X983563Y685321D02*
X995531Y697289D01*
X982124Y688795D02*
X994092Y700763D01*
X992735Y704039D02*
X1033379D01*
X995531Y697289D02*
X1030583D01*
X994092Y700763D02*
X1032022D01*
X1033379Y704039D02*
X1059379Y678039D01*
X1030583Y697289D02*
X1056583Y671289D01*
X1032022Y700763D02*
X1058022Y674763D01*
X1059379Y678039D02*
X1114886D01*
X1056583Y671289D02*
X1117681Y671289D01*
X1058022Y674763D02*
X1116243Y674763D01*
X1114886Y678039D02*
X1124886Y688039D01*
X1117681Y671289D02*
X1127681Y681289D01*
X1116243Y674763D02*
X1126243Y684763D01*
X1124886Y688039D02*
X1134006D01*
X1127681Y681289D02*
X1136802D01*
X1126243Y684763D02*
X1135363D01*
X1134006Y688039D02*
X1141124Y695157D01*
X1136802Y681289D02*
X1147874Y692361D01*
X1135363Y684763D02*
X1144400Y693800D01*
X1141124Y695157D02*
Y727881D01*
X1131454Y737551D02*
X1141124Y727881D01*
X1147874Y692361D02*
Y736289D01*
X1137546Y743039D02*
X1141124D01*
X1147874Y736289D01*
X787168Y593294D02*
X787371D01*
X1102400Y764113D02*
Y791120D01*
X1090729Y746763D02*
X1103649D01*
X1087400Y750092D02*
X1090729Y746763D01*
X1087400Y750092D02*
Y772263D01*
X1092400Y777263D01*
Y794496D01*
X1082133Y804763D02*
X1092400Y794496D01*
Y764113D02*
X1095892Y767605D01*
Y797940D01*
X925168Y796449D02*
X1037298D01*
X1086069Y807763D02*
X1095892Y797940D01*
X905767Y784763D02*
X911570Y790566D01*
X862790Y784763D02*
X905767D01*
X859880Y781853D02*
X862790Y784763D01*
X859880Y762699D02*
Y781853D01*
X924470Y792379D02*
X1079963D01*
X1084425Y787918D01*
X829430Y738468D02*
X855483Y764520D01*
X831252Y734070D02*
X859880Y762699D01*
X830376Y736184D02*
X857766Y763574D01*
X798341Y704574D02*
X823061Y729294D01*
X833230D01*
X786841Y718913D02*
X806396Y738468D01*
X829430D01*
X810746Y736184D02*
X830376D01*
X788534Y713972D02*
X810746Y736184D01*
X815730Y734070D02*
X831252D01*
X792234Y710574D02*
X815730Y734070D01*
X819418Y731678D02*
X832242D01*
X795400Y707661D02*
X819418Y731678D01*
X791376Y658605D02*
Y668546D01*
X868313Y745484D02*
X960589D01*
X791376Y668546D02*
X868313Y745484D01*
X797400Y645539D02*
Y666051D01*
X870809Y739460D02*
X958094D01*
X872133Y736263D02*
X956769D01*
X794400Y652630D02*
Y667294D01*
X788140Y665881D02*
Y669887D01*
X797400Y666051D02*
X870809Y739460D01*
X800597Y664727D02*
X872133Y736263D01*
X800597Y638172D02*
Y664727D01*
X794400Y667294D02*
X869566Y742460D01*
X959336D01*
X866973Y748720D02*
X961929D01*
X788140Y669887D02*
X866973Y748720D01*
X961929D02*
X967213Y743436D01*
X958094Y739460D02*
X963377Y734176D01*
X960589Y745484D02*
X965872Y740200D01*
X956769Y736263D02*
X962053Y730979D01*
X959336Y742460D02*
X964620Y737176D01*
X1107649Y791157D02*
X1113570Y797078D01*
X1102400Y791120D02*
X1112043Y800763D01*
X1113570Y797078D02*
X1147874D01*
X1112043Y800763D02*
X1149400D01*
X1147874Y797078D02*
X1156715Y788237D01*
X1149400Y800763D02*
X1160400Y789763D01*
X1007648Y689448D02*
X1027362D01*
X1009174Y685763D02*
X1025836D01*
X984602Y661191D02*
X1009174Y685763D01*
X980917Y662717D02*
X1007648Y689448D01*
X984602Y622659D02*
Y661191D01*
X980917Y624186D02*
Y662717D01*
X988400Y621086D02*
Y655763D01*
X978146Y610832D02*
X988400Y621086D01*
X970663Y613932D02*
X980917Y624186D01*
X974348Y612405D02*
X984602Y622659D01*
X963627Y571965D02*
X978146Y586484D01*
X960527Y579448D02*
X970663Y589583D01*
X962054Y575763D02*
X974348Y588057D01*
X978146Y586484D02*
Y610832D01*
X970663Y589583D02*
Y613932D01*
X974348Y588057D02*
Y612405D01*
X934141Y571965D02*
X963627D01*
X931042Y579448D02*
X960527D01*
X932568Y575763D02*
X962054D01*
X767943Y574070D02*
X787168Y593294D01*
X773501Y594070D02*
X779423Y599991D01*
X767943Y594070D02*
X773501D01*
X1096400Y709248D02*
X1108885Y696763D01*
X1068951Y703086D02*
X1075274Y696763D01*
X1090719Y708097D02*
X1099589Y716967D01*
Y726427D01*
X1082580Y743436D02*
X1099589Y726427D01*
X1083743Y706089D02*
X1095400Y717747D01*
Y726039D01*
X1085809Y729106D02*
X1092069Y722846D01*
X1077420Y707432D02*
X1080727D01*
X1087400Y714106D01*
Y721818D01*
X1082809Y726409D02*
X1087400Y721818D01*
X1079613Y723468D02*
X1083400Y719681D01*
X1082809Y726409D02*
Y730111D01*
X1079613Y723468D02*
Y728787D01*
X1085809Y729106D02*
Y731354D01*
X1081239Y740200D02*
X1095400Y726039D01*
X1078744Y734176D02*
X1082809Y730111D01*
X1077420Y730979D02*
X1079613Y728787D01*
X1079987Y737176D02*
X1085809Y731354D01*
X963377Y734176D02*
X1078744D01*
X967213Y743436D02*
X1082580D01*
X962053Y730979D02*
X1077420D01*
X965872Y740200D02*
X1081239D01*
X964620Y737176D02*
X1079987D01*
X791376Y628952D02*
X800597Y638172D01*
X788534Y646763D02*
X794400Y652630D01*
X790939Y639078D02*
X797400Y645539D01*
D13*
X1108885Y696763D02*
X1133211D01*
X1133211D02*
X1135180Y698732D01*
D14*
X808271Y542382D02*
X823448Y557559D01*
X808271Y535080D02*
X808843Y534508D01*
X808271Y535080D02*
Y542382D01*
X808147Y519524D02*
Y524511D01*
Y519524D02*
X808151Y519520D01*
X808143Y524515D02*
X808147Y524511D01*
X805592Y519520D02*
X808151D01*
X808143Y524515D02*
Y528885D01*
X808073Y528955D02*
X808143Y528885D01*
X808073Y528955D02*
Y530134D01*
X808061Y530146D02*
Y533727D01*
X808843Y534508D01*
X808061Y530146D02*
X808073Y530134D01*
D15*
X1075274Y696763D02*
X1108885D01*
X1161400Y438763D02*
G03*
X1171400Y448763I0J10000D01*
G01*
X1171400Y803763D02*
G03*
X1161400Y813763I-10000J0D01*
G01*
X756400Y813763D02*
G03*
X746400Y803763I0J-10000D01*
G01*
Y448763D02*
G03*
X756400Y438763I10000J0D01*
G01*
X1171400Y448763D02*
X1171400Y803763D01*
X756400Y438763D02*
X1161400D01*
X756400Y813763D02*
X1161400Y813763D01*
X746400Y803763D02*
X746400Y448763D01*
D80*
X1156400Y538763D02*
D03*
Y528763D02*
D03*
Y518763D02*
D03*
Y508763D02*
D03*
Y498763D02*
D03*
Y568763D02*
D03*
Y558763D02*
D03*
Y548763D02*
D03*
X996400Y578763D02*
D03*
Y538763D02*
D03*
Y528763D02*
D03*
Y518763D02*
D03*
Y508763D02*
D03*
Y498763D02*
D03*
Y488763D02*
D03*
Y568763D02*
D03*
Y558763D02*
D03*
Y548763D02*
D03*
X757943Y594070D02*
D03*
Y614070D02*
D03*
X767943Y634070D02*
D03*
X757943Y664070D02*
D03*
Y694070D02*
D03*
X767943Y714070D02*
D03*
X757943Y734070D02*
D03*
X767943Y564070D02*
D03*
X1082400Y764113D02*
D03*
Y754113D02*
D03*
X1072400D02*
D03*
X757943Y744070D02*
D03*
X1052400Y754113D02*
D03*
Y764113D02*
D03*
X1062400Y754113D02*
D03*
Y764113D02*
D03*
X1072400D02*
D03*
X1092400Y754113D02*
D03*
Y764113D02*
D03*
X1102400Y754113D02*
D03*
Y764113D02*
D03*
X1112400Y754113D02*
D03*
X757943Y724070D02*
D03*
Y714070D02*
D03*
Y704070D02*
D03*
X767943Y754070D02*
D03*
Y744070D02*
D03*
Y734070D02*
D03*
Y724070D02*
D03*
Y704070D02*
D03*
Y694070D02*
D03*
X757943Y684070D02*
D03*
Y674070D02*
D03*
Y654070D02*
D03*
Y644070D02*
D03*
Y634070D02*
D03*
X767943Y684070D02*
D03*
Y674070D02*
D03*
Y664070D02*
D03*
Y654070D02*
D03*
Y644070D02*
D03*
X757943Y624070D02*
D03*
X767943D02*
D03*
X757943Y604070D02*
D03*
Y584070D02*
D03*
Y574070D02*
D03*
Y564070D02*
D03*
X767943Y614070D02*
D03*
Y604070D02*
D03*
Y594070D02*
D03*
Y584070D02*
D03*
Y574070D02*
D03*
D84*
X1112400Y764113D02*
D03*
D88*
X838659Y528184D02*
D03*
X842439D02*
D03*
X833449Y551706D02*
D03*
X837228D02*
D03*
X844053Y547030D02*
D03*
X840273D02*
D03*
X812286Y528885D02*
D03*
X811926Y524511D02*
D03*
X808506Y528885D02*
D03*
X808147Y524511D02*
D03*
X815158Y491614D02*
D03*
X815513Y495911D02*
D03*
X811734D02*
D03*
X1117922Y620076D02*
D03*
X1121702D02*
D03*
X1116255Y578548D02*
D03*
X1120035D02*
D03*
X811379Y491614D02*
D03*
D93*
X837251Y502512D02*
D03*
Y498733D02*
D03*
D96*
X814570Y534508D02*
D03*
X808271D02*
D03*
X815076Y486211D02*
D03*
X815309Y479949D02*
D03*
X809010D02*
D03*
X1118225Y630883D02*
D03*
X1124525D02*
D03*
X1117082Y589105D02*
D03*
X1123381D02*
D03*
X808777Y486211D02*
D03*
D107*
X1007639Y531841D02*
Y557524D01*
X996400Y568763D02*
X1007639Y557524D01*
X999431Y523633D02*
X1007639Y531841D01*
X950745Y482705D02*
X991673Y523633D01*
X999431D01*
X820531Y474727D02*
X948797D01*
X815545Y491174D02*
Y495837D01*
X948797Y474727D02*
X987833Y513763D01*
X1076981D01*
X848805Y482705D02*
X950745D01*
X837251Y494259D02*
X848805Y482705D01*
X837251Y494259D02*
Y498733D01*
X814915Y479949D02*
Y486211D01*
X815309Y479949D02*
X820531Y474727D01*
X814915Y486211D02*
Y490544D01*
X842489Y499343D02*
Y501016D01*
X837251Y498733D02*
X841944D01*
X842489Y499278D01*
Y499343D01*
X833449Y539901D02*
X841125Y532225D01*
X833449Y539901D02*
Y551706D01*
X841125Y532065D02*
X842439Y530751D01*
Y528184D02*
Y530751D01*
X841125Y532065D02*
Y532225D01*
X842489Y520800D02*
Y528133D01*
X842439Y528184D02*
X842489Y528133D01*
X849044Y538137D02*
Y546698D01*
Y538137D02*
X853414Y533767D01*
X849044Y546698D02*
Y553168D01*
X848711Y547030D02*
X849044Y546698D01*
X844053Y547030D02*
X848711D01*
X818482Y583730D02*
X849044Y553168D01*
X818482Y583730D02*
Y606619D01*
X856177Y632373D02*
Y644314D01*
X828039Y616176D02*
X839980D01*
X856177Y632373D01*
X818482Y606619D02*
X828039Y616176D01*
X856177Y644314D02*
X884799Y672936D01*
X1076981Y513763D02*
X1131981Y568763D01*
X1156400D01*
X814915Y490544D02*
X815545Y491174D01*
X815828Y496120D02*
Y500623D01*
X815545Y495837D02*
X815828Y496120D01*
Y500623D02*
X818387D01*
D114*
X1001400Y473763D02*
D03*
X1151400D02*
D03*
X1001400Y623763D02*
D03*
D115*
X925591Y625562D02*
D03*
Y621294D02*
D03*
X920426Y625562D02*
D03*
Y621294D02*
D03*
X915256Y625562D02*
D03*
Y621294D02*
D03*
X928839Y608239D02*
D03*
Y611814D02*
D03*
X927792Y615389D02*
D03*
X924016D02*
D03*
Y611814D02*
D03*
Y608239D02*
D03*
D116*
X1040207Y487582D02*
D03*
Y475771D02*
D03*
X1111400Y475763D02*
D03*
Y487574D02*
D03*
X825408Y776755D02*
D03*
Y764944D02*
D03*
X877502Y776755D02*
D03*
Y764944D02*
D03*
X1063829Y475771D02*
D03*
Y487582D02*
D03*
X1123211Y475763D02*
D03*
Y487574D02*
D03*
X865691Y776755D02*
D03*
Y764944D02*
D03*
X813597D02*
D03*
Y776755D02*
D03*
X1134392Y630858D02*
D03*
Y642668D02*
D03*
Y589857D02*
D03*
Y601669D02*
D03*
X1028396Y487582D02*
D03*
X1052018D02*
D03*
X1075640D02*
D03*
X1028396Y475771D02*
D03*
X1052018D02*
D03*
X1075640D02*
D03*
D117*
X757943Y754070D02*
D03*
D118*
X1151400Y636763D02*
D03*
Y595763D02*
D03*
X1036900Y458763D02*
D03*
X1067294D02*
D03*
X871597Y793763D02*
D03*
X819502D02*
D03*
X1117305Y458755D02*
D03*
D119*
X1135900Y781613D02*
D03*
Y666613D02*
D03*
X1020900Y781613D02*
D03*
Y666613D02*
D03*
D120*
X762943Y773243D02*
D03*
Y544897D02*
D03*
X955857D02*
D03*
Y773243D02*
D03*
D121*
X1008285Y584334D02*
D03*
X911400Y532583D02*
D03*
Y528415D02*
D03*
X918785Y532858D02*
D03*
Y528690D02*
D03*
X925765Y528965D02*
D03*
Y533133D02*
D03*
X888400Y532500D02*
D03*
Y528332D02*
D03*
X895785Y532774D02*
D03*
Y528606D02*
D03*
X902765Y528881D02*
D03*
Y533049D02*
D03*
X864132Y532225D02*
D03*
Y528057D02*
D03*
X871517Y532500D02*
D03*
Y528332D02*
D03*
X878497Y528606D02*
D03*
Y532774D02*
D03*
X841125Y532225D02*
D03*
X853414Y533767D02*
D03*
X838716Y525604D02*
D03*
X869786Y561763D02*
D03*
X884799Y672936D02*
D03*
X823448Y557559D02*
D03*
X1111463Y716712D02*
D03*
X911570Y733362D02*
D03*
X928638Y722161D02*
D03*
X907744D02*
D03*
X857489Y516371D02*
D03*
X908563Y627515D02*
D03*
X915832Y603373D02*
D03*
X912697Y603449D02*
D03*
X885572Y575763D02*
D03*
X891772Y576113D02*
D03*
X817331Y516560D02*
D03*
X814215D02*
D03*
X810910D02*
D03*
X815059Y528853D02*
D03*
X1090400Y704519D02*
D03*
X1082400Y702399D02*
D03*
X1090400Y719681D02*
D03*
X791789Y645847D02*
D03*
X785280Y668043D02*
D03*
X788140Y659739D02*
D03*
X777662Y603090D02*
D03*
X824201Y592809D02*
D03*
X785187Y714653D02*
D03*
Y721913D02*
D03*
X1139006Y746763D02*
D03*
X1139211Y740140D02*
D03*
X1127313Y737176D02*
D03*
X920483Y698653D02*
D03*
X915999Y701661D02*
D03*
X907602Y702765D02*
D03*
X899806Y624465D02*
D03*
X825408Y666975D02*
D03*
X1104702Y490033D02*
D03*
Y487002D02*
D03*
Y484119D02*
D03*
X1104602Y478795D02*
D03*
Y475763D02*
D03*
Y472880D02*
D03*
X1108368Y481531D02*
D03*
X1111400D02*
D03*
X1114283D02*
D03*
X1147400Y501731D02*
D03*
Y504763D02*
D03*
Y507646D02*
D03*
X1013708Y445810D02*
D03*
X975400Y445416D02*
D03*
X948501Y583203D02*
D03*
X954230Y589040D02*
D03*
X955370Y614116D02*
D03*
X923490Y590126D02*
D03*
X924016Y601188D02*
D03*
X948501Y629269D02*
D03*
X937477Y645727D02*
D03*
X928015Y644216D02*
D03*
X917141Y648144D02*
D03*
X912582Y653702D02*
D03*
X898995Y645727D02*
D03*
X864351Y575698D02*
D03*
X860893Y631920D02*
D03*
Y639385D02*
D03*
X862400Y622977D02*
D03*
X840210Y621359D02*
D03*
X855225Y591053D02*
D03*
X855331Y582420D02*
D03*
X855160Y574597D02*
D03*
X838790Y634535D02*
D03*
X836874Y638194D02*
D03*
X826639Y637797D02*
D03*
X825010Y634535D02*
D03*
X823448Y630970D02*
D03*
X840342Y630020D02*
D03*
X850016Y665857D02*
D03*
X865955Y702666D02*
D03*
X872770Y651554D02*
D03*
X876420D02*
D03*
X762603Y659674D02*
D03*
X762246Y618590D02*
D03*
X762392Y596398D02*
D03*
X773735Y563544D02*
D03*
X772391Y636027D02*
D03*
X752692Y693065D02*
D03*
X773396Y714070D02*
D03*
X751899Y734597D02*
D03*
X832242Y766684D02*
D03*
X832290Y762524D02*
D03*
Y770151D02*
D03*
Y775232D02*
D03*
X832242Y778433D02*
D03*
Y781853D02*
D03*
X884038Y779208D02*
D03*
X884319Y776183D02*
D03*
X884038Y772705D02*
D03*
Y767385D02*
D03*
Y763755D02*
D03*
X879292Y770409D02*
D03*
X909223Y770785D02*
D03*
X918173Y757491D02*
D03*
X886327Y752405D02*
D03*
X879889Y731678D02*
D03*
X889004Y707537D02*
D03*
X874446Y709141D02*
D03*
X788305Y739176D02*
D03*
X792999Y740869D02*
D03*
X793262Y748717D02*
D03*
X792932Y757786D02*
D03*
X787909Y759255D02*
D03*
X1076829Y750652D02*
D03*
X1078300Y757705D02*
D03*
X1078488Y767664D02*
D03*
X1084118Y758901D02*
D03*
X1133259Y708604D02*
D03*
X1126211Y712200D02*
D03*
X1121522D02*
D03*
X1114451Y710531D02*
D03*
X1111463Y721938D02*
D03*
X1040211Y710846D02*
D03*
Y714448D02*
D03*
X1036589Y714320D02*
D03*
X1025103Y716585D02*
D03*
X940010Y752832D02*
D03*
X931428Y756423D02*
D03*
X1061635Y598781D02*
D03*
X1103401Y600631D02*
D03*
X1104152Y641437D02*
D03*
X1129110Y649592D02*
D03*
X1123211Y611815D02*
D03*
X1116255Y583578D02*
D03*
X1118029Y625234D02*
D03*
X1059600Y522229D02*
D03*
X1061635Y520193D02*
D03*
X1063833Y517996D02*
D03*
X952765Y460637D02*
D03*
Y456469D02*
D03*
Y450789D02*
D03*
Y446484D02*
D03*
X945785Y446209D02*
D03*
Y450515D02*
D03*
Y456194D02*
D03*
Y460362D02*
D03*
X938400Y445934D02*
D03*
Y450240D02*
D03*
Y455919D02*
D03*
Y460087D02*
D03*
X917035Y459767D02*
D03*
Y455599D02*
D03*
Y449919D02*
D03*
Y445614D02*
D03*
X924420Y460041D02*
D03*
Y455873D02*
D03*
Y450194D02*
D03*
Y445889D02*
D03*
X931400Y446164D02*
D03*
Y450469D02*
D03*
Y456148D02*
D03*
Y460316D02*
D03*
X759936Y524482D02*
D03*
Y520315D02*
D03*
Y514635D02*
D03*
Y510330D02*
D03*
X767321Y524757D02*
D03*
Y520589D02*
D03*
Y514910D02*
D03*
Y510605D02*
D03*
X774301Y510879D02*
D03*
Y515185D02*
D03*
Y520864D02*
D03*
Y525032D02*
D03*
X838211Y660642D02*
D03*
Y656474D02*
D03*
Y650795D02*
D03*
Y646490D02*
D03*
X845595Y660917D02*
D03*
Y656749D02*
D03*
Y651070D02*
D03*
Y646765D02*
D03*
X852575Y647039D02*
D03*
Y651345D02*
D03*
Y657024D02*
D03*
Y661192D02*
D03*
X949262Y659171D02*
D03*
Y655003D02*
D03*
Y649324D02*
D03*
Y645018D02*
D03*
X956647Y659446D02*
D03*
Y655278D02*
D03*
Y649598D02*
D03*
Y645293D02*
D03*
X963627Y645568D02*
D03*
Y649873D02*
D03*
Y655552D02*
D03*
Y659721D02*
D03*
X1026228Y651792D02*
D03*
Y647624D02*
D03*
Y641945D02*
D03*
Y637640D02*
D03*
X1033613Y652067D02*
D03*
Y647899D02*
D03*
Y642220D02*
D03*
Y637915D02*
D03*
X1040593Y638189D02*
D03*
Y642495D02*
D03*
Y648174D02*
D03*
Y652342D02*
D03*
X1045789Y630334D02*
D03*
Y626166D02*
D03*
Y620486D02*
D03*
Y616181D02*
D03*
X1053174Y630608D02*
D03*
Y626440D02*
D03*
Y620761D02*
D03*
Y616456D02*
D03*
X1060154Y616730D02*
D03*
Y621036D02*
D03*
Y626715D02*
D03*
Y630883D02*
D03*
X1078616Y586390D02*
D03*
Y582222D02*
D03*
Y576543D02*
D03*
Y572237D02*
D03*
X1086001Y586665D02*
D03*
Y582497D02*
D03*
Y576817D02*
D03*
Y572512D02*
D03*
X1092981Y572787D02*
D03*
Y577092D02*
D03*
Y582771D02*
D03*
Y586939D02*
D03*
X1133035Y535013D02*
D03*
Y530845D02*
D03*
Y525165D02*
D03*
Y520860D02*
D03*
X1140420Y535287D02*
D03*
Y531119D02*
D03*
Y525440D02*
D03*
Y521135D02*
D03*
X1147400Y521410D02*
D03*
Y525715D02*
D03*
Y531394D02*
D03*
Y535562D02*
D03*
X989719Y784213D02*
D03*
Y780045D02*
D03*
Y770061D02*
D03*
X997104Y784488D02*
D03*
Y780320D02*
D03*
Y774641D02*
D03*
Y770335D02*
D03*
X1004084Y770610D02*
D03*
Y774916D02*
D03*
Y780595D02*
D03*
Y784763D02*
D03*
X779668Y779614D02*
D03*
Y775447D02*
D03*
Y769767D02*
D03*
Y765462D02*
D03*
X787052Y779889D02*
D03*
Y775721D02*
D03*
Y770042D02*
D03*
Y765737D02*
D03*
X794032Y766011D02*
D03*
Y770317D02*
D03*
Y775996D02*
D03*
Y780164D02*
D03*
X890226Y666439D02*
D03*
Y662271D02*
D03*
Y656592D02*
D03*
Y652287D02*
D03*
X897611Y666714D02*
D03*
Y662546D02*
D03*
Y656867D02*
D03*
Y652562D02*
D03*
X904591Y652836D02*
D03*
Y657142D02*
D03*
Y662821D02*
D03*
Y666989D02*
D03*
X814915Y524515D02*
D03*
X818095Y534508D02*
D03*
X853363Y691273D02*
D03*
X861974Y707364D02*
D03*
X837454Y665881D02*
D03*
X1068896Y479038D02*
D03*
X1059859Y483235D02*
D03*
X1034886Y473037D02*
D03*
X1044622Y483841D02*
D03*
X825605Y770785D02*
D03*
X958838Y678079D02*
D03*
Y673912D02*
D03*
X951859Y673637D02*
D03*
Y677805D02*
D03*
X944474Y673362D02*
D03*
Y677530D02*
D03*
X1016797Y716263D02*
D03*
Y712095D02*
D03*
X1009817Y711821D02*
D03*
Y715989D02*
D03*
X1002433Y711546D02*
D03*
Y715714D02*
D03*
X1105557Y689931D02*
D03*
Y685763D02*
D03*
X1098577Y685488D02*
D03*
Y689656D02*
D03*
X1091192Y685213D02*
D03*
Y689381D02*
D03*
X1061635Y644481D02*
D03*
Y640313D02*
D03*
X1054655Y640039D02*
D03*
Y644207D02*
D03*
X1047271Y639764D02*
D03*
Y643932D02*
D03*
X1025858Y613411D02*
D03*
Y609243D02*
D03*
X1018878Y608968D02*
D03*
Y613136D02*
D03*
X1011494Y608693D02*
D03*
Y612861D02*
D03*
X1062794Y571942D02*
D03*
Y567774D02*
D03*
X1055814Y567499D02*
D03*
Y571667D02*
D03*
X1048429Y567225D02*
D03*
Y571393D02*
D03*
X1155667Y623404D02*
D03*
Y619236D02*
D03*
X1148687Y618961D02*
D03*
Y623129D02*
D03*
X1141302Y618686D02*
D03*
Y622854D02*
D03*
X1155667Y614427D02*
D03*
Y610259D02*
D03*
X1148687Y609984D02*
D03*
Y614152D02*
D03*
X1141302Y609709D02*
D03*
Y613877D02*
D03*
X1144229Y761724D02*
D03*
Y757556D02*
D03*
X1137249Y757281D02*
D03*
Y761449D02*
D03*
X1129864Y757006D02*
D03*
Y761174D02*
D03*
X1072456Y781679D02*
D03*
Y777511D02*
D03*
X1065476Y777236D02*
D03*
Y781404D02*
D03*
X1058092Y776961D02*
D03*
Y781129D02*
D03*
X1038245Y766746D02*
D03*
Y762578D02*
D03*
X1031266Y762303D02*
D03*
Y766471D02*
D03*
X1023881Y762028D02*
D03*
Y766196D02*
D03*
X834640Y755616D02*
D03*
Y751448D02*
D03*
X827660Y751174D02*
D03*
Y755342D02*
D03*
X820275Y750899D02*
D03*
Y755067D02*
D03*
X934853Y660642D02*
D03*
Y656474D02*
D03*
X927873Y656200D02*
D03*
Y660368D02*
D03*
X920488Y655925D02*
D03*
Y660093D02*
D03*
X921691Y581428D02*
D03*
Y577260D02*
D03*
X914711Y576985D02*
D03*
Y581153D02*
D03*
X907326Y576710D02*
D03*
Y580878D02*
D03*
X924508Y512271D02*
D03*
Y508103D02*
D03*
X917528Y507828D02*
D03*
Y511996D02*
D03*
X910144Y507553D02*
D03*
Y511721D02*
D03*
X799206Y536393D02*
D03*
Y532225D02*
D03*
X792226Y531950D02*
D03*
Y536118D02*
D03*
X784842Y531675D02*
D03*
Y535843D02*
D03*
X1013179Y654041D02*
D03*
Y649873D02*
D03*
X1006199Y649598D02*
D03*
Y653766D02*
D03*
X998814Y649324D02*
D03*
Y653491D02*
D03*
X964386Y703781D02*
D03*
Y699613D02*
D03*
X957406Y699339D02*
D03*
Y703507D02*
D03*
X950021Y699064D02*
D03*
Y703232D02*
D03*
X979857Y465996D02*
D03*
X928651Y640080D02*
D03*
X943265Y631426D02*
D03*
X864465Y619237D02*
D03*
X942673Y509290D02*
D03*
X852326Y609047D02*
D03*
X806647Y503583D02*
D03*
X809763D02*
D03*
X813068D02*
D03*
X804766Y479949D02*
D03*
Y485994D02*
D03*
X808506Y491614D02*
D03*
Y495837D02*
D03*
X857489Y503763D02*
D03*
X839925D02*
D03*
X930554Y636027D02*
D03*
X868838Y617426D02*
D03*
X900229Y760697D02*
D03*
X906307Y760439D02*
D03*
X976290Y748679D02*
D03*
X973193D02*
D03*
X942477Y719794D02*
D03*
X1053023Y445811D02*
D03*
X1105000Y571219D02*
D03*
X1109175Y612763D02*
D03*
X920059Y695208D02*
D03*
X904421Y713283D02*
D03*
X913023Y702763D02*
D03*
X910111Y700198D02*
D03*
X1137546Y743039D02*
D03*
X1134834Y740140D02*
D03*
X1131454Y737551D02*
D03*
X923239Y674110D02*
D03*
X988400Y655763D02*
D03*
X1037298Y796449D02*
D03*
X1084425Y787918D02*
D03*
X920384Y705818D02*
D03*
X911570Y790566D02*
D03*
X786841Y718913D02*
D03*
X788534Y713972D02*
D03*
X792234Y710574D02*
D03*
X795400Y707661D02*
D03*
X798341Y704574D02*
D03*
X1135180Y698732D02*
D03*
X965333Y620731D02*
D03*
X982991Y603074D02*
D03*
X827180Y593491D02*
D03*
X823636Y586452D02*
D03*
X825333Y590126D02*
D03*
X787280Y593304D02*
D03*
X779423Y599991D02*
D03*
X988446Y464812D02*
D03*
X937674Y631920D02*
D03*
X791376Y658605D02*
D03*
Y628952D02*
D03*
X790939Y639078D02*
D03*
X1133211Y696763D02*
D03*
X1068951Y703086D02*
D03*
X1090719Y708097D02*
D03*
X1083743Y706089D02*
D03*
X1096400Y709248D02*
D03*
X1092069Y722846D02*
D03*
X1077420Y707432D02*
D03*
X1083400Y719681D02*
D03*
X788534Y646763D02*
D03*
X788140Y665881D02*
D03*
X884038Y731763D02*
D03*
X859007Y577263D02*
D03*
X870884Y728310D02*
D03*
X874821Y695208D02*
D03*
D122*
X857489Y499343D02*
D03*
X852489D02*
D03*
X847489D02*
D03*
X842489D02*
D03*
X852489Y520800D02*
D03*
X847489D02*
D03*
X857489D02*
D03*
X842489D02*
D03*
D123*
X815828Y519520D02*
D03*
X818387D02*
D03*
X810710D02*
D03*
X808151D02*
D03*
X805592D02*
D03*
X815828Y500623D02*
D03*
X818387D02*
D03*
X805592D02*
D03*
X808151D02*
D03*
X813269D02*
D03*
D124*
X1103300Y630391D02*
D03*
X1105859D02*
D03*
X1108418D02*
D03*
X1110977D02*
D03*
X1103300Y620076D02*
D03*
X1105859D02*
D03*
X1108418D02*
D03*
X1110977D02*
D03*
X1109270Y578790D02*
D03*
X1106711D02*
D03*
X1104152D02*
D03*
X1101593D02*
D03*
X1109270Y589105D02*
D03*
X1106711D02*
D03*
X1104152D02*
D03*
X1101593D02*
D03*
M02*
