G04*
G04 #@! TF.GenerationSoftware,Altium Limited,DefaultClient, ()*
G04*
G04 Layer_Physical_Order=4*
G04 Layer_Color=16711680*
G04 Board_Origin=74640005|44270005*
%FSLAX25Y25*%
%MOIN*%
G70*
G04*
G04 #@! TF.SameCoordinates,44F044A5-29FE-4669-802D-0DFAB65FCC90*
G04*
G04*
G04 #@! TF.FilePolarity,Positive*
G04*
G01*
G75*
%ADD11C,0.01000*%
%ADD15C,0.06181*%
%ADD20R,0.06181X0.06181*%
%ADD21C,0.04016*%
%ADD23C,0.01181*%
%ADD24C,0.02000*%
%ADD25C,0.06496*%
%ADD26C,0.06378*%
%ADD27R,0.06378X0.06378*%
%ADD28C,0.21654*%
%ADD29C,0.02000*%
%ADD30R,0.02362X0.03937*%
%ADD31R,0.08661X0.08465*%
G36*
X20708Y67257D02*
X20773Y66939D01*
X20795Y66615D01*
X20871Y66464D01*
X20905Y66297D01*
X21087Y66029D01*
X21231Y65738D01*
X21359Y65627D01*
X21454Y65487D01*
X21540Y65430D01*
Y62516D01*
X21474Y62472D01*
X21385Y62337D01*
X21264Y62230D01*
X21118Y61931D01*
X20935Y61654D01*
X20904Y61495D01*
X20833Y61350D01*
X20813Y61018D01*
X20750Y60692D01*
X20758Y59437D01*
X19685Y58363D01*
X5623D01*
X5270Y58718D01*
X5302Y74312D01*
X20663D01*
X20708Y67257D01*
D02*
G37*
G36*
X71605Y69386D02*
X71105Y69252D01*
X70742Y69879D01*
X70098Y70523D01*
X69729Y70736D01*
X69684Y71033D01*
X69707Y71326D01*
X70293Y71912D01*
X70749Y72702D01*
X70985Y73583D01*
Y74494D01*
X70749Y75375D01*
X70293Y76164D01*
X69649Y76809D01*
X68859Y77265D01*
X67979Y77500D01*
X67067D01*
X66187Y77265D01*
X65397Y76809D01*
X64753Y76164D01*
X64297Y75375D01*
X64061Y74494D01*
Y73583D01*
X64297Y72702D01*
X64753Y71912D01*
X65397Y71268D01*
X65766Y71055D01*
X65811Y70758D01*
X65788Y70465D01*
X65201Y69879D01*
X64746Y69089D01*
X64693Y68893D01*
X64561Y68848D01*
X64164Y68851D01*
X63498Y70004D01*
X62465Y71038D01*
X61198Y71769D01*
X59786Y72147D01*
X58324D01*
X56912Y71769D01*
X55646Y71038D01*
X54612Y70004D01*
X53881Y68738D01*
X53502Y67326D01*
Y65864D01*
X53881Y64451D01*
X54612Y63185D01*
X55646Y62151D01*
X56912Y61420D01*
X58324Y61042D01*
X59786D01*
X61198Y61420D01*
X62465Y62151D01*
X63498Y63185D01*
X64230Y64451D01*
X64570Y65721D01*
X65009Y65828D01*
X65090Y65820D01*
X65201Y65627D01*
X65846Y64982D01*
X66636Y64527D01*
X67175Y64382D01*
X67109Y63882D01*
X67017D01*
X66137Y63646D01*
X65347Y63190D01*
X64703Y62546D01*
X64247Y61756D01*
X64011Y60876D01*
Y59964D01*
X64247Y59084D01*
X64703Y58294D01*
X65347Y57649D01*
X66137Y57194D01*
X67017Y56958D01*
X67929D01*
X68809Y57194D01*
X69599Y57649D01*
X70244Y58294D01*
X70699Y59084D01*
X70935Y59964D01*
Y60876D01*
X70699Y61756D01*
X70244Y62546D01*
X69599Y63190D01*
X68809Y63646D01*
X68270Y63791D01*
X68336Y64291D01*
X68428D01*
X69308Y64527D01*
X70098Y64982D01*
X70742Y65627D01*
X71105Y66254D01*
X71605Y66120D01*
Y54353D01*
X71262Y54090D01*
X70470D01*
X69705Y53886D01*
X69019Y53490D01*
X68459Y52930D01*
X68063Y52244D01*
X67858Y51479D01*
Y50687D01*
X68063Y49922D01*
X68459Y49236D01*
X69019Y48676D01*
X69705Y48280D01*
X70470Y48075D01*
X71262D01*
X71605Y47812D01*
Y42801D01*
X69811Y41008D01*
X69335Y41135D01*
X67831D01*
X66379Y40746D01*
X65077Y39994D01*
X64013Y38931D01*
X63262Y37629D01*
X62872Y36177D01*
Y34673D01*
X63262Y33221D01*
X64013Y31919D01*
X65077Y30856D01*
X65390Y30675D01*
Y30175D01*
X65077Y29994D01*
X64013Y28931D01*
X63262Y27629D01*
X62872Y26177D01*
Y24673D01*
X63262Y23221D01*
X64013Y21919D01*
X65077Y20856D01*
X66379Y20104D01*
X67831Y19715D01*
X69335D01*
X70787Y20104D01*
X72089Y20856D01*
X73152Y21919D01*
X73399Y22346D01*
X76964D01*
X76964Y22346D01*
X77761Y22451D01*
X78504Y22759D01*
X79141Y23248D01*
X79833Y23940D01*
X79833Y23940D01*
X80322Y24577D01*
X80630Y25320D01*
X80735Y26117D01*
X80735Y26117D01*
Y34016D01*
X81235Y34223D01*
X82288Y33171D01*
X83980Y31941D01*
X85844Y30992D01*
X87833Y30345D01*
X89899Y30018D01*
X91991D01*
X94057Y30345D01*
X96046Y30992D01*
X97910Y31941D01*
X99602Y33171D01*
X101081Y34650D01*
X101147Y34740D01*
X101607Y34545D01*
X101429Y33519D01*
X100756Y31172D01*
X99837Y28910D01*
X98683Y26758D01*
X97305Y24742D01*
X95720Y22884D01*
X93946Y21206D01*
X92004Y19726D01*
X89915Y18462D01*
X87703Y17428D01*
X86769Y17108D01*
X23693Y17059D01*
X23540Y17093D01*
X23443Y32185D01*
X24800Y33171D01*
X26280Y34650D01*
X27509Y36342D01*
X28459Y38206D01*
X29105Y40195D01*
X29432Y42261D01*
Y44353D01*
X29105Y46419D01*
X28459Y48408D01*
X27509Y50272D01*
X26280Y51964D01*
X24800Y53443D01*
X23300Y54533D01*
X23260Y60708D01*
X23693Y60959D01*
X24008Y60777D01*
X24889Y60541D01*
X25800D01*
X26681Y60777D01*
X27470Y61233D01*
X28115Y61878D01*
X28571Y62667D01*
X28806Y63548D01*
Y64459D01*
X28571Y65340D01*
X28115Y66129D01*
X27470Y66774D01*
X26681Y67230D01*
X25800Y67466D01*
X24889D01*
X24008Y67230D01*
X23652Y67024D01*
X23218Y67273D01*
X23136Y80072D01*
X23489Y80427D01*
X23532D01*
X24412Y80663D01*
X25202Y81119D01*
X25591Y81508D01*
X36010D01*
X36471Y81384D01*
X37382D01*
X37843Y81508D01*
X71605Y81508D01*
Y69386D01*
D02*
G37*
%LPC*%
G36*
X59786Y60336D02*
X58324D01*
X56912Y59958D01*
X55646Y59227D01*
X54612Y58193D01*
X53881Y56927D01*
X53502Y55515D01*
Y54052D01*
X53881Y52640D01*
X54612Y51374D01*
X55646Y50340D01*
X56912Y49609D01*
X58324Y49231D01*
X59786D01*
X61198Y49609D01*
X62465Y50340D01*
X63498Y51374D01*
X64230Y52640D01*
X64608Y54052D01*
Y55515D01*
X64230Y56927D01*
X63498Y58193D01*
X62465Y59227D01*
X61198Y59958D01*
X59786Y60336D01*
D02*
G37*
G36*
X35829Y54090D02*
X35037D01*
X34272Y53886D01*
X33586Y53490D01*
X33026Y52930D01*
X32630Y52244D01*
X32425Y51479D01*
Y50687D01*
X32630Y49922D01*
X33026Y49236D01*
X33586Y48676D01*
X34272Y48280D01*
X35037Y48075D01*
X35829D01*
X36594Y48280D01*
X37280Y48676D01*
X37840Y49236D01*
X38236Y49922D01*
X38441Y50687D01*
Y51479D01*
X38236Y52244D01*
X37840Y52930D01*
X37280Y53490D01*
X36594Y53886D01*
X35829Y54090D01*
D02*
G37*
G36*
X39334Y41135D02*
X37831D01*
X36379Y40746D01*
X35076Y39994D01*
X34013Y38931D01*
X33262Y37629D01*
X32872Y36177D01*
Y34673D01*
X33262Y33221D01*
X34013Y31919D01*
X35076Y30856D01*
X35390Y30675D01*
Y30175D01*
X35076Y29994D01*
X34013Y28931D01*
X33262Y27629D01*
X32872Y26177D01*
Y24673D01*
X33262Y23221D01*
X34013Y21919D01*
X35076Y20856D01*
X36379Y20104D01*
X37831Y19715D01*
X39334D01*
X40787Y20104D01*
X42089Y20856D01*
X43152Y21919D01*
X43333Y22232D01*
X43833D01*
X44013Y21919D01*
X45077Y20856D01*
X46379Y20104D01*
X47831Y19715D01*
X49334D01*
X50787Y20104D01*
X52089Y20856D01*
X53152Y21919D01*
X53904Y23221D01*
X54293Y24673D01*
Y26177D01*
X53904Y27629D01*
X53152Y28931D01*
X52089Y29994D01*
X50787Y30746D01*
X49334Y31135D01*
X47831D01*
X46379Y30746D01*
X45077Y29994D01*
X44013Y28931D01*
X43833Y28618D01*
X43333D01*
X43152Y28931D01*
X42089Y29994D01*
X41776Y30175D01*
Y30675D01*
X42089Y30856D01*
X43152Y31919D01*
X43904Y33221D01*
X44293Y34673D01*
Y36177D01*
X43904Y37629D01*
X43152Y38931D01*
X42089Y39994D01*
X40787Y40746D01*
X39334Y41135D01*
D02*
G37*
%LPD*%
D11*
X57185Y128133D02*
X57554D01*
X63140Y125006D02*
X65698Y127564D01*
X59030Y121843D02*
X59503D01*
X63082Y125006D02*
X63140D01*
X57554Y128133D02*
X60089Y125598D01*
X62089Y122186D02*
Y124013D01*
X63082Y125006D01*
X62089Y122186D02*
X62875Y121400D01*
X65148D01*
X60089Y122429D02*
Y125598D01*
X58349Y120375D02*
Y121162D01*
X59030Y121843D01*
X59503D02*
X60089Y122429D01*
X65829Y119587D02*
Y120719D01*
X65148Y121400D02*
X65829Y120719D01*
X65698Y127564D02*
Y129051D01*
X57185Y128133D02*
Y129051D01*
X59991Y116394D02*
X61089Y117492D01*
X59030Y119228D02*
X60181D01*
X62687Y95358D02*
X69790D01*
X55199Y108927D02*
X56956Y107169D01*
X61864Y99010D02*
X63516Y97358D01*
X55199Y112135D02*
X59458Y116394D01*
X60181Y119228D02*
X61089Y118320D01*
X57746Y107169D02*
X59864Y105051D01*
X61089Y117492D02*
Y118320D01*
X67958Y101451D02*
X68987Y102480D01*
X71249D02*
X71835Y101894D01*
X68987Y102480D02*
X71249D01*
X63089Y116663D02*
Y118320D01*
X68961Y97358D02*
X71835Y100232D01*
X56956Y107169D02*
X57746D01*
X59864Y98182D02*
X62687Y95358D01*
X58349Y119910D02*
X59030Y119228D01*
X69790Y95358D02*
X73835Y99403D01*
Y101894D02*
X74420Y102480D01*
X78740D01*
X73835Y99403D02*
Y101894D01*
X59458Y116394D02*
X59991D01*
X60286Y114394D02*
X60820D01*
X71835Y100232D02*
Y101894D01*
X58574Y109169D02*
X61864Y105880D01*
X57785Y109169D02*
X58574D01*
X61864Y99010D02*
Y105880D01*
X63516Y97358D02*
X68961D01*
X66929Y102480D02*
X67958Y101451D01*
X59864Y98182D02*
Y105051D01*
X57199Y109755D02*
X57785Y109169D01*
X60820Y114394D02*
X63089Y116663D01*
X57199Y109755D02*
Y111307D01*
X55199Y108927D02*
Y112135D01*
X57199Y111307D02*
X60286Y114394D01*
X63089Y118320D02*
X63675Y118906D01*
X65148D01*
X65829Y119587D01*
X65698Y129051D02*
X67185D01*
X37185D02*
X38237Y128000D01*
X40704D01*
X41126Y127577D01*
X41748Y120375D02*
Y121162D01*
X42429Y121843D02*
X43903D01*
Y123843D02*
X44488Y123257D01*
Y122429D02*
Y123257D01*
X43903Y121843D02*
X44488Y122429D01*
X41748Y121162D02*
X42429Y121843D01*
X41126Y125567D02*
X42850Y123843D01*
X43903D01*
X41126Y125567D02*
Y127577D01*
X46133Y128000D02*
X47185Y129051D01*
X43548Y128000D02*
X46133D01*
X43126Y127577D02*
X43548Y128000D01*
X43126Y126396D02*
Y127577D01*
Y126396D02*
X43679Y125843D01*
X44731D01*
X46488Y124086D01*
Y122429D02*
X47074Y121843D01*
X46488Y122429D02*
Y124086D01*
X49229Y120375D02*
Y121162D01*
X48547Y121843D02*
X49229Y121162D01*
X47074Y121843D02*
X48547D01*
X49229Y119587D02*
Y120375D01*
X47074Y118906D02*
X48547D01*
X49229Y119587D01*
X46488Y118320D02*
X47074Y118906D01*
Y116906D02*
X47607D01*
X46488Y117492D02*
X47074Y116906D01*
X50213Y103066D02*
Y114301D01*
X47607Y116906D02*
X50213Y114301D01*
X46488Y117492D02*
Y118320D01*
X50798Y102480D02*
X55118D01*
X50213Y103066D02*
X50798Y102480D01*
X44488Y116663D02*
X46246Y114906D01*
X46779D01*
X44488Y116663D02*
Y118320D01*
X42429Y118906D02*
X43903D01*
X44488Y118320D01*
X41748Y119587D02*
X42429Y118906D01*
X41748Y119587D02*
Y120375D01*
X46779Y114906D02*
X48213Y113472D01*
X47627Y102480D02*
X48213Y103066D01*
X43307Y102480D02*
X47627D01*
X48213Y103066D02*
Y113472D01*
D15*
X59055Y54783D02*
D03*
Y66594D02*
D03*
X47244Y54783D02*
D03*
D20*
Y66594D02*
D03*
D21*
X90551Y106181D02*
D03*
X19685D02*
D03*
X70866Y51083D02*
D03*
X35433D02*
D03*
D23*
X68583Y35425D02*
X74684Y41526D01*
Y82915D01*
X66929Y90669D02*
X74684Y82915D01*
X76964Y25425D02*
X77656Y26117D01*
Y89585D01*
X78740Y90669D01*
X68583Y25425D02*
X76964D01*
D24*
X62089Y110911D02*
Y110926D01*
Y110911D02*
X62270Y110730D01*
X65148D01*
X45488Y110911D02*
Y110926D01*
X45307Y110730D02*
X45488Y110911D01*
X40704Y110730D02*
X45307D01*
X25306Y96115D02*
X30463Y90958D01*
X25306Y96115D02*
Y116635D01*
X30315Y121644D01*
Y132181D01*
X37185Y139051D01*
D25*
X48583Y25425D02*
D03*
Y35425D02*
D03*
X38583Y25425D02*
D03*
Y35425D02*
D03*
X57185Y129051D02*
D03*
X67185D02*
D03*
X47185D02*
D03*
X37185D02*
D03*
X67185Y139051D02*
D03*
X57185D02*
D03*
X47185D02*
D03*
X37185D02*
D03*
X68583Y35425D02*
D03*
Y25425D02*
D03*
X58583D02*
D03*
Y35425D02*
D03*
D26*
X78740Y102480D02*
D03*
X66929D02*
D03*
Y90669D02*
D03*
X55118Y90831D02*
D03*
X43307D02*
D03*
X31496D02*
D03*
X55118Y102480D02*
D03*
X43307D02*
D03*
X31496D02*
D03*
D27*
X78740Y90669D02*
D03*
D28*
X90945Y43307D02*
D03*
X16143D02*
D03*
X90946Y134000D02*
D03*
X16143D02*
D03*
D29*
X52209Y96735D02*
D03*
X54586Y120182D02*
D03*
X35919Y120359D02*
D03*
X67523Y74038D02*
D03*
X67473Y60420D02*
D03*
X67972Y67753D02*
D03*
X92115Y71254D02*
D03*
X97295Y64295D02*
D03*
X97242Y79860D02*
D03*
X37229Y96481D02*
D03*
X23076Y83889D02*
D03*
X36926Y84846D02*
D03*
X73139Y108316D02*
D03*
X62260Y145637D02*
D03*
X51683D02*
D03*
X26601Y145133D02*
D03*
X9528Y118188D02*
D03*
X76207Y133438D02*
D03*
X78804Y143039D02*
D03*
X98707Y118926D02*
D03*
X87585Y115791D02*
D03*
X74766Y118934D02*
D03*
X92182Y112418D02*
D03*
Y100607D02*
D03*
Y88796D02*
D03*
X80371Y124229D02*
D03*
Y112418D02*
D03*
X68560D02*
D03*
X21316D02*
D03*
Y100607D02*
D03*
Y88796D02*
D03*
X9505Y112418D02*
D03*
Y100607D02*
D03*
Y88796D02*
D03*
X27989Y55116D02*
D03*
X27977Y27877D02*
D03*
X31054Y75537D02*
D03*
X48713Y75308D02*
D03*
X43126Y75220D02*
D03*
X37833D02*
D03*
X84231Y27281D02*
D03*
X63634Y43021D02*
D03*
X58561Y41778D02*
D03*
X90214Y19898D02*
D03*
X80372D02*
D03*
X60687Y29741D02*
D03*
Y19898D02*
D03*
X50844Y59268D02*
D03*
X41001Y69111D02*
D03*
Y59268D02*
D03*
X31159D02*
D03*
Y49426D02*
D03*
X65148Y110730D02*
D03*
X40704D02*
D03*
X88336Y95500D02*
D03*
Y64004D02*
D03*
Y79752D02*
D03*
X17665Y72330D02*
D03*
X25344Y64004D02*
D03*
X9596Y95500D02*
D03*
Y79752D02*
D03*
X6730Y66129D02*
D03*
X13777Y60155D02*
D03*
D30*
X58349Y120375D02*
D03*
X65829Y120375D02*
D03*
X62089Y110926D02*
D03*
X45488D02*
D03*
X41748Y120375D02*
D03*
X49229D02*
D03*
D31*
X15745Y65864D02*
D03*
X33068D02*
D03*
M02*
