G04*
G04 #@! TF.GenerationSoftware,Altium Limited,DefaultClient, ()*
G04*
G04 Layer_Physical_Order=1*
G04 Layer_Color=255*
G04 Board_Origin=74640005|44270005*
%FSLAX25Y25*%
%MOIN*%
G70*
G04*
G04 #@! TF.SameCoordinates,44F044A5-29FE-4669-802D-0DFAB65FCC90*
G04*
G04*
G04 #@! TF.FilePolarity,Positive*
G04*
G01*
G75*
%ADD15C,0.06181*%
%ADD20R,0.06181X0.06181*%
%ADD21C,0.04016*%
%ADD23C,0.01181*%
%ADD24C,0.02000*%
%ADD25C,0.06496*%
%ADD26C,0.06378*%
%ADD27R,0.06378X0.06378*%
%ADD28C,0.21654*%
%ADD29C,0.02000*%
G36*
X101962Y81615D02*
X101957Y51568D01*
X101481Y51414D01*
X101081Y51964D01*
X99602Y53443D01*
X97910Y54673D01*
X96046Y55623D01*
X94057Y56269D01*
X91991Y56596D01*
X89899D01*
X87833Y56269D01*
X85844Y55623D01*
X83980Y54673D01*
X82288Y53443D01*
X80809Y51964D01*
X79579Y50272D01*
X78629Y48408D01*
X77983Y46419D01*
X77656Y44353D01*
Y42261D01*
X77983Y40195D01*
X78629Y38206D01*
X79579Y36342D01*
X80809Y34650D01*
X82288Y33171D01*
X83980Y31941D01*
X85844Y30992D01*
X87833Y30345D01*
X89899Y30018D01*
X91991D01*
X94057Y30345D01*
X96046Y30992D01*
X97910Y31941D01*
X99602Y33171D01*
X101081Y34650D01*
X101147Y34740D01*
X101607Y34545D01*
X101429Y33519D01*
X100756Y31172D01*
X99837Y28910D01*
X98683Y26758D01*
X97305Y24742D01*
X95720Y22884D01*
X93946Y21206D01*
X92004Y19726D01*
X89915Y18462D01*
X87703Y17428D01*
X86769Y17108D01*
X23693Y17059D01*
X22572Y17310D01*
X20103Y18153D01*
X17742Y19261D01*
X15517Y20621D01*
X13453Y22217D01*
X11577Y24028D01*
X9910Y26034D01*
X8472Y28210D01*
X7281Y30531D01*
X6351Y32968D01*
X6128Y33822D01*
X6578Y34079D01*
X7486Y33171D01*
X9178Y31941D01*
X11042Y30992D01*
X13031Y30345D01*
X15097Y30018D01*
X17189D01*
X19255Y30345D01*
X21244Y30992D01*
X23108Y31941D01*
X24800Y33171D01*
X26280Y34650D01*
X27509Y36342D01*
X28459Y38206D01*
X29105Y40195D01*
X29432Y42261D01*
Y44353D01*
X29105Y46419D01*
X28459Y48408D01*
X27509Y50272D01*
X26280Y51964D01*
X24800Y53443D01*
X23108Y54673D01*
X21244Y55623D01*
X19255Y56269D01*
X17189Y56596D01*
X15537D01*
X15403Y57096D01*
X15903Y57384D01*
X16547Y58029D01*
X17003Y58819D01*
X17239Y59699D01*
Y60611D01*
X17003Y61491D01*
X16547Y62281D01*
X15903Y62925D01*
X15113Y63381D01*
X14233Y63617D01*
X13321D01*
X12440Y63381D01*
X11651Y62925D01*
X11006Y62281D01*
X10550Y61491D01*
X10315Y60611D01*
Y59699D01*
X10550Y58819D01*
X11006Y58029D01*
X11651Y57384D01*
X12440Y56929D01*
X13004Y56778D01*
X13028Y56308D01*
X13004Y56260D01*
X11042Y55623D01*
X9178Y54673D01*
X7486Y53443D01*
X6007Y51964D01*
X5745Y51604D01*
X5269Y51758D01*
Y62419D01*
X5769Y62802D01*
X6274Y62667D01*
X7185D01*
X8066Y62903D01*
X8856Y63359D01*
X9500Y64004D01*
X9956Y64793D01*
X10192Y65674D01*
Y66585D01*
X9956Y67466D01*
X9500Y68255D01*
X8856Y68900D01*
X8066Y69356D01*
X7185Y69592D01*
X6274D01*
X5769Y69456D01*
X5269Y69840D01*
Y81968D01*
X6301D01*
X6590Y81468D01*
X6370Y81088D01*
X6134Y80207D01*
Y79296D01*
X6370Y78415D01*
X6826Y77626D01*
X7470Y76981D01*
X8260Y76525D01*
X9140Y76289D01*
X10052D01*
X10933Y76525D01*
X11722Y76981D01*
X12367Y77626D01*
X12823Y78415D01*
X13058Y79296D01*
Y80207D01*
X12823Y81088D01*
X12603Y81468D01*
X12891Y81968D01*
X20187D01*
X20306Y81763D01*
X20950Y81119D01*
X21740Y80663D01*
X22620Y80427D01*
X23532D01*
X24412Y80663D01*
X25202Y81119D01*
X25846Y81763D01*
X25965Y81968D01*
X27377D01*
X34987D01*
X35590Y81620D01*
X36471Y81384D01*
X37382D01*
X38263Y81620D01*
X38866Y81968D01*
X44041D01*
X85041Y81968D01*
X85330Y81468D01*
X85110Y81088D01*
X84874Y80207D01*
Y79296D01*
X85110Y78415D01*
X85566Y77626D01*
X86211Y76981D01*
X87000Y76525D01*
X87881Y76289D01*
X88792D01*
X89673Y76525D01*
X90462Y76981D01*
X91107Y77626D01*
X91563Y78415D01*
X91799Y79296D01*
Y80207D01*
X91563Y81088D01*
X91343Y81468D01*
X91632Y81968D01*
X93961D01*
X94211Y81536D01*
X94016Y81197D01*
X93780Y80316D01*
Y79404D01*
X94016Y78524D01*
X94472Y77734D01*
X95116Y77090D01*
X95906Y76634D01*
X96786Y76398D01*
X97698D01*
X98578Y76634D01*
X99368Y77090D01*
X100012Y77734D01*
X100468Y78524D01*
X100704Y79404D01*
Y80316D01*
X100468Y81197D01*
X100273Y81536D01*
X100523Y81968D01*
X101608D01*
X101962Y81615D01*
D02*
G37*
%LPC*%
G36*
X18121Y75793D02*
X17209D01*
X16329Y75557D01*
X15539Y75101D01*
X14895Y74456D01*
X14439Y73667D01*
X14203Y72786D01*
Y71875D01*
X14439Y70994D01*
X14895Y70205D01*
X15539Y69560D01*
X16329Y69104D01*
X17209Y68868D01*
X18121D01*
X19002Y69104D01*
X19791Y69560D01*
X20436Y70205D01*
X20891Y70994D01*
X21127Y71875D01*
Y72786D01*
X20891Y73667D01*
X20436Y74456D01*
X19791Y75101D01*
X19002Y75557D01*
X18121Y75793D01*
D02*
G37*
G36*
X67979Y77500D02*
X67067D01*
X66187Y77265D01*
X65397Y76809D01*
X64753Y76164D01*
X64297Y75375D01*
X64061Y74494D01*
Y73583D01*
X64297Y72702D01*
X64753Y71912D01*
X65397Y71268D01*
X65766Y71055D01*
X65811Y70758D01*
X65788Y70465D01*
X65201Y69879D01*
X64746Y69089D01*
X64693Y68893D01*
X64561Y68848D01*
X64164Y68851D01*
X63498Y70004D01*
X62465Y71038D01*
X61198Y71769D01*
X59786Y72147D01*
X58324D01*
X56912Y71769D01*
X55646Y71038D01*
X54612Y70004D01*
X53881Y68738D01*
X53502Y67326D01*
Y65864D01*
X53881Y64451D01*
X54612Y63185D01*
X55646Y62151D01*
X56912Y61420D01*
X58324Y61042D01*
X59786D01*
X61198Y61420D01*
X62465Y62151D01*
X63498Y63185D01*
X64230Y64451D01*
X64570Y65721D01*
X65009Y65828D01*
X65090Y65820D01*
X65201Y65627D01*
X65846Y64982D01*
X66636Y64527D01*
X67175Y64382D01*
X67109Y63882D01*
X67017D01*
X66137Y63646D01*
X65347Y63190D01*
X64703Y62546D01*
X64247Y61756D01*
X64011Y60876D01*
Y59964D01*
X64247Y59084D01*
X64703Y58294D01*
X65347Y57649D01*
X66137Y57194D01*
X67017Y56958D01*
X67929D01*
X68809Y57194D01*
X69599Y57649D01*
X70244Y58294D01*
X70699Y59084D01*
X70935Y59964D01*
Y60876D01*
X70699Y61756D01*
X70244Y62546D01*
X69599Y63190D01*
X68809Y63646D01*
X68270Y63791D01*
X68336Y64291D01*
X68428D01*
X69308Y64527D01*
X70098Y64982D01*
X70742Y65627D01*
X71198Y66417D01*
X71434Y67297D01*
Y68209D01*
X71198Y69089D01*
X70742Y69879D01*
X70098Y70523D01*
X69729Y70736D01*
X69684Y71033D01*
X69707Y71326D01*
X70293Y71912D01*
X70749Y72702D01*
X70985Y73583D01*
Y74494D01*
X70749Y75375D01*
X70293Y76164D01*
X69649Y76809D01*
X68859Y77265D01*
X67979Y77500D01*
D02*
G37*
G36*
X92571Y74716D02*
X91660D01*
X90779Y74480D01*
X89990Y74024D01*
X89345Y73380D01*
X88889Y72590D01*
X88653Y71710D01*
Y70798D01*
X88889Y69918D01*
X89345Y69128D01*
X89990Y68484D01*
X90779Y68028D01*
X91660Y67792D01*
X92571D01*
X93452Y68028D01*
X94241Y68484D01*
X94886Y69128D01*
X95342Y69918D01*
X95578Y70798D01*
Y71710D01*
X95342Y72590D01*
X94886Y73380D01*
X94241Y74024D01*
X93452Y74480D01*
X92571Y74716D01*
D02*
G37*
G36*
X97751Y67757D02*
X96839D01*
X95959Y67521D01*
X95169Y67065D01*
X94525Y66421D01*
X94069Y65631D01*
X93833Y64750D01*
Y63839D01*
X94069Y62958D01*
X94525Y62169D01*
X95169Y61524D01*
X95959Y61068D01*
X96839Y60833D01*
X97751D01*
X98631Y61068D01*
X99421Y61524D01*
X100066Y62169D01*
X100521Y62958D01*
X100757Y63839D01*
Y64750D01*
X100521Y65631D01*
X100066Y66421D01*
X99421Y67065D01*
X98631Y67521D01*
X97751Y67757D01*
D02*
G37*
G36*
X88792Y67466D02*
X87881D01*
X87000Y67230D01*
X86211Y66774D01*
X85566Y66129D01*
X85110Y65340D01*
X84874Y64459D01*
Y63548D01*
X85110Y62667D01*
X85566Y61878D01*
X86211Y61233D01*
X87000Y60777D01*
X87881Y60541D01*
X88792D01*
X89673Y60777D01*
X90462Y61233D01*
X91107Y61878D01*
X91563Y62667D01*
X91799Y63548D01*
Y64459D01*
X91563Y65340D01*
X91107Y66129D01*
X90462Y66774D01*
X89673Y67230D01*
X88792Y67466D01*
D02*
G37*
G36*
X25800D02*
X24889D01*
X24008Y67230D01*
X23219Y66774D01*
X22574Y66129D01*
X22118Y65340D01*
X21882Y64459D01*
Y63548D01*
X22118Y62667D01*
X22574Y61878D01*
X23219Y61233D01*
X24008Y60777D01*
X24889Y60541D01*
X25800D01*
X26681Y60777D01*
X27470Y61233D01*
X28115Y61878D01*
X28571Y62667D01*
X28806Y63548D01*
Y64459D01*
X28571Y65340D01*
X28115Y66129D01*
X27470Y66774D01*
X26681Y67230D01*
X25800Y67466D01*
D02*
G37*
G36*
X59786Y60336D02*
X58324D01*
X56912Y59958D01*
X55646Y59227D01*
X54612Y58193D01*
X53881Y56927D01*
X53502Y55515D01*
Y54052D01*
X53881Y52640D01*
X54612Y51374D01*
X55646Y50340D01*
X56912Y49609D01*
X58324Y49231D01*
X59786D01*
X61198Y49609D01*
X62465Y50340D01*
X63498Y51374D01*
X64230Y52640D01*
X64608Y54052D01*
Y55515D01*
X64230Y56927D01*
X63498Y58193D01*
X62465Y59227D01*
X61198Y59958D01*
X59786Y60336D01*
D02*
G37*
G36*
X71262Y54090D02*
X70470D01*
X69705Y53886D01*
X69019Y53490D01*
X68459Y52930D01*
X68063Y52244D01*
X67858Y51479D01*
Y50687D01*
X68063Y49922D01*
X68459Y49236D01*
X69019Y48676D01*
X69705Y48280D01*
X70470Y48075D01*
X71262D01*
X72027Y48280D01*
X72713Y48676D01*
X73273Y49236D01*
X73669Y49922D01*
X73874Y50687D01*
Y51479D01*
X73669Y52244D01*
X73273Y52930D01*
X72713Y53490D01*
X72027Y53886D01*
X71262Y54090D01*
D02*
G37*
G36*
X35829D02*
X35037D01*
X34272Y53886D01*
X33586Y53490D01*
X33026Y52930D01*
X32630Y52244D01*
X32425Y51479D01*
Y50687D01*
X32630Y49922D01*
X33026Y49236D01*
X33586Y48676D01*
X34272Y48280D01*
X35037Y48075D01*
X35829D01*
X36594Y48280D01*
X37280Y48676D01*
X37840Y49236D01*
X38236Y49922D01*
X38441Y50687D01*
Y51479D01*
X38236Y52244D01*
X37840Y52930D01*
X37280Y53490D01*
X36594Y53886D01*
X35829Y54090D01*
D02*
G37*
G36*
X69335Y41135D02*
X67831D01*
X66379Y40746D01*
X65077Y39994D01*
X64013Y38931D01*
X63262Y37629D01*
X62872Y36177D01*
Y34673D01*
X63262Y33221D01*
X64013Y31919D01*
X65077Y30856D01*
X65390Y30675D01*
Y30175D01*
X65077Y29994D01*
X64013Y28931D01*
X63262Y27629D01*
X62872Y26177D01*
Y24673D01*
X63262Y23221D01*
X64013Y21919D01*
X65077Y20856D01*
X66379Y20104D01*
X67831Y19715D01*
X69335D01*
X70787Y20104D01*
X72089Y20856D01*
X73152Y21919D01*
X73904Y23221D01*
X74293Y24673D01*
Y26177D01*
X73904Y27629D01*
X73152Y28931D01*
X72089Y29994D01*
X71776Y30175D01*
Y30675D01*
X72089Y30856D01*
X73152Y31919D01*
X73904Y33221D01*
X74293Y34673D01*
Y36177D01*
X73904Y37629D01*
X73152Y38931D01*
X72089Y39994D01*
X70787Y40746D01*
X69335Y41135D01*
D02*
G37*
G36*
X39334D02*
X37831D01*
X36379Y40746D01*
X35076Y39994D01*
X34013Y38931D01*
X33262Y37629D01*
X32872Y36177D01*
Y34673D01*
X33262Y33221D01*
X34013Y31919D01*
X35076Y30856D01*
X35390Y30675D01*
Y30175D01*
X35076Y29994D01*
X34013Y28931D01*
X33262Y27629D01*
X32872Y26177D01*
Y24673D01*
X33262Y23221D01*
X34013Y21919D01*
X35076Y20856D01*
X36379Y20104D01*
X37831Y19715D01*
X39334D01*
X40787Y20104D01*
X42089Y20856D01*
X43152Y21919D01*
X43333Y22232D01*
X43833D01*
X44013Y21919D01*
X45077Y20856D01*
X46379Y20104D01*
X47831Y19715D01*
X49334D01*
X50787Y20104D01*
X52089Y20856D01*
X53152Y21919D01*
X53904Y23221D01*
X54293Y24673D01*
Y26177D01*
X53904Y27629D01*
X53152Y28931D01*
X52089Y29994D01*
X50787Y30746D01*
X49334Y31135D01*
X47831D01*
X46379Y30746D01*
X45077Y29994D01*
X44013Y28931D01*
X43833Y28618D01*
X43333D01*
X43152Y28931D01*
X42089Y29994D01*
X41776Y30175D01*
Y30675D01*
X42089Y30856D01*
X43152Y31919D01*
X43904Y33221D01*
X44293Y34673D01*
Y36177D01*
X43904Y37629D01*
X43152Y38931D01*
X42089Y39994D01*
X40787Y40746D01*
X39334Y41135D01*
D02*
G37*
%LPD*%
D15*
X59055Y54783D02*
D03*
Y66594D02*
D03*
X47244Y54783D02*
D03*
D20*
Y66594D02*
D03*
D21*
X90551Y106181D02*
D03*
X19685D02*
D03*
X70866Y51083D02*
D03*
X35433D02*
D03*
D23*
X49123Y113380D02*
X52024Y116280D01*
Y133890D01*
X48496Y96020D02*
X49123Y113380D01*
X43307Y90831D02*
X48496Y96020D01*
X52024Y133890D02*
X57185Y139051D01*
X67185D02*
X72024Y134213D01*
Y124366D02*
Y134213D01*
X61195Y113537D02*
X72024Y124366D01*
X61195Y96908D02*
Y113537D01*
X55118Y90831D02*
X61195Y96908D01*
D24*
X31496Y100595D02*
Y144498D01*
X32668Y145669D01*
X40567D01*
X47185Y139051D01*
D25*
X48583Y25425D02*
D03*
Y35425D02*
D03*
X38583Y25425D02*
D03*
Y35425D02*
D03*
X57185Y129051D02*
D03*
X67185D02*
D03*
X47185D02*
D03*
X37185D02*
D03*
X67185Y139051D02*
D03*
X57185D02*
D03*
X47185D02*
D03*
X37185D02*
D03*
X68583Y35425D02*
D03*
Y25425D02*
D03*
X58583D02*
D03*
Y35425D02*
D03*
D26*
X78740Y102480D02*
D03*
X66929D02*
D03*
Y90669D02*
D03*
X55118Y90831D02*
D03*
X43307D02*
D03*
X31496D02*
D03*
X55118Y102480D02*
D03*
X43307D02*
D03*
X31496D02*
D03*
D27*
X78740Y90669D02*
D03*
D28*
X90945Y43307D02*
D03*
X16143D02*
D03*
X90946Y134000D02*
D03*
X16143D02*
D03*
D29*
X52209Y96735D02*
D03*
X54586Y120182D02*
D03*
X35919Y120359D02*
D03*
X67523Y74038D02*
D03*
X67473Y60420D02*
D03*
X67972Y67753D02*
D03*
X92115Y71254D02*
D03*
X97295Y64295D02*
D03*
X97242Y79860D02*
D03*
X37229Y96481D02*
D03*
X23076Y83889D02*
D03*
X36926Y84846D02*
D03*
X73139Y108316D02*
D03*
X62260Y145637D02*
D03*
X51683D02*
D03*
X26601Y145133D02*
D03*
X9528Y118188D02*
D03*
X76207Y133438D02*
D03*
X78804Y143039D02*
D03*
X98707Y118926D02*
D03*
X87585Y115791D02*
D03*
X74766Y118934D02*
D03*
X92182Y112418D02*
D03*
Y100607D02*
D03*
Y88796D02*
D03*
X80371Y124229D02*
D03*
Y112418D02*
D03*
X68560D02*
D03*
X21316D02*
D03*
Y100607D02*
D03*
Y88796D02*
D03*
X9505Y112418D02*
D03*
Y100607D02*
D03*
Y88796D02*
D03*
X27989Y55116D02*
D03*
X27977Y27877D02*
D03*
X31054Y75537D02*
D03*
X48713Y75308D02*
D03*
X43126Y75220D02*
D03*
X37833D02*
D03*
X84231Y27281D02*
D03*
X63634Y43021D02*
D03*
X58561Y41778D02*
D03*
X90214Y19898D02*
D03*
X80372D02*
D03*
X60687Y29741D02*
D03*
Y19898D02*
D03*
X50844Y59268D02*
D03*
X41001Y69111D02*
D03*
Y59268D02*
D03*
X31159D02*
D03*
Y49426D02*
D03*
X65148Y110730D02*
D03*
X40704D02*
D03*
X88336Y95500D02*
D03*
Y64004D02*
D03*
Y79752D02*
D03*
X17665Y72330D02*
D03*
X25344Y64004D02*
D03*
X9596Y95500D02*
D03*
Y79752D02*
D03*
X6730Y66129D02*
D03*
X13777Y60155D02*
D03*
M02*
