G04*
G04 #@! TF.GenerationSoftware,Altium Limited,DefaultClient, ()*
G04*
G04 Layer_Color=65535*
G04 Board_Origin=74640005|44270005*
%FSLAX25Y25*%
%MOIN*%
G70*
G04*
G04 #@! TF.SameCoordinates,44F044A5-29FE-4669-802D-0DFAB65FCC90*
G04*
G04*
G04 #@! TF.FilePolarity,Positive*
G04*
G01*
G75*
%ADD10C,0.00984*%
%ADD11C,0.01000*%
%ADD12C,0.00787*%
%ADD13C,0.00669*%
%ADD14C,0.00512*%
D10*
X97933Y81693D02*
G03*
X97933Y81693I-492J0D01*
G01*
X30807Y66594D02*
G03*
X30807Y66594I-492J0D01*
G01*
D11*
X16382Y79921D02*
Y116710D01*
Y79921D02*
X94042D01*
X16382Y116710D02*
X94042D01*
Y79921D02*
Y116710D01*
X81030Y67695D02*
X95463D01*
X80716Y73576D02*
X82677D01*
X80716Y71614D02*
Y73576D01*
Y61548D02*
Y71614D01*
X82677Y73576D02*
X95868D01*
X88036Y62019D02*
Y73230D01*
X95868Y61765D02*
Y73576D01*
X80716Y61548D02*
X95651D01*
X26559Y58932D02*
X20561D01*
Y61931D01*
X21561Y62930D01*
X23560D01*
X24559Y61931D01*
Y58932D01*
X20561Y64930D02*
X26559D01*
X24559Y66929D01*
X26559Y68928D01*
X20561D01*
X26559Y70928D02*
X20561D01*
Y73927D01*
X21561Y74927D01*
X23560D01*
X24559Y73927D01*
Y70928D01*
Y72927D02*
X26559Y74927D01*
X7841Y100093D02*
Y96094D01*
X13839D01*
Y100093D01*
X10840Y96094D02*
Y98093D01*
X7841Y102092D02*
Y106091D01*
Y104091D01*
X13839D01*
X7841Y108090D02*
X13839D01*
X10840D01*
Y112089D01*
X7841D01*
X13839D01*
D12*
X32677Y40807D02*
X73622D01*
X32677Y54567D02*
Y77303D01*
Y40807D02*
Y47598D01*
Y77303D02*
X73622D01*
Y54567D02*
Y77303D01*
Y40807D02*
Y47598D01*
D13*
X83346Y70325D02*
X85970D01*
X84658Y71636D02*
Y69013D01*
X91218Y70325D02*
X93842D01*
X83346Y63995D02*
X85970D01*
X84658Y65307D02*
Y62683D01*
X91218Y63995D02*
X93842D01*
D14*
X100260Y103275D02*
X97899D01*
Y102094D01*
X98292Y101701D01*
X99867D01*
X100260Y102094D01*
Y103275D01*
X97899Y100913D02*
X99473D01*
X100260Y100126D01*
X99473Y99339D01*
X97899D01*
X99080D01*
Y100913D01*
X97899Y98552D02*
X100260D01*
Y97371D01*
X99867Y96978D01*
X99080D01*
X98686Y97371D01*
Y98552D01*
Y97765D02*
X97899Y96978D01*
X99867Y94616D02*
X100260Y95010D01*
Y95797D01*
X99867Y96191D01*
X98292D01*
X97899Y95797D01*
Y95010D01*
X98292Y94616D01*
X100260Y93829D02*
X99867D01*
X99080Y93042D01*
X99867Y92255D01*
X100260D01*
X99080Y93042D02*
X97899D01*
X10743Y63145D02*
X13104D01*
Y64326D01*
X12711Y64720D01*
X11136D01*
X10743Y64326D01*
Y63145D01*
X13104Y65507D02*
X11530D01*
X10743Y66294D01*
X11530Y67081D01*
X13104D01*
X11924D01*
Y65507D01*
X13104Y67868D02*
X10743D01*
Y69049D01*
X11136Y69443D01*
X11924D01*
X12317Y69049D01*
Y67868D01*
Y68655D02*
X13104Y69443D01*
X11136Y71804D02*
X10743Y71410D01*
Y70623D01*
X11136Y70230D01*
X12711D01*
X13104Y70623D01*
Y71410D01*
X12711Y71804D01*
X10743Y72591D02*
X11136D01*
X11924Y73378D01*
X11136Y74165D01*
X10743D01*
X11924Y73378D02*
X13104D01*
M02*
