G04*
G04 #@! TF.GenerationSoftware,Altium Limited,DefaultClient, ()*
G04*
G04 Layer_Color=255*
G04 Board_Origin=74640005|44270005*
%FSLAX25Y25*%
%MOIN*%
G70*
G04*
G04 #@! TF.SameCoordinates,44F044A5-29FE-4669-802D-0DFAB65FCC90*
G04*
G04*
G04 #@! TF.FilePolarity,Positive*
G04*
G01*
G75*
%ADD15C,0.06181*%
%ADD20R,0.06181X0.06181*%
%ADD21C,0.04016*%
%ADD25C,0.06496*%
%ADD26C,0.06378*%
%ADD27R,0.06378X0.06378*%
%ADD28C,0.21654*%
D15*
X59055Y54783D02*
D03*
Y66594D02*
D03*
X47244Y54783D02*
D03*
D20*
Y66594D02*
D03*
D21*
X90551Y106181D02*
D03*
X19685D02*
D03*
X70866Y51083D02*
D03*
X35433D02*
D03*
D25*
X48583Y25425D02*
D03*
Y35425D02*
D03*
X38583Y25425D02*
D03*
Y35425D02*
D03*
X57185Y129051D02*
D03*
X67185D02*
D03*
X47185D02*
D03*
X37185D02*
D03*
X67185Y139051D02*
D03*
X57185D02*
D03*
X47185D02*
D03*
X37185D02*
D03*
X68583Y35425D02*
D03*
Y25425D02*
D03*
X58583D02*
D03*
Y35425D02*
D03*
D26*
X78740Y102480D02*
D03*
X66929D02*
D03*
Y90669D02*
D03*
X55118Y90831D02*
D03*
X43307D02*
D03*
X31496D02*
D03*
X55118Y102480D02*
D03*
X43307D02*
D03*
X31496D02*
D03*
D27*
X78740Y90669D02*
D03*
D28*
X90945Y43307D02*
D03*
X16143D02*
D03*
X90946Y134000D02*
D03*
X16143D02*
D03*
M02*
