<svg color="#157f91" fill="#157f91" stroke="#157f91" version="1.1" xmlns="http://www.w3.org/2000/svg" xmlns:xlink="http://www.w3.org/1999/xlink" stroke-linecap="round" stroke-linejoin="round" stroke-width="0" fill-rule="evenodd" width="4.26in" height="3.76in" viewBox="7459 4382.63 4260 3760"><defs><mask id="nM5Y4BVtV5jg_clear-1" fill="#000" stroke="#000"><g><rect x="7474.2" y="4397.82" width="4229.6" height="3729.61" fill="#fff"/><path d="M 10376.3 7981.22 10369.65 7981.22 10363.5 7978.67 10358.79 7973.97 10356.24 7967.82 10356.24 7961.16 10358.79 7955.01 10363.5 7950.3 10369.65 7947.75 10376.3 7947.75 10382.45 7950.3 10387.16 7955.01 10389.71 7961.16 10389.71 7967.82 10387.16 7973.97 10382.45 7978.67 10376.3 7981.22"/><path d="M 9119.03 7922.39 9112.37 7922.39 9106.22 7919.85 9101.52 7915.14 9098.97 7908.99 9098.97 7902.33 9101.52 7896.18 9106.22 7891.48 9112.37 7888.93 9119.03 7888.93 9125.18 7891.48 9129.89 7896.18 9132.43 7902.33 9132.43 7908.99 9129.89 7915.14 9125.18 7919.85 9119.03 7922.39"/><path d="M 8722.56 8004.56 8709.38 8004.56 8696.45 8001.99 8684.27 7996.94 8673.3 7989.62 8663.98 7980.3 8656.66 7969.33 8651.61 7957.15 8649.04 7944.22 8649.04 7931.04 8651.61 7918.11 8656.66 7905.93 8663.98 7894.97 8673.3 7885.64 8684.27 7878.32 8696.45 7873.27 8709.38 7870.7 8722.56 7870.7 8735.49 7873.27 8747.67 7878.32 8758.63 7885.64 8767.96 7894.97 8775.28 7905.93 8780.33 7918.11 8782.9 7931.04 8782.9 7944.22 8780.33 7957.15 8775.28 7969.33 8767.96 7980.3 8758.63 7989.62 8747.67 7996.94 8735.49 8001.99 8722.56 8004.56"/><path d="M 8201.62 8004.56 8188.43 8004.56 8175.5 8001.99 8163.32 7996.94 8152.36 7989.62 8143.04 7980.3 8135.71 7969.33 8130.67 7957.15 8128.09 7944.22 8128.09 7931.04 8130.67 7918.11 8135.71 7905.93 8143.04 7894.97 8152.36 7885.64 8163.32 7878.32 8175.5 7873.27 8188.43 7870.7 8201.62 7870.7 8214.55 7873.27 8226.73 7878.32 8237.69 7885.64 8247.01 7894.97 8254.34 7905.93 8259.38 7918.11 8261.95 7931.04 8261.95 7944.22 8259.38 7957.15 8254.34 7969.33 8247.01 7980.3 8237.69 7989.62 8226.73 7996.94 8214.55 8001.99 8201.62 8004.56"/><path d="M 10847.58 7895.91 10840.92 7895.91 10834.77 7893.36 10830.06 7888.65 10827.52 7882.5 10827.52 7875.85 10830.06 7869.7 10834.77 7864.99 10840.92 7862.44 10847.58 7862.44 10853.73 7864.99 10858.43 7869.7 10860.98 7875.85 10860.98 7882.5 10858.43 7888.65 10853.73 7893.36 10847.58 7895.91"/><path d="M 11367.53 7902.75 11350.47 7902.75 11333.74 7899.42 11317.97 7892.89 11303.79 7883.41 11291.72 7871.35 11282.24 7857.16 11275.71 7841.4 11272.39 7824.67 11272.39 7807.6 11275.71 7790.87 11282.24 7775.11 11291.72 7760.92 11303.79 7748.86 11317.97 7739.38 11333.74 7732.85 11350.47 7729.52 11367.53 7729.52 11384.26 7732.85 11400.03 7739.38 11414.21 7748.86 11426.28 7760.92 11435.76 7775.11 11442.29 7790.87 11445.61 7807.6 11445.61 7824.67 11442.29 7841.4 11435.76 7857.16 11426.28 7871.35 11414.21 7883.41 11400.03 7892.89 11384.26 7899.42 11367.53 7902.75"/><path d="M 10217.53 7902.75 10200.47 7902.75 10183.74 7899.42 10167.97 7892.89 10153.79 7883.41 10141.72 7871.35 10132.24 7857.16 10125.71 7841.4 10122.39 7824.67 10122.39 7807.6 10125.71 7790.87 10132.24 7775.11 10141.72 7760.92 10153.79 7748.86 10167.97 7739.38 10183.74 7732.85 10200.47 7729.52 10217.53 7729.52 10234.26 7732.85 10250.03 7739.38 10264.21 7748.86 10276.28 7760.92 10285.76 7775.11 10292.29 7790.87 10295.61 7807.6 10295.61 7824.67 10292.29 7841.4 10285.76 7857.16 10276.28 7871.35 10264.21 7883.41 10250.03 7892.89 10234.26 7899.42 10217.53 7902.75"/><path d="M 8662.36 7808.89 8651.47 7808.89 8640.96 7806.07 8631.53 7800.63 8623.83 7792.93 8618.39 7783.51 8615.57 7772.99 8615.57 7762.11 8618.39 7751.6 8623.83 7742.17 8631.53 7734.47 8640.96 7729.03 8651.47 7726.21 8662.36 7726.21 8672.87 7729.03 8682.3 7734.47 8689.99 7742.17 8695.43 7751.6 8698.25 7762.11 8698.25 7772.99 8695.43 7783.51 8689.99 7792.93 8682.3 7800.63 8672.87 7806.07 8662.36 7808.89"/><path d="M 8141.41 7808.89 8130.53 7808.89 8120.01 7806.07 8110.59 7800.63 8102.89 7792.93 8097.45 7783.51 8094.63 7772.99 8094.63 7762.11 8097.45 7751.6 8102.89 7742.17 8110.59 7734.47 8120.01 7729.03 8130.53 7726.21 8141.41 7726.21 8151.93 7729.03 8161.35 7734.47 8169.05 7742.17 8174.49 7751.6 8177.31 7762.11 8177.31 7772.99 8174.49 7783.51 8169.05 7792.93 8161.35 7800.63 8151.93 7806.07 8141.41 7808.89"/><path d="M 8662.36 7690.78 8651.47 7690.78 8640.96 7687.96 8631.53 7682.52 8623.83 7674.82 8618.39 7665.4 8615.57 7654.88 8615.57 7644 8618.39 7633.48 8623.83 7624.06 8631.53 7616.36 8640.96 7610.92 8651.47 7608.1 8662.36 7608.1 8672.87 7610.92 8682.3 7616.36 8689.99 7624.06 8695.43 7633.48 8698.25 7644 8698.25 7654.88 8695.43 7665.4 8689.99 7674.82 8682.3 7682.52 8672.87 7687.96 8662.36 7690.78"/><path d="M 8141.41 7690.78 8130.53 7690.78 8120.01 7687.96 8110.59 7682.52 8102.89 7674.82 8097.45 7665.4 8094.63 7654.88 8094.63 7644 8097.45 7633.48 8102.89 7624.06 8110.59 7616.36 8120.01 7610.92 8130.53 7608.1 8141.41 7608.1 8151.93 7610.92 8161.35 7616.36 8169.05 7624.06 8174.49 7633.48 8177.31 7644 8177.31 7654.88 8174.49 7665.4 8169.05 7674.82 8161.35 7682.52 8151.93 7687.96 8141.41 7690.78"/><path d="M 11128.99 7679.01 11119.01 7679.01 11109.38 7676.43 11100.75 7671.44 11093.69 7664.39 11088.71 7655.75 11086.13 7646.12 11086.13 7636.15 11088.71 7626.51 11093.69 7617.88 11100.75 7610.83 11109.38 7605.84 11119.01 7603.26 11128.99 7603.26 11138.62 7605.84 11147.25 7610.83 11154.31 7617.88 11159.29 7626.51 11161.87 7636.15 11161.87 7646.12 11159.29 7655.75 11154.31 7664.39 11147.25 7671.44 11138.62 7676.43 11128.99 7679.01"/><path d="M 11028.99 7679.01 11019.01 7679.01 11009.38 7676.43 11000.74 7671.44 10993.69 7664.39 10988.71 7655.75 10986.13 7646.12 10986.13 7636.15 10988.71 7626.51 10993.69 7617.88 11000.74 7610.83 11009.38 7605.84 11019.01 7603.26 11028.99 7603.26 11038.62 7605.84 11047.25 7610.83 11054.31 7617.88 11059.29 7626.51 11061.87 7636.15 11061.87 7646.12 11059.29 7655.75 11054.31 7664.39 11047.25 7671.44 11038.62 7676.43 11028.99 7679.01"/><path d="M 10928.99 7679.01 10919.01 7679.01 10909.38 7676.43 10900.75 7671.44 10893.69 7664.39 10888.71 7655.75 10886.13 7646.12 10886.13 7636.15 10888.71 7626.51 10893.69 7617.88 10900.75 7610.83 10909.38 7605.84 10919.01 7603.26 10928.99 7603.26 10938.62 7605.84 10947.26 7610.83 10954.31 7617.88 10959.29 7626.51 10961.87 7636.15 10961.87 7646.12 10959.29 7655.75 10954.31 7664.39 10947.26 7671.44 10938.62 7676.43 10928.99 7679.01"/><path d="M 10728.99 7679.01 10719.01 7679.01 10709.38 7676.43 10700.74 7671.44 10693.69 7664.39 10688.71 7655.75 10686.13 7646.12 10686.13 7636.15 10688.71 7626.51 10693.69 7617.88 10700.74 7610.83 10709.38 7605.84 10719.01 7603.26 10728.99 7603.26 10738.62 7605.84 10747.26 7610.83 10754.31 7617.88 10759.29 7626.51 10761.87 7636.15 10761.87 7646.12 10759.29 7655.75 10754.31 7664.39 10747.26 7671.44 10738.62 7676.43 10728.99 7679.01"/><path d="M 10628.99 7679.01 10619.01 7679.01 10609.38 7676.43 10600.75 7671.44 10593.69 7664.39 10588.71 7655.75 10586.13 7646.12 10586.13 7636.15 10588.71 7626.51 10593.69 7617.88 10600.75 7610.83 10609.38 7605.84 10619.01 7603.26 10628.99 7603.26 10638.62 7605.84 10647.25 7610.83 10654.31 7617.88 10659.29 7626.51 10661.87 7636.15 10661.87 7646.12 10659.29 7655.75 10654.31 7664.39 10647.25 7671.44 10638.62 7676.43 10628.99 7679.01"/><path d="M 10528.99 7679.01 10519.01 7679.01 10509.38 7676.43 10500.74 7671.44 10493.69 7664.39 10488.71 7655.75 10486.13 7646.12 10486.13 7636.15 10488.71 7626.51 10493.69 7617.88 10500.74 7610.83 10509.38 7605.84 10519.01 7603.26 10528.99 7603.26 10538.62 7605.84 10547.25 7610.83 10554.31 7617.88 10559.29 7626.51 10561.87 7636.15 10561.87 7646.12 10559.29 7655.75 10554.31 7664.39 10547.25 7671.44 10538.62 7676.43 10528.99 7679.01"/><path d="M 9568.79 7862.36 9548.34 7862.36 9528.14 7859.16 9508.69 7852.84 9490.47 7843.55 9473.93 7831.53 9459.47 7817.07 9447.45 7800.53 9438.16 7782.31 9431.84 7762.86 9428.65 7742.66 9428.65 7722.21 9431.84 7702.01 9438.16 7682.56 9447.45 7664.34 9459.47 7647.8 9473.93 7633.34 9490.47 7621.32 9508.69 7612.03 9528.14 7605.71 9548.34 7602.51 9568.79 7602.51 9588.99 7605.71 9608.44 7612.03 9626.66 7621.32 9643.2 7633.34 9657.67 7647.8 9669.69 7664.34 9678.97 7682.56 9685.29 7702.01 9688.49 7722.21 9688.49 7742.66 9685.29 7762.86 9678.97 7782.31 9669.69 7800.53 9657.67 7817.07 9643.2 7831.53 9626.66 7843.55 9608.44 7852.84 9588.99 7859.16 9568.79 7862.36"/><path d="M 7639.66 7862.36 7619.21 7862.36 7599.01 7859.16 7579.56 7852.84 7561.34 7843.55 7544.8 7831.53 7530.33 7817.07 7518.31 7800.53 7509.03 7782.31 7502.71 7762.86 7499.51 7742.66 7499.51 7722.21 7502.71 7702.01 7509.03 7682.56 7518.31 7664.34 7530.33 7647.8 7544.8 7633.34 7561.34 7621.32 7579.56 7612.03 7599.01 7605.71 7619.21 7602.51 7639.66 7602.51 7659.86 7605.71 7679.31 7612.03 7697.53 7621.32 7714.07 7633.34 7728.53 7647.8 7740.55 7664.34 7749.84 7682.56 7756.16 7702.01 7759.36 7722.21 7759.36 7742.66 7756.16 7762.86 7749.84 7782.31 7740.55 7800.53 7728.53 7817.07 7714.07 7831.53 7697.53 7843.55 7679.31 7852.84 7659.86 7859.16 7639.66 7862.36"/><path d="M 9005.61 7623.7 8998.96 7623.7 8992.81 7621.15 8988.1 7616.45 8985.55 7610.3 8985.55 7603.64 8988.1 7597.49 8992.81 7592.78 8998.96 7590.24 9005.61 7590.24 9011.76 7592.78 9016.47 7597.49 9019.02 7603.64 9019.02 7610.3 9016.47 7616.45 9011.76 7621.15 9005.61 7623.7"/><path d="M 9066.4 7621.13 9059.74 7621.13 9053.59 7618.58 9048.89 7613.87 9046.34 7607.72 9046.34 7601.07 9048.89 7594.92 9053.59 7590.21 9059.74 7587.66 9066.4 7587.66 9072.55 7590.21 9077.26 7594.92 9079.8 7601.07 9079.8 7607.72 9077.26 7613.87 9072.55 7618.58 9066.4 7621.13"/><path d="M 11128.99 7579.01 11119.01 7579.01 11109.38 7576.43 11100.75 7571.44 11093.69 7564.39 11088.71 7555.75 11086.13 7546.12 11086.13 7536.15 11088.71 7526.52 11093.69 7517.88 11100.75 7510.83 11109.38 7505.84 11119.01 7503.26 11128.99 7503.26 11138.62 7505.84 11147.25 7510.83 11154.31 7517.88 11159.29 7526.52 11161.87 7536.15 11161.87 7546.12 11159.29 7555.75 11154.31 7564.39 11147.25 7571.44 11138.62 7576.43 11128.99 7579.01"/><path d="M 11028.99 7579.01 11019.01 7579.01 11009.38 7576.43 11000.74 7571.44 10993.69 7564.39 10988.71 7555.75 10986.13 7546.12 10986.13 7536.15 10988.71 7526.52 10993.69 7517.88 11000.74 7510.83 11009.38 7505.84 11019.01 7503.26 11028.99 7503.26 11038.62 7505.84 11047.25 7510.83 11054.31 7517.88 11059.29 7526.52 11061.87 7536.15 11061.87 7546.12 11059.29 7555.75 11054.31 7564.39 11047.25 7571.44 11038.62 7576.43 11028.99 7579.01"/><path d="M 10928.99 7579.01 10919.01 7579.01 10909.38 7576.43 10900.75 7571.44 10893.69 7564.39 10888.71 7555.75 10886.13 7546.12 10886.13 7536.15 10888.71 7526.52 10893.69 7517.88 10900.75 7510.83 10909.38 7505.84 10919.01 7503.26 10928.99 7503.26 10938.62 7505.84 10947.26 7510.83 10954.31 7517.88 10959.29 7526.52 10961.87 7536.15 10961.87 7546.12 10959.29 7555.75 10954.31 7564.39 10947.26 7571.44 10938.62 7576.43 10928.99 7579.01"/><path d="M 10628.99 7579.01 10619.01 7579.01 10609.38 7576.43 10600.75 7571.44 10593.69 7564.39 10588.71 7555.75 10586.13 7546.12 10586.13 7536.15 10588.71 7526.52 10593.69 7517.88 10600.75 7510.83 10609.38 7505.84 10619.01 7503.26 10628.99 7503.26 10638.62 7505.84 10647.25 7510.83 10654.31 7517.88 10659.29 7526.52 10661.87 7536.15 10661.87 7546.12 10659.29 7555.75 10654.31 7564.39 10647.25 7571.44 10638.62 7576.43 10628.99 7579.01"/><path d="M 10528.99 7579.01 10519.01 7579.01 10509.38 7576.43 10500.74 7571.44 10493.69 7564.39 10488.71 7555.75 10486.13 7546.12 10486.13 7536.15 10488.71 7526.52 10493.69 7517.88 10500.74 7510.83 10509.38 7505.84 10519.01 7503.26 10528.99 7503.26 10538.62 7505.84 10547.25 7510.83 10554.31 7517.88 10559.29 7526.52 10561.87 7536.15 10561.87 7546.12 10559.29 7555.75 10554.31 7564.39 10547.25 7571.44 10538.62 7576.43 10528.99 7579.01"/><path d="M 7684.42 7578.58 7674.45 7578.58 7664.81 7575.99 7656.18 7571.01 7649.13 7563.96 7644.14 7555.32 7641.56 7545.69 7641.56 7535.72 7644.14 7526.08 7649.13 7517.45 7656.18 7510.4 7664.81 7505.41 7674.45 7502.83 7684.42 7502.83 7694.05 7505.41 7702.69 7510.4 7709.74 7517.45 7714.73 7526.08 7717.31 7535.72 7717.31 7545.69 7714.73 7555.32 7709.74 7563.96 7702.69 7571.01 7694.05 7575.99 7684.42 7578.58"/><path d="M 7617.31 7578.58 7541.56 7578.58 7541.56 7502.83 7617.31 7502.83 7617.31 7578.58"/><path d="M 9766.23 7503.52 9759.57 7503.52 9753.42 7500.98 9752.56 7500.11 9747.41 7497.05 9742.27 7500.11 9741.4 7500.98 9735.25 7503.52 9728.6 7503.52 9722.45 7500.98 9717.74 7496.27 9715.19 7490.12 9715.19 7483.46 9717.74 7477.31 9722.45 7472.61 9728.6 7470.06 9735.25 7470.06 9741.4 7472.61 9742.27 7473.47 9747.41 7476.54 9752.56 7473.47 9753.42 7472.61 9759.57 7470.06 9766.23 7470.06 9772.38 7472.61 9777.09 7477.31 9779.63 7483.46 9779.63 7490.12 9777.09 7496.27 9772.38 7500.98 9766.23 7503.52"/><path d="M 11378.78 7447.12 11372.13 7447.12 11365.98 7444.57 11361.27 7439.87 11358.72 7433.71 11358.72 7427.06 11360.39 7423.04 11355.42 7416.89 11355.14 7416.69 11351.67 7418.13 11345.01 7418.13 11338.86 7415.59 11334.15 7410.88 11331.61 7404.73 11331.61 7398.07 11334.15 7391.92 11338.86 7387.22 11345.01 7384.67 11351.67 7384.67 11357.82 7387.22 11362.52 7391.92 11365.07 7398.07 11365.07 7404.73 11363.41 7408.74 11368.37 7414.9 11368.65 7415.09 11372.13 7413.65 11378.78 7413.65 11384.93 7416.2 11389.64 7420.91 11392.19 7427.06 11392.19 7433.71 11389.64 7439.87 11384.93 7444.57 11378.78 7447.12"/><path d="M 7684.42 7478.58 7674.45 7478.58 7664.81 7475.99 7656.18 7471.01 7649.13 7463.96 7644.14 7455.32 7641.56 7445.69 7641.56 7435.72 7644.14 7426.08 7649.13 7417.45 7656.18 7410.4 7664.81 7405.41 7674.45 7402.83 7684.42 7402.83 7694.05 7405.41 7702.69 7410.4 7709.74 7417.45 7714.73 7426.08 7717.31 7435.72 7717.31 7445.69 7714.73 7455.32 7709.74 7463.96 7702.69 7471.01 7694.05 7475.99 7684.42 7478.58"/><path d="M 7584.42 7478.58 7574.45 7478.58 7564.82 7475.99 7556.18 7471.01 7549.13 7463.96 7544.14 7455.32 7541.56 7445.69 7541.56 7435.72 7544.14 7426.08 7549.13 7417.45 7556.18 7410.4 7564.82 7405.41 7574.45 7402.83 7584.42 7402.83 7594.05 7405.41 7602.69 7410.4 7609.74 7417.45 7614.73 7426.08 7617.31 7435.72 7617.31 7445.69 7614.73 7455.32 7609.74 7463.96 7602.69 7471.01 7594.05 7475.99 7584.42 7478.58"/><path d="M 11317.87 7392.25 11311.21 7392.25 11305.06 7389.7 11300.36 7384.99 11297.81 7378.84 11297.81 7372.19 11300.36 7366.04 11305.06 7361.33 11311.21 7358.78 11317.87 7358.78 11324.02 7361.33 11328.73 7366.04 11331.27 7372.19 11331.27 7378.84 11328.73 7384.99 11324.02 7389.7 11317.87 7392.25"/><path d="M 7684.42 7378.57 7674.45 7378.57 7664.81 7375.99 7656.18 7371.01 7649.13 7363.96 7644.14 7355.32 7641.56 7345.69 7641.56 7335.71 7644.14 7326.08 7649.13 7317.45 7656.18 7310.39 7664.81 7305.41 7674.45 7302.83 7684.42 7302.83 7694.05 7305.41 7702.69 7310.39 7709.74 7317.45 7714.73 7326.08 7717.31 7335.71 7717.31 7345.69 7714.73 7355.32 7709.74 7363.96 7702.69 7371.01 7694.05 7375.99 7684.42 7378.57"/><path d="M 8843.7 7334.36 8837.05 7334.36 8830.9 7331.81 8826.19 7327.11 8823.64 7320.96 8823.64 7314.3 8826.19 7308.15 8830.9 7303.44 8837.05 7300.9 8843.7 7300.9 8849.85 7303.44 8854.56 7308.15 8857.11 7314.3 8857.11 7320.96 8854.56 7327.11 8849.85 7331.81 8843.7 7334.36"/><path d="M 8712.17 7299.84 8705.51 7299.84 8699.36 7297.29 8694.66 7292.58 8692.11 7286.43 8692.11 7279.77 8694.66 7273.62 8699.36 7268.92 8705.51 7266.37 8712.17 7266.37 8718.32 7268.92 8723.03 7273.62 8725.58 7279.77 8725.58 7286.43 8723.03 7292.58 8718.32 7297.29 8712.17 7299.84"/><path d="M 10924.02 7245.19 10917.37 7245.19 10911.21 7242.64 10906.51 7237.94 10903.96 7231.78 10903.96 7225.13 10906.51 7218.98 10911.21 7214.27 10917.37 7211.73 10924.02 7211.73 10930.17 7214.27 10934.88 7218.98 10937.42 7225.13 10937.42 7231.78 10934.88 7237.94 10930.17 7242.64 10924.02 7245.19"/><path d="M 7684.42 7278.57 7674.45 7278.57 7664.81 7275.99 7656.18 7271.01 7649.13 7263.96 7644.14 7255.32 7641.56 7245.69 7641.56 7235.71 7644.14 7226.08 7649.13 7217.45 7656.18 7210.39 7664.81 7205.41 7674.45 7202.83 7684.42 7202.83 7694.05 7205.41 7702.69 7210.39 7709.74 7217.45 7714.73 7226.08 7717.31 7235.71 7717.31 7245.69 7714.73 7255.32 7709.74 7263.96 7702.69 7271.01 7694.05 7275.99 7684.42 7278.57"/><path d="M 7584.42 7278.57 7574.45 7278.57 7564.82 7275.99 7556.18 7271.01 7549.13 7263.96 7544.14 7255.32 7541.56 7245.69 7541.56 7235.71 7544.14 7226.08 7549.13 7217.45 7556.18 7210.39 7564.82 7205.41 7574.45 7202.83 7584.42 7202.83 7594.05 7205.41 7602.69 7210.39 7609.74 7217.45 7614.73 7226.08 7617.31 7235.71 7617.31 7245.69 7614.73 7255.32 7609.74 7263.96 7602.69 7271.01 7594.05 7275.99 7584.42 7278.57"/><path d="M 9428.1 7214.67 9421.44 7214.67 9415.29 7212.13 9410.59 7207.42 9408.04 7201.27 9408.04 7194.61 9410.59 7188.46 9415.29 7183.76 9421.44 7181.21 9428.1 7181.21 9434.25 7183.76 9438.96 7188.46 9441.51 7194.61 9441.51 7201.27 9438.96 7207.42 9434.25 7212.13 9428.1 7214.67"/><path d="M 10837.33 7213.54 10830.67 7213.54 10824.52 7210.99 10819.81 7206.28 10817.27 7200.14 10817.27 7193.48 10819.81 7187.33 10824.52 7182.62 10830.67 7180.07 10837.33 7180.07 10843.48 7182.62 10848.18 7187.33 10850.73 7193.48 10850.73 7200.14 10848.18 7206.28 10843.48 7210.99 10837.33 7213.54"/><path d="M 7871.74 7205.86 7865.08 7205.86 7858.93 7203.31 7854.23 7198.6 7851.68 7192.45 7851.68 7185.8 7854.23 7179.65 7858.93 7174.94 7865.08 7172.39 7871.74 7172.39 7877.89 7174.94 7882.6 7179.65 7885.14 7185.8 7885.14 7192.45 7882.6 7198.6 7877.89 7203.31 7871.74 7205.86"/><path d="M 7888.67 7156.45 7882.01 7156.45 7875.86 7153.9 7871.15 7149.2 7868.61 7143.05 7868.61 7136.39 7871.15 7130.24 7875.86 7125.54 7882.01 7122.99 7888.67 7122.99 7894.82 7125.54 7899.52 7130.24 7902.07 7136.39 7902.07 7143.05 7899.52 7149.2 7894.82 7153.9 7888.67 7156.45"/><path d="M 9047.54 7149.56 9040.88 7149.56 9034.73 7147.01 9030.03 7142.3 9027.48 7136.15 9027.48 7129.5 9030.03 7123.35 9034.73 7118.64 9040.88 7116.09 9047.54 7116.09 9053.69 7118.64 9058.4 7123.35 9060.94 7129.5 9060.94 7136.15 9058.4 7142.3 9053.69 7147.01 9047.54 7149.56"/><path d="M 7584.42 7178.58 7574.45 7178.58 7564.82 7175.99 7556.18 7171.01 7549.13 7163.96 7544.14 7155.32 7541.56 7145.69 7541.56 7135.72 7544.14 7126.08 7549.13 7117.45 7556.18 7110.39 7564.82 7105.41 7574.45 7102.83 7584.42 7102.83 7594.05 7105.41 7602.69 7110.39 7609.74 7117.45 7614.73 7126.08 7617.31 7135.72 7617.31 7145.69 7614.73 7155.32 7609.74 7163.96 7602.69 7171.01 7594.05 7175.99 7584.42 7178.58"/><path d="M 7925.67 7122.47 7919.01 7122.47 7912.86 7119.93 7908.15 7115.22 7905.61 7109.07 7905.61 7102.41 7908.15 7096.26 7912.86 7091.56 7919.01 7089.01 7925.67 7089.01 7931.82 7091.56 7936.52 7096.26 7939.07 7102.41 7939.07 7109.07 7936.52 7115.22 7931.82 7119.93 7925.67 7122.47"/><path d="M 10967.33 7109.21 10960.67 7109.21 10954.52 7106.66 10949.81 7101.95 10947.27 7095.8 10947.27 7089.15 10949.81 7083 10954.52 7078.29 10960.67 7075.74 10967.33 7075.74 10973.48 7078.29 10978.18 7083 10980.73 7089.15 10980.73 7095.8 10978.18 7101.95 10973.48 7106.66 10967.33 7109.21"/><path d="M 10910.52 7097.71 10903.86 7097.71 10897.71 7095.16 10893 7090.45 10890.46 7084.3 10890.46 7077.65 10893 7071.5 10897.71 7066.79 10903.86 7064.24 10910.52 7064.24 10916.67 7066.79 10921.37 7071.5 10923.92 7077.65 10923.92 7084.3 10921.37 7090.45 10916.67 7095.16 10910.52 7097.71"/><path d="M 7957.33 7093.34 7950.67 7093.34 7944.52 7090.79 7939.82 7086.08 7937.27 7079.94 7937.27 7073.28 7939.82 7067.13 7944.52 7062.42 7950.67 7059.87 7957.33 7059.87 7963.48 7062.42 7968.18 7067.13 7970.73 7073.28 7970.73 7079.94 7968.18 7086.08 7963.48 7090.79 7957.33 7093.34"/><path d="M 10777.53 7091.05 10770.87 7091.05 10764.72 7088.51 10760.01 7083.8 10757.47 7077.65 10757.47 7070.99 10760.01 7064.85 10764.72 7060.14 10770.87 7057.59 10777.53 7057.59 10783.68 7060.14 10788.38 7064.85 10790.93 7070.99 10790.93 7077.65 10788.38 7083.8 10783.68 7088.51 10777.53 7091.05"/><path d="M 10840.76 7077.63 10834.1 7077.63 10827.95 7075.08 10823.24 7070.37 10820.7 7064.22 10820.7 7057.57 10823.24 7051.42 10827.95 7046.71 10834.1 7044.16 10840.76 7044.16 10846.91 7046.71 10851.61 7051.42 10854.16 7057.57 10854.16 7064.22 10851.61 7070.37 10846.91 7075.08 10840.76 7077.63"/><path d="M 9207.17 7074.92 9200.51 7074.92 9194.36 7072.37 9189.66 7067.66 9187.11 7061.51 9187.11 7054.86 9189.66 7048.71 9194.36 7044 9200.51 7041.45 9207.17 7041.45 9213.32 7044 9218.03 7048.71 9220.58 7054.86 9220.58 7061.51 9218.03 7067.66 9213.32 7072.37 9207.17 7074.92"/><path d="M 7986.74 7062.47 7980.08 7062.47 7973.93 7059.93 7969.22 7055.22 7966.68 7049.07 7966.68 7042.41 7969.22 7036.26 7973.93 7031.56 7980.08 7029.01 7986.74 7029.01 7992.89 7031.56 7997.59 7036.26 8000.14 7042.41 8000.14 7049.07 7997.59 7055.22 7992.89 7059.93 7986.74 7062.47"/><path d="M 9133.56 7044.36 9126.9 7044.36 9120.75 7041.81 9116.05 7037.11 9113.5 7030.96 9113.5 7024.3 9114.04 7022.99 9107.89 7017.28 9104.43 7018.71 9097.78 7018.71 9091.63 7016.16 9086.92 7011.45 9084.37 7005.3 9084.37 6998.65 9086.92 6992.5 9091.63 6987.79 9097.78 6985.24 9104.43 6985.24 9110.59 6987.79 9115.29 6992.5 9117.84 6998.65 9117.84 7005.3 9117.3 7006.61 9123.45 7012.33 9126.9 7010.9 9133.56 7010.9 9139.71 7013.44 9144.41 7018.15 9146.96 7024.3 9146.96 7030.96 9144.41 7037.11 9139.71 7041.81 9133.56 7044.36"/><path d="M 10692.84 7047.59 10686.18 7047.59 10680.03 7045.04 10675.33 7040.34 10672.78 7034.18 10672.78 7027.53 10675.33 7021.38 10680.03 7016.67 10686.18 7014.12 10692.84 7014.12 10698.99 7016.67 10703.7 7021.38 10706.24 7027.53 10706.24 7034.18 10703.7 7040.34 10698.99 7045.04 10692.84 7047.59"/><path d="M 7684.42 7078.58 7674.45 7078.58 7664.81 7075.99 7656.18 7071.01 7649.13 7063.96 7644.14 7055.32 7641.56 7045.69 7641.56 7035.72 7644.14 7026.08 7649.13 7017.45 7656.18 7010.4 7664.81 7005.41 7674.45 7002.83 7684.42 7002.83 7694.05 7005.41 7702.69 7010.4 7709.74 7017.45 7714.73 7026.08 7717.31 7035.72 7717.31 7045.69 7714.73 7055.32 7709.74 7063.96 7702.69 7071.01 7694.05 7075.99 7684.42 7078.58"/><path d="M 7584.42 7078.58 7574.45 7078.58 7564.82 7075.99 7556.18 7071.01 7549.13 7063.96 7544.14 7055.32 7541.56 7045.69 7541.56 7035.72 7544.14 7026.08 7549.13 7017.45 7556.18 7010.4 7564.82 7005.41 7574.45 7002.83 7584.42 7002.83 7594.05 7005.41 7602.69 7010.4 7609.74 7017.45 7614.73 7026.08 7617.31 7035.72 7617.31 7045.69 7614.73 7055.32 7609.74 7063.96 7602.69 7071.01 7594.05 7075.99 7584.42 7078.58"/><path d="M 11355.12 7004.05 11348.47 7004.05 11342.32 7001.5 11337.61 6996.79 11335.06 6990.64 11335.06 6984.36 11328.78 6984.36 11322.63 6981.81 11317.93 6977.11 11315.38 6970.96 11315.38 6964.3 11317.93 6958.15 11322.63 6953.44 11328.78 6950.9 11335.44 6950.9 11341.59 6953.44 11346.3 6958.15 11348.84 6964.3 11348.84 6970.58 11355.12 6970.58 11361.27 6973.13 11365.98 6977.84 11368.53 6983.99 11368.53 6990.64 11365.98 6996.79 11361.27 7001.5 11355.12 7004.05"/><path d="M 9203.92 6968.81 9197.26 6968.81 9191.11 6966.26 9186.41 6961.56 9183.86 6955.41 9183.86 6948.75 9186.41 6942.6 9191.11 6937.89 9197.26 6935.35 9203.92 6935.35 9210.07 6937.89 9214.78 6942.6 9217.32 6948.75 9217.32 6955.41 9214.78 6961.56 9210.07 6966.26 9203.92 6968.81"/><path d="M 8751.54 6968.81 8744.88 6968.81 8738.74 6966.26 8734.03 6961.56 8731.48 6955.41 8731.48 6948.75 8734.03 6942.6 8738.74 6937.89 8744.88 6935.35 8751.54 6935.35 8757.69 6937.89 8762.4 6942.6 8764.95 6948.75 8764.95 6955.41 8762.4 6961.56 8757.69 6966.26 8751.54 6968.81"/><path d="M 7684.42 6978.58 7674.45 6978.58 7664.81 6975.99 7656.18 6971.01 7649.13 6963.96 7644.14 6955.32 7641.56 6945.69 7641.56 6935.72 7644.14 6926.08 7649.13 6917.45 7656.18 6910.4 7664.81 6905.41 7674.45 6902.83 7684.42 6902.83 7694.05 6905.41 7702.69 6910.4 7709.74 6917.45 7714.73 6926.08 7717.31 6935.72 7717.31 6945.69 7714.73 6955.32 7709.74 6963.96 7702.69 6971.01 7694.05 6975.99 7684.42 6978.58"/><path d="M 7684.42 6878.57 7674.45 6878.57 7664.81 6875.99 7656.18 6871.01 7649.13 6863.96 7644.14 6855.32 7641.56 6845.69 7641.56 6835.71 7644.14 6826.08 7649.13 6817.45 7656.18 6810.39 7664.81 6805.41 7674.45 6802.83 7684.42 6802.83 7694.05 6805.41 7702.69 6810.39 7709.74 6817.45 7714.73 6826.08 7717.31 6835.71 7717.31 6845.69 7714.73 6855.32 7709.74 6863.96 7702.69 6871.01 7694.05 6875.99 7684.42 6878.57"/><path d="M 7584.42 6878.57 7574.45 6878.57 7564.82 6875.99 7556.18 6871.01 7549.13 6863.96 7544.14 6855.32 7541.56 6845.69 7541.56 6835.71 7544.14 6826.08 7549.13 6817.45 7556.18 6810.39 7564.82 6805.41 7574.45 6802.83 7584.42 6802.83 7594.05 6805.41 7602.69 6810.39 7609.74 6817.45 7614.73 6826.08 7617.31 6835.71 7617.31 6845.69 7614.73 6855.32 7609.74 6863.96 7602.69 6871.01 7594.05 6875.99 7584.42 6878.57"/><path d="M 9235.71 6757.83 9229.06 6757.83 9222.91 6755.28 9218.2 6750.57 9215.65 6744.42 9215.65 6737.77 9218.2 6731.62 9222.91 6726.91 9229.06 6724.36 9235.71 6724.36 9241.86 6726.91 9246.57 6731.62 9249.12 6737.77 9249.12 6744.42 9246.57 6750.57 9241.86 6755.28 9235.71 6757.83"/><path d="M 8851.31 6746.09 8844.66 6746.09 8838.51 6743.55 8833.8 6738.84 8831.25 6732.69 8831.25 6726.03 8833.8 6719.88 8838.51 6715.18 8844.66 6712.63 8851.31 6712.63 8857.46 6715.18 8862.17 6719.88 8864.72 6726.03 8864.72 6732.69 8862.17 6738.84 8857.46 6743.55 8851.31 6746.09"/><path d="M 7684.42 6778.57 7674.45 6778.57 7664.81 6775.99 7656.18 6771.01 7649.13 6763.96 7644.14 6755.32 7641.56 6745.69 7641.56 6735.71 7644.14 6726.08 7649.13 6717.45 7656.18 6710.39 7664.81 6705.41 7674.45 6702.83 7684.42 6702.83 7694.05 6705.41 7702.69 6710.39 7709.74 6717.45 7714.73 6726.08 7717.31 6735.71 7717.31 6745.69 7714.73 6755.32 7709.74 6763.96 7702.69 6771.01 7694.05 6775.99 7684.42 6778.57"/><path d="M 7584.42 6778.57 7574.45 6778.57 7564.82 6775.99 7556.18 6771.01 7549.13 6763.96 7544.14 6755.32 7541.56 6745.69 7541.56 6735.71 7544.14 6726.08 7549.13 6717.45 7556.18 6710.39 7564.82 6705.41 7574.45 6702.83 7584.42 6702.83 7594.05 6705.41 7602.69 6710.39 7609.74 6717.45 7614.73 6726.08 7617.31 6735.71 7617.31 6745.69 7614.73 6755.32 7609.74 6763.96 7602.69 6771.01 7594.05 6775.99 7584.42 6778.57"/><path d="M 7884.73 6675.54 7878.07 6675.54 7871.92 6673 7867.22 6668.29 7864.67 6662.14 7864.67 6655.48 7867.22 6649.33 7871.92 6644.63 7878.07 6642.08 7884.73 6642.08 7890.88 6644.63 7895.59 6649.33 7898.13 6655.48 7898.13 6662.14 7895.59 6668.29 7890.88 6673 7884.73 6675.54"/><path d="M 7684.42 6678.58 7674.45 6678.58 7664.81 6675.99 7656.18 6671.01 7649.13 6663.96 7644.14 6655.32 7641.56 6645.69 7641.56 6635.72 7644.14 6626.08 7649.13 6617.45 7656.18 6610.39 7664.81 6605.41 7674.45 6602.83 7684.42 6602.83 7694.05 6605.41 7702.69 6610.39 7709.74 6617.45 7714.73 6626.08 7717.31 6635.72 7717.31 6645.69 7714.73 6655.32 7709.74 6663.96 7702.69 6671.01 7694.05 6675.99 7684.42 6678.58"/><path d="M 11367.53 6752.75 11350.47 6752.75 11333.74 6749.42 11317.97 6742.89 11303.79 6733.41 11291.72 6721.35 11282.24 6707.16 11275.71 6691.4 11272.39 6674.66 11272.39 6657.6 11275.71 6640.87 11282.24 6625.11 11291.72 6610.92 11303.79 6598.86 11317.97 6589.38 11333.74 6582.85 11350.47 6579.52 11367.53 6579.52 11384.26 6582.85 11400.03 6589.38 11414.21 6598.86 11426.28 6610.92 11435.76 6625.11 11442.29 6640.87 11445.61 6657.6 11445.61 6674.66 11442.29 6691.4 11435.76 6707.16 11426.28 6721.35 11414.21 6733.41 11400.03 6742.89 11384.26 6749.42 11367.53 6752.75"/><path d="M 10217.53 6752.75 10200.47 6752.75 10183.74 6749.42 10167.97 6742.89 10153.79 6733.41 10141.72 6721.35 10132.24 6707.16 10125.71 6691.4 10122.39 6674.66 10122.39 6657.6 10125.71 6640.87 10132.24 6625.11 10141.72 6610.92 10153.79 6598.86 10167.97 6589.38 10183.74 6582.85 10200.47 6579.52 10217.53 6579.52 10234.26 6582.85 10250.03 6589.38 10264.21 6598.86 10276.28 6610.92 10285.76 6625.11 10292.29 6640.87 10295.61 6657.6 10295.61 6674.66 10292.29 6691.4 10285.76 6707.16 10276.28 6721.35 10264.21 6733.41 10250.03 6742.89 10234.26 6749.42 10217.53 6752.75"/><path d="M 7917.09 6602.79 7910.43 6602.79 7904.28 6600.24 7899.58 6595.53 7897.03 6589.38 7897.03 6582.73 7899.58 6576.57 7904.28 6571.87 7910.43 6569.32 7917.09 6569.32 7923.24 6571.87 7927.95 6576.57 7930.49 6582.73 7930.49 6589.38 7927.95 6595.53 7923.24 6600.24 7917.09 6602.79"/><path d="M 9887.33 6574.36 9880.67 6574.36 9874.52 6571.82 9869.81 6567.11 9867.27 6560.96 9867.27 6554.3 9869.81 6548.15 9874.52 6543.45 9880.67 6540.9 9887.33 6540.9 9893.48 6543.45 9898.18 6548.15 9900.73 6554.3 9900.73 6560.96 9898.18 6567.11 9893.48 6571.82 9887.33 6574.36"/><path d="M 7684.42 6578.58 7674.45 6578.58 7664.81 6575.99 7656.18 6571.01 7649.13 6563.96 7644.14 6555.32 7641.56 6545.69 7641.56 6535.72 7644.14 6526.08 7649.13 6517.45 7656.18 6510.4 7664.81 6505.41 7674.45 6502.83 7684.42 6502.83 7694.05 6505.41 7702.69 6510.4 7709.74 6517.45 7714.73 6526.08 7717.31 6535.72 7717.31 6545.69 7714.73 6555.32 7709.74 6563.96 7702.69 6571.01 7694.05 6575.99 7684.42 6578.58"/><path d="M 7584.42 6578.58 7574.45 6578.58 7564.82 6575.99 7556.18 6571.01 7549.13 6563.96 7544.14 6555.32 7541.56 6545.69 7541.56 6535.72 7544.14 6526.08 7549.13 6517.45 7556.18 6510.4 7564.82 6505.41 7574.45 6502.83 7584.42 6502.83 7594.05 6505.41 7602.69 6510.4 7609.74 6517.45 7614.73 6526.08 7617.31 6535.72 7617.31 6545.69 7614.73 6555.32 7609.74 6563.96 7602.69 6571.01 7594.05 6575.99 7584.42 6578.58"/><path d="M 7888.67 6484.36 7882.01 6484.36 7875.86 6481.82 7871.15 6477.11 7868.61 6470.96 7868.61 6464.3 7871.15 6458.16 7875.86 6453.45 7882.01 6450.9 7888.67 6450.9 7894.82 6453.45 7899.52 6458.16 7902.07 6464.3 7902.07 6470.96 7899.52 6477.11 7894.82 6481.82 7888.67 6484.36"/><path d="M 7684.42 6478.58 7674.45 6478.58 7664.81 6475.99 7656.18 6471.01 7649.13 6463.96 7644.14 6455.32 7641.56 6445.69 7641.56 6435.72 7644.14 6426.08 7649.13 6417.45 7656.18 6410.4 7664.81 6405.41 7674.45 6402.83 7684.42 6402.83 7694.05 6405.41 7702.69 6410.4 7709.74 6417.45 7714.73 6426.08 7717.31 6435.72 7717.31 6445.69 7714.73 6455.32 7709.74 6463.96 7702.69 6471.01 7694.05 6475.99 7684.42 6478.58"/><path d="M 7584.42 6478.58 7574.45 6478.58 7564.82 6475.99 7556.18 6471.01 7549.13 6463.96 7544.14 6455.32 7541.56 6445.69 7541.56 6435.72 7544.14 6426.08 7549.13 6417.45 7556.18 6410.4 7564.82 6405.41 7574.45 6402.83 7584.42 6402.83 7594.05 6405.41 7602.69 6410.4 7609.74 6417.45 7614.73 6426.08 7617.31 6435.72 7617.31 6445.69 7614.73 6455.32 7609.74 6463.96 7602.69 6471.01 7594.05 6475.99 7584.42 6478.58"/><path d="M 11349.36 6468.02 11338.48 6468.02 11327.96 6465.21 11318.54 6459.76 11310.84 6452.07 11305.4 6442.64 11302.58 6432.13 11302.58 6421.24 11305.4 6410.73 11310.84 6401.3 11318.54 6393.61 11327.96 6388.16 11338.48 6385.35 11349.36 6385.35 11359.88 6388.16 11369.3 6393.61 11377 6401.3 11382.44 6410.73 11385.26 6421.24 11385.26 6432.13 11382.44 6442.64 11377 6452.07 11369.3 6459.76 11359.88 6465.21 11349.36 6468.02"/><path d="M 9289.84 6417.53 9283.19 6417.53 9277.04 6414.99 9272.33 6410.28 9269.78 6404.13 9269.78 6397.47 9272.33 6391.32 9277.04 6386.62 9283.19 6384.07 9289.84 6384.07 9295.99 6386.62 9300.7 6391.32 9303.25 6397.47 9303.25 6404.13 9300.7 6410.28 9295.99 6414.99 9289.84 6417.53"/><path d="M 7912.72 6407.51 7906.06 6407.51 7899.92 6404.96 7895.21 6400.26 7892.66 6394.11 7892.66 6387.45 7895.21 6381.3 7899.92 6376.6 7906.06 6374.05 7912.72 6374.05 7918.87 6376.6 7923.58 6381.3 7926.13 6387.45 7926.13 6394.11 7923.58 6400.26 7918.87 6404.96 7912.72 6407.51"/><path d="M 9308.87 6377 9302.21 6377 9296.06 6374.45 9291.36 6369.75 9288.81 6363.6 9288.81 6356.94 9291.36 6350.79 9296.06 6346.08 9302.21 6343.53 9308.87 6343.53 9315.02 6346.08 9319.73 6350.79 9322.27 6356.94 9322.27 6363.6 9319.73 6369.75 9315.02 6374.45 9308.87 6377"/><path d="M 7584.42 6378.57 7574.45 6378.57 7564.82 6375.99 7556.18 6371.01 7549.13 6363.96 7544.14 6355.32 7541.56 6345.69 7541.56 6335.71 7544.14 6326.08 7549.13 6317.45 7556.18 6310.39 7564.82 6305.41 7574.45 6302.83 7584.42 6302.83 7594.05 6305.41 7602.69 6310.39 7609.74 6317.45 7614.73 6326.08 7617.31 6335.71 7617.31 6345.69 7614.73 6355.32 7609.74 6363.96 7602.69 6371.01 7594.05 6375.99 7584.42 6378.57"/><path d="M 9380.07 6335.93 9373.41 6335.93 9367.26 6333.38 9362.56 6328.68 9360.01 6322.53 9360.01 6315.87 9362.56 6309.72 9367.26 6305.01 9373.41 6302.47 9380.07 6302.47 9386.22 6305.01 9390.93 6309.72 9393.47 6315.87 9393.47 6322.53 9390.93 6328.68 9386.22 6333.38 9380.07 6335.93"/><path d="M 11520.59 6434.56 11507.41 6434.56 11494.48 6431.99 11482.3 6426.94 11471.34 6419.62 11462.01 6410.3 11454.69 6399.33 11449.64 6387.15 11447.07 6374.22 11447.07 6361.04 11449.64 6348.11 11454.69 6335.93 11462.01 6324.97 11471.34 6315.64 11482.3 6308.32 11494.48 6303.27 11507.41 6300.7 11520.59 6300.7 11533.52 6303.27 11545.7 6308.32 11556.67 6315.64 11565.99 6324.97 11573.31 6335.93 11578.36 6348.11 11580.93 6361.04 11580.93 6374.22 11578.36 6387.15 11573.31 6399.33 11565.99 6410.3 11556.67 6419.62 11545.7 6426.94 11533.52 6431.99 11520.59 6434.56"/><path d="M 9435.98 6330.99 9429.32 6330.99 9423.17 6328.44 9418.46 6323.73 9415.91 6317.58 9415.91 6310.93 9418.46 6304.78 9423.17 6300.07 9429.32 6297.52 9435.98 6297.52 9442.13 6300.07 9446.83 6304.78 9449.38 6310.93 9449.38 6317.58 9446.83 6323.73 9442.13 6328.44 9435.98 6330.99"/><path d="M 7917.09 6306.25 7910.43 6306.25 7904.28 6303.7 7899.58 6299 7897.03 6292.85 7897.03 6286.19 7899.58 6280.04 7904.28 6275.33 7910.43 6272.79 7917.09 6272.79 7923.24 6275.33 7927.95 6280.04 7930.49 6286.19 7930.49 6292.85 7927.95 6299 7923.24 6303.7 7917.09 6306.25"/><path d="M 11349.36 6349.91 11338.48 6349.91 11327.96 6347.1 11318.54 6341.65 11310.84 6333.96 11305.4 6324.53 11302.58 6314.02 11302.58 6303.13 11305.4 6292.62 11310.84 6283.19 11318.54 6275.5 11327.96 6270.05 11338.48 6267.24 11349.36 6267.24 11359.88 6270.05 11369.3 6275.5 11377 6283.19 11382.44 6292.62 11385.26 6303.13 11385.26 6314.02 11382.44 6324.53 11377 6333.96 11369.3 6341.65 11359.88 6347.1 11349.36 6349.91"/><path d="M 7684.42 6278.57 7674.45 6278.57 7664.81 6275.99 7656.18 6271.01 7649.13 6263.96 7644.14 6255.32 7641.56 6245.69 7641.56 6235.71 7644.14 6226.08 7649.13 6217.45 7656.18 6210.39 7664.81 6205.41 7674.45 6202.83 7684.42 6202.83 7694.05 6205.41 7702.69 6210.39 7709.74 6217.45 7714.73 6226.08 7717.31 6235.71 7717.31 6245.69 7714.73 6255.32 7709.74 6263.96 7702.69 6271.01 7694.05 6275.99 7684.42 6278.57"/><path d="M 7584.42 6278.57 7574.45 6278.57 7564.82 6275.99 7556.18 6271.01 7549.13 6263.96 7544.14 6255.32 7541.56 6245.69 7541.56 6235.71 7544.14 6226.08 7549.13 6217.45 7556.18 6210.39 7564.82 6205.41 7574.45 6202.83 7584.42 6202.83 7594.05 6205.41 7602.69 6210.39 7609.74 6217.45 7614.73 6226.08 7617.31 6235.71 7617.31 6245.69 7614.73 6255.32 7609.74 6263.96 7602.69 6271.01 7594.05 6275.99 7584.42 6278.57"/><path d="M 9656.66 6224.05 9650.01 6224.05 9643.86 6221.5 9639.15 6216.79 9636.6 6210.64 9636.6 6203.99 9639.15 6197.84 9643.86 6193.13 9650.01 6190.58 9656.66 6190.58 9662.81 6193.13 9667.52 6197.84 9670.07 6203.99 9670.07 6210.64 9667.52 6216.79 9662.81 6221.5 9656.66 6224.05"/><path d="M 8647.98 6209.11 8641.32 6209.11 8635.17 6206.56 8630.46 6201.85 8627.92 6195.7 8627.92 6189.05 8630.46 6182.9 8635.17 6178.19 8641.32 6175.64 8647.98 6175.64 8654.13 6178.19 8658.83 6182.9 8661.38 6189.05 8661.38 6195.7 8658.83 6201.85 8654.13 6206.56 8647.98 6209.11"/><path d="M 9281.44 6171.61 9274.39 6171.61 9267.88 6168.91 9263.47 6164.49 9259.04 6164.19 9254.61 6164.49 9250.2 6168.91 9243.69 6171.61 9236.64 6171.61 9230.13 6168.91 9225.14 6163.93 9222.44 6157.41 9222.44 6150.37 9225.14 6143.85 9228.14 6140.86 9229.39 6136.02 9228.14 6131.17 9225.14 6128.18 9222.44 6121.67 9222.44 6114.62 9225.14 6108.11 9228.14 6105.11 9229.39 6100.27 9228.14 6095.42 9225.14 6092.43 9222.44 6085.92 9222.44 6078.87 9225.14 6072.36 9230.13 6067.37 9236.64 6064.68 9243.69 6064.68 9250.2 6067.37 9255.18 6072.36 9257.88 6078.87 9257.88 6085.92 9255.18 6092.43 9252.19 6095.42 9250.93 6100.27 9252.19 6105.11 9255.18 6108.11 9257.88 6114.62 9257.88 6121.67 9255.18 6128.18 9252.19 6131.17 9250.93 6136.02 9252.19 6140.86 9254.61 6143.28 9259.04 6143.59 9263.47 6143.28 9267.88 6138.87 9271.45 6137.39 9273.85 6129.68 9273.76 6128.56 9273.37 6128.18 9270.67 6121.67 9270.67 6114.62 9273.37 6108.11 9276.37 6105.11 9277.62 6100.27 9276.37 6095.42 9273.37 6092.43 9270.67 6085.92 9270.67 6078.87 9273.37 6072.36 9278.35 6067.37 9284.87 6064.68 9291.91 6064.68 9298.43 6067.37 9303.41 6072.36 9306.11 6078.87 9306.11 6085.92 9303.41 6092.43 9300.42 6095.42 9299.16 6100.27 9300.42 6105.11 9303.41 6108.11 9306.11 6114.62 9306.11 6121.67 9303.41 6128.18 9298.43 6133.16 9294.86 6134.64 9292.46 6142.35 9292.55 6143.47 9292.94 6143.85 9295.63 6150.37 9295.63 6157.41 9292.94 6163.93 9287.95 6168.91 9281.44 6171.61"/><path d="M 8691.71 6191 8685.05 6191 8678.9 6188.45 8674.2 6183.74 8671.65 6177.59 8671.65 6170.94 8674.2 6164.79 8678.9 6160.08 8685.05 6157.53 8691.71 6157.53 8697.86 6160.08 8702.57 6164.79 8705.11 6170.94 8705.11 6177.59 8702.57 6183.74 8697.86 6188.45 8691.71 6191"/><path d="M 10023.64 6335.5 10004.36 6335.5 9985.45 6331.74 9967.64 6324.37 9951.61 6313.65 9937.98 6300.02 9927.27 6283.99 9919.89 6266.18 9916.13 6247.27 9916.13 6227.99 9919.89 6209.08 9927.27 6191.27 9937.98 6175.24 9951.61 6161.61 9967.64 6150.9 9985.45 6143.52 10004.36 6139.76 10023.64 6139.76 10042.55 6143.52 10060.36 6150.9 10076.39 6161.61 10090.02 6175.24 10100.73 6191.27 10108.11 6209.08 10111.87 6227.99 10111.87 6247.27 10108.11 6266.18 10100.73 6283.99 10090.02 6300.02 10076.39 6313.65 10060.36 6324.37 10042.55 6331.74 10023.64 6335.5"/><path d="M 11095.07 6144.36 11088.42 6144.36 11082.27 6141.82 11077.56 6137.11 11075.01 6130.96 11075.01 6124.3 11077.56 6118.15 11082.27 6113.44 11088.42 6110.9 11095.07 6110.9 11101.22 6113.44 11105.93 6118.15 11108.48 6124.3 11108.48 6130.96 11105.93 6137.11 11101.22 6141.82 11095.07 6144.36"/><path d="M 7684.42 6178.58 7674.45 6178.58 7664.81 6175.99 7656.18 6171.01 7649.13 6163.96 7644.14 6155.32 7641.56 6145.69 7641.56 6135.72 7644.14 6126.08 7649.13 6117.45 7656.18 6110.39 7664.81 6105.41 7674.45 6102.83 7684.42 6102.83 7694.05 6105.41 7702.69 6110.39 7709.74 6117.45 7714.73 6126.08 7717.31 6135.72 7717.31 6145.69 7714.73 6155.32 7709.74 6163.96 7702.69 6171.01 7694.05 6175.99 7684.42 6178.58"/><path d="M 8526.59 6107.2 8519.93 6107.2 8513.78 6104.65 8509.08 6099.94 8506.53 6093.79 8506.53 6087.14 8509.08 6080.99 8513.78 6076.28 8519.93 6073.73 8526.59 6073.73 8532.74 6076.28 8537.45 6080.99 8539.99 6087.14 8539.99 6093.79 8537.45 6099.94 8532.74 6104.65 8526.59 6107.2"/><path d="M 9833.24 6047.47 9826.58 6047.47 9820.43 6044.93 9815.72 6040.22 9813.18 6034.07 9813.18 6027.41 9815.72 6021.26 9820.43 6016.55 9826.58 6014.01 9833.24 6014.01 9839.39 6016.55 9844.09 6021.26 9846.64 6027.41 9846.64 6034.07 9844.09 6040.22 9839.39 6044.93 9833.24 6047.47"/><path d="M 7684.42 6078.58 7674.45 6078.58 7664.81 6075.99 7656.18 6071.01 7649.13 6063.96 7644.14 6055.32 7641.56 6045.69 7641.56 6035.72 7644.14 6026.08 7649.13 6017.45 7656.18 6010.4 7664.81 6005.41 7674.45 6002.83 7684.42 6002.83 7694.05 6005.41 7702.69 6010.4 7709.74 6017.45 7714.73 6026.08 7717.31 6035.72 7717.31 6045.69 7714.73 6055.32 7709.74 6063.96 7702.69 6071.01 7694.05 6075.99 7684.42 6078.58"/><path d="M 7584.42 6078.58 7574.45 6078.58 7564.82 6075.99 7556.18 6071.01 7549.13 6063.96 7544.14 6055.32 7541.56 6045.69 7541.56 6035.72 7544.14 6026.08 7549.13 6017.45 7556.18 6010.4 7564.82 6005.41 7574.45 6002.83 7584.42 6002.83 7594.05 6005.41 7602.69 6010.4 7609.74 6017.45 7614.73 6026.08 7617.31 6035.72 7617.31 6045.69 7614.73 6055.32 7609.74 6063.96 7602.69 6071.01 7594.05 6075.99 7584.42 6078.58"/><path d="M 7797.55 6016.65 7790.9 6016.65 7784.75 6014.1 7780.04 6009.39 7777.49 6003.24 7777.49 5996.58 7780.04 5990.44 7784.75 5985.73 7790.9 5983.18 7797.55 5983.18 7803.7 5985.73 7808.41 5990.44 7810.96 5996.58 7810.96 6003.24 7808.41 6009.39 7803.7 6014.1 7797.55 6016.65"/><path d="M 11349.36 6058.02 11338.48 6058.02 11327.96 6055.21 11318.54 6049.76 11310.84 6042.07 11305.4 6032.64 11302.58 6022.13 11302.58 6011.24 11305.4 6000.73 11310.84 5991.3 11318.54 5983.61 11327.96 5978.16 11338.48 5975.35 11349.36 5975.35 11359.88 5978.16 11369.3 5983.61 11377 5991.3 11382.44 6000.73 11385.26 6011.24 11385.26 6022.13 11382.44 6032.64 11377 6042.07 11369.3 6049.76 11359.88 6055.21 11349.36 6058.02"/><path d="M 7876.12 5949.77 7869.47 5949.77 7863.32 5947.23 7858.61 5942.52 7856.06 5936.37 7856.06 5929.71 7858.61 5923.56 7863.32 5918.86 7869.47 5916.31 7876.12 5916.31 7882.27 5918.86 7886.98 5923.56 7889.53 5929.71 7889.53 5936.37 7886.98 5942.52 7882.27 5947.23 7876.12 5949.77"/><path d="M 7684.42 5978.58 7674.45 5978.58 7664.81 5975.99 7656.18 5971.01 7649.13 5963.96 7644.14 5955.32 7641.56 5945.69 7641.56 5935.72 7644.14 5926.08 7649.13 5917.45 7656.18 5910.4 7664.81 5905.41 7674.45 5902.83 7684.42 5902.83 7694.05 5905.41 7702.69 5910.4 7709.74 5917.45 7714.73 5926.08 7717.31 5935.72 7717.31 5945.69 7714.73 5955.32 7709.74 5963.96 7702.69 5971.01 7694.05 5975.99 7684.42 5978.58"/><path d="M 11520.59 6024.56 11507.41 6024.56 11494.48 6021.99 11482.3 6016.94 11471.34 6009.62 11462.01 6000.3 11454.69 5989.33 11449.64 5977.15 11447.07 5964.22 11447.07 5951.04 11449.64 5938.11 11454.69 5925.93 11462.01 5914.97 11471.34 5905.64 11482.3 5898.32 11494.48 5893.27 11507.41 5890.7 11520.59 5890.7 11533.52 5893.27 11545.7 5898.32 11556.67 5905.64 11565.99 5914.97 11573.31 5925.93 11578.36 5938.11 11580.93 5951.04 11580.93 5964.22 11578.36 5977.15 11573.31 5989.33 11565.99 6000.3 11556.67 6009.62 11545.7 6016.94 11533.52 6021.99 11520.59 6024.56"/><path d="M 11349.36 5939.91 11338.48 5939.91 11327.96 5937.1 11318.54 5931.65 11310.84 5923.96 11305.4 5914.53 11302.58 5904.02 11302.58 5893.13 11305.4 5882.62 11310.84 5873.19 11318.54 5865.5 11327.96 5860.05 11338.48 5857.24 11349.36 5857.24 11359.88 5860.05 11369.3 5865.5 11377 5873.19 11382.44 5882.62 11385.26 5893.13 11385.26 5904.02 11382.44 5914.53 11377 5923.96 11369.3 5931.65 11359.88 5937.1 11349.36 5939.91"/><path d="M 8275.12 5951.65 8268.47 5951.65 8262.32 5949.1 8257.61 5944.39 8255.06 5938.24 8255.06 5931.58 8257.61 5925.44 8253.91 5917.99 8250 5917.99 8243.86 5915.45 8239.15 5910.74 8236.6 5904.59 8236.6 5897.93 8239.15 5891.79 8242.41 5888.53 8240.61 5883.72 8238.91 5881.25 8233.03 5881.25 8226.88 5878.71 8222.18 5874 8219.63 5867.85 8219.63 5861.19 8222.18 5855.04 8226.88 5850.34 8233.03 5847.79 8239.69 5847.79 8245.84 5850.34 8250.55 5855.04 8253.09 5861.19 8253.09 5867.85 8250.55 5874 8247.29 5877.26 8249.08 5882.06 8250.78 5884.53 8256.66 5884.53 8262.81 5887.08 8267.52 5891.79 8270.07 5897.93 8270.07 5904.59 8267.52 5910.74 8271.21 5918.18 8275.12 5918.18 8281.27 5920.73 8285.98 5925.44 8288.53 5931.58 8288.53 5938.24 8285.98 5944.39 8281.27 5949.1 8275.12 5951.65"/><path d="M 10086.18 5860.08 10079.52 5860.08 10073.37 5857.53 10068.66 5852.82 10066.12 5846.67 10066.12 5840.01 10068.66 5833.87 10073.37 5829.16 10079.52 5826.61 10086.18 5826.61 10092.33 5829.16 10097.03 5833.87 10099.58 5840.01 10099.58 5846.67 10097.03 5852.82 10092.33 5857.53 10086.18 5860.08"/><path d="M 7684.42 5878.57 7674.45 5878.57 7664.81 5875.99 7656.18 5871.01 7649.13 5863.96 7644.14 5855.32 7641.56 5845.69 7641.56 5835.71 7644.14 5826.08 7649.13 5817.45 7656.18 5810.39 7664.81 5805.41 7674.45 5802.83 7684.42 5802.83 7694.05 5805.41 7702.69 5810.39 7709.74 5817.45 7714.73 5826.08 7717.31 5835.71 7717.31 5845.69 7714.73 5855.32 7709.74 5863.96 7702.69 5871.01 7694.05 5875.99 7684.42 5878.57"/><path d="M 7584.42 5878.57 7574.45 5878.57 7564.82 5875.99 7556.18 5871.01 7549.13 5863.96 7544.14 5855.32 7541.56 5845.69 7541.56 5835.71 7544.14 5826.08 7549.13 5817.45 7556.18 5810.39 7564.82 5805.41 7574.45 5802.83 7584.42 5802.83 7594.05 5805.41 7602.69 5810.39 7609.74 5817.45 7614.73 5826.08 7617.31 5835.71 7617.31 5845.69 7614.73 5855.32 7609.74 5863.96 7602.69 5871.01 7594.05 5875.99 7584.42 5878.57"/><path d="M 8593.4 5789.36 8586.74 5789.36 8580.59 5786.81 8575.88 5782.11 8573.34 5775.96 8573.34 5769.3 8575.88 5763.15 8580.59 5758.44 8586.74 5755.9 8593.4 5755.9 8599.55 5758.44 8604.25 5763.15 8606.8 5769.3 8606.8 5775.96 8604.25 5782.11 8599.55 5786.81 8593.4 5789.36"/><path d="M 7684.42 5778.57 7674.45 5778.57 7664.81 5775.99 7656.18 5771.01 7649.13 5763.96 7644.14 5755.32 7641.56 5745.69 7641.56 5735.71 7644.14 5726.08 7649.13 5717.45 7656.18 5710.39 7664.81 5705.41 7674.45 5702.83 7684.42 5702.83 7694.05 5705.41 7702.69 5710.39 7709.74 5717.45 7714.73 5726.08 7717.31 5735.71 7717.31 5745.69 7714.73 5755.32 7709.74 5763.96 7702.69 5771.01 7694.05 5775.99 7684.42 5778.57"/><path d="M 7584.42 5778.57 7574.45 5778.57 7564.82 5775.99 7556.18 5771.01 7549.13 5763.96 7544.14 5755.32 7541.56 5745.69 7541.56 5735.71 7544.14 5726.08 7549.13 5717.45 7556.18 5710.39 7564.82 5705.41 7574.45 5702.83 7584.42 5702.83 7594.05 5705.41 7602.69 5710.39 7609.74 5717.45 7614.73 5726.08 7617.31 5735.71 7617.31 5745.69 7614.73 5755.32 7609.74 5763.96 7602.69 5771.01 7594.05 5775.99 7584.42 5778.57"/><path d="M 11053.32 5728.92 11046.67 5728.92 11040.52 5726.38 11035.81 5721.67 11033.26 5715.52 11033.26 5708.86 11035.81 5702.71 11040.52 5698.01 11046.67 5695.46 11053.32 5695.46 11059.47 5698.01 11064.18 5702.71 11066.73 5708.86 11066.73 5715.52 11064.18 5721.67 11059.47 5726.38 11053.32 5728.92"/><path d="M 7584.42 5678.58 7574.45 5678.58 7564.82 5675.99 7556.18 5671.01 7549.13 5663.96 7544.14 5655.32 7541.56 5645.69 7541.56 5635.72 7544.14 5626.08 7549.13 5617.45 7556.18 5610.39 7564.82 5605.41 7574.45 5602.83 7584.42 5602.83 7594.05 5605.41 7602.69 5610.39 7609.74 5617.45 7614.73 5626.08 7617.31 5635.72 7617.31 5645.69 7614.73 5655.32 7609.74 5663.96 7602.69 5671.01 7594.05 5675.99 7584.42 5678.58"/><path d="M 8701.19 5634.36 8694.53 5634.36 8688.38 5631.81 8683.67 5627.11 8681.13 5620.96 8681.13 5614.3 8683.67 5608.15 8688.38 5603.45 8694.53 5600.9 8701.19 5600.9 8707.34 5603.45 8712.04 5608.15 8714.59 5614.3 8714.59 5620.96 8712.04 5627.11 8707.34 5631.81 8701.19 5634.36"/><path d="M 8237.8 5592.32 8231.15 5592.32 8225 5589.77 8220.29 5585.06 8217.74 5578.92 8217.74 5572.26 8220.29 5566.11 8225 5561.4 8231.15 5558.86 8237.8 5558.86 8243.95 5561.4 8248.66 5566.11 8251.21 5572.26 8251.21 5578.92 8248.66 5585.06 8243.95 5589.77 8237.8 5592.32"/><path d="M 9984.35 5877.33 9914 5877.33 9903.72 5875.97 9894.15 5872.01 9885.92 5865.7 9731.58 5711.36 9725.27 5703.14 9721.31 5693.56 9719.95 5683.28 9719.95 5346.46 9390.47 5016.98 8861.47 5016.98 8757.47 5120.98 8749.25 5127.29 8739.67 5131.25 8729.39 5132.61 8039.86 5132.61 8029.58 5131.25 8020 5127.29 8011.78 5120.98 7915.92 5025.12 7909.61 5016.89 7905.64 5007.32 7904.29 4997.04 7904.29 4771.93 7905.64 4761.66 7909.61 4752.08 7915.92 4743.86 8030.23 4629.55 8038.45 4623.24 8048.03 4619.27 8058.3 4617.92 9483.9 4617.92 9494.17 4619.27 9503.75 4623.24 9511.98 4629.55 9511.98 4629.55 9930.68 5048.26 9930.98 5048.26 9933.5 5048.93 9936.08 5049.27 9938.48 5050.27 9941 5050.94 9943.25 5052.24 9945.65 5053.24 9946.58 5053.95 9949.38 5052.34 9959.01 5049.76 9968.99 5049.76 9978.62 5052.34 9981.42 5053.95 9982.35 5053.24 9984.75 5052.24 9987.01 5050.94 9989.52 5050.27 9991.92 5049.27 9994.5 5048.93 9997.02 5048.26 9999.62 5048.26 10002.2 5047.92 10863.92 5047.92 10874.2 5049.27 10883.78 5053.24 10892 5059.55 10892 5059.55 11230.37 5397.92 11522.06 5397.92 11526.13 5392.62 11526.13 5382.64 11528.71 5373.01 11533.69 5364.38 11540.74 5357.32 11549.38 5352.34 11559.01 5349.76 11568.99 5349.76 11578.62 5352.34 11587.25 5357.32 11594.31 5364.38 11599.29 5373.01 11601.87 5382.64 11601.87 5392.62 11601.38 5394.47 11604.58 5399.27 11614.16 5403.24 11622.39 5409.55 11622.39 5409.55 11672.08 5459.24 11678.39 5467.47 11682.36 5477.05 11683.71 5487.32 11683.71 5698.93 11682.36 5709.2 11678.39 5718.78 11672.08 5727 11672.08 5727 11611.18 5787.9 11602.95 5794.21 11593.38 5798.18 11583.1 5799.53 11281.09 5799.53 11281.09 5799.53 11270.81 5798.18 11261.23 5794.21 11253.01 5787.9 11145.44 5680.34 10658.79 5680.34 10656.21 5680 10653.61 5680 10651.09 5679.33 10648.51 5678.99 10646.11 5677.99 10643.59 5677.32 10641.34 5676.01 10638.94 5675.02 10636.87 5673.43 10634.62 5672.13 10632.23 5670.3 10630.16 5669.44 10627.94 5669.15 10625.71 5669.44 10623.51 5670.35 10621.49 5671.52 10619.42 5673.11 10617.02 5674.1 10614.77 5675.4 10612.25 5676.08 10609.84 5677.07 10602.79 5678.96 10600.22 5679.3 10597.72 5679.97 10595.11 5679.97 10592.52 5680.31 10589.94 5679.97 10587.35 5679.97 10584.83 5679.29 10582.24 5678.95 10579.84 5677.96 10577.34 5677.29 10575.08 5675.98 10572.66 5674.98 10570.61 5673.4 10568.36 5672.1 10562.43 5667.55 10560.36 5666.7 10558.14 5666.4 10555.91 5666.7 10553.84 5667.55 10547.91 5672.1 10546.1 5673.15 10544.47 5674.47 10541.63 5675.73 10538.93 5677.29 10536.91 5677.83 10534.99 5678.68 10531.92 5679.16 10528.92 5679.97 10526.82 5679.97 10524.75 5680.29 10521.66 5679.97 10518.56 5679.97 10516.53 5679.42 10514.45 5679.2 10511.55 5678.09 10508.54 5677.29 10506.73 5676.24 10504.77 5675.48 10499.71 5672.74 10497.2 5670.91 10494.51 5669.35 10488.59 5664.81 10486.51 5663.95 10484.29 5663.65 10482.07 5663.95 10479.99 5664.81 10477.17 5666.97 10475.84 5668.71 10473.77 5670.29 10471.93 5672.13 10469.68 5673.43 10467.61 5675.02 10465.21 5676.01 10462.96 5677.32 10460.44 5677.99 10458.04 5678.99 10455.46 5679.33 10452.94 5680 10450.34 5680 10447.76 5680.34 10197.79 5680.34 10012.43 5865.7 10004.21 5872.01 9994.63 5875.97 9984.35 5877.33"/><path d="M 8537.47 5354.4 8530.81 5354.4 8524.66 5351.85 8519.95 5347.15 8517.41 5341 8517.41 5334.34 8519.95 5328.19 8524.66 5323.48 8530.81 5320.94 8537.47 5320.94 8543.62 5323.48 8548.32 5328.19 8550.87 5334.34 8550.87 5341 8548.32 5347.15 8543.62 5351.85 8537.47 5354.4"/><path d="M 9568.79 5578.89 9548.34 5578.89 9528.14 5575.69 9508.69 5569.37 9490.47 5560.09 9473.93 5548.07 9459.47 5533.61 9447.45 5517.06 9438.16 5498.84 9431.84 5479.39 9428.65 5459.19 9428.65 5438.74 9431.84 5418.55 9438.16 5399.1 9447.45 5380.88 9459.47 5364.33 9473.93 5349.87 9490.47 5337.85 9508.69 5328.57 9528.14 5322.25 9548.34 5319.05 9568.79 5319.05 9588.99 5322.25 9608.44 5328.57 9626.66 5337.85 9643.2 5349.87 9657.67 5364.33 9669.69 5380.88 9678.97 5399.1 9685.29 5418.55 9688.49 5438.74 9688.49 5459.19 9685.29 5479.39 9678.97 5498.84 9669.69 5517.06 9657.67 5533.61 9643.2 5548.07 9626.66 5560.09 9608.44 5569.37 9588.99 5575.69 9568.79 5578.89"/><path d="M 7639.66 5578.89 7619.21 5578.89 7599.01 5575.69 7579.56 5569.37 7561.34 5560.09 7544.8 5548.07 7530.33 5533.61 7518.31 5517.06 7509.03 5498.84 7502.71 5479.39 7499.51 5459.19 7499.51 5438.74 7502.71 5418.55 7509.03 5399.1 7518.31 5380.88 7530.33 5364.33 7544.8 5349.87 7561.34 5337.85 7579.56 5328.57 7599.01 5322.25 7619.21 5319.05 7639.66 5319.05 7659.86 5322.25 7679.31 5328.57 7697.53 5337.85 7714.07 5349.87 7728.53 5364.33 7740.55 5380.88 7749.84 5399.1 7756.16 5418.55 7759.36 5438.74 7759.36 5459.19 7756.16 5479.39 7749.84 5498.84 7740.55 5517.06 7728.53 5533.61 7714.07 5548.07 7697.53 5560.09 7679.31 5569.37 7659.86 5575.69 7639.66 5578.89"/><path d="M 8414.57 5338.98 8407.92 5338.98 8401.77 5336.43 8397.06 5331.73 8394.51 5325.57 8394.51 5318.92 8397.06 5312.77 8401.77 5308.06 8407.92 5305.51 8414.57 5305.51 8420.72 5308.06 8425.43 5312.77 8427.98 5318.92 8427.98 5325.57 8425.43 5331.73 8420.72 5336.43 8414.57 5338.98"/><path d="M 11568.99 5325.5 11559.01 5325.5 11549.38 5322.92 11540.74 5317.94 11533.69 5310.88 11528.71 5302.25 11526.13 5292.62 11526.13 5282.64 11528.71 5273.01 11533.69 5264.38 11540.74 5257.32 11549.38 5252.34 11559.01 5249.76 11568.99 5249.76 11578.62 5252.34 11587.25 5257.32 11594.31 5264.38 11599.29 5273.01 11601.87 5282.64 11601.87 5292.62 11599.29 5302.25 11594.31 5310.88 11587.25 5317.94 11578.62 5322.92 11568.99 5325.5"/><path d="M 11568.99 5225.5 11559.01 5225.5 11549.38 5222.92 11540.74 5217.94 11533.69 5210.89 11528.71 5202.25 11526.13 5192.62 11526.13 5182.64 11528.71 5173.01 11533.69 5164.37 11540.74 5157.32 11549.38 5152.34 11559.01 5149.76 11568.99 5149.76 11578.62 5152.34 11587.25 5157.32 11594.31 5164.37 11599.29 5173.01 11601.87 5182.64 11601.87 5192.62 11599.29 5202.25 11594.31 5210.89 11587.25 5217.94 11578.62 5222.92 11568.99 5225.5"/><path d="M 9430.06 5109.63 9423.4 5109.63 9417.25 5107.08 9412.55 5102.37 9410 5096.22 9410 5089.57 9412.55 5083.42 9417.25 5078.71 9423.4 5076.16 9430.06 5076.16 9436.21 5078.71 9440.92 5083.42 9443.46 5089.57 9443.46 5096.22 9440.92 5102.37 9436.21 5107.08 9430.06 5109.63"/><path d="M 11568.99 5125.5 11559.01 5125.5 11549.38 5122.92 11540.74 5117.94 11533.69 5110.89 11528.71 5102.25 11526.13 5092.62 11526.13 5082.64 11528.71 5073.01 11533.69 5064.37 11540.74 5057.32 11549.38 5052.34 11559.01 5049.76 11568.99 5049.76 11578.62 5052.34 11587.25 5057.32 11594.31 5064.37 11599.29 5073.01 11601.87 5082.64 11601.87 5092.62 11599.29 5102.25 11594.31 5110.89 11587.25 5117.94 11578.62 5122.92 11568.99 5125.5"/><path d="M 11568.99 5025.5 11559.01 5025.5 11549.38 5022.92 11540.74 5017.94 11533.69 5010.88 11528.71 5002.25 11526.13 4992.62 11526.13 4982.64 11528.71 4973.01 11533.69 4964.38 11540.74 4957.32 11549.38 4952.34 11559.01 4949.76 11568.99 4949.76 11578.62 4952.34 11587.25 4957.32 11594.31 4964.38 11599.29 4973.01 11601.87 4982.64 11601.87 4992.62 11599.29 5002.25 11594.31 5010.88 11587.25 5017.94 11578.62 5022.92 11568.99 5025.5"/><path d="M 9968.99 5025.5 9959.01 5025.5 9949.38 5022.92 9940.75 5017.94 9933.69 5010.88 9928.71 5002.25 9926.13 4992.62 9926.13 4982.64 9928.71 4973.01 9933.69 4964.38 9940.75 4957.32 9949.38 4952.34 9959.01 4949.76 9968.99 4949.76 9978.62 4952.34 9987.26 4957.32 9994.31 4964.38 9999.29 4973.01 10001.87 4982.64 10001.87 4992.62 9999.29 5002.25 9994.31 5010.88 9987.26 5017.94 9978.62 5022.92 9968.99 5025.5"/><path d="M 9968.99 4925.5 9959.01 4925.5 9949.38 4922.92 9940.75 4917.94 9933.69 4910.88 9928.71 4902.25 9926.13 4892.62 9926.13 4882.64 9928.71 4873.01 9933.69 4864.38 9940.75 4857.32 9949.38 4852.34 9959.01 4849.76 9968.99 4849.76 9978.62 4852.34 9987.26 4857.32 9994.31 4864.38 9999.29 4873.01 10001.87 4882.64 10001.87 4892.62 9999.29 4902.25 9994.31 4910.88 9987.26 4917.94 9978.62 4922.92 9968.99 4925.5"/><path d="M 10761.84 4917.16 10750.96 4917.16 10740.45 4914.34 10731.02 4908.9 10723.32 4901.2 10717.88 4891.78 10715.06 4881.26 10715.06 4870.38 10717.88 4859.86 10723.32 4850.44 10731.02 4842.74 10740.45 4837.3 10750.96 4834.48 10761.84 4834.48 10772.36 4837.3 10781.78 4842.74 10789.48 4850.44 10794.92 4859.86 10797.74 4870.38 10797.74 4881.26 10794.92 4891.78 10789.48 4901.2 10781.78 4908.9 10772.36 4914.34 10761.84 4917.16"/><path d="M 10525.62 4917.16 10514.74 4917.16 10504.22 4914.34 10494.8 4908.9 10487.1 4901.2 10481.66 4891.78 10478.84 4881.26 10478.84 4870.38 10481.66 4859.86 10487.1 4850.44 10494.8 4842.74 10504.22 4837.3 10514.74 4834.48 10525.62 4834.48 10536.14 4837.3 10545.56 4842.74 10553.26 4850.44 10558.7 4859.86 10561.52 4870.38 10561.52 4881.26 10558.7 4891.78 10553.26 4901.2 10545.56 4908.9 10536.14 4914.34 10525.62 4917.16"/><path d="M 10289.4 4917.16 10278.52 4917.16 10268.01 4914.34 10258.58 4908.9 10250.88 4901.2 10245.44 4891.78 10242.62 4881.26 10242.62 4870.38 10245.44 4859.86 10250.88 4850.44 10258.58 4842.74 10268.01 4837.3 10278.52 4834.48 10289.4 4834.48 10299.92 4837.3 10309.34 4842.74 10317.04 4850.44 10322.48 4859.86 10325.3 4870.38 10325.3 4881.26 10322.48 4891.78 10317.04 4901.2 10309.34 4908.9 10299.92 4914.34 10289.4 4917.16"/><path d="M 11237.55 4917.08 11226.67 4917.08 11216.15 4914.26 11206.73 4908.82 11199.03 4901.12 11193.59 4891.7 11190.77 4881.18 11190.77 4870.3 11193.59 4859.78 11199.03 4850.36 11206.73 4842.66 11216.15 4837.22 11226.67 4834.4 11237.55 4834.4 11248.07 4837.22 11257.49 4842.66 11265.19 4850.36 11270.63 4859.78 11273.45 4870.3 11273.45 4881.18 11270.63 4891.7 11265.19 4901.12 11257.49 4908.82 11248.07 4914.26 11237.55 4917.08"/><path d="M 10761.84 4799.05 10750.96 4799.05 10740.45 4796.23 10731.02 4790.79 10723.32 4783.09 10717.88 4773.66 10715.06 4763.15 10715.06 4752.27 10717.88 4741.75 10723.32 4732.33 10731.02 4724.63 10740.45 4719.19 10750.96 4716.37 10761.84 4716.37 10772.36 4719.19 10781.78 4724.63 10789.48 4732.33 10794.92 4741.75 10797.74 4752.27 10797.74 4763.15 10794.92 4773.66 10789.48 4783.09 10781.78 4790.79 10772.36 4796.23 10761.84 4799.05"/><path d="M 10525.62 4799.05 10514.74 4799.05 10504.22 4796.23 10494.8 4790.79 10487.1 4783.09 10481.66 4773.66 10478.84 4763.15 10478.84 4752.27 10481.66 4741.75 10487.1 4732.33 10494.8 4724.63 10504.22 4719.19 10514.74 4716.37 10525.62 4716.37 10536.14 4719.19 10545.56 4724.63 10553.26 4732.33 10558.7 4741.75 10561.52 4752.27 10561.52 4763.15 10558.7 4773.66 10553.26 4783.09 10545.56 4790.79 10536.14 4796.23 10525.62 4799.05"/><path d="M 10289.4 4799.05 10278.52 4799.05 10268 4796.23 10258.58 4790.79 10250.88 4783.09 10245.44 4773.66 10242.62 4763.15 10242.62 4752.27 10245.44 4741.75 10250.88 4732.33 10258.58 4724.63 10268 4719.19 10278.52 4716.37 10289.4 4716.37 10299.92 4719.19 10309.34 4724.63 10317.04 4732.33 10322.48 4741.75 10325.3 4752.27 10325.3 4763.15 10322.48 4773.66 10317.04 4783.09 10309.34 4790.79 10299.92 4796.23 10289.4 4799.05"/><path d="M 11237.55 4798.97 11226.67 4798.97 11216.15 4796.15 11206.73 4790.71 11199.03 4783.01 11193.59 4773.59 11190.77 4763.07 11190.77 4752.19 11193.59 4741.67 11199.03 4732.25 11206.73 4724.55 11216.15 4719.11 11226.67 4716.29 11237.55 4716.29 11248.07 4719.11 11257.49 4724.55 11265.19 4732.25 11270.63 4741.67 11273.45 4752.19 11273.45 4763.07 11270.63 4773.59 11265.19 4783.01 11257.49 4790.71 11248.07 4796.15 11237.55 4798.97"/><path d="M 9801.9 4676.69 9795.24 4676.69 9789.09 4674.14 9784.38 4669.43 9781.84 4663.28 9781.84 4656.63 9784.38 4650.48 9789.09 4645.77 9795.24 4643.22 9801.9 4643.22 9808.05 4645.77 9812.75 4650.48 9815.3 4656.63 9815.3 4663.28 9812.75 4669.43 9808.05 4674.14 9801.9 4676.69"/><path d="M 11523.64 4835.5 11504.36 4835.5 11485.45 4831.74 11467.64 4824.37 11451.61 4813.65 11437.98 4800.02 11427.27 4783.99 11419.89 4766.18 11416.13 4747.27 11416.13 4727.99 11419.89 4709.08 11427.27 4691.27 11437.98 4675.24 11451.61 4661.61 11467.64 4650.9 11485.45 4643.52 11504.36 4639.76 11523.64 4639.76 11542.55 4643.52 11560.36 4650.9 11576.39 4661.61 11590.02 4675.24 11600.73 4691.27 11608.11 4709.08 11611.87 4727.99 11611.87 4747.27 11608.11 4766.18 11600.73 4783.99 11590.02 4800.02 11576.39 4813.65 11560.36 4824.37 11542.55 4831.74 11523.64 4835.5"/><path d="M 10023.64 4835.5 10004.36 4835.5 9985.45 4831.74 9967.64 4824.37 9951.61 4813.65 9937.98 4800.02 9927.27 4783.99 9919.89 4766.18 9916.13 4747.27 9916.13 4727.99 9919.89 4709.08 9927.27 4691.27 9937.98 4675.24 9951.61 4661.61 9967.64 4650.9 9985.45 4643.52 10004.36 4639.76 10023.64 4639.76 10042.55 4643.52 10060.36 4650.9 10076.39 4661.61 10090.02 4675.24 10100.73 4691.27 10108.11 4709.08 10111.87 4727.99 10111.87 4747.27 10108.11 4766.18 10100.73 4783.99 10090.02 4800.02 10076.39 4813.65 10060.36 4824.37 10042.55 4831.74 10023.64 4835.5"/><path d="M 9887.79 4664.86 9881.13 4664.86 9874.98 4662.31 9870.27 4657.6 9867.73 4651.45 9867.73 4644.79 9870.27 4638.64 9874.98 4633.94 9881.13 4631.39 9887.79 4631.39 9893.94 4633.94 9898.65 4638.64 9901.19 4644.79 9901.19 4651.45 9898.65 4657.6 9893.94 4662.31 9887.79 4664.86"/><path d="M 10679.53 4654.56 10666.34 4654.56 10653.41 4651.99 10641.23 4646.94 10630.27 4639.62 10620.95 4630.29 10613.62 4619.33 10608.58 4607.15 10606.01 4594.22 10606.01 4581.04 10608.58 4568.11 10613.62 4555.93 10620.95 4544.96 10630.27 4535.64 10641.23 4528.32 10653.41 4523.27 10666.34 4520.7 10679.53 4520.7 10692.46 4523.27 10704.64 4528.32 10715.6 4535.64 10724.92 4544.96 10732.25 4555.93 10737.29 4568.11 10739.87 4581.04 10739.87 4594.22 10737.29 4607.15 10732.25 4619.33 10724.92 4630.29 10715.6 4639.62 10704.64 4646.94 10692.46 4651.99 10679.53 4654.56"/><path d="M 10375.59 4654.56 10362.41 4654.56 10349.48 4651.99 10337.3 4646.94 10326.33 4639.62 10317.01 4630.29 10309.69 4619.33 10304.64 4607.15 10302.07 4594.22 10302.07 4581.04 10304.64 4568.11 10309.69 4555.93 10317.01 4544.96 10326.33 4535.64 10337.3 4528.32 10349.48 4523.27 10362.41 4520.7 10375.59 4520.7 10388.52 4523.27 10400.7 4528.32 10411.66 4535.64 10420.99 4544.96 10428.31 4555.93 10433.36 4568.11 10435.93 4581.04 10435.93 4594.22 10433.36 4607.15 10428.31 4619.33 10420.99 4630.29 10411.66 4639.62 10400.7 4646.94 10388.52 4651.99 10375.59 4654.56"/><path d="M 11179.65 4654.48 11166.46 4654.48 11153.53 4651.91 11141.35 4646.86 11130.39 4639.54 11121.07 4630.22 11113.74 4619.25 11108.7 4607.07 11106.13 4594.14 11106.13 4580.96 11108.7 4568.03 11113.74 4555.85 11121.07 4544.89 11130.39 4535.56 11141.35 4528.24 11153.53 4523.19 11166.46 4520.62 11179.65 4520.62 11192.58 4523.19 11204.76 4528.24 11215.72 4535.56 11225.04 4544.89 11232.37 4555.85 11237.41 4568.03 11239.98 4580.96 11239.98 4594.14 11237.41 4607.07 11232.37 4619.25 11225.04 4630.22 11215.72 4639.54 11204.76 4646.86 11192.58 4651.91 11179.65 4654.48"/><path d="M 10533.56 4474.84 10526.9 4474.84 10520.75 4472.29 10516.04 4467.59 10513.5 4461.44 10513.5 4454.78 10516.04 4448.63 10520.75 4443.92 10526.9 4441.38 10533.56 4441.38 10539.71 4443.92 10544.41 4448.63 10546.96 4454.78 10546.96 4461.44 10544.41 4467.59 10539.71 4472.29 10533.56 4474.84"/></g></mask><mask id="nM5Y4BVtV5jg_clear-2" fill="#000" stroke="#000"><g><rect x="7474.2" y="4397.82" width="4229.6" height="3729.61" fill="#fff"/><path d="M 11564 5725.83 11554.11 5724.53 11544.9 5720.71 11536.99 5714.64 11530.92 5706.73 11527.1 5697.52 11525.8 5687.63 11527.1 5677.74 11530.92 5668.53 11536.99 5660.62 11544.9 5654.55 11554.11 5650.73 11564 5649.43 11573.89 5650.73 11583.1 5654.55 11591.01 5660.62 11597.08 5668.53 11600.9 5677.74 11602.2 5687.63 11600.9 5697.52 11597.08 5706.73 11591.01 5714.64 11583.1 5720.71 11573.89 5724.53 11564 5725.83"/><path d="M 9964 5725.83 9954.11 5724.53 9944.9 5720.71 9936.99 5714.64 9930.92 5706.73 9927.1 5697.52 9925.8 5687.63 9927.1 5677.74 9930.92 5668.53 9936.99 5660.62 9944.9 5654.55 9954.11 5650.73 9964 5649.43 9973.89 5650.73 9983.1 5654.55 9991.01 5660.62 9997.08 5668.53 10000.9 5677.74 10002.2 5687.63 10000.9 5697.52 9997.08 5706.73 9991.01 5714.64 9983.1 5720.71 9973.89 5724.53 9964 5725.83"/><path d="M 11564 5625.83 11554.11 5624.53 11544.9 5620.71 11536.99 5614.64 11530.92 5606.73 11527.1 5597.52 11525.8 5587.63 11527.1 5577.74 11530.92 5568.53 11536.99 5560.62 11544.9 5554.55 11554.11 5550.73 11564 5549.43 11573.89 5550.73 11583.1 5554.55 11591.01 5560.62 11597.08 5568.53 11600.9 5577.74 11602.2 5587.63 11600.9 5597.52 11597.08 5606.73 11591.01 5614.64 11583.1 5620.71 11573.89 5624.53 11564 5625.83"/><path d="M 9964 5625.83 9954.11 5624.53 9944.9 5620.71 9936.99 5614.64 9930.92 5606.73 9927.1 5597.52 9925.8 5587.63 9927.1 5577.74 9930.92 5568.53 9936.99 5560.62 9944.9 5554.55 9954.11 5550.73 9964 5549.43 9973.89 5550.73 9983.1 5554.55 9991.01 5560.62 9997.08 5568.53 10000.9 5577.74 10002.2 5587.63 10000.9 5597.52 9997.08 5606.73 9991.01 5614.64 9983.1 5620.71 9973.89 5624.53 9964 5625.83"/><path d="M 11564 5525.83 11554.11 5524.53 11544.9 5520.71 11536.99 5514.64 11530.92 5506.73 11527.1 5497.52 11525.8 5487.63 11527.1 5477.74 11530.92 5468.53 11536.99 5460.62 11544.9 5454.55 11554.11 5450.73 11564 5449.43 11573.89 5450.73 11583.1 5454.55 11591.01 5460.62 11597.08 5468.53 11600.9 5477.74 11602.2 5487.63 11600.9 5497.52 11597.08 5506.73 11591.01 5514.64 11583.1 5520.71 11573.89 5524.53 11564 5525.83"/><path d="M 9964 5525.83 9954.11 5524.53 9944.9 5520.71 9936.99 5514.64 9930.92 5506.73 9927.1 5497.52 9925.8 5487.63 9927.1 5477.74 9930.92 5468.53 9936.99 5460.62 9944.9 5454.55 9954.11 5450.73 9964 5449.43 9973.89 5450.73 9983.1 5454.55 9991.01 5460.62 9997.08 5468.53 10000.9 5477.74 10002.2 5487.63 10000.9 5497.52 9997.08 5506.73 9991.01 5514.64 9983.1 5520.71 9973.89 5524.53 9964 5525.83"/><path d="M 9964 5425.83 9954.11 5424.53 9944.9 5420.71 9936.99 5414.64 9930.92 5406.73 9927.1 5397.52 9925.8 5387.63 9927.1 5377.74 9930.92 5368.53 9936.99 5360.62 9944.9 5354.55 9954.11 5350.73 9964 5349.43 9973.89 5350.73 9983.1 5354.55 9991.01 5360.62 9997.08 5368.53 10000.9 5377.74 10002.2 5387.63 10000.9 5397.52 9997.08 5406.73 9991.01 5414.64 9983.1 5420.71 9973.89 5424.53 9964 5425.83"/><path d="M 9964 5325.83 9954.11 5324.53 9944.9 5320.71 9936.99 5314.64 9930.92 5306.73 9927.1 5297.52 9925.8 5287.63 9927.1 5277.74 9930.92 5268.53 9936.99 5260.62 9944.9 5254.55 9954.11 5250.73 9964 5249.43 9973.89 5250.73 9983.1 5254.55 9991.01 5260.62 9997.08 5268.53 10000.9 5277.74 10002.2 5287.63 10000.9 5297.52 9997.08 5306.73 9991.01 5314.64 9983.1 5320.71 9973.89 5324.53 9964 5325.83"/><path d="M 9964 5225.83 9954.11 5224.53 9944.9 5220.71 9936.99 5214.64 9930.92 5206.73 9927.1 5197.52 9925.8 5187.63 9927.1 5177.74 9930.92 5168.53 9936.99 5160.62 9944.9 5154.55 9954.11 5150.73 9964 5149.43 9973.89 5150.73 9983.1 5154.55 9991.01 5160.62 9997.08 5168.53 10000.9 5177.74 10002.2 5187.63 10000.9 5197.52 9997.08 5206.73 9991.01 5214.64 9983.1 5220.71 9973.89 5224.53 9964 5225.83"/><path d="M 10596 5270.93 10583.41 5269.28 10571.68 5264.42 10561.6 5256.68 10553.87 5246.61 10549.01 5234.88 10547.35 5222.29 10549.01 5209.7 10553.87 5197.97 10561.6 5187.89 10571.68 5180.16 10573.48 5179.41 10574.23 5177.61 10581.96 5167.54 10592.03 5159.81 10594.98 5158.58 10596.2 5155.63 10603.94 5145.56 10614.01 5137.83 10625.74 5132.97 10638.33 5131.31 10650.92 5132.97 10662.65 5137.83 10672.73 5145.56 10680.46 5155.63 10685.32 5167.37 10686.98 5179.96 10685.32 5192.55 10680.46 5204.28 10672.73 5214.35 10662.65 5222.08 10659.7 5223.31 10658.48 5226.25 10650.75 5236.33 10640.68 5244.06 10638.87 5244.81 10638.13 5246.61 10630.4 5256.68 10620.32 5264.42 10608.59 5269.28 10596 5270.93"/></g></mask><circle cx="0" cy="0" r="30" id="nM5Y4BVtV5jg_pad-80"/><circle cx="0" cy="0" r="9.84" id="nM5Y4BVtV5jg_pad-115"/><circle cx="0" cy="0" r="33.465" id="nM5Y4BVtV5jg_pad-116"/><circle cx="0" cy="0" r="8.86" id="nM5Y4BVtV5jg_pad-121"/></defs><g transform="translate(0,12525.26) scale(1,-1)" fill="#157f91" stroke="#157f91"><g mask="url(#nM5Y4BVtV5jg_clear-2)"><g mask="url(#nM5Y4BVtV5jg_clear-1)"><path d="M 11622.85 8127.43 11640.19 8123.98 11656.54 8117.21 11671.25 8107.38 11683.76 8094.88 11693.58 8080.17 11700.35 8063.82 11703.8 8046.48 11703.8 8037.63 11703.8 4487.63 11703.8 4478.78 11700.35 4461.43 11693.58 4445.09 11683.75 4430.38 11671.25 4417.87 11656.54 4408.05 11640.19 4401.28 11622.84 4397.82 11614 4397.82 7555.15 4397.82 7537.81 4401.28 7521.46 4408.05 7506.75 4417.87 7494.24 4430.38 7484.42 4445.09 7477.65 4461.43 7474.2 4478.79 7474.2 4487.63 7474.2 8037.63 7474.2 8046.48 7477.65 8063.82 7484.42 8080.17 7494.24 8094.88 7506.75 8107.39 7521.46 8117.21 7537.81 8123.98 7555.15 8127.43 7564 8127.43 11614 8127.43 11622.85 8127.43"/></g><path d="M 10181.34 5640.63 10447.76 5640.63 10449.89 5637.85 10459.97 5630.12 10471.7 5625.26 10484.29 5623.6 10496.88 5625.26 10508.61 5630.12 10518.69 5637.85 10523.74 5640.6 10533.81 5632.87 10545.55 5628.01 10558.14 5626.35 10570.73 5628.01 10582.46 5632.87 10592.53 5640.6 10599.58 5638.71 10603.61 5635.61 10615.35 5630.76 10627.94 5629.1 10640.52 5630.76 10652.26 5635.61 10658.79 5640.63 11161.89 5640.63 11281.09 5759.82 11583.1 5759.82 11644 5698.93 11644 5487.32 11594.31 5437.63 11213.92 5437.63 10863.92 5087.63 10002.2 5087.63 10000.9 5097.52 9997.08 5106.73 9991.01 5114.64 9983.1 5120.71 9973.89 5124.53 9964 5125.83 9954.11 5124.53 9944.9 5120.71 9936.99 5114.64 9930.92 5106.73 9927.1 5097.52 9925.8 5087.63 9913.9 5087.63 9483.9 4657.63 8058.3 4657.63 7944 4771.93 7944 4997.04 8039.86 5092.9 8729.39 5092.9 8845.02 4977.27 9406.92 4977.27 9759.66 5330.02 9759.66 5683.28 9914 5837.62 9984.35 5837.62 10181.34 5640.63"/></g><path d="M 11614 4387.63 A 100 100 0 0 1 11714 4487.63 M 11714 8037.63 A 100 100 0 0 1 11614 8137.63 M 7564 8137.63 A 100 100 0 0 1 7464 8037.63 M 7464 4487.63 A 100 100 0 0 1 7564 4387.63 M 11714 4487.63 11714 8037.63 M 7564 4387.63 11614 4387.63 M 7564 8137.63 11614 8137.63 M 7464 8037.63 7464 4487.63" fill="none" stroke-width="10"/><use xlink:href="#nM5Y4BVtV5jg_pad-80" x="9964" y="5787.63"/><use xlink:href="#nM5Y4BVtV5jg_pad-80" x="7579.43" y="5940.7"/><use xlink:href="#nM5Y4BVtV5jg_pad-80" x="7579.43" y="6140.7"/><use xlink:href="#nM5Y4BVtV5jg_pad-80" x="7679.43" y="6340.7"/><use xlink:href="#nM5Y4BVtV5jg_pad-80" x="7579.43" y="6640.7"/><use xlink:href="#nM5Y4BVtV5jg_pad-80" x="7579.43" y="6940.7"/><use xlink:href="#nM5Y4BVtV5jg_pad-80" x="7679.43" y="7140.7"/><use xlink:href="#nM5Y4BVtV5jg_pad-80" x="7579.43" y="7340.7"/><use xlink:href="#nM5Y4BVtV5jg_pad-80" x="7679.43" y="5640.7"/><use xlink:href="#nM5Y4BVtV5jg_pad-80" x="10824" y="7641.13"/><use xlink:href="#nM5Y4BVtV5jg_pad-80" x="10824" y="7541.13"/><use xlink:href="#nM5Y4BVtV5jg_pad-80" x="10724" y="7541.13"/><use xlink:href="#nM5Y4BVtV5jg_pad-115" x="9255.91" y="6255.62"/><use xlink:href="#nM5Y4BVtV5jg_pad-115" x="9255.91" y="6212.94"/><use xlink:href="#nM5Y4BVtV5jg_pad-115" x="9204.26" y="6255.62"/><use xlink:href="#nM5Y4BVtV5jg_pad-115" x="9204.26" y="6212.94"/><use xlink:href="#nM5Y4BVtV5jg_pad-115" x="9152.56" y="6255.62"/><use xlink:href="#nM5Y4BVtV5jg_pad-115" x="9152.56" y="6212.94"/><use xlink:href="#nM5Y4BVtV5jg_pad-116" x="10402.07" y="4875.82"/><use xlink:href="#nM5Y4BVtV5jg_pad-116" x="10402.07" y="4757.71"/><use xlink:href="#nM5Y4BVtV5jg_pad-116" x="11114" y="4757.63"/><use xlink:href="#nM5Y4BVtV5jg_pad-116" x="11114" y="4875.74"/><use xlink:href="#nM5Y4BVtV5jg_pad-116" x="8254.08" y="7767.55"/><use xlink:href="#nM5Y4BVtV5jg_pad-116" x="8254.08" y="7649.44"/><use xlink:href="#nM5Y4BVtV5jg_pad-116" x="8775.02" y="7767.55"/><use xlink:href="#nM5Y4BVtV5jg_pad-116" x="8775.02" y="7649.44"/><use xlink:href="#nM5Y4BVtV5jg_pad-116" x="10638.29" y="4757.71"/><use xlink:href="#nM5Y4BVtV5jg_pad-116" x="10638.29" y="4875.82"/><use xlink:href="#nM5Y4BVtV5jg_pad-121" x="9114" y="5325.83"/><use xlink:href="#nM5Y4BVtV5jg_pad-121" x="9114" y="5284.15"/><use xlink:href="#nM5Y4BVtV5jg_pad-121" x="9187.85" y="5328.58"/><use xlink:href="#nM5Y4BVtV5jg_pad-121" x="9187.85" y="5286.9"/><use xlink:href="#nM5Y4BVtV5jg_pad-121" x="9257.65" y="5289.65"/><use xlink:href="#nM5Y4BVtV5jg_pad-121" x="9257.65" y="5331.33"/><use xlink:href="#nM5Y4BVtV5jg_pad-121" x="8884" y="5325"/><use xlink:href="#nM5Y4BVtV5jg_pad-121" x="8884" y="5283.32"/><use xlink:href="#nM5Y4BVtV5jg_pad-121" x="8957.85" y="5327.74"/><use xlink:href="#nM5Y4BVtV5jg_pad-121" x="8957.85" y="5286.06"/><use xlink:href="#nM5Y4BVtV5jg_pad-121" x="9027.65" y="5288.81"/><use xlink:href="#nM5Y4BVtV5jg_pad-121" x="9027.65" y="5330.49"/><use xlink:href="#nM5Y4BVtV5jg_pad-121" x="8641.32" y="5322.25"/><use xlink:href="#nM5Y4BVtV5jg_pad-121" x="8641.32" y="5280.57"/><use xlink:href="#nM5Y4BVtV5jg_pad-121" x="8715.17" y="5325"/><use xlink:href="#nM5Y4BVtV5jg_pad-121" x="8715.17" y="5283.32"/><use xlink:href="#nM5Y4BVtV5jg_pad-121" x="8784.97" y="5286.06"/><use xlink:href="#nM5Y4BVtV5jg_pad-121" x="8784.97" y="5327.74"/><use xlink:href="#nM5Y4BVtV5jg_pad-121" x="8387.16" y="5256.04"/><use xlink:href="#nM5Y4BVtV5jg_pad-121" x="11114.63" y="7167.12"/><use xlink:href="#nM5Y4BVtV5jg_pad-121" x="9115.7" y="7333.62"/><use xlink:href="#nM5Y4BVtV5jg_pad-121" x="9286.38" y="7221.61"/><use xlink:href="#nM5Y4BVtV5jg_pad-121" x="9077.44" y="7221.61"/><use xlink:href="#nM5Y4BVtV5jg_pad-121" x="8574.89" y="5163.71"/><use xlink:href="#nM5Y4BVtV5jg_pad-121" x="9085.63" y="6275.15"/><use xlink:href="#nM5Y4BVtV5jg_pad-121" x="9158.32" y="6033.73"/><use xlink:href="#nM5Y4BVtV5jg_pad-121" x="9126.97" y="6034.49"/><use xlink:href="#nM5Y4BVtV5jg_pad-121" x="8855.72" y="5757.63"/><use xlink:href="#nM5Y4BVtV5jg_pad-121" x="8917.72" y="5761.13"/><use xlink:href="#nM5Y4BVtV5jg_pad-121" x="8173.31" y="5165.6"/><use xlink:href="#nM5Y4BVtV5jg_pad-121" x="8142.15" y="5165.6"/><use xlink:href="#nM5Y4BVtV5jg_pad-121" x="8109.1" y="5165.6"/><use xlink:href="#nM5Y4BVtV5jg_pad-121" x="8150.59" y="5288.53"/><use xlink:href="#nM5Y4BVtV5jg_pad-121" x="10904" y="7045.19"/><use xlink:href="#nM5Y4BVtV5jg_pad-121" x="10824" y="7023.99"/><use xlink:href="#nM5Y4BVtV5jg_pad-121" x="10904" y="7196.81"/><use xlink:href="#nM5Y4BVtV5jg_pad-121" x="7917.89" y="6458.47"/><use xlink:href="#nM5Y4BVtV5jg_pad-121" x="7852.8" y="6680.43"/><use xlink:href="#nM5Y4BVtV5jg_pad-121" x="7881.4" y="6597.39"/><use xlink:href="#nM5Y4BVtV5jg_pad-121" x="7776.62" y="6030.9"/><use xlink:href="#nM5Y4BVtV5jg_pad-121" x="8242.01" y="5928.09"/><use xlink:href="#nM5Y4BVtV5jg_pad-121" x="7851.87" y="7146.53"/><use xlink:href="#nM5Y4BVtV5jg_pad-121" x="7851.87" y="7219.13"/><use xlink:href="#nM5Y4BVtV5jg_pad-121" x="11390.06" y="7467.63"/><use xlink:href="#nM5Y4BVtV5jg_pad-121" x="11392.11" y="7401.4"/><use xlink:href="#nM5Y4BVtV5jg_pad-121" x="11273.13" y="7371.76"/><use xlink:href="#nM5Y4BVtV5jg_pad-121" x="9204.83" y="6986.53"/><use xlink:href="#nM5Y4BVtV5jg_pad-121" x="9159.99" y="7016.61"/><use xlink:href="#nM5Y4BVtV5jg_pad-121" x="9076.02" y="7027.65"/><use xlink:href="#nM5Y4BVtV5jg_pad-121" x="8998.06" y="6244.65"/><use xlink:href="#nM5Y4BVtV5jg_pad-121" x="8254.08" y="6669.75"/><use xlink:href="#nM5Y4BVtV5jg_pad-121" x="11047.02" y="4900.33"/><use xlink:href="#nM5Y4BVtV5jg_pad-121" x="11047.02" y="4870.02"/><use xlink:href="#nM5Y4BVtV5jg_pad-121" x="11047.02" y="4841.19"/><use xlink:href="#nM5Y4BVtV5jg_pad-121" x="11046.02" y="4787.95"/><use xlink:href="#nM5Y4BVtV5jg_pad-121" x="11046.02" y="4757.63"/><use xlink:href="#nM5Y4BVtV5jg_pad-121" x="11046.02" y="4728.8"/><use xlink:href="#nM5Y4BVtV5jg_pad-121" x="11083.68" y="4815.31"/><use xlink:href="#nM5Y4BVtV5jg_pad-121" x="11114" y="4815.31"/><use xlink:href="#nM5Y4BVtV5jg_pad-121" x="11142.83" y="4815.31"/><use xlink:href="#nM5Y4BVtV5jg_pad-121" x="11474" y="5017.31"/><use xlink:href="#nM5Y4BVtV5jg_pad-121" x="11474" y="5047.63"/><use xlink:href="#nM5Y4BVtV5jg_pad-121" x="11474" y="5076.46"/><use xlink:href="#nM5Y4BVtV5jg_pad-121" x="10137.08" y="4458.1"/><use xlink:href="#nM5Y4BVtV5jg_pad-121" x="9754" y="4454.16"/><use xlink:href="#nM5Y4BVtV5jg_pad-121" x="9485.01" y="5832.03"/><use xlink:href="#nM5Y4BVtV5jg_pad-121" x="9542.3" y="5890.4"/><use xlink:href="#nM5Y4BVtV5jg_pad-121" x="9553.7" y="6141.16"/><use xlink:href="#nM5Y4BVtV5jg_pad-121" x="9234.9" y="5901.26"/><use xlink:href="#nM5Y4BVtV5jg_pad-121" x="9240.16" y="6011.88"/><use xlink:href="#nM5Y4BVtV5jg_pad-121" x="9485.01" y="6292.69"/><use xlink:href="#nM5Y4BVtV5jg_pad-121" x="9374.77" y="6457.27"/><use xlink:href="#nM5Y4BVtV5jg_pad-121" x="9280.15" y="6442.16"/><use xlink:href="#nM5Y4BVtV5jg_pad-121" x="9171.41" y="6481.44"/><use xlink:href="#nM5Y4BVtV5jg_pad-121" x="9125.82" y="6537.02"/><use xlink:href="#nM5Y4BVtV5jg_pad-121" x="8989.95" y="6457.27"/><use xlink:href="#nM5Y4BVtV5jg_pad-121" x="8643.51" y="5756.98"/><use xlink:href="#nM5Y4BVtV5jg_pad-121" x="8608.93" y="6319.2"/><use xlink:href="#nM5Y4BVtV5jg_pad-121" x="8608.93" y="6393.85"/><use xlink:href="#nM5Y4BVtV5jg_pad-121" x="8624" y="6229.77"/><use xlink:href="#nM5Y4BVtV5jg_pad-121" x="8402.1" y="6213.59"/><use xlink:href="#nM5Y4BVtV5jg_pad-121" x="8552.25" y="5910.53"/><use xlink:href="#nM5Y4BVtV5jg_pad-121" x="8553.31" y="5824.2"/><use xlink:href="#nM5Y4BVtV5jg_pad-121" x="8551.6" y="5745.97"/><use xlink:href="#nM5Y4BVtV5jg_pad-121" x="8387.9" y="6345.35"/><use xlink:href="#nM5Y4BVtV5jg_pad-121" x="8368.74" y="6381.94"/><use xlink:href="#nM5Y4BVtV5jg_pad-121" x="8266.39" y="6377.97"/><use xlink:href="#nM5Y4BVtV5jg_pad-121" x="8250.1" y="6345.35"/><use xlink:href="#nM5Y4BVtV5jg_pad-121" x="8234.48" y="6309.7"/><use xlink:href="#nM5Y4BVtV5jg_pad-121" x="8403.42" y="6300.2"/><use xlink:href="#nM5Y4BVtV5jg_pad-121" x="8500.16" y="6658.57"/><use xlink:href="#nM5Y4BVtV5jg_pad-121" x="8659.55" y="7026.66"/><use xlink:href="#nM5Y4BVtV5jg_pad-121" x="8727.7" y="6515.54"/><use xlink:href="#nM5Y4BVtV5jg_pad-121" x="8764.2" y="6515.54"/><use xlink:href="#nM5Y4BVtV5jg_pad-121" x="7626.03" y="6596.74"/><use xlink:href="#nM5Y4BVtV5jg_pad-121" x="7622.46" y="6185.9"/><use xlink:href="#nM5Y4BVtV5jg_pad-121" x="7623.92" y="5963.98"/><use xlink:href="#nM5Y4BVtV5jg_pad-121" x="7737.35" y="5635.44"/><use xlink:href="#nM5Y4BVtV5jg_pad-121" x="7723.91" y="6360.27"/><use xlink:href="#nM5Y4BVtV5jg_pad-121" x="7526.92" y="6930.65"/><use xlink:href="#nM5Y4BVtV5jg_pad-121" x="7733.96" y="7140.7"/><use xlink:href="#nM5Y4BVtV5jg_pad-121" x="7518.99" y="7345.97"/><use xlink:href="#nM5Y4BVtV5jg_pad-121" x="8322.42" y="7666.84"/><use xlink:href="#nM5Y4BVtV5jg_pad-121" x="8322.9" y="7625.24"/><use xlink:href="#nM5Y4BVtV5jg_pad-121" x="8322.9" y="7701.51"/><use xlink:href="#nM5Y4BVtV5jg_pad-121" x="8322.9" y="7752.32"/><use xlink:href="#nM5Y4BVtV5jg_pad-121" x="8322.42" y="7784.33"/><use xlink:href="#nM5Y4BVtV5jg_pad-121" x="8322.42" y="7818.53"/><use xlink:href="#nM5Y4BVtV5jg_pad-121" x="8840.38" y="7792.08"/><use xlink:href="#nM5Y4BVtV5jg_pad-121" x="8843.19" y="7761.83"/><use xlink:href="#nM5Y4BVtV5jg_pad-121" x="8840.38" y="7727.05"/><use xlink:href="#nM5Y4BVtV5jg_pad-121" x="8840.38" y="7673.85"/><use xlink:href="#nM5Y4BVtV5jg_pad-121" x="8840.38" y="7637.55"/><use xlink:href="#nM5Y4BVtV5jg_pad-121" x="8792.92" y="7704.09"/><use xlink:href="#nM5Y4BVtV5jg_pad-121" x="9092.23" y="7707.85"/><use xlink:href="#nM5Y4BVtV5jg_pad-121" x="9181.73" y="7574.91"/><use xlink:href="#nM5Y4BVtV5jg_pad-121" x="8863.27" y="7524.05"/><use xlink:href="#nM5Y4BVtV5jg_pad-121" x="8798.89" y="7316.78"/><use xlink:href="#nM5Y4BVtV5jg_pad-121" x="8890.04" y="7075.37"/><use xlink:href="#nM5Y4BVtV5jg_pad-121" x="8744.46" y="7091.41"/><use xlink:href="#nM5Y4BVtV5jg_pad-121" x="7883.05" y="7391.76"/><use xlink:href="#nM5Y4BVtV5jg_pad-121" x="7929.99" y="7408.69"/><use xlink:href="#nM5Y4BVtV5jg_pad-121" x="7932.62" y="7487.17"/><use xlink:href="#nM5Y4BVtV5jg_pad-121" x="7929.32" y="7577.86"/><use xlink:href="#nM5Y4BVtV5jg_pad-121" x="7879.09" y="7592.55"/><use xlink:href="#nM5Y4BVtV5jg_pad-121" x="10768.29" y="7506.52"/><use xlink:href="#nM5Y4BVtV5jg_pad-121" x="10783" y="7577.05"/><use xlink:href="#nM5Y4BVtV5jg_pad-121" x="10784.88" y="7676.64"/><use xlink:href="#nM5Y4BVtV5jg_pad-121" x="10841.18" y="7589.01"/><use xlink:href="#nM5Y4BVtV5jg_pad-121" x="11332.59" y="7086.04"/><use xlink:href="#nM5Y4BVtV5jg_pad-121" x="11262.11" y="7122"/><use xlink:href="#nM5Y4BVtV5jg_pad-121" x="11215.22" y="7122"/><use xlink:href="#nM5Y4BVtV5jg_pad-121" x="11144.51" y="7105.31"/><use xlink:href="#nM5Y4BVtV5jg_pad-121" x="11114.63" y="7219.38"/><use xlink:href="#nM5Y4BVtV5jg_pad-121" x="10402.11" y="7108.46"/><use xlink:href="#nM5Y4BVtV5jg_pad-121" x="10402.11" y="7144.48"/><use xlink:href="#nM5Y4BVtV5jg_pad-121" x="10365.89" y="7143.2"/><use xlink:href="#nM5Y4BVtV5jg_pad-121" x="10251.03" y="7165.85"/><use xlink:href="#nM5Y4BVtV5jg_pad-121" x="9400.1" y="7528.32"/><use xlink:href="#nM5Y4BVtV5jg_pad-121" x="9314.28" y="7564.23"/><use xlink:href="#nM5Y4BVtV5jg_pad-121" x="10616.35" y="5987.81"/><use xlink:href="#nM5Y4BVtV5jg_pad-121" x="11034.01" y="6006.31"/><use xlink:href="#nM5Y4BVtV5jg_pad-121" x="11041.52" y="6414.37"/><use xlink:href="#nM5Y4BVtV5jg_pad-121" x="11291.1" y="6495.92"/><use xlink:href="#nM5Y4BVtV5jg_pad-121" x="11232.11" y="6118.15"/><use xlink:href="#nM5Y4BVtV5jg_pad-121" x="11162.55" y="5835.78"/><use xlink:href="#nM5Y4BVtV5jg_pad-121" x="11180.29" y="6252.34"/><use xlink:href="#nM5Y4BVtV5jg_pad-121" x="9527.65" y="4606.37"/><use xlink:href="#nM5Y4BVtV5jg_pad-121" x="9527.65" y="4564.69"/><use xlink:href="#nM5Y4BVtV5jg_pad-121" x="9527.65" y="4507.89"/><use xlink:href="#nM5Y4BVtV5jg_pad-121" x="9527.65" y="4464.84"/><use xlink:href="#nM5Y4BVtV5jg_pad-121" x="9457.85" y="4462.09"/><use xlink:href="#nM5Y4BVtV5jg_pad-121" x="9457.85" y="4505.15"/><use xlink:href="#nM5Y4BVtV5jg_pad-121" x="9457.85" y="4561.94"/><use xlink:href="#nM5Y4BVtV5jg_pad-121" x="9457.85" y="4603.62"/><use xlink:href="#nM5Y4BVtV5jg_pad-121" x="9384" y="4459.34"/><use xlink:href="#nM5Y4BVtV5jg_pad-121" x="9384" y="4502.4"/><use xlink:href="#nM5Y4BVtV5jg_pad-121" x="9384" y="4559.19"/><use xlink:href="#nM5Y4BVtV5jg_pad-121" x="9384" y="4600.87"/><use xlink:href="#nM5Y4BVtV5jg_pad-121" x="9170.35" y="4597.67"/><use xlink:href="#nM5Y4BVtV5jg_pad-121" x="9170.35" y="4555.99"/><use xlink:href="#nM5Y4BVtV5jg_pad-121" x="9170.35" y="4499.19"/><use xlink:href="#nM5Y4BVtV5jg_pad-121" x="9170.35" y="4456.14"/><use xlink:href="#nM5Y4BVtV5jg_pad-121" x="9244.2" y="4600.41"/><use xlink:href="#nM5Y4BVtV5jg_pad-121" x="9244.2" y="4558.73"/><use xlink:href="#nM5Y4BVtV5jg_pad-121" x="9244.2" y="4501.94"/><use xlink:href="#nM5Y4BVtV5jg_pad-121" x="9244.2" y="4458.89"/><use xlink:href="#nM5Y4BVtV5jg_pad-121" x="9314" y="4461.64"/><use xlink:href="#nM5Y4BVtV5jg_pad-121" x="9314" y="4504.69"/><use xlink:href="#nM5Y4BVtV5jg_pad-121" x="9314" y="4561.48"/><use xlink:href="#nM5Y4BVtV5jg_pad-121" x="9314" y="4603.16"/><use xlink:href="#nM5Y4BVtV5jg_pad-121" x="7599.36" y="5244.82"/><use xlink:href="#nM5Y4BVtV5jg_pad-121" x="7599.36" y="5203.15"/><use xlink:href="#nM5Y4BVtV5jg_pad-121" x="7599.36" y="5146.35"/><use xlink:href="#nM5Y4BVtV5jg_pad-121" x="7599.36" y="5103.3"/><use xlink:href="#nM5Y4BVtV5jg_pad-121" x="7673.21" y="5247.57"/><use xlink:href="#nM5Y4BVtV5jg_pad-121" x="7673.21" y="5205.89"/><use xlink:href="#nM5Y4BVtV5jg_pad-121" x="7673.21" y="5149.1"/><use xlink:href="#nM5Y4BVtV5jg_pad-121" x="7673.21" y="5106.05"/><use xlink:href="#nM5Y4BVtV5jg_pad-121" x="7743.01" y="5108.79"/><use xlink:href="#nM5Y4BVtV5jg_pad-121" x="7743.01" y="5151.85"/><use xlink:href="#nM5Y4BVtV5jg_pad-121" x="7743.01" y="5208.64"/><use xlink:href="#nM5Y4BVtV5jg_pad-121" x="7743.01" y="5250.32"/><use xlink:href="#nM5Y4BVtV5jg_pad-121" x="8382.11" y="6606.42"/><use xlink:href="#nM5Y4BVtV5jg_pad-121" x="8382.11" y="6564.74"/><use xlink:href="#nM5Y4BVtV5jg_pad-121" x="8382.11" y="6507.95"/><use xlink:href="#nM5Y4BVtV5jg_pad-121" x="8382.11" y="6464.9"/><use xlink:href="#nM5Y4BVtV5jg_pad-121" x="8455.95" y="6609.17"/><use xlink:href="#nM5Y4BVtV5jg_pad-121" x="8455.95" y="6567.49"/><use xlink:href="#nM5Y4BVtV5jg_pad-121" x="8455.95" y="6510.7"/><use xlink:href="#nM5Y4BVtV5jg_pad-121" x="8455.95" y="6467.65"/><use xlink:href="#nM5Y4BVtV5jg_pad-121" x="8525.75" y="6470.39"/><use xlink:href="#nM5Y4BVtV5jg_pad-121" x="8525.75" y="6513.45"/><use xlink:href="#nM5Y4BVtV5jg_pad-121" x="8525.75" y="6570.24"/><use xlink:href="#nM5Y4BVtV5jg_pad-121" x="8525.75" y="6611.92"/><use xlink:href="#nM5Y4BVtV5jg_pad-121" x="9492.62" y="6591.71"/><use xlink:href="#nM5Y4BVtV5jg_pad-121" x="9492.62" y="6550.03"/><use xlink:href="#nM5Y4BVtV5jg_pad-121" x="9492.62" y="6493.24"/><use xlink:href="#nM5Y4BVtV5jg_pad-121" x="9492.62" y="6450.18"/><use xlink:href="#nM5Y4BVtV5jg_pad-121" x="9566.47" y="6594.46"/><use xlink:href="#nM5Y4BVtV5jg_pad-121" x="9566.47" y="6552.78"/><use xlink:href="#nM5Y4BVtV5jg_pad-121" x="9566.47" y="6495.98"/><use xlink:href="#nM5Y4BVtV5jg_pad-121" x="9566.47" y="6452.93"/><use xlink:href="#nM5Y4BVtV5jg_pad-121" x="9636.27" y="6455.68"/><use xlink:href="#nM5Y4BVtV5jg_pad-121" x="9636.27" y="6498.73"/><use xlink:href="#nM5Y4BVtV5jg_pad-121" x="9636.27" y="6555.52"/><use xlink:href="#nM5Y4BVtV5jg_pad-121" x="9636.27" y="6597.21"/><use xlink:href="#nM5Y4BVtV5jg_pad-121" x="10262.28" y="6517.92"/><use xlink:href="#nM5Y4BVtV5jg_pad-121" x="10262.28" y="6476.24"/><use xlink:href="#nM5Y4BVtV5jg_pad-121" x="10262.28" y="6419.45"/><use xlink:href="#nM5Y4BVtV5jg_pad-121" x="10262.28" y="6376.4"/><use xlink:href="#nM5Y4BVtV5jg_pad-121" x="10336.13" y="6520.67"/><use xlink:href="#nM5Y4BVtV5jg_pad-121" x="10336.13" y="6478.99"/><use xlink:href="#nM5Y4BVtV5jg_pad-121" x="10336.13" y="6422.2"/><use xlink:href="#nM5Y4BVtV5jg_pad-121" x="10336.13" y="6379.15"/><use xlink:href="#nM5Y4BVtV5jg_pad-121" x="10405.93" y="6381.89"/><use xlink:href="#nM5Y4BVtV5jg_pad-121" x="10405.93" y="6424.95"/><use xlink:href="#nM5Y4BVtV5jg_pad-121" x="10405.93" y="6481.74"/><use xlink:href="#nM5Y4BVtV5jg_pad-121" x="10405.93" y="6523.42"/><use xlink:href="#nM5Y4BVtV5jg_pad-121" x="10457.89" y="6303.34"/><use xlink:href="#nM5Y4BVtV5jg_pad-121" x="10457.89" y="6261.66"/><use xlink:href="#nM5Y4BVtV5jg_pad-121" x="10457.89" y="6204.86"/><use xlink:href="#nM5Y4BVtV5jg_pad-121" x="10457.89" y="6161.81"/><use xlink:href="#nM5Y4BVtV5jg_pad-121" x="10531.74" y="6306.08"/><use xlink:href="#nM5Y4BVtV5jg_pad-121" x="10531.74" y="6264.4"/><use xlink:href="#nM5Y4BVtV5jg_pad-121" x="10531.74" y="6207.61"/><use xlink:href="#nM5Y4BVtV5jg_pad-121" x="10531.74" y="6164.56"/><use xlink:href="#nM5Y4BVtV5jg_pad-121" x="10601.54" y="6167.3"/><use xlink:href="#nM5Y4BVtV5jg_pad-121" x="10601.54" y="6210.36"/><use xlink:href="#nM5Y4BVtV5jg_pad-121" x="10601.54" y="6267.15"/><use xlink:href="#nM5Y4BVtV5jg_pad-121" x="10601.54" y="6308.83"/><use xlink:href="#nM5Y4BVtV5jg_pad-121" x="10786.16" y="5863.9"/><use xlink:href="#nM5Y4BVtV5jg_pad-121" x="10786.16" y="5822.22"/><use xlink:href="#nM5Y4BVtV5jg_pad-121" x="10786.16" y="5765.43"/><use xlink:href="#nM5Y4BVtV5jg_pad-121" x="10786.16" y="5722.37"/><use xlink:href="#nM5Y4BVtV5jg_pad-121" x="10860.01" y="5866.65"/><use xlink:href="#nM5Y4BVtV5jg_pad-121" x="10860.01" y="5824.97"/><use xlink:href="#nM5Y4BVtV5jg_pad-121" x="10860.01" y="5768.17"/><use xlink:href="#nM5Y4BVtV5jg_pad-121" x="10860.01" y="5725.12"/><use xlink:href="#nM5Y4BVtV5jg_pad-121" x="10929.81" y="5727.87"/><use xlink:href="#nM5Y4BVtV5jg_pad-121" x="10929.81" y="5770.92"/><use xlink:href="#nM5Y4BVtV5jg_pad-121" x="10929.81" y="5827.71"/><use xlink:href="#nM5Y4BVtV5jg_pad-121" x="10929.81" y="5869.39"/><use xlink:href="#nM5Y4BVtV5jg_pad-121" x="11330.35" y="5350.13"/><use xlink:href="#nM5Y4BVtV5jg_pad-121" x="11330.35" y="5308.45"/><use xlink:href="#nM5Y4BVtV5jg_pad-121" x="11330.35" y="5251.65"/><use xlink:href="#nM5Y4BVtV5jg_pad-121" x="11330.35" y="5208.6"/><use xlink:href="#nM5Y4BVtV5jg_pad-121" x="11404.2" y="5352.87"/><use xlink:href="#nM5Y4BVtV5jg_pad-121" x="11404.2" y="5311.19"/><use xlink:href="#nM5Y4BVtV5jg_pad-121" x="11404.2" y="5254.4"/><use xlink:href="#nM5Y4BVtV5jg_pad-121" x="11404.2" y="5211.35"/><use xlink:href="#nM5Y4BVtV5jg_pad-121" x="11474" y="5214.1"/><use xlink:href="#nM5Y4BVtV5jg_pad-121" x="11474" y="5257.15"/><use xlink:href="#nM5Y4BVtV5jg_pad-121" x="11474" y="5313.94"/><use xlink:href="#nM5Y4BVtV5jg_pad-121" x="11474" y="5355.62"/><use xlink:href="#nM5Y4BVtV5jg_pad-121" x="9897.19" y="7842.13"/><use xlink:href="#nM5Y4BVtV5jg_pad-121" x="9897.19" y="7800.45"/><use xlink:href="#nM5Y4BVtV5jg_pad-121" x="9897.19" y="7700.61"/><use xlink:href="#nM5Y4BVtV5jg_pad-121" x="9971.04" y="7844.88"/><use xlink:href="#nM5Y4BVtV5jg_pad-121" x="9971.04" y="7803.2"/><use xlink:href="#nM5Y4BVtV5jg_pad-121" x="9971.04" y="7746.41"/><use xlink:href="#nM5Y4BVtV5jg_pad-121" x="9971.04" y="7703.35"/><use xlink:href="#nM5Y4BVtV5jg_pad-121" x="10040.84" y="7706.1"/><use xlink:href="#nM5Y4BVtV5jg_pad-121" x="10040.84" y="7749.16"/><use xlink:href="#nM5Y4BVtV5jg_pad-121" x="10040.84" y="7805.95"/><use xlink:href="#nM5Y4BVtV5jg_pad-121" x="10040.84" y="7847.63"/><use xlink:href="#nM5Y4BVtV5jg_pad-121" x="7796.68" y="7796.14"/><use xlink:href="#nM5Y4BVtV5jg_pad-121" x="7796.68" y="7754.47"/><use xlink:href="#nM5Y4BVtV5jg_pad-121" x="7796.68" y="7697.67"/><use xlink:href="#nM5Y4BVtV5jg_pad-121" x="7796.68" y="7654.62"/><use xlink:href="#nM5Y4BVtV5jg_pad-121" x="7870.52" y="7798.89"/><use xlink:href="#nM5Y4BVtV5jg_pad-121" x="7870.52" y="7757.21"/><use xlink:href="#nM5Y4BVtV5jg_pad-121" x="7870.52" y="7700.42"/><use xlink:href="#nM5Y4BVtV5jg_pad-121" x="7870.52" y="7657.37"/><use xlink:href="#nM5Y4BVtV5jg_pad-121" x="7940.32" y="7660.11"/><use xlink:href="#nM5Y4BVtV5jg_pad-121" x="7940.32" y="7703.17"/><use xlink:href="#nM5Y4BVtV5jg_pad-121" x="7940.32" y="7759.96"/><use xlink:href="#nM5Y4BVtV5jg_pad-121" x="7940.32" y="7801.64"/><use xlink:href="#nM5Y4BVtV5jg_pad-121" x="8902.26" y="6664.39"/><use xlink:href="#nM5Y4BVtV5jg_pad-121" x="8902.26" y="6622.71"/><use xlink:href="#nM5Y4BVtV5jg_pad-121" x="8902.26" y="6565.92"/><use xlink:href="#nM5Y4BVtV5jg_pad-121" x="8902.26" y="6522.87"/><use xlink:href="#nM5Y4BVtV5jg_pad-121" x="8976.11" y="6667.14"/><use xlink:href="#nM5Y4BVtV5jg_pad-121" x="8976.11" y="6625.46"/><use xlink:href="#nM5Y4BVtV5jg_pad-121" x="8976.11" y="6568.67"/><use xlink:href="#nM5Y4BVtV5jg_pad-121" x="8976.11" y="6525.62"/><use xlink:href="#nM5Y4BVtV5jg_pad-121" x="9045.91" y="6528.36"/><use xlink:href="#nM5Y4BVtV5jg_pad-121" x="9045.91" y="6571.42"/><use xlink:href="#nM5Y4BVtV5jg_pad-121" x="9045.91" y="6628.21"/><use xlink:href="#nM5Y4BVtV5jg_pad-121" x="9045.91" y="6669.89"/><use xlink:href="#nM5Y4BVtV5jg_pad-121" x="8149.15" y="5245.15"/><use xlink:href="#nM5Y4BVtV5jg_pad-121" x="8180.95" y="5345.08"/><use xlink:href="#nM5Y4BVtV5jg_pad-121" x="8533.63" y="6912.73"/><use xlink:href="#nM5Y4BVtV5jg_pad-121" x="8619.74" y="7073.64"/><use xlink:href="#nM5Y4BVtV5jg_pad-121" x="8374.54" y="6658.81"/><use xlink:href="#nM5Y4BVtV5jg_pad-121" x="10688.96" y="4790.38"/><use xlink:href="#nM5Y4BVtV5jg_pad-121" x="10598.59" y="4832.35"/><use xlink:href="#nM5Y4BVtV5jg_pad-121" x="10348.86" y="4730.37"/><use xlink:href="#nM5Y4BVtV5jg_pad-121" x="10446.22" y="4838.41"/><use xlink:href="#nM5Y4BVtV5jg_pad-121" x="8256.05" y="7707.85"/><use xlink:href="#nM5Y4BVtV5jg_pad-121" x="9588.38" y="6780.79"/><use xlink:href="#nM5Y4BVtV5jg_pad-121" x="9588.38" y="6739.12"/><use xlink:href="#nM5Y4BVtV5jg_pad-121" x="9518.59" y="6736.37"/><use xlink:href="#nM5Y4BVtV5jg_pad-121" x="9518.59" y="6778.05"/><use xlink:href="#nM5Y4BVtV5jg_pad-121" x="9444.74" y="6733.62"/><use xlink:href="#nM5Y4BVtV5jg_pad-121" x="9444.74" y="6775.3"/><use xlink:href="#nM5Y4BVtV5jg_pad-121" x="10167.97" y="7162.63"/><use xlink:href="#nM5Y4BVtV5jg_pad-121" x="10167.97" y="7120.95"/><use xlink:href="#nM5Y4BVtV5jg_pad-121" x="10098.17" y="7118.21"/><use xlink:href="#nM5Y4BVtV5jg_pad-121" x="10098.17" y="7159.89"/><use xlink:href="#nM5Y4BVtV5jg_pad-121" x="10024.33" y="7115.46"/><use xlink:href="#nM5Y4BVtV5jg_pad-121" x="10024.33" y="7157.14"/><use xlink:href="#nM5Y4BVtV5jg_pad-121" x="11055.57" y="6899.31"/><use xlink:href="#nM5Y4BVtV5jg_pad-121" x="11055.57" y="6857.63"/><use xlink:href="#nM5Y4BVtV5jg_pad-121" x="10985.77" y="6854.88"/><use xlink:href="#nM5Y4BVtV5jg_pad-121" x="10985.77" y="6896.56"/><use xlink:href="#nM5Y4BVtV5jg_pad-121" x="10911.92" y="6852.13"/><use xlink:href="#nM5Y4BVtV5jg_pad-121" x="10911.92" y="6893.81"/><use xlink:href="#nM5Y4BVtV5jg_pad-121" x="10616.35" y="6444.81"/><use xlink:href="#nM5Y4BVtV5jg_pad-121" x="10616.35" y="6403.13"/><use xlink:href="#nM5Y4BVtV5jg_pad-121" x="10546.55" y="6400.39"/><use xlink:href="#nM5Y4BVtV5jg_pad-121" x="10546.55" y="6442.07"/><use xlink:href="#nM5Y4BVtV5jg_pad-121" x="10472.71" y="6397.64"/><use xlink:href="#nM5Y4BVtV5jg_pad-121" x="10472.71" y="6439.32"/><use xlink:href="#nM5Y4BVtV5jg_pad-121" x="10258.58" y="6134.11"/><use xlink:href="#nM5Y4BVtV5jg_pad-121" x="10258.58" y="6092.43"/><use xlink:href="#nM5Y4BVtV5jg_pad-121" x="10188.78" y="6089.68"/><use xlink:href="#nM5Y4BVtV5jg_pad-121" x="10188.78" y="6131.36"/><use xlink:href="#nM5Y4BVtV5jg_pad-121" x="10114.94" y="6086.93"/><use xlink:href="#nM5Y4BVtV5jg_pad-121" x="10114.94" y="6128.61"/><use xlink:href="#nM5Y4BVtV5jg_pad-121" x="10627.94" y="5719.42"/><use xlink:href="#nM5Y4BVtV5jg_pad-121" x="10627.94" y="5677.74"/><use xlink:href="#nM5Y4BVtV5jg_pad-121" x="10558.14" y="5674.99"/><use xlink:href="#nM5Y4BVtV5jg_pad-121" x="10558.14" y="5716.67"/><use xlink:href="#nM5Y4BVtV5jg_pad-121" x="10484.29" y="5672.25"/><use xlink:href="#nM5Y4BVtV5jg_pad-121" x="10484.29" y="5713.93"/><use xlink:href="#nM5Y4BVtV5jg_pad-121" x="11556.67" y="6234.04"/><use xlink:href="#nM5Y4BVtV5jg_pad-121" x="11556.67" y="6192.36"/><use xlink:href="#nM5Y4BVtV5jg_pad-121" x="11486.87" y="6189.61"/><use xlink:href="#nM5Y4BVtV5jg_pad-121" x="11486.87" y="6231.29"/><use xlink:href="#nM5Y4BVtV5jg_pad-121" x="11413.02" y="6186.86"/><use xlink:href="#nM5Y4BVtV5jg_pad-121" x="11413.02" y="6228.54"/><use xlink:href="#nM5Y4BVtV5jg_pad-121" x="11556.67" y="6144.27"/><use xlink:href="#nM5Y4BVtV5jg_pad-121" x="11556.67" y="6102.59"/><use xlink:href="#nM5Y4BVtV5jg_pad-121" x="11486.87" y="6099.84"/><use xlink:href="#nM5Y4BVtV5jg_pad-121" x="11486.87" y="6141.52"/><use xlink:href="#nM5Y4BVtV5jg_pad-121" x="11413.02" y="6097.09"/><use xlink:href="#nM5Y4BVtV5jg_pad-121" x="11413.02" y="6138.77"/><use xlink:href="#nM5Y4BVtV5jg_pad-121" x="11442.29" y="7617.24"/><use xlink:href="#nM5Y4BVtV5jg_pad-121" x="11442.29" y="7575.56"/><use xlink:href="#nM5Y4BVtV5jg_pad-121" x="11372.49" y="7572.81"/><use xlink:href="#nM5Y4BVtV5jg_pad-121" x="11372.49" y="7614.49"/><use xlink:href="#nM5Y4BVtV5jg_pad-121" x="11298.64" y="7570.06"/><use xlink:href="#nM5Y4BVtV5jg_pad-121" x="11298.64" y="7611.74"/><use xlink:href="#nM5Y4BVtV5jg_pad-121" x="10724.56" y="7816.79"/><use xlink:href="#nM5Y4BVtV5jg_pad-121" x="10724.56" y="7775.11"/><use xlink:href="#nM5Y4BVtV5jg_pad-121" x="10654.76" y="7772.36"/><use xlink:href="#nM5Y4BVtV5jg_pad-121" x="10654.76" y="7814.04"/><use xlink:href="#nM5Y4BVtV5jg_pad-121" x="10580.92" y="7769.61"/><use xlink:href="#nM5Y4BVtV5jg_pad-121" x="10580.92" y="7811.29"/><use xlink:href="#nM5Y4BVtV5jg_pad-121" x="10382.45" y="7667.46"/><use xlink:href="#nM5Y4BVtV5jg_pad-121" x="10382.45" y="7625.78"/><use xlink:href="#nM5Y4BVtV5jg_pad-121" x="10312.66" y="7623.03"/><use xlink:href="#nM5Y4BVtV5jg_pad-121" x="10312.66" y="7664.71"/><use xlink:href="#nM5Y4BVtV5jg_pad-121" x="10238.81" y="7620.28"/><use xlink:href="#nM5Y4BVtV5jg_pad-121" x="10238.81" y="7661.96"/><use xlink:href="#nM5Y4BVtV5jg_pad-121" x="8346.4" y="7556.16"/><use xlink:href="#nM5Y4BVtV5jg_pad-121" x="8346.4" y="7514.48"/><use xlink:href="#nM5Y4BVtV5jg_pad-121" x="8276.6" y="7511.74"/><use xlink:href="#nM5Y4BVtV5jg_pad-121" x="8276.6" y="7553.42"/><use xlink:href="#nM5Y4BVtV5jg_pad-121" x="8202.75" y="7508.99"/><use xlink:href="#nM5Y4BVtV5jg_pad-121" x="8202.75" y="7550.67"/><use xlink:href="#nM5Y4BVtV5jg_pad-121" x="9348.53" y="6606.42"/><use xlink:href="#nM5Y4BVtV5jg_pad-121" x="9348.53" y="6564.74"/><use xlink:href="#nM5Y4BVtV5jg_pad-121" x="9278.73" y="6562"/><use xlink:href="#nM5Y4BVtV5jg_pad-121" x="9278.73" y="6603.68"/><use xlink:href="#nM5Y4BVtV5jg_pad-121" x="9204.88" y="6559.25"/><use xlink:href="#nM5Y4BVtV5jg_pad-121" x="9204.88" y="6600.93"/><use xlink:href="#nM5Y4BVtV5jg_pad-121" x="9216.91" y="5814.28"/><use xlink:href="#nM5Y4BVtV5jg_pad-121" x="9216.91" y="5772.6"/><use xlink:href="#nM5Y4BVtV5jg_pad-121" x="9147.11" y="5769.85"/><use xlink:href="#nM5Y4BVtV5jg_pad-121" x="9147.11" y="5811.53"/><use xlink:href="#nM5Y4BVtV5jg_pad-121" x="9073.26" y="5767.1"/><use xlink:href="#nM5Y4BVtV5jg_pad-121" x="9073.26" y="5808.78"/><use xlink:href="#nM5Y4BVtV5jg_pad-121" x="9245.08" y="5122.71"/><use xlink:href="#nM5Y4BVtV5jg_pad-121" x="9245.08" y="5081.03"/><use xlink:href="#nM5Y4BVtV5jg_pad-121" x="9175.28" y="5078.28"/><use xlink:href="#nM5Y4BVtV5jg_pad-121" x="9175.28" y="5119.96"/><use xlink:href="#nM5Y4BVtV5jg_pad-121" x="9101.44" y="5075.53"/><use xlink:href="#nM5Y4BVtV5jg_pad-121" x="9101.44" y="5117.21"/><use xlink:href="#nM5Y4BVtV5jg_pad-121" x="7992.06" y="5363.93"/><use xlink:href="#nM5Y4BVtV5jg_pad-121" x="7992.06" y="5322.25"/><use xlink:href="#nM5Y4BVtV5jg_pad-121" x="7922.26" y="5319.5"/><use xlink:href="#nM5Y4BVtV5jg_pad-121" x="7922.26" y="5361.18"/><use xlink:href="#nM5Y4BVtV5jg_pad-121" x="7848.42" y="5316.75"/><use xlink:href="#nM5Y4BVtV5jg_pad-121" x="7848.42" y="5358.43"/><use xlink:href="#nM5Y4BVtV5jg_pad-121" x="10131.79" y="6540.41"/><use xlink:href="#nM5Y4BVtV5jg_pad-121" x="10131.79" y="6498.73"/><use xlink:href="#nM5Y4BVtV5jg_pad-121" x="10061.99" y="6495.98"/><use xlink:href="#nM5Y4BVtV5jg_pad-121" x="10061.99" y="6537.66"/><use xlink:href="#nM5Y4BVtV5jg_pad-121" x="9988.14" y="6493.24"/><use xlink:href="#nM5Y4BVtV5jg_pad-121" x="9988.14" y="6534.91"/><use xlink:href="#nM5Y4BVtV5jg_pad-121" x="9643.86" y="7037.81"/><use xlink:href="#nM5Y4BVtV5jg_pad-121" x="9643.86" y="6996.13"/><use xlink:href="#nM5Y4BVtV5jg_pad-121" x="9574.06" y="6993.39"/><use xlink:href="#nM5Y4BVtV5jg_pad-121" x="9574.06" y="7035.07"/><use xlink:href="#nM5Y4BVtV5jg_pad-121" x="9500.21" y="6990.64"/><use xlink:href="#nM5Y4BVtV5jg_pad-121" x="9500.21" y="7032.32"/><use xlink:href="#nM5Y4BVtV5jg_pad-121" x="8066.47" y="5035.83"/><use xlink:href="#nM5Y4BVtV5jg_pad-121" x="8097.63" y="5035.83"/><use xlink:href="#nM5Y4BVtV5jg_pad-121" x="8130.68" y="5035.83"/><use xlink:href="#nM5Y4BVtV5jg_pad-121" x="8047.66" y="4799.49"/><use xlink:href="#nM5Y4BVtV5jg_pad-121" x="8047.66" y="4859.94"/><use xlink:href="#nM5Y4BVtV5jg_pad-121" x="8085.06" y="4916.14"/><use xlink:href="#nM5Y4BVtV5jg_pad-121" x="8085.06" y="4958.37"/><use xlink:href="#nM5Y4BVtV5jg_pad-121" x="8574.89" y="5037.63"/><use xlink:href="#nM5Y4BVtV5jg_pad-121" x="8399.25" y="5037.63"/></g></svg>