<svg xmlns="http://www.w3.org/2000/svg" viewBox="0 0 1600 1000" role="img" aria-label="Bottom PCB render placeholder">
  <rect width="1600" height="1000" fill="#0b0f14"/>
  <rect x="110" y="110" width="1380" height="780" rx="44" fill="#12324b" stroke="#7cc7ff" stroke-width="8"/>
  <g opacity="0.22" stroke="#bfe7ff" stroke-width="2">
    <path d="M170 170h1260M170 250h1260M170 330h1260M170 410h1260M170 490h1260M170 570h1260M170 650h1260M170 730h1260M170 810h1260"/>
    <path d="M220 150v700M340 150v700M460 150v700M580 150v700M700 150v700M820 150v700M940 150v700M1060 150v700M1180 150v700M1300 150v700M1420 150v700"/>
  </g>
  <g fill="#8ecae6" stroke="#d2f4ff" stroke-width="3">
    <rect x="230" y="610" width="410" height="165" rx="12"/>
    <rect x="820" y="240" width="360" height="190" rx="12"/>
    <rect x="980" y="585" width="300" height="145" rx="12"/>
  </g>
  <g fill="none" stroke="#d2f4ff" stroke-width="9" stroke-linecap="round" opacity="0.85">
    <path d="M420 685c220-180 390-250 680-350"/>
    <path d="M1130 660c-260-30-430-20-700 15"/>
  </g>
  <g fill="#eff6ff">
    <circle cx="205" cy="200" r="26"/>
    <circle cx="1395" cy="200" r="26"/>
    <circle cx="205" cy="800" r="26"/>
    <circle cx="1395" cy="800" r="26"/>
  </g>
  <g font-family="Inter, Arial" fill="#f8fafc">
    <text x="145" y="84" font-size="36" font-weight="700">HITL Sensor Emulation - Bottom Layer Placeholder</text>
    <text x="260" y="705" font-size="28" font-weight="700">Connector Strain Relief</text>
    <text x="860" y="350" font-size="28" font-weight="700">Return Paths</text>
    <text x="1015" y="675" font-size="26" font-weight="700">Via Stitching</text>
  </g>
</svg>
