M48
;Layer_Color=9474304
;FILE_FORMAT=2:5
INCH,TZ
;TYPE=PLATED
T01F00S00C0.01181
T02F00S00C0.03000
T03F00S00C0.04000
T04F00S00C0.04016
T05F00S00C0.04016
T06F00S00C0.09449
T07F00S00C0.11417
;TYPE=NON_PLATED
T08F00S00C0.11811
%
T01
X917035Y445614
Y449919
Y455599
Y459767
X924420Y460041
Y455873
Y450194
Y445889
X931400Y446164
Y450469
Y456148
Y460316
X938400Y460087
Y455919
Y450240
Y445934
X945785Y446209
Y450515
Y456194
Y460362
X952765Y460637
Y456469
Y450789
Y446484
X975400Y445416
X979857Y465996
X988446Y464812
X1013708Y445810
X1053023Y445811
X1104602Y472880
Y475763
Y478795
X1104702Y484119
Y487002
Y490033
X1108368Y481531
X1111400
X1114283
X1147400Y501731
Y504763
Y507646
Y521410
Y525715
Y531394
Y535562
X1140420Y535287
Y531119
Y525440
Y521135
X1133035Y520860
Y525165
Y530845
Y535013
X1105000Y571219
X1116255Y583578
X1103401Y600631
X1109175Y612763
X1123211Y611815
X1141302Y613877
Y609709
X1148687Y609984
Y614152
Y618961
Y623129
X1155667Y623404
Y619236
Y614427
Y610259
X1141302Y618686
Y622854
X1060154Y621036
Y616730
X1053174Y616456
Y620761
X1045789Y620486
Y616181
X1025858Y613411
Y609243
X1018878Y608968
Y613136
X1011494Y612861
Y608693
X1008285Y584334
X982991Y603074
X965333Y620731
X955370Y614116
X954230Y589040
X948501Y583203
X942673Y509290
X1044622Y483841
X1059859Y483235
X1068896Y479038
X1034886Y473037
X1059600Y522229
X1061635Y520193
X1063833Y517996
X1062794Y567774
Y571942
X1055814Y571667
Y567499
X1048429Y567225
Y571393
X1078616Y572237
Y576543
Y582222
Y586390
X1086001Y586665
Y582497
Y576817
Y572512
X1092981Y572787
Y577092
Y582771
Y586939
X1061635Y598781
X924016Y601188
X924016Y608239
Y611814
Y615389
X927792
X928839Y611814
Y608239
X925591Y621294
X920426
X915256
X915832Y603373
X912697Y603449
X923490Y590126
X921691Y581428
Y577260
X914711Y576985
Y581153
X907326Y580878
Y576710
X891772Y576113
X885572Y575763
X864351Y575698
X859007Y577263
X855160Y574597
X855331Y582420
X855225Y591053
X852326Y609047
X864465Y619237
X862400Y622977
X868838Y617426
X840210Y621359
X827180Y593491
X824201Y592809
X825333Y590126
X823636Y586452
X823448Y557559
X818095Y534508
X815059Y528853
X814915Y524515
X814215Y516560
X817331
X810910
X809763Y503583
X806647
X813068
X808506Y495837
Y491614
X804766Y485994
Y479949
X799206Y532225
Y536393
X792226Y536118
Y531950
X784842Y531675
Y535843
X787280Y593304
X869786Y561763
X871517Y532500
Y528332
X878497Y528606
Y532774
X888400Y532500
Y528332
X895785Y528606
Y532774
X902765Y533049
Y528881
X911400Y528415
Y532583
X918785Y532858
Y528690
X925765Y528965
Y533133
X924508Y512271
Y508103
X917528Y507828
Y511996
X910144Y511721
Y507553
X857489Y503763
Y516371
X864132Y528057
Y532225
X853414Y533767
X841125Y532225
X838716Y525604
X839925Y503763
X899806Y624465
X762246Y618590
X762392Y596398
X779423Y599991
X777662Y603090
X773735Y563544
X774301Y525032
Y520864
Y515185
Y510879
X767321Y510605
Y514910
Y520589
Y524757
X759936Y524482
Y520315
Y514635
Y510330
X772391Y636027
X762603Y659674
X752692Y693065
X773396Y714070
X751899Y734597
X779668Y765462
Y769767
Y775447
Y779614
X787052Y779889
Y775721
Y770042
Y765737
X794032Y766011
Y770317
Y775996
Y780164
X792932Y757786
X787909Y759255
X793262Y748717
X792999Y740869
X788305Y739176
X785187Y721913
X786841Y718913
X785187Y714653
X788534Y713972
X792234Y710574
X795400Y707661
X798341Y704574
X788140Y665881
X785280Y668043
X788140Y659739
X791376Y658605
X791789Y645847
X788534Y646763
X790939Y639078
X791376Y628952
X823448Y630970
X825010Y634535
X826639Y637797
X836874Y638194
X838790Y634535
X840342Y630020
X838211Y646490
Y650795
Y656474
Y660642
X837454Y665881
X850016Y665857
X852575Y661192
Y657024
Y651345
Y647039
X845595Y646765
Y651070
Y656749
Y660917
X825408Y666975
X853363Y691273
X865955Y702666
X861974Y707364
X874446Y709141
X874821Y695208
X889004Y707537
X904421Y713283
X907744Y722161
X911570Y733362
X928638Y722161
X920384Y705818
X920483Y698653
X920059Y695208
X915999Y701661
X913023Y702763
X907602Y702765
X910111Y700198
X904591Y666989
Y662821
Y657142
Y652836
X897611Y652562
Y656867
Y662546
Y666714
X890226Y666439
Y662271
Y656592
Y652287
X876420Y651554
X872770
X860893Y639385
Y631920
X898995Y645727
X917141Y648144
X912582Y653702
X920488Y655925
Y660093
X927873Y660368
Y656200
X934853Y656474
Y660642
X937477Y645727
X928015Y644216
X928651Y640080
X930554Y636027
X925591Y625562
X920426
X915256
X908563Y627515
X923239Y674110
X884799Y672936
X884038Y731763
X879889Y731678
X870884Y728310
X886327Y752405
X884038Y763755
Y767385
Y772705
X884319Y776183
X884038Y779208
X879292Y770409
X909223Y770785
X906307Y760439
X900229Y760697
X918173Y757491
X931428Y756423
X834640Y755616
Y751448
X827660Y751174
Y755342
X820275Y755067
Y750899
X832290Y762524
X832242Y766684
X832290Y770151
Y775232
X832242Y778433
X825605Y770785
X940010Y752832
X942477Y719794
X950021Y703232
Y699064
X957406Y699339
Y703507
X964386Y703781
Y699613
X958838Y678079
Y673912
X951859Y673637
Y677805
X944474Y677530
Y673362
X949262Y659171
Y655003
Y649324
Y645018
X956647Y645293
Y649598
Y655278
Y659446
X963627Y659721
Y655552
Y649873
Y645568
X948501Y629269
X943265Y631426
X937674Y631920
X988400Y655763
X998814Y653491
Y649324
X1006199Y649598
Y653766
X1013179Y654041
Y649873
X1026228Y651792
Y647624
Y641945
Y637640
X1033613Y637915
Y642220
Y647899
Y652067
X1040593Y652342
Y648174
Y642495
Y638189
X1047271Y639764
Y643932
X1054655Y644207
Y640039
X1061635Y640313
Y644481
X1060154Y630883
Y626715
X1053174Y626440
Y630608
X1045789Y630334
Y626166
X1040211Y710846
Y714448
X1036589Y714320
X1025103Y716585
X1016797Y716263
Y712095
X1009817Y711821
Y715989
X1002433Y715714
Y711546
X1004084Y770610
Y774916
Y780595
X997104Y780320
Y774641
Y770335
X989719Y770061
Y780045
X976290Y748679
X973193
X1023881Y762028
Y766196
X1031266Y766471
Y762303
X1038245Y762578
Y766746
X1058092Y776961
Y781129
X1065476Y777236
X1072456Y777511
X1078488Y767664
X1078300Y757705
X1084118Y758901
X1076829Y750652
X1083400Y719681
X1090400
X1092069Y722846
X1090719Y708097
X1090400Y704519
X1083743Y706089
X1082400Y702399
X1077420Y707432
X1068951Y703086
X1091192Y689381
Y685213
X1098577Y685488
Y689656
X1105557Y689931
Y685763
X1096400Y709248
X1114451Y710531
X1121522Y712200
X1126211
X1133259Y708604
X1135180Y698732
X1133211Y696763
X1111463Y716712
Y721938
X1127313Y737176
X1131454Y737551
X1134834Y740140
X1139211
X1137546Y743039
X1139006Y746763
X1137249Y757281
Y761449
X1144229Y761724
Y757556
X1129864Y757006
Y761174
X1129110Y649592
X1104152Y641437
X1118029Y625234
X1084425Y787918
X1072456Y781679
X1065476Y781404
X1037298Y796449
X1004084Y784763
X997104Y784488
X989719Y784213
X911570Y790566
X832242Y781853
T02
X1156400Y498763
Y508763
Y518763
Y528763
Y538763
Y548763
Y558763
Y568763
X996400
Y578763
Y558763
Y548763
Y538763
Y528763
Y518763
Y508763
Y498763
Y488763
T03
X757943Y564070
X767943
Y574070
X757943
Y584070
Y594070
Y604070
Y614070
Y624070
X767943
Y614070
Y604070
Y594070
Y584070
Y634070
X757943
Y644070
Y654070
Y664070
Y674070
Y684070
Y694070
Y704070
Y714070
X767943
Y724070
X757943
Y734070
Y744070
Y754070
X767943
Y744070
Y734070
Y704070
Y694070
Y684070
Y674070
Y664070
Y654070
Y644070
X1052400Y754113
Y764113
X1062400
Y754113
X1072400
X1082400
Y764113
X1072400
X1092400
Y754113
X1102400
Y764113
X1112400
Y754113
T04
X1111400Y487574
X1123211
X1075640Y487582
X1063829
X1052018
X1040207
Y475771
X1052018
X1028396
X877502Y764944
X865691
X825408
X813597
T05
X1111400Y475763
X1123211
X1134392Y589857
Y601669
X1075640Y475771
X1063829
X1028396Y487582
X877502Y776755
X865691
X825408
X813597
X1134392Y642668
Y630858
T06
X1020900Y666613
X1135900
Y781613
X1020900
T07
X1151400Y473763
X1001400
X955857Y544897
X1001400Y623763
X762943Y544897
Y773243
X955857
T08
X1036900Y458763
X1067294
X1117305Y458755
X1151400Y595763
Y636763
X871597Y793763
X819502
M30
