M48
;Layer_Color=9474304
;FILE_FORMAT=2:5
INCH,LZ
;TYPE=PLATED
T01F00S00C0.01000
T02F00S00C0.02787
T03F00S00C0.03583
T04F00S00C0.04016
T05F00S00C0.13780
;TYPE=NON_PLATED
T06F00S00C0.04016
%
T01
X0060687Y0019898
X0080372
X0090214
X0084231Y0027281
X0060687Y0029741
X0058561Y0041778
X0063634Y0043021
X0067473Y006042
X0067972Y0067753
X0067523Y0074038
X0048713Y0075308
X0043126Y007522
X0037833
X0041001Y0069111
Y0059268
X0050844
X0052209Y0096735
X0037229Y0096481
X0036926Y0084846
X0040704Y011073
X0035919Y0120359
X0054586Y0120182
X0065148Y011073
X006856Y0112418
X0073139Y0108316
X0080371Y0112418
X0087585Y0115791
X0092182Y0112418
Y0100607
X0088336Y00955
X0092182Y0088796
X0088336Y0079752
X0097242Y007986
X0092115Y0071254
X0088336Y0064004
X0097295Y0064295
X0098707Y0118926
X0080371Y0124229
X0074766Y0118934
X0076207Y0133438
X0078804Y0143039
X006226Y0145637
X0051683
X0026601Y0145133
X0021316Y0112418
Y0100607
Y0088796
X0023076Y0083889
X0031054Y0075537
X0031159Y0059268
X0027989Y0055116
X0031159Y0049426
X0025344Y0064004
X0013777Y0060155
X000673Y0066129
X0009596Y0079752
X0009505Y0088796
X0009596Y00955
X0009505Y0100607
Y0112418
X0009528Y0118188
X0017665Y007233
X0027977Y0027877
T02
X0037185Y0129051
X0047185
X0057185
X0067185
Y0139051
X0057185
X0047185
X0037185
T03
X0038583Y0025425
X0048583
X0058583
X0068583
Y0035425
X0058583
X0048583
X0038583
T04
X0047244Y0054783
X0059055
Y0066594
X0047244
X0043307Y0090831
Y010248
X0055118
Y0090831
X0066929Y0090669
Y010248
X007874
Y0090669
X0090551Y0106181
X0031496Y010248
Y0090831
X0019685Y0106181
T05
X0090945Y0043307
X0090946Y0134
X0016143
Y0043307
T06
X0035433Y0051083
X0070866
M30
