G04*
G04 #@! TF.GenerationSoftware,Altium Limited,Altium Designer,25.8.1 (18)*
G04*
G04 Layer_Color=8388736*
%FSLAX25Y25*%
%MOIN*%
G70*
G04*
G04 #@! TF.SameCoordinates,8555A115-1401-43ED-8721-A1A47631EB87*
G04*
G04*
G04 #@! TF.FilePolarity,Positive*
G04*
G01*
G75*
%ADD12C,0.00394*%
%ADD15C,0.00500*%
%ADD122R,0.11496X0.02436*%
%ADD123R,0.02436X0.11496*%
D12*
X196912Y336425D02*
G03*
X196912Y336425I-1969J0D01*
G01*
X178802Y320284D02*
X198487D01*
X178802Y339968D02*
X198487D01*
X178802Y320284D02*
Y339968D01*
X198487Y320284D02*
Y339968D01*
X434567Y369866D02*
X440669Y375969D01*
Y409630D01*
X399331D02*
X440669D01*
X399331Y375969D02*
Y409630D01*
Y375969D02*
X405433Y369866D01*
X434567D01*
X285693Y224820D02*
X293961D01*
X285693Y219505D02*
X293961D01*
Y224820D01*
X285693Y219505D02*
Y224820D01*
X297228Y19654D02*
X300772D01*
X297228Y26346D02*
X300772D01*
Y19654D02*
Y26346D01*
X297228Y19654D02*
Y26346D01*
X303593Y361929D02*
X329577D01*
Y335944D02*
Y361929D01*
X303593Y335944D02*
Y361929D01*
Y335944D02*
X329577D01*
X251819Y312199D02*
X258512D01*
X251819Y308656D02*
X258512D01*
Y312199D01*
X251819Y308656D02*
Y312199D01*
X139770Y291906D02*
Y302536D01*
X153156Y291906D02*
Y302536D01*
X139770Y291906D02*
X153156Y291906D01*
X139770Y302536D02*
X153156Y302536D01*
X174641Y351858D02*
X174641Y348314D01*
X181334D02*
X181334Y351858D01*
X174641Y348314D02*
X181334D01*
X174641Y351858D02*
X181334D01*
X166575Y344099D02*
X170118Y344099D01*
X166575Y337406D02*
X170118Y337406D01*
X166575Y337406D02*
Y344099D01*
X170118Y337406D02*
Y344099D01*
X264252Y312366D02*
X270945D01*
X264252Y308823D02*
X270945D01*
Y312366D01*
X264252Y308823D02*
Y312366D01*
Y301967D02*
X270945D01*
X264252Y298424D02*
X270945D01*
Y301967D01*
X264252Y298424D02*
Y301967D01*
X251819Y301910D02*
X258512D01*
X251819Y298366D02*
X258512D01*
Y301910D01*
X251819Y298366D02*
Y301910D01*
X264250Y334765D02*
X270943D01*
X264250Y331222D02*
X270943D01*
Y334765D01*
X264250Y331222D02*
Y334765D01*
X251819Y334749D02*
X258512D01*
X251819Y331205D02*
X258512D01*
Y334749D01*
X251819Y331205D02*
Y334749D01*
Y343964D02*
X258512D01*
X251819Y340421D02*
X258512D01*
Y343964D01*
X251819Y340421D02*
Y343964D01*
X264250Y343988D02*
X270943D01*
X264250Y340444D02*
X270943D01*
Y343988D01*
X264250Y340444D02*
Y343988D01*
X251764Y391767D02*
X258457D01*
X251764Y388224D02*
X258457D01*
Y391767D01*
X251764Y388224D02*
Y391767D01*
X264197D02*
X270890D01*
X264197Y388224D02*
X270890D01*
Y391767D01*
X264197Y388224D02*
Y391767D01*
X251819Y382395D02*
X258512D01*
X251819Y378851D02*
X258512D01*
Y382395D01*
X251819Y378851D02*
Y382395D01*
X264252D02*
X270945D01*
X264252Y378851D02*
X270945D01*
Y382395D01*
X264252Y378851D02*
Y382395D01*
X140068Y304942D02*
Y315572D01*
X153454Y315572D02*
X153454Y304942D01*
X140068Y304942D02*
X153454Y304942D01*
X140068Y315572D02*
X153454Y315572D01*
X140738Y317821D02*
X140738Y323136D01*
X149006Y317821D02*
Y323136D01*
X140738Y317821D02*
X149006D01*
X140738Y323136D02*
X149006D01*
X72400Y301983D02*
Y307298D01*
X80668Y301983D02*
Y307298D01*
X72400Y301983D02*
X80668D01*
X72400Y307298D02*
X80668D01*
X72314Y310383D02*
Y315698D01*
X80582Y310383D02*
Y315698D01*
X72314Y310383D02*
X80582D01*
X72314Y315698D02*
X80582D01*
X79290Y319126D02*
Y322670D01*
X72597Y319126D02*
Y322670D01*
X79290D01*
X72597Y319126D02*
X79290D01*
X445406Y390380D02*
X456902D01*
X445406Y372269D02*
X456902D01*
X445406D02*
Y390380D01*
X456902Y372269D02*
Y390380D01*
X81232Y286206D02*
Y297702D01*
X63121Y286206D02*
Y297702D01*
X81232D01*
X63121Y286206D02*
X81232D01*
X128547D02*
Y297702D01*
X110437Y286206D02*
Y297702D01*
X128547Y297702D01*
X110437Y286206D02*
X128547Y286206D01*
X245231Y253471D02*
Y264101D01*
X258617Y253471D02*
Y264101D01*
X245231Y253471D02*
X258617Y253471D01*
X245231Y264101D02*
X258617Y264101D01*
X280036Y219303D02*
Y224618D01*
X271768Y219303D02*
Y224618D01*
X280036D01*
X271768Y219303D02*
X280036D01*
X278857Y253337D02*
Y263967D01*
X265471Y253337D02*
Y263967D01*
X278857D01*
X265471Y253337D02*
X278857D01*
X308974Y253038D02*
Y264534D01*
X290864Y253038D02*
Y264534D01*
X308974D01*
X290864Y253038D02*
X308974D01*
X40469Y309119D02*
Y334710D01*
Y309119D02*
X66847D01*
Y334710D01*
X40469D02*
X66847D01*
X108811Y309157D02*
Y334748D01*
Y309157D02*
X135189Y309157D01*
X135189Y334748D02*
X135189Y309157D01*
X108811Y334748D02*
X135189D01*
X384100Y369352D02*
X390202Y375455D01*
Y409116D01*
X348864D02*
X390202D01*
X348864Y375455D02*
Y409116D01*
Y375455D02*
X354966Y369352D01*
X384100D01*
D15*
X337898Y402913D02*
Y407087D01*
X340102Y402913D02*
Y407087D01*
X337898D02*
X340102D01*
X337898Y402913D02*
X340102D01*
X342139Y388439D02*
X345090Y391390D01*
X340580Y389998D02*
X343531Y392949D01*
X340580Y389998D02*
X342139Y388439D01*
X343531Y392949D02*
X345090Y391390D01*
X333898Y402913D02*
Y407087D01*
X336102Y402913D02*
Y407087D01*
X333898D02*
X336102D01*
X333898Y402913D02*
X336102D01*
X332898Y20913D02*
Y25087D01*
X335102Y20913D02*
Y25087D01*
X332898D02*
X335102D01*
X332898Y20913D02*
X335102D01*
X314898D02*
Y25087D01*
X317102Y20913D02*
Y25087D01*
X314898D02*
X317102D01*
X314898Y20913D02*
X317102D01*
X181237Y310383D02*
Y312588D01*
X177064Y310383D02*
Y312588D01*
X181237D01*
X177064Y310383D02*
X181237D01*
D122*
X451154Y373488D02*
D03*
D123*
X64338Y291954D02*
D03*
X111656Y291954D02*
D03*
X292079Y258786D02*
D03*
M02*
