G04*
G04 #@! TF.GenerationSoftware,Altium Limited,Altium Designer,25.8.1 (18)*
G04*
G04 Layer_Color=16711935*
%FSLAX25Y25*%
%MOIN*%
G70*
G04*
G04 #@! TF.SameCoordinates,8555A115-1401-43ED-8721-A1A47631EB87*
G04*
G04*
G04 #@! TF.FilePolarity,Positive*
G04*
G01*
G75*
%ADD12C,0.00394*%
%ADD13C,0.00787*%
%ADD15C,0.00500*%
%ADD121R,0.03765X0.24488*%
D12*
X425268Y215701D02*
G03*
X425268Y215701I-1969J0D01*
G01*
X219994Y136391D02*
G03*
X219994Y136391I-1969J0D01*
G01*
X184479Y335889D02*
G03*
X184479Y335889I-1969J0D01*
G01*
X402192Y48525D02*
G03*
X402192Y48525I-1969J0D01*
G01*
X69581Y139477D02*
G03*
X69581Y139477I-1969J0D01*
G01*
X77354Y356381D02*
G03*
X77354Y356381I-1969J0D01*
G01*
X138830Y356137D02*
G03*
X138830Y356137I-1969J0D01*
G01*
X431866Y185508D02*
X438559D01*
X431866Y181965D02*
X438559D01*
X431866D02*
Y185508D01*
X438559Y181965D02*
Y185508D01*
X411654Y185772D02*
X418347D01*
X411654Y182228D02*
X418347D01*
X411654D02*
Y185772D01*
X418347Y182228D02*
Y185772D01*
X403803Y201228D02*
X410496D01*
X403803Y204772D02*
X410496D01*
Y201228D02*
Y204772D01*
X403803Y201228D02*
Y204772D01*
X399772Y208653D02*
Y215347D01*
X396228Y208653D02*
Y215347D01*
X399772D01*
X396228Y208653D02*
X399772D01*
X407158Y231842D02*
X426842D01*
X407158Y212158D02*
X426842D01*
X407158D02*
Y231842D01*
X426842Y212158D02*
Y231842D01*
X326577Y292765D02*
X342719D01*
X342719Y312489D02*
X342719Y292765D01*
X326577D02*
Y312489D01*
X342719D01*
X276991Y140097D02*
X282306D01*
X276991Y131829D02*
X282306D01*
Y140097D01*
X276991Y131829D02*
Y140097D01*
X285991Y140097D02*
X291306D01*
X285991Y131829D02*
X291306D01*
X291306Y140097D02*
X291306Y131829D01*
X285991D02*
Y140097D01*
X267991Y140357D02*
X273306D01*
X267991Y132089D02*
X273306D01*
Y140357D01*
X267991Y132089D02*
Y140357D01*
X160991Y139357D02*
X166306D01*
X160991Y131089D02*
X166306D01*
Y139357D01*
X160991Y131089D02*
Y139357D01*
X151991Y139357D02*
X157306D01*
X151991Y131089D02*
X157306D01*
Y139357D01*
X151991Y131089D02*
Y139357D01*
X169991Y139357D02*
X175306D01*
X169991Y131089D02*
X175306D01*
Y139357D01*
X169991Y131089D02*
Y139357D01*
X201883Y152533D02*
X221568D01*
X201883Y132848D02*
X221568D01*
X201883D02*
Y152533D01*
X221568Y132848D02*
Y152533D01*
X243187Y166335D02*
X249880Y166335D01*
X243187Y169879D02*
X249880D01*
Y166335D02*
Y169879D01*
X243187Y166335D02*
X243187Y169879D01*
X243321Y154556D02*
X250013D01*
X243321Y151013D02*
X250013Y151013D01*
X243321Y151013D02*
X243321Y154556D01*
X250013D02*
X250013Y151013D01*
X242576Y129466D02*
X249269Y129466D01*
X242576Y125923D02*
X249269Y125923D01*
X242576Y125923D02*
Y129466D01*
X249269Y125923D02*
Y129466D01*
X243006Y141250D02*
X249699Y141250D01*
X243006Y144793D02*
X249699Y144793D01*
X249699Y141250D01*
X243006Y141250D02*
X243006Y144793D01*
X237238Y92990D02*
X237238Y104801D01*
X230151Y92990D02*
Y104801D01*
Y92990D02*
X237238D01*
X230151Y104801D02*
X237238D01*
X198742Y120687D02*
X205435D01*
X198742Y124230D02*
X205435D01*
Y120687D02*
Y124230D01*
X198742Y120687D02*
Y124230D01*
X189654Y128714D02*
X193197D01*
X189654Y135407D02*
X193197D01*
X189654Y128714D02*
Y135407D01*
X193197Y128714D02*
Y135407D01*
X204258Y93162D02*
Y104973D01*
X197172Y93162D02*
Y104973D01*
Y93162D02*
X204258Y93162D01*
X197172Y104973D02*
X204258D01*
X59640Y292942D02*
Y298651D01*
X50978Y292942D02*
Y298651D01*
Y292942D02*
X59640D01*
X50978Y298651D02*
X59640D01*
X58735Y301313D02*
Y304856D01*
X52042Y301313D02*
Y304856D01*
Y301313D02*
X58735D01*
X52042Y304856D02*
X58735D01*
X85294Y375182D02*
Y378725D01*
X78601Y375182D02*
Y378725D01*
Y375182D02*
X85294D01*
X78601Y378725D02*
X85294D01*
X327866Y336756D02*
X336134D01*
X327866Y331441D02*
X336134D01*
X327866D02*
Y336756D01*
X336134Y331441D02*
Y336756D01*
X328126Y344657D02*
X336394D01*
X328126Y339342D02*
X336394D01*
X328126D02*
X328126Y344657D01*
X336394Y339342D02*
Y344657D01*
X325325Y347147D02*
Y350691D01*
X332018Y347147D02*
Y350691D01*
X325325D02*
X332018D01*
X325325Y347147D02*
X332018D01*
X178967Y319747D02*
X198652D01*
X178967Y339432D02*
X198652D01*
Y319747D02*
Y339432D01*
X178967Y319747D02*
Y339432D01*
X323228Y408197D02*
X326772D01*
X323228Y401504D02*
X326772D01*
Y408197D01*
X323228Y401504D02*
Y408197D01*
X372228Y210346D02*
X375772Y210347D01*
X372228Y203654D02*
X375772Y203654D01*
Y210347D01*
X372228Y203654D02*
Y210346D01*
X402662Y80925D02*
X409355D01*
X402662Y84468D02*
X409355D01*
Y80925D02*
Y84468D01*
X402662Y80925D02*
Y84468D01*
X384141Y80685D02*
X390834D01*
X384141Y84228D02*
X390834D01*
Y80685D02*
Y84228D01*
X384141Y80685D02*
Y84228D01*
X400966Y397179D02*
Y409975D01*
X407462Y397179D02*
Y409975D01*
X400966Y397179D02*
X407462D01*
X400966Y409975D02*
X407462D01*
X382628Y397179D02*
Y409975D01*
X389124Y397179D02*
Y409975D01*
X382628Y397179D02*
X389124D01*
X382628Y409975D02*
X389124D01*
X181183Y299858D02*
Y308126D01*
X175868Y299858D02*
Y308126D01*
X181183Y308126D01*
X175868Y299858D02*
X181183D01*
X68126Y12342D02*
X76394D01*
X68126Y17658D02*
X76394D01*
Y12342D02*
Y17658D01*
X68126Y12342D02*
Y17658D01*
X42527Y382992D02*
Y391259D01*
X47842Y382992D02*
Y391259D01*
X42527Y382992D02*
X47842D01*
X42527Y391259D02*
X47842D01*
X477979Y204857D02*
Y213125D01*
X472664Y204857D02*
Y213125D01*
X477979D01*
X472664Y204857D02*
X477979Y204857D01*
X442149Y18152D02*
X450417D01*
X442149Y12837D02*
X450417D01*
X442149D02*
Y18152D01*
X450417Y12837D02*
Y18152D01*
X442149Y70678D02*
X450417D01*
X442149Y75993D02*
X450417D01*
Y70678D02*
Y75993D01*
X442149Y70678D02*
Y75993D01*
X299115Y348072D02*
Y354765D01*
X302658Y348072D02*
Y354765D01*
X299115Y348072D02*
X302658D01*
X299115Y354765D02*
X302658D01*
X253728Y293445D02*
Y301713D01*
X248413Y293445D02*
Y301713D01*
X253728Y301713D01*
X248413Y293445D02*
X253728D01*
X189654Y348228D02*
X196346D01*
X189654Y351772D02*
X196346D01*
Y348228D02*
Y351772D01*
X189654Y348228D02*
X189654Y351772D01*
X258020Y315979D02*
Y321294D01*
X249752Y315979D02*
Y321294D01*
Y315979D02*
X258020D01*
X249752Y321294D02*
X258020D01*
X331343Y27134D02*
X336658D01*
X331343Y18866D02*
X336658D01*
Y27134D01*
X331343Y18866D02*
Y27134D01*
X460244Y353984D02*
X465756D01*
X460244Y342016D02*
X465756D01*
X460244D02*
Y353984D01*
X465756Y342016D02*
Y353984D01*
X472386Y344654D02*
Y351346D01*
X475929Y344654D02*
Y351346D01*
X472386Y344654D02*
X475929Y344654D01*
X472386Y351346D02*
X475929Y351346D01*
X466760Y320844D02*
X472272D01*
X466760Y332813D02*
X472272Y332813D01*
X472272Y320844D01*
X466760D02*
Y332813D01*
X456150Y323584D02*
X456150Y330277D01*
X459694Y323584D02*
Y330277D01*
X456150Y323584D02*
X459694D01*
X456150Y330277D02*
X459694D01*
X396680Y32383D02*
Y52068D01*
X416365Y32383D02*
Y52068D01*
X396680D02*
X416365D01*
X396680Y32383D02*
X416365D01*
X71155Y135933D02*
Y155619D01*
X51470Y135933D02*
Y155619D01*
Y135933D02*
X71155D01*
X51470Y155619D02*
X71155D01*
X85343Y113145D02*
X92430D01*
X85343Y101334D02*
X92430D01*
X85343D02*
Y113145D01*
X92430Y101334D02*
Y113145D01*
X288965Y304837D02*
X292509D01*
X288965Y311529D02*
X292509D01*
X288965Y304837D02*
Y311529D01*
X292509Y304837D02*
Y311529D01*
X318251Y371552D02*
X332031D01*
Y393206D01*
X318251Y371552D02*
Y393206D01*
X332031D01*
X232703Y364783D02*
X236246D01*
X232703Y371476D02*
X236246D01*
X232703Y364783D02*
Y371476D01*
X236246Y364783D02*
Y371476D01*
X206968Y343588D02*
X210511Y343588D01*
X206968Y336895D02*
X210511D01*
Y343588D01*
X206968Y343588D02*
X206968Y336895D01*
X149017Y318931D02*
Y343419D01*
X121025Y318931D02*
Y343419D01*
Y318931D02*
X149017D01*
X121025Y343419D02*
X149017D01*
X81573Y343802D02*
X81573Y319313D01*
X53581D02*
Y343802D01*
Y319313D02*
X81573D01*
X53581Y343802D02*
X81573Y343802D01*
X347228Y297346D02*
X350772Y297346D01*
X347228Y290654D02*
X350772D01*
X350772Y297346D01*
X347228Y290654D02*
Y297346D01*
X256355Y389588D02*
Y396281D01*
X259899Y389588D02*
Y396281D01*
X256355Y389588D02*
X259899D01*
X256355Y396281D02*
X259899D01*
X248418Y382130D02*
X253733D01*
X248418Y373862D02*
X253733D01*
Y382130D01*
X248418Y373862D02*
Y382130D01*
X229472Y327774D02*
X245614D01*
Y347499D01*
X229472Y327774D02*
Y347499D01*
X245614D01*
X259971Y326613D02*
Y333306D01*
X256428Y326613D02*
Y333306D01*
X259971D01*
X256428Y326613D02*
X259971D01*
X229723Y350646D02*
Y354189D01*
X236416Y350646D02*
Y354189D01*
X229723D02*
X236416D01*
X229723Y350646D02*
X236416D01*
X233242Y267190D02*
X236786D01*
X233242Y273883D02*
X236786D01*
X233242Y267190D02*
Y273883D01*
X236786Y267190D02*
Y273883D01*
X227062Y267150D02*
X230606D01*
X227062Y273843D02*
X230606D01*
X227062Y267150D02*
Y273843D01*
X230606Y267150D02*
Y273843D01*
X257966Y305598D02*
Y310913D01*
X249698Y305598D02*
Y310913D01*
Y305598D02*
X257966D01*
X249698Y310913D02*
X257966D01*
X257799Y266234D02*
Y271549D01*
X249531Y266234D02*
Y271549D01*
Y266234D02*
X257799D01*
X249531Y271549D02*
X257799D01*
X256396Y341698D02*
Y348391D01*
X259939Y341698D02*
Y348391D01*
X256396Y341698D02*
X259939D01*
X256396Y348391D02*
X259939D01*
X233079Y316449D02*
X236622D01*
X233079Y323142D02*
X236622D01*
X233079Y316449D02*
Y323142D01*
X236622Y316449D02*
Y323142D01*
X304006Y302266D02*
Y307581D01*
X312273Y302266D02*
Y307581D01*
X304006D02*
X312273D01*
X304006Y302266D02*
X312273D01*
X311759Y310262D02*
Y313805D01*
X305066Y310262D02*
Y313805D01*
Y310262D02*
X311759D01*
X305066Y313805D02*
X311759D01*
X294993Y311851D02*
X300308D01*
X294993Y303583D02*
X300308D01*
Y311851D01*
X294993Y303583D02*
Y311851D01*
X281150Y312660D02*
X286465D01*
X281150Y304392D02*
X286465D01*
Y312660D01*
X281150Y304392D02*
Y312660D01*
X93559Y256659D02*
Y263352D01*
X90015Y256659D02*
Y263352D01*
X93559D01*
X90015Y256659D02*
X93559D01*
X81065Y256676D02*
Y263369D01*
X77522Y256676D02*
Y263369D01*
X81065D01*
X77522Y256676D02*
X81065D01*
X110262Y256676D02*
Y263369D01*
X106719D02*
X106719Y256676D01*
X106719Y263369D02*
X110262D01*
X106719Y256676D02*
X110262D01*
X95306Y217425D02*
Y224117D01*
X98849D02*
X98849Y217425D01*
X95306D02*
X98849D01*
X95306Y224117D02*
X98849D01*
X108027Y217440D02*
Y224132D01*
X111571Y217440D02*
Y224132D01*
X108027Y217440D02*
X111571D01*
X108027Y224132D02*
X111571D01*
X229750Y301333D02*
Y304876D01*
X236442Y301333D02*
Y304876D01*
X229750D02*
X236442D01*
X229750Y301333D02*
X236442D01*
X257913Y401592D02*
Y406907D01*
X249646Y401592D02*
Y406907D01*
Y401592D02*
X257913D01*
X249646Y406907D02*
X257913D01*
X256377Y375261D02*
X259921D01*
X256377Y381954D02*
X259921D01*
X256377Y375261D02*
Y381954D01*
X259921Y375261D02*
Y381954D01*
X257916Y364535D02*
Y369850D01*
X249648Y364535D02*
Y369850D01*
Y364535D02*
X257916D01*
X249648Y369850D02*
X257916D01*
X257942Y353763D02*
Y359078D01*
X249674Y353763D02*
Y359078D01*
Y353763D02*
X257942D01*
X249674Y359078D02*
X257942D01*
X311266Y284171D02*
Y289683D01*
X302801Y284171D02*
Y289683D01*
X311266D01*
X302801Y284171D02*
X311266D01*
X75819Y393315D02*
X89205D01*
X75819Y382685D02*
X89205D01*
X75819D02*
Y393315D01*
X89205Y382685D02*
Y393315D01*
X229471Y298216D02*
X245613D01*
X229471Y278492D02*
Y298216D01*
X245613Y278492D02*
Y298216D01*
X229471Y278492D02*
X245613D01*
X248517Y325215D02*
Y333483D01*
X253832Y325215D02*
Y333483D01*
X248517Y325215D02*
X253832D01*
X248517Y333483D02*
X253832Y333483D01*
X229472Y395865D02*
X245614D01*
X229472Y376141D02*
Y395865D01*
X245614Y376141D02*
Y395865D01*
X229472Y376141D02*
X245614D01*
X253663Y389400D02*
Y397668D01*
X248348Y389400D02*
Y397668D01*
X253663Y397668D01*
X248348Y389400D02*
X253663D01*
X253753Y341507D02*
Y349775D01*
X248438Y341507D02*
Y349775D01*
X253753D01*
X248438Y341507D02*
X253753D01*
X259957Y276924D02*
Y283617D01*
X256413Y276924D02*
Y283617D01*
X259957D01*
X256413Y276924D02*
X259957D01*
X248391Y275588D02*
Y283856D01*
X253706Y275588D02*
Y283856D01*
X248391Y275588D02*
X253706D01*
X248391Y283856D02*
X253706D01*
X256414Y293670D02*
Y300363D01*
X259957Y293670D02*
Y300363D01*
X256414Y293670D02*
X259957D01*
X256414Y300363D02*
X259957D01*
X130235Y304018D02*
X142243D01*
X130235Y297128D02*
X142243D01*
Y304018D01*
X130235D02*
X130235Y297128D01*
X63181Y372522D02*
X78929D01*
X63181Y352837D02*
X78929Y352837D01*
X63181Y352837D02*
Y372522D01*
X78929Y352837D02*
Y372522D01*
X72322Y279195D02*
X84329D01*
X72322Y286085D02*
X84329D01*
X72322Y279195D02*
Y286085D01*
X84329Y279195D02*
Y286085D01*
X75819Y406315D02*
X89205Y406315D01*
X75819Y395685D02*
X89205Y395685D01*
X75819Y395685D02*
Y406315D01*
X89205Y395685D02*
Y406315D01*
X43656Y372785D02*
X50349D01*
X43656Y369242D02*
X50349D01*
X43656D02*
Y372785D01*
X50349Y369242D02*
Y372785D01*
X59936Y378707D02*
X66629D01*
X59936Y375163D02*
X66629D01*
X59936D02*
Y378707D01*
X66629Y375163D02*
Y378707D01*
X90339Y348613D02*
Y356880D01*
X95654Y348613D02*
Y356880D01*
X90339Y348613D02*
X95654D01*
X90339Y356880D02*
X95654D01*
X43605Y362864D02*
X50298D01*
X43605Y366408D02*
X50298D01*
Y362864D02*
Y366408D01*
X43605Y362864D02*
Y366408D01*
X43247Y295101D02*
Y301794D01*
X46790Y295101D02*
Y301794D01*
X43247Y295101D02*
X46790D01*
X43247Y301794D02*
X46790D01*
X64445Y295463D02*
Y302155D01*
X67988Y295463D02*
Y302155D01*
X64445Y295463D02*
X67988D01*
X64445Y302155D02*
X67988D01*
X229531Y398865D02*
X236224D01*
X229531Y402408D02*
X236224D01*
Y398865D02*
Y402408D01*
X229531Y398865D02*
Y402408D01*
X230066Y364815D02*
Y371508D01*
X226523Y364815D02*
Y371508D01*
X230066D01*
X226523Y364815D02*
X230066D01*
X413805Y64211D02*
X420498D01*
X413805Y60668D02*
X420498D01*
X413805D02*
Y64211D01*
X420498Y60668D02*
Y64211D01*
X425058Y48638D02*
Y55331D01*
X428601Y48638D02*
Y55331D01*
X425058Y48638D02*
X428601D01*
X425058Y55331D02*
X428601D01*
X56164Y100696D02*
Y112507D01*
X49077Y100696D02*
Y112507D01*
Y100696D02*
X56164D01*
X49077Y112507D02*
X56164D01*
X68531Y108093D02*
Y114786D01*
X64987Y108093D02*
Y114786D01*
X68531D01*
X64987Y108093D02*
X68531Y108093D01*
X104089Y109024D02*
Y115717D01*
X100546Y109024D02*
Y115717D01*
X104089D01*
X100546Y109024D02*
X104089D01*
X116743Y133008D02*
Y144819D01*
X123830Y133008D02*
X123830Y144819D01*
X116743D02*
X123830D01*
X116743Y133008D02*
X123830D01*
X104960Y130662D02*
Y137355D01*
X108504Y130662D02*
Y137355D01*
X104960Y130662D02*
X108504D01*
X104960Y137355D02*
X108504D01*
X116541Y156880D02*
Y168691D01*
X123628D02*
X123628Y156880D01*
X116541Y168691D02*
X123628D01*
X116541Y156880D02*
X123628D01*
X104602Y154333D02*
X104602Y161026D01*
X108145Y154333D02*
Y161026D01*
X104602Y154333D02*
X108145D01*
X104602Y161026D02*
X108145D01*
X93266Y177523D02*
Y189334D01*
X86179D02*
X86179Y177523D01*
X93266D01*
X86179Y189334D02*
X93266D01*
X105256Y185036D02*
X105256Y191729D01*
X101713D02*
X101713Y185036D01*
X101713Y191729D02*
X105256D01*
X101713Y185036D02*
X105256D01*
X58652Y177823D02*
Y189634D01*
X51565Y177823D02*
Y189634D01*
Y177823D02*
X58652D01*
X51565Y189634D02*
X58652D01*
X70259Y186043D02*
Y192736D01*
X66716Y186043D02*
Y192736D01*
X70259D01*
X66716Y186043D02*
X70259D01*
X47905Y123969D02*
X54598D01*
X47905Y127512D02*
X54598D01*
Y123969D02*
Y127512D01*
X47905Y123969D02*
Y127512D01*
X43080Y132946D02*
Y139639D01*
X39537Y132946D02*
Y139639D01*
X43080D01*
X39537Y132946D02*
X43080D01*
X124657Y372279D02*
X140405D01*
X124657Y352594D02*
X140405D01*
X124657D02*
Y372279D01*
X140405Y352594D02*
Y372279D01*
X151130Y348106D02*
Y356373D01*
X156445Y348106D02*
Y356373D01*
X151130Y348106D02*
X156445Y348106D01*
X151130Y356373D02*
X156445Y356373D01*
X138180Y393425D02*
X151566Y393425D01*
X138180Y382796D02*
X151566Y382796D01*
X138180Y382796D02*
Y393425D01*
X151566Y382796D02*
Y393425D01*
X138234Y406312D02*
X151620Y406312D01*
X138234Y395683D02*
X151620Y395683D01*
X138234Y395683D02*
Y406312D01*
X151620Y395683D02*
Y406312D01*
X118300Y375860D02*
Y381175D01*
X126568Y375860D02*
Y381175D01*
X118300D02*
X126568D01*
X118300Y375860D02*
X126568D01*
X105054Y357377D02*
X111747D01*
X105054Y360920D02*
X111747Y360920D01*
Y357377D02*
Y360920D01*
X105054Y357377D02*
Y360920D01*
X104700Y370384D02*
X111393Y370384D01*
X104700Y373927D02*
X111393D01*
Y370384D02*
Y373927D01*
X104700Y370384D02*
Y373927D01*
X138450Y374931D02*
Y380246D01*
X146718Y374931D02*
Y380246D01*
X138450D02*
X146718D01*
X138450Y374931D02*
X146718D01*
X343998Y348788D02*
Y357055D01*
X349312Y348788D02*
Y357055D01*
X343998Y348788D02*
X349312D01*
X343998Y357055D02*
X349312D01*
X340986Y380866D02*
X340986Y394252D01*
X351616D02*
X351616Y380866D01*
X340986D02*
X351616D01*
X340986Y394252D02*
X351616D01*
X351592Y375933D02*
X351592Y362547D01*
X340962D02*
X340962Y375933D01*
X351592D01*
X340962Y362547D02*
X351592D01*
X302561Y329569D02*
Y342364D01*
X309057Y329569D02*
Y342364D01*
X302561Y329569D02*
X309057D01*
X302561Y342364D02*
X309057D01*
X308004Y347165D02*
X314697D01*
X308004Y350708D02*
X314697D01*
Y347165D02*
Y350708D01*
X308004Y347165D02*
Y350708D01*
X355774Y308414D02*
X360506Y303681D01*
X353268Y305908D02*
X358001Y301176D01*
X353268Y305908D02*
X355774Y308414D01*
X358001Y301176D02*
X360506Y303681D01*
X305022Y400851D02*
X311714D01*
X305022Y397308D02*
X311714D01*
X305022D02*
Y400851D01*
X311714Y397308D02*
Y400851D01*
X304927Y390829D02*
X311620D01*
X304927Y394373D02*
X311620D01*
Y390829D02*
Y394373D01*
X304927Y390829D02*
Y394373D01*
X295491Y332189D02*
Y338882D01*
X291948Y332189D02*
Y338882D01*
X295491D01*
X291948Y332189D02*
X295491D01*
X293961Y377205D02*
Y380748D01*
X300654Y377205D02*
Y380748D01*
X293961Y380748D02*
X300654Y380748D01*
X293961Y377205D02*
X300654D01*
X295231Y374395D02*
X300742D01*
X295231Y365931D02*
X300742D01*
X295231D02*
X295231Y374395D01*
X300742D02*
X300742Y365931D01*
X143772Y256653D02*
Y263347D01*
X140228Y256653D02*
Y263347D01*
X143772D01*
X140228Y256653D02*
X143772D01*
X442513Y408489D02*
X449205D01*
X442513Y404945D02*
X449205D01*
X442513D02*
Y408489D01*
X449205Y404945D02*
Y408489D01*
X117317Y256676D02*
Y263369D01*
X113773Y256676D02*
Y263369D01*
X117317D01*
X113773Y256676D02*
X117317D01*
X441126Y416657D02*
X449394D01*
X441126Y411342D02*
X449394D01*
X441126D02*
X441126Y416657D01*
X449394Y411342D02*
Y416657D01*
X123479Y256654D02*
Y263347D01*
X119935Y256654D02*
Y263347D01*
X123479D01*
X119935Y256654D02*
X123479D01*
X313342Y18866D02*
Y27134D01*
X318657Y18866D02*
Y27134D01*
X313342Y18866D02*
X318657D01*
X313342Y27134D02*
X318657D01*
X296342Y18866D02*
Y27134D01*
X301658Y18866D02*
Y27134D01*
X296342Y18866D02*
X301658D01*
X296342Y27134D02*
X301658D01*
X230749Y316487D02*
Y323179D01*
X227206Y316487D02*
Y323179D01*
X230749D01*
X227206Y316487D02*
X230749D01*
D13*
X304338Y363745D02*
G03*
X304338Y363745I-394J0D01*
G01*
X321507Y363750D02*
G03*
X321507Y363750I-394J0D01*
G01*
X321306Y262958D02*
Y274375D01*
Y262958D02*
X342566D01*
X321306Y274375D02*
Y276343D01*
X342566D01*
Y262958D02*
Y276343D01*
X71094Y292028D02*
X73062Y292028D01*
X71094Y312697D02*
X84873D01*
X71094Y292028D02*
Y312697D01*
X84873Y292028D02*
Y312697D01*
X73062Y292028D02*
X84873Y292028D01*
X113714Y290238D02*
X115683Y290238D01*
X113714Y310907D02*
X127494D01*
X113714Y290238D02*
Y310907D01*
X127494Y290238D02*
Y310907D01*
X115683Y290238D02*
X127494Y290238D01*
D15*
X444913Y236102D02*
X444913Y233898D01*
X449087D02*
Y236102D01*
X444913Y236102D02*
X449087Y236102D01*
X444913Y233898D02*
X449087D01*
X444913Y232102D02*
X449087D01*
X444913Y229898D02*
X449087D01*
X444913D02*
Y232102D01*
X449087Y229898D02*
Y232102D01*
X444913Y228102D02*
X449087D01*
X444913Y225898D02*
X449087D01*
X444913D02*
Y228102D01*
X449087Y225898D02*
Y228102D01*
Y224102D02*
X449087Y221898D01*
X444913Y224102D02*
X444913Y221898D01*
X449087D01*
X444913Y224102D02*
X449087D01*
X444803Y216898D02*
X444803Y219102D01*
X448976D02*
X448976Y216898D01*
X444803Y219102D02*
X448976D01*
X444803Y216898D02*
X448976D01*
X439898Y213976D02*
X442102D01*
X439898Y209803D02*
X442102D01*
Y213976D01*
X439898Y209803D02*
Y213976D01*
X444913Y215102D02*
X449087D01*
X444913Y212898D02*
X449087D01*
X444913D02*
Y215102D01*
X449087Y212898D02*
Y215102D01*
X444803Y211102D02*
X448976D01*
X444803Y208898D02*
X448976Y208898D01*
X444803Y208898D02*
X444803Y211102D01*
X448976Y208898D02*
Y211102D01*
X449087Y204898D02*
Y207102D01*
X444913Y204898D02*
Y207102D01*
Y204898D02*
X449087D01*
X444913Y207102D02*
X449087D01*
X439898Y231087D02*
X442102D01*
X439898Y226913D02*
X442102D01*
X442102Y231087D02*
X442102Y226913D01*
X439898D02*
X439898Y231087D01*
X428898Y188913D02*
X431102D01*
X428898Y193087D02*
X431102D01*
X428898Y188913D02*
Y193087D01*
X431102Y188913D02*
Y193087D01*
X435102Y188913D02*
Y193087D01*
X432898Y188913D02*
X432898Y193087D01*
X435102Y193087D01*
X432898Y188913D02*
X435102Y188913D01*
X439102Y193197D02*
X439102Y189024D01*
X436898Y189024D02*
Y193197D01*
X439102D01*
X436898Y189024D02*
X439102Y189024D01*
X440898Y193087D02*
X443102D01*
X440898Y188913D02*
X443102D01*
Y193087D01*
X440898Y188913D02*
Y193087D01*
X438087Y195898D02*
Y198102D01*
X433913Y195898D02*
Y198102D01*
Y195898D02*
X438087Y195898D01*
X433913Y198102D02*
X438087Y198102D01*
X408898Y188913D02*
X411102D01*
X408898Y193087D02*
X411102D01*
X408898Y188913D02*
Y193087D01*
X411102Y188913D02*
Y193087D01*
X415102Y188803D02*
X415102Y192976D01*
X412898Y188803D02*
Y192976D01*
X415102Y192976D01*
X412898Y188803D02*
X415102D01*
X419102Y193087D02*
X419102Y188913D01*
X416898Y188913D02*
X416898Y193087D01*
X419102D01*
X416898Y188913D02*
X419102Y188913D01*
X420898Y193087D02*
X423102D01*
X420898Y188913D02*
X423102D01*
Y193087D01*
X420898Y188913D02*
Y193087D01*
X418087Y195898D02*
Y198102D01*
X413913Y195898D02*
Y198102D01*
Y195898D02*
X418087D01*
X413913Y198102D02*
X418087D01*
X411087Y238898D02*
Y241102D01*
X406913Y238898D02*
Y241102D01*
Y238898D02*
X411087D01*
X406913Y241102D02*
X411087D01*
X372898Y215913D02*
X375102D01*
X372898Y220087D02*
X375102D01*
X372898Y215913D02*
Y220087D01*
X375102Y215913D02*
Y220087D01*
X338372Y317230D02*
X342545D01*
X338372Y315025D02*
X342545D01*
X338372D02*
Y317230D01*
X342545Y315025D02*
Y317230D01*
X280751Y146136D02*
Y150309D01*
X278546Y146136D02*
Y150309D01*
X280751D01*
X278546Y146136D02*
X280751D01*
X271751D02*
Y150309D01*
X269546Y146136D02*
Y150309D01*
X271751D01*
X269546Y146136D02*
X271751D01*
X289751D02*
Y150309D01*
X287546Y146136D02*
Y150309D01*
X289751D01*
X287546Y146136D02*
X289751D01*
X173751Y145136D02*
Y149309D01*
X171546Y145136D02*
Y149309D01*
X173751D01*
X171546Y145136D02*
X173751D01*
X164751D02*
Y149309D01*
X162546Y145136D02*
Y149309D01*
X164751D01*
X162546Y145136D02*
X164751D01*
X155751D02*
Y149309D01*
X153546Y145136D02*
Y149309D01*
X155751D01*
X153546Y145136D02*
X155751D01*
X214952Y107104D02*
Y109309D01*
X210779Y107104D02*
Y109309D01*
Y107104D02*
X214952D01*
X210779Y109309D02*
X214952D01*
X206882Y107132D02*
Y109337D01*
X202709Y107132D02*
Y109337D01*
Y107132D02*
X206882D01*
X202709Y109337D02*
X206882D01*
X202855Y111931D02*
Y114136D01*
X207028Y111931D02*
Y114136D01*
X202855D02*
X207028D01*
X202855Y111931D02*
X207028D01*
X246239Y158998D02*
X250412Y158998D01*
X246239Y156793D02*
X250412D01*
X246239Y158998D02*
X246239Y156793D01*
X250412D02*
Y158998D01*
X236674Y165058D02*
X238879Y165058D01*
X236674Y169231D02*
X238879Y169231D01*
X236674Y165058D02*
Y169231D01*
X238879Y169231D02*
X238879Y165058D01*
X246129Y163998D02*
X250302Y163998D01*
X246129Y161793D02*
X250302D01*
X246129Y163998D02*
X246129Y161793D01*
X250302D02*
Y163998D01*
X240864Y162675D02*
X243068D01*
X240864Y158502D02*
X243068Y158502D01*
Y162675D01*
X240864Y158502D02*
Y162675D01*
X236509Y151485D02*
X238714D01*
X236509Y155658D02*
X238714Y155658D01*
X236509Y151485D02*
Y155658D01*
X238714Y151485D02*
Y155658D01*
X235615Y139783D02*
X237820D01*
X235615Y143956D02*
X237820D01*
X235615Y139783D02*
Y143956D01*
X237820Y139783D02*
Y143956D01*
X235615Y127077D02*
X237820D01*
X235615Y131251D02*
X237820Y131251D01*
X235615Y127077D02*
Y131251D01*
X237820Y127077D02*
X237820Y131251D01*
X246266Y134124D02*
X250439D01*
X246266Y131919D02*
X250439D01*
X246266D02*
Y134124D01*
X250439Y131919D02*
Y134124D01*
X240864Y137459D02*
X243068Y137459D01*
X240864Y133286D02*
X243068D01*
X243068Y137459D01*
X240864Y133286D02*
Y137459D01*
X246266Y138716D02*
X250439D01*
X246266Y136512D02*
X250439Y136512D01*
X246266Y136512D02*
Y138716D01*
X250439D02*
X250439Y136512D01*
X239986Y111931D02*
Y114136D01*
X235813Y111931D02*
Y114136D01*
Y111931D02*
X239986D01*
X235813Y114136D02*
X239986D01*
X244193Y107268D02*
Y109472D01*
X248366Y107268D02*
Y109472D01*
X244193D02*
X248366D01*
X244193Y107268D02*
X248366D01*
X227852Y109110D02*
X232025D01*
X227852Y106905D02*
X232025Y106905D01*
X227852Y106905D02*
X227852Y109110D01*
X232025Y106905D02*
Y109110D01*
X194098Y109303D02*
X198271D01*
X194098Y107098D02*
X198271D01*
X194098D02*
Y109303D01*
X198271Y107098D02*
Y109303D01*
X200353Y163155D02*
X204526D01*
X200353Y160951D02*
X204526D01*
X200353D02*
Y163155D01*
X204526Y160951D02*
Y163155D01*
X239986Y107104D02*
Y109309D01*
X235813Y107104D02*
Y109309D01*
Y107104D02*
X239986D01*
X235813Y109309D02*
X239986D01*
X106684Y366159D02*
X110857D01*
X106684Y363954D02*
X110857D01*
X106684D02*
Y366159D01*
X110857Y363954D02*
Y366159D01*
X83269Y129614D02*
X87442D01*
X83269Y131818D02*
X87442D01*
Y129614D02*
Y131818D01*
X83269Y129614D02*
Y131818D01*
Y141600D02*
Y143805D01*
X87442Y141600D02*
Y143805D01*
X83269D02*
X87442D01*
X83269Y141600D02*
X87442D01*
X83269Y147810D02*
Y150015D01*
X87442Y147810D02*
Y150015D01*
X83269D02*
X87442D01*
X83269Y147810D02*
X87442D01*
X83349Y153596D02*
Y155801D01*
X87522Y153596D02*
Y155801D01*
X83349D02*
X87522D01*
X83349Y153596D02*
X87522D01*
X83275Y159631D02*
X87448D01*
X83275Y161836D02*
X87448D01*
Y159631D02*
Y161836D01*
X83275Y159631D02*
Y161836D01*
X83299Y135250D02*
X87473D01*
X83299Y137455D02*
X87473D01*
Y135250D02*
Y137455D01*
X83299Y135250D02*
Y137455D01*
X297632Y394827D02*
Y399000D01*
X299836Y394827D02*
Y399000D01*
X297632Y394827D02*
X299836D01*
X297632Y399000D02*
X299836D01*
X316760Y307257D02*
Y311430D01*
X318965Y307257D02*
Y311430D01*
X316760Y307257D02*
X318965D01*
X316760Y311430D02*
X318965D01*
X135464Y257456D02*
X137669D01*
X135464Y261629D02*
X137669D01*
X135464Y257456D02*
Y261629D01*
X137669Y257456D02*
Y261629D01*
X467214Y315565D02*
X471388D01*
X467214Y317770D02*
X471388D01*
Y315565D02*
Y317770D01*
X467214Y315565D02*
Y317770D01*
X171470Y355276D02*
Y359449D01*
X169265Y355276D02*
Y359449D01*
X171470D01*
X169265Y355276D02*
X171470D01*
X181957Y355250D02*
Y359423D01*
X179752Y355250D02*
Y359423D01*
X181957D01*
X179752Y355250D02*
X181957D01*
X191826Y355276D02*
Y359449D01*
X189621Y355276D02*
Y359449D01*
X191826D01*
X189621Y355276D02*
X191826D01*
X134768Y221293D02*
Y225466D01*
X132563Y221293D02*
Y225466D01*
X134768D01*
X132563Y221293D02*
X134768D01*
X302347Y271220D02*
Y275393D01*
X304552Y271220D02*
Y275393D01*
X302347Y271220D02*
X304552D01*
X302347Y275393D02*
X304552D01*
X305212Y296674D02*
X309385D01*
X305212Y298878D02*
X309385D01*
Y296674D02*
Y298878D01*
X305212Y296674D02*
Y298878D01*
X308856Y271169D02*
Y275342D01*
X311061Y271169D02*
Y275342D01*
X308856Y271169D02*
X311061D01*
X308856Y275342D02*
X311061D01*
X290136Y296947D02*
X294309D01*
X290136Y299152D02*
X294309D01*
Y296947D02*
Y299152D01*
X290136Y296947D02*
Y299152D01*
X468843Y338581D02*
X473016D01*
X468843Y336376D02*
X473016D01*
X468843D02*
Y338581D01*
X473016Y336376D02*
Y338581D01*
X145698Y296180D02*
X147903D01*
X145698Y300353D02*
X147903D01*
X145698Y296180D02*
Y300353D01*
X147903Y296180D02*
Y300353D01*
X66447Y284361D02*
X68652D01*
X66447Y280188D02*
X68652D01*
Y284361D01*
X66447Y280188D02*
Y284361D01*
X102306Y224516D02*
X104511D01*
X102306Y220343D02*
X104511D01*
Y224516D01*
X102306Y220343D02*
Y224516D01*
X125986Y257456D02*
X128191D01*
X125986Y261629D02*
X128191D01*
X125986Y257456D02*
Y261629D01*
X128191Y257456D02*
Y261629D01*
X102032Y257555D02*
X104237D01*
X102032Y261728D02*
X104237D01*
X102032Y257555D02*
Y261728D01*
X104237Y257555D02*
Y261728D01*
X84191Y257936D02*
X86396D01*
X84191Y262109D02*
X86396D01*
X84191Y257936D02*
Y262109D01*
X86396Y257936D02*
Y262109D01*
X106684Y352342D02*
Y354546D01*
X110857Y352342D02*
Y354546D01*
X106684D02*
X110857D01*
X106684Y352342D02*
X110857D01*
X145667Y347079D02*
Y349284D01*
X141493Y347079D02*
Y349284D01*
Y347079D02*
X145667D01*
X141493Y349284D02*
X145667D01*
X83846Y347390D02*
Y349594D01*
X79673Y347390D02*
Y349594D01*
Y347390D02*
X83846D01*
X79673Y349594D02*
X83846D01*
X195819Y308977D02*
Y311181D01*
X199993Y308977D02*
Y311181D01*
X195819D02*
X199993D01*
X195819Y308977D02*
X199993D01*
X414176Y22231D02*
Y24436D01*
X418349Y22231D02*
Y24436D01*
X414176D02*
X418349D01*
X414176Y22231D02*
X418349D01*
X53246Y163946D02*
Y166151D01*
X49072Y163946D02*
Y166151D01*
Y163946D02*
X53246D01*
X49072Y166151D02*
X53246D01*
X164017Y355276D02*
X166222D01*
X164017Y359449D02*
X166222D01*
X164017Y355276D02*
Y359449D01*
X166222Y355276D02*
Y359449D01*
X174365Y355250D02*
X176569D01*
X174365Y359423D02*
X176569D01*
X174365Y355250D02*
Y359423D01*
X176569Y355250D02*
Y359423D01*
X184599Y355246D02*
X186804D01*
X184599Y359419D02*
X186804D01*
X184599Y355246D02*
Y359419D01*
X186804Y355246D02*
Y359419D01*
X137703Y225466D02*
X139908D01*
X137703Y221293D02*
X139908D01*
Y225466D01*
X137703Y221293D02*
Y225466D01*
X119713Y225466D02*
X121917D01*
X119713Y221293D02*
X121917D01*
Y225466D01*
X119713Y221293D02*
Y225466D01*
X457585Y337694D02*
Y339899D01*
X461758Y337694D02*
Y339899D01*
X457585D02*
X461758D01*
X457585Y337694D02*
X461758D01*
X307881Y366009D02*
X319692D01*
Y353607D02*
Y366009D01*
X307881Y353607D02*
X319692D01*
X307881D02*
Y366009D01*
X295738Y383811D02*
Y387984D01*
X297942Y383811D02*
Y387984D01*
X295738Y383811D02*
X297942D01*
X295738Y387984D02*
X297942D01*
X324224Y300338D02*
Y304511D01*
X322019Y300338D02*
Y304511D01*
X324224D01*
X322019Y300338D02*
X324224D01*
X240929Y402208D02*
X245102D01*
X240929Y404413D02*
X245102D01*
Y402208D02*
Y404413D01*
X240929Y402208D02*
Y404413D01*
X226935Y376305D02*
Y380478D01*
X224730Y376305D02*
Y380478D01*
X226935D01*
X224730Y376305D02*
X226935D01*
X222885Y328056D02*
Y332229D01*
X220681Y328056D02*
Y332229D01*
X222885D01*
X220681Y328056D02*
X222885D01*
X222945Y376292D02*
Y380465D01*
X220740Y376292D02*
Y380465D01*
X222945D01*
X220740Y376292D02*
X222945D01*
X218542Y327959D02*
Y332133D01*
X216337Y327959D02*
Y332133D01*
X218542D01*
X216337Y327959D02*
X218542D01*
X218829Y376246D02*
Y380419D01*
X216625Y376246D02*
Y380419D01*
X218829Y380419D01*
X216625Y376246D02*
X218829Y376246D01*
X241227Y302914D02*
X245400D01*
X241227Y300709D02*
X245400Y300709D01*
X241227Y300709D02*
X241227Y302914D01*
X245400Y300709D02*
X245400Y302914D01*
X241087Y275758D02*
X245260D01*
X241087Y273553D02*
X245260D01*
X241087D02*
Y275758D01*
X245260Y273553D02*
Y275758D01*
X226272Y291967D02*
Y294171D01*
X222099Y291967D02*
Y294171D01*
Y291967D02*
X226272D01*
X222099Y294171D02*
X226272D01*
X222025Y295825D02*
X226198D01*
X222025Y298029D02*
X226198D01*
Y295825D02*
Y298029D01*
X222025Y295825D02*
Y298029D01*
X241154Y367526D02*
X245327D01*
X241154Y369731D02*
X245327D01*
Y367526D02*
Y369731D01*
X241154Y367526D02*
Y369731D01*
X241098Y353868D02*
X245271D01*
X241098Y356073D02*
X245271D01*
Y353868D02*
Y356073D01*
X241098Y353868D02*
Y356073D01*
X241128Y373590D02*
X245301D01*
X241128Y371386D02*
X245301D01*
X241128D02*
Y373590D01*
X245301Y371386D02*
Y373590D01*
X217077Y292973D02*
Y297146D01*
X219282Y292973D02*
Y297146D01*
X217077Y292973D02*
X219282D01*
X217077Y297146D02*
X219282D01*
X223010Y278749D02*
Y282922D01*
X220805Y278749D02*
Y282922D01*
X223010D01*
X220805Y278749D02*
X223010D01*
X290547Y316561D02*
X294720D01*
X290547Y318766D02*
X294720D01*
Y316561D02*
Y318766D01*
X290547Y316561D02*
Y318766D01*
X127050Y221293D02*
Y225466D01*
X124846Y221293D02*
X124846Y225466D01*
X127050D01*
X124846Y221293D02*
X127050Y221293D01*
X245115Y398398D02*
Y400603D01*
X240942Y398398D02*
Y400603D01*
Y398398D02*
X245115D01*
X240942Y400603D02*
X245115D01*
X224884Y328038D02*
X227089D01*
X224884Y332211D02*
X227089D01*
X224884Y328038D02*
Y332211D01*
X227089Y328038D02*
Y332211D01*
X245316Y350032D02*
Y352237D01*
X241143Y350032D02*
Y352237D01*
Y350032D02*
X245316D01*
X241143Y352237D02*
X245316D01*
X241268Y304476D02*
Y306681D01*
X245441Y304476D02*
Y306681D01*
X241268D02*
X245441D01*
X241268Y304476D02*
X245441D01*
X241190Y319200D02*
Y321404D01*
X245363Y319200D02*
Y321404D01*
X241190D02*
X245363D01*
X241190Y319200D02*
X245363D01*
X245320Y323075D02*
Y325280D01*
X241146Y323075D02*
Y325280D01*
Y323075D02*
X245320D01*
X241146Y325280D02*
X245320D01*
X241062Y269726D02*
X241062Y271931D01*
X245236Y269726D02*
Y271931D01*
X241062D02*
X245236D01*
X241062Y269726D02*
X245236Y269726D01*
X224872Y278730D02*
X227077D01*
X224872Y282903D02*
X227077D01*
X224872Y278730D02*
Y282903D01*
X227077Y278730D02*
Y282903D01*
X89279Y370807D02*
Y374980D01*
X91483Y370807D02*
Y374980D01*
X89279Y370807D02*
X91483D01*
X89279Y374980D02*
X91483D01*
X89279Y362549D02*
Y366723D01*
X91483Y362549D02*
Y366723D01*
X89279Y362549D02*
X91483D01*
X89279Y366723D02*
X91483D01*
X43746Y358559D02*
Y360764D01*
X39573Y358559D02*
Y360764D01*
Y358559D02*
X43746D01*
X39573Y360764D02*
X43746D01*
X51453Y358529D02*
Y360734D01*
X47280Y358529D02*
Y360734D01*
Y358529D02*
X51453D01*
X47280Y360734D02*
X51453D01*
X222166Y391903D02*
X226339D01*
X222166Y389698D02*
X226339D01*
X222166D02*
Y391903D01*
X226339Y389698D02*
Y391903D01*
X222129Y393566D02*
Y395771D01*
X226302Y393566D02*
Y395771D01*
X222129D02*
X226302D01*
X222129Y393566D02*
X226302D01*
X372867Y48482D02*
X377041D01*
X372867Y50686D02*
X377041D01*
Y48482D02*
Y50686D01*
X372867Y48482D02*
Y50686D01*
X377028Y44547D02*
Y46751D01*
X372854Y44547D02*
Y46751D01*
Y44547D02*
X377028D01*
X372854Y46751D02*
X377028D01*
X379805Y49439D02*
X382010D01*
X379805Y53613D02*
X382010D01*
X379805Y49439D02*
Y53613D01*
X382010Y49439D02*
Y53613D01*
X372854Y56364D02*
Y58569D01*
X377028Y56364D02*
Y58569D01*
X372854D02*
X377028D01*
X372854Y56364D02*
X377028D01*
X384180Y72101D02*
Y76274D01*
X386385D02*
X386385Y72101D01*
X384180Y72101D02*
X386385Y72101D01*
X384180Y76274D02*
X386385D01*
X372854Y52429D02*
X377028D01*
X372854Y54634D02*
X377028D01*
Y52429D02*
Y54634D01*
X372854Y52429D02*
Y54634D01*
X380181Y72073D02*
X382385D01*
X380181Y76246D02*
X382385Y76246D01*
X380181Y76246D02*
X380181Y72073D01*
X382385D02*
Y76246D01*
X385425Y67074D02*
Y69279D01*
X389598Y67074D02*
Y69279D01*
X385425D02*
X389598D01*
X385425Y67074D02*
X389598D01*
X392216Y76274D02*
X394421D01*
X392216Y72101D02*
X394421Y72101D01*
X394421Y76274D02*
X394421Y72101D01*
X392216Y72101D02*
Y76274D01*
X388217Y72038D02*
Y76211D01*
X390422Y72038D02*
Y76211D01*
X388217Y72038D02*
X390422Y72038D01*
X388217Y76211D02*
X390422Y76211D01*
X373711Y29107D02*
X377884D01*
X373711Y31312D02*
X377884D01*
Y29107D02*
Y31312D01*
X373711Y29107D02*
Y31312D01*
X377781Y25144D02*
Y27348D01*
X373607Y25144D02*
Y27348D01*
Y25144D02*
X377781D01*
X373607Y27348D02*
X377781D01*
X380730Y29990D02*
X382935D01*
X380730Y34164D02*
X382935D01*
X380730Y29990D02*
Y34164D01*
X382935Y29990D02*
Y34164D01*
X373693Y36887D02*
Y39092D01*
X377866Y36887D02*
Y39092D01*
X373693D02*
X377866D01*
X373693Y36887D02*
X377866D01*
X403374Y72330D02*
Y76503D01*
X405579Y72330D02*
Y76503D01*
X403374Y72330D02*
X405579D01*
X403374Y76503D02*
X405579D01*
X373710Y33050D02*
X377883D01*
X373710Y35254D02*
X377883D01*
Y33050D02*
Y35254D01*
X373710Y33050D02*
Y35254D01*
X399336Y72312D02*
X401541Y72312D01*
X399336Y76485D02*
X401541D01*
X399336Y72312D02*
X399336Y76485D01*
X401541Y72312D02*
Y76485D01*
X404436Y67055D02*
Y69260D01*
X408609Y67055D02*
Y69260D01*
X404436D02*
X408609D01*
X404436Y67055D02*
X408609D01*
X411251Y76449D02*
X413456D01*
X411251Y72276D02*
X413456D01*
X413456Y76449D01*
X411251D02*
X411251Y72276D01*
X407268Y72276D02*
Y76449D01*
X409472Y72276D02*
Y76449D01*
X407268Y72276D02*
X409472D01*
X407268Y76449D02*
X409472D01*
X54510Y114689D02*
X58684D01*
X54510Y116893D02*
X58684D01*
Y114689D02*
Y116893D01*
X54510Y114689D02*
Y116893D01*
X46234Y116833D02*
X50407D01*
X46234Y114629D02*
X50407D01*
X46234D02*
Y116833D01*
X50407Y114629D02*
Y116833D01*
X91132Y131831D02*
X95305D01*
X91132Y129626D02*
X95305D01*
X91132D02*
Y131831D01*
X95305Y129626D02*
Y131831D01*
X90435Y115215D02*
X94609D01*
X90435Y117419D02*
X94609D01*
Y115215D02*
Y117419D01*
X90435Y115215D02*
Y117419D01*
X82442Y117474D02*
X86616D01*
X82442Y115269D02*
X86616D01*
X82442D02*
Y117474D01*
X86616Y115269D02*
Y117474D01*
X91350Y137591D02*
X95523D01*
X91350Y135386D02*
X95523D01*
X91350D02*
Y137591D01*
X95523Y135386D02*
Y137591D01*
X114418Y130960D02*
X118592D01*
X114418Y128755D02*
X118592D01*
X114418Y130960D02*
X114418Y128755D01*
X118592D02*
X118592Y130960D01*
X122404Y128719D02*
X126577Y128719D01*
X122404Y130923D02*
X126577D01*
X126577Y128719D01*
X122404Y128719D02*
Y130923D01*
X91350Y143915D02*
X95523Y143915D01*
X91350Y141710D02*
X95523D01*
X91350Y143915D02*
X91350Y141710D01*
X95523Y143915D02*
X95523Y141710D01*
X114418Y154917D02*
X118592D01*
X114418Y152712D02*
X118592Y152712D01*
X114418Y152712D02*
Y154917D01*
X118592D02*
X118592Y152712D01*
X122318Y152675D02*
X126492D01*
X122318Y154879D02*
X126492Y154879D01*
X126492Y152675D02*
X126492Y154879D01*
X122318Y152675D02*
Y154879D01*
X91359Y150015D02*
X95532Y150015D01*
X91359Y147810D02*
X95532D01*
X91359Y150015D02*
X91359Y147810D01*
X95532D02*
Y150015D01*
X91534Y191269D02*
X95707D01*
X91534Y193473D02*
X95707D01*
Y191269D02*
Y193473D01*
X91534Y191269D02*
Y193473D01*
X83511Y193550D02*
X87684Y193550D01*
X83511Y191346D02*
X87684D01*
X83511Y193550D02*
X83511Y191346D01*
X87684D02*
Y193550D01*
X91132Y155831D02*
X95305D01*
X91132Y153626D02*
X95305D01*
X91132D02*
Y155831D01*
X95305Y153626D02*
Y155831D01*
X56374Y191731D02*
X60547D01*
X56374Y193936D02*
X60547D01*
Y191731D02*
Y193936D01*
X56374Y191731D02*
Y193936D01*
X48621D02*
X52794D01*
X48621Y191731D02*
X52794D01*
X48621D02*
Y193936D01*
X52794Y191731D02*
Y193936D01*
X91022Y161831D02*
X95195Y161831D01*
X91022Y159626D02*
X95195Y159626D01*
X91022Y159626D02*
Y161831D01*
X95195Y159626D02*
Y161831D01*
X151030Y361641D02*
Y365815D01*
X153234Y361641D02*
Y365815D01*
X151030Y361641D02*
X153234D01*
X151030Y365815D02*
X153234D01*
X151030Y370069D02*
Y374242D01*
X153234Y370069D02*
Y374242D01*
X151030Y370069D02*
X153234D01*
X151030Y374242D02*
X153234D01*
X325050Y366013D02*
X336861D01*
Y353612D02*
Y366013D01*
X325050Y353612D02*
X336861D01*
X325050D02*
Y366013D01*
X335648Y371367D02*
X337853D01*
X335648Y375541D02*
X337853D01*
X335648Y371367D02*
Y375541D01*
X337853Y371367D02*
Y375541D01*
X342361Y287906D02*
Y290111D01*
X338187Y287906D02*
X338187Y290111D01*
X338187Y287906D02*
X342361Y287906D01*
X338187Y290111D02*
X342361D01*
X338187Y283643D02*
X338187Y285848D01*
X342361Y283643D02*
Y285848D01*
X338187D02*
X342361D01*
X338187Y283643D02*
X342361Y283643D01*
X338398Y318969D02*
Y321174D01*
X342571D02*
X342571Y318969D01*
X338398Y321174D02*
X342571D01*
X338398Y318969D02*
X342571Y318969D01*
X300514Y386202D02*
Y388407D01*
X304687Y386202D02*
Y388407D01*
X300514D02*
X304687D01*
X300514Y386202D02*
X304687D01*
X307661Y377326D02*
Y379531D01*
X311834Y377326D02*
Y379531D01*
X307661D02*
X311834D01*
X307661Y377326D02*
X311834D01*
X311748Y373126D02*
Y375331D01*
X307574Y373126D02*
Y375331D01*
Y373126D02*
X311748D01*
X307574Y375331D02*
X311748D01*
X308635Y388456D02*
X312809D01*
X308635Y386251D02*
X312809D01*
X308635Y388456D02*
X308635Y386251D01*
X312809D02*
X312809Y388456D01*
X314146Y271335D02*
X316350D01*
X314146Y275508D02*
X316350D01*
X314146D02*
X314146Y271335D01*
X316350D02*
X316350Y275508D01*
X298239Y291947D02*
X300444D01*
X298239Y287773D02*
X300444Y287773D01*
Y291947D01*
X298239Y287773D02*
X298239Y291947D01*
X316251Y279101D02*
Y283274D01*
X314047Y279101D02*
Y283274D01*
X316251D01*
X314047Y279101D02*
X316251D01*
X321862Y296587D02*
X324067Y296587D01*
X321862Y292414D02*
X324067Y292414D01*
Y296587D01*
X321862Y292414D02*
X321862Y296587D01*
X298981Y278147D02*
Y282320D01*
X296776Y278147D02*
Y282320D01*
X298981D01*
X296776Y278147D02*
X298981D01*
X296776Y274139D02*
X298981Y274139D01*
X296776Y269966D02*
X298981Y269966D01*
Y274139D01*
X296776Y269966D02*
Y274139D01*
X327694Y317408D02*
X331867Y317408D01*
X327694Y315203D02*
X331867Y315203D01*
X327694Y315203D02*
Y317408D01*
X331867Y315203D02*
Y317408D01*
X296046Y343825D02*
Y347998D01*
X293841Y343825D02*
Y347998D01*
X296046D01*
X293841Y343825D02*
X296046D01*
X292895Y361505D02*
Y363710D01*
X297068Y361505D02*
X297068Y363710D01*
X292895Y363710D02*
X297068Y363710D01*
X292895Y361505D02*
X297068D01*
X222041Y343598D02*
X226215D01*
X222041Y341393D02*
X226215D01*
X222041D02*
Y343598D01*
X226215Y341393D02*
Y343598D01*
X222072Y345181D02*
Y347385D01*
X226245Y345181D02*
Y347385D01*
X222072D02*
X226245D01*
X222072Y345181D02*
X226245D01*
D121*
X122908Y331175D02*
D03*
X55463Y331557D02*
D03*
M02*
