G04*
G04 #@! TF.GenerationSoftware,Altium Limited,Altium Designer,25.8.1 (18)*
G04*
G04 Layer_Color=255*
%FSLAX25Y25*%
%MOIN*%
G70*
G04*
G04 #@! TF.SameCoordinates,8555A115-1401-43ED-8721-A1A47631EB87*
G04*
G04*
G04 #@! TF.FilePolarity,Positive*
G04*
G01*
G75*
%ADD22R,0.02441X0.02244*%
%ADD23R,0.02244X0.02441*%
%ADD24R,0.03740X0.03937*%
%ADD25R,0.03937X0.03740*%
%ADD26R,0.01181X0.06299*%
%ADD27R,0.06299X0.01181*%
%ADD28R,0.00945X0.02362*%
%ADD29R,0.02362X0.00945*%
%ADD30R,0.10433X0.14370*%
%ADD31R,0.03937X0.05709*%
%ADD32R,0.07087X0.04528*%
%ADD33R,0.05709X0.03937*%
%ADD34R,0.03937X0.02362*%
%ADD35R,0.00984X0.02362*%
%ADD36R,0.02362X0.00984*%
%ADD37R,0.08268X0.16142*%
%ADD38R,0.09843X0.12992*%
%ADD39R,0.05315X0.03937*%
%ADD40R,0.01575X0.03543*%
%ADD41R,0.05118X0.10630*%
%ADD42R,0.02362X0.04331*%
%ADD43R,0.09449X0.12205*%
%ADD44R,0.08661X0.01968*%
%ADD45R,0.10630X0.05118*%
%ADD46R,0.03543X0.01575*%
%ADD47R,0.06890X0.04331*%
%ADD48R,0.04803X0.01575*%
%ADD49R,0.04685X0.05787*%
%ADD50R,0.03937X0.05315*%
%ADD51R,0.04331X0.06890*%
G04:AMPARAMS|DCode=52|XSize=37.4mil|YSize=39.37mil|CornerRadius=0mil|HoleSize=0mil|Usage=FLASHONLY|Rotation=135.000|XOffset=0mil|YOffset=0mil|HoleType=Round|Shape=Rectangle|*
%AMROTATEDRECTD52*
4,1,4,0.02714,0.00070,-0.00070,-0.02714,-0.02714,-0.00070,0.00070,0.02714,0.02714,0.00070,0.0*
%
%ADD52ROTATEDRECTD52*%

G04:AMPARAMS|DCode=93|XSize=27.56mil|YSize=15.75mil|CornerRadius=3.94mil|HoleSize=0mil|Usage=FLASHONLY|Rotation=0.000|XOffset=0mil|YOffset=0mil|HoleType=Round|Shape=RoundedRectangle|*
%AMROUNDEDRECTD93*
21,1,0.02756,0.00787,0,0,0.0*
21,1,0.01968,0.01575,0,0,0.0*
1,1,0.00787,0.00984,-0.00394*
1,1,0.00787,-0.00984,-0.00394*
1,1,0.00787,-0.00984,0.00394*
1,1,0.00787,0.00984,0.00394*
%
%ADD93ROUNDEDRECTD93*%
G04:AMPARAMS|DCode=94|XSize=98.82mil|YSize=100.39mil|CornerRadius=2.47mil|HoleSize=0mil|Usage=FLASHONLY|Rotation=0.000|XOffset=0mil|YOffset=0mil|HoleType=Round|Shape=RoundedRectangle|*
%AMROUNDEDRECTD94*
21,1,0.09882,0.09545,0,0,0.0*
21,1,0.09388,0.10039,0,0,0.0*
1,1,0.00494,0.04694,-0.04773*
1,1,0.00494,-0.04694,-0.04773*
1,1,0.00494,-0.04694,0.04773*
1,1,0.00494,0.04694,0.04773*
%
%ADD94ROUNDEDRECTD94*%
%ADD101C,0.06000*%
%ADD102C,0.05315*%
%ADD103C,0.24410*%
%ADD104C,0.25591*%
%ADD105C,0.02362*%
D22*
X448890Y235000D02*
D03*
X445110Y235000D02*
D03*
X448890Y231000D02*
D03*
X445110D02*
D03*
X448890Y227000D02*
D03*
X445110D02*
D03*
X445110Y223000D02*
D03*
X448890D02*
D03*
X448779Y218000D02*
D03*
X445000D02*
D03*
X448890Y214000D02*
D03*
X445110D02*
D03*
X448779Y210000D02*
D03*
X445000Y210000D02*
D03*
X445110Y206000D02*
D03*
X448890D02*
D03*
X434110Y197000D02*
D03*
X437890D02*
D03*
X414110D02*
D03*
X417890D02*
D03*
X290744Y317663D02*
D03*
X410890Y240000D02*
D03*
X414372Y23333D02*
D03*
X222363Y390800D02*
D03*
X222238Y342496D02*
D03*
X222296Y293069D02*
D03*
X196016Y310079D02*
D03*
X204329Y162053D02*
D03*
X53049Y165049D02*
D03*
X407110Y240000D02*
D03*
X338569Y316128D02*
D03*
X342349D02*
D03*
X87246Y130716D02*
D03*
Y142702D02*
D03*
X87246Y148912D02*
D03*
X87326Y154699D02*
D03*
X87251Y160734D02*
D03*
X87276Y136352D02*
D03*
X110660Y353444D02*
D03*
X106881Y365056D02*
D03*
X199796Y310079D02*
D03*
X418152Y23333D02*
D03*
X200550Y162053D02*
D03*
X49269Y165049D02*
D03*
X244905Y403310D02*
D03*
X245203Y301811D02*
D03*
X245063Y274656D02*
D03*
X245130Y368628D02*
D03*
X245074Y354970D02*
D03*
X245104Y372488D02*
D03*
X244919Y399501D02*
D03*
X245119Y351134D02*
D03*
X245244Y305579D02*
D03*
X245167Y320302D02*
D03*
X245123Y324178D02*
D03*
X245039Y270829D02*
D03*
X43549Y359661D02*
D03*
X47477Y359632D02*
D03*
X373051Y45649D02*
D03*
X373051Y57466D02*
D03*
X373804Y26246D02*
D03*
X373890Y37990D02*
D03*
X342164Y289008D02*
D03*
X342164Y284746D02*
D03*
X342374Y320072D02*
D03*
X304490Y387304D02*
D03*
X307857Y378429D02*
D03*
X307771Y374228D02*
D03*
X308832Y387353D02*
D03*
X327891Y316306D02*
D03*
X296871Y362608D02*
D03*
X122515Y153777D02*
D03*
X118395Y153814D02*
D03*
X373064Y49584D02*
D03*
X250105Y162895D02*
D03*
X122601Y129821D02*
D03*
X118395Y129858D02*
D03*
X239789Y113034D02*
D03*
X244389Y108370D02*
D03*
X373051Y53531D02*
D03*
X95326Y142812D02*
D03*
X210976Y108207D02*
D03*
X214756D02*
D03*
X202906Y108235D02*
D03*
X206685D02*
D03*
X206831Y113034D02*
D03*
X203052D02*
D03*
X250215Y157895D02*
D03*
X246436D02*
D03*
X246325Y162895D02*
D03*
X250243Y133021D02*
D03*
X246463D02*
D03*
X250242Y137614D02*
D03*
X246463D02*
D03*
X236010Y113034D02*
D03*
X248169Y108370D02*
D03*
X231828Y108008D02*
D03*
X228049D02*
D03*
X198074Y108201D02*
D03*
X194295D02*
D03*
X236010Y108207D02*
D03*
X239789D02*
D03*
X293091Y362608D02*
D03*
X110660Y365056D02*
D03*
X222222Y296927D02*
D03*
X471191Y316668D02*
D03*
X83466Y130716D02*
D03*
X83466Y142702D02*
D03*
X83466Y148912D02*
D03*
X83546Y154699D02*
D03*
X83471Y160734D02*
D03*
X83496Y136352D02*
D03*
X467411Y316668D02*
D03*
X305409Y297776D02*
D03*
X309189D02*
D03*
X290333Y298050D02*
D03*
X294112D02*
D03*
X472819Y337479D02*
D03*
X469040D02*
D03*
X106881Y353444D02*
D03*
X141690Y348182D02*
D03*
X145470D02*
D03*
X79870Y348492D02*
D03*
X83649D02*
D03*
X461561Y338797D02*
D03*
X457782D02*
D03*
X241126Y403310D02*
D03*
X241424Y301811D02*
D03*
X241284Y274656D02*
D03*
X226075Y293069D02*
D03*
X226001Y296927D02*
D03*
X241351Y368628D02*
D03*
X241295Y354970D02*
D03*
X241325Y372488D02*
D03*
X294524Y317663D02*
D03*
X241139Y399501D02*
D03*
X241339Y351134D02*
D03*
X241464Y305579D02*
D03*
X241387Y320302D02*
D03*
X241343Y324178D02*
D03*
X241259Y270829D02*
D03*
X39770Y359661D02*
D03*
X51257Y359632D02*
D03*
X226142Y390800D02*
D03*
X226105Y394669D02*
D03*
X222326D02*
D03*
X376844Y49584D02*
D03*
X376831Y45649D02*
D03*
X376831Y57466D02*
D03*
X376831Y53531D02*
D03*
X389401Y68177D02*
D03*
X385622Y68177D02*
D03*
X373908Y30209D02*
D03*
X377687D02*
D03*
X377584Y26246D02*
D03*
X377669Y37990D02*
D03*
X373907Y34152D02*
D03*
X377686D02*
D03*
X408412Y68158D02*
D03*
X404633D02*
D03*
X54707Y115791D02*
D03*
X58487D02*
D03*
X50210Y115731D02*
D03*
X46431D02*
D03*
X95108Y130729D02*
D03*
X91329D02*
D03*
X90632Y116317D02*
D03*
X94412D02*
D03*
X86419Y116372D02*
D03*
X82639D02*
D03*
X95326Y136489D02*
D03*
X91546D02*
D03*
X114615Y129858D02*
D03*
X126380Y129821D02*
D03*
X91546Y142812D02*
D03*
X114615Y153814D02*
D03*
X126295Y153777D02*
D03*
X95335Y148912D02*
D03*
X91556Y148912D02*
D03*
X91730Y192371D02*
D03*
X95510D02*
D03*
X87487Y192448D02*
D03*
X83707D02*
D03*
X95108Y154729D02*
D03*
X91329D02*
D03*
X56571Y192834D02*
D03*
X60350D02*
D03*
X52597D02*
D03*
X48818D02*
D03*
X94998Y160729D02*
D03*
X91218Y160729D02*
D03*
X338384Y289008D02*
D03*
Y284746D02*
D03*
X338595Y320072D02*
D03*
X300711Y387304D02*
D03*
X311637Y378429D02*
D03*
X311551Y374228D02*
D03*
X312612Y387353D02*
D03*
X331670Y316306D02*
D03*
X226018Y342496D02*
D03*
X226048Y346283D02*
D03*
X222269D02*
D03*
D23*
X441000Y210000D02*
D03*
Y213779D02*
D03*
Y227110D02*
D03*
Y230890D02*
D03*
X430000Y192890D02*
D03*
Y189110D02*
D03*
X434000D02*
D03*
Y192890D02*
D03*
X438000Y189220D02*
D03*
Y193000D02*
D03*
X442000Y189110D02*
D03*
Y192890D02*
D03*
X410000Y192890D02*
D03*
Y189110D02*
D03*
X414000Y189000D02*
D03*
X414000Y192780D02*
D03*
X418000Y189110D02*
D03*
X418000Y192890D02*
D03*
X422000Y189110D02*
D03*
Y192890D02*
D03*
X374000Y219890D02*
D03*
X322965Y296391D02*
D03*
X225833Y376502D02*
D03*
X225986Y328235D02*
D03*
X225974Y278927D02*
D03*
X374000Y216110D02*
D03*
X136566Y261433D02*
D03*
X146801Y300156D02*
D03*
X67549Y280384D02*
D03*
X103408Y220539D02*
D03*
X127088Y261433D02*
D03*
X103134Y261532D02*
D03*
X85293Y261912D02*
D03*
X165120Y359252D02*
D03*
X175467Y359227D02*
D03*
X185701Y359223D02*
D03*
X138805Y221490D02*
D03*
X120815Y221490D02*
D03*
X296840Y387788D02*
D03*
X323122Y300535D02*
D03*
X225833Y380281D02*
D03*
X221783Y328252D02*
D03*
X221842Y376489D02*
D03*
X217440Y328156D02*
D03*
X217727Y376443D02*
D03*
X218180Y296949D02*
D03*
X221907Y278946D02*
D03*
X236717Y127274D02*
D03*
Y143760D02*
D03*
X237777Y169035D02*
D03*
X237611Y151682D02*
D03*
X225986Y332014D02*
D03*
X225974Y282706D02*
D03*
X90381Y374783D02*
D03*
X381283Y76050D02*
D03*
X393319Y76077D02*
D03*
X389319Y76015D02*
D03*
X400438Y76288D02*
D03*
X412354Y76252D02*
D03*
X408370Y76252D02*
D03*
X152132Y374045D02*
D03*
X299341Y287970D02*
D03*
X322965Y292611D02*
D03*
X297879Y282123D02*
D03*
X297879Y270163D02*
D03*
X294944Y347801D02*
D03*
X279649Y146333D02*
D03*
Y150112D02*
D03*
X270649Y146333D02*
D03*
Y150112D02*
D03*
X288649Y146333D02*
D03*
Y150112D02*
D03*
X218180Y293170D02*
D03*
X221783Y332032D02*
D03*
X221907Y282725D02*
D03*
X172649Y145333D02*
D03*
Y149112D02*
D03*
X163649Y145333D02*
D03*
Y149112D02*
D03*
X154649Y145333D02*
D03*
Y149112D02*
D03*
X217727Y380222D02*
D03*
X217440Y331936D02*
D03*
X221842Y380268D02*
D03*
X237777Y165255D02*
D03*
X241966Y158698D02*
D03*
X241966Y162478D02*
D03*
X237611Y155462D02*
D03*
X236717Y139980D02*
D03*
X236717Y131054D02*
D03*
X241966Y133483D02*
D03*
X241966Y137262D02*
D03*
X299341Y291750D02*
D03*
X67549Y284164D02*
D03*
X146801Y296376D02*
D03*
X298734Y398803D02*
D03*
Y395023D02*
D03*
X317862Y311233D02*
D03*
Y307453D02*
D03*
X136566Y257653D02*
D03*
X170367Y355473D02*
D03*
Y359252D02*
D03*
X180855Y355447D02*
D03*
Y359227D02*
D03*
X190724Y355473D02*
D03*
Y359252D02*
D03*
X133665Y221490D02*
D03*
Y225269D02*
D03*
X303450Y275196D02*
D03*
Y271417D02*
D03*
X309958Y275145D02*
D03*
Y271366D02*
D03*
X103408Y224319D02*
D03*
X127088Y257653D02*
D03*
X103134Y257752D02*
D03*
X85293Y258133D02*
D03*
X165120Y355473D02*
D03*
X175467Y355447D02*
D03*
X185701Y355443D02*
D03*
X138805Y225269D02*
D03*
X120815Y225269D02*
D03*
X296840Y384008D02*
D03*
X323122Y304314D02*
D03*
X125948Y221490D02*
D03*
Y225269D02*
D03*
X90381Y371004D02*
D03*
X90381Y366526D02*
D03*
Y362746D02*
D03*
X380908Y53416D02*
D03*
Y49636D02*
D03*
X385282Y76077D02*
D03*
Y72298D02*
D03*
X381283Y72270D02*
D03*
X393319Y72298D02*
D03*
X389319Y72235D02*
D03*
X381833Y33967D02*
D03*
Y30187D02*
D03*
X404476Y76306D02*
D03*
X404476Y72527D02*
D03*
X400438Y72509D02*
D03*
X412354Y72473D02*
D03*
X408370D02*
D03*
X152132Y365618D02*
D03*
Y361838D02*
D03*
Y370265D02*
D03*
X336751Y375344D02*
D03*
Y371564D02*
D03*
X315248Y275312D02*
D03*
Y271532D02*
D03*
X315149Y279298D02*
D03*
Y283077D02*
D03*
X297879Y278344D02*
D03*
Y273942D02*
D03*
X294944Y344021D02*
D03*
D24*
X432063Y183737D02*
D03*
X438362D02*
D03*
X411850Y184000D02*
D03*
X418150D02*
D03*
X410299Y203000D02*
D03*
X404000D02*
D03*
X409158Y82696D02*
D03*
X390637Y82457D02*
D03*
X189850Y350000D02*
D03*
X229920Y352418D02*
D03*
X229946Y303104D02*
D03*
X243517Y152784D02*
D03*
X198939Y122458D02*
D03*
X242773Y127694D02*
D03*
X78798Y376954D02*
D03*
X66432Y376935D02*
D03*
X58538Y303084D02*
D03*
X229728Y400636D02*
D03*
X420302Y62440D02*
D03*
X48101Y125740D02*
D03*
X104897Y372155D02*
D03*
X311518Y399080D02*
D03*
X305124Y392601D02*
D03*
X442709Y406717D02*
D03*
X249684Y168107D02*
D03*
X243384D02*
D03*
X249817Y152784D02*
D03*
X249072Y127694D02*
D03*
X249502Y143021D02*
D03*
X243203D02*
D03*
X205238Y122458D02*
D03*
X54401Y125740D02*
D03*
X414002Y62440D02*
D03*
X196150Y350000D02*
D03*
X52239Y303084D02*
D03*
X85097Y376954D02*
D03*
X325522Y348919D02*
D03*
X331822D02*
D03*
X402859Y82696D02*
D03*
X384338Y82457D02*
D03*
X236220Y352418D02*
D03*
X311562Y312034D02*
D03*
X305263D02*
D03*
X236246Y303104D02*
D03*
X43853Y371013D02*
D03*
X50152D02*
D03*
X60133Y376935D02*
D03*
X50102Y364636D02*
D03*
X43802D02*
D03*
X236027Y400636D02*
D03*
X111550Y359148D02*
D03*
X105251D02*
D03*
X111196Y372155D02*
D03*
X314500Y348937D02*
D03*
X308201D02*
D03*
X305218Y399080D02*
D03*
X311423Y392601D02*
D03*
X294158Y378977D02*
D03*
X300457D02*
D03*
X449009Y406717D02*
D03*
D25*
X398000Y215150D02*
D03*
Y208850D02*
D03*
X91787Y263155D02*
D03*
X374000Y210150D02*
D03*
X300886Y354568D02*
D03*
X457922Y323781D02*
D03*
X234475Y364979D02*
D03*
X208739Y343391D02*
D03*
X349000Y290850D02*
D03*
X235014Y267387D02*
D03*
X228834Y267347D02*
D03*
X234850Y316646D02*
D03*
X79293Y263172D02*
D03*
X109799Y217636D02*
D03*
X66216Y301959D02*
D03*
X228294Y365012D02*
D03*
X426829Y55134D02*
D03*
X66759Y108290D02*
D03*
X102317Y109220D02*
D03*
X106732Y137158D02*
D03*
X106374Y160829D02*
D03*
X103485Y185233D02*
D03*
X68487Y186240D02*
D03*
X191426Y128911D02*
D03*
X41308Y133143D02*
D03*
X121707Y263150D02*
D03*
X228977Y316683D02*
D03*
X106732Y130859D02*
D03*
X191426Y135210D02*
D03*
X45019Y295298D02*
D03*
X325000Y408000D02*
D03*
Y401701D02*
D03*
X374000Y203850D02*
D03*
X300886Y348269D02*
D03*
X474158Y344850D02*
D03*
Y351150D02*
D03*
X457922Y330080D02*
D03*
X290737Y305033D02*
D03*
Y311333D02*
D03*
X234475Y371279D02*
D03*
X208739Y337092D02*
D03*
X349000Y297150D02*
D03*
X258127Y389785D02*
D03*
Y396084D02*
D03*
X258199Y333109D02*
D03*
Y326810D02*
D03*
X235014Y273686D02*
D03*
X228834Y273646D02*
D03*
X258168Y341895D02*
D03*
Y348194D02*
D03*
X234850Y322945D02*
D03*
X91787Y256856D02*
D03*
X79293Y256873D02*
D03*
X108491Y263172D02*
D03*
Y256873D02*
D03*
X97077Y217621D02*
D03*
Y223921D02*
D03*
X109799Y223936D02*
D03*
X258149Y375458D02*
D03*
Y381757D02*
D03*
X258185Y283420D02*
D03*
Y277121D02*
D03*
X258186Y293867D02*
D03*
Y300167D02*
D03*
X45019Y301597D02*
D03*
X66216Y295659D02*
D03*
X228294Y371311D02*
D03*
X426829Y48834D02*
D03*
X66759Y114589D02*
D03*
X102317Y115520D02*
D03*
X106374Y154530D02*
D03*
X103485Y191532D02*
D03*
X68487Y192539D02*
D03*
X41308Y139442D02*
D03*
X293719Y338685D02*
D03*
Y332386D02*
D03*
X142000Y263150D02*
D03*
Y256850D02*
D03*
X115545Y263172D02*
D03*
Y256873D02*
D03*
X121707Y256850D02*
D03*
X228977Y322983D02*
D03*
D26*
X423890Y209795D02*
D03*
X421921D02*
D03*
X419953D02*
D03*
X417984D02*
D03*
X416016D02*
D03*
X414047D02*
D03*
X412079D02*
D03*
X410110D02*
D03*
Y234205D02*
D03*
X412079D02*
D03*
X414047D02*
D03*
X416016D02*
D03*
X417984D02*
D03*
X419953D02*
D03*
X421921D02*
D03*
X423890D02*
D03*
X401601Y30021D02*
D03*
X183888Y317385D02*
D03*
X413412Y30021D02*
D03*
X411444D02*
D03*
X195699Y317385D02*
D03*
X193731Y317385D02*
D03*
X206805Y154895D02*
D03*
X204836D02*
D03*
X56392Y157981D02*
D03*
X54423D02*
D03*
X409475Y30021D02*
D03*
Y54431D02*
D03*
X407507D02*
D03*
X58360Y157981D02*
D03*
Y133571D02*
D03*
X60329D02*
D03*
X191762Y317385D02*
D03*
Y341795D02*
D03*
X189794D02*
D03*
X208773Y154895D02*
D03*
X208773Y130486D02*
D03*
X210742D02*
D03*
X212710D02*
D03*
X216647D02*
D03*
X214679D02*
D03*
X218616D02*
D03*
X206805D02*
D03*
X204836D02*
D03*
X210742Y154895D02*
D03*
X212710Y154895D02*
D03*
X214679D02*
D03*
X216647D02*
D03*
X218616D02*
D03*
X62297Y157981D02*
D03*
X66234D02*
D03*
X64266D02*
D03*
X56392Y133571D02*
D03*
X411444Y54431D02*
D03*
X193731Y341795D02*
D03*
X68203Y157981D02*
D03*
X181920Y341795D02*
D03*
X183888D02*
D03*
X185857Y341795D02*
D03*
X187825Y341795D02*
D03*
X195699D02*
D03*
X189794Y317385D02*
D03*
X187825Y317385D02*
D03*
X185857D02*
D03*
X181920Y317385D02*
D03*
X399633Y30021D02*
D03*
X403570D02*
D03*
X405538D02*
D03*
X407507D02*
D03*
X413412Y54431D02*
D03*
X405538D02*
D03*
X403570D02*
D03*
X401601D02*
D03*
X399633D02*
D03*
X60329Y157981D02*
D03*
X54423Y133571D02*
D03*
X62297D02*
D03*
X64266D02*
D03*
X66234D02*
D03*
X68203D02*
D03*
D27*
X404795Y215110D02*
D03*
Y217079D02*
D03*
Y219047D02*
D03*
Y221016D02*
D03*
Y222984D02*
D03*
Y224953D02*
D03*
Y226921D02*
D03*
Y228890D02*
D03*
X429205D02*
D03*
Y226921D02*
D03*
Y224953D02*
D03*
Y222984D02*
D03*
Y221016D02*
D03*
Y219047D02*
D03*
Y217079D02*
D03*
Y215110D02*
D03*
X418727Y37305D02*
D03*
X201014Y324669D02*
D03*
X199521Y147612D02*
D03*
X49108Y150697D02*
D03*
X394318Y35336D02*
D03*
X418727D02*
D03*
Y49116D02*
D03*
X73518Y138886D02*
D03*
Y152666D02*
D03*
X49108D02*
D03*
Y138886D02*
D03*
X176605Y336480D02*
D03*
Y322700D02*
D03*
X201014Y322700D02*
D03*
Y336480D02*
D03*
X223931Y149580D02*
D03*
X199521D02*
D03*
X199521Y135801D02*
D03*
X394318Y37305D02*
D03*
Y47147D02*
D03*
X199521Y137769D02*
D03*
Y139738D02*
D03*
Y141706D02*
D03*
X199521Y143675D02*
D03*
Y145643D02*
D03*
X223931Y147612D02*
D03*
Y145643D02*
D03*
Y143675D02*
D03*
Y141706D02*
D03*
Y139738D02*
D03*
Y137769D02*
D03*
Y135801D02*
D03*
X201014Y334511D02*
D03*
Y332543D02*
D03*
Y330574D02*
D03*
Y328606D02*
D03*
Y326637D02*
D03*
X176605Y324669D02*
D03*
Y326637D02*
D03*
Y328606D02*
D03*
Y330574D02*
D03*
X176605Y332543D02*
D03*
X176605Y334511D02*
D03*
X394318Y49116D02*
D03*
Y45179D02*
D03*
Y43210D02*
D03*
Y41242D02*
D03*
Y39273D02*
D03*
X418727D02*
D03*
Y41242D02*
D03*
Y43210D02*
D03*
Y45179D02*
D03*
Y47147D02*
D03*
X73518Y140855D02*
D03*
Y142823D02*
D03*
Y144792D02*
D03*
Y146760D02*
D03*
Y148729D02*
D03*
Y150697D02*
D03*
X49108Y148729D02*
D03*
Y146760D02*
D03*
Y144792D02*
D03*
Y142823D02*
D03*
Y140855D02*
D03*
D28*
X233606Y395452D02*
D03*
Y347085D02*
D03*
X330711Y312076D02*
D03*
X233605Y297803D02*
D03*
X332680Y312076D02*
D03*
X336617D02*
D03*
X338585Y312076D02*
D03*
X334648Y293178D02*
D03*
X336617D02*
D03*
X338585Y293178D02*
D03*
X332680Y293178D02*
D03*
X334648Y312076D02*
D03*
X330711Y293178D02*
D03*
X237543Y347085D02*
D03*
X237542Y297803D02*
D03*
X237543Y395452D02*
D03*
X233606Y328188D02*
D03*
X235575Y347085D02*
D03*
X239512D02*
D03*
X241480D02*
D03*
X235575Y328188D02*
D03*
X237543D02*
D03*
X239512D02*
D03*
X241480D02*
D03*
X241479Y278905D02*
D03*
X239511D02*
D03*
X237542D02*
D03*
X235574D02*
D03*
X241479Y297803D02*
D03*
X239511D02*
D03*
X235574D02*
D03*
X233605Y278905D02*
D03*
X241480Y376554D02*
D03*
X239512D02*
D03*
X237543D02*
D03*
X235575D02*
D03*
X241480Y395452D02*
D03*
X239512D02*
D03*
X235575D02*
D03*
X233606Y376554D02*
D03*
D29*
X327168Y296722D02*
D03*
X230063Y380098D02*
D03*
Y331731D02*
D03*
X230062Y282449D02*
D03*
X342128Y296722D02*
D03*
Y308533D02*
D03*
X327168Y304596D02*
D03*
Y302627D02*
D03*
X342128Y306564D02*
D03*
Y304596D02*
D03*
Y302627D02*
D03*
Y300659D02*
D03*
Y298690D02*
D03*
X327168D02*
D03*
Y300659D02*
D03*
Y306564D02*
D03*
Y308533D02*
D03*
X230063Y335668D02*
D03*
Y333699D02*
D03*
X230062Y284417D02*
D03*
Y286385D02*
D03*
X230063Y382066D02*
D03*
Y384035D02*
D03*
X230062Y290322D02*
D03*
X230063Y337636D02*
D03*
X230062Y288354D02*
D03*
X230063Y387972D02*
D03*
Y339605D02*
D03*
Y386003D02*
D03*
X245024Y331731D02*
D03*
Y343542D02*
D03*
X230063D02*
D03*
Y341574D02*
D03*
X245024D02*
D03*
Y339605D02*
D03*
Y337636D02*
D03*
Y335668D02*
D03*
Y333699D02*
D03*
X245023Y284417D02*
D03*
Y286385D02*
D03*
Y288354D02*
D03*
Y290322D02*
D03*
Y292291D02*
D03*
X230062D02*
D03*
Y294260D02*
D03*
X245023D02*
D03*
Y282449D02*
D03*
X245024Y382066D02*
D03*
Y384035D02*
D03*
Y386003D02*
D03*
Y387972D02*
D03*
Y389940D02*
D03*
X230063D02*
D03*
Y391909D02*
D03*
X245024D02*
D03*
Y380098D02*
D03*
D30*
X334648Y302627D02*
D03*
X237543Y337636D02*
D03*
X237542Y288354D02*
D03*
X237543Y386003D02*
D03*
D31*
X335740Y334098D02*
D03*
X336000Y342000D02*
D03*
X76000Y15000D02*
D03*
X442543Y15494D02*
D03*
Y73335D02*
D03*
X250146Y318636D02*
D03*
X250092Y308255D02*
D03*
X249924Y268892D02*
D03*
X250040Y404250D02*
D03*
X250042Y367192D02*
D03*
X250067Y356420D02*
D03*
X138844Y377589D02*
D03*
X441520Y414000D02*
D03*
X328260Y334098D02*
D03*
X328520Y342000D02*
D03*
X68520Y15000D02*
D03*
X450023Y15494D02*
D03*
Y73335D02*
D03*
X257626Y318636D02*
D03*
X257572Y308255D02*
D03*
X257405Y268892D02*
D03*
X257520Y404250D02*
D03*
X257522Y367192D02*
D03*
X257548Y356420D02*
D03*
X118694Y378517D02*
D03*
X126174D02*
D03*
X146324Y377589D02*
D03*
X449000Y414000D02*
D03*
D32*
X404214Y397868D02*
D03*
X385876D02*
D03*
X404214Y409286D02*
D03*
X385876D02*
D03*
X305809Y330258D02*
D03*
Y341675D02*
D03*
D33*
X178526Y307732D02*
D03*
X45184Y383385D02*
D03*
X475321Y212731D02*
D03*
X251070Y301319D02*
D03*
X334000Y19260D02*
D03*
X251076Y374256D02*
D03*
X251174Y325609D02*
D03*
X251006Y397274D02*
D03*
X251096Y349381D02*
D03*
X251048Y275982D02*
D03*
X92997Y349007D02*
D03*
X153788Y348499D02*
D03*
X346655Y349181D02*
D03*
X316000Y19260D02*
D03*
X299000D02*
D03*
X163649Y131483D02*
D03*
X270649Y132483D02*
D03*
X288649Y132223D02*
D03*
X154649Y131483D02*
D03*
X172649D02*
D03*
X279649Y132223D02*
D03*
Y139703D02*
D03*
X288649D02*
D03*
X270649Y139963D02*
D03*
X163649Y138963D02*
D03*
X154649D02*
D03*
X172649D02*
D03*
X178526Y300252D02*
D03*
X45184Y390866D02*
D03*
X475321Y205251D02*
D03*
X251070Y293839D02*
D03*
X334000Y26740D02*
D03*
X251076Y381736D02*
D03*
X251174Y333089D02*
D03*
X251006Y389794D02*
D03*
X251096Y341901D02*
D03*
X251048Y283462D02*
D03*
X92997Y356487D02*
D03*
X153788Y355980D02*
D03*
X346655Y356662D02*
D03*
X316000Y26740D02*
D03*
X299000D02*
D03*
D34*
X464791Y323088D02*
D03*
X458276Y348000D02*
D03*
X467724Y351740D02*
D03*
Y344260D02*
D03*
X474240Y326829D02*
D03*
X464792Y330569D02*
D03*
D35*
X328094Y392812D02*
D03*
X322188D02*
D03*
X328094Y371946D02*
D03*
X322188D02*
D03*
D36*
X318645Y391237D02*
D03*
X331637D02*
D03*
Y389269D02*
D03*
Y377458D02*
D03*
X318645Y381395D02*
D03*
Y375489D02*
D03*
X331637Y381395D02*
D03*
X318645Y389269D02*
D03*
Y387300D02*
D03*
Y385332D02*
D03*
Y383363D02*
D03*
X331637Y387300D02*
D03*
Y383363D02*
D03*
Y379426D02*
D03*
Y375489D02*
D03*
Y373521D02*
D03*
X318645Y379426D02*
D03*
Y377458D02*
D03*
Y373521D02*
D03*
X331637Y385332D02*
D03*
D37*
X325141Y382379D02*
D03*
D38*
X148604Y331175D02*
D03*
X81160Y331557D02*
D03*
X121439Y331175D02*
D03*
X53994Y331557D02*
D03*
D39*
X283808Y304983D02*
D03*
X297650Y311260D02*
D03*
Y304174D02*
D03*
X283808Y312070D02*
D03*
D40*
X307034Y282596D02*
D03*
X304475Y291258D02*
D03*
X309593D02*
D03*
Y282596D02*
D03*
X304475D02*
D03*
D41*
X77000Y388000D02*
D03*
Y401000D02*
D03*
X139361Y388110D02*
D03*
X139415Y400997D02*
D03*
X88024Y388000D02*
D03*
X88024Y401000D02*
D03*
X150385Y388110D02*
D03*
X150439Y400997D02*
D03*
D42*
X136239Y305691D02*
D03*
X78326Y277522D02*
D03*
X74585Y287758D02*
D03*
X139979Y295455D02*
D03*
Y305691D02*
D03*
X132498Y305691D02*
D03*
Y295455D02*
D03*
X74585Y277522D02*
D03*
X82066Y277522D02*
D03*
Y287758D02*
D03*
D43*
X71055Y362680D02*
D03*
X132531Y362437D02*
D03*
D44*
X59736Y360180D02*
D03*
X121212Y359937D02*
D03*
X59736Y370180D02*
D03*
X59736Y365180D02*
D03*
Y355180D02*
D03*
X82373Y370180D02*
D03*
Y365180D02*
D03*
Y360180D02*
D03*
Y355180D02*
D03*
X121212Y369937D02*
D03*
Y364937D02*
D03*
Y354937D02*
D03*
X143850Y369937D02*
D03*
Y364937D02*
D03*
Y359937D02*
D03*
Y354937D02*
D03*
D45*
X346301Y382048D02*
D03*
X346277Y374752D02*
D03*
X346301Y393071D02*
D03*
X346277Y363728D02*
D03*
D46*
X302317Y370163D02*
D03*
X293656Y367604D02*
D03*
Y372722D02*
D03*
X302317D02*
D03*
Y367604D02*
D03*
D47*
X326129Y272407D02*
D03*
X337743D02*
D03*
X326129Y266895D02*
D03*
X337743D02*
D03*
D48*
X238852Y95057D02*
D03*
Y97616D02*
D03*
Y100175D02*
D03*
Y102734D02*
D03*
X228537Y95057D02*
D03*
X228537Y97616D02*
D03*
X228537Y100175D02*
D03*
Y102734D02*
D03*
X205872Y95229D02*
D03*
X205872Y97788D02*
D03*
X205872Y100347D02*
D03*
Y102906D02*
D03*
X195557Y95229D02*
D03*
X195557Y97788D02*
D03*
X195557Y100347D02*
D03*
Y102906D02*
D03*
X83729Y111078D02*
D03*
Y108519D02*
D03*
Y105960D02*
D03*
Y103401D02*
D03*
X94044Y111078D02*
D03*
Y108519D02*
D03*
Y105960D02*
D03*
Y103401D02*
D03*
X57778Y102763D02*
D03*
X57778Y105322D02*
D03*
X57778Y107881D02*
D03*
Y110441D02*
D03*
X47463Y102763D02*
D03*
Y105322D02*
D03*
Y107881D02*
D03*
Y110441D02*
D03*
X115129Y142752D02*
D03*
Y140193D02*
D03*
Y137634D02*
D03*
Y135074D02*
D03*
X125444Y142752D02*
D03*
Y140193D02*
D03*
Y137634D02*
D03*
Y135074D02*
D03*
X114927Y166624D02*
D03*
X114927Y164065D02*
D03*
Y161506D02*
D03*
X114927Y158947D02*
D03*
X125242Y166624D02*
D03*
X125242Y164065D02*
D03*
X125242Y161506D02*
D03*
X125242Y158947D02*
D03*
X94880Y179590D02*
D03*
Y182149D02*
D03*
Y184708D02*
D03*
Y187267D02*
D03*
X84565Y179590D02*
D03*
Y182149D02*
D03*
Y184708D02*
D03*
Y187267D02*
D03*
X60266Y179890D02*
D03*
Y182449D02*
D03*
Y185008D02*
D03*
Y187567D02*
D03*
X49951Y179890D02*
D03*
Y182449D02*
D03*
Y185008D02*
D03*
Y187567D02*
D03*
D49*
X51943Y295797D02*
D03*
X58675D02*
D03*
D50*
X304596Y304924D02*
D03*
X311683D02*
D03*
D51*
X75031Y296949D02*
D03*
Y307776D02*
D03*
X80543Y296949D02*
D03*
Y307776D02*
D03*
X117651Y295159D02*
D03*
Y305986D02*
D03*
X123163Y295159D02*
D03*
Y305986D02*
D03*
D52*
X354660Y307022D02*
D03*
X359115Y302568D02*
D03*
D93*
X307685Y363647D02*
D03*
Y361088D02*
D03*
Y358528D02*
D03*
Y355970D02*
D03*
X324853Y363651D02*
D03*
Y361092D02*
D03*
Y358533D02*
D03*
Y355974D02*
D03*
D94*
X316326Y359808D02*
D03*
X333495Y359812D02*
D03*
D101*
X221000Y233000D02*
D03*
X291000Y243000D02*
D03*
Y233000D02*
D03*
X301000Y243000D02*
D03*
X91000Y243000D02*
D03*
X81000D02*
D03*
X301000Y233000D02*
D03*
X141000D02*
D03*
X91000D02*
D03*
X81000D02*
D03*
X301000Y53000D02*
D03*
Y43000D02*
D03*
X231000Y243000D02*
D03*
X241000Y43000D02*
D03*
X251000Y53000D02*
D03*
X221000Y43000D02*
D03*
X191000Y243000D02*
D03*
X171000D02*
D03*
Y233000D02*
D03*
X161000Y243000D02*
D03*
X241000Y53000D02*
D03*
X161000Y233000D02*
D03*
X151000Y243000D02*
D03*
X81000Y43000D02*
D03*
X91000D02*
D03*
X101000D02*
D03*
X111000D02*
D03*
X121000D02*
D03*
X131000D02*
D03*
X141000D02*
D03*
X151000D02*
D03*
X161000D02*
D03*
X171000D02*
D03*
X181000D02*
D03*
X191000D02*
D03*
X201000D02*
D03*
X211000D02*
D03*
X231000D02*
D03*
X251000D02*
D03*
X261000D02*
D03*
X271000D02*
D03*
X281000D02*
D03*
X291000D02*
D03*
X81000Y53000D02*
D03*
X101000D02*
D03*
X121000D02*
D03*
X131000D02*
D03*
X141000D02*
D03*
X151000D02*
D03*
X161000D02*
D03*
X171000D02*
D03*
X181000D02*
D03*
X191000D02*
D03*
X201000D02*
D03*
X211000D02*
D03*
X221000D02*
D03*
X231000D02*
D03*
X261000D02*
D03*
X271000D02*
D03*
X281000D02*
D03*
X291000D02*
D03*
X101000Y233000D02*
D03*
X111000D02*
D03*
X121000D02*
D03*
X131000D02*
D03*
X151000D02*
D03*
X181000D02*
D03*
X191000D02*
D03*
X201000D02*
D03*
X211000D02*
D03*
X231000D02*
D03*
X241000D02*
D03*
X251000D02*
D03*
X261000Y233000D02*
D03*
X271000Y233000D02*
D03*
X281000D02*
D03*
X101000Y243000D02*
D03*
X111000Y243000D02*
D03*
X121000D02*
D03*
X131000Y243000D02*
D03*
X141000D02*
D03*
X181000D02*
D03*
X201000Y243000D02*
D03*
X211000D02*
D03*
X221000Y243000D02*
D03*
X241000D02*
D03*
X251000Y243000D02*
D03*
X261000Y243000D02*
D03*
X271000D02*
D03*
X281000D02*
D03*
X91000Y53000D02*
D03*
X111000D02*
D03*
D102*
X405932Y298545D02*
D03*
Y334569D02*
D03*
X398137Y285081D02*
D03*
Y330041D02*
D03*
X390302Y325553D02*
D03*
X382507Y321065D02*
D03*
X414908Y334569D02*
D03*
X422704Y330041D02*
D03*
X430538Y325553D02*
D03*
X438334Y312049D02*
D03*
Y321065D02*
D03*
X422704Y276065D02*
D03*
Y303073D02*
D03*
X374712Y298545D02*
D03*
X430538Y289569D02*
D03*
X398137Y303073D02*
D03*
X390302Y307561D02*
D03*
X405932Y289569D02*
D03*
X430538Y280553D02*
D03*
X382507Y303073D02*
D03*
X390302Y280553D02*
D03*
X430538Y316577D02*
D03*
Y307561D02*
D03*
X438334Y303073D02*
D03*
X446129Y298545D02*
D03*
X430538D02*
D03*
X438334Y285081D02*
D03*
X414908Y316577D02*
D03*
Y298545D02*
D03*
Y289569D02*
D03*
Y280553D02*
D03*
Y271577D02*
D03*
X405932D02*
D03*
Y307561D02*
D03*
X446129Y316577D02*
D03*
Y307561D02*
D03*
X438334Y330041D02*
D03*
Y294057D02*
D03*
X430538Y334569D02*
D03*
X422704Y339057D02*
D03*
Y321065D02*
D03*
Y312049D02*
D03*
Y294057D02*
D03*
Y285081D02*
D03*
X414908Y343545D02*
D03*
Y325553D02*
D03*
Y307561D02*
D03*
X374712Y316577D02*
D03*
Y307561D02*
D03*
X382507Y330041D02*
D03*
Y312049D02*
D03*
Y294057D02*
D03*
Y285081D02*
D03*
X390302Y334569D02*
D03*
Y316577D02*
D03*
Y298545D02*
D03*
Y289569D02*
D03*
X398137Y339057D02*
D03*
Y321065D02*
D03*
Y312049D02*
D03*
Y294057D02*
D03*
Y276065D02*
D03*
X405932Y343545D02*
D03*
Y325553D02*
D03*
Y316577D02*
D03*
Y280553D02*
D03*
D103*
X61000Y60500D02*
D03*
Y225500D02*
D03*
X321000Y48000D02*
D03*
Y238000D02*
D03*
D104*
X473500Y12764D02*
D03*
Y86189D02*
D03*
X45500Y411764D02*
D03*
X473500Y180087D02*
D03*
X193170Y284977D02*
D03*
X45500Y12764D02*
D03*
X473500Y411764D02*
D03*
D105*
X314752Y363647D02*
D03*
X318315D02*
D03*
X312972Y359808D02*
D03*
X316535D02*
D03*
X320098D02*
D03*
X314752Y355970D02*
D03*
X318315D02*
D03*
X331920Y363651D02*
D03*
X335483D02*
D03*
X330141Y359812D02*
D03*
X333704D02*
D03*
X337267D02*
D03*
X331920Y355974D02*
D03*
X335483D02*
D03*
M02*
