G04*
G04 #@! TF.GenerationSoftware,Altium Limited,Altium Designer,25.8.1 (18)*
G04*
G04 Layer_Color=2752767*
%FSLAX25Y25*%
%MOIN*%
G70*
G04*
G04 #@! TF.SameCoordinates,8555A115-1401-43ED-8721-A1A47631EB87*
G04*
G04*
G04 #@! TF.FilePolarity,Positive*
G04*
G01*
G75*
%ADD15C,0.00500*%
%ADD125C,0.00667*%
D15*
X219000Y231000D02*
Y235000D01*
X223000D01*
Y231000D01*
X219000D01*
X289000Y241000D02*
Y245000D01*
X293000D01*
Y241000D01*
X289000D01*
Y231000D02*
Y235000D01*
X293000D01*
Y231000D01*
X289000D01*
X299000Y241000D02*
Y245000D01*
X303000D01*
Y241000D01*
X299000D01*
X89000Y241000D02*
Y245000D01*
X93000D01*
Y241000D01*
X89000D01*
X79000D02*
Y245000D01*
X83000D01*
Y241000D01*
X79000D01*
X299000Y231000D02*
Y235000D01*
X303000D01*
Y231000D01*
X299000D01*
X139000D02*
Y235000D01*
X143000D01*
Y231000D01*
X139000D01*
X89000D02*
Y235000D01*
X93000D01*
Y231000D01*
X89000D01*
X79000D02*
Y235000D01*
X83000D01*
Y231000D01*
X79000D01*
X299000Y51000D02*
Y55000D01*
X303000D01*
Y51000D01*
X299000D01*
Y41000D02*
Y45000D01*
X303000D01*
Y41000D01*
X299000D01*
X403932Y296545D02*
X404932Y298545D01*
X403932Y300545D01*
X405932Y299545D01*
X407932Y300545D01*
X406932Y298545D01*
X407932Y296545D01*
X405932Y297545D01*
X403932Y296545D01*
Y332569D02*
X404932Y334569D01*
X403932Y336569D01*
X405932Y335569D01*
X407932Y336569D01*
X406932Y334569D01*
X407932Y332569D01*
X405932Y333569D01*
X403932Y332569D01*
X396137Y283081D02*
X397137Y285081D01*
X396137Y287081D01*
X398137Y286081D01*
X400137Y287081D01*
X399137Y285081D01*
X400137Y283081D01*
X398137Y284081D01*
X396137Y283081D01*
Y328041D02*
X397137Y330041D01*
X396137Y332041D01*
X398137Y331041D01*
X400137Y332041D01*
X399137Y330041D01*
X400137Y328041D01*
X398137Y329041D01*
X396137Y328041D01*
X388302Y323553D02*
X389302Y325553D01*
X388302Y327553D01*
X390302Y326553D01*
X392302Y327553D01*
X391302Y325553D01*
X392302Y323553D01*
X390302Y324553D01*
X388302Y323553D01*
X380507Y319065D02*
X381507Y321065D01*
X380507Y323065D01*
X382507Y322065D01*
X384507Y323065D01*
X383507Y321065D01*
X384507Y319065D01*
X382507Y320065D01*
X380507Y319065D01*
X412908Y332569D02*
X413908Y334569D01*
X412908Y336569D01*
X414908Y335569D01*
X416908Y336569D01*
X415908Y334569D01*
X416908Y332569D01*
X414908Y333569D01*
X412908Y332569D01*
X420704Y328041D02*
X421704Y330041D01*
X420704Y332041D01*
X422704Y331041D01*
X424704Y332041D01*
X423704Y330041D01*
X424704Y328041D01*
X422704Y329041D01*
X420704Y328041D01*
X428538Y323553D02*
X429538Y325553D01*
X428538Y327553D01*
X430538Y326553D01*
X432538Y327553D01*
X431538Y325553D01*
X432538Y323553D01*
X430538Y324553D01*
X428538Y323553D01*
X436334Y310049D02*
X437334Y312049D01*
X436334Y314049D01*
X438334Y313049D01*
X440334Y314049D01*
X439334Y312049D01*
X440334Y310049D01*
X438334Y311049D01*
X436334Y310049D01*
Y319065D02*
X437334Y321065D01*
X436334Y323065D01*
X438334Y322065D01*
X440334Y323065D01*
X439334Y321065D01*
X440334Y319065D01*
X438334Y320065D01*
X436334Y319065D01*
X420704Y274065D02*
X421704Y276065D01*
X420704Y278065D01*
X422704Y277065D01*
X424704Y278065D01*
X423704Y276065D01*
X424704Y274065D01*
X422704Y275065D01*
X420704Y274065D01*
Y301073D02*
X421704Y303073D01*
X420704Y305073D01*
X422704Y304073D01*
X424704Y305073D01*
X423704Y303073D01*
X424704Y301073D01*
X422704Y302073D01*
X420704Y301073D01*
X372712Y296545D02*
X373712Y298545D01*
X372712Y300545D01*
X374712Y299545D01*
X376712Y300545D01*
X375712Y298545D01*
X376712Y296545D01*
X374712Y297545D01*
X372712Y296545D01*
X428538Y287569D02*
X429538Y289569D01*
X428538Y291569D01*
X430538Y290569D01*
X432538Y291569D01*
X431538Y289569D01*
X432538Y287569D01*
X430538Y288569D01*
X428538Y287569D01*
X396137Y301073D02*
X397137Y303073D01*
X396137Y305073D01*
X398137Y304073D01*
X400137Y305073D01*
X399137Y303073D01*
X400137Y301073D01*
X398137Y302073D01*
X396137Y301073D01*
X388302Y305561D02*
X389302Y307561D01*
X388302Y309561D01*
X390302Y308561D01*
X392302Y309561D01*
X391302Y307561D01*
X392302Y305561D01*
X390302Y306561D01*
X388302Y305561D01*
X403932Y287569D02*
X404932Y289569D01*
X403932Y291569D01*
X405932Y290569D01*
X407932Y291569D01*
X406932Y289569D01*
X407932Y287569D01*
X405932Y288569D01*
X403932Y287569D01*
X428538Y278553D02*
X429538Y280553D01*
X428538Y282553D01*
X430538Y281553D01*
X432538Y282553D01*
X431538Y280553D01*
X432538Y278553D01*
X430538Y279553D01*
X428538Y278553D01*
X380507Y301073D02*
X381507Y303073D01*
X380507Y305073D01*
X382507Y304073D01*
X384507Y305073D01*
X383507Y303073D01*
X384507Y301073D01*
X382507Y302073D01*
X380507Y301073D01*
X229000Y241000D02*
Y245000D01*
X233000D01*
Y241000D01*
X229000D01*
X239000Y41000D02*
Y45000D01*
X243000D01*
Y41000D01*
X239000D01*
X249000Y51000D02*
Y55000D01*
X253000D01*
Y51000D01*
X249000D01*
X219000Y41000D02*
Y45000D01*
X223000D01*
Y41000D01*
X219000D01*
X189000Y241000D02*
Y245000D01*
X193000D01*
Y241000D01*
X189000D01*
X169000D02*
Y245000D01*
X173000D01*
Y241000D01*
X169000D01*
Y231000D02*
Y235000D01*
X173000D01*
Y231000D01*
X169000D01*
X388302Y278553D02*
X389302Y280553D01*
X388302Y282553D01*
X390302Y281553D01*
X392302Y282553D01*
X391302Y280553D01*
X392302Y278553D01*
X390302Y279553D01*
X388302Y278553D01*
X159000Y241000D02*
Y245000D01*
X163000D01*
Y241000D01*
X159000D01*
X239000Y51000D02*
Y55000D01*
X243000D01*
Y51000D01*
X239000D01*
X159000Y231000D02*
Y235000D01*
X163000D01*
Y231000D01*
X159000D01*
X149000Y241000D02*
Y245000D01*
X153000D01*
Y241000D01*
X149000D01*
X79000Y41000D02*
Y45000D01*
X83000D01*
Y41000D01*
X79000D01*
X89000D02*
Y45000D01*
X93000D01*
Y41000D01*
X89000D01*
X99000D02*
Y45000D01*
X103000D01*
Y41000D01*
X99000D01*
X109000D02*
Y45000D01*
X113000D01*
Y41000D01*
X109000D01*
X119000D02*
Y45000D01*
X123000D01*
Y41000D01*
X119000D01*
X129000D02*
Y45000D01*
X133000D01*
Y41000D01*
X129000D01*
X139000D02*
Y45000D01*
X143000D01*
Y41000D01*
X139000D01*
X149000D02*
Y45000D01*
X153000D01*
Y41000D01*
X149000D01*
X159000D02*
Y45000D01*
X163000D01*
Y41000D01*
X159000D01*
X169000D02*
Y45000D01*
X173000D01*
Y41000D01*
X169000D01*
X179000D02*
Y45000D01*
X183000D01*
Y41000D01*
X179000D01*
X189000D02*
Y45000D01*
X193000D01*
Y41000D01*
X189000D01*
X199000D02*
Y45000D01*
X203000D01*
Y41000D01*
X199000D01*
X209000D02*
Y45000D01*
X213000D01*
Y41000D01*
X209000D01*
X229000D02*
Y45000D01*
X233000D01*
Y41000D01*
X229000D01*
X249000D02*
Y45000D01*
X253000D01*
Y41000D01*
X249000D01*
X259000D02*
Y45000D01*
X263000D01*
Y41000D01*
X259000D01*
X269000D02*
Y45000D01*
X273000D01*
Y41000D01*
X269000D01*
X279000D02*
Y45000D01*
X283000D01*
Y41000D01*
X279000D01*
X289000D02*
Y45000D01*
X293000D01*
Y41000D01*
X289000D01*
X79000Y51000D02*
Y55000D01*
X83000D01*
Y51000D01*
X79000D01*
X99000D02*
Y55000D01*
X103000D01*
Y51000D01*
X99000D01*
X119000D02*
Y55000D01*
X123000D01*
Y51000D01*
X119000D01*
X129000D02*
Y55000D01*
X133000D01*
Y51000D01*
X129000D01*
X139000D02*
Y55000D01*
X143000D01*
Y51000D01*
X139000D01*
X149000D02*
Y55000D01*
X153000D01*
Y51000D01*
X149000D01*
X159000D02*
Y55000D01*
X163000D01*
Y51000D01*
X159000D01*
X169000D02*
Y55000D01*
X173000D01*
Y51000D01*
X169000D01*
X179000D02*
Y55000D01*
X183000D01*
Y51000D01*
X179000D01*
X189000D02*
Y55000D01*
X193000D01*
Y51000D01*
X189000D01*
X199000D02*
Y55000D01*
X203000D01*
Y51000D01*
X199000D01*
X209000D02*
Y55000D01*
X213000D01*
Y51000D01*
X209000D01*
X219000D02*
Y55000D01*
X223000D01*
Y51000D01*
X219000D01*
X229000D02*
Y55000D01*
X233000D01*
Y51000D01*
X229000D01*
X259000D02*
Y55000D01*
X263000D01*
Y51000D01*
X259000D01*
X269000D02*
Y55000D01*
X273000D01*
Y51000D01*
X269000D01*
X279000D02*
Y55000D01*
X283000D01*
Y51000D01*
X279000D01*
X289000D02*
Y55000D01*
X293000D01*
Y51000D01*
X289000D01*
X99000Y231000D02*
Y235000D01*
X103000D01*
Y231000D01*
X99000D01*
X109000D02*
Y235000D01*
X113000D01*
Y231000D01*
X109000D01*
X119000D02*
Y235000D01*
X123000D01*
Y231000D01*
X119000D01*
X129000D02*
Y235000D01*
X133000D01*
Y231000D01*
X129000D01*
X149000D02*
Y235000D01*
X153000D01*
Y231000D01*
X149000D01*
X179000D02*
Y235000D01*
X183000D01*
Y231000D01*
X179000D01*
X189000D02*
Y235000D01*
X193000D01*
Y231000D01*
X189000D01*
X199000D02*
Y235000D01*
X203000D01*
Y231000D01*
X199000D01*
X209000D02*
Y235000D01*
X213000D01*
Y231000D01*
X209000D01*
X229000D02*
Y235000D01*
X233000D01*
Y231000D01*
X229000D01*
X239000D02*
Y235000D01*
X243000D01*
Y231000D01*
X239000D01*
X249000D02*
Y235000D01*
X253000D01*
Y231000D01*
X249000D01*
X259000Y231000D02*
Y235000D01*
X263000D01*
Y231000D01*
X259000D01*
X269000Y231000D02*
Y235000D01*
X273000D01*
Y231000D01*
X269000D01*
X279000D02*
Y235000D01*
X283000D01*
Y231000D01*
X279000D01*
X99000Y241000D02*
Y245000D01*
X103000D01*
Y241000D01*
X99000D01*
X109000Y241000D02*
Y245000D01*
X113000D01*
Y241000D01*
X109000D01*
X119000D02*
Y245000D01*
X123000D01*
Y241000D01*
X119000D01*
X129000Y241000D02*
Y245000D01*
X133000D01*
Y241000D01*
X129000D01*
X139000D02*
Y245000D01*
X143000D01*
Y241000D01*
X139000D01*
X179000D02*
Y245000D01*
X183000D01*
Y241000D01*
X179000D01*
X199000Y241000D02*
Y245000D01*
X203000D01*
Y241000D01*
X199000D01*
X209000D02*
Y245000D01*
X213000D01*
Y241000D01*
X209000D01*
X219000Y241000D02*
Y245000D01*
X223000D01*
Y241000D01*
X219000D01*
X239000D02*
Y245000D01*
X243000D01*
Y241000D01*
X239000D01*
X249000Y241000D02*
Y245000D01*
X253000D01*
Y241000D01*
X249000D01*
X259000Y241000D02*
Y245000D01*
X263000D01*
Y241000D01*
X259000D01*
X269000D02*
Y245000D01*
X273000D01*
Y241000D01*
X269000D01*
X279000D02*
Y245000D01*
X283000D01*
Y241000D01*
X279000D01*
X89000Y51000D02*
Y55000D01*
X93000D01*
Y51000D01*
X89000D01*
X109000D02*
Y55000D01*
X113000D01*
Y51000D01*
X109000D01*
X428538Y314577D02*
X429538Y316577D01*
X428538Y318577D01*
X430538Y317577D01*
X432538Y318577D01*
X431538Y316577D01*
X432538Y314577D01*
X430538Y315577D01*
X428538Y314577D01*
Y305561D02*
X429538Y307561D01*
X428538Y309561D01*
X430538Y308561D01*
X432538Y309561D01*
X431538Y307561D01*
X432538Y305561D01*
X430538Y306561D01*
X428538Y305561D01*
X436334Y301073D02*
X437334Y303073D01*
X436334Y305073D01*
X438334Y304073D01*
X440334Y305073D01*
X439334Y303073D01*
X440334Y301073D01*
X438334Y302073D01*
X436334Y301073D01*
X444129Y296545D02*
X445129Y298545D01*
X444129Y300545D01*
X446129Y299545D01*
X448129Y300545D01*
X447129Y298545D01*
X448129Y296545D01*
X446129Y297545D01*
X444129Y296545D01*
X428538D02*
X429538Y298545D01*
X428538Y300545D01*
X430538Y299545D01*
X432538Y300545D01*
X431538Y298545D01*
X432538Y296545D01*
X430538Y297545D01*
X428538Y296545D01*
X436334Y283081D02*
X437334Y285081D01*
X436334Y287081D01*
X438334Y286081D01*
X440334Y287081D01*
X439334Y285081D01*
X440334Y283081D01*
X438334Y284081D01*
X436334Y283081D01*
X412908Y314577D02*
X413908Y316577D01*
X412908Y318577D01*
X414908Y317577D01*
X416908Y318577D01*
X415908Y316577D01*
X416908Y314577D01*
X414908Y315577D01*
X412908Y314577D01*
Y296545D02*
X413908Y298545D01*
X412908Y300545D01*
X414908Y299545D01*
X416908Y300545D01*
X415908Y298545D01*
X416908Y296545D01*
X414908Y297545D01*
X412908Y296545D01*
Y287569D02*
X413908Y289569D01*
X412908Y291569D01*
X414908Y290569D01*
X416908Y291569D01*
X415908Y289569D01*
X416908Y287569D01*
X414908Y288569D01*
X412908Y287569D01*
Y278553D02*
X413908Y280553D01*
X412908Y282553D01*
X414908Y281553D01*
X416908Y282553D01*
X415908Y280553D01*
X416908Y278553D01*
X414908Y279553D01*
X412908Y278553D01*
Y269577D02*
X413908Y271577D01*
X412908Y273577D01*
X414908Y272577D01*
X416908Y273577D01*
X415908Y271577D01*
X416908Y269577D01*
X414908Y270577D01*
X412908Y269577D01*
X403932D02*
X404932Y271577D01*
X403932Y273577D01*
X405932Y272577D01*
X407932Y273577D01*
X406932Y271577D01*
X407932Y269577D01*
X405932Y270577D01*
X403932Y269577D01*
Y305561D02*
X404932Y307561D01*
X403932Y309561D01*
X405932Y308561D01*
X407932Y309561D01*
X406932Y307561D01*
X407932Y305561D01*
X405932Y306561D01*
X403932Y305561D01*
X444129Y314577D02*
X445129Y316577D01*
X444129Y318577D01*
X446129Y317577D01*
X448129Y318577D01*
X447129Y316577D01*
X448129Y314577D01*
X446129Y315577D01*
X444129Y314577D01*
Y305561D02*
X445129Y307561D01*
X444129Y309561D01*
X446129Y308561D01*
X448129Y309561D01*
X447129Y307561D01*
X448129Y305561D01*
X446129Y306561D01*
X444129Y305561D01*
X436334Y328041D02*
X437334Y330041D01*
X436334Y332041D01*
X438334Y331041D01*
X440334Y332041D01*
X439334Y330041D01*
X440334Y328041D01*
X438334Y329041D01*
X436334Y328041D01*
Y292057D02*
X437334Y294057D01*
X436334Y296057D01*
X438334Y295057D01*
X440334Y296057D01*
X439334Y294057D01*
X440334Y292057D01*
X438334Y293057D01*
X436334Y292057D01*
X428538Y332569D02*
X429538Y334569D01*
X428538Y336569D01*
X430538Y335569D01*
X432538Y336569D01*
X431538Y334569D01*
X432538Y332569D01*
X430538Y333569D01*
X428538Y332569D01*
X420704Y337057D02*
X421704Y339057D01*
X420704Y341057D01*
X422704Y340057D01*
X424704Y341057D01*
X423704Y339057D01*
X424704Y337057D01*
X422704Y338057D01*
X420704Y337057D01*
Y319065D02*
X421704Y321065D01*
X420704Y323065D01*
X422704Y322065D01*
X424704Y323065D01*
X423704Y321065D01*
X424704Y319065D01*
X422704Y320065D01*
X420704Y319065D01*
Y310049D02*
X421704Y312049D01*
X420704Y314049D01*
X422704Y313049D01*
X424704Y314049D01*
X423704Y312049D01*
X424704Y310049D01*
X422704Y311049D01*
X420704Y310049D01*
Y292057D02*
X421704Y294057D01*
X420704Y296057D01*
X422704Y295057D01*
X424704Y296057D01*
X423704Y294057D01*
X424704Y292057D01*
X422704Y293057D01*
X420704Y292057D01*
Y283081D02*
X421704Y285081D01*
X420704Y287081D01*
X422704Y286081D01*
X424704Y287081D01*
X423704Y285081D01*
X424704Y283081D01*
X422704Y284081D01*
X420704Y283081D01*
X412908Y341545D02*
X413908Y343545D01*
X412908Y345545D01*
X414908Y344545D01*
X416908Y345545D01*
X415908Y343545D01*
X416908Y341545D01*
X414908Y342545D01*
X412908Y341545D01*
Y323553D02*
X413908Y325553D01*
X412908Y327553D01*
X414908Y326553D01*
X416908Y327553D01*
X415908Y325553D01*
X416908Y323553D01*
X414908Y324553D01*
X412908Y323553D01*
Y305561D02*
X413908Y307561D01*
X412908Y309561D01*
X414908Y308561D01*
X416908Y309561D01*
X415908Y307561D01*
X416908Y305561D01*
X414908Y306561D01*
X412908Y305561D01*
X372712Y314577D02*
X373712Y316577D01*
X372712Y318577D01*
X374712Y317577D01*
X376712Y318577D01*
X375712Y316577D01*
X376712Y314577D01*
X374712Y315577D01*
X372712Y314577D01*
Y305561D02*
X373712Y307561D01*
X372712Y309561D01*
X374712Y308561D01*
X376712Y309561D01*
X375712Y307561D01*
X376712Y305561D01*
X374712Y306561D01*
X372712Y305561D01*
X380507Y328041D02*
X381507Y330041D01*
X380507Y332041D01*
X382507Y331041D01*
X384507Y332041D01*
X383507Y330041D01*
X384507Y328041D01*
X382507Y329041D01*
X380507Y328041D01*
Y310049D02*
X381507Y312049D01*
X380507Y314049D01*
X382507Y313049D01*
X384507Y314049D01*
X383507Y312049D01*
X384507Y310049D01*
X382507Y311049D01*
X380507Y310049D01*
Y292057D02*
X381507Y294057D01*
X380507Y296057D01*
X382507Y295057D01*
X384507Y296057D01*
X383507Y294057D01*
X384507Y292057D01*
X382507Y293057D01*
X380507Y292057D01*
Y283081D02*
X381507Y285081D01*
X380507Y287081D01*
X382507Y286081D01*
X384507Y287081D01*
X383507Y285081D01*
X384507Y283081D01*
X382507Y284081D01*
X380507Y283081D01*
X388302Y332569D02*
X389302Y334569D01*
X388302Y336569D01*
X390302Y335569D01*
X392302Y336569D01*
X391302Y334569D01*
X392302Y332569D01*
X390302Y333569D01*
X388302Y332569D01*
Y314577D02*
X389302Y316577D01*
X388302Y318577D01*
X390302Y317577D01*
X392302Y318577D01*
X391302Y316577D01*
X392302Y314577D01*
X390302Y315577D01*
X388302Y314577D01*
Y296545D02*
X389302Y298545D01*
X388302Y300545D01*
X390302Y299545D01*
X392302Y300545D01*
X391302Y298545D01*
X392302Y296545D01*
X390302Y297545D01*
X388302Y296545D01*
Y287569D02*
X389302Y289569D01*
X388302Y291569D01*
X390302Y290569D01*
X392302Y291569D01*
X391302Y289569D01*
X392302Y287569D01*
X390302Y288569D01*
X388302Y287569D01*
X396137Y337057D02*
X397137Y339057D01*
X396137Y341057D01*
X398137Y340057D01*
X400137Y341057D01*
X399137Y339057D01*
X400137Y337057D01*
X398137Y338057D01*
X396137Y337057D01*
Y319065D02*
X397137Y321065D01*
X396137Y323065D01*
X398137Y322065D01*
X400137Y323065D01*
X399137Y321065D01*
X400137Y319065D01*
X398137Y320065D01*
X396137Y319065D01*
Y310049D02*
X397137Y312049D01*
X396137Y314049D01*
X398137Y313049D01*
X400137Y314049D01*
X399137Y312049D01*
X400137Y310049D01*
X398137Y311049D01*
X396137Y310049D01*
Y292057D02*
X397137Y294057D01*
X396137Y296057D01*
X398137Y295057D01*
X400137Y296057D01*
X399137Y294057D01*
X400137Y292057D01*
X398137Y293057D01*
X396137Y292057D01*
Y274065D02*
X397137Y276065D01*
X396137Y278065D01*
X398137Y277065D01*
X400137Y278065D01*
X399137Y276065D01*
X400137Y274065D01*
X398137Y275065D01*
X396137Y274065D01*
X403932Y341545D02*
X404932Y343545D01*
X403932Y345545D01*
X405932Y344545D01*
X407932Y345545D01*
X406932Y343545D01*
X407932Y341545D01*
X405932Y342545D01*
X403932Y341545D01*
Y323553D02*
X404932Y325553D01*
X403932Y327553D01*
X405932Y326553D01*
X407932Y327553D01*
X406932Y325553D01*
X407932Y323553D01*
X405932Y324553D01*
X403932Y323553D01*
Y314577D02*
X404932Y316577D01*
X403932Y318577D01*
X405932Y317577D01*
X407932Y318577D01*
X406932Y316577D01*
X407932Y314577D01*
X405932Y315577D01*
X403932Y314577D01*
Y278553D02*
X404932Y280553D01*
X403932Y282553D01*
X405932Y281553D01*
X407932Y282553D01*
X406932Y280553D01*
X407932Y278553D01*
X405932Y279553D01*
X403932Y278553D01*
X473500Y10764D02*
X471500Y14764D01*
X475500D01*
X473500Y10764D01*
Y84189D02*
X471500Y88189D01*
X475500D01*
X473500Y84189D01*
X45500Y409764D02*
X43500Y413764D01*
X47500D01*
X45500Y409764D01*
X313752Y362647D02*
Y361647D01*
X315752D01*
Y362647D01*
X316752D01*
Y364647D01*
X315752D01*
Y365647D01*
X313752D01*
Y364647D01*
X312752D01*
Y362647D01*
X313752D01*
X317315D02*
Y361647D01*
X319315D01*
Y362647D01*
X320315D01*
Y364647D01*
X319315D01*
Y365647D01*
X317315D01*
Y364647D01*
X316315D01*
Y362647D01*
X317315D01*
X311972Y358808D02*
Y357808D01*
X313972D01*
Y358808D01*
X314972D01*
Y360808D01*
X313972D01*
Y361808D01*
X311972D01*
Y360808D01*
X310972D01*
Y358808D01*
X311972D01*
X315535D02*
Y357808D01*
X317535D01*
Y358808D01*
X318535D01*
Y360808D01*
X317535D01*
Y361808D01*
X315535D01*
Y360808D01*
X314535D01*
Y358808D01*
X315535D01*
X319098D02*
Y357808D01*
X321098D01*
Y358808D01*
X322098D01*
Y360808D01*
X321098D01*
Y361808D01*
X319098D01*
Y360808D01*
X318098D01*
Y358808D01*
X319098D01*
X313752Y354970D02*
Y353970D01*
X315752D01*
Y354970D01*
X316752D01*
Y356969D01*
X315752D01*
Y357969D01*
X313752D01*
Y356969D01*
X312752D01*
Y354970D01*
X313752D01*
X317315D02*
Y353970D01*
X319315D01*
Y354970D01*
X320315D01*
Y356969D01*
X319315D01*
Y357969D01*
X317315D01*
Y356969D01*
X316315D01*
Y354970D01*
X317315D01*
X473500Y178087D02*
X471500Y182087D01*
X475500D01*
X473500Y178087D01*
X193170Y282977D02*
X191170Y286977D01*
X195170D01*
X193170Y282977D01*
X45500Y10764D02*
X43500Y14764D01*
X47500D01*
X45500Y10764D01*
X473500Y409764D02*
X471500Y413764D01*
X475500D01*
X473500Y409764D01*
X330920Y362651D02*
Y361651D01*
X332920D01*
Y362651D01*
X333920D01*
Y364651D01*
X332920D01*
Y365651D01*
X330920D01*
Y364651D01*
X329920D01*
Y362651D01*
X330920D01*
X334483D02*
Y361651D01*
X336483D01*
Y362651D01*
X337483D01*
Y364651D01*
X336483D01*
Y365651D01*
X334483D01*
Y364651D01*
X333483D01*
Y362651D01*
X334483D01*
X329141Y358812D02*
Y357812D01*
X331141D01*
Y358812D01*
X332141D01*
Y360812D01*
X331141D01*
Y361812D01*
X329141D01*
Y360812D01*
X328141D01*
Y358812D01*
X329141D01*
X332704D02*
Y357812D01*
X334704D01*
Y358812D01*
X335704D01*
Y360812D01*
X334704D01*
Y361812D01*
X332704D01*
Y360812D01*
X331704D01*
Y358812D01*
X332704D01*
X336267D02*
Y357812D01*
X338267D01*
Y358812D01*
X339267D01*
Y360812D01*
X338267D01*
Y361812D01*
X336267D01*
Y360812D01*
X335267D01*
Y358812D01*
X336267D01*
X330920Y354974D02*
Y353974D01*
X332920D01*
Y354974D01*
X333920D01*
Y356974D01*
X332920D01*
Y357974D01*
X330920D01*
Y356974D01*
X329920D01*
Y354974D01*
X330920D01*
X334483D02*
Y353974D01*
X336483D01*
Y354974D01*
X337483D01*
Y356974D01*
X336483D01*
Y357974D01*
X334483D01*
Y356974D01*
X333483D01*
Y354974D01*
X334483D01*
X402109Y238064D02*
X403109D01*
X404109Y239064D01*
X405109Y238064D01*
X406109D01*
Y239064D01*
X405109Y240064D01*
X406109Y241064D01*
Y242064D01*
X405109D01*
X404109Y241064D01*
X403109Y242064D01*
X402109D01*
Y241064D01*
X403109Y240064D01*
X402109Y239064D01*
Y238064D01*
X379141Y86282D02*
X380141D01*
X381141Y87282D01*
X382141Y86282D01*
X383141D01*
Y87282D01*
X382141Y88282D01*
X383141Y89282D01*
Y90282D01*
X382141D01*
X381141Y89282D01*
X380141Y90282D01*
X379141D01*
Y89282D01*
X380141Y88282D01*
X379141Y87282D01*
Y86282D01*
X402308Y88754D02*
X403307D01*
X404308Y89754D01*
X405307Y88754D01*
X406308D01*
Y89754D01*
X405307Y90754D01*
X406308Y91755D01*
Y92755D01*
X405307D01*
X404308Y91755D01*
X403307Y92755D01*
X402308D01*
Y91755D01*
X403307Y90754D01*
X402308Y89754D01*
Y88754D01*
X362084Y27121D02*
X363084D01*
X364084Y28120D01*
X365084Y27121D01*
X366084D01*
Y28120D01*
X365084Y29120D01*
X366084Y30121D01*
Y31120D01*
X365084D01*
X364084Y30121D01*
X363084Y31120D01*
X362084D01*
Y30121D01*
X363084Y29120D01*
X362084Y28120D01*
Y27121D01*
X365633Y35258D02*
X366633D01*
X367633Y36258D01*
X368633Y35258D01*
X369633D01*
Y36258D01*
X368633Y37258D01*
X369633Y38258D01*
Y39258D01*
X368633D01*
X367633Y38258D01*
X366633Y39258D01*
X365633D01*
Y38258D01*
X366633Y37258D01*
X365633Y36258D01*
Y35258D01*
X189327Y329760D02*
X190327D01*
X191327Y330760D01*
X192327Y329760D01*
X193327D01*
Y330760D01*
X192327Y331760D01*
X193327Y332760D01*
Y333760D01*
X192327D01*
X191327Y332760D01*
X190327Y333760D01*
X189327D01*
Y332760D01*
X190327Y331760D01*
X189327Y330760D01*
Y329760D01*
X61977Y170572D02*
X62977D01*
X63977Y171572D01*
X64977Y170572D01*
X65977D01*
Y171572D01*
X64977Y172572D01*
X65977Y173572D01*
Y174572D01*
X64977D01*
X63977Y173572D01*
X62977Y174572D01*
X61977D01*
Y173572D01*
X62977Y172572D01*
X61977Y171572D01*
Y170572D01*
X71606Y159107D02*
X72606D01*
X73606Y160107D01*
X74606Y159107D01*
X75606D01*
Y160107D01*
X74606Y161107D01*
X75606Y162107D01*
Y163107D01*
X74606D01*
X73606Y162107D01*
X72606Y163107D01*
X71606D01*
Y162107D01*
X72606Y161107D01*
X71606Y160107D01*
Y159107D01*
X69368Y162503D02*
X70368D01*
X71368Y163503D01*
X72368Y162503D01*
X73368D01*
Y163503D01*
X72368Y164503D01*
X73368Y165503D01*
Y166503D01*
X72368D01*
X71368Y165503D01*
X70368Y166503D01*
X69368D01*
Y165503D01*
X70368Y164503D01*
X69368Y163503D01*
Y162503D01*
X398817Y41826D02*
X399817D01*
X400817Y42826D01*
X401817Y41826D01*
X402817D01*
Y42826D01*
X401817Y43826D01*
X402817Y44826D01*
Y45826D01*
X401817D01*
X400817Y44826D01*
X399817Y45826D01*
X398817D01*
Y44826D01*
X399817Y43826D01*
X398817Y42826D01*
Y41826D01*
X410485Y38963D02*
X411485D01*
X412485Y39963D01*
X413485Y38963D01*
X414485D01*
Y39963D01*
X413485Y40963D01*
X414485Y41963D01*
Y42963D01*
X413485D01*
X412485Y41963D01*
X411485Y42963D01*
X410485D01*
Y41963D01*
X411485Y40963D01*
X410485Y39963D01*
Y38963D01*
X408229Y33698D02*
X409229D01*
X410229Y34698D01*
X411229Y33698D01*
X412229D01*
Y34698D01*
X411229Y35698D01*
X412229Y36698D01*
Y37698D01*
X411229D01*
X410229Y36698D01*
X409229Y37698D01*
X408229D01*
Y36698D01*
X409229Y35698D01*
X408229Y34698D01*
Y33698D01*
X394559Y23080D02*
X395559D01*
X396559Y24080D01*
X397559Y23080D01*
X398559D01*
Y24080D01*
X397559Y25080D01*
X398559Y26080D01*
Y27080D01*
X397559D01*
X396559Y26080D01*
X395559Y27080D01*
X394559D01*
Y26080D01*
X395559Y25080D01*
X394559Y24080D01*
Y23080D01*
X388948Y25286D02*
X389948D01*
X390948Y26286D01*
X391948Y25286D01*
X392948D01*
Y26286D01*
X391948Y27286D01*
X392948Y28286D01*
Y29286D01*
X391948D01*
X390948Y28286D01*
X389948Y29286D01*
X388948D01*
Y28286D01*
X389948Y27286D01*
X388948Y26286D01*
Y25286D01*
X363430Y55863D02*
X364430D01*
X365430Y56863D01*
X366430Y55863D01*
X367430D01*
Y56863D01*
X366430Y57863D01*
X367430Y58863D01*
Y59863D01*
X366430D01*
X365430Y58863D01*
X364430Y59863D01*
X363430D01*
Y58863D01*
X364430Y57863D01*
X363430Y56863D01*
Y55863D01*
X361188Y45656D02*
X362188D01*
X363188Y46656D01*
X364188Y45656D01*
X365188D01*
Y46656D01*
X364188Y47656D01*
X365188Y48656D01*
Y49656D01*
X364188D01*
X363188Y48656D01*
X362188Y49656D01*
X361188D01*
Y48656D01*
X362188Y47656D01*
X361188Y46656D01*
Y45656D01*
X383318Y54409D02*
X384318D01*
X385318Y55409D01*
X386318Y54409D01*
X387318D01*
Y55409D01*
X386318Y56409D01*
X387318Y57409D01*
Y58409D01*
X386318D01*
X385318Y57409D01*
X384318Y58409D01*
X383318D01*
Y57409D01*
X384318Y56409D01*
X383318Y55409D01*
Y54409D01*
X256683Y114626D02*
X257683D01*
X258683Y115626D01*
X259683Y114626D01*
X260683D01*
Y115626D01*
X259683Y116626D01*
X260683Y117626D01*
Y118626D01*
X259683D01*
X258683Y117626D01*
X257683Y118626D01*
X256683D01*
Y117626D01*
X257683Y116626D01*
X256683Y115626D01*
Y114626D01*
X253072Y164208D02*
X254072D01*
X255072Y165208D01*
X256072Y164208D01*
X257072D01*
Y165208D01*
X256072Y166209D01*
X257072Y167209D01*
Y168209D01*
X256072D01*
X255072Y167209D01*
X254072Y168209D01*
X253072D01*
Y167209D01*
X254072Y166209D01*
X253072Y165208D01*
Y164208D01*
X254188Y153656D02*
X255188D01*
X256188Y154656D01*
X257188Y153656D01*
X258188D01*
Y154656D01*
X257188Y155656D01*
X258188Y156656D01*
Y157656D01*
X257188D01*
X256188Y156656D01*
X255188Y157656D01*
X254188D01*
Y156656D01*
X255188Y155656D01*
X254188Y154656D01*
Y153656D01*
X254580Y129209D02*
X255580D01*
X256580Y130209D01*
X257580Y129209D01*
X258580D01*
Y130209D01*
X257580Y131209D01*
X258580Y132209D01*
Y133209D01*
X257580D01*
X256580Y132209D01*
X255580Y133209D01*
X254580D01*
Y132209D01*
X255580Y131209D01*
X254580Y130209D01*
Y129209D01*
X254252Y137875D02*
X255252D01*
X256252Y138875D01*
X257252Y137875D01*
X258252D01*
Y138875D01*
X257252Y139875D01*
X258252Y140875D01*
Y141875D01*
X257252D01*
X256252Y140875D01*
X255252Y141875D01*
X254252D01*
Y140875D01*
X255252Y139875D01*
X254252Y138875D01*
Y137875D01*
X220396Y111368D02*
X221396D01*
X222396Y112368D01*
X223396Y111368D01*
X224396D01*
Y112368D01*
X223396Y113368D01*
X224396Y114368D01*
Y115368D01*
X223396D01*
X222396Y114368D01*
X221396Y115368D01*
X220396D01*
Y114368D01*
X221396Y113368D01*
X220396Y112368D01*
Y111368D01*
X395188Y79656D02*
X396188D01*
X397188Y80656D01*
X398188Y79656D01*
X399188D01*
Y80656D01*
X398188Y81656D01*
X399188Y82656D01*
Y83656D01*
X398188D01*
X397188Y82656D01*
X396188Y83656D01*
X395188D01*
Y82656D01*
X396188Y81656D01*
X395188Y80656D01*
Y79656D01*
X394974Y74275D02*
X395974D01*
X396974Y75275D01*
X397974Y74275D01*
X398974D01*
Y75275D01*
X397974Y76275D01*
X398974Y77275D01*
Y78275D01*
X397974D01*
X396974Y77275D01*
X395974Y78275D01*
X394974D01*
Y77275D01*
X395974Y76275D01*
X394974Y75275D01*
Y74275D01*
X377496Y78102D02*
X378496D01*
X379496Y79102D01*
X380496Y78102D01*
X381496D01*
Y79102D01*
X380496Y80102D01*
X381496Y81102D01*
Y82102D01*
X380496D01*
X379496Y81102D01*
X378496Y82102D01*
X377496D01*
Y81102D01*
X378496Y80102D01*
X377496Y79102D01*
Y78102D01*
X412292Y77815D02*
X413292D01*
X414292Y78815D01*
X415292Y77815D01*
X416292D01*
Y78815D01*
X415292Y79815D01*
X416292Y80815D01*
Y81815D01*
X415292D01*
X414292Y80815D01*
X413292Y81815D01*
X412292D01*
Y80815D01*
X413292Y79815D01*
X412292Y78815D01*
Y77815D01*
X282656Y125939D02*
X283656D01*
X284656Y126939D01*
X285656Y125939D01*
X286656D01*
Y126939D01*
X285656Y127939D01*
X286656Y128939D01*
Y129939D01*
X285656D01*
X284656Y128939D01*
X283656Y129939D01*
X282656D01*
Y128939D01*
X283656Y127939D01*
X282656Y126939D01*
Y125939D01*
X273158Y126094D02*
X274158D01*
X275158Y127094D01*
X276158Y126094D01*
X277158D01*
Y127094D01*
X276158Y128094D01*
X277158Y129094D01*
Y130094D01*
X276158D01*
X275158Y129094D01*
X274158Y130094D01*
X273158D01*
Y129094D01*
X274158Y128094D01*
X273158Y127094D01*
Y126094D01*
X153217Y125132D02*
X154217D01*
X155217Y126132D01*
X156217Y125132D01*
X157217D01*
Y126132D01*
X156217Y127132D01*
X157217Y128132D01*
Y129132D01*
X156217D01*
X155217Y128132D01*
X154217Y129132D01*
X153217D01*
Y128132D01*
X154217Y127132D01*
X153217Y126132D01*
Y125132D01*
X164592Y125171D02*
X165592D01*
X166592Y126171D01*
X167592Y125171D01*
X168592D01*
Y126171D01*
X167592Y127171D01*
X168592Y128171D01*
Y129171D01*
X167592D01*
X166592Y128171D01*
X165592Y129171D01*
X164592D01*
Y128171D01*
X165592Y127171D01*
X164592Y126171D01*
Y125171D01*
X173491D02*
X174491D01*
X175491Y126171D01*
X176491Y125171D01*
X177491D01*
Y126171D01*
X176491Y127171D01*
X177491Y128171D01*
Y129171D01*
X176491D01*
X175491Y128171D01*
X174491Y129171D01*
X173491D01*
Y128171D01*
X174491Y127171D01*
X173491Y126171D01*
Y125171D01*
X268000Y126000D02*
X269000D01*
X270000Y127000D01*
X271000Y126000D01*
X272000D01*
Y127000D01*
X271000Y128000D01*
X272000Y129000D01*
Y130000D01*
X271000D01*
X270000Y129000D01*
X269000Y130000D01*
X268000D01*
Y129000D01*
X269000Y128000D01*
X268000Y127000D01*
Y126000D01*
X130108Y256719D02*
X131108D01*
X132108Y257719D01*
X133108Y256719D01*
X134108D01*
Y257719D01*
X133108Y258719D01*
X134108Y259719D01*
Y260719D01*
X133108D01*
X132108Y259719D01*
X131108Y260719D01*
X130108D01*
Y259719D01*
X131108Y258719D01*
X130108Y257719D01*
Y256719D01*
X214360Y341591D02*
X215360D01*
X216360Y342591D01*
X217360Y341591D01*
X218360D01*
Y342591D01*
X217360Y343591D01*
X218360Y344591D01*
Y345591D01*
X217360D01*
X216360Y344591D01*
X215360Y345591D01*
X214360D01*
Y344591D01*
X215360Y343591D01*
X214360Y342591D01*
Y341591D01*
X171773Y178014D02*
X172773D01*
X173773Y179014D01*
X174773Y178014D01*
X175773D01*
Y179014D01*
X174773Y180014D01*
X175773Y181014D01*
Y182014D01*
X174773D01*
X173773Y181014D01*
X172773Y182014D01*
X171773D01*
Y181014D01*
X172773Y180014D01*
X171773Y179014D01*
Y178014D01*
X165221Y162343D02*
X166221D01*
X167221Y163343D01*
X168221Y162343D01*
X169221D01*
Y163343D01*
X168221Y164343D01*
X169221Y165343D01*
Y166343D01*
X168221D01*
X167221Y165343D01*
X166221Y166343D01*
X165221D01*
Y165343D01*
X166221Y164343D01*
X165221Y163343D01*
Y162343D01*
X213975Y310019D02*
X214975D01*
X215975Y311019D01*
X216975Y310019D01*
X217975D01*
Y311019D01*
X216975Y312019D01*
X217975Y313019D01*
Y314019D01*
X216975D01*
X215975Y313019D01*
X214975Y314019D01*
X213975D01*
Y313019D01*
X214975Y312019D01*
X213975Y311019D01*
Y310019D01*
X277024Y310556D02*
X278024D01*
X279024Y311556D01*
X280024Y310556D01*
X281024D01*
Y311556D01*
X280024Y312556D01*
X281024Y313556D01*
Y314556D01*
X280024D01*
X279024Y313556D01*
X278024Y314556D01*
X277024D01*
Y313556D01*
X278024Y312556D01*
X277024Y311556D01*
Y310556D01*
X163848Y312580D02*
X164848D01*
X165848Y313580D01*
X166848Y312580D01*
X167848D01*
Y313580D01*
X166848Y314580D01*
X167848Y315580D01*
Y316580D01*
X166848D01*
X165848Y315580D01*
X164848Y316580D01*
X163848D01*
Y315580D01*
X164848Y314580D01*
X163848Y313580D01*
Y312580D01*
X376020Y85107D02*
X377020D01*
X378020Y86107D01*
X379020Y85107D01*
X380020D01*
Y86107D01*
X379020Y87107D01*
X380020Y88107D01*
Y89107D01*
X379020D01*
X378020Y88107D01*
X377020Y89107D01*
X376020D01*
Y88107D01*
X377020Y87107D01*
X376020Y86107D01*
Y85107D01*
X399574Y86765D02*
X400574D01*
X401574Y87765D01*
X402574Y86765D01*
X403574D01*
Y87765D01*
X402574Y88765D01*
X403574Y89765D01*
Y90765D01*
X402574D01*
X401574Y89765D01*
X400574Y90765D01*
X399574D01*
Y89765D01*
X400574Y88765D01*
X399574Y87765D01*
Y86765D01*
X55664Y162538D02*
X56664D01*
X57664Y163538D01*
X58664Y162538D01*
X59664D01*
Y163538D01*
X58664Y164538D01*
X59664Y165538D01*
Y166538D01*
X58664D01*
X57664Y165538D01*
X56664Y166538D01*
X55664D01*
Y165538D01*
X56664Y164538D01*
X55664Y163538D01*
Y162538D01*
X315692Y315142D02*
X316692D01*
X317692Y316143D01*
X318692Y315142D01*
X319692D01*
Y316143D01*
X318692Y317143D01*
X319692Y318143D01*
Y319143D01*
X318692D01*
X317692Y318143D01*
X316692Y319143D01*
X315692D01*
Y318143D01*
X316692Y317143D01*
X315692Y316143D01*
Y315142D01*
X235814Y404220D02*
X236814D01*
X237814Y405220D01*
X238814Y404220D01*
X239814D01*
Y405220D01*
X238814Y406220D01*
X239814Y407220D01*
Y408220D01*
X238814D01*
X237814Y407220D01*
X236814Y408220D01*
X235814D01*
Y407220D01*
X236814Y406220D01*
X235814Y405220D01*
Y404220D01*
X239141Y404254D02*
X240141D01*
X241141Y405254D01*
X242141Y404254D01*
X243141D01*
Y405254D01*
X242141Y406254D01*
X243141Y407254D01*
Y408254D01*
X242141D01*
X241141Y407254D01*
X240141Y408254D01*
X239141D01*
Y407254D01*
X240141Y406254D01*
X239141Y405254D01*
Y404254D01*
X238102Y363297D02*
X239102D01*
X240102Y364297D01*
X241102Y363297D01*
X242102D01*
Y364297D01*
X241102Y365297D01*
X242102Y366297D01*
Y367297D01*
X241102D01*
X240102Y366297D01*
X239102Y367297D01*
X238102D01*
Y366297D01*
X239102Y365297D01*
X238102Y364297D01*
Y363297D01*
X238209Y359997D02*
X239209D01*
X240209Y360997D01*
X241209Y359997D01*
X242209D01*
Y360997D01*
X241209Y361997D01*
X242209Y362997D01*
Y363997D01*
X241209D01*
X240209Y362997D01*
X239209Y363997D01*
X238209D01*
Y362997D01*
X239209Y361997D01*
X238209Y360997D01*
Y359997D01*
X238235Y356568D02*
X239235D01*
X240235Y357568D01*
X241235Y356568D01*
X242235D01*
Y357568D01*
X241235Y358568D01*
X242235Y359568D01*
Y360568D01*
X241235D01*
X240235Y359568D01*
X239235Y360568D01*
X238235D01*
Y359568D01*
X239235Y358568D01*
X238235Y357568D01*
Y356568D01*
X238916Y307249D02*
X239916D01*
X240916Y308249D01*
X241916Y307249D01*
X242916D01*
Y308249D01*
X241916Y309249D01*
X242916Y310249D01*
Y311249D01*
X241916D01*
X240916Y310249D01*
X239916Y311249D01*
X238916D01*
Y310249D01*
X239916Y309249D01*
X238916Y308249D01*
Y307249D01*
X238890Y310677D02*
X239890D01*
X240890Y311677D01*
X241890Y310677D01*
X242890D01*
Y311677D01*
X241890Y312677D01*
X242890Y313677D01*
Y314677D01*
X241890D01*
X240890Y313677D01*
X239890Y314677D01*
X238890D01*
Y313677D01*
X239890Y312677D01*
X238890Y311677D01*
Y310677D01*
X238784Y313977D02*
X239784D01*
X240784Y314977D01*
X241784Y313977D01*
X242784D01*
Y314977D01*
X241784Y315977D01*
X242784Y316977D01*
Y317977D01*
X241784D01*
X240784Y316977D01*
X239784Y317977D01*
X238784D01*
Y316977D01*
X239784Y315977D01*
X238784Y314977D01*
Y313977D01*
X239003Y259254D02*
X240003D01*
X241003Y260254D01*
X242003Y259254D01*
X243003D01*
Y260254D01*
X242003Y261254D01*
X243003Y262254D01*
Y263254D01*
X242003D01*
X241003Y262254D01*
X240003Y263254D01*
X239003D01*
Y262254D01*
X240003Y261254D01*
X239003Y260254D01*
Y259254D01*
X120979Y382766D02*
X121979D01*
X122979Y383766D01*
X123979Y382766D01*
X124979D01*
Y383766D01*
X123979Y384766D01*
X124979Y385766D01*
Y386766D01*
X123979D01*
X122979Y385766D01*
X121979Y386766D01*
X120979D01*
Y385766D01*
X121979Y384766D01*
X120979Y383766D01*
Y382766D01*
X272816Y277940D02*
X273816D01*
X274816Y278940D01*
X275816Y277940D01*
X276816D01*
Y278940D01*
X275816Y279940D01*
X276816Y280940D01*
Y281940D01*
X275816D01*
X274816Y280940D01*
X273816Y281940D01*
X272816D01*
Y280940D01*
X273816Y279940D01*
X272816Y278940D01*
Y277940D01*
X272813Y282412D02*
X273813D01*
X274813Y283412D01*
X275813Y282412D01*
X276813D01*
Y283412D01*
X275813Y284412D01*
X276813Y285412D01*
Y286412D01*
X275813D01*
X274813Y285412D01*
X273813Y286412D01*
X272813D01*
Y285412D01*
X273813Y284412D01*
X272813Y283412D01*
Y282412D01*
X268132Y282430D02*
X269132D01*
X270132Y283430D01*
X271132Y282430D01*
X272132D01*
Y283430D01*
X271132Y284430D01*
X272132Y285430D01*
Y286430D01*
X271132D01*
X270132Y285430D01*
X269132Y286430D01*
X268132D01*
Y285430D01*
X269132Y284430D01*
X268132Y283430D01*
Y282430D01*
X272955Y296542D02*
X273955D01*
X274955Y297542D01*
X275955Y296542D01*
X276955D01*
Y297542D01*
X275955Y298542D01*
X276955Y299542D01*
Y300542D01*
X275955D01*
X274955Y299542D01*
X273955Y300542D01*
X272955D01*
Y299542D01*
X273955Y298542D01*
X272955Y297542D01*
Y296542D01*
X272846Y292633D02*
X273846D01*
X274846Y293633D01*
X275846Y292633D01*
X276846D01*
Y293633D01*
X275846Y294633D01*
X276846Y295633D01*
Y296633D01*
X275846D01*
X274846Y295633D01*
X273846Y296633D01*
X272846D01*
Y295633D01*
X273846Y294633D01*
X272846Y293633D01*
Y292633D01*
X268781Y292597D02*
X269781D01*
X270781Y293597D01*
X271781Y292597D01*
X272781D01*
Y293597D01*
X271781Y294597D01*
X272781Y295597D01*
Y296597D01*
X271781D01*
X270781Y295597D01*
X269781Y296597D01*
X268781D01*
Y295597D01*
X269781Y294597D01*
X268781Y293597D01*
Y292597D01*
X269037Y326652D02*
X270037D01*
X271037Y327652D01*
X272037Y326652D01*
X273037D01*
Y327652D01*
X272037Y328652D01*
X273037Y329652D01*
Y330652D01*
X272037D01*
X271037Y329652D01*
X270037Y330652D01*
X269037D01*
Y329652D01*
X270037Y328652D01*
X269037Y327652D01*
Y326652D01*
X273438Y326699D02*
X274438D01*
X275438Y327699D01*
X276438Y326699D01*
X277438D01*
Y327699D01*
X276438Y328699D01*
X277438Y329699D01*
Y330699D01*
X276438D01*
X275438Y329699D01*
X274438Y330699D01*
X273438D01*
Y329699D01*
X274438Y328699D01*
X273438Y327699D01*
Y326699D01*
X273566Y330894D02*
X274566D01*
X275566Y331894D01*
X276566Y330894D01*
X277566D01*
Y331894D01*
X276566Y332894D01*
X277566Y333894D01*
Y334894D01*
X276566D01*
X275566Y333894D01*
X274566Y334894D01*
X273566D01*
Y333894D01*
X274566Y332894D01*
X273566Y331894D01*
Y330894D01*
X268719Y344590D02*
X269719D01*
X270719Y345590D01*
X271719Y344590D01*
X272719D01*
Y345590D01*
X271719Y346590D01*
X272719Y347590D01*
Y348590D01*
X271719D01*
X270719Y347590D01*
X269719Y348590D01*
X268719D01*
Y347590D01*
X269719Y346590D01*
X268719Y345590D01*
Y344590D01*
X272850Y344542D02*
X273850D01*
X274850Y345542D01*
X275850Y344542D01*
X276850D01*
Y345542D01*
X275850Y346542D01*
X276850Y347542D01*
Y348542D01*
X275850D01*
X274850Y347542D01*
X273850Y348542D01*
X272850D01*
Y347542D01*
X273850Y346542D01*
X272850Y345542D01*
Y344542D01*
X273009Y340427D02*
X274009D01*
X275009Y341427D01*
X276009Y340427D01*
X277009D01*
Y341427D01*
X276009Y342427D01*
X277009Y343427D01*
Y344427D01*
X276009D01*
X275009Y343427D01*
X274009Y344427D01*
X273009D01*
Y343427D01*
X274009Y342427D01*
X273009Y341427D01*
Y340427D01*
X273114Y378620D02*
X274114D01*
X275114Y379620D01*
X276114Y378620D01*
X277114D01*
Y379620D01*
X276114Y380620D01*
X277114Y381620D01*
Y382620D01*
X276114D01*
X275114Y381620D01*
X274114Y382620D01*
X273114D01*
Y381620D01*
X274114Y380620D01*
X273114Y379620D01*
Y378620D01*
X273056Y374402D02*
X274056D01*
X275056Y375402D01*
X276056Y374402D01*
X277056D01*
Y375402D01*
X276056Y376402D01*
X277056Y377402D01*
Y378402D01*
X276056D01*
X275056Y377402D01*
X274056Y378402D01*
X273056D01*
Y377402D01*
X274056Y376402D01*
X273056Y375402D01*
Y374402D01*
X268867Y374372D02*
X269867D01*
X270867Y375372D01*
X271867Y374372D01*
X272867D01*
Y375372D01*
X271867Y376372D01*
X272867Y377372D01*
Y378372D01*
X271867D01*
X270867Y377372D01*
X269867Y378372D01*
X268867D01*
Y377372D01*
X269867Y376372D01*
X268867Y375372D01*
Y374372D01*
X273158Y387644D02*
X274158D01*
X275158Y388644D01*
X276158Y387644D01*
X277158D01*
Y388644D01*
X276158Y389644D01*
X277158Y390644D01*
Y391644D01*
X276158D01*
X275158Y390644D01*
X274158Y391644D01*
X273158D01*
Y390644D01*
X274158Y389644D01*
X273158Y388644D01*
Y387644D01*
X273206Y392263D02*
X274206D01*
X275206Y393263D01*
X276206Y392263D01*
X277206D01*
Y393263D01*
X276206Y394263D01*
X277206Y395263D01*
Y396263D01*
X276206D01*
X275206Y395263D01*
X274206Y396263D01*
X273206D01*
Y395263D01*
X274206Y394263D01*
X273206Y393263D01*
Y392263D01*
X268483Y392348D02*
X269483D01*
X270483Y393348D01*
X271483Y392348D01*
X272483D01*
Y393348D01*
X271483Y394348D01*
X272483Y395348D01*
Y396348D01*
X271483D01*
X270483Y395348D01*
X269483Y396348D01*
X268483D01*
Y395348D01*
X269483Y394348D01*
X268483Y393348D01*
Y392348D01*
X334741Y369638D02*
X335741D01*
X336741Y370638D01*
X337741Y369638D01*
X338741D01*
Y370638D01*
X337741Y371638D01*
X338741Y372638D01*
Y373638D01*
X337741D01*
X336741Y372638D01*
X335741Y373638D01*
X334741D01*
Y372638D01*
X335741Y371638D01*
X334741Y370638D01*
Y369638D01*
X287304Y341149D02*
X288304D01*
X289304Y342149D01*
X290304Y341149D01*
X291304D01*
Y342149D01*
X290304Y343149D01*
X291304Y344149D01*
Y345149D01*
X290304D01*
X289304Y344149D01*
X288304Y345149D01*
X287304D01*
Y344149D01*
X288304Y343149D01*
X287304Y342149D01*
Y341149D01*
X334453Y385998D02*
X335453D01*
X336453Y386998D01*
X337453Y385998D01*
X338453D01*
Y386998D01*
X337453Y387998D01*
X338453Y388998D01*
Y389998D01*
X337453D01*
X336453Y388998D01*
X335453Y389998D01*
X334453D01*
Y388998D01*
X335453Y387998D01*
X334453Y386998D01*
Y385998D01*
X336427Y282812D02*
X337427D01*
X338427Y283812D01*
X339427Y282812D01*
X340427D01*
Y283812D01*
X339427Y284812D01*
X340427Y285812D01*
Y286812D01*
X339427D01*
X338427Y285812D01*
X337427Y286812D01*
X336427D01*
Y285812D01*
X337427Y284812D01*
X336427Y283812D01*
Y282812D01*
X336316Y286984D02*
X337316D01*
X338316Y287984D01*
X339316Y286984D01*
X340316D01*
Y287984D01*
X339316Y288984D01*
X340316Y289984D01*
Y290984D01*
X339316D01*
X338316Y289984D01*
X337316Y290984D01*
X336316D01*
Y289984D01*
X337316Y288984D01*
X336316Y287984D01*
Y286984D01*
X339093Y279080D02*
X340093D01*
X341093Y280080D01*
X342093Y279080D01*
X343093D01*
Y280080D01*
X342093Y281080D01*
X343093Y282080D01*
Y283080D01*
X342093D01*
X341093Y282080D01*
X340093Y283080D01*
X339093D01*
Y282080D01*
X340093Y281080D01*
X339093Y280080D01*
Y279080D01*
X335580Y279092D02*
X336580D01*
X337580Y280092D01*
X338580Y279092D01*
X339580D01*
Y280092D01*
X338580Y281092D01*
X339580Y282092D01*
Y283092D01*
X338580D01*
X337580Y282092D01*
X336580Y283092D01*
X335580D01*
Y282092D01*
X336580Y281092D01*
X335580Y280092D01*
Y279092D01*
X336722Y321567D02*
X337722D01*
X338722Y322567D01*
X339722Y321567D01*
X340722D01*
Y322567D01*
X339722Y323567D01*
X340722Y324567D01*
Y325567D01*
X339722D01*
X338722Y324567D01*
X337722Y325567D01*
X336722D01*
Y324567D01*
X337722Y323567D01*
X336722Y322567D01*
Y321567D01*
X333356Y321623D02*
X334356D01*
X335356Y322623D01*
X336356Y321623D01*
X337356D01*
Y322623D01*
X336356Y323623D01*
X337356Y324623D01*
Y325623D01*
X336356D01*
X335356Y324623D01*
X334356Y325623D01*
X333356D01*
Y324623D01*
X334356Y323623D01*
X333356Y322623D01*
Y321623D01*
X333321Y317918D02*
X334321D01*
X335321Y318918D01*
X336321Y317918D01*
X337321D01*
Y318918D01*
X336321Y319918D01*
X337321Y320918D01*
Y321918D01*
X336321D01*
X335321Y320918D01*
X334321Y321918D01*
X333321D01*
Y320918D01*
X334321Y319918D01*
X333321Y318918D01*
Y317918D01*
X333470Y314225D02*
X334470D01*
X335470Y315225D01*
X336470Y314225D01*
X337470D01*
Y315225D01*
X336470Y316225D01*
X337470Y317225D01*
Y318225D01*
X336470D01*
X335470Y317225D01*
X334470Y318225D01*
X333470D01*
Y317225D01*
X334470Y316225D01*
X333470Y315225D01*
Y314225D01*
X205853Y305934D02*
X206853D01*
X207853Y306934D01*
X208853Y305934D01*
X209853D01*
Y306934D01*
X208853Y307934D01*
X209853Y308934D01*
Y309934D01*
X208853D01*
X207853Y308934D01*
X206853Y309934D01*
X205853D01*
Y308934D01*
X206853Y307934D01*
X205853Y306934D01*
Y305934D01*
X172470Y315546D02*
X173470D01*
X174470Y316547D01*
X175470Y315546D01*
X176470D01*
Y316547D01*
X175470Y317547D01*
X176470Y318547D01*
Y319547D01*
X175470D01*
X174470Y318547D01*
X173470Y319547D01*
X172470D01*
Y318547D01*
X173470Y317547D01*
X172470Y316547D01*
Y315546D01*
X407434Y36945D02*
X408434D01*
X409434Y37945D01*
X410434Y36945D01*
X411434D01*
Y37945D01*
X410434Y38945D01*
X411434Y39945D01*
Y40945D01*
X410434D01*
X409434Y39945D01*
X408434Y40945D01*
X407434D01*
Y39945D01*
X408434Y38945D01*
X407434Y37945D01*
Y36945D01*
X404571Y34684D02*
X405571D01*
X406571Y35684D01*
X407571Y34684D01*
X408571D01*
Y35684D01*
X407571Y36684D01*
X408571Y37684D01*
Y38684D01*
X407571D01*
X406571Y37684D01*
X405571Y38684D01*
X404571D01*
Y37684D01*
X405571Y36684D01*
X404571Y35684D01*
Y34684D01*
X188900Y324456D02*
X189900D01*
X190900Y325456D01*
X191900Y324456D01*
X192900D01*
Y325456D01*
X191900Y326456D01*
X192900Y327456D01*
Y328456D01*
X191900D01*
X190900Y327456D01*
X189900Y328456D01*
X188900D01*
Y327456D01*
X189900Y326456D01*
X188900Y325456D01*
Y324456D01*
X168422Y364157D02*
X169422D01*
X170422Y365157D01*
X171422Y364157D01*
X172422D01*
Y365157D01*
X171422Y366157D01*
X172422Y367157D01*
Y368157D01*
X171422D01*
X170422Y367157D01*
X169422Y368157D01*
X168422D01*
Y367157D01*
X169422Y366157D01*
X168422Y365157D01*
Y364157D01*
X178771Y362805D02*
X179771D01*
X180771Y363805D01*
X181771Y362805D01*
X182771D01*
Y363805D01*
X181771Y364805D01*
X182771Y365805D01*
Y366805D01*
X181771D01*
X180771Y365805D01*
X179771Y366805D01*
X178771D01*
Y365805D01*
X179771Y364805D01*
X178771Y363805D01*
Y362805D01*
X228186Y344793D02*
X229187D01*
X230187Y345793D01*
X231187Y344793D01*
X232187D01*
Y345793D01*
X231187Y346793D01*
X232187Y347793D01*
Y348793D01*
X231187D01*
X230187Y347793D01*
X229187Y348793D01*
X228186D01*
Y347793D01*
X229187Y346793D01*
X228186Y345793D01*
Y344793D01*
X216130Y391829D02*
X217130D01*
X218130Y392829D01*
X219130Y391829D01*
X220130D01*
Y392829D01*
X219130Y393829D01*
X220130Y394829D01*
Y395829D01*
X219130D01*
X218130Y394829D01*
X217130Y395829D01*
X216130D01*
Y394829D01*
X217130Y393829D01*
X216130Y392829D01*
Y391829D01*
X365620Y252002D02*
X366620D01*
X367620Y253002D01*
X368620Y252002D01*
X369620D01*
Y253002D01*
X368620Y254002D01*
X369620Y255002D01*
Y256002D01*
X368620D01*
X367620Y255002D01*
X366620Y256002D01*
X365620D01*
Y255002D01*
X366620Y254002D01*
X365620Y253002D01*
Y252002D01*
X151704Y408510D02*
X152704D01*
X153704Y409510D01*
X154704Y408510D01*
X155704D01*
Y409510D01*
X154704Y410510D01*
X155704Y411510D01*
Y412510D01*
X154704D01*
X153704Y411510D01*
X152704Y412510D01*
X151704D01*
Y411510D01*
X152704Y410510D01*
X151704Y409510D01*
Y408510D01*
X155704D02*
X156704D01*
X157704Y409510D01*
X158704Y408510D01*
X159704D01*
Y409510D01*
X158704Y410510D01*
X159704Y411510D01*
Y412510D01*
X158704D01*
X157704Y411510D01*
X156704Y412510D01*
X155704D01*
Y411510D01*
X156704Y410510D01*
X155704Y409510D01*
Y408510D01*
X100033Y408309D02*
X101033D01*
X102033Y409308D01*
X103033Y408309D01*
X104033D01*
Y409308D01*
X103033Y410309D01*
X104033Y411308D01*
Y412309D01*
X103033D01*
X102033Y411308D01*
X101033Y412309D01*
X100033D01*
Y411308D01*
X101033Y410309D01*
X100033Y409308D01*
Y408309D01*
X96033D02*
X97033D01*
X98033Y409308D01*
X99033Y408309D01*
X100033D01*
Y409308D01*
X99033Y410309D01*
X100033Y411308D01*
Y412309D01*
X99033D01*
X98033Y411308D01*
X97033Y412309D01*
X96033D01*
Y411308D01*
X97033Y410309D01*
X96033Y409308D01*
Y408309D01*
X92033D02*
X93033D01*
X94033Y409308D01*
X95033Y408309D01*
X96033D01*
Y409308D01*
X95033Y410309D01*
X96033Y411308D01*
Y412309D01*
X95033D01*
X94033Y411308D01*
X93033Y412309D01*
X92033D01*
Y411308D01*
X93033Y410309D01*
X92033Y409308D01*
Y408309D01*
X88033D02*
X89033D01*
X90033Y409308D01*
X91033Y408309D01*
X92033D01*
Y409308D01*
X91033Y410309D01*
X92033Y411308D01*
Y412309D01*
X91033D01*
X90033Y411308D01*
X89033Y412309D01*
X88033D01*
Y411308D01*
X89033Y410309D01*
X88033Y409308D01*
Y408309D01*
X84110Y408239D02*
X85110D01*
X86110Y409239D01*
X87110Y408239D01*
X88110D01*
Y409239D01*
X87110Y410239D01*
X88110Y411239D01*
Y412239D01*
X87110D01*
X86110Y411239D01*
X85110Y412239D01*
X84110D01*
Y411239D01*
X85110Y410239D01*
X84110Y409239D01*
Y408239D01*
X100032Y411937D02*
X101032D01*
X102032Y412937D01*
X103032Y411937D01*
X104032D01*
Y412937D01*
X103032Y413937D01*
X104032Y414937D01*
Y415937D01*
X103032D01*
X102032Y414937D01*
X101032Y415937D01*
X100032D01*
Y414937D01*
X101032Y413937D01*
X100032Y412937D01*
Y411937D01*
X96032D02*
X97032D01*
X98032Y412937D01*
X99032Y411937D01*
X100032D01*
Y412937D01*
X99032Y413937D01*
X100032Y414937D01*
Y415937D01*
X99032D01*
X98032Y414937D01*
X97032Y415937D01*
X96032D01*
Y414937D01*
X97032Y413937D01*
X96032Y412937D01*
Y411937D01*
X92032D02*
X93032D01*
X94032Y412937D01*
X95032Y411937D01*
X96032D01*
Y412937D01*
X95032Y413937D01*
X96032Y414937D01*
Y415937D01*
X95032D01*
X94032Y414937D01*
X93032Y415937D01*
X92032D01*
Y414937D01*
X93032Y413937D01*
X92032Y412937D01*
Y411937D01*
X88032D02*
X89032D01*
X90032Y412937D01*
X91032Y411937D01*
X92032D01*
Y412937D01*
X91032Y413937D01*
X92032Y414937D01*
Y415937D01*
X91032D01*
X90032Y414937D01*
X89032Y415937D01*
X88032D01*
Y414937D01*
X89032Y413937D01*
X88032Y412937D01*
Y411937D01*
X84109Y411868D02*
X85109D01*
X86109Y412868D01*
X87109Y411868D01*
X88109D01*
Y412868D01*
X87109Y413868D01*
X88109Y414868D01*
Y415868D01*
X87109D01*
X86109Y414868D01*
X85109Y415868D01*
X84109D01*
Y414868D01*
X85109Y413868D01*
X84109Y412868D01*
Y411868D01*
X100032Y415566D02*
X101032D01*
X102032Y416566D01*
X103032Y415566D01*
X104032D01*
Y416566D01*
X103032Y417566D01*
X104032Y418566D01*
Y419566D01*
X103032D01*
X102032Y418566D01*
X101032Y419566D01*
X100032D01*
Y418566D01*
X101032Y417566D01*
X100032Y416566D01*
Y415566D01*
X96032D02*
X97032D01*
X98032Y416566D01*
X99032Y415566D01*
X100032D01*
Y416566D01*
X99032Y417566D01*
X100032Y418566D01*
Y419566D01*
X99032D01*
X98032Y418566D01*
X97032Y419566D01*
X96032D01*
Y418566D01*
X97032Y417566D01*
X96032Y416566D01*
Y415566D01*
X92032D02*
X93032D01*
X94032Y416566D01*
X95032Y415566D01*
X96032D01*
Y416566D01*
X95032Y417566D01*
X96032Y418566D01*
Y419566D01*
X95032D01*
X94032Y418566D01*
X93032Y419566D01*
X92032D01*
Y418566D01*
X93032Y417566D01*
X92032Y416566D01*
Y415566D01*
X88032D02*
X89032D01*
X90032Y416566D01*
X91032Y415566D01*
X92032D01*
Y416566D01*
X91032Y417566D01*
X92032Y418566D01*
Y419566D01*
X91032D01*
X90032Y418566D01*
X89032Y419566D01*
X88032D01*
Y418566D01*
X89032Y417566D01*
X88032Y416566D01*
Y415566D01*
X84109Y415496D02*
X85109D01*
X86109Y416496D01*
X87109Y415496D01*
X88109D01*
Y416496D01*
X87109Y417496D01*
X88109Y418496D01*
Y419496D01*
X87109D01*
X86109Y418496D01*
X85109Y419496D01*
X84109D01*
Y418496D01*
X85109Y417496D01*
X84109Y416496D01*
Y415496D01*
X127330Y337814D02*
X128330D01*
X129330Y338814D01*
X130330Y337814D01*
X131330D01*
Y338814D01*
X130330Y339814D01*
X131330Y340814D01*
Y341814D01*
X130330D01*
X129330Y340814D01*
X128330Y341814D01*
X127330D01*
Y340814D01*
X128330Y339814D01*
X127330Y338814D01*
Y337814D01*
X123330D02*
X124330D01*
X125330Y338814D01*
X126330Y337814D01*
X127330D01*
Y338814D01*
X126330Y339814D01*
X127330Y340814D01*
Y341814D01*
X126330D01*
X125330Y340814D01*
X124330Y341814D01*
X123330D01*
Y340814D01*
X124330Y339814D01*
X123330Y338814D01*
Y337814D01*
X119330D02*
X120330D01*
X121330Y338814D01*
X122330Y337814D01*
X123330D01*
Y338814D01*
X122330Y339814D01*
X123330Y340814D01*
Y341814D01*
X122330D01*
X121330Y340814D01*
X120330Y341814D01*
X119330D01*
Y340814D01*
X120330Y339814D01*
X119330Y338814D01*
Y337814D01*
X115330D02*
X116330D01*
X117330Y338814D01*
X118330Y337814D01*
X119330D01*
Y338814D01*
X118330Y339814D01*
X119330Y340814D01*
Y341814D01*
X118330D01*
X117330Y340814D01*
X116330Y341814D01*
X115330D01*
Y340814D01*
X116330Y339814D01*
X115330Y338814D01*
Y337814D01*
X111407Y337744D02*
X112407D01*
X113407Y338744D01*
X114407Y337744D01*
X115407D01*
Y338744D01*
X114407Y339744D01*
X115407Y340744D01*
Y341744D01*
X114407D01*
X113407Y340744D01*
X112407Y341744D01*
X111407D01*
Y340744D01*
X112407Y339744D01*
X111407Y338744D01*
Y337744D01*
X111409Y334153D02*
X112409D01*
X113409Y335153D01*
X114409Y334153D01*
X115409D01*
Y335153D01*
X114409Y336153D01*
X115409Y337153D01*
Y338153D01*
X114409D01*
X113409Y337153D01*
X112409Y338153D01*
X111409D01*
Y337153D01*
X112409Y336153D01*
X111409Y335153D01*
Y334153D01*
X127331Y334042D02*
X128331D01*
X129331Y335042D01*
X130331Y334042D01*
X131331D01*
Y335042D01*
X130331Y336042D01*
X131331Y337042D01*
Y338042D01*
X130331D01*
X129331Y337042D01*
X128331Y338042D01*
X127331D01*
Y337042D01*
X128331Y336042D01*
X127331Y335042D01*
Y334042D01*
X106765Y295981D02*
X107765D01*
X108765Y296981D01*
X109765Y295981D01*
X110765D01*
Y296981D01*
X109765Y297981D01*
X110765Y298981D01*
Y299981D01*
X109765D01*
X108765Y298981D01*
X107765Y299981D01*
X106765D01*
Y298981D01*
X107765Y297981D01*
X106765Y296981D01*
Y295981D01*
X133842Y314259D02*
X134842D01*
X135842Y315259D01*
X136842Y314259D01*
X137842D01*
Y315259D01*
X136842Y316259D01*
X137842Y317259D01*
Y318259D01*
X136842D01*
X135842Y317259D01*
X134842Y318259D01*
X133842D01*
Y317259D01*
X134842Y316259D01*
X133842Y315259D01*
Y314259D01*
X133912Y310336D02*
X134912D01*
X135912Y311336D01*
X136912Y310336D01*
X137912D01*
Y311336D01*
X136912Y312336D01*
X137912Y313336D01*
Y314336D01*
X136912D01*
X135912Y313336D01*
X134912Y314336D01*
X133912D01*
Y313336D01*
X134912Y312336D01*
X133912Y311336D01*
Y310336D01*
X110589Y306907D02*
X111589D01*
X112589Y307907D01*
X113589Y306907D01*
X114589D01*
Y307907D01*
X113589Y308907D01*
X114589Y309907D01*
Y310907D01*
X113589D01*
X112589Y309907D01*
X111589Y310907D01*
X110589D01*
Y309907D01*
X111589Y308907D01*
X110589Y307907D01*
Y306907D01*
X110659Y302984D02*
X111659D01*
X112659Y303984D01*
X113659Y302984D01*
X114659D01*
Y303984D01*
X113659Y304984D01*
X114659Y305984D01*
Y306984D01*
X113659D01*
X112659Y305984D01*
X111659Y306984D01*
X110659D01*
Y305984D01*
X111659Y304984D01*
X110659Y303984D01*
Y302984D01*
X106782Y307008D02*
X107782D01*
X108782Y308008D01*
X109782Y307008D01*
X110782D01*
Y308008D01*
X109782Y309008D01*
X110782Y310008D01*
Y311008D01*
X109782D01*
X108782Y310008D01*
X107782Y311008D01*
X106782D01*
Y310008D01*
X107782Y309008D01*
X106782Y308008D01*
Y307008D01*
Y311008D02*
X107782D01*
X108782Y312008D01*
X109782Y311008D01*
X110782D01*
Y312008D01*
X109782Y313008D01*
X110782Y314008D01*
Y315008D01*
X109782D01*
X108782Y314008D01*
X107782Y315008D01*
X106782D01*
Y314008D01*
X107782Y313008D01*
X106782Y312008D01*
Y311008D01*
Y315008D02*
X107782D01*
X108782Y316008D01*
X109782Y315008D01*
X110782D01*
Y316008D01*
X109782Y317008D01*
X110782Y318008D01*
Y319008D01*
X109782D01*
X108782Y318008D01*
X107782Y319008D01*
X106782D01*
Y318008D01*
X107782Y317008D01*
X106782Y316008D01*
Y315008D01*
X59207Y334997D02*
X60207D01*
X61207Y335997D01*
X62207Y334997D01*
X63207D01*
Y335997D01*
X62207Y336997D01*
X63207Y337997D01*
Y338997D01*
X62207D01*
X61207Y337997D01*
X60207Y338997D01*
X59207D01*
Y337997D01*
X60207Y336997D01*
X59207Y335997D01*
Y334997D01*
X43285Y335107D02*
X44285D01*
X45285Y336107D01*
X46285Y335107D01*
X47285D01*
Y336107D01*
X46285Y337107D01*
X47285Y338107D01*
Y339107D01*
X46285D01*
X45285Y338107D01*
X44285Y339107D01*
X43285D01*
Y338107D01*
X44285Y337107D01*
X43285Y336107D01*
Y335107D01*
X43283Y338699D02*
X44283D01*
X45283Y339699D01*
X46283Y338699D01*
X47283D01*
Y339699D01*
X46283Y340699D01*
X47283Y341699D01*
Y342699D01*
X46283D01*
X45283Y341699D01*
X44283Y342699D01*
X43283D01*
Y341699D01*
X44283Y340699D01*
X43283Y339699D01*
Y338699D01*
X47206Y338768D02*
X48206D01*
X49206Y339768D01*
X50206Y338768D01*
X51206D01*
Y339768D01*
X50206Y340768D01*
X51206Y341768D01*
Y342768D01*
X50206D01*
X49206Y341768D01*
X48206Y342768D01*
X47206D01*
Y341768D01*
X48206Y340768D01*
X47206Y339768D01*
Y338768D01*
X51206D02*
X52206D01*
X53206Y339768D01*
X54206Y338768D01*
X55206D01*
Y339768D01*
X54206Y340768D01*
X55206Y341768D01*
Y342768D01*
X54206D01*
X53206Y341768D01*
X52206Y342768D01*
X51206D01*
Y341768D01*
X52206Y340768D01*
X51206Y339768D01*
Y338768D01*
X55206D02*
X56206D01*
X57206Y339768D01*
X58206Y338768D01*
X59206D01*
Y339768D01*
X58206Y340768D01*
X59206Y341768D01*
Y342768D01*
X58206D01*
X57206Y341768D01*
X56206Y342768D01*
X55206D01*
Y341768D01*
X56206Y340768D01*
X55206Y339768D01*
Y338768D01*
X59206D02*
X60206D01*
X61206Y339768D01*
X62206Y338768D01*
X63206D01*
Y339768D01*
X62206Y340768D01*
X63206Y341768D01*
Y342768D01*
X62206D01*
X61206Y341768D01*
X60206Y342768D01*
X59206D01*
Y341768D01*
X60206Y340768D01*
X59206Y339768D01*
Y338768D01*
X59369Y306941D02*
X60369D01*
X61369Y307941D01*
X62369Y306941D01*
X63369D01*
Y307941D01*
X62369Y308941D01*
X63369Y309941D01*
Y310941D01*
X62369D01*
X61369Y309941D01*
X60369Y310941D01*
X59369D01*
Y309941D01*
X60369Y308941D01*
X59369Y307941D01*
Y306941D01*
X55369D02*
X56369D01*
X57369Y307941D01*
X58369Y306941D01*
X59369D01*
Y307941D01*
X58369Y308941D01*
X59369Y309941D01*
Y310941D01*
X58369D01*
X57369Y309941D01*
X56369Y310941D01*
X55369D01*
Y309941D01*
X56369Y308941D01*
X55369Y307941D01*
Y306941D01*
X51369D02*
X52369D01*
X53369Y307941D01*
X54369Y306941D01*
X55369D01*
Y307941D01*
X54369Y308941D01*
X55369Y309941D01*
Y310941D01*
X54369D01*
X53369Y309941D01*
X52369Y310941D01*
X51369D01*
Y309941D01*
X52369Y308941D01*
X51369Y307941D01*
Y306941D01*
X47369D02*
X48369D01*
X49369Y307941D01*
X50369Y306941D01*
X51369D01*
Y307941D01*
X50369Y308941D01*
X51369Y309941D01*
Y310941D01*
X50369D01*
X49369Y309941D01*
X48369Y310941D01*
X47369D01*
Y309941D01*
X48369Y308941D01*
X47369Y307941D01*
Y306941D01*
X43446Y306871D02*
X44446D01*
X45446Y307871D01*
X46446Y306871D01*
X47446D01*
Y307871D01*
X46446Y308871D01*
X47446Y309871D01*
Y310871D01*
X46446D01*
X45446Y309871D01*
X44446Y310871D01*
X43446D01*
Y309871D01*
X44446Y308871D01*
X43446Y307871D01*
Y306871D01*
X379030Y252475D02*
X380030D01*
X381030Y253475D01*
X382030Y252475D01*
X383030D01*
Y253475D01*
X382030Y254475D01*
X383030Y255475D01*
Y256475D01*
X382030D01*
X381030Y255475D01*
X380030Y256475D01*
X379030D01*
Y255475D01*
X380030Y254475D01*
X379030Y253475D01*
Y252475D01*
X237467Y213180D02*
X238467D01*
X239467Y214180D01*
X240466Y213180D01*
X241466D01*
Y214180D01*
X240466Y215180D01*
X241466Y216180D01*
Y217180D01*
X240466D01*
X239467Y216180D01*
X238467Y217180D01*
X237467D01*
Y216180D01*
X238467Y215180D01*
X237467Y214180D01*
Y213180D01*
X291032Y382064D02*
X292032D01*
X293032Y383064D01*
X294032Y382064D01*
X295032D01*
Y383064D01*
X294032Y384064D01*
X295032Y385064D01*
Y386064D01*
X294032D01*
X293032Y385064D01*
X292032Y386064D01*
X291032D01*
Y385064D01*
X292032Y384064D01*
X291032Y383064D01*
Y382064D01*
X292246Y291731D02*
X293246D01*
X294246Y292731D01*
X295246Y291731D01*
X296246D01*
Y292731D01*
X295246Y293731D01*
X296246Y294731D01*
Y295731D01*
X295246D01*
X294246Y294731D01*
X293246Y295731D01*
X292246D01*
Y294731D01*
X293246Y293731D01*
X292246Y292731D01*
Y291731D01*
X282434Y296533D02*
X283434D01*
X284434Y297533D01*
X285434Y296533D01*
X286434D01*
Y297533D01*
X285434Y298533D01*
X286434Y299533D01*
Y300533D01*
X285434D01*
X284434Y299533D01*
X283434Y300533D01*
X282434D01*
Y299533D01*
X283434Y298533D01*
X282434Y297533D01*
Y296533D01*
X297495Y295721D02*
X298495D01*
X299495Y296721D01*
X300495Y295721D01*
X301495D01*
Y296721D01*
X300495Y297721D01*
X301495Y298721D01*
Y299721D01*
X300495D01*
X299495Y298721D01*
X298495Y299721D01*
X297495D01*
Y298721D01*
X298495Y297721D01*
X297495Y296721D01*
Y295721D01*
X297330Y315620D02*
X298330D01*
X299330Y316620D01*
X300330Y315620D01*
X301330D01*
Y316620D01*
X300330Y317620D01*
X301330Y318620D01*
Y319620D01*
X300330D01*
X299330Y318620D01*
X298330Y319620D01*
X297330D01*
Y318620D01*
X298330Y317620D01*
X297330Y316620D01*
Y315620D01*
X53000Y182000D02*
X54000D01*
X55000Y183000D01*
X56000Y182000D01*
X57000D01*
Y183000D01*
X56000Y184000D01*
X57000Y185000D01*
Y186000D01*
X56000D01*
X55000Y185000D01*
X54000Y186000D01*
X53000D01*
Y185000D01*
X54000Y184000D01*
X53000Y183000D01*
Y182000D01*
X87675Y181862D02*
X88675D01*
X89675Y182862D01*
X90675Y181862D01*
X91675D01*
Y182862D01*
X90675Y183862D01*
X91675Y184862D01*
Y185863D01*
X90675D01*
X89675Y184862D01*
X88675Y185863D01*
X87675D01*
Y184862D01*
X88675Y183862D01*
X87675Y182862D01*
Y181862D01*
X82000Y97000D02*
X83000D01*
X84000Y98000D01*
X85000Y97000D01*
X86000D01*
Y98000D01*
X85000Y99000D01*
X86000Y100000D01*
Y101000D01*
X85000D01*
X84000Y100000D01*
X83000Y101000D01*
X82000D01*
Y100000D01*
X83000Y99000D01*
X82000Y98000D01*
Y97000D01*
X228090Y392275D02*
X229090D01*
X230090Y393275D01*
X231090Y392275D01*
X232090D01*
Y393275D01*
X231090Y394275D01*
X232090Y395275D01*
Y396275D01*
X231090D01*
X230090Y395275D01*
X229090Y396275D01*
X228090D01*
Y395275D01*
X229090Y394275D01*
X228090Y393275D01*
Y392275D01*
X320428Y318561D02*
X321428D01*
X322428Y319561D01*
X323428Y318561D01*
X324428D01*
Y319561D01*
X323428Y320561D01*
X324428Y321561D01*
Y322561D01*
X323428D01*
X322428Y321561D01*
X321428Y322561D01*
X320428D01*
Y321561D01*
X321428Y320561D01*
X320428Y319561D01*
Y318561D01*
X227978Y295084D02*
X228978D01*
X229978Y296084D01*
X230978Y295084D01*
X231978D01*
Y296084D01*
X230978Y297084D01*
X231978Y298084D01*
Y299084D01*
X230978D01*
X229978Y298084D01*
X228978Y299084D01*
X227978D01*
Y298084D01*
X228978Y297084D01*
X227978Y296084D01*
Y295084D01*
X116260Y274021D02*
X117260D01*
X118260Y275021D01*
X119260Y274021D01*
X120260D01*
Y275021D01*
X119260Y276021D01*
X120260Y277021D01*
Y278021D01*
X119260D01*
X118260Y277021D01*
X117260Y278021D01*
X116260D01*
Y277021D01*
X117260Y276021D01*
X116260Y275021D01*
Y274021D01*
X56640Y277900D02*
X57640D01*
X58640Y278900D01*
X59640Y277900D01*
X60640D01*
Y278900D01*
X59640Y279900D01*
X60640Y280900D01*
Y281900D01*
X59640D01*
X58640Y280900D01*
X57640Y281900D01*
X56640D01*
Y280900D01*
X57640Y279900D01*
X56640Y278900D01*
Y277900D01*
Y281090D02*
X57640D01*
X58640Y282090D01*
X59640Y281090D01*
X60640D01*
Y282090D01*
X59640Y283090D01*
X60640Y284090D01*
Y285090D01*
X59640D01*
X58640Y284090D01*
X57640Y285090D01*
X56640D01*
Y284090D01*
X57640Y283090D01*
X56640Y282090D01*
Y281090D01*
X123326Y215138D02*
X124326D01*
X125326Y216138D01*
X126326Y215138D01*
X127326D01*
Y216138D01*
X126326Y217138D01*
X127326Y218138D01*
Y219138D01*
X126326D01*
X125326Y218138D01*
X124326Y219138D01*
X123326D01*
Y218138D01*
X124326Y217138D01*
X123326Y216138D01*
Y215138D01*
X163008Y318389D02*
X164008D01*
X165008Y319389D01*
X166008Y318389D01*
X167008D01*
Y319389D01*
X166008Y320389D01*
X167008Y321389D01*
Y322389D01*
X166008D01*
X165008Y321389D01*
X164008Y322389D01*
X163008D01*
Y321389D01*
X164008Y320389D01*
X163008Y319389D01*
Y318389D01*
X213614Y305004D02*
X214614D01*
X215614Y306004D01*
X216614Y305004D01*
X217614D01*
Y306004D01*
X216614Y307004D01*
X217614Y308004D01*
Y309004D01*
X216614D01*
X215614Y308004D01*
X214614Y309004D01*
X213614D01*
Y308004D01*
X214614Y307004D01*
X213614Y306004D01*
Y305004D01*
X160650Y322798D02*
X161650D01*
X162650Y323798D01*
X163650Y322798D01*
X164650D01*
Y323798D01*
X163650Y324798D01*
X164650Y325798D01*
Y326798D01*
X163650D01*
X162650Y325798D01*
X161650Y326798D01*
X160650D01*
Y325798D01*
X161650Y324798D01*
X160650Y323798D01*
Y322798D01*
X421590Y414186D02*
X422590D01*
X423590Y415187D01*
X424590Y414186D01*
X425590D01*
Y415187D01*
X424590Y416187D01*
X425590Y417186D01*
Y418187D01*
X424590D01*
X423590Y417186D01*
X422590Y418187D01*
X421590D01*
Y417186D01*
X422590Y416187D01*
X421590Y415187D01*
Y414186D01*
X397944Y414010D02*
X398944D01*
X399944Y415010D01*
X400944Y414010D01*
X401944D01*
Y415010D01*
X400944Y416010D01*
X401944Y417010D01*
Y418010D01*
X400944D01*
X399944Y417010D01*
X398944Y418010D01*
X397944D01*
Y417010D01*
X398944Y416010D01*
X397944Y415010D01*
Y414010D01*
X401944D02*
X402944D01*
X403944Y415010D01*
X404944Y414010D01*
X405944D01*
Y415010D01*
X404944Y416010D01*
X405944Y417010D01*
Y418010D01*
X404944D01*
X403944Y417010D01*
X402944Y418010D01*
X401944D01*
Y417010D01*
X402944Y416010D01*
X401944Y415010D01*
Y414010D01*
X405867Y414080D02*
X406867D01*
X407867Y415079D01*
X408867Y414080D01*
X409867D01*
Y415079D01*
X408867Y416080D01*
X409867Y417079D01*
Y418080D01*
X408867D01*
X407867Y417079D01*
X406867Y418080D01*
X405867D01*
Y417079D01*
X406867Y416080D01*
X405867Y415079D01*
Y414080D01*
X379971Y414081D02*
X380971D01*
X381971Y415081D01*
X382971Y414081D01*
X383971D01*
Y415081D01*
X382971Y416081D01*
X383971Y417081D01*
Y418081D01*
X382971D01*
X381971Y417081D01*
X380971Y418081D01*
X379971D01*
Y417081D01*
X380971Y416081D01*
X379971Y415081D01*
Y414081D01*
X383971D02*
X384971D01*
X385971Y415081D01*
X386971Y414081D01*
X387971D01*
Y415081D01*
X386971Y416081D01*
X387971Y417081D01*
Y418081D01*
X386971D01*
X385971Y417081D01*
X384971Y418081D01*
X383971D01*
Y417081D01*
X384971Y416081D01*
X383971Y415081D01*
Y414081D01*
X387894Y414151D02*
X388894D01*
X389894Y415151D01*
X390894Y414151D01*
X391894D01*
Y415151D01*
X390894Y416151D01*
X391894Y417151D01*
Y418151D01*
X390894D01*
X389894Y417151D01*
X388894Y418151D01*
X387894D01*
Y417151D01*
X388894Y416151D01*
X387894Y415151D01*
Y414151D01*
X363943Y413993D02*
X364943D01*
X365943Y414993D01*
X366943Y413993D01*
X367943D01*
Y414993D01*
X366943Y415993D01*
X367943Y416993D01*
Y417993D01*
X366943D01*
X365943Y416993D01*
X364943Y417993D01*
X363943D01*
Y416993D01*
X364943Y415993D01*
X363943Y414993D01*
Y413993D01*
X367943D02*
X368943D01*
X369943Y414993D01*
X370943Y413993D01*
X371943D01*
Y414993D01*
X370943Y415993D01*
X371943Y416993D01*
Y417993D01*
X370943D01*
X369943Y416993D01*
X368943Y417993D01*
X367943D01*
Y416993D01*
X368943Y415993D01*
X367943Y414993D01*
Y413993D01*
X371866Y414062D02*
X372866D01*
X373866Y415062D01*
X374866Y414062D01*
X375866D01*
Y415062D01*
X374866Y416062D01*
X375866Y417062D01*
Y418062D01*
X374866D01*
X373866Y417062D01*
X372866Y418062D01*
X371866D01*
Y417062D01*
X372866Y416062D01*
X371866Y415062D01*
Y414062D01*
X126799Y215338D02*
X127799D01*
X128799Y216338D01*
X129799Y215338D01*
X130799D01*
Y216338D01*
X129799Y217338D01*
X130799Y218338D01*
Y219338D01*
X129799D01*
X128799Y218338D01*
X127799Y219338D01*
X126799D01*
Y218338D01*
X127799Y217338D01*
X126799Y216338D01*
Y215338D01*
X190271Y302904D02*
X191271D01*
X192271Y303904D01*
X193271Y302904D01*
X194271D01*
Y303904D01*
X193271Y304904D01*
X194271Y305904D01*
Y306904D01*
X193271D01*
X192271Y305904D01*
X191271Y306904D01*
X190271D01*
Y305904D01*
X191271Y304904D01*
X190271Y303904D01*
Y302904D01*
X123552Y143758D02*
X124552D01*
X125552Y144758D01*
X126552Y143758D01*
X127552D01*
Y144758D01*
X126552Y145758D01*
X127552Y146758D01*
Y147758D01*
X126552D01*
X125552Y146758D01*
X124552Y147758D01*
X123552D01*
Y146758D01*
X124552Y145758D01*
X123552Y144758D01*
Y143758D01*
X57782Y96086D02*
X58782D01*
X59782Y97086D01*
X60782Y96086D01*
X61782D01*
Y97086D01*
X60782Y98086D01*
X61782Y99086D01*
Y100086D01*
X60782D01*
X59782Y99086D01*
X58782Y100086D01*
X57782D01*
Y99086D01*
X58782Y98086D01*
X57782Y97086D01*
Y96086D01*
X302607Y24840D02*
X303607D01*
X304607Y25840D01*
X305607Y24840D01*
X306607D01*
Y25840D01*
X305607Y26840D01*
X306607Y27841D01*
Y28841D01*
X305607D01*
X304607Y27841D01*
X303607Y28841D01*
X302607D01*
Y27841D01*
X303607Y26840D01*
X302607Y25840D01*
Y24840D01*
X319771Y24646D02*
X320771D01*
X321771Y25646D01*
X322771Y24646D01*
X323771D01*
Y25646D01*
X322771Y26646D01*
X323771Y27646D01*
Y28646D01*
X322771D01*
X321771Y27646D01*
X320771Y28646D01*
X319771D01*
Y27646D01*
X320771Y26646D01*
X319771Y25646D01*
Y24646D01*
X464336Y356195D02*
X465336D01*
X466336Y357195D01*
X467336Y356195D01*
X468336D01*
Y357195D01*
X467336Y358195D01*
X468336Y359195D01*
Y360195D01*
X467336D01*
X466336Y359195D01*
X465336Y360195D01*
X464336D01*
Y359195D01*
X465336Y358195D01*
X464336Y357195D01*
Y356195D01*
X362415Y256124D02*
X363415D01*
X364415Y257124D01*
X365415Y256124D01*
X366415D01*
Y257124D01*
X365415Y258124D01*
X366415Y259124D01*
Y260124D01*
X365415D01*
X364415Y259124D01*
X363415Y260124D01*
X362415D01*
Y259124D01*
X363415Y258124D01*
X362415Y257124D01*
Y256124D01*
X366034Y256276D02*
X367034D01*
X368034Y257276D01*
X369034Y256276D01*
X370034D01*
Y257276D01*
X369034Y258276D01*
X370034Y259276D01*
Y260276D01*
X369034D01*
X368034Y259276D01*
X367034Y260276D01*
X366034D01*
Y259276D01*
X367034Y258276D01*
X366034Y257276D01*
Y256276D01*
X370109Y252064D02*
X371109D01*
X372109Y253064D01*
X373109Y252064D01*
X374109D01*
Y253064D01*
X373109Y254064D01*
X374109Y255064D01*
Y256064D01*
X373109D01*
X372109Y255064D01*
X371109Y256064D01*
X370109D01*
Y255064D01*
X371109Y254064D01*
X370109Y253064D01*
Y252064D01*
X367904Y248552D02*
X368904D01*
X369904Y249552D01*
X370904Y248552D01*
X371904D01*
Y249552D01*
X370904Y250552D01*
X371904Y251552D01*
Y252552D01*
X370904D01*
X369904Y251552D01*
X368904Y252552D01*
X367904D01*
Y251552D01*
X368904Y250552D01*
X367904Y249552D01*
Y248552D01*
X123408Y168760D02*
X124408D01*
X125408Y169760D01*
X126408Y168760D01*
X127408D01*
Y169760D01*
X126408Y170760D01*
X127408Y171760D01*
Y172760D01*
X126408D01*
X125408Y171760D01*
X124408Y172760D01*
X123408D01*
Y171760D01*
X124408Y170760D01*
X123408Y169760D01*
Y168760D01*
X203193Y303764D02*
X204193D01*
X205193Y304764D01*
X206193Y303764D01*
X207193D01*
Y304764D01*
X206193Y305764D01*
X207193Y306764D01*
Y307764D01*
X206193D01*
X205193Y306764D01*
X204193Y307764D01*
X203193D01*
Y306764D01*
X204193Y305764D01*
X203193Y304764D01*
Y303764D01*
X187987Y309299D02*
X188987D01*
X189987Y310299D01*
X190987Y309299D01*
X191987D01*
Y310299D01*
X190987Y311299D01*
X191987Y312299D01*
Y313299D01*
X190987D01*
X189987Y312299D01*
X188987Y313299D01*
X187987D01*
Y312299D01*
X188987Y311299D01*
X187987Y310299D01*
Y309299D01*
X303464Y339684D02*
X304464D01*
X305464Y340684D01*
X306464Y339684D01*
X307464D01*
Y340684D01*
X306464Y341684D01*
X307464Y342684D01*
Y343684D01*
X306464D01*
X305464Y342684D01*
X304464Y343684D01*
X303464D01*
Y342684D01*
X304464Y341684D01*
X303464Y340684D01*
Y339684D01*
X303904Y328463D02*
X304904D01*
X305904Y329463D01*
X306904Y328463D01*
X307904D01*
Y329463D01*
X306904Y330463D01*
X307904Y331463D01*
Y332463D01*
X306904D01*
X305904Y331463D01*
X304904Y332463D01*
X303904D01*
Y331463D01*
X304904Y330463D01*
X303904Y329463D01*
Y328463D01*
X296074Y368457D02*
X297074D01*
X298074Y369457D01*
X299074Y368457D01*
X300074D01*
Y369457D01*
X299074Y370457D01*
X300074Y371457D01*
Y372457D01*
X299074D01*
X298074Y371457D01*
X297074Y372457D01*
X296074D01*
Y371457D01*
X297074Y370457D01*
X296074Y369457D01*
Y368457D01*
X301290Y373290D02*
X302290D01*
X303290Y374290D01*
X304290Y373290D01*
X305290D01*
Y374290D01*
X304290Y375290D01*
X305290Y376290D01*
Y377290D01*
X304290D01*
X303290Y376290D01*
X302290Y377290D01*
X301290D01*
Y376290D01*
X302290Y375290D01*
X301290Y374290D01*
Y373290D01*
X302442Y323608D02*
X303442D01*
X304442Y324608D01*
X305442Y323608D01*
X306442D01*
Y324608D01*
X305442Y325608D01*
X306442Y326608D01*
Y327608D01*
X305442D01*
X304442Y326608D01*
X303442Y327608D01*
X302442D01*
Y326608D01*
X303442Y325608D01*
X302442Y324608D01*
Y323608D01*
X306365Y323678D02*
X307365D01*
X308365Y324678D01*
X309365Y323678D01*
X310365D01*
Y324678D01*
X309365Y325678D01*
X310365Y326678D01*
Y327678D01*
X309365D01*
X308365Y326678D01*
X307365Y327678D01*
X306365D01*
Y326678D01*
X307365Y325678D01*
X306365Y324678D01*
Y323678D01*
X310365D02*
X311365D01*
X312365Y324678D01*
X313365Y323678D01*
X314365D01*
Y324678D01*
X313365Y325678D01*
X314365Y326678D01*
Y327678D01*
X313365D01*
X312365Y326678D01*
X311365Y327678D01*
X310365D01*
Y326678D01*
X311365Y325678D01*
X310365Y324678D01*
Y323678D01*
X318326Y328412D02*
X319326D01*
X320326Y329412D01*
X321326Y328412D01*
X322326D01*
Y329412D01*
X321326Y330412D01*
X322326Y331412D01*
Y332412D01*
X321326D01*
X320326Y331412D01*
X319326Y332412D01*
X318326D01*
Y331412D01*
X319326Y330412D01*
X318326Y329412D01*
Y328412D01*
X314326D02*
X315326D01*
X316326Y329412D01*
X317326Y328412D01*
X318326D01*
Y329412D01*
X317326Y330412D01*
X318326Y331412D01*
Y332412D01*
X317326D01*
X316326Y331412D01*
X315326Y332412D01*
X314326D01*
Y331412D01*
X315326Y330412D01*
X314326Y329412D01*
Y328412D01*
X310403Y328343D02*
X311403D01*
X312403Y329343D01*
X313403Y328343D01*
X314403D01*
Y329343D01*
X313403Y330343D01*
X314403Y331343D01*
Y332343D01*
X313403D01*
X312403Y331343D01*
X311403Y332343D01*
X310403D01*
Y331343D01*
X311403Y330343D01*
X310403Y329343D01*
Y328343D01*
X316417Y347202D02*
X317417D01*
X318417Y348202D01*
X319417Y347202D01*
X320417D01*
Y348202D01*
X319417Y349202D01*
X320417Y350202D01*
Y351202D01*
X319417D01*
X318417Y350202D01*
X317417Y351202D01*
X316417D01*
Y350202D01*
X317417Y349202D01*
X316417Y348202D01*
Y347202D01*
X316228Y368784D02*
X317228D01*
X318228Y369784D01*
X319228Y368784D01*
X320228D01*
Y369784D01*
X319228Y370784D01*
X320228Y371784D01*
Y372784D01*
X319228D01*
X318228Y371784D01*
X317228Y372784D01*
X316228D01*
Y371784D01*
X317228Y370784D01*
X316228Y369784D01*
Y368784D01*
X431777Y337646D02*
X432777D01*
X433777Y338646D01*
X434777Y337646D01*
X435777D01*
Y338646D01*
X434777Y339646D01*
X435777Y340646D01*
Y341646D01*
X434777D01*
X433777Y340646D01*
X432777Y341646D01*
X431777D01*
Y340646D01*
X432777Y339646D01*
X431777Y338646D01*
Y337646D01*
X431707Y341569D02*
X432707D01*
X433707Y342569D01*
X434707Y341569D01*
X435707D01*
Y342569D01*
X434707Y343569D01*
X435707Y344569D01*
Y345569D01*
X434707D01*
X433707Y344569D01*
X432707Y345569D01*
X431707D01*
Y344569D01*
X432707Y343569D01*
X431707Y342569D01*
Y341569D01*
Y345569D02*
X432707D01*
X433707Y346569D01*
X434707Y345569D01*
X435707D01*
Y346569D01*
X434707Y347569D01*
X435707Y348569D01*
Y349569D01*
X434707D01*
X433707Y348569D01*
X432707Y349569D01*
X431707D01*
Y348569D01*
X432707Y347569D01*
X431707Y346569D01*
Y345569D01*
Y349569D02*
X432707D01*
X433707Y350569D01*
X434707Y349569D01*
X435707D01*
Y350569D01*
X434707Y351569D01*
X435707Y352569D01*
Y353569D01*
X434707D01*
X433707Y352569D01*
X432707Y353569D01*
X431707D01*
Y352569D01*
X432707Y351569D01*
X431707Y350569D01*
Y349569D01*
Y353569D02*
X432707D01*
X433707Y354569D01*
X434707Y353569D01*
X435707D01*
Y354569D01*
X434707Y355569D01*
X435707Y356569D01*
Y357569D01*
X434707D01*
X433707Y356569D01*
X432707Y357569D01*
X431707D01*
Y356569D01*
X432707Y355569D01*
X431707Y354569D01*
Y353569D01*
X435405Y337646D02*
X436405D01*
X437405Y338646D01*
X438405Y337646D01*
X439405D01*
Y338646D01*
X438405Y339646D01*
X439405Y340646D01*
Y341646D01*
X438405D01*
X437405Y340646D01*
X436405Y341646D01*
X435405D01*
Y340646D01*
X436405Y339646D01*
X435405Y338646D01*
Y337646D01*
X435336Y341569D02*
X436336D01*
X437336Y342569D01*
X438336Y341569D01*
X439336D01*
Y342569D01*
X438336Y343569D01*
X439336Y344569D01*
Y345569D01*
X438336D01*
X437336Y344569D01*
X436336Y345569D01*
X435336D01*
Y344569D01*
X436336Y343569D01*
X435336Y342569D01*
Y341569D01*
X435336Y345569D02*
X436336D01*
X437336Y346569D01*
X438336Y345569D01*
X439336D01*
Y346569D01*
X438336Y347569D01*
X439336Y348569D01*
Y349569D01*
X438336D01*
X437336Y348569D01*
X436336Y349569D01*
X435336D01*
Y348569D01*
X436336Y347569D01*
X435336Y346569D01*
Y345569D01*
Y349569D02*
X436336D01*
X437336Y350569D01*
X438336Y349569D01*
X439336D01*
Y350569D01*
X438336Y351569D01*
X439336Y352569D01*
Y353569D01*
X438336D01*
X437336Y352569D01*
X436336Y353569D01*
X435336D01*
Y352569D01*
X436336Y351569D01*
X435336Y350569D01*
Y349569D01*
Y353569D02*
X436336D01*
X437336Y354569D01*
X438336Y353569D01*
X439336D01*
Y354569D01*
X438336Y355569D01*
X439336Y356569D01*
Y357569D01*
X438336D01*
X437336Y356569D01*
X436336Y357569D01*
X435336D01*
Y356569D01*
X436336Y355569D01*
X435336Y354569D01*
Y353569D01*
X439034Y337647D02*
X440034D01*
X441034Y338647D01*
X442034Y337647D01*
X443034D01*
Y338647D01*
X442034Y339647D01*
X443034Y340647D01*
Y341647D01*
X442034D01*
X441034Y340647D01*
X440034Y341647D01*
X439034D01*
Y340647D01*
X440034Y339647D01*
X439034Y338647D01*
Y337647D01*
X438965Y341569D02*
X439965D01*
X440965Y342569D01*
X441965Y341569D01*
X442965D01*
Y342569D01*
X441965Y343569D01*
X442965Y344569D01*
Y345569D01*
X441965D01*
X440965Y344569D01*
X439965Y345569D01*
X438965D01*
Y344569D01*
X439965Y343569D01*
X438965Y342569D01*
Y341569D01*
Y345569D02*
X439965D01*
X440965Y346569D01*
X441965Y345569D01*
X442965D01*
Y346569D01*
X441965Y347569D01*
X442965Y348569D01*
Y349570D01*
X441965D01*
X440965Y348569D01*
X439965Y349570D01*
X438965D01*
Y348569D01*
X439965Y347569D01*
X438965Y346569D01*
Y345569D01*
Y349570D02*
X439965D01*
X440965Y350570D01*
X441965Y349570D01*
X442965D01*
Y350570D01*
X441965Y351570D01*
X442965Y352570D01*
Y353570D01*
X441965D01*
X440965Y352570D01*
X439965Y353570D01*
X438965D01*
Y352570D01*
X439965Y351570D01*
X438965Y350570D01*
Y349570D01*
Y353570D02*
X439965D01*
X440965Y354570D01*
X441965Y353570D01*
X442965D01*
Y354570D01*
X441965Y355570D01*
X442965Y356570D01*
Y357570D01*
X441965D01*
X440965Y356570D01*
X439965Y357570D01*
X438965D01*
Y356570D01*
X439965Y355570D01*
X438965Y354570D01*
Y353570D01*
X139780Y415698D02*
X140780D01*
X141780Y416698D01*
X142780Y415698D01*
X143780D01*
Y416698D01*
X142780Y417698D01*
X143780Y418698D01*
Y419698D01*
X142780D01*
X141780Y418698D01*
X140780Y419698D01*
X139780D01*
Y418698D01*
X140780Y417698D01*
X139780Y416698D01*
Y415698D01*
X143703Y415767D02*
X144703D01*
X145703Y416768D01*
X146703Y415767D01*
X147703D01*
Y416768D01*
X146703Y417767D01*
X147703Y418767D01*
Y419768D01*
X146703D01*
X145703Y418767D01*
X144703Y419768D01*
X143703D01*
Y418767D01*
X144703Y417767D01*
X143703Y416768D01*
Y415767D01*
X147703D02*
X148703D01*
X149703Y416768D01*
X150703Y415767D01*
X151703D01*
Y416768D01*
X150703Y417767D01*
X151703Y418767D01*
Y419768D01*
X150703D01*
X149703Y418767D01*
X148703Y419768D01*
X147703D01*
Y418767D01*
X148703Y417767D01*
X147703Y416768D01*
Y415767D01*
X151703D02*
X152703D01*
X153703Y416768D01*
X154703Y415767D01*
X155703D01*
Y416768D01*
X154703Y417767D01*
X155703Y418767D01*
Y419768D01*
X154703D01*
X153703Y418767D01*
X152703Y419768D01*
X151703D01*
Y418767D01*
X152703Y417767D01*
X151703Y416768D01*
Y415767D01*
X155703D02*
X156703D01*
X157703Y416768D01*
X158703Y415767D01*
X159703D01*
Y416768D01*
X158703Y417767D01*
X159703Y418767D01*
Y419768D01*
X158703D01*
X157703Y418767D01*
X156703Y419768D01*
X155703D01*
Y418767D01*
X156703Y417767D01*
X155703Y416768D01*
Y415767D01*
X139780Y412069D02*
X140780D01*
X141780Y413069D01*
X142780Y412069D01*
X143780D01*
Y413069D01*
X142780Y414069D01*
X143780Y415069D01*
Y416069D01*
X142780D01*
X141780Y415069D01*
X140780Y416069D01*
X139780D01*
Y415069D01*
X140780Y414069D01*
X139780Y413069D01*
Y412069D01*
X143703Y412139D02*
X144703D01*
X145703Y413139D01*
X146703Y412139D01*
X147703D01*
Y413139D01*
X146703Y414139D01*
X147703Y415139D01*
Y416139D01*
X146703D01*
X145703Y415139D01*
X144703Y416139D01*
X143703D01*
Y415139D01*
X144703Y414139D01*
X143703Y413139D01*
Y412139D01*
X147703D02*
X148703D01*
X149703Y413139D01*
X150703Y412139D01*
X151703D01*
Y413139D01*
X150703Y414139D01*
X151703Y415139D01*
Y416139D01*
X150703D01*
X149703Y415139D01*
X148703Y416139D01*
X147703D01*
Y415139D01*
X148703Y414139D01*
X147703Y413139D01*
Y412139D01*
X151703D02*
X152703D01*
X153703Y413139D01*
X154703Y412139D01*
X155703D01*
Y413139D01*
X154703Y414139D01*
X155703Y415139D01*
Y416139D01*
X154703D01*
X153703Y415139D01*
X152703Y416139D01*
X151703D01*
Y415139D01*
X152703Y414139D01*
X151703Y413139D01*
Y412139D01*
X155703D02*
X156703D01*
X157703Y413139D01*
X158703Y412139D01*
X159703D01*
Y413139D01*
X158703Y414139D01*
X159703Y415139D01*
Y416139D01*
X158703D01*
X157703Y415139D01*
X156703Y416139D01*
X155703D01*
Y415139D01*
X156703Y414139D01*
X155703Y413139D01*
Y412139D01*
X139781Y408440D02*
X140781D01*
X141781Y409441D01*
X142781Y408440D01*
X143781D01*
Y409441D01*
X142781Y410440D01*
X143781Y411441D01*
Y412440D01*
X142781D01*
X141781Y411441D01*
X140781Y412440D01*
X139781D01*
Y411441D01*
X140781Y410440D01*
X139781Y409441D01*
Y408440D01*
X143704Y408510D02*
X144704D01*
X145704Y409510D01*
X146704Y408510D01*
X147704D01*
Y409510D01*
X146704Y410510D01*
X147704Y411510D01*
Y412510D01*
X146704D01*
X145704Y411510D01*
X144704Y412510D01*
X143704D01*
Y411510D01*
X144704Y410510D01*
X143704Y409510D01*
Y408510D01*
X147704D02*
X148704D01*
X149704Y409510D01*
X150704Y408510D01*
X151704D01*
Y409510D01*
X150704Y410510D01*
X151704Y411510D01*
Y412510D01*
X150704D01*
X149704Y411510D01*
X148704Y412510D01*
X147704D01*
Y411510D01*
X148704Y410510D01*
X147704Y409510D01*
Y408510D01*
X196161Y220711D02*
X197161D01*
X198161Y221711D01*
X199161Y220711D01*
X200161D01*
Y221711D01*
X199161Y222711D01*
X200161Y223711D01*
Y224711D01*
X199161D01*
X198161Y223711D01*
X197161Y224711D01*
X196161D01*
Y223711D01*
X197161Y222711D01*
X196161Y221711D01*
Y220711D01*
X183760Y222545D02*
X184760D01*
X185760Y223545D01*
X186760Y222545D01*
X187760D01*
Y223545D01*
X186760Y224545D01*
X187760Y225545D01*
Y226545D01*
X186760D01*
X185760Y225545D01*
X184760Y226545D01*
X183760D01*
Y225545D01*
X184760Y224545D01*
X183760Y223545D01*
Y222545D01*
X136000Y88000D02*
X137000D01*
X138000Y89000D01*
X139000Y88000D01*
X140000D01*
Y89000D01*
X139000Y90000D01*
X140000Y91000D01*
Y92000D01*
X139000D01*
X138000Y91000D01*
X137000Y92000D01*
X136000D01*
Y91000D01*
X137000Y90000D01*
X136000Y89000D01*
Y88000D01*
X221230Y174625D02*
X222230D01*
X223230Y175625D01*
X224230Y174625D01*
X225230D01*
Y175625D01*
X224230Y176625D01*
X225230Y177625D01*
Y178625D01*
X224230D01*
X223230Y177625D01*
X222230Y178625D01*
X221230D01*
Y177625D01*
X222230Y176625D01*
X221230Y175625D01*
Y174625D01*
X212643Y278803D02*
X213643D01*
X214643Y279803D01*
X215643Y278803D01*
X216643D01*
Y279803D01*
X215643Y280803D01*
X216643Y281803D01*
Y282803D01*
X215643D01*
X214643Y281803D01*
X213643Y282803D01*
X212643D01*
Y281803D01*
X213643Y280803D01*
X212643Y279803D01*
Y278803D01*
X215600Y334429D02*
X216600D01*
X217600Y335429D01*
X218600Y334429D01*
X219600D01*
Y335429D01*
X218600Y336428D01*
X219600Y337428D01*
Y338428D01*
X218600D01*
X217600Y337428D01*
X216600Y338428D01*
X215600D01*
Y337428D01*
X216600Y336428D01*
X215600Y335429D01*
Y334429D01*
X214813Y276507D02*
X215813D01*
X216813Y277507D01*
X217813Y276507D01*
X218813D01*
Y277507D01*
X217813Y278507D01*
X218813Y279507D01*
Y280507D01*
X217813D01*
X216813Y279507D01*
X215813Y280507D01*
X214813D01*
Y279507D01*
X215813Y278507D01*
X214813Y277507D01*
Y276507D01*
X213678Y385869D02*
X214678D01*
X215677Y386869D01*
X216677Y385869D01*
X217677D01*
Y386869D01*
X216677Y387869D01*
X217677Y388869D01*
Y389869D01*
X216677D01*
X215677Y388869D01*
X214678Y389869D01*
X213678D01*
Y388869D01*
X214678Y387869D01*
X213678Y386869D01*
Y385869D01*
X214000Y338000D02*
X215000D01*
X216000Y339000D01*
X217000Y338000D01*
X218000D01*
Y339000D01*
X217000Y340000D01*
X218000Y341000D01*
Y342000D01*
X217000D01*
X216000Y341000D01*
X215000Y342000D01*
X214000D01*
Y341000D01*
X215000Y340000D01*
X214000Y339000D01*
Y338000D01*
X213791Y382959D02*
X214791D01*
X215791Y383959D01*
X216791Y382959D01*
X217791D01*
Y383959D01*
X216791Y384959D01*
X217791Y385959D01*
Y386959D01*
X216791D01*
X215791Y385959D01*
X214791Y386959D01*
X213791D01*
Y385959D01*
X214791Y384959D01*
X213791Y383959D01*
Y382959D01*
X208979Y361617D02*
X209979D01*
X210979Y362617D01*
X211979Y361617D01*
X212979D01*
Y362617D01*
X211979Y363617D01*
X212979Y364617D01*
Y365617D01*
X211979D01*
X210979Y364617D01*
X209979Y365617D01*
X208979D01*
Y364617D01*
X209979Y363617D01*
X208979Y362617D01*
Y361617D01*
X206554Y368399D02*
X207554D01*
X208554Y369399D01*
X209554Y368399D01*
X210554D01*
Y369399D01*
X209554Y370399D01*
X210554Y371399D01*
Y372399D01*
X209554D01*
X208554Y371399D01*
X207554Y372399D01*
X206554D01*
Y371399D01*
X207554Y370399D01*
X206554Y369399D01*
Y368399D01*
X106851Y303085D02*
X107851D01*
X108851Y304085D01*
X109851Y303085D01*
X110851D01*
Y304085D01*
X109851Y305085D01*
X110851Y306085D01*
Y307085D01*
X109851D01*
X108851Y306085D01*
X107851Y307085D01*
X106851D01*
Y306085D01*
X107851Y305085D01*
X106851Y304085D01*
Y303085D01*
X139875Y266258D02*
X140875D01*
X141875Y267258D01*
X142875Y266258D01*
X143875D01*
Y267258D01*
X142875Y268258D01*
X143875Y269258D01*
Y270258D01*
X142875D01*
X141875Y269258D01*
X140875Y270258D01*
X139875D01*
Y269258D01*
X140875Y268258D01*
X139875Y267258D01*
Y266258D01*
X110688Y296051D02*
X111688D01*
X112688Y297050D01*
X113688Y296051D01*
X114688D01*
Y297050D01*
X113688Y298050D01*
X114688Y299050D01*
Y300050D01*
X113688D01*
X112688Y299050D01*
X111688Y300050D01*
X110688D01*
Y299050D01*
X111688Y298050D01*
X110688Y297050D01*
Y296051D01*
X214038Y298495D02*
X215038D01*
X216038Y299495D01*
X217038Y298495D01*
X218038D01*
Y299495D01*
X217038Y300495D01*
X218038Y301495D01*
Y302495D01*
X217038D01*
X216038Y301495D01*
X215038Y302495D01*
X214038D01*
Y301495D01*
X215038Y300495D01*
X214038Y299495D01*
Y298495D01*
X218000Y114000D02*
X219000D01*
X220000Y115000D01*
X221000Y114000D01*
X222000D01*
Y115000D01*
X221000Y116000D01*
X222000Y117000D01*
Y118000D01*
X221000D01*
X220000Y117000D01*
X219000Y118000D01*
X218000D01*
Y117000D01*
X219000Y116000D01*
X218000Y115000D01*
Y114000D01*
X163000Y177000D02*
X164000D01*
X165000Y178000D01*
X166000Y177000D01*
X167000D01*
Y178000D01*
X166000Y179000D01*
X167000Y180000D01*
Y181000D01*
X166000D01*
X165000Y180000D01*
X164000Y181000D01*
X163000D01*
Y180000D01*
X164000Y179000D01*
X163000Y178000D01*
Y177000D01*
X167429Y173345D02*
X168429D01*
X169429Y174345D01*
X170429Y173345D01*
X171429D01*
Y174345D01*
X170429Y175345D01*
X171429Y176345D01*
Y177345D01*
X170429D01*
X169429Y176345D01*
X168429Y177345D01*
X167429D01*
Y176345D01*
X168429Y175345D01*
X167429Y174345D01*
Y173345D01*
X172000Y169000D02*
X173000D01*
X174000Y170000D01*
X175000Y169000D01*
X176000D01*
Y170000D01*
X175000Y171000D01*
X176000Y172000D01*
Y173000D01*
X175000D01*
X174000Y172000D01*
X173000Y173000D01*
X172000D01*
Y172000D01*
X173000Y171000D01*
X172000Y170000D01*
Y169000D01*
X179000Y163000D02*
X180000D01*
X181000Y164000D01*
X182000Y163000D01*
X183000D01*
Y164000D01*
X182000Y165000D01*
X183000Y166000D01*
Y167000D01*
X182000D01*
X181000Y166000D01*
X180000Y167000D01*
X179000D01*
Y166000D01*
X180000Y165000D01*
X179000Y164000D01*
Y163000D01*
X58613Y163711D02*
X59613D01*
X60612Y164711D01*
X61612Y163711D01*
X62612D01*
Y164711D01*
X61612Y165711D01*
X62612Y166711D01*
Y167711D01*
X61612D01*
X60612Y166711D01*
X59613Y167711D01*
X58613D01*
Y166711D01*
X59613Y165711D01*
X58613Y164711D01*
Y163711D01*
X202714Y134916D02*
X203714D01*
X204714Y135916D01*
X205714Y134916D01*
X206714D01*
Y135916D01*
X205714Y136916D01*
X206714Y137916D01*
Y138916D01*
X205714D01*
X204714Y137916D01*
X203714Y138916D01*
X202714D01*
Y137916D01*
X203714Y136916D01*
X202714Y135916D01*
Y134916D01*
X65955Y163436D02*
X66955D01*
X67955Y164436D01*
X68955Y163436D01*
X69955D01*
Y164436D01*
X68955Y165436D01*
X69955Y166436D01*
Y167436D01*
X68955D01*
X67955Y166436D01*
X66955Y167436D01*
X65955D01*
Y166436D01*
X66955Y165436D01*
X65955Y164436D01*
Y163436D01*
X62219Y163856D02*
X63219D01*
X64219Y164856D01*
X65219Y163856D01*
X66219D01*
Y164856D01*
X65219Y165856D01*
X66219Y166856D01*
Y167856D01*
X65219D01*
X64219Y166856D01*
X63219Y167856D01*
X62219D01*
Y166856D01*
X63219Y165856D01*
X62219Y164856D01*
Y163856D01*
X253046Y156838D02*
X254046D01*
X255046Y157838D01*
X256046Y156838D01*
X257046D01*
Y157838D01*
X256046Y158838D01*
X257046Y159838D01*
Y160838D01*
X256046D01*
X255046Y159838D01*
X254046Y160838D01*
X253046D01*
Y159838D01*
X254046Y158838D01*
X253046Y157838D01*
Y156838D01*
X245705Y171019D02*
X246705D01*
X247705Y172019D01*
X248705Y171019D01*
X249705D01*
Y172019D01*
X248705Y173019D01*
X249705Y174019D01*
Y175019D01*
X248705D01*
X247705Y174019D01*
X246705Y175019D01*
X245705D01*
Y174019D01*
X246705Y173019D01*
X245705Y172019D01*
Y171019D01*
X252880Y132016D02*
X253880D01*
X254880Y133016D01*
X255880Y132016D01*
X256880D01*
Y133016D01*
X255880Y134016D01*
X256880Y135016D01*
Y136016D01*
X255880D01*
X254880Y135016D01*
X253880Y136016D01*
X252880D01*
Y135016D01*
X253880Y134016D01*
X252880Y133016D01*
Y132016D01*
X252792Y134536D02*
X253792D01*
X254792Y135536D01*
X255792Y134536D01*
X256792D01*
Y135536D01*
X255792Y136536D01*
X256792Y137536D01*
Y138536D01*
X255792D01*
X254792Y137536D01*
X253792Y138536D01*
X252792D01*
Y137536D01*
X253792Y136536D01*
X252792Y135536D01*
Y134536D01*
X244877Y146229D02*
X245877D01*
X246877Y147229D01*
X247877Y146229D01*
X248877D01*
Y147229D01*
X247877Y148229D01*
X248877Y149229D01*
Y150229D01*
X247877D01*
X246877Y149229D01*
X245877Y150229D01*
X244877D01*
Y149229D01*
X245877Y148229D01*
X244877Y147229D01*
Y146229D01*
X208778Y118985D02*
X209778D01*
X210778Y119985D01*
X211778Y118985D01*
X212778D01*
Y119985D01*
X211778Y120985D01*
X212778Y121985D01*
Y122985D01*
X211778D01*
X210778Y121985D01*
X209778Y122985D01*
X208778D01*
Y121985D01*
X209778Y120985D01*
X208778Y119985D01*
Y118985D01*
X49916Y283459D02*
X50916D01*
X51916Y284459D01*
X52916Y283459D01*
X53916D01*
Y284459D01*
X52916Y285459D01*
X53916Y286459D01*
Y287459D01*
X52916D01*
X51916Y286459D01*
X50916Y287459D01*
X49916D01*
Y286459D01*
X50916Y285459D01*
X49916Y284459D01*
Y283459D01*
X328859Y253321D02*
X329859D01*
X330859Y254321D01*
X331859Y253321D01*
X332859D01*
Y254321D01*
X331859Y255321D01*
X332859Y256321D01*
Y257321D01*
X331859D01*
X330859Y256321D01*
X329859Y257321D01*
X328859D01*
Y256321D01*
X329859Y255321D01*
X328859Y254321D01*
Y253321D01*
X54000Y139000D02*
X55000D01*
X56000Y140000D01*
X57000Y139000D01*
X58000D01*
Y140000D01*
X57000Y141000D01*
X58000Y142000D01*
Y143000D01*
X57000D01*
X56000Y142000D01*
X55000Y143000D01*
X54000D01*
Y142000D01*
X55000Y141000D01*
X54000Y140000D01*
Y139000D01*
X410032Y46064D02*
X411032D01*
X412032Y47064D01*
X413032Y46064D01*
X414032D01*
Y47064D01*
X413032Y48064D01*
X414032Y49064D01*
Y50064D01*
X413032D01*
X412032Y49064D01*
X411032Y50064D01*
X410032D01*
Y49064D01*
X411032Y48064D01*
X410032Y47064D01*
Y46064D01*
X190761Y333090D02*
X191761D01*
X192761Y334090D01*
X193761Y333090D01*
X194761D01*
Y334090D01*
X193761Y335090D01*
X194761Y336090D01*
Y337090D01*
X193761D01*
X192761Y336090D01*
X191761Y337090D01*
X190761D01*
Y336090D01*
X191761Y335090D01*
X190761Y334090D01*
Y333090D01*
X144197Y287688D02*
X145197D01*
X146197Y288688D01*
X147197Y287688D01*
X148197D01*
Y288688D01*
X147197Y289688D01*
X148197Y290688D01*
Y291688D01*
X147197D01*
X146197Y290688D01*
X145197Y291688D01*
X144197D01*
Y290688D01*
X145197Y289688D01*
X144197Y288688D01*
Y287688D01*
X69252Y287092D02*
X70252D01*
X71252Y288092D01*
X72252Y287092D01*
X73252D01*
Y288092D01*
X72252Y289092D01*
X73252Y290092D01*
Y291092D01*
X72252D01*
X71252Y290092D01*
X70252Y291092D01*
X69252D01*
Y290092D01*
X70252Y289092D01*
X69252Y288092D01*
Y287092D01*
X334463Y347052D02*
X335463D01*
X336463Y348052D01*
X337463Y347052D01*
X338463D01*
Y348052D01*
X337463Y349052D01*
X338463Y350052D01*
Y351052D01*
X337463D01*
X336463Y350052D01*
X335463Y351052D01*
X334463D01*
Y350052D01*
X335463Y349052D01*
X334463Y348052D01*
Y347052D01*
X326725Y367064D02*
X327725D01*
X328725Y368064D01*
X329725Y367064D01*
X330725D01*
Y368064D01*
X329725Y369064D01*
X330725Y370064D01*
Y371064D01*
X329725D01*
X328725Y370064D01*
X327725Y371064D01*
X326725D01*
Y370064D01*
X327725Y369064D01*
X326725Y368064D01*
Y367064D01*
X404550Y20980D02*
X405550D01*
X406550Y21980D01*
X407550Y20980D01*
X408550D01*
Y21980D01*
X407550Y22980D01*
X408550Y23980D01*
Y24980D01*
X407550D01*
X406550Y23980D01*
X405550Y24980D01*
X404550D01*
Y23980D01*
X405550Y22980D01*
X404550Y21980D01*
Y20980D01*
X366000Y28000D02*
X367000D01*
X368000Y29000D01*
X369000Y28000D01*
X370000D01*
Y29000D01*
X369000Y30000D01*
X370000Y31000D01*
Y32000D01*
X369000D01*
X368000Y31000D01*
X367000Y32000D01*
X366000D01*
Y31000D01*
X367000Y30000D01*
X366000Y29000D01*
Y28000D01*
X338000Y25000D02*
X339000D01*
X340000Y26000D01*
X341000Y25000D01*
X342000D01*
Y26000D01*
X341000Y27000D01*
X342000Y28000D01*
Y29000D01*
X341000D01*
X340000Y28000D01*
X339000Y29000D01*
X338000D01*
Y28000D01*
X339000Y27000D01*
X338000Y26000D01*
Y25000D01*
X396859Y20306D02*
X397859D01*
X398859Y21306D01*
X399859Y20306D01*
X400859D01*
Y21306D01*
X399859Y22306D01*
X400859Y23306D01*
Y24306D01*
X399859D01*
X398859Y23306D01*
X397859Y24306D01*
X396859D01*
Y23306D01*
X397859Y22306D01*
X396859Y21306D01*
Y20306D01*
X367000Y32000D02*
X368000D01*
X369000Y33000D01*
X370000Y32000D01*
X371000D01*
Y33000D01*
X370000Y34000D01*
X371000Y35000D01*
Y36000D01*
X370000D01*
X369000Y35000D01*
X368000Y36000D01*
X367000D01*
Y35000D01*
X368000Y34000D01*
X367000Y33000D01*
Y32000D01*
X70180Y156152D02*
X71180D01*
X72180Y157152D01*
X73180Y156152D01*
X74180D01*
Y157152D01*
X73180Y158152D01*
X74180Y159152D01*
Y160152D01*
X73180D01*
X72180Y159152D01*
X71180Y160152D01*
X70180D01*
Y159152D01*
X71180Y158152D01*
X70180Y157152D01*
Y156152D01*
X369087Y277812D02*
X370087D01*
X371087Y278812D01*
X372087Y277812D01*
X373087D01*
Y278812D01*
X372087Y279812D01*
X373087Y280812D01*
Y281812D01*
X372087D01*
X371087Y280812D01*
X370087Y281812D01*
X369087D01*
Y280812D01*
X370087Y279812D01*
X369087Y278812D01*
Y277812D01*
X470682Y307451D02*
X471682D01*
X472682Y308451D01*
X473682Y307451D01*
X474682D01*
Y308451D01*
X473682Y309451D01*
X474682Y310451D01*
Y311451D01*
X473682D01*
X472682Y310451D01*
X471682Y311451D01*
X470682D01*
Y310451D01*
X471682Y309451D01*
X470682Y308451D01*
Y307451D01*
X235506Y256249D02*
X236506D01*
X237506Y257249D01*
X238506Y256249D01*
X239506D01*
Y257249D01*
X238506Y258249D01*
X239506Y259249D01*
Y260249D01*
X238506D01*
X237506Y259249D01*
X236506Y260249D01*
X235506D01*
Y259249D01*
X236506Y258249D01*
X235506Y257249D01*
Y256249D01*
X235561Y259213D02*
X236561D01*
X237561Y260213D01*
X238561Y259213D01*
X239561D01*
Y260213D01*
X238561Y261213D01*
X239561Y262213D01*
Y263213D01*
X238561D01*
X237561Y262213D01*
X236561Y263213D01*
X235561D01*
Y262213D01*
X236561Y261213D01*
X235561Y260213D01*
Y259213D01*
X239030Y256290D02*
X240030D01*
X241030Y257290D01*
X242030Y256290D01*
X243030D01*
Y257290D01*
X242030Y258290D01*
X243030Y259290D01*
Y260290D01*
X242030D01*
X241030Y259290D01*
X240030Y260290D01*
X239030D01*
Y259290D01*
X240030Y258290D01*
X239030Y257290D01*
Y256290D01*
X239090Y262576D02*
X240090D01*
X241090Y263576D01*
X242090Y262576D01*
X243090D01*
Y263576D01*
X242090Y264576D01*
X243090Y265576D01*
Y266576D01*
X242090D01*
X241090Y265576D01*
X240090Y266576D01*
X239090D01*
Y265576D01*
X240090Y264576D01*
X239090Y263576D01*
Y262576D01*
Y265378D02*
X240090D01*
X241090Y266378D01*
X242090Y265378D01*
X243090D01*
Y266378D01*
X242090Y267378D01*
X243090Y268378D01*
Y269378D01*
X242090D01*
X241090Y268378D01*
X240090Y269378D01*
X239090D01*
Y268378D01*
X240090Y267378D01*
X239090Y266378D01*
Y265378D01*
X328615Y404972D02*
X329615D01*
X330615Y405972D01*
X331615Y404972D01*
X332615D01*
Y405972D01*
X331615Y406972D01*
X332615Y407972D01*
Y408972D01*
X331615D01*
X330615Y407972D01*
X329615Y408972D01*
X328615D01*
Y407972D01*
X329615Y406972D01*
X328615Y405972D01*
Y404972D01*
X337130Y397829D02*
X338130D01*
X339130Y398829D01*
X340130Y397829D01*
X341130D01*
Y398829D01*
X340130Y399829D01*
X341130Y400829D01*
Y401829D01*
X340130D01*
X339130Y400829D01*
X338130Y401829D01*
X337130D01*
Y400829D01*
X338130Y399829D01*
X337130Y398829D01*
Y397829D01*
X336000Y380970D02*
X337000D01*
X338000Y381970D01*
X339000Y380970D01*
X340000D01*
Y381970D01*
X339000Y382970D01*
X340000Y383970D01*
Y384970D01*
X339000D01*
X338000Y383970D01*
X337000Y384970D01*
X336000D01*
Y383970D01*
X337000Y382970D01*
X336000Y381970D01*
Y380970D01*
X334454Y382935D02*
X335454D01*
X336454Y383935D01*
X337454Y382935D01*
X338454D01*
Y383935D01*
X337454Y384935D01*
X338454Y385935D01*
Y386935D01*
X337454D01*
X336454Y385935D01*
X335454Y386935D01*
X334454D01*
Y385935D01*
X335454Y384935D01*
X334454Y383935D01*
Y382935D01*
X336038Y378427D02*
X337038D01*
X338038Y379427D01*
X339038Y378427D01*
X340038D01*
Y379427D01*
X339038Y380427D01*
X340038Y381427D01*
Y382427D01*
X339038D01*
X338038Y381427D01*
X337038Y382427D01*
X336038D01*
Y381427D01*
X337038Y380427D01*
X336038Y379427D01*
Y378427D01*
X333000Y377000D02*
X334000D01*
X335000Y378000D01*
X336000Y377000D01*
X337000D01*
Y378000D01*
X336000Y379000D01*
X337000Y380000D01*
Y381000D01*
X336000D01*
X335000Y380000D01*
X334000Y381000D01*
X333000D01*
Y380000D01*
X334000Y379000D01*
X333000Y378000D01*
Y377000D01*
X219000Y348000D02*
X220000D01*
X221000Y349000D01*
X222000Y348000D01*
X223000D01*
Y349000D01*
X222000Y350000D01*
X223000Y351000D01*
Y352000D01*
X222000D01*
X221000Y351000D01*
X220000Y352000D01*
X219000D01*
Y351000D01*
X220000Y350000D01*
X219000Y349000D01*
Y348000D01*
X186957Y322175D02*
X187957D01*
X188957Y323175D01*
X189957Y322175D01*
X190957D01*
Y323175D01*
X189957Y324175D01*
X190957Y325175D01*
Y326175D01*
X189957D01*
X188957Y325175D01*
X187957Y326175D01*
X186957D01*
Y325175D01*
X187957Y324175D01*
X186957Y323175D01*
Y322175D01*
X331631Y285905D02*
X332631D01*
X333631Y286905D01*
X334631Y285905D01*
X335631D01*
Y286905D01*
X334631Y287905D01*
X335631Y288905D01*
Y289905D01*
X334631D01*
X333631Y288905D01*
X332631Y289905D01*
X331631D01*
Y288905D01*
X332631Y287905D01*
X331631Y286905D01*
Y285905D01*
X413667Y414117D02*
X414667D01*
X415667Y415117D01*
X416667Y414117D01*
X417667D01*
Y415117D01*
X416667Y416117D01*
X417667Y417117D01*
Y418117D01*
X416667D01*
X415667Y417117D01*
X414667Y418117D01*
X413667D01*
Y417117D01*
X414667Y416117D01*
X413667Y415117D01*
Y414117D01*
X417667D02*
X418667D01*
X419667Y415117D01*
X420667Y414117D01*
X421667D01*
Y415117D01*
X420667Y416117D01*
X421667Y417117D01*
Y418117D01*
X420667D01*
X419667Y417117D01*
X418667Y418117D01*
X417667D01*
Y417117D01*
X418667Y416117D01*
X417667Y415117D01*
Y414117D01*
X129282Y395194D02*
X130282D01*
X131282Y396194D01*
X132282Y395194D01*
X133282D01*
Y396194D01*
X132282Y397194D01*
X133282Y398194D01*
Y399194D01*
X132282D01*
X131282Y398194D01*
X130282Y399194D01*
X129282D01*
Y398194D01*
X130282Y397194D01*
X129282Y396194D01*
Y395194D01*
X129213Y399117D02*
X130213D01*
X131213Y400117D01*
X132213Y399117D01*
X133213D01*
Y400117D01*
X132213Y401117D01*
X133213Y402117D01*
Y403117D01*
X132213D01*
X131213Y402117D01*
X130213Y403117D01*
X129213D01*
Y402117D01*
X130213Y401117D01*
X129213Y400117D01*
Y399117D01*
Y403117D02*
X130213D01*
X131213Y404117D01*
X132213Y403117D01*
X133213D01*
Y404117D01*
X132213Y405117D01*
X133213Y406117D01*
Y407117D01*
X132213D01*
X131213Y406117D01*
X130213Y407117D01*
X129213D01*
Y406117D01*
X130213Y405117D01*
X129213Y404117D01*
Y403117D01*
X132911Y395194D02*
X133911D01*
X134911Y396194D01*
X135911Y395194D01*
X136911D01*
Y396194D01*
X135911Y397194D01*
X136911Y398194D01*
Y399194D01*
X135911D01*
X134911Y398194D01*
X133911Y399194D01*
X132911D01*
Y398194D01*
X133911Y397194D01*
X132911Y396194D01*
Y395194D01*
X132841Y399117D02*
X133841D01*
X134841Y400117D01*
X135841Y399117D01*
X136841D01*
Y400117D01*
X135841Y401117D01*
X136841Y402117D01*
Y403117D01*
X135841D01*
X134841Y402117D01*
X133841Y403117D01*
X132841D01*
Y402117D01*
X133841Y401117D01*
X132841Y400117D01*
Y399117D01*
Y403117D02*
X133841D01*
X134841Y404117D01*
X135841Y403117D01*
X136841D01*
Y404117D01*
X135841Y405117D01*
X136841Y406117D01*
Y407117D01*
X135841D01*
X134841Y406117D01*
X133841Y407117D01*
X132841D01*
Y406117D01*
X133841Y405117D01*
X132841Y404117D01*
Y403117D01*
X66133Y382074D02*
X67133D01*
X68133Y383074D01*
X69133Y382074D01*
X70133D01*
Y383074D01*
X69133Y384074D01*
X70133Y385074D01*
Y386074D01*
X69133D01*
X68133Y385074D01*
X67133Y386074D01*
X66133D01*
Y385074D01*
X67133Y384074D01*
X66133Y383074D01*
Y382074D01*
X66063Y385997D02*
X67063D01*
X68063Y386997D01*
X69064Y385997D01*
X70064D01*
Y386997D01*
X69064Y387997D01*
X70064Y388997D01*
Y389997D01*
X69064D01*
X68063Y388997D01*
X67063Y389997D01*
X66063D01*
Y388997D01*
X67063Y387997D01*
X66063Y386997D01*
Y385997D01*
Y389997D02*
X67063D01*
X68063Y390997D01*
X69064Y389997D01*
X70064D01*
Y390997D01*
X69064Y391997D01*
X70064Y392997D01*
Y393997D01*
X69064D01*
X68063Y392997D01*
X67063Y393997D01*
X66063D01*
Y392997D01*
X67063Y391997D01*
X66063Y390997D01*
Y389997D01*
X69762Y382074D02*
X70762D01*
X71762Y383074D01*
X72762Y382074D01*
X73762D01*
Y383074D01*
X72762Y384074D01*
X73762Y385074D01*
Y386074D01*
X72762D01*
X71762Y385074D01*
X70762Y386074D01*
X69762D01*
Y385074D01*
X70762Y384074D01*
X69762Y383074D01*
Y382074D01*
X69692Y385997D02*
X70692D01*
X71692Y386997D01*
X72692Y385997D01*
X73692D01*
Y386997D01*
X72692Y387997D01*
X73692Y388997D01*
Y389997D01*
X72692D01*
X71692Y388997D01*
X70692Y389997D01*
X69692D01*
Y388997D01*
X70692Y387997D01*
X69692Y386997D01*
Y385997D01*
Y389997D02*
X70692D01*
X71692Y390997D01*
X72692Y389997D01*
X73692D01*
Y390997D01*
X72692Y391997D01*
X73692Y392997D01*
Y393997D01*
X72692D01*
X71692Y392997D01*
X70692Y393997D01*
X69692D01*
Y392997D01*
X70692Y391997D01*
X69692Y390997D01*
Y389997D01*
X66133Y395119D02*
X67133D01*
X68133Y396119D01*
X69133Y395119D01*
X70133D01*
Y396119D01*
X69133Y397119D01*
X70133Y398119D01*
Y399119D01*
X69133D01*
X68133Y398119D01*
X67133Y399119D01*
X66133D01*
Y398119D01*
X67133Y397119D01*
X66133Y396119D01*
Y395119D01*
X66063Y399042D02*
X67063D01*
X68063Y400042D01*
X69064Y399042D01*
X70064D01*
Y400042D01*
X69064Y401042D01*
X70064Y402042D01*
Y403042D01*
X69064D01*
X68063Y402042D01*
X67063Y403042D01*
X66063D01*
Y402042D01*
X67063Y401042D01*
X66063Y400042D01*
Y399042D01*
Y403042D02*
X67063D01*
X68063Y404042D01*
X69064Y403042D01*
X70064D01*
Y404042D01*
X69064Y405042D01*
X70064Y406042D01*
Y407042D01*
X69064D01*
X68063Y406042D01*
X67063Y407042D01*
X66063D01*
Y406042D01*
X67063Y405042D01*
X66063Y404042D01*
Y403042D01*
X69762Y395119D02*
X70762D01*
X71762Y396119D01*
X72761Y395119D01*
X73761D01*
Y396119D01*
X72761Y397119D01*
X73761Y398119D01*
Y399119D01*
X72761D01*
X71762Y398119D01*
X70762Y399119D01*
X69762D01*
Y398119D01*
X70762Y397119D01*
X69762Y396119D01*
Y395119D01*
X69692Y399042D02*
X70692D01*
X71692Y400042D01*
X72692Y399042D01*
X73692D01*
Y400042D01*
X72692Y401042D01*
X73692Y402042D01*
Y403042D01*
X72692D01*
X71692Y402042D01*
X70692Y403042D01*
X69692D01*
Y402042D01*
X70692Y401042D01*
X69692Y400042D01*
Y399042D01*
Y403042D02*
X70692D01*
X71692Y404042D01*
X72692Y403042D01*
X73692D01*
Y404042D01*
X72692Y405042D01*
X73692Y406042D01*
Y407042D01*
X72692D01*
X71692Y406042D01*
X70692Y407042D01*
X69692D01*
Y406042D01*
X70692Y405042D01*
X69692Y404042D01*
Y403042D01*
X72700Y375077D02*
X73700D01*
X74700Y376077D01*
X75700Y375077D01*
X76700D01*
Y376077D01*
X75700Y377077D01*
X76700Y378077D01*
Y379077D01*
X75700D01*
X74700Y378077D01*
X73700Y379077D01*
X72700D01*
Y378077D01*
X73700Y377077D01*
X72700Y376077D01*
Y375077D01*
X68716Y374939D02*
X69716D01*
X70716Y375939D01*
X71716Y374939D01*
X72716D01*
Y375939D01*
X71716Y376939D01*
X72716Y377939D01*
Y378939D01*
X71716D01*
X70716Y377939D01*
X69716Y378939D01*
X68716D01*
Y377939D01*
X69716Y376939D01*
X68716Y375939D01*
Y374939D01*
X45648Y354499D02*
X46648D01*
X47648Y355499D01*
X48648Y354499D01*
X49648D01*
Y355499D01*
X48648Y356499D01*
X49648Y357499D01*
Y358499D01*
X48648D01*
X47648Y357499D01*
X46648Y358499D01*
X45648D01*
Y357499D01*
X46648Y356499D01*
X45648Y355499D01*
Y354499D01*
X41591Y354430D02*
X42591D01*
X43591Y355430D01*
X44591Y354430D01*
X45591D01*
Y355430D01*
X44591Y356430D01*
X45591Y357430D01*
Y358430D01*
X44591D01*
X43591Y357430D01*
X42591Y358430D01*
X41591D01*
Y357430D01*
X42591Y356430D01*
X41591Y355430D01*
Y354430D01*
X151563Y316466D02*
X152563D01*
X153563Y317466D01*
X154563Y316466D01*
X155563D01*
Y317466D01*
X154563Y318466D01*
X155563Y319466D01*
Y320466D01*
X154563D01*
X153563Y319466D01*
X152563Y320466D01*
X151563D01*
Y319466D01*
X152563Y318466D01*
X151563Y317466D01*
Y316466D01*
X151494Y320389D02*
X152494D01*
X153494Y321389D01*
X154494Y320389D01*
X155494D01*
Y321389D01*
X154494Y322389D01*
X155494Y323389D01*
Y324389D01*
X154494D01*
X153494Y323389D01*
X152494Y324389D01*
X151494D01*
Y323389D01*
X152494Y322389D01*
X151494Y321389D01*
Y320389D01*
X154707Y323849D02*
X155707D01*
X156707Y324849D01*
X157707Y323849D01*
X158707D01*
Y324849D01*
X157707Y325849D01*
X158707Y326849D01*
Y327849D01*
X157707D01*
X156707Y326849D01*
X155707Y327849D01*
X154707D01*
Y326849D01*
X155707Y325849D01*
X154707Y324849D01*
Y323849D01*
X154638Y327772D02*
X155638D01*
X156638Y328772D01*
X157638Y327772D01*
X158638D01*
Y328772D01*
X157638Y329772D01*
X158638Y330772D01*
Y331772D01*
X157638D01*
X156638Y330772D01*
X155638Y331772D01*
X154638D01*
Y330772D01*
X155638Y329772D01*
X154638Y328772D01*
Y327772D01*
Y331772D02*
X155638D01*
X156638Y332772D01*
X157638Y331772D01*
X158638D01*
Y332772D01*
X157638Y333772D01*
X158638Y334772D01*
Y335772D01*
X157638D01*
X156638Y334772D01*
X155638Y335772D01*
X154638D01*
Y334772D01*
X155638Y333772D01*
X154638Y332772D01*
Y331772D01*
Y335772D02*
X155638D01*
X156638Y336772D01*
X157638Y335772D01*
X158638D01*
Y336772D01*
X157638Y337772D01*
X158638Y338772D01*
Y339772D01*
X157638D01*
X156638Y338772D01*
X155638Y339772D01*
X154638D01*
Y338772D01*
X155638Y337772D01*
X154638Y336772D01*
Y335772D01*
X86631Y335812D02*
X87631D01*
X88631Y336812D01*
X89631Y335812D01*
X90631D01*
Y336812D01*
X89631Y337812D01*
X90631Y338812D01*
Y339812D01*
X89631D01*
X88631Y338812D01*
X87631Y339812D01*
X86631D01*
Y338812D01*
X87631Y337812D01*
X86631Y336812D01*
Y335812D01*
Y331812D02*
X87631D01*
X88631Y332812D01*
X89631Y331812D01*
X90631D01*
Y332812D01*
X89631Y333812D01*
X90631Y334812D01*
Y335812D01*
X89631D01*
X88631Y334812D01*
X87631Y335812D01*
X86631D01*
Y334812D01*
X87631Y333812D01*
X86631Y332812D01*
Y331812D01*
Y327812D02*
X87631D01*
X88631Y328812D01*
X89631Y327812D01*
X90631D01*
Y328812D01*
X89631Y329812D01*
X90631Y330812D01*
Y331812D01*
X89631D01*
X88631Y330812D01*
X87631Y331812D01*
X86631D01*
Y330812D01*
X87631Y329812D01*
X86631Y328812D01*
Y327812D01*
X343304Y314244D02*
X344304D01*
X345304Y315244D01*
X346304Y314244D01*
X347304D01*
Y315244D01*
X346304Y316244D01*
X347304Y317244D01*
Y318244D01*
X346304D01*
X345304Y317244D01*
X344304Y318244D01*
X343304D01*
Y317244D01*
X344304Y316244D01*
X343304Y315244D01*
Y314244D01*
X224156Y351477D02*
X225156D01*
X226156Y352477D01*
X227156Y351477D01*
X228156D01*
Y352477D01*
X227156Y353477D01*
X228156Y354477D01*
Y355477D01*
X227156D01*
X226156Y354477D01*
X225156Y355477D01*
X224156D01*
Y354477D01*
X225156Y353477D01*
X224156Y352477D01*
Y351477D01*
X184000Y346000D02*
X185000D01*
X186000Y347000D01*
X187000Y346000D01*
X188000D01*
Y347000D01*
X187000Y348000D01*
X188000Y349000D01*
Y350000D01*
X187000D01*
X186000Y349000D01*
X185000Y350000D01*
X184000D01*
Y349000D01*
X185000Y348000D01*
X184000Y347000D01*
Y346000D01*
X217653Y323712D02*
X218653D01*
X219654Y324712D01*
X220654Y323712D01*
X221654D01*
Y324712D01*
X220654Y325712D01*
X221654Y326712D01*
Y327712D01*
X220654D01*
X219654Y326712D01*
X218653Y327712D01*
X217653D01*
Y326712D01*
X218653Y325712D01*
X217653Y324712D01*
Y323712D01*
X203163Y341638D02*
X204163D01*
X205163Y342638D01*
X206163Y341638D01*
X207163D01*
Y342638D01*
X206163Y343638D01*
X207163Y344638D01*
Y345638D01*
X206163D01*
X205163Y344638D01*
X204163Y345638D01*
X203163D01*
Y344638D01*
X204163Y343638D01*
X203163Y342638D01*
Y341638D01*
X325189Y381532D02*
X326189D01*
X327189Y382532D01*
X328189Y381532D01*
X329189D01*
Y382532D01*
X328189Y383532D01*
X329189Y384532D01*
Y385532D01*
X328189D01*
X327189Y384532D01*
X326189Y385532D01*
X325189D01*
Y384532D01*
X326189Y383532D01*
X325189Y382532D01*
Y381532D01*
X325015Y393980D02*
X326015D01*
X327015Y394980D01*
X328015Y393980D01*
X329015D01*
Y394980D01*
X328015Y395979D01*
X329015Y396979D01*
Y397979D01*
X328015D01*
X327015Y396979D01*
X326015Y397979D01*
X325015D01*
Y396979D01*
X326015Y395979D01*
X325015Y394980D01*
Y393980D01*
X222594Y268581D02*
X223594D01*
X224594Y269581D01*
X225594Y268581D01*
X226594D01*
Y269581D01*
X225594Y270581D01*
X226594Y271581D01*
Y272581D01*
X225594D01*
X224594Y271581D01*
X223594Y272581D01*
X222594D01*
Y271581D01*
X223594Y270581D01*
X222594Y269581D01*
Y268581D01*
X243619Y265364D02*
X244619D01*
X245619Y266364D01*
X246619Y265364D01*
X247619D01*
Y266364D01*
X246619Y267364D01*
X247619Y268364D01*
Y269364D01*
X246619D01*
X245619Y268364D01*
X244619Y269364D01*
X243619D01*
Y268364D01*
X244619Y267364D01*
X243619Y266364D01*
Y265364D01*
X229760Y262065D02*
X230760D01*
X231760Y263065D01*
X232760Y262065D01*
X233760D01*
Y263065D01*
X232760Y264065D01*
X233760Y265065D01*
Y266065D01*
X232760D01*
X231760Y265065D01*
X230760Y266065D01*
X229760D01*
Y265065D01*
X230760Y264065D01*
X229760Y263065D01*
Y262065D01*
X260000Y257000D02*
X261000D01*
X262000Y258000D01*
X263000Y257000D01*
X264000D01*
Y258000D01*
X263000Y259000D01*
X264000Y260000D01*
Y261000D01*
X263000D01*
X262000Y260000D01*
X261000Y261000D01*
X260000D01*
Y260000D01*
X261000Y259000D01*
X260000Y258000D01*
Y257000D01*
X387000Y28000D02*
X388000D01*
X389000Y29000D01*
X390000Y28000D01*
X391000D01*
Y29000D01*
X390000Y30000D01*
X391000Y31000D01*
Y32000D01*
X390000D01*
X389000Y31000D01*
X388000Y32000D01*
X387000D01*
Y31000D01*
X388000Y30000D01*
X387000Y29000D01*
Y28000D01*
X386000Y51000D02*
X387000D01*
X388000Y52000D01*
X389000Y51000D01*
X390000D01*
Y52000D01*
X389000Y53000D01*
X390000Y54000D01*
Y55000D01*
X389000D01*
X388000Y54000D01*
X387000Y55000D01*
X386000D01*
Y54000D01*
X387000Y53000D01*
X386000Y52000D01*
Y51000D01*
X365991Y51453D02*
X366991D01*
X367991Y52453D01*
X368991Y51453D01*
X369991D01*
Y52453D01*
X368991Y53453D01*
X369991Y54453D01*
Y55453D01*
X368991D01*
X367991Y54453D01*
X366991Y55453D01*
X365991D01*
Y54453D01*
X366991Y53453D01*
X365991Y52453D01*
Y51453D01*
X252935Y159567D02*
X253935D01*
X254935Y160567D01*
X255935Y159567D01*
X256935D01*
Y160567D01*
X255935Y161567D01*
X256935Y162567D01*
Y163567D01*
X255935D01*
X254935Y162567D01*
X253935Y163567D01*
X252935D01*
Y162567D01*
X253935Y161567D01*
X252935Y160567D01*
Y159567D01*
X253000Y115000D02*
X254000D01*
X255000Y116000D01*
X256000Y115000D01*
X257000D01*
Y116000D01*
X256000Y117000D01*
X257000Y118000D01*
Y119000D01*
X256000D01*
X255000Y118000D01*
X254000Y119000D01*
X253000D01*
Y118000D01*
X254000Y117000D01*
X253000Y116000D01*
Y115000D01*
X364944Y47539D02*
X365944D01*
X366944Y48539D01*
X367944Y47539D01*
X368944D01*
Y48539D01*
X367944Y49539D01*
X368944Y50539D01*
Y51539D01*
X367944D01*
X366944Y50539D01*
X365944Y51539D01*
X364944D01*
Y50539D01*
X365944Y49539D01*
X364944Y48539D01*
Y47539D01*
X153000Y180000D02*
X154000D01*
X155000Y181000D01*
X156000Y180000D01*
X157000D01*
Y181000D01*
X156000Y182000D01*
X157000Y183000D01*
Y184000D01*
X156000D01*
X155000Y183000D01*
X154000Y184000D01*
X153000D01*
Y183000D01*
X154000Y182000D01*
X153000Y181000D01*
Y180000D01*
X152893Y212885D02*
X153893D01*
X154893Y213885D01*
X155893Y212885D01*
X156893D01*
Y213885D01*
X155893Y214885D01*
X156893Y215885D01*
Y216885D01*
X155893D01*
X154893Y215885D01*
X153893Y216885D01*
X152893D01*
Y215885D01*
X153893Y214885D01*
X152893Y213885D01*
Y212885D01*
X174155Y147082D02*
X175155D01*
X176155Y148082D01*
X177155Y147082D01*
X178155D01*
Y148082D01*
X177155Y149082D01*
X178155Y150082D01*
Y151082D01*
X177155D01*
X176155Y150082D01*
X175155Y151082D01*
X174155D01*
Y150082D01*
X175155Y149082D01*
X174155Y148082D01*
Y147082D01*
X203000Y218000D02*
X204000D01*
X205000Y219000D01*
X206000Y218000D01*
X207000D01*
Y219000D01*
X206000Y220000D01*
X207000Y221000D01*
Y222000D01*
X206000D01*
X205000Y221000D01*
X204000Y222000D01*
X203000D01*
Y221000D01*
X204000Y220000D01*
X203000Y219000D01*
Y218000D01*
X235635Y383720D02*
X236635D01*
X237635Y384720D01*
X238635Y383720D01*
X239635D01*
Y384720D01*
X238635Y385720D01*
X239635Y386720D01*
Y387720D01*
X238635D01*
X237635Y386720D01*
X236635Y387720D01*
X235635D01*
Y386720D01*
X236635Y385720D01*
X235635Y384720D01*
Y383720D01*
X235529Y387020D02*
X236529D01*
X237529Y388020D01*
X238529Y387020D01*
X239529D01*
Y388020D01*
X238529Y389020D01*
X239529Y390020D01*
Y391020D01*
X238529D01*
X237529Y390020D01*
X236529Y391020D01*
X235529D01*
Y390020D01*
X236529Y389020D01*
X235529Y388020D01*
Y387020D01*
X235455Y332204D02*
X236455D01*
X237455Y333204D01*
X238455Y332204D01*
X239455D01*
Y333204D01*
X238455Y334204D01*
X239455Y335204D01*
Y336204D01*
X238455D01*
X237455Y335204D01*
X236455Y336204D01*
X235455D01*
Y335204D01*
X236455Y334204D01*
X235455Y333204D01*
Y332204D01*
X235429Y335633D02*
X236429D01*
X237429Y336633D01*
X238429Y335633D01*
X239429D01*
Y336633D01*
X238429Y337633D01*
X239429Y338633D01*
Y339633D01*
X238429D01*
X237429Y338633D01*
X236429Y339633D01*
X235429D01*
Y338633D01*
X236429Y337633D01*
X235429Y336633D01*
Y335633D01*
X235323Y338933D02*
X236323D01*
X237323Y339933D01*
X238323Y338933D01*
X239323D01*
Y339933D01*
X238323Y340933D01*
X239323Y341933D01*
Y342933D01*
X238323D01*
X237323Y341933D01*
X236323Y342933D01*
X235323D01*
Y341933D01*
X236323Y340933D01*
X235323Y339933D01*
Y338933D01*
X185359Y329019D02*
X186359D01*
X187359Y330019D01*
X188359Y329019D01*
X189359D01*
Y330019D01*
X188359Y331019D01*
X189359Y332019D01*
Y333019D01*
X188359D01*
X187359Y332019D01*
X186359Y333019D01*
X185359D01*
Y332019D01*
X186359Y331019D01*
X185359Y330019D01*
Y329019D01*
X174313Y318605D02*
X175313D01*
X176313Y319605D01*
X177313Y318605D01*
X178314D01*
Y319605D01*
X177313Y320605D01*
X178314Y321605D01*
Y322605D01*
X177313D01*
X176313Y321605D01*
X175313Y322605D01*
X174313D01*
Y321605D01*
X175313Y320605D01*
X174313Y319605D01*
Y318605D01*
X174613Y339373D02*
X175613D01*
X176613Y340373D01*
X177613Y339373D01*
X178613D01*
Y340373D01*
X177613Y341373D01*
X178613Y342373D01*
Y343373D01*
X177613D01*
X176613Y342373D01*
X175613Y343373D01*
X174613D01*
Y342373D01*
X175613Y341373D01*
X174613Y340373D01*
Y339373D01*
X190618Y309314D02*
X191618D01*
X192618Y310314D01*
X193618Y309314D01*
X194618D01*
Y310314D01*
X193618Y311314D01*
X194618Y312314D01*
Y313314D01*
X193618D01*
X192618Y312314D01*
X191618Y313314D01*
X190618D01*
Y312314D01*
X191618Y311314D01*
X190618Y310314D01*
Y309314D01*
X183631Y360750D02*
X184631D01*
X185631Y361750D01*
X186631Y360750D01*
X187631D01*
Y361750D01*
X186631Y362750D01*
X187631Y363750D01*
Y364750D01*
X186631D01*
X185631Y363750D01*
X184631Y364750D01*
X183631D01*
Y363750D01*
X184631Y362750D01*
X183631Y361750D01*
Y360750D01*
X173491Y360352D02*
X174491D01*
X175491Y361352D01*
X176491Y360352D01*
X177491D01*
Y361352D01*
X176491Y362352D01*
X177491Y363352D01*
Y364352D01*
X176491D01*
X175491Y363352D01*
X174491Y364352D01*
X173491D01*
Y363352D01*
X174491Y362352D01*
X173491Y361352D01*
Y360352D01*
X163113Y360443D02*
X164113D01*
X165113Y361443D01*
X166113Y360443D01*
X167113D01*
Y361443D01*
X166113Y362443D01*
X167113Y363443D01*
Y364443D01*
X166113D01*
X165113Y363443D01*
X164113Y364443D01*
X163113D01*
Y363443D01*
X164113Y362443D01*
X163113Y361443D01*
Y360443D01*
X407504Y85356D02*
X408504D01*
X409504Y86356D01*
X410504Y85356D01*
X411504D01*
Y86356D01*
X410504Y87356D01*
X411504Y88356D01*
Y89356D01*
X410504D01*
X409504Y88356D01*
X408504Y89356D01*
X407504D01*
Y88356D01*
X408504Y87356D01*
X407504Y86356D01*
Y85356D01*
X388873Y85236D02*
X389873D01*
X390873Y86236D01*
X391873Y85236D01*
X392873D01*
Y86236D01*
X391873Y87236D01*
X392873Y88236D01*
Y89236D01*
X391873D01*
X390873Y88236D01*
X389873Y89236D01*
X388873D01*
Y88236D01*
X389873Y87236D01*
X388873Y86236D01*
Y85236D01*
X418915Y23812D02*
X419915D01*
X420915Y24813D01*
X421915Y23812D01*
X422915D01*
Y24813D01*
X421915Y25813D01*
X422915Y26812D01*
Y27812D01*
X421915D01*
X420915Y26812D01*
X419915Y27812D01*
X418915D01*
Y26812D01*
X419915Y25813D01*
X418915Y24813D01*
Y23812D01*
X426165Y57418D02*
X427165D01*
X428165Y58418D01*
X429165Y57418D01*
X430165D01*
Y58418D01*
X429165Y59418D01*
X430165Y60418D01*
Y61418D01*
X429165D01*
X428165Y60418D01*
X427165Y61418D01*
X426165D01*
Y60418D01*
X427165Y59418D01*
X426165Y58418D01*
Y57418D01*
X422652Y61147D02*
X423653D01*
X424652Y62147D01*
X425653Y61147D01*
X426652D01*
Y62147D01*
X425653Y63147D01*
X426652Y64147D01*
Y65147D01*
X425653D01*
X424652Y64147D01*
X423653Y65147D01*
X422652D01*
Y64147D01*
X423653Y63147D01*
X422652Y62147D01*
Y61147D01*
X406496Y47544D02*
X407496D01*
X408496Y48544D01*
X409496Y47544D01*
X410496D01*
Y48544D01*
X409496Y49544D01*
X410496Y50544D01*
Y51544D01*
X409496D01*
X408496Y50544D01*
X407496Y51544D01*
X406496D01*
Y50544D01*
X407496Y49544D01*
X406496Y48544D01*
Y47544D01*
X416693Y49526D02*
X417693D01*
X418693Y50526D01*
X419693Y49526D01*
X420693D01*
Y50526D01*
X419693Y51526D01*
X420693Y52526D01*
Y53526D01*
X419693D01*
X418693Y52526D01*
X417693Y53526D01*
X416693D01*
Y52526D01*
X417693Y51526D01*
X416693Y50526D01*
Y49526D01*
X392382Y30803D02*
X393382D01*
X394382Y31803D01*
X395382Y30803D01*
X396382D01*
Y31803D01*
X395382Y32803D01*
X396382Y33803D01*
Y34803D01*
X395382D01*
X394382Y33803D01*
X393382Y34803D01*
X392382D01*
Y33803D01*
X393382Y32803D01*
X392382Y31803D01*
Y30803D01*
X370873Y40236D02*
X371873D01*
X372873Y41236D01*
X373873Y40236D01*
X374873D01*
Y41236D01*
X373873Y42236D01*
X374873Y43236D01*
Y44236D01*
X373873D01*
X372873Y43236D01*
X371873Y44236D01*
X370873D01*
Y43236D01*
X371873Y42236D01*
X370873Y41236D01*
Y40236D01*
X308000Y17000D02*
X309000D01*
X310000Y18000D01*
X311000Y17000D01*
X312000D01*
Y18000D01*
X311000Y19000D01*
X312000Y20000D01*
Y21000D01*
X311000D01*
X310000Y20000D01*
X309000Y21000D01*
X308000D01*
Y20000D01*
X309000Y19000D01*
X308000Y18000D01*
Y17000D01*
X290000D02*
X291000D01*
X292000Y18000D01*
X293000Y17000D01*
X294000D01*
Y18000D01*
X293000Y19000D01*
X294000Y20000D01*
Y21000D01*
X293000D01*
X292000Y20000D01*
X291000Y21000D01*
X290000D01*
Y20000D01*
X291000Y19000D01*
X290000Y18000D01*
Y17000D01*
X195950Y131447D02*
X196950D01*
X197950Y132447D01*
X198950Y131447D01*
X199950D01*
Y132447D01*
X198950Y133447D01*
X199950Y134447D01*
Y135447D01*
X198950D01*
X197950Y134447D01*
X196950Y135447D01*
X195950D01*
Y134447D01*
X196950Y133447D01*
X195950Y132447D01*
Y131447D01*
X104411Y138996D02*
X105412D01*
X106412Y139996D01*
X107412Y138996D01*
X108412D01*
Y139996D01*
X107412Y140996D01*
X108412Y141996D01*
Y142996D01*
X107412D01*
X106412Y141996D01*
X105412Y142996D01*
X104411D01*
Y141996D01*
X105412Y140996D01*
X104411Y139996D01*
Y138996D01*
X102895Y103327D02*
X103895D01*
X104895Y104327D01*
X105895Y103327D01*
X106895D01*
Y104327D01*
X105895Y105327D01*
X106895Y106327D01*
Y107327D01*
X105895D01*
X104895Y106327D01*
X103895Y107327D01*
X102895D01*
Y106327D01*
X103895Y105327D01*
X102895Y104327D01*
Y103327D01*
X64792Y102748D02*
X65792D01*
X66792Y103748D01*
X67792Y102748D01*
X68792D01*
Y103748D01*
X67792Y104748D01*
X68792Y105748D01*
Y106748D01*
X67792D01*
X66792Y105748D01*
X65792Y106748D01*
X64792D01*
Y105748D01*
X65792Y104748D01*
X64792Y103748D01*
Y102748D01*
X72327Y134719D02*
X73327D01*
X74327Y135719D01*
X75327Y134719D01*
X76327D01*
Y135719D01*
X75327Y136719D01*
X76327Y137719D01*
Y138719D01*
X75327D01*
X74327Y137719D01*
X73327Y138719D01*
X72327D01*
Y137719D01*
X73327Y136719D01*
X72327Y135719D01*
Y134719D01*
X85294Y134380D02*
X86294D01*
X87294Y135380D01*
X88294Y134380D01*
X89294D01*
Y135380D01*
X88294Y136380D01*
X89294Y137380D01*
Y138380D01*
X88294D01*
X87294Y137380D01*
X86294Y138380D01*
X85294D01*
Y137380D01*
X86294Y136380D01*
X85294Y135380D01*
Y134380D01*
X38432Y127512D02*
X39432D01*
X40432Y128512D01*
X41432Y127512D01*
X42432D01*
Y128512D01*
X41432Y129512D01*
X42432Y130512D01*
Y131512D01*
X41432D01*
X40432Y130512D01*
X39432Y131512D01*
X38432D01*
Y130512D01*
X39432Y129512D01*
X38432Y128512D01*
Y127512D01*
X46360Y127591D02*
X47360D01*
X48360Y128591D01*
X49360Y127591D01*
X50360D01*
Y128591D01*
X49360Y129591D01*
X50360Y130591D01*
Y131591D01*
X49360D01*
X48360Y130591D01*
X47360Y131591D01*
X46360D01*
Y130591D01*
X47360Y129591D01*
X46360Y128591D01*
Y127591D01*
X57307Y126379D02*
X58307D01*
X59307Y127379D01*
X60308Y126379D01*
X61308D01*
Y127379D01*
X60308Y128379D01*
X61308Y129379D01*
Y130379D01*
X60308D01*
X59307Y129379D01*
X58307Y130379D01*
X57307D01*
Y129379D01*
X58307Y128379D01*
X57307Y127379D01*
Y126379D01*
X47393Y134287D02*
X48393D01*
X49393Y135287D01*
X50393Y134287D01*
X51393D01*
Y135287D01*
X50393Y136287D01*
X51393Y137287D01*
Y138287D01*
X50393D01*
X49393Y137287D01*
X48393Y138287D01*
X47393D01*
Y137287D01*
X48393Y136287D01*
X47393Y135287D01*
Y134287D01*
X46514Y152806D02*
X47514D01*
X48514Y153806D01*
X49514Y152806D01*
X50514D01*
Y153806D01*
X49514Y154806D01*
X50514Y155806D01*
Y156806D01*
X49514D01*
X48514Y155806D01*
X47514Y156806D01*
X46514D01*
Y155806D01*
X47514Y154806D01*
X46514Y153806D01*
Y152806D01*
X58073Y150363D02*
X59073D01*
X60073Y151363D01*
X61073Y150363D01*
X62073D01*
Y151363D01*
X61073Y152363D01*
X62073Y153363D01*
Y154363D01*
X61073D01*
X60073Y153363D01*
X59073Y154363D01*
X58073D01*
Y153363D01*
X59073Y152363D01*
X58073Y151363D01*
Y150363D01*
X47042Y166683D02*
X48042D01*
X49042Y167683D01*
X50042Y166683D01*
X51042D01*
Y167683D01*
X50042Y168683D01*
X51042Y169683D01*
Y170683D01*
X50042D01*
X49042Y169683D01*
X48042Y170683D01*
X47042D01*
Y169683D01*
X48042Y168683D01*
X47042Y167683D01*
Y166683D01*
X104302Y162766D02*
X105302D01*
X106302Y163766D01*
X107302Y162766D01*
X108302D01*
Y163766D01*
X107302Y164766D01*
X108302Y165766D01*
Y166766D01*
X107302D01*
X106302Y165766D01*
X105302Y166766D01*
X104302D01*
Y165766D01*
X105302Y164766D01*
X104302Y163766D01*
Y162766D01*
X101486Y179239D02*
X102486D01*
X103486Y180239D01*
X104486Y179239D01*
X105486D01*
Y180239D01*
X104486Y181239D01*
X105486Y182239D01*
Y183239D01*
X104486D01*
X103486Y182239D01*
X102486Y183239D01*
X101486D01*
Y182239D01*
X102486Y181239D01*
X101486Y180239D01*
Y179239D01*
X66437Y179612D02*
X67437D01*
X68437Y180612D01*
X69437Y179612D01*
X70437D01*
Y180612D01*
X69437Y181612D01*
X70437Y182612D01*
Y183612D01*
X69437D01*
X68437Y182612D01*
X67437Y183612D01*
X66437D01*
Y182612D01*
X67437Y181612D01*
X66437Y180612D01*
Y179612D01*
X101495Y211610D02*
X102495D01*
X103495Y212610D01*
X104495Y211610D01*
X105495D01*
Y212610D01*
X104495Y213610D01*
X105495Y214610D01*
Y215610D01*
X104495D01*
X103495Y214610D01*
X102495Y215610D01*
X101495D01*
Y214610D01*
X102495Y213610D01*
X101495Y212610D01*
Y211610D01*
X137062Y215912D02*
X138062D01*
X139062Y216912D01*
X140062Y215912D01*
X141062D01*
Y216912D01*
X140062Y217912D01*
X141062Y218912D01*
Y219912D01*
X140062D01*
X139062Y218912D01*
X138062Y219912D01*
X137062D01*
Y218912D01*
X138062Y217912D01*
X137062Y216912D01*
Y215912D01*
X119658Y215790D02*
X120658D01*
X121658Y216790D01*
X122658Y215790D01*
X123658D01*
Y216790D01*
X122658Y217790D01*
X123658Y218790D01*
Y219790D01*
X122658D01*
X121658Y218790D01*
X120658Y219790D01*
X119658D01*
Y218790D01*
X120658Y217790D01*
X119658Y216790D01*
Y215790D01*
X102753Y374196D02*
X103753D01*
X104753Y375196D01*
X105753Y374196D01*
X106753D01*
Y375196D01*
X105753Y376196D01*
X106753Y377196D01*
Y378196D01*
X105753D01*
X104753Y377196D01*
X103753Y378196D01*
X102753D01*
Y377196D01*
X103753Y376196D01*
X102753Y375196D01*
Y374196D01*
X148976Y299378D02*
X149976D01*
X150976Y300378D01*
X151976Y299378D01*
X152976D01*
Y300378D01*
X151976Y301378D01*
X152976Y302378D01*
Y303378D01*
X151976D01*
X150976Y302378D01*
X149976Y303378D01*
X148976D01*
Y302378D01*
X149976Y301378D01*
X148976Y300378D01*
Y299378D01*
X123125Y264926D02*
X124125D01*
X125125Y265926D01*
X126125Y264926D01*
X127125D01*
Y265926D01*
X126125Y266926D01*
X127125Y267926D01*
Y268926D01*
X126125D01*
X125125Y267926D01*
X124125Y268926D01*
X123125D01*
Y267926D01*
X124125Y266926D01*
X123125Y265926D01*
Y264926D01*
X99672Y265088D02*
X100672D01*
X101672Y266088D01*
X102672Y265088D01*
X103672D01*
Y266088D01*
X102672Y267088D01*
X103672Y268088D01*
Y269088D01*
X102672D01*
X101672Y268088D01*
X100672Y269088D01*
X99672D01*
Y268088D01*
X100672Y267088D01*
X99672Y266088D01*
Y265088D01*
X83416Y265001D02*
X84416D01*
X85416Y266001D01*
X86416Y265001D01*
X87416D01*
Y266001D01*
X86416Y267001D01*
X87416Y268001D01*
Y269001D01*
X86416D01*
X85416Y268001D01*
X84416Y269001D01*
X83416D01*
Y268001D01*
X84416Y267001D01*
X83416Y266001D01*
Y265001D01*
X72452Y261152D02*
X73452D01*
X74452Y262152D01*
X75452Y261152D01*
X76452D01*
Y262152D01*
X75452Y263152D01*
X76452Y264152D01*
Y265152D01*
X75452D01*
X74452Y264152D01*
X73452Y265152D01*
X72452D01*
Y264152D01*
X73452Y263152D01*
X72452Y262152D01*
Y261152D01*
X76410Y271458D02*
X77410D01*
X78410Y272458D01*
X79410Y271458D01*
X80410D01*
Y272458D01*
X79410Y273458D01*
X80410Y274458D01*
Y275458D01*
X79410D01*
X78410Y274458D01*
X77410Y275458D01*
X76410D01*
Y274458D01*
X77410Y273458D01*
X76410Y272458D01*
Y271458D01*
X65605Y273060D02*
X66605D01*
X67605Y274060D01*
X68604Y273060D01*
X69604D01*
Y274060D01*
X68604Y275060D01*
X69604Y276060D01*
Y277060D01*
X68604D01*
X67605Y276060D01*
X66605Y277060D01*
X65605D01*
Y276060D01*
X66605Y275060D01*
X65605Y274060D01*
Y273060D01*
X86731Y307522D02*
X87731D01*
X88731Y308522D01*
X89731Y307522D01*
X90731D01*
Y308522D01*
X89731Y309522D01*
X90731Y310522D01*
Y311522D01*
X89731D01*
X88731Y310522D01*
X87731Y311522D01*
X86731D01*
Y310522D01*
X87731Y309522D01*
X86731Y308522D01*
Y307522D01*
X86661Y311445D02*
X87661D01*
X88661Y312445D01*
X89661Y311445D01*
X90661D01*
Y312445D01*
X89661Y313445D01*
X90661Y314445D01*
Y315445D01*
X89661D01*
X88661Y314445D01*
X87661Y315445D01*
X86661D01*
Y314445D01*
X87661Y313445D01*
X86661Y312445D01*
Y311445D01*
Y315445D02*
X87661D01*
X88661Y316445D01*
X89661Y315445D01*
X90661D01*
Y316445D01*
X89661Y317445D01*
X90661Y318445D01*
Y319445D01*
X89661D01*
X88661Y318445D01*
X87661Y319445D01*
X86661D01*
Y318445D01*
X87661Y317445D01*
X86661Y316445D01*
Y315445D01*
X68382Y296898D02*
X69382D01*
X70382Y297898D01*
X71382Y296898D01*
X72382D01*
Y297898D01*
X71382Y298898D01*
X72382Y299898D01*
Y300898D01*
X71382D01*
X70382Y299898D01*
X69382Y300898D01*
X68382D01*
Y299898D01*
X69382Y298898D01*
X68382Y297898D01*
Y296898D01*
X60213Y300209D02*
X61213D01*
X62213Y301209D01*
X63213Y300209D01*
X64213D01*
Y301209D01*
X63213Y302209D01*
X64213Y303209D01*
Y304209D01*
X63213D01*
X62213Y303209D01*
X61213Y304209D01*
X60213D01*
Y303209D01*
X61213Y302209D01*
X60213Y301209D01*
Y300209D01*
X150033Y375325D02*
X151033D01*
X152033Y376325D01*
X153033Y375325D01*
X154033D01*
Y376325D01*
X153033Y377325D01*
X154033Y378325D01*
Y379325D01*
X153033D01*
X152033Y378325D01*
X151033Y379325D01*
X150033D01*
Y378325D01*
X151033Y377325D01*
X150033Y376325D01*
Y375325D01*
X132619Y377703D02*
X133619D01*
X134619Y378703D01*
X135619Y377703D01*
X136619D01*
Y378703D01*
X135619Y379703D01*
X136619Y380703D01*
Y381703D01*
X135619D01*
X134619Y380703D01*
X133619Y381703D01*
X132619D01*
Y380703D01*
X133619Y379703D01*
X132619Y378703D01*
Y377703D01*
X132689Y373780D02*
X133689D01*
X134689Y374780D01*
X135689Y373780D01*
X136689D01*
Y374780D01*
X135689Y375780D01*
X136689Y376780D01*
Y377780D01*
X135689D01*
X134689Y376780D01*
X133689Y377780D01*
X132689D01*
Y376780D01*
X133689Y375780D01*
X132689Y374780D01*
Y373780D01*
X129381Y382222D02*
X130381D01*
X131381Y383222D01*
X132381Y382222D01*
X133381D01*
Y383222D01*
X132381Y384222D01*
X133381Y385222D01*
Y386222D01*
X132381D01*
X131381Y385222D01*
X130381Y386222D01*
X129381D01*
Y385222D01*
X130381Y384222D01*
X129381Y383222D01*
Y382222D01*
X129312Y386145D02*
X130312D01*
X131312Y387145D01*
X132312Y386145D01*
X133312D01*
Y387145D01*
X132312Y388145D01*
X133312Y389145D01*
Y390145D01*
X132312D01*
X131312Y389145D01*
X130312Y390145D01*
X129312D01*
Y389145D01*
X130312Y388145D01*
X129312Y387145D01*
Y386145D01*
Y390145D02*
X130312D01*
X131312Y391145D01*
X132312Y390145D01*
X133312D01*
Y391145D01*
X132312Y392145D01*
X133312Y393145D01*
Y394145D01*
X132312D01*
X131312Y393145D01*
X130312Y394145D01*
X129312D01*
Y393145D01*
X130312Y392145D01*
X129312Y391145D01*
Y390145D01*
X133010Y382222D02*
X134010D01*
X135010Y383222D01*
X136010Y382222D01*
X137010D01*
Y383222D01*
X136010Y384222D01*
X137010Y385222D01*
Y386222D01*
X136010D01*
X135010Y385222D01*
X134010Y386222D01*
X133010D01*
Y385222D01*
X134010Y384222D01*
X133010Y383222D01*
Y382222D01*
X132940Y386145D02*
X133940D01*
X134940Y387145D01*
X135940Y386145D01*
X136940D01*
Y387145D01*
X135940Y388145D01*
X136940Y389145D01*
Y390145D01*
X135940D01*
X134940Y389145D01*
X133940Y390145D01*
X132940D01*
Y389145D01*
X133940Y388145D01*
X132940Y387145D01*
Y386145D01*
Y390145D02*
X133940D01*
X134940Y391145D01*
X135940Y390145D01*
X136940D01*
Y391145D01*
X135940Y392145D01*
X136940Y393145D01*
Y394145D01*
X135940D01*
X134940Y393145D01*
X133940Y394145D01*
X132940D01*
Y393145D01*
X133940Y392145D01*
X132940Y391145D01*
Y390145D01*
X321015Y393980D02*
X322015D01*
X323015Y394980D01*
X324015Y393980D01*
X325015D01*
Y394980D01*
X324015Y395979D01*
X325015Y396979D01*
Y397979D01*
X324015D01*
X323015Y396979D01*
X322015Y397979D01*
X321015D01*
Y396979D01*
X322015Y395979D01*
X321015Y394980D01*
Y393980D01*
X342637Y372978D02*
X343637D01*
X344637Y373978D01*
X345637Y372978D01*
X346637D01*
Y373978D01*
X345637Y374978D01*
X346637Y375978D01*
Y376978D01*
X345637D01*
X344637Y375978D01*
X343637Y376978D01*
X342637D01*
Y375978D01*
X343637Y374978D01*
X342637Y373978D01*
Y372978D01*
X346637D02*
X347637D01*
X348637Y373978D01*
X349637Y372978D01*
X350637D01*
Y373978D01*
X349637Y374978D01*
X350637Y375978D01*
Y376978D01*
X349637D01*
X348637Y375978D01*
X347637Y376978D01*
X346637D01*
Y375978D01*
X347637Y374978D01*
X346637Y373978D01*
Y372978D01*
X342536Y380092D02*
X343536D01*
X344536Y381092D01*
X345536Y380092D01*
X346536D01*
Y381092D01*
X345536Y382092D01*
X346536Y383092D01*
Y384092D01*
X345536D01*
X344536Y383092D01*
X343536Y384092D01*
X342536D01*
Y383092D01*
X343536Y382092D01*
X342536Y381092D01*
Y380092D01*
X346536D02*
X347536D01*
X348536Y381092D01*
X349536Y380092D01*
X350536D01*
Y381092D01*
X349536Y382092D01*
X350536Y383092D01*
Y384092D01*
X349536D01*
X348536Y383092D01*
X347536Y384092D01*
X346536D01*
Y383092D01*
X347536Y382092D01*
X346536Y381092D01*
Y380092D01*
X339493Y347129D02*
X340493D01*
X341493Y348129D01*
X342493Y347129D01*
X343493D01*
Y348129D01*
X342493Y349129D01*
X343493Y350129D01*
Y351129D01*
X342493D01*
X341493Y350129D01*
X340493Y351129D01*
X339493D01*
Y350129D01*
X340493Y349129D01*
X339493Y348129D01*
Y347129D01*
X337080Y330843D02*
X338080D01*
X339080Y331843D01*
X340080Y330843D01*
X341080D01*
Y331843D01*
X340080Y332843D01*
X341080Y333843D01*
Y334843D01*
X340080D01*
X339080Y333843D01*
X338080Y334843D01*
X337080D01*
Y333843D01*
X338080Y332843D01*
X337080Y331843D01*
Y330843D01*
X337403Y341893D02*
X338403D01*
X339403Y342893D01*
X340403Y341893D01*
X341403D01*
Y342893D01*
X340403Y343893D01*
X341403Y344893D01*
Y345893D01*
X340403D01*
X339403Y344893D01*
X338403Y345893D01*
X337403D01*
Y344893D01*
X338403Y343893D01*
X337403Y342893D01*
Y341893D01*
X337426Y338474D02*
X338426D01*
X339426Y339474D01*
X340426Y338474D01*
X341426D01*
Y339474D01*
X340426Y340474D01*
X341426Y341474D01*
Y342474D01*
X340426D01*
X339426Y341474D01*
X338426Y342474D01*
X337426D01*
Y341474D01*
X338426Y340474D01*
X337426Y339474D01*
Y338474D01*
X298819Y352504D02*
X299819D01*
X300819Y353504D01*
X301819Y352504D01*
X302819D01*
Y353504D01*
X301819Y354504D01*
X302819Y355504D01*
Y356504D01*
X301819D01*
X300819Y355504D01*
X299819Y356504D01*
X298819D01*
Y355504D01*
X299819Y354504D01*
X298819Y353504D01*
Y352504D01*
X298572Y357557D02*
X299572D01*
X300572Y358557D01*
X301572Y357557D01*
X302572D01*
Y358557D01*
X301572Y359557D01*
X302572Y360557D01*
Y361557D01*
X301572D01*
X300572Y360557D01*
X299572Y361557D01*
X298572D01*
Y360557D01*
X299572Y359557D01*
X298572Y358557D01*
Y357557D01*
Y361557D02*
X299572D01*
X300572Y362557D01*
X301572Y361557D01*
X302572D01*
Y362557D01*
X301572Y363557D01*
X302572Y364557D01*
Y365557D01*
X301572D01*
X300572Y364557D01*
X299572Y365557D01*
X298572D01*
Y364557D01*
X299572Y363557D01*
X298572Y362557D01*
Y361557D01*
X301991Y357579D02*
X302991D01*
X303991Y358579D01*
X304991Y357579D01*
X305991D01*
Y358579D01*
X304991Y359579D01*
X305991Y360579D01*
Y361579D01*
X304991D01*
X303991Y360579D01*
X302991Y361579D01*
X301991D01*
Y360579D01*
X302991Y359579D01*
X301991Y358579D01*
Y357579D01*
Y361579D02*
X302991D01*
X303991Y362579D01*
X304991Y361579D01*
X305991D01*
Y362579D01*
X304991Y363579D01*
X305991Y364579D01*
Y365579D01*
X304991D01*
X303991Y364579D01*
X302991Y365579D01*
X301991D01*
Y364579D01*
X302991Y363579D01*
X301991Y362579D01*
Y361579D01*
X290711Y348213D02*
X291711D01*
X292711Y349213D01*
X293711Y348213D01*
X294711D01*
Y349213D01*
X293711Y350213D01*
X294711Y351213D01*
Y352213D01*
X293711D01*
X292711Y351213D01*
X291711Y352213D01*
X290711D01*
Y351213D01*
X291711Y350213D01*
X290711Y349213D01*
Y348213D01*
X323060Y314439D02*
X324060D01*
X325060Y315439D01*
X326060Y314439D01*
X327060D01*
Y315439D01*
X326060Y316439D01*
X327060Y317439D01*
Y318439D01*
X326060D01*
X325060Y317439D01*
X324060Y318439D01*
X323060D01*
Y317439D01*
X324060Y316439D01*
X323060Y315439D01*
Y314439D01*
X343339Y318159D02*
X344339D01*
X345339Y319159D01*
X346339Y318159D01*
X347339D01*
Y319159D01*
X346339Y320159D01*
X347339Y321159D01*
Y322159D01*
X346339D01*
X345339Y321159D01*
X344339Y322159D01*
X343339D01*
Y321159D01*
X344339Y320159D01*
X343339Y319159D01*
Y318159D01*
X345855Y284704D02*
X346855D01*
X347855Y285704D01*
X348855Y284704D01*
X349855D01*
Y285704D01*
X348855Y286704D01*
X349855Y287704D01*
Y288704D01*
X348855D01*
X347855Y287704D01*
X346855Y288704D01*
X345855D01*
Y287704D01*
X346855Y286704D01*
X345855Y285704D01*
Y284704D01*
X320737Y287386D02*
X321737D01*
X322737Y288386D01*
X323737Y287386D01*
X324737D01*
Y288386D01*
X323737Y289386D01*
X324737Y290386D01*
Y291386D01*
X323737D01*
X322737Y290386D01*
X321737Y291386D01*
X320737D01*
Y290386D01*
X321737Y289386D01*
X320737Y288386D01*
Y287386D01*
X322702Y279402D02*
X323702D01*
X324702Y280402D01*
X325702Y279402D01*
X326702D01*
Y280402D01*
X325702Y281402D01*
X326702Y282402D01*
Y283402D01*
X325702D01*
X324702Y282402D01*
X323702Y283402D01*
X322702D01*
Y282402D01*
X323702Y281402D01*
X322702Y280402D01*
Y279402D01*
X326215Y279390D02*
X327215D01*
X328215Y280390D01*
X329215Y279390D01*
X330215D01*
Y280390D01*
X329215Y281390D01*
X330215Y282390D01*
Y283390D01*
X329215D01*
X328215Y282390D01*
X327215Y283390D01*
X326215D01*
Y282390D01*
X327215Y281390D01*
X326215Y280390D01*
Y279390D01*
X322625Y276381D02*
X323625D01*
X324625Y277381D01*
X325625Y276381D01*
X326625D01*
Y277381D01*
X325625Y278381D01*
X326625Y279381D01*
Y280381D01*
X325625D01*
X324625Y279381D01*
X323625Y280381D01*
X322625D01*
Y279381D01*
X323625Y278381D01*
X322625Y277381D01*
Y276381D01*
X326137Y276369D02*
X327137D01*
X328137Y277369D01*
X329137Y276369D01*
X330137D01*
Y277369D01*
X329137Y278369D01*
X330137Y279369D01*
Y280369D01*
X329137D01*
X328137Y279369D01*
X327137Y280369D01*
X326137D01*
Y279369D01*
X327137Y278369D01*
X326137Y277369D01*
Y276369D01*
X295466Y264771D02*
X296466D01*
X297466Y265771D01*
X298466Y264771D01*
X299466D01*
Y265771D01*
X298466Y266771D01*
X299466Y267771D01*
Y268771D01*
X298466D01*
X297466Y267771D01*
X296466Y268771D01*
X295466D01*
Y267771D01*
X296466Y266771D01*
X295466Y265771D01*
Y264771D01*
X304916Y284249D02*
X305916D01*
X306916Y285249D01*
X307916Y284249D01*
X308916D01*
Y285249D01*
X307916Y286249D01*
X308916Y287249D01*
Y288249D01*
X307916D01*
X306916Y287249D01*
X305916Y288249D01*
X304916D01*
Y287249D01*
X305916Y286249D01*
X304916Y285249D01*
Y284249D01*
X296214Y283228D02*
X297214D01*
X298214Y284228D01*
X299214Y283228D01*
X300214D01*
Y284228D01*
X299214Y285228D01*
X300214Y286228D01*
Y287228D01*
X299214D01*
X298214Y286228D01*
X297214Y287228D01*
X296214D01*
Y286228D01*
X297214Y285228D01*
X296214Y284228D01*
Y283228D01*
X305641Y249793D02*
X306641D01*
X307641Y250793D01*
X308641Y249793D01*
X309641D01*
Y250793D01*
X308641Y251793D01*
X309641Y252793D01*
Y253793D01*
X308641D01*
X307641Y252793D01*
X306641Y253793D01*
X305641D01*
Y252793D01*
X306641Y251793D01*
X305641Y250793D01*
Y249793D01*
X242832Y296042D02*
X243832D01*
X244832Y297042D01*
X245832Y296042D01*
X246832D01*
Y297042D01*
X245832Y298042D01*
X246832Y299042D01*
Y300042D01*
X245832D01*
X244832Y299042D01*
X243832Y300042D01*
X242832D01*
Y299042D01*
X243832Y298042D01*
X242832Y297042D01*
Y296042D01*
X248115Y407328D02*
X249115D01*
X250115Y408327D01*
X251115Y407328D01*
X252115D01*
Y408327D01*
X251115Y409328D01*
X252115Y410327D01*
Y411328D01*
X251115D01*
X250115Y410327D01*
X249115Y411328D01*
X248115D01*
Y410327D01*
X249115Y409328D01*
X248115Y408327D01*
Y407328D01*
X246202Y311491D02*
X247202D01*
X248202Y312491D01*
X249202Y311491D01*
X250202D01*
Y312491D01*
X249202Y313491D01*
X250202Y314491D01*
Y315491D01*
X249202D01*
X248202Y314491D01*
X247202Y315491D01*
X246202D01*
Y314491D01*
X247202Y313491D01*
X246202Y312491D01*
Y311491D01*
X242944Y276292D02*
X243944D01*
X244944Y277292D01*
X245944Y276292D01*
X246944D01*
Y277292D01*
X245944Y278292D01*
X246944Y279292D01*
Y280292D01*
X245944D01*
X244944Y279292D01*
X243944Y280292D01*
X242944D01*
Y279292D01*
X243944Y278292D01*
X242944Y277292D01*
Y276292D01*
X223916Y301249D02*
X224916D01*
X225916Y302249D01*
X226916Y301249D01*
X227916D01*
Y302249D01*
X226916Y303249D01*
X227916Y304249D01*
Y305249D01*
X226916D01*
X225916Y304249D01*
X224916Y305249D01*
X223916D01*
Y304249D01*
X224916Y303249D01*
X223916Y302249D01*
Y301249D01*
X223571Y283730D02*
X224571D01*
X225571Y284730D01*
X226571Y283730D01*
X227571D01*
Y284730D01*
X226571Y285730D01*
X227571Y286730D01*
Y287730D01*
X226571D01*
X225571Y286730D01*
X224571Y287730D01*
X223571D01*
Y286730D01*
X224571Y285730D01*
X223571Y284730D01*
Y283730D01*
X219463Y273752D02*
X220463D01*
X221463Y274752D01*
X222463Y273752D01*
X223463D01*
Y274752D01*
X222463Y275752D01*
X223463Y276752D01*
Y277752D01*
X222463D01*
X221463Y276752D01*
X220463Y277752D01*
X219463D01*
Y276752D01*
X220463Y275752D01*
X219463Y274752D01*
Y273752D01*
X233971Y310870D02*
X234971D01*
X235971Y311870D01*
X236971Y310870D01*
X237971D01*
Y311870D01*
X236971Y312870D01*
X237971Y313870D01*
Y314870D01*
X236971D01*
X235971Y313870D01*
X234971Y314870D01*
X233971D01*
Y313870D01*
X234971Y312870D01*
X233971Y311870D01*
Y310870D01*
X229023Y359728D02*
X230023D01*
X231023Y360728D01*
X232023Y359728D01*
X233023D01*
Y360728D01*
X232023Y361728D01*
X233023Y362728D01*
Y363728D01*
X232023D01*
X231023Y362728D01*
X230023Y363728D01*
X229023D01*
Y362728D01*
X230023Y361728D01*
X229023Y360728D01*
Y359728D01*
X223785Y398999D02*
X224785D01*
X225785Y399999D01*
X226785Y398999D01*
X227785D01*
Y399999D01*
X226785Y400999D01*
X227785Y401999D01*
Y402999D01*
X226785D01*
X225785Y401999D01*
X224785Y402999D01*
X223785D01*
Y401999D01*
X224785Y400999D01*
X223785Y399999D01*
Y398999D01*
X243469Y393767D02*
X244469D01*
X245469Y394767D01*
X246469Y393767D01*
X247469D01*
Y394767D01*
X246469Y395767D01*
X247469Y396767D01*
Y397767D01*
X246469D01*
X245469Y396767D01*
X244469Y397767D01*
X243469D01*
Y396767D01*
X244469Y395767D01*
X243469Y394767D01*
Y393767D01*
X243095Y373747D02*
X244095D01*
X245095Y374747D01*
X246095Y373747D01*
X247095D01*
Y374747D01*
X246095Y375747D01*
X247095Y376747D01*
Y377747D01*
X246095D01*
X245095Y376747D01*
X244095Y377747D01*
X243095D01*
Y376747D01*
X244095Y375747D01*
X243095Y374747D01*
Y373747D01*
X249479Y359662D02*
X250479D01*
X251479Y360662D01*
X252479Y359662D01*
X253479D01*
Y360662D01*
X252479Y361662D01*
X253479Y362662D01*
Y363662D01*
X252479D01*
X251479Y362662D01*
X250479Y363662D01*
X249479D01*
Y362662D01*
X250479Y361662D01*
X249479Y360662D01*
Y359662D01*
X222445Y314651D02*
X223445D01*
X224445Y315651D01*
X225445Y314651D01*
X226445D01*
Y315651D01*
X225445Y316651D01*
X226445Y317651D01*
Y318651D01*
X225445D01*
X224445Y317651D01*
X223445Y318651D01*
X222445D01*
Y317651D01*
X223445Y316651D01*
X222445Y315651D01*
Y314651D01*
X243718Y345797D02*
X244718D01*
X245718Y346797D01*
X246718Y345797D01*
X247718D01*
Y346797D01*
X246718Y347797D01*
X247718Y348797D01*
Y349797D01*
X246718D01*
X245718Y348797D01*
X244718Y349797D01*
X243718D01*
Y348797D01*
X244718Y347797D01*
X243718Y346797D01*
Y345797D01*
X243813Y325354D02*
X244813D01*
X245813Y326354D01*
X246813Y325354D01*
X247813D01*
Y326354D01*
X246813Y327354D01*
X247813Y328354D01*
Y329353D01*
X246813D01*
X245813Y328354D01*
X244813Y329353D01*
X243813D01*
Y328354D01*
X244813Y327354D01*
X243813Y326354D01*
Y325354D01*
X235889Y282952D02*
X236889D01*
X237889Y283952D01*
X238889Y282952D01*
X239889D01*
Y283952D01*
X238889Y284952D01*
X239889Y285952D01*
Y286952D01*
X238889D01*
X237889Y285952D01*
X236889Y286952D01*
X235889D01*
Y285952D01*
X236889Y284952D01*
X235889Y283952D01*
Y282952D01*
X235863Y286380D02*
X236863D01*
X237863Y287380D01*
X238863Y286380D01*
X239863D01*
Y287380D01*
X238863Y288380D01*
X239863Y289380D01*
Y290380D01*
X238863D01*
X237863Y289380D01*
X236863Y290380D01*
X235863D01*
Y289380D01*
X236863Y288380D01*
X235863Y287380D01*
Y286380D01*
X235756Y289680D02*
X236756D01*
X237756Y290680D01*
X238756Y289680D01*
X239756D01*
Y290680D01*
X238756Y291680D01*
X239756Y292680D01*
Y293680D01*
X238756D01*
X237756Y292680D01*
X236756Y293680D01*
X235756D01*
Y292680D01*
X236756Y291680D01*
X235756Y290680D01*
Y289680D01*
X235662Y380291D02*
X236662D01*
X237662Y381291D01*
X238662Y380291D01*
X239662D01*
Y381291D01*
X238662Y382291D01*
X239662Y383291D01*
Y384291D01*
X238662D01*
X237662Y383291D01*
X236662Y384291D01*
X235662D01*
Y383291D01*
X236662Y382291D01*
X235662Y381291D01*
Y380291D01*
X213000Y375000D02*
X214000D01*
X215000Y376000D01*
X216000Y375000D01*
X217000D01*
Y376000D01*
X216000Y377000D01*
X217000Y378000D01*
Y379000D01*
X216000D01*
X215000Y378000D01*
X214000Y379000D01*
X213000D01*
Y378000D01*
X214000Y377000D01*
X213000Y376000D01*
Y375000D01*
X166500Y349101D02*
X167500D01*
X168500Y350101D01*
X169500Y349101D01*
X170500D01*
Y350101D01*
X169500Y351101D01*
X170500Y352101D01*
Y353101D01*
X169500D01*
X168500Y352101D01*
X167500Y353101D01*
X166500D01*
Y352101D01*
X167500Y351101D01*
X166500Y350101D01*
Y349101D01*
X86661Y319445D02*
X87661D01*
X88661Y320445D01*
X89661Y319445D01*
X90661D01*
Y320445D01*
X89661Y321445D01*
X90661Y322445D01*
Y323445D01*
X89661D01*
X88661Y322445D01*
X87661Y323445D01*
X86661D01*
Y322445D01*
X87661Y321445D01*
X86661Y320445D01*
Y319445D01*
X86701Y323889D02*
X87701D01*
X88701Y324889D01*
X89701Y323889D01*
X90701D01*
Y324889D01*
X89701Y325889D01*
X90701Y326889D01*
Y327889D01*
X89701D01*
X88701Y326889D01*
X87701Y327889D01*
X86701D01*
Y326889D01*
X87701Y325889D01*
X86701Y324889D01*
Y323889D01*
X109717Y347315D02*
X110717D01*
X111717Y348315D01*
X112717Y347315D01*
X113717D01*
Y348315D01*
X112717Y349315D01*
X113717Y350315D01*
Y351315D01*
X112717D01*
X111717Y350315D01*
X110717Y351315D01*
X109717D01*
Y350315D01*
X110717Y349315D01*
X109717Y348315D01*
Y347315D01*
X154228Y342243D02*
X155228D01*
X156228Y343243D01*
X157228Y342243D01*
X158228D01*
Y343243D01*
X157228Y344243D01*
X158228Y345243D01*
Y346243D01*
X157228D01*
X156228Y345243D01*
X155228Y346243D01*
X154228D01*
Y345243D01*
X155228Y344243D01*
X154228Y343243D01*
Y342243D01*
X93183Y342923D02*
X94183D01*
X95183Y343923D01*
X96183Y342923D01*
X97183D01*
Y343923D01*
X96183Y344923D01*
X97183Y345923D01*
Y346923D01*
X96183D01*
X95183Y345923D01*
X94183Y346923D01*
X93183D01*
Y345923D01*
X94183Y344923D01*
X93183Y343923D01*
Y342923D01*
X150228Y342243D02*
X151228D01*
X152228Y343243D01*
X153228Y342243D01*
X154228D01*
Y343243D01*
X153228Y344243D01*
X154228Y345243D01*
Y346243D01*
X153228D01*
X152228Y345243D01*
X151228Y346243D01*
X150228D01*
Y345243D01*
X151228Y344243D01*
X150228Y343243D01*
Y342243D01*
X89183Y342923D02*
X90183D01*
X91183Y343923D01*
X92183Y342923D01*
X93183D01*
Y343923D01*
X92183Y344923D01*
X93183Y345923D01*
Y346923D01*
X92183D01*
X91183Y345923D01*
X90183Y346923D01*
X89183D01*
Y345923D01*
X90183Y344923D01*
X89183Y343923D01*
Y342923D01*
X212933Y142312D02*
X213933D01*
X214933Y143312D01*
X215933Y142312D01*
X216933D01*
Y143312D01*
X215933Y144312D01*
X216933Y145312D01*
Y146312D01*
X215933D01*
X214933Y145312D01*
X213933Y146312D01*
X212933D01*
Y145312D01*
X213933Y144312D01*
X212933Y143312D01*
Y142312D01*
X208832Y135362D02*
X209832D01*
X210832Y136362D01*
X211832Y135362D01*
X212832D01*
Y136362D01*
X211832Y137362D01*
X212832Y138362D01*
Y139362D01*
X211832D01*
X210832Y138362D01*
X209832Y139362D01*
X208832D01*
Y138362D01*
X209832Y137362D01*
X208832Y136362D01*
Y135362D01*
X211796Y123285D02*
X212796D01*
X213796Y124285D01*
X214796Y123285D01*
X215796D01*
Y124285D01*
X214796Y125285D01*
X215796Y126285D01*
Y127285D01*
X214796D01*
X213796Y126285D01*
X212796Y127285D01*
X211796D01*
Y126285D01*
X212796Y125285D01*
X211796Y124285D01*
Y123285D01*
X194947Y159938D02*
X195947D01*
X196947Y160938D01*
X197947Y159938D01*
X198947D01*
Y160938D01*
X197947Y161938D01*
X198947Y162938D01*
Y163938D01*
X197947D01*
X196947Y162938D01*
X195947Y163938D01*
X194947D01*
Y162938D01*
X195947Y161938D01*
X194947Y160938D01*
Y159938D01*
X197306Y149995D02*
X198306D01*
X199306Y150995D01*
X200306Y149995D01*
X201306D01*
Y150995D01*
X200306Y151995D01*
X201306Y152995D01*
Y153995D01*
X200306D01*
X199306Y152995D01*
X198306Y153995D01*
X197306D01*
Y152995D01*
X198306Y151995D01*
X197306Y150995D01*
Y149995D01*
X189000Y123000D02*
X190000D01*
X191000Y124000D01*
X192000Y123000D01*
X193000D01*
Y124000D01*
X192000Y125000D01*
X193000Y126000D01*
Y127000D01*
X192000D01*
X191000Y126000D01*
X190000Y127000D01*
X189000D01*
Y126000D01*
X190000Y125000D01*
X189000Y124000D01*
Y123000D01*
X208806Y123388D02*
X209806D01*
X210806Y124388D01*
X211806Y123388D01*
X212806D01*
Y124388D01*
X211806Y125388D01*
X212806Y126388D01*
Y127388D01*
X211806D01*
X210806Y126388D01*
X209806Y127388D01*
X208806D01*
Y126388D01*
X209806Y125388D01*
X208806Y124388D01*
Y123388D01*
X196933Y124312D02*
X197933D01*
X198933Y125312D01*
X199933Y124312D01*
X200933D01*
Y125312D01*
X199933Y126312D01*
X200933Y127312D01*
Y128312D01*
X199933D01*
X198933Y127312D01*
X197933Y128312D01*
X196933D01*
Y127312D01*
X197933Y126312D01*
X196933Y125312D01*
Y124312D01*
X207673Y159599D02*
X208673D01*
X209673Y160599D01*
X210673Y159599D01*
X211673D01*
Y160599D01*
X210673Y161599D01*
X211673Y162599D01*
Y163599D01*
X210673D01*
X209673Y162599D01*
X208673Y163599D01*
X207673D01*
Y162599D01*
X208673Y161599D01*
X207673Y160599D01*
Y159599D01*
X85276Y146899D02*
X86276D01*
X87276Y147899D01*
X88276Y146899D01*
X89276D01*
Y147899D01*
X88276Y148899D01*
X89276Y149899D01*
Y150899D01*
X88276D01*
X87276Y149899D01*
X86276Y150899D01*
X85276D01*
Y149899D01*
X86276Y148899D01*
X85276Y147899D01*
Y146899D01*
X85315Y152629D02*
X86315D01*
X87315Y153629D01*
X88315Y152629D01*
X89315D01*
Y153629D01*
X88315Y154629D01*
X89315Y155629D01*
Y156629D01*
X88315D01*
X87315Y155629D01*
X86315Y156629D01*
X85315D01*
Y155629D01*
X86315Y154629D01*
X85315Y153629D01*
Y152629D01*
X65907Y150437D02*
X66907D01*
X67907Y151437D01*
X68907Y150437D01*
X69907D01*
Y151437D01*
X68907Y152437D01*
X69907Y153437D01*
Y154437D01*
X68907D01*
X67907Y153437D01*
X66907Y154437D01*
X65907D01*
Y153437D01*
X66907Y152437D01*
X65907Y151437D01*
Y150437D01*
X238000Y146000D02*
X239000D01*
X240000Y147000D01*
X241000Y146000D01*
X242000D01*
Y147000D01*
X241000Y148000D01*
X242000Y149000D01*
Y150000D01*
X241000D01*
X240000Y149000D01*
X239000Y150000D01*
X238000D01*
Y149000D01*
X239000Y148000D01*
X238000Y147000D01*
Y146000D01*
X222000Y150000D02*
X223000D01*
X224000Y151000D01*
X225000Y150000D01*
X226000D01*
Y151000D01*
X225000Y152000D01*
X226000Y153000D01*
Y154000D01*
X225000D01*
X224000Y153000D01*
X223000Y154000D01*
X222000D01*
Y153000D01*
X223000Y152000D01*
X222000Y151000D01*
Y150000D01*
X368286Y25358D02*
X369286D01*
X370286Y26358D01*
X371286Y25358D01*
X372286D01*
Y26358D01*
X371286Y27358D01*
X372286Y28358D01*
Y29358D01*
X371286D01*
X370286Y28358D01*
X369286Y29358D01*
X368286D01*
Y28358D01*
X369286Y27358D01*
X368286Y26358D01*
Y25358D01*
X417457Y31257D02*
X418457D01*
X419457Y32257D01*
X420457Y31257D01*
X421457D01*
Y32257D01*
X420457Y33257D01*
X421457Y34257D01*
Y35257D01*
X420457D01*
X419457Y34257D01*
X418457Y35257D01*
X417457D01*
Y34257D01*
X418457Y33257D01*
X417457Y32257D01*
Y31257D01*
X407873Y22236D02*
X408873D01*
X409873Y23236D01*
X410873Y22236D01*
X411873D01*
Y23236D01*
X410873Y24236D01*
X411873Y25236D01*
Y26236D01*
X410873D01*
X409873Y25236D01*
X408873Y26236D01*
X407873D01*
Y25236D01*
X408873Y24236D01*
X407873Y23236D01*
Y22236D01*
X367618Y55950D02*
X368618D01*
X369618Y56950D01*
X370618Y55950D01*
X371618D01*
Y56950D01*
X370618Y57950D01*
X371618Y58950D01*
Y59950D01*
X370618D01*
X369618Y58950D01*
X368618Y59950D01*
X367618D01*
Y58950D01*
X368618Y57950D01*
X367618Y56950D01*
Y55950D01*
X398315Y390665D02*
X399315D01*
X400315Y391665D01*
X401315Y390665D01*
X402315D01*
Y391665D01*
X401315Y392665D01*
X402315Y393665D01*
Y394665D01*
X401315D01*
X400315Y393665D01*
X399315Y394665D01*
X398315D01*
Y393665D01*
X399315Y392665D01*
X398315Y391665D01*
Y390665D01*
X402315D02*
X403315D01*
X404315Y391665D01*
X405315Y390665D01*
X406315D01*
Y391665D01*
X405315Y392665D01*
X406315Y393665D01*
Y394665D01*
X405315D01*
X404315Y393665D01*
X403315Y394665D01*
X402315D01*
Y393665D01*
X403315Y392665D01*
X402315Y391665D01*
Y390665D01*
X406238Y390735D02*
X407238D01*
X408238Y391735D01*
X409238Y390735D01*
X410238D01*
Y391735D01*
X409238Y392735D01*
X410238Y393735D01*
Y394735D01*
X409238D01*
X408238Y393735D01*
X407238Y394735D01*
X406238D01*
Y393735D01*
X407238Y392735D01*
X406238Y391735D01*
Y390735D01*
X380087Y390810D02*
X381087D01*
X382087Y391810D01*
X383087Y390810D01*
X384087D01*
Y391810D01*
X383087Y392810D01*
X384087Y393810D01*
Y394810D01*
X383087D01*
X382087Y393810D01*
X381087Y394810D01*
X380087D01*
Y393810D01*
X381087Y392810D01*
X380087Y391810D01*
Y390810D01*
X384087D02*
X385087D01*
X386087Y391810D01*
X387087Y390810D01*
X388087D01*
Y391810D01*
X387087Y392810D01*
X388087Y393810D01*
Y394810D01*
X387087D01*
X386087Y393810D01*
X385087Y394810D01*
X384087D01*
Y393810D01*
X385087Y392810D01*
X384087Y391810D01*
Y390810D01*
X388010Y390879D02*
X389010D01*
X390010Y391879D01*
X391010Y390879D01*
X392010D01*
Y391879D01*
X391010Y392879D01*
X392010Y393879D01*
Y394879D01*
X391010D01*
X390010Y393879D01*
X389010Y394879D01*
X388010D01*
Y393879D01*
X389010Y392879D01*
X388010Y391879D01*
Y390879D01*
X85281Y140670D02*
X86281D01*
X87281Y141670D01*
X88281Y140670D01*
X89281D01*
Y141670D01*
X88281Y142670D01*
X89281Y143670D01*
Y144670D01*
X88281D01*
X87281Y143670D01*
X86281Y144670D01*
X85281D01*
Y143670D01*
X86281Y142670D01*
X85281Y141670D01*
Y140670D01*
X85279Y128695D02*
X86279D01*
X87279Y129695D01*
X88279Y128695D01*
X89279D01*
Y129695D01*
X88279Y130695D01*
X89279Y131695D01*
Y132695D01*
X88279D01*
X87279Y131695D01*
X86279Y132695D01*
X85279D01*
Y131695D01*
X86279Y130695D01*
X85279Y129695D01*
Y128695D01*
X85225Y158756D02*
X86225D01*
X87225Y159756D01*
X88225Y158756D01*
X89225D01*
Y159756D01*
X88225Y160756D01*
X89225Y161756D01*
Y162756D01*
X88225D01*
X87225Y161756D01*
X86225Y162756D01*
X85225D01*
Y161756D01*
X86225Y160756D01*
X85225Y159756D01*
Y158756D01*
X176398Y305794D02*
X177398D01*
X178398Y306794D01*
X179398Y305794D01*
X180398D01*
Y306794D01*
X179398Y307794D01*
X180398Y308794D01*
Y309794D01*
X179398D01*
X178398Y308794D01*
X177398Y309794D01*
X176398D01*
Y308794D01*
X177398Y307794D01*
X176398Y306794D01*
Y305794D01*
X52655Y383811D02*
X53655D01*
X54655Y384811D01*
X55655Y383811D01*
X56655D01*
Y384811D01*
X55655Y385811D01*
X56655Y386811D01*
Y387811D01*
X55655D01*
X54655Y386811D01*
X53655Y387811D01*
X52655D01*
Y386811D01*
X53655Y385811D01*
X52655Y384811D01*
Y383811D01*
X473017Y216617D02*
X474017D01*
X475017Y217617D01*
X476017Y216617D01*
X477017D01*
Y217617D01*
X476017Y218617D01*
X477017Y219617D01*
Y220617D01*
X476017D01*
X475017Y219617D01*
X474017Y220617D01*
X473017D01*
Y219617D01*
X474017Y218617D01*
X473017Y217617D01*
Y216617D01*
X432545Y71824D02*
X433545D01*
X434545Y72824D01*
X435545Y71824D01*
X436545D01*
Y72824D01*
X435545Y73824D01*
X436545Y74824D01*
Y75824D01*
X435545D01*
X434545Y74824D01*
X433545Y75824D01*
X432545D01*
Y74824D01*
X433545Y73824D01*
X432545Y72824D01*
Y71824D01*
X433533Y13696D02*
X434534D01*
X435534Y14696D01*
X436533Y13696D01*
X437534D01*
Y14696D01*
X436533Y15696D01*
X437534Y16696D01*
Y17696D01*
X436533D01*
X435534Y16696D01*
X434534Y17696D01*
X433533D01*
Y16696D01*
X434534Y15696D01*
X433533Y14696D01*
Y13696D01*
X80352Y12964D02*
X81352D01*
X82352Y13964D01*
X83352Y12964D01*
X84352D01*
Y13964D01*
X83352Y14964D01*
X84352Y15964D01*
Y16964D01*
X83352D01*
X82352Y15964D01*
X81352Y16964D01*
X80352D01*
Y15964D01*
X81352Y14964D01*
X80352Y13964D01*
Y12964D01*
X338106Y16403D02*
X339106D01*
X340106Y17403D01*
X341106Y16403D01*
X342106D01*
Y17403D01*
X341106Y18403D01*
X342106Y19403D01*
Y20403D01*
X341106D01*
X340106Y19403D01*
X339106Y20403D01*
X338106D01*
Y19403D01*
X339106Y18403D01*
X338106Y17403D01*
Y16403D01*
X455989Y316998D02*
X456989D01*
X457989Y317998D01*
X458989Y316998D01*
X459989D01*
Y317998D01*
X458989Y318998D01*
X459989Y319998D01*
Y320998D01*
X458989D01*
X457989Y319998D01*
X456989Y320998D01*
X455989D01*
Y319998D01*
X456989Y318998D01*
X455989Y317998D01*
Y316998D01*
X203266Y319413D02*
X204266D01*
X205266Y320413D01*
X206266Y319413D01*
X207266D01*
Y320413D01*
X206266Y321413D01*
X207266Y322413D01*
Y323413D01*
X206266D01*
X205266Y322413D01*
X204266Y323413D01*
X203266D01*
Y322413D01*
X204266Y321413D01*
X203266Y320413D01*
Y319413D01*
X244203Y236214D02*
X245203D01*
X246203Y237214D01*
X247203Y236214D01*
X248203D01*
Y237214D01*
X247203Y238214D01*
X248203Y239214D01*
Y240214D01*
X247203D01*
X246203Y239214D01*
X245203Y240214D01*
X244203D01*
Y239214D01*
X245203Y238214D01*
X244203Y237214D01*
Y236214D01*
X282033Y276901D02*
X283033D01*
X284033Y277901D01*
X285033Y276901D01*
X286033D01*
Y277901D01*
X285033Y278901D01*
X286033Y279901D01*
Y280901D01*
X285033D01*
X284033Y279901D01*
X283033Y280901D01*
X282033D01*
Y279901D01*
X283033Y278901D01*
X282033Y277901D01*
Y276901D01*
X216240Y294846D02*
X217240D01*
X218240Y295846D01*
X219240Y294846D01*
X220240D01*
Y295846D01*
X219240Y296846D01*
X220240Y297846D01*
Y298846D01*
X219240D01*
X218240Y297846D01*
X217240Y298846D01*
X216240D01*
Y297846D01*
X217240Y296846D01*
X216240Y295846D01*
Y294846D01*
X378763Y277181D02*
X379763D01*
X380763Y278181D01*
X381763Y277181D01*
X382763D01*
Y278181D01*
X381763Y279181D01*
X382763Y280181D01*
Y281181D01*
X381763D01*
X380763Y280181D01*
X379763Y281181D01*
X378763D01*
Y280181D01*
X379763Y279181D01*
X378763Y278181D01*
Y277181D01*
X447265Y394612D02*
X448265D01*
X449265Y395612D01*
X450265Y394612D01*
X451265D01*
Y395612D01*
X450265Y396612D01*
X451265Y397612D01*
Y398612D01*
X450265D01*
X449265Y397612D01*
X448265Y398612D01*
X447265D01*
Y397612D01*
X448265Y396612D01*
X447265Y395612D01*
Y394612D01*
X450693Y394638D02*
X451693D01*
X452693Y395638D01*
X453693Y394638D01*
X454693D01*
Y395638D01*
X453693Y396638D01*
X454693Y397638D01*
Y398638D01*
X453693D01*
X452693Y397638D01*
X451693Y398638D01*
X450693D01*
Y397638D01*
X451693Y396638D01*
X450693Y395638D01*
Y394638D01*
X436244Y404907D02*
X437244D01*
X438244Y405907D01*
X439244Y404907D01*
X440244D01*
Y405907D01*
X439244Y406907D01*
X440244Y407907D01*
Y408907D01*
X439244D01*
X438244Y407907D01*
X437244Y408907D01*
X436244D01*
Y407907D01*
X437244Y406907D01*
X436244Y405907D01*
Y404907D01*
X343266Y282752D02*
X344266D01*
X345266Y283752D01*
X346266Y282752D01*
X347266D01*
Y283752D01*
X346266Y284752D01*
X347266Y285752D01*
Y286752D01*
X346266D01*
X345266Y285752D01*
X344266Y286752D01*
X343266D01*
Y285752D01*
X344266Y284752D01*
X343266Y283752D01*
Y282752D01*
X277359Y305173D02*
X278359D01*
X279359Y306173D01*
X280359Y305173D01*
X281359D01*
Y306173D01*
X280359Y307173D01*
X281359Y308173D01*
Y309173D01*
X280359D01*
X279359Y308173D01*
X278359Y309173D01*
X277359D01*
Y308173D01*
X278359Y307173D01*
X277359Y306173D01*
Y305173D01*
X332831Y297193D02*
X333831D01*
X334831Y298193D01*
X335831Y297193D01*
X336831D01*
Y298193D01*
X335831Y299193D01*
X336831Y300193D01*
Y301193D01*
X335831D01*
X334831Y300193D01*
X333831Y301193D01*
X332831D01*
Y300193D01*
X333831Y299193D01*
X332831Y298193D01*
Y297193D01*
X332804Y300622D02*
X333804D01*
X334804Y301622D01*
X335804Y300622D01*
X336804D01*
Y301622D01*
X335804Y302622D01*
X336804Y303622D01*
Y304622D01*
X335804D01*
X334804Y303622D01*
X333804Y304622D01*
X332804D01*
Y303622D01*
X333804Y302622D01*
X332804Y301622D01*
Y300622D01*
X332698Y303922D02*
X333698D01*
X334698Y304922D01*
X335698Y303922D01*
X336698D01*
Y304922D01*
X335698Y305922D01*
X336698Y306922D01*
Y307922D01*
X335698D01*
X334698Y306922D01*
X333698Y307922D01*
X332698D01*
Y306922D01*
X333698Y305922D01*
X332698Y304922D01*
Y303922D01*
X317372Y297980D02*
X318372D01*
X319372Y298980D01*
X320372Y297980D01*
X321372D01*
Y298980D01*
X320372Y299980D01*
X321372Y300980D01*
Y301980D01*
X320372D01*
X319372Y300980D01*
X318372Y301980D01*
X317372D01*
Y300980D01*
X318372Y299980D01*
X317372Y298980D01*
Y297980D01*
X325192Y375546D02*
X326192D01*
X327192Y376546D01*
X328192Y375546D01*
X329192D01*
Y376546D01*
X328192Y377546D01*
X329192Y378546D01*
Y379546D01*
X328192D01*
X327192Y378546D01*
X326192Y379546D01*
X325192D01*
Y378546D01*
X326192Y377546D01*
X325192Y376546D01*
Y375546D01*
X321192D02*
X322192D01*
X323192Y376546D01*
X324192Y375546D01*
X325192D01*
Y376546D01*
X324192Y377546D01*
X325192Y378546D01*
Y379546D01*
X324192D01*
X323192Y378546D01*
X322192Y379546D01*
X321192D01*
Y378546D01*
X322192Y377546D01*
X321192Y376546D01*
Y375546D01*
X321189Y381532D02*
X322189D01*
X323189Y382532D01*
X324189Y381532D01*
X325189D01*
Y382532D01*
X324189Y383532D01*
X325189Y384532D01*
Y385532D01*
X324189D01*
X323189Y384532D01*
X322189Y385532D01*
X321189D01*
Y384532D01*
X322189Y383532D01*
X321189Y382532D01*
Y381532D01*
X325258Y386105D02*
X326258D01*
X327258Y387105D01*
X328258Y386105D01*
X329258D01*
Y387105D01*
X328258Y388105D01*
X329258Y389105D01*
Y390105D01*
X328258D01*
X327258Y389105D01*
X326258Y390105D01*
X325258D01*
Y389105D01*
X326258Y388105D01*
X325258Y387105D01*
Y386105D01*
X321258D02*
X322258D01*
X323258Y387105D01*
X324258Y386105D01*
X325258D01*
Y387105D01*
X324258Y388105D01*
X325258Y389105D01*
Y390105D01*
X324258D01*
X323258Y389105D01*
X322258Y390105D01*
X321258D01*
Y389105D01*
X322258Y388105D01*
X321258Y387105D01*
Y386105D01*
X313552Y397204D02*
X314552D01*
X315552Y398204D01*
X316552Y397204D01*
X317552D01*
Y398204D01*
X316552Y399204D01*
X317552Y400204D01*
Y401204D01*
X316552D01*
X315552Y400204D01*
X314552Y401204D01*
X313552D01*
Y400204D01*
X314552Y399204D01*
X313552Y398204D01*
Y397204D01*
X409109Y221064D02*
X410109D01*
X411109Y222064D01*
X412109Y221064D01*
X413109D01*
Y222064D01*
X412109Y223064D01*
X413109Y224064D01*
Y225064D01*
X412109D01*
X411109Y224064D01*
X410109Y225064D01*
X409109D01*
Y224064D01*
X410109Y223064D01*
X409109Y222064D01*
Y221064D01*
X389472Y193591D02*
X390472D01*
X391472Y194591D01*
X392472Y193591D01*
X393472D01*
Y194591D01*
X392472Y195591D01*
X393472Y196591D01*
Y197591D01*
X392472D01*
X391472Y196591D01*
X390472Y197591D01*
X389472D01*
Y196591D01*
X390472Y195591D01*
X389472Y194591D01*
Y193591D01*
X381109Y232064D02*
X382109D01*
X383109Y233064D01*
X384109Y232064D01*
X385109D01*
Y233064D01*
X384109Y234064D01*
X385109Y235064D01*
Y236064D01*
X384109D01*
X383109Y235064D01*
X382109Y236064D01*
X381109D01*
Y235064D01*
X382109Y234064D01*
X381109Y233064D01*
Y232064D01*
X393109D02*
X394109D01*
X395109Y233064D01*
X396109Y232064D01*
X397109D01*
Y233064D01*
X396109Y234064D01*
X397109Y235064D01*
Y236064D01*
X396109D01*
X395109Y235064D01*
X394109Y236064D01*
X393109D01*
Y235064D01*
X394109Y234064D01*
X393109Y233064D01*
Y232064D01*
X450109Y233064D02*
X451109D01*
X452109Y234064D01*
X453109Y233064D01*
X454109D01*
Y234064D01*
X453109Y235064D01*
X454109Y236064D01*
Y237064D01*
X453109D01*
X452109Y236064D01*
X451109Y237064D01*
X450109D01*
Y236064D01*
X451109Y235064D01*
X450109Y234064D01*
Y233064D01*
X418000Y237511D02*
X419000D01*
X420000Y238511D01*
X421000Y237511D01*
X422000D01*
Y238511D01*
X421000Y239511D01*
X422000Y240511D01*
Y241511D01*
X421000D01*
X420000Y240511D01*
X419000Y241511D01*
X418000D01*
Y240511D01*
X419000Y239511D01*
X418000Y238511D01*
Y237511D01*
X416000Y240000D02*
X417000D01*
X418000Y241000D01*
X419000Y240000D01*
X420000D01*
Y241000D01*
X419000Y242000D01*
X420000Y243000D01*
Y244000D01*
X419000D01*
X418000Y243000D01*
X417000Y244000D01*
X416000D01*
Y243000D01*
X417000Y242000D01*
X416000Y241000D01*
Y240000D01*
X410451Y224293D02*
X411451D01*
X412451Y225293D01*
X413451Y224293D01*
X414451D01*
Y225293D01*
X413451Y226293D01*
X414451Y227293D01*
Y228293D01*
X413451D01*
X412451Y227293D01*
X411451Y228293D01*
X410451D01*
Y227293D01*
X411451Y226293D01*
X410451Y225293D01*
Y224293D01*
X403109Y243064D02*
X404109D01*
X405109Y244064D01*
X406109Y243064D01*
X407109D01*
Y244064D01*
X406109Y245064D01*
X407109Y246064D01*
Y247064D01*
X406109D01*
X405109Y246064D01*
X404109Y247064D01*
X403109D01*
Y246064D01*
X404109Y245064D01*
X403109Y244064D01*
Y243064D01*
X421548Y223643D02*
X422548D01*
X423548Y224643D01*
X424548Y223643D01*
X425548D01*
Y224643D01*
X424548Y225643D01*
X425548Y226643D01*
Y227643D01*
X424548D01*
X423548Y226643D01*
X422548Y227643D01*
X421548D01*
Y226643D01*
X422548Y225643D01*
X421548Y224643D01*
Y223643D01*
X412796Y202621D02*
X413797D01*
X414796Y203621D01*
X415797Y202621D01*
X416796D01*
Y203621D01*
X415797Y204621D01*
X416796Y205621D01*
Y206621D01*
X415797D01*
X414796Y205621D01*
X413797Y206621D01*
X412796D01*
Y205621D01*
X413797Y204621D01*
X412796Y203621D01*
Y202621D01*
X425109Y209064D02*
X426109D01*
X427109Y210064D01*
X428109Y209064D01*
X429109D01*
Y210064D01*
X428109Y211064D01*
X429109Y212064D01*
Y213064D01*
X428109D01*
X427109Y212064D01*
X426109Y213064D01*
X425109D01*
Y212064D01*
X426109Y211064D01*
X425109Y210064D01*
Y209064D01*
X427109Y229064D02*
X428109D01*
X429109Y230064D01*
X430109Y229064D01*
X431109D01*
Y230064D01*
X430109Y231064D01*
X431109Y232064D01*
Y233064D01*
X430109D01*
X429109Y232064D01*
X428109Y233064D01*
X427109D01*
Y232064D01*
X428109Y231064D01*
X427109Y230064D01*
Y229064D01*
X450109Y221064D02*
X451109D01*
X452109Y222064D01*
X453109Y221064D01*
X454109D01*
Y222064D01*
X453109Y223064D01*
X454109Y224064D01*
Y225064D01*
X453109D01*
X452109Y224064D01*
X451109Y225064D01*
X450109D01*
Y224064D01*
X451109Y223064D01*
X450109Y222064D01*
Y221064D01*
Y216064D02*
X451109D01*
X452109Y217064D01*
X453109Y216064D01*
X454109D01*
Y217064D01*
X453109Y218064D01*
X454109Y219064D01*
Y220064D01*
X453109D01*
X452109Y219064D01*
X451109Y220064D01*
X450109D01*
Y219064D01*
X451109Y218064D01*
X450109Y217064D01*
Y216064D01*
Y204064D02*
X451109D01*
X452109Y205064D01*
X453109Y204064D01*
X454109D01*
Y205064D01*
X453109Y206064D01*
X454109Y207064D01*
Y208064D01*
X453109D01*
X452109Y207064D01*
X451109Y208064D01*
X450109D01*
Y207064D01*
X451109Y206064D01*
X450109Y205064D01*
Y204064D01*
X439352Y195326D02*
X440352D01*
X441352Y196326D01*
X442352Y195326D01*
X443352D01*
Y196326D01*
X442352Y197326D01*
X443352Y198326D01*
Y199326D01*
X442352D01*
X441352Y198326D01*
X440352Y199326D01*
X439352D01*
Y198326D01*
X440352Y197326D01*
X439352Y196326D01*
Y195326D01*
X426287Y183998D02*
X427287D01*
X428287Y184998D01*
X429287Y183998D01*
X430287D01*
Y184998D01*
X429287Y185998D01*
X430287Y186998D01*
Y187998D01*
X429287D01*
X428287Y186998D01*
X427287Y187998D01*
X426287D01*
Y186998D01*
X427287Y185998D01*
X426287Y184998D01*
Y183998D01*
X420909Y183703D02*
X421909D01*
X422909Y184703D01*
X423909Y183703D01*
X424909D01*
Y184703D01*
X423909Y185703D01*
X424909Y186703D01*
Y187703D01*
X423909D01*
X422909Y186703D01*
X421909Y187703D01*
X420909D01*
Y186703D01*
X421909Y185703D01*
X420909Y184703D01*
Y183703D01*
X405752Y183785D02*
X406752D01*
X407752Y184785D01*
X408752Y183785D01*
X409752D01*
Y184785D01*
X408752Y185785D01*
X409752Y186785D01*
Y187785D01*
X408752D01*
X407752Y186785D01*
X406752Y187785D01*
X405752D01*
Y186785D01*
X406752Y185785D01*
X405752Y184785D01*
Y183785D01*
X402109Y197064D02*
X403109D01*
X404109Y198064D01*
X405109Y197064D01*
X406109D01*
Y198064D01*
X405109Y199064D01*
X406109Y200064D01*
Y201064D01*
X405109D01*
X404109Y200064D01*
X403109Y201064D01*
X402109D01*
Y200064D01*
X403109Y199064D01*
X402109Y198064D01*
Y197064D01*
X403109Y229064D02*
X404109D01*
X405109Y230064D01*
X406109Y229064D01*
X407109D01*
Y230064D01*
X406109Y231064D01*
X407109Y232064D01*
Y233064D01*
X406109D01*
X405109Y232064D01*
X404109Y233064D01*
X403109D01*
Y232064D01*
X404109Y231064D01*
X403109Y230064D01*
Y229064D01*
X419109Y226064D02*
X420109D01*
X421109Y227064D01*
X422109Y226064D01*
X423109D01*
Y227064D01*
X422109Y228064D01*
X423109Y229064D01*
Y230064D01*
X422109D01*
X421109Y229064D01*
X420109Y230064D01*
X419109D01*
Y229064D01*
X420109Y228064D01*
X419109Y227064D01*
Y226064D01*
X409109Y243064D02*
X410109D01*
X411109Y244064D01*
X412109Y243064D01*
X413109D01*
Y244064D01*
X412109Y245064D01*
X413109Y246064D01*
Y247064D01*
X412109D01*
X411109Y246064D01*
X410109Y247064D01*
X409109D01*
Y246064D01*
X410109Y245064D01*
X409109Y244064D01*
Y243064D01*
X190730Y326779D02*
X191730D01*
X192730Y327779D01*
X193730Y326779D01*
X194730D01*
Y327779D01*
X193730Y328779D01*
X194730Y329779D01*
Y330779D01*
X193730D01*
X192730Y329779D01*
X191730Y330779D01*
X190730D01*
Y329779D01*
X191730Y328779D01*
X190730Y327779D01*
Y326779D01*
X187365Y300571D02*
X188365D01*
X189365Y301571D01*
X190365Y300571D01*
X191365D01*
Y301571D01*
X190365Y302571D01*
X191365Y303571D01*
Y304571D01*
X190365D01*
X189365Y303571D01*
X188365Y304571D01*
X187365D01*
Y303571D01*
X188365Y302571D01*
X187365Y301571D01*
Y300571D01*
X399652Y38305D02*
X400652D01*
X401651Y39305D01*
X402652Y38305D01*
X403652D01*
Y39305D01*
X402652Y40305D01*
X403652Y41305D01*
Y42305D01*
X402652D01*
X401651Y41305D01*
X400652Y42305D01*
X399652D01*
Y41305D01*
X400652Y40305D01*
X399652Y39305D01*
Y38305D01*
X331868Y409266D02*
X332868D01*
X333868Y410266D01*
X334868Y409266D01*
X335868D01*
Y410266D01*
X334868Y411266D01*
X335868Y412266D01*
Y413266D01*
X334868D01*
X333868Y412266D01*
X332868Y413266D01*
X331868D01*
Y412266D01*
X332868Y411266D01*
X331868Y410266D01*
Y409266D01*
X323859Y310321D02*
X324859D01*
X325859Y311321D01*
X326859Y310321D01*
X327859D01*
Y311321D01*
X326859Y312321D01*
X327859Y313321D01*
Y314321D01*
X326859D01*
X325859Y313321D01*
X324859Y314321D01*
X323859D01*
Y313321D01*
X324859Y312321D01*
X323859Y311321D01*
Y310321D01*
X317611Y294751D02*
X318611D01*
X319611Y295751D01*
X320611Y294751D01*
X321611D01*
Y295751D01*
X320611Y296751D01*
X321611Y297751D01*
Y298751D01*
X320611D01*
X319611Y297751D01*
X318611Y298751D01*
X317611D01*
Y297751D01*
X318611Y296751D01*
X317611Y295751D01*
Y294751D01*
X221000Y350000D02*
X222000D01*
X223000Y351000D01*
X224000Y350000D01*
X225000D01*
Y351000D01*
X224000Y352000D01*
X225000Y353000D01*
Y354000D01*
X224000D01*
X223000Y353000D01*
X222000Y354000D01*
X221000D01*
Y353000D01*
X222000Y352000D01*
X221000Y351000D01*
Y350000D01*
X220368Y291059D02*
X221368D01*
X222368Y292059D01*
X223368Y291059D01*
X224368D01*
Y292059D01*
X223368Y293059D01*
X224368Y294059D01*
Y295059D01*
X223368D01*
X222368Y294059D01*
X221368Y295059D01*
X220368D01*
Y294059D01*
X221368Y293059D01*
X220368Y292059D01*
Y291059D01*
X415162Y28704D02*
X416162D01*
X417162Y29704D01*
X418162Y28704D01*
X419162D01*
Y29704D01*
X418162Y30704D01*
X419162Y31704D01*
Y32704D01*
X418162D01*
X417162Y31704D01*
X416162Y32704D01*
X415162D01*
Y31704D01*
X416162Y30704D01*
X415162Y29704D01*
Y28704D01*
X249764Y250977D02*
X250764D01*
X251764Y251977D01*
X252764Y250977D01*
X253764D01*
Y251977D01*
X252764Y252977D01*
X253764Y253977D01*
Y254977D01*
X252764D01*
X251764Y253977D01*
X250764Y254977D01*
X249764D01*
Y253977D01*
X250764Y252977D01*
X249764Y251977D01*
Y250977D01*
X332207Y30969D02*
X333208D01*
X334208Y31969D01*
X335208Y30969D01*
X336208D01*
Y31969D01*
X335208Y32969D01*
X336208Y33969D01*
Y34969D01*
X335208D01*
X334208Y33969D01*
X333208Y34969D01*
X332207D01*
Y33969D01*
X333208Y32969D01*
X332207Y31969D01*
Y30969D01*
X220337Y388799D02*
X221337D01*
X222337Y389799D01*
X223337Y388799D01*
X224337D01*
Y389799D01*
X223337Y390799D01*
X224337Y391799D01*
Y392799D01*
X223337D01*
X222337Y391799D01*
X221337Y392799D01*
X220337D01*
Y391799D01*
X221337Y390799D01*
X220337Y389799D01*
Y388799D01*
X220270Y340592D02*
X221270D01*
X222270Y341592D01*
X223270Y340592D01*
X224270D01*
Y341592D01*
X223270Y342592D01*
X224270Y343592D01*
Y344592D01*
X223270D01*
X222270Y343592D01*
X221270Y344592D01*
X220270D01*
Y343592D01*
X221270Y342592D01*
X220270Y341592D01*
Y340592D01*
X217863Y317762D02*
X218863D01*
X219863Y318762D01*
X220863Y317762D01*
X221863D01*
Y318762D01*
X220863Y319762D01*
X221863Y320762D01*
Y321762D01*
X220863D01*
X219863Y320762D01*
X218863Y321762D01*
X217863D01*
Y320762D01*
X218863Y319762D01*
X217863Y318762D01*
Y317762D01*
X215996Y396072D02*
X216996D01*
X217996Y397072D01*
X218996Y396072D01*
X219996D01*
Y397072D01*
X218996Y398072D01*
X219996Y399072D01*
Y400072D01*
X218996D01*
X217996Y399072D01*
X216996Y400072D01*
X215996D01*
Y399072D01*
X216996Y398072D01*
X215996Y397072D01*
Y396072D01*
X215842Y370394D02*
X216842D01*
X217842Y371394D01*
X218842Y370394D01*
X219842D01*
Y371394D01*
X218842Y372394D01*
X219842Y373394D01*
Y374394D01*
X218842D01*
X217842Y373394D01*
X216842Y374394D01*
X215842D01*
Y373394D01*
X216842Y372394D01*
X215842Y371394D01*
Y370394D01*
X219119Y269726D02*
X220119D01*
X221119Y270726D01*
X222119Y269726D01*
X223119D01*
Y270726D01*
X222119Y271726D01*
X223119Y272726D01*
Y273726D01*
X222119D01*
X221119Y272726D01*
X220119Y273726D01*
X219119D01*
Y272726D01*
X220119Y271726D01*
X219119Y270726D01*
Y269726D01*
X196931Y315904D02*
X197931D01*
X198931Y316904D01*
X199931Y315904D01*
X200931D01*
Y316904D01*
X199931Y317904D01*
X200931Y318904D01*
Y319904D01*
X199931D01*
X198931Y318904D01*
X197931Y319904D01*
X196931D01*
Y318904D01*
X197931Y317904D01*
X196931Y316904D01*
Y315904D01*
X215849Y300546D02*
X216849D01*
X217849Y301546D01*
X218849Y300546D01*
X219849D01*
Y301546D01*
X218849Y302546D01*
X219849Y303546D01*
Y304546D01*
X218849D01*
X217849Y303546D01*
X216849Y304546D01*
X215849D01*
Y303546D01*
X216849Y302546D01*
X215849Y301546D01*
Y300546D01*
X181970Y328022D02*
X182970D01*
X183970Y329022D01*
X184970Y328022D01*
X185970D01*
Y329022D01*
X184970Y330022D01*
X185970Y331022D01*
Y332022D01*
X184970D01*
X183970Y331022D01*
X182970Y332022D01*
X181970D01*
Y331022D01*
X182970Y330022D01*
X181970Y329022D01*
Y328022D01*
X94545Y264176D02*
X95545D01*
X96545Y265176D01*
X97545Y264176D01*
X98545D01*
Y265176D01*
X97545Y266176D01*
X98545Y267176D01*
Y268176D01*
X97545D01*
X96545Y267176D01*
X95545Y268176D01*
X94545D01*
Y267176D01*
X95545Y266176D01*
X94545Y265176D01*
Y264176D01*
X147827Y260448D02*
X148827D01*
X149827Y261448D01*
X150827Y260448D01*
X151827D01*
Y261448D01*
X150827Y262448D01*
X151827Y263448D01*
Y264448D01*
X150827D01*
X149827Y263448D01*
X148827Y264448D01*
X147827D01*
Y263448D01*
X148827Y262448D01*
X147827Y261448D01*
Y260448D01*
X203000Y143000D02*
X204000D01*
X205000Y144000D01*
X206000Y143000D01*
X207000D01*
Y144000D01*
X206000Y145000D01*
X207000Y146000D01*
Y147000D01*
X206000D01*
X205000Y146000D01*
X204000Y147000D01*
X203000D01*
Y146000D01*
X204000Y145000D01*
X203000Y144000D01*
Y143000D01*
X53700Y149236D02*
X54700D01*
X55700Y150236D01*
X56700Y149236D01*
X57700D01*
Y150236D01*
X56700Y151236D01*
X57700Y152236D01*
Y153236D01*
X56700D01*
X55700Y152236D01*
X54700Y153236D01*
X53700D01*
Y152236D01*
X54700Y151236D01*
X53700Y150236D01*
Y149236D01*
X224215Y114911D02*
X225215D01*
X226215Y115911D01*
X227215Y114911D01*
X228215D01*
Y115911D01*
X227215Y116911D01*
X228215Y117912D01*
Y118912D01*
X227215D01*
X226215Y117912D01*
X225215Y118912D01*
X224215D01*
Y117912D01*
X225215Y116911D01*
X224215Y115911D01*
Y114911D01*
X222536Y116571D02*
X223536D01*
X224536Y117571D01*
X225536Y116571D01*
X226536D01*
Y117571D01*
X225536Y118571D01*
X226536Y119571D01*
Y120571D01*
X225536D01*
X224536Y119571D01*
X223536Y120571D01*
X222536D01*
Y119571D01*
X223536Y118571D01*
X222536Y117571D01*
Y116571D01*
X221615Y164972D02*
X222615D01*
X223615Y165972D01*
X224615Y164972D01*
X225615D01*
Y165972D01*
X224615Y166972D01*
X225615Y167972D01*
Y168972D01*
X224615D01*
X223615Y167972D01*
X222615Y168972D01*
X221615D01*
Y167972D01*
X222615Y166972D01*
X221615Y165972D01*
Y164972D01*
X221604Y162031D02*
X222604D01*
X223604Y163031D01*
X224604Y162031D01*
X225604D01*
Y163031D01*
X224604Y164031D01*
X225604Y165031D01*
Y166031D01*
X224604D01*
X223604Y165031D01*
X222604Y166031D01*
X221604D01*
Y165031D01*
X222604Y164031D01*
X221604Y163031D01*
Y162031D01*
X231343Y169587D02*
X232343D01*
X233343Y170587D01*
X234343Y169587D01*
X235343D01*
Y170587D01*
X234343Y171587D01*
X235343Y172587D01*
Y173587D01*
X234343D01*
X233343Y172587D01*
X232343Y173587D01*
X231343D01*
Y172587D01*
X232343Y171587D01*
X231343Y170587D01*
Y169587D01*
X249000Y81000D02*
X250000D01*
X251000Y82000D01*
X252000Y81000D01*
X253000D01*
Y82000D01*
X252000Y83000D01*
X253000Y84000D01*
Y85000D01*
X252000D01*
X251000Y84000D01*
X250000Y85000D01*
X249000D01*
Y84000D01*
X250000Y83000D01*
X249000Y82000D01*
Y81000D01*
X243933Y121312D02*
X244933D01*
X245933Y122312D01*
X246933Y121312D01*
X247933D01*
Y122312D01*
X246933Y123312D01*
X247933Y124312D01*
Y125312D01*
X246933D01*
X245933Y124312D01*
X244933Y125312D01*
X243933D01*
Y124312D01*
X244933Y123312D01*
X243933Y122312D01*
Y121312D01*
X237098Y122472D02*
X238098D01*
X239098Y123472D01*
X240098Y122472D01*
X241098D01*
Y123472D01*
X240098Y124472D01*
X241098Y125472D01*
Y126472D01*
X240098D01*
X239098Y125472D01*
X238098Y126472D01*
X237098D01*
Y125472D01*
X238098Y124472D01*
X237098Y123472D01*
Y122472D01*
X230873Y125236D02*
X231873D01*
X232873Y126236D01*
X233873Y125236D01*
X234873D01*
Y126236D01*
X233873Y127236D01*
X234873Y128236D01*
Y129236D01*
X233873D01*
X232873Y128236D01*
X231873Y129236D01*
X230873D01*
Y128236D01*
X231873Y127236D01*
X230873Y126236D01*
Y125236D01*
X231594Y162941D02*
X232594D01*
X233594Y163941D01*
X234594Y162941D01*
X235594D01*
Y163941D01*
X234594Y164941D01*
X235594Y165941D01*
Y166941D01*
X234594D01*
X233594Y165941D01*
X232594Y166941D01*
X231594D01*
Y165941D01*
X232594Y164941D01*
X231594Y163941D01*
Y162941D01*
X231325Y142933D02*
X232325D01*
X233325Y143933D01*
X234325Y142933D01*
X235325D01*
Y143933D01*
X234325Y144933D01*
X235325Y145933D01*
Y146933D01*
X234325D01*
X233325Y145933D01*
X232325Y146933D01*
X231325D01*
Y145933D01*
X232325Y144933D01*
X231325Y143933D01*
Y142933D01*
X224000Y83000D02*
X225000D01*
X226000Y84000D01*
X227000Y83000D01*
X228000D01*
Y84000D01*
X227000Y85000D01*
X228000Y86000D01*
Y87000D01*
X227000D01*
X226000Y86000D01*
X225000Y87000D01*
X224000D01*
Y86000D01*
X225000Y85000D01*
X224000Y84000D01*
Y83000D01*
X199000Y97000D02*
X200000D01*
X201000Y98000D01*
X202000Y97000D01*
X203000D01*
Y98000D01*
X202000Y99000D01*
X203000Y100000D01*
Y101000D01*
X202000D01*
X201000Y100000D01*
X200000Y101000D01*
X199000D01*
Y100000D01*
X200000Y99000D01*
X199000Y98000D01*
Y97000D01*
X204000Y361000D02*
X205000D01*
X206000Y362000D01*
X207000Y361000D01*
X208000D01*
Y362000D01*
X207000Y363000D01*
X208000Y364000D01*
Y365000D01*
X207000D01*
X206000Y364000D01*
X205000Y365000D01*
X204000D01*
Y364000D01*
X205000Y363000D01*
X204000Y362000D01*
Y361000D01*
X392896Y203465D02*
X393896D01*
X394896Y204465D01*
X395896Y203465D01*
X396896D01*
Y204465D01*
X395896Y205465D01*
X396896Y206465D01*
Y207465D01*
X395896D01*
X394896Y206465D01*
X393896Y207465D01*
X392896D01*
Y206465D01*
X393896Y205465D01*
X392896Y204465D01*
Y203465D01*
X400421Y210482D02*
X401421D01*
X402422Y211482D01*
X403421Y210482D01*
X404422D01*
Y211482D01*
X403421Y212482D01*
X404422Y213482D01*
Y214482D01*
X403421D01*
X402422Y213482D01*
X401421Y214482D01*
X400421D01*
Y213482D01*
X401421Y212482D01*
X400421Y211482D01*
Y210482D01*
X67889Y366011D02*
Y365011D01*
X69889D01*
Y366011D01*
X70889D01*
Y368011D01*
X69889D01*
Y369011D01*
X67889D01*
Y368011D01*
X66889D01*
Y366011D01*
X67889D01*
X72220D02*
Y365011D01*
X74220D01*
Y366011D01*
X75220D01*
Y368011D01*
X74220D01*
Y369011D01*
X72220D01*
Y368011D01*
X71220D01*
Y366011D01*
X72220D01*
X67889Y361680D02*
Y360680D01*
X69889D01*
Y361680D01*
X70889D01*
Y363680D01*
X69889D01*
Y364680D01*
X67889D01*
Y363680D01*
X66889D01*
Y361680D01*
X67889D01*
X72220D02*
Y360680D01*
X74220D01*
Y361680D01*
X75220D01*
Y363680D01*
X74220D01*
Y364680D01*
X72220D01*
Y363680D01*
X71220D01*
Y361680D01*
X72220D01*
X67889Y357349D02*
Y356349D01*
X69889D01*
Y357349D01*
X70889D01*
Y359349D01*
X69889D01*
Y360349D01*
X67889D01*
Y359349D01*
X66889D01*
Y357349D01*
X67889D01*
X72220Y357349D02*
Y356349D01*
X74220D01*
Y357349D01*
X75220D01*
Y359349D01*
X74220D01*
Y360349D01*
X72220D01*
Y359349D01*
X71220D01*
Y357349D01*
X72220D01*
X129365Y365767D02*
Y364767D01*
X131365D01*
Y365767D01*
X132365D01*
Y367767D01*
X131365D01*
Y368767D01*
X129365D01*
Y367767D01*
X128365D01*
Y365767D01*
X129365D01*
X133696D02*
Y364767D01*
X135696D01*
Y365767D01*
X136696D01*
Y367767D01*
X135696D01*
Y368767D01*
X133696D01*
Y367767D01*
X132696D01*
Y365767D01*
X133696D01*
X129365Y361437D02*
Y360437D01*
X131365D01*
Y361437D01*
X132365D01*
Y363437D01*
X131365D01*
Y364437D01*
X129365D01*
Y363437D01*
X128365D01*
Y361437D01*
X129365D01*
X133696D02*
Y360437D01*
X135696D01*
Y361437D01*
X136696D01*
Y363437D01*
X135696D01*
Y364437D01*
X133696D01*
Y363437D01*
X132696D01*
Y361437D01*
X133696D01*
X129365Y357106D02*
Y356106D01*
X131365D01*
Y357106D01*
X132365D01*
Y359106D01*
X131365D01*
Y360106D01*
X129365D01*
Y359106D01*
X128365D01*
Y357106D01*
X129365D01*
X133696D02*
Y356106D01*
X135696D01*
Y357106D01*
X136696D01*
Y359106D01*
X135696D01*
Y360106D01*
X133696D01*
Y359106D01*
X132696D01*
Y357106D01*
X133696D01*
D125*
X63000Y60500D02*
G03*
X63000Y60500I-2000J0D01*
G01*
Y225500D02*
G03*
X63000Y225500I-2000J0D01*
G01*
X323000Y48000D02*
G03*
X323000Y48000I-2000J0D01*
G01*
Y238000D02*
G03*
X323000Y238000I-2000J0D01*
G01*
M02*
