G04*
G04 #@! TF.GenerationSoftware,Altium Limited,Altium Designer,25.8.1 (18)*
G04*
G04 Layer_Physical_Order=2*
G04 Layer_Color=36540*
%FSLAX25Y25*%
%MOIN*%
G70*
G04*
G04 #@! TF.SameCoordinates,8555A115-1401-43ED-8721-A1A47631EB87*
G04*
G04*
G04 #@! TF.FilePolarity,Positive*
G04*
G01*
G75*
%ADD101C,0.06000*%
%ADD102C,0.05315*%
%ADD105C,0.02362*%
%ADD106C,0.02000*%
G36*
X475785Y423262D02*
X477266Y422865D01*
X478683Y422278D01*
X480011Y421512D01*
X481227Y420578D01*
X482312Y419494D01*
X483245Y418277D01*
X484012Y416950D01*
X484598Y415533D01*
X484995Y414052D01*
X485195Y412532D01*
Y411765D01*
Y180088D01*
Y179321D01*
X484995Y177801D01*
X484598Y176320D01*
X484012Y174903D01*
X483245Y173575D01*
X482311Y172359D01*
X481227Y171274D01*
X480011Y170341D01*
X478683Y169574D01*
X477266Y168987D01*
X475785Y168590D01*
X474265Y168390D01*
X300959D01*
X300652Y168329D01*
X300391Y168155D01*
X300217Y167895D01*
X300156Y167588D01*
Y98690D01*
X300217Y98383D01*
X300391Y98122D01*
X300652Y97948D01*
X300959Y97887D01*
X474265D01*
X475785Y97687D01*
X477266Y97290D01*
X478683Y96703D01*
X480011Y95937D01*
X481227Y95003D01*
X482312Y93919D01*
X483245Y92703D01*
X484012Y91375D01*
X484598Y89958D01*
X484995Y88477D01*
X485195Y86957D01*
Y86190D01*
Y12765D01*
Y11998D01*
X484995Y10478D01*
X484598Y8997D01*
X484012Y7580D01*
X483245Y6252D01*
X482311Y5036D01*
X481227Y3951D01*
X480011Y3018D01*
X478683Y2251D01*
X477266Y1664D01*
X475785Y1268D01*
X474265Y1068D01*
X44732D01*
X43211Y1268D01*
X41730Y1664D01*
X40314Y2251D01*
X38986Y3018D01*
X37769Y3951D01*
X36685Y5036D01*
X35752Y6252D01*
X34985Y7580D01*
X34398Y8997D01*
X34001Y10478D01*
X33801Y11998D01*
Y12765D01*
Y411765D01*
Y412532D01*
X34001Y414052D01*
X34398Y415533D01*
X34985Y416949D01*
X35752Y418277D01*
X36685Y419494D01*
X37769Y420578D01*
X38986Y421512D01*
X40314Y422278D01*
X41730Y422865D01*
X43211Y423262D01*
X44732Y423462D01*
X474265D01*
X475785Y423262D01*
D02*
G37*
%LPC*%
G36*
X157999Y419252D02*
X157408D01*
X156863Y419026D01*
X156445Y418608D01*
X156219Y418063D01*
Y417472D01*
X156445Y416927D01*
X156863Y416509D01*
X157408Y416283D01*
X157999D01*
X158544Y416509D01*
X158962Y416927D01*
X159188Y417472D01*
Y418063D01*
X158962Y418608D01*
X158544Y419026D01*
X157999Y419252D01*
D02*
G37*
G36*
X153999D02*
X153408D01*
X152863Y419026D01*
X152445Y418608D01*
X152219Y418063D01*
Y417472D01*
X152445Y416927D01*
X152863Y416509D01*
X153408Y416283D01*
X153999D01*
X154544Y416509D01*
X154962Y416927D01*
X155188Y417472D01*
Y418063D01*
X154962Y418608D01*
X154544Y419026D01*
X153999Y419252D01*
D02*
G37*
G36*
X149999D02*
X149408D01*
X148863Y419026D01*
X148445Y418608D01*
X148219Y418063D01*
Y417472D01*
X148445Y416927D01*
X148863Y416509D01*
X149408Y416283D01*
X149999D01*
X150544Y416509D01*
X150962Y416927D01*
X151188Y417472D01*
Y418063D01*
X150962Y418608D01*
X150544Y419026D01*
X149999Y419252D01*
D02*
G37*
G36*
X145999D02*
X145408D01*
X144863Y419026D01*
X144445Y418608D01*
X144219Y418063D01*
Y417472D01*
X144445Y416927D01*
X144863Y416509D01*
X145408Y416283D01*
X145999D01*
X146544Y416509D01*
X146962Y416927D01*
X147188Y417472D01*
Y418063D01*
X146962Y418608D01*
X146544Y419026D01*
X145999Y419252D01*
D02*
G37*
G36*
X142076Y419182D02*
X141485D01*
X140940Y418956D01*
X140522Y418539D01*
X140296Y417993D01*
Y417403D01*
X140522Y416857D01*
X140940Y416440D01*
X141485Y416214D01*
X142076D01*
X142621Y416440D01*
X143039Y416857D01*
X143265Y417403D01*
Y417993D01*
X143039Y418539D01*
X142621Y418956D01*
X142076Y419182D01*
D02*
G37*
G36*
X102328Y419050D02*
X101737D01*
X101192Y418824D01*
X100774Y418407D01*
X100548Y417861D01*
Y417271D01*
X100774Y416725D01*
X101192Y416308D01*
X101737Y416082D01*
X102328D01*
X102873Y416308D01*
X103291Y416725D01*
X103517Y417271D01*
Y417861D01*
X103291Y418407D01*
X102873Y418824D01*
X102328Y419050D01*
D02*
G37*
G36*
X98328D02*
X97737D01*
X97192Y418824D01*
X96774Y418407D01*
X96548Y417861D01*
Y417271D01*
X96774Y416725D01*
X97192Y416308D01*
X97737Y416082D01*
X98328D01*
X98873Y416308D01*
X99291Y416725D01*
X99517Y417271D01*
Y417861D01*
X99291Y418407D01*
X98873Y418824D01*
X98328Y419050D01*
D02*
G37*
G36*
X94328D02*
X93737D01*
X93192Y418824D01*
X92774Y418407D01*
X92548Y417861D01*
Y417271D01*
X92774Y416725D01*
X93192Y416308D01*
X93737Y416082D01*
X94328D01*
X94873Y416308D01*
X95291Y416725D01*
X95517Y417271D01*
Y417861D01*
X95291Y418407D01*
X94873Y418824D01*
X94328Y419050D01*
D02*
G37*
G36*
X90328D02*
X89737D01*
X89192Y418824D01*
X88774Y418407D01*
X88548Y417861D01*
Y417271D01*
X88774Y416725D01*
X89192Y416308D01*
X89737Y416082D01*
X90328D01*
X90873Y416308D01*
X91291Y416725D01*
X91517Y417271D01*
Y417861D01*
X91291Y418407D01*
X90873Y418824D01*
X90328Y419050D01*
D02*
G37*
G36*
X86405Y418981D02*
X85814D01*
X85269Y418755D01*
X84851Y418337D01*
X84625Y417792D01*
Y417201D01*
X84851Y416655D01*
X85269Y416238D01*
X85814Y416012D01*
X86405D01*
X86950Y416238D01*
X87368Y416655D01*
X87594Y417201D01*
Y417792D01*
X87368Y418337D01*
X86950Y418755D01*
X86405Y418981D01*
D02*
G37*
G36*
X423885Y417671D02*
X423295D01*
X422749Y417445D01*
X422332Y417027D01*
X422106Y416482D01*
Y415891D01*
X422332Y415346D01*
X422749Y414928D01*
X423295Y414702D01*
X423885D01*
X424431Y414928D01*
X424848Y415346D01*
X425074Y415891D01*
Y416482D01*
X424848Y417027D01*
X424431Y417445D01*
X423885Y417671D01*
D02*
G37*
G36*
X390189Y417635D02*
X389599D01*
X389053Y417409D01*
X388636Y416992D01*
X388410Y416446D01*
Y415856D01*
X388636Y415310D01*
X389053Y414893D01*
X389599Y414667D01*
X390189D01*
X390735Y414893D01*
X391152Y415310D01*
X391378Y415856D01*
Y416446D01*
X391152Y416992D01*
X390735Y417409D01*
X390189Y417635D01*
D02*
G37*
G36*
X419962Y417601D02*
X419372D01*
X418826Y417375D01*
X418409Y416958D01*
X418183Y416412D01*
Y415822D01*
X418409Y415276D01*
X418826Y414859D01*
X419372Y414633D01*
X419962D01*
X420508Y414859D01*
X420925Y415276D01*
X421151Y415822D01*
Y416412D01*
X420925Y416958D01*
X420508Y417375D01*
X419962Y417601D01*
D02*
G37*
G36*
X415962D02*
X415372D01*
X414826Y417375D01*
X414409Y416958D01*
X414183Y416412D01*
Y415822D01*
X414409Y415276D01*
X414826Y414859D01*
X415372Y414633D01*
X415962D01*
X416508Y414859D01*
X416925Y415276D01*
X417151Y415822D01*
Y416412D01*
X416925Y416958D01*
X416508Y417375D01*
X415962Y417601D01*
D02*
G37*
G36*
X386266Y417566D02*
X385676D01*
X385130Y417340D01*
X384713Y416922D01*
X384487Y416377D01*
Y415786D01*
X384713Y415241D01*
X385130Y414823D01*
X385676Y414597D01*
X386266D01*
X386812Y414823D01*
X387229Y415241D01*
X387455Y415786D01*
Y416377D01*
X387229Y416922D01*
X386812Y417340D01*
X386266Y417566D01*
D02*
G37*
G36*
X382266D02*
X381676D01*
X381130Y417340D01*
X380713Y416922D01*
X380487Y416377D01*
Y415786D01*
X380713Y415241D01*
X381130Y414823D01*
X381676Y414597D01*
X382266D01*
X382812Y414823D01*
X383229Y415241D01*
X383455Y415786D01*
Y416377D01*
X383229Y416922D01*
X382812Y417340D01*
X382266Y417566D01*
D02*
G37*
G36*
X408162Y417564D02*
X407571D01*
X407026Y417338D01*
X406608Y416920D01*
X406382Y416375D01*
Y415784D01*
X406608Y415239D01*
X407026Y414821D01*
X407571Y414595D01*
X408162D01*
X408707Y414821D01*
X409125Y415239D01*
X409351Y415784D01*
Y416375D01*
X409125Y416920D01*
X408707Y417338D01*
X408162Y417564D01*
D02*
G37*
G36*
X374162Y417546D02*
X373571D01*
X373026Y417320D01*
X372608Y416903D01*
X372382Y416357D01*
Y415767D01*
X372608Y415221D01*
X373026Y414804D01*
X373571Y414578D01*
X374162D01*
X374707Y414804D01*
X375125Y415221D01*
X375351Y415767D01*
Y416357D01*
X375125Y416903D01*
X374707Y417320D01*
X374162Y417546D01*
D02*
G37*
G36*
X404239Y417494D02*
X403648D01*
X403103Y417268D01*
X402685Y416851D01*
X402459Y416305D01*
Y415715D01*
X402685Y415169D01*
X403103Y414752D01*
X403648Y414526D01*
X404239D01*
X404784Y414752D01*
X405202Y415169D01*
X405428Y415715D01*
Y416305D01*
X405202Y416851D01*
X404784Y417268D01*
X404239Y417494D01*
D02*
G37*
G36*
X400239D02*
X399648D01*
X399103Y417268D01*
X398685Y416851D01*
X398459Y416305D01*
Y415715D01*
X398685Y415169D01*
X399103Y414752D01*
X399648Y414526D01*
X400239D01*
X400784Y414752D01*
X401202Y415169D01*
X401428Y415715D01*
Y416305D01*
X401202Y416851D01*
X400784Y417268D01*
X400239Y417494D01*
D02*
G37*
G36*
X370239Y417477D02*
X369648D01*
X369103Y417251D01*
X368685Y416833D01*
X368459Y416288D01*
Y415697D01*
X368685Y415152D01*
X369103Y414734D01*
X369648Y414508D01*
X370239D01*
X370784Y414734D01*
X371202Y415152D01*
X371428Y415697D01*
Y416288D01*
X371202Y416833D01*
X370784Y417251D01*
X370239Y417477D01*
D02*
G37*
G36*
X366239D02*
X365648D01*
X365103Y417251D01*
X364685Y416833D01*
X364459Y416288D01*
Y415697D01*
X364685Y415152D01*
X365103Y414734D01*
X365648Y414508D01*
X366239D01*
X366784Y414734D01*
X367202Y415152D01*
X367428Y415697D01*
Y416288D01*
X367202Y416833D01*
X366784Y417251D01*
X366239Y417477D01*
D02*
G37*
G36*
X157999Y415623D02*
X157408D01*
X156863Y415397D01*
X156445Y414980D01*
X156219Y414434D01*
Y413844D01*
X156445Y413298D01*
X156863Y412881D01*
X157408Y412655D01*
X157999D01*
X158544Y412881D01*
X158962Y413298D01*
X159188Y413844D01*
Y414434D01*
X158962Y414980D01*
X158544Y415397D01*
X157999Y415623D01*
D02*
G37*
G36*
X153999D02*
X153408D01*
X152863Y415397D01*
X152445Y414980D01*
X152219Y414434D01*
Y413844D01*
X152445Y413298D01*
X152863Y412881D01*
X153408Y412655D01*
X153999D01*
X154544Y412881D01*
X154962Y413298D01*
X155188Y413844D01*
Y414434D01*
X154962Y414980D01*
X154544Y415397D01*
X153999Y415623D01*
D02*
G37*
G36*
X149999D02*
X149408D01*
X148863Y415397D01*
X148445Y414980D01*
X148219Y414434D01*
Y413844D01*
X148445Y413298D01*
X148863Y412881D01*
X149408Y412655D01*
X149999D01*
X150544Y412881D01*
X150962Y413298D01*
X151188Y413844D01*
Y414434D01*
X150962Y414980D01*
X150544Y415397D01*
X149999Y415623D01*
D02*
G37*
G36*
X145999D02*
X145408D01*
X144863Y415397D01*
X144445Y414980D01*
X144219Y414434D01*
Y413844D01*
X144445Y413298D01*
X144863Y412881D01*
X145408Y412655D01*
X145999D01*
X146544Y412881D01*
X146962Y413298D01*
X147188Y413844D01*
Y414434D01*
X146962Y414980D01*
X146544Y415397D01*
X145999Y415623D01*
D02*
G37*
G36*
X142076Y415554D02*
X141485D01*
X140940Y415328D01*
X140522Y414910D01*
X140296Y414365D01*
Y413774D01*
X140522Y413229D01*
X140940Y412811D01*
X141485Y412585D01*
X142076D01*
X142621Y412811D01*
X143039Y413229D01*
X143265Y413774D01*
Y414365D01*
X143039Y414910D01*
X142621Y415328D01*
X142076Y415554D01*
D02*
G37*
G36*
X102328Y415422D02*
X101737D01*
X101192Y415196D01*
X100774Y414778D01*
X100548Y414233D01*
Y413642D01*
X100774Y413097D01*
X101192Y412679D01*
X101737Y412453D01*
X102328D01*
X102873Y412679D01*
X103291Y413097D01*
X103517Y413642D01*
Y414233D01*
X103291Y414778D01*
X102873Y415196D01*
X102328Y415422D01*
D02*
G37*
G36*
X98328D02*
X97737D01*
X97192Y415196D01*
X96774Y414778D01*
X96548Y414233D01*
Y413642D01*
X96774Y413097D01*
X97192Y412679D01*
X97737Y412453D01*
X98328D01*
X98873Y412679D01*
X99291Y413097D01*
X99517Y413642D01*
Y414233D01*
X99291Y414778D01*
X98873Y415196D01*
X98328Y415422D01*
D02*
G37*
G36*
X94328D02*
X93737D01*
X93192Y415196D01*
X92774Y414778D01*
X92548Y414233D01*
Y413642D01*
X92774Y413097D01*
X93192Y412679D01*
X93737Y412453D01*
X94328D01*
X94873Y412679D01*
X95291Y413097D01*
X95517Y413642D01*
Y414233D01*
X95291Y414778D01*
X94873Y415196D01*
X94328Y415422D01*
D02*
G37*
G36*
X90328D02*
X89737D01*
X89192Y415196D01*
X88774Y414778D01*
X88548Y414233D01*
Y413642D01*
X88774Y413097D01*
X89192Y412679D01*
X89737Y412453D01*
X90328D01*
X90873Y412679D01*
X91291Y413097D01*
X91517Y413642D01*
Y414233D01*
X91291Y414778D01*
X90873Y415196D01*
X90328Y415422D01*
D02*
G37*
G36*
X86405Y415352D02*
X85814D01*
X85269Y415126D01*
X84851Y414709D01*
X84625Y414163D01*
Y413573D01*
X84851Y413027D01*
X85269Y412609D01*
X85814Y412384D01*
X86405D01*
X86950Y412609D01*
X87368Y413027D01*
X87594Y413573D01*
Y414163D01*
X87368Y414709D01*
X86950Y415126D01*
X86405Y415352D01*
D02*
G37*
G36*
X334163Y412750D02*
X333572D01*
X333027Y412524D01*
X332609Y412107D01*
X332383Y411561D01*
Y410971D01*
X332609Y410425D01*
X333027Y410008D01*
X333572Y409782D01*
X334163D01*
X334708Y410008D01*
X335126Y410425D01*
X335352Y410971D01*
Y411561D01*
X335126Y412107D01*
X334708Y412524D01*
X334163Y412750D01*
D02*
G37*
G36*
X157999Y411994D02*
X157408D01*
X156863Y411768D01*
X156445Y411351D01*
X156219Y410805D01*
Y410215D01*
X156445Y409669D01*
X156863Y409252D01*
X157408Y409026D01*
X157999D01*
X158544Y409252D01*
X158962Y409669D01*
X159188Y410215D01*
Y410805D01*
X158962Y411351D01*
X158544Y411768D01*
X157999Y411994D01*
D02*
G37*
G36*
X153999D02*
X153408D01*
X152863Y411768D01*
X152445Y411351D01*
X152219Y410805D01*
Y410215D01*
X152445Y409669D01*
X152863Y409252D01*
X153408Y409026D01*
X153999D01*
X154544Y409252D01*
X154962Y409669D01*
X155188Y410215D01*
Y410805D01*
X154962Y411351D01*
X154544Y411768D01*
X153999Y411994D01*
D02*
G37*
G36*
X149999D02*
X149408D01*
X148863Y411768D01*
X148445Y411351D01*
X148219Y410805D01*
Y410215D01*
X148445Y409669D01*
X148863Y409252D01*
X149408Y409026D01*
X149999D01*
X150544Y409252D01*
X150962Y409669D01*
X151188Y410215D01*
Y410805D01*
X150962Y411351D01*
X150544Y411768D01*
X149999Y411994D01*
D02*
G37*
G36*
X145999D02*
X145408D01*
X144863Y411768D01*
X144445Y411351D01*
X144219Y410805D01*
Y410215D01*
X144445Y409669D01*
X144863Y409252D01*
X145408Y409026D01*
X145999D01*
X146544Y409252D01*
X146962Y409669D01*
X147188Y410215D01*
Y410805D01*
X146962Y411351D01*
X146544Y411768D01*
X145999Y411994D01*
D02*
G37*
G36*
X142076Y411925D02*
X141485D01*
X140940Y411699D01*
X140522Y411281D01*
X140296Y410736D01*
Y410145D01*
X140522Y409600D01*
X140940Y409182D01*
X141485Y408956D01*
X142076D01*
X142621Y409182D01*
X143039Y409600D01*
X143265Y410145D01*
Y410736D01*
X143039Y411281D01*
X142621Y411699D01*
X142076Y411925D01*
D02*
G37*
G36*
X102328Y411793D02*
X101737D01*
X101192Y411567D01*
X100775Y411149D01*
X100549Y410604D01*
Y410013D01*
X100775Y409468D01*
X101192Y409050D01*
X101737Y408824D01*
X102328D01*
X102874Y409050D01*
X103291Y409468D01*
X103517Y410013D01*
Y410604D01*
X103291Y411149D01*
X102874Y411567D01*
X102328Y411793D01*
D02*
G37*
G36*
X98328D02*
X97737D01*
X97192Y411567D01*
X96775Y411149D01*
X96548Y410604D01*
Y410013D01*
X96775Y409468D01*
X97192Y409050D01*
X97737Y408824D01*
X98328D01*
X98874Y409050D01*
X99291Y409468D01*
X99517Y410013D01*
Y410604D01*
X99291Y411149D01*
X98874Y411567D01*
X98328Y411793D01*
D02*
G37*
G36*
X94328D02*
X93738D01*
X93192Y411567D01*
X92774Y411149D01*
X92549Y410604D01*
Y410013D01*
X92774Y409468D01*
X93192Y409050D01*
X93738Y408824D01*
X94328D01*
X94873Y409050D01*
X95291Y409468D01*
X95517Y410013D01*
Y410604D01*
X95291Y411149D01*
X94873Y411567D01*
X94328Y411793D01*
D02*
G37*
G36*
X90328D02*
X89737D01*
X89192Y411567D01*
X88775Y411149D01*
X88548Y410604D01*
Y410013D01*
X88775Y409468D01*
X89192Y409050D01*
X89737Y408824D01*
X90328D01*
X90873Y409050D01*
X91291Y409468D01*
X91517Y410013D01*
Y410604D01*
X91291Y411149D01*
X90873Y411567D01*
X90328Y411793D01*
D02*
G37*
G36*
X86405Y411723D02*
X85814D01*
X85269Y411497D01*
X84851Y411080D01*
X84626Y410534D01*
Y409944D01*
X84851Y409398D01*
X85269Y408981D01*
X85814Y408755D01*
X86405D01*
X86950Y408981D01*
X87368Y409398D01*
X87594Y409944D01*
Y410534D01*
X87368Y411080D01*
X86950Y411497D01*
X86405Y411723D01*
D02*
G37*
G36*
X241436Y407738D02*
X240846D01*
X240300Y407512D01*
X239883Y407095D01*
X239741Y406753D01*
X239200D01*
X239072Y407061D01*
X238655Y407479D01*
X238109Y407705D01*
X237519D01*
X236973Y407479D01*
X236556Y407061D01*
X236330Y406516D01*
Y405925D01*
X236556Y405380D01*
X236973Y404962D01*
X237519Y404736D01*
X238109D01*
X238655Y404962D01*
X239072Y405380D01*
X239214Y405722D01*
X239755D01*
X239883Y405413D01*
X240300Y404996D01*
X240846Y404770D01*
X241436D01*
X241982Y404996D01*
X242399Y405413D01*
X242625Y405959D01*
Y406549D01*
X242399Y407095D01*
X241982Y407512D01*
X241436Y407738D01*
D02*
G37*
G36*
X330910Y408456D02*
X330320D01*
X329774Y408230D01*
X329357Y407813D01*
X329131Y407267D01*
Y406677D01*
X329357Y406131D01*
X329774Y405714D01*
X330320Y405488D01*
X330910D01*
X331456Y405714D01*
X331873Y406131D01*
X332099Y406677D01*
Y407267D01*
X331873Y407813D01*
X331456Y408230D01*
X330910Y408456D01*
D02*
G37*
G36*
X474256Y419441D02*
X472744D01*
X471261Y419146D01*
X469864Y418567D01*
X468606Y417727D01*
X467537Y416658D01*
X466697Y415400D01*
X466118Y414003D01*
X465823Y412520D01*
Y411008D01*
X466118Y409524D01*
X466697Y408127D01*
X467537Y406870D01*
X468606Y405800D01*
X469864Y404960D01*
X471261Y404382D01*
X472744Y404087D01*
X474256D01*
X475739Y404382D01*
X477137Y404960D01*
X478394Y405800D01*
X479463Y406870D01*
X480303Y408127D01*
X480882Y409524D01*
X481177Y411008D01*
Y412520D01*
X480882Y414003D01*
X480303Y415400D01*
X479463Y416658D01*
X478394Y417727D01*
X477137Y418567D01*
X475739Y419146D01*
X474256Y419441D01*
D02*
G37*
G36*
X46256D02*
X44744D01*
X43261Y419146D01*
X41864Y418567D01*
X40606Y417727D01*
X39537Y416658D01*
X38697Y415400D01*
X38118Y414003D01*
X37823Y412520D01*
Y411008D01*
X38118Y409524D01*
X38697Y408127D01*
X39537Y406870D01*
X40606Y405800D01*
X41864Y404960D01*
X43261Y404382D01*
X44744Y404087D01*
X46256D01*
X47739Y404382D01*
X49136Y404960D01*
X50394Y405800D01*
X51463Y406870D01*
X52303Y408127D01*
X52882Y409524D01*
X53177Y411008D01*
Y412520D01*
X52882Y414003D01*
X52303Y415400D01*
X51463Y416658D01*
X50394Y417727D01*
X49136Y418567D01*
X47739Y419146D01*
X46256Y419441D01*
D02*
G37*
G36*
X339425Y401313D02*
X338835D01*
X338289Y401087D01*
X337872Y400670D01*
X337646Y400124D01*
Y399534D01*
X337872Y398988D01*
X338289Y398571D01*
X338835Y398345D01*
X339425D01*
X339971Y398571D01*
X340388Y398988D01*
X340614Y399534D01*
Y400124D01*
X340388Y400670D01*
X339971Y401087D01*
X339425Y401313D01*
D02*
G37*
G36*
X218291Y399556D02*
X217701D01*
X217155Y399330D01*
X216738Y398912D01*
X216512Y398367D01*
Y397776D01*
X216738Y397231D01*
X217155Y396813D01*
X217701Y396587D01*
X218291D01*
X218837Y396813D01*
X219254Y397231D01*
X219480Y397776D01*
Y398367D01*
X219254Y398912D01*
X218837Y399330D01*
X218291Y399556D01*
D02*
G37*
G36*
X270778Y395832D02*
X270188D01*
X269642Y395606D01*
X269225Y395189D01*
X268999Y394643D01*
Y394053D01*
X269225Y393507D01*
X269642Y393090D01*
X270188Y392864D01*
X270778D01*
X271324Y393090D01*
X271742Y393507D01*
X271968Y394053D01*
Y394643D01*
X271742Y395189D01*
X271324Y395606D01*
X270778Y395832D01*
D02*
G37*
G36*
X230385Y395760D02*
X229795D01*
X229249Y395534D01*
X228831Y395116D01*
X228606Y394571D01*
Y393980D01*
X228831Y393435D01*
X229249Y393017D01*
X229795Y392791D01*
X230385D01*
X230930Y393017D01*
X231348Y393435D01*
X231574Y393980D01*
Y394571D01*
X231348Y395116D01*
X230930Y395534D01*
X230385Y395760D01*
D02*
G37*
G36*
X275501Y395747D02*
X274911D01*
X274365Y395521D01*
X273948Y395103D01*
X273722Y394558D01*
Y393967D01*
X273948Y393422D01*
X274365Y393004D01*
X274911Y392778D01*
X275501D01*
X276047Y393004D01*
X276464Y393422D01*
X276690Y393967D01*
Y394558D01*
X276464Y395103D01*
X276047Y395521D01*
X275501Y395747D01*
D02*
G37*
G36*
X218425Y395313D02*
X217835D01*
X217289Y395087D01*
X216872Y394670D01*
X216646Y394124D01*
Y393534D01*
X216872Y392988D01*
X217289Y392571D01*
X217835Y392345D01*
X218425D01*
X218971Y392571D01*
X219389Y392988D01*
X219614Y393534D01*
Y394124D01*
X219389Y394670D01*
X218971Y395087D01*
X218425Y395313D01*
D02*
G37*
G36*
X222632Y392283D02*
X222042D01*
X221496Y392057D01*
X221079Y391640D01*
X220853Y391094D01*
Y390504D01*
X221079Y389958D01*
X221496Y389541D01*
X222042Y389315D01*
X222632D01*
X223178Y389541D01*
X223595Y389958D01*
X223821Y390504D01*
Y391094D01*
X223595Y391640D01*
X223178Y392057D01*
X222632Y392283D01*
D02*
G37*
G36*
X275454Y391128D02*
X274863D01*
X274318Y390903D01*
X273900Y390485D01*
X273674Y389939D01*
Y389349D01*
X273900Y388804D01*
X274318Y388386D01*
X274863Y388160D01*
X275454D01*
X275999Y388386D01*
X276417Y388804D01*
X276643Y389349D01*
Y389939D01*
X276417Y390485D01*
X275999Y390903D01*
X275454Y391128D01*
D02*
G37*
G36*
X215973Y389353D02*
X215382D01*
X214837Y389127D01*
X214419Y388710D01*
X214193Y388164D01*
Y387574D01*
X214419Y387028D01*
X214765Y386682D01*
X214832Y386514D01*
X214812Y386080D01*
X214532Y385800D01*
X214306Y385255D01*
Y384664D01*
X214532Y384119D01*
X214950Y383701D01*
X215495Y383475D01*
X216086D01*
X216632Y383701D01*
X217049Y384119D01*
X217275Y384664D01*
Y385255D01*
X217049Y385800D01*
X216703Y386146D01*
X216636Y386315D01*
X216656Y386749D01*
X216936Y387028D01*
X217162Y387574D01*
Y388164D01*
X216936Y388710D01*
X216518Y389127D01*
X215973Y389353D01*
D02*
G37*
G36*
X123274Y386250D02*
X122684D01*
X122138Y386024D01*
X121721Y385607D01*
X121494Y385061D01*
Y384471D01*
X121721Y383925D01*
X122138Y383507D01*
X122684Y383281D01*
X123274D01*
X123819Y383507D01*
X124237Y383925D01*
X124463Y384471D01*
Y385061D01*
X124237Y385607D01*
X123819Y386024D01*
X123274Y386250D01*
D02*
G37*
G36*
X293327Y385548D02*
X292737D01*
X292191Y385322D01*
X291774Y384905D01*
X291548Y384359D01*
Y383769D01*
X291774Y383223D01*
X292191Y382806D01*
X292737Y382580D01*
X293327D01*
X293873Y382806D01*
X294290Y383223D01*
X294516Y383769D01*
Y384359D01*
X294290Y384905D01*
X293873Y385322D01*
X293327Y385548D01*
D02*
G37*
G36*
X336748Y389482D02*
X336157D01*
X335612Y389257D01*
X335194Y388839D01*
X334968Y388293D01*
Y387703D01*
X335194Y387158D01*
X335612Y386740D01*
X335619Y386737D01*
Y386196D01*
X335613Y386193D01*
X335196Y385776D01*
X334970Y385230D01*
Y384640D01*
X335196Y384095D01*
X335613Y383677D01*
X336159Y383451D01*
X336392D01*
X336516Y383266D01*
Y382675D01*
X336742Y382130D01*
X337159Y381712D01*
X336865Y381353D01*
X336779Y381267D01*
X336553Y380722D01*
Y380253D01*
X336198Y380036D01*
X336091Y380008D01*
X335841Y380258D01*
X335295Y380484D01*
X334705D01*
X334159Y380258D01*
X333742Y379841D01*
X333516Y379295D01*
Y378705D01*
X333742Y378159D01*
X334159Y377742D01*
X334705Y377516D01*
X335295D01*
X335841Y377742D01*
X336258Y378159D01*
X336484Y378705D01*
Y379174D01*
X336840Y379391D01*
X336946Y379419D01*
X337197Y379168D01*
X337742Y378942D01*
X338333D01*
X338878Y379168D01*
X339296Y379586D01*
X339522Y380131D01*
Y380722D01*
X339296Y381267D01*
X338878Y381685D01*
X339173Y382044D01*
X339258Y382130D01*
X339484Y382675D01*
Y383266D01*
X339258Y383811D01*
X338841Y384229D01*
X338295Y384455D01*
X338062D01*
X337938Y384640D01*
Y385230D01*
X337713Y385776D01*
X337295Y386193D01*
X337288Y386196D01*
Y386738D01*
X337294Y386740D01*
X337711Y387158D01*
X337937Y387703D01*
Y388293D01*
X337711Y388839D01*
X337294Y389257D01*
X336748Y389482D01*
D02*
G37*
G36*
X275410Y382104D02*
X274819D01*
X274274Y381878D01*
X273856Y381460D01*
X273630Y380915D01*
Y380324D01*
X273856Y379779D01*
X274274Y379361D01*
X274819Y379135D01*
X275410D01*
X275955Y379361D01*
X276373Y379779D01*
X276599Y380324D01*
Y380915D01*
X276373Y381460D01*
X275955Y381878D01*
X275410Y382104D01*
D02*
G37*
G36*
X275351Y377886D02*
X274761D01*
X274215Y377660D01*
X273798Y377242D01*
X273572Y376697D01*
Y376106D01*
X273798Y375561D01*
X274215Y375143D01*
X274761Y374917D01*
X275351D01*
X275897Y375143D01*
X276314Y375561D01*
X276540Y376106D01*
Y376697D01*
X276314Y377242D01*
X275897Y377660D01*
X275351Y377886D01*
D02*
G37*
G36*
X271162Y377857D02*
X270572D01*
X270026Y377631D01*
X269609Y377213D01*
X269383Y376668D01*
Y376077D01*
X269609Y375532D01*
X270026Y375114D01*
X270572Y374888D01*
X271162D01*
X271708Y375114D01*
X272125Y375532D01*
X272351Y376077D01*
Y376668D01*
X272125Y377213D01*
X271708Y377631D01*
X271162Y377857D01*
D02*
G37*
G36*
X303585Y376774D02*
X302995D01*
X302449Y376548D01*
X302032Y376131D01*
X301806Y375585D01*
Y374995D01*
X302032Y374449D01*
X302449Y374032D01*
X302995Y373806D01*
X303585D01*
X304131Y374032D01*
X304548Y374449D01*
X304774Y374995D01*
Y375585D01*
X304548Y376131D01*
X304131Y376548D01*
X303585Y376774D01*
D02*
G37*
G36*
X218137Y373878D02*
X217547D01*
X217001Y373652D01*
X216584Y373234D01*
X216358Y372689D01*
Y372098D01*
X216584Y371553D01*
X217001Y371135D01*
X217547Y370909D01*
X218137D01*
X218683Y371135D01*
X219100Y371553D01*
X219326Y372098D01*
Y372689D01*
X219100Y373234D01*
X218683Y373652D01*
X218137Y373878D01*
D02*
G37*
G36*
X337036Y373122D02*
X336446D01*
X335900Y372896D01*
X335483Y372479D01*
X335257Y371933D01*
Y371343D01*
X335483Y370797D01*
X335900Y370380D01*
X336446Y370154D01*
X337036D01*
X337582Y370380D01*
X337999Y370797D01*
X338225Y371343D01*
Y371933D01*
X337999Y372479D01*
X337582Y372896D01*
X337036Y373122D01*
D02*
G37*
G36*
X318524Y372269D02*
X317933D01*
X317388Y372042D01*
X316970Y371625D01*
X316744Y371079D01*
Y370489D01*
X316970Y369943D01*
X317388Y369526D01*
X317933Y369300D01*
X318524D01*
X319069Y369526D01*
X319487Y369943D01*
X319712Y370489D01*
Y371079D01*
X319487Y371625D01*
X319069Y372042D01*
X318524Y372269D01*
D02*
G37*
G36*
X298369Y371941D02*
X297778D01*
X297233Y371715D01*
X296815Y371297D01*
X296589Y370752D01*
Y370161D01*
X296815Y369616D01*
X297233Y369198D01*
X297778Y368972D01*
X298369D01*
X298914Y369198D01*
X299332Y369616D01*
X299558Y370161D01*
Y370752D01*
X299332Y371297D01*
X298914Y371715D01*
X298369Y371941D01*
D02*
G37*
G36*
X208850Y371883D02*
X208259D01*
X207714Y371657D01*
X207296Y371240D01*
X207070Y370694D01*
Y370104D01*
X207296Y369558D01*
X207714Y369141D01*
X208259Y368915D01*
X208850D01*
X209395Y369141D01*
X209813Y369558D01*
X210038Y370104D01*
Y370694D01*
X209813Y371240D01*
X209395Y371657D01*
X208850Y371883D01*
D02*
G37*
G36*
X329020Y370548D02*
X328429D01*
X327884Y370322D01*
X327466Y369905D01*
X327240Y369359D01*
Y368769D01*
X327466Y368223D01*
X327884Y367806D01*
X328429Y367580D01*
X329020D01*
X329565Y367806D01*
X329983Y368223D01*
X330209Y368769D01*
Y369359D01*
X329983Y369905D01*
X329565Y370322D01*
X329020Y370548D01*
D02*
G37*
G36*
X170718Y367641D02*
X170127D01*
X169582Y367415D01*
X169164Y366997D01*
X168938Y366452D01*
Y365861D01*
X169164Y365316D01*
X169582Y364898D01*
X170127Y364672D01*
X170718D01*
X171263Y364898D01*
X171681Y365316D01*
X171907Y365861D01*
Y366452D01*
X171681Y366997D01*
X171263Y367415D01*
X170718Y367641D01*
D02*
G37*
G36*
X181066Y366289D02*
X180476D01*
X179930Y366063D01*
X179513Y365645D01*
X179287Y365100D01*
Y364509D01*
X179513Y363964D01*
X179930Y363546D01*
X180476Y363320D01*
X181066D01*
X181612Y363546D01*
X182029Y363964D01*
X182255Y364509D01*
Y365100D01*
X182029Y365645D01*
X181612Y366063D01*
X181066Y366289D01*
D02*
G37*
G36*
X335783Y365157D02*
X335184D01*
X334630Y364928D01*
X334207Y364504D01*
X333977Y363951D01*
Y363351D01*
X334207Y362798D01*
X334630Y362374D01*
X335184Y362145D01*
X335783D01*
X336336Y362374D01*
X336760Y362798D01*
X336989Y363351D01*
Y363951D01*
X336760Y364504D01*
X336336Y364928D01*
X335783Y365157D01*
D02*
G37*
G36*
X332220D02*
X331621D01*
X331067Y364928D01*
X330644Y364504D01*
X330414Y363951D01*
Y363351D01*
X330644Y362798D01*
X331067Y362374D01*
X331621Y362145D01*
X332220D01*
X332773Y362374D01*
X333197Y362798D01*
X333426Y363351D01*
Y363951D01*
X333197Y364504D01*
X332773Y364928D01*
X332220Y365157D01*
D02*
G37*
G36*
X318614Y365153D02*
X318015D01*
X317461Y364923D01*
X317038Y364500D01*
X316809Y363946D01*
Y363347D01*
X317038Y362794D01*
X317461Y362370D01*
X318015Y362141D01*
X318614D01*
X319167Y362370D01*
X319591Y362794D01*
X319820Y363347D01*
Y363946D01*
X319591Y364500D01*
X319167Y364923D01*
X318614Y365153D01*
D02*
G37*
G36*
X315051D02*
X314452D01*
X313898Y364923D01*
X313475Y364500D01*
X313246Y363946D01*
Y363347D01*
X313475Y362794D01*
X313898Y362370D01*
X314452Y362141D01*
X315051D01*
X315604Y362370D01*
X316028Y362794D01*
X316257Y363347D01*
Y363946D01*
X316028Y364500D01*
X315604Y364923D01*
X315051Y365153D01*
D02*
G37*
G36*
X211274Y365102D02*
X210683D01*
X210138Y364876D01*
X209720Y364458D01*
X209494Y363913D01*
Y363322D01*
X209720Y362777D01*
X210138Y362359D01*
X210683Y362133D01*
X211274D01*
X211819Y362359D01*
X212237Y362777D01*
X212463Y363322D01*
Y363913D01*
X212237Y364458D01*
X211819Y364876D01*
X211274Y365102D01*
D02*
G37*
G36*
X337566Y361318D02*
X336967D01*
X336414Y361089D01*
X335990Y360665D01*
X335761Y360112D01*
Y359513D01*
X335990Y358959D01*
X336414Y358536D01*
X336967Y358307D01*
X337566D01*
X338120Y358536D01*
X338543Y358959D01*
X338773Y359513D01*
Y360112D01*
X338543Y360665D01*
X338120Y361089D01*
X337566Y361318D01*
D02*
G37*
G36*
X334003D02*
X333404D01*
X332851Y361089D01*
X332427Y360665D01*
X332198Y360112D01*
Y359513D01*
X332427Y358959D01*
X332851Y358536D01*
X333404Y358307D01*
X334003D01*
X334557Y358536D01*
X334980Y358959D01*
X335209Y359513D01*
Y360112D01*
X334980Y360665D01*
X334557Y361089D01*
X334003Y361318D01*
D02*
G37*
G36*
X330440D02*
X329841D01*
X329288Y361089D01*
X328864Y360665D01*
X328635Y360112D01*
Y359513D01*
X328864Y358959D01*
X329288Y358536D01*
X329841Y358307D01*
X330440D01*
X330994Y358536D01*
X331417Y358959D01*
X331646Y359513D01*
Y360112D01*
X331417Y360665D01*
X330994Y361089D01*
X330440Y361318D01*
D02*
G37*
G36*
X320397Y361314D02*
X319798D01*
X319245Y361085D01*
X318821Y360661D01*
X318592Y360108D01*
Y359508D01*
X318821Y358955D01*
X319245Y358531D01*
X319798Y358302D01*
X320397D01*
X320951Y358531D01*
X321375Y358955D01*
X321604Y359508D01*
Y360108D01*
X321375Y360661D01*
X320951Y361085D01*
X320397Y361314D01*
D02*
G37*
G36*
X316834D02*
X316235D01*
X315682Y361085D01*
X315258Y360661D01*
X315029Y360108D01*
Y359508D01*
X315258Y358955D01*
X315682Y358531D01*
X316235Y358302D01*
X316834D01*
X317388Y358531D01*
X317812Y358955D01*
X318041Y359508D01*
Y360108D01*
X317812Y360661D01*
X317388Y361085D01*
X316834Y361314D01*
D02*
G37*
G36*
X313271D02*
X312672D01*
X312119Y361085D01*
X311695Y360661D01*
X311466Y360108D01*
Y359508D01*
X311695Y358955D01*
X312119Y358531D01*
X312672Y358302D01*
X313271D01*
X313825Y358531D01*
X314249Y358955D01*
X314478Y359508D01*
Y360108D01*
X314249Y360661D01*
X313825Y361085D01*
X313271Y361314D01*
D02*
G37*
G36*
X240397Y366781D02*
X239807D01*
X239261Y366555D01*
X238844Y366138D01*
X238618Y365592D01*
Y365002D01*
X238844Y364456D01*
X239261Y364038D01*
X239607Y363895D01*
Y363354D01*
X239368Y363255D01*
X238950Y362838D01*
X238724Y362292D01*
Y361701D01*
X238950Y361156D01*
X239368Y360738D01*
X239878Y360527D01*
X239901Y360347D01*
X239878Y360027D01*
X239394Y359827D01*
X238977Y359409D01*
X238751Y358863D01*
Y358273D01*
X238977Y357728D01*
X239394Y357310D01*
X239940Y357084D01*
X240530D01*
X241076Y357310D01*
X241493Y357728D01*
X241719Y358273D01*
Y358863D01*
X241493Y359409D01*
X241076Y359827D01*
X240565Y360038D01*
X240542Y360218D01*
X240565Y360538D01*
X241049Y360738D01*
X241467Y361156D01*
X241693Y361701D01*
Y362292D01*
X241467Y362838D01*
X241049Y363255D01*
X240704Y363398D01*
Y363939D01*
X240943Y364038D01*
X241360Y364456D01*
X241586Y365002D01*
Y365592D01*
X241360Y366138D01*
X240943Y366555D01*
X240397Y366781D01*
D02*
G37*
G36*
X466631Y359679D02*
X466041D01*
X465495Y359453D01*
X465078Y359035D01*
X464852Y358490D01*
Y357899D01*
X465078Y357354D01*
X465495Y356936D01*
X466041Y356710D01*
X466631D01*
X467177Y356936D01*
X467594Y357354D01*
X467820Y357899D01*
Y358490D01*
X467594Y359035D01*
X467177Y359453D01*
X466631Y359679D01*
D02*
G37*
G36*
X335783Y357480D02*
X335184D01*
X334630Y357250D01*
X334207Y356827D01*
X333977Y356273D01*
Y355674D01*
X334207Y355121D01*
X334630Y354697D01*
X335184Y354468D01*
X335783D01*
X336336Y354697D01*
X336760Y355121D01*
X336989Y355674D01*
Y356273D01*
X336760Y356827D01*
X336336Y357250D01*
X335783Y357480D01*
D02*
G37*
G36*
X332220D02*
X331621D01*
X331067Y357250D01*
X330644Y356827D01*
X330414Y356273D01*
Y355674D01*
X330644Y355121D01*
X331067Y354697D01*
X331621Y354468D01*
X332220D01*
X332773Y354697D01*
X333197Y355121D01*
X333426Y355674D01*
Y356273D01*
X333197Y356827D01*
X332773Y357250D01*
X332220Y357480D01*
D02*
G37*
G36*
X318614Y357475D02*
X318015D01*
X317461Y357246D01*
X317038Y356822D01*
X316809Y356269D01*
Y355670D01*
X317038Y355117D01*
X317461Y354693D01*
X318015Y354464D01*
X318614D01*
X319167Y354693D01*
X319591Y355117D01*
X319820Y355670D01*
Y356269D01*
X319591Y356822D01*
X319167Y357246D01*
X318614Y357475D01*
D02*
G37*
G36*
X315051D02*
X314452D01*
X313898Y357246D01*
X313475Y356822D01*
X313246Y356269D01*
Y355670D01*
X313475Y355117D01*
X313898Y354693D01*
X314452Y354464D01*
X315051D01*
X315604Y354693D01*
X316028Y355117D01*
X316257Y355670D01*
Y356269D01*
X316028Y356822D01*
X315604Y357246D01*
X315051Y357475D01*
D02*
G37*
G36*
X441260Y357054D02*
X440669D01*
X440124Y356828D01*
X439706Y356410D01*
X439480Y355865D01*
Y355274D01*
X439706Y354729D01*
X440124Y354311D01*
X440669Y354085D01*
X441260D01*
X441805Y354311D01*
X442223Y354729D01*
X442449Y355274D01*
Y355865D01*
X442223Y356410D01*
X441805Y356828D01*
X441260Y357054D01*
D02*
G37*
G36*
X437631Y357053D02*
X437040D01*
X436495Y356827D01*
X436077Y356410D01*
X435851Y355864D01*
Y355274D01*
X436077Y354728D01*
X436495Y354311D01*
X437040Y354085D01*
X437631D01*
X438176Y354311D01*
X438594Y354728D01*
X438820Y355274D01*
Y355864D01*
X438594Y356410D01*
X438176Y356827D01*
X437631Y357053D01*
D02*
G37*
G36*
X434002Y357053D02*
X433412D01*
X432866Y356827D01*
X432449Y356410D01*
X432223Y355864D01*
Y355274D01*
X432449Y354728D01*
X432866Y354311D01*
X433412Y354085D01*
X434002D01*
X434548Y354311D01*
X434966Y354728D01*
X435191Y355274D01*
Y355864D01*
X434966Y356410D01*
X434548Y356827D01*
X434002Y357053D01*
D02*
G37*
G36*
X441260Y353054D02*
X440669D01*
X440124Y352828D01*
X439706Y352410D01*
X439480Y351865D01*
Y351274D01*
X439706Y350729D01*
X440124Y350311D01*
X440669Y350085D01*
X441260D01*
X441805Y350311D01*
X442223Y350729D01*
X442449Y351274D01*
Y351865D01*
X442223Y352410D01*
X441805Y352828D01*
X441260Y353054D01*
D02*
G37*
G36*
X437631Y353053D02*
X437040D01*
X436495Y352828D01*
X436077Y352410D01*
X435851Y351864D01*
Y351274D01*
X436077Y350728D01*
X436495Y350311D01*
X437040Y350085D01*
X437631D01*
X438176Y350311D01*
X438594Y350728D01*
X438820Y351274D01*
Y351864D01*
X438594Y352410D01*
X438176Y352828D01*
X437631Y353053D01*
D02*
G37*
G36*
X434002D02*
X433412D01*
X432866Y352828D01*
X432449Y352410D01*
X432223Y351864D01*
Y351274D01*
X432449Y350728D01*
X432866Y350311D01*
X433412Y350085D01*
X434002D01*
X434548Y350311D01*
X434966Y350728D01*
X435191Y351274D01*
Y351864D01*
X434966Y352410D01*
X434548Y352828D01*
X434002Y353053D01*
D02*
G37*
G36*
X223295Y353484D02*
X222705D01*
X222159Y353258D01*
X221742Y352841D01*
X221516Y352295D01*
Y351934D01*
X221368Y351632D01*
X221066Y351484D01*
X220705D01*
X220159Y351258D01*
X219742Y350841D01*
X219516Y350295D01*
Y349705D01*
X219742Y349159D01*
X220159Y348742D01*
X220705Y348516D01*
X221295D01*
X221841Y348742D01*
X222258Y349159D01*
X222484Y349705D01*
Y350066D01*
X222632Y350368D01*
X222934Y350516D01*
X223295D01*
X223841Y350742D01*
X224258Y351159D01*
X224484Y351705D01*
Y352295D01*
X224258Y352841D01*
X223841Y353258D01*
X223295Y353484D01*
D02*
G37*
G36*
X318712Y350687D02*
X318121D01*
X317576Y350461D01*
X317158Y350043D01*
X316932Y349497D01*
Y348907D01*
X317158Y348361D01*
X317576Y347944D01*
X318121Y347718D01*
X318712D01*
X319257Y347944D01*
X319675Y348361D01*
X319901Y348907D01*
Y349497D01*
X319675Y350043D01*
X319257Y350461D01*
X318712Y350687D01*
D02*
G37*
G36*
X336758Y350536D02*
X336168D01*
X335622Y350310D01*
X335205Y349893D01*
X334979Y349347D01*
Y348757D01*
X335205Y348211D01*
X335622Y347794D01*
X336168Y347568D01*
X336758D01*
X337304Y347794D01*
X337721Y348211D01*
X337947Y348757D01*
Y349347D01*
X337721Y349893D01*
X337304Y350310D01*
X336758Y350536D01*
D02*
G37*
G36*
X441260Y349054D02*
X440669D01*
X440124Y348828D01*
X439706Y348410D01*
X439480Y347865D01*
Y347274D01*
X439706Y346729D01*
X440124Y346311D01*
X440669Y346085D01*
X441260D01*
X441805Y346311D01*
X442223Y346729D01*
X442449Y347274D01*
Y347865D01*
X442223Y348410D01*
X441805Y348828D01*
X441260Y349054D01*
D02*
G37*
G36*
X437631Y349053D02*
X437040D01*
X436495Y348828D01*
X436077Y348410D01*
X435851Y347864D01*
Y347274D01*
X436077Y346728D01*
X436495Y346311D01*
X437040Y346085D01*
X437631D01*
X438176Y346311D01*
X438594Y346728D01*
X438820Y347274D01*
Y347864D01*
X438594Y348410D01*
X438176Y348828D01*
X437631Y349053D01*
D02*
G37*
G36*
X434002D02*
X433412D01*
X432866Y348828D01*
X432449Y348410D01*
X432223Y347864D01*
Y347274D01*
X432449Y346728D01*
X432866Y346311D01*
X433412Y346085D01*
X434002D01*
X434548Y346311D01*
X434966Y346728D01*
X435191Y347274D01*
Y347864D01*
X434966Y348410D01*
X434548Y348828D01*
X434002Y349053D01*
D02*
G37*
G36*
X230482Y348277D02*
X229891D01*
X229346Y348051D01*
X228928Y347634D01*
X228702Y347088D01*
Y346498D01*
X228928Y345952D01*
X229346Y345535D01*
X229891Y345309D01*
X230482D01*
X231027Y345535D01*
X231445Y345952D01*
X231671Y346498D01*
Y347088D01*
X231445Y347634D01*
X231027Y348051D01*
X230482Y348277D01*
D02*
G37*
G36*
X271015Y348074D02*
X270424D01*
X269879Y347848D01*
X269461Y347431D01*
X269235Y346885D01*
Y346295D01*
X269461Y345749D01*
X269879Y345332D01*
X270424Y345106D01*
X271015D01*
X271560Y345332D01*
X271978Y345749D01*
X272204Y346295D01*
Y346885D01*
X271978Y347431D01*
X271560Y347848D01*
X271015Y348074D01*
D02*
G37*
G36*
X275146Y348027D02*
X274555D01*
X274010Y347801D01*
X273592Y347383D01*
X273366Y346838D01*
Y346247D01*
X273592Y345702D01*
X274010Y345284D01*
X274555Y345058D01*
X275146D01*
X275691Y345284D01*
X276109Y345702D01*
X276335Y346247D01*
Y346838D01*
X276109Y347383D01*
X275691Y347801D01*
X275146Y348027D01*
D02*
G37*
G36*
X441260Y345054D02*
X440669D01*
X440124Y344828D01*
X439706Y344410D01*
X439480Y343865D01*
Y343274D01*
X439706Y342729D01*
X440124Y342311D01*
X440669Y342085D01*
X441260D01*
X441805Y342311D01*
X442223Y342729D01*
X442449Y343274D01*
Y343865D01*
X442223Y344410D01*
X441805Y344828D01*
X441260Y345054D01*
D02*
G37*
G36*
X437631Y345053D02*
X437040D01*
X436495Y344828D01*
X436077Y344410D01*
X435851Y343864D01*
Y343274D01*
X436077Y342728D01*
X436495Y342311D01*
X437040Y342085D01*
X437631D01*
X438176Y342311D01*
X438594Y342728D01*
X438820Y343274D01*
Y343864D01*
X438594Y344410D01*
X438176Y344828D01*
X437631Y345053D01*
D02*
G37*
G36*
X434002D02*
X433412D01*
X432866Y344828D01*
X432449Y344410D01*
X432223Y343864D01*
Y343274D01*
X432449Y342728D01*
X432866Y342311D01*
X433412Y342085D01*
X434002D01*
X434548Y342311D01*
X434966Y342728D01*
X435191Y343274D01*
Y343864D01*
X434966Y344410D01*
X434548Y344828D01*
X434002Y345053D01*
D02*
G37*
G36*
X289600Y344633D02*
X289009D01*
X288464Y344407D01*
X288046Y343990D01*
X287820Y343444D01*
Y342854D01*
X288046Y342308D01*
X288464Y341891D01*
X289009Y341665D01*
X289600D01*
X290145Y341891D01*
X290563Y342308D01*
X290789Y342854D01*
Y343444D01*
X290563Y343990D01*
X290145Y344407D01*
X289600Y344633D01*
D02*
G37*
G36*
X222565Y344076D02*
X221974D01*
X221429Y343850D01*
X221011Y343433D01*
X220785Y342887D01*
Y342297D01*
X221011Y341751D01*
X221429Y341334D01*
X221974Y341108D01*
X222565D01*
X223110Y341334D01*
X223528Y341751D01*
X223754Y342297D01*
Y342887D01*
X223528Y343433D01*
X223110Y343850D01*
X222565Y344076D01*
D02*
G37*
G36*
X275305Y343911D02*
X274714D01*
X274169Y343686D01*
X273751Y343268D01*
X273525Y342722D01*
Y342132D01*
X273751Y341586D01*
X274169Y341169D01*
X274714Y340943D01*
X275305D01*
X275850Y341169D01*
X276268Y341586D01*
X276494Y342132D01*
Y342722D01*
X276268Y343268D01*
X275850Y343686D01*
X275305Y343911D01*
D02*
G37*
G36*
X415258Y346203D02*
X414559D01*
X413883Y346022D01*
X413277Y345672D01*
X412782Y345177D01*
X412432Y344571D01*
X412251Y343895D01*
Y343195D01*
X412432Y342519D01*
X412782Y341914D01*
X413277Y341419D01*
X413883Y341069D01*
X414559Y340888D01*
X415258D01*
X415934Y341069D01*
X416540Y341419D01*
X417035Y341914D01*
X417385Y342519D01*
X417566Y343195D01*
Y343895D01*
X417385Y344571D01*
X417035Y345177D01*
X416540Y345672D01*
X415934Y346022D01*
X415258Y346203D01*
D02*
G37*
G36*
X406282D02*
X405582D01*
X404906Y346022D01*
X404300Y345672D01*
X403805Y345177D01*
X403456Y344571D01*
X403275Y343895D01*
Y343195D01*
X403456Y342519D01*
X403805Y341914D01*
X404300Y341419D01*
X404906Y341069D01*
X405582Y340888D01*
X406282D01*
X406958Y341069D01*
X407564Y341419D01*
X408059Y341914D01*
X408408Y342519D01*
X408590Y343195D01*
Y343895D01*
X408408Y344571D01*
X408059Y345177D01*
X407564Y345672D01*
X406958Y346022D01*
X406282Y346203D01*
D02*
G37*
G36*
X305760Y343168D02*
X305169D01*
X304624Y342942D01*
X304206Y342524D01*
X303980Y341979D01*
Y341388D01*
X304206Y340843D01*
X304624Y340425D01*
X305169Y340199D01*
X305760D01*
X306305Y340425D01*
X306723Y340843D01*
X306949Y341388D01*
Y341979D01*
X306723Y342524D01*
X306305Y342942D01*
X305760Y343168D01*
D02*
G37*
G36*
X61501Y342252D02*
X60911D01*
X60365Y342026D01*
X59948Y341609D01*
X59722Y341063D01*
Y340473D01*
X59948Y339928D01*
X60365Y339510D01*
X60911Y339284D01*
X61501D01*
X62047Y339510D01*
X62464Y339928D01*
X62690Y340473D01*
Y341063D01*
X62464Y341609D01*
X62047Y342026D01*
X61501Y342252D01*
D02*
G37*
G36*
X57501D02*
X56911D01*
X56365Y342026D01*
X55948Y341609D01*
X55722Y341063D01*
Y340473D01*
X55948Y339928D01*
X56365Y339510D01*
X56911Y339284D01*
X57501D01*
X58047Y339510D01*
X58464Y339928D01*
X58690Y340473D01*
Y341063D01*
X58464Y341609D01*
X58047Y342026D01*
X57501Y342252D01*
D02*
G37*
G36*
X53501D02*
X52911D01*
X52365Y342026D01*
X51948Y341609D01*
X51722Y341063D01*
Y340473D01*
X51948Y339928D01*
X52365Y339510D01*
X52911Y339284D01*
X53501D01*
X54047Y339510D01*
X54464Y339928D01*
X54690Y340473D01*
Y341063D01*
X54464Y341609D01*
X54047Y342026D01*
X53501Y342252D01*
D02*
G37*
G36*
X49501D02*
X48911D01*
X48365Y342026D01*
X47948Y341609D01*
X47722Y341063D01*
Y340473D01*
X47948Y339928D01*
X48365Y339510D01*
X48911Y339284D01*
X49501D01*
X50047Y339510D01*
X50464Y339928D01*
X50690Y340473D01*
Y341063D01*
X50464Y341609D01*
X50047Y342026D01*
X49501Y342252D01*
D02*
G37*
G36*
X45578Y342183D02*
X44988D01*
X44442Y341957D01*
X44025Y341540D01*
X43799Y340994D01*
Y340404D01*
X44025Y339858D01*
X44442Y339440D01*
X44988Y339214D01*
X45578D01*
X46124Y339440D01*
X46541Y339858D01*
X46767Y340404D01*
Y340994D01*
X46541Y341540D01*
X46124Y341957D01*
X45578Y342183D01*
D02*
G37*
G36*
X216295Y341484D02*
X215705D01*
X215159Y341258D01*
X214742Y340841D01*
X214516Y340295D01*
Y339705D01*
X214742Y339159D01*
X215159Y338742D01*
X215705Y338516D01*
X216295D01*
X216841Y338742D01*
X217258Y339159D01*
X217484Y339705D01*
Y340295D01*
X217258Y340841D01*
X216841Y341258D01*
X216295Y341484D01*
D02*
G37*
G36*
X129625Y341298D02*
X129035D01*
X128489Y341072D01*
X128072Y340655D01*
X127846Y340109D01*
Y339519D01*
X128072Y338973D01*
X128489Y338556D01*
X129035Y338330D01*
X129625D01*
X130171Y338556D01*
X130588Y338973D01*
X130814Y339519D01*
Y340109D01*
X130588Y340655D01*
X130171Y341072D01*
X129625Y341298D01*
D02*
G37*
G36*
X125625D02*
X125035D01*
X124489Y341072D01*
X124072Y340655D01*
X123846Y340109D01*
Y339519D01*
X124072Y338973D01*
X124489Y338556D01*
X125035Y338330D01*
X125625D01*
X126171Y338556D01*
X126588Y338973D01*
X126814Y339519D01*
Y340109D01*
X126588Y340655D01*
X126171Y341072D01*
X125625Y341298D01*
D02*
G37*
G36*
X121625D02*
X121035D01*
X120489Y341072D01*
X120072Y340655D01*
X119846Y340109D01*
Y339519D01*
X120072Y338973D01*
X120489Y338556D01*
X121035Y338330D01*
X121625D01*
X122171Y338556D01*
X122588Y338973D01*
X122814Y339519D01*
Y340109D01*
X122588Y340655D01*
X122171Y341072D01*
X121625Y341298D01*
D02*
G37*
G36*
X117625D02*
X117035D01*
X116489Y341072D01*
X116072Y340655D01*
X115846Y340109D01*
Y339519D01*
X116072Y338973D01*
X116489Y338556D01*
X117035Y338330D01*
X117625D01*
X118171Y338556D01*
X118588Y338973D01*
X118814Y339519D01*
Y340109D01*
X118588Y340655D01*
X118171Y341072D01*
X117625Y341298D01*
D02*
G37*
G36*
X113702Y341229D02*
X113112D01*
X112566Y341003D01*
X112149Y340585D01*
X111923Y340040D01*
Y339449D01*
X112149Y338904D01*
X112566Y338486D01*
X113112Y338260D01*
X113702D01*
X114248Y338486D01*
X114665Y338904D01*
X114891Y339449D01*
Y340040D01*
X114665Y340585D01*
X114248Y341003D01*
X113702Y341229D01*
D02*
G37*
G36*
X441329Y341131D02*
X440739D01*
X440193Y340905D01*
X439776Y340487D01*
X439550Y339942D01*
Y339351D01*
X439776Y338806D01*
X440193Y338388D01*
X440739Y338162D01*
X441329D01*
X441875Y338388D01*
X442292Y338806D01*
X442518Y339351D01*
Y339942D01*
X442292Y340487D01*
X441875Y340905D01*
X441329Y341131D01*
D02*
G37*
G36*
X437701Y341130D02*
X437110D01*
X436564Y340904D01*
X436147Y340487D01*
X435921Y339941D01*
Y339351D01*
X436147Y338805D01*
X436564Y338388D01*
X437110Y338162D01*
X437701D01*
X438246Y338388D01*
X438663Y338805D01*
X438890Y339351D01*
Y339941D01*
X438663Y340487D01*
X438246Y340904D01*
X437701Y341130D01*
D02*
G37*
G36*
X434072D02*
X433482D01*
X432936Y340904D01*
X432518Y340487D01*
X432293Y339941D01*
Y339351D01*
X432518Y338805D01*
X432936Y338388D01*
X433482Y338162D01*
X434072D01*
X434618Y338388D01*
X435035Y338805D01*
X435261Y339351D01*
Y339941D01*
X435035Y340487D01*
X434618Y340904D01*
X434072Y341130D01*
D02*
G37*
G36*
X423054Y341715D02*
X422354D01*
X421678Y341533D01*
X421072Y341183D01*
X420577Y340689D01*
X420227Y340083D01*
X420046Y339407D01*
Y338707D01*
X420227Y338031D01*
X420577Y337425D01*
X421072Y336930D01*
X421678Y336581D01*
X422354Y336400D01*
X423054D01*
X423730Y336581D01*
X424335Y336930D01*
X424830Y337425D01*
X425180Y338031D01*
X425361Y338707D01*
Y339407D01*
X425180Y340083D01*
X424830Y340689D01*
X424335Y341183D01*
X423730Y341533D01*
X423054Y341715D01*
D02*
G37*
G36*
X398487D02*
X397787D01*
X397111Y341533D01*
X396505Y341183D01*
X396010Y340689D01*
X395660Y340083D01*
X395479Y339407D01*
Y338707D01*
X395660Y338031D01*
X396010Y337425D01*
X396505Y336930D01*
X397111Y336581D01*
X397787Y336400D01*
X398487D01*
X399163Y336581D01*
X399768Y336930D01*
X400263Y337425D01*
X400613Y338031D01*
X400794Y338707D01*
Y339407D01*
X400613Y340083D01*
X400263Y340689D01*
X399768Y341183D01*
X399163Y341533D01*
X398487Y341715D01*
D02*
G37*
G36*
X45580Y338591D02*
X44990D01*
X44444Y338366D01*
X44027Y337948D01*
X43801Y337402D01*
Y336812D01*
X44027Y336266D01*
X44444Y335849D01*
X44990Y335623D01*
X45580D01*
X46126Y335849D01*
X46543Y336266D01*
X46769Y336812D01*
Y337402D01*
X46543Y337948D01*
X46126Y338366D01*
X45580Y338591D01*
D02*
G37*
G36*
X61502Y338481D02*
X60912D01*
X60366Y338255D01*
X59949Y337837D01*
X59723Y337292D01*
Y336701D01*
X59949Y336156D01*
X60366Y335738D01*
X60912Y335512D01*
X61502D01*
X62048Y335738D01*
X62465Y336156D01*
X62691Y336701D01*
Y337292D01*
X62465Y337837D01*
X62048Y338255D01*
X61502Y338481D01*
D02*
G37*
G36*
X217895Y337913D02*
X217305D01*
X216759Y337687D01*
X216342Y337269D01*
X216116Y336724D01*
Y336133D01*
X216342Y335588D01*
X216759Y335170D01*
X217305Y334944D01*
X217895D01*
X218441Y335170D01*
X218858Y335588D01*
X219084Y336133D01*
Y336724D01*
X218858Y337269D01*
X218441Y337687D01*
X217895Y337913D01*
D02*
G37*
G36*
X113704Y337637D02*
X113114D01*
X112568Y337411D01*
X112151Y336994D01*
X111925Y336448D01*
Y335858D01*
X112151Y335312D01*
X112568Y334895D01*
X113114Y334669D01*
X113704D01*
X114250Y334895D01*
X114667Y335312D01*
X114893Y335858D01*
Y336448D01*
X114667Y336994D01*
X114250Y337411D01*
X113704Y337637D01*
D02*
G37*
G36*
X129626Y337526D02*
X129035D01*
X128490Y337300D01*
X128073Y336883D01*
X127847Y336337D01*
Y335747D01*
X128073Y335201D01*
X128490Y334784D01*
X129035Y334558D01*
X129626D01*
X130172Y334784D01*
X130589Y335201D01*
X130815Y335747D01*
Y336337D01*
X130589Y336883D01*
X130172Y337300D01*
X129626Y337526D01*
D02*
G37*
G36*
X193056Y336575D02*
X192466D01*
X191920Y336349D01*
X191503Y335931D01*
X191277Y335385D01*
Y334795D01*
X191503Y334249D01*
X191920Y333832D01*
X192466Y333606D01*
X193056D01*
X193602Y333832D01*
X194019Y334249D01*
X194245Y334795D01*
Y335385D01*
X194019Y335931D01*
X193602Y336349D01*
X193056Y336575D01*
D02*
G37*
G36*
X430888Y337226D02*
X430189D01*
X429513Y337045D01*
X428907Y336695D01*
X428412Y336200D01*
X428062Y335595D01*
X427881Y334919D01*
Y334219D01*
X428062Y333543D01*
X428412Y332937D01*
X428907Y332442D01*
X429513Y332092D01*
X430189Y331911D01*
X430888D01*
X431564Y332092D01*
X432170Y332442D01*
X432665Y332937D01*
X433015Y333543D01*
X433196Y334219D01*
Y334919D01*
X433015Y335595D01*
X432665Y336200D01*
X432170Y336695D01*
X431564Y337045D01*
X430888Y337226D01*
D02*
G37*
G36*
X390652D02*
X389952D01*
X389276Y337045D01*
X388670Y336695D01*
X388176Y336200D01*
X387826Y335595D01*
X387645Y334919D01*
Y334219D01*
X387826Y333543D01*
X388176Y332937D01*
X388670Y332442D01*
X389276Y332092D01*
X389952Y331911D01*
X390652D01*
X391328Y332092D01*
X391934Y332442D01*
X392429Y332937D01*
X392778Y333543D01*
X392960Y334219D01*
Y334919D01*
X392778Y335595D01*
X392429Y336200D01*
X391934Y336695D01*
X391328Y337045D01*
X390652Y337226D01*
D02*
G37*
G36*
X275861Y334378D02*
X275270D01*
X274725Y334152D01*
X274307Y333735D01*
X274081Y333189D01*
Y332599D01*
X274307Y332053D01*
X274725Y331636D01*
X275270Y331410D01*
X275861D01*
X276406Y331636D01*
X276824Y332053D01*
X277050Y332599D01*
Y333189D01*
X276824Y333735D01*
X276406Y334152D01*
X275861Y334378D01*
D02*
G37*
G36*
X306199Y331947D02*
X305609D01*
X305063Y331721D01*
X304645Y331304D01*
X304419Y330758D01*
Y330168D01*
X304645Y329622D01*
X305063Y329205D01*
X305609Y328979D01*
X306199D01*
X306745Y329205D01*
X307162Y329622D01*
X307388Y330168D01*
Y330758D01*
X307162Y331304D01*
X306745Y331721D01*
X306199Y331947D01*
D02*
G37*
G36*
X320622Y331896D02*
X320031D01*
X319486Y331670D01*
X319068Y331253D01*
X318842Y330707D01*
Y330117D01*
X319068Y329571D01*
X319486Y329154D01*
X320031Y328928D01*
X320622D01*
X321167Y329154D01*
X321585Y329571D01*
X321811Y330117D01*
Y330707D01*
X321585Y331253D01*
X321167Y331670D01*
X320622Y331896D01*
D02*
G37*
G36*
X316622D02*
X316031D01*
X315486Y331670D01*
X315068Y331253D01*
X314842Y330707D01*
Y330117D01*
X315068Y329571D01*
X315486Y329154D01*
X316031Y328928D01*
X316622D01*
X317167Y329154D01*
X317585Y329571D01*
X317811Y330117D01*
Y330707D01*
X317585Y331253D01*
X317167Y331670D01*
X316622Y331896D01*
D02*
G37*
G36*
X312699Y331827D02*
X312108D01*
X311563Y331601D01*
X311145Y331183D01*
X310919Y330638D01*
Y330047D01*
X311145Y329502D01*
X311563Y329084D01*
X312108Y328858D01*
X312699D01*
X313244Y329084D01*
X313662Y329502D01*
X313888Y330047D01*
Y330638D01*
X313662Y331183D01*
X313244Y331601D01*
X312699Y331827D01*
D02*
G37*
G36*
X184265Y331506D02*
X183675D01*
X183129Y331280D01*
X182712Y330863D01*
X182486Y330317D01*
Y329727D01*
X182712Y329181D01*
X183129Y328764D01*
X183675Y328538D01*
X184265D01*
X184811Y328764D01*
X185228Y329181D01*
X185454Y329727D01*
Y330317D01*
X185228Y330863D01*
X184811Y331280D01*
X184265Y331506D01*
D02*
G37*
G36*
X438684Y332699D02*
X437984D01*
X437308Y332518D01*
X436702Y332168D01*
X436207Y331673D01*
X435857Y331067D01*
X435676Y330391D01*
Y329691D01*
X435857Y329015D01*
X436207Y328410D01*
X436702Y327915D01*
X437308Y327565D01*
X437984Y327384D01*
X438684D01*
X439359Y327565D01*
X439965Y327915D01*
X440460Y328410D01*
X440810Y329015D01*
X440991Y329691D01*
Y330391D01*
X440810Y331067D01*
X440460Y331673D01*
X439965Y332168D01*
X439359Y332518D01*
X438684Y332699D01*
D02*
G37*
G36*
X382857D02*
X382157D01*
X381481Y332518D01*
X380875Y332168D01*
X380380Y331673D01*
X380030Y331067D01*
X379849Y330391D01*
Y329691D01*
X380030Y329015D01*
X380380Y328410D01*
X380875Y327915D01*
X381481Y327565D01*
X382157Y327384D01*
X382857D01*
X383533Y327565D01*
X384139Y327915D01*
X384633Y328410D01*
X384983Y329015D01*
X385164Y329691D01*
Y330391D01*
X384983Y331067D01*
X384633Y331673D01*
X384139Y332168D01*
X383533Y332518D01*
X382857Y332699D01*
D02*
G37*
G36*
X275734Y330184D02*
X275143D01*
X274598Y329958D01*
X274180Y329540D01*
X273954Y328995D01*
Y328404D01*
X274180Y327859D01*
X274598Y327441D01*
X275143Y327215D01*
X275734D01*
X276279Y327441D01*
X276697Y327859D01*
X276923Y328404D01*
Y328995D01*
X276697Y329540D01*
X276279Y329958D01*
X275734Y330184D01*
D02*
G37*
G36*
X271333Y330136D02*
X270742D01*
X270197Y329910D01*
X269779Y329493D01*
X269553Y328947D01*
Y328357D01*
X269779Y327811D01*
X270197Y327394D01*
X270742Y327168D01*
X271333D01*
X271878Y327394D01*
X272295Y327811D01*
X272521Y328357D01*
Y328947D01*
X272295Y329493D01*
X271878Y329910D01*
X271333Y330136D01*
D02*
G37*
G36*
X312661Y327162D02*
X312070D01*
X311525Y326936D01*
X311107Y326519D01*
X310881Y325973D01*
Y325383D01*
X311107Y324837D01*
X311525Y324420D01*
X312070Y324194D01*
X312661D01*
X313206Y324420D01*
X313624Y324837D01*
X313850Y325383D01*
Y325973D01*
X313624Y326519D01*
X313206Y326936D01*
X312661Y327162D01*
D02*
G37*
G36*
X308661D02*
X308070D01*
X307525Y326936D01*
X307107Y326519D01*
X306881Y325973D01*
Y325383D01*
X307107Y324837D01*
X307525Y324420D01*
X308070Y324194D01*
X308661D01*
X309206Y324420D01*
X309624Y324837D01*
X309850Y325383D01*
Y325973D01*
X309624Y326519D01*
X309206Y326936D01*
X308661Y327162D01*
D02*
G37*
G36*
X304738Y327093D02*
X304147D01*
X303602Y326867D01*
X303184Y326449D01*
X302958Y325904D01*
Y325313D01*
X303184Y324767D01*
X303602Y324350D01*
X304147Y324124D01*
X304738D01*
X305283Y324350D01*
X305701Y324767D01*
X305927Y325313D01*
Y325904D01*
X305701Y326449D01*
X305283Y326867D01*
X304738Y327093D01*
D02*
G37*
G36*
X162945Y326282D02*
X162355D01*
X161810Y326056D01*
X161392Y325639D01*
X161166Y325093D01*
Y324503D01*
X161392Y323957D01*
X161810Y323540D01*
X162355Y323314D01*
X162945D01*
X163491Y323540D01*
X163909Y323957D01*
X164135Y324503D01*
Y325093D01*
X163909Y325639D01*
X163491Y326056D01*
X162945Y326282D01*
D02*
G37*
G36*
X415258Y328211D02*
X414559D01*
X413883Y328029D01*
X413277Y327680D01*
X412782Y327185D01*
X412432Y326579D01*
X412251Y325903D01*
Y325203D01*
X412432Y324527D01*
X412782Y323921D01*
X413277Y323427D01*
X413883Y323077D01*
X414559Y322896D01*
X415258D01*
X415934Y323077D01*
X416540Y323427D01*
X417035Y323921D01*
X417385Y324527D01*
X417566Y325203D01*
Y325903D01*
X417385Y326579D01*
X417035Y327185D01*
X416540Y327680D01*
X415934Y328029D01*
X415258Y328211D01*
D02*
G37*
G36*
X406282D02*
X405582D01*
X404906Y328029D01*
X404300Y327680D01*
X403805Y327185D01*
X403456Y326579D01*
X403275Y325903D01*
Y325203D01*
X403456Y324527D01*
X403805Y323921D01*
X404300Y323427D01*
X404906Y323077D01*
X405582Y322896D01*
X406282D01*
X406958Y323077D01*
X407564Y323427D01*
X408059Y323921D01*
X408408Y324527D01*
X408590Y325203D01*
Y325903D01*
X408408Y326579D01*
X408059Y327185D01*
X407564Y327680D01*
X406958Y328029D01*
X406282Y328211D01*
D02*
G37*
G36*
X193026Y330263D02*
X192435D01*
X191890Y330037D01*
X191472Y329620D01*
X191246Y329074D01*
Y328484D01*
X191278Y328406D01*
X190930Y327940D01*
X190605D01*
X190059Y327714D01*
X189642Y327297D01*
X189416Y326751D01*
Y326161D01*
X189432Y326121D01*
X189387Y326006D01*
X189082Y325659D01*
X188662D01*
X188117Y325433D01*
X187699Y325016D01*
X187473Y324470D01*
Y323880D01*
X187699Y323334D01*
X188117Y322917D01*
X188662Y322691D01*
X189252D01*
X189798Y322917D01*
X190216Y323334D01*
X190442Y323880D01*
Y324470D01*
X190425Y324510D01*
X190470Y324625D01*
X190775Y324972D01*
X191195D01*
X191741Y325198D01*
X192158Y325615D01*
X192384Y326161D01*
Y326751D01*
X192352Y326829D01*
X192700Y327295D01*
X193026D01*
X193571Y327521D01*
X193989Y327938D01*
X194214Y328484D01*
Y329074D01*
X193989Y329620D01*
X193571Y330037D01*
X193026Y330263D01*
D02*
G37*
G36*
X335651Y325108D02*
X335061D01*
X334515Y324882D01*
X334098Y324464D01*
X333872Y323919D01*
Y323328D01*
X334098Y322783D01*
X334515Y322365D01*
X335061Y322139D01*
X335651D01*
X336197Y322365D01*
X336614Y322783D01*
X336775Y323171D01*
X337298Y323126D01*
X337463Y322726D01*
X337881Y322308D01*
X338426Y322082D01*
X339017D01*
X339562Y322308D01*
X339980Y322726D01*
X340206Y323271D01*
Y323862D01*
X339980Y324408D01*
X339562Y324825D01*
X339017Y325051D01*
X338426D01*
X337881Y324825D01*
X337463Y324408D01*
X337302Y324019D01*
X336780Y324064D01*
X336614Y324464D01*
X336197Y324882D01*
X335651Y325108D01*
D02*
G37*
G36*
X322723Y322045D02*
X322133D01*
X321587Y321819D01*
X321170Y321401D01*
X320944Y320856D01*
Y320265D01*
X321170Y319720D01*
X321587Y319302D01*
X322133Y319076D01*
X322723D01*
X323269Y319302D01*
X323687Y319720D01*
X323912Y320265D01*
Y320856D01*
X323687Y321401D01*
X323269Y321819D01*
X322723Y322045D01*
D02*
G37*
G36*
X165303Y321873D02*
X164713D01*
X164167Y321647D01*
X163750Y321230D01*
X163524Y320684D01*
Y320093D01*
X163750Y319548D01*
X164167Y319130D01*
X164713Y318904D01*
X165303D01*
X165849Y319130D01*
X166267Y319548D01*
X166492Y320093D01*
Y320684D01*
X166267Y321230D01*
X165849Y321647D01*
X165303Y321873D01*
D02*
G37*
G36*
X335616Y321403D02*
X335026D01*
X334480Y321177D01*
X334063Y320759D01*
X333837Y320214D01*
Y319623D01*
X334063Y319077D01*
X334480Y318660D01*
X335026Y318434D01*
X335616D01*
X336162Y318660D01*
X336579Y319077D01*
X336805Y319623D01*
Y320214D01*
X336579Y320759D01*
X336162Y321177D01*
X335616Y321403D01*
D02*
G37*
G36*
X423054Y323722D02*
X422354D01*
X421678Y323541D01*
X421072Y323191D01*
X420577Y322697D01*
X420227Y322091D01*
X420046Y321415D01*
Y320715D01*
X420227Y320039D01*
X420577Y319433D01*
X421072Y318938D01*
X421678Y318588D01*
X422354Y318407D01*
X423054D01*
X423730Y318588D01*
X424335Y318938D01*
X424830Y319433D01*
X425180Y320039D01*
X425361Y320715D01*
Y321415D01*
X425180Y322091D01*
X424830Y322697D01*
X424335Y323191D01*
X423730Y323541D01*
X423054Y323722D01*
D02*
G37*
G36*
X398487D02*
X397787D01*
X397111Y323541D01*
X396505Y323191D01*
X396010Y322697D01*
X395660Y322091D01*
X395479Y321415D01*
Y320715D01*
X395660Y320039D01*
X396010Y319433D01*
X396505Y318938D01*
X397111Y318588D01*
X397787Y318407D01*
X398487D01*
X399163Y318588D01*
X399768Y318938D01*
X400263Y319433D01*
X400613Y320039D01*
X400794Y320715D01*
Y321415D01*
X400613Y322091D01*
X400263Y322697D01*
X399768Y323191D01*
X399163Y323541D01*
X398487Y323722D01*
D02*
G37*
G36*
X220158Y321247D02*
X219567D01*
X219022Y321021D01*
X218604Y320603D01*
X218378Y320058D01*
Y319467D01*
X218604Y318922D01*
X219022Y318504D01*
X219567Y318278D01*
X220158D01*
X220704Y318504D01*
X221121Y318922D01*
X221347Y319467D01*
Y320058D01*
X221121Y320603D01*
X220704Y321021D01*
X220158Y321247D01*
D02*
G37*
G36*
X199226Y319388D02*
X198636D01*
X198090Y319162D01*
X197673Y318745D01*
X197447Y318199D01*
Y317609D01*
X197673Y317063D01*
X198090Y316646D01*
X198636Y316420D01*
X199226D01*
X199772Y316646D01*
X200189Y317063D01*
X200415Y317609D01*
Y318199D01*
X200189Y318745D01*
X199772Y319162D01*
X199226Y319388D01*
D02*
G37*
G36*
X299625Y319104D02*
X299035D01*
X298489Y318878D01*
X298072Y318461D01*
X297846Y317915D01*
Y317325D01*
X298072Y316779D01*
X298489Y316362D01*
X299035Y316136D01*
X299625D01*
X300171Y316362D01*
X300588Y316779D01*
X300814Y317325D01*
Y317915D01*
X300588Y318461D01*
X300171Y318878D01*
X299625Y319104D01*
D02*
G37*
G36*
X174766Y319031D02*
X174175D01*
X173630Y318805D01*
X173212Y318387D01*
X172986Y317842D01*
Y317251D01*
X173212Y316706D01*
X173630Y316288D01*
X174175Y316062D01*
X174766D01*
X175311Y316288D01*
X175729Y316706D01*
X175955Y317251D01*
Y317842D01*
X175729Y318387D01*
X175311Y318805D01*
X174766Y319031D01*
D02*
G37*
G36*
X317987Y318627D02*
X317397D01*
X316851Y318401D01*
X316434Y317983D01*
X316208Y317438D01*
Y316847D01*
X316434Y316302D01*
X316851Y315884D01*
X317397Y315658D01*
X317987D01*
X318533Y315884D01*
X318950Y316302D01*
X319176Y316847D01*
Y317438D01*
X318950Y317983D01*
X318533Y318401D01*
X317987Y318627D01*
D02*
G37*
G36*
X109077Y318492D02*
X108487D01*
X107941Y318266D01*
X107524Y317849D01*
X107298Y317303D01*
Y316713D01*
X107524Y316167D01*
X107941Y315750D01*
X108487Y315524D01*
X109077D01*
X109623Y315750D01*
X110040Y316167D01*
X110266Y316713D01*
Y317303D01*
X110040Y317849D01*
X109623Y318266D01*
X109077Y318492D01*
D02*
G37*
G36*
X136138Y317743D02*
X135547D01*
X135002Y317517D01*
X134584Y317099D01*
X134358Y316554D01*
Y315963D01*
X134584Y315418D01*
X135002Y315000D01*
X135547Y314774D01*
X136138D01*
X136683Y315000D01*
X137101Y315418D01*
X137327Y315963D01*
Y316554D01*
X137101Y317099D01*
X136683Y317517D01*
X136138Y317743D01*
D02*
G37*
G36*
X335765Y317709D02*
X335174D01*
X334629Y317483D01*
X334211Y317066D01*
X333985Y316520D01*
Y315930D01*
X334211Y315384D01*
X334629Y314967D01*
X335174Y314741D01*
X335765D01*
X336311Y314967D01*
X336728Y315384D01*
X336954Y315930D01*
Y316520D01*
X336728Y317066D01*
X336311Y317483D01*
X335765Y317709D01*
D02*
G37*
G36*
X446479Y319234D02*
X445779D01*
X445103Y319053D01*
X444497Y318703D01*
X444002Y318208D01*
X443652Y317602D01*
X443471Y316927D01*
Y316227D01*
X443652Y315551D01*
X444002Y314945D01*
X444497Y314450D01*
X445103Y314100D01*
X445779Y313919D01*
X446479D01*
X447155Y314100D01*
X447761Y314450D01*
X448255Y314945D01*
X448605Y315551D01*
X448786Y316227D01*
Y316927D01*
X448605Y317602D01*
X448255Y318208D01*
X447761Y318703D01*
X447155Y319053D01*
X446479Y319234D01*
D02*
G37*
G36*
X430888D02*
X430189D01*
X429513Y319053D01*
X428907Y318703D01*
X428412Y318208D01*
X428062Y317602D01*
X427881Y316927D01*
Y316227D01*
X428062Y315551D01*
X428412Y314945D01*
X428907Y314450D01*
X429513Y314100D01*
X430189Y313919D01*
X430888D01*
X431564Y314100D01*
X432170Y314450D01*
X432665Y314945D01*
X433015Y315551D01*
X433196Y316227D01*
Y316927D01*
X433015Y317602D01*
X432665Y318208D01*
X432170Y318703D01*
X431564Y319053D01*
X430888Y319234D01*
D02*
G37*
G36*
X415258D02*
X414559D01*
X413883Y319053D01*
X413277Y318703D01*
X412782Y318208D01*
X412432Y317602D01*
X412251Y316927D01*
Y316227D01*
X412432Y315551D01*
X412782Y314945D01*
X413277Y314450D01*
X413883Y314100D01*
X414559Y313919D01*
X415258D01*
X415934Y314100D01*
X416540Y314450D01*
X417035Y314945D01*
X417385Y315551D01*
X417566Y316227D01*
Y316927D01*
X417385Y317602D01*
X417035Y318208D01*
X416540Y318703D01*
X415934Y319053D01*
X415258Y319234D01*
D02*
G37*
G36*
X406282D02*
X405582D01*
X404906Y319053D01*
X404300Y318703D01*
X403805Y318208D01*
X403456Y317602D01*
X403275Y316927D01*
Y316227D01*
X403456Y315551D01*
X403805Y314945D01*
X404300Y314450D01*
X404906Y314100D01*
X405582Y313919D01*
X406282D01*
X406958Y314100D01*
X407564Y314450D01*
X408059Y314945D01*
X408408Y315551D01*
X408590Y316227D01*
Y316927D01*
X408408Y317602D01*
X408059Y318208D01*
X407564Y318703D01*
X406958Y319053D01*
X406282Y319234D01*
D02*
G37*
G36*
X390652D02*
X389952D01*
X389276Y319053D01*
X388670Y318703D01*
X388176Y318208D01*
X387826Y317602D01*
X387645Y316927D01*
Y316227D01*
X387826Y315551D01*
X388176Y314945D01*
X388670Y314450D01*
X389276Y314100D01*
X389952Y313919D01*
X390652D01*
X391328Y314100D01*
X391934Y314450D01*
X392429Y314945D01*
X392778Y315551D01*
X392960Y316227D01*
Y316927D01*
X392778Y317602D01*
X392429Y318208D01*
X391934Y318703D01*
X391328Y319053D01*
X390652Y319234D01*
D02*
G37*
G36*
X375061D02*
X374362D01*
X373686Y319053D01*
X373080Y318703D01*
X372585Y318208D01*
X372235Y317602D01*
X372054Y316927D01*
Y316227D01*
X372235Y315551D01*
X372585Y314945D01*
X373080Y314450D01*
X373686Y314100D01*
X374362Y313919D01*
X375061D01*
X375737Y314100D01*
X376343Y314450D01*
X376838Y314945D01*
X377188Y315551D01*
X377369Y316227D01*
Y316927D01*
X377188Y317602D01*
X376838Y318208D01*
X376343Y318703D01*
X375737Y319053D01*
X375061Y319234D01*
D02*
G37*
G36*
X166143Y316064D02*
X165553D01*
X165007Y315838D01*
X164590Y315421D01*
X164364Y314875D01*
Y314285D01*
X164590Y313739D01*
X165007Y313322D01*
X165553Y313096D01*
X166143D01*
X166689Y313322D01*
X167106Y313739D01*
X167332Y314285D01*
Y314875D01*
X167106Y315421D01*
X166689Y315838D01*
X166143Y316064D01*
D02*
G37*
G36*
X109077Y314492D02*
X108487D01*
X107941Y314266D01*
X107524Y313849D01*
X107298Y313303D01*
Y312713D01*
X107524Y312167D01*
X107941Y311750D01*
X108487Y311524D01*
X109077D01*
X109623Y311750D01*
X110040Y312167D01*
X110266Y312713D01*
Y313303D01*
X110040Y313849D01*
X109623Y314266D01*
X109077Y314492D01*
D02*
G37*
G36*
X279319Y314040D02*
X278728D01*
X278183Y313814D01*
X277765Y313397D01*
X277539Y312851D01*
Y312261D01*
X277765Y311715D01*
X278183Y311298D01*
X278728Y311072D01*
X279319D01*
X279864Y311298D01*
X280282Y311715D01*
X280508Y312261D01*
Y312851D01*
X280282Y313397D01*
X279864Y313814D01*
X279319Y314040D01*
D02*
G37*
G36*
X136207Y313820D02*
X135617D01*
X135071Y313594D01*
X134654Y313176D01*
X134428Y312631D01*
Y312040D01*
X134654Y311495D01*
X135071Y311077D01*
X135617Y310851D01*
X136207D01*
X136753Y311077D01*
X137170Y311495D01*
X137396Y312040D01*
Y312631D01*
X137170Y313176D01*
X136753Y313594D01*
X136207Y313820D01*
D02*
G37*
G36*
X326154Y313805D02*
X325563D01*
X325018Y313579D01*
X324600Y313161D01*
X324374Y312616D01*
Y312025D01*
X324600Y311480D01*
X325018Y311062D01*
X325563Y310836D01*
X326154D01*
X326699Y311062D01*
X327117Y311480D01*
X327343Y312025D01*
Y312616D01*
X327117Y313161D01*
X326699Y313579D01*
X326154Y313805D01*
D02*
G37*
G36*
X216270Y313504D02*
X215680D01*
X215134Y313278D01*
X214717Y312860D01*
X214491Y312315D01*
Y311724D01*
X214717Y311179D01*
X215134Y310761D01*
X215680Y310535D01*
X216270D01*
X216816Y310761D01*
X217233Y311179D01*
X217459Y311724D01*
Y312315D01*
X217233Y312860D01*
X216816Y313278D01*
X216270Y313504D01*
D02*
G37*
G36*
X190282Y312783D02*
X189691D01*
X189146Y312557D01*
X188728Y312140D01*
X188502Y311594D01*
Y311004D01*
X188728Y310458D01*
X189146Y310041D01*
X189691Y309815D01*
X190282D01*
X190827Y310041D01*
X191245Y310458D01*
X191471Y311004D01*
Y311594D01*
X191245Y312140D01*
X190827Y312557D01*
X190282Y312783D01*
D02*
G37*
G36*
X423054Y314707D02*
X422354D01*
X421678Y314526D01*
X421072Y314176D01*
X420577Y313681D01*
X420227Y313075D01*
X420046Y312399D01*
Y311699D01*
X420227Y311023D01*
X420577Y310417D01*
X421072Y309923D01*
X421678Y309573D01*
X422354Y309392D01*
X423054D01*
X423730Y309573D01*
X424335Y309923D01*
X424830Y310417D01*
X425180Y311023D01*
X425361Y311699D01*
Y312399D01*
X425180Y313075D01*
X424830Y313681D01*
X424335Y314176D01*
X423730Y314526D01*
X423054Y314707D01*
D02*
G37*
G36*
X398487D02*
X397787D01*
X397111Y314526D01*
X396505Y314176D01*
X396010Y313681D01*
X395660Y313075D01*
X395479Y312399D01*
Y311699D01*
X395660Y311023D01*
X396010Y310417D01*
X396505Y309923D01*
X397111Y309573D01*
X397787Y309392D01*
X398487D01*
X399163Y309573D01*
X399768Y309923D01*
X400263Y310417D01*
X400613Y311023D01*
X400794Y311699D01*
Y312399D01*
X400613Y313075D01*
X400263Y313681D01*
X399768Y314176D01*
X399163Y314526D01*
X398487Y314707D01*
D02*
G37*
G36*
X382857D02*
X382157D01*
X381481Y314526D01*
X380875Y314176D01*
X380380Y313681D01*
X380030Y313075D01*
X379849Y312399D01*
Y311699D01*
X380030Y311023D01*
X380380Y310417D01*
X380875Y309923D01*
X381481Y309573D01*
X382157Y309392D01*
X382857D01*
X383533Y309573D01*
X384139Y309923D01*
X384633Y310417D01*
X384983Y311023D01*
X385164Y311699D01*
Y312399D01*
X384983Y313075D01*
X384633Y313681D01*
X384139Y314176D01*
X383533Y314526D01*
X382857Y314707D01*
D02*
G37*
G36*
X472977Y310935D02*
X472387D01*
X471841Y310710D01*
X471424Y310292D01*
X471198Y309746D01*
Y309156D01*
X471424Y308610D01*
X471841Y308193D01*
X472387Y307967D01*
X472977D01*
X473523Y308193D01*
X473941Y308610D01*
X474166Y309156D01*
Y309746D01*
X473941Y310292D01*
X473523Y310710D01*
X472977Y310935D01*
D02*
G37*
G36*
X241079Y317461D02*
X240489D01*
X239943Y317235D01*
X239525Y316818D01*
X239300Y316272D01*
Y315682D01*
X239525Y315136D01*
X239943Y314719D01*
X240289Y314576D01*
Y314035D01*
X240049Y313935D01*
X239632Y313518D01*
X239406Y312972D01*
Y312382D01*
X239632Y311836D01*
X240049Y311419D01*
X240560Y311208D01*
X240583Y311028D01*
X240560Y310707D01*
X240076Y310507D01*
X239658Y310089D01*
X239432Y309544D01*
Y308953D01*
X239658Y308408D01*
X240076Y307990D01*
X240621Y307764D01*
X241212D01*
X241757Y307990D01*
X242175Y308408D01*
X242401Y308953D01*
Y309544D01*
X242175Y310089D01*
X241757Y310507D01*
X241247Y310718D01*
X241224Y310898D01*
X241247Y311218D01*
X241731Y311419D01*
X242148Y311836D01*
X242374Y312382D01*
Y312972D01*
X242148Y313518D01*
X241731Y313935D01*
X241385Y314079D01*
Y314620D01*
X241624Y314719D01*
X242042Y315136D01*
X242268Y315682D01*
Y316272D01*
X242042Y316818D01*
X241624Y317235D01*
X241079Y317461D01*
D02*
G37*
G36*
X109077Y310492D02*
X108487D01*
X107941Y310266D01*
X107524Y309849D01*
X107298Y309303D01*
Y308713D01*
X107524Y308167D01*
X107941Y307750D01*
X108487Y307524D01*
X109077D01*
X109623Y307750D01*
X110040Y308167D01*
X110266Y308713D01*
Y309303D01*
X110040Y309849D01*
X109623Y310266D01*
X109077Y310492D01*
D02*
G37*
G36*
X61664Y310425D02*
X61074D01*
X60528Y310199D01*
X60111Y309782D01*
X59885Y309236D01*
Y308646D01*
X60111Y308100D01*
X60528Y307682D01*
X61074Y307456D01*
X61664D01*
X62210Y307682D01*
X62627Y308100D01*
X62853Y308646D01*
Y309236D01*
X62627Y309782D01*
X62210Y310199D01*
X61664Y310425D01*
D02*
G37*
G36*
X57664D02*
X57074D01*
X56528Y310199D01*
X56111Y309782D01*
X55885Y309236D01*
Y308646D01*
X56111Y308100D01*
X56528Y307682D01*
X57074Y307456D01*
X57664D01*
X58210Y307682D01*
X58627Y308100D01*
X58853Y308646D01*
Y309236D01*
X58627Y309782D01*
X58210Y310199D01*
X57664Y310425D01*
D02*
G37*
G36*
X53664D02*
X53074D01*
X52528Y310199D01*
X52111Y309782D01*
X51885Y309236D01*
Y308646D01*
X52111Y308100D01*
X52528Y307682D01*
X53074Y307456D01*
X53664D01*
X54210Y307682D01*
X54627Y308100D01*
X54853Y308646D01*
Y309236D01*
X54627Y309782D01*
X54210Y310199D01*
X53664Y310425D01*
D02*
G37*
G36*
X49664D02*
X49074D01*
X48528Y310199D01*
X48111Y309782D01*
X47885Y309236D01*
Y308646D01*
X48111Y308100D01*
X48528Y307682D01*
X49074Y307456D01*
X49664D01*
X50210Y307682D01*
X50627Y308100D01*
X50853Y308646D01*
Y309236D01*
X50627Y309782D01*
X50210Y310199D01*
X49664Y310425D01*
D02*
G37*
G36*
X112885Y310391D02*
X112294D01*
X111749Y310165D01*
X111331Y309748D01*
X111105Y309202D01*
Y308612D01*
X111331Y308066D01*
X111749Y307648D01*
X112294Y307423D01*
X112885D01*
X113430Y307648D01*
X113848Y308066D01*
X114074Y308612D01*
Y309202D01*
X113848Y309748D01*
X113430Y310165D01*
X112885Y310391D01*
D02*
G37*
G36*
X45741Y310355D02*
X45151D01*
X44605Y310129D01*
X44188Y309712D01*
X43962Y309166D01*
Y308576D01*
X44188Y308030D01*
X44605Y307613D01*
X45151Y307387D01*
X45741D01*
X46287Y307613D01*
X46705Y308030D01*
X46930Y308576D01*
Y309166D01*
X46705Y309712D01*
X46287Y310129D01*
X45741Y310355D01*
D02*
G37*
G36*
X208148Y309418D02*
X207557D01*
X207012Y309192D01*
X206594Y308774D01*
X206368Y308229D01*
Y307638D01*
X206541Y307222D01*
X206117Y306939D01*
X206034Y307022D01*
X205488Y307248D01*
X204898D01*
X204352Y307022D01*
X203935Y306605D01*
X203709Y306059D01*
Y305469D01*
X203935Y304923D01*
X204352Y304506D01*
X204898Y304280D01*
X205488D01*
X206034Y304506D01*
X206451Y304923D01*
X206677Y305469D01*
Y306059D01*
X206505Y306475D01*
X206928Y306759D01*
X207012Y306675D01*
X207557Y306449D01*
X208148D01*
X208693Y306675D01*
X209111Y307093D01*
X209337Y307638D01*
Y308229D01*
X209111Y308774D01*
X208693Y309192D01*
X208148Y309418D01*
D02*
G37*
G36*
X215909Y308489D02*
X215319D01*
X214773Y308263D01*
X214356Y307845D01*
X214130Y307300D01*
Y306709D01*
X214356Y306164D01*
X214773Y305746D01*
X215319Y305520D01*
X215909D01*
X216455Y305746D01*
X216872Y306164D01*
X217098Y306709D01*
Y307300D01*
X216872Y307845D01*
X216455Y308263D01*
X215909Y308489D01*
D02*
G37*
G36*
X446479Y310218D02*
X445779D01*
X445103Y310037D01*
X444497Y309687D01*
X444002Y309193D01*
X443652Y308587D01*
X443471Y307911D01*
Y307211D01*
X443652Y306535D01*
X444002Y305929D01*
X444497Y305434D01*
X445103Y305085D01*
X445779Y304904D01*
X446479D01*
X447155Y305085D01*
X447761Y305434D01*
X448255Y305929D01*
X448605Y306535D01*
X448786Y307211D01*
Y307911D01*
X448605Y308587D01*
X448255Y309193D01*
X447761Y309687D01*
X447155Y310037D01*
X446479Y310218D01*
D02*
G37*
G36*
X430888D02*
X430189D01*
X429513Y310037D01*
X428907Y309687D01*
X428412Y309193D01*
X428062Y308587D01*
X427881Y307911D01*
Y307211D01*
X428062Y306535D01*
X428412Y305929D01*
X428907Y305434D01*
X429513Y305085D01*
X430189Y304904D01*
X430888D01*
X431564Y305085D01*
X432170Y305434D01*
X432665Y305929D01*
X433015Y306535D01*
X433196Y307211D01*
Y307911D01*
X433015Y308587D01*
X432665Y309193D01*
X432170Y309687D01*
X431564Y310037D01*
X430888Y310218D01*
D02*
G37*
G36*
X415258D02*
X414559D01*
X413883Y310037D01*
X413277Y309687D01*
X412782Y309193D01*
X412432Y308587D01*
X412251Y307911D01*
Y307211D01*
X412432Y306535D01*
X412782Y305929D01*
X413277Y305434D01*
X413883Y305085D01*
X414559Y304904D01*
X415258D01*
X415934Y305085D01*
X416540Y305434D01*
X417035Y305929D01*
X417385Y306535D01*
X417566Y307211D01*
Y307911D01*
X417385Y308587D01*
X417035Y309193D01*
X416540Y309687D01*
X415934Y310037D01*
X415258Y310218D01*
D02*
G37*
G36*
X406282D02*
X405582D01*
X404906Y310037D01*
X404300Y309687D01*
X403805Y309193D01*
X403456Y308587D01*
X403275Y307911D01*
Y307211D01*
X403456Y306535D01*
X403805Y305929D01*
X404300Y305434D01*
X404906Y305085D01*
X405582Y304904D01*
X406282D01*
X406958Y305085D01*
X407564Y305434D01*
X408059Y305929D01*
X408408Y306535D01*
X408590Y307211D01*
Y307911D01*
X408408Y308587D01*
X408059Y309193D01*
X407564Y309687D01*
X406958Y310037D01*
X406282Y310218D01*
D02*
G37*
G36*
X390652D02*
X389952D01*
X389276Y310037D01*
X388670Y309687D01*
X388176Y309193D01*
X387826Y308587D01*
X387645Y307911D01*
Y307211D01*
X387826Y306535D01*
X388176Y305929D01*
X388670Y305434D01*
X389276Y305085D01*
X389952Y304904D01*
X390652D01*
X391328Y305085D01*
X391934Y305434D01*
X392429Y305929D01*
X392778Y306535D01*
X392960Y307211D01*
Y307911D01*
X392778Y308587D01*
X392429Y309193D01*
X391934Y309687D01*
X391328Y310037D01*
X390652Y310218D01*
D02*
G37*
G36*
X375061D02*
X374362D01*
X373686Y310037D01*
X373080Y309687D01*
X372585Y309193D01*
X372235Y308587D01*
X372054Y307911D01*
Y307211D01*
X372235Y306535D01*
X372585Y305929D01*
X373080Y305434D01*
X373686Y305085D01*
X374362Y304904D01*
X375061D01*
X375737Y305085D01*
X376343Y305434D01*
X376838Y305929D01*
X377188Y306535D01*
X377369Y307211D01*
Y307911D01*
X377188Y308587D01*
X376838Y309193D01*
X376343Y309687D01*
X375737Y310037D01*
X375061Y310218D01*
D02*
G37*
G36*
X109147Y306569D02*
X108556D01*
X108011Y306343D01*
X107593Y305926D01*
X107367Y305380D01*
Y304790D01*
X107593Y304244D01*
X108011Y303827D01*
X108556Y303601D01*
X109147D01*
X109692Y303827D01*
X110110Y304244D01*
X110336Y304790D01*
Y305380D01*
X110110Y305926D01*
X109692Y306343D01*
X109147Y306569D01*
D02*
G37*
G36*
X112954Y306468D02*
X112364D01*
X111818Y306242D01*
X111401Y305825D01*
X111175Y305279D01*
Y304689D01*
X111401Y304143D01*
X111818Y303726D01*
X112364Y303500D01*
X112954D01*
X113500Y303726D01*
X113917Y304143D01*
X114143Y304689D01*
Y305279D01*
X113917Y305825D01*
X113500Y306242D01*
X112954Y306468D01*
D02*
G37*
G36*
X192566Y306388D02*
X191976D01*
X191430Y306162D01*
X191013Y305744D01*
X190787Y305199D01*
Y304608D01*
X191013Y304063D01*
X191430Y303645D01*
X191976Y303419D01*
X192566D01*
X193112Y303645D01*
X193529Y304063D01*
X193755Y304608D01*
Y305199D01*
X193529Y305744D01*
X193112Y306162D01*
X192566Y306388D01*
D02*
G37*
G36*
X189660Y304055D02*
X189069D01*
X188524Y303829D01*
X188107Y303411D01*
X187881Y302866D01*
Y302275D01*
X188107Y301730D01*
X188524Y301312D01*
X189069Y301086D01*
X189660D01*
X190206Y301312D01*
X190623Y301730D01*
X190849Y302275D01*
Y302866D01*
X190623Y303411D01*
X190206Y303829D01*
X189660Y304055D01*
D02*
G37*
G36*
X438684Y305730D02*
X437984D01*
X437308Y305549D01*
X436702Y305199D01*
X436207Y304704D01*
X435857Y304099D01*
X435676Y303423D01*
Y302723D01*
X435857Y302047D01*
X436207Y301441D01*
X436702Y300946D01*
X437308Y300596D01*
X437984Y300415D01*
X438684D01*
X439359Y300596D01*
X439965Y300946D01*
X440460Y301441D01*
X440810Y302047D01*
X440991Y302723D01*
Y303423D01*
X440810Y304099D01*
X440460Y304704D01*
X439965Y305199D01*
X439359Y305549D01*
X438684Y305730D01*
D02*
G37*
G36*
X423054D02*
X422354D01*
X421678Y305549D01*
X421072Y305199D01*
X420577Y304704D01*
X420227Y304099D01*
X420046Y303423D01*
Y302723D01*
X420227Y302047D01*
X420577Y301441D01*
X421072Y300946D01*
X421678Y300596D01*
X422354Y300415D01*
X423054D01*
X423730Y300596D01*
X424335Y300946D01*
X424830Y301441D01*
X425180Y302047D01*
X425361Y302723D01*
Y303423D01*
X425180Y304099D01*
X424830Y304704D01*
X424335Y305199D01*
X423730Y305549D01*
X423054Y305730D01*
D02*
G37*
G36*
X398487D02*
X397787D01*
X397111Y305549D01*
X396505Y305199D01*
X396010Y304704D01*
X395660Y304099D01*
X395479Y303423D01*
Y302723D01*
X395660Y302047D01*
X396010Y301441D01*
X396505Y300946D01*
X397111Y300596D01*
X397787Y300415D01*
X398487D01*
X399163Y300596D01*
X399768Y300946D01*
X400263Y301441D01*
X400613Y302047D01*
X400794Y302723D01*
Y303423D01*
X400613Y304099D01*
X400263Y304704D01*
X399768Y305199D01*
X399163Y305549D01*
X398487Y305730D01*
D02*
G37*
G36*
X382857D02*
X382157D01*
X381481Y305549D01*
X380875Y305199D01*
X380380Y304704D01*
X380030Y304099D01*
X379849Y303423D01*
Y302723D01*
X380030Y302047D01*
X380380Y301441D01*
X380875Y300946D01*
X381481Y300596D01*
X382157Y300415D01*
X382857D01*
X383533Y300596D01*
X384139Y300946D01*
X384633Y301441D01*
X384983Y302047D01*
X385164Y302723D01*
Y303423D01*
X384983Y304099D01*
X384633Y304704D01*
X384139Y305199D01*
X383533Y305549D01*
X382857Y305730D01*
D02*
G37*
G36*
X218145Y304030D02*
X217554D01*
X217009Y303805D01*
X216591Y303387D01*
X216365Y302841D01*
Y302442D01*
X216351Y302242D01*
X215936Y301980D01*
X215742D01*
X215197Y301754D01*
X214779Y301336D01*
X214553Y300791D01*
Y300200D01*
X214779Y299655D01*
X215197Y299237D01*
X215742Y299011D01*
X216333D01*
X216879Y299237D01*
X217296Y299655D01*
X217522Y300200D01*
Y300600D01*
X217536Y300799D01*
X217951Y301062D01*
X218145D01*
X218690Y301288D01*
X219108Y301706D01*
X219334Y302251D01*
Y302841D01*
X219108Y303387D01*
X218690Y303805D01*
X218145Y304030D01*
D02*
G37*
G36*
X275250Y300026D02*
X274660D01*
X274114Y299801D01*
X273697Y299383D01*
X273471Y298837D01*
Y298247D01*
X273697Y297702D01*
X274114Y297284D01*
X274660Y297058D01*
X275250D01*
X275796Y297284D01*
X276214Y297702D01*
X276439Y298247D01*
Y298837D01*
X276214Y299383D01*
X275796Y299801D01*
X275250Y300026D01*
D02*
G37*
G36*
X284729Y300017D02*
X284139D01*
X283593Y299791D01*
X283176Y299373D01*
X282950Y298828D01*
Y298237D01*
X283176Y297692D01*
X283593Y297274D01*
X284139Y297048D01*
X284729D01*
X285275Y297274D01*
X285692Y297692D01*
X285918Y298237D01*
Y298828D01*
X285692Y299373D01*
X285275Y299791D01*
X284729Y300017D01*
D02*
G37*
G36*
X112984Y299535D02*
X112393D01*
X111847Y299309D01*
X111430Y298891D01*
X111204Y298346D01*
Y297755D01*
X111430Y297210D01*
X111847Y296792D01*
X112393Y296566D01*
X112984D01*
X113529Y296792D01*
X113946Y297210D01*
X114172Y297755D01*
Y298346D01*
X113946Y298891D01*
X113529Y299309D01*
X112984Y299535D01*
D02*
G37*
G36*
X109061Y299465D02*
X108470D01*
X107924Y299239D01*
X107507Y298822D01*
X107281Y298276D01*
Y297686D01*
X107507Y297140D01*
X107924Y296723D01*
X108470Y296497D01*
X109061D01*
X109606Y296723D01*
X110023Y297140D01*
X110249Y297686D01*
Y298276D01*
X110023Y298822D01*
X109606Y299239D01*
X109061Y299465D01*
D02*
G37*
G36*
X299790Y299205D02*
X299200D01*
X298654Y298979D01*
X298237Y298561D01*
X298011Y298016D01*
Y297425D01*
X298237Y296880D01*
X298654Y296462D01*
X299200Y296236D01*
X299790D01*
X300336Y296462D01*
X300753Y296880D01*
X300979Y297425D01*
Y298016D01*
X300753Y298561D01*
X300336Y298979D01*
X299790Y299205D01*
D02*
G37*
G36*
X446479Y301203D02*
X445779D01*
X445103Y301022D01*
X444497Y300672D01*
X444002Y300177D01*
X443652Y299571D01*
X443471Y298895D01*
Y298195D01*
X443652Y297519D01*
X444002Y296914D01*
X444497Y296419D01*
X445103Y296069D01*
X445779Y295888D01*
X446479D01*
X447155Y296069D01*
X447761Y296419D01*
X448255Y296914D01*
X448605Y297519D01*
X448786Y298195D01*
Y298895D01*
X448605Y299571D01*
X448255Y300177D01*
X447761Y300672D01*
X447155Y301022D01*
X446479Y301203D01*
D02*
G37*
G36*
X430888D02*
X430189D01*
X429513Y301022D01*
X428907Y300672D01*
X428412Y300177D01*
X428062Y299571D01*
X427881Y298895D01*
Y298195D01*
X428062Y297519D01*
X428412Y296914D01*
X428907Y296419D01*
X429513Y296069D01*
X430189Y295888D01*
X430888D01*
X431564Y296069D01*
X432170Y296419D01*
X432665Y296914D01*
X433015Y297519D01*
X433196Y298195D01*
Y298895D01*
X433015Y299571D01*
X432665Y300177D01*
X432170Y300672D01*
X431564Y301022D01*
X430888Y301203D01*
D02*
G37*
G36*
X415258D02*
X414559D01*
X413883Y301022D01*
X413277Y300672D01*
X412782Y300177D01*
X412432Y299571D01*
X412251Y298895D01*
Y298195D01*
X412432Y297519D01*
X412782Y296914D01*
X413277Y296419D01*
X413883Y296069D01*
X414559Y295888D01*
X415258D01*
X415934Y296069D01*
X416540Y296419D01*
X417035Y296914D01*
X417385Y297519D01*
X417566Y298195D01*
Y298895D01*
X417385Y299571D01*
X417035Y300177D01*
X416540Y300672D01*
X415934Y301022D01*
X415258Y301203D01*
D02*
G37*
G36*
X390652D02*
X389952D01*
X389276Y301022D01*
X388670Y300672D01*
X388176Y300177D01*
X387826Y299571D01*
X387645Y298895D01*
Y298195D01*
X387826Y297519D01*
X388176Y296914D01*
X388670Y296419D01*
X389276Y296069D01*
X389952Y295888D01*
X390652D01*
X391328Y296069D01*
X391934Y296419D01*
X392429Y296914D01*
X392778Y297519D01*
X392960Y298195D01*
Y298895D01*
X392778Y299571D01*
X392429Y300177D01*
X391934Y300672D01*
X391328Y301022D01*
X390652Y301203D01*
D02*
G37*
G36*
X375061D02*
X374362D01*
X373686Y301022D01*
X373080Y300672D01*
X372585Y300177D01*
X372235Y299571D01*
X372054Y298895D01*
Y298195D01*
X372235Y297519D01*
X372585Y296914D01*
X373080Y296419D01*
X373686Y296069D01*
X374362Y295888D01*
X375061D01*
X375737Y296069D01*
X376343Y296419D01*
X376838Y296914D01*
X377188Y297519D01*
X377369Y298195D01*
Y298895D01*
X377188Y299571D01*
X376838Y300177D01*
X376343Y300672D01*
X375737Y301022D01*
X375061Y301203D01*
D02*
G37*
G36*
X230273Y298568D02*
X229682D01*
X229137Y298342D01*
X228719Y297924D01*
X228493Y297379D01*
Y296789D01*
X228719Y296243D01*
X229137Y295825D01*
X229682Y295600D01*
X230273D01*
X230818Y295825D01*
X231236Y296243D01*
X231462Y296789D01*
Y297379D01*
X231236Y297924D01*
X230818Y298342D01*
X230273Y298568D01*
D02*
G37*
G36*
X319907Y298235D02*
X319316D01*
X318771Y298009D01*
X318353Y297591D01*
X318127Y297046D01*
Y296455D01*
X318353Y295910D01*
X318771Y295492D01*
X319316Y295266D01*
X319907D01*
X320452Y295492D01*
X320870Y295910D01*
X321096Y296455D01*
Y297046D01*
X320870Y297591D01*
X320452Y298009D01*
X319907Y298235D01*
D02*
G37*
G36*
X275141Y296117D02*
X274550D01*
X274005Y295891D01*
X273587Y295474D01*
X273361Y294928D01*
Y294338D01*
X273587Y293792D01*
X274005Y293375D01*
X274550Y293149D01*
X275141D01*
X275686Y293375D01*
X276104Y293792D01*
X276330Y294338D01*
Y294928D01*
X276104Y295474D01*
X275686Y295891D01*
X275141Y296117D01*
D02*
G37*
G36*
X271077Y296081D02*
X270486D01*
X269941Y295855D01*
X269523Y295438D01*
X269297Y294892D01*
Y294302D01*
X269523Y293756D01*
X269941Y293339D01*
X270486Y293113D01*
X271077D01*
X271622Y293339D01*
X272040Y293756D01*
X272266Y294302D01*
Y294892D01*
X272040Y295438D01*
X271622Y295855D01*
X271077Y296081D01*
D02*
G37*
G36*
X294541Y295215D02*
X293951D01*
X293405Y294989D01*
X292988Y294572D01*
X292762Y294026D01*
Y293436D01*
X292988Y292890D01*
X293405Y292473D01*
X293951Y292247D01*
X294541D01*
X295087Y292473D01*
X295504Y292890D01*
X295730Y293436D01*
Y294026D01*
X295504Y294572D01*
X295087Y294989D01*
X294541Y295215D01*
D02*
G37*
G36*
X222663Y294543D02*
X222073D01*
X221527Y294317D01*
X221110Y293899D01*
X220884Y293354D01*
Y292763D01*
X221110Y292218D01*
X221527Y291800D01*
X222073Y291575D01*
X222663D01*
X223209Y291800D01*
X223626Y292218D01*
X223852Y292763D01*
Y293354D01*
X223626Y293899D01*
X223209Y294317D01*
X222663Y294543D01*
D02*
G37*
G36*
X438684Y296714D02*
X437984D01*
X437308Y296533D01*
X436702Y296183D01*
X436207Y295689D01*
X435857Y295083D01*
X435676Y294407D01*
Y293707D01*
X435857Y293031D01*
X436207Y292425D01*
X436702Y291931D01*
X437308Y291581D01*
X437984Y291400D01*
X438684D01*
X439359Y291581D01*
X439965Y291931D01*
X440460Y292425D01*
X440810Y293031D01*
X440991Y293707D01*
Y294407D01*
X440810Y295083D01*
X440460Y295689D01*
X439965Y296183D01*
X439359Y296533D01*
X438684Y296714D01*
D02*
G37*
G36*
X423054D02*
X422354D01*
X421678Y296533D01*
X421072Y296183D01*
X420577Y295689D01*
X420227Y295083D01*
X420046Y294407D01*
Y293707D01*
X420227Y293031D01*
X420577Y292425D01*
X421072Y291931D01*
X421678Y291581D01*
X422354Y291400D01*
X423054D01*
X423730Y291581D01*
X424335Y291931D01*
X424830Y292425D01*
X425180Y293031D01*
X425361Y293707D01*
Y294407D01*
X425180Y295083D01*
X424830Y295689D01*
X424335Y296183D01*
X423730Y296533D01*
X423054Y296714D01*
D02*
G37*
G36*
X398487D02*
X397787D01*
X397111Y296533D01*
X396505Y296183D01*
X396010Y295689D01*
X395660Y295083D01*
X395479Y294407D01*
Y293707D01*
X395660Y293031D01*
X396010Y292425D01*
X396505Y291931D01*
X397111Y291581D01*
X397787Y291400D01*
X398487D01*
X399163Y291581D01*
X399768Y291931D01*
X400263Y292425D01*
X400613Y293031D01*
X400794Y293707D01*
Y294407D01*
X400613Y295083D01*
X400263Y295689D01*
X399768Y296183D01*
X399163Y296533D01*
X398487Y296714D01*
D02*
G37*
G36*
X382857D02*
X382157D01*
X381481Y296533D01*
X380875Y296183D01*
X380380Y295689D01*
X380030Y295083D01*
X379849Y294407D01*
Y293707D01*
X380030Y293031D01*
X380380Y292425D01*
X380875Y291931D01*
X381481Y291581D01*
X382157Y291400D01*
X382857D01*
X383533Y291581D01*
X384139Y291931D01*
X384633Y292425D01*
X384983Y293031D01*
X385164Y293707D01*
Y294407D01*
X384983Y295083D01*
X384633Y295689D01*
X384139Y296183D01*
X383533Y296533D01*
X382857Y296714D01*
D02*
G37*
G36*
X146493Y291172D02*
X145902D01*
X145357Y290946D01*
X144939Y290529D01*
X144713Y289983D01*
Y289393D01*
X144939Y288847D01*
X145357Y288429D01*
X145902Y288204D01*
X146493D01*
X147038Y288429D01*
X147456Y288847D01*
X147682Y289393D01*
Y289983D01*
X147456Y290529D01*
X147038Y290946D01*
X146493Y291172D01*
D02*
G37*
G36*
X71548Y290577D02*
X70957D01*
X70412Y290351D01*
X69994Y289933D01*
X69768Y289388D01*
Y288797D01*
X69994Y288252D01*
X70412Y287834D01*
X70957Y287608D01*
X71548D01*
X72093Y287834D01*
X72511Y288252D01*
X72737Y288797D01*
Y289388D01*
X72511Y289933D01*
X72093Y290351D01*
X71548Y290577D01*
D02*
G37*
G36*
X338611Y290468D02*
X338021D01*
X337475Y290242D01*
X337058Y289825D01*
X336832Y289279D01*
Y288689D01*
X337058Y288143D01*
X337475Y287725D01*
X338021Y287500D01*
X338611D01*
X339157Y287725D01*
X339575Y288143D01*
X339801Y288689D01*
Y289279D01*
X339575Y289825D01*
X339157Y290242D01*
X338611Y290468D01*
D02*
G37*
G36*
X430888Y292226D02*
X430189D01*
X429513Y292045D01*
X428907Y291695D01*
X428412Y291200D01*
X428062Y290595D01*
X427881Y289919D01*
Y289219D01*
X428062Y288543D01*
X428412Y287937D01*
X428907Y287442D01*
X429513Y287092D01*
X430189Y286911D01*
X430888D01*
X431564Y287092D01*
X432170Y287442D01*
X432665Y287937D01*
X433015Y288543D01*
X433196Y289219D01*
Y289919D01*
X433015Y290595D01*
X432665Y291200D01*
X432170Y291695D01*
X431564Y292045D01*
X430888Y292226D01*
D02*
G37*
G36*
X415258D02*
X414559D01*
X413883Y292045D01*
X413277Y291695D01*
X412782Y291200D01*
X412432Y290595D01*
X412251Y289919D01*
Y289219D01*
X412432Y288543D01*
X412782Y287937D01*
X413277Y287442D01*
X413883Y287092D01*
X414559Y286911D01*
X415258D01*
X415934Y287092D01*
X416540Y287442D01*
X417035Y287937D01*
X417385Y288543D01*
X417566Y289219D01*
Y289919D01*
X417385Y290595D01*
X417035Y291200D01*
X416540Y291695D01*
X415934Y292045D01*
X415258Y292226D01*
D02*
G37*
G36*
X406282D02*
X405582D01*
X404906Y292045D01*
X404300Y291695D01*
X403805Y291200D01*
X403456Y290595D01*
X403275Y289919D01*
Y289219D01*
X403456Y288543D01*
X403805Y287937D01*
X404300Y287442D01*
X404906Y287092D01*
X405582Y286911D01*
X406282D01*
X406958Y287092D01*
X407564Y287442D01*
X408059Y287937D01*
X408408Y288543D01*
X408590Y289219D01*
Y289919D01*
X408408Y290595D01*
X408059Y291200D01*
X407564Y291695D01*
X406958Y292045D01*
X406282Y292226D01*
D02*
G37*
G36*
X390652D02*
X389952D01*
X389276Y292045D01*
X388670Y291695D01*
X388176Y291200D01*
X387826Y290595D01*
X387645Y289919D01*
Y289219D01*
X387826Y288543D01*
X388176Y287937D01*
X388670Y287442D01*
X389276Y287092D01*
X389952Y286911D01*
X390652D01*
X391328Y287092D01*
X391934Y287442D01*
X392429Y287937D01*
X392778Y288543D01*
X392960Y289219D01*
Y289919D01*
X392778Y290595D01*
X392429Y291200D01*
X391934Y291695D01*
X391328Y292045D01*
X390652Y292226D01*
D02*
G37*
G36*
X333926Y289389D02*
X333335D01*
X332790Y289163D01*
X332372Y288746D01*
X332146Y288200D01*
Y287610D01*
X332372Y287065D01*
X332790Y286647D01*
X333335Y286421D01*
X333926D01*
X334471Y286647D01*
X334889Y287065D01*
X335115Y287610D01*
Y288200D01*
X334889Y288746D01*
X334471Y289163D01*
X333926Y289389D01*
D02*
G37*
G36*
X52211Y286943D02*
X51620D01*
X51075Y286717D01*
X50657Y286300D01*
X50431Y285754D01*
Y285164D01*
X50657Y284618D01*
X51075Y284201D01*
X51620Y283975D01*
X52211D01*
X52756Y284201D01*
X53174Y284618D01*
X53400Y285164D01*
Y285754D01*
X53174Y286300D01*
X52756Y286717D01*
X52211Y286943D01*
D02*
G37*
G36*
X338722Y286297D02*
X338132D01*
X337586Y286070D01*
X337169Y285653D01*
X336943Y285107D01*
Y284517D01*
X337169Y283972D01*
X337586Y283554D01*
X338132Y283328D01*
X338722D01*
X339268Y283554D01*
X339685Y283972D01*
X339911Y284517D01*
Y285107D01*
X339685Y285653D01*
X339268Y286070D01*
X338722Y286297D01*
D02*
G37*
G36*
X270428Y285914D02*
X269837D01*
X269292Y285689D01*
X268874Y285271D01*
X268648Y284725D01*
Y284135D01*
X268874Y283590D01*
X269292Y283172D01*
X269837Y282946D01*
X270428D01*
X270973Y283172D01*
X271391Y283590D01*
X271617Y284135D01*
Y284725D01*
X271391Y285271D01*
X270973Y285689D01*
X270428Y285914D01*
D02*
G37*
G36*
X275108Y285896D02*
X274517D01*
X273972Y285670D01*
X273554Y285253D01*
X273328Y284707D01*
Y284117D01*
X273554Y283571D01*
X273972Y283154D01*
X274517Y282928D01*
X275108D01*
X275653Y283154D01*
X276071Y283571D01*
X276297Y284117D01*
Y284707D01*
X276071Y285253D01*
X275653Y285670D01*
X275108Y285896D01*
D02*
G37*
G36*
X438684Y287738D02*
X437984D01*
X437308Y287557D01*
X436702Y287207D01*
X436207Y286712D01*
X435857Y286106D01*
X435676Y285431D01*
Y284731D01*
X435857Y284055D01*
X436207Y283449D01*
X436702Y282954D01*
X437308Y282604D01*
X437984Y282423D01*
X438684D01*
X439359Y282604D01*
X439965Y282954D01*
X440460Y283449D01*
X440810Y284055D01*
X440991Y284731D01*
Y285431D01*
X440810Y286106D01*
X440460Y286712D01*
X439965Y287207D01*
X439359Y287557D01*
X438684Y287738D01*
D02*
G37*
G36*
X423054D02*
X422354D01*
X421678Y287557D01*
X421072Y287207D01*
X420577Y286712D01*
X420227Y286106D01*
X420046Y285431D01*
Y284731D01*
X420227Y284055D01*
X420577Y283449D01*
X421072Y282954D01*
X421678Y282604D01*
X422354Y282423D01*
X423054D01*
X423730Y282604D01*
X424335Y282954D01*
X424830Y283449D01*
X425180Y284055D01*
X425361Y284731D01*
Y285431D01*
X425180Y286106D01*
X424830Y286712D01*
X424335Y287207D01*
X423730Y287557D01*
X423054Y287738D01*
D02*
G37*
G36*
X382857D02*
X382157D01*
X381481Y287557D01*
X380875Y287207D01*
X380380Y286712D01*
X380030Y286106D01*
X379849Y285431D01*
Y284731D01*
X380030Y284055D01*
X380380Y283449D01*
X380875Y282954D01*
X381481Y282604D01*
X382157Y282423D01*
X382857D01*
X383533Y282604D01*
X384139Y282954D01*
X384633Y283449D01*
X384983Y284055D01*
X385164Y284731D01*
Y285431D01*
X384983Y286106D01*
X384633Y286712D01*
X384139Y287207D01*
X383533Y287557D01*
X382857Y287738D01*
D02*
G37*
G36*
X337875Y282576D02*
X337284D01*
X336739Y282350D01*
X336321Y281933D01*
X336095Y281387D01*
Y280797D01*
X336321Y280252D01*
X336739Y279834D01*
X337284Y279608D01*
X337875D01*
X338421Y279834D01*
X338838Y280252D01*
X339064Y280797D01*
Y281387D01*
X338838Y281933D01*
X338421Y282350D01*
X337875Y282576D01*
D02*
G37*
G36*
X341388Y282564D02*
X340797D01*
X340252Y282338D01*
X339834Y281921D01*
X339608Y281375D01*
Y280785D01*
X339834Y280239D01*
X340252Y279821D01*
X340797Y279595D01*
X341388D01*
X341933Y279821D01*
X342351Y280239D01*
X342577Y280785D01*
Y281375D01*
X342351Y281921D01*
X341933Y282338D01*
X341388Y282564D01*
D02*
G37*
G36*
X275111Y281424D02*
X274520D01*
X273975Y281198D01*
X273557Y280781D01*
X273331Y280235D01*
Y279644D01*
X273557Y279099D01*
X273975Y278681D01*
X274520Y278455D01*
X275111D01*
X275657Y278681D01*
X276074Y279099D01*
X276300Y279644D01*
Y280235D01*
X276074Y280781D01*
X275657Y281198D01*
X275111Y281424D01*
D02*
G37*
G36*
X58935Y284575D02*
X58345D01*
X57799Y284349D01*
X57382Y283931D01*
X57156Y283386D01*
Y282795D01*
X57382Y282250D01*
X57799Y281832D01*
X57959Y281766D01*
Y281225D01*
X57799Y281159D01*
X57382Y280741D01*
X57156Y280196D01*
Y279605D01*
X57382Y279060D01*
X57799Y278642D01*
X58345Y278416D01*
X58935D01*
X59481Y278642D01*
X59898Y279060D01*
X60124Y279605D01*
Y280196D01*
X59898Y280741D01*
X59481Y281159D01*
X59321Y281225D01*
Y281766D01*
X59481Y281832D01*
X59898Y282250D01*
X60124Y282795D01*
Y283386D01*
X59898Y283931D01*
X59481Y284349D01*
X58935Y284575D01*
D02*
G37*
G36*
X371382Y281297D02*
X370792D01*
X370246Y281071D01*
X369829Y280653D01*
X369603Y280108D01*
Y279517D01*
X369829Y278972D01*
X370246Y278554D01*
X370792Y278328D01*
X371382D01*
X371928Y278554D01*
X372345Y278972D01*
X372571Y279517D01*
Y280108D01*
X372345Y280653D01*
X371928Y281071D01*
X371382Y281297D01*
D02*
G37*
G36*
X430888Y283211D02*
X430189D01*
X429513Y283029D01*
X428907Y282680D01*
X428412Y282185D01*
X428062Y281579D01*
X427881Y280903D01*
Y280203D01*
X428062Y279527D01*
X428412Y278921D01*
X428907Y278427D01*
X429513Y278077D01*
X430189Y277896D01*
X430888D01*
X431564Y278077D01*
X432170Y278427D01*
X432665Y278921D01*
X433015Y279527D01*
X433196Y280203D01*
Y280903D01*
X433015Y281579D01*
X432665Y282185D01*
X432170Y282680D01*
X431564Y283029D01*
X430888Y283211D01*
D02*
G37*
G36*
X415258D02*
X414559D01*
X413883Y283029D01*
X413277Y282680D01*
X412782Y282185D01*
X412432Y281579D01*
X412251Y280903D01*
Y280203D01*
X412432Y279527D01*
X412782Y278921D01*
X413277Y278427D01*
X413883Y278077D01*
X414559Y277896D01*
X415258D01*
X415934Y278077D01*
X416540Y278427D01*
X417035Y278921D01*
X417385Y279527D01*
X417566Y280203D01*
Y280903D01*
X417385Y281579D01*
X417035Y282185D01*
X416540Y282680D01*
X415934Y283029D01*
X415258Y283211D01*
D02*
G37*
G36*
X406282D02*
X405582D01*
X404906Y283029D01*
X404300Y282680D01*
X403805Y282185D01*
X403456Y281579D01*
X403275Y280903D01*
Y280203D01*
X403456Y279527D01*
X403805Y278921D01*
X404300Y278427D01*
X404906Y278077D01*
X405582Y277896D01*
X406282D01*
X406958Y278077D01*
X407564Y278427D01*
X408059Y278921D01*
X408408Y279527D01*
X408590Y280203D01*
Y280903D01*
X408408Y281579D01*
X408059Y282185D01*
X407564Y282680D01*
X406958Y283029D01*
X406282Y283211D01*
D02*
G37*
G36*
X390652D02*
X389952D01*
X389276Y283029D01*
X388670Y282680D01*
X388176Y282185D01*
X387826Y281579D01*
X387645Y280903D01*
Y280203D01*
X387826Y279527D01*
X388176Y278921D01*
X388670Y278427D01*
X389276Y278077D01*
X389952Y277896D01*
X390652D01*
X391328Y278077D01*
X391934Y278427D01*
X392429Y278921D01*
X392778Y279527D01*
X392960Y280203D01*
Y280903D01*
X392778Y281579D01*
X392429Y282185D01*
X391934Y282680D01*
X391328Y283029D01*
X390652Y283211D01*
D02*
G37*
G36*
X193926Y292654D02*
X192414D01*
X190931Y292359D01*
X189534Y291781D01*
X188276Y290941D01*
X187207Y289871D01*
X186367Y288614D01*
X185788Y287217D01*
X185493Y285734D01*
Y284221D01*
X185788Y282738D01*
X186367Y281341D01*
X187207Y280083D01*
X188276Y279014D01*
X189534Y278174D01*
X190931Y277595D01*
X192414Y277300D01*
X193926D01*
X195410Y277595D01*
X196807Y278174D01*
X198064Y279014D01*
X199133Y280083D01*
X199974Y281341D01*
X200552Y282738D01*
X200847Y284221D01*
Y285734D01*
X200552Y287217D01*
X199974Y288614D01*
X199133Y289871D01*
X198064Y290941D01*
X196807Y291781D01*
X195410Y292359D01*
X193926Y292654D01*
D02*
G37*
G36*
X214938Y282287D02*
X214348D01*
X213802Y282061D01*
X213385Y281644D01*
X213159Y281098D01*
Y280508D01*
X213385Y279962D01*
X213802Y279545D01*
X214348Y279319D01*
X214938D01*
X215015Y279351D01*
X215398Y278968D01*
X215329Y278802D01*
Y278211D01*
X215555Y277666D01*
X215972Y277248D01*
X216518Y277022D01*
X217108D01*
X217654Y277248D01*
X218072Y277666D01*
X218297Y278211D01*
Y278802D01*
X218072Y279347D01*
X217654Y279765D01*
X217108Y279991D01*
X216518D01*
X216441Y279959D01*
X216058Y280342D01*
X216127Y280508D01*
Y281098D01*
X215901Y281644D01*
X215484Y282061D01*
X214938Y282287D01*
D02*
G37*
G36*
X118555Y277505D02*
X117965D01*
X117419Y277279D01*
X117002Y276862D01*
X116776Y276316D01*
Y275726D01*
X117002Y275180D01*
X117419Y274763D01*
X117965Y274537D01*
X118555D01*
X119101Y274763D01*
X119518Y275180D01*
X119744Y275726D01*
Y276316D01*
X119518Y276862D01*
X119101Y277279D01*
X118555Y277505D01*
D02*
G37*
G36*
X423054Y278722D02*
X422354D01*
X421678Y278541D01*
X421072Y278191D01*
X420577Y277697D01*
X420227Y277091D01*
X420046Y276415D01*
Y275715D01*
X420227Y275039D01*
X420577Y274433D01*
X421072Y273938D01*
X421678Y273588D01*
X422354Y273407D01*
X423054D01*
X423730Y273588D01*
X424335Y273938D01*
X424830Y274433D01*
X425180Y275039D01*
X425361Y275715D01*
Y276415D01*
X425180Y277091D01*
X424830Y277697D01*
X424335Y278191D01*
X423730Y278541D01*
X423054Y278722D01*
D02*
G37*
G36*
X398487D02*
X397787D01*
X397111Y278541D01*
X396505Y278191D01*
X396010Y277697D01*
X395660Y277091D01*
X395479Y276415D01*
Y275715D01*
X395660Y275039D01*
X396010Y274433D01*
X396505Y273938D01*
X397111Y273588D01*
X397787Y273407D01*
X398487D01*
X399163Y273588D01*
X399768Y273938D01*
X400263Y274433D01*
X400613Y275039D01*
X400794Y275715D01*
Y276415D01*
X400613Y277091D01*
X400263Y277697D01*
X399768Y278191D01*
X399163Y278541D01*
X398487Y278722D01*
D02*
G37*
G36*
X221414Y273210D02*
X220824D01*
X220278Y272984D01*
X219860Y272567D01*
X219635Y272021D01*
Y271431D01*
X219860Y270885D01*
X220278Y270468D01*
X220824Y270242D01*
X221414D01*
X221959Y270468D01*
X222377Y270885D01*
X222603Y271431D01*
Y272021D01*
X222377Y272567D01*
X221959Y272984D01*
X221414Y273210D01*
D02*
G37*
G36*
X415258Y274234D02*
X414559D01*
X413883Y274053D01*
X413277Y273703D01*
X412782Y273208D01*
X412432Y272602D01*
X412251Y271926D01*
Y271227D01*
X412432Y270551D01*
X412782Y269945D01*
X413277Y269450D01*
X413883Y269100D01*
X414559Y268919D01*
X415258D01*
X415934Y269100D01*
X416540Y269450D01*
X417035Y269945D01*
X417385Y270551D01*
X417566Y271227D01*
Y271926D01*
X417385Y272602D01*
X417035Y273208D01*
X416540Y273703D01*
X415934Y274053D01*
X415258Y274234D01*
D02*
G37*
G36*
X406282D02*
X405582D01*
X404906Y274053D01*
X404300Y273703D01*
X403805Y273208D01*
X403456Y272602D01*
X403275Y271926D01*
Y271227D01*
X403456Y270551D01*
X403805Y269945D01*
X404300Y269450D01*
X404906Y269100D01*
X405582Y268919D01*
X406282D01*
X406958Y269100D01*
X407564Y269450D01*
X408059Y269945D01*
X408408Y270551D01*
X408590Y271227D01*
Y271926D01*
X408408Y272602D01*
X408059Y273208D01*
X407564Y273703D01*
X406958Y274053D01*
X406282Y274234D01*
D02*
G37*
G36*
X142171Y269742D02*
X141580D01*
X141035Y269516D01*
X140617Y269099D01*
X140391Y268553D01*
Y267963D01*
X140617Y267417D01*
X141035Y267000D01*
X141580Y266774D01*
X142171D01*
X142716Y267000D01*
X143134Y267417D01*
X143360Y267963D01*
Y268553D01*
X143134Y269099D01*
X142716Y269516D01*
X142171Y269742D01*
D02*
G37*
G36*
X96841Y267661D02*
X96250D01*
X95705Y267435D01*
X95287Y267017D01*
X95061Y266472D01*
Y265881D01*
X95287Y265336D01*
X95705Y264918D01*
X96250Y264692D01*
X96841D01*
X97386Y264918D01*
X97804Y265336D01*
X98030Y265881D01*
Y266472D01*
X97804Y267017D01*
X97386Y267435D01*
X96841Y267661D01*
D02*
G37*
G36*
X241385Y268862D02*
X240795D01*
X240249Y268636D01*
X239832Y268219D01*
X239606Y267673D01*
Y267083D01*
X239832Y266537D01*
X240069Y266300D01*
X240194Y265977D01*
X240069Y265653D01*
X239832Y265417D01*
X239606Y264871D01*
Y264281D01*
X239832Y263735D01*
X240249Y263318D01*
X240533Y263200D01*
X240525Y262662D01*
X240162Y262512D01*
X239745Y262095D01*
X239519Y261549D01*
X239045Y261508D01*
X238819Y262053D01*
X238402Y262471D01*
X237856Y262697D01*
X237265D01*
X236720Y262471D01*
X236302Y262053D01*
X236076Y261508D01*
Y260917D01*
X236302Y260372D01*
X236638Y260037D01*
X236658Y259658D01*
X236615Y259457D01*
X236248Y259089D01*
X236022Y258544D01*
Y257953D01*
X236248Y257408D01*
X236665Y256990D01*
X237211Y256764D01*
X237801D01*
X238347Y256990D01*
X238764Y257408D01*
X238990Y257953D01*
Y258544D01*
X238764Y259089D01*
X238429Y259425D01*
X238409Y259804D01*
X238452Y260005D01*
X238819Y260372D01*
X239045Y260917D01*
X239519Y260959D01*
X239745Y260413D01*
X240104Y260054D01*
X240145Y259809D01*
X240115Y259474D01*
X239772Y259130D01*
X239546Y258585D01*
Y257994D01*
X239772Y257449D01*
X240190Y257031D01*
X240735Y256805D01*
X241326D01*
X241871Y257031D01*
X242289Y257449D01*
X242515Y257994D01*
Y258585D01*
X242289Y259130D01*
X241929Y259490D01*
X241888Y259735D01*
X241918Y260070D01*
X242261Y260413D01*
X242487Y260959D01*
Y261549D01*
X242261Y262095D01*
X241844Y262512D01*
X241560Y262630D01*
X241568Y263167D01*
X241931Y263318D01*
X242349Y263735D01*
X242574Y264281D01*
Y264871D01*
X242349Y265417D01*
X242112Y265653D01*
X241986Y265977D01*
X242112Y266300D01*
X242349Y266537D01*
X242574Y267083D01*
Y267673D01*
X242349Y268219D01*
X241931Y268636D01*
X241385Y268862D01*
D02*
G37*
G36*
X150122Y263932D02*
X149532D01*
X148986Y263706D01*
X148569Y263289D01*
X148343Y262743D01*
Y262153D01*
X148569Y261608D01*
X148986Y261190D01*
X149532Y260964D01*
X150122D01*
X150668Y261190D01*
X151085Y261608D01*
X151311Y262153D01*
Y262743D01*
X151085Y263289D01*
X150668Y263706D01*
X150122Y263932D01*
D02*
G37*
G36*
X368329Y259760D02*
X367739D01*
X367193Y259534D01*
X366776Y259116D01*
X366550Y258571D01*
Y257980D01*
X366776Y257435D01*
X367193Y257017D01*
X367739Y256791D01*
X368329D01*
X368875Y257017D01*
X369292Y257435D01*
X369518Y257980D01*
Y258571D01*
X369292Y259116D01*
X368875Y259534D01*
X368329Y259760D01*
D02*
G37*
G36*
X364711Y259608D02*
X364120D01*
X363575Y259382D01*
X363157Y258964D01*
X362931Y258419D01*
Y257828D01*
X363157Y257283D01*
X363575Y256865D01*
X364120Y256639D01*
X364711D01*
X365256Y256865D01*
X365674Y257283D01*
X365900Y257828D01*
Y258419D01*
X365674Y258964D01*
X365256Y259382D01*
X364711Y259608D01*
D02*
G37*
G36*
X331154Y256805D02*
X330563D01*
X330018Y256579D01*
X329600Y256161D01*
X329374Y255616D01*
Y255025D01*
X329600Y254480D01*
X330018Y254062D01*
X330563Y253836D01*
X331154D01*
X331699Y254062D01*
X332117Y254480D01*
X332343Y255025D01*
Y255616D01*
X332117Y256161D01*
X331699Y256579D01*
X331154Y256805D01*
D02*
G37*
G36*
X381325Y255959D02*
X380734D01*
X380189Y255733D01*
X379771Y255316D01*
X379545Y254770D01*
Y254180D01*
X379771Y253634D01*
X380189Y253217D01*
X380734Y252991D01*
X381325D01*
X381871Y253217D01*
X382288Y253634D01*
X382514Y254180D01*
Y254770D01*
X382288Y255316D01*
X381871Y255733D01*
X381325Y255959D01*
D02*
G37*
G36*
X372404Y255548D02*
X371814D01*
X371268Y255322D01*
X370851Y254905D01*
X370625Y254359D01*
Y253769D01*
X370851Y253223D01*
X371268Y252806D01*
X371814Y252580D01*
X372404D01*
X372950Y252806D01*
X373367Y253223D01*
X373593Y253769D01*
Y254359D01*
X373367Y254905D01*
X372950Y255322D01*
X372404Y255548D01*
D02*
G37*
G36*
X367915Y255486D02*
X367325D01*
X366779Y255260D01*
X366362Y254843D01*
X366136Y254297D01*
Y253707D01*
X366362Y253161D01*
X366779Y252744D01*
X367325Y252518D01*
X367915D01*
X368461Y252744D01*
X368878Y253161D01*
X369104Y253707D01*
Y254297D01*
X368878Y254843D01*
X368461Y255260D01*
X367915Y255486D01*
D02*
G37*
G36*
X252059Y254461D02*
X251469D01*
X250923Y254235D01*
X250506Y253818D01*
X250280Y253272D01*
Y252682D01*
X250506Y252136D01*
X250923Y251719D01*
X251469Y251493D01*
X252059D01*
X252605Y251719D01*
X253023Y252136D01*
X253249Y252682D01*
Y253272D01*
X253023Y253818D01*
X252605Y254235D01*
X252059Y254461D01*
D02*
G37*
G36*
X370199Y252036D02*
X369609D01*
X369063Y251810D01*
X368646Y251392D01*
X368420Y250847D01*
Y250256D01*
X368646Y249711D01*
X369063Y249293D01*
X369609Y249067D01*
X370199D01*
X370745Y249293D01*
X371163Y249711D01*
X371389Y250256D01*
Y250847D01*
X371163Y251392D01*
X370745Y251810D01*
X370199Y252036D01*
D02*
G37*
G36*
X411404Y246548D02*
X410814D01*
X410268Y246322D01*
X409851Y245905D01*
X409625Y245359D01*
Y244769D01*
X409851Y244223D01*
X410268Y243806D01*
X410814Y243580D01*
X411404D01*
X411950Y243806D01*
X412367Y244223D01*
X412593Y244769D01*
Y245359D01*
X412367Y245905D01*
X411950Y246322D01*
X411404Y246548D01*
D02*
G37*
G36*
X405404D02*
X404814D01*
X404268Y246322D01*
X403851Y245905D01*
X403625Y245359D01*
Y244769D01*
X403851Y244223D01*
X404268Y243806D01*
X404814Y243580D01*
X405404D01*
X405950Y243806D01*
X406367Y244223D01*
X406593Y244769D01*
Y245359D01*
X406367Y245905D01*
X405950Y246322D01*
X405404Y246548D01*
D02*
G37*
G36*
X418295Y243484D02*
X417705D01*
X417159Y243258D01*
X416742Y242841D01*
X416516Y242295D01*
Y241705D01*
X416742Y241159D01*
X417159Y240742D01*
X417705Y240516D01*
X418295D01*
X418841Y240742D01*
X419258Y241159D01*
X419484Y241705D01*
Y242295D01*
X419258Y242841D01*
X418841Y243258D01*
X418295Y243484D01*
D02*
G37*
G36*
X291494Y245484D02*
X290506D01*
X289593Y245106D01*
X288894Y244407D01*
X288516Y243494D01*
Y242506D01*
X288894Y241593D01*
X289593Y240894D01*
X290506Y240516D01*
X291494D01*
X292407Y240894D01*
X293106Y241593D01*
X293484Y242506D01*
Y243494D01*
X293106Y244407D01*
X292407Y245106D01*
X291494Y245484D01*
D02*
G37*
G36*
X281494D02*
X280506D01*
X279593Y245106D01*
X278894Y244407D01*
X278516Y243494D01*
Y242506D01*
X278894Y241593D01*
X279593Y240894D01*
X280506Y240516D01*
X281494D01*
X282407Y240894D01*
X283106Y241593D01*
X283484Y242506D01*
Y243494D01*
X283106Y244407D01*
X282407Y245106D01*
X281494Y245484D01*
D02*
G37*
G36*
X271494D02*
X270506D01*
X269593Y245106D01*
X268894Y244407D01*
X268516Y243494D01*
Y242506D01*
X268894Y241593D01*
X269593Y240894D01*
X270506Y240516D01*
X271494D01*
X272407Y240894D01*
X273106Y241593D01*
X273484Y242506D01*
Y243494D01*
X273106Y244407D01*
X272407Y245106D01*
X271494Y245484D01*
D02*
G37*
G36*
X261494D02*
X260506D01*
X259593Y245106D01*
X258894Y244407D01*
X258516Y243494D01*
Y242506D01*
X258894Y241593D01*
X259593Y240894D01*
X260506Y240516D01*
X261494D01*
X262407Y240894D01*
X263106Y241593D01*
X263484Y242506D01*
Y243494D01*
X263106Y244407D01*
X262407Y245106D01*
X261494Y245484D01*
D02*
G37*
G36*
X241494D02*
X240506D01*
X239593Y245106D01*
X238894Y244407D01*
X238516Y243494D01*
Y242506D01*
X238894Y241593D01*
X239593Y240894D01*
X240506Y240516D01*
X241494D01*
X242407Y240894D01*
X243106Y241593D01*
X243484Y242506D01*
Y243494D01*
X243106Y244407D01*
X242407Y245106D01*
X241494Y245484D01*
D02*
G37*
G36*
X231494D02*
X230506D01*
X229593Y245106D01*
X228894Y244407D01*
X228516Y243494D01*
Y242506D01*
X228894Y241593D01*
X229593Y240894D01*
X230506Y240516D01*
X231494D01*
X232407Y240894D01*
X233106Y241593D01*
X233484Y242506D01*
Y243494D01*
X233106Y244407D01*
X232407Y245106D01*
X231494Y245484D01*
D02*
G37*
G36*
X221494D02*
X220506D01*
X219593Y245106D01*
X218894Y244407D01*
X218516Y243494D01*
Y242506D01*
X218894Y241593D01*
X219593Y240894D01*
X220506Y240516D01*
X221494D01*
X222407Y240894D01*
X223106Y241593D01*
X223484Y242506D01*
Y243494D01*
X223106Y244407D01*
X222407Y245106D01*
X221494Y245484D01*
D02*
G37*
G36*
X191494D02*
X190506D01*
X189593Y245106D01*
X188894Y244407D01*
X188516Y243494D01*
Y242506D01*
X188894Y241593D01*
X189593Y240894D01*
X190506Y240516D01*
X191494D01*
X192407Y240894D01*
X193106Y241593D01*
X193484Y242506D01*
Y243494D01*
X193106Y244407D01*
X192407Y245106D01*
X191494Y245484D01*
D02*
G37*
G36*
X181494D02*
X180506D01*
X179593Y245106D01*
X178894Y244407D01*
X178516Y243494D01*
Y242506D01*
X178894Y241593D01*
X179593Y240894D01*
X180506Y240516D01*
X181494D01*
X182407Y240894D01*
X183106Y241593D01*
X183484Y242506D01*
Y243494D01*
X183106Y244407D01*
X182407Y245106D01*
X181494Y245484D01*
D02*
G37*
G36*
X171494D02*
X170506D01*
X169593Y245106D01*
X168894Y244407D01*
X168516Y243494D01*
Y242506D01*
X168894Y241593D01*
X169593Y240894D01*
X170506Y240516D01*
X171494D01*
X172407Y240894D01*
X173106Y241593D01*
X173484Y242506D01*
Y243494D01*
X173106Y244407D01*
X172407Y245106D01*
X171494Y245484D01*
D02*
G37*
G36*
X151494D02*
X150506D01*
X149593Y245106D01*
X148894Y244407D01*
X148516Y243494D01*
Y242506D01*
X148894Y241593D01*
X149593Y240894D01*
X150506Y240516D01*
X151494D01*
X152407Y240894D01*
X153106Y241593D01*
X153484Y242506D01*
Y243494D01*
X153106Y244407D01*
X152407Y245106D01*
X151494Y245484D01*
D02*
G37*
G36*
X141494D02*
X140506D01*
X139593Y245106D01*
X138894Y244407D01*
X138516Y243494D01*
Y242506D01*
X138894Y241593D01*
X139593Y240894D01*
X140506Y240516D01*
X141494D01*
X142407Y240894D01*
X143106Y241593D01*
X143484Y242506D01*
Y243494D01*
X143106Y244407D01*
X142407Y245106D01*
X141494Y245484D01*
D02*
G37*
G36*
X131494D02*
X130506D01*
X129593Y245106D01*
X128894Y244407D01*
X128516Y243494D01*
Y242506D01*
X128894Y241593D01*
X129593Y240894D01*
X130506Y240516D01*
X131494D01*
X132407Y240894D01*
X133106Y241593D01*
X133484Y242506D01*
Y243494D01*
X133106Y244407D01*
X132407Y245106D01*
X131494Y245484D01*
D02*
G37*
G36*
X101494D02*
X100506D01*
X99593Y245106D01*
X98894Y244407D01*
X98516Y243494D01*
Y242506D01*
X98894Y241593D01*
X99593Y240894D01*
X100506Y240516D01*
X101494D01*
X102407Y240894D01*
X103106Y241593D01*
X103484Y242506D01*
Y243494D01*
X103106Y244407D01*
X102407Y245106D01*
X101494Y245484D01*
D02*
G37*
G36*
X251494Y245484D02*
X250506D01*
X249593Y245106D01*
X248894Y244407D01*
X248516Y243494D01*
Y242506D01*
X248894Y241593D01*
X249593Y240894D01*
X250506Y240516D01*
X251494D01*
X252407Y240894D01*
X253106Y241593D01*
X253484Y242506D01*
Y243494D01*
X253106Y244407D01*
X252407Y245106D01*
X251494Y245484D01*
D02*
G37*
G36*
X211494D02*
X210506D01*
X209593Y245106D01*
X208894Y244407D01*
X208516Y243494D01*
Y242506D01*
X208894Y241593D01*
X209593Y240894D01*
X210506Y240516D01*
X211494D01*
X212407Y240894D01*
X213106Y241593D01*
X213484Y242506D01*
Y243494D01*
X213106Y244407D01*
X212407Y245106D01*
X211494Y245484D01*
D02*
G37*
G36*
X201494D02*
X200506D01*
X199593Y245106D01*
X198894Y244407D01*
X198516Y243494D01*
Y242506D01*
X198894Y241593D01*
X199593Y240894D01*
X200506Y240516D01*
X201494D01*
X202407Y240894D01*
X203106Y241593D01*
X203484Y242506D01*
Y243494D01*
X203106Y244407D01*
X202407Y245106D01*
X201494Y245484D01*
D02*
G37*
G36*
X161494D02*
X160506D01*
X159593Y245106D01*
X158894Y244407D01*
X158516Y243494D01*
Y242506D01*
X158894Y241593D01*
X159593Y240894D01*
X160506Y240516D01*
X161494D01*
X162407Y240894D01*
X163106Y241593D01*
X163484Y242506D01*
Y243494D01*
X163106Y244407D01*
X162407Y245106D01*
X161494Y245484D01*
D02*
G37*
G36*
X121494D02*
X120506D01*
X119593Y245106D01*
X118894Y244407D01*
X118516Y243494D01*
Y242506D01*
X118894Y241593D01*
X119593Y240894D01*
X120506Y240516D01*
X121494D01*
X122407Y240894D01*
X123106Y241593D01*
X123484Y242506D01*
Y243494D01*
X123106Y244407D01*
X122407Y245106D01*
X121494Y245484D01*
D02*
G37*
G36*
X111494D02*
X110506D01*
X109593Y245106D01*
X108894Y244407D01*
X108516Y243494D01*
Y242506D01*
X108894Y241593D01*
X109593Y240894D01*
X110506Y240516D01*
X111494D01*
X112407Y240894D01*
X113106Y241593D01*
X113484Y242506D01*
Y243494D01*
X113106Y244407D01*
X112407Y245106D01*
X111494Y245484D01*
D02*
G37*
G36*
X395404Y235548D02*
X394814D01*
X394268Y235322D01*
X393851Y234905D01*
X393625Y234359D01*
Y233769D01*
X393851Y233223D01*
X394268Y232806D01*
X394814Y232580D01*
X395404D01*
X395950Y232806D01*
X396367Y233223D01*
X396593Y233769D01*
Y234359D01*
X396367Y234905D01*
X395950Y235322D01*
X395404Y235548D01*
D02*
G37*
G36*
X383404D02*
X382814D01*
X382268Y235322D01*
X381851Y234905D01*
X381625Y234359D01*
Y233769D01*
X381851Y233223D01*
X382268Y232806D01*
X382814Y232580D01*
X383404D01*
X383950Y232806D01*
X384367Y233223D01*
X384593Y233769D01*
Y234359D01*
X384367Y234905D01*
X383950Y235322D01*
X383404Y235548D01*
D02*
G37*
G36*
X321659Y244693D02*
X320341D01*
X319048Y244436D01*
X317830Y243931D01*
X316734Y243199D01*
X315801Y242267D01*
X315069Y241170D01*
X314564Y239952D01*
X314307Y238659D01*
Y237341D01*
X314564Y236048D01*
X315069Y234830D01*
X315801Y233734D01*
X316734Y232801D01*
X317830Y232069D01*
X319048Y231564D01*
X320341Y231307D01*
X321659D01*
X322952Y231564D01*
X324170Y232069D01*
X325267Y232801D01*
X326199Y233734D01*
X326931Y234830D01*
X327436Y236048D01*
X327693Y237341D01*
Y238659D01*
X327436Y239952D01*
X326931Y241170D01*
X326199Y242267D01*
X325267Y243199D01*
X324170Y243931D01*
X322952Y244436D01*
X321659Y244693D01*
D02*
G37*
G36*
X261494Y235484D02*
X260506D01*
X259593Y235106D01*
X258894Y234407D01*
X258516Y233494D01*
Y232506D01*
X258894Y231593D01*
X259593Y230894D01*
X260506Y230516D01*
X261494D01*
X262407Y230894D01*
X263106Y231593D01*
X263484Y232506D01*
Y233494D01*
X263106Y234407D01*
X262407Y235106D01*
X261494Y235484D01*
D02*
G37*
G36*
X221494D02*
X220506D01*
X219593Y235106D01*
X218894Y234407D01*
X218516Y233494D01*
Y232506D01*
X218894Y231593D01*
X219593Y230894D01*
X220506Y230516D01*
X221494D01*
X222407Y230894D01*
X223106Y231593D01*
X223484Y232506D01*
Y233494D01*
X223106Y234407D01*
X222407Y235106D01*
X221494Y235484D01*
D02*
G37*
G36*
X171494D02*
X170506D01*
X169593Y235106D01*
X168894Y234407D01*
X168516Y233494D01*
Y232506D01*
X168894Y231593D01*
X169593Y230894D01*
X170506Y230516D01*
X171494D01*
X172407Y230894D01*
X173106Y231593D01*
X173484Y232506D01*
Y233494D01*
X173106Y234407D01*
X172407Y235106D01*
X171494Y235484D01*
D02*
G37*
G36*
X161494D02*
X160506D01*
X159593Y235106D01*
X158894Y234407D01*
X158516Y233494D01*
Y232506D01*
X158894Y231593D01*
X159593Y230894D01*
X160506Y230516D01*
X161494D01*
X162407Y230894D01*
X163106Y231593D01*
X163484Y232506D01*
Y233494D01*
X163106Y234407D01*
X162407Y235106D01*
X161494Y235484D01*
D02*
G37*
G36*
X291494Y235484D02*
X290506D01*
X289593Y235106D01*
X288894Y234407D01*
X288516Y233494D01*
Y232506D01*
X288894Y231593D01*
X289593Y230894D01*
X290506Y230516D01*
X291494D01*
X292407Y230894D01*
X293106Y231593D01*
X293484Y232506D01*
Y233494D01*
X293106Y234407D01*
X292407Y235106D01*
X291494Y235484D01*
D02*
G37*
G36*
X281494D02*
X280506D01*
X279593Y235106D01*
X278894Y234407D01*
X278516Y233494D01*
Y232506D01*
X278894Y231593D01*
X279593Y230894D01*
X280506Y230516D01*
X281494D01*
X282407Y230894D01*
X283106Y231593D01*
X283484Y232506D01*
Y233494D01*
X283106Y234407D01*
X282407Y235106D01*
X281494Y235484D01*
D02*
G37*
G36*
X271494D02*
X270506D01*
X269593Y235106D01*
X268894Y234407D01*
X268516Y233494D01*
Y232506D01*
X268894Y231593D01*
X269593Y230894D01*
X270506Y230516D01*
X271494D01*
X272407Y230894D01*
X273106Y231593D01*
X273484Y232506D01*
Y233494D01*
X273106Y234407D01*
X272407Y235106D01*
X271494Y235484D01*
D02*
G37*
G36*
X251494D02*
X250506D01*
X249593Y235106D01*
X248894Y234407D01*
X248516Y233494D01*
Y232506D01*
X248894Y231593D01*
X249593Y230894D01*
X250506Y230516D01*
X251494D01*
X252407Y230894D01*
X253106Y231593D01*
X253484Y232506D01*
Y233494D01*
X253106Y234407D01*
X252407Y235106D01*
X251494Y235484D01*
D02*
G37*
G36*
X241494D02*
X240506D01*
X239593Y235106D01*
X238894Y234407D01*
X238516Y233494D01*
Y232506D01*
X238894Y231593D01*
X239593Y230894D01*
X240506Y230516D01*
X241494D01*
X242407Y230894D01*
X243106Y231593D01*
X243484Y232506D01*
Y233494D01*
X243106Y234407D01*
X242407Y235106D01*
X241494Y235484D01*
D02*
G37*
G36*
X231494D02*
X230506D01*
X229593Y235106D01*
X228894Y234407D01*
X228516Y233494D01*
Y232506D01*
X228894Y231593D01*
X229593Y230894D01*
X230506Y230516D01*
X231494D01*
X232407Y230894D01*
X233106Y231593D01*
X233484Y232506D01*
Y233494D01*
X233106Y234407D01*
X232407Y235106D01*
X231494Y235484D01*
D02*
G37*
G36*
X211494D02*
X210506D01*
X209593Y235106D01*
X208894Y234407D01*
X208516Y233494D01*
Y232506D01*
X208894Y231593D01*
X209593Y230894D01*
X210506Y230516D01*
X211494D01*
X212407Y230894D01*
X213106Y231593D01*
X213484Y232506D01*
Y233494D01*
X213106Y234407D01*
X212407Y235106D01*
X211494Y235484D01*
D02*
G37*
G36*
X201494D02*
X200506D01*
X199593Y235106D01*
X198894Y234407D01*
X198516Y233494D01*
Y232506D01*
X198894Y231593D01*
X199593Y230894D01*
X200506Y230516D01*
X201494D01*
X202407Y230894D01*
X203106Y231593D01*
X203484Y232506D01*
Y233494D01*
X203106Y234407D01*
X202407Y235106D01*
X201494Y235484D01*
D02*
G37*
G36*
X191494D02*
X190506D01*
X189593Y235106D01*
X188894Y234407D01*
X188516Y233494D01*
Y232506D01*
X188894Y231593D01*
X189593Y230894D01*
X190506Y230516D01*
X191494D01*
X192407Y230894D01*
X193106Y231593D01*
X193484Y232506D01*
Y233494D01*
X193106Y234407D01*
X192407Y235106D01*
X191494Y235484D01*
D02*
G37*
G36*
X181494D02*
X180506D01*
X179593Y235106D01*
X178894Y234407D01*
X178516Y233494D01*
Y232506D01*
X178894Y231593D01*
X179593Y230894D01*
X180506Y230516D01*
X181494D01*
X182407Y230894D01*
X183106Y231593D01*
X183484Y232506D01*
Y233494D01*
X183106Y234407D01*
X182407Y235106D01*
X181494Y235484D01*
D02*
G37*
G36*
X151494D02*
X150506D01*
X149593Y235106D01*
X148894Y234407D01*
X148516Y233494D01*
Y232506D01*
X148894Y231593D01*
X149593Y230894D01*
X150506Y230516D01*
X151494D01*
X152407Y230894D01*
X153106Y231593D01*
X153484Y232506D01*
Y233494D01*
X153106Y234407D01*
X152407Y235106D01*
X151494Y235484D01*
D02*
G37*
G36*
X131494D02*
X130506D01*
X129593Y235106D01*
X128894Y234407D01*
X128516Y233494D01*
Y232506D01*
X128894Y231593D01*
X129593Y230894D01*
X130506Y230516D01*
X131494D01*
X132407Y230894D01*
X133106Y231593D01*
X133484Y232506D01*
Y233494D01*
X133106Y234407D01*
X132407Y235106D01*
X131494Y235484D01*
D02*
G37*
G36*
X121494D02*
X120506D01*
X119593Y235106D01*
X118894Y234407D01*
X118516Y233494D01*
Y232506D01*
X118894Y231593D01*
X119593Y230894D01*
X120506Y230516D01*
X121494D01*
X122407Y230894D01*
X123106Y231593D01*
X123484Y232506D01*
Y233494D01*
X123106Y234407D01*
X122407Y235106D01*
X121494Y235484D01*
D02*
G37*
G36*
X111494D02*
X110506D01*
X109593Y235106D01*
X108894Y234407D01*
X108516Y233494D01*
Y232506D01*
X108894Y231593D01*
X109593Y230894D01*
X110506Y230516D01*
X111494D01*
X112407Y230894D01*
X113106Y231593D01*
X113484Y232506D01*
Y233494D01*
X113106Y234407D01*
X112407Y235106D01*
X111494Y235484D01*
D02*
G37*
G36*
X101494D02*
X100506D01*
X99593Y235106D01*
X98894Y234407D01*
X98516Y233494D01*
Y232506D01*
X98894Y231593D01*
X99593Y230894D01*
X100506Y230516D01*
X101494D01*
X102407Y230894D01*
X103106Y231593D01*
X103484Y232506D01*
Y233494D01*
X103106Y234407D01*
X102407Y235106D01*
X101494Y235484D01*
D02*
G37*
G36*
X421404Y229548D02*
X420814D01*
X420268Y229322D01*
X419851Y228905D01*
X419625Y228359D01*
Y227769D01*
X419851Y227223D01*
X420268Y226806D01*
X420814Y226580D01*
X421404D01*
X421950Y226806D01*
X422367Y227223D01*
X422593Y227769D01*
Y228359D01*
X422367Y228905D01*
X421950Y229322D01*
X421404Y229548D01*
D02*
G37*
G36*
X412746Y227777D02*
X412156D01*
X411611Y227551D01*
X411193Y227134D01*
X410967Y226588D01*
Y225998D01*
X411193Y225452D01*
X411611Y225035D01*
X412156Y224809D01*
X412746D01*
X413292Y225035D01*
X413710Y225452D01*
X413936Y225998D01*
Y226588D01*
X413710Y227134D01*
X413292Y227551D01*
X412746Y227777D01*
D02*
G37*
G36*
X186055Y226029D02*
X185465D01*
X184919Y225803D01*
X184502Y225386D01*
X184276Y224840D01*
Y224250D01*
X184502Y223704D01*
X184919Y223287D01*
X185465Y223061D01*
X186055D01*
X186601Y223287D01*
X187018Y223704D01*
X187244Y224250D01*
Y224840D01*
X187018Y225386D01*
X186601Y225803D01*
X186055Y226029D01*
D02*
G37*
G36*
X198456Y224196D02*
X197866D01*
X197320Y223970D01*
X196903Y223552D01*
X196677Y223007D01*
Y222416D01*
X196903Y221871D01*
X197320Y221453D01*
X197866Y221227D01*
X198456D01*
X199002Y221453D01*
X199419Y221871D01*
X199645Y222416D01*
Y223007D01*
X199419Y223552D01*
X199002Y223970D01*
X198456Y224196D01*
D02*
G37*
G36*
X61659Y232193D02*
X60341D01*
X59048Y231936D01*
X57830Y231431D01*
X56734Y230699D01*
X55801Y229767D01*
X55069Y228670D01*
X54564Y227452D01*
X54307Y226159D01*
Y224841D01*
X54564Y223548D01*
X55069Y222330D01*
X55801Y221234D01*
X56734Y220301D01*
X57830Y219569D01*
X59048Y219064D01*
X60341Y218807D01*
X61659D01*
X62952Y219064D01*
X64170Y219569D01*
X65267Y220301D01*
X66199Y221234D01*
X66931Y222330D01*
X67436Y223548D01*
X67693Y224841D01*
Y226159D01*
X67436Y227452D01*
X66931Y228670D01*
X66199Y229767D01*
X65267Y230699D01*
X64170Y231431D01*
X62952Y231936D01*
X61659Y232193D01*
D02*
G37*
G36*
X205295Y221484D02*
X204705D01*
X204159Y221258D01*
X203742Y220841D01*
X203516Y220295D01*
Y219705D01*
X203742Y219159D01*
X204159Y218742D01*
X204705Y218516D01*
X205295D01*
X205841Y218742D01*
X206258Y219159D01*
X206484Y219705D01*
Y220295D01*
X206258Y220841D01*
X205841Y221258D01*
X205295Y221484D01*
D02*
G37*
G36*
X129094Y218822D02*
X128503D01*
X127958Y218596D01*
X127540Y218179D01*
X127314Y217633D01*
Y217043D01*
X127540Y216497D01*
X127958Y216080D01*
X128503Y215854D01*
X129094D01*
X129639Y216080D01*
X130057Y216497D01*
X130283Y217043D01*
Y217633D01*
X130057Y218179D01*
X129639Y218596D01*
X129094Y218822D01*
D02*
G37*
G36*
X125621Y218623D02*
X125030D01*
X124485Y218397D01*
X124067Y217979D01*
X123841Y217434D01*
Y216843D01*
X124067Y216298D01*
X124485Y215880D01*
X125030Y215654D01*
X125621D01*
X126166Y215880D01*
X126584Y216298D01*
X126810Y216843D01*
Y217434D01*
X126584Y217979D01*
X126166Y218397D01*
X125621Y218623D01*
D02*
G37*
G36*
X239762Y216664D02*
X239171D01*
X238626Y216438D01*
X238208Y216021D01*
X237982Y215475D01*
Y214885D01*
X238208Y214339D01*
X238626Y213921D01*
X239171Y213696D01*
X239762D01*
X240307Y213921D01*
X240725Y214339D01*
X240951Y214885D01*
Y215475D01*
X240725Y216021D01*
X240307Y216438D01*
X239762Y216664D01*
D02*
G37*
G36*
X155188Y216370D02*
X154597D01*
X154052Y216144D01*
X153635Y215726D01*
X153409Y215181D01*
Y214590D01*
X153635Y214045D01*
X154052Y213627D01*
X154597Y213401D01*
X155188D01*
X155734Y213627D01*
X156151Y214045D01*
X156377Y214590D01*
Y215181D01*
X156151Y215726D01*
X155734Y216144D01*
X155188Y216370D01*
D02*
G37*
G36*
X391767Y197075D02*
X391177D01*
X390631Y196850D01*
X390214Y196432D01*
X389988Y195887D01*
Y195296D01*
X390214Y194750D01*
X390631Y194333D01*
X391177Y194107D01*
X391767D01*
X392313Y194333D01*
X392730Y194750D01*
X392956Y195296D01*
Y195887D01*
X392730Y196432D01*
X392313Y196850D01*
X391767Y197075D01*
D02*
G37*
G36*
X55295Y185484D02*
X54705D01*
X54159Y185258D01*
X53742Y184841D01*
X53516Y184295D01*
Y183705D01*
X53742Y183159D01*
X54159Y182742D01*
X54705Y182516D01*
X55295D01*
X55841Y182742D01*
X56258Y183159D01*
X56484Y183705D01*
Y184295D01*
X56258Y184841D01*
X55841Y185258D01*
X55295Y185484D01*
D02*
G37*
G36*
X89970Y185347D02*
X89379D01*
X88834Y185121D01*
X88416Y184703D01*
X88190Y184158D01*
Y183567D01*
X88416Y183022D01*
X88834Y182604D01*
X89379Y182378D01*
X89970D01*
X90515Y182604D01*
X90933Y183022D01*
X91159Y183567D01*
Y184158D01*
X90933Y184703D01*
X90515Y185121D01*
X89970Y185347D01*
D02*
G37*
G36*
X155295Y183484D02*
X154705D01*
X154159Y183258D01*
X153742Y182841D01*
X153516Y182295D01*
Y181705D01*
X153742Y181159D01*
X154159Y180742D01*
X154705Y180516D01*
X155295D01*
X155841Y180742D01*
X156258Y181159D01*
X156484Y181705D01*
Y182295D01*
X156258Y182841D01*
X155841Y183258D01*
X155295Y183484D01*
D02*
G37*
G36*
X165298Y180500D02*
X164702D01*
X164150Y180272D01*
X163728Y179850D01*
X163500Y179298D01*
Y178702D01*
X163728Y178150D01*
X164150Y177728D01*
X164702Y177500D01*
X165298D01*
X165850Y177728D01*
X166272Y178150D01*
X166500Y178702D01*
Y179298D01*
X166272Y179850D01*
X165850Y180272D01*
X165298Y180500D01*
D02*
G37*
G36*
X223526Y178109D02*
X222935D01*
X222390Y177883D01*
X221972Y177466D01*
X221746Y176920D01*
Y176330D01*
X221972Y175784D01*
X222390Y175367D01*
X222935Y175141D01*
X223526D01*
X224071Y175367D01*
X224489Y175784D01*
X224715Y176330D01*
Y176920D01*
X224489Y177466D01*
X224071Y177883D01*
X223526Y178109D01*
D02*
G37*
G36*
X169727Y176845D02*
X169130D01*
X168579Y176616D01*
X168157Y176195D01*
X167929Y175643D01*
Y175046D01*
X168157Y174495D01*
X168579Y174073D01*
X169130Y173845D01*
X169727D01*
X170279Y174073D01*
X170700Y174495D01*
X170929Y175046D01*
Y175643D01*
X170700Y176195D01*
X170279Y176616D01*
X169727Y176845D01*
D02*
G37*
G36*
X474256Y187764D02*
X472744D01*
X471261Y187469D01*
X469864Y186890D01*
X468606Y186050D01*
X467537Y184980D01*
X466697Y183723D01*
X466118Y182326D01*
X465823Y180843D01*
Y179331D01*
X466118Y177847D01*
X466697Y176450D01*
X467537Y175193D01*
X468606Y174123D01*
X469864Y173283D01*
X471261Y172705D01*
X472744Y172409D01*
X474256D01*
X475739Y172705D01*
X477137Y173283D01*
X478394Y174123D01*
X479463Y175193D01*
X480303Y176450D01*
X480882Y177847D01*
X481177Y179331D01*
Y180843D01*
X480882Y182326D01*
X480303Y183723D01*
X479463Y184980D01*
X478394Y186050D01*
X477137Y186890D01*
X475739Y187469D01*
X474256Y187764D01*
D02*
G37*
G36*
X248000Y174503D02*
X247410D01*
X246864Y174277D01*
X246447Y173860D01*
X246221Y173314D01*
Y172724D01*
X246447Y172178D01*
X246864Y171761D01*
X247410Y171535D01*
X248000D01*
X248546Y171761D01*
X248963Y172178D01*
X249189Y172724D01*
Y173314D01*
X248963Y173860D01*
X248546Y174277D01*
X248000Y174503D01*
D02*
G37*
G36*
X174298Y172500D02*
X173702D01*
X173150Y172272D01*
X172728Y171850D01*
X172500Y171298D01*
Y170702D01*
X172728Y170150D01*
X173150Y169728D01*
X173702Y169500D01*
X174298D01*
X174850Y169728D01*
X175272Y170150D01*
X175500Y170702D01*
Y171298D01*
X175272Y171850D01*
X174850Y172272D01*
X174298Y172500D01*
D02*
G37*
G36*
X125704Y172244D02*
X125113D01*
X124568Y172018D01*
X124150Y171600D01*
X123924Y171055D01*
Y170464D01*
X124150Y169919D01*
X124568Y169501D01*
X125113Y169275D01*
X125704D01*
X126249Y169501D01*
X126667Y169919D01*
X126893Y170464D01*
Y171055D01*
X126667Y171600D01*
X126249Y172018D01*
X125704Y172244D01*
D02*
G37*
G36*
X60908Y167195D02*
X60317D01*
X59772Y166969D01*
X59354Y166551D01*
X59128Y166006D01*
Y165880D01*
X58628Y165673D01*
X58505Y165796D01*
X57960Y166022D01*
X57369D01*
X56824Y165796D01*
X56406Y165379D01*
X56180Y164833D01*
Y164243D01*
X56406Y163697D01*
X56824Y163280D01*
X57369Y163054D01*
X57960D01*
X58505Y163280D01*
X58923Y163697D01*
X59149Y164243D01*
Y164368D01*
X59649Y164576D01*
X59772Y164452D01*
X60317Y164226D01*
X60908D01*
X61453Y164452D01*
X61871Y164870D01*
X62097Y165416D01*
Y166006D01*
X61871Y166551D01*
X61453Y166969D01*
X60908Y167195D01*
D02*
G37*
G36*
X64514Y167341D02*
X63924D01*
X63378Y167114D01*
X62961Y166697D01*
X62735Y166151D01*
Y165561D01*
X62961Y165015D01*
X63378Y164598D01*
X63924Y164372D01*
X64514D01*
X65060Y164598D01*
X65477Y165015D01*
X65703Y165561D01*
Y166151D01*
X65477Y166697D01*
X65060Y167114D01*
X64514Y167341D01*
D02*
G37*
G36*
X68250Y166920D02*
X67659D01*
X67114Y166694D01*
X66696Y166277D01*
X66470Y165731D01*
Y165140D01*
X66696Y164595D01*
X67114Y164178D01*
X67659Y163952D01*
X68250D01*
X68795Y164178D01*
X69213Y164595D01*
X69439Y165140D01*
Y165731D01*
X69213Y166277D01*
X68795Y166694D01*
X68250Y166920D01*
D02*
G37*
G36*
X181298Y166500D02*
X180702D01*
X180150Y166272D01*
X179728Y165850D01*
X179500Y165298D01*
Y164702D01*
X179728Y164150D01*
X180150Y163728D01*
X180702Y163500D01*
X181298D01*
X181850Y163728D01*
X182272Y164150D01*
X182500Y164702D01*
Y165298D01*
X182272Y165850D01*
X181850Y166272D01*
X181298Y166500D01*
D02*
G37*
G36*
X223910Y168456D02*
X223320D01*
X222774Y168230D01*
X222357Y167813D01*
X222131Y167267D01*
Y166677D01*
X222357Y166131D01*
X222688Y165800D01*
X222734Y165489D01*
X222684Y165210D01*
X222346Y164872D01*
X222120Y164327D01*
Y163736D01*
X222346Y163191D01*
X222763Y162773D01*
X223309Y162547D01*
X223899D01*
X224445Y162773D01*
X224862Y163191D01*
X225088Y163736D01*
Y164327D01*
X224862Y164872D01*
X224531Y165204D01*
X224485Y165514D01*
X224535Y165793D01*
X224873Y166131D01*
X225099Y166677D01*
Y167267D01*
X224873Y167813D01*
X224456Y168230D01*
X223910Y168456D01*
D02*
G37*
G36*
X255230Y163052D02*
X254640D01*
X254094Y162826D01*
X253677Y162408D01*
X253450Y161863D01*
Y161272D01*
X253677Y160727D01*
X253929Y160474D01*
X254080Y160267D01*
X253940Y159832D01*
X253787Y159679D01*
X253561Y159133D01*
Y158543D01*
X253787Y157997D01*
X254205Y157580D01*
X254750Y157354D01*
X255341D01*
X255887Y157580D01*
X256304Y157997D01*
X256530Y158543D01*
Y159133D01*
X256304Y159679D01*
X256051Y159932D01*
X255900Y160138D01*
X256040Y160574D01*
X256193Y160727D01*
X256419Y161272D01*
Y161863D01*
X256193Y162408D01*
X255775Y162826D01*
X255230Y163052D01*
D02*
G37*
G36*
X72475Y159636D02*
X71885D01*
X71339Y159410D01*
X70922Y158993D01*
X70696Y158447D01*
Y157857D01*
X70922Y157311D01*
X71339Y156894D01*
X71885Y156668D01*
X72475D01*
X73021Y156894D01*
X73438Y157311D01*
X73664Y157857D01*
Y158447D01*
X73438Y158993D01*
X73021Y159410D01*
X72475Y159636D01*
D02*
G37*
G36*
X55995Y152720D02*
X55405D01*
X54859Y152494D01*
X54442Y152077D01*
X54216Y151531D01*
Y150941D01*
X54442Y150395D01*
X54859Y149978D01*
X55405Y149752D01*
X55995D01*
X56541Y149978D01*
X56958Y150395D01*
X57184Y150941D01*
Y151531D01*
X56958Y152077D01*
X56541Y152494D01*
X55995Y152720D01*
D02*
G37*
G36*
X176451Y150566D02*
X175860D01*
X175314Y150340D01*
X174897Y149923D01*
X174671Y149377D01*
Y148786D01*
X174897Y148241D01*
X175314Y147823D01*
X175860Y147598D01*
X176451D01*
X176996Y147823D01*
X177413Y148241D01*
X177639Y148786D01*
Y149377D01*
X177413Y149923D01*
X176996Y150340D01*
X176451Y150566D01*
D02*
G37*
G36*
X247172Y149713D02*
X246582D01*
X246036Y149487D01*
X245619Y149070D01*
X245393Y148524D01*
Y147934D01*
X245619Y147388D01*
X246036Y146971D01*
X246582Y146745D01*
X247172D01*
X247718Y146971D01*
X248135Y147388D01*
X248361Y147934D01*
Y148524D01*
X248135Y149070D01*
X247718Y149487D01*
X247172Y149713D01*
D02*
G37*
G36*
X125848Y147242D02*
X125257D01*
X124712Y147017D01*
X124294Y146599D01*
X124068Y146054D01*
Y145463D01*
X124294Y144918D01*
X124712Y144500D01*
X125257Y144274D01*
X125848D01*
X126393Y144500D01*
X126811Y144918D01*
X127037Y145463D01*
Y146054D01*
X126811Y146599D01*
X126393Y147017D01*
X125848Y147242D01*
D02*
G37*
G36*
X205295Y146484D02*
X204705D01*
X204159Y146258D01*
X203742Y145841D01*
X203516Y145295D01*
Y144705D01*
X203742Y144159D01*
X204159Y143742D01*
X204705Y143516D01*
X205295D01*
X205841Y143742D01*
X206258Y144159D01*
X206484Y144705D01*
Y145295D01*
X206258Y145841D01*
X205841Y146258D01*
X205295Y146484D01*
D02*
G37*
G36*
X56295Y142484D02*
X55705D01*
X55159Y142258D01*
X54742Y141841D01*
X54516Y141295D01*
Y140705D01*
X54742Y140159D01*
X55159Y139742D01*
X55705Y139516D01*
X56295D01*
X56841Y139742D01*
X57258Y140159D01*
X57484Y140705D01*
Y141295D01*
X57258Y141841D01*
X56841Y142258D01*
X56295Y142484D01*
D02*
G37*
G36*
X205010Y138400D02*
X204419D01*
X203874Y138174D01*
X203456Y137757D01*
X203230Y137211D01*
Y136621D01*
X203456Y136075D01*
X203874Y135658D01*
X204419Y135432D01*
X205010D01*
X205555Y135658D01*
X205973Y136075D01*
X206199Y136621D01*
Y137211D01*
X205973Y137757D01*
X205555Y138174D01*
X205010Y138400D01*
D02*
G37*
G36*
X255087Y138021D02*
X254497D01*
X253951Y137795D01*
X253533Y137377D01*
X253308Y136832D01*
Y136241D01*
X253533Y135696D01*
X253951Y135278D01*
X253966Y135201D01*
X253622Y134857D01*
X253396Y134311D01*
Y133721D01*
X253622Y133175D01*
X254040Y132758D01*
X254585Y132532D01*
X255176D01*
X255721Y132758D01*
X256139Y133175D01*
X256365Y133721D01*
Y134311D01*
X256139Y134857D01*
X255721Y135274D01*
X255706Y135352D01*
X256050Y135696D01*
X256276Y136241D01*
Y136832D01*
X256050Y137377D01*
X255632Y137795D01*
X255087Y138021D01*
D02*
G37*
G36*
X211073Y122469D02*
X210483D01*
X209937Y122243D01*
X209519Y121826D01*
X209294Y121280D01*
Y120689D01*
X209519Y120144D01*
X209937Y119726D01*
X210483Y119500D01*
X211073D01*
X211618Y119726D01*
X212036Y120144D01*
X212262Y120689D01*
Y121280D01*
X212036Y121826D01*
X211618Y122243D01*
X211073Y122469D01*
D02*
G37*
G36*
X255295Y118484D02*
X254705D01*
X254159Y118258D01*
X253742Y117841D01*
X253516Y117295D01*
Y116705D01*
X253742Y116159D01*
X254159Y115742D01*
X254705Y115516D01*
X255295D01*
X255841Y115742D01*
X256258Y116159D01*
X256484Y116705D01*
Y117295D01*
X256258Y117841D01*
X255841Y118258D01*
X255295Y118484D01*
D02*
G37*
G36*
X224831Y120055D02*
X224240D01*
X223695Y119829D01*
X223277Y119412D01*
X223052Y118866D01*
Y118276D01*
X223277Y117730D01*
X223695Y117313D01*
X224240Y117087D01*
X224730D01*
Y116616D01*
X224956Y116071D01*
X225374Y115653D01*
X225919Y115427D01*
X226510D01*
X227055Y115653D01*
X227473Y116071D01*
X227699Y116616D01*
Y117207D01*
X227473Y117752D01*
X227055Y118170D01*
X226510Y118396D01*
X226020D01*
Y118866D01*
X225794Y119412D01*
X225377Y119829D01*
X224831Y120055D01*
D02*
G37*
G36*
X220295Y117484D02*
X219705D01*
X219159Y117258D01*
X218742Y116841D01*
X218516Y116295D01*
Y115705D01*
X218742Y115159D01*
X219159Y114742D01*
X219705Y114516D01*
X220295D01*
X220841Y114742D01*
X221258Y115159D01*
X221484Y115705D01*
Y116295D01*
X221258Y116841D01*
X220841Y117258D01*
X220295Y117484D01*
D02*
G37*
G36*
X201295Y100484D02*
X200705D01*
X200159Y100258D01*
X199742Y99841D01*
X199516Y99295D01*
Y98705D01*
X199742Y98159D01*
X200159Y97742D01*
X200705Y97516D01*
X201295D01*
X201841Y97742D01*
X202258Y98159D01*
X202484Y98705D01*
Y99295D01*
X202258Y99841D01*
X201841Y100258D01*
X201295Y100484D01*
D02*
G37*
G36*
X84295D02*
X83705D01*
X83159Y100258D01*
X82742Y99841D01*
X82516Y99295D01*
Y98705D01*
X82742Y98159D01*
X83159Y97742D01*
X83705Y97516D01*
X84295D01*
X84841Y97742D01*
X85258Y98159D01*
X85484Y98705D01*
Y99295D01*
X85258Y99841D01*
X84841Y100258D01*
X84295Y100484D01*
D02*
G37*
G36*
X60077Y99570D02*
X59487D01*
X58941Y99344D01*
X58524Y98927D01*
X58298Y98381D01*
Y97791D01*
X58524Y97245D01*
X58941Y96828D01*
X59487Y96602D01*
X60077D01*
X60623Y96828D01*
X61040Y97245D01*
X61266Y97791D01*
Y98381D01*
X61040Y98927D01*
X60623Y99344D01*
X60077Y99570D01*
D02*
G37*
G36*
X138295Y91484D02*
X137705D01*
X137159Y91258D01*
X136742Y90841D01*
X136516Y90295D01*
Y89705D01*
X136742Y89159D01*
X137159Y88742D01*
X137705Y88516D01*
X138295D01*
X138841Y88742D01*
X139258Y89159D01*
X139484Y89705D01*
Y90295D01*
X139258Y90841D01*
X138841Y91258D01*
X138295Y91484D01*
D02*
G37*
G36*
X401869Y90250D02*
X401279D01*
X400733Y90024D01*
X400316Y89606D01*
X400090Y89061D01*
Y88470D01*
X400316Y87925D01*
X400733Y87507D01*
X401279Y87281D01*
X401869D01*
X402415Y87507D01*
X402832Y87925D01*
X403058Y88470D01*
Y89061D01*
X402832Y89606D01*
X402415Y90024D01*
X401869Y90250D01*
D02*
G37*
G36*
X378315Y88591D02*
X377725D01*
X377179Y88365D01*
X376762Y87947D01*
X376536Y87402D01*
Y86812D01*
X376762Y86266D01*
X377179Y85848D01*
X377725Y85623D01*
X378315D01*
X378861Y85848D01*
X379278Y86266D01*
X379504Y86812D01*
Y87402D01*
X379278Y87947D01*
X378861Y88365D01*
X378315Y88591D01*
D02*
G37*
G36*
X226295Y86484D02*
X225705D01*
X225159Y86258D01*
X224742Y85841D01*
X224516Y85295D01*
Y84705D01*
X224742Y84159D01*
X225159Y83742D01*
X225705Y83516D01*
X226295D01*
X226841Y83742D01*
X227258Y84159D01*
X227484Y84705D01*
Y85295D01*
X227258Y85841D01*
X226841Y86258D01*
X226295Y86484D01*
D02*
G37*
G36*
X251295Y84484D02*
X250705D01*
X250159Y84258D01*
X249742Y83841D01*
X249516Y83295D01*
Y82705D01*
X249742Y82159D01*
X250159Y81742D01*
X250705Y81516D01*
X251295D01*
X251841Y81742D01*
X252258Y82159D01*
X252484Y82705D01*
Y83295D01*
X252258Y83841D01*
X251841Y84258D01*
X251295Y84484D01*
D02*
G37*
G36*
X474256Y93866D02*
X472744D01*
X471261Y93571D01*
X469864Y92992D01*
X468606Y92152D01*
X467537Y91083D01*
X466697Y89825D01*
X466118Y88428D01*
X465823Y86945D01*
Y85433D01*
X466118Y83950D01*
X466697Y82552D01*
X467537Y81295D01*
X468606Y80226D01*
X469864Y79386D01*
X471261Y78807D01*
X472744Y78512D01*
X474256D01*
X475739Y78807D01*
X477137Y79386D01*
X478394Y80226D01*
X479463Y81295D01*
X480303Y82552D01*
X480882Y83950D01*
X481177Y85433D01*
Y86945D01*
X480882Y88428D01*
X480303Y89825D01*
X479463Y91083D01*
X478394Y92152D01*
X477137Y92992D01*
X475739Y93571D01*
X474256Y93866D01*
D02*
G37*
G36*
X61659Y67193D02*
X60341D01*
X59048Y66936D01*
X57830Y66431D01*
X56734Y65699D01*
X55801Y64767D01*
X55069Y63670D01*
X54564Y62452D01*
X54307Y61159D01*
Y59841D01*
X54564Y58548D01*
X55069Y57330D01*
X55801Y56234D01*
X56734Y55301D01*
X57830Y54569D01*
X59048Y54064D01*
X60341Y53807D01*
X61659D01*
X62952Y54064D01*
X64170Y54569D01*
X65267Y55301D01*
X66199Y56234D01*
X66931Y57330D01*
X67436Y58548D01*
X67693Y59841D01*
Y61159D01*
X67436Y62452D01*
X66931Y63670D01*
X66199Y64767D01*
X65267Y65699D01*
X64170Y66431D01*
X62952Y66936D01*
X61659Y67193D01*
D02*
G37*
G36*
X368287Y54937D02*
X367696D01*
X367151Y54711D01*
X366733Y54294D01*
X366507Y53748D01*
Y53158D01*
X366733Y52612D01*
X367151Y52194D01*
X367696Y51969D01*
X368287D01*
X368832Y52194D01*
X369250Y52612D01*
X369476Y53158D01*
Y53748D01*
X369250Y54294D01*
X368832Y54711D01*
X368287Y54937D01*
D02*
G37*
G36*
X388295Y54484D02*
X387705D01*
X387159Y54258D01*
X386742Y53841D01*
X386516Y53295D01*
Y52705D01*
X386742Y52159D01*
X387159Y51742D01*
X387705Y51516D01*
X388295D01*
X388841Y51742D01*
X389258Y52159D01*
X389484Y52705D01*
Y53295D01*
X389258Y53841D01*
X388841Y54258D01*
X388295Y54484D01*
D02*
G37*
G36*
X291494Y55484D02*
X290506D01*
X289593Y55106D01*
X288894Y54407D01*
X288516Y53494D01*
Y52506D01*
X288894Y51593D01*
X289593Y50894D01*
X290506Y50516D01*
X291494D01*
X292407Y50894D01*
X293106Y51593D01*
X293484Y52506D01*
Y53494D01*
X293106Y54407D01*
X292407Y55106D01*
X291494Y55484D01*
D02*
G37*
G36*
X281494D02*
X280506D01*
X279593Y55106D01*
X278894Y54407D01*
X278516Y53494D01*
Y52506D01*
X278894Y51593D01*
X279593Y50894D01*
X280506Y50516D01*
X281494D01*
X282407Y50894D01*
X283106Y51593D01*
X283484Y52506D01*
Y53494D01*
X283106Y54407D01*
X282407Y55106D01*
X281494Y55484D01*
D02*
G37*
G36*
X271494D02*
X270506D01*
X269593Y55106D01*
X268894Y54407D01*
X268516Y53494D01*
Y52506D01*
X268894Y51593D01*
X269593Y50894D01*
X270506Y50516D01*
X271494D01*
X272407Y50894D01*
X273106Y51593D01*
X273484Y52506D01*
Y53494D01*
X273106Y54407D01*
X272407Y55106D01*
X271494Y55484D01*
D02*
G37*
G36*
X261494D02*
X260506D01*
X259593Y55106D01*
X258894Y54407D01*
X258516Y53494D01*
Y52506D01*
X258894Y51593D01*
X259593Y50894D01*
X260506Y50516D01*
X261494D01*
X262407Y50894D01*
X263106Y51593D01*
X263484Y52506D01*
Y53494D01*
X263106Y54407D01*
X262407Y55106D01*
X261494Y55484D01*
D02*
G37*
G36*
X251494D02*
X250506D01*
X249593Y55106D01*
X248894Y54407D01*
X248516Y53494D01*
Y52506D01*
X248894Y51593D01*
X249593Y50894D01*
X250506Y50516D01*
X251494D01*
X252407Y50894D01*
X253106Y51593D01*
X253484Y52506D01*
Y53494D01*
X253106Y54407D01*
X252407Y55106D01*
X251494Y55484D01*
D02*
G37*
G36*
X241494D02*
X240506D01*
X239593Y55106D01*
X238894Y54407D01*
X238516Y53494D01*
Y52506D01*
X238894Y51593D01*
X239593Y50894D01*
X240506Y50516D01*
X241494D01*
X242407Y50894D01*
X243106Y51593D01*
X243484Y52506D01*
Y53494D01*
X243106Y54407D01*
X242407Y55106D01*
X241494Y55484D01*
D02*
G37*
G36*
X231494D02*
X230506D01*
X229593Y55106D01*
X228894Y54407D01*
X228516Y53494D01*
Y52506D01*
X228894Y51593D01*
X229593Y50894D01*
X230506Y50516D01*
X231494D01*
X232407Y50894D01*
X233106Y51593D01*
X233484Y52506D01*
Y53494D01*
X233106Y54407D01*
X232407Y55106D01*
X231494Y55484D01*
D02*
G37*
G36*
X221494D02*
X220506D01*
X219593Y55106D01*
X218894Y54407D01*
X218516Y53494D01*
Y52506D01*
X218894Y51593D01*
X219593Y50894D01*
X220506Y50516D01*
X221494D01*
X222407Y50894D01*
X223106Y51593D01*
X223484Y52506D01*
Y53494D01*
X223106Y54407D01*
X222407Y55106D01*
X221494Y55484D01*
D02*
G37*
G36*
X211494D02*
X210506D01*
X209593Y55106D01*
X208894Y54407D01*
X208516Y53494D01*
Y52506D01*
X208894Y51593D01*
X209593Y50894D01*
X210506Y50516D01*
X211494D01*
X212407Y50894D01*
X213106Y51593D01*
X213484Y52506D01*
Y53494D01*
X213106Y54407D01*
X212407Y55106D01*
X211494Y55484D01*
D02*
G37*
G36*
X201494D02*
X200506D01*
X199593Y55106D01*
X198894Y54407D01*
X198516Y53494D01*
Y52506D01*
X198894Y51593D01*
X199593Y50894D01*
X200506Y50516D01*
X201494D01*
X202407Y50894D01*
X203106Y51593D01*
X203484Y52506D01*
Y53494D01*
X203106Y54407D01*
X202407Y55106D01*
X201494Y55484D01*
D02*
G37*
G36*
X191494D02*
X190506D01*
X189593Y55106D01*
X188894Y54407D01*
X188516Y53494D01*
Y52506D01*
X188894Y51593D01*
X189593Y50894D01*
X190506Y50516D01*
X191494D01*
X192407Y50894D01*
X193106Y51593D01*
X193484Y52506D01*
Y53494D01*
X193106Y54407D01*
X192407Y55106D01*
X191494Y55484D01*
D02*
G37*
G36*
X181494D02*
X180506D01*
X179593Y55106D01*
X178894Y54407D01*
X178516Y53494D01*
Y52506D01*
X178894Y51593D01*
X179593Y50894D01*
X180506Y50516D01*
X181494D01*
X182407Y50894D01*
X183106Y51593D01*
X183484Y52506D01*
Y53494D01*
X183106Y54407D01*
X182407Y55106D01*
X181494Y55484D01*
D02*
G37*
G36*
X171494D02*
X170506D01*
X169593Y55106D01*
X168894Y54407D01*
X168516Y53494D01*
Y52506D01*
X168894Y51593D01*
X169593Y50894D01*
X170506Y50516D01*
X171494D01*
X172407Y50894D01*
X173106Y51593D01*
X173484Y52506D01*
Y53494D01*
X173106Y54407D01*
X172407Y55106D01*
X171494Y55484D01*
D02*
G37*
G36*
X161494D02*
X160506D01*
X159593Y55106D01*
X158894Y54407D01*
X158516Y53494D01*
Y52506D01*
X158894Y51593D01*
X159593Y50894D01*
X160506Y50516D01*
X161494D01*
X162407Y50894D01*
X163106Y51593D01*
X163484Y52506D01*
Y53494D01*
X163106Y54407D01*
X162407Y55106D01*
X161494Y55484D01*
D02*
G37*
G36*
X151494D02*
X150506D01*
X149593Y55106D01*
X148894Y54407D01*
X148516Y53494D01*
Y52506D01*
X148894Y51593D01*
X149593Y50894D01*
X150506Y50516D01*
X151494D01*
X152407Y50894D01*
X153106Y51593D01*
X153484Y52506D01*
Y53494D01*
X153106Y54407D01*
X152407Y55106D01*
X151494Y55484D01*
D02*
G37*
G36*
X141494D02*
X140506D01*
X139593Y55106D01*
X138894Y54407D01*
X138516Y53494D01*
Y52506D01*
X138894Y51593D01*
X139593Y50894D01*
X140506Y50516D01*
X141494D01*
X142407Y50894D01*
X143106Y51593D01*
X143484Y52506D01*
Y53494D01*
X143106Y54407D01*
X142407Y55106D01*
X141494Y55484D01*
D02*
G37*
G36*
X131494D02*
X130506D01*
X129593Y55106D01*
X128894Y54407D01*
X128516Y53494D01*
Y52506D01*
X128894Y51593D01*
X129593Y50894D01*
X130506Y50516D01*
X131494D01*
X132407Y50894D01*
X133106Y51593D01*
X133484Y52506D01*
Y53494D01*
X133106Y54407D01*
X132407Y55106D01*
X131494Y55484D01*
D02*
G37*
G36*
X121494D02*
X120506D01*
X119593Y55106D01*
X118894Y54407D01*
X118516Y53494D01*
Y52506D01*
X118894Y51593D01*
X119593Y50894D01*
X120506Y50516D01*
X121494D01*
X122407Y50894D01*
X123106Y51593D01*
X123484Y52506D01*
Y53494D01*
X123106Y54407D01*
X122407Y55106D01*
X121494Y55484D01*
D02*
G37*
G36*
X111494D02*
X110506D01*
X109593Y55106D01*
X108894Y54407D01*
X108516Y53494D01*
Y52506D01*
X108894Y51593D01*
X109593Y50894D01*
X110506Y50516D01*
X111494D01*
X112407Y50894D01*
X113106Y51593D01*
X113484Y52506D01*
Y53494D01*
X113106Y54407D01*
X112407Y55106D01*
X111494Y55484D01*
D02*
G37*
G36*
X101494D02*
X100506D01*
X99593Y55106D01*
X98894Y54407D01*
X98516Y53494D01*
Y52506D01*
X98894Y51593D01*
X99593Y50894D01*
X100506Y50516D01*
X101494D01*
X102407Y50894D01*
X103106Y51593D01*
X103484Y52506D01*
Y53494D01*
X103106Y54407D01*
X102407Y55106D01*
X101494Y55484D01*
D02*
G37*
G36*
X91494D02*
X90506D01*
X89593Y55106D01*
X88894Y54407D01*
X88516Y53494D01*
Y52506D01*
X88894Y51593D01*
X89593Y50894D01*
X90506Y50516D01*
X91494D01*
X92407Y50894D01*
X93106Y51593D01*
X93484Y52506D01*
Y53494D01*
X93106Y54407D01*
X92407Y55106D01*
X91494Y55484D01*
D02*
G37*
G36*
X81494D02*
X80506D01*
X79593Y55106D01*
X78894Y54407D01*
X78516Y53494D01*
Y52506D01*
X78894Y51593D01*
X79593Y50894D01*
X80506Y50516D01*
X81494D01*
X82407Y50894D01*
X83106Y51593D01*
X83484Y52506D01*
Y53494D01*
X83106Y54407D01*
X82407Y55106D01*
X81494Y55484D01*
D02*
G37*
G36*
X367239Y51024D02*
X366649D01*
X366103Y50798D01*
X365685Y50380D01*
X365459Y49834D01*
Y49244D01*
X365685Y48698D01*
X366103Y48281D01*
X366649Y48055D01*
X367239D01*
X367785Y48281D01*
X368202Y48698D01*
X368428Y49244D01*
Y49834D01*
X368202Y50380D01*
X367785Y50798D01*
X367239Y51024D01*
D02*
G37*
G36*
X412327Y49548D02*
X411737D01*
X411191Y49322D01*
X410774Y48905D01*
X410548Y48359D01*
Y47769D01*
X410774Y47223D01*
X411191Y46806D01*
X411737Y46580D01*
X412327D01*
X412873Y46806D01*
X413290Y47223D01*
X413516Y47769D01*
Y48359D01*
X413290Y48905D01*
X412873Y49322D01*
X412327Y49548D01*
D02*
G37*
G36*
X321659Y54693D02*
X320341D01*
X319048Y54436D01*
X317830Y53931D01*
X316734Y53199D01*
X315801Y52267D01*
X315069Y51170D01*
X314564Y49952D01*
X314307Y48659D01*
Y47341D01*
X314564Y46048D01*
X315069Y44830D01*
X315801Y43734D01*
X316734Y42801D01*
X317830Y42069D01*
X319048Y41564D01*
X320341Y41307D01*
X321659D01*
X322952Y41564D01*
X324170Y42069D01*
X325267Y42801D01*
X326199Y43734D01*
X326931Y44830D01*
X327436Y46048D01*
X327693Y47341D01*
Y48659D01*
X327436Y49952D01*
X326931Y51170D01*
X326199Y52267D01*
X325267Y53199D01*
X324170Y53931D01*
X322952Y54436D01*
X321659Y54693D01*
D02*
G37*
G36*
X291494Y45484D02*
X290506D01*
X289593Y45106D01*
X288894Y44407D01*
X288516Y43494D01*
Y42506D01*
X288894Y41593D01*
X289593Y40894D01*
X290506Y40516D01*
X291494D01*
X292407Y40894D01*
X293106Y41593D01*
X293484Y42506D01*
Y43494D01*
X293106Y44407D01*
X292407Y45106D01*
X291494Y45484D01*
D02*
G37*
G36*
X281494D02*
X280506D01*
X279593Y45106D01*
X278894Y44407D01*
X278516Y43494D01*
Y42506D01*
X278894Y41593D01*
X279593Y40894D01*
X280506Y40516D01*
X281494D01*
X282407Y40894D01*
X283106Y41593D01*
X283484Y42506D01*
Y43494D01*
X283106Y44407D01*
X282407Y45106D01*
X281494Y45484D01*
D02*
G37*
G36*
X271494D02*
X270506D01*
X269593Y45106D01*
X268894Y44407D01*
X268516Y43494D01*
Y42506D01*
X268894Y41593D01*
X269593Y40894D01*
X270506Y40516D01*
X271494D01*
X272407Y40894D01*
X273106Y41593D01*
X273484Y42506D01*
Y43494D01*
X273106Y44407D01*
X272407Y45106D01*
X271494Y45484D01*
D02*
G37*
G36*
X261494D02*
X260506D01*
X259593Y45106D01*
X258894Y44407D01*
X258516Y43494D01*
Y42506D01*
X258894Y41593D01*
X259593Y40894D01*
X260506Y40516D01*
X261494D01*
X262407Y40894D01*
X263106Y41593D01*
X263484Y42506D01*
Y43494D01*
X263106Y44407D01*
X262407Y45106D01*
X261494Y45484D01*
D02*
G37*
G36*
X251494D02*
X250506D01*
X249593Y45106D01*
X248894Y44407D01*
X248516Y43494D01*
Y42506D01*
X248894Y41593D01*
X249593Y40894D01*
X250506Y40516D01*
X251494D01*
X252407Y40894D01*
X253106Y41593D01*
X253484Y42506D01*
Y43494D01*
X253106Y44407D01*
X252407Y45106D01*
X251494Y45484D01*
D02*
G37*
G36*
X241494D02*
X240506D01*
X239593Y45106D01*
X238894Y44407D01*
X238516Y43494D01*
Y42506D01*
X238894Y41593D01*
X239593Y40894D01*
X240506Y40516D01*
X241494D01*
X242407Y40894D01*
X243106Y41593D01*
X243484Y42506D01*
Y43494D01*
X243106Y44407D01*
X242407Y45106D01*
X241494Y45484D01*
D02*
G37*
G36*
X231494D02*
X230506D01*
X229593Y45106D01*
X228894Y44407D01*
X228516Y43494D01*
Y42506D01*
X228894Y41593D01*
X229593Y40894D01*
X230506Y40516D01*
X231494D01*
X232407Y40894D01*
X233106Y41593D01*
X233484Y42506D01*
Y43494D01*
X233106Y44407D01*
X232407Y45106D01*
X231494Y45484D01*
D02*
G37*
G36*
X221494D02*
X220506D01*
X219593Y45106D01*
X218894Y44407D01*
X218516Y43494D01*
Y42506D01*
X218894Y41593D01*
X219593Y40894D01*
X220506Y40516D01*
X221494D01*
X222407Y40894D01*
X223106Y41593D01*
X223484Y42506D01*
Y43494D01*
X223106Y44407D01*
X222407Y45106D01*
X221494Y45484D01*
D02*
G37*
G36*
X211494D02*
X210506D01*
X209593Y45106D01*
X208894Y44407D01*
X208516Y43494D01*
Y42506D01*
X208894Y41593D01*
X209593Y40894D01*
X210506Y40516D01*
X211494D01*
X212407Y40894D01*
X213106Y41593D01*
X213484Y42506D01*
Y43494D01*
X213106Y44407D01*
X212407Y45106D01*
X211494Y45484D01*
D02*
G37*
G36*
X201494D02*
X200506D01*
X199593Y45106D01*
X198894Y44407D01*
X198516Y43494D01*
Y42506D01*
X198894Y41593D01*
X199593Y40894D01*
X200506Y40516D01*
X201494D01*
X202407Y40894D01*
X203106Y41593D01*
X203484Y42506D01*
Y43494D01*
X203106Y44407D01*
X202407Y45106D01*
X201494Y45484D01*
D02*
G37*
G36*
X191494D02*
X190506D01*
X189593Y45106D01*
X188894Y44407D01*
X188516Y43494D01*
Y42506D01*
X188894Y41593D01*
X189593Y40894D01*
X190506Y40516D01*
X191494D01*
X192407Y40894D01*
X193106Y41593D01*
X193484Y42506D01*
Y43494D01*
X193106Y44407D01*
X192407Y45106D01*
X191494Y45484D01*
D02*
G37*
G36*
X181494D02*
X180506D01*
X179593Y45106D01*
X178894Y44407D01*
X178516Y43494D01*
Y42506D01*
X178894Y41593D01*
X179593Y40894D01*
X180506Y40516D01*
X181494D01*
X182407Y40894D01*
X183106Y41593D01*
X183484Y42506D01*
Y43494D01*
X183106Y44407D01*
X182407Y45106D01*
X181494Y45484D01*
D02*
G37*
G36*
X171494D02*
X170506D01*
X169593Y45106D01*
X168894Y44407D01*
X168516Y43494D01*
Y42506D01*
X168894Y41593D01*
X169593Y40894D01*
X170506Y40516D01*
X171494D01*
X172407Y40894D01*
X173106Y41593D01*
X173484Y42506D01*
Y43494D01*
X173106Y44407D01*
X172407Y45106D01*
X171494Y45484D01*
D02*
G37*
G36*
X161494D02*
X160506D01*
X159593Y45106D01*
X158894Y44407D01*
X158516Y43494D01*
Y42506D01*
X158894Y41593D01*
X159593Y40894D01*
X160506Y40516D01*
X161494D01*
X162407Y40894D01*
X163106Y41593D01*
X163484Y42506D01*
Y43494D01*
X163106Y44407D01*
X162407Y45106D01*
X161494Y45484D01*
D02*
G37*
G36*
X151494D02*
X150506D01*
X149593Y45106D01*
X148894Y44407D01*
X148516Y43494D01*
Y42506D01*
X148894Y41593D01*
X149593Y40894D01*
X150506Y40516D01*
X151494D01*
X152407Y40894D01*
X153106Y41593D01*
X153484Y42506D01*
Y43494D01*
X153106Y44407D01*
X152407Y45106D01*
X151494Y45484D01*
D02*
G37*
G36*
X141494D02*
X140506D01*
X139593Y45106D01*
X138894Y44407D01*
X138516Y43494D01*
Y42506D01*
X138894Y41593D01*
X139593Y40894D01*
X140506Y40516D01*
X141494D01*
X142407Y40894D01*
X143106Y41593D01*
X143484Y42506D01*
Y43494D01*
X143106Y44407D01*
X142407Y45106D01*
X141494Y45484D01*
D02*
G37*
G36*
X131494D02*
X130506D01*
X129593Y45106D01*
X128894Y44407D01*
X128516Y43494D01*
Y42506D01*
X128894Y41593D01*
X129593Y40894D01*
X130506Y40516D01*
X131494D01*
X132407Y40894D01*
X133106Y41593D01*
X133484Y42506D01*
Y43494D01*
X133106Y44407D01*
X132407Y45106D01*
X131494Y45484D01*
D02*
G37*
G36*
X121494D02*
X120506D01*
X119593Y45106D01*
X118894Y44407D01*
X118516Y43494D01*
Y42506D01*
X118894Y41593D01*
X119593Y40894D01*
X120506Y40516D01*
X121494D01*
X122407Y40894D01*
X123106Y41593D01*
X123484Y42506D01*
Y43494D01*
X123106Y44407D01*
X122407Y45106D01*
X121494Y45484D01*
D02*
G37*
G36*
X111494D02*
X110506D01*
X109593Y45106D01*
X108894Y44407D01*
X108516Y43494D01*
Y42506D01*
X108894Y41593D01*
X109593Y40894D01*
X110506Y40516D01*
X111494D01*
X112407Y40894D01*
X113106Y41593D01*
X113484Y42506D01*
Y43494D01*
X113106Y44407D01*
X112407Y45106D01*
X111494Y45484D01*
D02*
G37*
G36*
X101494D02*
X100506D01*
X99593Y45106D01*
X98894Y44407D01*
X98516Y43494D01*
Y42506D01*
X98894Y41593D01*
X99593Y40894D01*
X100506Y40516D01*
X101494D01*
X102407Y40894D01*
X103106Y41593D01*
X103484Y42506D01*
Y43494D01*
X103106Y44407D01*
X102407Y45106D01*
X101494Y45484D01*
D02*
G37*
G36*
X91494D02*
X90506D01*
X89593Y45106D01*
X88894Y44407D01*
X88516Y43494D01*
Y42506D01*
X88894Y41593D01*
X89593Y40894D01*
X90506Y40516D01*
X91494D01*
X92407Y40894D01*
X93106Y41593D01*
X93484Y42506D01*
Y43494D01*
X93106Y44407D01*
X92407Y45106D01*
X91494Y45484D01*
D02*
G37*
G36*
X81494D02*
X80506D01*
X79593Y45106D01*
X78894Y44407D01*
X78516Y43494D01*
Y42506D01*
X78894Y41593D01*
X79593Y40894D01*
X80506Y40516D01*
X81494D01*
X82407Y40894D01*
X83106Y41593D01*
X83484Y42506D01*
Y43494D01*
X83106Y44407D01*
X82407Y45106D01*
X81494Y45484D01*
D02*
G37*
G36*
X401947Y41790D02*
X401356D01*
X400811Y41564D01*
X400393Y41146D01*
X400167Y40601D01*
Y40010D01*
X400393Y39465D01*
X400811Y39047D01*
X401356Y38821D01*
X401947D01*
X402492Y39047D01*
X402910Y39465D01*
X403136Y40010D01*
Y40601D01*
X402910Y41146D01*
X402492Y41564D01*
X401947Y41790D01*
D02*
G37*
G36*
X409729Y40429D02*
X409138D01*
X408593Y40203D01*
X408175Y39785D01*
X407949Y39240D01*
Y38649D01*
X408175Y38104D01*
X408593Y37686D01*
X409138Y37460D01*
X409729D01*
X410274Y37686D01*
X410692Y38104D01*
X410918Y38649D01*
Y39240D01*
X410692Y39785D01*
X410274Y40203D01*
X409729Y40429D01*
D02*
G37*
G36*
X406866Y38168D02*
X406276D01*
X405730Y37942D01*
X405313Y37525D01*
X405087Y36979D01*
Y36389D01*
X405313Y35843D01*
X405730Y35426D01*
X406276Y35200D01*
X406866D01*
X407412Y35426D01*
X407829Y35843D01*
X408055Y36389D01*
Y36979D01*
X407829Y37525D01*
X407412Y37942D01*
X406866Y38168D01*
D02*
G37*
G36*
X369295Y35484D02*
X368705D01*
X368159Y35258D01*
X367742Y34841D01*
X367516Y34295D01*
Y33705D01*
X367742Y33159D01*
X368159Y32742D01*
X368705Y32516D01*
X369295D01*
X369841Y32742D01*
X370258Y33159D01*
X370484Y33705D01*
Y34295D01*
X370258Y34841D01*
X369841Y35258D01*
X369295Y35484D01*
D02*
G37*
G36*
X334503Y34453D02*
X333912D01*
X333367Y34227D01*
X332949Y33810D01*
X332723Y33264D01*
Y32674D01*
X332949Y32128D01*
X333367Y31711D01*
X333912Y31485D01*
X334503D01*
X335048Y31711D01*
X335466Y32128D01*
X335692Y32674D01*
Y33264D01*
X335466Y33810D01*
X335048Y34227D01*
X334503Y34453D01*
D02*
G37*
G36*
X417457Y32189D02*
X416867D01*
X416321Y31963D01*
X415904Y31545D01*
X415678Y31000D01*
Y30409D01*
X415904Y29864D01*
X416321Y29446D01*
X416867Y29220D01*
X417457D01*
X418003Y29446D01*
X418420Y29864D01*
X418646Y30409D01*
Y31000D01*
X418420Y31545D01*
X418003Y31963D01*
X417457Y32189D01*
D02*
G37*
G36*
X389295Y31484D02*
X388705D01*
X388159Y31258D01*
X387742Y30841D01*
X387516Y30295D01*
Y29705D01*
X387742Y29159D01*
X388159Y28742D01*
X388705Y28516D01*
X389295D01*
X389841Y28742D01*
X390258Y29159D01*
X390484Y29705D01*
Y30295D01*
X390258Y30841D01*
X389841Y31258D01*
X389295Y31484D01*
D02*
G37*
G36*
X368295D02*
X367705D01*
X367159Y31258D01*
X366742Y30841D01*
X366516Y30295D01*
Y29705D01*
X366742Y29159D01*
X367159Y28742D01*
X367705Y28516D01*
X368295D01*
X368841Y28742D01*
X369258Y29159D01*
X369484Y29705D01*
Y30295D01*
X369258Y30841D01*
X368841Y31258D01*
X368295Y31484D01*
D02*
G37*
G36*
X340295Y28484D02*
X339705D01*
X339159Y28258D01*
X338742Y27841D01*
X338516Y27295D01*
Y26705D01*
X338742Y26159D01*
X339159Y25742D01*
X339705Y25516D01*
X340295D01*
X340841Y25742D01*
X341258Y26159D01*
X341484Y26705D01*
Y27295D01*
X341258Y27841D01*
X340841Y28258D01*
X340295Y28484D01*
D02*
G37*
G36*
X304902Y28325D02*
X304311D01*
X303766Y28099D01*
X303348Y27681D01*
X303122Y27136D01*
Y26545D01*
X303348Y26000D01*
X303766Y25582D01*
X304311Y25356D01*
X304902D01*
X305448Y25582D01*
X305865Y26000D01*
X306091Y26545D01*
Y27136D01*
X305865Y27681D01*
X305448Y28099D01*
X304902Y28325D01*
D02*
G37*
G36*
X322067Y28131D02*
X321476D01*
X320931Y27905D01*
X320513Y27487D01*
X320287Y26942D01*
Y26351D01*
X320513Y25806D01*
X320931Y25388D01*
X321476Y25162D01*
X322067D01*
X322612Y25388D01*
X323030Y25806D01*
X323256Y26351D01*
Y26942D01*
X323030Y27487D01*
X322612Y27905D01*
X322067Y28131D01*
D02*
G37*
G36*
X406845Y24464D02*
X406255D01*
X405709Y24238D01*
X405292Y23821D01*
X405065Y23275D01*
Y22685D01*
X405292Y22139D01*
X405709Y21722D01*
X406255Y21496D01*
X406845D01*
X407391Y21722D01*
X407808Y22139D01*
X408034Y22685D01*
Y23275D01*
X407808Y23821D01*
X407391Y24238D01*
X406845Y24464D01*
D02*
G37*
G36*
X399154Y23790D02*
X398564D01*
X398018Y23564D01*
X397601Y23146D01*
X397375Y22601D01*
Y22010D01*
X397601Y21465D01*
X398018Y21047D01*
X398564Y20821D01*
X399154D01*
X399700Y21047D01*
X400117Y21465D01*
X400343Y22010D01*
Y22601D01*
X400117Y23146D01*
X399700Y23564D01*
X399154Y23790D01*
D02*
G37*
G36*
X474256Y20441D02*
X472744D01*
X471261Y20146D01*
X469864Y19567D01*
X468606Y18727D01*
X467537Y17658D01*
X466697Y16400D01*
X466118Y15003D01*
X465823Y13520D01*
Y12008D01*
X466118Y10524D01*
X466697Y9127D01*
X467537Y7870D01*
X468606Y6801D01*
X469864Y5960D01*
X471261Y5382D01*
X472744Y5087D01*
X474256D01*
X475739Y5382D01*
X477137Y5960D01*
X478394Y6801D01*
X479463Y7870D01*
X480303Y9127D01*
X480882Y10524D01*
X481177Y12008D01*
Y13520D01*
X480882Y15003D01*
X480303Y16400D01*
X479463Y17658D01*
X478394Y18727D01*
X477137Y19567D01*
X475739Y20146D01*
X474256Y20441D01*
D02*
G37*
G36*
X46256D02*
X44744D01*
X43261Y20146D01*
X41864Y19567D01*
X40606Y18727D01*
X39537Y17658D01*
X38697Y16400D01*
X38118Y15003D01*
X37823Y13520D01*
Y12008D01*
X38118Y10524D01*
X38697Y9127D01*
X39537Y7870D01*
X40606Y6801D01*
X41864Y5960D01*
X43261Y5382D01*
X44744Y5087D01*
X46256D01*
X47739Y5382D01*
X49136Y5960D01*
X50394Y6801D01*
X51463Y7870D01*
X52303Y9127D01*
X52882Y10524D01*
X53177Y12008D01*
Y13520D01*
X52882Y15003D01*
X52303Y16400D01*
X51463Y17658D01*
X50394Y18727D01*
X49136Y19567D01*
X47739Y20146D01*
X46256Y20441D01*
D02*
G37*
%LPD*%
D101*
X301000Y243000D02*
D03*
X91000Y243000D02*
D03*
X81000D02*
D03*
X301000Y233000D02*
D03*
X141000D02*
D03*
X91000D02*
D03*
X81000D02*
D03*
X301000Y53000D02*
D03*
Y43000D02*
D03*
D102*
X405932Y298545D02*
D03*
Y334569D02*
D03*
X398137Y285081D02*
D03*
Y330041D02*
D03*
X390302Y325553D02*
D03*
X382507Y321065D02*
D03*
X414908Y334569D02*
D03*
X422704Y330041D02*
D03*
X430538Y325553D02*
D03*
X438334Y312049D02*
D03*
Y321065D02*
D03*
D105*
X68889Y367011D02*
D03*
X73220D02*
D03*
X68889Y362680D02*
D03*
X73220D02*
D03*
X68889Y358349D02*
D03*
X73220Y358349D02*
D03*
X130365Y366767D02*
D03*
X134696D02*
D03*
X130365Y362437D02*
D03*
X134696D02*
D03*
X130365Y358106D02*
D03*
X134696D02*
D03*
D106*
X381141Y88282D02*
D03*
X404308Y90754D02*
D03*
X364084Y29120D02*
D03*
X367633Y37258D02*
D03*
X191327Y331760D02*
D03*
X63977Y172572D02*
D03*
X73606Y161107D02*
D03*
X71368Y164503D02*
D03*
X400817Y43826D02*
D03*
X412485Y40963D02*
D03*
X410229Y35698D02*
D03*
X396559Y25080D02*
D03*
X390948Y27286D02*
D03*
X365430Y57863D02*
D03*
X363188Y47656D02*
D03*
X385318Y56409D02*
D03*
X258683Y116626D02*
D03*
X255072Y166209D02*
D03*
X256188Y155656D02*
D03*
X256580Y131209D02*
D03*
X256252Y139875D02*
D03*
X222396Y113368D02*
D03*
X397188Y81656D02*
D03*
X396974Y76275D02*
D03*
X379496Y80102D02*
D03*
X414292Y79815D02*
D03*
X284656Y127939D02*
D03*
X275158Y128094D02*
D03*
X155217Y127132D02*
D03*
X166592Y127171D02*
D03*
X175491D02*
D03*
X270000Y128000D02*
D03*
X132108Y258719D02*
D03*
X216360Y343591D02*
D03*
X173773Y180014D02*
D03*
X167221Y164343D02*
D03*
X165000Y179000D02*
D03*
X169429Y175345D02*
D03*
X174000Y171000D02*
D03*
X181000Y165000D02*
D03*
X131282Y397194D02*
D03*
X131213Y401117D02*
D03*
Y405117D02*
D03*
X134911Y397194D02*
D03*
X134841Y401117D02*
D03*
Y405117D02*
D03*
X68133Y384074D02*
D03*
X68063Y387997D02*
D03*
Y391997D02*
D03*
X71762Y384074D02*
D03*
X71692Y387997D02*
D03*
Y391997D02*
D03*
X68133Y397119D02*
D03*
X68063Y401042D02*
D03*
Y405042D02*
D03*
X71762Y397119D02*
D03*
X71692Y401042D02*
D03*
Y405042D02*
D03*
X74700Y377077D02*
D03*
X70716Y376939D02*
D03*
X47648Y356499D02*
D03*
X43591Y356430D02*
D03*
X153563Y318466D02*
D03*
X153494Y322389D02*
D03*
X156707Y325849D02*
D03*
X156638Y329772D02*
D03*
Y333772D02*
D03*
Y337772D02*
D03*
X88631Y337812D02*
D03*
Y333812D02*
D03*
Y329812D02*
D03*
X345304Y316244D02*
D03*
X226156Y353477D02*
D03*
X186000Y348000D02*
D03*
X219654Y325712D02*
D03*
X205163Y343638D02*
D03*
X327189Y383532D02*
D03*
X327015Y395979D02*
D03*
X224594Y270581D02*
D03*
X245619Y267364D02*
D03*
X231760Y264065D02*
D03*
X262000Y259000D02*
D03*
X237635Y385720D02*
D03*
X237529Y389020D02*
D03*
X237455Y334204D02*
D03*
X237429Y337633D02*
D03*
X237323Y340933D02*
D03*
X187359Y331019D02*
D03*
X176313Y320605D02*
D03*
X176613Y341373D02*
D03*
X192618Y311314D02*
D03*
X185631Y362750D02*
D03*
X175491Y362352D02*
D03*
X165113Y362443D02*
D03*
X409504Y87356D02*
D03*
X390873Y87236D02*
D03*
X420915Y25813D02*
D03*
X428165Y59418D02*
D03*
X424652Y63147D02*
D03*
X408496Y49544D02*
D03*
X418693Y51526D02*
D03*
X394382Y32803D02*
D03*
X372873Y42236D02*
D03*
X310000Y19000D02*
D03*
X292000D02*
D03*
X197950Y133447D02*
D03*
X106412Y140996D02*
D03*
X104895Y105327D02*
D03*
X66792Y104748D02*
D03*
X74327Y136719D02*
D03*
X87294Y136380D02*
D03*
X40432Y129512D02*
D03*
X48360Y129591D02*
D03*
X59307Y128379D02*
D03*
X49393Y136287D02*
D03*
X48514Y154806D02*
D03*
X60073Y152363D02*
D03*
X49042Y168683D02*
D03*
X106302Y164766D02*
D03*
X103486Y181239D02*
D03*
X68437Y181612D02*
D03*
X103495Y213610D02*
D03*
X139062Y217912D02*
D03*
X121658Y217790D02*
D03*
X104753Y376196D02*
D03*
X150976Y301378D02*
D03*
X125125Y266926D02*
D03*
X101672Y267088D02*
D03*
X85416Y267001D02*
D03*
X74452Y263152D02*
D03*
X78410Y273458D02*
D03*
X67605Y275060D02*
D03*
X88731Y309522D02*
D03*
X88661Y313445D02*
D03*
Y317445D02*
D03*
X70382Y298898D02*
D03*
X62213Y302209D02*
D03*
X152033Y377325D02*
D03*
X134619Y379703D02*
D03*
X134689Y375780D02*
D03*
X131381Y384222D02*
D03*
X131312Y388145D02*
D03*
Y392145D02*
D03*
X135010Y384222D02*
D03*
X134940Y388145D02*
D03*
Y392145D02*
D03*
X323015Y395979D02*
D03*
X344637Y374978D02*
D03*
X348637D02*
D03*
X344536Y382092D02*
D03*
X348536D02*
D03*
X341493Y349129D02*
D03*
X339080Y332843D02*
D03*
X339403Y343893D02*
D03*
X339426Y340474D02*
D03*
X300819Y354504D02*
D03*
X300572Y359557D02*
D03*
Y363557D02*
D03*
X303991Y359579D02*
D03*
Y363579D02*
D03*
X292711Y350213D02*
D03*
X325060Y316439D02*
D03*
X345339Y320159D02*
D03*
X347855Y286704D02*
D03*
X322737Y289386D02*
D03*
X324702Y281402D02*
D03*
X328215Y281390D02*
D03*
X324625Y278381D02*
D03*
X328137Y278369D02*
D03*
X297466Y266771D02*
D03*
X306916Y286249D02*
D03*
X298214Y285228D02*
D03*
X307641Y251793D02*
D03*
X244832Y298042D02*
D03*
X250115Y409328D02*
D03*
X248202Y313491D02*
D03*
X244944Y278292D02*
D03*
X225916Y303249D02*
D03*
X225571Y285730D02*
D03*
X221463Y275752D02*
D03*
X235971Y312870D02*
D03*
X231023Y361728D02*
D03*
X225785Y400999D02*
D03*
X245469Y395767D02*
D03*
X245095Y375747D02*
D03*
X251479Y361662D02*
D03*
X224445Y316651D02*
D03*
X245718Y347797D02*
D03*
X245813Y327354D02*
D03*
X237889Y284952D02*
D03*
X237863Y288380D02*
D03*
X237756Y291680D02*
D03*
X237662Y382291D02*
D03*
X215000Y377000D02*
D03*
X168500Y351101D02*
D03*
X88661Y321445D02*
D03*
X88701Y325889D02*
D03*
X111717Y349315D02*
D03*
X156228Y344243D02*
D03*
X95183Y344923D02*
D03*
X152228Y344243D02*
D03*
X91183Y344923D02*
D03*
X214933Y144312D02*
D03*
X210832Y137362D02*
D03*
X213796Y125285D02*
D03*
X196947Y161938D02*
D03*
X199306Y151995D02*
D03*
X191000Y125000D02*
D03*
X210806Y125388D02*
D03*
X198933Y126312D02*
D03*
X209673Y161599D02*
D03*
X87276Y148899D02*
D03*
X87315Y154629D02*
D03*
X67907Y152437D02*
D03*
X240000Y148000D02*
D03*
X224000Y152000D02*
D03*
X370286Y27358D02*
D03*
X419457Y33257D02*
D03*
X409873Y24236D02*
D03*
X369618Y57950D02*
D03*
X400315Y392665D02*
D03*
X404315D02*
D03*
X408238Y392735D02*
D03*
X382087Y392810D02*
D03*
X386087D02*
D03*
X390010Y392879D02*
D03*
X87281Y142670D02*
D03*
X87279Y130695D02*
D03*
X87225Y160756D02*
D03*
X178398Y307794D02*
D03*
X54655Y385811D02*
D03*
X475017Y218617D02*
D03*
X434545Y73824D02*
D03*
X435534Y15696D02*
D03*
X82352Y14964D02*
D03*
X340106Y18403D02*
D03*
X457989Y318998D02*
D03*
X205266Y321413D02*
D03*
X246203Y238214D02*
D03*
X284033Y278901D02*
D03*
X218240Y296846D02*
D03*
X380763Y279181D02*
D03*
X449265Y396612D02*
D03*
X452693Y396638D02*
D03*
X438244Y406907D02*
D03*
X345266Y284752D02*
D03*
X279359Y307173D02*
D03*
X334831Y299193D02*
D03*
X334804Y302622D02*
D03*
X334698Y305922D02*
D03*
X319372Y299980D02*
D03*
X327192Y377546D02*
D03*
X323192D02*
D03*
X323189Y383532D02*
D03*
X327258Y388105D02*
D03*
X323258D02*
D03*
X315552Y399204D02*
D03*
X233343Y171587D02*
D03*
X245933Y123312D02*
D03*
X239098Y124472D02*
D03*
X232873Y127236D02*
D03*
X233594Y164941D02*
D03*
X233325Y144933D02*
D03*
X206000Y363000D02*
D03*
M02*
