G04*
G04 #@! TF.GenerationSoftware,Altium Limited,Altium Designer,25.8.1 (18)*
G04*
G04 Layer_Color=0*
%FSLAX25Y25*%
%MOIN*%
G70*
G04*
G04 #@! TF.SameCoordinates,8555A115-1401-43ED-8721-A1A47631EB87*
G04*
G04*
G04 #@! TF.FilePolarity,Positive*
G04*
G01*
G75*
%ADD12C,0.00394*%
%ADD124C,0.00197*%
D12*
X188644Y328157D02*
X188644Y332095D01*
X186676Y330126D02*
X190613D01*
X420000Y387779D02*
Y391717D01*
X418032Y389748D02*
X421969D01*
X289827Y220194D02*
Y224131D01*
X287859Y222163D02*
X291795D01*
X299000Y21228D02*
Y24772D01*
X297228Y23000D02*
X300772D01*
X314617Y348937D02*
X318554D01*
X316585Y346968D02*
Y350905D01*
X255166Y308656D02*
Y312199D01*
X253394Y310427D02*
X256937D01*
X144494Y297221D02*
X148431D01*
X146463Y295252D02*
Y299189D01*
X176216Y350086D02*
X179759D01*
X177987Y348314D02*
Y351858D01*
X168347Y338981D02*
Y342524D01*
X166575Y340752D02*
X170118D01*
X267598Y308823D02*
Y312366D01*
X265827Y310595D02*
X269370D01*
X267598Y298424D02*
Y301967D01*
X265827Y300195D02*
X269370D01*
X255165Y298366D02*
Y301910D01*
X253394Y300138D02*
X256937D01*
X267597Y331222D02*
Y334765D01*
X265825Y332994D02*
X269368D01*
X255165Y331205D02*
Y334749D01*
X253394Y332977D02*
X256937D01*
X255165Y340421D02*
Y343964D01*
X253394Y342193D02*
X256937D01*
X267597Y340444D02*
Y343988D01*
X265825Y342216D02*
X269368D01*
X255111Y388224D02*
Y391767D01*
X253339Y389995D02*
X256883D01*
X267544Y388224D02*
Y391767D01*
X265772Y389995D02*
X269316D01*
X255165Y378851D02*
Y382395D01*
X253394Y380623D02*
X256937D01*
X267598Y378851D02*
Y382395D01*
X265827Y380623D02*
X269370D01*
X144792Y310257D02*
X148730D01*
X146761Y308289D02*
Y312226D01*
X142903Y320479D02*
X146840D01*
X144872Y318510D02*
Y322447D01*
X74566Y304640D02*
X78503D01*
X76534Y302672D02*
Y306609D01*
X74480Y313041D02*
X78417D01*
X76448Y311072D02*
Y315009D01*
X74172Y320898D02*
X77715D01*
X75944Y319126D02*
Y322670D01*
X451154Y379356D02*
Y383293D01*
X449185Y381324D02*
X453122D01*
X70208Y291954D02*
X74145D01*
X72176Y289986D02*
Y293923D01*
X117524Y291954D02*
X121461D01*
X119492Y289986D02*
Y293923D01*
X249955Y258786D02*
X253892D01*
X251924Y256817D02*
Y260754D01*
X273934Y221960D02*
X277871D01*
X275902Y219992D02*
Y223929D01*
X270196Y258652D02*
X274132D01*
X272164Y256683D02*
Y260620D01*
X297950Y258786D02*
X301887D01*
X299919Y260754D02*
X299919Y256817D01*
X53658Y319946D02*
Y323883D01*
X51690Y321914D02*
X55627D01*
X122000Y319984D02*
Y323921D01*
X120031Y321953D02*
X123969D01*
X369533Y387266D02*
Y391203D01*
X367565Y389234D02*
X371502D01*
D124*
X337189Y401260D02*
Y408740D01*
X340811Y401260D02*
Y408740D01*
X337189Y401260D02*
X340811D01*
X337189Y408740D02*
X340811D01*
X341470Y386769D02*
X346760Y392058D01*
X338909Y389330D02*
X344199Y394619D01*
X346760Y392058D01*
X338909Y389330D02*
X341470Y386769D01*
X333189Y408740D02*
X333189Y401260D01*
X336811D02*
X336811Y408740D01*
X333189Y401260D02*
X336811D01*
X333189Y408740D02*
X336811D01*
X171912Y313394D02*
X205377D01*
X171912Y346858D02*
X205377D01*
X171912Y313394D02*
Y346858D01*
X205377Y313394D02*
Y346858D01*
X397362Y363173D02*
X442638Y363173D01*
X397362Y416323D02*
X442638D01*
Y363173D02*
Y416323D01*
X397362Y363173D02*
X397362Y416323D01*
X283134Y218226D02*
Y226100D01*
X296520D01*
X283134Y218226D02*
X296520D01*
Y226100D01*
X332189Y19260D02*
Y26740D01*
X335811Y19260D02*
Y26740D01*
X332189Y19260D02*
X335811D01*
X332189Y26740D02*
X335811D01*
X314189Y19260D02*
Y26740D01*
X317811Y19260D02*
Y26740D01*
X314189Y19260D02*
X317811D01*
X314189Y26740D02*
X317811D01*
X175410Y309674D02*
Y313296D01*
X182891Y309674D02*
Y313296D01*
X175410D02*
X182891D01*
X175410Y309674D02*
X182891D01*
X296047Y16898D02*
X301953D01*
X296047Y29102D02*
X301953D01*
Y16898D02*
Y29102D01*
X296047Y16898D02*
Y29102D01*
X302085Y331436D02*
Y366437D01*
X331085D01*
Y331436D02*
Y366437D01*
X302085Y331436D02*
X331085D01*
X249063Y313380D02*
X261268D01*
X249063Y307475D02*
X261268D01*
Y313380D01*
X249063Y307475D02*
Y313380D01*
X137408Y290921D02*
Y303520D01*
X155518Y290921D02*
Y303520D01*
X137408Y290921D02*
X155518D01*
X137408Y303520D02*
X155518D01*
X171885Y347133D02*
Y353039D01*
X184090Y347133D02*
Y353039D01*
X171885Y347133D02*
X184090D01*
X171885Y353039D02*
X184090D01*
X165394Y346855D02*
X171299D01*
X165394Y334650D02*
X171299D01*
X165394D02*
Y346855D01*
X171299Y334650D02*
Y346855D01*
X261496Y313547D02*
X273701D01*
X261496Y307642D02*
X273701D01*
Y313547D01*
X261496Y307642D02*
Y313547D01*
Y303148D02*
X273701D01*
X261496Y297243D02*
X273701D01*
Y303148D01*
X261496Y297243D02*
Y303148D01*
X249063Y303091D02*
X261268D01*
X249063Y297185D02*
X261268D01*
Y303091D01*
X249063Y297185D02*
Y303091D01*
X261494Y335946D02*
X273699D01*
X261494Y330041D02*
X273699D01*
Y335946D01*
X261494Y330041D02*
Y335946D01*
X249063Y335930D02*
X261268D01*
X249063Y330024D02*
X261268D01*
Y335930D01*
X249063Y330024D02*
Y335930D01*
Y345145D02*
X261268D01*
X249063Y339240D02*
X261268D01*
Y345145D01*
X249063Y339240D02*
Y345145D01*
X261494Y345169D02*
X273699D01*
X261494Y339263D02*
X273699D01*
Y345169D01*
X261494Y339263D02*
Y345169D01*
X249008Y392948D02*
X261213D01*
X249008Y387043D02*
X261213D01*
Y392948D01*
X249008Y387043D02*
Y392948D01*
X261442D02*
X273646D01*
X261442Y387043D02*
X273646D01*
Y392948D01*
X261442Y387043D02*
Y392948D01*
X249063Y383576D02*
X261268D01*
X249063Y377670D02*
X261268D01*
Y383576D01*
X249063Y377670D02*
Y383576D01*
X261496D02*
X273701D01*
X261496Y377670D02*
X273701D01*
Y383576D01*
X261496Y377670D02*
Y383576D01*
X137706Y303958D02*
Y316557D01*
X155816Y303958D02*
Y316557D01*
X137706Y303958D02*
X155816Y303958D01*
X137706Y316557D02*
X155816Y316557D01*
X151565Y316542D02*
Y324416D01*
X138179Y316542D02*
X151565Y316542D01*
X138179Y324416D02*
X151565D01*
X138179Y316542D02*
Y324416D01*
X83227Y300703D02*
Y308577D01*
X69841Y300703D02*
X83227D01*
X69841Y308577D02*
X83227D01*
X69841Y300703D02*
Y308577D01*
X83141Y309104D02*
Y316978D01*
X69755Y309104D02*
X83141D01*
X69755Y316978D02*
X83141D01*
X69755Y309104D02*
Y316978D01*
X82046Y317945D02*
Y323851D01*
X69841Y317945D02*
Y323851D01*
X82046D01*
X69841Y317945D02*
X82046D01*
X444264Y393332D02*
X458043D01*
X444264Y369317D02*
X458043D01*
X444264D02*
Y393332D01*
X458043Y369317D02*
Y393332D01*
X84184Y285064D02*
Y298844D01*
X60169Y285064D02*
Y298844D01*
X84184D01*
X60169Y285064D02*
X84184D01*
X131500Y285064D02*
Y298844D01*
X107484Y285064D02*
Y298844D01*
X131500D01*
X107484Y285064D02*
X131500D01*
X242869Y252487D02*
Y265085D01*
X260979Y252487D02*
Y265085D01*
X242869Y252487D02*
X260979D01*
X242869Y265085D02*
X260979D01*
X269209Y218023D02*
Y225897D01*
X282595D01*
X269209Y218023D02*
X282595D01*
Y225897D01*
X281219Y252353D02*
Y264951D01*
X263109Y252353D02*
Y264951D01*
X281219D01*
X263109Y252353D02*
X281219D01*
X311927Y251896D02*
Y265676D01*
X287911Y251896D02*
Y265676D01*
X311927D01*
X287911Y251896D02*
X311927D01*
X38158Y306914D02*
Y336914D01*
Y306914D02*
X69158D01*
Y336914D01*
X38158D02*
X69158D01*
X106500Y306953D02*
Y336953D01*
Y306953D02*
X137500D01*
Y336953D01*
X106500D02*
X137500D01*
X346895Y362660D02*
X392171D01*
X346895Y415809D02*
X392171Y415809D01*
Y362660D02*
Y415809D01*
X346895Y362660D02*
Y415809D01*
M02*
