G04*
G04 #@! TF.GenerationSoftware,Altium Limited,Altium Designer,25.8.1 (18)*
G04*
G04 Layer_Color=8388736*
%FSLAX25Y25*%
%MOIN*%
G70*
G04*
G04 #@! TF.SameCoordinates,8555A115-1401-43ED-8721-A1A47631EB87*
G04*
G04*
G04 #@! TF.FilePolarity,Negative*
G04*
G01*
G75*
%ADD53R,0.03032X0.02835*%
%ADD54R,0.03228X0.03032*%
%ADD55R,0.02835X0.03032*%
%ADD56R,0.04331X0.04528*%
%ADD57R,0.03032X0.03228*%
%ADD58R,0.04528X0.04331*%
%ADD59R,0.01772X0.06890*%
%ADD60R,0.06890X0.01772*%
%ADD61R,0.01339X0.02756*%
%ADD62R,0.02756X0.01339*%
%ADD63R,0.11024X0.14961*%
%ADD64R,0.04528X0.06299*%
%ADD65R,0.07677X0.05118*%
%ADD66R,0.06299X0.04528*%
%ADD67R,0.04528X0.02953*%
%ADD68R,0.01378X0.02756*%
%ADD69R,0.02756X0.01378*%
%ADD70R,0.08858X0.16732*%
%ADD71R,0.10433X0.13583*%
%ADD72R,0.05906X0.04528*%
%ADD73R,0.01968X0.03937*%
%ADD74R,0.05709X0.11221*%
%ADD75R,0.02953X0.04921*%
%ADD76R,0.10039X0.12795*%
%ADD77R,0.09213X0.02520*%
%ADD78R,0.11221X0.05709*%
%ADD79R,0.03937X0.01968*%
%ADD80R,0.07480X0.04921*%
%ADD81R,0.05394X0.02165*%
%ADD82R,0.05276X0.06378*%
%ADD83R,0.04528X0.05906*%
%ADD84R,0.04921X0.07480*%
G04:AMPARAMS|DCode=85|XSize=43.31mil|YSize=45.28mil|CornerRadius=0mil|HoleSize=0mil|Usage=FLASHONLY|Rotation=135.000|XOffset=0mil|YOffset=0mil|HoleType=Round|Shape=Rectangle|*
%AMROTATEDRECTD85*
4,1,4,0.03132,0.00070,-0.00070,-0.03132,-0.03132,-0.00070,0.00070,0.03132,0.03132,0.00070,0.0*
%
%ADD85ROTATEDRECTD85*%

%ADD86C,0.06591*%
%ADD87C,0.05906*%
%ADD88C,0.25000*%
%ADD89C,0.06115*%
%ADD90C,0.26181*%
%ADD91C,0.02953*%
G36*
X308679Y364237D02*
X308689Y364236D01*
X308700Y364235D01*
X308710Y364233D01*
X308720Y364230D01*
X308730Y364228D01*
X308739Y364224D01*
X308749Y364220D01*
X308758Y364216D01*
X308767Y364211D01*
X308776Y364206D01*
X308785Y364200D01*
X308793Y364193D01*
X308801Y364187D01*
X308808Y364180D01*
X308815Y364172D01*
X308822Y364164D01*
X308828Y364156D01*
X308834Y364148D01*
X308839Y364139D01*
X308844Y364130D01*
X308849Y364120D01*
X308853Y364111D01*
X308856Y364101D01*
X308859Y364091D01*
X308861Y364081D01*
X308863Y364071D01*
X308865Y364061D01*
X308865Y364051D01*
X308866Y364040D01*
Y363253D01*
X308865Y363243D01*
X308865Y363232D01*
X308863Y363222D01*
X308861Y363212D01*
X308859Y363202D01*
X308856Y363192D01*
X308853Y363182D01*
X308849Y363173D01*
X308844Y363164D01*
X308839Y363155D01*
X308834Y363146D01*
X308828Y363137D01*
X308822Y363129D01*
X308815Y363121D01*
X308808Y363114D01*
X308801Y363107D01*
X308793Y363100D01*
X308785Y363094D01*
X308776Y363088D01*
X308767Y363083D01*
X308758Y363078D01*
X308749Y363073D01*
X308739Y363069D01*
X308730Y363066D01*
X308720Y363063D01*
X308710Y363060D01*
X308700Y363058D01*
X308689Y363057D01*
X308679Y363056D01*
X308669Y363056D01*
X306700D01*
X306690Y363056D01*
X306680Y363057D01*
X306669Y363058D01*
X306659Y363060D01*
X306649Y363063D01*
X306640Y363066D01*
X306630Y363069D01*
X306620Y363073D01*
X306611Y363078D01*
X306602Y363083D01*
X306593Y363088D01*
X306585Y363094D01*
X306576Y363100D01*
X306569Y363107D01*
X306561Y363114D01*
X306554Y363121D01*
X306547Y363129D01*
X306541Y363137D01*
X306535Y363146D01*
X306530Y363155D01*
X306525Y363164D01*
X306521Y363173D01*
X306517Y363182D01*
X306513Y363192D01*
X306510Y363202D01*
X306508Y363212D01*
X306506Y363222D01*
X306505Y363232D01*
X306504Y363243D01*
X306504Y363253D01*
Y364040D01*
X306504Y364051D01*
X306505Y364061D01*
X306506Y364071D01*
X306508Y364081D01*
X306510Y364091D01*
X306513Y364101D01*
X306517Y364111D01*
X306521Y364120D01*
X306525Y364130D01*
X306530Y364139D01*
X306535Y364148D01*
X306541Y364156D01*
X306547Y364164D01*
X306554Y364172D01*
X306561Y364180D01*
X306569Y364187D01*
X306576Y364193D01*
X306585Y364200D01*
X306593Y364206D01*
X306602Y364211D01*
X306611Y364216D01*
X306620Y364220D01*
X306630Y364224D01*
X306640Y364228D01*
X306649Y364230D01*
X306659Y364233D01*
X306669Y364235D01*
X306680Y364236D01*
X306690Y364237D01*
X306700Y364237D01*
X308669D01*
X308679Y364237D01*
D02*
G37*
G36*
Y361678D02*
X308689Y361677D01*
X308700Y361676D01*
X308710Y361674D01*
X308720Y361671D01*
X308730Y361668D01*
X308739Y361665D01*
X308749Y361661D01*
X308758Y361657D01*
X308767Y361652D01*
X308776Y361646D01*
X308785Y361641D01*
X308793Y361634D01*
X308801Y361628D01*
X308808Y361620D01*
X308815Y361613D01*
X308822Y361605D01*
X308828Y361597D01*
X308834Y361589D01*
X308839Y361580D01*
X308844Y361571D01*
X308849Y361561D01*
X308853Y361552D01*
X308856Y361542D01*
X308859Y361532D01*
X308861Y361522D01*
X308863Y361512D01*
X308865Y361502D01*
X308865Y361492D01*
X308866Y361481D01*
Y360694D01*
X308865Y360684D01*
X308865Y360673D01*
X308863Y360663D01*
X308861Y360653D01*
X308859Y360643D01*
X308856Y360633D01*
X308853Y360623D01*
X308849Y360614D01*
X308844Y360605D01*
X308839Y360595D01*
X308834Y360587D01*
X308828Y360578D01*
X308822Y360570D01*
X308815Y360562D01*
X308808Y360555D01*
X308801Y360548D01*
X308793Y360541D01*
X308785Y360535D01*
X308776Y360529D01*
X308767Y360523D01*
X308758Y360519D01*
X308749Y360514D01*
X308739Y360510D01*
X308730Y360507D01*
X308720Y360504D01*
X308710Y360501D01*
X308700Y360500D01*
X308689Y360498D01*
X308679Y360497D01*
X308669Y360497D01*
X306700D01*
X306690Y360497D01*
X306680Y360498D01*
X306669Y360500D01*
X306659Y360501D01*
X306649Y360504D01*
X306640Y360507D01*
X306630Y360510D01*
X306620Y360514D01*
X306611Y360519D01*
X306602Y360523D01*
X306593Y360529D01*
X306585Y360535D01*
X306576Y360541D01*
X306569Y360548D01*
X306561Y360555D01*
X306554Y360562D01*
X306547Y360570D01*
X306541Y360578D01*
X306535Y360587D01*
X306530Y360595D01*
X306525Y360605D01*
X306521Y360614D01*
X306517Y360623D01*
X306513Y360633D01*
X306510Y360643D01*
X306508Y360653D01*
X306506Y360663D01*
X306505Y360673D01*
X306504Y360684D01*
X306504Y360694D01*
Y361481D01*
X306504Y361492D01*
X306505Y361502D01*
X306506Y361512D01*
X306508Y361522D01*
X306510Y361532D01*
X306513Y361542D01*
X306517Y361552D01*
X306521Y361561D01*
X306525Y361571D01*
X306530Y361580D01*
X306535Y361589D01*
X306541Y361597D01*
X306547Y361605D01*
X306554Y361613D01*
X306561Y361620D01*
X306569Y361628D01*
X306576Y361634D01*
X306585Y361641D01*
X306593Y361646D01*
X306602Y361652D01*
X306611Y361657D01*
X306620Y361661D01*
X306630Y361665D01*
X306640Y361668D01*
X306649Y361671D01*
X306659Y361674D01*
X306669Y361676D01*
X306680Y361677D01*
X306690Y361678D01*
X306700Y361678D01*
X308669D01*
X308679Y361678D01*
D02*
G37*
G36*
Y359119D02*
X308689Y359118D01*
X308700Y359117D01*
X308710Y359115D01*
X308720Y359112D01*
X308730Y359109D01*
X308739Y359106D01*
X308749Y359102D01*
X308758Y359098D01*
X308767Y359093D01*
X308776Y359087D01*
X308785Y359082D01*
X308793Y359075D01*
X308801Y359068D01*
X308808Y359062D01*
X308815Y359054D01*
X308822Y359046D01*
X308828Y359038D01*
X308834Y359030D01*
X308839Y359021D01*
X308844Y359012D01*
X308849Y359002D01*
X308853Y358993D01*
X308856Y358983D01*
X308859Y358973D01*
X308861Y358963D01*
X308863Y358953D01*
X308865Y358943D01*
X308865Y358933D01*
X308866Y358922D01*
Y358135D01*
X308865Y358124D01*
X308865Y358114D01*
X308863Y358104D01*
X308861Y358094D01*
X308859Y358084D01*
X308856Y358074D01*
X308853Y358064D01*
X308849Y358055D01*
X308844Y358046D01*
X308839Y358036D01*
X308834Y358028D01*
X308828Y358019D01*
X308822Y358011D01*
X308815Y358003D01*
X308808Y357996D01*
X308801Y357989D01*
X308793Y357982D01*
X308785Y357976D01*
X308776Y357970D01*
X308767Y357964D01*
X308758Y357960D01*
X308749Y357955D01*
X308739Y357951D01*
X308730Y357948D01*
X308720Y357945D01*
X308710Y357942D01*
X308700Y357940D01*
X308689Y357939D01*
X308679Y357938D01*
X308669Y357938D01*
X306700D01*
X306690Y357938D01*
X306680Y357939D01*
X306669Y357940D01*
X306659Y357942D01*
X306649Y357945D01*
X306640Y357948D01*
X306630Y357951D01*
X306620Y357955D01*
X306611Y357960D01*
X306602Y357964D01*
X306593Y357970D01*
X306585Y357976D01*
X306576Y357982D01*
X306569Y357989D01*
X306561Y357996D01*
X306554Y358003D01*
X306547Y358011D01*
X306541Y358019D01*
X306535Y358028D01*
X306530Y358036D01*
X306525Y358046D01*
X306521Y358055D01*
X306517Y358064D01*
X306513Y358074D01*
X306510Y358084D01*
X306508Y358094D01*
X306506Y358104D01*
X306505Y358114D01*
X306504Y358124D01*
X306504Y358135D01*
Y358922D01*
X306504Y358933D01*
X306505Y358943D01*
X306506Y358953D01*
X306508Y358963D01*
X306510Y358973D01*
X306513Y358983D01*
X306517Y358993D01*
X306521Y359002D01*
X306525Y359012D01*
X306530Y359021D01*
X306535Y359030D01*
X306541Y359038D01*
X306547Y359046D01*
X306554Y359054D01*
X306561Y359062D01*
X306569Y359068D01*
X306576Y359075D01*
X306585Y359082D01*
X306593Y359087D01*
X306602Y359093D01*
X306611Y359098D01*
X306620Y359102D01*
X306630Y359106D01*
X306640Y359109D01*
X306649Y359112D01*
X306659Y359115D01*
X306669Y359117D01*
X306680Y359118D01*
X306690Y359119D01*
X306700Y359119D01*
X308669D01*
X308679Y359119D01*
D02*
G37*
G36*
Y356560D02*
X308689Y356559D01*
X308700Y356558D01*
X308710Y356556D01*
X308720Y356553D01*
X308730Y356550D01*
X308739Y356547D01*
X308749Y356543D01*
X308758Y356539D01*
X308767Y356534D01*
X308776Y356528D01*
X308785Y356522D01*
X308793Y356516D01*
X308801Y356509D01*
X308808Y356502D01*
X308815Y356495D01*
X308822Y356487D01*
X308828Y356479D01*
X308834Y356470D01*
X308839Y356462D01*
X308844Y356453D01*
X308849Y356443D01*
X308853Y356434D01*
X308856Y356424D01*
X308859Y356414D01*
X308861Y356404D01*
X308863Y356394D01*
X308865Y356384D01*
X308865Y356374D01*
X308866Y356363D01*
Y355576D01*
X308865Y355566D01*
X308865Y355555D01*
X308863Y355545D01*
X308861Y355535D01*
X308859Y355525D01*
X308856Y355515D01*
X308853Y355505D01*
X308849Y355496D01*
X308844Y355486D01*
X308839Y355477D01*
X308834Y355469D01*
X308828Y355460D01*
X308822Y355452D01*
X308815Y355444D01*
X308808Y355437D01*
X308801Y355430D01*
X308793Y355423D01*
X308785Y355416D01*
X308776Y355411D01*
X308767Y355405D01*
X308758Y355400D01*
X308749Y355396D01*
X308739Y355392D01*
X308730Y355389D01*
X308720Y355386D01*
X308710Y355383D01*
X308700Y355381D01*
X308689Y355380D01*
X308679Y355379D01*
X308669Y355379D01*
X306700D01*
X306690Y355379D01*
X306680Y355380D01*
X306669Y355381D01*
X306659Y355383D01*
X306649Y355386D01*
X306640Y355389D01*
X306630Y355392D01*
X306620Y355396D01*
X306611Y355400D01*
X306602Y355405D01*
X306593Y355411D01*
X306585Y355416D01*
X306576Y355423D01*
X306569Y355430D01*
X306561Y355437D01*
X306554Y355444D01*
X306547Y355452D01*
X306541Y355460D01*
X306535Y355469D01*
X306530Y355477D01*
X306525Y355486D01*
X306521Y355496D01*
X306517Y355505D01*
X306513Y355515D01*
X306510Y355525D01*
X306508Y355535D01*
X306506Y355545D01*
X306505Y355555D01*
X306504Y355566D01*
X306504Y355576D01*
Y356363D01*
X306504Y356374D01*
X306505Y356384D01*
X306506Y356394D01*
X306508Y356404D01*
X306510Y356414D01*
X306513Y356424D01*
X306517Y356434D01*
X306521Y356443D01*
X306525Y356453D01*
X306530Y356462D01*
X306535Y356470D01*
X306541Y356479D01*
X306547Y356487D01*
X306554Y356495D01*
X306561Y356502D01*
X306569Y356509D01*
X306576Y356516D01*
X306585Y356522D01*
X306593Y356528D01*
X306602Y356534D01*
X306611Y356539D01*
X306620Y356543D01*
X306630Y356547D01*
X306640Y356550D01*
X306649Y356553D01*
X306659Y356556D01*
X306669Y356558D01*
X306680Y356559D01*
X306690Y356560D01*
X306700Y356560D01*
X308669D01*
X308679Y356560D01*
D02*
G37*
G36*
X318384Y364631D02*
X318394Y364630D01*
X318404Y364629D01*
X318414Y364627D01*
X318425Y364624D01*
X318434Y364621D01*
X318444Y364618D01*
X318454Y364614D01*
X318463Y364610D01*
X318472Y364604D01*
X318481Y364599D01*
X318489Y364593D01*
X318497Y364587D01*
X318505Y364580D01*
X318513Y364573D01*
X318520Y364566D01*
X318527Y364558D01*
X318533Y364550D01*
X318539Y364541D01*
X318544Y364532D01*
X318549Y364523D01*
X318553Y364514D01*
X318557Y364505D01*
X318561Y364495D01*
X318564Y364485D01*
X318566Y364475D01*
X318568Y364465D01*
X318569Y364455D01*
X318570Y364444D01*
X318570Y364434D01*
Y364237D01*
X320873D01*
X320884Y364237D01*
X320894Y364236D01*
X320904Y364235D01*
X320915Y364233D01*
X320924Y364230D01*
X320934Y364228D01*
X320944Y364224D01*
X320954Y364220D01*
X320963Y364216D01*
X320972Y364211D01*
X320981Y364206D01*
X320989Y364200D01*
X320997Y364193D01*
X321005Y364187D01*
X321013Y364180D01*
X321020Y364172D01*
X321026Y364164D01*
X321033Y364156D01*
X321039Y364148D01*
X321044Y364139D01*
X321049Y364130D01*
X321053Y364120D01*
X321057Y364111D01*
X321061Y364101D01*
X321064Y364091D01*
X321066Y364081D01*
X321068Y364071D01*
X321069Y364061D01*
X321070Y364051D01*
X321070Y364040D01*
Y363253D01*
X321070Y363243D01*
X321069Y363232D01*
X321068Y363222D01*
X321066Y363212D01*
X321064Y363202D01*
X321061Y363192D01*
X321057Y363182D01*
X321053Y363173D01*
X321049Y363164D01*
X321044Y363155D01*
X321039Y363146D01*
X321033Y363137D01*
X321026Y363129D01*
X321020Y363121D01*
X321013Y363114D01*
X321005Y363107D01*
X320997Y363100D01*
X320989Y363094D01*
X320981Y363088D01*
X320972Y363083D01*
X320963Y363078D01*
X320954Y363073D01*
X320944Y363069D01*
X320934Y363066D01*
X320924Y363063D01*
X320915Y363060D01*
X320904Y363058D01*
X320894Y363057D01*
X320884Y363056D01*
X320873Y363056D01*
X318570D01*
Y361678D01*
X320873D01*
X320884Y361678D01*
X320894Y361677D01*
X320904Y361676D01*
X320915Y361674D01*
X320924Y361671D01*
X320934Y361668D01*
X320944Y361665D01*
X320954Y361661D01*
X320963Y361657D01*
X320972Y361652D01*
X320981Y361646D01*
X320989Y361641D01*
X320997Y361634D01*
X321005Y361628D01*
X321013Y361620D01*
X321020Y361613D01*
X321026Y361605D01*
X321033Y361597D01*
X321039Y361589D01*
X321044Y361580D01*
X321049Y361571D01*
X321053Y361561D01*
X321057Y361552D01*
X321061Y361542D01*
X321064Y361532D01*
X321066Y361522D01*
X321068Y361512D01*
X321069Y361502D01*
X321070Y361492D01*
X321070Y361481D01*
Y360694D01*
X321070Y360684D01*
X321069Y360673D01*
X321068Y360663D01*
X321066Y360653D01*
X321064Y360643D01*
X321061Y360633D01*
X321057Y360623D01*
X321053Y360614D01*
X321049Y360605D01*
X321044Y360595D01*
X321039Y360587D01*
X321033Y360578D01*
X321026Y360570D01*
X321020Y360562D01*
X321013Y360555D01*
X321005Y360548D01*
X320997Y360541D01*
X320989Y360535D01*
X320981Y360529D01*
X320972Y360523D01*
X320963Y360519D01*
X320954Y360514D01*
X320944Y360510D01*
X320934Y360507D01*
X320924Y360504D01*
X320915Y360501D01*
X320904Y360500D01*
X320894Y360498D01*
X320884Y360497D01*
X320873Y360497D01*
X318570D01*
Y359119D01*
X320873D01*
X320884Y359119D01*
X320894Y359118D01*
X320904Y359117D01*
X320915Y359115D01*
X320924Y359112D01*
X320934Y359109D01*
X320944Y359106D01*
X320954Y359102D01*
X320963Y359098D01*
X320972Y359093D01*
X320981Y359087D01*
X320989Y359082D01*
X320997Y359075D01*
X321005Y359068D01*
X321013Y359062D01*
X321020Y359054D01*
X321026Y359046D01*
X321033Y359038D01*
X321039Y359030D01*
X321044Y359021D01*
X321049Y359012D01*
X321053Y359002D01*
X321057Y358993D01*
X321061Y358983D01*
X321064Y358973D01*
X321066Y358963D01*
X321068Y358953D01*
X321069Y358943D01*
X321070Y358933D01*
X321070Y358922D01*
Y358135D01*
X321070Y358124D01*
X321069Y358114D01*
X321068Y358104D01*
X321066Y358094D01*
X321064Y358084D01*
X321061Y358074D01*
X321057Y358064D01*
X321053Y358055D01*
X321049Y358046D01*
X321044Y358036D01*
X321039Y358028D01*
X321033Y358019D01*
X321026Y358011D01*
X321020Y358003D01*
X321013Y357996D01*
X321005Y357989D01*
X320997Y357982D01*
X320989Y357976D01*
X320981Y357970D01*
X320972Y357964D01*
X320963Y357960D01*
X320954Y357955D01*
X320944Y357951D01*
X320934Y357948D01*
X320924Y357945D01*
X320915Y357942D01*
X320904Y357940D01*
X320894Y357939D01*
X320884Y357938D01*
X320873Y357938D01*
X318570D01*
Y356560D01*
X320873D01*
X320884Y356560D01*
X320894Y356559D01*
X320904Y356558D01*
X320915Y356556D01*
X320924Y356553D01*
X320934Y356550D01*
X320944Y356547D01*
X320954Y356543D01*
X320963Y356539D01*
X320972Y356534D01*
X320981Y356528D01*
X320989Y356522D01*
X320997Y356516D01*
X321005Y356509D01*
X321013Y356502D01*
X321020Y356495D01*
X321026Y356487D01*
X321033Y356479D01*
X321039Y356470D01*
X321044Y356462D01*
X321049Y356453D01*
X321053Y356443D01*
X321057Y356434D01*
X321061Y356424D01*
X321064Y356414D01*
X321066Y356404D01*
X321068Y356394D01*
X321069Y356384D01*
X321070Y356374D01*
X321070Y356363D01*
Y355576D01*
X321070Y355566D01*
X321069Y355555D01*
X321068Y355545D01*
X321066Y355535D01*
X321064Y355525D01*
X321061Y355515D01*
X321057Y355505D01*
X321053Y355496D01*
X321049Y355486D01*
X321044Y355477D01*
X321039Y355469D01*
X321033Y355460D01*
X321026Y355452D01*
X321020Y355444D01*
X321013Y355437D01*
X321005Y355430D01*
X320997Y355423D01*
X320989Y355416D01*
X320981Y355411D01*
X320972Y355405D01*
X320963Y355400D01*
X320954Y355396D01*
X320944Y355392D01*
X320934Y355389D01*
X320924Y355386D01*
X320915Y355383D01*
X320904Y355381D01*
X320894Y355380D01*
X320884Y355379D01*
X320873Y355379D01*
X318570D01*
Y355182D01*
X318570Y355172D01*
X318569Y355161D01*
X318568Y355151D01*
X318566Y355141D01*
X318564Y355131D01*
X318561Y355121D01*
X318557Y355112D01*
X318553Y355102D01*
X318549Y355093D01*
X318544Y355084D01*
X318539Y355075D01*
X318533Y355066D01*
X318527Y355058D01*
X318520Y355050D01*
X318513Y355043D01*
X318505Y355036D01*
X318497Y355029D01*
X318489Y355023D01*
X318481Y355017D01*
X318472Y355012D01*
X318463Y355007D01*
X318454Y355002D01*
X318444Y354998D01*
X318434Y354995D01*
X318425Y354992D01*
X318414Y354990D01*
X318404Y354988D01*
X318394Y354986D01*
X318384Y354985D01*
X318373Y354985D01*
X311779D01*
X311769Y354985D01*
X311758Y354986D01*
X311748Y354988D01*
X311738Y354990D01*
X311728Y354992D01*
X311718Y354995D01*
X311708Y354998D01*
X311699Y355002D01*
X311690Y355007D01*
X311681Y355012D01*
X311672Y355017D01*
X311663Y355023D01*
X311655Y355029D01*
X311647Y355036D01*
X311640Y355043D01*
X311633Y355050D01*
X311626Y355058D01*
X311620Y355066D01*
X311614Y355075D01*
X311609Y355084D01*
X311604Y355093D01*
X311599Y355102D01*
X311595Y355112D01*
X311592Y355121D01*
X311589Y355131D01*
X311586Y355141D01*
X311585Y355151D01*
X311583Y355161D01*
X311582Y355172D01*
X311582Y355182D01*
Y364434D01*
X311582Y364444D01*
X311583Y364455D01*
X311585Y364465D01*
X311586Y364475D01*
X311589Y364485D01*
X311592Y364495D01*
X311595Y364505D01*
X311599Y364514D01*
X311604Y364523D01*
X311609Y364532D01*
X311614Y364541D01*
X311620Y364550D01*
X311626Y364558D01*
X311633Y364566D01*
X311640Y364573D01*
X311647Y364580D01*
X311655Y364587D01*
X311663Y364593D01*
X311672Y364599D01*
X311681Y364604D01*
X311690Y364610D01*
X311699Y364614D01*
X311708Y364618D01*
X311718Y364621D01*
X311728Y364624D01*
X311738Y364627D01*
X311748Y364629D01*
X311758Y364630D01*
X311769Y364631D01*
X311779Y364631D01*
X318373D01*
X318384Y364631D01*
D02*
G37*
G36*
X325848Y364241D02*
X325858Y364241D01*
X325868Y364239D01*
X325878Y364237D01*
X325888Y364235D01*
X325898Y364232D01*
X325908Y364229D01*
X325918Y364225D01*
X325927Y364220D01*
X325936Y364215D01*
X325945Y364210D01*
X325953Y364204D01*
X325961Y364198D01*
X325969Y364191D01*
X325977Y364184D01*
X325984Y364177D01*
X325990Y364169D01*
X325997Y364160D01*
X326003Y364152D01*
X326008Y364143D01*
X326013Y364134D01*
X326017Y364125D01*
X326021Y364115D01*
X326025Y364106D01*
X326028Y364096D01*
X326030Y364086D01*
X326032Y364075D01*
X326033Y364065D01*
X326034Y364055D01*
X326034Y364045D01*
Y363257D01*
X326034Y363247D01*
X326033Y363237D01*
X326032Y363227D01*
X326030Y363216D01*
X326028Y363206D01*
X326025Y363196D01*
X326021Y363187D01*
X326017Y363177D01*
X326013Y363168D01*
X326008Y363159D01*
X326003Y363150D01*
X325997Y363142D01*
X325990Y363133D01*
X325984Y363126D01*
X325977Y363118D01*
X325969Y363111D01*
X325961Y363104D01*
X325953Y363098D01*
X325945Y363092D01*
X325936Y363087D01*
X325927Y363082D01*
X325918Y363077D01*
X325908Y363074D01*
X325898Y363070D01*
X325888Y363067D01*
X325878Y363065D01*
X325868Y363063D01*
X325858Y363062D01*
X325848Y363061D01*
X325837Y363060D01*
X323869D01*
X323859Y363061D01*
X323848Y363062D01*
X323838Y363063D01*
X323828Y363065D01*
X323818Y363067D01*
X323808Y363070D01*
X323798Y363074D01*
X323789Y363077D01*
X323780Y363082D01*
X323770Y363087D01*
X323762Y363092D01*
X323753Y363098D01*
X323745Y363104D01*
X323737Y363111D01*
X323730Y363118D01*
X323723Y363126D01*
X323716Y363133D01*
X323710Y363142D01*
X323704Y363150D01*
X323698Y363159D01*
X323694Y363168D01*
X323689Y363177D01*
X323685Y363187D01*
X323682Y363196D01*
X323679Y363206D01*
X323676Y363216D01*
X323675Y363227D01*
X323673Y363237D01*
X323672Y363247D01*
X323672Y363257D01*
Y364045D01*
X323672Y364055D01*
X323673Y364065D01*
X323675Y364075D01*
X323676Y364086D01*
X323679Y364096D01*
X323682Y364106D01*
X323685Y364115D01*
X323689Y364125D01*
X323694Y364134D01*
X323698Y364143D01*
X323704Y364152D01*
X323710Y364160D01*
X323716Y364169D01*
X323723Y364177D01*
X323730Y364184D01*
X323737Y364191D01*
X323745Y364198D01*
X323753Y364204D01*
X323762Y364210D01*
X323770Y364215D01*
X323780Y364220D01*
X323789Y364225D01*
X323798Y364229D01*
X323808Y364232D01*
X323818Y364235D01*
X323828Y364237D01*
X323838Y364239D01*
X323848Y364241D01*
X323859Y364241D01*
X323869Y364242D01*
X325837D01*
X325848Y364241D01*
D02*
G37*
G36*
Y361682D02*
X325858Y361681D01*
X325868Y361680D01*
X325878Y361678D01*
X325888Y361676D01*
X325898Y361673D01*
X325908Y361669D01*
X325918Y361666D01*
X325927Y361661D01*
X325936Y361656D01*
X325945Y361651D01*
X325953Y361645D01*
X325961Y361639D01*
X325969Y361632D01*
X325977Y361625D01*
X325984Y361617D01*
X325990Y361610D01*
X325997Y361601D01*
X326003Y361593D01*
X326008Y361584D01*
X326013Y361575D01*
X326017Y361566D01*
X326021Y361556D01*
X326025Y361546D01*
X326028Y361537D01*
X326030Y361527D01*
X326032Y361516D01*
X326033Y361506D01*
X326034Y361496D01*
X326034Y361486D01*
Y360698D01*
X326034Y360688D01*
X326033Y360678D01*
X326032Y360667D01*
X326030Y360657D01*
X326028Y360647D01*
X326025Y360637D01*
X326021Y360628D01*
X326017Y360618D01*
X326013Y360609D01*
X326008Y360600D01*
X326003Y360591D01*
X325997Y360583D01*
X325990Y360574D01*
X325984Y360567D01*
X325977Y360559D01*
X325969Y360552D01*
X325961Y360545D01*
X325953Y360539D01*
X325945Y360533D01*
X325936Y360528D01*
X325927Y360523D01*
X325918Y360518D01*
X325908Y360514D01*
X325898Y360511D01*
X325888Y360508D01*
X325878Y360506D01*
X325868Y360504D01*
X325858Y360503D01*
X325848Y360502D01*
X325837Y360501D01*
X323869D01*
X323859Y360502D01*
X323848Y360503D01*
X323838Y360504D01*
X323828Y360506D01*
X323818Y360508D01*
X323808Y360511D01*
X323798Y360514D01*
X323789Y360518D01*
X323780Y360523D01*
X323770Y360528D01*
X323762Y360533D01*
X323753Y360539D01*
X323745Y360545D01*
X323737Y360552D01*
X323730Y360559D01*
X323723Y360567D01*
X323716Y360574D01*
X323710Y360583D01*
X323704Y360591D01*
X323698Y360600D01*
X323694Y360609D01*
X323689Y360618D01*
X323685Y360628D01*
X323682Y360637D01*
X323679Y360647D01*
X323676Y360657D01*
X323675Y360667D01*
X323673Y360678D01*
X323672Y360688D01*
X323672Y360698D01*
Y361486D01*
X323672Y361496D01*
X323673Y361506D01*
X323675Y361516D01*
X323676Y361527D01*
X323679Y361537D01*
X323682Y361546D01*
X323685Y361556D01*
X323689Y361566D01*
X323694Y361575D01*
X323698Y361584D01*
X323704Y361593D01*
X323710Y361601D01*
X323716Y361610D01*
X323723Y361617D01*
X323730Y361625D01*
X323737Y361632D01*
X323745Y361639D01*
X323753Y361645D01*
X323762Y361651D01*
X323770Y361656D01*
X323780Y361661D01*
X323789Y361666D01*
X323798Y361669D01*
X323808Y361673D01*
X323818Y361676D01*
X323828Y361678D01*
X323838Y361680D01*
X323848Y361681D01*
X323859Y361682D01*
X323869Y361683D01*
X325837D01*
X325848Y361682D01*
D02*
G37*
G36*
Y359123D02*
X325858Y359122D01*
X325868Y359121D01*
X325878Y359119D01*
X325888Y359117D01*
X325898Y359114D01*
X325908Y359110D01*
X325918Y359106D01*
X325927Y359102D01*
X325936Y359097D01*
X325945Y359092D01*
X325953Y359086D01*
X325961Y359080D01*
X325969Y359073D01*
X325977Y359066D01*
X325984Y359058D01*
X325990Y359050D01*
X325997Y359042D01*
X326003Y359034D01*
X326008Y359025D01*
X326013Y359016D01*
X326017Y359007D01*
X326021Y358997D01*
X326025Y358987D01*
X326028Y358978D01*
X326030Y358967D01*
X326032Y358957D01*
X326033Y358947D01*
X326034Y358937D01*
X326034Y358927D01*
Y358139D01*
X326034Y358129D01*
X326033Y358119D01*
X326032Y358108D01*
X326030Y358098D01*
X326028Y358088D01*
X326025Y358078D01*
X326021Y358069D01*
X326017Y358059D01*
X326013Y358050D01*
X326008Y358041D01*
X326003Y358032D01*
X325997Y358024D01*
X325990Y358015D01*
X325984Y358008D01*
X325977Y358000D01*
X325969Y357993D01*
X325961Y357986D01*
X325953Y357980D01*
X325945Y357974D01*
X325936Y357969D01*
X325927Y357964D01*
X325918Y357959D01*
X325908Y357956D01*
X325898Y357952D01*
X325888Y357949D01*
X325878Y357947D01*
X325868Y357945D01*
X325858Y357943D01*
X325848Y357943D01*
X325837Y357942D01*
X323869D01*
X323859Y357943D01*
X323848Y357943D01*
X323838Y357945D01*
X323828Y357947D01*
X323818Y357949D01*
X323808Y357952D01*
X323798Y357956D01*
X323789Y357959D01*
X323780Y357964D01*
X323770Y357969D01*
X323762Y357974D01*
X323753Y357980D01*
X323745Y357986D01*
X323737Y357993D01*
X323730Y358000D01*
X323723Y358008D01*
X323716Y358015D01*
X323710Y358024D01*
X323704Y358032D01*
X323698Y358041D01*
X323694Y358050D01*
X323689Y358059D01*
X323685Y358069D01*
X323682Y358078D01*
X323679Y358088D01*
X323676Y358098D01*
X323675Y358108D01*
X323673Y358119D01*
X323672Y358129D01*
X323672Y358139D01*
Y358927D01*
X323672Y358937D01*
X323673Y358947D01*
X323675Y358957D01*
X323676Y358967D01*
X323679Y358978D01*
X323682Y358987D01*
X323685Y358997D01*
X323689Y359007D01*
X323694Y359016D01*
X323698Y359025D01*
X323704Y359034D01*
X323710Y359042D01*
X323716Y359050D01*
X323723Y359058D01*
X323730Y359066D01*
X323737Y359073D01*
X323745Y359080D01*
X323753Y359086D01*
X323762Y359092D01*
X323770Y359097D01*
X323780Y359102D01*
X323789Y359106D01*
X323798Y359110D01*
X323808Y359114D01*
X323818Y359117D01*
X323828Y359119D01*
X323838Y359121D01*
X323848Y359122D01*
X323859Y359123D01*
X323869Y359123D01*
X325837D01*
X325848Y359123D01*
D02*
G37*
G36*
Y356564D02*
X325858Y356563D01*
X325868Y356562D01*
X325878Y356560D01*
X325888Y356558D01*
X325898Y356555D01*
X325908Y356551D01*
X325918Y356547D01*
X325927Y356543D01*
X325936Y356538D01*
X325945Y356533D01*
X325953Y356527D01*
X325961Y356521D01*
X325969Y356514D01*
X325977Y356507D01*
X325984Y356499D01*
X325990Y356491D01*
X325997Y356483D01*
X326003Y356475D01*
X326008Y356466D01*
X326013Y356457D01*
X326017Y356448D01*
X326021Y356438D01*
X326025Y356428D01*
X326028Y356418D01*
X326030Y356409D01*
X326032Y356398D01*
X326033Y356388D01*
X326034Y356378D01*
X326034Y356368D01*
Y355580D01*
X326034Y355570D01*
X326033Y355560D01*
X326032Y355549D01*
X326030Y355539D01*
X326028Y355529D01*
X326025Y355519D01*
X326021Y355510D01*
X326017Y355500D01*
X326013Y355491D01*
X326008Y355482D01*
X326003Y355473D01*
X325997Y355465D01*
X325990Y355456D01*
X325984Y355449D01*
X325977Y355441D01*
X325969Y355434D01*
X325961Y355427D01*
X325953Y355421D01*
X325945Y355415D01*
X325936Y355410D01*
X325927Y355405D01*
X325918Y355400D01*
X325908Y355396D01*
X325898Y355393D01*
X325888Y355390D01*
X325878Y355388D01*
X325868Y355386D01*
X325858Y355384D01*
X325848Y355384D01*
X325837Y355383D01*
X323869D01*
X323859Y355384D01*
X323848Y355384D01*
X323838Y355386D01*
X323828Y355388D01*
X323818Y355390D01*
X323808Y355393D01*
X323798Y355396D01*
X323789Y355400D01*
X323780Y355405D01*
X323770Y355410D01*
X323762Y355415D01*
X323753Y355421D01*
X323745Y355427D01*
X323737Y355434D01*
X323730Y355441D01*
X323723Y355449D01*
X323716Y355456D01*
X323710Y355465D01*
X323704Y355473D01*
X323698Y355482D01*
X323694Y355491D01*
X323689Y355500D01*
X323685Y355510D01*
X323682Y355519D01*
X323679Y355529D01*
X323676Y355539D01*
X323675Y355549D01*
X323673Y355560D01*
X323672Y355570D01*
X323672Y355580D01*
Y356368D01*
X323672Y356378D01*
X323673Y356388D01*
X323675Y356398D01*
X323676Y356409D01*
X323679Y356418D01*
X323682Y356428D01*
X323685Y356438D01*
X323689Y356448D01*
X323694Y356457D01*
X323698Y356466D01*
X323704Y356475D01*
X323710Y356483D01*
X323716Y356491D01*
X323723Y356499D01*
X323730Y356507D01*
X323737Y356514D01*
X323745Y356521D01*
X323753Y356527D01*
X323762Y356533D01*
X323770Y356538D01*
X323780Y356543D01*
X323789Y356547D01*
X323798Y356551D01*
X323808Y356555D01*
X323818Y356558D01*
X323828Y356560D01*
X323838Y356562D01*
X323848Y356563D01*
X323859Y356564D01*
X323869Y356564D01*
X325837D01*
X325848Y356564D01*
D02*
G37*
G36*
X335553Y364635D02*
X335563Y364634D01*
X335573Y364633D01*
X335583Y364631D01*
X335593Y364629D01*
X335603Y364626D01*
X335613Y364622D01*
X335622Y364618D01*
X335631Y364614D01*
X335641Y364609D01*
X335649Y364603D01*
X335658Y364598D01*
X335666Y364591D01*
X335674Y364585D01*
X335681Y364578D01*
X335688Y364570D01*
X335695Y364562D01*
X335701Y364554D01*
X335707Y364546D01*
X335713Y364537D01*
X335718Y364528D01*
X335722Y364518D01*
X335726Y364509D01*
X335729Y364499D01*
X335732Y364489D01*
X335735Y364479D01*
X335737Y364469D01*
X335738Y364459D01*
X335739Y364449D01*
X335739Y364438D01*
Y364242D01*
X338042D01*
X338053Y364241D01*
X338063Y364241D01*
X338073Y364239D01*
X338083Y364237D01*
X338093Y364235D01*
X338103Y364232D01*
X338113Y364229D01*
X338122Y364225D01*
X338131Y364220D01*
X338141Y364215D01*
X338149Y364210D01*
X338158Y364204D01*
X338166Y364198D01*
X338174Y364191D01*
X338181Y364184D01*
X338189Y364177D01*
X338195Y364169D01*
X338201Y364160D01*
X338207Y364152D01*
X338213Y364143D01*
X338218Y364134D01*
X338222Y364125D01*
X338226Y364115D01*
X338229Y364106D01*
X338232Y364096D01*
X338235Y364086D01*
X338237Y364075D01*
X338238Y364065D01*
X338239Y364055D01*
X338239Y364045D01*
Y363257D01*
X338239Y363247D01*
X338238Y363237D01*
X338237Y363227D01*
X338235Y363216D01*
X338232Y363206D01*
X338229Y363196D01*
X338226Y363187D01*
X338222Y363177D01*
X338218Y363168D01*
X338213Y363159D01*
X338207Y363150D01*
X338201Y363142D01*
X338195Y363133D01*
X338189Y363126D01*
X338181Y363118D01*
X338174Y363111D01*
X338166Y363104D01*
X338158Y363098D01*
X338149Y363092D01*
X338141Y363087D01*
X338131Y363082D01*
X338122Y363077D01*
X338113Y363074D01*
X338103Y363070D01*
X338093Y363067D01*
X338083Y363065D01*
X338073Y363063D01*
X338063Y363062D01*
X338053Y363061D01*
X338042Y363060D01*
X335739D01*
Y361683D01*
X338042D01*
X338053Y361682D01*
X338063Y361681D01*
X338073Y361680D01*
X338083Y361678D01*
X338093Y361676D01*
X338103Y361673D01*
X338113Y361669D01*
X338122Y361666D01*
X338131Y361661D01*
X338141Y361656D01*
X338149Y361651D01*
X338158Y361645D01*
X338166Y361639D01*
X338174Y361632D01*
X338181Y361625D01*
X338189Y361617D01*
X338195Y361610D01*
X338201Y361601D01*
X338207Y361593D01*
X338213Y361584D01*
X338218Y361575D01*
X338222Y361566D01*
X338226Y361556D01*
X338229Y361546D01*
X338232Y361537D01*
X338235Y361527D01*
X338237Y361516D01*
X338238Y361506D01*
X338239Y361496D01*
X338239Y361486D01*
Y360698D01*
X338239Y360688D01*
X338238Y360678D01*
X338237Y360667D01*
X338235Y360657D01*
X338232Y360647D01*
X338229Y360637D01*
X338226Y360628D01*
X338222Y360618D01*
X338218Y360609D01*
X338213Y360600D01*
X338207Y360591D01*
X338201Y360583D01*
X338195Y360574D01*
X338189Y360567D01*
X338181Y360559D01*
X338174Y360552D01*
X338166Y360545D01*
X338158Y360539D01*
X338149Y360533D01*
X338141Y360528D01*
X338131Y360523D01*
X338122Y360518D01*
X338113Y360514D01*
X338103Y360511D01*
X338093Y360508D01*
X338083Y360506D01*
X338073Y360504D01*
X338063Y360503D01*
X338053Y360502D01*
X338042Y360501D01*
X335739D01*
Y359123D01*
X338042D01*
X338053Y359123D01*
X338063Y359122D01*
X338073Y359121D01*
X338083Y359119D01*
X338093Y359117D01*
X338103Y359114D01*
X338113Y359110D01*
X338122Y359106D01*
X338131Y359102D01*
X338141Y359097D01*
X338149Y359092D01*
X338158Y359086D01*
X338166Y359080D01*
X338174Y359073D01*
X338181Y359066D01*
X338189Y359058D01*
X338195Y359050D01*
X338201Y359042D01*
X338207Y359034D01*
X338213Y359025D01*
X338218Y359016D01*
X338222Y359007D01*
X338226Y358997D01*
X338229Y358987D01*
X338232Y358978D01*
X338235Y358967D01*
X338237Y358957D01*
X338238Y358947D01*
X338239Y358937D01*
X338239Y358927D01*
Y358139D01*
X338239Y358129D01*
X338238Y358119D01*
X338237Y358108D01*
X338235Y358098D01*
X338232Y358088D01*
X338229Y358078D01*
X338226Y358069D01*
X338222Y358059D01*
X338218Y358050D01*
X338213Y358041D01*
X338207Y358032D01*
X338201Y358024D01*
X338195Y358015D01*
X338189Y358008D01*
X338181Y358000D01*
X338174Y357993D01*
X338166Y357986D01*
X338158Y357980D01*
X338149Y357974D01*
X338141Y357969D01*
X338131Y357964D01*
X338122Y357959D01*
X338113Y357956D01*
X338103Y357952D01*
X338093Y357949D01*
X338083Y357947D01*
X338073Y357945D01*
X338063Y357943D01*
X338053Y357943D01*
X338042Y357942D01*
X335739D01*
Y356564D01*
X338042D01*
X338053Y356564D01*
X338063Y356563D01*
X338073Y356562D01*
X338083Y356560D01*
X338093Y356558D01*
X338103Y356555D01*
X338113Y356551D01*
X338122Y356547D01*
X338131Y356543D01*
X338141Y356538D01*
X338149Y356533D01*
X338158Y356527D01*
X338166Y356521D01*
X338174Y356514D01*
X338181Y356507D01*
X338189Y356499D01*
X338195Y356491D01*
X338201Y356483D01*
X338207Y356475D01*
X338213Y356466D01*
X338218Y356457D01*
X338222Y356448D01*
X338226Y356438D01*
X338229Y356428D01*
X338232Y356418D01*
X338235Y356409D01*
X338237Y356398D01*
X338238Y356388D01*
X338239Y356378D01*
X338239Y356368D01*
Y355580D01*
X338239Y355570D01*
X338238Y355560D01*
X338237Y355549D01*
X338235Y355539D01*
X338232Y355529D01*
X338229Y355519D01*
X338226Y355510D01*
X338222Y355500D01*
X338218Y355491D01*
X338213Y355482D01*
X338207Y355473D01*
X338201Y355465D01*
X338195Y355456D01*
X338189Y355449D01*
X338181Y355441D01*
X338174Y355434D01*
X338166Y355427D01*
X338158Y355421D01*
X338149Y355415D01*
X338141Y355410D01*
X338131Y355405D01*
X338122Y355400D01*
X338113Y355396D01*
X338103Y355393D01*
X338093Y355390D01*
X338083Y355388D01*
X338073Y355386D01*
X338063Y355384D01*
X338053Y355384D01*
X338042Y355383D01*
X335739D01*
Y355187D01*
X335739Y355176D01*
X335738Y355166D01*
X335737Y355156D01*
X335735Y355146D01*
X335732Y355135D01*
X335729Y355126D01*
X335726Y355116D01*
X335722Y355106D01*
X335718Y355097D01*
X335713Y355088D01*
X335707Y355079D01*
X335701Y355071D01*
X335695Y355063D01*
X335688Y355055D01*
X335681Y355047D01*
X335674Y355040D01*
X335666Y355033D01*
X335658Y355027D01*
X335649Y355021D01*
X335641Y355016D01*
X335631Y355011D01*
X335622Y355007D01*
X335613Y355003D01*
X335603Y354999D01*
X335593Y354996D01*
X335583Y354994D01*
X335573Y354992D01*
X335563Y354991D01*
X335553Y354990D01*
X335542Y354990D01*
X328948D01*
X328937Y354990D01*
X328927Y354991D01*
X328917Y354992D01*
X328907Y354994D01*
X328897Y354996D01*
X328887Y354999D01*
X328877Y355003D01*
X328868Y355007D01*
X328858Y355011D01*
X328849Y355016D01*
X328840Y355021D01*
X328832Y355027D01*
X328824Y355033D01*
X328816Y355040D01*
X328808Y355047D01*
X328801Y355055D01*
X328795Y355063D01*
X328788Y355071D01*
X328783Y355079D01*
X328777Y355088D01*
X328772Y355097D01*
X328768Y355106D01*
X328764Y355116D01*
X328761Y355126D01*
X328758Y355135D01*
X328755Y355146D01*
X328753Y355156D01*
X328752Y355166D01*
X328751Y355176D01*
X328751Y355187D01*
Y364438D01*
X328751Y364449D01*
X328752Y364459D01*
X328753Y364469D01*
X328755Y364479D01*
X328758Y364489D01*
X328761Y364499D01*
X328764Y364509D01*
X328768Y364518D01*
X328772Y364528D01*
X328777Y364537D01*
X328783Y364546D01*
X328788Y364554D01*
X328795Y364562D01*
X328801Y364570D01*
X328808Y364578D01*
X328816Y364585D01*
X328824Y364591D01*
X328832Y364598D01*
X328840Y364603D01*
X328849Y364609D01*
X328858Y364614D01*
X328868Y364618D01*
X328877Y364622D01*
X328887Y364626D01*
X328897Y364629D01*
X328907Y364631D01*
X328917Y364633D01*
X328927Y364634D01*
X328937Y364635D01*
X328948Y364635D01*
X335542D01*
X335553Y364635D01*
D02*
G37*
D53*
X448890Y235000D02*
D03*
X445110Y235000D02*
D03*
Y223000D02*
D03*
X448890D02*
D03*
X448779Y218000D02*
D03*
X445000D02*
D03*
X445110Y206000D02*
D03*
X448890D02*
D03*
X434110Y197000D02*
D03*
X437890D02*
D03*
X414110D02*
D03*
X417890D02*
D03*
X410890Y240000D02*
D03*
X414372Y23333D02*
D03*
X196016Y310079D02*
D03*
X204329Y162053D02*
D03*
X53049Y165049D02*
D03*
X407110Y240000D02*
D03*
X338569Y316128D02*
D03*
X342349D02*
D03*
X87246Y130716D02*
D03*
Y142702D02*
D03*
X87246Y148912D02*
D03*
X87326Y154699D02*
D03*
X87251Y160734D02*
D03*
X87276Y136352D02*
D03*
X110660Y353444D02*
D03*
X106881Y365056D02*
D03*
X199796Y310079D02*
D03*
X418152Y23333D02*
D03*
X200550Y162053D02*
D03*
X49269Y165049D02*
D03*
X244905Y403310D02*
D03*
X245203Y301811D02*
D03*
X245063Y274656D02*
D03*
X245130Y368628D02*
D03*
X245074Y354970D02*
D03*
X245104Y372488D02*
D03*
X244919Y399501D02*
D03*
X245119Y351134D02*
D03*
X245244Y305579D02*
D03*
X245167Y320302D02*
D03*
X245123Y324178D02*
D03*
X245039Y270829D02*
D03*
X43549Y359661D02*
D03*
X47477Y359632D02*
D03*
X373051Y45649D02*
D03*
X373051Y57466D02*
D03*
X373804Y26246D02*
D03*
X373890Y37990D02*
D03*
X342164Y289008D02*
D03*
X342164Y284746D02*
D03*
X342374Y320072D02*
D03*
X304490Y387304D02*
D03*
X307857Y378429D02*
D03*
X307771Y374228D02*
D03*
X296871Y362608D02*
D03*
X293091D02*
D03*
X110660Y365056D02*
D03*
X222222Y296927D02*
D03*
X83466Y130716D02*
D03*
X83466Y142702D02*
D03*
X83466Y148912D02*
D03*
X83546Y154699D02*
D03*
X83471Y160734D02*
D03*
X83496Y136352D02*
D03*
X106881Y353444D02*
D03*
X141690Y348182D02*
D03*
X145470D02*
D03*
X79870Y348492D02*
D03*
X83649D02*
D03*
X461561Y338797D02*
D03*
X457782D02*
D03*
X241126Y403310D02*
D03*
X241424Y301811D02*
D03*
X241284Y274656D02*
D03*
X226001Y296927D02*
D03*
X241351Y368628D02*
D03*
X241295Y354970D02*
D03*
X241325Y372488D02*
D03*
X241139Y399501D02*
D03*
X241339Y351134D02*
D03*
X241464Y305579D02*
D03*
X241387Y320302D02*
D03*
X241343Y324178D02*
D03*
X241259Y270829D02*
D03*
X39770Y359661D02*
D03*
X51257Y359632D02*
D03*
X226105Y394669D02*
D03*
X222326D02*
D03*
X376831Y45649D02*
D03*
X376831Y57466D02*
D03*
X389401Y68177D02*
D03*
X385622Y68177D02*
D03*
X377584Y26246D02*
D03*
X377669Y37990D02*
D03*
X408412Y68158D02*
D03*
X404633D02*
D03*
X338384Y289008D02*
D03*
Y284746D02*
D03*
X338595Y320072D02*
D03*
X300711Y387304D02*
D03*
X311637Y378429D02*
D03*
X311551Y374228D02*
D03*
X226048Y346283D02*
D03*
X222269D02*
D03*
D54*
X448890Y231000D02*
D03*
X445110D02*
D03*
X448890Y227000D02*
D03*
X445110D02*
D03*
X448890Y214000D02*
D03*
X445110D02*
D03*
X448779Y210000D02*
D03*
X445000Y210000D02*
D03*
X290744Y317663D02*
D03*
X222363Y390800D02*
D03*
X222238Y342496D02*
D03*
X222296Y293069D02*
D03*
X308832Y387353D02*
D03*
X327891Y316306D02*
D03*
X122515Y153777D02*
D03*
X118395Y153814D02*
D03*
X373064Y49584D02*
D03*
X250105Y162895D02*
D03*
X122601Y129821D02*
D03*
X118395Y129858D02*
D03*
X239789Y113034D02*
D03*
X244389Y108370D02*
D03*
X373051Y53531D02*
D03*
X95326Y142812D02*
D03*
X210976Y108207D02*
D03*
X214756D02*
D03*
X202906Y108235D02*
D03*
X206685D02*
D03*
X206831Y113034D02*
D03*
X203052D02*
D03*
X250215Y157895D02*
D03*
X246436D02*
D03*
X246325Y162895D02*
D03*
X250243Y133021D02*
D03*
X246463D02*
D03*
X250242Y137614D02*
D03*
X246463D02*
D03*
X236010Y113034D02*
D03*
X248169Y108370D02*
D03*
X231828Y108008D02*
D03*
X228049D02*
D03*
X198074Y108201D02*
D03*
X194295D02*
D03*
X236010Y108207D02*
D03*
X239789D02*
D03*
X471191Y316668D02*
D03*
X467411D02*
D03*
X305409Y297776D02*
D03*
X309189D02*
D03*
X290333Y298050D02*
D03*
X294112D02*
D03*
X472819Y337479D02*
D03*
X469040D02*
D03*
X226075Y293069D02*
D03*
X294524Y317663D02*
D03*
X226142Y390800D02*
D03*
X376844Y49584D02*
D03*
X376831Y53531D02*
D03*
X373908Y30209D02*
D03*
X377687D02*
D03*
X373907Y34152D02*
D03*
X377686D02*
D03*
X54707Y115791D02*
D03*
X58487D02*
D03*
X50210Y115731D02*
D03*
X46431D02*
D03*
X95108Y130729D02*
D03*
X91329D02*
D03*
X90632Y116317D02*
D03*
X94412D02*
D03*
X86419Y116372D02*
D03*
X82639D02*
D03*
X95326Y136489D02*
D03*
X91546D02*
D03*
X114615Y129858D02*
D03*
X126380Y129821D02*
D03*
X91546Y142812D02*
D03*
X114615Y153814D02*
D03*
X126295Y153777D02*
D03*
X95335Y148912D02*
D03*
X91556Y148912D02*
D03*
X91730Y192371D02*
D03*
X95510D02*
D03*
X87487Y192448D02*
D03*
X83707D02*
D03*
X95108Y154729D02*
D03*
X91329D02*
D03*
X56571Y192834D02*
D03*
X60350D02*
D03*
X52597D02*
D03*
X48818D02*
D03*
X94998Y160729D02*
D03*
X91218Y160729D02*
D03*
X312612Y387353D02*
D03*
X331670Y316306D02*
D03*
X226018Y342496D02*
D03*
D55*
X441000Y210000D02*
D03*
Y213779D02*
D03*
Y227110D02*
D03*
Y230890D02*
D03*
X430000Y192890D02*
D03*
Y189110D02*
D03*
X442000D02*
D03*
Y192890D02*
D03*
X410000Y192890D02*
D03*
Y189110D02*
D03*
X422000D02*
D03*
Y192890D02*
D03*
X322965Y296391D02*
D03*
X225833Y376502D02*
D03*
X225986Y328235D02*
D03*
X225974Y278927D02*
D03*
X136566Y261433D02*
D03*
X146801Y300156D02*
D03*
X67549Y280384D02*
D03*
X103408Y220539D02*
D03*
X127088Y261433D02*
D03*
X103134Y261532D02*
D03*
X85293Y261912D02*
D03*
X165120Y359252D02*
D03*
X175467Y359227D02*
D03*
X185701Y359223D02*
D03*
X138805Y221490D02*
D03*
X120815Y221490D02*
D03*
X225833Y380281D02*
D03*
X236717Y127274D02*
D03*
Y143760D02*
D03*
X237777Y169035D02*
D03*
X237611Y151682D02*
D03*
X225986Y332014D02*
D03*
X225974Y282706D02*
D03*
X381283Y76050D02*
D03*
X393319Y76077D02*
D03*
X400438Y76288D02*
D03*
X412354Y76252D02*
D03*
X299341Y287970D02*
D03*
X322965Y292611D02*
D03*
X297879Y270163D02*
D03*
X237777Y165255D02*
D03*
X241966Y158698D02*
D03*
X241966Y162478D02*
D03*
X237611Y155462D02*
D03*
X236717Y139980D02*
D03*
X236717Y131054D02*
D03*
X241966Y133483D02*
D03*
X241966Y137262D02*
D03*
X299341Y291750D02*
D03*
X67549Y284164D02*
D03*
X146801Y296376D02*
D03*
X136566Y257653D02*
D03*
X103408Y224319D02*
D03*
X127088Y257653D02*
D03*
X103134Y257752D02*
D03*
X85293Y258133D02*
D03*
X165120Y355473D02*
D03*
X175467Y355447D02*
D03*
X185701Y355443D02*
D03*
X138805Y225269D02*
D03*
X120815Y225269D02*
D03*
X380908Y53416D02*
D03*
Y49636D02*
D03*
X381283Y72270D02*
D03*
X393319Y72298D02*
D03*
X381833Y33967D02*
D03*
Y30187D02*
D03*
X400438Y72509D02*
D03*
X412354Y72473D02*
D03*
X336751Y375344D02*
D03*
Y371564D02*
D03*
X315248Y275312D02*
D03*
Y271532D02*
D03*
X297879Y273942D02*
D03*
D56*
X432063Y183737D02*
D03*
X438362D02*
D03*
X411850Y184000D02*
D03*
X418150D02*
D03*
X410299Y203000D02*
D03*
X404000D02*
D03*
X409158Y82696D02*
D03*
X390637Y82457D02*
D03*
X189850Y350000D02*
D03*
X229920Y352418D02*
D03*
X229946Y303104D02*
D03*
X243517Y152784D02*
D03*
X198939Y122458D02*
D03*
X242773Y127694D02*
D03*
X78798Y376954D02*
D03*
X66432Y376935D02*
D03*
X58538Y303084D02*
D03*
X229728Y400636D02*
D03*
X420302Y62440D02*
D03*
X48101Y125740D02*
D03*
X104897Y372155D02*
D03*
X311518Y399080D02*
D03*
X305124Y392601D02*
D03*
X442709Y406717D02*
D03*
X249684Y168107D02*
D03*
X243384D02*
D03*
X249817Y152784D02*
D03*
X249072Y127694D02*
D03*
X249502Y143021D02*
D03*
X243203D02*
D03*
X205238Y122458D02*
D03*
X54401Y125740D02*
D03*
X414002Y62440D02*
D03*
X196150Y350000D02*
D03*
X52239Y303084D02*
D03*
X85097Y376954D02*
D03*
X325522Y348919D02*
D03*
X331822D02*
D03*
X402859Y82696D02*
D03*
X384338Y82457D02*
D03*
X236220Y352418D02*
D03*
X311562Y312034D02*
D03*
X305263D02*
D03*
X236246Y303104D02*
D03*
X43853Y371013D02*
D03*
X50152D02*
D03*
X60133Y376935D02*
D03*
X50102Y364636D02*
D03*
X43802D02*
D03*
X236027Y400636D02*
D03*
X111550Y359148D02*
D03*
X105251D02*
D03*
X111196Y372155D02*
D03*
X314500Y348937D02*
D03*
X308201D02*
D03*
X305218Y399080D02*
D03*
X311423Y392601D02*
D03*
X294158Y378977D02*
D03*
X300457D02*
D03*
X449009Y406717D02*
D03*
D57*
X434000Y189110D02*
D03*
Y192890D02*
D03*
X438000Y189220D02*
D03*
Y193000D02*
D03*
X414000Y189000D02*
D03*
X414000Y192780D02*
D03*
X418000Y189110D02*
D03*
X418000Y192890D02*
D03*
X374000Y219890D02*
D03*
Y216110D02*
D03*
X296840Y387788D02*
D03*
X323122Y300535D02*
D03*
X221783Y328252D02*
D03*
X221842Y376489D02*
D03*
X217440Y328156D02*
D03*
X217727Y376443D02*
D03*
X218180Y296949D02*
D03*
X221907Y278946D02*
D03*
X90381Y374783D02*
D03*
X389319Y76015D02*
D03*
X408370Y76252D02*
D03*
X152132Y374045D02*
D03*
X297879Y282123D02*
D03*
X294944Y347801D02*
D03*
X279649Y146333D02*
D03*
Y150112D02*
D03*
X270649Y146333D02*
D03*
Y150112D02*
D03*
X288649Y146333D02*
D03*
Y150112D02*
D03*
X218180Y293170D02*
D03*
X221783Y332032D02*
D03*
X221907Y282725D02*
D03*
X172649Y145333D02*
D03*
Y149112D02*
D03*
X163649Y145333D02*
D03*
Y149112D02*
D03*
X154649Y145333D02*
D03*
Y149112D02*
D03*
X217727Y380222D02*
D03*
X217440Y331936D02*
D03*
X221842Y380268D02*
D03*
X298734Y398803D02*
D03*
Y395023D02*
D03*
X317862Y311233D02*
D03*
Y307453D02*
D03*
X170367Y355473D02*
D03*
Y359252D02*
D03*
X180855Y355447D02*
D03*
Y359227D02*
D03*
X190724Y355473D02*
D03*
Y359252D02*
D03*
X133665Y221490D02*
D03*
Y225269D02*
D03*
X303450Y275196D02*
D03*
Y271417D02*
D03*
X309958Y275145D02*
D03*
Y271366D02*
D03*
X296840Y384008D02*
D03*
X323122Y304314D02*
D03*
X125948Y221490D02*
D03*
Y225269D02*
D03*
X90381Y371004D02*
D03*
X90381Y366526D02*
D03*
Y362746D02*
D03*
X385282Y76077D02*
D03*
Y72298D02*
D03*
X389319Y72235D02*
D03*
X404476Y76306D02*
D03*
X404476Y72527D02*
D03*
X408370Y72473D02*
D03*
X152132Y365618D02*
D03*
Y361838D02*
D03*
Y370265D02*
D03*
X315149Y279298D02*
D03*
Y283077D02*
D03*
X297879Y278344D02*
D03*
X294944Y344021D02*
D03*
D58*
X398000Y215150D02*
D03*
Y208850D02*
D03*
X91787Y263155D02*
D03*
X374000Y210150D02*
D03*
X300886Y354568D02*
D03*
X457922Y323781D02*
D03*
X234475Y364979D02*
D03*
X208739Y343391D02*
D03*
X349000Y290850D02*
D03*
X235014Y267387D02*
D03*
X228834Y267347D02*
D03*
X234850Y316646D02*
D03*
X79293Y263172D02*
D03*
X109799Y217636D02*
D03*
X66216Y301959D02*
D03*
X228294Y365012D02*
D03*
X426829Y55134D02*
D03*
X66759Y108290D02*
D03*
X102317Y109220D02*
D03*
X106732Y137158D02*
D03*
X106374Y160829D02*
D03*
X103485Y185233D02*
D03*
X68487Y186240D02*
D03*
X191426Y128911D02*
D03*
X41308Y133143D02*
D03*
X121707Y263150D02*
D03*
X228977Y316683D02*
D03*
X106732Y130859D02*
D03*
X191426Y135210D02*
D03*
X45019Y295298D02*
D03*
X325000Y408000D02*
D03*
Y401701D02*
D03*
X374000Y203850D02*
D03*
X300886Y348269D02*
D03*
X474158Y344850D02*
D03*
Y351150D02*
D03*
X457922Y330080D02*
D03*
X290737Y305033D02*
D03*
Y311333D02*
D03*
X234475Y371279D02*
D03*
X208739Y337092D02*
D03*
X349000Y297150D02*
D03*
X258127Y389785D02*
D03*
Y396084D02*
D03*
X258199Y333109D02*
D03*
Y326810D02*
D03*
X235014Y273686D02*
D03*
X228834Y273646D02*
D03*
X258168Y341895D02*
D03*
Y348194D02*
D03*
X234850Y322945D02*
D03*
X91787Y256856D02*
D03*
X79293Y256873D02*
D03*
X108491Y263172D02*
D03*
Y256873D02*
D03*
X97077Y217621D02*
D03*
Y223921D02*
D03*
X109799Y223936D02*
D03*
X258149Y375458D02*
D03*
Y381757D02*
D03*
X258185Y283420D02*
D03*
Y277121D02*
D03*
X258186Y293867D02*
D03*
Y300167D02*
D03*
X45019Y301597D02*
D03*
X66216Y295659D02*
D03*
X228294Y371311D02*
D03*
X426829Y48834D02*
D03*
X66759Y114589D02*
D03*
X102317Y115520D02*
D03*
X106374Y154530D02*
D03*
X103485Y191532D02*
D03*
X68487Y192539D02*
D03*
X41308Y139442D02*
D03*
X293719Y338685D02*
D03*
Y332386D02*
D03*
X142000Y263150D02*
D03*
Y256850D02*
D03*
X115545Y263172D02*
D03*
Y256873D02*
D03*
X121707Y256850D02*
D03*
X228977Y322983D02*
D03*
D59*
X423890Y209795D02*
D03*
X421921D02*
D03*
X419953D02*
D03*
X417984D02*
D03*
X416016D02*
D03*
X414047D02*
D03*
X412079D02*
D03*
X410110D02*
D03*
Y234205D02*
D03*
X412079D02*
D03*
X414047D02*
D03*
X416016D02*
D03*
X417984D02*
D03*
X419953D02*
D03*
X421921D02*
D03*
X423890D02*
D03*
X401601Y30021D02*
D03*
X183888Y317385D02*
D03*
X413412Y30021D02*
D03*
X411444D02*
D03*
X195699Y317385D02*
D03*
X193731Y317385D02*
D03*
X206805Y154895D02*
D03*
X204836D02*
D03*
X56392Y157981D02*
D03*
X54423D02*
D03*
X409475Y30021D02*
D03*
Y54431D02*
D03*
X407507D02*
D03*
X58360Y157981D02*
D03*
Y133571D02*
D03*
X60329D02*
D03*
X191762Y317385D02*
D03*
Y341795D02*
D03*
X189794D02*
D03*
X208773Y154895D02*
D03*
X208773Y130486D02*
D03*
X210742D02*
D03*
X212710D02*
D03*
X216647D02*
D03*
X214679D02*
D03*
X218616D02*
D03*
X206805D02*
D03*
X204836D02*
D03*
X210742Y154895D02*
D03*
X212710Y154895D02*
D03*
X214679D02*
D03*
X216647D02*
D03*
X218616D02*
D03*
X62297Y157981D02*
D03*
X66234D02*
D03*
X64266D02*
D03*
X56392Y133571D02*
D03*
X411444Y54431D02*
D03*
X193731Y341795D02*
D03*
X68203Y157981D02*
D03*
X181920Y341795D02*
D03*
X183888D02*
D03*
X185857Y341795D02*
D03*
X187825Y341795D02*
D03*
X195699D02*
D03*
X189794Y317385D02*
D03*
X187825Y317385D02*
D03*
X185857D02*
D03*
X181920Y317385D02*
D03*
X399633Y30021D02*
D03*
X403570D02*
D03*
X405538D02*
D03*
X407507D02*
D03*
X413412Y54431D02*
D03*
X405538D02*
D03*
X403570D02*
D03*
X401601D02*
D03*
X399633D02*
D03*
X60329Y157981D02*
D03*
X54423Y133571D02*
D03*
X62297D02*
D03*
X64266D02*
D03*
X66234D02*
D03*
X68203D02*
D03*
D60*
X404795Y215110D02*
D03*
Y217079D02*
D03*
Y219047D02*
D03*
Y221016D02*
D03*
Y222984D02*
D03*
Y224953D02*
D03*
Y226921D02*
D03*
Y228890D02*
D03*
X429205D02*
D03*
Y226921D02*
D03*
Y224953D02*
D03*
Y222984D02*
D03*
Y221016D02*
D03*
Y219047D02*
D03*
Y217079D02*
D03*
Y215110D02*
D03*
X418727Y37305D02*
D03*
X201014Y324669D02*
D03*
X199521Y147612D02*
D03*
X49108Y150697D02*
D03*
X394318Y35336D02*
D03*
X418727D02*
D03*
Y49116D02*
D03*
X73518Y138886D02*
D03*
Y152666D02*
D03*
X49108D02*
D03*
Y138886D02*
D03*
X176605Y336480D02*
D03*
Y322700D02*
D03*
X201014Y322700D02*
D03*
Y336480D02*
D03*
X223931Y149580D02*
D03*
X199521D02*
D03*
X199521Y135801D02*
D03*
X394318Y37305D02*
D03*
Y47147D02*
D03*
X199521Y137769D02*
D03*
Y139738D02*
D03*
Y141706D02*
D03*
X199521Y143675D02*
D03*
Y145643D02*
D03*
X223931Y147612D02*
D03*
Y145643D02*
D03*
Y143675D02*
D03*
Y141706D02*
D03*
Y139738D02*
D03*
Y137769D02*
D03*
Y135801D02*
D03*
X201014Y334511D02*
D03*
Y332543D02*
D03*
Y330574D02*
D03*
Y328606D02*
D03*
Y326637D02*
D03*
X176605Y324669D02*
D03*
Y326637D02*
D03*
Y328606D02*
D03*
Y330574D02*
D03*
X176605Y332543D02*
D03*
X176605Y334511D02*
D03*
X394318Y49116D02*
D03*
Y45179D02*
D03*
Y43210D02*
D03*
Y41242D02*
D03*
Y39273D02*
D03*
X418727D02*
D03*
Y41242D02*
D03*
Y43210D02*
D03*
Y45179D02*
D03*
Y47147D02*
D03*
X73518Y140855D02*
D03*
Y142823D02*
D03*
Y144792D02*
D03*
Y146760D02*
D03*
Y148729D02*
D03*
Y150697D02*
D03*
X49108Y148729D02*
D03*
Y146760D02*
D03*
Y144792D02*
D03*
Y142823D02*
D03*
Y140855D02*
D03*
D61*
X233606Y395452D02*
D03*
Y347085D02*
D03*
X330711Y312076D02*
D03*
X233605Y297803D02*
D03*
X332680Y312076D02*
D03*
X336617D02*
D03*
X338585Y312076D02*
D03*
X334648Y293178D02*
D03*
X336617D02*
D03*
X338585Y293178D02*
D03*
X332680Y293178D02*
D03*
X334648Y312076D02*
D03*
X330711Y293178D02*
D03*
X237543Y347085D02*
D03*
X237542Y297803D02*
D03*
X237543Y395452D02*
D03*
X233606Y328188D02*
D03*
X235575Y347085D02*
D03*
X239512D02*
D03*
X241480D02*
D03*
X235575Y328188D02*
D03*
X237543D02*
D03*
X239512D02*
D03*
X241480D02*
D03*
X241479Y278905D02*
D03*
X239511D02*
D03*
X237542D02*
D03*
X235574D02*
D03*
X241479Y297803D02*
D03*
X239511D02*
D03*
X235574D02*
D03*
X233605Y278905D02*
D03*
X241480Y376554D02*
D03*
X239512D02*
D03*
X237543D02*
D03*
X235575D02*
D03*
X241480Y395452D02*
D03*
X239512D02*
D03*
X235575D02*
D03*
X233606Y376554D02*
D03*
D62*
X327168Y296722D02*
D03*
X230063Y380098D02*
D03*
Y331731D02*
D03*
X230062Y282449D02*
D03*
X342128Y296722D02*
D03*
Y308533D02*
D03*
X327168Y304596D02*
D03*
Y302627D02*
D03*
X342128Y306564D02*
D03*
Y304596D02*
D03*
Y302627D02*
D03*
Y300659D02*
D03*
Y298690D02*
D03*
X327168D02*
D03*
Y300659D02*
D03*
Y306564D02*
D03*
Y308533D02*
D03*
X230063Y335668D02*
D03*
Y333699D02*
D03*
X230062Y284417D02*
D03*
Y286385D02*
D03*
X230063Y382066D02*
D03*
Y384035D02*
D03*
X230062Y290322D02*
D03*
X230063Y337636D02*
D03*
X230062Y288354D02*
D03*
X230063Y387972D02*
D03*
Y339605D02*
D03*
Y386003D02*
D03*
X245024Y331731D02*
D03*
Y343542D02*
D03*
X230063D02*
D03*
Y341574D02*
D03*
X245024D02*
D03*
Y339605D02*
D03*
Y337636D02*
D03*
Y335668D02*
D03*
Y333699D02*
D03*
X245023Y284417D02*
D03*
Y286385D02*
D03*
Y288354D02*
D03*
Y290322D02*
D03*
Y292291D02*
D03*
X230062D02*
D03*
Y294260D02*
D03*
X245023D02*
D03*
Y282449D02*
D03*
X245024Y382066D02*
D03*
Y384035D02*
D03*
Y386003D02*
D03*
Y387972D02*
D03*
Y389940D02*
D03*
X230063D02*
D03*
Y391909D02*
D03*
X245024D02*
D03*
Y380098D02*
D03*
D63*
X334648Y302627D02*
D03*
X237543Y337636D02*
D03*
X237542Y288354D02*
D03*
X237543Y386003D02*
D03*
D64*
X335740Y334098D02*
D03*
X336000Y342000D02*
D03*
X76000Y15000D02*
D03*
X442543Y15494D02*
D03*
Y73335D02*
D03*
X250146Y318636D02*
D03*
X250092Y308255D02*
D03*
X249924Y268892D02*
D03*
X250040Y404250D02*
D03*
X250042Y367192D02*
D03*
X250067Y356420D02*
D03*
X138844Y377589D02*
D03*
X441520Y414000D02*
D03*
X328260Y334098D02*
D03*
X328520Y342000D02*
D03*
X68520Y15000D02*
D03*
X450023Y15494D02*
D03*
Y73335D02*
D03*
X257626Y318636D02*
D03*
X257572Y308255D02*
D03*
X257405Y268892D02*
D03*
X257520Y404250D02*
D03*
X257522Y367192D02*
D03*
X257548Y356420D02*
D03*
X118694Y378517D02*
D03*
X126174D02*
D03*
X146324Y377589D02*
D03*
X449000Y414000D02*
D03*
D65*
X404214Y397868D02*
D03*
X385876D02*
D03*
X404214Y409286D02*
D03*
X385876D02*
D03*
X305809Y330258D02*
D03*
Y341675D02*
D03*
D66*
X178526Y307732D02*
D03*
X45184Y383385D02*
D03*
X475321Y212731D02*
D03*
X251070Y301319D02*
D03*
X334000Y19260D02*
D03*
X251076Y374256D02*
D03*
X251174Y325609D02*
D03*
X251006Y397274D02*
D03*
X251096Y349381D02*
D03*
X251048Y275982D02*
D03*
X92997Y349007D02*
D03*
X153788Y348499D02*
D03*
X346655Y349181D02*
D03*
X316000Y19260D02*
D03*
X299000D02*
D03*
X163649Y131483D02*
D03*
X270649Y132483D02*
D03*
X288649Y132223D02*
D03*
X154649Y131483D02*
D03*
X172649D02*
D03*
X279649Y132223D02*
D03*
Y139703D02*
D03*
X288649D02*
D03*
X270649Y139963D02*
D03*
X163649Y138963D02*
D03*
X154649D02*
D03*
X172649D02*
D03*
X178526Y300252D02*
D03*
X45184Y390866D02*
D03*
X475321Y205251D02*
D03*
X251070Y293839D02*
D03*
X334000Y26740D02*
D03*
X251076Y381736D02*
D03*
X251174Y333089D02*
D03*
X251006Y389794D02*
D03*
X251096Y341901D02*
D03*
X251048Y283462D02*
D03*
X92997Y356487D02*
D03*
X153788Y355980D02*
D03*
X346655Y356662D02*
D03*
X316000Y26740D02*
D03*
X299000D02*
D03*
D67*
X464791Y323088D02*
D03*
X458276Y348000D02*
D03*
X467724Y351740D02*
D03*
Y344260D02*
D03*
X474240Y326829D02*
D03*
X464792Y330569D02*
D03*
D68*
X328094Y392812D02*
D03*
X322188D02*
D03*
X328094Y371946D02*
D03*
X322188D02*
D03*
D69*
X318645Y391237D02*
D03*
X331637D02*
D03*
Y389269D02*
D03*
Y377458D02*
D03*
X318645Y381395D02*
D03*
Y375489D02*
D03*
X331637Y381395D02*
D03*
X318645Y389269D02*
D03*
Y387300D02*
D03*
Y385332D02*
D03*
Y383363D02*
D03*
X331637Y387300D02*
D03*
Y383363D02*
D03*
Y379426D02*
D03*
Y375489D02*
D03*
Y373521D02*
D03*
X318645Y379426D02*
D03*
Y377458D02*
D03*
Y373521D02*
D03*
X331637Y385332D02*
D03*
D70*
X325141Y382379D02*
D03*
D71*
X148604Y331175D02*
D03*
X81160Y331557D02*
D03*
X121439Y331175D02*
D03*
X53994Y331557D02*
D03*
D72*
X283808Y304983D02*
D03*
X297650Y311260D02*
D03*
Y304174D02*
D03*
X283808Y312070D02*
D03*
D73*
X307034Y282596D02*
D03*
X304475Y291258D02*
D03*
X309593D02*
D03*
Y282596D02*
D03*
X304475D02*
D03*
D74*
X77000Y388000D02*
D03*
Y401000D02*
D03*
X139361Y388110D02*
D03*
X139415Y400997D02*
D03*
X88024Y388000D02*
D03*
X88024Y401000D02*
D03*
X150385Y388110D02*
D03*
X150439Y400997D02*
D03*
D75*
X136239Y305691D02*
D03*
X78326Y277522D02*
D03*
X74585Y287758D02*
D03*
X139979Y295455D02*
D03*
Y305691D02*
D03*
X132498Y305691D02*
D03*
Y295455D02*
D03*
X74585Y277522D02*
D03*
X82066Y277522D02*
D03*
Y287758D02*
D03*
D76*
X71055Y362680D02*
D03*
X132531Y362437D02*
D03*
D77*
X59736Y360180D02*
D03*
X121212Y359937D02*
D03*
X59736Y370180D02*
D03*
X59736Y365180D02*
D03*
Y355180D02*
D03*
X82373Y370180D02*
D03*
Y365180D02*
D03*
Y360180D02*
D03*
Y355180D02*
D03*
X121212Y369937D02*
D03*
Y364937D02*
D03*
Y354937D02*
D03*
X143850Y369937D02*
D03*
Y364937D02*
D03*
Y359937D02*
D03*
Y354937D02*
D03*
D78*
X346301Y382048D02*
D03*
X346277Y374752D02*
D03*
X346301Y393071D02*
D03*
X346277Y363728D02*
D03*
D79*
X302317Y370163D02*
D03*
X293656Y367604D02*
D03*
Y372722D02*
D03*
X302317D02*
D03*
Y367604D02*
D03*
D80*
X326129Y272407D02*
D03*
X337743D02*
D03*
X326129Y266895D02*
D03*
X337743D02*
D03*
D81*
X238852Y95057D02*
D03*
Y97616D02*
D03*
Y100175D02*
D03*
Y102734D02*
D03*
X228537Y95057D02*
D03*
X228537Y97616D02*
D03*
X228537Y100175D02*
D03*
Y102734D02*
D03*
X205872Y95229D02*
D03*
X205872Y97788D02*
D03*
X205872Y100347D02*
D03*
Y102906D02*
D03*
X195557Y95229D02*
D03*
X195557Y97788D02*
D03*
X195557Y100347D02*
D03*
Y102906D02*
D03*
X83729Y111078D02*
D03*
Y108519D02*
D03*
Y105960D02*
D03*
Y103401D02*
D03*
X94044Y111078D02*
D03*
Y108519D02*
D03*
Y105960D02*
D03*
Y103401D02*
D03*
X57778Y102763D02*
D03*
X57778Y105322D02*
D03*
X57778Y107881D02*
D03*
Y110441D02*
D03*
X47463Y102763D02*
D03*
Y105322D02*
D03*
Y107881D02*
D03*
Y110441D02*
D03*
X115129Y142752D02*
D03*
Y140193D02*
D03*
Y137634D02*
D03*
Y135074D02*
D03*
X125444Y142752D02*
D03*
Y140193D02*
D03*
Y137634D02*
D03*
Y135074D02*
D03*
X114927Y166624D02*
D03*
X114927Y164065D02*
D03*
Y161506D02*
D03*
X114927Y158947D02*
D03*
X125242Y166624D02*
D03*
X125242Y164065D02*
D03*
X125242Y161506D02*
D03*
X125242Y158947D02*
D03*
X94880Y179590D02*
D03*
Y182149D02*
D03*
Y184708D02*
D03*
Y187267D02*
D03*
X84565Y179590D02*
D03*
Y182149D02*
D03*
Y184708D02*
D03*
Y187267D02*
D03*
X60266Y179890D02*
D03*
Y182449D02*
D03*
Y185008D02*
D03*
Y187567D02*
D03*
X49951Y179890D02*
D03*
Y182449D02*
D03*
Y185008D02*
D03*
Y187567D02*
D03*
D82*
X51943Y295797D02*
D03*
X58675D02*
D03*
D83*
X304596Y304924D02*
D03*
X311683D02*
D03*
D84*
X75031Y296949D02*
D03*
Y307776D02*
D03*
X80543Y296949D02*
D03*
Y307776D02*
D03*
X117651Y295159D02*
D03*
Y305986D02*
D03*
X123163Y295159D02*
D03*
Y305986D02*
D03*
D85*
X354660Y307022D02*
D03*
X359115Y302568D02*
D03*
D86*
X221000Y233000D02*
D03*
X291000Y243000D02*
D03*
Y233000D02*
D03*
X301000Y243000D02*
D03*
X91000Y243000D02*
D03*
X81000D02*
D03*
X301000Y233000D02*
D03*
X141000D02*
D03*
X91000D02*
D03*
X81000D02*
D03*
X301000Y53000D02*
D03*
Y43000D02*
D03*
X231000Y243000D02*
D03*
X241000Y43000D02*
D03*
X251000Y53000D02*
D03*
X221000Y43000D02*
D03*
X191000Y243000D02*
D03*
X171000D02*
D03*
Y233000D02*
D03*
X161000Y243000D02*
D03*
X241000Y53000D02*
D03*
X161000Y233000D02*
D03*
X151000Y243000D02*
D03*
X81000Y43000D02*
D03*
X91000D02*
D03*
X101000D02*
D03*
X111000D02*
D03*
X121000D02*
D03*
X131000D02*
D03*
X141000D02*
D03*
X151000D02*
D03*
X161000D02*
D03*
X171000D02*
D03*
X181000D02*
D03*
X191000D02*
D03*
X201000D02*
D03*
X211000D02*
D03*
X231000D02*
D03*
X251000D02*
D03*
X261000D02*
D03*
X271000D02*
D03*
X281000D02*
D03*
X291000D02*
D03*
X81000Y53000D02*
D03*
X101000D02*
D03*
X121000D02*
D03*
X131000D02*
D03*
X141000D02*
D03*
X151000D02*
D03*
X161000D02*
D03*
X171000D02*
D03*
X181000D02*
D03*
X191000D02*
D03*
X201000D02*
D03*
X211000D02*
D03*
X221000D02*
D03*
X231000D02*
D03*
X261000D02*
D03*
X271000D02*
D03*
X281000D02*
D03*
X291000D02*
D03*
X101000Y233000D02*
D03*
X111000D02*
D03*
X121000D02*
D03*
X131000D02*
D03*
X151000D02*
D03*
X181000D02*
D03*
X191000D02*
D03*
X201000D02*
D03*
X211000D02*
D03*
X231000D02*
D03*
X241000D02*
D03*
X251000D02*
D03*
X261000Y233000D02*
D03*
X271000Y233000D02*
D03*
X281000D02*
D03*
X101000Y243000D02*
D03*
X111000Y243000D02*
D03*
X121000D02*
D03*
X131000Y243000D02*
D03*
X141000D02*
D03*
X181000D02*
D03*
X201000Y243000D02*
D03*
X211000D02*
D03*
X221000Y243000D02*
D03*
X241000D02*
D03*
X251000Y243000D02*
D03*
X261000Y243000D02*
D03*
X271000D02*
D03*
X281000D02*
D03*
X91000Y53000D02*
D03*
X111000D02*
D03*
D87*
X405932Y298545D02*
D03*
Y334569D02*
D03*
X398137Y285081D02*
D03*
Y330041D02*
D03*
X390302Y325553D02*
D03*
X382507Y321065D02*
D03*
X414908Y334569D02*
D03*
X422704Y330041D02*
D03*
X430538Y325553D02*
D03*
X438334Y312049D02*
D03*
Y321065D02*
D03*
X422704Y276065D02*
D03*
Y303073D02*
D03*
X374712Y298545D02*
D03*
X430538Y289569D02*
D03*
X398137Y303073D02*
D03*
X390302Y307561D02*
D03*
X405932Y289569D02*
D03*
X430538Y280553D02*
D03*
X382507Y303073D02*
D03*
X390302Y280553D02*
D03*
X430538Y316577D02*
D03*
Y307561D02*
D03*
X438334Y303073D02*
D03*
X446129Y298545D02*
D03*
X430538D02*
D03*
X438334Y285081D02*
D03*
X414908Y316577D02*
D03*
Y298545D02*
D03*
Y289569D02*
D03*
Y280553D02*
D03*
Y271577D02*
D03*
X405932D02*
D03*
Y307561D02*
D03*
X446129D02*
D03*
X438334Y330041D02*
D03*
Y294057D02*
D03*
X430538Y334569D02*
D03*
X422704Y339057D02*
D03*
Y321065D02*
D03*
Y312049D02*
D03*
Y294057D02*
D03*
Y285081D02*
D03*
X414908Y343545D02*
D03*
Y325553D02*
D03*
Y307561D02*
D03*
X374712Y316577D02*
D03*
Y307561D02*
D03*
X382507Y330041D02*
D03*
Y312049D02*
D03*
Y294057D02*
D03*
Y285081D02*
D03*
X390302Y334569D02*
D03*
Y316577D02*
D03*
Y298545D02*
D03*
Y289569D02*
D03*
X398137Y339057D02*
D03*
Y321065D02*
D03*
Y312049D02*
D03*
Y294057D02*
D03*
Y276065D02*
D03*
X405932Y343545D02*
D03*
Y325553D02*
D03*
Y316577D02*
D03*
Y280553D02*
D03*
D88*
X61000Y60500D02*
D03*
Y225500D02*
D03*
X321000Y48000D02*
D03*
Y238000D02*
D03*
D89*
X446129Y316577D02*
D03*
D90*
X473500Y12764D02*
D03*
Y86189D02*
D03*
X45500Y411764D02*
D03*
X473500Y180087D02*
D03*
X193170Y284977D02*
D03*
X45500Y12764D02*
D03*
X473500Y411764D02*
D03*
D91*
X314752Y363647D02*
D03*
X318315D02*
D03*
X312972Y359808D02*
D03*
X316535D02*
D03*
X320098D02*
D03*
X314752Y355970D02*
D03*
X318315D02*
D03*
X331920Y363651D02*
D03*
X335483D02*
D03*
X330141Y359812D02*
D03*
X333704D02*
D03*
X337267D02*
D03*
X331920Y355974D02*
D03*
X335483D02*
D03*
X68889Y367011D02*
D03*
X73220D02*
D03*
X68889Y362680D02*
D03*
X73220D02*
D03*
X68889Y358349D02*
D03*
X73220Y358349D02*
D03*
X130365Y366767D02*
D03*
X134696D02*
D03*
X130365Y362437D02*
D03*
X134696D02*
D03*
X130365Y358106D02*
D03*
X134696D02*
D03*
M02*
