G04*
G04 #@! TF.GenerationSoftware,Altium Limited,Altium Designer,25.8.1 (18)*
G04*
G04 Layer_Physical_Order=6*
G04 Layer_Color=16711680*
%FSLAX25Y25*%
%MOIN*%
G70*
G04*
G04 #@! TF.SameCoordinates,8555A115-1401-43ED-8721-A1A47631EB87*
G04*
G04*
G04 #@! TF.FilePolarity,Positive*
G04*
G01*
G75*
%ADD14C,0.01000*%
%ADD22R,0.02441X0.02244*%
%ADD23R,0.02244X0.02441*%
%ADD24R,0.03740X0.03937*%
%ADD25R,0.03937X0.03740*%
%ADD26R,0.01181X0.06299*%
%ADD27R,0.06299X0.01181*%
%ADD31R,0.03937X0.05709*%
%ADD41R,0.05118X0.10630*%
%ADD92C,0.00600*%
%ADD95C,0.02000*%
%ADD98C,0.01333*%
%ADD101C,0.06000*%
%ADD102C,0.05315*%
%ADD103C,0.24410*%
%ADD104C,0.25591*%
%ADD105C,0.02362*%
%ADD106C,0.02000*%
%ADD108R,0.09843X0.06693*%
%ADD109R,0.06693X0.09843*%
G04:AMPARAMS|DCode=110|XSize=24.41mil|YSize=22.44mil|CornerRadius=0mil|HoleSize=0mil|Usage=FLASHONLY|Rotation=225.000|XOffset=0mil|YOffset=0mil|HoleType=Round|Shape=Rectangle|*
%AMROTATEDRECTD110*
4,1,4,0.00070,0.01656,0.01656,0.00070,-0.00070,-0.01656,-0.01656,-0.00070,0.00070,0.01656,0.0*
%
%ADD110ROTATEDRECTD110*%

%ADD111R,0.09843X0.13780*%
%ADD112R,0.13780X0.11614*%
%ADD113R,0.21654X0.05630*%
G36*
X466464Y422962D02*
X464904Y421829D01*
X463435Y420360D01*
X462214Y418680D01*
X461271Y416829D01*
X460630Y414854D01*
X460305Y412802D01*
Y410725D01*
X460630Y408674D01*
X461271Y406699D01*
X462214Y404848D01*
X463435Y403168D01*
X464904Y401699D01*
X466584Y400478D01*
X468435Y399535D01*
X470410Y398893D01*
X472462Y398569D01*
X474539D01*
X476590Y398893D01*
X478565Y399535D01*
X480416Y400478D01*
X482096Y401699D01*
X483565Y403168D01*
X484695Y404724D01*
X485195Y404576D01*
Y187274D01*
X484695Y187127D01*
X483565Y188683D01*
X482096Y190151D01*
X480416Y191372D01*
X478565Y192315D01*
X476590Y192957D01*
X474539Y193282D01*
X472462D01*
X470410Y192957D01*
X468435Y192315D01*
X466584Y191372D01*
X464904Y190151D01*
X463435Y188683D01*
X462214Y187002D01*
X461271Y185152D01*
X460630Y183177D01*
X460305Y181125D01*
Y179048D01*
X460630Y176997D01*
X461271Y175021D01*
X462214Y173171D01*
X463435Y171491D01*
X464904Y170022D01*
X466461Y168890D01*
X466316Y168390D01*
X300959D01*
X300652Y168329D01*
X300391Y168155D01*
X300217Y167895D01*
X300156Y167588D01*
Y98690D01*
X300217Y98383D01*
X300391Y98122D01*
X300652Y97948D01*
X300959Y97887D01*
X466324D01*
X466464Y97387D01*
X464904Y96254D01*
X463435Y94785D01*
X462214Y93105D01*
X461271Y91254D01*
X460630Y89279D01*
X460305Y87227D01*
Y85150D01*
X460630Y83099D01*
X461271Y81124D01*
X462214Y79273D01*
X463435Y77593D01*
X464904Y76124D01*
X466584Y74903D01*
X468435Y73961D01*
X470410Y73319D01*
X472462Y72994D01*
X474539D01*
X476590Y73319D01*
X478565Y73961D01*
X480416Y74903D01*
X482096Y76124D01*
X483565Y77593D01*
X484695Y79149D01*
X485195Y79001D01*
Y19951D01*
X484695Y19804D01*
X483565Y21360D01*
X482096Y22829D01*
X480416Y24049D01*
X478565Y24992D01*
X476590Y25634D01*
X474539Y25959D01*
X472462D01*
X470410Y25634D01*
X468435Y24992D01*
X466584Y24049D01*
X464904Y22829D01*
X463435Y21360D01*
X462214Y19680D01*
X461271Y17829D01*
X460630Y15854D01*
X460305Y13802D01*
Y11725D01*
X460630Y9674D01*
X461271Y7699D01*
X462214Y5848D01*
X463435Y4168D01*
X464904Y2699D01*
X466461Y1568D01*
X466316Y1068D01*
X52684D01*
X52539Y1568D01*
X54096Y2699D01*
X55565Y4168D01*
X56786Y5848D01*
X57728Y7699D01*
X58370Y9674D01*
X58695Y11725D01*
Y13802D01*
X58370Y15854D01*
X57728Y17829D01*
X56786Y19680D01*
X55565Y21360D01*
X54096Y22829D01*
X52416Y24049D01*
X50565Y24992D01*
X48590Y25634D01*
X46538Y25959D01*
X44462D01*
X42410Y25634D01*
X40435Y24992D01*
X38584Y24049D01*
X36904Y22829D01*
X35435Y21360D01*
X34301Y19799D01*
X33801Y19937D01*
Y404591D01*
X34301Y404729D01*
X35435Y403168D01*
X36904Y401699D01*
X38584Y400478D01*
X40435Y399535D01*
X42410Y398893D01*
X44462Y398569D01*
X46538D01*
X48590Y398893D01*
X50565Y399535D01*
X52416Y400478D01*
X54096Y401699D01*
X55565Y403168D01*
X56786Y404848D01*
X57728Y406699D01*
X58370Y408674D01*
X58695Y410725D01*
Y412802D01*
X58370Y414854D01*
X57728Y416829D01*
X56786Y418680D01*
X55565Y420360D01*
X54096Y421829D01*
X52536Y422962D01*
X52676Y423462D01*
X466324D01*
X466464Y422962D01*
D02*
G37*
%LPC*%
G36*
X334166Y412766D02*
X333569D01*
X333018Y412538D01*
X332596Y412116D01*
X332367Y411564D01*
Y410968D01*
X332596Y410416D01*
X333018Y409994D01*
X333569Y409766D01*
X333799D01*
X334082Y409483D01*
Y408510D01*
X333478D01*
Y406682D01*
X333016Y406490D01*
X332030Y407477D01*
X331887Y407822D01*
X331465Y408244D01*
X330913Y408472D01*
X330317D01*
X329765Y408244D01*
X329343Y407822D01*
X329115Y407270D01*
Y406674D01*
X329343Y406122D01*
X329765Y405700D01*
X330317Y405472D01*
X330913D01*
X331285Y405626D01*
X333478Y403433D01*
Y401490D01*
X336522D01*
Y404731D01*
X335209D01*
X335183Y404769D01*
X335450Y405269D01*
X336522D01*
Y405972D01*
X337478D01*
Y405269D01*
X340522D01*
Y408510D01*
X337478D01*
Y407807D01*
X336522D01*
Y408510D01*
X335918D01*
Y409863D01*
X335848Y410214D01*
X335649Y410512D01*
X335316Y410844D01*
X335367Y410968D01*
Y411564D01*
X335139Y412116D01*
X334717Y412538D01*
X334166Y412766D01*
D02*
G37*
G36*
X393000Y419433D02*
X363000D01*
X362694Y419306D01*
X362567Y419000D01*
Y396772D01*
X362694Y396466D01*
X363000Y396339D01*
X378000D01*
X378306Y396466D01*
X378433Y396772D01*
Y402567D01*
X393000D01*
X393306Y402694D01*
X393433Y403000D01*
Y419000D01*
X393306Y419306D01*
X393000Y419433D01*
D02*
G37*
G36*
X426608Y419386D02*
X396608D01*
X396302Y419260D01*
X396175Y418954D01*
Y402954D01*
X396302Y402647D01*
X396608Y402521D01*
X411175D01*
Y396726D01*
X411302Y396420D01*
X411608Y396293D01*
X426608D01*
X426914Y396420D01*
X427041Y396726D01*
Y418954D01*
X426914Y419260D01*
X426608Y419386D01*
D02*
G37*
G36*
X230388Y395775D02*
X229791D01*
X229240Y395547D01*
X228818Y395125D01*
X228590Y394574D01*
Y393977D01*
X228818Y393426D01*
X229240Y393004D01*
X229791Y392775D01*
X230388D01*
X230939Y393004D01*
X231361Y393426D01*
X231590Y393977D01*
Y394574D01*
X231361Y395125D01*
X230939Y395547D01*
X230388Y395775D01*
D02*
G37*
G36*
X275504Y395762D02*
X274907D01*
X274356Y395534D01*
X273934Y395112D01*
X273706Y394561D01*
Y393964D01*
X273934Y393413D01*
X274356Y392991D01*
X274907Y392762D01*
X275504D01*
X276056Y392991D01*
X276477Y393413D01*
X276706Y393964D01*
Y394561D01*
X276477Y395112D01*
X276056Y395534D01*
X275504Y395762D01*
D02*
G37*
G36*
X218429Y395329D02*
X217832D01*
X217281Y395101D01*
X216859Y394679D01*
X216630Y394127D01*
Y393531D01*
X216859Y392979D01*
X217281Y392557D01*
X217832Y392329D01*
X218429D01*
X218980Y392557D01*
X219402Y392979D01*
X219630Y393531D01*
Y394127D01*
X219402Y394679D01*
X218980Y395101D01*
X218429Y395329D01*
D02*
G37*
G36*
X266664Y392364D02*
X262124D01*
Y390913D01*
X260531D01*
Y392364D01*
X255990D01*
Y387627D01*
X255990D01*
X256114Y387127D01*
X255449Y386461D01*
X250198D01*
X249847Y386392D01*
X249549Y386193D01*
X242557Y379201D01*
X231061D01*
X230710Y379131D01*
X230412Y378932D01*
X206751Y355271D01*
X206552Y354973D01*
X206482Y354622D01*
Y336581D01*
X205819Y335918D01*
X204399D01*
Y336038D01*
X197300D01*
Y332088D01*
Y328164D01*
X197300D01*
Y327918D01*
X196374D01*
X196023Y327848D01*
X195726Y327649D01*
X194983Y326906D01*
X194483Y327114D01*
Y327673D01*
X194413Y328024D01*
X194214Y328322D01*
X194179Y328357D01*
X194230Y328481D01*
Y329077D01*
X194002Y329628D01*
X193580Y330050D01*
X193029Y330279D01*
X192432D01*
X191881Y330050D01*
X191459Y329628D01*
X191230Y329077D01*
Y328481D01*
X191249Y328435D01*
X190906Y327956D01*
X190602D01*
X190050Y327728D01*
X189628Y327306D01*
X189400Y326754D01*
Y326157D01*
X189409Y326137D01*
X189384Y326062D01*
X189059Y325675D01*
X188659D01*
X188108Y325447D01*
X187686Y325025D01*
X187457Y324474D01*
Y323877D01*
X187686Y323325D01*
X188108Y322903D01*
X188659Y322675D01*
X188701D01*
Y321950D01*
X188651Y321471D01*
X186670D01*
Y314372D01*
X186742D01*
Y311656D01*
X163418Y288331D01*
X163219Y288033D01*
X163149Y287682D01*
Y258248D01*
X163219Y257897D01*
X163418Y257600D01*
X173268Y247749D01*
X173565Y247551D01*
X173917Y247481D01*
X183255D01*
X184965Y245771D01*
Y240084D01*
X185035Y239733D01*
X185234Y239435D01*
X187284Y237385D01*
X187582Y237186D01*
X187933Y237116D01*
X194659D01*
X195587Y236188D01*
Y226859D01*
X195657Y226508D01*
X195856Y226210D01*
X197243Y224823D01*
Y223915D01*
X196889Y223561D01*
X196661Y223010D01*
Y222413D01*
X196889Y221862D01*
X197311Y221440D01*
X197863Y221212D01*
X198459D01*
X199011Y221440D01*
X199433Y221862D01*
X199661Y222413D01*
Y223010D01*
X199433Y223561D01*
X199079Y223915D01*
Y225203D01*
X199009Y225554D01*
X198810Y225852D01*
X197422Y227239D01*
Y231397D01*
X197922Y231531D01*
X198279Y230912D01*
X198912Y230279D01*
X199688Y229832D01*
X200552Y229600D01*
X201448D01*
X202312Y229832D01*
X203088Y230279D01*
X203721Y230912D01*
X204168Y231688D01*
X204400Y232552D01*
Y233448D01*
X204168Y234312D01*
X203721Y235088D01*
X203088Y235721D01*
X202312Y236168D01*
X201448Y236400D01*
X201168D01*
Y237999D01*
X201098Y238350D01*
X200900Y238648D01*
X200373Y239174D01*
X200654Y239600D01*
X201448D01*
X202312Y239832D01*
X203088Y240279D01*
X203721Y240912D01*
X204168Y241688D01*
X204400Y242552D01*
Y243448D01*
X204168Y244312D01*
X203721Y245088D01*
X203088Y245721D01*
X202312Y246168D01*
X201918Y246274D01*
Y248322D01*
X201848Y248673D01*
X201649Y248970D01*
X194011Y256608D01*
X193713Y256807D01*
X193362Y256877D01*
X179007D01*
X173099Y262785D01*
Y288748D01*
X187391Y303040D01*
X187813Y302834D01*
X187832Y302336D01*
X175724Y290228D01*
X175526Y289930D01*
X175456Y289579D01*
Y264077D01*
X175526Y263726D01*
X175724Y263428D01*
X180268Y258885D01*
X180565Y258686D01*
X180917Y258616D01*
X205608D01*
X215003Y249221D01*
Y238080D01*
X215072Y237729D01*
X215271Y237431D01*
X218036Y234666D01*
X217832Y234312D01*
X217600Y233448D01*
Y232552D01*
X217832Y231688D01*
X218279Y230912D01*
X218912Y230279D01*
X219688Y229832D01*
X220552Y229600D01*
X221448D01*
X222312Y229832D01*
X223088Y230279D01*
X223721Y230912D01*
X224168Y231688D01*
X224400Y232552D01*
Y233448D01*
X224168Y234312D01*
X223721Y235088D01*
X223088Y235721D01*
X222312Y236168D01*
X221448Y236400D01*
X220552D01*
X219688Y236168D01*
X219334Y235964D01*
X216838Y238460D01*
Y249601D01*
X216768Y249953D01*
X216569Y250250D01*
X206637Y260183D01*
X206339Y260382D01*
X205988Y260451D01*
X181297D01*
X177291Y264457D01*
Y289199D01*
X189163Y301071D01*
X189663D01*
X190214Y301299D01*
X190568Y301653D01*
X197523D01*
X230245Y268932D01*
X230542Y268733D01*
X230893Y268663D01*
X239547D01*
X239686Y268441D01*
X239792Y268163D01*
X239590Y267676D01*
Y267079D01*
X239819Y266528D01*
X240043Y266303D01*
X240184Y265977D01*
X240043Y265650D01*
X239819Y265426D01*
X239590Y264874D01*
Y264278D01*
X239819Y263726D01*
X240241Y263304D01*
X240484Y263204D01*
Y262662D01*
X240153Y262526D01*
X239731Y262104D01*
X239523Y261601D01*
X239508Y261598D01*
X239260Y261577D01*
X239023Y261601D01*
X238832Y262062D01*
X238410Y262484D01*
X237859Y262713D01*
X237262D01*
X236711Y262484D01*
X236289Y262062D01*
X236061Y261511D01*
Y260914D01*
X236289Y260363D01*
X236610Y260042D01*
X236643Y259671D01*
X236587Y259451D01*
X236234Y259098D01*
X236006Y258547D01*
Y257950D01*
X236234Y257399D01*
X236656Y256977D01*
X237208Y256749D01*
X237805D01*
X238356Y256977D01*
X238778Y257399D01*
X239006Y257950D01*
Y258547D01*
X238778Y259098D01*
X238457Y259419D01*
X238424Y259790D01*
X238479Y260010D01*
X238832Y260363D01*
X239040Y260865D01*
X239056Y260868D01*
X239304Y260890D01*
X239540Y260865D01*
X239731Y260404D01*
X240076Y260059D01*
X240130Y259802D01*
X240088Y259468D01*
X239759Y259139D01*
X239530Y258588D01*
Y257991D01*
X239759Y257440D01*
X240181Y257018D01*
X240732Y256790D01*
X241329D01*
X241880Y257018D01*
X242302Y257440D01*
X242530Y257991D01*
Y258588D01*
X242302Y259139D01*
X241957Y259484D01*
X241903Y259742D01*
X241946Y260075D01*
X242275Y260404D01*
X242503Y260955D01*
Y261552D01*
X242275Y262104D01*
X241853Y262526D01*
X241610Y262626D01*
Y263167D01*
X241940Y263304D01*
X242362Y263726D01*
X242590Y264278D01*
Y264874D01*
X242362Y265426D01*
X242137Y265650D01*
X241996Y265977D01*
X242137Y266303D01*
X242362Y266528D01*
X242590Y267079D01*
Y267676D01*
X242389Y268163D01*
X242495Y268441D01*
X242634Y268663D01*
X386040D01*
X409609Y245093D01*
Y244766D01*
X409837Y244214D01*
X410259Y243792D01*
X410811Y243564D01*
X411117D01*
X414082Y240598D01*
Y227482D01*
X413582Y227283D01*
X413301Y227565D01*
X412750Y227793D01*
X412153D01*
X411602Y227565D01*
X411180Y227143D01*
X411086Y226918D01*
X410000D01*
X409649Y226848D01*
X409351Y226649D01*
X391620Y208918D01*
X266380D01*
X243964Y231334D01*
X244168Y231688D01*
X244400Y232552D01*
Y233448D01*
X244168Y234312D01*
X243721Y235088D01*
X243088Y235721D01*
X242312Y236168D01*
X241448Y236400D01*
X240552D01*
X239688Y236168D01*
X238912Y235721D01*
X238279Y235088D01*
X237832Y234312D01*
X237600Y233448D01*
Y232552D01*
X237832Y231688D01*
X238279Y230912D01*
X238912Y230279D01*
X239688Y229832D01*
X240552Y229600D01*
X241448D01*
X242312Y229832D01*
X242666Y230036D01*
X265351Y207351D01*
X265649Y207152D01*
X266000Y207082D01*
X392000D01*
X392351Y207152D01*
X392649Y207351D01*
X410380Y225082D01*
X411541D01*
X411602Y225021D01*
X412153Y224793D01*
X412750D01*
X413301Y225021D01*
X413582Y225303D01*
X414082Y225104D01*
Y221380D01*
X395620Y202918D01*
X258000D01*
X257649Y202848D01*
X257351Y202649D01*
X236351Y181649D01*
X236152Y181351D01*
X236082Y181000D01*
Y109119D01*
X236152Y108768D01*
X236351Y108470D01*
X271470Y73351D01*
X271768Y73152D01*
X272119Y73082D01*
X362832D01*
X396258Y39656D01*
X396556Y39458D01*
X396907Y39388D01*
X400448D01*
X400802Y39034D01*
X401353Y38805D01*
X401950D01*
X402501Y39034D01*
X402923Y39456D01*
X403152Y40007D01*
Y40604D01*
X402923Y41155D01*
X402501Y41577D01*
X401950Y41805D01*
X401353D01*
X400802Y41577D01*
X400448Y41223D01*
X397287D01*
X387445Y51065D01*
X387675Y51455D01*
X387717Y51500D01*
X388298D01*
X388850Y51728D01*
X389272Y52150D01*
X389500Y52702D01*
Y53298D01*
X389272Y53850D01*
X388850Y54272D01*
X388298Y54500D01*
X387702D01*
X387150Y54272D01*
X386728Y53850D01*
X386500Y53298D01*
Y52717D01*
X386455Y52675D01*
X386065Y52445D01*
X363861Y74649D01*
X363563Y74848D01*
X363212Y74918D01*
X272499D01*
X237918Y109499D01*
Y180620D01*
X258380Y201082D01*
X396000D01*
X396097Y201102D01*
X396343Y200641D01*
X395005Y199303D01*
X262107D01*
X261755Y199233D01*
X261458Y199034D01*
X242351Y179928D01*
X242152Y179630D01*
X242082Y179279D01*
Y113600D01*
X242152Y113249D01*
X242351Y112951D01*
X276701Y78601D01*
X276998Y78403D01*
X277350Y78333D01*
X369370D01*
X405653Y42049D01*
Y37888D01*
X405299Y37534D01*
X405071Y36982D01*
Y36386D01*
X405299Y35834D01*
X405721Y35412D01*
X406273Y35184D01*
X406869D01*
X407420Y35412D01*
X407842Y35834D01*
X408071Y36386D01*
Y36982D01*
X407842Y37534D01*
X407488Y37888D01*
Y38414D01*
X407989Y38514D01*
X408162Y38095D01*
X408584Y37673D01*
X409135Y37445D01*
X409732D01*
X410283Y37673D01*
X410705Y38095D01*
X410934Y38646D01*
Y39243D01*
X410705Y39794D01*
X410351Y40148D01*
Y44566D01*
X410281Y44918D01*
X410082Y45215D01*
X369649Y85649D01*
X369351Y85848D01*
X369000Y85918D01*
X284447D01*
X255326Y115038D01*
X255491Y115580D01*
X255850Y115728D01*
X256272Y116150D01*
X256500Y116702D01*
Y117298D01*
X256272Y117850D01*
X255850Y118272D01*
X255298Y118500D01*
X254702D01*
X254150Y118272D01*
X253728Y117850D01*
X253580Y117491D01*
X253038Y117326D01*
X250918Y119447D01*
Y178093D01*
X264386Y191561D01*
X393478D01*
X393830Y191631D01*
X394127Y191830D01*
X421649Y219351D01*
X421848Y219649D01*
X421918Y220000D01*
Y226775D01*
X421959Y226792D01*
X422381Y227214D01*
X422609Y227766D01*
Y228266D01*
X424649Y230306D01*
X424848Y230604D01*
X424918Y230955D01*
Y246000D01*
X424848Y246351D01*
X424649Y246649D01*
X398751Y272547D01*
X398901Y273104D01*
X399317Y273216D01*
X400014Y273618D01*
X400583Y274187D01*
X400986Y274885D01*
X401194Y275662D01*
Y276467D01*
X400986Y277245D01*
X400583Y277942D01*
X400014Y278512D01*
X399317Y278914D01*
X398539Y279122D01*
X397734D01*
X396957Y278914D01*
X396259Y278512D01*
X395690Y277942D01*
X395288Y277245D01*
X395170Y276806D01*
X394660Y276633D01*
X394610Y276648D01*
X394345Y276826D01*
X393993Y276896D01*
X278880D01*
X278816Y276983D01*
X278694Y277396D01*
X282649Y281351D01*
X282848Y281649D01*
X282918Y282000D01*
Y297220D01*
X283418Y297428D01*
X283584Y297261D01*
X284136Y297032D01*
X284732D01*
X285284Y297261D01*
X285706Y297683D01*
X285934Y298234D01*
Y298831D01*
X285706Y299382D01*
X285284Y299804D01*
X284732Y300032D01*
X284136D01*
X283584Y299804D01*
X283418Y299638D01*
X282918Y299845D01*
Y301494D01*
X282848Y301845D01*
X282649Y302142D01*
X277918Y306873D01*
Y310887D01*
X278418Y311184D01*
X278725Y311056D01*
X279226D01*
X281828Y308454D01*
X282126Y308255D01*
X282477Y308185D01*
X343647D01*
X343998Y308255D01*
X344296Y308454D01*
X369271Y333429D01*
X381405D01*
X381471Y332929D01*
X381327Y332890D01*
X380629Y332488D01*
X380060Y331919D01*
X379658Y331221D01*
X379449Y330444D01*
Y329639D01*
X379658Y328861D01*
X380060Y328164D01*
X380629Y327595D01*
X381327Y327192D01*
X382104Y326984D01*
X382909D01*
X383687Y327192D01*
X384384Y327595D01*
X384953Y328164D01*
X385356Y328861D01*
X385564Y329639D01*
Y330444D01*
X385442Y330902D01*
X385890Y331161D01*
X386688Y330363D01*
X386986Y330164D01*
X387337Y330094D01*
X392823D01*
X393174Y330164D01*
X393472Y330363D01*
X395829Y332719D01*
X399155D01*
X399201Y332710D01*
X400788Y331123D01*
Y329779D01*
X400858Y329428D01*
X401057Y329130D01*
X403219Y326969D01*
X403083Y326733D01*
X402875Y325956D01*
Y325151D01*
X403083Y324373D01*
X403485Y323676D01*
X404055Y323107D01*
X404752Y322704D01*
X405529Y322496D01*
X406335D01*
X407112Y322704D01*
X407809Y323107D01*
X408379Y323676D01*
X408781Y324373D01*
X408989Y325151D01*
Y325956D01*
X408781Y326733D01*
X408379Y327430D01*
X407809Y328000D01*
X407112Y328402D01*
X406335Y328611D01*
X405529D01*
X404752Y328402D01*
X404517Y328266D01*
X402624Y330159D01*
Y331503D01*
X402554Y331854D01*
X402355Y332152D01*
X400425Y334082D01*
X400632Y334582D01*
X401129D01*
X401481Y334652D01*
X401778Y334851D01*
X404728Y337800D01*
X407685D01*
X409251Y336234D01*
Y330293D01*
X409320Y329942D01*
X409519Y329644D01*
X412195Y326969D01*
X412059Y326733D01*
X411851Y325956D01*
Y325151D01*
X412059Y324373D01*
X412462Y323676D01*
X413031Y323107D01*
X413728Y322704D01*
X414506Y322496D01*
X415311D01*
X416089Y322704D01*
X416786Y323107D01*
X417355Y323676D01*
X417758Y324373D01*
X417966Y325151D01*
Y325956D01*
X417758Y326733D01*
X417355Y327430D01*
X416786Y328000D01*
X416089Y328402D01*
X415311Y328611D01*
X414506D01*
X413728Y328402D01*
X413493Y328266D01*
X411086Y330673D01*
Y336615D01*
X411016Y336966D01*
X410817Y337263D01*
X408714Y339366D01*
X408417Y339565D01*
X408065Y339635D01*
X404347D01*
X403996Y339565D01*
X403698Y339366D01*
X400976Y336643D01*
X400789Y336678D01*
X400615Y337103D01*
X400607Y337221D01*
X400986Y337877D01*
X401194Y338654D01*
Y339459D01*
X400986Y340237D01*
X400583Y340934D01*
X400014Y341504D01*
X399317Y341906D01*
X398539Y342114D01*
X397734D01*
X396957Y341906D01*
X396259Y341504D01*
X395690Y340934D01*
X395288Y340237D01*
X395079Y339459D01*
Y338654D01*
X395288Y337877D01*
X395440Y337612D01*
X395040Y337305D01*
X393559Y338786D01*
X393262Y338985D01*
X392911Y339055D01*
X351137D01*
X350786Y338985D01*
X350488Y338786D01*
X340729Y329027D01*
X333187D01*
X332836Y328957D01*
X332538Y328758D01*
X324428Y320648D01*
X323928Y320855D01*
Y320859D01*
X323700Y321410D01*
X323278Y321832D01*
X322826Y322020D01*
X322925Y322520D01*
X324910D01*
X325216Y322646D01*
X325343Y322953D01*
Y345000D01*
X325216Y345306D01*
X324910Y345433D01*
X300004D01*
X299698Y345306D01*
X299571Y345000D01*
Y322953D01*
X299698Y322646D01*
X300004Y322520D01*
X321932D01*
X322031Y322020D01*
X321579Y321832D01*
X321315Y321568D01*
X282731D01*
X282593Y321760D01*
X282505Y322049D01*
X284693Y324237D01*
X284892Y324535D01*
X284961Y324886D01*
Y365829D01*
X288562Y369430D01*
X296979D01*
X297224Y369185D01*
X297775Y368957D01*
X298372D01*
X298923Y369185D01*
X299345Y369607D01*
X299573Y370158D01*
Y370755D01*
X299345Y371306D01*
X298923Y371728D01*
X298372Y371957D01*
X297775D01*
X297224Y371728D01*
X296802Y371306D01*
X296785Y371265D01*
X288182D01*
X287831Y371195D01*
X287533Y370996D01*
X283395Y366858D01*
X283196Y366560D01*
X283126Y366209D01*
Y325266D01*
X274413Y316553D01*
X274215Y316256D01*
X274145Y315904D01*
Y305959D01*
X274169Y305836D01*
X273709Y305589D01*
X272069Y307228D01*
Y308226D01*
X273018D01*
Y312963D01*
X268478D01*
Y308226D01*
X270234D01*
Y306848D01*
X270304Y306497D01*
X270503Y306200D01*
X277161Y299541D01*
Y293459D01*
X274164Y290461D01*
X273965Y290164D01*
X273895Y289812D01*
Y285616D01*
X273541Y285262D01*
X273312Y284710D01*
Y284114D01*
X273541Y283562D01*
X273605Y283498D01*
X273398Y282998D01*
X271529D01*
X271322Y283498D01*
X271404Y283581D01*
X271632Y284132D01*
Y284729D01*
X271404Y285280D01*
X270982Y285702D01*
X270431Y285930D01*
X269834D01*
X269283Y285702D01*
X268861Y285280D01*
X268632Y284729D01*
Y284132D01*
X268861Y283581D01*
X268943Y283498D01*
X268736Y282998D01*
X256839D01*
X227168Y312668D01*
X226871Y312867D01*
X226520Y312937D01*
X217179D01*
X216825Y313291D01*
X216273Y313519D01*
X215676D01*
X215125Y313291D01*
X214703Y312869D01*
X214475Y312318D01*
Y311721D01*
X214703Y311170D01*
X215125Y310748D01*
X215676Y310519D01*
X216273D01*
X216825Y310748D01*
X217179Y311102D01*
X226139D01*
X255810Y281432D01*
X256107Y281233D01*
X256458Y281163D01*
X273264D01*
X273492Y280663D01*
X273316Y280238D01*
Y279641D01*
X273433Y279357D01*
X273124Y278857D01*
X263303D01*
X263000Y278918D01*
X255932D01*
X227196Y307653D01*
X226898Y307852D01*
X226547Y307922D01*
X216818D01*
X216464Y308276D01*
X215912Y308504D01*
X215316D01*
X214764Y308276D01*
X214342Y307854D01*
X214114Y307303D01*
Y306706D01*
X214342Y306155D01*
X214764Y305733D01*
X215316Y305504D01*
X215912D01*
X216464Y305733D01*
X216818Y306087D01*
X226167D01*
X254858Y277396D01*
X254835Y277209D01*
X254684Y276896D01*
X238728D01*
X227245Y288379D01*
X226947Y288578D01*
X226596Y288648D01*
X223607D01*
X206693Y305562D01*
Y306062D01*
X206550Y306408D01*
X206973Y306692D01*
X207003Y306662D01*
X207554Y306434D01*
X208151D01*
X208702Y306662D01*
X209124Y307084D01*
X209353Y307635D01*
Y308232D01*
X209124Y308783D01*
X208782Y309126D01*
Y311440D01*
X208727Y311713D01*
X208573Y311945D01*
X204575Y315943D01*
X204343Y316097D01*
X204070Y316152D01*
X199926D01*
X199805Y316551D01*
X199800Y316652D01*
X200203Y317054D01*
X200431Y317606D01*
Y318202D01*
X200319Y318472D01*
X200743Y318756D01*
X202286Y317213D01*
X202583Y317014D01*
X202934Y316944D01*
X212224D01*
X212575Y317014D01*
X212873Y317213D01*
X216552Y320892D01*
X218217D01*
X218500Y320392D01*
X218363Y320061D01*
Y319464D01*
X218591Y318913D01*
X219013Y318491D01*
X219564Y318262D01*
X220161D01*
X220712Y318491D01*
X221134Y318913D01*
X221363Y319464D01*
Y320061D01*
X221226Y320392D01*
X221508Y320892D01*
X222872D01*
X240003Y303761D01*
X240301Y303562D01*
X240652Y303492D01*
X255453D01*
X255969Y302975D01*
X256045Y302506D01*
X256045D01*
Y297769D01*
X260585D01*
Y299024D01*
X262179D01*
Y297827D01*
X266719D01*
Y302564D01*
X262179D01*
Y300859D01*
X260585D01*
Y302507D01*
X258147D01*
Y303013D01*
X258078Y303364D01*
X257879Y303661D01*
X256482Y305058D01*
X256184Y305257D01*
X255833Y305327D01*
X241032D01*
X224155Y322204D01*
X224362Y322705D01*
X227329D01*
X232373Y317660D01*
X232671Y317461D01*
X233022Y317391D01*
X239370D01*
X239577Y316892D01*
X239512Y316827D01*
X239284Y316276D01*
Y315679D01*
X239512Y315127D01*
X239934Y314705D01*
X240247Y314576D01*
Y314035D01*
X240040Y313949D01*
X239619Y313527D01*
X239390Y312976D01*
Y312379D01*
X239619Y311827D01*
X240040Y311405D01*
X240511Y311211D01*
X240533Y310799D01*
X240519Y310707D01*
X240067Y310520D01*
X239645Y310098D01*
X239416Y309547D01*
Y308950D01*
X239645Y308399D01*
X240067Y307977D01*
X240618Y307749D01*
X241215D01*
X241766Y307977D01*
X242188Y308399D01*
X242416Y308950D01*
Y309547D01*
X242188Y310098D01*
X241766Y310520D01*
X241296Y310715D01*
X241274Y311127D01*
X241288Y311218D01*
X241740Y311405D01*
X242162Y311827D01*
X242390Y312379D01*
Y312976D01*
X242162Y313527D01*
X241740Y313949D01*
X241426Y314079D01*
Y314620D01*
X241633Y314705D01*
X242055Y315127D01*
X242284Y315679D01*
Y316276D01*
X242055Y316827D01*
X241991Y316892D01*
X242198Y317391D01*
X251619D01*
X255811Y313199D01*
X256045Y312796D01*
Y308059D01*
X260585D01*
Y309510D01*
X262179D01*
Y308226D01*
X266719D01*
Y312963D01*
X262179D01*
Y311345D01*
X260585D01*
Y312796D01*
X258035D01*
Y313190D01*
X257966Y313541D01*
X257767Y313839D01*
X252648Y318958D01*
X252350Y319157D01*
X251999Y319227D01*
X233402D01*
X228358Y324271D01*
X228060Y324470D01*
X227709Y324540D01*
X206675D01*
X205362Y325854D01*
X205064Y326052D01*
X204713Y326122D01*
X204399D01*
Y328151D01*
X204399D01*
Y328224D01*
X216329D01*
X216680Y328294D01*
X216978Y328493D01*
X231112Y342627D01*
X240248D01*
X246073Y336802D01*
X246370Y336603D01*
X246722Y336533D01*
X255555D01*
X256243Y335845D01*
X256045Y335346D01*
X256045D01*
Y330609D01*
X260585D01*
Y331970D01*
X262177D01*
Y330625D01*
X266717D01*
Y335362D01*
X262177D01*
Y333805D01*
X260585D01*
Y335346D01*
X258444D01*
Y335860D01*
X258374Y336211D01*
X258175Y336509D01*
X256584Y338100D01*
X256286Y338299D01*
X255935Y338368D01*
X247102D01*
X241276Y344194D01*
X240979Y344392D01*
X240628Y344462D01*
X230732D01*
X230381Y344392D01*
X230083Y344194D01*
X221677Y335787D01*
X221464Y335832D01*
X221187Y336005D01*
Y340900D01*
X221687Y341210D01*
X221971Y341092D01*
X222568D01*
X223119Y341320D01*
X223541Y341742D01*
X223770Y342294D01*
Y342891D01*
X223541Y343442D01*
X223119Y343864D01*
X222568Y344092D01*
X221971D01*
X221552Y344460D01*
X221529Y344661D01*
X225793Y348925D01*
X249952D01*
X255865Y343012D01*
X256045Y342892D01*
Y339824D01*
X260585D01*
Y341298D01*
X262177D01*
Y339848D01*
X266717D01*
Y344584D01*
X262177D01*
Y343134D01*
X260585D01*
Y344561D01*
X256911D01*
X250981Y350491D01*
X250683Y350690D01*
X250332Y350760D01*
X225412D01*
X225061Y350690D01*
X224764Y350491D01*
X219621Y345348D01*
X219422Y345051D01*
X219352Y344700D01*
Y337425D01*
X218954Y337303D01*
X218852Y337298D01*
X218450Y337700D01*
X217898Y337929D01*
X217302D01*
X216750Y337700D01*
X216328Y337278D01*
X216100Y336727D01*
Y336130D01*
X216328Y335579D01*
X216750Y335157D01*
X217302Y334928D01*
X217304D01*
X217511Y334429D01*
X215000Y331918D01*
X209196D01*
X209045Y332418D01*
X209063Y332430D01*
X209649Y333016D01*
X209848Y333313D01*
X209918Y333665D01*
Y352620D01*
X225236Y367938D01*
X250174D01*
X250525Y368008D01*
X250822Y368207D01*
X258964Y376348D01*
X259163Y376646D01*
X259233Y376997D01*
Y378255D01*
X260585D01*
Y379706D01*
X262179D01*
Y378255D01*
X266719D01*
Y382992D01*
X262179D01*
Y381541D01*
X260585D01*
Y382992D01*
X256045D01*
Y378255D01*
X257397D01*
Y377378D01*
X249794Y369774D01*
X224856D01*
X224505Y369704D01*
X224450Y369667D01*
X224131Y370056D01*
X231441Y377365D01*
X242937D01*
X243288Y377435D01*
X243586Y377634D01*
X250578Y384626D01*
X255829D01*
X256180Y384696D01*
X256478Y384895D01*
X258046Y386464D01*
X258245Y386761D01*
X258315Y387113D01*
Y387627D01*
X260531D01*
Y389078D01*
X262124D01*
Y387627D01*
X266664D01*
Y392364D01*
D02*
G37*
G36*
X222636Y392299D02*
X222039D01*
X221487Y392071D01*
X221065Y391649D01*
X220837Y391097D01*
Y390501D01*
X221065Y389949D01*
X221487Y389527D01*
X222039Y389299D01*
X222636D01*
X223187Y389527D01*
X223609Y389949D01*
X223837Y390501D01*
Y391097D01*
X223609Y391649D01*
X223187Y392071D01*
X222636Y392299D01*
D02*
G37*
G36*
X275457Y391144D02*
X274860D01*
X274309Y390916D01*
X273887Y390494D01*
X273658Y389943D01*
Y389346D01*
X273887Y388795D01*
X274309Y388373D01*
X274860Y388144D01*
X275457D01*
X276008Y388373D01*
X276430Y388795D01*
X276658Y389346D01*
Y389943D01*
X276430Y390494D01*
X276008Y390916D01*
X275457Y391144D01*
D02*
G37*
G36*
X270782Y395848D02*
X270185D01*
X269634Y395620D01*
X269212Y395198D01*
X268983Y394646D01*
Y394050D01*
X269212Y393498D01*
X269634Y393076D01*
X269776Y393017D01*
Y392364D01*
X268424D01*
Y387627D01*
X272964D01*
Y392364D01*
X271611D01*
Y393314D01*
X271649Y393351D01*
X271731Y393475D01*
X271755Y393498D01*
X271767Y393529D01*
X271848Y393649D01*
X271876Y393791D01*
X271983Y394050D01*
Y394646D01*
X271755Y395198D01*
X271333Y395620D01*
X270782Y395848D01*
D02*
G37*
G36*
X215976Y389369D02*
X215379D01*
X214828Y389141D01*
X214406Y388719D01*
X214177Y388168D01*
Y387571D01*
X214406Y387019D01*
X214741Y386684D01*
X214820Y386505D01*
X214784Y386074D01*
X214519Y385809D01*
X214291Y385258D01*
Y384661D01*
X214519Y384110D01*
X214941Y383688D01*
X215492Y383459D01*
X216089D01*
X216640Y383688D01*
X217062Y384110D01*
X217291Y384661D01*
Y385258D01*
X217062Y385809D01*
X216727Y386144D01*
X216648Y386323D01*
X216684Y386754D01*
X216949Y387019D01*
X217178Y387571D01*
Y388168D01*
X216949Y388719D01*
X216527Y389141D01*
X215976Y389369D01*
D02*
G37*
G36*
X123277Y386266D02*
X122680D01*
X122129Y386037D01*
X121707Y385615D01*
X121479Y385064D01*
Y384467D01*
X121707Y383916D01*
X122129Y383494D01*
X122680Y383266D01*
X123277D01*
X123828Y383494D01*
X124250Y383916D01*
X124479Y384467D01*
Y385064D01*
X124250Y385615D01*
X123828Y386037D01*
X123277Y386266D01*
D02*
G37*
G36*
X293331Y385564D02*
X292734D01*
X292182Y385336D01*
X291760Y384914D01*
X291532Y384362D01*
Y383766D01*
X291760Y383214D01*
X292182Y382792D01*
X292734Y382564D01*
X293331D01*
X293882Y382792D01*
X294304Y383214D01*
X294532Y383766D01*
Y384362D01*
X294304Y384914D01*
X293882Y385336D01*
X293331Y385564D01*
D02*
G37*
G36*
X275413Y382120D02*
X274816D01*
X274265Y381891D01*
X273843Y381469D01*
X273614Y380918D01*
Y380321D01*
X273843Y379770D01*
X274265Y379348D01*
X274816Y379120D01*
X275413D01*
X275964Y379348D01*
X276386Y379770D01*
X276614Y380321D01*
Y380918D01*
X276386Y381469D01*
X275964Y381891D01*
X275413Y382120D01*
D02*
G37*
G36*
X275354Y377902D02*
X274758D01*
X274206Y377673D01*
X273784Y377251D01*
X273556Y376700D01*
Y376103D01*
X273784Y375552D01*
X274206Y375130D01*
X274758Y374902D01*
X275354D01*
X275906Y375130D01*
X276328Y375552D01*
X276556Y376103D01*
Y376700D01*
X276328Y377251D01*
X275906Y377673D01*
X275354Y377902D01*
D02*
G37*
G36*
X273018Y382992D02*
X268478D01*
Y378255D01*
X269830D01*
Y377457D01*
X269595Y377222D01*
X269367Y376671D01*
Y376074D01*
X269595Y375523D01*
X270017Y375101D01*
X270569Y374872D01*
X271165D01*
X271717Y375101D01*
X272139Y375523D01*
X272367Y376074D01*
Y376671D01*
X272139Y377222D01*
X271717Y377644D01*
X271666Y377665D01*
Y378255D01*
X273018D01*
Y382992D01*
D02*
G37*
G36*
X303588Y376790D02*
X302992D01*
X302440Y376562D01*
X302018Y376140D01*
X301790Y375588D01*
Y374992D01*
X302018Y374440D01*
X302440Y374018D01*
X302992Y373790D01*
X303588D01*
X304140Y374018D01*
X304562Y374440D01*
X304790Y374992D01*
Y375588D01*
X304562Y376140D01*
X304140Y376562D01*
X303588Y376790D01*
D02*
G37*
G36*
X218140Y373894D02*
X217544D01*
X216992Y373665D01*
X216570Y373243D01*
X216342Y372692D01*
Y372095D01*
X216570Y371544D01*
X216992Y371122D01*
X217544Y370894D01*
X218140D01*
X218692Y371122D01*
X219113Y371544D01*
X219342Y372095D01*
Y372692D01*
X219113Y373243D01*
X218692Y373665D01*
X218140Y373894D01*
D02*
G37*
G36*
X318527Y372284D02*
X317930D01*
X317379Y372056D01*
X316957Y371634D01*
X316728Y371083D01*
Y370486D01*
X316957Y369935D01*
X317379Y369513D01*
X317930Y369284D01*
X318527D01*
X319078Y369513D01*
X319500Y369935D01*
X319728Y370486D01*
Y371083D01*
X319500Y371634D01*
X319078Y372056D01*
X318527Y372284D01*
D02*
G37*
G36*
X204534Y375337D02*
X176210D01*
X175859Y375267D01*
X175561Y375068D01*
X169799Y369305D01*
X169600Y369008D01*
X169530Y368657D01*
Y367386D01*
X169151Y367006D01*
X168922Y366455D01*
Y365858D01*
X169151Y365307D01*
X169573Y364885D01*
X170124Y364657D01*
X170721D01*
X171272Y364885D01*
X171694Y365307D01*
X171922Y365858D01*
Y366455D01*
X171694Y367006D01*
X171365Y367335D01*
Y368277D01*
X176590Y373501D01*
X204154D01*
X207054Y370602D01*
Y370101D01*
X207283Y369549D01*
X207705Y369127D01*
X208256Y368899D01*
X208853D01*
X209404Y369127D01*
X209826Y369549D01*
X210054Y370101D01*
Y370697D01*
X209826Y371249D01*
X209404Y371671D01*
X208853Y371899D01*
X208352D01*
X205183Y375068D01*
X204885Y375267D01*
X204534Y375337D01*
D02*
G37*
G36*
X312000Y421433D02*
X82000D01*
X81694Y421306D01*
X81567Y421000D01*
Y398000D01*
X81694Y397694D01*
X82000Y397567D01*
X129993D01*
X130072Y397600D01*
X130158D01*
X130219Y397661D01*
X130299Y397694D01*
X130317Y397737D01*
X130678Y398098D01*
X131070Y398261D01*
X131495D01*
X131887Y398098D01*
X132248Y397737D01*
X132266Y397694D01*
X132345Y397661D01*
X132406Y397600D01*
X132492D01*
X132572Y397567D01*
X133621D01*
X133701Y397600D01*
X133787D01*
X133848Y397661D01*
X133927Y397694D01*
X133945Y397737D01*
X134306Y398098D01*
X134699Y398261D01*
X135123D01*
X135515Y398098D01*
X135876Y397737D01*
X135894Y397694D01*
X135974Y397661D01*
X136035Y397600D01*
X136121D01*
X136200Y397567D01*
X216496D01*
X216569Y397597D01*
X216724Y397222D01*
X217146Y396800D01*
X217698Y396572D01*
X218294D01*
X218846Y396800D01*
X219268Y397222D01*
X219423Y397597D01*
X219496Y397567D01*
X294573D01*
X323783Y368357D01*
X323592Y367895D01*
X308803D01*
X308762Y367878D01*
X308718Y367887D01*
X308718Y367887D01*
X308614Y367817D01*
X308497Y367769D01*
X308480Y367727D01*
X308443Y367703D01*
X308399Y367636D01*
X308399Y367636D01*
X308374Y367512D01*
X308326Y367396D01*
Y351445D01*
X308453Y351139D01*
X308759Y351012D01*
X317560D01*
X317659Y350512D01*
X317567Y350474D01*
X317145Y350052D01*
X316917Y349501D01*
Y348904D01*
X317145Y348353D01*
X317567Y347931D01*
X318118Y347702D01*
X318715D01*
X319266Y347931D01*
X319688Y348353D01*
X319917Y348904D01*
Y349501D01*
X319688Y350052D01*
X319266Y350474D01*
X319174Y350512D01*
X319273Y351012D01*
X326320D01*
Y347081D01*
X326447Y346775D01*
X326753Y346648D01*
X336095D01*
X336384Y346733D01*
X336542D01*
X336831Y346648D01*
X344123D01*
X344429Y346775D01*
X357221Y359567D01*
X420821D01*
X429567Y350821D01*
Y343179D01*
X426193Y339806D01*
X426189Y339795D01*
X425662Y339830D01*
X425553Y340237D01*
X425150Y340934D01*
X424581Y341504D01*
X423884Y341906D01*
X423106Y342114D01*
X422301D01*
X421524Y341906D01*
X420826Y341504D01*
X420257Y340934D01*
X419855Y340237D01*
X419646Y339459D01*
Y338654D01*
X419855Y337877D01*
X420257Y337180D01*
X420826Y336610D01*
X421524Y336208D01*
X422301Y335999D01*
X423106D01*
X423884Y336208D01*
X424581Y336610D01*
X425150Y337180D01*
X425553Y337877D01*
X425566Y337927D01*
X426066Y337861D01*
Y332522D01*
X426086Y332474D01*
X426078Y332423D01*
X426147Y332326D01*
X426193Y332215D01*
X426241Y332196D01*
X426271Y332154D01*
X436772Y325632D01*
X436890Y325613D01*
X437000Y325567D01*
X444000D01*
X444306Y325694D01*
X463306Y344694D01*
X463433Y345000D01*
Y381000D01*
X463306Y381306D01*
X463000Y381433D01*
X442433D01*
Y386000D01*
X442306Y386306D01*
X442000Y386433D01*
X347179D01*
X343953Y389660D01*
X343647Y389787D01*
X343445Y389703D01*
X341843Y391304D01*
X341927Y391506D01*
X341800Y391812D01*
X338273Y395339D01*
X339649Y396716D01*
X339848Y397013D01*
X339918Y397364D01*
Y398532D01*
X339980Y398557D01*
X340402Y398979D01*
X340630Y399531D01*
Y400127D01*
X340402Y400679D01*
X340091Y400990D01*
X340247Y401490D01*
X340522D01*
Y404731D01*
X337478D01*
Y401490D01*
X338082D01*
Y400902D01*
X337859Y400679D01*
X337630Y400127D01*
Y399531D01*
X337859Y398979D01*
X338082Y398755D01*
Y397744D01*
X336975Y396637D01*
X336975Y396637D01*
X312306Y421306D01*
X312000Y421433D01*
D02*
G37*
G36*
X203933Y371808D02*
X183835D01*
X183484Y371738D01*
X183186Y371539D01*
X180122Y368475D01*
X179923Y368178D01*
X179853Y367826D01*
Y366008D01*
X179499Y365654D01*
X179271Y365103D01*
Y364506D01*
X179499Y363955D01*
X179921Y363533D01*
X180473Y363304D01*
X181069D01*
X181621Y363533D01*
X182043Y363955D01*
X182271Y364506D01*
Y365103D01*
X182043Y365654D01*
X181689Y366008D01*
Y367446D01*
X184215Y369973D01*
X203553D01*
X209517Y364009D01*
X209478Y363916D01*
Y363319D01*
X209707Y362768D01*
X210129Y362346D01*
X210680Y362117D01*
X211277D01*
X211828Y362346D01*
X212250Y362768D01*
X212478Y363319D01*
Y363916D01*
X212250Y364467D01*
X211828Y364889D01*
X211277Y365117D01*
X211004D01*
X204582Y371539D01*
X204284Y371738D01*
X203933Y371808D01*
D02*
G37*
G36*
X240401Y366797D02*
X239804D01*
X239252Y366568D01*
X238831Y366146D01*
X238602Y365595D01*
Y364998D01*
X238831Y364447D01*
X239252Y364025D01*
X239566Y363895D01*
Y363354D01*
X239359Y363268D01*
X238937Y362846D01*
X238709Y362295D01*
Y361698D01*
X238937Y361147D01*
X239359Y360725D01*
X239829Y360530D01*
X239851Y360118D01*
X239837Y360027D01*
X239385Y359840D01*
X238963Y359418D01*
X238735Y358867D01*
Y358270D01*
X238963Y357719D01*
X239385Y357297D01*
X239936Y357068D01*
X240533D01*
X241085Y357297D01*
X241507Y357719D01*
X241735Y358270D01*
Y358867D01*
X241507Y359418D01*
X241085Y359840D01*
X240614Y360035D01*
X240592Y360447D01*
X240606Y360538D01*
X241058Y360725D01*
X241480Y361147D01*
X241709Y361698D01*
Y362295D01*
X241480Y362846D01*
X241058Y363268D01*
X240745Y363398D01*
Y363939D01*
X240952Y364025D01*
X241374Y364447D01*
X241602Y364998D01*
Y365595D01*
X241374Y366146D01*
X240952Y366568D01*
X240401Y366797D01*
D02*
G37*
G36*
X466634Y359695D02*
X466038D01*
X465486Y359466D01*
X465064Y359044D01*
X464836Y358493D01*
Y357896D01*
X465064Y357345D01*
X465486Y356923D01*
X466038Y356695D01*
X466634D01*
X467186Y356923D01*
X467608Y357345D01*
X467836Y357896D01*
Y358493D01*
X467608Y359044D01*
X467186Y359466D01*
X466634Y359695D01*
D02*
G37*
G36*
X223298Y353500D02*
X222702D01*
X222150Y353272D01*
X221728Y352850D01*
X221500Y352298D01*
Y351958D01*
X221360Y351640D01*
X221042Y351500D01*
X220702D01*
X220150Y351272D01*
X219728Y350850D01*
X219500Y350298D01*
Y349702D01*
X219728Y349150D01*
X220150Y348728D01*
X220702Y348500D01*
X221298D01*
X221850Y348728D01*
X222272Y349150D01*
X222500Y349702D01*
Y350042D01*
X222640Y350360D01*
X222958Y350500D01*
X223298D01*
X223850Y350728D01*
X224272Y351150D01*
X224500Y351702D01*
Y352298D01*
X224272Y352850D01*
X223850Y353272D01*
X223298Y353500D01*
D02*
G37*
G36*
X230485Y348293D02*
X229888D01*
X229337Y348065D01*
X228915Y347643D01*
X228686Y347092D01*
Y346495D01*
X228915Y345943D01*
X229337Y345521D01*
X229888Y345293D01*
X230485D01*
X231036Y345521D01*
X231458Y345943D01*
X231686Y346495D01*
Y347092D01*
X231458Y347643D01*
X231036Y348065D01*
X230485Y348293D01*
D02*
G37*
G36*
X275149Y348042D02*
X274552D01*
X274001Y347814D01*
X273579Y347392D01*
X273350Y346841D01*
Y346244D01*
X273579Y345693D01*
X274001Y345271D01*
X274552Y345042D01*
X275149D01*
X275700Y345271D01*
X276122Y345693D01*
X276350Y346244D01*
Y346841D01*
X276122Y347392D01*
X275700Y347814D01*
X275149Y348042D01*
D02*
G37*
G36*
X289603Y344649D02*
X289006D01*
X288455Y344421D01*
X288033Y343999D01*
X287805Y343447D01*
Y342851D01*
X288033Y342299D01*
X288455Y341877D01*
X289006Y341649D01*
X289603D01*
X290154Y341877D01*
X290576Y342299D01*
X290805Y342851D01*
Y343447D01*
X290576Y343999D01*
X290154Y344421D01*
X289603Y344649D01*
D02*
G37*
G36*
X271018Y348090D02*
X270421D01*
X269870Y347862D01*
X269448Y347440D01*
X269219Y346888D01*
Y346292D01*
X269448Y345740D01*
X269829Y345360D01*
Y344584D01*
X268476D01*
Y339848D01*
X273016D01*
Y342112D01*
X273509Y342129D01*
X273738Y341578D01*
X274160Y341156D01*
X274711Y340927D01*
X275308D01*
X275859Y341156D01*
X276281Y341578D01*
X276509Y342129D01*
Y342725D01*
X276281Y343277D01*
X275859Y343699D01*
X275308Y343927D01*
X274711D01*
X274160Y343699D01*
X273738Y343277D01*
X273509Y342726D01*
X273016Y342742D01*
Y344584D01*
X271664D01*
Y345373D01*
X271744Y345493D01*
X271991Y345740D01*
X272219Y346292D01*
Y346888D01*
X271991Y347440D01*
X271569Y347862D01*
X271018Y348090D01*
D02*
G37*
G36*
X415311Y346603D02*
X414506D01*
X413728Y346394D01*
X413031Y345992D01*
X412462Y345423D01*
X412059Y344725D01*
X411851Y343948D01*
Y343143D01*
X412059Y342365D01*
X412462Y341668D01*
X413031Y341099D01*
X413728Y340696D01*
X414506Y340488D01*
X415311D01*
X416089Y340696D01*
X416786Y341099D01*
X417355Y341668D01*
X417758Y342365D01*
X417966Y343143D01*
Y343948D01*
X417758Y344725D01*
X417355Y345423D01*
X416786Y345992D01*
X416089Y346394D01*
X415311Y346603D01*
D02*
G37*
G36*
X406335D02*
X405529D01*
X404752Y346394D01*
X404055Y345992D01*
X403485Y345423D01*
X403083Y344725D01*
X402875Y343948D01*
Y343143D01*
X403083Y342365D01*
X403485Y341668D01*
X404055Y341099D01*
X404752Y340696D01*
X405529Y340488D01*
X406335D01*
X407112Y340696D01*
X407809Y341099D01*
X408379Y341668D01*
X408781Y342365D01*
X408989Y343143D01*
Y343948D01*
X408781Y344725D01*
X408379Y345423D01*
X407809Y345992D01*
X407112Y346394D01*
X406335Y346603D01*
D02*
G37*
G36*
X196525Y345880D02*
X192575D01*
Y345880D01*
X188638D01*
Y338781D01*
X192588D01*
Y338781D01*
X196525D01*
Y345880D01*
D02*
G37*
G36*
X216298Y341500D02*
X215702D01*
X215150Y341272D01*
X214728Y340850D01*
X214500Y340298D01*
Y339702D01*
X214728Y339150D01*
X215150Y338728D01*
X215702Y338500D01*
X216298D01*
X216850Y338728D01*
X217272Y339150D01*
X217500Y339702D01*
Y340298D01*
X217272Y340850D01*
X216850Y341272D01*
X216298Y341500D01*
D02*
G37*
G36*
X406428Y335486D02*
X405932D01*
X405581Y335417D01*
X405283Y335218D01*
X405084Y334920D01*
X405014Y334569D01*
X405084Y334218D01*
X405283Y333920D01*
X405581Y333721D01*
X405932Y333651D01*
X406428D01*
X406779Y333721D01*
X407077Y333920D01*
X407276Y334218D01*
X407346Y334569D01*
X407276Y334920D01*
X407077Y335218D01*
X406779Y335417D01*
X406428Y335486D01*
D02*
G37*
G36*
X183407Y352454D02*
X178867D01*
Y347717D01*
X181589D01*
Y346665D01*
X181646Y346380D01*
X181587Y346213D01*
X181347Y345880D01*
X180764D01*
Y338781D01*
X182732D01*
Y338781D01*
X182805D01*
Y336277D01*
X182875Y335926D01*
X183074Y335628D01*
X184351Y334351D01*
X184649Y334152D01*
X185000Y334082D01*
X191648D01*
X191911Y333819D01*
X192463Y333590D01*
X193060D01*
X193611Y333819D01*
X194033Y334241D01*
X194261Y334792D01*
Y335389D01*
X194033Y335940D01*
X193611Y336362D01*
X193060Y336590D01*
X192463D01*
X191911Y336362D01*
X191490Y335940D01*
X191480Y335918D01*
X185380D01*
X184641Y336657D01*
Y338781D01*
X184714D01*
Y345880D01*
X184482D01*
X184480Y345890D01*
X184281Y346188D01*
X183424Y347045D01*
Y348618D01*
X183407Y348706D01*
Y352454D01*
D02*
G37*
G36*
X275864Y334394D02*
X275267D01*
X274716Y334166D01*
X274294Y333744D01*
X274065Y333192D01*
Y332596D01*
X274294Y332044D01*
X274716Y331622D01*
X275267Y331394D01*
X275864D01*
X276415Y331622D01*
X276837Y332044D01*
X277065Y332596D01*
Y333192D01*
X276837Y333744D01*
X276415Y334166D01*
X275864Y334394D01*
D02*
G37*
G36*
X275737Y330199D02*
X275140D01*
X274589Y329971D01*
X274167Y329549D01*
X273938Y328998D01*
Y328401D01*
X274167Y327850D01*
X274589Y327428D01*
X275140Y327199D01*
X275737D01*
X276288Y327428D01*
X276710Y327850D01*
X276938Y328401D01*
Y328998D01*
X276710Y329549D01*
X276288Y329971D01*
X275737Y330199D01*
D02*
G37*
G36*
X273016Y335362D02*
X268476D01*
Y330625D01*
X270120D01*
Y329855D01*
X269766Y329502D01*
X269537Y328950D01*
Y328353D01*
X269766Y327802D01*
X270188Y327380D01*
X270739Y327152D01*
X271336D01*
X271887Y327380D01*
X272309Y327802D01*
X272537Y328353D01*
Y328950D01*
X272309Y329502D01*
X271955Y329855D01*
Y330625D01*
X273016D01*
Y335362D01*
D02*
G37*
G36*
X162949Y326298D02*
X162352D01*
X161801Y326070D01*
X161379Y325648D01*
X161150Y325096D01*
Y324500D01*
X161379Y323948D01*
X161801Y323526D01*
X162352Y323298D01*
X162949D01*
X163500Y323526D01*
X163922Y323948D01*
X164150Y324500D01*
Y325096D01*
X163922Y325648D01*
X163500Y326070D01*
X162949Y326298D01*
D02*
G37*
G36*
X165307Y321889D02*
X164710D01*
X164158Y321660D01*
X163737Y321238D01*
X163508Y320687D01*
Y320090D01*
X163737Y319539D01*
X164158Y319117D01*
X164710Y318889D01*
X165307D01*
X165858Y319117D01*
X166280Y319539D01*
X166508Y320090D01*
Y320687D01*
X166280Y321238D01*
X165858Y321660D01*
X165307Y321889D01*
D02*
G37*
G36*
X423106Y324122D02*
X422301D01*
X421524Y323914D01*
X420826Y323512D01*
X420257Y322942D01*
X419855Y322245D01*
X419646Y321467D01*
Y320662D01*
X419855Y319885D01*
X420257Y319187D01*
X420826Y318618D01*
X421524Y318216D01*
X422301Y318007D01*
X423106D01*
X423884Y318216D01*
X424581Y318618D01*
X425150Y319187D01*
X425553Y319885D01*
X425761Y320662D01*
Y321467D01*
X425553Y322245D01*
X425150Y322942D01*
X424581Y323512D01*
X423884Y323914D01*
X423106Y324122D01*
D02*
G37*
G36*
X398539D02*
X397734D01*
X396957Y323914D01*
X396259Y323512D01*
X395690Y322942D01*
X395288Y322245D01*
X395079Y321467D01*
Y320662D01*
X395288Y319885D01*
X395690Y319187D01*
X396259Y318618D01*
X396957Y318216D01*
X397734Y318007D01*
X398539D01*
X399317Y318216D01*
X400014Y318618D01*
X400583Y319187D01*
X400986Y319885D01*
X401194Y320662D01*
Y321467D01*
X400986Y322245D01*
X400583Y322942D01*
X400014Y323512D01*
X399317Y323914D01*
X398539Y324122D01*
D02*
G37*
G36*
X446531Y319634D02*
X445726D01*
X444949Y319426D01*
X444252Y319023D01*
X443682Y318454D01*
X443280Y317757D01*
X443071Y316979D01*
Y316174D01*
X443280Y315396D01*
X443682Y314699D01*
X444252Y314130D01*
X444949Y313728D01*
X445726Y313519D01*
X446531D01*
X447309Y313728D01*
X448006Y314130D01*
X448575Y314699D01*
X448978Y315396D01*
X449186Y316174D01*
Y316979D01*
X448978Y317757D01*
X448575Y318454D01*
X448006Y319023D01*
X447309Y319426D01*
X446531Y319634D01*
D02*
G37*
G36*
X430941D02*
X430136D01*
X429358Y319426D01*
X428661Y319023D01*
X428092Y318454D01*
X427689Y317757D01*
X427481Y316979D01*
Y316174D01*
X427689Y315396D01*
X428092Y314699D01*
X428661Y314130D01*
X429358Y313728D01*
X430136Y313519D01*
X430941D01*
X431718Y313728D01*
X432416Y314130D01*
X432985Y314699D01*
X433388Y315396D01*
X433596Y316174D01*
Y316979D01*
X433388Y317757D01*
X432985Y318454D01*
X432416Y319023D01*
X431718Y319426D01*
X430941Y319634D01*
D02*
G37*
G36*
X415311D02*
X414506D01*
X413728Y319426D01*
X413031Y319023D01*
X412462Y318454D01*
X412059Y317757D01*
X411851Y316979D01*
Y316174D01*
X412059Y315396D01*
X412462Y314699D01*
X413031Y314130D01*
X413728Y313728D01*
X414506Y313519D01*
X415311D01*
X416089Y313728D01*
X416786Y314130D01*
X417355Y314699D01*
X417758Y315396D01*
X417966Y316174D01*
Y316979D01*
X417758Y317757D01*
X417355Y318454D01*
X416786Y319023D01*
X416089Y319426D01*
X415311Y319634D01*
D02*
G37*
G36*
X406335D02*
X405529D01*
X404752Y319426D01*
X404055Y319023D01*
X403485Y318454D01*
X403083Y317757D01*
X402875Y316979D01*
Y316174D01*
X403083Y315396D01*
X403485Y314699D01*
X404055Y314130D01*
X404752Y313728D01*
X405529Y313519D01*
X406335D01*
X407112Y313728D01*
X407809Y314130D01*
X408379Y314699D01*
X408781Y315396D01*
X408989Y316174D01*
Y316979D01*
X408781Y317757D01*
X408379Y318454D01*
X407809Y319023D01*
X407112Y319426D01*
X406335Y319634D01*
D02*
G37*
G36*
X390705D02*
X389900D01*
X389122Y319426D01*
X388425Y319023D01*
X387856Y318454D01*
X387453Y317757D01*
X387245Y316979D01*
Y316174D01*
X387453Y315396D01*
X387856Y314699D01*
X388425Y314130D01*
X389122Y313728D01*
X389900Y313519D01*
X390705D01*
X391482Y313728D01*
X392179Y314130D01*
X392749Y314699D01*
X393151Y315396D01*
X393360Y316174D01*
Y316979D01*
X393151Y317757D01*
X392749Y318454D01*
X392179Y319023D01*
X391482Y319426D01*
X390705Y319634D01*
D02*
G37*
G36*
X375114D02*
X374309D01*
X373531Y319426D01*
X372834Y319023D01*
X372265Y318454D01*
X371863Y317757D01*
X371654Y316979D01*
Y316174D01*
X371863Y315396D01*
X372265Y314699D01*
X372834Y314130D01*
X373531Y313728D01*
X374309Y313519D01*
X375114D01*
X375892Y313728D01*
X376589Y314130D01*
X377158Y314699D01*
X377561Y315396D01*
X377769Y316174D01*
Y316979D01*
X377561Y317757D01*
X377158Y318454D01*
X376589Y319023D01*
X375892Y319426D01*
X375114Y319634D01*
D02*
G37*
G36*
X166146Y316080D02*
X165550D01*
X164998Y315852D01*
X164576Y315430D01*
X164348Y314878D01*
Y314282D01*
X164576Y313730D01*
X164998Y313308D01*
X165550Y313080D01*
X166146D01*
X166698Y313308D01*
X167120Y313730D01*
X167348Y314282D01*
Y314878D01*
X167120Y315430D01*
X166698Y315852D01*
X166146Y316080D01*
D02*
G37*
G36*
X170715Y339873D02*
X165978D01*
Y335333D01*
X169417D01*
X170352Y334398D01*
X170649Y334200D01*
X171000Y334130D01*
X172890D01*
Y332088D01*
Y328151D01*
Y324214D01*
X179989D01*
Y324240D01*
X180486Y324259D01*
X180837Y323914D01*
Y321471D01*
X180764D01*
Y314372D01*
X180854D01*
Y313007D01*
X179420D01*
Y309963D01*
X182661D01*
Y311973D01*
X182690Y312119D01*
Y314372D01*
X184714D01*
Y317448D01*
X184848Y317649D01*
X184918Y318000D01*
X184848Y318351D01*
X184714Y318552D01*
Y321471D01*
X182672D01*
Y324297D01*
X182602Y324648D01*
X182403Y324945D01*
X182400Y324949D01*
Y325449D01*
X184619Y327668D01*
X184818Y327966D01*
X184888Y328317D01*
Y328818D01*
X185242Y329172D01*
X185470Y329724D01*
Y330320D01*
X185242Y330872D01*
X184820Y331294D01*
X184268Y331522D01*
X183672D01*
X183120Y331294D01*
X182698Y330872D01*
X182470Y330320D01*
Y329724D01*
X182698Y329172D01*
X183052Y328818D01*
Y328697D01*
X180489Y326134D01*
X179989Y326169D01*
Y328151D01*
Y332088D01*
Y336038D01*
X172890D01*
Y335965D01*
X171380D01*
X170715Y336630D01*
Y339873D01*
D02*
G37*
G36*
X398539Y315107D02*
X397734D01*
X396957Y314898D01*
X396259Y314496D01*
X395690Y313927D01*
X395288Y313229D01*
X395079Y312452D01*
Y311647D01*
X395288Y310869D01*
X395690Y310172D01*
X396259Y309602D01*
X396957Y309200D01*
X397734Y308992D01*
X398539D01*
X399317Y309200D01*
X400014Y309602D01*
X400583Y310172D01*
X400986Y310869D01*
X401194Y311647D01*
Y312452D01*
X400986Y313229D01*
X400583Y313927D01*
X400014Y314496D01*
X399317Y314898D01*
X398539Y315107D01*
D02*
G37*
G36*
X382909D02*
X382104D01*
X381327Y314898D01*
X380629Y314496D01*
X380060Y313927D01*
X379658Y313229D01*
X379449Y312452D01*
Y311647D01*
X379658Y310869D01*
X380060Y310172D01*
X380629Y309602D01*
X381327Y309200D01*
X382104Y308992D01*
X382909D01*
X383687Y309200D01*
X384384Y309602D01*
X384953Y310172D01*
X385356Y310869D01*
X385564Y311647D01*
Y312452D01*
X385356Y313229D01*
X384953Y313927D01*
X384384Y314496D01*
X383687Y314898D01*
X382909Y315107D01*
D02*
G37*
G36*
X423106D02*
X422301D01*
X421524Y314898D01*
X420826Y314496D01*
X420257Y313927D01*
X419855Y313229D01*
X419646Y312452D01*
Y311647D01*
X419855Y310869D01*
X420257Y310172D01*
X420826Y309602D01*
X421524Y309200D01*
X422301Y308992D01*
X423106D01*
X423407Y309072D01*
X423666Y308624D01*
X422966Y307924D01*
X420435D01*
X420084Y307854D01*
X419786Y307655D01*
X418093Y305962D01*
X417693Y306269D01*
X417758Y306381D01*
X417966Y307158D01*
Y307963D01*
X417758Y308741D01*
X417355Y309438D01*
X416786Y310008D01*
X416089Y310410D01*
X415311Y310618D01*
X414506D01*
X413728Y310410D01*
X413031Y310008D01*
X412462Y309438D01*
X412059Y308741D01*
X411851Y307963D01*
Y307158D01*
X412059Y306381D01*
X412462Y305684D01*
X413031Y305114D01*
X413728Y304712D01*
X414438Y304521D01*
X414373Y304022D01*
X406468D01*
X406402Y304521D01*
X407112Y304712D01*
X407809Y305114D01*
X408379Y305684D01*
X408781Y306381D01*
X408989Y307158D01*
Y307963D01*
X408781Y308741D01*
X408379Y309438D01*
X407809Y310008D01*
X407112Y310410D01*
X406335Y310618D01*
X405529D01*
X404752Y310410D01*
X404055Y310008D01*
X403485Y309438D01*
X403083Y308741D01*
X402875Y307963D01*
Y307158D01*
X403083Y306381D01*
X403485Y305684D01*
X404055Y305114D01*
X404752Y304712D01*
X405462Y304521D01*
X405396Y304022D01*
X404609D01*
X404258Y303952D01*
X403960Y303753D01*
X399860Y299653D01*
X399118D01*
X399052Y300153D01*
X399317Y300224D01*
X400014Y300626D01*
X400583Y301195D01*
X400986Y301893D01*
X401194Y302670D01*
Y303475D01*
X400986Y304253D01*
X400583Y304950D01*
X400014Y305519D01*
X399317Y305922D01*
X398539Y306130D01*
X397734D01*
X396957Y305922D01*
X396259Y305519D01*
X395690Y304950D01*
X395288Y304253D01*
X395079Y303475D01*
Y302670D01*
X395288Y301893D01*
X395690Y301195D01*
X396259Y300626D01*
X396957Y300224D01*
X397221Y300153D01*
X397155Y299653D01*
X396271D01*
X395920Y299583D01*
X395622Y299384D01*
X393693Y297455D01*
X393245Y297713D01*
X393360Y298143D01*
Y298948D01*
X393151Y299725D01*
X392749Y300423D01*
X392179Y300992D01*
X391482Y301394D01*
X390705Y301603D01*
X389900D01*
X389122Y301394D01*
X388425Y300992D01*
X387856Y300423D01*
X387453Y299725D01*
X387245Y298948D01*
Y298143D01*
X387453Y297365D01*
X387856Y296668D01*
X388425Y296099D01*
X389122Y295696D01*
X389616Y295564D01*
X389551Y295064D01*
X388918D01*
X388566Y294994D01*
X388269Y294795D01*
X385312Y291838D01*
X384953Y292180D01*
X385356Y292877D01*
X385564Y293654D01*
Y294460D01*
X385356Y295237D01*
X384953Y295934D01*
X384384Y296504D01*
X383687Y296906D01*
X382909Y297114D01*
X382104D01*
X381327Y296906D01*
X380629Y296504D01*
X380060Y295934D01*
X379658Y295237D01*
X379449Y294460D01*
Y293654D01*
X379658Y292877D01*
X380060Y292180D01*
X380629Y291610D01*
X381327Y291208D01*
X382104Y291000D01*
X382909D01*
X383687Y291208D01*
X384384Y291610D01*
X384726Y291252D01*
X383905Y290431D01*
X377910D01*
X377558Y290361D01*
X377261Y290162D01*
X370438Y283340D01*
X370239Y283042D01*
X370169Y282691D01*
Y281016D01*
X369815Y280662D01*
X369587Y280111D01*
Y279514D01*
X369815Y278963D01*
X370237Y278541D01*
X370789Y278312D01*
X371386D01*
X371937Y278541D01*
X372359Y278963D01*
X372587Y279514D01*
Y280111D01*
X372359Y280662D01*
X372005Y281016D01*
Y282311D01*
X378290Y288596D01*
X381879D01*
X381945Y288095D01*
X381327Y287930D01*
X380629Y287527D01*
X380060Y286958D01*
X379658Y286261D01*
X379449Y285483D01*
Y284678D01*
X379658Y283900D01*
X380060Y283203D01*
X380629Y282634D01*
X381327Y282231D01*
X382104Y282023D01*
X382909D01*
X383687Y282231D01*
X384384Y282634D01*
X384953Y283203D01*
X385356Y283900D01*
X385564Y284678D01*
Y285483D01*
X385356Y286261D01*
X384953Y286958D01*
X384384Y287527D01*
X383687Y287930D01*
X383069Y288095D01*
X383134Y288596D01*
X384285D01*
X384636Y288665D01*
X384933Y288864D01*
X387013Y290943D01*
X387155Y290881D01*
X387426Y290650D01*
X387245Y289971D01*
Y289166D01*
X387453Y288389D01*
X387856Y287691D01*
X388425Y287122D01*
X389122Y286720D01*
X389900Y286511D01*
X390705D01*
X391482Y286720D01*
X392179Y287122D01*
X392749Y287691D01*
X393151Y288389D01*
X393360Y289166D01*
Y289971D01*
X393151Y290749D01*
X392749Y291446D01*
X392179Y292015D01*
X391482Y292418D01*
X390705Y292626D01*
X389900D01*
X389221Y292444D01*
X388990Y292716D01*
X388928Y292858D01*
X389298Y293228D01*
X391682D01*
X392033Y293298D01*
X392331Y293497D01*
X396651Y297817D01*
X400240D01*
X400591Y297887D01*
X400889Y298086D01*
X404989Y302186D01*
X416533D01*
X416884Y302256D01*
X417182Y302455D01*
X419684Y304957D01*
X420084Y304650D01*
X419855Y304253D01*
X419646Y303475D01*
Y302670D01*
X419855Y301893D01*
X420257Y301195D01*
X420826Y300626D01*
X421524Y300224D01*
X422301Y300015D01*
X423106D01*
X423884Y300224D01*
X424581Y300626D01*
X425150Y301195D01*
X425553Y301893D01*
X425761Y302670D01*
Y303475D01*
X425553Y304253D01*
X425150Y304950D01*
X424581Y305519D01*
X424077Y305811D01*
X424006Y306279D01*
X424007Y306320D01*
X424030Y306392D01*
X428720Y311082D01*
X429936D01*
X430001Y310582D01*
X429358Y310410D01*
X428661Y310008D01*
X428092Y309438D01*
X427689Y308741D01*
X427481Y307963D01*
Y307158D01*
X427689Y306381D01*
X428092Y305684D01*
X428661Y305114D01*
X429358Y304712D01*
X430136Y304503D01*
X430941D01*
X431718Y304712D01*
X432416Y305114D01*
X432985Y305684D01*
X433388Y306381D01*
X433596Y307158D01*
Y307963D01*
X433388Y308741D01*
X432985Y309438D01*
X432416Y310008D01*
X431718Y310410D01*
X431075Y310582D01*
X431141Y311082D01*
X432620D01*
X436152Y307551D01*
X436449Y307352D01*
X436800Y307282D01*
X440024D01*
X440375Y307352D01*
X440673Y307551D01*
X443897Y310775D01*
X444581D01*
X444714Y310275D01*
X444252Y310008D01*
X443682Y309438D01*
X443280Y308741D01*
X443071Y307963D01*
Y307158D01*
X443280Y306381D01*
X443682Y305684D01*
X444252Y305114D01*
X444949Y304712D01*
X445726Y304503D01*
X446531D01*
X447309Y304712D01*
X448006Y305114D01*
X448575Y305684D01*
X448978Y306381D01*
X449186Y307158D01*
Y307963D01*
X448978Y308741D01*
X448575Y309438D01*
X448006Y310008D01*
X447543Y310275D01*
X447677Y310775D01*
X470177D01*
X471188Y309764D01*
X471182Y309750D01*
Y309153D01*
X471411Y308601D01*
X471833Y308179D01*
X472384Y307951D01*
X472981D01*
X473532Y308179D01*
X473954Y308601D01*
X474182Y309153D01*
Y309750D01*
X473954Y310301D01*
X473532Y310723D01*
X472981Y310951D01*
X472596D01*
X471206Y312341D01*
X470909Y312540D01*
X470557Y312610D01*
X443517D01*
X443166Y312540D01*
X442868Y312341D01*
X439644Y309117D01*
X437181D01*
X433649Y312649D01*
X433351Y312848D01*
X433000Y312918D01*
X428340D01*
X427988Y312848D01*
X427691Y312649D01*
X426129Y311087D01*
X425681Y311346D01*
X425761Y311647D01*
Y312452D01*
X425553Y313229D01*
X425150Y313927D01*
X424581Y314496D01*
X423884Y314898D01*
X423106Y315107D01*
D02*
G37*
G36*
X390705Y310618D02*
X389900D01*
X389122Y310410D01*
X388425Y310008D01*
X387856Y309438D01*
X387453Y308741D01*
X387245Y307963D01*
Y307158D01*
X387453Y306381D01*
X387856Y305684D01*
X388425Y305114D01*
X389122Y304712D01*
X389900Y304503D01*
X390705D01*
X391482Y304712D01*
X392179Y305114D01*
X392749Y305684D01*
X393151Y306381D01*
X393360Y307158D01*
Y307963D01*
X393151Y308741D01*
X392749Y309438D01*
X392179Y310008D01*
X391482Y310410D01*
X390705Y310618D01*
D02*
G37*
G36*
X375114D02*
X374309D01*
X373531Y310410D01*
X372834Y310008D01*
X372265Y309438D01*
X371863Y308741D01*
X371654Y307963D01*
Y307158D01*
X371863Y306381D01*
X372265Y305684D01*
X372834Y305114D01*
X373531Y304712D01*
X374309Y304503D01*
X375114D01*
X375892Y304712D01*
X376589Y305114D01*
X377158Y305684D01*
X377561Y306381D01*
X377769Y307158D01*
Y307963D01*
X377561Y308741D01*
X377158Y309438D01*
X376589Y310008D01*
X375892Y310410D01*
X375114Y310618D01*
D02*
G37*
G36*
X67000Y343433D02*
X40000D01*
X39694Y343306D01*
X39567Y343000D01*
Y323000D01*
X39694Y322694D01*
X40000Y322567D01*
X67000D01*
X67067Y322595D01*
X67567Y322302D01*
Y321433D01*
X40000D01*
X39694Y321306D01*
X39567Y321000D01*
Y311000D01*
X39694Y310694D01*
X49694Y300694D01*
X50000Y300567D01*
X60647D01*
X60717Y300596D01*
X60793Y300592D01*
X60864Y300657D01*
X60953Y300694D01*
X60982Y300764D01*
X61038Y300815D01*
X61274Y301315D01*
X61275Y301326D01*
X61283Y301334D01*
Y301490D01*
X61290Y301646D01*
X61283Y301655D01*
Y301666D01*
X61146Y301996D01*
Y302421D01*
X61308Y302813D01*
X61608Y303113D01*
X62001Y303276D01*
X62425D01*
X62817Y303113D01*
X63117Y302813D01*
X63280Y302421D01*
Y301996D01*
X63143Y301666D01*
Y301655D01*
X63135Y301646D01*
X63143Y301490D01*
Y301334D01*
X63151Y301326D01*
X63151Y301315D01*
X63387Y300815D01*
X63443Y300764D01*
X63472Y300694D01*
X63561Y300657D01*
X63632Y300592D01*
X63708Y300596D01*
X63779Y300567D01*
X75701D01*
X76007Y300694D01*
X76134Y301000D01*
Y326000D01*
X76007Y326306D01*
X75701Y326433D01*
X68000D01*
X67933Y326405D01*
X67433Y326698D01*
Y343000D01*
X67306Y343306D01*
X67000Y343433D01*
D02*
G37*
G36*
X438736Y306130D02*
X437931D01*
X437153Y305922D01*
X436456Y305519D01*
X435887Y304950D01*
X435485Y304253D01*
X435276Y303475D01*
Y302670D01*
X435485Y301893D01*
X435887Y301195D01*
X436456Y300626D01*
X437153Y300224D01*
X437931Y300015D01*
X438736D01*
X439514Y300224D01*
X440211Y300626D01*
X440780Y301195D01*
X441183Y301893D01*
X441391Y302670D01*
Y303475D01*
X441183Y304253D01*
X440780Y304950D01*
X440211Y305519D01*
X439514Y305922D01*
X438736Y306130D01*
D02*
G37*
G36*
X382909D02*
X382104D01*
X381327Y305922D01*
X380629Y305519D01*
X380060Y304950D01*
X379658Y304253D01*
X379449Y303475D01*
Y302670D01*
X379658Y301893D01*
X380060Y301195D01*
X380629Y300626D01*
X381327Y300224D01*
X382104Y300015D01*
X382909D01*
X383687Y300224D01*
X384384Y300626D01*
X384953Y301195D01*
X385356Y301893D01*
X385564Y302670D01*
Y303475D01*
X385356Y304253D01*
X384953Y304950D01*
X384384Y305519D01*
X383687Y305922D01*
X382909Y306130D01*
D02*
G37*
G36*
X218148Y304046D02*
X217551D01*
X217000Y303818D01*
X216578Y303396D01*
X216350Y302845D01*
Y302457D01*
X216343Y302244D01*
X215913Y301995D01*
X215739D01*
X215188Y301767D01*
X214766Y301345D01*
X214538Y300794D01*
Y300197D01*
X214766Y299646D01*
X215188Y299224D01*
X215739Y298995D01*
X216336D01*
X216887Y299224D01*
X217309Y299646D01*
X217538Y300197D01*
Y300584D01*
X217544Y300797D01*
X217974Y301046D01*
X218148D01*
X218699Y301275D01*
X219121Y301697D01*
X219350Y302248D01*
Y302845D01*
X219121Y303396D01*
X218699Y303818D01*
X218148Y304046D01*
D02*
G37*
G36*
X112987Y299551D02*
X112390D01*
X111839Y299322D01*
X111450Y298933D01*
X109934D01*
X109615Y299253D01*
X109064Y299481D01*
X108467D01*
X107916Y299253D01*
X107494Y298831D01*
X107265Y298279D01*
Y297683D01*
X107494Y297131D01*
X107848Y296777D01*
Y295701D01*
X106297D01*
Y288208D01*
X116939D01*
Y295701D01*
X113606D01*
Y296847D01*
X113960Y297201D01*
X114188Y297752D01*
Y298349D01*
X113960Y298900D01*
X113538Y299322D01*
X112987Y299551D01*
D02*
G37*
G36*
X273018Y302564D02*
X268478D01*
Y297827D01*
X269830D01*
Y295767D01*
X269510Y295446D01*
X269281Y294895D01*
Y294299D01*
X269510Y293747D01*
X269932Y293325D01*
X270483Y293097D01*
X271080D01*
X271631Y293325D01*
X272053Y293747D01*
X272281Y294299D01*
Y294895D01*
X272053Y295446D01*
X271666Y295834D01*
Y297827D01*
X273018D01*
Y297992D01*
X273518Y298092D01*
X273684Y297693D01*
X274106Y297271D01*
X274657Y297042D01*
X275254D01*
X275805Y297271D01*
X276227Y297693D01*
X276455Y298244D01*
Y298841D01*
X276227Y299392D01*
X275805Y299814D01*
X275254Y300042D01*
X274657D01*
X274106Y299814D01*
X273684Y299392D01*
X273518Y298993D01*
X273018Y299092D01*
Y302564D01*
D02*
G37*
G36*
X299793Y299220D02*
X299197D01*
X298645Y298992D01*
X298223Y298570D01*
X297995Y298019D01*
Y297422D01*
X298223Y296871D01*
X298645Y296449D01*
X299197Y296220D01*
X299793D01*
X300345Y296449D01*
X300767Y296871D01*
X300995Y297422D01*
Y298019D01*
X300767Y298570D01*
X300345Y298992D01*
X299793Y299220D01*
D02*
G37*
G36*
X230276Y298584D02*
X229679D01*
X229128Y298355D01*
X228706Y297933D01*
X228478Y297382D01*
Y296785D01*
X228706Y296234D01*
X229128Y295812D01*
X229679Y295584D01*
X230276D01*
X230827Y295812D01*
X231249Y296234D01*
X231478Y296785D01*
Y297382D01*
X231249Y297933D01*
X230827Y298355D01*
X230276Y298584D01*
D02*
G37*
G36*
X446531Y301603D02*
X445726D01*
X444949Y301394D01*
X444252Y300992D01*
X443682Y300423D01*
X443280Y299725D01*
X443071Y298948D01*
Y298143D01*
X443280Y297365D01*
X443682Y296668D01*
X444252Y296099D01*
X444949Y295696D01*
X445726Y295488D01*
X446531D01*
X447309Y295696D01*
X448006Y296099D01*
X448575Y296668D01*
X448978Y297365D01*
X449186Y298143D01*
Y298948D01*
X448978Y299725D01*
X448575Y300423D01*
X448006Y300992D01*
X447309Y301394D01*
X446531Y301603D01*
D02*
G37*
G36*
X430941D02*
X430136D01*
X429358Y301394D01*
X428661Y300992D01*
X428092Y300423D01*
X427689Y299725D01*
X427481Y298948D01*
Y298143D01*
X427689Y297365D01*
X428092Y296668D01*
X428661Y296099D01*
X429358Y295696D01*
X430136Y295488D01*
X430941D01*
X431718Y295696D01*
X432416Y296099D01*
X432985Y296668D01*
X433388Y297365D01*
X433596Y298143D01*
Y298948D01*
X433388Y299725D01*
X432985Y300423D01*
X432416Y300992D01*
X431718Y301394D01*
X430941Y301603D01*
D02*
G37*
G36*
X415311D02*
X414506D01*
X413728Y301394D01*
X413031Y300992D01*
X412462Y300423D01*
X412059Y299725D01*
X411851Y298948D01*
Y298143D01*
X412059Y297365D01*
X412462Y296668D01*
X413031Y296099D01*
X413728Y295696D01*
X414506Y295488D01*
X415311D01*
X416089Y295696D01*
X416786Y296099D01*
X417355Y296668D01*
X417758Y297365D01*
X417966Y298143D01*
Y298948D01*
X417758Y299725D01*
X417355Y300423D01*
X416786Y300992D01*
X416089Y301394D01*
X415311Y301603D01*
D02*
G37*
G36*
X375114D02*
X374309D01*
X373531Y301394D01*
X372834Y300992D01*
X372265Y300423D01*
X371863Y299725D01*
X371654Y298948D01*
Y298143D01*
X371863Y297365D01*
X372265Y296668D01*
X372834Y296099D01*
X373531Y295696D01*
X374309Y295488D01*
X375114D01*
X375892Y295696D01*
X376589Y296099D01*
X377158Y296668D01*
X377561Y297365D01*
X377769Y298143D01*
Y298948D01*
X377561Y299725D01*
X377158Y300423D01*
X376589Y300992D01*
X375892Y301394D01*
X375114Y301603D01*
D02*
G37*
G36*
X319910Y298251D02*
X319313D01*
X318762Y298022D01*
X318340Y297600D01*
X318111Y297049D01*
Y296452D01*
X318340Y295901D01*
X318762Y295479D01*
X319313Y295251D01*
X319910D01*
X320461Y295479D01*
X320883Y295901D01*
X321111Y296452D01*
Y297049D01*
X320883Y297600D01*
X320461Y298022D01*
X319910Y298251D01*
D02*
G37*
G36*
X275144Y296133D02*
X274547D01*
X273996Y295905D01*
X273574Y295483D01*
X273346Y294931D01*
Y294335D01*
X273574Y293783D01*
X273996Y293361D01*
X274547Y293133D01*
X275144D01*
X275695Y293361D01*
X276117Y293783D01*
X276346Y294335D01*
Y294931D01*
X276117Y295483D01*
X275695Y295905D01*
X275144Y296133D01*
D02*
G37*
G36*
X294544Y295231D02*
X293948D01*
X293396Y295003D01*
X292974Y294581D01*
X292746Y294029D01*
Y293433D01*
X292974Y292881D01*
X293396Y292459D01*
X293948Y292231D01*
X294544D01*
X295096Y292459D01*
X295517Y292881D01*
X295746Y293433D01*
Y294029D01*
X295517Y294581D01*
X295096Y295003D01*
X294544Y295231D01*
D02*
G37*
G36*
X222667Y294559D02*
X222070D01*
X221518Y294330D01*
X221096Y293908D01*
X220868Y293357D01*
Y292760D01*
X221096Y292209D01*
X221518Y291787D01*
X222070Y291559D01*
X222667D01*
X223218Y291787D01*
X223640Y292209D01*
X223868Y292760D01*
Y293357D01*
X223640Y293908D01*
X223218Y294330D01*
X222667Y294559D01*
D02*
G37*
G36*
X438736Y297114D02*
X437931D01*
X437153Y296906D01*
X436456Y296504D01*
X435887Y295934D01*
X435485Y295237D01*
X435276Y294460D01*
Y293654D01*
X435485Y292877D01*
X435887Y292180D01*
X436456Y291610D01*
X437153Y291208D01*
X437931Y291000D01*
X438736D01*
X439514Y291208D01*
X440211Y291610D01*
X440780Y292180D01*
X441183Y292877D01*
X441391Y293654D01*
Y294460D01*
X441183Y295237D01*
X440780Y295934D01*
X440211Y296504D01*
X439514Y296906D01*
X438736Y297114D01*
D02*
G37*
G36*
X423106D02*
X422301D01*
X421524Y296906D01*
X420826Y296504D01*
X420257Y295934D01*
X419855Y295237D01*
X419646Y294460D01*
Y293654D01*
X419855Y292877D01*
X420257Y292180D01*
X420826Y291610D01*
X421524Y291208D01*
X422301Y291000D01*
X423106D01*
X423884Y291208D01*
X424581Y291610D01*
X425150Y292180D01*
X425553Y292877D01*
X425761Y293654D01*
Y294460D01*
X425553Y295237D01*
X425150Y295934D01*
X424581Y296504D01*
X423884Y296906D01*
X423106Y297114D01*
D02*
G37*
G36*
X398539D02*
X397734D01*
X396957Y296906D01*
X396259Y296504D01*
X395690Y295934D01*
X395288Y295237D01*
X395079Y294460D01*
Y293654D01*
X395288Y292877D01*
X395690Y292180D01*
X396259Y291610D01*
X396957Y291208D01*
X397734Y291000D01*
X398539D01*
X399317Y291208D01*
X400014Y291610D01*
X400583Y292180D01*
X400986Y292877D01*
X401194Y293654D01*
Y294460D01*
X400986Y295237D01*
X400583Y295934D01*
X400014Y296504D01*
X399317Y296906D01*
X398539Y297114D01*
D02*
G37*
G36*
X134454Y342070D02*
X106000D01*
X105694Y341943D01*
X105567Y341637D01*
Y324000D01*
X105694Y323694D01*
X106000Y323567D01*
X134454D01*
X134567Y323492D01*
Y319433D01*
X106000D01*
X105694Y319306D01*
X105567Y319000D01*
Y302000D01*
X105694Y301694D01*
X106000Y301567D01*
X133567D01*
Y290000D01*
X133694Y289694D01*
X134000Y289567D01*
X144697D01*
Y289389D01*
X144926Y288838D01*
X145348Y288416D01*
X145899Y288188D01*
X146496D01*
X147047Y288416D01*
X147469Y288838D01*
X147697Y289389D01*
Y289986D01*
X147469Y290538D01*
X147363Y290644D01*
X147306Y291123D01*
X147354Y291240D01*
X147425Y291344D01*
X147416Y291388D01*
X147433Y291429D01*
Y316554D01*
X147306Y316861D01*
X147000Y316987D01*
X145433D01*
Y328000D01*
X145306Y328306D01*
X145000Y328433D01*
X135000D01*
X134887Y328508D01*
Y341637D01*
X134760Y341943D01*
X134454Y342070D01*
D02*
G37*
G36*
X69624Y295701D02*
X58981D01*
Y290755D01*
X58774Y290617D01*
X58774Y290617D01*
X57603Y289445D01*
X57293Y288982D01*
X57184Y288436D01*
X57184Y288436D01*
Y283496D01*
X57140Y283389D01*
Y282792D01*
X57213Y282617D01*
Y280374D01*
X57140Y280199D01*
Y279602D01*
X57368Y279051D01*
X57790Y278629D01*
X58342Y278400D01*
X58938D01*
X59490Y278629D01*
X59912Y279051D01*
X60140Y279602D01*
Y280199D01*
X60067Y280374D01*
Y282617D01*
X60140Y282792D01*
Y283389D01*
X60039Y283632D01*
Y287845D01*
X60375Y288180D01*
X60381D01*
X60381Y288180D01*
X60519Y288208D01*
X69454D01*
X69624Y288208D01*
X70092Y288131D01*
X70403Y287821D01*
X70954Y287593D01*
X71551D01*
X72102Y287821D01*
X72524Y288243D01*
X72752Y288794D01*
Y289391D01*
X72524Y289942D01*
X72102Y290364D01*
X71551Y290593D01*
X70954D01*
X70403Y290364D01*
X70124Y290085D01*
X69624Y290287D01*
Y295701D01*
D02*
G37*
G36*
X338615Y290484D02*
X338018D01*
X337467Y290255D01*
X337045Y289833D01*
X336816Y289282D01*
Y288685D01*
X337045Y288134D01*
X337467Y287712D01*
X338018Y287484D01*
X338615D01*
X339166Y287712D01*
X339588Y288134D01*
X339816Y288685D01*
Y289282D01*
X339588Y289833D01*
X339166Y290255D01*
X338615Y290484D01*
D02*
G37*
G36*
X430941Y292626D02*
X430136D01*
X429358Y292418D01*
X428661Y292015D01*
X428092Y291446D01*
X427689Y290749D01*
X427481Y289971D01*
Y289166D01*
X427689Y288389D01*
X428092Y287691D01*
X428661Y287122D01*
X429358Y286720D01*
X430136Y286511D01*
X430941D01*
X431718Y286720D01*
X432416Y287122D01*
X432985Y287691D01*
X433388Y288389D01*
X433596Y289166D01*
Y289971D01*
X433388Y290749D01*
X432985Y291446D01*
X432416Y292015D01*
X431718Y292418D01*
X430941Y292626D01*
D02*
G37*
G36*
X415311D02*
X414506D01*
X413728Y292418D01*
X413031Y292015D01*
X412462Y291446D01*
X412059Y290749D01*
X411851Y289971D01*
Y289166D01*
X412059Y288389D01*
X412462Y287691D01*
X413031Y287122D01*
X413728Y286720D01*
X414506Y286511D01*
X415311D01*
X416089Y286720D01*
X416786Y287122D01*
X417355Y287691D01*
X417758Y288389D01*
X417966Y289166D01*
Y289971D01*
X417758Y290749D01*
X417355Y291446D01*
X416786Y292015D01*
X416089Y292418D01*
X415311Y292626D01*
D02*
G37*
G36*
X406335D02*
X405529D01*
X404752Y292418D01*
X404055Y292015D01*
X403485Y291446D01*
X403083Y290749D01*
X402875Y289971D01*
Y289166D01*
X403083Y288389D01*
X403485Y287691D01*
X404055Y287122D01*
X404752Y286720D01*
X405529Y286511D01*
X406335D01*
X407112Y286720D01*
X407809Y287122D01*
X408379Y287691D01*
X408781Y288389D01*
X408989Y289166D01*
Y289971D01*
X408781Y290749D01*
X408379Y291446D01*
X407809Y292015D01*
X407112Y292418D01*
X406335Y292626D01*
D02*
G37*
G36*
X333929Y289405D02*
X333332D01*
X332781Y289177D01*
X332359Y288755D01*
X332131Y288204D01*
Y287607D01*
X332359Y287056D01*
X332781Y286634D01*
X333332Y286405D01*
X333929D01*
X334480Y286634D01*
X334902Y287056D01*
X335131Y287607D01*
Y288204D01*
X334902Y288755D01*
X334480Y289177D01*
X333929Y289405D01*
D02*
G37*
G36*
X52214Y286959D02*
X51617D01*
X51066Y286731D01*
X50644Y286309D01*
X50416Y285757D01*
Y285161D01*
X50644Y284609D01*
X51066Y284187D01*
X51617Y283959D01*
X52214D01*
X52765Y284187D01*
X53187Y284609D01*
X53416Y285161D01*
Y285757D01*
X53187Y286309D01*
X52765Y286731D01*
X52214Y286959D01*
D02*
G37*
G36*
X338725Y286312D02*
X338128D01*
X337577Y286084D01*
X337155Y285662D01*
X336927Y285111D01*
Y284514D01*
X337155Y283962D01*
X337577Y283541D01*
X338128Y283312D01*
X338725D01*
X339277Y283541D01*
X339699Y283962D01*
X339927Y284514D01*
Y285111D01*
X339699Y285662D01*
X339277Y286084D01*
X338725Y286312D01*
D02*
G37*
G36*
X438736Y288138D02*
X437931D01*
X437153Y287930D01*
X436456Y287527D01*
X435887Y286958D01*
X435485Y286261D01*
X435276Y285483D01*
Y284678D01*
X435485Y283900D01*
X435887Y283203D01*
X436456Y282634D01*
X437153Y282231D01*
X437931Y282023D01*
X438736D01*
X439514Y282231D01*
X440211Y282634D01*
X440780Y283203D01*
X441183Y283900D01*
X441391Y284678D01*
Y285483D01*
X441183Y286261D01*
X440780Y286958D01*
X440211Y287527D01*
X439514Y287930D01*
X438736Y288138D01*
D02*
G37*
G36*
X423106D02*
X422301D01*
X421524Y287930D01*
X420826Y287527D01*
X420257Y286958D01*
X419855Y286261D01*
X419646Y285483D01*
Y284678D01*
X419855Y283900D01*
X420257Y283203D01*
X420826Y282634D01*
X421524Y282231D01*
X422301Y282023D01*
X423106D01*
X423884Y282231D01*
X424581Y282634D01*
X425150Y283203D01*
X425553Y283900D01*
X425761Y284678D01*
Y285483D01*
X425553Y286261D01*
X425150Y286958D01*
X424581Y287527D01*
X423884Y287930D01*
X423106Y288138D01*
D02*
G37*
G36*
X337878Y282592D02*
X337281D01*
X336730Y282364D01*
X336308Y281942D01*
X336080Y281391D01*
Y280794D01*
X336308Y280242D01*
X336730Y279821D01*
X337281Y279592D01*
X337878D01*
X338429Y279821D01*
X338851Y280242D01*
X339080Y280794D01*
Y281391D01*
X338851Y281942D01*
X338429Y282364D01*
X337878Y282592D01*
D02*
G37*
G36*
X341391Y282580D02*
X340794D01*
X340243Y282351D01*
X339821Y281929D01*
X339593Y281378D01*
Y280781D01*
X339821Y280230D01*
X340243Y279808D01*
X340794Y279580D01*
X341391D01*
X341942Y279808D01*
X342364Y280230D01*
X342593Y280781D01*
Y281378D01*
X342364Y281929D01*
X341942Y282351D01*
X341391Y282580D01*
D02*
G37*
G36*
X430941Y283611D02*
X430136D01*
X429358Y283402D01*
X428661Y283000D01*
X428092Y282430D01*
X427689Y281733D01*
X427481Y280956D01*
Y280151D01*
X427689Y279373D01*
X428092Y278676D01*
X428661Y278106D01*
X429358Y277704D01*
X430136Y277496D01*
X430941D01*
X431718Y277704D01*
X432416Y278106D01*
X432985Y278676D01*
X433388Y279373D01*
X433596Y280151D01*
Y280956D01*
X433388Y281733D01*
X432985Y282430D01*
X432416Y283000D01*
X431718Y283402D01*
X430941Y283611D01*
D02*
G37*
G36*
X415311D02*
X414506D01*
X413728Y283402D01*
X413031Y283000D01*
X412462Y282430D01*
X412059Y281733D01*
X411851Y280956D01*
Y280151D01*
X412059Y279373D01*
X412462Y278676D01*
X413031Y278106D01*
X413728Y277704D01*
X414506Y277496D01*
X415311D01*
X416089Y277704D01*
X416786Y278106D01*
X417355Y278676D01*
X417758Y279373D01*
X417966Y280151D01*
Y280956D01*
X417758Y281733D01*
X417355Y282430D01*
X416786Y283000D01*
X416089Y283402D01*
X415311Y283611D01*
D02*
G37*
G36*
X406335D02*
X405529D01*
X404752Y283402D01*
X404055Y283000D01*
X403485Y282430D01*
X403083Y281733D01*
X402875Y280956D01*
Y280151D01*
X403083Y279373D01*
X403485Y278676D01*
X404055Y278106D01*
X404752Y277704D01*
X405529Y277496D01*
X406335D01*
X407112Y277704D01*
X407809Y278106D01*
X408379Y278676D01*
X408781Y279373D01*
X408989Y280151D01*
Y280956D01*
X408781Y281733D01*
X408379Y282430D01*
X407809Y283000D01*
X407112Y283402D01*
X406335Y283611D01*
D02*
G37*
G36*
X390705D02*
X389900D01*
X389122Y283402D01*
X388425Y283000D01*
X387856Y282430D01*
X387453Y281733D01*
X387245Y280956D01*
Y280151D01*
X387453Y279373D01*
X387856Y278676D01*
X388425Y278106D01*
X389122Y277704D01*
X389900Y277496D01*
X390705D01*
X391482Y277704D01*
X392179Y278106D01*
X392749Y278676D01*
X393151Y279373D01*
X393360Y280151D01*
Y280956D01*
X393151Y281733D01*
X392749Y282430D01*
X392179Y283000D01*
X391482Y283402D01*
X390705Y283611D01*
D02*
G37*
G36*
X214941Y282303D02*
X214345D01*
X213793Y282075D01*
X213371Y281653D01*
X213143Y281101D01*
Y280505D01*
X213371Y279953D01*
X213793Y279531D01*
X214345Y279303D01*
X214941D01*
X214986Y279322D01*
X215369Y278939D01*
X215313Y278805D01*
Y278208D01*
X215542Y277657D01*
X215964Y277235D01*
X216515Y277007D01*
X217111D01*
X217663Y277235D01*
X218085Y277657D01*
X218313Y278208D01*
Y278805D01*
X218085Y279356D01*
X217663Y279778D01*
X217111Y280007D01*
X216515D01*
X216470Y279988D01*
X216088Y280371D01*
X216143Y280505D01*
Y281101D01*
X215915Y281653D01*
X215493Y282075D01*
X214941Y282303D01*
D02*
G37*
G36*
X118558Y277521D02*
X117962D01*
X117410Y277293D01*
X116988Y276871D01*
X116760Y276320D01*
Y275723D01*
X116988Y275171D01*
X117410Y274749D01*
X117962Y274521D01*
X118558D01*
X119110Y274749D01*
X119532Y275171D01*
X119760Y275723D01*
Y276320D01*
X119532Y276871D01*
X119110Y277293D01*
X118558Y277521D01*
D02*
G37*
G36*
X423106Y279122D02*
X422301D01*
X421524Y278914D01*
X420826Y278512D01*
X420257Y277942D01*
X419855Y277245D01*
X419646Y276467D01*
Y275662D01*
X419855Y274885D01*
X420257Y274187D01*
X420826Y273618D01*
X421524Y273216D01*
X422301Y273007D01*
X423106D01*
X423884Y273216D01*
X424581Y273618D01*
X425150Y274187D01*
X425553Y274885D01*
X425761Y275662D01*
Y276467D01*
X425553Y277245D01*
X425150Y277942D01*
X424581Y278512D01*
X423884Y278914D01*
X423106Y279122D01*
D02*
G37*
G36*
X194209Y298173D02*
X192132D01*
X190080Y297848D01*
X188105Y297206D01*
X186254Y296263D01*
X184574Y295042D01*
X183105Y293573D01*
X181885Y291893D01*
X180942Y290042D01*
X180300Y288067D01*
X179975Y286016D01*
Y283939D01*
X180300Y281887D01*
X180942Y279912D01*
X181885Y278062D01*
X183105Y276381D01*
X184574Y274913D01*
X186254Y273692D01*
X188105Y272749D01*
X190080Y272107D01*
X192132Y271782D01*
X194209D01*
X196260Y272107D01*
X198235Y272749D01*
X200086Y273692D01*
X201766Y274913D01*
X203235Y276381D01*
X204456Y278062D01*
X205399Y279912D01*
X206041Y281887D01*
X206365Y283939D01*
Y286016D01*
X206041Y288067D01*
X205399Y290042D01*
X204456Y291893D01*
X203235Y293573D01*
X201766Y295042D01*
X200086Y296263D01*
X198235Y297206D01*
X196260Y297848D01*
X194209Y298173D01*
D02*
G37*
G36*
X221417Y273226D02*
X220820D01*
X220269Y272997D01*
X219847Y272575D01*
X219619Y272024D01*
Y271427D01*
X219847Y270876D01*
X220269Y270454D01*
X220820Y270226D01*
X221417D01*
X221968Y270454D01*
X222390Y270876D01*
X222619Y271427D01*
Y272024D01*
X222390Y272575D01*
X221968Y272997D01*
X221417Y273226D01*
D02*
G37*
G36*
X415311Y274634D02*
X414506D01*
X413728Y274426D01*
X413031Y274023D01*
X412462Y273454D01*
X412059Y272757D01*
X411851Y271979D01*
Y271174D01*
X412059Y270396D01*
X412462Y269699D01*
X413031Y269130D01*
X413728Y268728D01*
X414506Y268519D01*
X415311D01*
X416089Y268728D01*
X416786Y269130D01*
X417355Y269699D01*
X417758Y270396D01*
X417966Y271174D01*
Y271979D01*
X417758Y272757D01*
X417355Y273454D01*
X416786Y274023D01*
X416089Y274426D01*
X415311Y274634D01*
D02*
G37*
G36*
X406335D02*
X405529D01*
X404752Y274426D01*
X404055Y274023D01*
X403485Y273454D01*
X403083Y272757D01*
X402875Y271979D01*
Y271174D01*
X403083Y270396D01*
X403485Y269699D01*
X404055Y269130D01*
X404752Y268728D01*
X405529Y268519D01*
X406335D01*
X407112Y268728D01*
X407809Y269130D01*
X408379Y269699D01*
X408781Y270396D01*
X408989Y271174D01*
Y271979D01*
X408781Y272757D01*
X408379Y273454D01*
X407809Y274023D01*
X407112Y274426D01*
X406335Y274634D01*
D02*
G37*
G36*
X142174Y269758D02*
X141577D01*
X141026Y269530D01*
X140604Y269108D01*
X140375Y268556D01*
Y267960D01*
X140604Y267408D01*
X141026Y266986D01*
X141577Y266758D01*
X142174D01*
X142725Y266986D01*
X143147Y267408D01*
X143375Y267960D01*
Y268556D01*
X143147Y269108D01*
X142725Y269530D01*
X142174Y269758D01*
D02*
G37*
G36*
X96844Y267676D02*
X96247D01*
X95696Y267448D01*
X95274Y267026D01*
X95045Y266475D01*
Y265878D01*
X95274Y265327D01*
X95696Y264905D01*
X95918Y264813D01*
X99292Y261439D01*
X99292Y261439D01*
X99755Y261129D01*
X100301Y261021D01*
X100301Y261021D01*
X149354D01*
X149529Y260948D01*
X150126D01*
X150677Y261177D01*
X151099Y261598D01*
X151327Y262150D01*
Y262747D01*
X151099Y263298D01*
X150677Y263720D01*
X150126Y263948D01*
X149529D01*
X149354Y263876D01*
X100892D01*
X97870Y266898D01*
X97817Y267026D01*
X97395Y267448D01*
X96844Y267676D01*
D02*
G37*
G36*
X368332Y259776D02*
X367736D01*
X367184Y259547D01*
X366762Y259125D01*
X366534Y258574D01*
Y257977D01*
X366762Y257426D01*
X367184Y257004D01*
X367736Y256776D01*
X368332D01*
X368884Y257004D01*
X369306Y257426D01*
X369534Y257977D01*
Y258574D01*
X369306Y259125D01*
X368884Y259547D01*
X368332Y259776D01*
D02*
G37*
G36*
X364714Y259624D02*
X364117D01*
X363566Y259395D01*
X363144Y258973D01*
X362915Y258422D01*
Y257825D01*
X363144Y257274D01*
X363566Y256852D01*
X364117Y256624D01*
X364714D01*
X365265Y256852D01*
X365687Y257274D01*
X365915Y257825D01*
Y258422D01*
X365687Y258973D01*
X365265Y259395D01*
X364714Y259624D01*
D02*
G37*
G36*
X331157Y256821D02*
X330560D01*
X330009Y256592D01*
X329587Y256170D01*
X329359Y255619D01*
Y255022D01*
X329587Y254471D01*
X330009Y254049D01*
X330560Y253821D01*
X331157D01*
X331708Y254049D01*
X332130Y254471D01*
X332359Y255022D01*
Y255619D01*
X332130Y256170D01*
X331708Y256592D01*
X331157Y256821D01*
D02*
G37*
G36*
X372407Y255564D02*
X371811D01*
X371259Y255336D01*
X370837Y254914D01*
X370609Y254362D01*
Y253766D01*
X370837Y253214D01*
X371259Y252792D01*
X371811Y252564D01*
X372407D01*
X372959Y252792D01*
X373381Y253214D01*
X373609Y253766D01*
Y254362D01*
X373381Y254914D01*
X372959Y255336D01*
X372407Y255564D01*
D02*
G37*
G36*
X367918Y255502D02*
X367322D01*
X366770Y255274D01*
X366349Y254852D01*
X366120Y254300D01*
Y253703D01*
X366349Y253152D01*
X366770Y252730D01*
X367322Y252502D01*
X367918D01*
X368470Y252730D01*
X368892Y253152D01*
X369120Y253703D01*
Y254300D01*
X368892Y254852D01*
X368470Y255274D01*
X367918Y255502D01*
D02*
G37*
G36*
X370203Y252052D02*
X369606D01*
X369055Y251823D01*
X368633Y251401D01*
X368404Y250850D01*
Y250253D01*
X368633Y249702D01*
X369055Y249280D01*
X369606Y249052D01*
X370203D01*
X370754Y249280D01*
X371176Y249702D01*
X371404Y250253D01*
Y250850D01*
X371176Y251401D01*
X370754Y251823D01*
X370203Y252052D01*
D02*
G37*
G36*
X405407Y246564D02*
X404811D01*
X404259Y246336D01*
X403837Y245914D01*
X403825Y245883D01*
X403649Y245848D01*
X403351Y245649D01*
X399351Y241649D01*
X399152Y241351D01*
X399082Y241000D01*
Y235380D01*
X396926Y233223D01*
X396502Y233506D01*
X396609Y233766D01*
Y234362D01*
X396381Y234914D01*
X395959Y235336D01*
X395407Y235564D01*
X394811D01*
X394259Y235336D01*
X393837Y234914D01*
X393609Y234362D01*
Y233766D01*
X393837Y233214D01*
X394259Y232792D01*
X394811Y232564D01*
X395407D01*
X395667Y232671D01*
X395950Y232247D01*
X376620Y212918D01*
X272380D01*
X253964Y231334D01*
X254168Y231688D01*
X254400Y232552D01*
Y233448D01*
X254168Y234312D01*
X253721Y235088D01*
X253088Y235721D01*
X252312Y236168D01*
X251448Y236400D01*
X250552D01*
X249688Y236168D01*
X248912Y235721D01*
X248279Y235088D01*
X247832Y234312D01*
X247600Y233448D01*
Y232552D01*
X247832Y231688D01*
X248279Y230912D01*
X248912Y230279D01*
X249688Y229832D01*
X250552Y229600D01*
X251448D01*
X252312Y229832D01*
X252666Y230036D01*
X271351Y211351D01*
X271649Y211152D01*
X272000Y211082D01*
X377000D01*
X377351Y211152D01*
X377649Y211351D01*
X400649Y234351D01*
X400848Y234649D01*
X400918Y235000D01*
Y240620D01*
X404175Y243877D01*
X404259Y243792D01*
X404811Y243564D01*
X405407D01*
X405959Y243792D01*
X406381Y244214D01*
X406609Y244766D01*
Y245362D01*
X406381Y245914D01*
X405959Y246336D01*
X405407Y246564D01*
D02*
G37*
G36*
X249371Y264501D02*
X243453D01*
Y253071D01*
X246544D01*
Y251172D01*
X246544Y251172D01*
X246652Y250625D01*
X246962Y250162D01*
X248133Y248991D01*
X248133Y248991D01*
X248596Y248681D01*
X249143Y248573D01*
X274409D01*
X278138Y244843D01*
X277832Y244312D01*
X277600Y243448D01*
Y242552D01*
X277832Y241688D01*
X278279Y240912D01*
X278912Y240279D01*
X279688Y239832D01*
X280552Y239600D01*
X281448D01*
X282312Y239832D01*
X283088Y240279D01*
X283721Y240912D01*
X284168Y241688D01*
X284400Y242552D01*
Y243448D01*
X284168Y244312D01*
X283721Y245088D01*
X283088Y245721D01*
X282312Y246168D01*
X281448Y246400D01*
X280619D01*
X277019Y250000D01*
X279009Y251991D01*
X279009Y251991D01*
X279319Y252454D01*
X279415Y252937D01*
X280635D01*
Y264367D01*
X274717D01*
Y252937D01*
X275265D01*
X275456Y252475D01*
X274409Y251427D01*
X253043D01*
X252836Y251927D01*
X253036Y252127D01*
X253264Y252679D01*
Y253275D01*
X253036Y253827D01*
X252614Y254249D01*
X252063Y254477D01*
X251466D01*
X250915Y254249D01*
X250493Y253827D01*
X250264Y253275D01*
Y252679D01*
X250493Y252127D01*
X250692Y251927D01*
X250485Y251427D01*
X249734D01*
X249398Y251763D01*
Y257227D01*
X249371Y257365D01*
Y264501D01*
D02*
G37*
G36*
X271448Y246400D02*
X270552D01*
X269688Y246168D01*
X268912Y245721D01*
X268279Y245088D01*
X267832Y244312D01*
X267600Y243448D01*
Y242552D01*
X267832Y241688D01*
X268279Y240912D01*
X268912Y240279D01*
X269688Y239832D01*
X270552Y239600D01*
X271448D01*
X272312Y239832D01*
X273088Y240279D01*
X273721Y240912D01*
X274168Y241688D01*
X274400Y242552D01*
Y243448D01*
X274168Y244312D01*
X273721Y245088D01*
X273088Y245721D01*
X272312Y246168D01*
X271448Y246400D01*
D02*
G37*
G36*
X261448D02*
X260552D01*
X259688Y246168D01*
X258912Y245721D01*
X258279Y245088D01*
X257832Y244312D01*
X257600Y243448D01*
Y242552D01*
X257832Y241688D01*
X258279Y240912D01*
X258912Y240279D01*
X259688Y239832D01*
X260552Y239600D01*
X261448D01*
X262312Y239832D01*
X263088Y240279D01*
X263721Y240912D01*
X264168Y241688D01*
X264400Y242552D01*
Y243448D01*
X264168Y244312D01*
X263721Y245088D01*
X263088Y245721D01*
X262312Y246168D01*
X261448Y246400D01*
D02*
G37*
G36*
X241448D02*
X240552D01*
X239688Y246168D01*
X238912Y245721D01*
X238279Y245088D01*
X237832Y244312D01*
X237600Y243448D01*
Y242552D01*
X237832Y241688D01*
X238279Y240912D01*
X238912Y240279D01*
X239688Y239832D01*
X240552Y239600D01*
X241448D01*
X242312Y239832D01*
X243088Y240279D01*
X243721Y240912D01*
X244168Y241688D01*
X244400Y242552D01*
Y243448D01*
X244168Y244312D01*
X243721Y245088D01*
X243088Y245721D01*
X242312Y246168D01*
X241448Y246400D01*
D02*
G37*
G36*
X221448D02*
X220552D01*
X219688Y246168D01*
X218912Y245721D01*
X218279Y245088D01*
X217832Y244312D01*
X217600Y243448D01*
Y242552D01*
X217832Y241688D01*
X218279Y240912D01*
X218912Y240279D01*
X219688Y239832D01*
X220552Y239600D01*
X221448D01*
X222312Y239832D01*
X223088Y240279D01*
X223721Y240912D01*
X224168Y241688D01*
X224400Y242552D01*
Y243448D01*
X224168Y244312D01*
X223721Y245088D01*
X223088Y245721D01*
X222312Y246168D01*
X221448Y246400D01*
D02*
G37*
G36*
X141448D02*
X140552D01*
X139688Y246168D01*
X138912Y245721D01*
X138279Y245088D01*
X137832Y244312D01*
X137600Y243448D01*
Y242552D01*
X137832Y241688D01*
X138279Y240912D01*
X138912Y240279D01*
X139688Y239832D01*
X140552Y239600D01*
X141448D01*
X142312Y239832D01*
X143088Y240279D01*
X143721Y240912D01*
X144168Y241688D01*
X144400Y242552D01*
Y243448D01*
X144168Y244312D01*
X143721Y245088D01*
X143088Y245721D01*
X142312Y246168D01*
X141448Y246400D01*
D02*
G37*
G36*
X131448D02*
X130552D01*
X129688Y246168D01*
X128912Y245721D01*
X128279Y245088D01*
X127832Y244312D01*
X127600Y243448D01*
Y242552D01*
X127832Y241688D01*
X128279Y240912D01*
X128912Y240279D01*
X129688Y239832D01*
X130552Y239600D01*
X131448D01*
X132312Y239832D01*
X133088Y240279D01*
X133721Y240912D01*
X134168Y241688D01*
X134400Y242552D01*
Y243448D01*
X134168Y244312D01*
X133721Y245088D01*
X133088Y245721D01*
X132312Y246168D01*
X131448Y246400D01*
D02*
G37*
G36*
X101448D02*
X100552D01*
X99688Y246168D01*
X98912Y245721D01*
X98279Y245088D01*
X97832Y244312D01*
X97600Y243448D01*
Y242552D01*
X97832Y241688D01*
X98279Y240912D01*
X98912Y240279D01*
X99688Y239832D01*
X100552Y239600D01*
X101448D01*
X102312Y239832D01*
X103088Y240279D01*
X103721Y240912D01*
X104168Y241688D01*
X104400Y242552D01*
Y243448D01*
X104168Y244312D01*
X103721Y245088D01*
X103088Y245721D01*
X102312Y246168D01*
X101448Y246400D01*
D02*
G37*
G36*
X251448Y246400D02*
X250552D01*
X249688Y246168D01*
X248912Y245721D01*
X248279Y245088D01*
X247832Y244312D01*
X247600Y243448D01*
Y242552D01*
X247832Y241688D01*
X248279Y240912D01*
X248912Y240279D01*
X249688Y239832D01*
X250552Y239600D01*
X251448D01*
X252312Y239832D01*
X253088Y240279D01*
X253721Y240912D01*
X254168Y241688D01*
X254400Y242552D01*
Y243448D01*
X254168Y244312D01*
X253721Y245088D01*
X253088Y245721D01*
X252312Y246168D01*
X251448Y246400D01*
D02*
G37*
G36*
X211448D02*
X210552D01*
X209688Y246168D01*
X208912Y245721D01*
X208279Y245088D01*
X207832Y244312D01*
X207600Y243448D01*
Y242552D01*
X207832Y241688D01*
X208036Y241334D01*
X205451Y238749D01*
X205252Y238451D01*
X205182Y238100D01*
Y225480D01*
X184453Y204750D01*
X184254Y204453D01*
X184184Y204102D01*
Y164742D01*
X178455Y159013D01*
X73440D01*
X73030Y159424D01*
X72478Y159652D01*
X71882D01*
X71330Y159424D01*
X70908Y159002D01*
X70680Y158450D01*
Y157854D01*
X70908Y157302D01*
X71330Y156880D01*
X71882Y156652D01*
X72478D01*
X73030Y156880D01*
X73327Y157178D01*
X178836D01*
X179187Y157248D01*
X179484Y157447D01*
X185750Y163713D01*
X185949Y164011D01*
X186019Y164362D01*
Y203721D01*
X203215Y220918D01*
X203639Y220634D01*
X203500Y220298D01*
Y219702D01*
X203728Y219150D01*
X204082Y218796D01*
Y182380D01*
X189851Y168149D01*
X189652Y167851D01*
X189582Y167500D01*
Y161880D01*
X177857Y150155D01*
X177427Y149931D01*
X177005Y150353D01*
X176454Y150582D01*
X175857D01*
X175306Y150353D01*
X174884Y149931D01*
X174655Y149380D01*
Y148783D01*
X174884Y148232D01*
X175306Y147810D01*
X175857Y147582D01*
X176454D01*
X177005Y147810D01*
X177277Y148082D01*
X178000D01*
X178351Y148152D01*
X178649Y148351D01*
X191149Y160851D01*
X191348Y161149D01*
X191418Y161500D01*
Y167120D01*
X205649Y181351D01*
X205848Y181649D01*
X205918Y182000D01*
Y218796D01*
X206272Y219150D01*
X206500Y219702D01*
Y220298D01*
X206272Y220850D01*
X205850Y221272D01*
X205298Y221500D01*
X204702D01*
X204366Y221361D01*
X204082Y221785D01*
X206749Y224451D01*
X206948Y224749D01*
X207018Y225100D01*
Y237720D01*
X209334Y240036D01*
X209688Y239832D01*
X210552Y239600D01*
X211448D01*
X212312Y239832D01*
X213088Y240279D01*
X213721Y240912D01*
X214168Y241688D01*
X214400Y242552D01*
Y243448D01*
X214168Y244312D01*
X213721Y245088D01*
X213088Y245721D01*
X212312Y246168D01*
X211448Y246400D01*
D02*
G37*
G36*
X158000Y249918D02*
X149000D01*
X148649Y249848D01*
X148351Y249649D01*
X145351Y246649D01*
X145152Y246351D01*
X145082Y246000D01*
Y229000D01*
X145152Y228649D01*
X145351Y228351D01*
X165082Y208620D01*
Y180500D01*
X164702D01*
X164150Y180272D01*
X163728Y179850D01*
X163500Y179298D01*
Y178932D01*
X65372D01*
X65021Y178862D01*
X64723Y178663D01*
X59782Y173722D01*
X59583Y173424D01*
X59514Y173073D01*
Y166733D01*
X59341Y166560D01*
X59165Y166135D01*
X58665Y166235D01*
Y167537D01*
X58582Y167953D01*
X58346Y168305D01*
X58346Y168305D01*
X56511Y170140D01*
Y177298D01*
X101769Y222555D01*
X102004Y222908D01*
X102087Y223324D01*
X102087Y223324D01*
Y229771D01*
X102312Y229832D01*
X103088Y230279D01*
X103721Y230912D01*
X104168Y231688D01*
X104400Y232552D01*
Y233448D01*
X104168Y234312D01*
X103721Y235088D01*
X103088Y235721D01*
X102312Y236168D01*
X101448Y236400D01*
X100552D01*
X99688Y236168D01*
X98912Y235721D01*
X98279Y235088D01*
X97832Y234312D01*
X97600Y233448D01*
Y232552D01*
X97832Y231688D01*
X98279Y230912D01*
X98912Y230279D01*
X99688Y229832D01*
X99913Y229771D01*
Y223774D01*
X54656Y178517D01*
X54420Y178164D01*
X54337Y177748D01*
Y169690D01*
X54420Y169274D01*
X54656Y168921D01*
X56490Y167086D01*
Y165485D01*
X56393Y165388D01*
X56164Y164836D01*
Y164240D01*
X56393Y163688D01*
X56815Y163266D01*
X57366Y163038D01*
X57963D01*
X58514Y163266D01*
X58936Y163688D01*
X59164Y164240D01*
Y164330D01*
X59664Y164538D01*
X59763Y164439D01*
X60314Y164211D01*
X60911D01*
X61462Y164439D01*
X61884Y164861D01*
X62112Y165412D01*
Y166009D01*
X61884Y166560D01*
X61462Y166982D01*
X61349Y167029D01*
Y172693D01*
X65752Y177096D01*
X163914D01*
X164265Y177166D01*
X164563Y177365D01*
X164699Y177501D01*
X164702Y177500D01*
X165298D01*
X165850Y177728D01*
X166272Y178150D01*
X166500Y178702D01*
Y179288D01*
X166649Y179437D01*
X166848Y179735D01*
X166918Y180086D01*
Y209000D01*
X166848Y209351D01*
X166649Y209649D01*
X146918Y229380D01*
Y245620D01*
X149380Y248082D01*
X157620D01*
X159189Y246513D01*
Y245881D01*
X158912Y245721D01*
X158279Y245088D01*
X157832Y244312D01*
X157600Y243448D01*
Y242552D01*
X157832Y241688D01*
X158279Y240912D01*
X158912Y240279D01*
X159688Y239832D01*
X160552Y239600D01*
X161448D01*
X162312Y239832D01*
X163088Y240279D01*
X163721Y240912D01*
X164168Y241688D01*
X164400Y242552D01*
Y243448D01*
X164168Y244312D01*
X163721Y245088D01*
X163088Y245721D01*
X162312Y246168D01*
X161448Y246400D01*
X161024D01*
Y246893D01*
X160955Y247244D01*
X160756Y247542D01*
X158649Y249649D01*
X158351Y249848D01*
X158000Y249918D01*
D02*
G37*
G36*
X121448Y246400D02*
X120552D01*
X119688Y246168D01*
X118912Y245721D01*
X118279Y245088D01*
X117832Y244312D01*
X117600Y243448D01*
Y242552D01*
X117832Y241688D01*
X118279Y240912D01*
X118912Y240279D01*
X119688Y239832D01*
X120552Y239600D01*
X121448D01*
X122312Y239832D01*
X123088Y240279D01*
X123721Y240912D01*
X124168Y241688D01*
X124400Y242552D01*
Y243448D01*
X124168Y244312D01*
X123721Y245088D01*
X123088Y245721D01*
X122312Y246168D01*
X121448Y246400D01*
D02*
G37*
G36*
X111448D02*
X110552D01*
X109688Y246168D01*
X108912Y245721D01*
X108279Y245088D01*
X107832Y244312D01*
X107600Y243448D01*
Y242552D01*
X107832Y241688D01*
X108279Y240912D01*
X108912Y240279D01*
X109688Y239832D01*
X110552Y239600D01*
X111448D01*
X112312Y239832D01*
X113088Y240279D01*
X113721Y240912D01*
X114168Y241688D01*
X114400Y242552D01*
Y243448D01*
X114168Y244312D01*
X113721Y245088D01*
X113088Y245721D01*
X112312Y246168D01*
X111448Y246400D01*
D02*
G37*
G36*
X151448Y246400D02*
X150552D01*
X149688Y246168D01*
X148912Y245721D01*
X148279Y245088D01*
X147832Y244312D01*
X147600Y243448D01*
Y242552D01*
X147832Y241688D01*
X148279Y240912D01*
X148912Y240279D01*
X149688Y239832D01*
X150552Y239600D01*
X151448D01*
X152312Y239832D01*
X152666Y240036D01*
X154552Y238151D01*
X154541Y238095D01*
Y234667D01*
X154041Y234533D01*
X153721Y235088D01*
X153088Y235721D01*
X152312Y236168D01*
X151448Y236400D01*
X150552D01*
X149688Y236168D01*
X148912Y235721D01*
X148279Y235088D01*
X147832Y234312D01*
X147600Y233448D01*
Y232552D01*
X147832Y231688D01*
X148279Y230912D01*
X148912Y230279D01*
X149688Y229832D01*
X150552Y229600D01*
X151448D01*
X152312Y229832D01*
X153088Y230279D01*
X153721Y230912D01*
X154041Y231467D01*
X154541Y231333D01*
Y226847D01*
X154611Y226496D01*
X154810Y226198D01*
X169981Y211027D01*
Y177316D01*
X169509Y176845D01*
X169130D01*
X168579Y176616D01*
X168157Y176195D01*
X167929Y175643D01*
Y175233D01*
X167467Y174771D01*
X70017D01*
X69666Y174701D01*
X69369Y174502D01*
X63316Y168449D01*
X63117Y168151D01*
X63047Y167800D01*
Y166818D01*
X63049Y166807D01*
X62947Y166706D01*
X62719Y166155D01*
Y165558D01*
X62947Y165007D01*
X63369Y164585D01*
X63921Y164356D01*
X64517D01*
X65069Y164585D01*
X65491Y165007D01*
X65719Y165558D01*
Y166155D01*
X65491Y166706D01*
X65161Y167036D01*
X65100Y167498D01*
X65113Y167651D01*
X70398Y172936D01*
X167847D01*
X168198Y173005D01*
X168496Y173204D01*
X169136Y173845D01*
X169727D01*
X170279Y174073D01*
X170700Y174495D01*
X170929Y175046D01*
Y175643D01*
X170921Y175662D01*
X171547Y176287D01*
X171746Y176585D01*
X171816Y176936D01*
Y211407D01*
X171746Y211758D01*
X171547Y212056D01*
X156376Y227227D01*
Y237887D01*
X156426Y238137D01*
Y238492D01*
X156356Y238843D01*
X156157Y239141D01*
X153964Y241334D01*
X154168Y241688D01*
X154400Y242552D01*
Y243448D01*
X154168Y244312D01*
X153721Y245088D01*
X153088Y245721D01*
X152312Y246168D01*
X151448Y246400D01*
D02*
G37*
G36*
X383407Y235564D02*
X382811D01*
X382259Y235336D01*
X381837Y234914D01*
X381609Y234362D01*
Y233766D01*
X381837Y233214D01*
X382259Y232792D01*
X382811Y232564D01*
X383407D01*
X383959Y232792D01*
X384381Y233214D01*
X384609Y233766D01*
Y234362D01*
X384381Y234914D01*
X383959Y235336D01*
X383407Y235564D01*
D02*
G37*
G36*
X261448Y236400D02*
X260552D01*
X259688Y236168D01*
X258912Y235721D01*
X258279Y235088D01*
X257832Y234312D01*
X257600Y233448D01*
Y232552D01*
X257832Y231688D01*
X258279Y230912D01*
X258912Y230279D01*
X259688Y229832D01*
X260552Y229600D01*
X261448D01*
X262312Y229832D01*
X263088Y230279D01*
X263721Y230912D01*
X264168Y231688D01*
X264400Y232552D01*
Y233448D01*
X264168Y234312D01*
X263721Y235088D01*
X263088Y235721D01*
X262312Y236168D01*
X261448Y236400D01*
D02*
G37*
G36*
X297366Y262532D02*
X286724D01*
Y255039D01*
X289573D01*
Y246102D01*
X288912Y245721D01*
X288279Y245088D01*
X287832Y244312D01*
X287600Y243448D01*
Y242552D01*
X287832Y241688D01*
X288279Y240912D01*
X288912Y240279D01*
X289573Y239898D01*
Y236102D01*
X288912Y235721D01*
X288279Y235088D01*
X287832Y234312D01*
X287600Y233448D01*
Y232552D01*
X287832Y231688D01*
X288279Y230912D01*
X288912Y230279D01*
X289688Y229832D01*
X290552Y229600D01*
X291448D01*
X292312Y229832D01*
X293088Y230279D01*
X293721Y230912D01*
X294168Y231688D01*
X294400Y232552D01*
Y233448D01*
X294168Y234312D01*
X293721Y235088D01*
X293088Y235721D01*
X292427Y236102D01*
Y239898D01*
X293088Y240279D01*
X293721Y240912D01*
X294168Y241688D01*
X294400Y242552D01*
Y243448D01*
X294168Y244312D01*
X293721Y245088D01*
X293088Y245721D01*
X292427Y246102D01*
Y255039D01*
X297366D01*
Y262532D01*
D02*
G37*
G36*
X271448Y236400D02*
X270552D01*
X269688Y236168D01*
X268912Y235721D01*
X268279Y235088D01*
X267832Y234312D01*
X267600Y233448D01*
Y232552D01*
X267832Y231688D01*
X268279Y230912D01*
X268912Y230279D01*
X269688Y229832D01*
X270552Y229600D01*
X271448D01*
X272312Y229832D01*
X273088Y230279D01*
X273721Y230912D01*
X274168Y231688D01*
X274400Y232552D01*
Y233448D01*
X274168Y234312D01*
X273721Y235088D01*
X273088Y235721D01*
X272312Y236168D01*
X271448Y236400D01*
D02*
G37*
G36*
X231448D02*
X230552D01*
X229688Y236168D01*
X228912Y235721D01*
X228279Y235088D01*
X227832Y234312D01*
X227600Y233448D01*
Y232552D01*
X227832Y231688D01*
X228279Y230912D01*
X228912Y230279D01*
X229688Y229832D01*
X230552Y229600D01*
X231448D01*
X232312Y229832D01*
X233088Y230279D01*
X233721Y230912D01*
X234168Y231688D01*
X234400Y232552D01*
Y233448D01*
X234168Y234312D01*
X233721Y235088D01*
X233088Y235721D01*
X232312Y236168D01*
X231448Y236400D01*
D02*
G37*
G36*
X211448D02*
X210552D01*
X209688Y236168D01*
X208912Y235721D01*
X208279Y235088D01*
X207832Y234312D01*
X207600Y233448D01*
Y232552D01*
X207832Y231688D01*
X208279Y230912D01*
X208912Y230279D01*
X209688Y229832D01*
X210552Y229600D01*
X211448D01*
X212312Y229832D01*
X213088Y230279D01*
X213721Y230912D01*
X214168Y231688D01*
X214400Y232552D01*
Y233448D01*
X214168Y234312D01*
X213721Y235088D01*
X213088Y235721D01*
X212312Y236168D01*
X211448Y236400D01*
D02*
G37*
G36*
X191448D02*
X190552D01*
X189688Y236168D01*
X188912Y235721D01*
X188279Y235088D01*
X187832Y234312D01*
X187600Y233448D01*
Y232552D01*
X187832Y231688D01*
X188279Y230912D01*
X188912Y230279D01*
X189688Y229832D01*
X190552Y229600D01*
X191448D01*
X192312Y229832D01*
X193088Y230279D01*
X193721Y230912D01*
X194168Y231688D01*
X194400Y232552D01*
Y233448D01*
X194168Y234312D01*
X193721Y235088D01*
X193088Y235721D01*
X192312Y236168D01*
X191448Y236400D01*
D02*
G37*
G36*
X181448D02*
X180552D01*
X179688Y236168D01*
X178912Y235721D01*
X178279Y235088D01*
X177832Y234312D01*
X177600Y233448D01*
Y232552D01*
X177832Y231688D01*
X178279Y230912D01*
X178912Y230279D01*
X179688Y229832D01*
X180552Y229600D01*
X181448D01*
X182312Y229832D01*
X183088Y230279D01*
X183721Y230912D01*
X184168Y231688D01*
X184400Y232552D01*
Y233448D01*
X184168Y234312D01*
X183721Y235088D01*
X183088Y235721D01*
X182312Y236168D01*
X181448Y236400D01*
D02*
G37*
G36*
X131448D02*
X130552D01*
X129688Y236168D01*
X128912Y235721D01*
X128279Y235088D01*
X127832Y234312D01*
X127600Y233448D01*
Y232552D01*
X127832Y231688D01*
X128279Y230912D01*
X128912Y230279D01*
X129688Y229832D01*
X130552Y229600D01*
X131448D01*
X132312Y229832D01*
X133088Y230279D01*
X133721Y230912D01*
X134168Y231688D01*
X134400Y232552D01*
Y233448D01*
X134168Y234312D01*
X133721Y235088D01*
X133088Y235721D01*
X132312Y236168D01*
X131448Y236400D01*
D02*
G37*
G36*
X121448D02*
X120552D01*
X119688Y236168D01*
X118912Y235721D01*
X118279Y235088D01*
X117832Y234312D01*
X117600Y233448D01*
Y232552D01*
X117832Y231688D01*
X118279Y230912D01*
X118912Y230279D01*
X119688Y229832D01*
X120552Y229600D01*
X121448D01*
X122312Y229832D01*
X123088Y230279D01*
X123721Y230912D01*
X124168Y231688D01*
X124400Y232552D01*
Y233448D01*
X124168Y234312D01*
X123721Y235088D01*
X123088Y235721D01*
X122312Y236168D01*
X121448Y236400D01*
D02*
G37*
G36*
X111448D02*
X110552D01*
X109688Y236168D01*
X108912Y235721D01*
X108279Y235088D01*
X107832Y234312D01*
X107600Y233448D01*
Y232552D01*
X107832Y231688D01*
X108279Y230912D01*
X108912Y230279D01*
X109688Y229832D01*
X110552Y229600D01*
X111448D01*
X112312Y229832D01*
X113088Y230279D01*
X113721Y230912D01*
X114168Y231688D01*
X114400Y232552D01*
Y233448D01*
X114168Y234312D01*
X113721Y235088D01*
X113088Y235721D01*
X112312Y236168D01*
X111448Y236400D01*
D02*
G37*
G36*
X321992Y250605D02*
X320008D01*
X318048Y250294D01*
X316161Y249681D01*
X314394Y248780D01*
X312789Y247614D01*
X311386Y246211D01*
X310220Y244606D01*
X309319Y242839D01*
X308706Y240952D01*
X308395Y238992D01*
Y237008D01*
X308706Y235048D01*
X309319Y233161D01*
X310220Y231394D01*
X311386Y229789D01*
X312789Y228386D01*
X314394Y227220D01*
X316161Y226319D01*
X318048Y225706D01*
X320008Y225395D01*
X321992D01*
X323952Y225706D01*
X325838Y226319D01*
X327606Y227220D01*
X329211Y228386D01*
X330614Y229789D01*
X331781Y231394D01*
X332681Y233161D01*
X333294Y235048D01*
X333605Y237008D01*
Y238992D01*
X333294Y240952D01*
X332681Y242839D01*
X331781Y244606D01*
X330614Y246211D01*
X329211Y247614D01*
X327606Y248780D01*
X325838Y249681D01*
X323952Y250294D01*
X321992Y250605D01*
D02*
G37*
G36*
X174769Y319046D02*
X174172D01*
X173621Y318818D01*
X173199Y318396D01*
X172970Y317845D01*
Y317344D01*
X159375Y303748D01*
X159295Y303630D01*
D01*
X159176Y303451D01*
X159106Y303100D01*
Y290000D01*
Y253850D01*
X159176Y253499D01*
X159375Y253202D01*
X165214Y247362D01*
Y239302D01*
X165284Y238951D01*
X165483Y238653D01*
X166498Y237637D01*
X166796Y237439D01*
X167147Y237369D01*
X183030D01*
X185077Y235322D01*
Y225886D01*
X184910Y225817D01*
X184488Y225395D01*
X184260Y224843D01*
Y224247D01*
X184488Y223695D01*
X184910Y223273D01*
X185462Y223045D01*
X186058D01*
X186610Y223273D01*
X187032Y223695D01*
X187260Y224247D01*
Y224843D01*
X187032Y225395D01*
X186913Y225514D01*
Y235702D01*
X186843Y236053D01*
X186644Y236351D01*
X184060Y238935D01*
X183762Y239134D01*
X183411Y239204D01*
X181902D01*
X181836Y239704D01*
X182312Y239832D01*
X183088Y240279D01*
X183721Y240912D01*
X184168Y241688D01*
X184400Y242552D01*
Y243448D01*
X184168Y244312D01*
X183721Y245088D01*
X183088Y245721D01*
X182312Y246168D01*
X181448Y246400D01*
X180552D01*
X179688Y246168D01*
X178912Y245721D01*
X178279Y245088D01*
X177832Y244312D01*
X177600Y243448D01*
Y242552D01*
X177832Y241688D01*
X178279Y240912D01*
X178912Y240279D01*
X179688Y239832D01*
X180164Y239704D01*
X180098Y239204D01*
X171902D01*
X171836Y239704D01*
X172312Y239832D01*
X173088Y240279D01*
X173721Y240912D01*
X174168Y241688D01*
X174400Y242552D01*
Y243448D01*
X174168Y244312D01*
X173721Y245088D01*
X173088Y245721D01*
X172312Y246168D01*
X171448Y246400D01*
X170552D01*
X169688Y246168D01*
X168912Y245721D01*
X168279Y245088D01*
X167832Y244312D01*
X167600Y243448D01*
Y242552D01*
X167832Y241688D01*
X168279Y240912D01*
X168912Y240279D01*
X169688Y239832D01*
X170164Y239704D01*
X170098Y239204D01*
X167527D01*
X167049Y239682D01*
Y247742D01*
X166979Y248094D01*
X166780Y248391D01*
X160941Y254230D01*
Y302719D01*
X174268Y316047D01*
X174769D01*
X175320Y316275D01*
X175742Y316697D01*
X175970Y317248D01*
Y317845D01*
X175742Y318396D01*
X175320Y318818D01*
X174769Y319046D01*
D02*
G37*
G36*
X381328Y255975D02*
X380731D01*
X380180Y255747D01*
X379758Y255325D01*
X379655Y255075D01*
X342460Y217880D01*
X287514D01*
Y218909D01*
X288455D01*
Y225417D01*
X283718D01*
Y223587D01*
X282011D01*
Y225215D01*
X281070D01*
Y229600D01*
X281448D01*
X282312Y229832D01*
X283088Y230279D01*
X283721Y230912D01*
X284168Y231688D01*
X284400Y232552D01*
Y233448D01*
X284168Y234312D01*
X283721Y235088D01*
X283088Y235721D01*
X282312Y236168D01*
X281448Y236400D01*
X280552D01*
X279688Y236168D01*
X278912Y235721D01*
X278279Y235088D01*
X277832Y234312D01*
X277600Y233448D01*
Y232552D01*
X277832Y231688D01*
X278279Y230912D01*
X278284Y230908D01*
X278215Y230560D01*
X278215Y230560D01*
Y225215D01*
X277274D01*
Y218706D01*
X282011D01*
Y220732D01*
X283718D01*
Y218909D01*
X284659D01*
Y217039D01*
X284659Y217039D01*
X284768Y216493D01*
X285078Y216029D01*
X285663Y215444D01*
X285663Y215444D01*
X286126Y215134D01*
X286673Y215025D01*
X343052D01*
X343052Y215025D01*
X343598Y215134D01*
X344061Y215444D01*
X381779Y253162D01*
X381879Y253204D01*
X382301Y253625D01*
X382530Y254177D01*
Y254773D01*
X382301Y255325D01*
X381879Y255747D01*
X381328Y255975D01*
D02*
G37*
G36*
X129097Y218838D02*
X128500D01*
X127949Y218610D01*
X127527Y218188D01*
X127299Y217636D01*
Y217517D01*
X127299Y217502D01*
X126826Y217437D01*
X126809Y217477D01*
X126597Y217988D01*
X126175Y218410D01*
X125624Y218638D01*
X125027D01*
X124476Y218410D01*
X124054Y217988D01*
X123826Y217437D01*
Y216840D01*
X124054Y216289D01*
X124476Y215867D01*
X125027Y215638D01*
X125624D01*
X126175Y215867D01*
X126597Y216289D01*
X126826Y216840D01*
Y216959D01*
X126826Y216975D01*
X127299Y217040D01*
X127315Y216999D01*
X127527Y216488D01*
X127949Y216066D01*
X128500Y215838D01*
X129097D01*
X129648Y216066D01*
X130070Y216488D01*
X130299Y217040D01*
Y217636D01*
X130070Y218188D01*
X129648Y218610D01*
X129097Y218838D01*
D02*
G37*
G36*
X61992Y238105D02*
X60008D01*
X58048Y237794D01*
X56161Y237181D01*
X54394Y236280D01*
X52789Y235114D01*
X51386Y233711D01*
X50220Y232106D01*
X49319Y230339D01*
X48706Y228452D01*
X48395Y226492D01*
Y224508D01*
X48706Y222548D01*
X49319Y220661D01*
X50220Y218894D01*
X51386Y217289D01*
X52789Y215886D01*
X54394Y214720D01*
X56161Y213819D01*
X58048Y213206D01*
X60008Y212895D01*
X61992D01*
X63952Y213206D01*
X65838Y213819D01*
X67606Y214720D01*
X69211Y215886D01*
X70614Y217289D01*
X71781Y218894D01*
X72681Y220661D01*
X73294Y222548D01*
X73605Y224508D01*
Y226492D01*
X73294Y228452D01*
X72681Y230339D01*
X71781Y232106D01*
X70614Y233711D01*
X69211Y235114D01*
X67606Y236280D01*
X65838Y237181D01*
X63952Y237794D01*
X61992Y238105D01*
D02*
G37*
G36*
X55298Y185500D02*
X54702D01*
X54150Y185272D01*
X53728Y184850D01*
X53500Y184298D01*
Y183702D01*
X53728Y183150D01*
X54150Y182728D01*
X54702Y182500D01*
X55298D01*
X55850Y182728D01*
X56272Y183150D01*
X56500Y183702D01*
Y184298D01*
X56272Y184850D01*
X55850Y185272D01*
X55298Y185500D01*
D02*
G37*
G36*
X89973Y185363D02*
X89376D01*
X88825Y185134D01*
X88403Y184712D01*
X88175Y184161D01*
Y183564D01*
X88403Y183013D01*
X88825Y182591D01*
X89376Y182362D01*
X89973D01*
X90524Y182591D01*
X90946Y183013D01*
X91175Y183564D01*
Y184161D01*
X90946Y184712D01*
X90524Y185134D01*
X89973Y185363D01*
D02*
G37*
G36*
X155191Y216386D02*
X154594D01*
X154043Y216157D01*
X153621Y215735D01*
X153393Y215184D01*
Y214587D01*
X153621Y214036D01*
X153975Y213682D01*
Y183097D01*
X153728Y182850D01*
X153500Y182298D01*
Y181702D01*
X153728Y181150D01*
X154150Y180728D01*
X154702Y180500D01*
X155298D01*
X155850Y180728D01*
X156272Y181150D01*
X156500Y181702D01*
Y182298D01*
X156272Y182850D01*
X155850Y183272D01*
X155810Y183288D01*
Y213682D01*
X156164Y214036D01*
X156393Y214587D01*
Y215184D01*
X156164Y215735D01*
X155742Y216157D01*
X155191Y216386D01*
D02*
G37*
G36*
X231448Y246400D02*
X230552D01*
X229688Y246168D01*
X228912Y245721D01*
X228279Y245088D01*
X227832Y244312D01*
X227600Y243448D01*
Y242552D01*
X227832Y241688D01*
X228279Y240912D01*
X228912Y240279D01*
X229688Y239832D01*
X230552Y239600D01*
X231448D01*
X232312Y239832D01*
X232666Y240036D01*
X235082Y237620D01*
Y221380D01*
X222351Y208649D01*
X222152Y208351D01*
X222082Y208000D01*
Y177598D01*
X221959Y177474D01*
X221730Y176923D01*
Y176327D01*
X221959Y175775D01*
X222381Y175353D01*
X222932Y175125D01*
X223529D01*
X224080Y175353D01*
X224502Y175775D01*
X224730Y176327D01*
Y176923D01*
X224502Y177474D01*
X224080Y177896D01*
X223918Y177964D01*
Y207620D01*
X236649Y220351D01*
X236848Y220649D01*
X236918Y221000D01*
Y238000D01*
X236848Y238351D01*
X236649Y238649D01*
X233964Y241334D01*
X234168Y241688D01*
X234400Y242552D01*
Y243448D01*
X234168Y244312D01*
X233721Y245088D01*
X233088Y245721D01*
X232312Y246168D01*
X231448Y246400D01*
D02*
G37*
G36*
X161448Y236400D02*
X160552D01*
X159688Y236168D01*
X158912Y235721D01*
X158279Y235088D01*
X157832Y234312D01*
X157600Y233448D01*
Y232552D01*
X157832Y231688D01*
X158279Y230912D01*
X158912Y230279D01*
X159688Y229832D01*
X160552Y229600D01*
X160976D01*
Y229531D01*
X161045Y229180D01*
X161244Y228882D01*
X162500Y227626D01*
X162730Y227473D01*
X175126Y215076D01*
Y173424D01*
X174202Y172500D01*
X173702D01*
X173150Y172272D01*
X172728Y171850D01*
X172500Y171298D01*
Y170702D01*
X172551Y170578D01*
X171746Y169773D01*
X171547Y169475D01*
X171540Y169440D01*
X171263Y169163D01*
X126640D01*
X126433Y169663D01*
X126680Y169910D01*
X126908Y170461D01*
Y171058D01*
X126680Y171609D01*
X126258Y172031D01*
X125707Y172260D01*
X125110D01*
X124559Y172031D01*
X124137Y171609D01*
X123908Y171058D01*
Y170461D01*
X124137Y169910D01*
X124383Y169663D01*
X124176Y169163D01*
X70764D01*
X70413Y169093D01*
X70116Y168895D01*
X68157Y166936D01*
X67656D01*
X67105Y166707D01*
X66683Y166285D01*
X66455Y165734D01*
Y165137D01*
X66683Y164586D01*
X67105Y164164D01*
X67656Y163936D01*
X68253D01*
X68804Y164164D01*
X69226Y164586D01*
X69455Y165137D01*
Y165638D01*
X71145Y167328D01*
X171643D01*
X171994Y167398D01*
X172292Y167597D01*
X173043Y168348D01*
X173242Y168646D01*
X173249Y168681D01*
X174068Y169500D01*
X174298D01*
X174850Y169728D01*
X175272Y170150D01*
X175500Y170702D01*
Y171202D01*
X176692Y172395D01*
X176891Y172693D01*
X176961Y173044D01*
Y215457D01*
X176891Y215808D01*
X176692Y216106D01*
X163874Y228924D01*
X163645Y229077D01*
X163038Y229683D01*
X163088Y230279D01*
X163721Y230912D01*
X164168Y231688D01*
X164400Y232552D01*
Y233448D01*
X164168Y234312D01*
X163721Y235088D01*
X163088Y235721D01*
X162312Y236168D01*
X161448Y236400D01*
D02*
G37*
G36*
X171448D02*
X170552D01*
X169688Y236168D01*
X168912Y235721D01*
X168279Y235088D01*
X167832Y234312D01*
X167600Y233448D01*
Y232552D01*
X167832Y231688D01*
X168279Y230912D01*
X168912Y230279D01*
X169688Y229832D01*
X170552Y229600D01*
X171448D01*
X172312Y229832D01*
X172666Y230036D01*
X180480Y222222D01*
Y194515D01*
X180351Y194386D01*
X180152Y194089D01*
X180082Y193738D01*
Y166204D01*
X179728Y165850D01*
X179500Y165298D01*
Y164702D01*
X179728Y164150D01*
X180150Y163728D01*
X180702Y163500D01*
X181298D01*
X181850Y163728D01*
X182272Y164150D01*
X182500Y164702D01*
Y165298D01*
X182272Y165850D01*
X181918Y166204D01*
Y193358D01*
X182047Y193486D01*
X182246Y193784D01*
X182315Y194135D01*
Y222602D01*
X182246Y222954D01*
X182047Y223251D01*
X173964Y231334D01*
X174168Y231688D01*
X174400Y232552D01*
Y233448D01*
X174168Y234312D01*
X173721Y235088D01*
X173088Y235721D01*
X172312Y236168D01*
X171448Y236400D01*
D02*
G37*
G36*
X255233Y163067D02*
X254636D01*
X254085Y162839D01*
X253663Y162417D01*
X253435Y161866D01*
Y161269D01*
X253663Y160718D01*
X253907Y160474D01*
X254073Y160264D01*
X253912Y159826D01*
X253774Y159688D01*
X253546Y159136D01*
Y158540D01*
X253774Y157988D01*
X254196Y157566D01*
X254747Y157338D01*
X255344D01*
X255895Y157566D01*
X256317Y157988D01*
X256546Y158540D01*
Y159136D01*
X256317Y159688D01*
X256073Y159932D01*
X255907Y160141D01*
X256068Y160579D01*
X256206Y160718D01*
X256435Y161269D01*
Y161866D01*
X256206Y162417D01*
X255784Y162839D01*
X255233Y163067D01*
D02*
G37*
G36*
X55998Y152736D02*
X55402D01*
X54850Y152508D01*
X54428Y152086D01*
X54200Y151534D01*
Y150938D01*
X54428Y150386D01*
X54850Y149964D01*
X55402Y149736D01*
X55998D01*
X56550Y149964D01*
X56972Y150386D01*
X57200Y150938D01*
Y151534D01*
X56972Y152086D01*
X56550Y152508D01*
X55998Y152736D01*
D02*
G37*
G36*
X125851Y147258D02*
X125254D01*
X124703Y147030D01*
X124281Y146608D01*
X124052Y146057D01*
Y145460D01*
X124281Y144909D01*
X124703Y144487D01*
X125254Y144258D01*
X125851D01*
X126402Y144487D01*
X126824Y144909D01*
X127052Y145460D01*
Y146057D01*
X126824Y146608D01*
X126402Y147030D01*
X125851Y147258D01*
D02*
G37*
G36*
X205298Y146500D02*
X204702D01*
X204150Y146272D01*
X203728Y145850D01*
X203500Y145298D01*
Y144702D01*
X203728Y144150D01*
X204150Y143728D01*
X204702Y143500D01*
X205298D01*
X205850Y143728D01*
X206272Y144150D01*
X206500Y144702D01*
Y145298D01*
X206272Y145850D01*
X205850Y146272D01*
X205298Y146500D01*
D02*
G37*
G36*
X56298Y142500D02*
X55702D01*
X55150Y142272D01*
X54728Y141850D01*
X54500Y141298D01*
Y140702D01*
X54728Y140150D01*
X55150Y139728D01*
X55702Y139500D01*
X56298D01*
X56850Y139728D01*
X57272Y140150D01*
X57500Y140702D01*
Y141298D01*
X57272Y141850D01*
X56850Y142272D01*
X56298Y142500D01*
D02*
G37*
G36*
X255090Y138036D02*
X254493D01*
X253942Y137808D01*
X253520Y137386D01*
X253292Y136835D01*
Y136238D01*
X253520Y135687D01*
X253630Y135576D01*
X253635Y134892D01*
X253609Y134866D01*
X253380Y134315D01*
Y133718D01*
X253609Y133166D01*
X254031Y132745D01*
X254582Y132516D01*
X255179D01*
X255730Y132745D01*
X256152Y133166D01*
X256380Y133718D01*
Y134315D01*
X256152Y134866D01*
X256042Y134976D01*
X256037Y135661D01*
X256063Y135687D01*
X256292Y136238D01*
Y136835D01*
X256063Y137386D01*
X255641Y137808D01*
X255090Y138036D01*
D02*
G37*
G36*
X211076Y122485D02*
X210479D01*
X209928Y122256D01*
X209506Y121834D01*
X209278Y121283D01*
Y120686D01*
X209506Y120135D01*
X209928Y119713D01*
X210479Y119485D01*
X211076D01*
X211627Y119713D01*
X212049Y120135D01*
X212278Y120686D01*
Y121283D01*
X212049Y121834D01*
X211627Y122256D01*
X211076Y122485D01*
D02*
G37*
G36*
X223913Y168472D02*
X223317D01*
X222765Y168244D01*
X222343Y167822D01*
X222167Y167396D01*
X222153Y167375D01*
X222148Y167351D01*
X222115Y167270D01*
Y167183D01*
X222045Y166829D01*
X222045Y166829D01*
Y164472D01*
X222104Y164174D01*
Y163733D01*
X222177Y163558D01*
Y158195D01*
X216991Y153009D01*
X216681Y152546D01*
X216573Y152000D01*
X216573Y152000D01*
Y125107D01*
X216573Y125107D01*
X216681Y124561D01*
X216991Y124098D01*
X223191Y117897D01*
X223264Y117721D01*
X223686Y117299D01*
X223894Y117213D01*
X224870Y116237D01*
X224943Y116062D01*
X225365Y115640D01*
X225916Y115411D01*
X226513D01*
X227064Y115640D01*
X227486Y116062D01*
X227715Y116613D01*
Y117210D01*
X227486Y117761D01*
X227064Y118183D01*
X226889Y118256D01*
X225866Y119279D01*
X225807Y119421D01*
X225385Y119843D01*
X225210Y119915D01*
X219427Y125698D01*
Y151409D01*
X224613Y156595D01*
X224613Y156595D01*
X224923Y157058D01*
X225031Y157604D01*
X225031Y157604D01*
Y163558D01*
X225104Y163733D01*
Y164330D01*
X224900Y164823D01*
Y166153D01*
X225115Y166674D01*
Y167270D01*
X224887Y167822D01*
X224465Y168244D01*
X223913Y168472D01*
D02*
G37*
G36*
X220298Y117500D02*
X219702D01*
X219150Y117272D01*
X218728Y116850D01*
X218500Y116298D01*
Y115702D01*
X218728Y115150D01*
X219150Y114728D01*
X219702Y114500D01*
X220298D01*
X220850Y114728D01*
X221272Y115150D01*
X221500Y115702D01*
Y116298D01*
X221272Y116850D01*
X220850Y117272D01*
X220298Y117500D01*
D02*
G37*
G36*
X201298Y100500D02*
X200702D01*
X200150Y100272D01*
X199728Y99850D01*
X199500Y99298D01*
Y98702D01*
X199728Y98150D01*
X200150Y97728D01*
X200702Y97500D01*
X201298D01*
X201850Y97728D01*
X202272Y98150D01*
X202500Y98702D01*
Y99298D01*
X202272Y99850D01*
X201850Y100272D01*
X201298Y100500D01*
D02*
G37*
G36*
X60080Y99586D02*
X59484D01*
X58932Y99358D01*
X58510Y98936D01*
X58282Y98384D01*
Y97788D01*
X58510Y97236D01*
X58932Y96814D01*
X59484Y96586D01*
X60080D01*
X60632Y96814D01*
X61054Y97236D01*
X61282Y97788D01*
Y98384D01*
X61054Y98936D01*
X60632Y99358D01*
X60080Y99586D01*
D02*
G37*
G36*
X138298Y91500D02*
X137702D01*
X137150Y91272D01*
X136728Y90850D01*
X136500Y90298D01*
Y89702D01*
X136728Y89150D01*
X137150Y88728D01*
X137702Y88500D01*
X138298D01*
X138850Y88728D01*
X139272Y89150D01*
X139500Y89702D01*
Y90298D01*
X139272Y90850D01*
X138850Y91272D01*
X138298Y91500D01*
D02*
G37*
G36*
X401872Y90265D02*
X401276D01*
X400724Y90037D01*
X400302Y89615D01*
X400074Y89064D01*
Y88467D01*
X400302Y87916D01*
X400724Y87494D01*
X401276Y87265D01*
X401872D01*
X402424Y87494D01*
X402846Y87916D01*
X403074Y88467D01*
Y89064D01*
X402846Y89615D01*
X402424Y90037D01*
X401872Y90265D01*
D02*
G37*
G36*
X378318Y88607D02*
X377722D01*
X377170Y88378D01*
X376748Y87956D01*
X376520Y87405D01*
Y86808D01*
X376748Y86257D01*
X377170Y85835D01*
X377722Y85607D01*
X378318D01*
X378870Y85835D01*
X379292Y86257D01*
X379520Y86808D01*
Y87405D01*
X379292Y87956D01*
X378870Y88378D01*
X378318Y88607D01*
D02*
G37*
G36*
X251298Y84500D02*
X250702D01*
X250150Y84272D01*
X249728Y83850D01*
X249500Y83298D01*
Y82702D01*
X249728Y82150D01*
X250150Y81728D01*
X250702Y81500D01*
X251298D01*
X251850Y81728D01*
X252272Y82150D01*
X252500Y82702D01*
Y83298D01*
X252272Y83850D01*
X251850Y84272D01*
X251298Y84500D01*
D02*
G37*
G36*
X368290Y54953D02*
X367693D01*
X367142Y54725D01*
X366720Y54303D01*
X366492Y53751D01*
Y53154D01*
X366720Y52603D01*
X367142Y52181D01*
X367693Y51953D01*
X368290D01*
X368841Y52181D01*
X369263Y52603D01*
X369492Y53154D01*
Y53751D01*
X369263Y54303D01*
X368841Y54725D01*
X368290Y54953D01*
D02*
G37*
G36*
X291448Y56400D02*
X290552D01*
X289688Y56168D01*
X288912Y55721D01*
X288279Y55088D01*
X287832Y54312D01*
X287600Y53448D01*
Y52552D01*
X287832Y51688D01*
X288279Y50912D01*
X288912Y50279D01*
X289688Y49832D01*
X290552Y49600D01*
X291448D01*
X292312Y49832D01*
X293088Y50279D01*
X293721Y50912D01*
X294168Y51688D01*
X294400Y52552D01*
Y53448D01*
X294168Y54312D01*
X293721Y55088D01*
X293088Y55721D01*
X292312Y56168D01*
X291448Y56400D01*
D02*
G37*
G36*
X281448D02*
X280552D01*
X279688Y56168D01*
X278912Y55721D01*
X278279Y55088D01*
X277832Y54312D01*
X277600Y53448D01*
Y52552D01*
X277832Y51688D01*
X278279Y50912D01*
X278912Y50279D01*
X279688Y49832D01*
X280552Y49600D01*
X281448D01*
X282312Y49832D01*
X283088Y50279D01*
X283721Y50912D01*
X284168Y51688D01*
X284400Y52552D01*
Y53448D01*
X284168Y54312D01*
X283721Y55088D01*
X283088Y55721D01*
X282312Y56168D01*
X281448Y56400D01*
D02*
G37*
G36*
X261448D02*
X260552D01*
X259688Y56168D01*
X258912Y55721D01*
X258279Y55088D01*
X257832Y54312D01*
X257600Y53448D01*
Y52552D01*
X257832Y51688D01*
X258279Y50912D01*
X258912Y50279D01*
X259688Y49832D01*
X260552Y49600D01*
X261448D01*
X262312Y49832D01*
X263088Y50279D01*
X263721Y50912D01*
X264168Y51688D01*
X264400Y52552D01*
Y53448D01*
X264168Y54312D01*
X263721Y55088D01*
X263088Y55721D01*
X262312Y56168D01*
X261448Y56400D01*
D02*
G37*
G36*
X251448D02*
X250552D01*
X249688Y56168D01*
X248912Y55721D01*
X248279Y55088D01*
X247832Y54312D01*
X247600Y53448D01*
Y52552D01*
X247832Y51688D01*
X248279Y50912D01*
X248912Y50279D01*
X249688Y49832D01*
X250552Y49600D01*
X251448D01*
X252312Y49832D01*
X253088Y50279D01*
X253721Y50912D01*
X254168Y51688D01*
X254400Y52552D01*
Y53448D01*
X254168Y54312D01*
X253721Y55088D01*
X253088Y55721D01*
X252312Y56168D01*
X251448Y56400D01*
D02*
G37*
G36*
X205013Y138416D02*
X204416D01*
X203865Y138188D01*
X203443Y137766D01*
X203214Y137214D01*
Y136618D01*
X203443Y136066D01*
X203865Y135644D01*
X204082Y135554D01*
Y108828D01*
X204152Y108477D01*
X204351Y108180D01*
X225569Y86962D01*
X225434Y86389D01*
X225150Y86272D01*
X224728Y85850D01*
X224500Y85298D01*
Y84702D01*
X224728Y84150D01*
X225150Y83728D01*
X225702Y83500D01*
X226298D01*
X226850Y83728D01*
X227272Y84150D01*
X227389Y84434D01*
X227962Y84569D01*
X240082Y72448D01*
Y56274D01*
X239688Y56168D01*
X238912Y55721D01*
X238279Y55088D01*
X237832Y54312D01*
X237600Y53448D01*
Y52552D01*
X237832Y51688D01*
X238279Y50912D01*
X238912Y50279D01*
X239688Y49832D01*
X240552Y49600D01*
X241448D01*
X242312Y49832D01*
X243088Y50279D01*
X243721Y50912D01*
X244168Y51688D01*
X244400Y52552D01*
Y53448D01*
X244168Y54312D01*
X243721Y55088D01*
X243088Y55721D01*
X242312Y56168D01*
X241918Y56274D01*
Y72828D01*
X241848Y73180D01*
X241649Y73477D01*
X205918Y109209D01*
Y135998D01*
X205986Y136066D01*
X206214Y136618D01*
Y137214D01*
X205986Y137766D01*
X205564Y138188D01*
X205013Y138416D01*
D02*
G37*
G36*
X231448Y56400D02*
X230552D01*
X229688Y56168D01*
X228912Y55721D01*
X228279Y55088D01*
X227832Y54312D01*
X227600Y53448D01*
Y52552D01*
X227832Y51688D01*
X228279Y50912D01*
X228912Y50279D01*
X229688Y49832D01*
X230552Y49600D01*
X231448D01*
X232312Y49832D01*
X233088Y50279D01*
X233721Y50912D01*
X234168Y51688D01*
X234400Y52552D01*
Y53448D01*
X234168Y54312D01*
X233721Y55088D01*
X233088Y55721D01*
X232312Y56168D01*
X231448Y56400D01*
D02*
G37*
G36*
X221448D02*
X220552D01*
X219688Y56168D01*
X218912Y55721D01*
X218279Y55088D01*
X217832Y54312D01*
X217600Y53448D01*
Y52552D01*
X217832Y51688D01*
X218279Y50912D01*
X218912Y50279D01*
X219688Y49832D01*
X220552Y49600D01*
X221448D01*
X222312Y49832D01*
X223088Y50279D01*
X223721Y50912D01*
X224168Y51688D01*
X224400Y52552D01*
Y53448D01*
X224168Y54312D01*
X223721Y55088D01*
X223088Y55721D01*
X222312Y56168D01*
X221448Y56400D01*
D02*
G37*
G36*
X211448D02*
X210552D01*
X209688Y56168D01*
X208912Y55721D01*
X208279Y55088D01*
X207832Y54312D01*
X207600Y53448D01*
Y52552D01*
X207832Y51688D01*
X208279Y50912D01*
X208912Y50279D01*
X209688Y49832D01*
X210552Y49600D01*
X211448D01*
X212312Y49832D01*
X213088Y50279D01*
X213721Y50912D01*
X214168Y51688D01*
X214400Y52552D01*
Y53448D01*
X214168Y54312D01*
X213721Y55088D01*
X213088Y55721D01*
X212312Y56168D01*
X211448Y56400D01*
D02*
G37*
G36*
X201448D02*
X200552D01*
X199688Y56168D01*
X198912Y55721D01*
X198279Y55088D01*
X197832Y54312D01*
X197600Y53448D01*
Y52552D01*
X197832Y51688D01*
X198279Y50912D01*
X198912Y50279D01*
X199688Y49832D01*
X200552Y49600D01*
X201448D01*
X202312Y49832D01*
X203088Y50279D01*
X203721Y50912D01*
X204168Y51688D01*
X204400Y52552D01*
Y53448D01*
X204168Y54312D01*
X203721Y55088D01*
X203088Y55721D01*
X202312Y56168D01*
X201448Y56400D01*
D02*
G37*
G36*
X191448D02*
X190552D01*
X189688Y56168D01*
X188912Y55721D01*
X188279Y55088D01*
X187832Y54312D01*
X187600Y53448D01*
Y52552D01*
X187832Y51688D01*
X188279Y50912D01*
X188912Y50279D01*
X189688Y49832D01*
X190552Y49600D01*
X191448D01*
X192312Y49832D01*
X193088Y50279D01*
X193721Y50912D01*
X194168Y51688D01*
X194400Y52552D01*
Y53448D01*
X194168Y54312D01*
X193721Y55088D01*
X193088Y55721D01*
X192312Y56168D01*
X191448Y56400D01*
D02*
G37*
G36*
X181448D02*
X180552D01*
X179688Y56168D01*
X178912Y55721D01*
X178279Y55088D01*
X177832Y54312D01*
X177600Y53448D01*
Y52552D01*
X177832Y51688D01*
X178279Y50912D01*
X178912Y50279D01*
X179688Y49832D01*
X180552Y49600D01*
X181448D01*
X182312Y49832D01*
X183088Y50279D01*
X183721Y50912D01*
X184168Y51688D01*
X184400Y52552D01*
Y53448D01*
X184168Y54312D01*
X183721Y55088D01*
X183088Y55721D01*
X182312Y56168D01*
X181448Y56400D01*
D02*
G37*
G36*
X171448D02*
X170552D01*
X169688Y56168D01*
X168912Y55721D01*
X168279Y55088D01*
X167832Y54312D01*
X167600Y53448D01*
Y52552D01*
X167832Y51688D01*
X168279Y50912D01*
X168912Y50279D01*
X169688Y49832D01*
X170552Y49600D01*
X171448D01*
X172312Y49832D01*
X173088Y50279D01*
X173721Y50912D01*
X174168Y51688D01*
X174400Y52552D01*
Y53448D01*
X174168Y54312D01*
X173721Y55088D01*
X173088Y55721D01*
X172312Y56168D01*
X171448Y56400D01*
D02*
G37*
G36*
X161448D02*
X160552D01*
X159688Y56168D01*
X158912Y55721D01*
X158279Y55088D01*
X157832Y54312D01*
X157600Y53448D01*
Y52552D01*
X157832Y51688D01*
X158279Y50912D01*
X158912Y50279D01*
X159688Y49832D01*
X160552Y49600D01*
X161448D01*
X162312Y49832D01*
X163088Y50279D01*
X163721Y50912D01*
X164168Y51688D01*
X164400Y52552D01*
Y53448D01*
X164168Y54312D01*
X163721Y55088D01*
X163088Y55721D01*
X162312Y56168D01*
X161448Y56400D01*
D02*
G37*
G36*
X151448D02*
X150552D01*
X149688Y56168D01*
X148912Y55721D01*
X148279Y55088D01*
X147832Y54312D01*
X147600Y53448D01*
Y52552D01*
X147832Y51688D01*
X148279Y50912D01*
X148912Y50279D01*
X149688Y49832D01*
X150552Y49600D01*
X151448D01*
X152312Y49832D01*
X153088Y50279D01*
X153721Y50912D01*
X154168Y51688D01*
X154400Y52552D01*
Y53448D01*
X154168Y54312D01*
X153721Y55088D01*
X153088Y55721D01*
X152312Y56168D01*
X151448Y56400D01*
D02*
G37*
G36*
X141448D02*
X140552D01*
X139688Y56168D01*
X138912Y55721D01*
X138279Y55088D01*
X137832Y54312D01*
X137600Y53448D01*
Y52552D01*
X137832Y51688D01*
X138279Y50912D01*
X138912Y50279D01*
X139688Y49832D01*
X140552Y49600D01*
X141448D01*
X142312Y49832D01*
X143088Y50279D01*
X143721Y50912D01*
X144168Y51688D01*
X144400Y52552D01*
Y53448D01*
X144168Y54312D01*
X143721Y55088D01*
X143088Y55721D01*
X142312Y56168D01*
X141448Y56400D01*
D02*
G37*
G36*
X131448D02*
X130552D01*
X129688Y56168D01*
X128912Y55721D01*
X128279Y55088D01*
X127832Y54312D01*
X127600Y53448D01*
Y52552D01*
X127832Y51688D01*
X128279Y50912D01*
X128912Y50279D01*
X129688Y49832D01*
X130552Y49600D01*
X131448D01*
X132312Y49832D01*
X133088Y50279D01*
X133721Y50912D01*
X134168Y51688D01*
X134400Y52552D01*
Y53448D01*
X134168Y54312D01*
X133721Y55088D01*
X133088Y55721D01*
X132312Y56168D01*
X131448Y56400D01*
D02*
G37*
G36*
X121448D02*
X120552D01*
X119688Y56168D01*
X118912Y55721D01*
X118279Y55088D01*
X117832Y54312D01*
X117600Y53448D01*
Y52552D01*
X117832Y51688D01*
X118279Y50912D01*
X118912Y50279D01*
X119688Y49832D01*
X120552Y49600D01*
X121448D01*
X122312Y49832D01*
X123088Y50279D01*
X123721Y50912D01*
X124168Y51688D01*
X124400Y52552D01*
Y53448D01*
X124168Y54312D01*
X123721Y55088D01*
X123088Y55721D01*
X122312Y56168D01*
X121448Y56400D01*
D02*
G37*
G36*
X111448D02*
X110552D01*
X109688Y56168D01*
X108912Y55721D01*
X108279Y55088D01*
X107832Y54312D01*
X107600Y53448D01*
Y52552D01*
X107832Y51688D01*
X108279Y50912D01*
X108912Y50279D01*
X109688Y49832D01*
X110552Y49600D01*
X111448D01*
X112312Y49832D01*
X113088Y50279D01*
X113721Y50912D01*
X114168Y51688D01*
X114400Y52552D01*
Y53448D01*
X114168Y54312D01*
X113721Y55088D01*
X113088Y55721D01*
X112312Y56168D01*
X111448Y56400D01*
D02*
G37*
G36*
X101448D02*
X100552D01*
X99688Y56168D01*
X98912Y55721D01*
X98279Y55088D01*
X97832Y54312D01*
X97600Y53448D01*
Y52552D01*
X97832Y51688D01*
X98279Y50912D01*
X98912Y50279D01*
X99688Y49832D01*
X100552Y49600D01*
X101448D01*
X102312Y49832D01*
X103088Y50279D01*
X103721Y50912D01*
X104168Y51688D01*
X104400Y52552D01*
Y53448D01*
X104168Y54312D01*
X103721Y55088D01*
X103088Y55721D01*
X102312Y56168D01*
X101448Y56400D01*
D02*
G37*
G36*
X91448D02*
X90552D01*
X89688Y56168D01*
X88912Y55721D01*
X88279Y55088D01*
X87832Y54312D01*
X87600Y53448D01*
Y52552D01*
X87832Y51688D01*
X88279Y50912D01*
X88912Y50279D01*
X89688Y49832D01*
X90552Y49600D01*
X91448D01*
X92312Y49832D01*
X93088Y50279D01*
X93721Y50912D01*
X94168Y51688D01*
X94400Y52552D01*
Y53448D01*
X94168Y54312D01*
X93721Y55088D01*
X93088Y55721D01*
X92312Y56168D01*
X91448Y56400D01*
D02*
G37*
G36*
X81448D02*
X80552D01*
X79688Y56168D01*
X78912Y55721D01*
X78279Y55088D01*
X77832Y54312D01*
X77600Y53448D01*
Y52552D01*
X77832Y51688D01*
X78279Y50912D01*
X78912Y50279D01*
X79688Y49832D01*
X80552Y49600D01*
X81448D01*
X82312Y49832D01*
X83088Y50279D01*
X83721Y50912D01*
X84168Y51688D01*
X84400Y52552D01*
Y53448D01*
X84168Y54312D01*
X83721Y55088D01*
X83088Y55721D01*
X82312Y56168D01*
X81448Y56400D01*
D02*
G37*
G36*
X367242Y51039D02*
X366645D01*
X366094Y50811D01*
X365672Y50389D01*
X365444Y49838D01*
Y49241D01*
X365672Y48690D01*
X366094Y48268D01*
X366645Y48039D01*
X367242D01*
X367793Y48268D01*
X368215Y48690D01*
X368444Y49241D01*
Y49838D01*
X368215Y50389D01*
X367793Y50811D01*
X367242Y51039D01*
D02*
G37*
G36*
X61992Y73105D02*
X60008D01*
X58048Y72794D01*
X56161Y72181D01*
X54394Y71280D01*
X52789Y70114D01*
X51386Y68711D01*
X50220Y67106D01*
X49319Y65338D01*
X48706Y63452D01*
X48395Y61492D01*
Y59508D01*
X48706Y57548D01*
X49319Y55661D01*
X50220Y53894D01*
X51386Y52289D01*
X52789Y50886D01*
X54394Y49720D01*
X56161Y48819D01*
X58048Y48206D01*
X60008Y47895D01*
X61992D01*
X63952Y48206D01*
X65838Y48819D01*
X67606Y49720D01*
X69211Y50886D01*
X70614Y52289D01*
X71781Y53894D01*
X72681Y55661D01*
X73294Y57548D01*
X73605Y59508D01*
Y61492D01*
X73294Y63452D01*
X72681Y65338D01*
X71781Y67106D01*
X70614Y68711D01*
X69211Y70114D01*
X67606Y71280D01*
X65838Y72181D01*
X63952Y72794D01*
X61992Y73105D01*
D02*
G37*
G36*
X412330Y49564D02*
X411734D01*
X411182Y49336D01*
X410760Y48914D01*
X410532Y48362D01*
Y47766D01*
X410760Y47214D01*
X411182Y46792D01*
X411734Y46564D01*
X412330D01*
X412882Y46792D01*
X413304Y47214D01*
X413532Y47766D01*
Y48362D01*
X413304Y48914D01*
X412882Y49336D01*
X412330Y49564D01*
D02*
G37*
G36*
X291448Y46400D02*
X290552D01*
X289688Y46168D01*
X288912Y45721D01*
X288279Y45088D01*
X287832Y44312D01*
X287600Y43448D01*
Y42552D01*
X287832Y41688D01*
X288279Y40912D01*
X288912Y40279D01*
X289688Y39832D01*
X290552Y39600D01*
X291448D01*
X292312Y39832D01*
X293088Y40279D01*
X293721Y40912D01*
X294168Y41688D01*
X294400Y42552D01*
Y43448D01*
X294168Y44312D01*
X293721Y45088D01*
X293088Y45721D01*
X292312Y46168D01*
X291448Y46400D01*
D02*
G37*
G36*
X281448D02*
X280552D01*
X279688Y46168D01*
X278912Y45721D01*
X278279Y45088D01*
X277832Y44312D01*
X277600Y43448D01*
Y42552D01*
X277832Y41688D01*
X278279Y40912D01*
X278912Y40279D01*
X279688Y39832D01*
X280552Y39600D01*
X281448D01*
X282312Y39832D01*
X283088Y40279D01*
X283721Y40912D01*
X284168Y41688D01*
X284400Y42552D01*
Y43448D01*
X284168Y44312D01*
X283721Y45088D01*
X283088Y45721D01*
X282312Y46168D01*
X281448Y46400D01*
D02*
G37*
G36*
X261448D02*
X260552D01*
X259688Y46168D01*
X258912Y45721D01*
X258279Y45088D01*
X257832Y44312D01*
X257600Y43448D01*
Y42552D01*
X257832Y41688D01*
X258279Y40912D01*
X258912Y40279D01*
X259688Y39832D01*
X260552Y39600D01*
X261448D01*
X262312Y39832D01*
X263088Y40279D01*
X263721Y40912D01*
X264168Y41688D01*
X264400Y42552D01*
Y43448D01*
X264168Y44312D01*
X263721Y45088D01*
X263088Y45721D01*
X262312Y46168D01*
X261448Y46400D01*
D02*
G37*
G36*
X251448D02*
X250552D01*
X249688Y46168D01*
X248912Y45721D01*
X248279Y45088D01*
X247832Y44312D01*
X247600Y43448D01*
Y42552D01*
X247832Y41688D01*
X248279Y40912D01*
X248912Y40279D01*
X249688Y39832D01*
X250552Y39600D01*
X251448D01*
X252312Y39832D01*
X253088Y40279D01*
X253721Y40912D01*
X254168Y41688D01*
X254400Y42552D01*
Y43448D01*
X254168Y44312D01*
X253721Y45088D01*
X253088Y45721D01*
X252312Y46168D01*
X251448Y46400D01*
D02*
G37*
G36*
X241448D02*
X240552D01*
X239688Y46168D01*
X238912Y45721D01*
X238279Y45088D01*
X237832Y44312D01*
X237600Y43448D01*
Y42552D01*
X237832Y41688D01*
X238279Y40912D01*
X238912Y40279D01*
X239688Y39832D01*
X240552Y39600D01*
X241448D01*
X242312Y39832D01*
X243088Y40279D01*
X243721Y40912D01*
X244168Y41688D01*
X244400Y42552D01*
Y43448D01*
X244168Y44312D01*
X243721Y45088D01*
X243088Y45721D01*
X242312Y46168D01*
X241448Y46400D01*
D02*
G37*
G36*
X231448D02*
X230552D01*
X229688Y46168D01*
X228912Y45721D01*
X228279Y45088D01*
X227832Y44312D01*
X227600Y43448D01*
Y42552D01*
X227832Y41688D01*
X228279Y40912D01*
X228912Y40279D01*
X229688Y39832D01*
X230552Y39600D01*
X231448D01*
X232312Y39832D01*
X233088Y40279D01*
X233721Y40912D01*
X234168Y41688D01*
X234400Y42552D01*
Y43448D01*
X234168Y44312D01*
X233721Y45088D01*
X233088Y45721D01*
X232312Y46168D01*
X231448Y46400D01*
D02*
G37*
G36*
X221448D02*
X220552D01*
X219688Y46168D01*
X218912Y45721D01*
X218279Y45088D01*
X217832Y44312D01*
X217600Y43448D01*
Y42552D01*
X217832Y41688D01*
X218279Y40912D01*
X218912Y40279D01*
X219688Y39832D01*
X220552Y39600D01*
X221448D01*
X222312Y39832D01*
X223088Y40279D01*
X223721Y40912D01*
X224168Y41688D01*
X224400Y42552D01*
Y43448D01*
X224168Y44312D01*
X223721Y45088D01*
X223088Y45721D01*
X222312Y46168D01*
X221448Y46400D01*
D02*
G37*
G36*
X211448D02*
X210552D01*
X209688Y46168D01*
X208912Y45721D01*
X208279Y45088D01*
X207832Y44312D01*
X207600Y43448D01*
Y42552D01*
X207832Y41688D01*
X208279Y40912D01*
X208912Y40279D01*
X209688Y39832D01*
X210552Y39600D01*
X211448D01*
X212312Y39832D01*
X213088Y40279D01*
X213721Y40912D01*
X214168Y41688D01*
X214400Y42552D01*
Y43448D01*
X214168Y44312D01*
X213721Y45088D01*
X213088Y45721D01*
X212312Y46168D01*
X211448Y46400D01*
D02*
G37*
G36*
X201448D02*
X200552D01*
X199688Y46168D01*
X198912Y45721D01*
X198279Y45088D01*
X197832Y44312D01*
X197600Y43448D01*
Y42552D01*
X197832Y41688D01*
X198279Y40912D01*
X198912Y40279D01*
X199688Y39832D01*
X200552Y39600D01*
X201448D01*
X202312Y39832D01*
X203088Y40279D01*
X203721Y40912D01*
X204168Y41688D01*
X204400Y42552D01*
Y43448D01*
X204168Y44312D01*
X203721Y45088D01*
X203088Y45721D01*
X202312Y46168D01*
X201448Y46400D01*
D02*
G37*
G36*
X191448D02*
X190552D01*
X189688Y46168D01*
X188912Y45721D01*
X188279Y45088D01*
X187832Y44312D01*
X187600Y43448D01*
Y42552D01*
X187832Y41688D01*
X188279Y40912D01*
X188912Y40279D01*
X189688Y39832D01*
X190552Y39600D01*
X191448D01*
X192312Y39832D01*
X193088Y40279D01*
X193721Y40912D01*
X194168Y41688D01*
X194400Y42552D01*
Y43448D01*
X194168Y44312D01*
X193721Y45088D01*
X193088Y45721D01*
X192312Y46168D01*
X191448Y46400D01*
D02*
G37*
G36*
X181448D02*
X180552D01*
X179688Y46168D01*
X178912Y45721D01*
X178279Y45088D01*
X177832Y44312D01*
X177600Y43448D01*
Y42552D01*
X177832Y41688D01*
X178279Y40912D01*
X178912Y40279D01*
X179688Y39832D01*
X180552Y39600D01*
X181448D01*
X182312Y39832D01*
X183088Y40279D01*
X183721Y40912D01*
X184168Y41688D01*
X184400Y42552D01*
Y43448D01*
X184168Y44312D01*
X183721Y45088D01*
X183088Y45721D01*
X182312Y46168D01*
X181448Y46400D01*
D02*
G37*
G36*
X171448D02*
X170552D01*
X169688Y46168D01*
X168912Y45721D01*
X168279Y45088D01*
X167832Y44312D01*
X167600Y43448D01*
Y42552D01*
X167832Y41688D01*
X168279Y40912D01*
X168912Y40279D01*
X169688Y39832D01*
X170552Y39600D01*
X171448D01*
X172312Y39832D01*
X173088Y40279D01*
X173721Y40912D01*
X174168Y41688D01*
X174400Y42552D01*
Y43448D01*
X174168Y44312D01*
X173721Y45088D01*
X173088Y45721D01*
X172312Y46168D01*
X171448Y46400D01*
D02*
G37*
G36*
X161448D02*
X160552D01*
X159688Y46168D01*
X158912Y45721D01*
X158279Y45088D01*
X157832Y44312D01*
X157600Y43448D01*
Y42552D01*
X157832Y41688D01*
X158279Y40912D01*
X158912Y40279D01*
X159688Y39832D01*
X160552Y39600D01*
X161448D01*
X162312Y39832D01*
X163088Y40279D01*
X163721Y40912D01*
X164168Y41688D01*
X164400Y42552D01*
Y43448D01*
X164168Y44312D01*
X163721Y45088D01*
X163088Y45721D01*
X162312Y46168D01*
X161448Y46400D01*
D02*
G37*
G36*
X151448D02*
X150552D01*
X149688Y46168D01*
X148912Y45721D01*
X148279Y45088D01*
X147832Y44312D01*
X147600Y43448D01*
Y42552D01*
X147832Y41688D01*
X148279Y40912D01*
X148912Y40279D01*
X149688Y39832D01*
X150552Y39600D01*
X151448D01*
X152312Y39832D01*
X153088Y40279D01*
X153721Y40912D01*
X154168Y41688D01*
X154400Y42552D01*
Y43448D01*
X154168Y44312D01*
X153721Y45088D01*
X153088Y45721D01*
X152312Y46168D01*
X151448Y46400D01*
D02*
G37*
G36*
X141448D02*
X140552D01*
X139688Y46168D01*
X138912Y45721D01*
X138279Y45088D01*
X137832Y44312D01*
X137600Y43448D01*
Y42552D01*
X137832Y41688D01*
X138279Y40912D01*
X138912Y40279D01*
X139688Y39832D01*
X140552Y39600D01*
X141448D01*
X142312Y39832D01*
X143088Y40279D01*
X143721Y40912D01*
X144168Y41688D01*
X144400Y42552D01*
Y43448D01*
X144168Y44312D01*
X143721Y45088D01*
X143088Y45721D01*
X142312Y46168D01*
X141448Y46400D01*
D02*
G37*
G36*
X131448D02*
X130552D01*
X129688Y46168D01*
X128912Y45721D01*
X128279Y45088D01*
X127832Y44312D01*
X127600Y43448D01*
Y42552D01*
X127832Y41688D01*
X128279Y40912D01*
X128912Y40279D01*
X129688Y39832D01*
X130552Y39600D01*
X131448D01*
X132312Y39832D01*
X133088Y40279D01*
X133721Y40912D01*
X134168Y41688D01*
X134400Y42552D01*
Y43448D01*
X134168Y44312D01*
X133721Y45088D01*
X133088Y45721D01*
X132312Y46168D01*
X131448Y46400D01*
D02*
G37*
G36*
X121448D02*
X120552D01*
X119688Y46168D01*
X118912Y45721D01*
X118279Y45088D01*
X117832Y44312D01*
X117600Y43448D01*
Y42552D01*
X117832Y41688D01*
X118279Y40912D01*
X118912Y40279D01*
X119688Y39832D01*
X120552Y39600D01*
X121448D01*
X122312Y39832D01*
X123088Y40279D01*
X123721Y40912D01*
X124168Y41688D01*
X124400Y42552D01*
Y43448D01*
X124168Y44312D01*
X123721Y45088D01*
X123088Y45721D01*
X122312Y46168D01*
X121448Y46400D01*
D02*
G37*
G36*
X111448D02*
X110552D01*
X109688Y46168D01*
X108912Y45721D01*
X108279Y45088D01*
X107832Y44312D01*
X107600Y43448D01*
Y42552D01*
X107832Y41688D01*
X108279Y40912D01*
X108912Y40279D01*
X109688Y39832D01*
X110552Y39600D01*
X111448D01*
X112312Y39832D01*
X113088Y40279D01*
X113721Y40912D01*
X114168Y41688D01*
X114400Y42552D01*
Y43448D01*
X114168Y44312D01*
X113721Y45088D01*
X113088Y45721D01*
X112312Y46168D01*
X111448Y46400D01*
D02*
G37*
G36*
X101448D02*
X100552D01*
X99688Y46168D01*
X98912Y45721D01*
X98279Y45088D01*
X97832Y44312D01*
X97600Y43448D01*
Y42552D01*
X97832Y41688D01*
X98279Y40912D01*
X98912Y40279D01*
X99688Y39832D01*
X100552Y39600D01*
X101448D01*
X102312Y39832D01*
X103088Y40279D01*
X103721Y40912D01*
X104168Y41688D01*
X104400Y42552D01*
Y43448D01*
X104168Y44312D01*
X103721Y45088D01*
X103088Y45721D01*
X102312Y46168D01*
X101448Y46400D01*
D02*
G37*
G36*
X91448D02*
X90552D01*
X89688Y46168D01*
X88912Y45721D01*
X88279Y45088D01*
X87832Y44312D01*
X87600Y43448D01*
Y42552D01*
X87832Y41688D01*
X88279Y40912D01*
X88912Y40279D01*
X89688Y39832D01*
X90552Y39600D01*
X91448D01*
X92312Y39832D01*
X93088Y40279D01*
X93721Y40912D01*
X94168Y41688D01*
X94400Y42552D01*
Y43448D01*
X94168Y44312D01*
X93721Y45088D01*
X93088Y45721D01*
X92312Y46168D01*
X91448Y46400D01*
D02*
G37*
G36*
X81448D02*
X80552D01*
X79688Y46168D01*
X78912Y45721D01*
X78279Y45088D01*
X77832Y44312D01*
X77600Y43448D01*
Y42552D01*
X77832Y41688D01*
X78279Y40912D01*
X78912Y40279D01*
X79688Y39832D01*
X80552Y39600D01*
X81448D01*
X82312Y39832D01*
X83088Y40279D01*
X83721Y40912D01*
X84168Y41688D01*
X84400Y42552D01*
Y43448D01*
X84168Y44312D01*
X83721Y45088D01*
X83088Y45721D01*
X82312Y46168D01*
X81448Y46400D01*
D02*
G37*
G36*
X321992Y60605D02*
X320008D01*
X318048Y60294D01*
X316161Y59681D01*
X314394Y58780D01*
X312789Y57614D01*
X311386Y56211D01*
X310220Y54606D01*
X309319Y52838D01*
X308706Y50952D01*
X308395Y48992D01*
Y47008D01*
X308706Y45048D01*
X309319Y43161D01*
X310220Y41394D01*
X311386Y39789D01*
X312789Y38386D01*
X314394Y37220D01*
X316161Y36319D01*
X318048Y35706D01*
X320008Y35395D01*
X321992D01*
X323952Y35706D01*
X325838Y36319D01*
X327606Y37220D01*
X329211Y38386D01*
X330614Y39789D01*
X331781Y41394D01*
X332681Y43161D01*
X333294Y45048D01*
X333605Y47008D01*
Y48992D01*
X333294Y50952D01*
X332681Y52838D01*
X331781Y54606D01*
X330614Y56211D01*
X329211Y57614D01*
X327606Y58780D01*
X325838Y59681D01*
X323952Y60294D01*
X321992Y60605D01*
D02*
G37*
G36*
X369298Y35500D02*
X368702D01*
X368150Y35272D01*
X367728Y34850D01*
X367500Y34298D01*
Y33702D01*
X367728Y33150D01*
X368150Y32728D01*
X368702Y32500D01*
X369298D01*
X369850Y32728D01*
X370272Y33150D01*
X370500Y33702D01*
Y34298D01*
X370272Y34850D01*
X369850Y35272D01*
X369298Y35500D01*
D02*
G37*
G36*
X389298Y31500D02*
X388702D01*
X388150Y31272D01*
X387728Y30850D01*
X387500Y30298D01*
Y29702D01*
X387728Y29150D01*
X388150Y28728D01*
X388702Y28500D01*
X389298D01*
X389850Y28728D01*
X390272Y29150D01*
X390500Y29702D01*
Y30298D01*
X390272Y30850D01*
X389850Y31272D01*
X389298Y31500D01*
D02*
G37*
G36*
X368298D02*
X367702D01*
X367150Y31272D01*
X366728Y30850D01*
X366500Y30298D01*
Y29702D01*
X366728Y29150D01*
X367150Y28728D01*
X367702Y28500D01*
X368298D01*
X368850Y28728D01*
X369272Y29150D01*
X369500Y29702D01*
Y30298D01*
X369272Y30850D01*
X368850Y31272D01*
X368298Y31500D01*
D02*
G37*
G36*
X84298Y100500D02*
X83702D01*
X83150Y100272D01*
X82728Y99850D01*
X82500Y99298D01*
Y98798D01*
X76351Y92649D01*
X76152Y92351D01*
X76082Y92000D01*
Y57380D01*
X74351Y55649D01*
X74152Y55351D01*
X74082Y55000D01*
Y39000D01*
X74152Y38649D01*
X74351Y38351D01*
X85836Y26866D01*
X86134Y26667D01*
X86485Y26597D01*
X296632D01*
Y23879D01*
X301368D01*
Y28420D01*
X297596D01*
X297532Y28433D01*
X86865D01*
X75918Y39380D01*
Y54620D01*
X77649Y56351D01*
X77848Y56649D01*
X77918Y57000D01*
Y91620D01*
X83798Y97500D01*
X84298D01*
X84850Y97728D01*
X85272Y98150D01*
X85500Y98702D01*
Y99298D01*
X85272Y99850D01*
X84850Y100272D01*
X84298Y100500D01*
D02*
G37*
G36*
X239765Y216680D02*
X239168D01*
X238617Y216452D01*
X238195Y216030D01*
X237966Y215478D01*
Y214881D01*
X238195Y214330D01*
X238617Y213908D01*
X239168Y213680D01*
X239669D01*
X244082Y209266D01*
Y198380D01*
X228351Y182649D01*
X228152Y182351D01*
X228082Y182000D01*
Y126000D01*
X228152Y125649D01*
X228351Y125351D01*
X230553Y123150D01*
Y106821D01*
X230623Y106470D01*
X230822Y106172D01*
X264924Y72070D01*
Y38159D01*
X264994Y37808D01*
X265193Y37510D01*
X269112Y33590D01*
X269410Y33391D01*
X269761Y33321D01*
X311101D01*
X315082Y29339D01*
Y26510D01*
X314478D01*
Y23269D01*
X317522D01*
Y26510D01*
X316918D01*
Y29719D01*
X316848Y30071D01*
X316649Y30368D01*
X312130Y34887D01*
X311832Y35087D01*
X311481Y35156D01*
X270141D01*
X266759Y38539D01*
Y72450D01*
X266689Y72801D01*
X266490Y73099D01*
X232388Y107201D01*
Y123530D01*
X232318Y123881D01*
X232119Y124178D01*
X229918Y126380D01*
Y181620D01*
X245649Y197351D01*
X245848Y197649D01*
X245918Y198000D01*
Y209646D01*
X245848Y209998D01*
X245649Y210295D01*
X240967Y214978D01*
Y215478D01*
X240738Y216030D01*
X240316Y216452D01*
X239765Y216680D01*
D02*
G37*
G36*
X340298Y28500D02*
X339702D01*
X339150Y28272D01*
X338728Y27850D01*
X338500Y27298D01*
Y26702D01*
X338728Y26150D01*
X338916Y25962D01*
Y22130D01*
X337723Y20937D01*
X335522D01*
Y22731D01*
X332478D01*
Y19490D01*
X332985D01*
X332996Y19434D01*
X333231Y19082D01*
X333584Y18846D01*
X334000Y18763D01*
X338174D01*
X338590Y18846D01*
X338942Y19082D01*
X340772Y20911D01*
X340772Y20911D01*
X341008Y21264D01*
X341091Y21680D01*
X341091Y21680D01*
Y25969D01*
X341272Y26150D01*
X341500Y26702D01*
Y27298D01*
X341272Y27850D01*
X340850Y28272D01*
X340298Y28500D01*
D02*
G37*
G36*
X322070Y28146D02*
X321473D01*
X320922Y27918D01*
X320500Y27496D01*
X320271Y26945D01*
Y26348D01*
X320500Y25797D01*
X320684Y25612D01*
Y22645D01*
X318977Y20937D01*
X317522D01*
Y22731D01*
X314478D01*
Y19490D01*
X314985D01*
X314996Y19434D01*
X315231Y19082D01*
X315584Y18846D01*
X316000Y18763D01*
X319427D01*
X319843Y18846D01*
X320196Y19082D01*
X322540Y21426D01*
X322776Y21779D01*
X322859Y22195D01*
X322858Y22195D01*
Y25612D01*
X323043Y25797D01*
X323271Y26348D01*
Y26945D01*
X323043Y27496D01*
X322621Y27918D01*
X322070Y28146D01*
D02*
G37*
G36*
X304905Y28341D02*
X304308D01*
X303757Y28112D01*
X303335Y27690D01*
X303107Y27139D01*
Y26542D01*
X303335Y25991D01*
X303569Y25757D01*
Y21594D01*
X302912Y20937D01*
X301368D01*
Y22120D01*
X296632D01*
Y17580D01*
X301368D01*
Y18763D01*
X303363D01*
X303779Y18846D01*
X304131Y19082D01*
X305425Y20375D01*
X305661Y20728D01*
X305743Y21144D01*
Y25856D01*
X305878Y25991D01*
X306107Y26542D01*
Y27139D01*
X305878Y27690D01*
X305456Y28112D01*
X304905Y28341D01*
D02*
G37*
G36*
X339000Y70918D02*
X276735Y70918D01*
X276384Y70848D01*
X276086Y70649D01*
X272916Y67479D01*
X270153Y64716D01*
X269954Y64418D01*
X269884Y64067D01*
Y56221D01*
X269688Y56168D01*
X268912Y55721D01*
X268279Y55088D01*
X267832Y54312D01*
X267600Y53448D01*
Y52552D01*
X267832Y51688D01*
X268279Y50912D01*
X268912Y50279D01*
X269688Y49832D01*
X270552Y49600D01*
X271448D01*
X272312Y49832D01*
X273088Y50279D01*
X273721Y50912D01*
X274168Y51688D01*
X274400Y52552D01*
Y53448D01*
X274168Y54312D01*
X273721Y55088D01*
X273088Y55721D01*
X272312Y56168D01*
X271720Y56327D01*
Y63687D01*
X274214Y66181D01*
X277115Y69082D01*
X338620Y69082D01*
X349082Y58620D01*
Y36071D01*
X349152Y35720D01*
X349351Y35423D01*
X363117Y21657D01*
X363415Y21458D01*
X363766Y21388D01*
X397655D01*
X398009Y21034D01*
X398560Y20806D01*
X399157D01*
X399709Y21034D01*
X400130Y21456D01*
X400359Y22007D01*
Y22604D01*
X400130Y23155D01*
X399709Y23577D01*
X399157Y23806D01*
X398560D01*
X398009Y23577D01*
X397655Y23223D01*
X364146D01*
X350918Y36452D01*
Y59000D01*
X350848Y59351D01*
X350649Y59649D01*
X339649Y70649D01*
X339351Y70848D01*
X339000Y70918D01*
D02*
G37*
G36*
X335933Y64946D02*
X278185D01*
X277834Y64876D01*
X277536Y64677D01*
X275351Y62492D01*
X275152Y62195D01*
X275082Y61844D01*
Y47117D01*
X273387Y45421D01*
X273088Y45721D01*
X272312Y46168D01*
X271448Y46400D01*
X270552D01*
X269688Y46168D01*
X268912Y45721D01*
X268279Y45088D01*
X267832Y44312D01*
X267600Y43448D01*
Y42552D01*
X267832Y41688D01*
X268279Y40912D01*
X268912Y40279D01*
X269688Y39832D01*
X270552Y39600D01*
X271448D01*
X272312Y39832D01*
X273088Y40279D01*
X273721Y40912D01*
X274168Y41688D01*
X274400Y42552D01*
Y43448D01*
X274317Y43756D01*
X276649Y46088D01*
X276848Y46386D01*
X276918Y46737D01*
Y61463D01*
X278565Y63111D01*
X335553D01*
X344278Y54385D01*
Y35537D01*
X344348Y35186D01*
X344547Y34888D01*
X362330Y17105D01*
X362628Y16906D01*
X362979Y16836D01*
X401324D01*
X401675Y16906D01*
X401972Y17105D01*
X406348Y21480D01*
X406848D01*
X407400Y21708D01*
X407821Y22130D01*
X408050Y22682D01*
Y23278D01*
X407821Y23830D01*
X407400Y24252D01*
X406848Y24480D01*
X406251D01*
X405700Y24252D01*
X405278Y23830D01*
X405050Y23278D01*
Y22778D01*
X400944Y18671D01*
X363359D01*
X346113Y35917D01*
Y54765D01*
X346044Y55117D01*
X345845Y55414D01*
X336582Y64677D01*
X336284Y64876D01*
X335933Y64946D01*
D02*
G37*
G36*
X334506Y34469D02*
X333909D01*
X333358Y34241D01*
X332936Y33819D01*
X332708Y33267D01*
Y32671D01*
X332936Y32119D01*
X333290Y31765D01*
Y26707D01*
X333158Y26510D01*
X332478D01*
Y23269D01*
X335522D01*
Y26510D01*
X335125D01*
Y31765D01*
X335442Y32082D01*
X341620D01*
X360351Y13351D01*
X360649Y13152D01*
X361000Y13082D01*
X408000D01*
X408351Y13152D01*
X408649Y13351D01*
X417811Y22513D01*
X418010Y22811D01*
X418080Y23162D01*
Y29501D01*
X418434Y29855D01*
X418662Y30406D01*
Y31003D01*
X418434Y31554D01*
X418012Y31976D01*
X417460Y32204D01*
X416864D01*
X416312Y31976D01*
X415890Y31554D01*
X415662Y31003D01*
Y30406D01*
X415890Y29855D01*
X416244Y29501D01*
Y23542D01*
X407620Y14918D01*
X361380D01*
X342649Y33649D01*
X342351Y33848D01*
X342000Y33918D01*
X335380D01*
X335057Y34241D01*
X334506Y34469D01*
D02*
G37*
%LPD*%
G36*
X393000Y403000D02*
X378000D01*
Y396772D01*
X363000D01*
Y419000D01*
X393000D01*
Y403000D01*
D02*
G37*
G36*
X426608Y396726D02*
X411608D01*
Y402954D01*
X396608D01*
Y418954D01*
X426608D01*
Y396726D01*
D02*
G37*
G36*
X388129Y336720D02*
X387856Y336446D01*
X387453Y335749D01*
X387245Y334971D01*
Y334166D01*
X387453Y333389D01*
X387820Y332754D01*
X387766Y332497D01*
X387633Y332207D01*
X387472Y332174D01*
X384650Y334996D01*
X384353Y335194D01*
X384002Y335264D01*
X368891D01*
X368540Y335194D01*
X368242Y334996D01*
X343267Y310020D01*
X282857D01*
X280523Y312354D01*
Y312855D01*
X280295Y313406D01*
X279873Y313828D01*
X279322Y314056D01*
X278725D01*
X278434Y313935D01*
X278020Y314185D01*
X277980Y314683D01*
X283031Y319733D01*
X321147D01*
X321157Y319711D01*
X321579Y319289D01*
X322130Y319060D01*
X322133D01*
X322341Y318561D01*
X319215Y315435D01*
X318729Y315478D01*
X318645Y315656D01*
X318600Y315929D01*
X318964Y316293D01*
X319192Y316844D01*
Y317441D01*
X318964Y317992D01*
X318542Y318414D01*
X317990Y318642D01*
X317394D01*
X316842Y318414D01*
X316421Y317992D01*
X316192Y317441D01*
Y316844D01*
X316421Y316293D01*
X316784Y315929D01*
X316740Y315656D01*
X316631Y315429D01*
X301366D01*
X301103Y315692D01*
Y316494D01*
X301033Y316846D01*
X300834Y317143D01*
X300779Y317198D01*
X300830Y317322D01*
Y317918D01*
X300602Y318470D01*
X300180Y318892D01*
X299628Y319120D01*
X299032D01*
X298480Y318892D01*
X298058Y318470D01*
X297830Y317918D01*
Y317322D01*
X298058Y316770D01*
X298480Y316349D01*
X299032Y316120D01*
X299262D01*
X299267Y316114D01*
Y315312D01*
X299337Y314961D01*
X299536Y314664D01*
X300337Y313862D01*
X300635Y313664D01*
X300986Y313594D01*
X319589D01*
X319940Y313664D01*
X320238Y313862D01*
X333567Y327191D01*
X341109D01*
X341460Y327261D01*
X341758Y327460D01*
X351518Y337220D01*
X387922D01*
X388129Y336720D01*
D02*
G37*
G36*
X324910Y322953D02*
X300004D01*
Y345000D01*
X324910D01*
Y322953D01*
D02*
G37*
G36*
X197300Y324214D02*
X204399D01*
X204399Y324214D01*
Y324214D01*
X204737Y323883D01*
X205646Y322973D01*
X205944Y322774D01*
X206295Y322705D01*
X215062D01*
X215269Y322204D01*
X211844Y318780D01*
X203314D01*
X201541Y320553D01*
X201243Y320752D01*
X200892Y320822D01*
X199215D01*
X196288Y323748D01*
Y325616D01*
X196755Y326082D01*
X197300D01*
Y324214D01*
D02*
G37*
G36*
X191028Y314153D02*
X191039Y314137D01*
X192436Y312741D01*
X192733Y312542D01*
X193084Y312472D01*
X194230D01*
X196082Y310620D01*
Y308398D01*
X187042D01*
X186723Y308334D01*
X186693Y308356D01*
X186525Y308843D01*
X188161Y310479D01*
X188662Y310452D01*
X188761Y310403D01*
X189137Y310027D01*
X189688Y309799D01*
X190285D01*
X190836Y310027D01*
X191258Y310449D01*
X191487Y311000D01*
Y311597D01*
X191258Y312148D01*
X190836Y312571D01*
X190285Y312799D01*
X189688D01*
X189137Y312571D01*
X189078Y312511D01*
X188578Y312718D01*
Y313897D01*
X188638Y314372D01*
X190619D01*
X191028Y314153D01*
D02*
G37*
G36*
X207354Y311145D02*
Y309351D01*
X207003Y309205D01*
X206581Y308783D01*
X206353Y308232D01*
Y307635D01*
X206496Y307289D01*
X206072Y307006D01*
X206043Y307035D01*
X205491Y307264D01*
X205141D01*
X204276Y308129D01*
X203978Y308328D01*
X203627Y308398D01*
X197918D01*
Y311000D01*
X197848Y311351D01*
X197649Y311649D01*
X195426Y313872D01*
X195633Y314372D01*
X196525D01*
Y314724D01*
X203774D01*
X207354Y311145D01*
D02*
G37*
G36*
X233226Y271351D02*
X233523Y271152D01*
X233875Y271082D01*
X387620D01*
X411731Y246971D01*
X411448Y246547D01*
X411407Y246564D01*
X410811D01*
X410756Y246542D01*
X387069Y270229D01*
X386771Y270428D01*
X386420Y270498D01*
X231274D01*
X198552Y303220D01*
X198254Y303418D01*
X197903Y303488D01*
X197909Y303986D01*
X200591D01*
X233226Y271351D01*
D02*
G37*
G36*
X191102Y306062D02*
X190908Y305821D01*
X187957D01*
X187606Y305751D01*
X187309Y305552D01*
X171533Y289777D01*
X171334Y289479D01*
X171264Y289128D01*
Y262405D01*
X171334Y262054D01*
X171533Y261756D01*
X177978Y255311D01*
X178276Y255112D01*
X178627Y255042D01*
X192982D01*
X200082Y247941D01*
Y246274D01*
X199688Y246168D01*
X198912Y245721D01*
X198279Y245088D01*
X197832Y244312D01*
X197600Y243448D01*
Y242916D01*
X197100Y242659D01*
X196908Y242796D01*
Y245886D01*
X196838Y246238D01*
X196639Y246535D01*
X190111Y253064D01*
X189813Y253262D01*
X189462Y253332D01*
X176605D01*
X169379Y260558D01*
Y288518D01*
X187423Y306562D01*
X190866D01*
X191102Y306062D01*
D02*
G37*
G36*
X167585Y289248D02*
X167607Y289217D01*
X167543Y288898D01*
Y260178D01*
X167613Y259827D01*
X167812Y259529D01*
X175576Y251766D01*
X175873Y251567D01*
X176225Y251497D01*
X189082D01*
X195072Y245506D01*
Y242259D01*
X195142Y241908D01*
X195341Y241611D01*
X199333Y237619D01*
Y235964D01*
X198912Y235721D01*
X198279Y235088D01*
X197922Y234469D01*
X197422Y234603D01*
Y236568D01*
X197353Y236919D01*
X197153Y237217D01*
X195688Y238682D01*
X195391Y238881D01*
X195040Y238951D01*
X188313D01*
X186800Y240464D01*
Y246151D01*
X186730Y246502D01*
X186531Y246800D01*
X184284Y249047D01*
X183987Y249246D01*
X183635Y249316D01*
X174297D01*
X164984Y258629D01*
Y287302D01*
X167098Y289416D01*
X167585Y289248D01*
D02*
G37*
G36*
X416500Y242202D02*
Y241702D01*
X416728Y241150D01*
X417082Y240796D01*
Y221380D01*
X416359Y220657D01*
X415898Y220903D01*
X415918Y221000D01*
Y240978D01*
X415848Y241329D01*
X415649Y241627D01*
X412580Y244696D01*
X412609Y244766D01*
Y245362D01*
X412592Y245403D01*
X413016Y245686D01*
X416500Y242202D01*
D02*
G37*
G36*
X203709Y306101D02*
X203693Y306062D01*
Y305466D01*
X203921Y304914D01*
X204343Y304492D01*
X204894Y304264D01*
X205395D01*
X222578Y287081D01*
X222876Y286882D01*
X223227Y286812D01*
X226216D01*
X237699Y275329D01*
X237997Y275130D01*
X238348Y275061D01*
X393613D01*
X393662Y275012D01*
Y274591D01*
X393731Y274240D01*
X393931Y273942D01*
X396014Y271859D01*
X396312Y271660D01*
X396663Y271590D01*
X397112D01*
X423082Y245620D01*
Y231335D01*
X421311Y229564D01*
X420811D01*
X420259Y229336D01*
X419837Y228914D01*
X419609Y228362D01*
Y227766D01*
X419837Y227214D01*
X420082Y226969D01*
Y220380D01*
X393098Y193396D01*
X264006D01*
X263654Y193326D01*
X263357Y193127D01*
X249351Y179122D01*
X249152Y178824D01*
X249082Y178473D01*
Y174470D01*
X248582Y174263D01*
X248555Y174291D01*
X248004Y174519D01*
X247407D01*
X246855Y174291D01*
X246433Y173869D01*
X246205Y173317D01*
Y172721D01*
X246433Y172169D01*
X246855Y171747D01*
X247407Y171519D01*
X248004D01*
X248555Y171747D01*
X248582Y171775D01*
X249082Y171568D01*
Y119067D01*
X249152Y118716D01*
X249351Y118418D01*
X283418Y84351D01*
X283716Y84152D01*
X284067Y84082D01*
X368620D01*
X408516Y44186D01*
Y40148D01*
X408162Y39794D01*
X407989Y39375D01*
X407488Y39475D01*
Y42429D01*
X407419Y42780D01*
X407220Y43078D01*
X370399Y79899D01*
X370101Y80098D01*
X369750Y80168D01*
X277730D01*
X243918Y113980D01*
Y178899D01*
X262487Y197468D01*
X390776D01*
X390875Y196968D01*
X390622Y196863D01*
X390200Y196441D01*
X389972Y195890D01*
Y195293D01*
X390200Y194741D01*
X390622Y194320D01*
X391174Y194091D01*
X391770D01*
X392322Y194320D01*
X392744Y194741D01*
X392972Y195293D01*
Y195890D01*
X392744Y196441D01*
X392322Y196863D01*
X392068Y196968D01*
X392168Y197468D01*
X395385D01*
X395737Y197538D01*
X396034Y197737D01*
X418649Y220351D01*
X418848Y220649D01*
X418918Y221000D01*
Y240796D01*
X419272Y241150D01*
X419500Y241702D01*
Y242298D01*
X419272Y242850D01*
X418850Y243272D01*
X418298Y243500D01*
X417798D01*
X388649Y272649D01*
X388351Y272848D01*
X388000Y272918D01*
X234255D01*
X201620Y305552D01*
X201322Y305751D01*
X200971Y305821D01*
X193635D01*
X193440Y306062D01*
X193676Y306562D01*
X203247D01*
X203709Y306101D01*
D02*
G37*
%LPC*%
G36*
X335654Y325124D02*
X335058D01*
X334506Y324895D01*
X334085Y324473D01*
X333856Y323922D01*
Y323325D01*
X334085Y322774D01*
X334506Y322352D01*
X335058Y322124D01*
X335654D01*
X336206Y322352D01*
X336628Y322774D01*
X336760Y323092D01*
X337298Y323085D01*
X337450Y322717D01*
X337872Y322295D01*
X338423Y322067D01*
X339020D01*
X339571Y322295D01*
X339993Y322717D01*
X340222Y323268D01*
Y323865D01*
X339993Y324416D01*
X339571Y324838D01*
X339020Y325067D01*
X338423D01*
X337872Y324838D01*
X337450Y324416D01*
X337318Y324098D01*
X336780Y324106D01*
X336628Y324473D01*
X336206Y324895D01*
X335654Y325124D01*
D02*
G37*
G36*
X335619Y321418D02*
X335022D01*
X334471Y321190D01*
X334049Y320768D01*
X333821Y320217D01*
Y319620D01*
X334049Y319069D01*
X334471Y318647D01*
X335022Y318418D01*
X335619D01*
X336171Y318647D01*
X336593Y319069D01*
X336821Y319620D01*
Y320217D01*
X336593Y320768D01*
X336171Y321190D01*
X335619Y321418D01*
D02*
G37*
G36*
X335768Y317725D02*
X335171D01*
X334620Y317497D01*
X334198Y317075D01*
X333970Y316523D01*
Y315927D01*
X334198Y315375D01*
X334620Y314953D01*
X335171Y314725D01*
X335768D01*
X336319Y314953D01*
X336741Y315375D01*
X336970Y315927D01*
Y316523D01*
X336741Y317075D01*
X336319Y317497D01*
X335768Y317725D01*
D02*
G37*
G36*
X326157Y313821D02*
X325560D01*
X325009Y313592D01*
X324587Y313170D01*
X324359Y312619D01*
Y312022D01*
X324587Y311471D01*
X325009Y311049D01*
X325560Y310821D01*
X326157D01*
X326708Y311049D01*
X327130Y311471D01*
X327359Y312022D01*
Y312619D01*
X327130Y313170D01*
X326708Y313592D01*
X326157Y313821D01*
D02*
G37*
G36*
X305763Y343184D02*
X305166D01*
X304615Y342955D01*
X304193Y342533D01*
X303964Y341982D01*
Y341385D01*
X304193Y340834D01*
X304615Y340412D01*
X305166Y340184D01*
X305763D01*
X306314Y340412D01*
X306736Y340834D01*
X306964Y341385D01*
Y341982D01*
X306736Y342533D01*
X306314Y342955D01*
X305763Y343184D01*
D02*
G37*
G36*
X191448Y246400D02*
X190552D01*
X189688Y246168D01*
X188912Y245721D01*
X188279Y245088D01*
X187832Y244312D01*
X187600Y243448D01*
Y242552D01*
X187832Y241688D01*
X188279Y240912D01*
X188912Y240279D01*
X189688Y239832D01*
X190552Y239600D01*
X191448D01*
X192312Y239832D01*
X193088Y240279D01*
X193721Y240912D01*
X194168Y241688D01*
X194400Y242552D01*
Y243448D01*
X194168Y244312D01*
X193721Y245088D01*
X193088Y245721D01*
X192312Y246168D01*
X191448Y246400D01*
D02*
G37*
G36*
X247175Y149729D02*
X246579D01*
X246027Y149501D01*
X245605Y149079D01*
X245377Y148527D01*
Y147931D01*
X245605Y147379D01*
X246027Y146957D01*
X246579Y146729D01*
X247175D01*
X247727Y146957D01*
X248149Y147379D01*
X248377Y147931D01*
Y148527D01*
X248149Y149079D01*
X247727Y149501D01*
X247175Y149729D01*
D02*
G37*
%LPD*%
G36*
X341494Y391506D02*
X340882Y390894D01*
X340649Y390848D01*
X340351Y390649D01*
X339351Y389649D01*
X339152Y389351D01*
X339082Y389000D01*
Y384663D01*
X338582Y384353D01*
X338408Y384425D01*
X337954Y384637D01*
Y385234D01*
X337726Y385785D01*
X337304Y386207D01*
X337302Y386727D01*
X337724Y387148D01*
X337953Y387700D01*
Y388297D01*
X337724Y388848D01*
X337302Y389270D01*
X336751Y389498D01*
X336154D01*
X335870Y389381D01*
X335370Y389690D01*
Y392437D01*
X337967Y395033D01*
X341494Y391506D01*
D02*
G37*
G36*
X326320Y365821D02*
Y351445D01*
X308759D01*
Y367396D01*
X308803Y367462D01*
X324678D01*
X326320Y365821D01*
D02*
G37*
G36*
X336669Y396331D02*
X333804Y393466D01*
X333605Y393168D01*
X333535Y392817D01*
Y379818D01*
X333594Y379524D01*
X333500Y379298D01*
Y378702D01*
X333728Y378150D01*
X334150Y377728D01*
X334702Y377500D01*
X335298D01*
X335850Y377728D01*
X336272Y378150D01*
X336500Y378702D01*
Y379136D01*
X336968Y379375D01*
X337188Y379155D01*
X337739Y378927D01*
X338336D01*
X338887Y379155D01*
X339309Y379577D01*
X339538Y380128D01*
Y380358D01*
X340649Y381470D01*
X340848Y381767D01*
X340918Y382118D01*
Y386993D01*
X341380Y387185D01*
X341429Y387136D01*
X343647Y389353D01*
X347000Y386000D01*
X442000D01*
Y381000D01*
X463000D01*
Y345000D01*
X444000Y326000D01*
X437000D01*
X426499Y332522D01*
Y339499D01*
X430000Y343000D01*
Y351000D01*
X421000Y360000D01*
X357042D01*
X344123Y347081D01*
X336831D01*
X336761Y347552D01*
X337313Y347780D01*
X337735Y348202D01*
X337963Y348754D01*
Y349350D01*
X337735Y349902D01*
X337313Y350324D01*
X336761Y350552D01*
X336165D01*
X335613Y350324D01*
X335191Y349902D01*
X334963Y349350D01*
Y348754D01*
X335191Y348202D01*
X335613Y347780D01*
X336165Y347552D01*
X336095Y347081D01*
X326753D01*
Y366000D01*
X294753Y398000D01*
X219496D01*
Y398370D01*
X219268Y398921D01*
X218846Y399343D01*
X218294Y399572D01*
X217698D01*
X217146Y399343D01*
X216724Y398921D01*
X216496Y398370D01*
Y398000D01*
X136200D01*
X136182Y398043D01*
X135760Y398465D01*
X135209Y398694D01*
X134613D01*
X134061Y398465D01*
X133639Y398043D01*
X133621Y398000D01*
X132572D01*
X132554Y398043D01*
X132132Y398465D01*
X131581Y398694D01*
X130984D01*
X130433Y398465D01*
X130011Y398043D01*
X129993Y398000D01*
X82000D01*
Y421000D01*
X312000D01*
X336669Y396331D01*
D02*
G37*
%LPC*%
G36*
X250414Y410827D02*
X249817D01*
X249266Y410599D01*
X248844Y410177D01*
X248615Y409626D01*
Y409029D01*
X248844Y408478D01*
X249266Y408056D01*
X249817Y407828D01*
X250414D01*
X250965Y408056D01*
X251387Y408478D01*
X251615Y409029D01*
Y409626D01*
X251387Y410177D01*
X250965Y410599D01*
X250414Y410827D01*
D02*
G37*
G36*
X241439Y407754D02*
X240843D01*
X240291Y407526D01*
X239869Y407104D01*
X239741Y406794D01*
X239200D01*
X239085Y407070D01*
X238664Y407492D01*
X238112Y407720D01*
X237515D01*
X236964Y407492D01*
X236542Y407070D01*
X236314Y406519D01*
Y405922D01*
X236542Y405371D01*
X236964Y404949D01*
X237515Y404720D01*
X238112D01*
X238664Y404949D01*
X239085Y405371D01*
X239214Y405681D01*
X239755D01*
X239869Y405404D01*
X240291Y404982D01*
X240843Y404754D01*
X241439D01*
X241991Y404982D01*
X242413Y405404D01*
X242641Y405956D01*
Y406552D01*
X242413Y407104D01*
X241991Y407526D01*
X241439Y407754D01*
D02*
G37*
G36*
X135140Y406617D02*
X134543D01*
X133992Y406388D01*
X133570Y405966D01*
X133341Y405415D01*
Y404818D01*
X133570Y404267D01*
X133992Y403845D01*
X134543Y403617D01*
X135140D01*
X135691Y403845D01*
X136113Y404267D01*
X136341Y404818D01*
Y405415D01*
X136113Y405966D01*
X135691Y406388D01*
X135140Y406617D01*
D02*
G37*
G36*
X131511D02*
X130914D01*
X130363Y406388D01*
X129941Y405966D01*
X129713Y405415D01*
Y404818D01*
X129941Y404267D01*
X130363Y403845D01*
X130914Y403617D01*
X131511D01*
X132062Y403845D01*
X132484Y404267D01*
X132713Y404818D01*
Y405415D01*
X132484Y405966D01*
X132062Y406388D01*
X131511Y406617D01*
D02*
G37*
G36*
X135140Y402617D02*
X134543D01*
X133992Y402388D01*
X133570Y401966D01*
X133341Y401415D01*
Y400818D01*
X133570Y400267D01*
X133992Y399845D01*
X134543Y399617D01*
X135140D01*
X135691Y399845D01*
X136113Y400267D01*
X136341Y400818D01*
Y401415D01*
X136113Y401966D01*
X135691Y402388D01*
X135140Y402617D01*
D02*
G37*
G36*
X131511D02*
X130914D01*
X130363Y402388D01*
X129941Y401966D01*
X129713Y401415D01*
Y400818D01*
X129941Y400267D01*
X130363Y399845D01*
X130914Y399617D01*
X131511D01*
X132062Y399845D01*
X132484Y400267D01*
X132713Y400818D01*
Y401415D01*
X132484Y401966D01*
X132062Y402388D01*
X131511Y402617D01*
D02*
G37*
G36*
X226084Y402499D02*
X225487D01*
X224936Y402271D01*
X224514Y401849D01*
X224286Y401298D01*
Y400701D01*
X224514Y400149D01*
X224936Y399728D01*
X225487Y399499D01*
X226084D01*
X226635Y399728D01*
X227057Y400149D01*
X227286Y400701D01*
Y401298D01*
X227057Y401849D01*
X226635Y402271D01*
X226084Y402499D01*
D02*
G37*
G36*
X315850Y400704D02*
X315254D01*
X314702Y400476D01*
X314280Y400054D01*
X314052Y399502D01*
Y398906D01*
X314280Y398354D01*
X314702Y397932D01*
X315254Y397704D01*
X315850D01*
X316402Y397932D01*
X316824Y398354D01*
X317052Y398906D01*
Y399502D01*
X316824Y400054D01*
X316402Y400476D01*
X315850Y400704D01*
D02*
G37*
G36*
X327313Y397480D02*
X326717D01*
X326166Y397251D01*
X325744Y396829D01*
X325515Y396278D01*
Y395681D01*
X325744Y395130D01*
X326166Y394708D01*
X326717Y394479D01*
X327313D01*
X327865Y394708D01*
X328287Y395130D01*
X328515Y395681D01*
Y396278D01*
X328287Y396829D01*
X327865Y397251D01*
X327313Y397480D01*
D02*
G37*
G36*
X323313D02*
X322717D01*
X322165Y397251D01*
X321743Y396829D01*
X321515Y396278D01*
Y395681D01*
X321743Y395130D01*
X322165Y394708D01*
X322717Y394479D01*
X323313D01*
X323865Y394708D01*
X324287Y395130D01*
X324515Y395681D01*
Y396278D01*
X324287Y396829D01*
X323865Y397251D01*
X323313Y397480D01*
D02*
G37*
G36*
X327556Y389605D02*
X326960D01*
X326408Y389376D01*
X325986Y388954D01*
X325758Y388403D01*
Y387806D01*
X325986Y387255D01*
X326408Y386833D01*
X326960Y386605D01*
X327556D01*
X328108Y386833D01*
X328530Y387255D01*
X328758Y387806D01*
Y388403D01*
X328530Y388954D01*
X328108Y389376D01*
X327556Y389605D01*
D02*
G37*
G36*
X323556D02*
X322960D01*
X322408Y389376D01*
X321986Y388954D01*
X321758Y388403D01*
Y387806D01*
X321986Y387255D01*
X322408Y386833D01*
X322960Y386605D01*
X323556D01*
X324108Y386833D01*
X324530Y387255D01*
X324758Y387806D01*
Y388403D01*
X324530Y388954D01*
X324108Y389376D01*
X323556Y389605D01*
D02*
G37*
G36*
X327487Y385032D02*
X326891D01*
X326340Y384803D01*
X325918Y384381D01*
X325689Y383830D01*
Y383233D01*
X325918Y382682D01*
X326340Y382260D01*
X326891Y382032D01*
X327487D01*
X328039Y382260D01*
X328461Y382682D01*
X328689Y383233D01*
Y383830D01*
X328461Y384381D01*
X328039Y384803D01*
X327487Y385032D01*
D02*
G37*
G36*
X323487D02*
X322891D01*
X322340Y384803D01*
X321918Y384381D01*
X321689Y383830D01*
Y383233D01*
X321918Y382682D01*
X322340Y382260D01*
X322891Y382032D01*
X323487D01*
X324039Y382260D01*
X324461Y382682D01*
X324689Y383233D01*
Y383830D01*
X324461Y384381D01*
X324039Y384803D01*
X323487Y385032D01*
D02*
G37*
G36*
X348834Y383592D02*
X348238D01*
X347686Y383364D01*
X347265Y382942D01*
X347036Y382390D01*
Y381794D01*
X347265Y381242D01*
X347686Y380820D01*
X348238Y380592D01*
X348834D01*
X349386Y380820D01*
X349808Y381242D01*
X350036Y381794D01*
Y382390D01*
X349808Y382942D01*
X349386Y383364D01*
X348834Y383592D01*
D02*
G37*
G36*
X344834D02*
X344238D01*
X343686Y383364D01*
X343265Y382942D01*
X343036Y382390D01*
Y381794D01*
X343265Y381242D01*
X343686Y380820D01*
X344238Y380592D01*
X344834D01*
X345386Y380820D01*
X345808Y381242D01*
X346036Y381794D01*
Y382390D01*
X345808Y382942D01*
X345386Y383364D01*
X344834Y383592D01*
D02*
G37*
G36*
X327491Y379046D02*
X326894D01*
X326343Y378818D01*
X325921Y378396D01*
X325692Y377844D01*
Y377248D01*
X325921Y376696D01*
X326343Y376274D01*
X326894Y376046D01*
X327491D01*
X328042Y376274D01*
X328464Y376696D01*
X328692Y377248D01*
Y377844D01*
X328464Y378396D01*
X328042Y378818D01*
X327491Y379046D01*
D02*
G37*
G36*
X323491D02*
X322894D01*
X322342Y378818D01*
X321921Y378396D01*
X321692Y377844D01*
Y377248D01*
X321921Y376696D01*
X322342Y376274D01*
X322894Y376046D01*
X323491D01*
X324042Y376274D01*
X324464Y376696D01*
X324692Y377248D01*
Y377844D01*
X324464Y378396D01*
X324042Y378818D01*
X323491Y379046D01*
D02*
G37*
G36*
X348935Y376478D02*
X348339D01*
X347787Y376250D01*
X347365Y375828D01*
X347137Y375276D01*
Y374680D01*
X347365Y374128D01*
X347787Y373706D01*
X348339Y373478D01*
X348935D01*
X349487Y373706D01*
X349909Y374128D01*
X350137Y374680D01*
Y375276D01*
X349909Y375828D01*
X349487Y376250D01*
X348935Y376478D01*
D02*
G37*
G36*
X344935D02*
X344339D01*
X343787Y376250D01*
X343365Y375828D01*
X343137Y375276D01*
Y374680D01*
X343365Y374128D01*
X343787Y373706D01*
X344339Y373478D01*
X344935D01*
X345487Y373706D01*
X345909Y374128D01*
X346137Y374680D01*
Y375276D01*
X345909Y375828D01*
X345487Y376250D01*
X344935Y376478D01*
D02*
G37*
G36*
X337039Y373138D02*
X336442D01*
X335891Y372910D01*
X335469Y372488D01*
X335241Y371936D01*
Y371340D01*
X335469Y370788D01*
X335891Y370366D01*
X336442Y370138D01*
X337039D01*
X337591Y370366D01*
X338013Y370788D01*
X338241Y371340D01*
Y371936D01*
X338013Y372488D01*
X337591Y372910D01*
X337039Y373138D01*
D02*
G37*
G36*
X329023Y370564D02*
X328426D01*
X327875Y370336D01*
X327453Y369914D01*
X327225Y369362D01*
Y368766D01*
X327453Y368214D01*
X327875Y367792D01*
X328426Y367564D01*
X329023D01*
X329574Y367792D01*
X329996Y368214D01*
X330225Y368766D01*
Y369362D01*
X329996Y369914D01*
X329574Y370336D01*
X329023Y370564D01*
D02*
G37*
G36*
X341791Y350629D02*
X341194D01*
X340643Y350400D01*
X340221Y349978D01*
X339993Y349427D01*
Y348830D01*
X340221Y348279D01*
X340643Y347857D01*
X341194Y347629D01*
X341791D01*
X342342Y347857D01*
X342764Y348279D01*
X342993Y348830D01*
Y349427D01*
X342764Y349978D01*
X342342Y350400D01*
X341791Y350629D01*
D02*
G37*
%LPD*%
G36*
X67000Y323000D02*
X40000D01*
Y343000D01*
X67000D01*
Y323000D01*
D02*
G37*
G36*
X75701Y301000D02*
X63779D01*
X63543Y301500D01*
X63713Y301910D01*
Y302507D01*
X63484Y303058D01*
X63062Y303480D01*
X62511Y303709D01*
X61914D01*
X61363Y303480D01*
X60941Y303058D01*
X60713Y302507D01*
Y301910D01*
X60883Y301500D01*
X60647Y301000D01*
X50000D01*
X40000Y311000D01*
Y321000D01*
X68000D01*
Y326000D01*
X75701D01*
Y301000D01*
D02*
G37*
G36*
X134454Y324000D02*
X106000D01*
Y341637D01*
X134454D01*
Y324000D01*
D02*
G37*
G36*
X145000Y316554D02*
X147000D01*
Y291429D01*
X146584Y291151D01*
X146496Y291188D01*
X145899D01*
X145348Y290960D01*
X144926Y290538D01*
X144703Y290000D01*
X134000D01*
Y302000D01*
X106000D01*
Y319000D01*
X135000D01*
Y328000D01*
X145000D01*
Y316554D01*
D02*
G37*
D14*
X406571Y36684D02*
Y42429D01*
X277350Y79250D02*
X369750D01*
X406571Y42429D01*
X396000Y202000D02*
X415000Y221000D01*
X258000Y202000D02*
X396000D01*
X237000Y181000D02*
X258000Y202000D01*
X415000Y221000D02*
Y240978D01*
X395385Y198385D02*
X418000Y221000D01*
Y241914D01*
X388000Y272000D02*
X418000Y242000D01*
X394579Y274591D02*
Y275392D01*
X393993Y275978D02*
X394579Y275392D01*
X238348Y275978D02*
X393993D01*
X424000Y230955D02*
Y246000D01*
X397493Y272507D02*
X424000Y246000D01*
X205193Y305764D02*
X223227Y287730D01*
X394579Y274591D02*
X396663Y272507D01*
X397493D01*
X421109Y228064D02*
X424000Y230955D01*
X421000Y220000D02*
Y228064D01*
X410000Y226000D02*
X412000D01*
X411109Y244869D02*
X415000Y240978D01*
X392000Y208000D02*
X410000Y226000D01*
X266000Y208000D02*
X392000D01*
X411109Y244869D02*
Y245064D01*
X400000Y241000D02*
X404000Y245000D01*
X377000Y212000D02*
X400000Y235000D01*
Y241000D01*
X404000Y245000D02*
X405000D01*
X272000Y212000D02*
X377000D01*
X251000Y233000D02*
X272000Y212000D01*
X241000Y233000D02*
X266000Y208000D01*
X386420Y269580D02*
X411023Y244977D01*
X393478Y192478D02*
X421000Y220000D01*
X230893Y269580D02*
X386420D01*
X233875Y272000D02*
X388000D01*
X262107Y198385D02*
X395385D01*
X264006Y192478D02*
X393478D01*
X193479Y319007D02*
X193566Y319093D01*
Y327673D01*
X192730Y328508D02*
X193566Y327673D01*
X192730Y328508D02*
Y328779D01*
X215920Y238080D02*
X221000Y233000D01*
X176373Y289579D02*
X189365Y302571D01*
X176373Y264077D02*
Y289579D01*
Y264077D02*
X180917Y259534D01*
X215920Y238080D02*
Y249601D01*
X396907Y40305D02*
X401651D01*
X272119Y74000D02*
X363212D01*
X396907Y40305D01*
X205988Y259534D02*
X215920Y249601D01*
X180917Y259534D02*
X205988D01*
X189365Y302571D02*
X197903D01*
X230893Y269580D01*
X237000Y109119D02*
Y181000D01*
Y109119D02*
X272119Y74000D01*
X335000Y407000D02*
Y409863D01*
X333868Y410995D02*
X335000Y409863D01*
Y406890D02*
X338890D01*
X333868Y410995D02*
Y411266D01*
X338890Y406890D02*
X339000Y407000D01*
X417162Y23162D02*
Y30704D01*
X408000Y14000D02*
X417162Y23162D01*
X334238Y33000D02*
X342000D01*
X334208Y32969D02*
X334238Y33000D01*
X334031Y32969D02*
X334208D01*
X342000Y33000D02*
X361000Y14000D01*
X334000Y26150D02*
X334208Y26357D01*
X361000Y14000D02*
X408000D01*
X334031Y32969D02*
X334208Y32792D01*
Y26357D02*
Y32792D01*
X334000Y33000D02*
X334031Y32969D01*
X183970Y328317D02*
Y330022D01*
X183921Y317921D02*
X184000Y318000D01*
X183723Y317921D02*
X183921D01*
X180860Y325207D02*
X183970Y328317D01*
X176334Y325191D02*
X180860D01*
X181755Y324297D01*
Y317921D02*
X183723D01*
X181755D02*
Y324297D01*
X181772Y312119D02*
Y316772D01*
X181139Y311485D02*
X181772Y312119D01*
X181040Y311485D02*
X181139D01*
X231470Y106821D02*
X265841Y72450D01*
X231470Y106821D02*
Y123530D01*
X265841Y38159D02*
Y72450D01*
X241000Y53000D02*
Y72828D01*
X205000Y108828D02*
X241000Y72828D01*
X205000Y108828D02*
Y136360D01*
X405932Y334569D02*
X406428D01*
X154893Y182107D02*
X155000Y182000D01*
X154893Y182107D02*
Y214885D01*
X146000Y229000D02*
X166000Y209000D01*
Y180086D02*
Y209000D01*
X146000Y229000D02*
Y246000D01*
X178000Y149000D02*
X190500Y161500D01*
X176000Y149000D02*
X178000D01*
X190500Y161500D02*
Y167500D01*
X205000Y182000D01*
Y220000D01*
X178836Y158096D02*
X185102Y164362D01*
Y204102D01*
X196505Y226859D02*
X198161Y225203D01*
Y222711D02*
Y225203D01*
X206100Y225100D02*
Y238100D01*
X185102Y204102D02*
X206100Y225100D01*
X165000Y179086D02*
X166000Y180086D01*
X165000Y179000D02*
Y179086D01*
X164923Y179023D02*
X165023D01*
X185995Y224410D02*
X186079Y224326D01*
X185995Y224410D02*
Y235702D01*
X223000Y177000D02*
X223039Y177039D01*
Y177523D01*
X223000Y177562D02*
Y208000D01*
Y177562D02*
X223039Y177523D01*
X223000Y208000D02*
X236000Y221000D01*
Y238000D01*
X231000Y243000D02*
X236000Y238000D01*
X216813Y278507D02*
X216907Y278413D01*
X207400Y336201D02*
Y354622D01*
X206199Y335000D02*
X207400Y336201D01*
X208414Y333079D02*
X209000Y333665D01*
Y353000D01*
X207400Y354622D02*
X231061Y378283D01*
X209000Y353000D02*
X224856Y368856D01*
X203933Y370890D02*
X210979Y363845D01*
Y363617D02*
Y363845D01*
X204534Y374419D02*
X208554Y370399D01*
X112688Y298016D02*
X112984D01*
X108765Y294235D02*
X109000Y294000D01*
X112688Y290312D02*
Y298016D01*
Y298050D01*
X108765Y294235D02*
Y297981D01*
X108800Y298016D02*
X112688D01*
Y290312D02*
X113000Y290000D01*
X112984Y298016D02*
X113000Y298000D01*
X72236Y158096D02*
X178836D01*
X167847Y173853D02*
X169921Y175927D01*
X65372Y178014D02*
X163914D01*
X164923Y179023D01*
X174000Y171000D02*
X176044Y173044D01*
Y215457D01*
X174000Y170729D02*
Y171155D01*
X171643Y168246D02*
X172395Y168997D01*
Y169124D02*
X174000Y170729D01*
X172395Y168997D02*
Y169124D01*
X70764Y168246D02*
X171643D01*
X181398Y194135D02*
Y222602D01*
X181000Y193738D02*
X181398Y194135D01*
X181000Y165000D02*
Y193738D01*
X171000Y233000D02*
X181398Y222602D01*
X204906Y136454D02*
Y136906D01*
Y136454D02*
X205000Y136360D01*
X60431Y165892D02*
Y173073D01*
Y165892D02*
X60612Y165711D01*
X60431Y173073D02*
X65372Y178014D01*
X146000Y246000D02*
X149000Y249000D01*
X158000D01*
X160107Y246893D01*
Y243893D02*
Y246893D01*
Y243893D02*
X161000Y243000D01*
X67955Y165436D02*
X70764Y168246D01*
X161318Y232803D02*
X161893Y232228D01*
Y229531D02*
Y232228D01*
Y229531D02*
X163149Y228275D01*
X163225D02*
X176044Y215457D01*
X63964Y166818D02*
Y167800D01*
Y166818D02*
X64028Y166755D01*
Y166048D02*
Y166755D01*
Y166048D02*
X64219Y165856D01*
X169921Y175850D02*
Y175927D01*
X63964Y167800D02*
X70017Y173853D01*
X167847D01*
X155508Y238137D02*
Y238492D01*
X155458Y226847D02*
Y238095D01*
Y226847D02*
X170898Y211407D01*
Y176936D02*
Y211407D01*
X169921Y175959D02*
X170898Y176936D01*
X169921Y175927D02*
Y175959D01*
Y175927D02*
X170013Y176019D01*
X151000Y243000D02*
X155508Y238492D01*
X183723Y336277D02*
X185000Y335000D01*
X193000D01*
X183723Y336277D02*
Y342331D01*
X182507Y346665D02*
X183633Y345539D01*
X182103Y349021D02*
X182507Y348618D01*
X183633Y342421D02*
X183723Y342331D01*
X183633Y342421D02*
Y345539D01*
X182507Y346665D02*
Y348618D01*
X401324Y17754D02*
X406550Y22980D01*
X350000Y36071D02*
X363766Y22306D01*
X398859D01*
X362979Y17754D02*
X401324D01*
X206100Y238100D02*
X211000Y243000D01*
X371087Y279812D02*
Y282691D01*
X377910Y289513D01*
X420435Y307006D02*
X423346D01*
X428340Y312000D02*
X433000D01*
X423346Y307006D02*
X428340Y312000D01*
X433000D02*
X436800Y308200D01*
X440024D01*
X443517Y311693D01*
X472682Y309451D02*
Y309568D01*
X470557Y311693D02*
X472682Y309568D01*
X416533Y303104D02*
X420435Y307006D01*
X404609Y303104D02*
X416533D01*
X396271Y298735D02*
X400240D01*
X404609Y303104D01*
X391682Y294146D02*
X396271Y298735D01*
X384285Y289513D02*
X388918Y294146D01*
X391682D01*
X377910Y289513D02*
X384285D01*
X443517Y311693D02*
X470557D01*
X243000Y113600D02*
Y179279D01*
X262107Y198385D01*
X243000Y113600D02*
X277350Y79250D01*
X250000Y119067D02*
X284067Y85000D01*
X250000Y119067D02*
Y178473D01*
X264006Y192478D01*
X200971Y304904D02*
X233875Y272000D01*
X339000Y397364D02*
Y403000D01*
X331000Y407000D02*
X331209D01*
X335000Y403209D01*
Y403110D02*
Y403209D01*
X340000Y382118D02*
Y389000D01*
X338308Y380427D02*
X340000Y382118D01*
Y389000D02*
X341000Y390000D01*
X338038Y380427D02*
X338308D01*
X334453Y392817D02*
X339000Y397364D01*
X334453Y379818D02*
Y392817D01*
Y379818D02*
X335000Y379271D01*
Y379000D02*
Y379271D01*
X187660Y311276D02*
Y317921D01*
X164067Y258248D02*
Y287682D01*
X187660Y311276D01*
X164067Y258248D02*
X173917Y248398D01*
X183635D01*
X187933Y238034D02*
X195040D01*
X185883Y240084D02*
X187933Y238034D01*
X183635Y248398D02*
X185883Y246151D01*
Y240084D02*
Y246151D01*
X195040Y238034D02*
X196505Y236568D01*
Y226859D02*
Y236568D01*
X224856Y368856D02*
X250174D01*
X231061Y378283D02*
X242937D01*
X257979Y332977D02*
X258315D01*
X216329Y329142D02*
X230732Y343545D01*
X200849Y329142D02*
X216329D01*
X215380Y331000D02*
X220270Y335890D01*
X201000Y331000D02*
X215380D01*
X204713Y325205D02*
X206295Y323622D01*
X264427Y310427D02*
X265000Y311000D01*
X200849Y325205D02*
X204713D01*
X206295Y323622D02*
X227709D01*
X257526Y333766D02*
Y335860D01*
Y333766D02*
X258261Y333031D01*
X200849Y333079D02*
X208414D01*
X255935Y337451D02*
X257526Y335860D01*
X201000Y335000D02*
X206199D01*
X220270Y344700D02*
X225412Y349842D01*
X220270Y335890D02*
Y344700D01*
X230732Y343545D02*
X240628D01*
X216172Y321809D02*
X223252D01*
X240652Y304410D01*
X212224Y317862D02*
X216172Y321809D01*
X227709Y323622D02*
X233022Y318309D01*
X225412Y349842D02*
X250332D01*
X191688Y314786D02*
X193084Y313389D01*
X191688Y314786D02*
Y317831D01*
X191597Y317921D02*
X191688Y317831D01*
X193084Y313389D02*
X194611D01*
X197000Y308000D02*
Y311000D01*
X194611Y313389D02*
X197000Y311000D01*
X195371Y323369D02*
X198835Y319904D01*
X195371Y325996D02*
X196374Y327000D01*
X195371Y323369D02*
Y325996D01*
X198835Y319904D02*
X200892D01*
X196374Y327000D02*
X200000D01*
X191597Y317921D02*
Y325488D01*
X191085Y326000D02*
X191597Y325488D01*
X191000Y326000D02*
X191085D01*
X188957Y323905D02*
X189619Y323243D01*
Y319501D02*
Y323243D01*
X188957Y323905D02*
Y324175D01*
X187042Y307480D02*
X203627D01*
X282477Y309102D02*
X343647D01*
X401706Y329779D02*
X405932Y325553D01*
X399610Y333599D02*
X401706Y331503D01*
X387337Y331011D02*
X392823D01*
X384002Y334347D02*
X387337Y331011D01*
X401706Y329779D02*
Y331503D01*
X399347Y333599D02*
X399610D01*
X399309Y333637D02*
X399347Y333599D01*
X343647Y309102D02*
X368891Y334347D01*
X395448Y333637D02*
X399309D01*
X392823Y331011D02*
X395448Y333637D01*
X368891Y334347D02*
X384002D01*
X319589Y314511D02*
X333187Y328109D01*
X410168Y330293D02*
X414908Y325553D01*
X410168Y330293D02*
Y336615D01*
X408065Y338718D02*
X410168Y336615D01*
X404347Y338718D02*
X408065D01*
X401129Y335500D02*
X404347Y338718D01*
X395548Y335500D02*
X401129D01*
X392911Y338137D02*
X395548Y335500D01*
X351137Y338137D02*
X392911D01*
X341109Y328109D02*
X351137Y338137D01*
X333187Y328109D02*
X341109D01*
X299330Y317350D02*
Y317620D01*
Y317350D02*
X300185Y316494D01*
Y315312D02*
Y316494D01*
Y315312D02*
X300986Y314511D01*
X319589D01*
X279024Y312556D02*
X282477Y309102D01*
X166132Y239302D02*
Y247742D01*
Y239302D02*
X167147Y238286D01*
X201000Y243000D02*
Y248322D01*
X195990Y242259D02*
X200251Y237999D01*
X176225Y252415D02*
X189462D01*
X195990Y242259D02*
Y245886D01*
X189462Y252415D02*
X195990Y245886D01*
X270802Y53198D02*
Y64067D01*
X272263Y43000D02*
X276000Y46737D01*
X271000Y43000D02*
X272263D01*
X200251Y233749D02*
X201000Y233000D01*
X200251Y233749D02*
Y237999D01*
X270802Y53198D02*
X271000Y53000D01*
X345196Y35537D02*
X362979Y17754D01*
X345196Y35537D02*
Y54765D01*
X335933Y64028D02*
X345196Y54765D01*
X278185Y64028D02*
X335933D01*
X276000Y61844D02*
X278185Y64028D01*
X276000Y46737D02*
Y61844D01*
X350000Y36071D02*
Y59000D01*
X339000Y70000D02*
X350000Y59000D01*
X276735Y70000D02*
X339000Y70000D01*
X273565Y66830D02*
X276735Y70000D01*
X270802Y64067D02*
X273565Y66830D01*
X168461Y288898D02*
X187042Y307480D01*
X168461Y260178D02*
Y288898D01*
Y260178D02*
X176225Y252415D01*
X187957Y304904D02*
X192271D01*
X172182Y289128D02*
X187957Y304904D01*
X172182Y262405D02*
Y289128D01*
Y262405D02*
X178627Y255960D01*
X193362D01*
X201000Y248322D01*
X183411Y238286D02*
X185995Y235702D01*
X75000Y39000D02*
Y55000D01*
X77000Y57000D01*
Y92000D01*
X167147Y238286D02*
X183411D01*
X160024Y253850D02*
X166132Y247742D01*
X160024Y253850D02*
Y303100D01*
X192271Y304904D02*
X200971D01*
X180771Y367826D02*
X183835Y370890D01*
X180771Y364805D02*
Y367826D01*
X183835Y370890D02*
X203933D01*
X170448Y368657D02*
X176210Y374419D01*
X170448Y366182D02*
Y368657D01*
X170422Y366157D02*
X170448Y366182D01*
X176210Y374419D02*
X204534D01*
X203627Y307480D02*
X205193Y305914D01*
X316000Y26150D02*
Y29719D01*
Y26000D02*
Y26150D01*
X311481Y34239D02*
X316000Y29719D01*
X298000Y26000D02*
Y27046D01*
X297532Y27515D02*
X298000Y27046D01*
X86485Y27515D02*
X297532D01*
X229000Y182000D02*
X245000Y198000D01*
Y209646D01*
X269761Y34239D02*
X311481D01*
X277000Y306493D02*
X282000Y301494D01*
Y282000D02*
Y301494D01*
X277000Y306493D02*
Y315000D01*
X280040Y284366D02*
Y300982D01*
X275062Y305959D02*
Y315904D01*
Y305959D02*
X280040Y300982D01*
X250332Y349842D02*
X256513Y343661D01*
X258315Y332977D02*
X259066D01*
X258252Y342216D02*
X264447D01*
X263377Y380623D02*
X264000Y380000D01*
X202934Y317862D02*
X212224D01*
X200892Y319904D02*
X202934Y317862D01*
X265841Y38159D02*
X269761Y34239D01*
X160024Y303100D02*
X174470Y317547D01*
X205193Y305764D02*
Y305914D01*
X223227Y287730D02*
X226596D01*
X238348Y275978D01*
X284044Y366209D02*
X288182Y370347D01*
X297964D02*
X298074Y370457D01*
X288182Y370347D02*
X297964D01*
X277000Y315000D02*
X282651Y320651D01*
X322338D01*
X322428Y320561D01*
X215975Y312019D02*
X226520D01*
X256458Y282080D02*
X277754D01*
X226520Y312019D02*
X256458Y282080D01*
X251999Y318309D02*
X257118Y313190D01*
Y311625D02*
X258315Y310427D01*
X257118Y311625D02*
Y313190D01*
X258537Y299941D02*
X263942D01*
X255833Y304410D02*
X257230Y303013D01*
Y301223D02*
X258315Y300138D01*
X257230Y301223D02*
Y303013D01*
X215614Y307004D02*
X226547D01*
X255552Y278000D02*
X263000D01*
X226547Y307004D02*
X255552Y278000D01*
X242937Y378283D02*
X250198Y385544D01*
X255829D01*
X257398Y387113D01*
X246722Y337451D02*
X255935D01*
X240628Y343545D02*
X246722Y337451D01*
X108765Y297981D02*
X108800Y298016D01*
X229000Y126000D02*
X231470Y123530D01*
X75000Y39000D02*
X86485Y27515D01*
X77000Y92000D02*
X84000Y99000D01*
X229000Y126000D02*
Y182000D01*
X239467Y215180D02*
X245000Y209646D01*
X258260Y389995D02*
X263995D01*
X264000Y390000D01*
X171000Y335047D02*
X176440D01*
X169377Y336671D02*
X171000Y335047D01*
X169014Y336671D02*
X169377D01*
X258315Y310427D02*
X264427D01*
X233022Y318309D02*
X251999D01*
X263060Y277940D02*
X277940D01*
X263000Y278000D02*
X263060Y277940D01*
X277940D02*
X282000Y282000D01*
X277754Y282080D02*
X280040Y284366D01*
X275062Y315904D02*
X284044Y324886D01*
Y366209D01*
X250174Y368856D02*
X258315Y376997D01*
X270694Y393694D02*
X271000Y394000D01*
X270694Y389995D02*
Y393694D01*
X270748Y377252D02*
Y380623D01*
Y377252D02*
X271000Y377000D01*
X270746Y332994D02*
X271037Y332702D01*
Y329037D02*
Y332702D01*
X271000Y329000D02*
X271037Y329037D01*
X270746Y342216D02*
Y345746D01*
X271000Y346000D01*
X270748Y310595D02*
X271152Y310191D01*
Y306848D02*
Y310191D01*
Y306848D02*
X278079Y299921D01*
Y293079D02*
Y299921D01*
X274813Y289812D02*
X278079Y293079D01*
X274813Y284412D02*
Y289812D01*
X270748Y295000D02*
X271000D01*
X270748D02*
Y300195D01*
X369000Y85000D02*
X409434Y44566D01*
Y38945D02*
Y44566D01*
X240652Y304410D02*
X255833D01*
X257398Y389132D02*
X258260Y389995D01*
X257398Y387113D02*
Y389132D01*
X258315Y380623D02*
X263377D01*
X258315Y376997D02*
Y380623D01*
X264195Y300195D02*
X264449D01*
X263942Y299941D02*
X264195Y300195D01*
X257981Y342193D02*
Y342291D01*
X256611Y343661D02*
X257981Y342291D01*
X256513Y343661D02*
X256611D01*
X257981Y342193D02*
X258067Y342107D01*
X258143D01*
X258252Y342216D01*
X259066Y332888D02*
X264341D01*
X264447Y332994D01*
X284067Y85000D02*
X369000D01*
D22*
X181040Y311485D02*
D03*
X177261D02*
D03*
D23*
X339000Y406890D02*
D03*
X335000D02*
D03*
X334000Y24890D02*
D03*
X339000Y403110D02*
D03*
X335000D02*
D03*
X334000Y21110D02*
D03*
X316000D02*
D03*
Y24890D02*
D03*
D24*
X252016Y310427D02*
D03*
X174838Y350086D02*
D03*
X252016Y300138D02*
D03*
Y332977D02*
D03*
Y342193D02*
D03*
X251961Y389995D02*
D03*
X252016Y380623D02*
D03*
X79093Y320898D02*
D03*
X181137Y350086D02*
D03*
X258315Y310427D02*
D03*
X270748Y310595D02*
D03*
X264449D02*
D03*
X270748Y300195D02*
D03*
X264449D02*
D03*
X258315Y300138D02*
D03*
X270746Y332994D02*
D03*
X264447D02*
D03*
X258315Y332977D02*
D03*
Y342193D02*
D03*
X270746Y342216D02*
D03*
X264447D02*
D03*
X258260Y389995D02*
D03*
X270694D02*
D03*
X264394D02*
D03*
X258315Y380623D02*
D03*
X270748D02*
D03*
X264449D02*
D03*
X72794Y320898D02*
D03*
D25*
X168347Y343902D02*
D03*
X299000Y19850D02*
D03*
Y26150D02*
D03*
X168347Y337603D02*
D03*
D26*
X193566Y317921D02*
D03*
X183723D02*
D03*
X181755D02*
D03*
X185692D02*
D03*
Y342331D02*
D03*
X187660D02*
D03*
X183723D02*
D03*
X195534Y342331D02*
D03*
X193566D02*
D03*
X191597Y342331D02*
D03*
X189629D02*
D03*
X181755Y342331D02*
D03*
X187660Y317921D02*
D03*
X189629Y317921D02*
D03*
X191597Y317921D02*
D03*
X195534D02*
D03*
D27*
X176440Y325205D02*
D03*
X200849Y337016D02*
D03*
Y323236D02*
D03*
X176440D02*
D03*
Y337016D02*
D03*
Y335047D02*
D03*
Y333079D02*
D03*
Y331110D02*
D03*
Y329142D02*
D03*
Y327173D02*
D03*
X200849Y325205D02*
D03*
Y327173D02*
D03*
X200849Y329142D02*
D03*
Y331110D02*
D03*
Y333079D02*
D03*
Y335047D02*
D03*
D31*
X293567Y222163D02*
D03*
X148612Y320479D02*
D03*
X80274Y304640D02*
D03*
X80188Y313041D02*
D03*
X272162Y221960D02*
D03*
X286087Y222163D02*
D03*
X141132Y320479D02*
D03*
X72794Y304640D02*
D03*
X72708Y313041D02*
D03*
X279642Y221960D02*
D03*
D41*
X151975Y297221D02*
D03*
X152273Y310257D02*
D03*
X257435Y258786D02*
D03*
X266652Y258652D02*
D03*
X140951Y297221D02*
D03*
X141249Y310257D02*
D03*
X246412Y258786D02*
D03*
X277676Y258652D02*
D03*
D92*
X208068Y307890D02*
Y311440D01*
X204070Y315438D02*
X208068Y311440D01*
X195534Y315514D02*
Y317921D01*
Y315514D02*
X195610Y315438D01*
X204070D01*
D95*
X291000Y257741D02*
X292045Y258786D01*
X291000Y243000D02*
Y257741D01*
Y232000D02*
Y233000D01*
Y243000D01*
X100301Y262448D02*
X149827D01*
X96530Y266220D02*
X100301Y262448D01*
X218000Y125107D02*
Y152000D01*
Y125107D02*
X224536Y118571D01*
X224545Y118581D02*
X226215Y116911D01*
X218000Y152000D02*
X223604Y157604D01*
Y164031D01*
X223472Y164472D02*
Y166829D01*
X223615Y166972D01*
X275000Y250000D02*
X281489Y243511D01*
X281000Y231918D02*
Y233000D01*
X279642Y230560D02*
X281000Y231918D01*
X279642Y222157D02*
Y230560D01*
X281489Y242889D02*
Y243511D01*
X279645Y222160D02*
X285160D01*
X279642Y222157D02*
X279645Y222160D01*
X286087Y217039D02*
Y222163D01*
X286673Y216453D02*
X343052D01*
X285160Y222160D02*
X286000Y223000D01*
X286087Y217039D02*
X286673Y216453D01*
X343052D02*
X381052Y254454D01*
X278000Y253000D02*
Y259000D01*
X62000Y291227D02*
Y292000D01*
X58640Y279900D02*
Y283090D01*
X60381Y289608D02*
X62000Y291227D01*
X59784Y289608D02*
X60381D01*
X58612Y288436D02*
X59784Y289608D01*
X58612Y283119D02*
Y288436D01*
Y283119D02*
X58640Y283090D01*
X247971Y251172D02*
Y257227D01*
Y251172D02*
X249143Y250000D01*
X275000D01*
X278000Y253000D01*
X246412Y258786D02*
X247971Y257227D01*
D98*
X334000Y19850D02*
X338174D01*
X339892Y27004D02*
X340003Y26893D01*
Y21680D02*
Y26893D01*
X338174Y19850D02*
X340003Y21680D01*
X101000Y231000D02*
X102000Y232000D01*
X101000Y223324D02*
Y231000D01*
X55424Y177748D02*
X101000Y223324D01*
X55424Y169690D02*
Y177748D01*
Y169690D02*
X57578Y167537D01*
Y164625D02*
Y167537D01*
Y164625D02*
X57664Y164538D01*
X304656Y21144D02*
Y26791D01*
X304607Y26840D02*
X304656Y26791D01*
X319427Y19850D02*
X321771Y22195D01*
Y26646D01*
X316000Y19850D02*
X319427D01*
X299000D02*
X303363D01*
X304656Y21144D01*
D101*
X221000Y233000D02*
D03*
X291000Y243000D02*
D03*
Y233000D02*
D03*
X301000Y243000D02*
D03*
X91000Y243000D02*
D03*
X81000D02*
D03*
X301000Y233000D02*
D03*
X141000D02*
D03*
X91000D02*
D03*
X81000D02*
D03*
X301000Y53000D02*
D03*
Y43000D02*
D03*
X231000Y243000D02*
D03*
X241000Y43000D02*
D03*
X251000Y53000D02*
D03*
X221000Y43000D02*
D03*
X191000Y243000D02*
D03*
X171000D02*
D03*
Y233000D02*
D03*
X161000Y243000D02*
D03*
X241000Y53000D02*
D03*
X161000Y233000D02*
D03*
X151000Y243000D02*
D03*
X81000Y43000D02*
D03*
X91000D02*
D03*
X101000D02*
D03*
X111000D02*
D03*
X121000D02*
D03*
X131000D02*
D03*
X141000D02*
D03*
X151000D02*
D03*
X161000D02*
D03*
X171000D02*
D03*
X181000D02*
D03*
X191000D02*
D03*
X201000D02*
D03*
X211000D02*
D03*
X231000D02*
D03*
X251000D02*
D03*
X261000D02*
D03*
X271000D02*
D03*
X281000D02*
D03*
X291000D02*
D03*
X81000Y53000D02*
D03*
X101000D02*
D03*
X121000D02*
D03*
X131000D02*
D03*
X141000D02*
D03*
X151000D02*
D03*
X161000D02*
D03*
X171000D02*
D03*
X181000D02*
D03*
X191000D02*
D03*
X201000D02*
D03*
X211000D02*
D03*
X221000D02*
D03*
X231000D02*
D03*
X261000D02*
D03*
X271000D02*
D03*
X281000D02*
D03*
X291000D02*
D03*
X101000Y233000D02*
D03*
X111000D02*
D03*
X121000D02*
D03*
X131000D02*
D03*
X151000D02*
D03*
X181000D02*
D03*
X191000D02*
D03*
X201000D02*
D03*
X211000D02*
D03*
X231000D02*
D03*
X241000D02*
D03*
X251000D02*
D03*
X261000Y233000D02*
D03*
X271000Y233000D02*
D03*
X281000D02*
D03*
X101000Y243000D02*
D03*
X111000Y243000D02*
D03*
X121000D02*
D03*
X131000Y243000D02*
D03*
X141000D02*
D03*
X181000D02*
D03*
X201000Y243000D02*
D03*
X211000D02*
D03*
X221000Y243000D02*
D03*
X241000D02*
D03*
X251000Y243000D02*
D03*
X261000Y243000D02*
D03*
X271000D02*
D03*
X281000D02*
D03*
X91000Y53000D02*
D03*
X111000D02*
D03*
D102*
X405932Y298545D02*
D03*
Y334569D02*
D03*
X398137Y285081D02*
D03*
Y330041D02*
D03*
X390302Y325553D02*
D03*
X382507Y321065D02*
D03*
X414908Y334569D02*
D03*
X422704Y330041D02*
D03*
X430538Y325553D02*
D03*
X438334Y312049D02*
D03*
Y321065D02*
D03*
X422704Y276065D02*
D03*
Y303073D02*
D03*
X374712Y298545D02*
D03*
X430538Y289569D02*
D03*
X398137Y303073D02*
D03*
X390302Y307561D02*
D03*
X405932Y289569D02*
D03*
X430538Y280553D02*
D03*
X382507Y303073D02*
D03*
X390302Y280553D02*
D03*
X430538Y316577D02*
D03*
Y307561D02*
D03*
X438334Y303073D02*
D03*
X446129Y298545D02*
D03*
X430538D02*
D03*
X438334Y285081D02*
D03*
X414908Y316577D02*
D03*
Y298545D02*
D03*
Y289569D02*
D03*
Y280553D02*
D03*
Y271577D02*
D03*
X405932D02*
D03*
Y307561D02*
D03*
X446129Y316577D02*
D03*
Y307561D02*
D03*
X438334Y330041D02*
D03*
Y294057D02*
D03*
X430538Y334569D02*
D03*
X422704Y339057D02*
D03*
Y321065D02*
D03*
Y312049D02*
D03*
Y294057D02*
D03*
Y285081D02*
D03*
X414908Y343545D02*
D03*
Y325553D02*
D03*
Y307561D02*
D03*
X374712Y316577D02*
D03*
Y307561D02*
D03*
X382507Y330041D02*
D03*
Y312049D02*
D03*
Y294057D02*
D03*
Y285081D02*
D03*
X390302Y334569D02*
D03*
Y316577D02*
D03*
Y298545D02*
D03*
Y289569D02*
D03*
X398137Y339057D02*
D03*
Y321065D02*
D03*
Y312049D02*
D03*
Y294057D02*
D03*
Y276065D02*
D03*
X405932Y343545D02*
D03*
Y325553D02*
D03*
Y316577D02*
D03*
Y280553D02*
D03*
D103*
X61000Y60500D02*
D03*
Y225500D02*
D03*
X321000Y48000D02*
D03*
Y238000D02*
D03*
D104*
X473500Y12764D02*
D03*
Y86189D02*
D03*
X45500Y411764D02*
D03*
X473500Y180087D02*
D03*
X193170Y284977D02*
D03*
X45500Y12764D02*
D03*
X473500Y411764D02*
D03*
D105*
X314752Y363647D02*
D03*
X318315D02*
D03*
X312972Y359808D02*
D03*
X316535D02*
D03*
X320098D02*
D03*
X314752Y355970D02*
D03*
X318315D02*
D03*
X331920Y363651D02*
D03*
X335483D02*
D03*
X330141Y359812D02*
D03*
X333704D02*
D03*
X337267D02*
D03*
X331920Y355974D02*
D03*
X335483D02*
D03*
X68889Y367011D02*
D03*
X73220D02*
D03*
X68889Y362680D02*
D03*
X73220D02*
D03*
X68889Y358349D02*
D03*
X73220Y358349D02*
D03*
X130365Y366767D02*
D03*
X134696D02*
D03*
X130365Y362437D02*
D03*
X134696D02*
D03*
X130365Y358106D02*
D03*
X134696D02*
D03*
D106*
X404109Y240064D02*
D03*
X381141Y88282D02*
D03*
X404308Y90754D02*
D03*
X364084Y29120D02*
D03*
X367633Y37258D02*
D03*
X191327Y331760D02*
D03*
X63977Y172572D02*
D03*
X73606Y161107D02*
D03*
X71368Y164503D02*
D03*
X400817Y43826D02*
D03*
X412485Y40963D02*
D03*
X410229Y35698D02*
D03*
X396559Y25080D02*
D03*
X390948Y27286D02*
D03*
X365430Y57863D02*
D03*
X363188Y47656D02*
D03*
X385318Y56409D02*
D03*
X258683Y116626D02*
D03*
X255072Y166209D02*
D03*
X256188Y155656D02*
D03*
X256580Y131209D02*
D03*
X256252Y139875D02*
D03*
X222396Y113368D02*
D03*
X397188Y81656D02*
D03*
X396974Y76275D02*
D03*
X379496Y80102D02*
D03*
X414292Y79815D02*
D03*
X284656Y127939D02*
D03*
X275158Y128094D02*
D03*
X155217Y127132D02*
D03*
X166592Y127171D02*
D03*
X175491D02*
D03*
X270000Y128000D02*
D03*
X132108Y258719D02*
D03*
X216360Y343591D02*
D03*
X173773Y180014D02*
D03*
X167221Y164343D02*
D03*
X215975Y312019D02*
D03*
X279024Y312556D02*
D03*
X165848Y314580D02*
D03*
X378020Y87107D02*
D03*
X401574Y88765D02*
D03*
X57664Y164538D02*
D03*
X317692Y317143D02*
D03*
X237814Y406220D02*
D03*
X241141Y406254D02*
D03*
X240102Y365297D02*
D03*
X240209Y361997D02*
D03*
X240235Y358568D02*
D03*
X240916Y309249D02*
D03*
X240890Y312677D02*
D03*
X240784Y315977D02*
D03*
X241003Y261254D02*
D03*
X122979Y384766D02*
D03*
X274816Y279940D02*
D03*
X274813Y284412D02*
D03*
X270132Y284430D02*
D03*
X274955Y298542D02*
D03*
X274846Y294633D02*
D03*
X270781Y294597D02*
D03*
X271037Y328652D02*
D03*
X275438Y328699D02*
D03*
X275566Y332894D02*
D03*
X270719Y346590D02*
D03*
X274850Y346542D02*
D03*
X275009Y342427D02*
D03*
X275114Y380620D02*
D03*
X275056Y376402D02*
D03*
X270867Y376372D02*
D03*
X275158Y389644D02*
D03*
X275206Y394263D02*
D03*
X270483Y394348D02*
D03*
X336741Y371638D02*
D03*
X289304Y343149D02*
D03*
X336453Y387998D02*
D03*
X338427Y284812D02*
D03*
X338316Y288984D02*
D03*
X341093Y281080D02*
D03*
X337580Y281092D02*
D03*
X338722Y323567D02*
D03*
X335356Y323623D02*
D03*
X335321Y319918D02*
D03*
X335470Y316225D02*
D03*
X207853Y307934D02*
D03*
X174470Y317547D02*
D03*
X409434Y38945D02*
D03*
X406571Y36684D02*
D03*
X190900Y326456D02*
D03*
X170422Y366157D02*
D03*
X180771Y364805D02*
D03*
X230187Y346793D02*
D03*
X218130Y393829D02*
D03*
X367620Y254002D02*
D03*
X153704Y410510D02*
D03*
X157704D02*
D03*
X102033Y410309D02*
D03*
X98033D02*
D03*
X94033D02*
D03*
X90033D02*
D03*
X86110Y410239D02*
D03*
X102032Y413937D02*
D03*
X98032D02*
D03*
X94032D02*
D03*
X90032D02*
D03*
X86109Y413868D02*
D03*
X102032Y417566D02*
D03*
X98032D02*
D03*
X94032D02*
D03*
X90032D02*
D03*
X86109Y417496D02*
D03*
X129330Y339814D02*
D03*
X125330D02*
D03*
X121330D02*
D03*
X117330D02*
D03*
X113407Y339744D02*
D03*
X113409Y336153D02*
D03*
X129331Y336042D02*
D03*
X108765Y297981D02*
D03*
X135842Y316259D02*
D03*
X135912Y312336D02*
D03*
X112589Y308907D02*
D03*
X112659Y304984D02*
D03*
X108782Y309008D02*
D03*
Y313008D02*
D03*
Y317008D02*
D03*
X61207Y336997D02*
D03*
X45285Y337107D02*
D03*
X45283Y340699D02*
D03*
X49206Y340768D02*
D03*
X53206D02*
D03*
X57206D02*
D03*
X61206D02*
D03*
X61369Y308941D02*
D03*
X57369D02*
D03*
X53369D02*
D03*
X49369D02*
D03*
X45446Y308871D02*
D03*
X381030Y254475D02*
D03*
X239467Y215180D02*
D03*
X293032Y384064D02*
D03*
X294246Y293731D02*
D03*
X284434Y298533D02*
D03*
X299495Y297721D02*
D03*
X299330Y317620D02*
D03*
X55000Y184000D02*
D03*
X89675Y183862D02*
D03*
X84000Y99000D02*
D03*
X230090Y394275D02*
D03*
X322428Y320561D02*
D03*
X229978Y297084D02*
D03*
X118260Y276021D02*
D03*
X58640Y279900D02*
D03*
Y283090D02*
D03*
X125326Y217138D02*
D03*
X165008Y320389D02*
D03*
X215614Y307004D02*
D03*
X162650Y324798D02*
D03*
X423590Y416187D02*
D03*
X399944Y416010D02*
D03*
X403944D02*
D03*
X407867Y416080D02*
D03*
X381971Y416081D02*
D03*
X385971D02*
D03*
X389894Y416151D02*
D03*
X365943Y415993D02*
D03*
X369943D02*
D03*
X373866Y416062D02*
D03*
X128799Y217338D02*
D03*
X192271Y304904D02*
D03*
X125552Y145758D02*
D03*
X59782Y98086D02*
D03*
X304607Y26840D02*
D03*
X321771Y26646D02*
D03*
X466336Y358195D02*
D03*
X364415Y258124D02*
D03*
X368034Y258276D02*
D03*
X372109Y254064D02*
D03*
X369904Y250552D02*
D03*
X125408Y170760D02*
D03*
X205193Y305764D02*
D03*
X189987Y311299D02*
D03*
X305464Y341684D02*
D03*
X305904Y330463D02*
D03*
X298074Y370457D02*
D03*
X303290Y375290D02*
D03*
X304442Y325608D02*
D03*
X308365Y325678D02*
D03*
X312365D02*
D03*
X320326Y330412D02*
D03*
X316326D02*
D03*
X312403Y330343D02*
D03*
X318417Y349202D02*
D03*
X318228Y370784D02*
D03*
X433777Y339646D02*
D03*
X433707Y343569D02*
D03*
Y347569D02*
D03*
Y351569D02*
D03*
Y355569D02*
D03*
X437405Y339646D02*
D03*
X437336Y343569D02*
D03*
X437336Y347569D02*
D03*
Y351569D02*
D03*
Y355569D02*
D03*
X441034Y339647D02*
D03*
X440965Y343569D02*
D03*
Y347569D02*
D03*
Y351570D02*
D03*
Y355570D02*
D03*
X141780Y417698D02*
D03*
X145703Y417767D02*
D03*
X149703D02*
D03*
X153703D02*
D03*
X157703D02*
D03*
X141780Y414069D02*
D03*
X145703Y414139D02*
D03*
X149703D02*
D03*
X153703D02*
D03*
X157703D02*
D03*
X141781Y410440D02*
D03*
X145704Y410510D02*
D03*
X149704D02*
D03*
X198161Y222711D02*
D03*
X185760Y224545D02*
D03*
X138000Y90000D02*
D03*
X223230Y176625D02*
D03*
X214643Y280803D02*
D03*
X217600Y336428D02*
D03*
X216813Y278507D02*
D03*
X215677Y387869D02*
D03*
X216000Y340000D02*
D03*
X215791Y384959D02*
D03*
X210979Y363617D02*
D03*
X208554Y370399D02*
D03*
X108851Y305085D02*
D03*
X141875Y268258D02*
D03*
X112688Y298050D02*
D03*
X216038Y300495D02*
D03*
X220000Y116000D02*
D03*
X165000Y179000D02*
D03*
X169429Y175345D02*
D03*
X174000Y171000D02*
D03*
X181000Y165000D02*
D03*
X60612Y165711D02*
D03*
X204714Y136916D02*
D03*
X67955Y165436D02*
D03*
X64219Y165856D02*
D03*
X255046Y158838D02*
D03*
X247705Y173019D02*
D03*
X254880Y134016D02*
D03*
X254792Y136536D02*
D03*
X246877Y148229D02*
D03*
X210778Y120985D02*
D03*
X51916Y285459D02*
D03*
X330859Y255321D02*
D03*
X56000Y141000D02*
D03*
X412032Y48064D02*
D03*
X192761Y335090D02*
D03*
X146197Y289688D02*
D03*
X71252Y289092D02*
D03*
X336463Y349052D02*
D03*
X328725Y369064D02*
D03*
X406550Y22980D02*
D03*
X368000Y30000D02*
D03*
X340000Y27000D02*
D03*
X398859Y22306D02*
D03*
X369000Y34000D02*
D03*
X72180Y158152D02*
D03*
X371087Y279812D02*
D03*
X472682Y309451D02*
D03*
X237506Y258249D02*
D03*
X237561Y261213D02*
D03*
X241030Y258290D02*
D03*
X241090Y264576D02*
D03*
Y267378D02*
D03*
X330615Y406972D02*
D03*
X339130Y399829D02*
D03*
X338000Y382970D02*
D03*
X336454Y384935D02*
D03*
X338038Y380427D02*
D03*
X335000Y379000D02*
D03*
X221000Y350000D02*
D03*
X188957Y324175D02*
D03*
X333631Y287905D02*
D03*
X415667Y416117D02*
D03*
X419667D02*
D03*
X131282Y397194D02*
D03*
X131213Y401117D02*
D03*
Y405117D02*
D03*
X134911Y397194D02*
D03*
X134841Y401117D02*
D03*
Y405117D02*
D03*
X68133Y384074D02*
D03*
X68063Y387997D02*
D03*
Y391997D02*
D03*
X71762Y384074D02*
D03*
X71692Y387997D02*
D03*
Y391997D02*
D03*
X68133Y397119D02*
D03*
X68063Y401042D02*
D03*
Y405042D02*
D03*
X71762Y397119D02*
D03*
X71692Y401042D02*
D03*
Y405042D02*
D03*
X74700Y377077D02*
D03*
X70716Y376939D02*
D03*
X47648Y356499D02*
D03*
X43591Y356430D02*
D03*
X153563Y318466D02*
D03*
X153494Y322389D02*
D03*
X156707Y325849D02*
D03*
X156638Y329772D02*
D03*
Y333772D02*
D03*
Y337772D02*
D03*
X88631Y337812D02*
D03*
Y333812D02*
D03*
Y329812D02*
D03*
X345304Y316244D02*
D03*
X226156Y353477D02*
D03*
X186000Y348000D02*
D03*
X219654Y325712D02*
D03*
X205163Y343638D02*
D03*
X327189Y383532D02*
D03*
X327015Y395979D02*
D03*
X224594Y270581D02*
D03*
X245619Y267364D02*
D03*
X231760Y264065D02*
D03*
X262000Y259000D02*
D03*
X389000Y30000D02*
D03*
X388000Y53000D02*
D03*
X367991Y53453D02*
D03*
X254935Y161567D02*
D03*
X255000Y117000D02*
D03*
X366944Y49539D02*
D03*
X155000Y182000D02*
D03*
X154893Y214885D02*
D03*
X176155Y149082D02*
D03*
X205000Y220000D02*
D03*
X237635Y385720D02*
D03*
X237529Y389020D02*
D03*
X237455Y334204D02*
D03*
X237429Y337633D02*
D03*
X237323Y340933D02*
D03*
X187359Y331019D02*
D03*
X176313Y320605D02*
D03*
X176613Y341373D02*
D03*
X192618Y311314D02*
D03*
X185631Y362750D02*
D03*
X175491Y362352D02*
D03*
X165113Y362443D02*
D03*
X409504Y87356D02*
D03*
X390873Y87236D02*
D03*
X420915Y25813D02*
D03*
X428165Y59418D02*
D03*
X424652Y63147D02*
D03*
X408496Y49544D02*
D03*
X418693Y51526D02*
D03*
X394382Y32803D02*
D03*
X372873Y42236D02*
D03*
X310000Y19000D02*
D03*
X292000D02*
D03*
X197950Y133447D02*
D03*
X106412Y140996D02*
D03*
X104895Y105327D02*
D03*
X66792Y104748D02*
D03*
X74327Y136719D02*
D03*
X87294Y136380D02*
D03*
X40432Y129512D02*
D03*
X48360Y129591D02*
D03*
X59307Y128379D02*
D03*
X49393Y136287D02*
D03*
X48514Y154806D02*
D03*
X60073Y152363D02*
D03*
X49042Y168683D02*
D03*
X106302Y164766D02*
D03*
X103486Y181239D02*
D03*
X68437Y181612D02*
D03*
X103495Y213610D02*
D03*
X139062Y217912D02*
D03*
X121658Y217790D02*
D03*
X104753Y376196D02*
D03*
X150976Y301378D02*
D03*
X125125Y266926D02*
D03*
X101672Y267088D02*
D03*
X85416Y267001D02*
D03*
X74452Y263152D02*
D03*
X78410Y273458D02*
D03*
X67605Y275060D02*
D03*
X88731Y309522D02*
D03*
X88661Y313445D02*
D03*
Y317445D02*
D03*
X70382Y298898D02*
D03*
X62213Y302209D02*
D03*
X152033Y377325D02*
D03*
X134619Y379703D02*
D03*
X134689Y375780D02*
D03*
X131381Y384222D02*
D03*
X131312Y388145D02*
D03*
Y392145D02*
D03*
X135010Y384222D02*
D03*
X134940Y388145D02*
D03*
Y392145D02*
D03*
X323015Y395979D02*
D03*
X344637Y374978D02*
D03*
X348637D02*
D03*
X344536Y382092D02*
D03*
X348536D02*
D03*
X341493Y349129D02*
D03*
X339080Y332843D02*
D03*
X339403Y343893D02*
D03*
X339426Y340474D02*
D03*
X300819Y354504D02*
D03*
X300572Y359557D02*
D03*
Y363557D02*
D03*
X303991Y359579D02*
D03*
Y363579D02*
D03*
X292711Y350213D02*
D03*
X325060Y316439D02*
D03*
X345339Y320159D02*
D03*
X347855Y286704D02*
D03*
X322737Y289386D02*
D03*
X324702Y281402D02*
D03*
X328215Y281390D02*
D03*
X324625Y278381D02*
D03*
X328137Y278369D02*
D03*
X297466Y266771D02*
D03*
X306916Y286249D02*
D03*
X298214Y285228D02*
D03*
X307641Y251793D02*
D03*
X244832Y298042D02*
D03*
X250115Y409328D02*
D03*
X248202Y313491D02*
D03*
X244944Y278292D02*
D03*
X225916Y303249D02*
D03*
X225571Y285730D02*
D03*
X221463Y275752D02*
D03*
X235971Y312870D02*
D03*
X231023Y361728D02*
D03*
X225785Y400999D02*
D03*
X245469Y395767D02*
D03*
X245095Y375747D02*
D03*
X251479Y361662D02*
D03*
X224445Y316651D02*
D03*
X245718Y347797D02*
D03*
X245813Y327354D02*
D03*
X237889Y284952D02*
D03*
X237863Y288380D02*
D03*
X237756Y291680D02*
D03*
X237662Y382291D02*
D03*
X215000Y377000D02*
D03*
X168500Y351101D02*
D03*
X88661Y321445D02*
D03*
X88701Y325889D02*
D03*
X111717Y349315D02*
D03*
X156228Y344243D02*
D03*
X95183Y344923D02*
D03*
X152228Y344243D02*
D03*
X91183Y344923D02*
D03*
X214933Y144312D02*
D03*
X210832Y137362D02*
D03*
X213796Y125285D02*
D03*
X196947Y161938D02*
D03*
X199306Y151995D02*
D03*
X191000Y125000D02*
D03*
X210806Y125388D02*
D03*
X198933Y126312D02*
D03*
X209673Y161599D02*
D03*
X87276Y148899D02*
D03*
X87315Y154629D02*
D03*
X67907Y152437D02*
D03*
X240000Y148000D02*
D03*
X224000Y152000D02*
D03*
X370286Y27358D02*
D03*
X419457Y33257D02*
D03*
X409873Y24236D02*
D03*
X369618Y57950D02*
D03*
X400315Y392665D02*
D03*
X404315D02*
D03*
X408238Y392735D02*
D03*
X382087Y392810D02*
D03*
X386087D02*
D03*
X390010Y392879D02*
D03*
X87281Y142670D02*
D03*
X87279Y130695D02*
D03*
X87225Y160756D02*
D03*
X178398Y307794D02*
D03*
X54655Y385811D02*
D03*
X475017Y218617D02*
D03*
X434545Y73824D02*
D03*
X435534Y15696D02*
D03*
X82352Y14964D02*
D03*
X340106Y18403D02*
D03*
X457989Y318998D02*
D03*
X205266Y321413D02*
D03*
X246203Y238214D02*
D03*
X284033Y278901D02*
D03*
X218240Y296846D02*
D03*
X380763Y279181D02*
D03*
X449265Y396612D02*
D03*
X452693Y396638D02*
D03*
X438244Y406907D02*
D03*
X345266Y284752D02*
D03*
X279359Y307173D02*
D03*
X334831Y299193D02*
D03*
X334804Y302622D02*
D03*
X334698Y305922D02*
D03*
X319372Y299980D02*
D03*
X327192Y377546D02*
D03*
X323192D02*
D03*
X323189Y383532D02*
D03*
X327258Y388105D02*
D03*
X323258D02*
D03*
X315552Y399204D02*
D03*
X411109Y223064D02*
D03*
X391472Y195591D02*
D03*
X383109Y234064D02*
D03*
X395109D02*
D03*
X452109Y235064D02*
D03*
X420000Y239511D02*
D03*
X418000Y242000D02*
D03*
X412451Y226293D02*
D03*
X405109Y245064D02*
D03*
X423548Y225643D02*
D03*
X414796Y204621D02*
D03*
X427109Y211064D02*
D03*
X429109Y231064D02*
D03*
X452109Y223064D02*
D03*
Y218064D02*
D03*
Y206064D02*
D03*
X441352Y197326D02*
D03*
X428287Y185998D02*
D03*
X422909Y185703D02*
D03*
X407752Y185785D02*
D03*
X404109Y199064D02*
D03*
X405109Y231064D02*
D03*
X421109Y228064D02*
D03*
X411109Y245064D02*
D03*
X192730Y328779D02*
D03*
X189365Y302571D02*
D03*
X401651Y40305D02*
D03*
X333868Y411266D02*
D03*
X325859Y312321D02*
D03*
X319611Y296751D02*
D03*
X223000Y352000D02*
D03*
X222368Y293059D02*
D03*
X417162Y30704D02*
D03*
X251764Y252977D02*
D03*
X334208Y32969D02*
D03*
X222337Y390799D02*
D03*
X222270Y342592D02*
D03*
X219863Y319762D02*
D03*
X217996Y398072D02*
D03*
X217842Y372394D02*
D03*
X221119Y271726D02*
D03*
X198931Y317904D02*
D03*
X217849Y302546D02*
D03*
X183970Y330022D02*
D03*
X96545Y266176D02*
D03*
X149827Y262448D02*
D03*
X205000Y145000D02*
D03*
X55700Y151236D02*
D03*
X226215Y116911D02*
D03*
X224536Y118571D02*
D03*
X223615Y166972D02*
D03*
X223604Y164031D02*
D03*
X233343Y171587D02*
D03*
X251000Y83000D02*
D03*
X245933Y123312D02*
D03*
X239098Y124472D02*
D03*
X232873Y127236D02*
D03*
X233594Y164941D02*
D03*
X233325Y144933D02*
D03*
X226000Y85000D02*
D03*
X201000Y99000D02*
D03*
X206000Y363000D02*
D03*
X394896Y205465D02*
D03*
X402422Y212482D02*
D03*
D108*
X292045Y258786D02*
D03*
X80050Y291954D02*
D03*
X127366D02*
D03*
X307793Y258786D02*
D03*
X64302Y291954D02*
D03*
X111618D02*
D03*
D109*
X451154Y389198D02*
D03*
Y373450D02*
D03*
D110*
X344171Y392030D02*
D03*
X341498Y389358D02*
D03*
D111*
X420000Y374000D02*
D03*
Y405496D02*
D03*
X369533Y373486D02*
D03*
Y404982D02*
D03*
D112*
X316585Y359665D02*
D03*
Y338208D02*
D03*
D113*
X53658Y313962D02*
D03*
Y329867D02*
D03*
X122000Y314000D02*
D03*
Y329906D02*
D03*
M02*
