M48
;Layer_Color=9474304
;FILE_FORMAT=2:4
INCH,TZ
;TYPE=PLATED
T01F00S00C0.0100
T02F00S00C0.0104
T03F00S00C0.0300
T04F00S00C0.0335
T05F00S00C0.1142
T06F00S00C0.1339
%
T01
X8235Y1496
X29200Y1900
X31000
X34011Y1840
X39886Y2231
X39656Y2508
X40655Y2298
X40987Y2424
X42092Y2581
X43553Y1570
X41716Y3070
X41946Y3326
X41023Y3570
X40943Y3894
X41249Y4096
X41203Y4806
X40850Y4954
X41869Y5153
X42816Y5942
X42465Y6315
X43455Y7382
X41429Y7982
X40950Y8736
X40431Y9075
X40157Y8877
X39719Y8166
X39697Y7627
X39087Y8724
X38114Y8828
X37802Y8711
X37950Y8010
X38532Y5641
X38800Y5300
X36799Y5345
X36694Y4954
X36319Y4766
X36543Y5786
X36962Y5795
X37287Y4224
X36763Y3726
X36900Y3400
X36800Y3000
X36408Y2912
X37029Y2736
X39095Y2729
X38900Y3000
X39438Y3280
X40165Y4031
X40082Y4383
X40657Y3668
X33421Y3297
X34000Y2700
X32177Y2665
X30461Y2684
X25100Y8300
X22600Y8500
X22240Y11337
X22000Y11600
X22454Y11857
X22621Y11691
X23287Y12724
X23910Y12447
X24593Y12331
X25500Y11700
X25868Y11663
X25658Y13121
X25488Y13402
X25479Y13654
X25625Y13987
X25619Y15566
X25505Y15884
X25493Y16157
X25507Y16621
X24771Y17302
X23334Y17159
X23359Y16494
X22360Y16403
X22362Y16697
X22323Y17662
X22400Y15200
X23333Y14493
X24000Y14800
X24688Y14823
X21493Y14431
X20500Y14500
X20471Y13692
X21083Y13736
X21081Y12539
X21380Y12528
X21078Y12098
X20967Y16160
X27000Y12800
X27516Y12809
X28466Y12794
X19893Y12631
X19795Y13345
X19100Y12500
X17549Y12717
X16659
X15522Y12713
X17616Y14908
X18100Y16500
X17400Y17100
X16943Y17534
X16500Y17900
X17377Y18001
X15500Y18200
X16722Y16434
X19695Y16194
X19931Y15199
X20100Y9900
X13800Y9000
X10489Y10533
X8400Y9900
X6679Y10475
X5978Y9809
X5931Y12838
X4836Y12959
X4939Y13629
X5600Y14100
X5570Y15124
X6007Y15236
X6791Y15244
X7218Y15815
X7361Y16111
X7137Y16450
X6795Y16544
X6422Y16586
X6061Y16571
X5766Y16454
X4904Y16868
X4851Y15481
X6398Y17257
X6844Y18161
X10349Y18124
X10630Y16477
X8723Y16076
X8732Y15463
X8728Y14890
X8728Y14267
X8729Y13638
X8728Y13070
X7433Y13672
X10641Y14100
X12555Y14576
X12541Y17076
X4043Y12951
X4545Y30887
X4529Y33711
X6121Y33700
X6137Y30894
X5737
X5337
X4937
X6221Y30221
X7038Y29890
X7125Y28909
X6760Y27506
X7841Y27346
X8542Y26700
X9655Y26618
X10167Y26709
X12512Y26693
X13211Y25872
X14188Y26826
X14983Y26245
X14620Y28969
X15098Y30138
X15356Y31847
X15349Y32239
X15671Y32585
X15664Y32977
Y33377
Y33777
X16265Y32480
X16501Y32039
X16585Y31458
X17447Y31755
X17631Y32060
X17840Y30779
X18999Y31130
X19262Y31131
X19227Y30490
X18936Y30257
X18896Y32418
X19090Y32646
X19273Y32878
X19133Y33176
X18736Y33102
X18397Y33002
X19276Y33509
X19893Y31790
X13584Y31626
X13591Y31234
X11259Y30891
X10878Y30901
X10885Y30509
X11266Y30498
X11269Y29805
X10877Y29798
X10878Y31301
Y31701
X8866Y31745
Y32145
X8870Y32589
X8863Y32981
Y33381
Y33781
X8866Y31345
X8873Y30952
X11341Y33615
X12933Y33604
X11826Y27602
X7445Y26315
X5864Y27990
Y28309
X5192Y28546
X5500Y18400
X8967Y18386
X10349Y21361
X12166Y21779
X12533Y21714
X12880Y21734
X13906Y21791
X15489Y21489
X18576Y22455
X19816Y22271
X20500Y22000
X23947Y21518
X24620Y23821
X25176Y25298
X24103Y25829
X24100Y26125
X24109Y26458
Y26738
X24562Y26736
X24494Y27829
X23789Y28495
X23786Y28838
X23776Y29168
X22998Y29708
X22592Y30325
X21785Y30255
X21604Y30050
X21824Y29685
X22237Y29306
X22557Y28573
X22146Y27575
X22112Y27173
X22459Y27058
X23176Y26407
X23756Y26121
X23751Y25825
X26200Y25900
X27013Y28443
X27481Y28441
X27482Y27994
X28403Y27890
X28443Y29853
X27496Y29854
X27485Y29463
X27078Y29460
X27936Y30717
X27902Y31256
X27544Y32870
X27557Y33289
X27104Y32865
X24581Y32735
X23746Y33420
X23743Y33763
X21760Y33643
X21965Y32571
X21986Y31976
X22444Y31665
X21597Y31202
X21561Y30700
X20785Y30793
X20519Y30576
X20527Y32141
X23597Y31287
X24089Y31268
X24078Y31598
X24092Y30925
X24820Y31349
X24483Y29804
X21464Y28080
X21681Y27851
X29821Y28523
X30692Y28625
X29950Y29772
X29425Y29373
X31961Y29675
X31937Y29998
X32274Y28939
X32470Y28140
X32462Y27838
X32814Y27837
X32821Y28139
X33758Y28109
X34109Y28108
X33843Y28481
X33832Y28898
X33363Y28791
X33483Y29919
X33480Y30262
X33470Y30592
X33547Y31623
X33532Y31992
X33536Y32362
X33872Y32357
X33908Y33284
X34534Y32016
X34530Y31624
X32506Y31644
X32586Y31232
X32243Y32056
X31769Y31714
X31237Y32568
X30837
X30444Y32561
X30590Y33046
X31240Y33034
X31633Y33041
X32033
X29933Y31762
X29747Y26677
X30764Y25179
X33086Y25532
X34527Y28475
X34786Y28670
X37109Y27981
X38076Y27918
X38103Y25448
X37211Y25406
X36762Y25400
X36803Y25828
X36442Y25812
X36990Y25055
X38311Y23406
X39511
X40511Y23106
X40411Y24006
X40511Y24506
X41111
X41800Y24200
X42000Y23951
X42111Y22806
X42355Y22564
X42911Y23106
X41245Y22629
X41111Y22306
X40242Y21248
X39490Y20547
X39147Y19559
X40411Y19906
X41480Y20462
X42711Y21106
X42829Y18600
X42291Y18570
X40775Y18579
X44135Y19733
X45211Y20606
Y21806
Y22306
Y23506
X47502Y21862
X47268Y30945
X45799Y31900
X44103Y33965
X43741Y33965
X43378
X43371Y34357
X43734
X44096Y34357
Y34757
X43734Y34757
X43371
Y35157
X43734
X44096Y35157
Y35557
X43734Y35557
X43371Y35557
X46634Y35819
X45269Y39664
X44926Y39661
X43824Y40691
X42359Y41619
X41967Y41612
X41567
X40787Y41608
X40394Y41601
X39994
X38989Y41615
X38597Y41608
X38197
X37387Y41606
X36994Y41599
X36594
X38209Y39281
X38609
X39001Y39288
X40031Y39267
X40431
X40824Y39273
X34854Y38209
X34454
X34464Y37498
X34864
X33674Y37164
X33500Y37900
X33804Y38043
X33800Y38297
X33645Y38494
X33645Y38800
X32726Y38810
X32326
X32319Y38353
X32719
X32719Y37755
X32319
X31823Y37078
X32872Y36906
X33646Y34905
X34149Y34913
X33940Y34389
X33943Y34047
X31842Y34920
X30546Y34168
X30082Y35450
X30057Y35956
X30399Y35958
Y36358
X30057Y36356
X29807Y37046
X30329Y37529
X29303Y38406
X27511Y38062
X27506Y37640
X27087Y37637
X27516Y38964
X27521Y39426
X27048Y39435
X24547Y39577
X23753Y38902
X23764Y38572
X23766Y38229
X24509Y37575
X24010Y36530
X24021Y36200
X24023Y35857
X23102Y36173
X22616Y35348
X22300Y35200
X22100Y35000
X22227Y34259
X21636Y34359
X21600Y34000
X20516Y34364
X20600Y36300
X21098Y36362
X20855Y37040
X21784Y37239
X21500Y37700
X21579Y38496
X21568Y38787
X21813Y39383
X21800Y39807
X22579Y40100
X23009Y39428
X22234Y39080
X23781Y40622
X24114Y40625
X25012Y40933
X25148Y36166
X24572Y34780
X23732Y34093
X23019Y34679
X27072Y34659
X27485Y34654
X27501Y34243
X28930Y34315
X29271Y35021
X31555Y39920
X32302Y39598
X32702
X33061Y40697
X33387Y41127
X33913Y39983
X18563Y36275
X18077Y36480
X17549Y36235
X17042Y36616
X16511Y36244
X16850Y35110
X17661Y34137
X18600Y34800
X15623Y34424
X15223
X12933Y33981
X12533
X12133
X11733
X11341Y33974
X11172Y34932
X9518Y34492
X9118
X6121Y34077
X5721
X5321
X4921
X5465Y38581
X6813Y38407
X7176
X7169Y38800
X6806
Y39200
X7169
X7176Y39712
X6813
X6806Y40104
X7169
Y40504
X6806
X8611Y41024
X8611Y41387
Y41750
X9003Y41757
Y41394
X9003Y41031
X9403
X9403Y41394
Y41757
X9803
Y41394
X9803Y41031
X10203
X10203Y41394
Y41757
X14178Y41770
Y41407
X14178Y41044
X14570Y41051
X14570Y41414
Y41777
X14970
Y41414
X14970Y41051
X15370
X15370Y41414
Y41777
X15770
Y41414
X15770Y41051
X13484Y40512
X13121
Y40112
X13484
X13491Y39719
X13128
X13131Y39215
X13494
Y38815
X13131
X13138Y38422
X13501
X13462Y37970
X13469Y37578
X15203Y37733
X12298Y38477
X10475Y37620
X7470Y37708
X7072Y37694
X4765Y35650
X4359Y35643
X4528Y34070
T02
X31475Y35597
X31831
X31653Y35981
X31297
X31475Y36365
X31831
X32010Y35981
X33014Y35981
X33370
X33727
X33548Y36365
X33192
Y35597
X33548
X13470Y35811
Y36244
Y36677
X13037
Y36244
Y35811
X7322Y35835
Y36268
X6889
X6889Y36701
X7322
X6889Y35835
T03
X21100Y4300
X22100
Y5300
X21100
X23100
X24100
Y4300
X23100
X25100
X26100
X27100
X28100
X29100
Y5300
X28100
X27100
X26100
X25100
X30100
Y4300
X20100
X19100
Y5300
X18100
X17100
X16100
Y4300
X17100
X18100
X15100
X14100
X13100
X12100
X11100
X10100
X9100
X8100
Y5300
X9100
X10100
X11100
X12100
X13100
X14100
X15100
X20100
Y23300
X19100
Y24300
X18100
X17100
Y23300
X16100
Y24300
X15100Y24300
Y23300
X14100
X13100
X12100
Y24300
X13100Y24300
X14100
X11100Y24300
X10100Y24300
X9100
X8100
Y23300
X9100
X10100
X11100
X18100
X20100Y24300
X21100
Y23300
X22100Y23300
Y24300
X23100
Y23300
X24100
Y24300
X25100Y24300
Y23300
X26100Y23300
Y24300
X27100
Y23300
X28100
X29100
Y24300
X28100
X30100Y24300
Y23300
T04
X38251Y28508
Y29406
Y30307
Y31205
Y32106
Y33004
X39030Y32555
Y31658
Y30756
Y29855
Y28957
Y28055
X39814Y27606
Y28508
Y29406
Y30307
Y31205
Y32106
Y33004
X40593Y32555
X41491
Y31658
X40593
Y30756
X41491
Y29855
X40593
Y28957
X41491
Y28055
Y27158
X40593
Y28055
X42270Y27606
Y28508
Y29406
Y30307
Y31205
Y32106
Y33004
X41491Y33457
X40593
X39030
X37471Y31658
Y30756
Y29855
X43054
Y28957
Y28055
X43833Y28508
Y29406
Y30307
Y31205
Y32106
Y33004
X43054Y32555
Y31658
Y30756
X44613
Y29855
Y31658
X43054Y33457
X42270Y33906
X41491Y34355
X40593
X39814Y33906
T05
X32100Y4800
X6100Y6050
Y22550
X32100Y23800
T06
X4550Y1276
X47350
Y8619
Y18009
X19317Y28498
X47350Y41176
X4550
M30
