G04*
G04 #@! TF.GenerationSoftware,Altium Limited,Altium Designer,25.8.1 (18)*
G04*
G04 Layer_Color=128*
%FSLAX25Y25*%
%MOIN*%
G70*
G04*
G04 #@! TF.SameCoordinates,8555A115-1401-43ED-8721-A1A47631EB87*
G04*
G04*
G04 #@! TF.FilePolarity,Positive*
G04*
G01*
G75*
%ADD15C,0.00500*%
D15*
X219500Y233000D02*
X222500D01*
X221000Y231500D02*
Y234500D01*
X289500Y243000D02*
X292500D01*
X291000Y241500D02*
Y244500D01*
X289500Y233000D02*
X292500D01*
X291000Y231500D02*
Y234500D01*
X299500Y243000D02*
X302500D01*
X301000Y241500D02*
Y244500D01*
X89500Y243000D02*
X92500D01*
X91000Y241500D02*
Y244500D01*
X79500Y243000D02*
X82500D01*
X81000Y241500D02*
Y244500D01*
X299500Y233000D02*
X302500D01*
X301000Y231500D02*
Y234500D01*
X139500Y233000D02*
X142500D01*
X141000Y231500D02*
Y234500D01*
X89500Y233000D02*
X92500D01*
X91000Y231500D02*
Y234500D01*
X79500Y233000D02*
X82500D01*
X81000Y231500D02*
Y234500D01*
X299500Y53000D02*
X302500D01*
X301000Y51500D02*
Y54500D01*
X299500Y43000D02*
X302500D01*
X301000Y41500D02*
Y44500D01*
X404259Y298545D02*
X407605D01*
X405932Y296872D02*
Y300218D01*
X404259Y334569D02*
X407605D01*
X405932Y332896D02*
Y336242D01*
X396464Y285081D02*
X399810D01*
X398137Y283407D02*
Y286754D01*
X396464Y330041D02*
X399810D01*
X398137Y328368D02*
Y331715D01*
X388629Y325553D02*
X391975D01*
X390302Y323880D02*
Y327226D01*
X380834Y321065D02*
X384180D01*
X382507Y319392D02*
Y322738D01*
X413235Y334569D02*
X416582D01*
X414908Y332896D02*
Y336242D01*
X421031Y330041D02*
X424377D01*
X422704Y328368D02*
Y331715D01*
X428865Y325553D02*
X432212D01*
X430538Y323880D02*
Y327226D01*
X436660Y312049D02*
X440007D01*
X438334Y310376D02*
Y313722D01*
X436660Y321065D02*
X440007D01*
X438334Y319392D02*
Y322738D01*
X421031Y276065D02*
X424377D01*
X422704Y274392D02*
Y277738D01*
X421031Y303073D02*
X424377D01*
X422704Y301399D02*
Y304746D01*
X373038Y298545D02*
X376385D01*
X374712Y296872D02*
Y300218D01*
X428865Y289569D02*
X432212D01*
X430538Y287896D02*
Y291242D01*
X396464Y303073D02*
X399810D01*
X398137Y301399D02*
Y304746D01*
X388629Y307561D02*
X391975D01*
X390302Y305888D02*
Y309234D01*
X404259Y289569D02*
X407605D01*
X405932Y287896D02*
Y291242D01*
X428865Y280553D02*
X432212D01*
X430538Y278880D02*
Y282226D01*
X380834Y303073D02*
X384180D01*
X382507Y301399D02*
Y304746D01*
X229500Y243000D02*
X232500D01*
X231000Y241500D02*
Y244500D01*
X239500Y43000D02*
X242500D01*
X241000Y41500D02*
Y44500D01*
X249500Y53000D02*
X252500D01*
X251000Y51500D02*
Y54500D01*
X219500Y43000D02*
X222500D01*
X221000Y41500D02*
Y44500D01*
X189500Y243000D02*
X192500D01*
X191000Y241500D02*
Y244500D01*
X169500Y243000D02*
X172500D01*
X171000Y241500D02*
Y244500D01*
X169500Y233000D02*
X172500D01*
X171000Y231500D02*
Y234500D01*
X388629Y280553D02*
X391975D01*
X390302Y278880D02*
Y282226D01*
X159500Y243000D02*
X162500D01*
X161000Y241500D02*
Y244500D01*
X239500Y53000D02*
X242500D01*
X241000Y51500D02*
Y54500D01*
X159500Y233000D02*
X162500D01*
X161000Y231500D02*
Y234500D01*
X149500Y243000D02*
X152500D01*
X151000Y241500D02*
Y244500D01*
X79500Y43000D02*
X82500D01*
X81000Y41500D02*
Y44500D01*
X89500Y43000D02*
X92500D01*
X91000Y41500D02*
Y44500D01*
X99500Y43000D02*
X102500D01*
X101000Y41500D02*
Y44500D01*
X109500Y43000D02*
X112500D01*
X111000Y41500D02*
Y44500D01*
X119500Y43000D02*
X122500D01*
X121000Y41500D02*
Y44500D01*
X129500Y43000D02*
X132500D01*
X131000Y41500D02*
Y44500D01*
X139500Y43000D02*
X142500D01*
X141000Y41500D02*
Y44500D01*
X149500Y43000D02*
X152500D01*
X151000Y41500D02*
Y44500D01*
X159500Y43000D02*
X162500D01*
X161000Y41500D02*
Y44500D01*
X169500Y43000D02*
X172500D01*
X171000Y41500D02*
Y44500D01*
X179500Y43000D02*
X182500D01*
X181000Y41500D02*
Y44500D01*
X189500Y43000D02*
X192500D01*
X191000Y41500D02*
Y44500D01*
X199500Y43000D02*
X202500D01*
X201000Y41500D02*
Y44500D01*
X209500Y43000D02*
X212500D01*
X211000Y41500D02*
Y44500D01*
X229500Y43000D02*
X232500D01*
X231000Y41500D02*
Y44500D01*
X249500Y43000D02*
X252500D01*
X251000Y41500D02*
Y44500D01*
X259500Y43000D02*
X262500D01*
X261000Y41500D02*
Y44500D01*
X269500Y43000D02*
X272500D01*
X271000Y41500D02*
Y44500D01*
X279500Y43000D02*
X282500D01*
X281000Y41500D02*
Y44500D01*
X289500Y43000D02*
X292500D01*
X291000Y41500D02*
Y44500D01*
X79500Y53000D02*
X82500D01*
X81000Y51500D02*
Y54500D01*
X99500Y53000D02*
X102500D01*
X101000Y51500D02*
Y54500D01*
X119500Y53000D02*
X122500D01*
X121000Y51500D02*
Y54500D01*
X129500Y53000D02*
X132500D01*
X131000Y51500D02*
Y54500D01*
X139500Y53000D02*
X142500D01*
X141000Y51500D02*
Y54500D01*
X149500Y53000D02*
X152500D01*
X151000Y51500D02*
Y54500D01*
X159500Y53000D02*
X162500D01*
X161000Y51500D02*
Y54500D01*
X169500Y53000D02*
X172500D01*
X171000Y51500D02*
Y54500D01*
X179500Y53000D02*
X182500D01*
X181000Y51500D02*
Y54500D01*
X189500Y53000D02*
X192500D01*
X191000Y51500D02*
Y54500D01*
X199500Y53000D02*
X202500D01*
X201000Y51500D02*
Y54500D01*
X209500Y53000D02*
X212500D01*
X211000Y51500D02*
Y54500D01*
X219500Y53000D02*
X222500D01*
X221000Y51500D02*
Y54500D01*
X229500Y53000D02*
X232500D01*
X231000Y51500D02*
Y54500D01*
X259500Y53000D02*
X262500D01*
X261000Y51500D02*
Y54500D01*
X269500Y53000D02*
X272500D01*
X271000Y51500D02*
Y54500D01*
X279500Y53000D02*
X282500D01*
X281000Y51500D02*
Y54500D01*
X289500Y53000D02*
X292500D01*
X291000Y51500D02*
Y54500D01*
X99500Y233000D02*
X102500D01*
X101000Y231500D02*
Y234500D01*
X109500Y233000D02*
X112500D01*
X111000Y231500D02*
Y234500D01*
X119500Y233000D02*
X122500D01*
X121000Y231500D02*
Y234500D01*
X129500Y233000D02*
X132500D01*
X131000Y231500D02*
Y234500D01*
X149500Y233000D02*
X152500D01*
X151000Y231500D02*
Y234500D01*
X179500Y233000D02*
X182500D01*
X181000Y231500D02*
Y234500D01*
X189500Y233000D02*
X192500D01*
X191000Y231500D02*
Y234500D01*
X199500Y233000D02*
X202500D01*
X201000Y231500D02*
Y234500D01*
X209500Y233000D02*
X212500D01*
X211000Y231500D02*
Y234500D01*
X229500Y233000D02*
X232500D01*
X231000Y231500D02*
Y234500D01*
X239500Y233000D02*
X242500D01*
X241000Y231500D02*
Y234500D01*
X249500Y233000D02*
X252500D01*
X251000Y231500D02*
Y234500D01*
X259500Y233000D02*
X262500D01*
X261000Y231500D02*
Y234500D01*
X269500Y233000D02*
X272500D01*
X271000Y231500D02*
Y234500D01*
X279500Y233000D02*
X282500D01*
X281000Y231500D02*
Y234500D01*
X99500Y243000D02*
X102500D01*
X101000Y241500D02*
Y244500D01*
X109500Y243000D02*
X112500D01*
X111000Y241500D02*
Y244500D01*
X119500Y243000D02*
X122500D01*
X121000Y241500D02*
Y244500D01*
X129500Y243000D02*
X132500D01*
X131000Y241500D02*
Y244500D01*
X139500Y243000D02*
X142500D01*
X141000Y241500D02*
Y244500D01*
X179500Y243000D02*
X182500D01*
X181000Y241500D02*
Y244500D01*
X199500Y243000D02*
X202500D01*
X201000Y241500D02*
Y244500D01*
X209500Y243000D02*
X212500D01*
X211000Y241500D02*
Y244500D01*
X219500Y243000D02*
X222500D01*
X221000Y241500D02*
Y244500D01*
X239500Y243000D02*
X242500D01*
X241000Y241500D02*
Y244500D01*
X249500Y243000D02*
X252500D01*
X251000Y241500D02*
Y244500D01*
X259500Y243000D02*
X262500D01*
X261000Y241500D02*
Y244500D01*
X269500Y243000D02*
X272500D01*
X271000Y241500D02*
Y244500D01*
X279500Y243000D02*
X282500D01*
X281000Y241500D02*
Y244500D01*
X55291Y60500D02*
X66709D01*
X61000Y54791D02*
Y66209D01*
X55291Y225500D02*
X66709D01*
X61000Y219791D02*
Y231209D01*
X315291Y48000D02*
X326709D01*
X321000Y42291D02*
Y53709D01*
X315291Y238000D02*
X326709D01*
X321000Y232291D02*
Y243709D01*
X89500Y53000D02*
X92500D01*
X91000Y51500D02*
Y54500D01*
X109500Y53000D02*
X112500D01*
X111000Y51500D02*
Y54500D01*
X428865Y316577D02*
X432212D01*
X430538Y314903D02*
Y318250D01*
X428865Y307561D02*
X432212D01*
X430538Y305888D02*
Y309234D01*
X436660Y303073D02*
X440007D01*
X438334Y301399D02*
Y304746D01*
X444456Y298545D02*
X447802D01*
X446129Y296872D02*
Y300218D01*
X428865Y298545D02*
X432212D01*
X430538Y296872D02*
Y300218D01*
X436660Y285081D02*
X440007D01*
X438334Y283407D02*
Y286754D01*
X413235Y316577D02*
X416582D01*
X414908Y314903D02*
Y318250D01*
X413235Y298545D02*
X416582D01*
X414908Y296872D02*
Y300218D01*
X413235Y289569D02*
X416582D01*
X414908Y287896D02*
Y291242D01*
X413235Y280553D02*
X416582D01*
X414908Y278880D02*
Y282226D01*
X413235Y271577D02*
X416582D01*
X414908Y269903D02*
Y273250D01*
X404259Y271577D02*
X407605D01*
X405932Y269903D02*
Y273250D01*
X404259Y307561D02*
X407605D01*
X405932Y305888D02*
Y309234D01*
X444456Y316577D02*
X447802D01*
X446129Y314903D02*
Y318250D01*
X444456Y307561D02*
X447802D01*
X446129Y305888D02*
Y309234D01*
X436660Y330041D02*
X440007D01*
X438334Y328368D02*
Y331715D01*
X436660Y294057D02*
X440007D01*
X438334Y292384D02*
Y295730D01*
X428865Y334569D02*
X432212D01*
X430538Y332896D02*
Y336242D01*
X421031Y339057D02*
X424377D01*
X422704Y337384D02*
Y340730D01*
X421031Y321065D02*
X424377D01*
X422704Y319392D02*
Y322738D01*
X421031Y312049D02*
X424377D01*
X422704Y310376D02*
Y313722D01*
X421031Y294057D02*
X424377D01*
X422704Y292384D02*
Y295730D01*
X421031Y285081D02*
X424377D01*
X422704Y283407D02*
Y286754D01*
X413235Y343545D02*
X416582D01*
X414908Y341872D02*
Y345218D01*
X413235Y325553D02*
X416582D01*
X414908Y323880D02*
Y327226D01*
X413235Y307561D02*
X416582D01*
X414908Y305888D02*
Y309234D01*
X373038Y316577D02*
X376385D01*
X374712Y314903D02*
Y318250D01*
X373038Y307561D02*
X376385D01*
X374712Y305888D02*
Y309234D01*
X380834Y330041D02*
X384180D01*
X382507Y328368D02*
Y331715D01*
X380834Y312049D02*
X384180D01*
X382507Y310376D02*
Y313722D01*
X380834Y294057D02*
X384180D01*
X382507Y292384D02*
Y295730D01*
X380834Y285081D02*
X384180D01*
X382507Y283407D02*
Y286754D01*
X388629Y334569D02*
X391975D01*
X390302Y332896D02*
Y336242D01*
X388629Y316577D02*
X391975D01*
X390302Y314903D02*
Y318250D01*
X388629Y298545D02*
X391975D01*
X390302Y296872D02*
Y300218D01*
X388629Y289569D02*
X391975D01*
X390302Y287896D02*
Y291242D01*
X396464Y339057D02*
X399810D01*
X398137Y337384D02*
Y340730D01*
X396464Y321065D02*
X399810D01*
X398137Y319392D02*
Y322738D01*
X396464Y312049D02*
X399810D01*
X398137Y310376D02*
Y313722D01*
X396464Y294057D02*
X399810D01*
X398137Y292384D02*
Y295730D01*
X396464Y276065D02*
X399810D01*
X398137Y274392D02*
Y277738D01*
X404259Y343545D02*
X407605D01*
X405932Y341872D02*
Y345218D01*
X404259Y325553D02*
X407605D01*
X405932Y323880D02*
Y327226D01*
X404259Y316577D02*
X407605D01*
X405932Y314903D02*
Y318250D01*
X404259Y280553D02*
X407605D01*
X405932Y278880D02*
Y282226D01*
X466807Y12764D02*
X480193D01*
X473500Y6071D02*
Y19457D01*
X466807Y86189D02*
X480193D01*
X473500Y79496D02*
Y92882D01*
X38807Y411764D02*
X52193D01*
X45500Y405071D02*
Y418457D01*
X314230Y363647D02*
X315273D01*
X314752Y363125D02*
Y364168D01*
X317793Y363647D02*
X318836D01*
X318315Y363125D02*
Y364168D01*
X312450Y359808D02*
X313494D01*
X312972Y359286D02*
Y360330D01*
X316013Y359808D02*
X317057D01*
X316535Y359286D02*
Y360330D01*
X319576Y359808D02*
X320620D01*
X320098Y359286D02*
Y360330D01*
X314230Y355970D02*
X315273D01*
X314752Y355448D02*
Y356491D01*
X317793Y355970D02*
X318836D01*
X318315Y355448D02*
Y356491D01*
X466807Y180087D02*
X480193D01*
X473500Y173394D02*
Y186779D01*
X186477Y284977D02*
X199863D01*
X193170Y278284D02*
Y291670D01*
X38807Y12764D02*
X52193D01*
X45500Y6071D02*
Y19457D01*
X466807Y411764D02*
X480193D01*
X473500Y405071D02*
Y418457D01*
X331399Y363651D02*
X332442D01*
X331920Y363129D02*
Y364173D01*
X334962Y363651D02*
X336005D01*
X335483Y363129D02*
Y364173D01*
X329619Y359812D02*
X330662D01*
X330141Y359291D02*
Y360334D01*
X333182Y359812D02*
X334225D01*
X333704Y359291D02*
Y360334D01*
X336745Y359812D02*
X337788D01*
X337267Y359291D02*
Y360334D01*
X331399Y355974D02*
X332442D01*
X331920Y355452D02*
Y356495D01*
X334962Y355974D02*
X336005D01*
X335483Y355452D02*
Y356495D01*
X403609Y240064D02*
X404609D01*
X404109Y239564D02*
Y240564D01*
X380641Y88282D02*
X381641D01*
X381141Y87782D02*
Y88782D01*
X403807Y90754D02*
X404808D01*
X404308Y90254D02*
Y91255D01*
X363584Y29120D02*
X364584D01*
X364084Y28620D02*
Y29621D01*
X367133Y37258D02*
X368133D01*
X367633Y36758D02*
Y37758D01*
X190827Y331760D02*
X191827D01*
X191327Y331260D02*
Y332260D01*
X63477Y172572D02*
X64477D01*
X63977Y172072D02*
Y173072D01*
X73106Y161107D02*
X74106D01*
X73606Y160607D02*
Y161607D01*
X70868Y164503D02*
X71868D01*
X71368Y164003D02*
Y165003D01*
X400317Y43826D02*
X401317D01*
X400817Y43326D02*
Y44326D01*
X411985Y40963D02*
X412985D01*
X412485Y40463D02*
Y41463D01*
X409729Y35698D02*
X410729D01*
X410229Y35198D02*
Y36198D01*
X396059Y25080D02*
X397059D01*
X396559Y24580D02*
Y25580D01*
X390448Y27286D02*
X391448D01*
X390948Y26786D02*
Y27786D01*
X364930Y57863D02*
X365930D01*
X365430Y57363D02*
Y58363D01*
X362688Y47656D02*
X363688D01*
X363188Y47156D02*
Y48156D01*
X384818Y56409D02*
X385818D01*
X385318Y55909D02*
Y56909D01*
X258183Y116626D02*
X259183D01*
X258683Y116126D02*
Y117126D01*
X254572Y166209D02*
X255572D01*
X255072Y165708D02*
Y166709D01*
X255688Y155656D02*
X256688D01*
X256188Y155156D02*
Y156156D01*
X256080Y131209D02*
X257080D01*
X256580Y130709D02*
Y131709D01*
X255752Y139875D02*
X256752D01*
X256252Y139375D02*
Y140375D01*
X221896Y113368D02*
X222896D01*
X222396Y112868D02*
Y113868D01*
X396688Y81656D02*
X397688D01*
X397188Y81156D02*
Y82156D01*
X396474Y76275D02*
X397474D01*
X396974Y75775D02*
Y76775D01*
X378996Y80102D02*
X379996D01*
X379496Y79602D02*
Y80602D01*
X413792Y79815D02*
X414792D01*
X414292Y79315D02*
Y80315D01*
X284156Y127939D02*
X285156D01*
X284656Y127439D02*
Y128439D01*
X274658Y128094D02*
X275658D01*
X275158Y127594D02*
Y128594D01*
X154717Y127132D02*
X155717D01*
X155217Y126632D02*
Y127632D01*
X166092Y127171D02*
X167092D01*
X166592Y126671D02*
Y127671D01*
X174991Y127171D02*
X175991D01*
X175491Y126671D02*
Y127671D01*
X269500Y128000D02*
X270500D01*
X270000Y127500D02*
Y128500D01*
X131608Y258719D02*
X132608D01*
X132108Y258219D02*
Y259219D01*
X215860Y343591D02*
X216860D01*
X216360Y343091D02*
Y344091D01*
X173273Y180014D02*
X174273D01*
X173773Y179514D02*
Y180514D01*
X166721Y164343D02*
X167721D01*
X167221Y163843D02*
Y164843D01*
X215475Y312019D02*
X216475D01*
X215975Y311519D02*
Y312519D01*
X278523Y312556D02*
X279523D01*
X279024Y312056D02*
Y313056D01*
X165348Y314580D02*
X166348D01*
X165848Y314080D02*
Y315080D01*
X377520Y87107D02*
X378520D01*
X378020Y86607D02*
Y87607D01*
X401074Y88765D02*
X402074D01*
X401574Y88265D02*
Y89265D01*
X57164Y164538D02*
X58164D01*
X57664Y164038D02*
Y165038D01*
X317192Y317143D02*
X318192D01*
X317692Y316642D02*
Y317642D01*
X237314Y406220D02*
X238314D01*
X237814Y405720D02*
Y406720D01*
X240641Y406254D02*
X241641D01*
X241141Y405754D02*
Y406754D01*
X239602Y365297D02*
X240602D01*
X240102Y364797D02*
Y365797D01*
X239709Y361997D02*
X240709D01*
X240209Y361497D02*
Y362497D01*
X239735Y358568D02*
X240735D01*
X240235Y358068D02*
Y359068D01*
X240416Y309249D02*
X241416D01*
X240916Y308749D02*
Y309749D01*
X240390Y312677D02*
X241390D01*
X240890Y312177D02*
Y313177D01*
X240284Y315977D02*
X241284D01*
X240784Y315477D02*
Y316477D01*
X240503Y261254D02*
X241503D01*
X241003Y260754D02*
Y261754D01*
X122479Y384766D02*
X123479D01*
X122979Y384266D02*
Y385266D01*
X274316Y279940D02*
X275316D01*
X274816Y279440D02*
Y280440D01*
X274312Y284412D02*
X275312D01*
X274813Y283912D02*
Y284912D01*
X269632Y284430D02*
X270632D01*
X270132Y283930D02*
Y284930D01*
X274455Y298542D02*
X275455D01*
X274955Y298042D02*
Y299042D01*
X274346Y294633D02*
X275346D01*
X274846Y294133D02*
Y295133D01*
X270281Y294597D02*
X271281D01*
X270781Y294097D02*
Y295097D01*
X270537Y328652D02*
X271537D01*
X271037Y328152D02*
Y329152D01*
X274938Y328699D02*
X275938D01*
X275438Y328199D02*
Y329199D01*
X275065Y332894D02*
X276065D01*
X275566Y332394D02*
Y333394D01*
X270219Y346590D02*
X271219D01*
X270719Y346090D02*
Y347090D01*
X274350Y346542D02*
X275350D01*
X274850Y346042D02*
Y347042D01*
X274509Y342427D02*
X275509D01*
X275009Y341927D02*
Y342927D01*
X274614Y380620D02*
X275614D01*
X275114Y380120D02*
Y381120D01*
X274556Y376402D02*
X275556D01*
X275056Y375902D02*
Y376902D01*
X270367Y376372D02*
X271367D01*
X270867Y375872D02*
Y376872D01*
X274658Y389644D02*
X275658D01*
X275158Y389144D02*
Y390144D01*
X274706Y394263D02*
X275706D01*
X275206Y393762D02*
Y394762D01*
X269983Y394348D02*
X270983D01*
X270483Y393848D02*
Y394848D01*
X336241Y371638D02*
X337241D01*
X336741Y371138D02*
Y372138D01*
X288805Y343149D02*
X289805D01*
X289304Y342649D02*
Y343649D01*
X335953Y387998D02*
X336953D01*
X336453Y387498D02*
Y388498D01*
X337927Y284812D02*
X338927D01*
X338427Y284312D02*
Y285312D01*
X337816Y288984D02*
X338816D01*
X338316Y288484D02*
Y289484D01*
X340593Y281080D02*
X341593D01*
X341093Y280580D02*
Y281580D01*
X337080Y281092D02*
X338080D01*
X337580Y280592D02*
Y281592D01*
X338222Y323567D02*
X339222D01*
X338722Y323067D02*
Y324067D01*
X334856Y323623D02*
X335856D01*
X335356Y323124D02*
Y324124D01*
X334821Y319918D02*
X335821D01*
X335321Y319418D02*
Y320418D01*
X334970Y316225D02*
X335970D01*
X335470Y315725D02*
Y316725D01*
X207353Y307934D02*
X208353D01*
X207853Y307434D02*
Y308434D01*
X173970Y317547D02*
X174970D01*
X174470Y317046D02*
Y318046D01*
X408934Y38945D02*
X409934D01*
X409434Y38445D02*
Y39445D01*
X406071Y36684D02*
X407071D01*
X406571Y36184D02*
Y37184D01*
X190400Y326456D02*
X191400D01*
X190900Y325956D02*
Y326956D01*
X169922Y366157D02*
X170922D01*
X170422Y365657D02*
Y366657D01*
X180271Y364805D02*
X181271D01*
X180771Y364304D02*
Y365304D01*
X229686Y346793D02*
X230686D01*
X230187Y346293D02*
Y347293D01*
X217630Y393829D02*
X218630D01*
X218130Y393329D02*
Y394329D01*
X367120Y254002D02*
X368120D01*
X367620Y253502D02*
Y254502D01*
X153204Y410510D02*
X154204D01*
X153704Y410010D02*
Y411010D01*
X157204Y410510D02*
X158204D01*
X157704Y410010D02*
Y411010D01*
X101533Y410309D02*
X102533D01*
X102033Y409808D02*
Y410809D01*
X97533Y410309D02*
X98533D01*
X98033Y409808D02*
Y410809D01*
X93533Y410309D02*
X94533D01*
X94033Y409808D02*
Y410809D01*
X89533Y410309D02*
X90533D01*
X90033Y409808D02*
Y410809D01*
X85610Y410239D02*
X86610D01*
X86110Y409739D02*
Y410739D01*
X101532Y413937D02*
X102532D01*
X102032Y413437D02*
Y414437D01*
X97532Y413937D02*
X98532D01*
X98032Y413437D02*
Y414437D01*
X93532Y413937D02*
X94532D01*
X94032Y413437D02*
Y414437D01*
X89532Y413937D02*
X90532D01*
X90032Y413437D02*
Y414437D01*
X85609Y413868D02*
X86609D01*
X86109Y413368D02*
Y414368D01*
X101532Y417566D02*
X102532D01*
X102032Y417066D02*
Y418066D01*
X97532Y417566D02*
X98532D01*
X98032Y417066D02*
Y418066D01*
X93532Y417566D02*
X94532D01*
X94032Y417066D02*
Y418066D01*
X89532Y417566D02*
X90532D01*
X90032Y417066D02*
Y418066D01*
X85609Y417496D02*
X86609D01*
X86109Y416996D02*
Y417996D01*
X128830Y339814D02*
X129830D01*
X129330Y339314D02*
Y340314D01*
X124830Y339814D02*
X125830D01*
X125330Y339314D02*
Y340314D01*
X120830Y339814D02*
X121830D01*
X121330Y339314D02*
Y340314D01*
X116830Y339814D02*
X117830D01*
X117330Y339314D02*
Y340314D01*
X112907Y339744D02*
X113907D01*
X113407Y339244D02*
Y340244D01*
X112909Y336153D02*
X113909D01*
X113409Y335653D02*
Y336653D01*
X128831Y336042D02*
X129831D01*
X129331Y335542D02*
Y336542D01*
X108265Y297981D02*
X109265D01*
X108765Y297481D02*
Y298481D01*
X135342Y316259D02*
X136342D01*
X135842Y315759D02*
Y316759D01*
X135412Y312336D02*
X136412D01*
X135912Y311836D02*
Y312836D01*
X112089Y308907D02*
X113089D01*
X112589Y308407D02*
Y309407D01*
X112159Y304984D02*
X113159D01*
X112659Y304484D02*
Y305484D01*
X108282Y309008D02*
X109282D01*
X108782Y308508D02*
Y309508D01*
X108282Y313008D02*
X109282D01*
X108782Y312508D02*
Y313508D01*
X108282Y317008D02*
X109282D01*
X108782Y316508D02*
Y317508D01*
X60707Y336997D02*
X61707D01*
X61207Y336496D02*
Y337496D01*
X44785Y337107D02*
X45785D01*
X45285Y336607D02*
Y337607D01*
X44783Y340699D02*
X45783D01*
X45283Y340199D02*
Y341199D01*
X48706Y340768D02*
X49706D01*
X49206Y340268D02*
Y341268D01*
X52706Y340768D02*
X53706D01*
X53206Y340268D02*
Y341268D01*
X56706Y340768D02*
X57706D01*
X57206Y340268D02*
Y341268D01*
X60706Y340768D02*
X61706D01*
X61206Y340268D02*
Y341268D01*
X60869Y308941D02*
X61869D01*
X61369Y308441D02*
Y309441D01*
X56869Y308941D02*
X57869D01*
X57369Y308441D02*
Y309441D01*
X52869Y308941D02*
X53869D01*
X53369Y308441D02*
Y309441D01*
X48869Y308941D02*
X49869D01*
X49369Y308441D02*
Y309441D01*
X44946Y308871D02*
X45946D01*
X45446Y308371D02*
Y309371D01*
X380530Y254475D02*
X381530D01*
X381030Y253975D02*
Y254975D01*
X238966Y215180D02*
X239967D01*
X239467Y214680D02*
Y215680D01*
X292532Y384064D02*
X293532D01*
X293032Y383564D02*
Y384564D01*
X293746Y293731D02*
X294746D01*
X294246Y293231D02*
Y294231D01*
X283934Y298533D02*
X284934D01*
X284434Y298032D02*
Y299032D01*
X298995Y297721D02*
X299995D01*
X299495Y297220D02*
Y298220D01*
X298830Y317620D02*
X299830D01*
X299330Y317120D02*
Y318120D01*
X54500Y184000D02*
X55500D01*
X55000Y183500D02*
Y184500D01*
X89175Y183862D02*
X90175D01*
X89675Y183362D02*
Y184362D01*
X83500Y99000D02*
X84500D01*
X84000Y98500D02*
Y99500D01*
X229590Y394275D02*
X230590D01*
X230090Y393775D02*
Y394775D01*
X321928Y320561D02*
X322928D01*
X322428Y320060D02*
Y321060D01*
X229478Y297084D02*
X230478D01*
X229978Y296584D02*
Y297584D01*
X117760Y276021D02*
X118760D01*
X118260Y275521D02*
Y276521D01*
X58140Y279900D02*
X59140D01*
X58640Y279400D02*
Y280400D01*
X58140Y283090D02*
X59140D01*
X58640Y282591D02*
Y283591D01*
X124826Y217138D02*
X125826D01*
X125326Y216638D02*
Y217638D01*
X164508Y320389D02*
X165508D01*
X165008Y319889D02*
Y320889D01*
X215114Y307004D02*
X216114D01*
X215614Y306504D02*
Y307504D01*
X162150Y324798D02*
X163150D01*
X162650Y324298D02*
Y325298D01*
X423090Y416187D02*
X424090D01*
X423590Y415687D02*
Y416686D01*
X399444Y416010D02*
X400444D01*
X399944Y415510D02*
Y416510D01*
X403444Y416010D02*
X404444D01*
X403944Y415510D02*
Y416510D01*
X407367Y416080D02*
X408367D01*
X407867Y415580D02*
Y416579D01*
X381471Y416081D02*
X382471D01*
X381971Y415581D02*
Y416581D01*
X385471Y416081D02*
X386471D01*
X385971Y415581D02*
Y416581D01*
X389394Y416151D02*
X390394D01*
X389894Y415651D02*
Y416651D01*
X365443Y415993D02*
X366443D01*
X365943Y415493D02*
Y416493D01*
X369443Y415993D02*
X370443D01*
X369943Y415493D02*
Y416493D01*
X373366Y416062D02*
X374366D01*
X373866Y415562D02*
Y416562D01*
X128299Y217338D02*
X129299D01*
X128799Y216838D02*
Y217838D01*
X191771Y304904D02*
X192771D01*
X192271Y304403D02*
Y305403D01*
X125052Y145758D02*
X126052D01*
X125552Y145258D02*
Y146258D01*
X59282Y98086D02*
X60282D01*
X59782Y97586D02*
Y98586D01*
X304107Y26840D02*
X305107D01*
X304607Y26340D02*
Y27340D01*
X321271Y26646D02*
X322271D01*
X321771Y26146D02*
Y27146D01*
X465836Y358195D02*
X466836D01*
X466336Y357695D02*
Y358695D01*
X363915Y258124D02*
X364915D01*
X364415Y257624D02*
Y258624D01*
X367534Y258276D02*
X368534D01*
X368034Y257776D02*
Y258776D01*
X371609Y254064D02*
X372609D01*
X372109Y253564D02*
Y254564D01*
X369404Y250552D02*
X370404D01*
X369904Y250052D02*
Y251052D01*
X124908Y170760D02*
X125908D01*
X125408Y170260D02*
Y171260D01*
X204693Y305764D02*
X205693D01*
X205193Y305264D02*
Y306264D01*
X189487Y311299D02*
X190487D01*
X189987Y310799D02*
Y311799D01*
X304964Y341684D02*
X305964D01*
X305464Y341184D02*
Y342184D01*
X305404Y330463D02*
X306404D01*
X305904Y329963D02*
Y330963D01*
X297573Y370457D02*
X298573D01*
X298074Y369957D02*
Y370957D01*
X302790Y375290D02*
X303790D01*
X303290Y374790D02*
Y375790D01*
X303942Y325608D02*
X304942D01*
X304442Y325108D02*
Y326108D01*
X307865Y325678D02*
X308865D01*
X308365Y325178D02*
Y326178D01*
X311865Y325678D02*
X312865D01*
X312365Y325178D02*
Y326178D01*
X319826Y330412D02*
X320826D01*
X320326Y329912D02*
Y330912D01*
X315826Y330412D02*
X316826D01*
X316326Y329912D02*
Y330912D01*
X311903Y330343D02*
X312903D01*
X312403Y329842D02*
Y330842D01*
X317917Y349202D02*
X318917D01*
X318417Y348702D02*
Y349702D01*
X317728Y370784D02*
X318728D01*
X318228Y370284D02*
Y371284D01*
X433277Y339646D02*
X434277D01*
X433777Y339146D02*
Y340146D01*
X433207Y343569D02*
X434207D01*
X433707Y343069D02*
Y344069D01*
X433207Y347569D02*
X434207D01*
X433707Y347069D02*
Y348069D01*
X433207Y351569D02*
X434207D01*
X433707Y351069D02*
Y352069D01*
X433207Y355569D02*
X434207D01*
X433707Y355069D02*
Y356069D01*
X436905Y339646D02*
X437905D01*
X437405Y339146D02*
Y340146D01*
X436836Y343569D02*
X437836D01*
X437336Y343069D02*
Y344069D01*
X436836Y347569D02*
X437836D01*
X437336Y347069D02*
Y348069D01*
X436836Y351569D02*
X437836D01*
X437336Y351069D02*
Y352069D01*
X436836Y355569D02*
X437836D01*
X437336Y355069D02*
Y356069D01*
X440534Y339647D02*
X441534D01*
X441034Y339146D02*
Y340146D01*
X440465Y343569D02*
X441465D01*
X440965Y343070D02*
Y344070D01*
X440465Y347569D02*
X441465D01*
X440965Y347070D02*
Y348070D01*
X440465Y351570D02*
X441465D01*
X440965Y351069D02*
Y352069D01*
X440465Y355570D02*
X441465D01*
X440965Y355069D02*
Y356069D01*
X141280Y417698D02*
X142280D01*
X141780Y417198D02*
Y418198D01*
X145203Y417767D02*
X146203D01*
X145703Y417268D02*
Y418267D01*
X149203Y417767D02*
X150203D01*
X149703Y417268D02*
Y418267D01*
X153203Y417767D02*
X154203D01*
X153703Y417268D02*
Y418267D01*
X157203Y417767D02*
X158203D01*
X157703Y417268D02*
Y418267D01*
X141280Y414069D02*
X142280D01*
X141780Y413569D02*
Y414569D01*
X145203Y414139D02*
X146203D01*
X145703Y413639D02*
Y414639D01*
X149203Y414139D02*
X150203D01*
X149703Y413639D02*
Y414639D01*
X153203Y414139D02*
X154203D01*
X153703Y413639D02*
Y414639D01*
X157203Y414139D02*
X158203D01*
X157703Y413639D02*
Y414639D01*
X141281Y410440D02*
X142281D01*
X141781Y409940D02*
Y410941D01*
X145204Y410510D02*
X146204D01*
X145704Y410010D02*
Y411010D01*
X149204Y410510D02*
X150204D01*
X149704Y410010D02*
Y411010D01*
X197661Y222711D02*
X198661D01*
X198161Y222212D02*
Y223212D01*
X185260Y224545D02*
X186260D01*
X185760Y224045D02*
Y225045D01*
X137500Y90000D02*
X138500D01*
X138000Y89500D02*
Y90500D01*
X222730Y176625D02*
X223730D01*
X223230Y176125D02*
Y177125D01*
X214143Y280803D02*
X215143D01*
X214643Y280303D02*
Y281303D01*
X217100Y336428D02*
X218100D01*
X217600Y335929D02*
Y336929D01*
X216313Y278507D02*
X217313D01*
X216813Y278007D02*
Y279007D01*
X215177Y387869D02*
X216178D01*
X215677Y387369D02*
Y388369D01*
X215500Y340000D02*
X216500D01*
X216000Y339500D02*
Y340500D01*
X215291Y384959D02*
X216291D01*
X215791Y384459D02*
Y385459D01*
X210478Y363617D02*
X211478D01*
X210979Y363117D02*
Y364117D01*
X208054Y370399D02*
X209054D01*
X208554Y369899D02*
Y370899D01*
X108351Y305085D02*
X109351D01*
X108851Y304585D02*
Y305585D01*
X141375Y268258D02*
X142375D01*
X141875Y267758D02*
Y268758D01*
X112188Y298050D02*
X113188D01*
X112688Y297551D02*
Y298551D01*
X215538Y300495D02*
X216538D01*
X216038Y299995D02*
Y300995D01*
X219500Y116000D02*
X220500D01*
X220000Y115500D02*
Y116500D01*
X164500Y179000D02*
X165500D01*
X165000Y178500D02*
Y179500D01*
X168929Y175345D02*
X169929D01*
X169429Y174845D02*
Y175845D01*
X173500Y171000D02*
X174500D01*
X174000Y170500D02*
Y171500D01*
X180500Y165000D02*
X181500D01*
X181000Y164500D02*
Y165500D01*
X60113Y165711D02*
X61112D01*
X60612Y165211D02*
Y166211D01*
X204214Y136916D02*
X205214D01*
X204714Y136416D02*
Y137416D01*
X67455Y165436D02*
X68455D01*
X67955Y164936D02*
Y165936D01*
X63719Y165856D02*
X64719D01*
X64219Y165356D02*
Y166356D01*
X254546Y158838D02*
X255546D01*
X255046Y158338D02*
Y159338D01*
X247205Y173019D02*
X248205D01*
X247705Y172519D02*
Y173519D01*
X254380Y134016D02*
X255380D01*
X254880Y133516D02*
Y134516D01*
X254292Y136536D02*
X255292D01*
X254792Y136036D02*
Y137036D01*
X246377Y148229D02*
X247377D01*
X246877Y147729D02*
Y148729D01*
X210278Y120985D02*
X211278D01*
X210778Y120485D02*
Y121485D01*
X51416Y285459D02*
X52416D01*
X51916Y284959D02*
Y285959D01*
X330359Y255321D02*
X331359D01*
X330859Y254821D02*
Y255821D01*
X55500Y141000D02*
X56500D01*
X56000Y140500D02*
Y141500D01*
X411532Y48064D02*
X412532D01*
X412032Y47564D02*
Y48564D01*
X192261Y335090D02*
X193261D01*
X192761Y334590D02*
Y335590D01*
X145697Y289688D02*
X146697D01*
X146197Y289188D02*
Y290188D01*
X70752Y289092D02*
X71752D01*
X71252Y288593D02*
Y289593D01*
X335963Y349052D02*
X336963D01*
X336463Y348552D02*
Y349552D01*
X328225Y369064D02*
X329225D01*
X328725Y368564D02*
Y369564D01*
X406050Y22980D02*
X407050D01*
X406550Y22480D02*
Y23480D01*
X367500Y30000D02*
X368500D01*
X368000Y29500D02*
Y30500D01*
X339500Y27000D02*
X340500D01*
X340000Y26500D02*
Y27500D01*
X398359Y22306D02*
X399359D01*
X398859Y21806D02*
Y22806D01*
X368500Y34000D02*
X369500D01*
X369000Y33500D02*
Y34500D01*
X71680Y158152D02*
X72680D01*
X72180Y157652D02*
Y158652D01*
X370587Y279812D02*
X371587D01*
X371087Y279312D02*
Y280312D01*
X472182Y309451D02*
X473182D01*
X472682Y308951D02*
Y309951D01*
X237006Y258249D02*
X238006D01*
X237506Y257749D02*
Y258749D01*
X237061Y261213D02*
X238061D01*
X237561Y260713D02*
Y261713D01*
X240530Y258290D02*
X241530D01*
X241030Y257790D02*
Y258790D01*
X240590Y264576D02*
X241590D01*
X241090Y264076D02*
Y265076D01*
X240590Y267378D02*
X241590D01*
X241090Y266878D02*
Y267878D01*
X330115Y406972D02*
X331115D01*
X330615Y406472D02*
Y407472D01*
X338630Y399829D02*
X339630D01*
X339130Y399329D02*
Y400329D01*
X337500Y382970D02*
X338500D01*
X338000Y382470D02*
Y383470D01*
X335954Y384935D02*
X336954D01*
X336454Y384435D02*
Y385435D01*
X337538Y380427D02*
X338538D01*
X338038Y379927D02*
Y380927D01*
X334500Y379000D02*
X335500D01*
X335000Y378500D02*
Y379500D01*
X220500Y350000D02*
X221500D01*
X221000Y349500D02*
Y350500D01*
X188457Y324175D02*
X189457D01*
X188957Y323675D02*
Y324675D01*
X333131Y287905D02*
X334131D01*
X333631Y287405D02*
Y288405D01*
X415167Y416117D02*
X416167D01*
X415667Y415617D02*
Y416617D01*
X419167Y416117D02*
X420167D01*
X419667Y415617D02*
Y416617D01*
X130782Y397194D02*
X131782D01*
X131282Y396694D02*
Y397694D01*
X130713Y401117D02*
X131713D01*
X131213Y400617D02*
Y401617D01*
X130713Y405117D02*
X131713D01*
X131213Y404617D02*
Y405617D01*
X134411Y397194D02*
X135411D01*
X134911Y396694D02*
Y397694D01*
X134341Y401117D02*
X135341D01*
X134841Y400617D02*
Y401617D01*
X134341Y405117D02*
X135341D01*
X134841Y404617D02*
Y405617D01*
X67633Y384074D02*
X68633D01*
X68133Y383574D02*
Y384574D01*
X67563Y387997D02*
X68563D01*
X68063Y387497D02*
Y388497D01*
X67563Y391997D02*
X68563D01*
X68063Y391497D02*
Y392497D01*
X71262Y384074D02*
X72262D01*
X71762Y383574D02*
Y384574D01*
X71192Y387997D02*
X72192D01*
X71692Y387497D02*
Y388497D01*
X71192Y391997D02*
X72192D01*
X71692Y391497D02*
Y392497D01*
X67633Y397119D02*
X68633D01*
X68133Y396619D02*
Y397619D01*
X67563Y401042D02*
X68563D01*
X68063Y400542D02*
Y401542D01*
X67563Y405042D02*
X68563D01*
X68063Y404542D02*
Y405542D01*
X71262Y397119D02*
X72262D01*
X71762Y396619D02*
Y397619D01*
X71192Y401042D02*
X72192D01*
X71692Y400542D02*
Y401542D01*
X71192Y405042D02*
X72192D01*
X71692Y404542D02*
Y405542D01*
X74200Y377077D02*
X75200D01*
X74700Y376577D02*
Y377577D01*
X70216Y376939D02*
X71216D01*
X70716Y376439D02*
Y377439D01*
X47148Y356499D02*
X48148D01*
X47648Y355999D02*
Y356999D01*
X43091Y356430D02*
X44091D01*
X43591Y355930D02*
Y356930D01*
X153063Y318466D02*
X154063D01*
X153563Y317966D02*
Y318966D01*
X152994Y322389D02*
X153994D01*
X153494Y321889D02*
Y322889D01*
X156207Y325849D02*
X157207D01*
X156707Y325349D02*
Y326349D01*
X156138Y329772D02*
X157138D01*
X156638Y329272D02*
Y330272D01*
X156138Y333772D02*
X157138D01*
X156638Y333272D02*
Y334272D01*
X156138Y337772D02*
X157138D01*
X156638Y337272D02*
Y338272D01*
X88131Y337812D02*
X89131D01*
X88631Y337312D02*
Y338312D01*
X88131Y333812D02*
X89131D01*
X88631Y333312D02*
Y334312D01*
X88131Y329812D02*
X89131D01*
X88631Y329312D02*
Y330312D01*
X344804Y316244D02*
X345804D01*
X345304Y315744D02*
Y316744D01*
X225656Y353477D02*
X226656D01*
X226156Y352977D02*
Y353977D01*
X185500Y348000D02*
X186500D01*
X186000Y347500D02*
Y348500D01*
X219153Y325712D02*
X220153D01*
X219654Y325212D02*
Y326212D01*
X204663Y343638D02*
X205663D01*
X205163Y343138D02*
Y344138D01*
X326689Y383532D02*
X327689D01*
X327189Y383032D02*
Y384032D01*
X326515Y395979D02*
X327515D01*
X327015Y395479D02*
Y396480D01*
X224094Y270581D02*
X225094D01*
X224594Y270081D02*
Y271081D01*
X245119Y267364D02*
X246119D01*
X245619Y266864D02*
Y267864D01*
X231260Y264065D02*
X232260D01*
X231760Y263565D02*
Y264565D01*
X261500Y259000D02*
X262500D01*
X262000Y258500D02*
Y259500D01*
X388500Y30000D02*
X389500D01*
X389000Y29500D02*
Y30500D01*
X387500Y53000D02*
X388500D01*
X388000Y52500D02*
Y53500D01*
X367492Y53453D02*
X368492D01*
X367991Y52953D02*
Y53953D01*
X254435Y161567D02*
X255435D01*
X254935Y161067D02*
Y162067D01*
X254500Y117000D02*
X255500D01*
X255000Y116500D02*
Y117500D01*
X366444Y49539D02*
X367444D01*
X366944Y49039D02*
Y50039D01*
X154500Y182000D02*
X155500D01*
X155000Y181500D02*
Y182500D01*
X154393Y214885D02*
X155393D01*
X154893Y214386D02*
Y215386D01*
X175655Y149082D02*
X176655D01*
X176155Y148582D02*
Y149582D01*
X204500Y220000D02*
X205500D01*
X205000Y219500D02*
Y220500D01*
X237135Y385720D02*
X238135D01*
X237635Y385220D02*
Y386220D01*
X237029Y389020D02*
X238029D01*
X237529Y388520D02*
Y389520D01*
X236955Y334204D02*
X237955D01*
X237455Y333704D02*
Y334704D01*
X236929Y337633D02*
X237929D01*
X237429Y337133D02*
Y338133D01*
X236823Y340933D02*
X237823D01*
X237323Y340433D02*
Y341433D01*
X186859Y331019D02*
X187859D01*
X187359Y330520D02*
Y331520D01*
X175813Y320605D02*
X176813D01*
X176313Y320105D02*
Y321105D01*
X176113Y341373D02*
X177113D01*
X176613Y340873D02*
Y341873D01*
X192118Y311314D02*
X193118D01*
X192618Y310814D02*
Y311814D01*
X185131Y362750D02*
X186131D01*
X185631Y362250D02*
Y363250D01*
X174991Y362352D02*
X175991D01*
X175491Y361852D02*
Y362852D01*
X164613Y362443D02*
X165613D01*
X165113Y361943D02*
Y362943D01*
X409004Y87356D02*
X410004D01*
X409504Y86856D02*
Y87856D01*
X390373Y87236D02*
X391373D01*
X390873Y86736D02*
Y87736D01*
X420415Y25813D02*
X421415D01*
X420915Y25313D02*
Y26313D01*
X427665Y59418D02*
X428665D01*
X428165Y58918D02*
Y59918D01*
X424153Y63147D02*
X425152D01*
X424652Y62647D02*
Y63647D01*
X407996Y49544D02*
X408996D01*
X408496Y49044D02*
Y50044D01*
X418193Y51526D02*
X419193D01*
X418693Y51026D02*
Y52026D01*
X393882Y32803D02*
X394882D01*
X394382Y32303D02*
Y33303D01*
X372373Y42236D02*
X373373D01*
X372873Y41736D02*
Y42736D01*
X309500Y19000D02*
X310500D01*
X310000Y18500D02*
Y19500D01*
X291500Y19000D02*
X292500D01*
X292000Y18500D02*
Y19500D01*
X197450Y133447D02*
X198450D01*
X197950Y132947D02*
Y133947D01*
X105912Y140996D02*
X106912D01*
X106412Y140496D02*
Y141496D01*
X104395Y105327D02*
X105395D01*
X104895Y104827D02*
Y105827D01*
X66292Y104748D02*
X67292D01*
X66792Y104248D02*
Y105248D01*
X73827Y136719D02*
X74827D01*
X74327Y136219D02*
Y137219D01*
X86794Y136380D02*
X87794D01*
X87294Y135880D02*
Y136880D01*
X39932Y129512D02*
X40932D01*
X40432Y129012D02*
Y130012D01*
X47860Y129591D02*
X48860D01*
X48360Y129091D02*
Y130091D01*
X58807Y128379D02*
X59807D01*
X59307Y127879D02*
Y128879D01*
X48893Y136287D02*
X49893D01*
X49393Y135787D02*
Y136787D01*
X48014Y154806D02*
X49014D01*
X48514Y154306D02*
Y155306D01*
X59573Y152363D02*
X60573D01*
X60073Y151863D02*
Y152863D01*
X48542Y168683D02*
X49542D01*
X49042Y168183D02*
Y169183D01*
X105802Y164766D02*
X106802D01*
X106302Y164266D02*
Y165266D01*
X102986Y181239D02*
X103986D01*
X103486Y180739D02*
Y181739D01*
X67937Y181612D02*
X68937D01*
X68437Y181112D02*
Y182112D01*
X102995Y213610D02*
X103995D01*
X103495Y213110D02*
Y214110D01*
X138562Y217912D02*
X139562D01*
X139062Y217412D02*
Y218412D01*
X121158Y217790D02*
X122158D01*
X121658Y217290D02*
Y218290D01*
X104253Y376196D02*
X105253D01*
X104753Y375696D02*
Y376696D01*
X150476Y301378D02*
X151476D01*
X150976Y300878D02*
Y301878D01*
X124625Y266926D02*
X125625D01*
X125125Y266426D02*
Y267426D01*
X101172Y267088D02*
X102172D01*
X101672Y266588D02*
Y267588D01*
X84916Y267001D02*
X85916D01*
X85416Y266501D02*
Y267501D01*
X73952Y263152D02*
X74952D01*
X74452Y262652D02*
Y263652D01*
X77910Y273458D02*
X78910D01*
X78410Y272958D02*
Y273958D01*
X67105Y275060D02*
X68104D01*
X67605Y274560D02*
Y275560D01*
X88231Y309522D02*
X89231D01*
X88731Y309022D02*
Y310022D01*
X88161Y313445D02*
X89161D01*
X88661Y312945D02*
Y313945D01*
X88161Y317445D02*
X89161D01*
X88661Y316945D02*
Y317945D01*
X69882Y298898D02*
X70882D01*
X70382Y298398D02*
Y299398D01*
X61713Y302209D02*
X62713D01*
X62213Y301709D02*
Y302709D01*
X151533Y377325D02*
X152533D01*
X152033Y376825D02*
Y377825D01*
X134119Y379703D02*
X135119D01*
X134619Y379203D02*
Y380203D01*
X134189Y375780D02*
X135189D01*
X134689Y375280D02*
Y376280D01*
X130881Y384222D02*
X131881D01*
X131381Y383722D02*
Y384722D01*
X130812Y388145D02*
X131812D01*
X131312Y387645D02*
Y388645D01*
X130812Y392145D02*
X131812D01*
X131312Y391645D02*
Y392645D01*
X134510Y384222D02*
X135510D01*
X135010Y383722D02*
Y384722D01*
X134440Y388145D02*
X135440D01*
X134940Y387645D02*
Y388645D01*
X134440Y392145D02*
X135440D01*
X134940Y391645D02*
Y392645D01*
X322515Y395979D02*
X323515D01*
X323015Y395479D02*
Y396480D01*
X344137Y374978D02*
X345137D01*
X344637Y374478D02*
Y375478D01*
X348137Y374978D02*
X349137D01*
X348637Y374478D02*
Y375478D01*
X344036Y382092D02*
X345036D01*
X344536Y381592D02*
Y382592D01*
X348036Y382092D02*
X349036D01*
X348536Y381592D02*
Y382592D01*
X340993Y349129D02*
X341993D01*
X341493Y348629D02*
Y349629D01*
X338580Y332843D02*
X339580D01*
X339080Y332343D02*
Y333343D01*
X338903Y343893D02*
X339903D01*
X339403Y343393D02*
Y344393D01*
X338926Y340474D02*
X339926D01*
X339426Y339974D02*
Y340974D01*
X300319Y354504D02*
X301319D01*
X300819Y354004D02*
Y355004D01*
X300072Y359557D02*
X301072D01*
X300572Y359057D02*
Y360057D01*
X300072Y363557D02*
X301072D01*
X300572Y363057D02*
Y364057D01*
X303491Y359579D02*
X304491D01*
X303991Y359079D02*
Y360079D01*
X303491Y363579D02*
X304491D01*
X303991Y363079D02*
Y364079D01*
X292211Y350213D02*
X293211D01*
X292711Y349713D02*
Y350713D01*
X324560Y316439D02*
X325560D01*
X325060Y315939D02*
Y316939D01*
X344839Y320159D02*
X345839D01*
X345339Y319659D02*
Y320659D01*
X347356Y286704D02*
X348356D01*
X347855Y286204D02*
Y287204D01*
X322237Y289386D02*
X323237D01*
X322737Y288886D02*
Y289886D01*
X324202Y281402D02*
X325202D01*
X324702Y280902D02*
Y281902D01*
X327715Y281390D02*
X328715D01*
X328215Y280890D02*
Y281890D01*
X324125Y278381D02*
X325125D01*
X324625Y277881D02*
Y278881D01*
X327638Y278369D02*
X328638D01*
X328137Y277869D02*
Y278869D01*
X296967Y266771D02*
X297967D01*
X297466Y266270D02*
Y267270D01*
X306416Y286249D02*
X307416D01*
X306916Y285749D02*
Y286749D01*
X297714Y285228D02*
X298714D01*
X298214Y284728D02*
Y285728D01*
X307140Y251793D02*
X308140D01*
X307641Y251293D02*
Y252293D01*
X244332Y298042D02*
X245332D01*
X244832Y297542D02*
Y298542D01*
X249615Y409328D02*
X250615D01*
X250115Y408827D02*
Y409828D01*
X247702Y313491D02*
X248702D01*
X248202Y312991D02*
Y313991D01*
X244444Y278292D02*
X245444D01*
X244944Y277792D02*
Y278792D01*
X225416Y303249D02*
X226416D01*
X225916Y302749D02*
Y303749D01*
X225071Y285730D02*
X226071D01*
X225571Y285230D02*
Y286230D01*
X220963Y275752D02*
X221963D01*
X221463Y275252D02*
Y276252D01*
X235471Y312870D02*
X236471D01*
X235971Y312370D02*
Y313370D01*
X230523Y361728D02*
X231523D01*
X231023Y361228D02*
Y362228D01*
X225286Y400999D02*
X226286D01*
X225785Y400499D02*
Y401499D01*
X244969Y395767D02*
X245969D01*
X245469Y395267D02*
Y396267D01*
X244595Y375747D02*
X245595D01*
X245095Y375247D02*
Y376247D01*
X250979Y361662D02*
X251979D01*
X251479Y361162D02*
Y362162D01*
X223945Y316651D02*
X224945D01*
X224445Y316151D02*
Y317151D01*
X245218Y347797D02*
X246218D01*
X245718Y347297D02*
Y348297D01*
X245313Y327354D02*
X246313D01*
X245813Y326853D02*
Y327853D01*
X237389Y284952D02*
X238389D01*
X237889Y284452D02*
Y285452D01*
X237363Y288380D02*
X238363D01*
X237863Y287880D02*
Y288880D01*
X237256Y291680D02*
X238256D01*
X237756Y291180D02*
Y292180D01*
X237161Y382291D02*
X238161D01*
X237662Y381791D02*
Y382791D01*
X214500Y377000D02*
X215500D01*
X215000Y376500D02*
Y377500D01*
X168000Y351101D02*
X169000D01*
X168500Y350601D02*
Y351601D01*
X88161Y321445D02*
X89161D01*
X88661Y320945D02*
Y321945D01*
X88201Y325889D02*
X89201D01*
X88701Y325389D02*
Y326389D01*
X111217Y349315D02*
X112217D01*
X111717Y348815D02*
Y349815D01*
X155728Y344243D02*
X156728D01*
X156228Y343743D02*
Y344743D01*
X94683Y344923D02*
X95683D01*
X95183Y344423D02*
Y345423D01*
X151728Y344243D02*
X152728D01*
X152228Y343743D02*
Y344743D01*
X90683Y344923D02*
X91683D01*
X91183Y344423D02*
Y345423D01*
X214433Y144312D02*
X215433D01*
X214933Y143812D02*
Y144812D01*
X210332Y137362D02*
X211332D01*
X210832Y136862D02*
Y137862D01*
X213296Y125285D02*
X214296D01*
X213796Y124785D02*
Y125785D01*
X196447Y161938D02*
X197447D01*
X196947Y161438D02*
Y162438D01*
X198806Y151995D02*
X199806D01*
X199306Y151495D02*
Y152495D01*
X190500Y125000D02*
X191500D01*
X191000Y124500D02*
Y125500D01*
X210306Y125388D02*
X211306D01*
X210806Y124888D02*
Y125888D01*
X198433Y126312D02*
X199433D01*
X198933Y125812D02*
Y126812D01*
X209173Y161599D02*
X210173D01*
X209673Y161099D02*
Y162099D01*
X86776Y148899D02*
X87776D01*
X87276Y148399D02*
Y149399D01*
X86815Y154629D02*
X87815D01*
X87315Y154129D02*
Y155129D01*
X67407Y152437D02*
X68407D01*
X67907Y151937D02*
Y152937D01*
X239500Y148000D02*
X240500D01*
X240000Y147500D02*
Y148500D01*
X223500Y152000D02*
X224500D01*
X224000Y151500D02*
Y152500D01*
X369786Y27358D02*
X370786D01*
X370286Y26858D02*
Y27858D01*
X418957Y33257D02*
X419957D01*
X419457Y32757D02*
Y33757D01*
X409373Y24236D02*
X410373D01*
X409873Y23736D02*
Y24736D01*
X369117Y57950D02*
X370117D01*
X369618Y57450D02*
Y58450D01*
X399815Y392665D02*
X400815D01*
X400315Y392165D02*
Y393165D01*
X403815Y392665D02*
X404815D01*
X404315Y392165D02*
Y393165D01*
X407738Y392735D02*
X408738D01*
X408238Y392235D02*
Y393235D01*
X381587Y392810D02*
X382587D01*
X382087Y392310D02*
Y393310D01*
X385587Y392810D02*
X386587D01*
X386087Y392310D02*
Y393310D01*
X389510Y392879D02*
X390510D01*
X390010Y392379D02*
Y393379D01*
X86781Y142670D02*
X87781D01*
X87281Y142170D02*
Y143170D01*
X86779Y130695D02*
X87779D01*
X87279Y130195D02*
Y131195D01*
X86725Y160756D02*
X87725D01*
X87225Y160256D02*
Y161256D01*
X177898Y307794D02*
X178898D01*
X178398Y307294D02*
Y308294D01*
X54155Y385811D02*
X55155D01*
X54655Y385311D02*
Y386311D01*
X474517Y218617D02*
X475517D01*
X475017Y218117D02*
Y219117D01*
X434045Y73824D02*
X435045D01*
X434545Y73324D02*
Y74324D01*
X435034Y15696D02*
X436033D01*
X435534Y15196D02*
Y16196D01*
X81852Y14964D02*
X82852D01*
X82352Y14464D02*
Y15464D01*
X339605Y18403D02*
X340605D01*
X340106Y17903D02*
Y18903D01*
X457489Y318998D02*
X458489D01*
X457989Y318498D02*
Y319498D01*
X204766Y321413D02*
X205766D01*
X205266Y320913D02*
Y321913D01*
X245703Y238214D02*
X246703D01*
X246203Y237714D02*
Y238714D01*
X283533Y278901D02*
X284533D01*
X284033Y278401D02*
Y279401D01*
X217740Y296846D02*
X218740D01*
X218240Y296346D02*
Y297346D01*
X380263Y279181D02*
X381263D01*
X380763Y278681D02*
Y279681D01*
X448765Y396612D02*
X449765D01*
X449265Y396112D02*
Y397112D01*
X452193Y396638D02*
X453193D01*
X452693Y396138D02*
Y397138D01*
X437744Y406907D02*
X438744D01*
X438244Y406407D02*
Y407407D01*
X344766Y284752D02*
X345766D01*
X345266Y284252D02*
Y285252D01*
X278859Y307173D02*
X279859D01*
X279359Y306673D02*
Y307673D01*
X334331Y299193D02*
X335331D01*
X334831Y298693D02*
Y299693D01*
X334304Y302622D02*
X335304D01*
X334804Y302122D02*
Y303122D01*
X334198Y305922D02*
X335198D01*
X334698Y305422D02*
Y306422D01*
X318872Y299980D02*
X319872D01*
X319372Y299480D02*
Y300480D01*
X326692Y377546D02*
X327692D01*
X327192Y377046D02*
Y378046D01*
X322692Y377546D02*
X323692D01*
X323192Y377046D02*
Y378046D01*
X322689Y383532D02*
X323689D01*
X323189Y383032D02*
Y384032D01*
X326758Y388105D02*
X327758D01*
X327258Y387605D02*
Y388605D01*
X322758Y388105D02*
X323758D01*
X323258Y387605D02*
Y388605D01*
X315052Y399204D02*
X316052D01*
X315552Y398704D02*
Y399704D01*
X410609Y223064D02*
X411609D01*
X411109Y222564D02*
Y223564D01*
X390972Y195591D02*
X391972D01*
X391472Y195091D02*
Y196091D01*
X382609Y234064D02*
X383609D01*
X383109Y233564D02*
Y234564D01*
X394609Y234064D02*
X395609D01*
X395109Y233564D02*
Y234564D01*
X451609Y235064D02*
X452609D01*
X452109Y234564D02*
Y235564D01*
X419500Y239511D02*
X420500D01*
X420000Y239011D02*
Y240011D01*
X417500Y242000D02*
X418500D01*
X418000Y241500D02*
Y242500D01*
X411951Y226293D02*
X412951D01*
X412451Y225793D02*
Y226793D01*
X404609Y245064D02*
X405609D01*
X405109Y244564D02*
Y245564D01*
X423048Y225643D02*
X424048D01*
X423548Y225143D02*
Y226143D01*
X414296Y204621D02*
X415297D01*
X414796Y204121D02*
Y205121D01*
X426609Y211064D02*
X427609D01*
X427109Y210564D02*
Y211564D01*
X428609Y231064D02*
X429609D01*
X429109Y230564D02*
Y231564D01*
X451609Y223064D02*
X452609D01*
X452109Y222564D02*
Y223564D01*
X451609Y218064D02*
X452609D01*
X452109Y217564D02*
Y218564D01*
X451609Y206064D02*
X452609D01*
X452109Y205564D02*
Y206564D01*
X440852Y197326D02*
X441852D01*
X441352Y196826D02*
Y197826D01*
X427787Y185998D02*
X428787D01*
X428287Y185498D02*
Y186498D01*
X422409Y185703D02*
X423409D01*
X422909Y185203D02*
Y186203D01*
X407252Y185785D02*
X408252D01*
X407752Y185285D02*
Y186285D01*
X403609Y199064D02*
X404609D01*
X404109Y198564D02*
Y199564D01*
X404609Y231064D02*
X405609D01*
X405109Y230564D02*
Y231564D01*
X420609Y228064D02*
X421609D01*
X421109Y227564D02*
Y228564D01*
X410609Y245064D02*
X411609D01*
X411109Y244564D02*
Y245564D01*
X192230Y328779D02*
X193230D01*
X192730Y328279D02*
Y329279D01*
X188865Y302571D02*
X189865D01*
X189365Y302071D02*
Y303071D01*
X401152Y40305D02*
X402151D01*
X401651Y39805D02*
Y40805D01*
X333367Y411266D02*
X334367D01*
X333868Y410766D02*
Y411766D01*
X325359Y312321D02*
X326359D01*
X325859Y311821D02*
Y312821D01*
X319111Y296751D02*
X320111D01*
X319611Y296251D02*
Y297251D01*
X222500Y352000D02*
X223500D01*
X223000Y351500D02*
Y352500D01*
X221868Y293059D02*
X222868D01*
X222368Y292559D02*
Y293559D01*
X416662Y30704D02*
X417662D01*
X417162Y30204D02*
Y31204D01*
X251264Y252977D02*
X252264D01*
X251764Y252477D02*
Y253477D01*
X333707Y32969D02*
X334707D01*
X334208Y32469D02*
Y33469D01*
X221837Y390799D02*
X222837D01*
X222337Y390299D02*
Y391299D01*
X221770Y342592D02*
X222770D01*
X222270Y342092D02*
Y343092D01*
X219363Y319762D02*
X220363D01*
X219863Y319262D02*
Y320262D01*
X217496Y398072D02*
X218496D01*
X217996Y397572D02*
Y398572D01*
X217342Y372394D02*
X218342D01*
X217842Y371894D02*
Y372894D01*
X220619Y271726D02*
X221619D01*
X221119Y271226D02*
Y272226D01*
X198431Y317904D02*
X199431D01*
X198931Y317404D02*
Y318404D01*
X217350Y302546D02*
X218350D01*
X217849Y302046D02*
Y303046D01*
X183470Y330022D02*
X184470D01*
X183970Y329522D02*
Y330522D01*
X96045Y266176D02*
X97045D01*
X96545Y265676D02*
Y266676D01*
X149327Y262448D02*
X150327D01*
X149827Y261948D02*
Y262948D01*
X204500Y145000D02*
X205500D01*
X205000Y144500D02*
Y145500D01*
X55200Y151236D02*
X56200D01*
X55700Y150736D02*
Y151736D01*
X225715Y116911D02*
X226715D01*
X226215Y116411D02*
Y117411D01*
X224036Y118571D02*
X225036D01*
X224536Y118071D02*
Y119071D01*
X223115Y166972D02*
X224115D01*
X223615Y166472D02*
Y167472D01*
X223104Y164031D02*
X224104D01*
X223604Y163531D02*
Y164531D01*
X232843Y171587D02*
X233843D01*
X233343Y171087D02*
Y172087D01*
X250500Y83000D02*
X251500D01*
X251000Y82500D02*
Y83500D01*
X245433Y123312D02*
X246433D01*
X245933Y122812D02*
Y123812D01*
X238598Y124472D02*
X239598D01*
X239098Y123972D02*
Y124972D01*
X232373Y127236D02*
X233373D01*
X232873Y126736D02*
Y127736D01*
X233094Y164941D02*
X234094D01*
X233594Y164441D02*
Y165441D01*
X232825Y144933D02*
X233825D01*
X233325Y144433D02*
Y145433D01*
X225500Y85000D02*
X226500D01*
X226000Y84500D02*
Y85500D01*
X200500Y99000D02*
X201500D01*
X201000Y98500D02*
Y99500D01*
X205500Y363000D02*
X206500D01*
X206000Y362500D02*
Y363500D01*
X394396Y205465D02*
X395396D01*
X394896Y204965D02*
Y205965D01*
X401922Y212482D02*
X402921D01*
X402422Y211982D02*
Y212982D01*
X68368Y367011D02*
X69411D01*
X68889Y366489D02*
Y367532D01*
X72698Y367011D02*
X73742D01*
X73220Y366489D02*
Y367532D01*
X68368Y362680D02*
X69411D01*
X68889Y362158D02*
Y363201D01*
X72698Y362680D02*
X73742D01*
X73220Y362158D02*
Y363201D01*
X68368Y358349D02*
X69411D01*
X68889Y357827D02*
Y358871D01*
X72698Y358349D02*
X73742D01*
X73220Y357827D02*
Y358871D01*
X129844Y366767D02*
X130887D01*
X130365Y366246D02*
Y367289D01*
X134174Y366767D02*
X135218D01*
X134696Y366246D02*
Y367289D01*
X129844Y362437D02*
X130887D01*
X130365Y361915D02*
Y362958D01*
X134174Y362437D02*
X135218D01*
X134696Y361915D02*
Y362958D01*
X129844Y358106D02*
X130887D01*
X130365Y357584D02*
Y358628D01*
X134174Y358106D02*
X135218D01*
X134696Y357584D02*
Y358628D01*
M02*
