G04*
G04 #@! TF.GenerationSoftware,Altium Limited,Altium Designer,25.8.1 (18)*
G04*
G04 Layer_Color=32768*
%FSLAX25Y25*%
%MOIN*%
G70*
G04*
G04 #@! TF.SameCoordinates,8555A115-1401-43ED-8721-A1A47631EB87*
G04*
G04*
G04 #@! TF.FilePolarity,Positive*
G04*
G01*
G75*
%ADD12C,0.00394*%
%ADD13C,0.00787*%
%ADD124C,0.00197*%
D12*
X435212Y181965D02*
Y185508D01*
X433441Y183737D02*
X436984D01*
X415000Y182228D02*
Y185772D01*
X413228Y184000D02*
X416772D01*
X407150Y201228D02*
Y204772D01*
X405378Y203000D02*
X408921D01*
X396228Y212000D02*
X399772D01*
X398000Y210228D02*
Y213772D01*
X417000Y220031D02*
Y223969D01*
X415031Y222000D02*
X418968D01*
X332680Y302627D02*
X336617Y302627D01*
X334648Y300659D02*
Y304596D01*
X279649Y133994D02*
Y137931D01*
X277680Y135963D02*
X281617D01*
X288649Y133994D02*
Y137931D01*
X286680Y135963D02*
X290617D01*
X270649Y134254D02*
Y138191D01*
X268680Y136223D02*
X272617D01*
X163649Y133254D02*
Y137191D01*
X161680Y135223D02*
X165617D01*
X154649Y133254D02*
Y137191D01*
X152680Y135223D02*
X156617D01*
X172649Y133254D02*
Y137191D01*
X170680Y135223D02*
X174617D01*
X211726Y140722D02*
Y144659D01*
X209757Y142691D02*
X213694D01*
X246534Y166335D02*
Y169879D01*
X244762Y168107D02*
X248306D01*
X246667Y151013D02*
Y154556D01*
X244895Y152784D02*
X248439D01*
X245923Y129466D02*
X245923Y125923D01*
X244151Y127694D02*
X247694D01*
X246353Y141250D02*
Y144793D01*
X244581Y143021D02*
X248125D01*
X231726Y98895D02*
X235663D01*
X233694Y96927D02*
Y100864D01*
X202089Y120687D02*
Y124230D01*
X200317Y122458D02*
X203860D01*
X191426Y130289D02*
Y133832D01*
X189654Y132061D02*
X193197D01*
X198747Y99068D02*
X202683D01*
X200715Y97099D02*
Y101036D01*
X53341Y295797D02*
X57278D01*
X55309Y293828D02*
Y297765D01*
X53617Y303084D02*
X57160D01*
X55388Y301313D02*
Y304856D01*
X80176Y376954D02*
X83720D01*
X81948Y375182D02*
Y378725D01*
X332000Y332130D02*
Y336067D01*
X330031Y334098D02*
X333968D01*
X332260Y340032D02*
Y343969D01*
X330291Y342000D02*
X334228D01*
X326900Y348919D02*
X330444D01*
X328672Y347147D02*
Y350691D01*
X188809Y327621D02*
Y331558D01*
X186841Y329590D02*
X190778Y329590D01*
X325000Y403079D02*
Y406622D01*
X323228Y404850D02*
X326772D01*
X374000Y205228D02*
Y208772D01*
X372228Y207000D02*
X375772D01*
X331936Y267682D02*
Y271619D01*
Y269257D02*
Y269651D01*
X329967D02*
X333904D01*
X406008Y80925D02*
Y84468D01*
X404237Y82696D02*
X407780D01*
X387488Y80685D02*
Y84228D01*
X385716Y82457D02*
X389259D01*
X176557Y303992D02*
X180494D01*
X178526Y302023D02*
Y305960D01*
X72260Y13032D02*
Y16969D01*
X70291Y15000D02*
X74228D01*
X43216Y387125D02*
X47153D01*
X45184Y385157D02*
Y389094D01*
X473353Y208991D02*
X477290D01*
X475321Y207022D02*
Y210959D01*
X446283Y13526D02*
Y17463D01*
X444314Y15494D02*
X448251D01*
X446283Y71367D02*
Y75304D01*
X444314Y73335D02*
X448251D01*
X299114Y351418D02*
X302658D01*
X300886Y349647D02*
Y353190D01*
X249102Y297579D02*
X253039D01*
X251070Y295611D02*
Y299548D01*
X193000Y348228D02*
Y351772D01*
X191228Y350000D02*
X194772Y350000D01*
X251917Y318636D02*
X255854D01*
X253886Y316668D02*
Y320605D01*
X334000Y21032D02*
Y24969D01*
X332031Y23000D02*
X335968D01*
X463000Y346031D02*
Y349969D01*
X461031Y348000D02*
X464968D01*
X472386Y348000D02*
X475929D01*
X474158Y346228D02*
Y349772D01*
X469516Y324860D02*
Y328797D01*
X467548Y326829D02*
X471485D01*
X456150Y326930D02*
X459694Y326930D01*
X457922Y325159D02*
Y328702D01*
X404554Y42226D02*
X408491D01*
X406522Y40257D02*
Y44194D01*
X59344Y145776D02*
X63281D01*
X61313Y143807D02*
Y147745D01*
X88886Y105271D02*
Y109208D01*
X86918Y107239D02*
X90855D01*
X290737Y306411D02*
Y309955D01*
X288965Y308183D02*
X292509D01*
X325141Y380410D02*
Y384347D01*
X323173Y382379D02*
X327110D01*
X234475Y366357D02*
Y369901D01*
X232703Y368129D02*
X236246D01*
X208739Y338470D02*
Y342013D01*
X206968Y340241D02*
X210511D01*
X133053Y331175D02*
X136990D01*
X135021Y329206D02*
Y333143D01*
X65608Y331557D02*
X69545D01*
X67577Y329589D02*
Y333526D01*
X349000Y292228D02*
Y295772D01*
X347228Y294000D02*
X350772D01*
X256355Y392935D02*
X259899D01*
X258127Y391163D02*
Y394706D01*
X251076Y376027D02*
Y379964D01*
X249107Y377996D02*
X253044D01*
X235575Y337636D02*
X239512D01*
X237543Y335668D02*
Y339605D01*
X256428Y329960D02*
X259971D01*
X258199Y328188D02*
Y331732D01*
X231298Y352418D02*
X234842D01*
X233070Y350646D02*
Y354190D01*
X235014Y268765D02*
Y272308D01*
X233242Y270536D02*
X236786D01*
X228834Y268725D02*
Y272269D01*
X227062Y270497D02*
X230606D01*
X251864Y308255D02*
X255801D01*
X253832Y306287D02*
Y310224D01*
X251696Y268892D02*
X255633D01*
X253665Y266923D02*
Y270860D01*
X256396Y345044D02*
X259940D01*
X258168Y343272D02*
Y346816D01*
X234850Y318024D02*
Y321567D01*
X233079Y319795D02*
X236622D01*
X306171Y304924D02*
X310108D01*
X308139Y302955D02*
Y306892D01*
X306641Y312034D02*
X310185D01*
X308413Y310262D02*
Y313805D01*
X297650Y305749D02*
Y309685D01*
X295682Y307717D02*
X299619D01*
X283808Y306558D02*
Y310495D01*
X281839Y308526D02*
X285776D01*
X90015Y260005D02*
X93559D01*
X91787Y258233D02*
Y261777D01*
X77522Y260022D02*
X81065D01*
X79293Y258251D02*
Y261794D01*
X106719Y260022D02*
X110262Y260022D01*
X108491Y258250D02*
Y261794D01*
X95306Y220771D02*
X98849D01*
X97077Y218999D02*
Y222543D01*
X108027Y220786D02*
X111571D01*
X109799Y222558D02*
X109799Y219014D01*
X231324Y303104D02*
X234868D01*
X233096Y301332D02*
Y304876D01*
X251811Y404250D02*
X255748D01*
X253780Y402281D02*
Y406218D01*
X258149Y376836D02*
Y380379D01*
X256377Y378607D02*
X259921D01*
X251813Y367192D02*
X255750D01*
X253782Y365224D02*
Y369161D01*
X251839Y356420D02*
X255776D01*
X253808Y354452D02*
Y358389D01*
X305065Y286927D02*
X309002D01*
X307034Y284959D02*
Y288896D01*
X82512Y386032D02*
Y389968D01*
X80543Y388000D02*
X84480D01*
X237542Y286385D02*
Y290322D01*
X235574Y288354D02*
X239511D01*
X249206Y329349D02*
X253143D01*
X251174Y327381D02*
Y331318D01*
X237543Y384035D02*
Y387972D01*
X235575Y386003D02*
X239512D01*
X249038Y393534D02*
X252975D01*
X251006Y391566D02*
Y395503D01*
X249127Y345641D02*
X253064D01*
X251096Y343672D02*
Y347609D01*
X256413Y280271D02*
X259957D01*
X258185Y278499D02*
Y282043D01*
X249080Y279722D02*
X253017D01*
X251048Y277754D02*
Y281691D01*
X256414Y297017D02*
X259957D01*
X258186Y295245D02*
Y298788D01*
X136239Y298604D02*
Y302541D01*
X134270Y300573D02*
X138207D01*
X71055Y360711D02*
Y364648D01*
X69086Y362680D02*
X73023D01*
X78326Y280671D02*
Y284608D01*
X76357Y282640D02*
X80294D01*
X82512Y399031D02*
Y402969D01*
X80543Y401000D02*
X84480D01*
X47003Y369242D02*
Y372785D01*
X45231Y371013D02*
X48774D01*
X63282Y375163D02*
Y378707D01*
X61511Y376935D02*
X65054D01*
X91028Y352747D02*
X94965D01*
X92997Y350778D02*
Y354715D01*
X46952Y362864D02*
Y366408D01*
X45180Y364636D02*
X48724D01*
X43247Y298448D02*
X46790D01*
X45019Y296676D02*
Y300219D01*
X64445Y298809D02*
X67988D01*
X66216Y297037D02*
Y300581D01*
X75818Y302362D02*
X79755D01*
X77787D02*
X78180D01*
X77787Y300394D02*
Y304331D01*
X118438Y300573D02*
X122376D01*
X120407D02*
X120801Y300573D01*
X120407Y298604D02*
Y302541D01*
X232878Y398865D02*
Y402408D01*
X231106Y400636D02*
X234649D01*
X226523Y368162D02*
X230066D01*
X228294Y366390D02*
Y369933D01*
X417152Y60668D02*
Y64211D01*
X415380Y62440D02*
X418924D01*
X425058Y51984D02*
X428601D01*
X426829Y50212D02*
Y53756D01*
X50652Y106602D02*
X54589D01*
X52620Y104633D02*
Y108570D01*
X64987Y111440D02*
X68531D01*
X66759Y109668D02*
Y113211D01*
X100546Y112370D02*
X104089D01*
X102317Y110598D02*
Y114142D01*
X118318Y138913D02*
X122255D01*
X120287Y136945D02*
Y140882D01*
X104960Y134008D02*
X108504D01*
X106732Y132237D02*
Y135780D01*
X118116Y162786D02*
X122053D01*
X120084Y160817D02*
Y164754D01*
X104602Y157680D02*
X108145Y157680D01*
X106374Y155908D02*
X106374Y159451D01*
X87754Y183429D02*
X91691D01*
X89723Y181460D02*
Y185397D01*
X101713Y188382D02*
X105256D01*
X103485Y190154D02*
X103485Y186611D01*
X53140Y183729D02*
X57077D01*
X55108Y181760D02*
Y185697D01*
X66716Y189389D02*
X70259D01*
X68487Y187617D02*
Y191161D01*
X51251Y123969D02*
Y127512D01*
X49479Y125740D02*
X53023D01*
X39537Y136292D02*
X43080D01*
X41308Y134521D02*
Y138064D01*
X132531Y360468D02*
Y364405D01*
X130562Y362437D02*
X134499D01*
X151819Y352240D02*
X155756D01*
X153788Y350271D02*
Y354208D01*
X144873Y386142D02*
Y390079D01*
X142904Y388110D02*
X146841D01*
X144927Y399029D02*
Y402966D01*
X142958Y400997D02*
X146895D01*
X120465Y378517D02*
X124402D01*
X122434Y376549D02*
Y380486D01*
X108401Y357377D02*
Y360920D01*
X106629Y359148D02*
X110173D01*
X108047Y370384D02*
Y373927D01*
X106275Y372155D02*
X109818Y372155D01*
X140615Y377589D02*
X144552D01*
X142584Y375620D02*
Y379557D01*
X344687Y352922D02*
X348623D01*
X346655Y350953D02*
Y354890D01*
X344332Y387559D02*
X348269D01*
X346301Y385591D02*
Y389528D01*
X344308Y369240D02*
X348246D01*
X346277Y367271D02*
Y371209D01*
X311350Y347165D02*
Y350708D01*
X309579Y348937D02*
X313122D01*
X355635Y303542D02*
X358140Y306047D01*
X355635D02*
X358140Y303542D01*
X308368Y397308D02*
Y400851D01*
X306596Y399080D02*
X310140D01*
X308274Y394373D02*
X308274Y390829D01*
X306502Y392601D02*
X310045D01*
X291948Y335535D02*
X295491D01*
X293719Y333764D02*
Y337307D01*
X295536Y378977D02*
X299079D01*
X297308Y377205D02*
X297308Y380748D01*
X297987Y368194D02*
X297987Y372131D01*
X296018Y370163D02*
X299955D01*
X140228Y260000D02*
X143772D01*
X142000Y258228D02*
Y261772D01*
X445859Y404945D02*
Y408489D01*
X444087Y406717D02*
X447631D01*
X113773Y260022D02*
X117317D01*
X115545Y258251D02*
Y261794D01*
X445260Y412032D02*
Y415969D01*
X443291Y414000D02*
X447228D01*
X119935Y260000D02*
X123479D01*
X121707Y258228D02*
Y261772D01*
X314032Y23000D02*
X317969D01*
X316000Y21032D02*
Y24969D01*
X297031Y23000D02*
X300969D01*
X299000Y21032D02*
Y24969D01*
X227206Y319833D02*
X230749D01*
X228977Y318061D02*
Y321605D01*
D13*
X321306Y274375D02*
Y276343D01*
X342566D01*
X321306Y262958D02*
Y274375D01*
Y262958D02*
X342566D01*
Y276343D01*
X73062Y292028D02*
X84873Y292028D01*
Y312697D01*
X71094D02*
X84873D01*
X71094Y292028D02*
Y312697D01*
Y292028D02*
X73062Y292028D01*
X115683Y290238D02*
X127494Y290238D01*
Y310907D01*
X113714D02*
X127494D01*
X113714Y290238D02*
Y310907D01*
Y290238D02*
X115683Y290238D01*
D124*
X490035Y12764D02*
G03*
X490035Y12764I-16535J0D01*
G01*
Y86189D02*
G03*
X490035Y86189I-16535J0D01*
G01*
X62035Y411764D02*
G03*
X62035Y411764I-16535J0D01*
G01*
X490035Y180087D02*
G03*
X490035Y180087I-16535J0D01*
G01*
X209706Y284977D02*
G03*
X209706Y284977I-16535J0D01*
G01*
X62035Y12764D02*
G03*
X62035Y12764I-16535J0D01*
G01*
X490035Y411764D02*
G03*
X490035Y411764I-16535J0D01*
G01*
X450740Y236811D02*
X450740Y233189D01*
X443260Y233189D02*
Y236811D01*
X450740Y236811D01*
X443260Y233189D02*
X450740Y233189D01*
X443260Y232811D02*
X450740D01*
X443260Y229189D02*
X450740D01*
Y232811D01*
X443260Y229189D02*
Y232811D01*
X443260Y228811D02*
X450740Y228811D01*
X443260Y225189D02*
X450740Y225189D01*
Y228811D01*
X443260Y225189D02*
Y228811D01*
X443260Y221189D02*
Y224811D01*
X450740D02*
X450740Y221189D01*
X443260Y221189D02*
X450740Y221189D01*
X443260Y224811D02*
X450740D01*
X450630Y216189D02*
Y219811D01*
X443150Y216189D02*
Y219811D01*
X450630D01*
X443150Y216189D02*
X450630D01*
X439189Y208150D02*
X442811D01*
X439189Y215630D02*
X442811D01*
X442811Y208150D02*
X442811Y215630D01*
X439189D02*
X439189Y208150D01*
X443260Y215811D02*
X450740Y215811D01*
X443260Y212189D02*
X450740Y212189D01*
Y215811D01*
X443260Y212189D02*
Y215811D01*
X443150Y211811D02*
X450630Y211811D01*
X443150Y208189D02*
X450630D01*
X450630Y211811D01*
X443150Y208189D02*
Y211811D01*
X443260Y204189D02*
Y207811D01*
X450740Y204189D02*
Y207811D01*
X443260Y204189D02*
X450740Y204189D01*
X443260Y207811D02*
X450740Y207811D01*
X439189Y225260D02*
X442811D01*
X439189Y232740D02*
X442811D01*
Y225260D02*
Y232740D01*
X439189Y225260D02*
Y232740D01*
X429110Y186689D02*
X441315D01*
X429110Y180784D02*
X441315D01*
X429110D02*
Y186689D01*
X441315Y180784D02*
Y186689D01*
X428189Y194740D02*
X431811D01*
X428189Y187260D02*
X431811D01*
X428189D02*
Y194740D01*
X431811Y187260D02*
Y194740D01*
X435811Y187260D02*
Y194740D01*
X432189Y187260D02*
Y194740D01*
Y187260D02*
X435811D01*
X432189Y194740D02*
X435811Y194740D01*
X439811Y187370D02*
X439811Y194850D01*
X436189Y187370D02*
X436189Y194850D01*
X436189Y187370D02*
X439811D01*
X436189Y194850D02*
X439811Y194850D01*
X440189Y187260D02*
X443811D01*
X440189Y194740D02*
X443811D01*
Y187260D02*
Y194740D01*
X440189Y187260D02*
Y194740D01*
X432260Y195189D02*
Y198811D01*
X439740Y195189D02*
Y198811D01*
X432260Y195189D02*
X439740Y195189D01*
X432260Y198811D02*
X439740Y198811D01*
X408898Y186953D02*
X421102D01*
X408898Y181047D02*
X421102D01*
X408898D02*
Y186953D01*
X421102Y181047D02*
Y186953D01*
X408189Y194740D02*
X411811D01*
X408189Y187260D02*
X411811D01*
X408189Y194740D02*
X408189Y187260D01*
X411811D02*
X411811Y194740D01*
X415811Y194630D02*
X415811Y187150D01*
X412189Y194630D02*
X412189Y187150D01*
X415811Y187150D01*
X412189Y194630D02*
X415811D01*
X419811Y187260D02*
X419811Y194740D01*
X416189Y187260D02*
X416189Y194740D01*
X416189Y187260D02*
X419811D01*
X416189Y194740D02*
X419811Y194740D01*
X420189Y187260D02*
X423811D01*
X420189Y194740D02*
X423811D01*
Y187260D02*
Y194740D01*
X420189Y187260D02*
Y194740D01*
X412260Y195189D02*
Y198811D01*
X419740Y195189D02*
Y198811D01*
X412260Y195189D02*
X419740D01*
X412260Y198811D02*
X419740Y198811D01*
X401047Y200047D02*
X413252D01*
X401047Y205953D02*
X413252D01*
Y200047D02*
Y205953D01*
X401047Y200047D02*
Y205953D01*
X400953Y205898D02*
Y218102D01*
X395047Y205898D02*
Y218102D01*
X400953D01*
X395047Y205898D02*
X400953D01*
X400268Y238732D02*
X433732D01*
X400268Y205268D02*
X433732Y205268D01*
X400268Y205268D02*
Y238732D01*
X433732D02*
X433732Y205268D01*
X405260Y238189D02*
Y241811D01*
X412740Y238189D02*
Y241811D01*
X405260Y238189D02*
X412740D01*
X405260Y241811D02*
X412740D01*
X372189Y221740D02*
X375811D01*
X372189Y214260D02*
X375811D01*
X372189D02*
Y221740D01*
X375811D02*
X375811Y214260D01*
X325148Y314127D02*
X344148D01*
Y291127D02*
Y314127D01*
X325148Y291127D02*
Y314127D01*
Y291127D02*
X344148D01*
X336719Y317939D02*
X344199Y317939D01*
X336719Y314317D02*
X344199Y314317D01*
Y317939D01*
X336719Y314317D02*
Y317939D01*
X275712Y129270D02*
X283586D01*
Y142656D01*
X275712Y129270D02*
Y142656D01*
X283586D01*
X281460Y144483D02*
X281460Y151963D01*
X277838D02*
X277838Y144483D01*
X281460D01*
X277838Y151963D02*
X281460D01*
X272460Y144483D02*
Y151963D01*
X268838Y144483D02*
Y151963D01*
Y144483D02*
X272460D01*
X268838Y151963D02*
X272460D01*
X284712Y129270D02*
X292586Y129270D01*
Y142656D01*
X284712D02*
X284712Y129270D01*
X284712Y142656D02*
X292586D01*
X266712Y129530D02*
X274586D01*
Y142916D01*
X266712Y129530D02*
Y142916D01*
X274586D01*
X290460Y144483D02*
Y151963D01*
X286838Y144483D02*
Y151963D01*
Y144483D02*
X290460D01*
X286838Y151963D02*
X290460D01*
X174460Y143483D02*
Y150963D01*
X170838Y143483D02*
Y150963D01*
Y143483D02*
X174460D01*
X170838Y150963D02*
X174460D01*
X159712Y128530D02*
X167586D01*
Y141916D01*
X159712Y128530D02*
Y141916D01*
X167586D01*
X165460Y143483D02*
Y150963D01*
X161838Y143483D02*
Y150963D01*
Y143483D02*
X165460D01*
X161838Y150963D02*
X165460D01*
X150712Y128530D02*
X158586D01*
Y141916D01*
X150712Y128530D02*
Y141916D01*
X158586D01*
X156460Y143483D02*
Y150963D01*
X152838Y143483D02*
Y150963D01*
Y143483D02*
X156460D01*
X152838Y150963D02*
X156460D01*
X168712Y128530D02*
X176586D01*
Y141916D01*
X168712Y128530D02*
Y141916D01*
X176586D01*
X194994Y159423D02*
X228458Y159423D01*
X194994Y125958D02*
X228458Y125958D01*
X194994Y159423D02*
X194994Y125958D01*
X228458Y125958D02*
X228458Y159423D01*
X209126Y106396D02*
Y110018D01*
X216606Y106396D02*
Y110018D01*
X209126Y106396D02*
X216606Y106396D01*
X209126Y110018D02*
X216606Y110018D01*
X201056Y106423D02*
Y110046D01*
X208536Y106423D02*
Y110046D01*
X201056Y106423D02*
X208536Y106423D01*
X201056Y110046D02*
X208536Y110046D01*
X208682Y111223D02*
Y114845D01*
X201201Y111223D02*
Y114845D01*
X208682D01*
X201201Y111223D02*
X208682D01*
X244585Y159706D02*
X252066Y159706D01*
X244585Y156084D02*
X252066Y156084D01*
X252066Y159706D02*
X252066Y156084D01*
X244585Y156084D02*
Y159706D01*
X235966Y170885D02*
X239588Y170885D01*
X235966Y163405D02*
X239588D01*
X235966D02*
X235966Y170885D01*
X239588Y170885D02*
X239588Y163405D01*
X244475Y164706D02*
X251955Y164706D01*
X244475Y161084D02*
X251955D01*
Y164706D01*
X244475Y161084D02*
X244475Y164706D01*
X240155Y156848D02*
X243777D01*
X240155Y164328D02*
X243777D01*
Y156848D02*
Y164328D01*
X240155Y156848D02*
X240155Y164328D01*
X240432Y165154D02*
X252636D01*
X240432Y171060D02*
X252636D01*
Y165154D02*
Y171060D01*
X240432Y165154D02*
Y171060D01*
X240565Y155737D02*
X252769D01*
X240565Y149832D02*
X252769D01*
X240565D02*
Y155737D01*
X252769Y149832D02*
Y155737D01*
X235800Y157312D02*
X239422D01*
X235800Y149832D02*
X239422D01*
X235800D02*
X235800Y157312D01*
X239422D02*
X239422Y149832D01*
X239820Y130647D02*
X252025D01*
X239820Y124741D02*
X252025D01*
X239820D02*
X239820Y130647D01*
X252025Y124741D02*
X252025Y130647D01*
X234906Y145610D02*
X238528Y145610D01*
X234906Y138130D02*
X238528D01*
X234906D02*
X234906Y145610D01*
X238528Y145610D02*
X238528Y138130D01*
X234906Y132904D02*
X238528D01*
X234906Y125424D02*
X238528Y125424D01*
X234906Y132904D02*
X234906Y125424D01*
X238528Y132904D02*
X238528Y125424D01*
X244613Y134832D02*
X252093D01*
X244613Y131210D02*
X252093D01*
Y134832D01*
X244613Y131210D02*
Y134832D01*
X240250Y140068D02*
X252455D01*
X240250Y145974D02*
X252455D01*
Y140068D02*
Y145974D01*
X240250Y140068D02*
Y145974D01*
X240155Y131632D02*
X243777D01*
X240155Y139112D02*
X243777D01*
X243777Y131632D02*
X243777Y139112D01*
X240155D02*
X240155Y131632D01*
X244613Y139425D02*
X252093Y139425D01*
X244613Y135803D02*
X252093D01*
Y139425D01*
X244613Y139425D02*
X244613Y135803D01*
X234159Y111223D02*
Y114845D01*
X241640Y111223D02*
Y114845D01*
X234159Y111223D02*
X241640D01*
X234159Y114845D02*
X241640D01*
X250019Y106559D02*
Y110181D01*
X242539Y106559D02*
Y110181D01*
X250019D01*
X242539Y106559D02*
X250019D01*
X226199Y109819D02*
X233679Y109819D01*
X226199Y106197D02*
X233679D01*
Y109819D01*
X226199Y106197D02*
Y109819D01*
X243931Y92005D02*
Y105785D01*
X223458Y92005D02*
Y105785D01*
Y92005D02*
X243931D01*
X223458Y105785D02*
X243931D01*
X195986Y119506D02*
X208191D01*
X195986Y125411D02*
X208191D01*
Y119506D02*
Y125411D01*
X195986Y119506D02*
Y125411D01*
X192444Y110012D02*
X199925Y110012D01*
X192444Y106390D02*
X199925Y106390D01*
Y110012D01*
X192444Y106390D02*
Y110012D01*
X188473Y125958D02*
X194378D01*
X188473Y138163D02*
X194378D01*
X188473Y125958D02*
Y138163D01*
X194378Y125958D02*
Y138163D01*
X210951Y105957D02*
X210951Y92178D01*
X190479D02*
Y105957D01*
Y92178D02*
X210951D01*
X190479Y105957D02*
X210951D01*
X198699Y163864D02*
X206179D01*
X198699Y160242D02*
X206179D01*
Y163864D01*
X198699Y160242D02*
Y163864D01*
X234159Y106396D02*
Y110018D01*
X241640Y106396D02*
Y110018D01*
X234159Y106396D02*
X241640D01*
X234159Y110018D02*
X241640D01*
X62002Y291860D02*
Y299734D01*
X48616Y291860D02*
Y299734D01*
Y291860D02*
X62002D01*
X48616Y299734D02*
X62002D01*
X61491Y300132D02*
Y306037D01*
X49286Y300132D02*
Y306037D01*
Y300132D02*
X61491D01*
X49286Y306037D02*
X61491D01*
X105030Y366867D02*
X112511D01*
X105030Y363246D02*
X112511D01*
Y366867D01*
X105030Y363246D02*
Y366867D01*
X88050Y374001D02*
Y379906D01*
X75845Y374001D02*
Y379906D01*
Y374001D02*
X88050D01*
X75845Y379906D02*
X88050D01*
X338693Y330161D02*
Y338035D01*
X325307D02*
X338693D01*
X325307Y330161D02*
X338693D01*
X325307D02*
Y338035D01*
X338953Y338063D02*
Y345937D01*
X325567D02*
X338953D01*
X325567Y338063D02*
X338953Y338063D01*
X325567Y338063D02*
Y345937D01*
X322570Y345966D02*
Y351872D01*
X334774Y345966D02*
Y351872D01*
X322570D02*
X334774D01*
X322570Y345966D02*
X334774D01*
X172077Y312858D02*
X205542D01*
X172077Y346322D02*
X205542D01*
Y312858D02*
Y346322D01*
X172077Y312858D02*
Y346322D01*
X322047Y410953D02*
X327953D01*
X322047Y398748D02*
X327953D01*
Y410953D01*
X322047Y398748D02*
Y410953D01*
X371047Y213102D02*
X376953D01*
X371047Y200898D02*
X376953D01*
Y213102D01*
X371047Y200898D02*
Y213102D01*
X399906Y79744D02*
X412111D01*
X399906Y85649D02*
X412111D01*
Y79744D02*
Y85649D01*
X399906Y79744D02*
Y85649D01*
X381385Y79504D02*
X393590D01*
X381385Y85409D02*
X393590D01*
Y79504D02*
Y85409D01*
X381385Y79504D02*
Y85409D01*
X399687Y394522D02*
Y412632D01*
X408742Y394522D02*
Y412632D01*
X399687Y394522D02*
X408742D01*
X399687Y412632D02*
X408742D01*
X381349Y394522D02*
Y412632D01*
X390404Y394522D02*
Y412632D01*
X381349Y394522D02*
X390404D01*
X381349Y412632D02*
X390404D01*
X81616Y128905D02*
X89096D01*
X81616Y132527D02*
X89096D01*
X81616Y128905D02*
Y132527D01*
X89096Y128905D02*
Y132527D01*
X89096Y140891D02*
Y144513D01*
X81616Y140891D02*
Y144513D01*
X89096Y144513D01*
X81616Y140891D02*
X89096Y140891D01*
X89096Y147101D02*
Y150723D01*
X81616Y147101D02*
Y150723D01*
X89096Y150723D01*
X81616Y147101D02*
X89096Y147101D01*
X89176Y152888D02*
Y156510D01*
X81696Y152888D02*
Y156510D01*
X89176D01*
X81696Y152888D02*
X89176D01*
X81621Y158923D02*
X89101Y158923D01*
X81621Y162545D02*
X89101Y162545D01*
X81621Y158923D02*
Y162545D01*
X89101Y158923D02*
Y162545D01*
X81646Y134541D02*
X89126D01*
X81646Y138163D02*
X89126D01*
X81646Y134541D02*
Y138163D01*
X89126Y134541D02*
Y138163D01*
X174589Y297299D02*
X182463D01*
Y310685D01*
X174589Y297299D02*
X174589Y310685D01*
X182463D01*
X65567Y11063D02*
Y18937D01*
Y11063D02*
X78953D01*
X65567Y18937D02*
X78953D01*
Y11063D02*
Y18937D01*
X41247Y393818D02*
X49121D01*
X41247Y380433D02*
Y393818D01*
X49121Y380433D02*
Y393818D01*
X41247Y380433D02*
X49121D01*
X471384Y202298D02*
X479258D01*
Y215684D01*
X471384D02*
X471384Y202298D01*
X471384Y215684D02*
X479258D01*
X452976Y11557D02*
Y19431D01*
X439590D02*
X452976D01*
X439590Y11557D02*
X452976D01*
X439590D02*
Y19431D01*
Y69398D02*
Y77272D01*
Y69398D02*
X452976D01*
X439590Y77272D02*
X452976D01*
Y69398D02*
Y77272D01*
X296923Y400653D02*
X296923Y393173D01*
X300545D02*
X300545Y400653D01*
X296923D02*
X300545D01*
X296923Y393173D02*
X300545D01*
X316051Y305603D02*
Y313083D01*
X319673Y305603D02*
Y313083D01*
X316051D02*
X319673D01*
X316051Y305603D02*
X319673D01*
X134755Y263283D02*
X138377D01*
X134755Y255803D02*
X138377D01*
X134755D02*
Y263283D01*
X138377Y255803D02*
Y263283D01*
X465561Y314857D02*
X473041D01*
X465561Y318479D02*
X473041D01*
X465561Y314857D02*
Y318479D01*
X473041Y314857D02*
Y318479D01*
X172178Y353622D02*
Y361103D01*
X168556Y353622D02*
Y361103D01*
Y353622D02*
X172178D01*
X168556Y361103D02*
X172178D01*
X182666Y353597D02*
Y361077D01*
X179044Y353597D02*
Y361077D01*
Y353597D02*
X182666D01*
X179044Y361077D02*
X182666D01*
X192535Y353622D02*
Y361103D01*
X188913Y353622D02*
Y361103D01*
Y353622D02*
X192535D01*
X188913Y361103D02*
X192535D01*
X135476Y219639D02*
Y227120D01*
X131854Y219639D02*
Y227120D01*
Y219639D02*
X135476D01*
X131854Y227120D02*
X135476D01*
X301639Y269566D02*
Y277047D01*
X305261Y269566D02*
Y277047D01*
X301639D02*
X305261D01*
X301639Y269566D02*
X305261D01*
X303559Y295965D02*
X311039D01*
X303559Y299587D02*
X311039D01*
X303559Y295965D02*
Y299587D01*
X311039Y295965D02*
Y299587D01*
X308147Y269515D02*
Y276996D01*
X311769Y269515D02*
Y276996D01*
X308147D02*
X311769D01*
X308147Y269515D02*
X311769D01*
X288482Y296239D02*
X295963D01*
X288482Y299861D02*
X295963D01*
X288482Y296239D02*
Y299861D01*
X295963Y296239D02*
Y299861D01*
X467189Y339290D02*
X474670D01*
X467189Y335668D02*
X474670D01*
Y339290D01*
X467189Y335668D02*
Y339290D01*
X144990Y302006D02*
X148612D01*
X144990Y294526D02*
X148612D01*
X144990D02*
Y302006D01*
X148612Y294526D02*
Y302006D01*
X65738Y278534D02*
X69360D01*
X65738Y286014D02*
X69360D01*
Y278534D02*
Y286014D01*
X65738Y278534D02*
Y286014D01*
X101597Y218689D02*
X105219D01*
X101597Y226169D02*
X105219D01*
Y218689D02*
Y226169D01*
X101597Y218689D02*
Y226169D01*
X125277Y263283D02*
X128900D01*
X125277Y255803D02*
X128900D01*
X125277D02*
Y263283D01*
X128900Y255803D02*
Y263283D01*
X101323Y263382D02*
X104945D01*
X101323Y255902D02*
X104945D01*
X101323D02*
Y263382D01*
X104945Y255902D02*
Y263382D01*
X83482Y263762D02*
X87104D01*
X83482Y256282D02*
X87104D01*
X83482D02*
Y263762D01*
X87104Y256282D02*
Y263762D01*
X112511Y351633D02*
Y355255D01*
X105030Y351633D02*
Y355255D01*
X112511D01*
X105030Y351633D02*
X112511D01*
X139840Y346371D02*
Y349993D01*
X147320Y346371D02*
Y349993D01*
X139840Y346371D02*
X147320D01*
X139840Y349993D02*
X147320D01*
X78020Y346681D02*
Y350303D01*
X85500Y346681D02*
Y350303D01*
X78020Y346681D02*
X85500D01*
X78020Y350303D02*
X85500D01*
X201646Y308268D02*
Y311890D01*
X194166Y308268D02*
Y311890D01*
X201646D01*
X194166Y308268D02*
X201646D01*
X420002Y21522D02*
Y25144D01*
X412522Y21522D02*
Y25144D01*
X420002D01*
X412522Y21522D02*
X420002D01*
X47419Y163238D02*
Y166860D01*
X54899Y163238D02*
Y166860D01*
X47419Y163238D02*
X54899D01*
X47419Y166860D02*
X54899D01*
X297933Y345316D02*
Y357521D01*
X303839Y345316D02*
Y357521D01*
X297933Y345316D02*
X303839D01*
X297933Y357521D02*
X303839D01*
X163309Y361103D02*
X166931D01*
X163309Y353622D02*
X166931D01*
X163309D02*
Y361103D01*
X166931Y353622D02*
Y361103D01*
X173656Y361077D02*
X177278D01*
X173656Y353597D02*
X177278D01*
X173656D02*
Y361077D01*
X177278Y353597D02*
Y361077D01*
X183890Y361073D02*
X187512D01*
X183890Y353593D02*
X187512D01*
X183890D02*
Y361073D01*
X187512Y353593D02*
Y361073D01*
X136994Y219639D02*
X140616D01*
X136994Y227120D02*
X140616D01*
X140616Y219639D01*
X136994D02*
X136994Y227120D01*
X119004Y219639D02*
X122626D01*
X119004Y227120D02*
X122626D01*
X122626Y219639D01*
X119004D02*
X119004Y227120D01*
X247133Y290886D02*
X255007D01*
Y304272D01*
X247133Y290886D02*
X247133Y304272D01*
X255007D01*
X186898Y347047D02*
X199102D01*
X186898Y352953D02*
X199102D01*
X199102Y347047D02*
X199102Y352953D01*
X186898Y347047D02*
Y352953D01*
X247193Y314700D02*
Y322573D01*
Y314700D02*
X260579D01*
X247193Y322573D02*
X260579D01*
Y314700D02*
Y322573D01*
X330063Y16307D02*
X337937D01*
Y29693D01*
X330063Y16307D02*
Y29693D01*
X337937D01*
X455421Y354890D02*
X470579D01*
X455421Y341110D02*
X470579D01*
X455421D02*
X455421Y354890D01*
X470579Y341110D02*
Y354890D01*
X463411Y336986D02*
Y340608D01*
X455931Y336986D02*
Y340608D01*
X463411Y340608D01*
X455931Y336986D02*
X463411Y336986D01*
X471205Y341898D02*
Y354102D01*
X477110Y341898D02*
Y354102D01*
X471205Y341898D02*
X477110D01*
X471205Y354102D02*
X477110D01*
X461937Y319939D02*
X477095D01*
X461937Y333718D02*
X477095D01*
Y319939D02*
Y333718D01*
X461937Y319939D02*
Y333718D01*
X454969Y320828D02*
Y333033D01*
X460875Y320828D02*
Y333033D01*
X454969Y320828D02*
X460875Y320828D01*
X454969Y333033D02*
X460875Y333033D01*
X305322Y367682D02*
X322252D01*
X311818Y359808D02*
X315755D01*
X313787Y357840D02*
Y361777D01*
X322252Y351934D02*
Y367682D01*
X305322Y351934D02*
Y367682D01*
Y351934D02*
X322252D01*
X295029Y382158D02*
X295029Y389638D01*
X298651D02*
X298651Y382158D01*
X295029Y389638D02*
X298651D01*
X295029Y382158D02*
X298651D01*
X389790Y25494D02*
Y58958D01*
X423255Y25494D02*
Y58958D01*
X389790D02*
X423255D01*
X389790Y25494D02*
X423255D01*
X78045Y129044D02*
Y162508D01*
X44581Y129044D02*
Y162508D01*
Y129044D02*
X78045D01*
X44581Y162508D02*
X78045D01*
X78650Y114129D02*
X99123D01*
X78650Y100349D02*
X99123D01*
X78650D02*
Y114129D01*
X99123Y100349D02*
Y114129D01*
X324933Y298684D02*
Y306165D01*
X321311Y298684D02*
Y306165D01*
Y298684D02*
X324933D01*
X321311Y306165D02*
X324933D01*
X287784Y302081D02*
X293690D01*
X287784Y314285D02*
X293690D01*
X287784Y302081D02*
Y314285D01*
X293690Y302081D02*
Y314285D01*
X239276Y401499D02*
X246756Y401499D01*
X239276Y405121D02*
X246756Y405121D01*
X239276Y401499D02*
Y405121D01*
X246756Y401499D02*
Y405121D01*
X316233Y394691D02*
X334068D01*
Y369905D02*
Y394691D01*
X316233Y369905D02*
Y394691D01*
Y369905D02*
X334068D01*
X227644Y374651D02*
Y382132D01*
X224022Y374651D02*
Y382132D01*
Y374651D02*
X227644D01*
X224022Y382132D02*
X227644D01*
X231522Y362027D02*
X237427D01*
X231522Y374231D02*
X237427D01*
X231522Y362027D02*
Y374231D01*
X237427Y362027D02*
Y374231D01*
X205787Y346344D02*
X211692D01*
X205787Y334139D02*
X211692D01*
Y346344D01*
X205787Y334139D02*
Y346344D01*
X155691Y317395D02*
Y344954D01*
X114352Y317395D02*
X114352Y344954D01*
X114352Y317395D02*
X155691D01*
X114352Y344954D02*
X155691D01*
X88246Y317778D02*
Y345337D01*
X46908Y317778D02*
Y345337D01*
Y317778D02*
X88246D01*
X46908Y345337D02*
X88246D01*
X346047Y300102D02*
X351953D01*
X346047Y287898D02*
X351953D01*
Y300102D01*
X346047Y287898D02*
Y300102D01*
X223594Y326402D02*
Y333882D01*
X219972Y326402D02*
Y333882D01*
Y326402D02*
X223594D01*
X219972Y333882D02*
X223594D01*
X223653Y374638D02*
Y382119D01*
X220031Y374638D02*
Y382119D01*
Y374638D02*
X223653D01*
X220031Y382119D02*
X223653D01*
X219251Y333786D02*
X219251Y326306D01*
X215629D02*
X215629Y333786D01*
X215629Y326306D02*
X219251D01*
X215629Y333786D02*
X219251D01*
X219538Y374592D02*
Y382073D01*
X215916Y374592D02*
Y382073D01*
Y374592D02*
X219538D01*
X215916Y382073D02*
X219538D01*
X255174Y386832D02*
Y399037D01*
X261080Y386832D02*
Y399037D01*
X255174Y386832D02*
X261080D01*
X255174Y399037D02*
X261080D01*
X247138Y371303D02*
X255012D01*
Y384689D01*
X247138Y371303D02*
Y384689D01*
X255012D01*
X239573Y303622D02*
X247054Y303622D01*
X239573Y300000D02*
X247054D01*
X247054Y303622D01*
X239573Y300000D02*
Y303622D01*
X239433Y276467D02*
X246914D01*
X239433Y272845D02*
X246914D01*
Y276467D01*
X239433Y272845D02*
Y276467D01*
X228043Y349136D02*
X247043D01*
Y326136D02*
Y349136D01*
X228043Y326136D02*
Y349136D01*
Y326136D02*
X247043D01*
X261152Y323857D02*
Y336062D01*
X255247Y323857D02*
Y336062D01*
X261152D01*
X255247Y323857D02*
X261152D01*
X226968Y349465D02*
Y355371D01*
X239172Y349465D02*
Y355371D01*
X226968D02*
X239172D01*
X226968Y349465D02*
X239172D01*
X232061Y264434D02*
X237967D01*
X232061Y276639D02*
X237967D01*
X232061Y264434D02*
Y276639D01*
X237967Y264434D02*
Y276639D01*
X225881Y264395D02*
X231787D01*
X225881Y276599D02*
X231787D01*
X225881Y264395D02*
Y276599D01*
X231787Y264395D02*
Y276599D01*
X220445Y291258D02*
Y294880D01*
X227926Y291258D02*
Y294880D01*
X220445Y291258D02*
X227926D01*
X220445Y294880D02*
X227926D01*
X247139Y304318D02*
Y312192D01*
Y304318D02*
X260525D01*
X247139Y312192D02*
X260525D01*
Y304318D02*
Y312192D01*
X246972Y264955D02*
Y272829D01*
Y264955D02*
X260358D01*
X246972Y272829D02*
X260358D01*
Y264955D02*
Y272829D01*
X220372Y295116D02*
X227852D01*
X220372Y298738D02*
X227852D01*
X220372Y295116D02*
Y298738D01*
X227852Y295116D02*
Y298738D01*
X239500Y366817D02*
X246981D01*
X239500Y370439D02*
X246981D01*
X239500Y366817D02*
Y370439D01*
X246981Y366817D02*
Y370439D01*
X239444Y353159D02*
X246924D01*
X239444Y356781D02*
X246924D01*
X239444Y353159D02*
Y356781D01*
X246924Y353159D02*
Y356781D01*
X255215Y338942D02*
Y351147D01*
X261121Y338942D02*
Y351147D01*
X255215Y338942D02*
X261121D01*
X255215Y351147D02*
X261121D01*
X231897Y313693D02*
X237803D01*
X231897Y325898D02*
X237803D01*
X231897Y313693D02*
Y325898D01*
X237803Y313693D02*
Y325898D01*
X239474Y374299D02*
X246955D01*
X239474Y370677D02*
X246955D01*
Y374299D01*
X239474Y370677D02*
Y374299D01*
X216369Y291319D02*
X216369Y298800D01*
X219991D02*
X219991Y291319D01*
X216369Y298800D02*
X219991D01*
X216369Y291319D02*
X219991D01*
X223718Y277096D02*
Y284576D01*
X220096Y277096D02*
Y284576D01*
Y277096D02*
X223718D01*
X220096Y284576D02*
X223718D01*
X301643Y301184D02*
Y308664D01*
X314635Y301184D02*
Y308664D01*
X301643D02*
X314635D01*
X301643Y301184D02*
X314635D01*
X314515Y309081D02*
Y314986D01*
X302310Y309081D02*
Y314986D01*
Y309081D02*
X314515D01*
X302310Y314986D02*
X314515D01*
X288894Y315852D02*
X296374Y315852D01*
X288894Y319474D02*
X296374Y319474D01*
X288894Y315852D02*
Y319474D01*
X296374Y315852D02*
Y319474D01*
X293910Y314213D02*
X301390D01*
X293910Y301221D02*
X301390D01*
Y314213D01*
X293910Y301221D02*
Y314213D01*
X127759Y227120D02*
X127759Y219639D01*
X124137D02*
Y227120D01*
Y219639D02*
X127759D01*
X124137Y227120D02*
X127759D01*
X280068Y315022D02*
X287548D01*
X280068Y302030D02*
X287548D01*
Y315022D01*
X280068Y302030D02*
Y315022D01*
X94740Y253903D02*
Y266108D01*
X88834Y253903D02*
Y266108D01*
X94740D01*
X88834Y253903D02*
X94740D01*
X82246Y253920D02*
Y266125D01*
X76341Y253920D02*
Y266125D01*
X82246D01*
X76341Y253920D02*
X82246D01*
X111443Y253920D02*
Y266125D01*
X105538Y253920D02*
Y266125D01*
X111443Y266125D01*
X105538Y253920D02*
X111443Y253920D01*
X94124Y214669D02*
Y226873D01*
X100030Y214669D02*
Y226873D01*
X94124Y214669D02*
X100030Y214669D01*
X94124Y226873D02*
X100030Y226873D01*
X106846Y214684D02*
Y226888D01*
X112752Y214684D02*
Y226888D01*
X106846Y214684D02*
X112752D01*
X106846Y226888D02*
X112752D01*
X226994Y300151D02*
Y306057D01*
X239198Y300151D02*
Y306057D01*
X226994D02*
X239198D01*
X226994Y300151D02*
X239198D01*
X247087Y400313D02*
Y408187D01*
Y400313D02*
X260473D01*
X247087Y408187D02*
X260473D01*
Y400313D02*
Y408187D01*
X255196Y372505D02*
X261102D01*
X255196Y384710D02*
X261102D01*
X255196Y372505D02*
Y384710D01*
X261102Y372505D02*
Y384710D01*
X247089Y363255D02*
Y371129D01*
Y363255D02*
X260475D01*
X247089Y371129D02*
X260475D01*
Y363255D02*
Y371129D01*
X247115Y352483D02*
Y360357D01*
Y352483D02*
X260501D01*
X247115Y360357D02*
X260501D01*
Y352483D02*
Y360357D01*
X312349Y279841D02*
Y294014D01*
X301719Y279841D02*
Y294014D01*
X312349D01*
X301719Y279841D02*
X312349D01*
X73457Y394299D02*
X91567D01*
X73457Y381701D02*
X91567D01*
X73457D02*
Y394299D01*
X91567Y381701D02*
Y394299D01*
X228042Y276854D02*
X247042D01*
X228042D02*
Y299854D01*
X247042Y276854D02*
Y299854D01*
X228042D02*
X247042D01*
X247237Y336042D02*
X255111D01*
X247237Y322656D02*
Y336042D01*
X255111D02*
X255111Y322656D01*
X247237D02*
X255111D01*
X228043Y374503D02*
X247043D01*
X228043D02*
Y397503D01*
X247043Y374503D02*
Y397503D01*
X228043D02*
X247043D01*
X239289Y397690D02*
Y401312D01*
X246769Y397690D02*
Y401312D01*
X239289Y397690D02*
X246769D01*
X239289Y401312D02*
X246769D01*
X247069Y386841D02*
X254943D01*
Y400227D01*
X247069Y386841D02*
X247069Y400227D01*
X254943D01*
X224175Y333864D02*
X227797D01*
X224175Y326384D02*
X227797D01*
X224175D02*
Y333864D01*
X227797Y326384D02*
Y333864D01*
X247159Y338948D02*
X255032D01*
Y352334D01*
X247159Y338948D02*
Y352334D01*
X255032D01*
X239489Y349323D02*
Y352945D01*
X246969Y349323D02*
Y352945D01*
X239489Y349323D02*
X246969Y349323D01*
X239489Y352945D02*
X246969Y352945D01*
X261138Y274168D02*
Y286373D01*
X255232Y274168D02*
Y286373D01*
X261138D01*
X255232Y274168D02*
X261138D01*
X247111Y286415D02*
X254985D01*
X247111Y273029D02*
Y286415D01*
X254985Y273029D02*
Y286415D01*
X247111Y273029D02*
X254985D01*
X255233Y290915D02*
Y303119D01*
X261139Y290915D02*
Y303119D01*
X255233Y290915D02*
X261139D01*
X255233Y303119D02*
X261139D01*
X247094Y303768D02*
Y307390D01*
X239614Y303768D02*
Y307390D01*
X247094Y307390D01*
X239614Y303768D02*
X247094Y303768D01*
X247017Y318491D02*
Y322113D01*
X239537Y318491D02*
Y322113D01*
X247017D01*
X239537Y318491D02*
X247017D01*
X239493Y322367D02*
Y325989D01*
X246973Y322367D02*
Y325989D01*
X239493Y322367D02*
X246973D01*
X239493Y325989D02*
X246973D01*
X246889Y269018D02*
Y272640D01*
X239409Y269018D02*
Y272640D01*
X246889D01*
X239409Y269018D02*
X246889D01*
X224164Y284557D02*
X227785D01*
X224164Y277076D02*
X227785D01*
X224164D02*
Y284557D01*
X227785Y277076D02*
Y284557D01*
X128955Y308939D02*
X143522D01*
X128955Y292207D02*
X143522D01*
Y308939D01*
X128955Y292207D02*
Y308939D01*
X54055Y373680D02*
X88055D01*
X54055Y351680D02*
X88055D01*
X54055D02*
Y373680D01*
X88055Y351680D02*
Y373680D01*
X71042Y274274D02*
X85609D01*
X71042Y291006D02*
X85609D01*
X71042Y274274D02*
Y291006D01*
X85609Y274274D02*
Y291006D01*
X73457Y407299D02*
X91567D01*
X73457Y394701D02*
X91567D01*
X73457D02*
Y407299D01*
X91567Y394701D02*
Y407299D01*
X88570Y369153D02*
X88570Y376634D01*
X92192D02*
X92192Y369153D01*
X88570Y376634D02*
X92192D01*
X88570Y369153D02*
X92192D01*
X88570Y360896D02*
Y368376D01*
X92192Y360896D02*
Y368376D01*
X88570D02*
X92192D01*
X88570Y360896D02*
X92192D01*
X40900Y373966D02*
X53105D01*
X40900Y368061D02*
X53105D01*
X40900D02*
Y373966D01*
X53105Y368061D02*
Y373966D01*
X57180Y379888D02*
X69385D01*
X57180Y373982D02*
X69385D01*
X57180D02*
Y379888D01*
X69385Y373982D02*
Y379888D01*
X89060Y359440D02*
X96934D01*
X89060Y346054D02*
Y359440D01*
X96934Y346054D02*
Y359440D01*
X89060Y346054D02*
X96934D01*
X37919Y357850D02*
Y361472D01*
X45400Y357850D02*
Y361472D01*
X37919Y357850D02*
X45400D01*
X37919Y361472D02*
X45400D01*
X40850Y361683D02*
X53054D01*
X40850Y367589D02*
X53054D01*
Y361683D02*
Y367589D01*
X40850Y361683D02*
Y367589D01*
X45627Y357821D02*
Y361443D01*
X53107Y357821D02*
Y361443D01*
X45627Y357821D02*
X53107Y357821D01*
X45627Y361443D02*
X53107Y361443D01*
X42066Y292345D02*
Y304550D01*
X47971Y292345D02*
Y304550D01*
X42066Y292345D02*
X47971D01*
X42066Y304550D02*
X47971D01*
X63263Y292707D02*
Y304911D01*
X69169Y292707D02*
Y304911D01*
X63263Y292707D02*
X69169D01*
X63263Y304911D02*
X69169D01*
X220513Y392611D02*
X227993D01*
X220513Y388989D02*
X227993D01*
Y392611D01*
X220513Y388989D02*
Y392611D01*
X227956Y392858D02*
Y396480D01*
X220476Y392858D02*
Y396480D01*
X227956D01*
X220476Y392858D02*
X227956D01*
X226775Y397684D02*
X238980D01*
X226775Y403589D02*
X238980D01*
Y397684D02*
Y403589D01*
X226775Y397684D02*
Y403589D01*
X231247Y362059D02*
Y374264D01*
X225342Y362059D02*
Y374264D01*
X231247D01*
X225342Y362059D02*
X231247D01*
X411050Y65393D02*
X423254D01*
X411050Y59487D02*
X423254D01*
X411050D02*
Y65393D01*
X423254Y59487D02*
Y65393D01*
X423877Y45882D02*
Y58087D01*
X429782Y45882D02*
Y58087D01*
X423877Y45882D02*
X429782D01*
X423877Y58087D02*
X429782D01*
X371214Y47773D02*
X378694D01*
X371214Y51395D02*
X378694D01*
X371214Y47773D02*
Y51395D01*
X378694Y47773D02*
Y51395D01*
X371201Y43838D02*
Y47460D01*
X378681Y43838D02*
Y47460D01*
X371201Y43838D02*
X378681D01*
X371201Y47460D02*
X378681D01*
X379097Y55266D02*
X382719D01*
X379097Y47786D02*
X382719D01*
X379097D02*
Y55266D01*
X382719Y47786D02*
Y55266D01*
X378681Y55655D02*
Y59277D01*
X371201Y55655D02*
Y59277D01*
X378681D01*
X371201Y55655D02*
X378681D01*
X383471Y70447D02*
Y77927D01*
X387093Y70447D02*
Y77927D01*
X383471D02*
X387093D01*
X383471Y70447D02*
X387093D01*
X371201Y51720D02*
X378681Y51720D01*
X371201Y55343D02*
X378681Y55343D01*
X371201Y51720D02*
Y55343D01*
X378681Y51720D02*
Y55343D01*
X379472Y77900D02*
X383094D01*
X379472Y70420D02*
X383094Y70420D01*
X379472Y70420D02*
Y77900D01*
X383094Y70420D02*
X383094Y77900D01*
X391252Y66366D02*
Y69988D01*
X383771Y66366D02*
Y69988D01*
X391252D01*
X383771Y66366D02*
X391252D01*
X391508Y70447D02*
X395130D01*
X391508Y77927D02*
X395130D01*
X395130Y70447D01*
X391508D02*
X391508Y77927D01*
X387508Y70385D02*
Y77865D01*
X391130D02*
X391130Y70385D01*
X387508Y77865D02*
X391130D01*
X387508Y70385D02*
X391130D01*
X372058Y28398D02*
X379538D01*
X372058Y32021D02*
X379538D01*
X372058Y28398D02*
Y32021D01*
X379538Y28398D02*
Y32021D01*
X371954Y24435D02*
Y28057D01*
X379434Y24435D02*
Y28057D01*
X371954Y24435D02*
X379434D01*
X371954Y28057D02*
X379434D01*
X380022Y35817D02*
X383644D01*
X380022Y28337D02*
X383644D01*
X380022D02*
Y35817D01*
X383644Y28337D02*
Y35817D01*
X379520Y36179D02*
Y39801D01*
X372040Y36179D02*
Y39801D01*
X379520Y39801D01*
X372040Y36179D02*
X379520Y36179D01*
X402665Y70676D02*
X402665Y78157D01*
X406287D02*
X406287Y70676D01*
X402665Y78157D02*
X406287D01*
X402665Y70676D02*
X406287D01*
X372056Y32341D02*
X379537D01*
X372056Y35963D02*
X379537D01*
X372056Y32341D02*
Y35963D01*
X379537Y32341D02*
Y35963D01*
X398627Y78139D02*
X402249Y78139D01*
X398627Y70658D02*
X402249D01*
X398627D02*
Y78139D01*
X402249Y70658D02*
Y78139D01*
X410262Y66347D02*
Y69969D01*
X402782Y66347D02*
Y69969D01*
X410262Y69969D01*
X402782Y66347D02*
X410262Y66347D01*
X410543Y70622D02*
X414165Y70622D01*
X410543Y78103D02*
X414165D01*
Y70622D02*
Y78103D01*
X410543Y70622D02*
X410543Y78103D01*
X406559Y70622D02*
X406559Y78103D01*
X410181D02*
X410181Y70622D01*
X406559Y78103D02*
X410181D01*
X406559Y70622D02*
X410181D01*
X52857Y113980D02*
X60337Y113980D01*
X52857Y117602D02*
X60337D01*
X52857Y113980D02*
Y117602D01*
X60337Y113980D02*
Y117602D01*
X62856Y99712D02*
Y113492D01*
X42384Y99712D02*
Y113492D01*
Y99712D02*
X62856D01*
X42384Y113492D02*
X62856D01*
X44581Y117542D02*
X52061D01*
X44581Y113920D02*
X52061D01*
Y117542D01*
X44581Y113920D02*
Y117542D01*
X89478Y132540D02*
X96959Y132540D01*
X89478Y128918D02*
X96959Y128918D01*
Y132540D01*
X89478Y128918D02*
Y132540D01*
X69712Y105337D02*
Y117542D01*
X63806Y105337D02*
Y117542D01*
X69712D01*
X63806Y105337D02*
X69712D01*
X88782Y114506D02*
X96262D01*
X88782Y118128D02*
X96262D01*
X88782Y114506D02*
Y118128D01*
X96262Y114506D02*
Y118128D01*
X80789Y118183D02*
X88269D01*
X80789Y114561D02*
X88269D01*
Y118183D01*
X80789Y114561D02*
Y118183D01*
X89696Y138300D02*
X97176Y138300D01*
X89696Y134678D02*
X97176Y134678D01*
Y138300D01*
X89696Y134678D02*
Y138300D01*
X105270Y106268D02*
Y118472D01*
X99365Y106268D02*
Y118472D01*
X105270D01*
X99365Y106268D02*
X105270D01*
X112765Y131669D02*
X120245Y131669D01*
X112765Y128047D02*
X120245D01*
Y131669D01*
X112765Y128047D02*
Y131669D01*
X110050Y132023D02*
Y145803D01*
X130523Y132023D02*
Y145803D01*
X110050D02*
X130523D01*
X110050Y132023D02*
X130523D01*
X120750Y128010D02*
X128231D01*
X120750Y131632D02*
X128231Y131632D01*
X120750Y128010D02*
Y131632D01*
X128231Y128010D02*
Y131632D01*
X89696Y144623D02*
X97176D01*
X89696Y141001D02*
X97176Y141001D01*
X97176Y144623D02*
X97176Y141001D01*
X89696Y141001D02*
Y144623D01*
X103779Y127906D02*
Y140111D01*
X109685Y127906D02*
Y140111D01*
X103779Y127906D02*
X109685D01*
X103779Y140111D02*
X109685D01*
X112765Y155625D02*
X120245D01*
X112765Y152003D02*
X120245Y152003D01*
Y155625D01*
X112765D02*
X112765Y152003D01*
X109848Y155896D02*
Y169675D01*
X130321Y155896D02*
Y169675D01*
X109848D02*
X130321D01*
X109848Y155896D02*
X130321D01*
X120665Y151966D02*
X128145D01*
X120665Y155588D02*
X128145Y155588D01*
X120665Y151966D02*
Y155588D01*
X128145Y151966D02*
Y155588D01*
X89705Y150723D02*
X97186D01*
X89705Y147101D02*
X97186Y147101D01*
X97186Y150723D02*
X97186Y147101D01*
X89705Y147101D02*
Y150723D01*
X103421Y151577D02*
Y163782D01*
X109326Y151577D02*
Y163782D01*
X103421Y151577D02*
X109326Y151577D01*
X103421Y163782D02*
X109326Y163782D01*
X89880Y190560D02*
X97360D01*
X89880Y194182D02*
X97360D01*
X89880Y190560D02*
Y194182D01*
X97360Y190560D02*
Y194182D01*
X99959Y176539D02*
Y190319D01*
X79487Y176539D02*
Y190319D01*
Y176539D02*
X99959D01*
X79487Y190319D02*
X99959D01*
X81857Y194259D02*
X89337Y194259D01*
X81857Y190637D02*
X89337Y190637D01*
Y194259D01*
X81857Y190637D02*
Y194259D01*
X89478Y156540D02*
X96959Y156540D01*
X89478Y152918D02*
X96959Y152918D01*
Y156540D01*
X89478Y152918D02*
Y156540D01*
X106438Y182280D02*
Y194485D01*
X100532Y182280D02*
Y194485D01*
X106438D01*
X100532Y182280D02*
X106438D01*
X54720Y191023D02*
X62200Y191023D01*
X54720Y194645D02*
X62200Y194645D01*
X54720Y191023D02*
Y194645D01*
X62200Y191023D02*
Y194645D01*
X65344Y176839D02*
Y190619D01*
X44872Y176839D02*
Y190619D01*
Y176839D02*
X65344D01*
X44872Y190619D02*
X65344D01*
X46967Y194645D02*
X54447D01*
X46967Y191023D02*
X54447D01*
Y194645D01*
X46967Y191023D02*
Y194645D01*
X89368Y162540D02*
X96848Y162540D01*
X89368Y158918D02*
X96848Y158918D01*
Y162540D01*
X89368Y158918D02*
Y162540D01*
X71440Y183287D02*
Y195491D01*
X65535Y183287D02*
Y195491D01*
X71440D01*
X65535Y183287D02*
X71440D01*
X45149Y122787D02*
X57353D01*
X45149Y128693D02*
X57353D01*
Y122787D02*
Y128693D01*
X45149Y122787D02*
Y128693D01*
X44261Y130190D02*
Y142395D01*
X38356Y130190D02*
Y142395D01*
X44261D01*
X38356Y130190D02*
X44261D01*
X115531Y373437D02*
X149531D01*
X115531Y351437D02*
X149531D01*
X115531D02*
Y373437D01*
X149531Y351437D02*
Y373437D01*
X150321Y359988D02*
X150321Y367468D01*
X153943D02*
X153943Y359988D01*
X150321Y367468D02*
X153943D01*
X150321Y359988D02*
X153943D01*
X149851Y358932D02*
X157725Y358932D01*
X149851Y345547D02*
X149851Y358932D01*
X157725Y345547D02*
Y358932D01*
X149851Y345547D02*
X157725D01*
X135818Y394410D02*
X153928D01*
X135818Y381811D02*
X153928D01*
X135818D02*
Y394410D01*
X153928Y381811D02*
Y394410D01*
X135872Y407297D02*
X153982D01*
X135872Y394698D02*
X153982D01*
X135872D02*
Y407297D01*
X153982Y394698D02*
Y407297D01*
X129127Y374580D02*
Y382454D01*
X115741D02*
X129127D01*
X115741Y374580D02*
X129127Y374580D01*
X115741Y374580D02*
Y382454D01*
X102299Y356195D02*
X114503D01*
X102299Y362101D02*
X114503D01*
Y356195D02*
Y362101D01*
X102299Y356195D02*
Y362101D01*
X150321Y368415D02*
Y375895D01*
X153943Y368415D02*
Y375895D01*
X150321D02*
X153943D01*
X150321Y368415D02*
X153943D01*
X101944Y369202D02*
X114149D01*
X101944Y375108D02*
X114149D01*
Y369202D02*
Y375108D01*
X101944Y369202D02*
Y375108D01*
X149277Y373651D02*
Y381525D01*
X135891D02*
X149277D01*
X135891Y373651D02*
X149277D01*
X135891D02*
Y381525D01*
X342718Y359614D02*
X350592D01*
X342718Y346229D02*
Y359614D01*
X350592Y346229D02*
Y359614D01*
X342718Y346229D02*
X350592D01*
X340001Y378504D02*
Y396614D01*
X352600Y378504D02*
Y396614D01*
X340001Y378504D02*
X352600D01*
X340001Y396614D02*
X352600D01*
X352576Y360185D02*
Y378295D01*
X339978Y360185D02*
Y378295D01*
X352576D01*
X339978Y360185D02*
X352576D01*
X322491Y367687D02*
X339420D01*
X328987Y359812D02*
X332924D01*
X330956Y357844D02*
Y361781D01*
X339420Y351938D02*
Y367687D01*
X322491Y351938D02*
Y367687D01*
Y351938D02*
X339420D01*
X334940Y377194D02*
X338562D01*
X334940Y369714D02*
X338562D01*
X334940D02*
Y377194D01*
X338562Y369714D02*
Y377194D01*
X301281Y326911D02*
Y345022D01*
X310336Y326911D02*
Y345022D01*
X301281Y326911D02*
X310336D01*
X301281Y345022D02*
X310336D01*
X336534Y287197D02*
Y290819D01*
X344014Y287197D02*
Y290819D01*
X336534Y287197D02*
X344014D01*
X336534Y290819D02*
X344014Y290819D01*
Y282935D02*
Y286557D01*
X336534Y282935D02*
Y286557D01*
X344014Y286557D01*
X336534Y282935D02*
X344014Y282935D01*
X344225Y318261D02*
Y321883D01*
X336745Y318261D02*
Y321883D01*
X344225D01*
X336745Y318261D02*
X344225D01*
X305248Y345984D02*
X317453D01*
X305248Y351889D02*
X317453D01*
Y345984D02*
Y351889D01*
X305248Y345984D02*
Y351889D01*
X354660Y311198D02*
X363290Y302568D01*
X350484Y307022D02*
X359115Y298392D01*
X350484Y307022D02*
X354660Y311198D01*
X359115Y298392D02*
X363290Y302568D01*
X306341Y385493D02*
Y389115D01*
X298860Y385493D02*
Y389115D01*
X306341Y389115D01*
X298860Y385493D02*
X306341Y385493D01*
X313487Y376618D02*
Y380240D01*
X306007Y376618D02*
Y380240D01*
X313487Y380240D01*
X306007Y376618D02*
X313487Y376618D01*
X305921Y372417D02*
Y376039D01*
X313401Y372417D02*
Y376039D01*
X305921Y372417D02*
X313401Y372417D01*
X305921Y376039D02*
X313401Y376039D01*
X306982Y389164D02*
X314462D01*
X306982Y385542D02*
X314462D01*
Y389164D01*
X306982Y385542D02*
Y389164D01*
X302266Y402033D02*
X314470D01*
X302266Y396127D02*
X314470D01*
X302266D02*
Y402033D01*
X314470Y396127D02*
Y402033D01*
X302171Y389648D02*
X314376D01*
X302171Y395554D02*
X314376D01*
Y389648D02*
Y395554D01*
X302171Y389648D02*
Y395554D01*
X313437Y277162D02*
X317059D01*
X313437Y269682D02*
X317059D01*
X313437Y277162D02*
X313437Y269682D01*
X317059D02*
X317059Y277162D01*
X297530Y286120D02*
X301152D01*
X297530Y293600D02*
X301152Y293600D01*
X301152Y286120D01*
X297530D02*
X297530Y293600D01*
X316960Y277447D02*
X316960Y284928D01*
X313338D02*
X313338Y277447D01*
X316960D01*
X313338Y284928D02*
X316960D01*
X321154Y290761D02*
X324776D01*
X321154Y298241D02*
X324776D01*
X324776Y290761D01*
X321154D02*
X321154Y298241D01*
X299690Y276493D02*
Y283974D01*
X296068D02*
X296068Y276493D01*
X299690D01*
X296068Y283974D02*
X299690D01*
X296068Y268312D02*
X299690D01*
X296068Y275793D02*
X299690D01*
Y268312D02*
Y275793D01*
X296068Y268312D02*
Y275793D01*
X326041Y318117D02*
X333521Y318117D01*
X326041Y314495D02*
X333521Y314495D01*
Y318117D01*
X326041Y314495D02*
Y318117D01*
X296672Y329433D02*
Y341638D01*
X290767Y329433D02*
Y341638D01*
X296672D01*
X290767Y329433D02*
X296672D01*
X291205Y381929D02*
X291205Y376024D01*
X303410D02*
Y381929D01*
X291205D02*
X303410D01*
X291205Y376024D02*
X303410D01*
X290900Y375478D02*
X305073D01*
X290900Y364848D02*
X305073D01*
X290900Y375478D02*
X290900Y364848D01*
X305073D02*
Y375478D01*
X296755Y342171D02*
Y349651D01*
X293133Y342171D02*
Y349651D01*
Y342171D02*
X296755D01*
X293133Y349651D02*
X296755D01*
X298721Y360797D02*
Y364419D01*
X291241Y364419D02*
X291241Y360797D01*
X291241Y364419D02*
X298721Y364419D01*
X291241Y360797D02*
X298721D01*
X144953Y253898D02*
Y266102D01*
X139047Y253898D02*
Y266102D01*
X144953D01*
X139047Y253898D02*
X144953D01*
X439757Y409670D02*
X451961D01*
X439757Y403764D02*
X451961D01*
X439757D02*
Y409670D01*
X451961Y403764D02*
Y409670D01*
X118498Y253920D02*
Y266125D01*
X112592Y253920D02*
Y266125D01*
X118498D01*
X112592Y253920D02*
X118498D01*
X451953Y410063D02*
Y417937D01*
X438567D02*
X451953D01*
X438567Y410063D02*
X451953Y410063D01*
X438567Y410063D02*
Y417937D01*
X124660Y253898D02*
Y266102D01*
X118754Y253898D02*
Y266102D01*
X124660D01*
X118754Y253898D02*
X124660D01*
X312063Y29693D02*
X319937D01*
X312063Y16307D02*
Y29693D01*
X319937Y16307D02*
Y29693D01*
X312063Y16307D02*
X319937D01*
X295063Y29693D02*
X302937D01*
X295063Y16307D02*
Y29693D01*
X302937Y16307D02*
Y29693D01*
X295063Y16307D02*
X302937D01*
X231930Y313731D02*
Y325935D01*
X226025Y313731D02*
Y325935D01*
X231930D01*
X226025Y313731D02*
X231930D01*
X220388Y344307D02*
X227868D01*
X220388Y340685D02*
X227868D01*
Y344307D01*
X220388Y340685D02*
Y344307D01*
X227899Y344472D02*
Y348094D01*
X220418Y344472D02*
Y348094D01*
X227899Y348094D01*
X220418Y344472D02*
X227899Y344472D01*
M02*
