G04*
G04 #@! TF.GenerationSoftware,Altium Limited,Altium Designer,25.8.1 (18)*
G04*
G04 Layer_Color=16711935*
%FSLAX25Y25*%
%MOIN*%
G70*
G04*
G04 #@! TF.SameCoordinates,8555A115-1401-43ED-8721-A1A47631EB87*
G04*
G04*
G04 #@! TF.FilePolarity,Negative*
G04*
G01*
G75*
%ADD53R,0.03032X0.02835*%
%ADD56R,0.04331X0.04528*%
%ADD57R,0.03032X0.03228*%
%ADD58R,0.04528X0.04331*%
%ADD59R,0.01772X0.06890*%
%ADD60R,0.06890X0.01772*%
%ADD64R,0.04528X0.06299*%
%ADD74R,0.05709X0.11221*%
%ADD86C,0.06591*%
%ADD87C,0.05906*%
%ADD88C,0.25000*%
%ADD89C,0.06115*%
%ADD90C,0.26181*%
%ADD91C,0.02953*%
%ADD114R,0.10433X0.07284*%
%ADD115R,0.07284X0.10433*%
G04:AMPARAMS|DCode=116|XSize=32.28mil|YSize=30.32mil|CornerRadius=0mil|HoleSize=0mil|Usage=FLASHONLY|Rotation=225.000|XOffset=0mil|YOffset=0mil|HoleType=Round|Shape=Rectangle|*
%AMROTATEDRECTD116*
4,1,4,0.00070,0.02213,0.02213,0.00070,-0.00070,-0.02213,-0.02213,-0.00070,0.00070,0.02213,0.0*
%
%ADD116ROTATEDRECTD116*%

%ADD117R,0.10433X0.14370*%
%ADD118R,0.14370X0.12205*%
%ADD119R,0.22244X0.06221*%
D53*
X181040Y311485D02*
D03*
X177261D02*
D03*
D56*
X252016Y310427D02*
D03*
X174838Y350086D02*
D03*
X252016Y300138D02*
D03*
Y332977D02*
D03*
Y342193D02*
D03*
X251961Y389995D02*
D03*
X252016Y380623D02*
D03*
X79093Y320898D02*
D03*
X181137Y350086D02*
D03*
X258315Y310427D02*
D03*
X270748Y310595D02*
D03*
X264449D02*
D03*
X270748Y300195D02*
D03*
X264449D02*
D03*
X258315Y300138D02*
D03*
X270746Y332994D02*
D03*
X264447D02*
D03*
X258315Y332977D02*
D03*
Y342193D02*
D03*
X270746Y342216D02*
D03*
X264447D02*
D03*
X258260Y389995D02*
D03*
X270694D02*
D03*
X264394D02*
D03*
X258315Y380623D02*
D03*
X270748D02*
D03*
X264449D02*
D03*
X72794Y320898D02*
D03*
D57*
X339000Y406890D02*
D03*
X335000D02*
D03*
X334000Y24890D02*
D03*
X339000Y403110D02*
D03*
X335000D02*
D03*
X334000Y21110D02*
D03*
X316000D02*
D03*
Y24890D02*
D03*
D58*
X168347Y343902D02*
D03*
X299000Y19850D02*
D03*
Y26150D02*
D03*
X168347Y337603D02*
D03*
D59*
X193566Y317921D02*
D03*
X183723D02*
D03*
X181755D02*
D03*
X185692D02*
D03*
Y342331D02*
D03*
X187660D02*
D03*
X183723D02*
D03*
X195534Y342331D02*
D03*
X193566D02*
D03*
X191597Y342331D02*
D03*
X189629D02*
D03*
X181755Y342331D02*
D03*
X187660Y317921D02*
D03*
X189629Y317921D02*
D03*
X191597Y317921D02*
D03*
X195534D02*
D03*
D60*
X176440Y325205D02*
D03*
X200849Y337016D02*
D03*
Y323236D02*
D03*
X176440D02*
D03*
Y337016D02*
D03*
Y335047D02*
D03*
Y333079D02*
D03*
Y331110D02*
D03*
Y329142D02*
D03*
Y327173D02*
D03*
X200849Y325205D02*
D03*
Y327173D02*
D03*
X200849Y329142D02*
D03*
Y331110D02*
D03*
Y333079D02*
D03*
Y335047D02*
D03*
D64*
X293567Y222163D02*
D03*
X148612Y320479D02*
D03*
X80274Y304640D02*
D03*
X80188Y313041D02*
D03*
X272162Y221960D02*
D03*
X286087Y222163D02*
D03*
X141132Y320479D02*
D03*
X72794Y304640D02*
D03*
X72708Y313041D02*
D03*
X279642Y221960D02*
D03*
D74*
X151975Y297221D02*
D03*
X152273Y310257D02*
D03*
X257435Y258786D02*
D03*
X266652Y258652D02*
D03*
X140951Y297221D02*
D03*
X141249Y310257D02*
D03*
X246412Y258786D02*
D03*
X277676Y258652D02*
D03*
D86*
X221000Y233000D02*
D03*
X291000Y243000D02*
D03*
Y233000D02*
D03*
X301000Y243000D02*
D03*
X91000Y243000D02*
D03*
X81000D02*
D03*
X301000Y233000D02*
D03*
X141000D02*
D03*
X91000D02*
D03*
X81000D02*
D03*
X301000Y53000D02*
D03*
Y43000D02*
D03*
X231000Y243000D02*
D03*
X241000Y43000D02*
D03*
X251000Y53000D02*
D03*
X221000Y43000D02*
D03*
X191000Y243000D02*
D03*
X171000D02*
D03*
Y233000D02*
D03*
X161000Y243000D02*
D03*
X241000Y53000D02*
D03*
X161000Y233000D02*
D03*
X151000Y243000D02*
D03*
X81000Y43000D02*
D03*
X91000D02*
D03*
X101000D02*
D03*
X111000D02*
D03*
X121000D02*
D03*
X131000D02*
D03*
X141000D02*
D03*
X151000D02*
D03*
X161000D02*
D03*
X171000D02*
D03*
X181000D02*
D03*
X191000D02*
D03*
X201000D02*
D03*
X211000D02*
D03*
X231000D02*
D03*
X251000D02*
D03*
X261000D02*
D03*
X271000D02*
D03*
X281000D02*
D03*
X291000D02*
D03*
X81000Y53000D02*
D03*
X101000D02*
D03*
X121000D02*
D03*
X131000D02*
D03*
X141000D02*
D03*
X151000D02*
D03*
X161000D02*
D03*
X171000D02*
D03*
X181000D02*
D03*
X191000D02*
D03*
X201000D02*
D03*
X211000D02*
D03*
X221000D02*
D03*
X231000D02*
D03*
X261000D02*
D03*
X271000D02*
D03*
X281000D02*
D03*
X291000D02*
D03*
X101000Y233000D02*
D03*
X111000D02*
D03*
X121000D02*
D03*
X131000D02*
D03*
X151000D02*
D03*
X181000D02*
D03*
X191000D02*
D03*
X201000D02*
D03*
X211000D02*
D03*
X231000D02*
D03*
X241000D02*
D03*
X251000D02*
D03*
X261000Y233000D02*
D03*
X271000Y233000D02*
D03*
X281000D02*
D03*
X101000Y243000D02*
D03*
X111000Y243000D02*
D03*
X121000D02*
D03*
X131000Y243000D02*
D03*
X141000D02*
D03*
X181000D02*
D03*
X201000Y243000D02*
D03*
X211000D02*
D03*
X221000Y243000D02*
D03*
X241000D02*
D03*
X251000Y243000D02*
D03*
X261000Y243000D02*
D03*
X271000D02*
D03*
X281000D02*
D03*
X91000Y53000D02*
D03*
X111000D02*
D03*
D87*
X405932Y298545D02*
D03*
Y334569D02*
D03*
X398137Y285081D02*
D03*
Y330041D02*
D03*
X390302Y325553D02*
D03*
X382507Y321065D02*
D03*
X414908Y334569D02*
D03*
X422704Y330041D02*
D03*
X430538Y325553D02*
D03*
X438334Y312049D02*
D03*
Y321065D02*
D03*
X422704Y276065D02*
D03*
Y303073D02*
D03*
X374712Y298545D02*
D03*
X430538Y289569D02*
D03*
X398137Y303073D02*
D03*
X390302Y307561D02*
D03*
X405932Y289569D02*
D03*
X430538Y280553D02*
D03*
X382507Y303073D02*
D03*
X390302Y280553D02*
D03*
X430538Y316577D02*
D03*
Y307561D02*
D03*
X438334Y303073D02*
D03*
X446129Y298545D02*
D03*
X430538D02*
D03*
X438334Y285081D02*
D03*
X414908Y316577D02*
D03*
Y298545D02*
D03*
Y289569D02*
D03*
Y280553D02*
D03*
Y271577D02*
D03*
X405932D02*
D03*
Y307561D02*
D03*
X446129D02*
D03*
X438334Y330041D02*
D03*
Y294057D02*
D03*
X430538Y334569D02*
D03*
X422704Y339057D02*
D03*
Y321065D02*
D03*
Y312049D02*
D03*
Y294057D02*
D03*
Y285081D02*
D03*
X414908Y343545D02*
D03*
Y325553D02*
D03*
Y307561D02*
D03*
X374712Y316577D02*
D03*
Y307561D02*
D03*
X382507Y330041D02*
D03*
Y312049D02*
D03*
Y294057D02*
D03*
Y285081D02*
D03*
X390302Y334569D02*
D03*
Y316577D02*
D03*
Y298545D02*
D03*
Y289569D02*
D03*
X398137Y339057D02*
D03*
Y321065D02*
D03*
Y312049D02*
D03*
Y294057D02*
D03*
Y276065D02*
D03*
X405932Y343545D02*
D03*
Y325553D02*
D03*
Y316577D02*
D03*
Y280553D02*
D03*
D88*
X61000Y60500D02*
D03*
Y225500D02*
D03*
X321000Y48000D02*
D03*
Y238000D02*
D03*
D89*
X446129Y316577D02*
D03*
D90*
X473500Y12764D02*
D03*
Y86189D02*
D03*
X45500Y411764D02*
D03*
X473500Y180087D02*
D03*
X193170Y284977D02*
D03*
X45500Y12764D02*
D03*
X473500Y411764D02*
D03*
D91*
X314752Y363647D02*
D03*
X318315D02*
D03*
X312972Y359808D02*
D03*
X316535D02*
D03*
X320098D02*
D03*
X314752Y355970D02*
D03*
X318315D02*
D03*
X68889Y367011D02*
D03*
X73220D02*
D03*
X68889Y362680D02*
D03*
X73220D02*
D03*
X68889Y358349D02*
D03*
X73220Y358349D02*
D03*
X130365Y366767D02*
D03*
X134696D02*
D03*
X130365Y362437D02*
D03*
X134696D02*
D03*
X130365Y358106D02*
D03*
X134696D02*
D03*
D114*
X292045Y258786D02*
D03*
X80050Y291954D02*
D03*
X127366D02*
D03*
X307793Y258786D02*
D03*
X64302Y291954D02*
D03*
X111618D02*
D03*
D115*
X451154Y389198D02*
D03*
Y373450D02*
D03*
D116*
X344171Y392030D02*
D03*
X341498Y389358D02*
D03*
D117*
X420000Y374000D02*
D03*
Y405496D02*
D03*
X369533Y373486D02*
D03*
Y404982D02*
D03*
D118*
X316585Y359665D02*
D03*
Y338208D02*
D03*
D119*
X53658Y313962D02*
D03*
Y329867D02*
D03*
X122000Y314000D02*
D03*
Y329906D02*
D03*
M02*
