<svg xmlns="http://www.w3.org/2000/svg" viewBox="0 0 1200 675" role="img" aria-label="HITL PCB thumbnail placeholder">
  <rect width="1200" height="675" fill="#081018"/>
  <rect x="95" y="80" width="1010" height="515" rx="34" fill="#0f5136" stroke="#7dd3a8" stroke-width="6"/>
  <g opacity="0.22" stroke="#b7f7d5" stroke-width="2">
    <path d="M150 155h900M150 235h900M150 315h900M150 395h900M150 475h900"/>
    <path d="M220 120v430M340 120v430M460 120v430M580 120v430M700 120v430M820 120v430M940 120v430"/>
  </g>
  <g fill="#d7a253" stroke="#f5c16c" stroke-width="3">
    <rect x="210" y="190" width="190" height="120" rx="10"/>
    <rect x="590" y="245" width="320" height="165" rx="12"/>
    <rect x="235" y="400" width="255" height="110" rx="12"/>
  </g>
  <g fill="none" stroke="#f5c16c" stroke-width="8" stroke-linecap="round">
    <path d="M305 250c135 20 210 65 300 90"/>
    <path d="M730 325c-145 65-270 90-360 125"/>
  </g>
  <g font-family="Inter, Arial" fill="#f8fafc">
    <text x="140" y="620" font-size="38" font-weight="700">HITL Sensor Emulation Platform</text>
    <text x="140" y="655" font-size="20" fill="#cbd5e1">Altium-export portfolio case study</text>
  </g>
</svg>
