<svg version="1.1" xmlns="http://www.w3.org/2000/svg" xmlns:xlink="http://www.w3.org/1999/xlink" stroke-linecap="round" stroke-linejoin="round" stroke-width="0" fill-rule="evenodd" clip-rule="evenodd" id="sKq9EZaqGNy8_bottom" viewBox="329.98 2.65 4530 4240" width="4.53in" height="4.24in"><defs><style>.sKq9EZaqGNy8_fr4 {color: #0d3126;}
.sKq9EZaqGNy8_cu {color: #d48a3a;}
.sKq9EZaqGNy8_cf {color: #d48a3a; opacity: 0.55;}
.sKq9EZaqGNy8_sm {color: #25b77f; opacity: 0.78;}
.sKq9EZaqGNy8_ss {color: #e7edf5; opacity: 0.92;}
.sKq9EZaqGNy8_sp {color: #cad5e1; opacity: 0.45;}
.sKq9EZaqGNy8_out {color: #000000;}</style><circle cx="0" cy="0" r="5" id="SUMA35RAY-Bz_pad-1"/><circle cx="0" cy="0" r="5.2" id="SUMA35RAY-Bz_pad-2"/><circle cx="0" cy="0" r="15" id="SUMA35RAY-Bz_pad-3"/><circle cx="0" cy="0" r="16.75" id="SUMA35RAY-Bz_pad-4"/><circle cx="0" cy="0" r="57.1" id="SUMA35RAY-Bz_pad-5"/><circle cx="0" cy="0" r="66.95" id="SUMA35RAY-Bz_pad-6"/><g id="sKq9EZaqGNy8_bottom_drill1"><use xlink:href="#SUMA35RAY-Bz_pad-1" x="823.5" y="149.6"/><use xlink:href="#SUMA35RAY-Bz_pad-1" x="2920" y="190"/><use xlink:href="#SUMA35RAY-Bz_pad-1" x="3100" y="190"/><use xlink:href="#SUMA35RAY-Bz_pad-1" x="3401.1" y="184"/><use xlink:href="#SUMA35RAY-Bz_pad-1" x="3988.6" y="223.1"/><use xlink:href="#SUMA35RAY-Bz_pad-1" x="3965.6" y="250.8"/><use xlink:href="#SUMA35RAY-Bz_pad-1" x="4065.5" y="229.8"/><use xlink:href="#SUMA35RAY-Bz_pad-1" x="4098.7" y="242.4"/><use xlink:href="#SUMA35RAY-Bz_pad-1" x="4209.2" y="258.1"/><use xlink:href="#SUMA35RAY-Bz_pad-1" x="4355.3" y="157"/><use xlink:href="#SUMA35RAY-Bz_pad-1" x="4171.6" y="307"/><use xlink:href="#SUMA35RAY-Bz_pad-1" x="4194.6" y="332.6"/><use xlink:href="#SUMA35RAY-Bz_pad-1" x="4102.3" y="357"/><use xlink:href="#SUMA35RAY-Bz_pad-1" x="4094.3" y="389.4"/><use xlink:href="#SUMA35RAY-Bz_pad-1" x="4124.9" y="409.6"/><use xlink:href="#SUMA35RAY-Bz_pad-1" x="4120.3" y="480.6"/><use xlink:href="#SUMA35RAY-Bz_pad-1" x="4085" y="495.4"/><use xlink:href="#SUMA35RAY-Bz_pad-1" x="4186.9" y="515.3"/><use xlink:href="#SUMA35RAY-Bz_pad-1" x="4281.6" y="594.2"/><use xlink:href="#SUMA35RAY-Bz_pad-1" x="4246.5" y="631.5"/><use xlink:href="#SUMA35RAY-Bz_pad-1" x="4345.5" y="738.2"/><use xlink:href="#SUMA35RAY-Bz_pad-1" x="4142.9" y="798.2"/><use xlink:href="#SUMA35RAY-Bz_pad-1" x="4095" y="873.6"/><use xlink:href="#SUMA35RAY-Bz_pad-1" x="4043.1" y="907.5"/><use xlink:href="#SUMA35RAY-Bz_pad-1" x="4015.7" y="887.7"/><use xlink:href="#SUMA35RAY-Bz_pad-1" x="3971.9" y="816.6"/><use xlink:href="#SUMA35RAY-Bz_pad-1" x="3969.7" y="762.7"/><use xlink:href="#SUMA35RAY-Bz_pad-1" x="3908.7" y="872.4"/><use xlink:href="#SUMA35RAY-Bz_pad-1" x="3811.4" y="882.8"/><use xlink:href="#SUMA35RAY-Bz_pad-1" x="3780.2" y="871.1"/><use xlink:href="#SUMA35RAY-Bz_pad-1" x="3795" y="801"/><use xlink:href="#SUMA35RAY-Bz_pad-1" x="3853.2" y="564.1"/><use xlink:href="#SUMA35RAY-Bz_pad-1" x="3880" y="530"/><use xlink:href="#SUMA35RAY-Bz_pad-1" x="3679.9" y="534.5"/><use xlink:href="#SUMA35RAY-Bz_pad-1" x="3669.4" y="495.4"/><use xlink:href="#SUMA35RAY-Bz_pad-1" x="3631.9" y="476.6"/><use xlink:href="#SUMA35RAY-Bz_pad-1" x="3654.3" y="578.6"/><use xlink:href="#SUMA35RAY-Bz_pad-1" x="3696.2" y="579.5"/><use xlink:href="#SUMA35RAY-Bz_pad-1" x="3728.7" y="422.4"/><use xlink:href="#SUMA35RAY-Bz_pad-1" x="3676.3" y="372.6"/><use xlink:href="#SUMA35RAY-Bz_pad-1" x="3690" y="340"/><use xlink:href="#SUMA35RAY-Bz_pad-1" x="3680" y="300"/><use xlink:href="#SUMA35RAY-Bz_pad-1" x="3640.8" y="291.2"/><use xlink:href="#SUMA35RAY-Bz_pad-1" x="3702.9" y="273.6"/><use xlink:href="#SUMA35RAY-Bz_pad-1" x="3909.5" y="272.9"/><use xlink:href="#SUMA35RAY-Bz_pad-1" x="3890" y="300"/><use xlink:href="#SUMA35RAY-Bz_pad-1" x="3943.8" y="328"/><use xlink:href="#SUMA35RAY-Bz_pad-1" x="4016.5" y="403.1"/><use xlink:href="#SUMA35RAY-Bz_pad-1" x="4008.2" y="438.3"/><use xlink:href="#SUMA35RAY-Bz_pad-1" x="4065.7" y="366.8"/><use xlink:href="#SUMA35RAY-Bz_pad-1" x="3342.1" y="329.7"/><use xlink:href="#SUMA35RAY-Bz_pad-1" x="3400" y="270"/><use xlink:href="#SUMA35RAY-Bz_pad-1" x="3217.7" y="266.5"/><use xlink:href="#SUMA35RAY-Bz_pad-1" x="3046.1" y="268.4"/><use xlink:href="#SUMA35RAY-Bz_pad-1" x="2510" y="830"/><use xlink:href="#SUMA35RAY-Bz_pad-1" x="2260" y="850"/><use xlink:href="#SUMA35RAY-Bz_pad-1" x="2224" y="1133.7"/><use xlink:href="#SUMA35RAY-Bz_pad-1" x="2200" y="1160"/><use xlink:href="#SUMA35RAY-Bz_pad-1" x="2245.4" y="1185.7"/><use xlink:href="#SUMA35RAY-Bz_pad-1" x="2262.1" y="1169.1"/><use xlink:href="#SUMA35RAY-Bz_pad-1" x="2328.7" y="1272.4"/><use xlink:href="#SUMA35RAY-Bz_pad-1" x="2391" y="1244.7"/><use xlink:href="#SUMA35RAY-Bz_pad-1" x="2459.3" y="1233.1"/><use xlink:href="#SUMA35RAY-Bz_pad-1" x="2550" y="1170"/><use xlink:href="#SUMA35RAY-Bz_pad-1" x="2586.8" y="1166.3"/><use xlink:href="#SUMA35RAY-Bz_pad-1" x="2565.8" y="1312.1"/><use xlink:href="#SUMA35RAY-Bz_pad-1" x="2548.8" y="1340.2"/><use xlink:href="#SUMA35RAY-Bz_pad-1" x="2547.9" y="1365.4"/><use xlink:href="#SUMA35RAY-Bz_pad-1" x="2562.5" y="1398.7"/><use xlink:href="#SUMA35RAY-Bz_pad-1" x="2561.9" y="1556.6"/><use xlink:href="#SUMA35RAY-Bz_pad-1" x="2550.5" y="1588.4"/><use xlink:href="#SUMA35RAY-Bz_pad-1" x="2549.3" y="1615.7"/><use xlink:href="#SUMA35RAY-Bz_pad-1" x="2550.7" y="1662.1"/><use xlink:href="#SUMA35RAY-Bz_pad-1" x="2477.1" y="1730.2"/><use xlink:href="#SUMA35RAY-Bz_pad-1" x="2333.4" y="1715.9"/><use xlink:href="#SUMA35RAY-Bz_pad-1" x="2335.9" y="1649.4"/><use xlink:href="#SUMA35RAY-Bz_pad-1" x="2236" y="1640.3"/><use xlink:href="#SUMA35RAY-Bz_pad-1" x="2236.2" y="1669.7"/><use xlink:href="#SUMA35RAY-Bz_pad-1" x="2232.3" y="1766.2"/><use xlink:href="#SUMA35RAY-Bz_pad-1" x="2240" y="1520"/><use xlink:href="#SUMA35RAY-Bz_pad-1" x="2333.3" y="1449.3"/><use xlink:href="#SUMA35RAY-Bz_pad-1" x="2400" y="1480"/><use xlink:href="#SUMA35RAY-Bz_pad-1" x="2468.8" y="1482.3"/><use xlink:href="#SUMA35RAY-Bz_pad-1" x="2149.3" y="1443.1"/><use xlink:href="#SUMA35RAY-Bz_pad-1" x="2050" y="1450"/><use xlink:href="#SUMA35RAY-Bz_pad-1" x="2047.1" y="1369.2"/><use xlink:href="#SUMA35RAY-Bz_pad-1" x="2108.3" y="1373.6"/><use xlink:href="#SUMA35RAY-Bz_pad-1" x="2108.1" y="1253.9"/><use xlink:href="#SUMA35RAY-Bz_pad-1" x="2138" y="1252.8"/><use xlink:href="#SUMA35RAY-Bz_pad-1" x="2107.8" y="1209.8"/><use xlink:href="#SUMA35RAY-Bz_pad-1" x="2096.7" y="1616"/><use xlink:href="#SUMA35RAY-Bz_pad-1" x="2700" y="1280"/><use xlink:href="#SUMA35RAY-Bz_pad-1" x="2751.6" y="1280.9"/><use xlink:href="#SUMA35RAY-Bz_pad-1" x="2846.6" y="1279.4"/><use xlink:href="#SUMA35RAY-Bz_pad-1" x="1989.3" y="1263.1"/><use xlink:href="#SUMA35RAY-Bz_pad-1" x="1979.5" y="1334.5"/><use xlink:href="#SUMA35RAY-Bz_pad-1" x="1910" y="1250"/><use xlink:href="#SUMA35RAY-Bz_pad-1" x="1754.9" y="1271.7"/><use xlink:href="#SUMA35RAY-Bz_pad-1" x="1665.9" y="1271.7"/><use xlink:href="#SUMA35RAY-Bz_pad-1" x="1552.2" y="1271.3"/><use xlink:href="#SUMA35RAY-Bz_pad-1" x="1761.6" y="1490.8"/><use xlink:href="#SUMA35RAY-Bz_pad-1" x="1810" y="1650"/><use xlink:href="#SUMA35RAY-Bz_pad-1" x="1740" y="1710"/><use xlink:href="#SUMA35RAY-Bz_pad-1" x="1694.3" y="1753.4"/><use xlink:href="#SUMA35RAY-Bz_pad-1" x="1650" y="1790"/><use xlink:href="#SUMA35RAY-Bz_pad-1" x="1737.7" y="1800.1"/><use xlink:href="#SUMA35RAY-Bz_pad-1" x="1550" y="1820"/><use xlink:href="#SUMA35RAY-Bz_pad-1" x="1672.2" y="1643.4"/><use xlink:href="#SUMA35RAY-Bz_pad-1" x="1969.5" y="1619.4"/><use xlink:href="#SUMA35RAY-Bz_pad-1" x="1993.1" y="1519.9"/><use xlink:href="#SUMA35RAY-Bz_pad-1" x="2010" y="990"/><use xlink:href="#SUMA35RAY-Bz_pad-1" x="1380" y="900"/><use xlink:href="#SUMA35RAY-Bz_pad-1" x="1048.9" y="1053.3"/><use xlink:href="#SUMA35RAY-Bz_pad-1" x="840" y="990"/><use xlink:href="#SUMA35RAY-Bz_pad-1" x="667.9" y="1047.5"/><use xlink:href="#SUMA35RAY-Bz_pad-1" x="597.8" y="980.9"/><use xlink:href="#SUMA35RAY-Bz_pad-1" x="593.1" y="1283.8"/><use xlink:href="#SUMA35RAY-Bz_pad-1" x="483.6" y="1295.9"/><use xlink:href="#SUMA35RAY-Bz_pad-1" x="493.9" y="1362.9"/><use xlink:href="#SUMA35RAY-Bz_pad-1" x="560" y="1410"/><use xlink:href="#SUMA35RAY-Bz_pad-1" x="557" y="1512.4"/><use xlink:href="#SUMA35RAY-Bz_pad-1" x="600.7" y="1523.6"/><use xlink:href="#SUMA35RAY-Bz_pad-1" x="679.1" y="1524.4"/><use xlink:href="#SUMA35RAY-Bz_pad-1" x="721.8" y="1581.5"/><use xlink:href="#SUMA35RAY-Bz_pad-1" x="736.1" y="1611.1"/><use xlink:href="#SUMA35RAY-Bz_pad-1" x="713.7" y="1645"/><use xlink:href="#SUMA35RAY-Bz_pad-1" x="679.5" y="1654.4"/><use xlink:href="#SUMA35RAY-Bz_pad-1" x="642.2" y="1658.6"/><use xlink:href="#SUMA35RAY-Bz_pad-1" x="606.1" y="1657.1"/><use xlink:href="#SUMA35RAY-Bz_pad-1" x="576.6" y="1645.4"/><use xlink:href="#SUMA35RAY-Bz_pad-1" x="490.4" y="1686.8"/><use xlink:href="#SUMA35RAY-Bz_pad-1" x="485.1" y="1548.1"/><use xlink:href="#SUMA35RAY-Bz_pad-1" x="639.8" y="1725.7"/><use xlink:href="#SUMA35RAY-Bz_pad-1" x="684.4" y="1816.1"/><use xlink:href="#SUMA35RAY-Bz_pad-1" x="1034.9" y="1812.4"/><use xlink:href="#SUMA35RAY-Bz_pad-1" x="1063" y="1647.7"/><use xlink:href="#SUMA35RAY-Bz_pad-1" x="872.3" y="1607.6"/><use xlink:href="#SUMA35RAY-Bz_pad-1" x="873.2" y="1546.3"/><use xlink:href="#SUMA35RAY-Bz_pad-1" x="872.8" y="1489"/><use xlink:href="#SUMA35RAY-Bz_pad-1" x="872.8" y="1426.7"/><use xlink:href="#SUMA35RAY-Bz_pad-1" x="872.9" y="1363.8"/><use xlink:href="#SUMA35RAY-Bz_pad-1" x="872.8" y="1307"/><use xlink:href="#SUMA35RAY-Bz_pad-1" x="743.3" y="1367.2"/><use xlink:href="#SUMA35RAY-Bz_pad-1" x="1064.1" y="1410"/><use xlink:href="#SUMA35RAY-Bz_pad-1" x="1255.5" y="1457.6"/><use xlink:href="#SUMA35RAY-Bz_pad-1" x="1254.1" y="1707.6"/><use xlink:href="#SUMA35RAY-Bz_pad-1" x="404.3" y="1295.1"/><use xlink:href="#SUMA35RAY-Bz_pad-1" x="454.5" y="3088.7"/><use xlink:href="#SUMA35RAY-Bz_pad-1" x="452.9" y="3371.1"/><use xlink:href="#SUMA35RAY-Bz_pad-1" x="612.1" y="3370"/><use xlink:href="#SUMA35RAY-Bz_pad-1" x="613.7" y="3089.4"/><use xlink:href="#SUMA35RAY-Bz_pad-1" x="573.7" y="3089.4"/><use xlink:href="#SUMA35RAY-Bz_pad-1" x="533.7" y="3089.4"/><use xlink:href="#SUMA35RAY-Bz_pad-1" x="493.7" y="3089.4"/><use xlink:href="#SUMA35RAY-Bz_pad-1" x="622.1" y="3022.1"/><use xlink:href="#SUMA35RAY-Bz_pad-1" x="703.8" y="2989"/><use xlink:href="#SUMA35RAY-Bz_pad-1" x="712.5" y="2890.9"/><use xlink:href="#SUMA35RAY-Bz_pad-1" x="676" y="2750.6"/><use xlink:href="#SUMA35RAY-Bz_pad-1" x="784.1" y="2734.6"/><use xlink:href="#SUMA35RAY-Bz_pad-1" x="854.2" y="2670"/><use xlink:href="#SUMA35RAY-Bz_pad-1" x="965.5" y="2661.8"/><use xlink:href="#SUMA35RAY-Bz_pad-1" x="1016.7" y="2670.9"/><use xlink:href="#SUMA35RAY-Bz_pad-1" x="1251.2" y="2669.3"/><use xlink:href="#SUMA35RAY-Bz_pad-1" x="1321.1" y="2587.2"/><use xlink:href="#SUMA35RAY-Bz_pad-1" x="1418.8" y="2682.6"/><use xlink:href="#SUMA35RAY-Bz_pad-1" x="1498.3" y="2624.5"/><use xlink:href="#SUMA35RAY-Bz_pad-1" x="1462" y="2896.9"/><use xlink:href="#SUMA35RAY-Bz_pad-1" x="1509.8" y="3013.8"/><use xlink:href="#SUMA35RAY-Bz_pad-1" x="1535.6" y="3184.7"/><use xlink:href="#SUMA35RAY-Bz_pad-1" x="1534.9" y="3223.9"/><use xlink:href="#SUMA35RAY-Bz_pad-1" x="1567.1" y="3258.5"/><use xlink:href="#SUMA35RAY-Bz_pad-1" x="1566.4" y="3297.7"/><use xlink:href="#SUMA35RAY-Bz_pad-1" x="1566.4" y="3337.7"/><use xlink:href="#SUMA35RAY-Bz_pad-1" x="1566.4" y="3377.7"/><use xlink:href="#SUMA35RAY-Bz_pad-1" x="1626.5" y="3248"/><use xlink:href="#SUMA35RAY-Bz_pad-1" x="1650.1" y="3203.9"/><use xlink:href="#SUMA35RAY-Bz_pad-1" x="1658.5" y="3145.8"/><use xlink:href="#SUMA35RAY-Bz_pad-1" x="1744.7" y="3175.5"/><use xlink:href="#SUMA35RAY-Bz_pad-1" x="1763.1" y="3206"/><use xlink:href="#SUMA35RAY-Bz_pad-1" x="1784" y="3077.9"/><use xlink:href="#SUMA35RAY-Bz_pad-1" x="1899.9" y="3113"/><use xlink:href="#SUMA35RAY-Bz_pad-1" x="1926.2" y="3113.1"/><use xlink:href="#SUMA35RAY-Bz_pad-1" x="1922.7" y="3049"/><use xlink:href="#SUMA35RAY-Bz_pad-1" x="1893.6" y="3025.7"/><use xlink:href="#SUMA35RAY-Bz_pad-1" x="1889.6" y="3241.8"/><use xlink:href="#SUMA35RAY-Bz_pad-1" x="1909" y="3264.6"/><use xlink:href="#SUMA35RAY-Bz_pad-1" x="1927.3" y="3287.8"/><use xlink:href="#SUMA35RAY-Bz_pad-1" x="1913.3" y="3317.6"/><use xlink:href="#SUMA35RAY-Bz_pad-1" x="1873.6" y="3310.2"/><use xlink:href="#SUMA35RAY-Bz_pad-1" x="1839.7" y="3300.2"/><use xlink:href="#SUMA35RAY-Bz_pad-1" x="1927.6" y="3350.9"/><use xlink:href="#SUMA35RAY-Bz_pad-1" x="1989.3" y="3179"/><use xlink:href="#SUMA35RAY-Bz_pad-1" x="1358.4" y="3162.6"/><use xlink:href="#SUMA35RAY-Bz_pad-1" x="1359.1" y="3123.4"/><use xlink:href="#SUMA35RAY-Bz_pad-1" x="1125.9" y="3089.1"/><use xlink:href="#SUMA35RAY-Bz_pad-1" x="1087.8" y="3090.1"/><use xlink:href="#SUMA35RAY-Bz_pad-1" x="1088.5" y="3050.9"/><use xlink:href="#SUMA35RAY-Bz_pad-1" x="1126.6" y="3049.8"/><use xlink:href="#SUMA35RAY-Bz_pad-1" x="1126.9" y="2980.5"/><use xlink:href="#SUMA35RAY-Bz_pad-1" x="1087.7" y="2979.8"/><use xlink:href="#SUMA35RAY-Bz_pad-1" x="1087.8" y="3130.1"/><use xlink:href="#SUMA35RAY-Bz_pad-1" x="1087.8" y="3170.1"/><use xlink:href="#SUMA35RAY-Bz_pad-1" x="886.6" y="3174.5"/><use xlink:href="#SUMA35RAY-Bz_pad-1" x="886.6" y="3214.5"/><use xlink:href="#SUMA35RAY-Bz_pad-1" x="887" y="3258.9"/><use xlink:href="#SUMA35RAY-Bz_pad-1" x="886.3" y="3298.1"/><use xlink:href="#SUMA35RAY-Bz_pad-1" x="886.3" y="3338.1"/><use xlink:href="#SUMA35RAY-Bz_pad-1" x="886.3" y="3378.1"/><use xlink:href="#SUMA35RAY-Bz_pad-1" x="886.6" y="3134.5"/><use xlink:href="#SUMA35RAY-Bz_pad-1" x="887.3" y="3095.2"/><use xlink:href="#SUMA35RAY-Bz_pad-1" x="1134.1" y="3361.5"/><use xlink:href="#SUMA35RAY-Bz_pad-1" x="1293.3" y="3360.4"/><use xlink:href="#SUMA35RAY-Bz_pad-1" x="1182.6" y="2760.2"/><use xlink:href="#SUMA35RAY-Bz_pad-1" x="744.5" y="2631.5"/><use xlink:href="#SUMA35RAY-Bz_pad-1" x="586.4" y="2799"/><use xlink:href="#SUMA35RAY-Bz_pad-1" x="586.4" y="2830.9"/><use xlink:href="#SUMA35RAY-Bz_pad-1" x="519.2" y="2854.6"/><use xlink:href="#SUMA35RAY-Bz_pad-1" x="550" y="1840"/><use xlink:href="#SUMA35RAY-Bz_pad-1" x="896.7" y="1838.6"/><use xlink:href="#SUMA35RAY-Bz_pad-1" x="1034.9" y="2136.1"/><use xlink:href="#SUMA35RAY-Bz_pad-1" x="1216.6" y="2177.9"/><use xlink:href="#SUMA35RAY-Bz_pad-1" x="1253.3" y="2171.4"/><use xlink:href="#SUMA35RAY-Bz_pad-1" x="1288" y="2173.4"/><use xlink:href="#SUMA35RAY-Bz_pad-1" x="1390.6" y="2179.1"/><use xlink:href="#SUMA35RAY-Bz_pad-1" x="1548.9" y="2148.9"/><use xlink:href="#SUMA35RAY-Bz_pad-1" x="1857.6" y="2245.5"/><use xlink:href="#SUMA35RAY-Bz_pad-1" x="1981.6" y="2227.1"/><use xlink:href="#SUMA35RAY-Bz_pad-1" x="2050" y="2200"/><use xlink:href="#SUMA35RAY-Bz_pad-1" x="2394.7" y="2151.8"/><use xlink:href="#SUMA35RAY-Bz_pad-1" x="2462" y="2382.1"/><use xlink:href="#SUMA35RAY-Bz_pad-1" x="2517.6" y="2529.8"/><use xlink:href="#SUMA35RAY-Bz_pad-1" x="2410.3" y="2582.9"/><use xlink:href="#SUMA35RAY-Bz_pad-1" x="2410" y="2612.5"/><use xlink:href="#SUMA35RAY-Bz_pad-1" x="2410.9" y="2645.8"/><use xlink:href="#SUMA35RAY-Bz_pad-1" x="2410.9" y="2673.8"/><use xlink:href="#SUMA35RAY-Bz_pad-1" x="2456.2" y="2673.6"/><use xlink:href="#SUMA35RAY-Bz_pad-1" x="2449.4" y="2782.9"/><use xlink:href="#SUMA35RAY-Bz_pad-1" x="2378.9" y="2849.5"/><use xlink:href="#SUMA35RAY-Bz_pad-1" x="2378.6" y="2883.8"/><use xlink:href="#SUMA35RAY-Bz_pad-1" x="2377.6" y="2916.8"/><use xlink:href="#SUMA35RAY-Bz_pad-1" x="2299.8" y="2970.8"/><use xlink:href="#SUMA35RAY-Bz_pad-1" x="2259.2" y="3032.5"/><use xlink:href="#SUMA35RAY-Bz_pad-1" x="2178.5" y="3025.5"/><use xlink:href="#SUMA35RAY-Bz_pad-1" x="2160.4" y="3005"/><use xlink:href="#SUMA35RAY-Bz_pad-1" x="2182.4" y="2968.5"/><use xlink:href="#SUMA35RAY-Bz_pad-1" x="2223.7" y="2930.6"/><use xlink:href="#SUMA35RAY-Bz_pad-1" x="2255.7" y="2857.3"/><use xlink:href="#SUMA35RAY-Bz_pad-1" x="2214.6" y="2757.5"/><use xlink:href="#SUMA35RAY-Bz_pad-1" x="2211.2" y="2717.3"/><use xlink:href="#SUMA35RAY-Bz_pad-1" x="2245.9" y="2705.8"/><use xlink:href="#SUMA35RAY-Bz_pad-1" x="2317.6" y="2640.7"/><use xlink:href="#SUMA35RAY-Bz_pad-1" x="2375.6" y="2612.1"/><use xlink:href="#SUMA35RAY-Bz_pad-1" x="2375.1" y="2582.5"/><use xlink:href="#SUMA35RAY-Bz_pad-1" x="2620" y="2590"/><use xlink:href="#SUMA35RAY-Bz_pad-1" x="2701.3" y="2844.3"/><use xlink:href="#SUMA35RAY-Bz_pad-1" x="2748.1" y="2844.1"/><use xlink:href="#SUMA35RAY-Bz_pad-1" x="2748.2" y="2799.4"/><use xlink:href="#SUMA35RAY-Bz_pad-1" x="2840.3" y="2789"/><use xlink:href="#SUMA35RAY-Bz_pad-1" x="2844.3" y="2985.3"/><use xlink:href="#SUMA35RAY-Bz_pad-1" x="2749.6" y="2985.4"/><use xlink:href="#SUMA35RAY-Bz_pad-1" x="2748.5" y="2946.3"/><use xlink:href="#SUMA35RAY-Bz_pad-1" x="2707.8" y="2946"/><use xlink:href="#SUMA35RAY-Bz_pad-1" x="2793.6" y="3071.7"/><use xlink:href="#SUMA35RAY-Bz_pad-1" x="2790.2" y="3125.6"/><use xlink:href="#SUMA35RAY-Bz_pad-1" x="2754.4" y="3287"/><use xlink:href="#SUMA35RAY-Bz_pad-1" x="2755.7" y="3328.9"/><use xlink:href="#SUMA35RAY-Bz_pad-1" x="2710.4" y="3286.5"/><use xlink:href="#SUMA35RAY-Bz_pad-1" x="2458.1" y="3273.5"/><use xlink:href="#SUMA35RAY-Bz_pad-1" x="2374.6" y="3342"/><use xlink:href="#SUMA35RAY-Bz_pad-1" x="2374.3" y="3376.3"/><use xlink:href="#SUMA35RAY-Bz_pad-1" x="2176" y="3364.3"/><use xlink:href="#SUMA35RAY-Bz_pad-1" x="2196.5" y="3257.1"/><use xlink:href="#SUMA35RAY-Bz_pad-1" x="2198.6" y="3197.6"/><use xlink:href="#SUMA35RAY-Bz_pad-1" x="2244.4" y="3166.5"/><use xlink:href="#SUMA35RAY-Bz_pad-1" x="2159.7" y="3120.2"/><use xlink:href="#SUMA35RAY-Bz_pad-1" x="2156.1" y="3070"/><use xlink:href="#SUMA35RAY-Bz_pad-1" x="2078.5" y="3079.3"/><use xlink:href="#SUMA35RAY-Bz_pad-1" x="2051.9" y="3057.6"/><use xlink:href="#SUMA35RAY-Bz_pad-1" x="2052.7" y="3214.1"/><use xlink:href="#SUMA35RAY-Bz_pad-1" x="2359.7" y="3128.7"/><use xlink:href="#SUMA35RAY-Bz_pad-1" x="2408.9" y="3126.8"/><use xlink:href="#SUMA35RAY-Bz_pad-1" x="2407.8" y="3159.8"/><use xlink:href="#SUMA35RAY-Bz_pad-1" x="2409.2" y="3092.5"/><use xlink:href="#SUMA35RAY-Bz_pad-1" x="2482" y="3134.9"/><use xlink:href="#SUMA35RAY-Bz_pad-1" x="2448.3" y="2980.4"/><use xlink:href="#SUMA35RAY-Bz_pad-1" x="2146.4" y="2808"/><use xlink:href="#SUMA35RAY-Bz_pad-1" x="2168.1" y="2785.1"/><use xlink:href="#SUMA35RAY-Bz_pad-1" x="2982.1" y="2852.3"/><use xlink:href="#SUMA35RAY-Bz_pad-1" x="3069.2" y="2862.5"/><use xlink:href="#SUMA35RAY-Bz_pad-1" x="2995" y="2977.2"/><use xlink:href="#SUMA35RAY-Bz_pad-1" x="2942.5" y="2937.3"/><use xlink:href="#SUMA35RAY-Bz_pad-1" x="3196.1" y="2967.5"/><use xlink:href="#SUMA35RAY-Bz_pad-1" x="3193.7" y="2999.8"/><use xlink:href="#SUMA35RAY-Bz_pad-1" x="3227.4" y="2893.9"/><use xlink:href="#SUMA35RAY-Bz_pad-1" x="3247" y="2814"/><use xlink:href="#SUMA35RAY-Bz_pad-1" x="3246.2" y="2783.8"/><use xlink:href="#SUMA35RAY-Bz_pad-1" x="3281.4" y="2783.7"/><use xlink:href="#SUMA35RAY-Bz_pad-1" x="3282.1" y="2813.9"/><use xlink:href="#SUMA35RAY-Bz_pad-1" x="3375.8" y="2810.9"/><use xlink:href="#SUMA35RAY-Bz_pad-1" x="3410.9" y="2810.8"/><use xlink:href="#SUMA35RAY-Bz_pad-1" x="3384.3" y="2848.1"/><use xlink:href="#SUMA35RAY-Bz_pad-1" x="3383.2" y="2889.8"/><use xlink:href="#SUMA35RAY-Bz_pad-1" x="3336.3" y="2879.1"/><use xlink:href="#SUMA35RAY-Bz_pad-1" x="3348.3" y="2991.9"/><use xlink:href="#SUMA35RAY-Bz_pad-1" x="3348" y="3026.2"/><use xlink:href="#SUMA35RAY-Bz_pad-1" x="3347" y="3059.2"/><use xlink:href="#SUMA35RAY-Bz_pad-1" x="3354.7" y="3162.3"/><use xlink:href="#SUMA35RAY-Bz_pad-1" x="3353.2" y="3199.2"/><use xlink:href="#SUMA35RAY-Bz_pad-1" x="3353.6" y="3236.2"/><use xlink:href="#SUMA35RAY-Bz_pad-1" x="3387.2" y="3235.7"/><use xlink:href="#SUMA35RAY-Bz_pad-1" x="3390.8" y="3328.4"/><use xlink:href="#SUMA35RAY-Bz_pad-1" x="3453.4" y="3201.6"/><use xlink:href="#SUMA35RAY-Bz_pad-1" x="3453" y="3162.4"/><use xlink:href="#SUMA35RAY-Bz_pad-1" x="3250.6" y="3164.4"/><use xlink:href="#SUMA35RAY-Bz_pad-1" x="3258.6" y="3123.2"/><use xlink:href="#SUMA35RAY-Bz_pad-1" x="3224.3" y="3205.6"/><use xlink:href="#SUMA35RAY-Bz_pad-1" x="3176.9" y="3171.4"/><use xlink:href="#SUMA35RAY-Bz_pad-1" x="3123.7" y="3256.8"/><use xlink:href="#SUMA35RAY-Bz_pad-1" x="3083.7" y="3256.8"/><use xlink:href="#SUMA35RAY-Bz_pad-1" x="3044.4" y="3256.1"/><use xlink:href="#SUMA35RAY-Bz_pad-1" x="3059" y="3304.6"/><use xlink:href="#SUMA35RAY-Bz_pad-1" x="3124" y="3303.4"/><use xlink:href="#SUMA35RAY-Bz_pad-1" x="3163.3" y="3304.1"/><use xlink:href="#SUMA35RAY-Bz_pad-1" x="3203.3" y="3304.1"/><use xlink:href="#SUMA35RAY-Bz_pad-1" x="2993.3" y="3176.2"/><use xlink:href="#SUMA35RAY-Bz_pad-1" x="2974.7" y="2667.7"/><use xlink:href="#SUMA35RAY-Bz_pad-1" x="3076.4" y="2517.9"/><use xlink:href="#SUMA35RAY-Bz_pad-1" x="3308.6" y="2553.2"/><use xlink:href="#SUMA35RAY-Bz_pad-1" x="3452.7" y="2847.5"/><use xlink:href="#SUMA35RAY-Bz_pad-1" x="3478.6" y="2867"/><use xlink:href="#SUMA35RAY-Bz_pad-1" x="3710.9" y="2798.1"/><use xlink:href="#SUMA35RAY-Bz_pad-1" x="3807.6" y="2791.8"/><use xlink:href="#SUMA35RAY-Bz_pad-1" x="3810.3" y="2544.8"/><use xlink:href="#SUMA35RAY-Bz_pad-1" x="3721.1" y="2540.6"/><use xlink:href="#SUMA35RAY-Bz_pad-1" x="3676.2" y="2540"/><use xlink:href="#SUMA35RAY-Bz_pad-1" x="3680.3" y="2582.8"/><use xlink:href="#SUMA35RAY-Bz_pad-1" x="3644.2" y="2581.2"/><use xlink:href="#SUMA35RAY-Bz_pad-1" x="3699" y="2505.5"/><use xlink:href="#SUMA35RAY-Bz_pad-1" x="3831.1" y="2340.6"/><use xlink:href="#SUMA35RAY-Bz_pad-1" x="3951.1" y="2340.6"/><use xlink:href="#SUMA35RAY-Bz_pad-1" x="4051.1" y="2310.6"/><use xlink:href="#SUMA35RAY-Bz_pad-1" x="4041.1" y="2400.6"/><use xlink:href="#SUMA35RAY-Bz_pad-1" x="4051.1" y="2450.6"/><use xlink:href="#SUMA35RAY-Bz_pad-1" x="4111.1" y="2450.6"/><use xlink:href="#SUMA35RAY-Bz_pad-1" x="4180" y="2420"/><use xlink:href="#SUMA35RAY-Bz_pad-1" x="4200" y="2395.1"/><use xlink:href="#SUMA35RAY-Bz_pad-1" x="4211.1" y="2280.6"/><use xlink:href="#SUMA35RAY-Bz_pad-1" x="4235.5" y="2256.4"/><use xlink:href="#SUMA35RAY-Bz_pad-1" x="4291.1" y="2310.6"/><use xlink:href="#SUMA35RAY-Bz_pad-1" x="4124.5" y="2262.9"/><use xlink:href="#SUMA35RAY-Bz_pad-1" x="4111.1" y="2230.6"/><use xlink:href="#SUMA35RAY-Bz_pad-1" x="4024.2" y="2124.8"/><use xlink:href="#SUMA35RAY-Bz_pad-1" x="3949" y="2054.7"/><use xlink:href="#SUMA35RAY-Bz_pad-1" x="3914.7" y="1955.9"/><use xlink:href="#SUMA35RAY-Bz_pad-1" x="4041.1" y="1990.6"/><use xlink:href="#SUMA35RAY-Bz_pad-1" x="4148" y="2046.2"/><use xlink:href="#SUMA35RAY-Bz_pad-1" x="4271.1" y="2110.6"/><use xlink:href="#SUMA35RAY-Bz_pad-1" x="4282.9" y="1860"/><use xlink:href="#SUMA35RAY-Bz_pad-1" x="4229.1" y="1857"/><use xlink:href="#SUMA35RAY-Bz_pad-1" x="4077.5" y="1857.9"/><use xlink:href="#SUMA35RAY-Bz_pad-1" x="4413.5" y="1973.3"/><use xlink:href="#SUMA35RAY-Bz_pad-1" x="4521.1" y="2060.6"/><use xlink:href="#SUMA35RAY-Bz_pad-1" x="4521.1" y="2180.6"/><use xlink:href="#SUMA35RAY-Bz_pad-1" x="4521.1" y="2230.6"/><use xlink:href="#SUMA35RAY-Bz_pad-1" x="4521.1" y="2350.6"/><use xlink:href="#SUMA35RAY-Bz_pad-1" x="4750.2" y="2186.2"/><use xlink:href="#SUMA35RAY-Bz_pad-1" x="4726.8" y="3094.5"/><use xlink:href="#SUMA35RAY-Bz_pad-1" x="4579.9" y="3190"/><use xlink:href="#SUMA35RAY-Bz_pad-1" x="4410.3" y="3396.5"/><use xlink:href="#SUMA35RAY-Bz_pad-1" x="4374.1" y="3396.5"/><use xlink:href="#SUMA35RAY-Bz_pad-1" x="4337.8" y="3396.5"/><use xlink:href="#SUMA35RAY-Bz_pad-1" x="4337.1" y="3435.7"/><use xlink:href="#SUMA35RAY-Bz_pad-1" x="4373.4" y="3435.7"/><use xlink:href="#SUMA35RAY-Bz_pad-1" x="4409.6" y="3435.7"/><use xlink:href="#SUMA35RAY-Bz_pad-1" x="4409.6" y="3475.7"/><use xlink:href="#SUMA35RAY-Bz_pad-1" x="4373.4" y="3475.7"/><use xlink:href="#SUMA35RAY-Bz_pad-1" x="4337.1" y="3475.7"/><use xlink:href="#SUMA35RAY-Bz_pad-1" x="4337.1" y="3515.7"/><use xlink:href="#SUMA35RAY-Bz_pad-1" x="4373.4" y="3515.7"/><use xlink:href="#SUMA35RAY-Bz_pad-1" x="4409.6" y="3515.7"/><use xlink:href="#SUMA35RAY-Bz_pad-1" x="4409.6" y="3555.7"/><use xlink:href="#SUMA35RAY-Bz_pad-1" x="4373.4" y="3555.7"/><use xlink:href="#SUMA35RAY-Bz_pad-1" x="4337.1" y="3555.7"/><use xlink:href="#SUMA35RAY-Bz_pad-1" x="4663.4" y="3581.9"/><use xlink:href="#SUMA35RAY-Bz_pad-1" x="4526.9" y="3966.4"/><use xlink:href="#SUMA35RAY-Bz_pad-1" x="4492.6" y="3966.1"/><use xlink:href="#SUMA35RAY-Bz_pad-1" x="4382.4" y="4069.1"/><use xlink:href="#SUMA35RAY-Bz_pad-1" x="4235.9" y="4161.9"/><use xlink:href="#SUMA35RAY-Bz_pad-1" x="4196.7" y="4161.2"/><use xlink:href="#SUMA35RAY-Bz_pad-1" x="4156.7" y="4161.2"/><use xlink:href="#SUMA35RAY-Bz_pad-1" x="4078.7" y="4160.8"/><use xlink:href="#SUMA35RAY-Bz_pad-1" x="4039.4" y="4160.1"/><use xlink:href="#SUMA35RAY-Bz_pad-1" x="3999.4" y="4160.1"/><use xlink:href="#SUMA35RAY-Bz_pad-1" x="3898.9" y="4161.5"/><use xlink:href="#SUMA35RAY-Bz_pad-1" x="3859.7" y="4160.8"/><use xlink:href="#SUMA35RAY-Bz_pad-1" x="3819.7" y="4160.8"/><use xlink:href="#SUMA35RAY-Bz_pad-1" x="3738.7" y="4160.6"/><use xlink:href="#SUMA35RAY-Bz_pad-1" x="3699.4" y="4159.9"/><use xlink:href="#SUMA35RAY-Bz_pad-1" x="3659.4" y="4159.9"/><use xlink:href="#SUMA35RAY-Bz_pad-1" x="3820.9" y="3928.1"/><use xlink:href="#SUMA35RAY-Bz_pad-1" x="3860.9" y="3928.1"/><use xlink:href="#SUMA35RAY-Bz_pad-1" x="3900.1" y="3928.8"/><use xlink:href="#SUMA35RAY-Bz_pad-1" x="4003.1" y="3926.7"/><use xlink:href="#SUMA35RAY-Bz_pad-1" x="4043.1" y="3926.7"/><use xlink:href="#SUMA35RAY-Bz_pad-1" x="4082.4" y="3927.3"/><use xlink:href="#SUMA35RAY-Bz_pad-1" x="3485.4" y="3820.9"/><use xlink:href="#SUMA35RAY-Bz_pad-1" x="3445.4" y="3820.9"/><use xlink:href="#SUMA35RAY-Bz_pad-1" x="3446.4" y="3749.8"/><use xlink:href="#SUMA35RAY-Bz_pad-1" x="3486.4" y="3749.8"/><use xlink:href="#SUMA35RAY-Bz_pad-1" x="3367.4" y="3716.4"/><use xlink:href="#SUMA35RAY-Bz_pad-1" x="3350" y="3790"/><use xlink:href="#SUMA35RAY-Bz_pad-1" x="3380.4" y="3804.3"/><use xlink:href="#SUMA35RAY-Bz_pad-1" x="3380" y="3829.7"/><use xlink:href="#SUMA35RAY-Bz_pad-1" x="3364.5" y="3849.4"/><use xlink:href="#SUMA35RAY-Bz_pad-1" x="3364.5" y="3880"/><use xlink:href="#SUMA35RAY-Bz_pad-1" x="3272.6" y="3881"/><use xlink:href="#SUMA35RAY-Bz_pad-1" x="3232.6" y="3881"/><use xlink:href="#SUMA35RAY-Bz_pad-1" x="3231.9" y="3835.3"/><use xlink:href="#SUMA35RAY-Bz_pad-1" x="3271.9" y="3835.3"/><use xlink:href="#SUMA35RAY-Bz_pad-1" x="3271.9" y="3775.5"/><use xlink:href="#SUMA35RAY-Bz_pad-1" x="3231.9" y="3775.5"/><use xlink:href="#SUMA35RAY-Bz_pad-1" x="3182.3" y="3707.8"/><use xlink:href="#SUMA35RAY-Bz_pad-1" x="3287.2" y="3690.6"/><use xlink:href="#SUMA35RAY-Bz_pad-1" x="3364.6" y="3490.5"/><use xlink:href="#SUMA35RAY-Bz_pad-1" x="3414.9" y="3491.3"/><use xlink:href="#SUMA35RAY-Bz_pad-1" x="3394" y="3438.9"/><use xlink:href="#SUMA35RAY-Bz_pad-1" x="3394.3" y="3404.7"/><use xlink:href="#SUMA35RAY-Bz_pad-1" x="3184.2" y="3492"/><use xlink:href="#SUMA35RAY-Bz_pad-1" x="3054.6" y="3416.8"/><use xlink:href="#SUMA35RAY-Bz_pad-1" x="3008.2" y="3545"/><use xlink:href="#SUMA35RAY-Bz_pad-1" x="3005.7" y="3595.6"/><use xlink:href="#SUMA35RAY-Bz_pad-1" x="3039.9" y="3595.8"/><use xlink:href="#SUMA35RAY-Bz_pad-1" x="3039.9" y="3635.8"/><use xlink:href="#SUMA35RAY-Bz_pad-1" x="3005.7" y="3635.6"/><use xlink:href="#SUMA35RAY-Bz_pad-1" x="2980.7" y="3704.6"/><use xlink:href="#SUMA35RAY-Bz_pad-1" x="3032.9" y="3752.9"/><use xlink:href="#SUMA35RAY-Bz_pad-1" x="2930.3" y="3840.6"/><use xlink:href="#SUMA35RAY-Bz_pad-1" x="2751.1" y="3806.2"/><use xlink:href="#SUMA35RAY-Bz_pad-1" x="2750.6" y="3764"/><use xlink:href="#SUMA35RAY-Bz_pad-1" x="2708.7" y="3763.7"/><use xlink:href="#SUMA35RAY-Bz_pad-1" x="2751.6" y="3896.4"/><use xlink:href="#SUMA35RAY-Bz_pad-1" x="2752.1" y="3942.6"/><use xlink:href="#SUMA35RAY-Bz_pad-1" x="2704.8" y="3943.5"/><use xlink:href="#SUMA35RAY-Bz_pad-1" x="2454.7" y="3957.7"/><use xlink:href="#SUMA35RAY-Bz_pad-1" x="2375.3" y="3890.2"/><use xlink:href="#SUMA35RAY-Bz_pad-1" x="2376.4" y="3857.2"/><use xlink:href="#SUMA35RAY-Bz_pad-1" x="2376.6" y="3822.9"/><use xlink:href="#SUMA35RAY-Bz_pad-1" x="2450.9" y="3757.5"/><use xlink:href="#SUMA35RAY-Bz_pad-1" x="2401" y="3653"/><use xlink:href="#SUMA35RAY-Bz_pad-1" x="2402.1" y="3620"/><use xlink:href="#SUMA35RAY-Bz_pad-1" x="2402.3" y="3585.7"/><use xlink:href="#SUMA35RAY-Bz_pad-1" x="2310.2" y="3617.3"/><use xlink:href="#SUMA35RAY-Bz_pad-1" x="2261.6" y="3534.8"/><use xlink:href="#SUMA35RAY-Bz_pad-1" x="2230" y="3520"/><use xlink:href="#SUMA35RAY-Bz_pad-1" x="2210" y="3500"/><use xlink:href="#SUMA35RAY-Bz_pad-1" x="2222.7" y="3425.9"/><use xlink:href="#SUMA35RAY-Bz_pad-1" x="2163.6" y="3435.9"/><use xlink:href="#SUMA35RAY-Bz_pad-1" x="2160" y="3400"/><use xlink:href="#SUMA35RAY-Bz_pad-1" x="2051.6" y="3436.4"/><use xlink:href="#SUMA35RAY-Bz_pad-1" x="2060" y="3630"/><use xlink:href="#SUMA35RAY-Bz_pad-1" x="2109.8" y="3636.2"/><use xlink:href="#SUMA35RAY-Bz_pad-1" x="2085.5" y="3704"/><use xlink:href="#SUMA35RAY-Bz_pad-1" x="2178.4" y="3723.9"/><use xlink:href="#SUMA35RAY-Bz_pad-1" x="2150" y="3770"/><use xlink:href="#SUMA35RAY-Bz_pad-1" x="2157.9" y="3849.6"/><use xlink:href="#SUMA35RAY-Bz_pad-1" x="2156.8" y="3878.7"/><use xlink:href="#SUMA35RAY-Bz_pad-1" x="2181.3" y="3938.3"/><use xlink:href="#SUMA35RAY-Bz_pad-1" x="2180" y="3980.7"/><use xlink:href="#SUMA35RAY-Bz_pad-1" x="2257.9" y="4010"/><use xlink:href="#SUMA35RAY-Bz_pad-1" x="2300.9" y="3942.8"/><use xlink:href="#SUMA35RAY-Bz_pad-1" x="2223.4" y="3908"/><use xlink:href="#SUMA35RAY-Bz_pad-1" x="2378.1" y="4062.2"/><use xlink:href="#SUMA35RAY-Bz_pad-1" x="2411.4" y="4062.5"/><use xlink:href="#SUMA35RAY-Bz_pad-1" x="2501.2" y="4093.3"/><use xlink:href="#SUMA35RAY-Bz_pad-1" x="2514.8" y="3616.6"/><use xlink:href="#SUMA35RAY-Bz_pad-1" x="2457.2" y="3478"/><use xlink:href="#SUMA35RAY-Bz_pad-1" x="2373.2" y="3409.3"/><use xlink:href="#SUMA35RAY-Bz_pad-1" x="2301.9" y="3467.9"/><use xlink:href="#SUMA35RAY-Bz_pad-1" x="2707.2" y="3465.9"/><use xlink:href="#SUMA35RAY-Bz_pad-1" x="2748.5" y="3465.4"/><use xlink:href="#SUMA35RAY-Bz_pad-1" x="2750.1" y="3424.3"/><use xlink:href="#SUMA35RAY-Bz_pad-1" x="2893" y="3431.5"/><use xlink:href="#SUMA35RAY-Bz_pad-1" x="2927.1" y="3502.1"/><use xlink:href="#SUMA35RAY-Bz_pad-1" x="3155.5" y="3992"/><use xlink:href="#SUMA35RAY-Bz_pad-1" x="3230.2" y="3959.8"/><use xlink:href="#SUMA35RAY-Bz_pad-1" x="3270.2" y="3959.8"/><use xlink:href="#SUMA35RAY-Bz_pad-1" x="3306.1" y="4069.7"/><use xlink:href="#SUMA35RAY-Bz_pad-1" x="3338.7" y="4112.7"/><use xlink:href="#SUMA35RAY-Bz_pad-1" x="3391.3" y="3998.3"/><use xlink:href="#SUMA35RAY-Bz_pad-1" x="1856.3" y="3627.5"/><use xlink:href="#SUMA35RAY-Bz_pad-1" x="1807.7" y="3648"/><use xlink:href="#SUMA35RAY-Bz_pad-1" x="1754.9" y="3623.5"/><use xlink:href="#SUMA35RAY-Bz_pad-1" x="1704.2" y="3661.6"/><use xlink:href="#SUMA35RAY-Bz_pad-1" x="1651.1" y="3624.4"/><use xlink:href="#SUMA35RAY-Bz_pad-1" x="1685" y="3511"/><use xlink:href="#SUMA35RAY-Bz_pad-1" x="1766.1" y="3413.7"/><use xlink:href="#SUMA35RAY-Bz_pad-1" x="1860" y="3480"/><use xlink:href="#SUMA35RAY-Bz_pad-1" x="1562.3" y="3442.4"/><use xlink:href="#SUMA35RAY-Bz_pad-1" x="1522.3" y="3442.4"/><use xlink:href="#SUMA35RAY-Bz_pad-1" x="1293.3" y="3398.1"/><use xlink:href="#SUMA35RAY-Bz_pad-1" x="1253.3" y="3398.1"/><use xlink:href="#SUMA35RAY-Bz_pad-1" x="1213.3" y="3398.1"/><use xlink:href="#SUMA35RAY-Bz_pad-1" x="1173.3" y="3398.1"/><use xlink:href="#SUMA35RAY-Bz_pad-1" x="1134.1" y="3397.4"/><use xlink:href="#SUMA35RAY-Bz_pad-1" x="1117.2" y="3493.2"/><use xlink:href="#SUMA35RAY-Bz_pad-1" x="951.8" y="3449.2"/><use xlink:href="#SUMA35RAY-Bz_pad-1" x="911.8" y="3449.2"/><use xlink:href="#SUMA35RAY-Bz_pad-1" x="612.1" y="3407.7"/><use xlink:href="#SUMA35RAY-Bz_pad-1" x="572.1" y="3407.7"/><use xlink:href="#SUMA35RAY-Bz_pad-1" x="532.1" y="3407.7"/><use xlink:href="#SUMA35RAY-Bz_pad-1" x="492.1" y="3407.7"/><use xlink:href="#SUMA35RAY-Bz_pad-1" x="546.5" y="3858.1"/><use xlink:href="#SUMA35RAY-Bz_pad-1" x="681.3" y="3840.7"/><use xlink:href="#SUMA35RAY-Bz_pad-1" x="717.6" y="3840.7"/><use xlink:href="#SUMA35RAY-Bz_pad-1" x="716.9" y="3880"/><use xlink:href="#SUMA35RAY-Bz_pad-1" x="680.6" y="3880"/><use xlink:href="#SUMA35RAY-Bz_pad-1" x="680.6" y="3920"/><use xlink:href="#SUMA35RAY-Bz_pad-1" x="716.9" y="3920"/><use xlink:href="#SUMA35RAY-Bz_pad-1" x="717.6" y="3971.2"/><use xlink:href="#SUMA35RAY-Bz_pad-1" x="681.3" y="3971.2"/><use xlink:href="#SUMA35RAY-Bz_pad-1" x="680.6" y="4010.4"/><use xlink:href="#SUMA35RAY-Bz_pad-1" x="716.9" y="4010.4"/><use xlink:href="#SUMA35RAY-Bz_pad-1" x="716.9" y="4050.4"/><use xlink:href="#SUMA35RAY-Bz_pad-1" x="680.6" y="4050.4"/><use xlink:href="#SUMA35RAY-Bz_pad-1" x="861.1" y="4102.4"/><use xlink:href="#SUMA35RAY-Bz_pad-1" x="861.1" y="4138.7"/><use xlink:href="#SUMA35RAY-Bz_pad-1" x="861.1" y="4175"/><use xlink:href="#SUMA35RAY-Bz_pad-1" x="900.3" y="4175.7"/><use xlink:href="#SUMA35RAY-Bz_pad-1" x="900.3" y="4139.4"/><use xlink:href="#SUMA35RAY-Bz_pad-1" x="900.3" y="4103.1"/><use xlink:href="#SUMA35RAY-Bz_pad-1" x="940.3" y="4103.1"/><use xlink:href="#SUMA35RAY-Bz_pad-1" x="940.3" y="4139.4"/><use xlink:href="#SUMA35RAY-Bz_pad-1" x="940.3" y="4175.7"/><use xlink:href="#SUMA35RAY-Bz_pad-1" x="980.3" y="4175.7"/><use xlink:href="#SUMA35RAY-Bz_pad-1" x="980.3" y="4139.4"/><use xlink:href="#SUMA35RAY-Bz_pad-1" x="980.3" y="4103.1"/><use xlink:href="#SUMA35RAY-Bz_pad-1" x="1020.3" y="4103.1"/><use xlink:href="#SUMA35RAY-Bz_pad-1" x="1020.3" y="4139.4"/><use xlink:href="#SUMA35RAY-Bz_pad-1" x="1020.3" y="4175.7"/><use xlink:href="#SUMA35RAY-Bz_pad-1" x="1417.8" y="4177"/><use xlink:href="#SUMA35RAY-Bz_pad-1" x="1417.8" y="4140.7"/><use xlink:href="#SUMA35RAY-Bz_pad-1" x="1417.8" y="4104.4"/><use xlink:href="#SUMA35RAY-Bz_pad-1" x="1457" y="4105.1"/><use xlink:href="#SUMA35RAY-Bz_pad-1" x="1457" y="4141.4"/><use xlink:href="#SUMA35RAY-Bz_pad-1" x="1457" y="4177.7"/><use xlink:href="#SUMA35RAY-Bz_pad-1" x="1497" y="4177.7"/><use xlink:href="#SUMA35RAY-Bz_pad-1" x="1497" y="4141.4"/><use xlink:href="#SUMA35RAY-Bz_pad-1" x="1497" y="4105.1"/><use xlink:href="#SUMA35RAY-Bz_pad-1" x="1537" y="4105.1"/><use xlink:href="#SUMA35RAY-Bz_pad-1" x="1537" y="4141.4"/><use xlink:href="#SUMA35RAY-Bz_pad-1" x="1537" y="4177.7"/><use xlink:href="#SUMA35RAY-Bz_pad-1" x="1577" y="4177.7"/><use xlink:href="#SUMA35RAY-Bz_pad-1" x="1577" y="4141.4"/><use xlink:href="#SUMA35RAY-Bz_pad-1" x="1577" y="4105.1"/><use xlink:href="#SUMA35RAY-Bz_pad-1" x="1348.4" y="4051.2"/><use xlink:href="#SUMA35RAY-Bz_pad-1" x="1312.1" y="4051.2"/><use xlink:href="#SUMA35RAY-Bz_pad-1" x="1312.1" y="4011.2"/><use xlink:href="#SUMA35RAY-Bz_pad-1" x="1348.4" y="4011.2"/><use xlink:href="#SUMA35RAY-Bz_pad-1" x="1349.1" y="3971.9"/><use xlink:href="#SUMA35RAY-Bz_pad-1" x="1312.8" y="3971.9"/><use xlink:href="#SUMA35RAY-Bz_pad-1" x="1313.1" y="3921.5"/><use xlink:href="#SUMA35RAY-Bz_pad-1" x="1349.4" y="3921.5"/><use xlink:href="#SUMA35RAY-Bz_pad-1" x="1349.4" y="3881.5"/><use xlink:href="#SUMA35RAY-Bz_pad-1" x="1313.1" y="3881.5"/><use xlink:href="#SUMA35RAY-Bz_pad-1" x="1313.8" y="3842.2"/><use xlink:href="#SUMA35RAY-Bz_pad-1" x="1350.1" y="3842.2"/><use xlink:href="#SUMA35RAY-Bz_pad-1" x="1346.2" y="3797"/><use xlink:href="#SUMA35RAY-Bz_pad-1" x="1346.9" y="3757.8"/><use xlink:href="#SUMA35RAY-Bz_pad-1" x="1520.3" y="3773.3"/><use xlink:href="#SUMA35RAY-Bz_pad-1" x="1229.8" y="3847.7"/><use xlink:href="#SUMA35RAY-Bz_pad-1" x="1047.5" y="3762"/><use xlink:href="#SUMA35RAY-Bz_pad-1" x="747" y="3770.8"/><use xlink:href="#SUMA35RAY-Bz_pad-1" x="707.2" y="3769.4"/><use xlink:href="#SUMA35RAY-Bz_pad-1" x="476.5" y="3565"/><use xlink:href="#SUMA35RAY-Bz_pad-1" x="435.9" y="3564.3"/><use xlink:href="#SUMA35RAY-Bz_pad-1" x="452.8" y="3407"/><use xlink:href="#SUMA35RAY-Bz_pad-2" x="3147.5" y="3559.7"/><use xlink:href="#SUMA35RAY-Bz_pad-2" x="3183.1" y="3559.7"/><use xlink:href="#SUMA35RAY-Bz_pad-2" x="3165.3" y="3598.1"/><use xlink:href="#SUMA35RAY-Bz_pad-2" x="3129.7" y="3598.1"/><use xlink:href="#SUMA35RAY-Bz_pad-2" x="3147.5" y="3636.5"/><use xlink:href="#SUMA35RAY-Bz_pad-2" x="3183.1" y="3636.5"/><use xlink:href="#SUMA35RAY-Bz_pad-2" x="3201" y="3598.1"/><use xlink:href="#SUMA35RAY-Bz_pad-2" x="3301.4" y="3598.1"/><use xlink:href="#SUMA35RAY-Bz_pad-2" x="3337" y="3598.1"/><use xlink:href="#SUMA35RAY-Bz_pad-2" x="3372.7" y="3598.1"/><use xlink:href="#SUMA35RAY-Bz_pad-2" x="3354.8" y="3636.5"/><use xlink:href="#SUMA35RAY-Bz_pad-2" x="3319.2" y="3636.5"/><use xlink:href="#SUMA35RAY-Bz_pad-2" x="3319.2" y="3559.7"/><use xlink:href="#SUMA35RAY-Bz_pad-2" x="3354.8" y="3559.7"/><use xlink:href="#SUMA35RAY-Bz_pad-2" x="1347" y="3581.1"/><use xlink:href="#SUMA35RAY-Bz_pad-2" x="1347" y="3624.4"/><use xlink:href="#SUMA35RAY-Bz_pad-2" x="1347" y="3667.7"/><use xlink:href="#SUMA35RAY-Bz_pad-2" x="1303.7" y="3667.7"/><use xlink:href="#SUMA35RAY-Bz_pad-2" x="1303.7" y="3624.4"/><use xlink:href="#SUMA35RAY-Bz_pad-2" x="1303.7" y="3581.1"/><use xlink:href="#SUMA35RAY-Bz_pad-2" x="732.2" y="3583.5"/><use xlink:href="#SUMA35RAY-Bz_pad-2" x="732.2" y="3626.8"/><use xlink:href="#SUMA35RAY-Bz_pad-2" x="688.9" y="3626.8"/><use xlink:href="#SUMA35RAY-Bz_pad-2" x="688.9" y="3670.1"/><use xlink:href="#SUMA35RAY-Bz_pad-2" x="732.2" y="3670.1"/><use xlink:href="#SUMA35RAY-Bz_pad-2" x="688.9" y="3583.5"/><use xlink:href="#SUMA35RAY-Bz_pad-3" x="2110" y="430"/><use xlink:href="#SUMA35RAY-Bz_pad-3" x="2210" y="430"/><use xlink:href="#SUMA35RAY-Bz_pad-3" x="2210" y="530"/><use xlink:href="#SUMA35RAY-Bz_pad-3" x="2110" y="530"/><use xlink:href="#SUMA35RAY-Bz_pad-3" x="2310" y="530"/><use xlink:href="#SUMA35RAY-Bz_pad-3" x="2410" y="530"/><use xlink:href="#SUMA35RAY-Bz_pad-3" x="2410" y="430"/><use xlink:href="#SUMA35RAY-Bz_pad-3" x="2310" y="430"/><use xlink:href="#SUMA35RAY-Bz_pad-3" x="2510" y="430"/><use xlink:href="#SUMA35RAY-Bz_pad-3" x="2610" y="430"/><use xlink:href="#SUMA35RAY-Bz_pad-3" x="2710" y="430"/><use xlink:href="#SUMA35RAY-Bz_pad-3" x="2810" y="430"/><use xlink:href="#SUMA35RAY-Bz_pad-3" x="2910" y="430"/><use xlink:href="#SUMA35RAY-Bz_pad-3" x="2910" y="530"/><use xlink:href="#SUMA35RAY-Bz_pad-3" x="2810" y="530"/><use xlink:href="#SUMA35RAY-Bz_pad-3" x="2710" y="530"/><use xlink:href="#SUMA35RAY-Bz_pad-3" x="2610" y="530"/><use xlink:href="#SUMA35RAY-Bz_pad-3" x="2510" y="530"/><use xlink:href="#SUMA35RAY-Bz_pad-3" x="3010" y="530"/><use xlink:href="#SUMA35RAY-Bz_pad-3" x="3010" y="430"/><use xlink:href="#SUMA35RAY-Bz_pad-3" x="2010" y="430"/><use xlink:href="#SUMA35RAY-Bz_pad-3" x="1910" y="430"/><use xlink:href="#SUMA35RAY-Bz_pad-3" x="1910" y="530"/><use xlink:href="#SUMA35RAY-Bz_pad-3" x="1810" y="530"/><use xlink:href="#SUMA35RAY-Bz_pad-3" x="1710" y="530"/><use xlink:href="#SUMA35RAY-Bz_pad-3" x="1610" y="530"/><use xlink:href="#SUMA35RAY-Bz_pad-3" x="1610" y="430"/><use xlink:href="#SUMA35RAY-Bz_pad-3" x="1710" y="430"/><use xlink:href="#SUMA35RAY-Bz_pad-3" x="1810" y="430"/><use xlink:href="#SUMA35RAY-Bz_pad-3" x="1510" y="430"/><use xlink:href="#SUMA35RAY-Bz_pad-3" x="1410" y="430"/><use xlink:href="#SUMA35RAY-Bz_pad-3" x="1310" y="430"/><use xlink:href="#SUMA35RAY-Bz_pad-3" x="1210" y="430"/><use xlink:href="#SUMA35RAY-Bz_pad-3" x="1110" y="430"/><use xlink:href="#SUMA35RAY-Bz_pad-3" x="1010" y="430"/><use xlink:href="#SUMA35RAY-Bz_pad-3" x="910" y="430"/><use xlink:href="#SUMA35RAY-Bz_pad-3" x="810" y="430"/><use xlink:href="#SUMA35RAY-Bz_pad-3" x="810" y="530"/><use xlink:href="#SUMA35RAY-Bz_pad-3" x="910" y="530"/><use xlink:href="#SUMA35RAY-Bz_pad-3" x="1010" y="530"/><use xlink:href="#SUMA35RAY-Bz_pad-3" x="1110" y="530"/><use xlink:href="#SUMA35RAY-Bz_pad-3" x="1210" y="530"/><use xlink:href="#SUMA35RAY-Bz_pad-3" x="1310" y="530"/><use xlink:href="#SUMA35RAY-Bz_pad-3" x="1410" y="530"/><use xlink:href="#SUMA35RAY-Bz_pad-3" x="1510" y="530"/><use xlink:href="#SUMA35RAY-Bz_pad-3" x="2010" y="530"/><use xlink:href="#SUMA35RAY-Bz_pad-3" x="2010" y="2330"/><use xlink:href="#SUMA35RAY-Bz_pad-3" x="1910" y="2330"/><use xlink:href="#SUMA35RAY-Bz_pad-3" x="1910" y="2430"/><use xlink:href="#SUMA35RAY-Bz_pad-3" x="1810" y="2430"/><use xlink:href="#SUMA35RAY-Bz_pad-3" x="1710" y="2430"/><use xlink:href="#SUMA35RAY-Bz_pad-3" x="1710" y="2330"/><use xlink:href="#SUMA35RAY-Bz_pad-3" x="1610" y="2330"/><use xlink:href="#SUMA35RAY-Bz_pad-3" x="1610" y="2430"/><use xlink:href="#SUMA35RAY-Bz_pad-3" x="1510" y="2430"/><use xlink:href="#SUMA35RAY-Bz_pad-3" x="1510" y="2330"/><use xlink:href="#SUMA35RAY-Bz_pad-3" x="1410" y="2330"/><use xlink:href="#SUMA35RAY-Bz_pad-3" x="1310" y="2330"/><use xlink:href="#SUMA35RAY-Bz_pad-3" x="1210" y="2330"/><use xlink:href="#SUMA35RAY-Bz_pad-3" x="1210" y="2430"/><use xlink:href="#SUMA35RAY-Bz_pad-3" x="1310" y="2430"/><use xlink:href="#SUMA35RAY-Bz_pad-3" x="1410" y="2430"/><use xlink:href="#SUMA35RAY-Bz_pad-3" x="1110" y="2430"/><use xlink:href="#SUMA35RAY-Bz_pad-3" x="1010" y="2430"/><use xlink:href="#SUMA35RAY-Bz_pad-3" x="910" y="2430"/><use xlink:href="#SUMA35RAY-Bz_pad-3" x="810" y="2430"/><use xlink:href="#SUMA35RAY-Bz_pad-3" x="810" y="2330"/><use xlink:href="#SUMA35RAY-Bz_pad-3" x="910" y="2330"/><use xlink:href="#SUMA35RAY-Bz_pad-3" x="1010" y="2330"/><use xlink:href="#SUMA35RAY-Bz_pad-3" x="1110" y="2330"/><use xlink:href="#SUMA35RAY-Bz_pad-3" x="1810" y="2330"/><use xlink:href="#SUMA35RAY-Bz_pad-3" x="2010" y="2430"/><use xlink:href="#SUMA35RAY-Bz_pad-3" x="2110" y="2430"/><use xlink:href="#SUMA35RAY-Bz_pad-3" x="2110" y="2330"/><use xlink:href="#SUMA35RAY-Bz_pad-3" x="2210" y="2330"/><use xlink:href="#SUMA35RAY-Bz_pad-3" x="2210" y="2430"/><use xlink:href="#SUMA35RAY-Bz_pad-3" x="2310" y="2430"/><use xlink:href="#SUMA35RAY-Bz_pad-3" x="2310" y="2330"/><use xlink:href="#SUMA35RAY-Bz_pad-3" x="2410" y="2330"/><use xlink:href="#SUMA35RAY-Bz_pad-3" x="2410" y="2430"/><use xlink:href="#SUMA35RAY-Bz_pad-3" x="2510" y="2430"/><use xlink:href="#SUMA35RAY-Bz_pad-3" x="2510" y="2330"/><use xlink:href="#SUMA35RAY-Bz_pad-3" x="2610" y="2330"/><use xlink:href="#SUMA35RAY-Bz_pad-3" x="2610" y="2430"/><use xlink:href="#SUMA35RAY-Bz_pad-3" x="2710" y="2430"/><use xlink:href="#SUMA35RAY-Bz_pad-3" x="2710" y="2330"/><use xlink:href="#SUMA35RAY-Bz_pad-3" x="2810" y="2330"/><use xlink:href="#SUMA35RAY-Bz_pad-3" x="2910" y="2330"/><use xlink:href="#SUMA35RAY-Bz_pad-3" x="2910" y="2430"/><use xlink:href="#SUMA35RAY-Bz_pad-3" x="2810" y="2430"/><use xlink:href="#SUMA35RAY-Bz_pad-3" x="3010" y="2430"/><use xlink:href="#SUMA35RAY-Bz_pad-3" x="3010" y="2330"/><use xlink:href="#SUMA35RAY-Bz_pad-4" x="3825.1" y="2850.8"/><use xlink:href="#SUMA35RAY-Bz_pad-4" x="3825.1" y="2940.6"/><use xlink:href="#SUMA35RAY-Bz_pad-4" x="3825.1" y="3030.7"/><use xlink:href="#SUMA35RAY-Bz_pad-4" x="3825.1" y="3120.5"/><use xlink:href="#SUMA35RAY-Bz_pad-4" x="3825.1" y="3210.6"/><use xlink:href="#SUMA35RAY-Bz_pad-4" x="3825.1" y="3300.4"/><use xlink:href="#SUMA35RAY-Bz_pad-4" x="3903" y="3255.5"/><use xlink:href="#SUMA35RAY-Bz_pad-4" x="3903" y="3165.8"/><use xlink:href="#SUMA35RAY-Bz_pad-4" x="3903" y="3075.6"/><use xlink:href="#SUMA35RAY-Bz_pad-4" x="3903" y="2985.5"/><use xlink:href="#SUMA35RAY-Bz_pad-4" x="3903" y="2895.7"/><use xlink:href="#SUMA35RAY-Bz_pad-4" x="3903" y="2805.5"/><use xlink:href="#SUMA35RAY-Bz_pad-4" x="3981.4" y="2760.6"/><use xlink:href="#SUMA35RAY-Bz_pad-4" x="3981.4" y="2850.8"/><use xlink:href="#SUMA35RAY-Bz_pad-4" x="3981.4" y="2940.6"/><use xlink:href="#SUMA35RAY-Bz_pad-4" x="3981.4" y="3030.7"/><use xlink:href="#SUMA35RAY-Bz_pad-4" x="3981.4" y="3120.5"/><use xlink:href="#SUMA35RAY-Bz_pad-4" x="3981.4" y="3210.6"/><use xlink:href="#SUMA35RAY-Bz_pad-4" x="3981.4" y="3300.4"/><use xlink:href="#SUMA35RAY-Bz_pad-4" x="4059.3" y="3255.5"/><use xlink:href="#SUMA35RAY-Bz_pad-4" x="4149.1" y="3255.5"/><use xlink:href="#SUMA35RAY-Bz_pad-4" x="4149.1" y="3165.8"/><use xlink:href="#SUMA35RAY-Bz_pad-4" x="4059.3" y="3165.8"/><use xlink:href="#SUMA35RAY-Bz_pad-4" x="4059.3" y="3075.6"/><use xlink:href="#SUMA35RAY-Bz_pad-4" x="4149.1" y="3075.6"/><use xlink:href="#SUMA35RAY-Bz_pad-4" x="4149.1" y="2985.5"/><use xlink:href="#SUMA35RAY-Bz_pad-4" x="4059.3" y="2985.5"/><use xlink:href="#SUMA35RAY-Bz_pad-4" x="4059.3" y="2895.7"/><use xlink:href="#SUMA35RAY-Bz_pad-4" x="4149.1" y="2895.7"/><use xlink:href="#SUMA35RAY-Bz_pad-4" x="4149.1" y="2805.5"/><use xlink:href="#SUMA35RAY-Bz_pad-4" x="4149.1" y="2715.8"/><use xlink:href="#SUMA35RAY-Bz_pad-4" x="4059.3" y="2715.8"/><use xlink:href="#SUMA35RAY-Bz_pad-4" x="4059.3" y="2805.5"/><use xlink:href="#SUMA35RAY-Bz_pad-4" x="4227" y="2760.6"/><use xlink:href="#SUMA35RAY-Bz_pad-4" x="4227" y="2850.8"/><use xlink:href="#SUMA35RAY-Bz_pad-4" x="4227" y="2940.6"/><use xlink:href="#SUMA35RAY-Bz_pad-4" x="4227" y="3030.7"/><use xlink:href="#SUMA35RAY-Bz_pad-4" x="4227" y="3120.5"/><use xlink:href="#SUMA35RAY-Bz_pad-4" x="4227" y="3210.6"/><use xlink:href="#SUMA35RAY-Bz_pad-4" x="4227" y="3300.4"/><use xlink:href="#SUMA35RAY-Bz_pad-4" x="4149.1" y="3345.7"/><use xlink:href="#SUMA35RAY-Bz_pad-4" x="4059.3" y="3345.7"/><use xlink:href="#SUMA35RAY-Bz_pad-4" x="3903" y="3345.7"/><use xlink:href="#SUMA35RAY-Bz_pad-4" x="3747.1" y="3165.8"/><use xlink:href="#SUMA35RAY-Bz_pad-4" x="3747.1" y="3075.6"/><use xlink:href="#SUMA35RAY-Bz_pad-4" x="3747.1" y="2985.5"/><use xlink:href="#SUMA35RAY-Bz_pad-4" x="4305.4" y="2985.5"/><use xlink:href="#SUMA35RAY-Bz_pad-4" x="4305.4" y="2895.7"/><use xlink:href="#SUMA35RAY-Bz_pad-4" x="4305.4" y="2805.5"/><use xlink:href="#SUMA35RAY-Bz_pad-4" x="4383.3" y="2850.8"/><use xlink:href="#SUMA35RAY-Bz_pad-4" x="4383.3" y="2940.6"/><use xlink:href="#SUMA35RAY-Bz_pad-4" x="4383.3" y="3030.7"/><use xlink:href="#SUMA35RAY-Bz_pad-4" x="4383.3" y="3120.5"/><use xlink:href="#SUMA35RAY-Bz_pad-4" x="4383.3" y="3210.6"/><use xlink:href="#SUMA35RAY-Bz_pad-4" x="4383.3" y="3300.4"/><use xlink:href="#SUMA35RAY-Bz_pad-4" x="4305.4" y="3255.5"/><use xlink:href="#SUMA35RAY-Bz_pad-4" x="4305.4" y="3165.8"/><use xlink:href="#SUMA35RAY-Bz_pad-4" x="4305.4" y="3075.6"/><use xlink:href="#SUMA35RAY-Bz_pad-4" x="4461.3" y="3075.6"/><use xlink:href="#SUMA35RAY-Bz_pad-4" x="4461.3" y="2985.5"/><use xlink:href="#SUMA35RAY-Bz_pad-4" x="4461.3" y="3165.8"/><use xlink:href="#SUMA35RAY-Bz_pad-4" x="4305.4" y="3345.7"/><use xlink:href="#SUMA35RAY-Bz_pad-4" x="4227" y="3390.6"/><use xlink:href="#SUMA35RAY-Bz_pad-4" x="4149.1" y="3435.5"/><use xlink:href="#SUMA35RAY-Bz_pad-4" x="4059.3" y="3435.5"/><use xlink:href="#SUMA35RAY-Bz_pad-4" x="3981.4" y="3390.6"/><use xlink:href="#SUMA35RAY-Bz_pad-5" x="3210" y="480"/><use xlink:href="#SUMA35RAY-Bz_pad-5" x="610" y="605"/><use xlink:href="#SUMA35RAY-Bz_pad-5" x="610" y="2255"/><use xlink:href="#SUMA35RAY-Bz_pad-5" x="3210" y="2380"/><use xlink:href="#SUMA35RAY-Bz_pad-6" x="455" y="127.6"/><use xlink:href="#SUMA35RAY-Bz_pad-6" x="4735" y="127.6"/><use xlink:href="#SUMA35RAY-Bz_pad-6" x="4735" y="861.9"/><use xlink:href="#SUMA35RAY-Bz_pad-6" x="4735" y="1800.9"/><use xlink:href="#SUMA35RAY-Bz_pad-6" x="1931.7" y="2849.8"/><use xlink:href="#SUMA35RAY-Bz_pad-6" x="4735" y="4117.6"/><use xlink:href="#SUMA35RAY-Bz_pad-6" x="455" y="4117.6"/></g><clipPath id="sKq9EZaqGNy8_bottom_outline"><path d="M 329.98 127.65 A 125 125 0 0 1 454.98 2.65 L 4734.98 2.65 A 125 125 0 0 1 4859.98 127.65 L 4859.98 861.9 A 125 125 0 0 1 4734.98 986.9 L 3009.59 986.9 3009.59 1675.88 4734.98 1675.88 A 125 125 0 0 1 4859.98 1800.88 L 4859.98 4117.65 A 125 125 0 0 1 4734.98 4242.65 L 454.98 4242.65 A 125 125 0 0 1 329.98 4117.65 L 329.98 127.65" fill="none" stroke-width="1"/></clipPath><mask id="sKq9EZaqGNy8_bottom_mech-mask"><g fill="#000" stroke="#000"><rect x="329.98" y="2.65" width="4530" height="4240" fill="#fff"/><use xlink:href="#sKq9EZaqGNy8_bottom_drill1"/></g></mask></defs><g transform="translate(0,4245.3) scale(1,-1)"><g mask="url(#sKq9EZaqGNy8_bottom_mech-mask)" clip-path="url(#sKq9EZaqGNy8_bottom_outline)" transform="translate(5189.96,0) scale(-1,1)"><rect x="329.98" y="2.65" width="4530" height="4240" fill="currentColor" class="sKq9EZaqGNy8_fr4"/></g></g></svg>