<svg xmlns="http://www.w3.org/2000/svg" viewBox="0 0 1600 1000" role="img" aria-label="Top level schematic placeholder">
  <rect width="1600" height="1000" fill="#f8fafc"/>
  <defs>
    <marker id="arrow" viewBox="0 0 10 10" refX="9" refY="5" markerWidth="6" markerHeight="6" orient="auto-start-reverse">
      <path d="M0 0l10 5-10 5z" fill="#334155"/>
    </marker>
  </defs>
  <g fill="none" stroke="#cbd5e1" stroke-width="1">
    <path d="M0 100h1600M0 200h1600M0 300h1600M0 400h1600M0 500h1600M0 600h1600M0 700h1600M0 800h1600M0 900h1600"/>
    <path d="M100 0v1000M200 0v1000M300 0v1000M400 0v1000M500 0v1000M600 0v1000M700 0v1000M800 0v1000M900 0v1000M1000 0v1000M1100 0v1000M1200 0v1000M1300 0v1000M1400 0v1000M1500 0v1000"/>
  </g>
  <text x="70" y="70" font-family="Inter, Arial" font-size="38" font-weight="700" fill="#0f172a">HITL Sensor Emulation Platform - Top Level</text>
  <text x="70" y="110" font-family="Inter, Arial" font-size="18" fill="#475569">Exported Altium schematic placeholder. Replace with SVG/PDF-derived pages.</text>
  <g font-family="Inter, Arial" stroke="#334155" stroke-width="3">
    <rect x="110" y="110" width="450" height="205" rx="14" fill="#ecfeff"/>
    <text x="145" y="170" font-size="32" font-weight="700" fill="#0f172a">Power Tree</text>
    <text x="145" y="212" font-size="20" fill="#334155">24 V input, protection, buck, references</text>
    <text x="145" y="252" font-size="18" fill="#64748b">5 V, 3.3 V, AVDD, VREF</text>
    <rect x="760" y="170" width="560" height="225" rx="14" fill="#f0fdf4"/>
    <text x="805" y="235" font-size="32" font-weight="700" fill="#0f172a">RTD Emulation</text>
    <text x="805" y="278" font-size="20" fill="#334155">6 channels, precision DAC control, feedback</text>
    <rect x="775" y="470" width="560" height="185" rx="14" fill="#fff7ed"/>
    <text x="820" y="535" font-size="32" font-weight="700" fill="#0f172a">Current Loop PT Emulation</text>
    <text x="820" y="578" font-size="20" fill="#334155">6 channels, compliance checks, readback</text>
    <rect x="150" y="715" width="465" height="135" rx="14" fill="#eef2ff"/>
    <text x="185" y="775" font-size="32" font-weight="700" fill="#0f172a">Bring-up and Validation</text>
    <text x="185" y="815" font-size="20" fill="#334155">Rail checks, loop sweeps, test evidence</text>
    <rect x="125" y="405" width="465" height="180" rx="14" fill="#fdf2f8"/>
    <text x="165" y="470" font-size="32" font-weight="700" fill="#0f172a">CM5 / Digital Control</text>
    <text x="165" y="512" font-size="20" fill="#334155">SPI, GPIO, command sequencing</text>
    <rect x="1120" y="735" width="350" height="135" rx="14" fill="#fefce8"/>
    <text x="1160" y="795" font-size="32" font-weight="700" fill="#0f172a">ADC Front End</text>
    <text x="1160" y="835" font-size="20" fill="#334155">Precision measurement path</text>
    <rect x="805" y="735" width="250" height="135" rx="14" fill="#f1f5f9"/>
    <text x="840" y="795" font-size="30" font-weight="700" fill="#0f172a">Valve Driver</text>
    <text x="840" y="835" font-size="18" fill="#334155">Load switches</text>
    <path d="M560 215h200" marker-end="url(#arrow)"/>
    <path d="M590 495h180" marker-end="url(#arrow)"/>
    <path d="M1040 395v75" marker-end="url(#arrow)"/>
    <path d="M590 500c160 80 300 120 520 160" marker-end="url(#arrow)"/>
    <path d="M1010 655v80" marker-end="url(#arrow)"/>
  </g>
</svg>
