<svg version="1.1" xmlns="http://www.w3.org/2000/svg" xmlns:xlink="http://www.w3.org/1999/xlink" stroke-linecap="round" stroke-linejoin="round" stroke-width="0" fill-rule="evenodd" width="3.98394in" height="3.98394in" viewBox="8.03 8.03 3983.94 3983.94"><defs><mask id="PiFXUbWBFcDu_clear-1" fill="#000" stroke="#000"><g><rect x="8.03" y="8.03" width="3983.94" height="3983.94" fill="#fff"/><path d="M 1437.13 3732.05 1360.53 3732.05 1357.01 3731.35 1354.04 3729.36 1175.11 3550.43 1173.12 3547.46 1172.42 3543.95 1172.42 2658.16 1173.12 2654.65 1175.11 2651.67 1179.82 2646.96 1179.82 2047.62 1174.82 2045.92 1168.51 2054.14 1165.47 2056.48 1165.47 2644.62 1164.47 2652.22 1164.47 3310 1162.61 3324.1 1157.17 3337.23 1148.51 3348.51 1137.23 3357.17 1124.1 3362.61 1110 3364.47 1095.9 3362.61 1082.77 3357.17 1071.49 3348.51 1062.83 3337.23 1057.39 3324.1 1055.53 3310 1055.53 2974.16 1050.53 2972.09 1049.06 2973.56 1043.18 2976 1036.82 2976 1030.94 2973.56 1026.44 2969.06 1024 2963.18 1024 2956.82 1026.44 2950.94 1030.82 2946.55 1030.82 2924.55 983.71 2877.44 934.24 2877.44 933.56 2879.06 929.06 2883.56 923.18 2886 916.82 2886 910.94 2883.56 906.44 2879.06 904 2873.18 904 2866.82 906.44 2860.94 910.94 2856.44 916.82 2854 923.18 2854 929.06 2856.44 931.71 2859.08 987.51 2859.08 991.02 2859.78 994 2861.77 1046.49 2914.26 1048.48 2917.24 1049.18 2920.75 1049.18 2943.06 1050.53 2943.96 1055.53 2941.29 1055.53 2646.32 1056.53 2638.72 1056.53 2015.63 1057.79 2006.13 1056.53 1996.63 1056.53 1766.74 1058.39 1752.65 1063.83 1739.51 1064.88 1738.14 1064.88 1551.07 1021.49 1507.68 1012.83 1496.4 1007.39 1483.26 1005.53 1469.16 1005.53 1280 1007.39 1265.9 1012.83 1252.77 1021.49 1241.49 1032.77 1232.83 1045.9 1227.39 1060 1225.53 1074.1 1227.39 1087.23 1232.83 1098.51 1241.49 1107.17 1252.77 1112.61 1265.9 1114.47 1280 1114.47 1446.6 1157.86 1490 1166.51 1501.28 1171.96 1514.41 1173.81 1528.51 1173.81 1758.4 1171.96 1772.49 1166.51 1785.63 1165.47 1787 1165.47 1905.02 1170.08 1906.94 1174 1903.02 1174 1896.82 1176.44 1890.94 1180.94 1886.44 1186.82 1884 1193.18 1884 1199.06 1886.44 1203.56 1890.94 1206 1896.82 1210.82 1896.39 1210.82 1633.45 1206.44 1629.06 1204 1623.18 1204 1616.82 1206.44 1610.94 1210.94 1606.44 1216.82 1604 1223.18 1604 1229.06 1606.44 1233.56 1610.94 1236 1616.82 1236 1623.18 1233.56 1629.06 1229.18 1633.45 1229.18 1891 1231.44 1892.31 1234.18 1893.07 1236.08 1891.8 1236.44 1890.94 1240.94 1886.44 1246.82 1884 1253.18 1884 1259.06 1886.44 1263.45 1890.82 1637.26 1890.82 1638.32 1886.88 1642.79 1879.12 1649.12 1872.79 1656.88 1868.32 1665.52 1866 1674.48 1866 1683.12 1868.32 1690.88 1872.79 1697.21 1879.12 1701.68 1886.88 1704 1895.52 1704 1904.48 1701.68 1913.12 1697.21 1920.88 1690.88 1927.21 1683.12 1931.68 1674.48 1934 1665.52 1934 1656.88 1931.68 1649.12 1927.21 1642.79 1920.88 1638.32 1913.12 1637.26 1909.18 1263.45 1909.18 1259.06 1913.56 1253.18 1916 1246.82 1916 1240.94 1913.56 1236.44 1909.06 1236.08 1908.21 1234.18 1906.93 1231.44 1907.69 1229.18 1909 1229.18 1933.56 1229.24 1933.62 1231.23 1936.6 1231.65 1938.74 1232.98 1939.66 1234.71 1940.3 1236.92 1940.45 1240.94 1936.44 1246.82 1934 1253.18 1934 1259.06 1936.44 1263.45 1940.82 1716.2 1940.82 1740.36 1916.66 1738.32 1913.12 1736 1904.48 1736 1895.52 1738.32 1886.88 1742.79 1879.12 1749.12 1872.79 1756.88 1868.32 1765.52 1866 1774.48 1866 1783.12 1868.32 1790.88 1872.79 1797.21 1879.12 1801.68 1886.88 1804 1895.52 1804 1904.48 1801.68 1913.12 1797.21 1920.88 1790.88 1927.21 1783.12 1931.68 1774.48 1934 1765.52 1934 1756.88 1931.68 1753.34 1929.64 1726.49 1956.49 1723.51 1958.48 1720 1959.18 1263.45 1959.18 1259.06 1963.56 1253.18 1966 1246.82 1966 1240.94 1963.56 1236.92 1959.55 1234.64 1959.87 1233 1960.6 1231.92 1961.44 1231.92 2337.79 1338.83 2444.7 1541.88 2444.7 1544.8 2442.74 1548.31 2442.04 1690.2 2442.04 1693.72 2442.74 1696.69 2444.73 1725.27 2473.31 1727.26 2476.28 1727.96 2479.79 1727.96 2551.22 1727.26 2554.73 1725.27 2557.71 1699.64 2583.34 1701.68 2586.88 1704 2595.52 1704 2604.48 1701.68 2613.12 1697.21 2620.88 1690.88 2627.21 1683.12 2631.68 1674.48 2634 1665.52 2634 1656.88 2631.68 1649.12 2627.21 1642.79 2620.88 1638.32 2613.12 1636 2604.48 1636 2595.52 1638.32 2586.88 1642.79 2579.12 1649.12 2572.79 1656.88 2568.32 1665.52 2566 1674.48 2566 1683.12 2568.32 1686.66 2570.36 1709.6 2547.42 1709.6 2483.6 1686.4 2460.4 1552.1 2460.4 1549.17 2462.35 1545.66 2463.05 1335.03 2463.05 1331.52 2462.35 1328.54 2460.36 1217.18 2349 1213.59 2349.93 1212.18 2350.91 1212.18 2908.11 1334.89 3030.82 1416.2 3030.82 1424 3023.02 1424 3016.82 1426.44 3010.94 1430.94 3006.44 1436.82 3004 1443.18 3004 1449.06 3006.44 1453.56 3010.94 1456 3016.82 1456 3023.18 1453.56 3029.06 1449.06 3033.56 1443.18 3036 1436.98 3036 1426.49 3046.49 1423.51 3048.48 1420 3049.18 1331.09 3049.18 1327.57 3048.48 1324.6 3046.49 1196.51 2918.4 1195.77 2917.3 1190.77 2918.81 1190.77 3540.14 1364.33 3713.7 1433.33 3713.7 1438.77 3708.26 1436.81 3703.52 1436.81 3697.15 1439.24 3691.27 1443.74 3686.77 1449.62 3684.33 1455.99 3684.33 1461.87 3686.77 1466.37 3691.27 1468.8 3697.15 1468.8 3698.13 1469.18 3700 1468.8 3701.87 1468.8 3703.52 1466.37 3709.4 1461.87 3713.9 1457.11 3715.87 1443.61 3729.36 1440.64 3731.35 1437.13 3732.05"/><path d="M 3810.38 3931.95 3789.61 3931.95 3769.1 3928.7 3749.35 3922.29 3730.84 3912.86 3714.04 3900.65 3699.35 3885.96 3687.14 3869.16 3677.72 3850.65 3671.3 3830.9 3668.05 3810.38 3668.05 3789.61 3671.3 3769.1 3677.72 3749.35 3687.14 3730.84 3699.35 3714.04 3714.04 3699.35 3730.84 3687.14 3749.35 3677.72 3769.1 3671.3 3789.61 3668.05 3810.38 3668.05 3830.9 3671.3 3850.65 3677.72 3869.16 3687.14 3885.96 3699.35 3900.65 3714.04 3912.86 3730.84 3922.29 3749.35 3928.7 3769.1 3931.95 3789.61 3931.95 3810.38 3928.7 3830.9 3922.29 3850.65 3912.86 3869.16 3900.65 3885.96 3885.96 3900.65 3869.16 3912.86 3850.65 3922.29 3830.9 3928.7 3810.38 3931.95"/><path d="M 210.38 3931.95 189.61 3931.95 169.1 3928.7 149.35 3922.29 130.84 3912.86 114.04 3900.65 99.35 3885.96 87.14 3869.16 77.72 3850.65 71.3 3830.9 68.05 3810.38 68.05 3789.61 71.3 3769.1 77.72 3749.35 87.14 3730.84 99.35 3714.04 114.04 3699.35 130.84 3687.14 149.35 3677.72 169.1 3671.3 189.61 3668.05 210.38 3668.05 230.9 3671.3 250.65 3677.72 269.16 3687.14 285.96 3699.35 300.65 3714.04 312.86 3730.84 322.28 3749.35 328.7 3769.1 331.95 3789.61 331.95 3810.38 328.7 3830.9 322.28 3850.65 312.86 3869.16 300.65 3885.96 285.96 3900.65 269.16 3912.86 250.65 3922.29 230.9 3928.7 210.38 3931.95"/><path d="M 1083.18 3666 1076.82 3666 1072.65 3664.27 1023.43 3664.27 1023.43 3664.27 1017.97 3663.19 1013.34 3660.09 1013.34 3660.09 955.28 3602.03 935.51 3602.03 930.04 3600.95 925.41 3597.85 925.41 3597.85 889.73 3562.18 885.57 3560.45 881.07 3555.95 878.63 3550.07 878.63 3543.7 881.07 3537.82 885.57 3533.32 891.45 3530.88 897.81 3530.88 903.7 3533.32 908.2 3537.82 909.92 3541.99 941.42 3573.48 961.19 3573.48 961.19 3573.48 966.66 3574.57 971.29 3577.67 1029.35 3635.73 1072.65 3635.73 1076.82 3634 1083.18 3634 1089.06 3636.44 1093.56 3640.94 1096 3646.82 1096 3653.18 1093.56 3659.06 1089.06 3663.56 1083.18 3666"/><path d="M 3504.92 3826.05 3485.08 3826.05 3465.48 3822.94 3446.61 3816.81 3428.94 3807.81 3412.89 3796.14 3398.86 3782.11 3387.2 3766.06 3378.19 3748.38 3372.06 3729.52 3368.95 3709.92 3368.95 3690.08 3372.06 3670.48 3378.19 3651.61 3387.2 3633.94 3398.86 3617.89 3412.89 3603.86 3428.94 3592.2 3446.61 3583.19 3465.48 3577.06 3485.08 3573.95 3504.92 3573.95 3524.52 3577.06 3543.39 3583.19 3561.06 3592.2 3577.11 3603.86 3591.14 3617.89 3602.8 3633.94 3611.81 3651.61 3617.94 3670.48 3621.05 3690.08 3621.05 3709.92 3617.94 3729.52 3611.81 3748.38 3602.8 3766.06 3591.14 3782.11 3577.11 3796.14 3561.06 3807.81 3543.39 3816.81 3524.52 3822.94 3504.92 3826.05"/><path d="M 1854.92 3826.05 1835.08 3826.05 1815.48 3822.94 1796.62 3816.81 1778.94 3807.81 1762.89 3796.14 1748.86 3782.11 1737.2 3766.06 1728.19 3748.38 1722.06 3729.52 1718.95 3709.92 1718.95 3690.08 1722.06 3670.48 1728.19 3651.61 1737.2 3633.94 1748.86 3617.89 1762.89 3603.86 1778.94 3592.2 1796.62 3583.19 1815.48 3577.06 1835.08 3573.95 1854.92 3573.95 1874.52 3577.06 1893.39 3583.19 1911.06 3592.2 1927.11 3603.86 1941.14 3617.89 1952.81 3633.94 1961.81 3651.61 1967.94 3670.48 1971.05 3690.08 1971.05 3709.92 1967.94 3729.52 1961.81 3748.38 1952.81 3766.06 1941.14 3782.11 1927.11 3796.14 1911.06 3807.81 1893.39 3816.81 1874.52 3822.94 1854.92 3826.05"/><path d="M 3674.48 3534 3665.52 3534 3656.88 3531.68 3649.12 3527.21 3642.79 3520.88 3638.32 3513.12 3636 3504.48 3636 3495.52 3638.32 3486.88 3642.79 3479.12 3649.12 3472.79 3656.88 3468.32 3665.52 3466 3674.48 3466 3683.12 3468.32 3690.88 3472.79 3697.21 3479.12 3701.68 3486.88 3704 3495.52 3704 3504.48 3701.68 3513.12 3697.21 3520.88 3690.88 3527.21 3683.12 3531.68 3674.48 3534"/><path d="M 3574.48 3534 3565.52 3534 3556.88 3531.68 3549.12 3527.21 3542.79 3520.88 3538.32 3513.12 3536 3504.48 3536 3495.52 3538.32 3486.88 3542.79 3479.12 3549.12 3472.79 3556.88 3468.32 3565.52 3466 3574.48 3466 3583.12 3468.32 3590.88 3472.79 3597.21 3479.12 3601.68 3486.88 3604 3495.52 3604 3504.48 3601.68 3513.12 3597.21 3520.88 3590.88 3527.21 3583.12 3531.68 3574.48 3534"/><path d="M 217.54 3570.98 202.46 3570.98 187.89 3567.08 174.83 3559.54 164.16 3548.87 156.62 3535.81 152.72 3521.24 152.72 3506.16 156.62 3491.59 164.16 3478.53 174.83 3467.86 187.89 3460.32 202.46 3456.42 217.54 3456.42 232.11 3460.32 245.17 3467.86 255.84 3478.53 263.38 3491.59 267.28 3506.16 267.28 3521.24 263.38 3535.81 255.84 3548.87 245.17 3559.54 232.11 3567.08 217.54 3570.98"/><path d="M 3674.48 3434 3665.52 3434 3656.88 3431.68 3649.12 3427.21 3642.79 3420.88 3638.32 3413.12 3636 3404.48 3636 3395.52 3638.32 3386.88 3642.79 3379.12 3649.12 3372.79 3656.88 3368.32 3665.52 3366 3674.48 3366 3683.12 3368.32 3690.88 3372.79 3697.21 3379.12 3701.68 3386.88 3704 3395.52 3704 3404.48 3701.68 3413.12 3697.21 3420.88 3690.88 3427.21 3683.12 3431.68 3674.48 3434"/><path d="M 3574.48 3434 3565.52 3434 3556.88 3431.68 3549.12 3427.21 3542.79 3420.88 3538.32 3413.12 3536 3404.48 3536 3395.52 3538.32 3386.88 3542.79 3379.12 3549.12 3372.79 3556.88 3368.32 3565.52 3366 3574.48 3366 3583.12 3368.32 3590.88 3372.79 3597.21 3379.12 3601.68 3386.88 3604 3395.52 3604 3404.48 3601.68 3413.12 3597.21 3420.88 3590.88 3427.21 3583.12 3431.68 3574.48 3434"/><path d="M 3674.48 3334 3665.52 3334 3656.88 3331.68 3649.12 3327.21 3642.79 3320.88 3638.32 3313.12 3636 3304.48 3636 3295.52 3638.32 3286.88 3642.79 3279.12 3649.12 3272.79 3656.88 3268.32 3665.52 3266 3674.48 3266 3683.12 3268.32 3690.88 3272.79 3697.21 3279.12 3701.68 3286.88 3704 3295.52 3704 3304.48 3701.68 3313.12 3697.21 3320.88 3690.88 3327.21 3683.12 3331.68 3674.48 3334"/><path d="M 3574.48 3334 3565.52 3334 3556.88 3331.68 3549.12 3327.21 3542.79 3320.88 3538.32 3313.12 3536 3304.48 3536 3295.52 3538.32 3286.88 3542.79 3279.12 3549.12 3272.79 3556.88 3268.32 3565.52 3266 3574.48 3266 3583.12 3268.32 3590.88 3272.79 3597.21 3279.12 3601.68 3286.88 3604 3295.52 3604 3304.48 3601.68 3313.12 3597.21 3320.88 3590.88 3327.21 3583.12 3331.68 3574.48 3334"/><path d="M 1774.48 3334 1765.52 3334 1756.88 3331.68 1749.12 3327.21 1742.79 3320.88 1738.32 3313.12 1736 3304.48 1736 3295.52 1738.32 3286.88 1742.79 3279.12 1749.12 3272.79 1756.88 3268.32 1765.52 3266 1774.48 3266 1783.12 3268.32 1790.88 3272.79 1797.21 3279.12 1801.68 3286.88 1804 3295.52 1804 3304.48 1801.68 3313.12 1797.21 3320.88 1790.88 3327.21 1783.12 3331.68 1774.48 3334"/><path d="M 1674.48 3334 1665.52 3334 1656.88 3331.68 1649.12 3327.21 1642.79 3320.88 1638.32 3313.12 1636 3304.48 1636 3295.52 1638.32 3286.88 1642.79 3279.12 1649.12 3272.79 1656.88 3268.32 1665.52 3266 1674.48 3266 1683.12 3268.32 1690.88 3272.79 1697.21 3279.12 1701.68 3286.88 1704 3295.52 1704 3304.48 1701.68 3313.12 1697.21 3320.88 1690.88 3327.21 1683.12 3331.68 1674.48 3334"/><path d="M 217.54 3283.58 202.46 3283.58 187.89 3279.68 174.83 3272.14 164.16 3261.47 156.62 3248.41 152.72 3233.84 152.72 3218.76 156.62 3204.19 164.16 3191.13 174.83 3180.46 187.89 3172.92 202.46 3169.02 217.54 3169.02 232.11 3172.92 245.17 3180.46 255.84 3191.13 263.38 3204.19 267.28 3218.76 267.28 3233.84 263.38 3248.41 255.84 3261.47 245.17 3272.14 232.11 3279.68 217.54 3283.58"/><path d="M 3674.48 3234 3665.52 3234 3656.88 3231.68 3649.12 3227.21 3642.79 3220.88 3638.32 3213.12 3636 3204.48 3636 3195.52 3638.32 3186.88 3642.79 3179.12 3649.12 3172.79 3656.88 3168.32 3665.52 3166 3674.48 3166 3683.12 3168.32 3690.88 3172.79 3697.21 3179.12 3701.68 3186.88 3704 3195.52 3704 3204.48 3701.68 3213.12 3697.21 3220.88 3690.88 3227.21 3683.12 3231.68 3674.48 3234"/><path d="M 3574.48 3234 3565.52 3234 3556.88 3231.68 3549.12 3227.21 3542.79 3220.88 3538.32 3213.12 3536 3204.48 3536 3195.52 3538.32 3186.88 3542.79 3179.12 3549.12 3172.79 3556.88 3168.32 3565.52 3166 3574.48 3166 3583.12 3168.32 3590.88 3172.79 3597.21 3179.12 3601.68 3186.88 3604 3195.52 3604 3204.48 3601.68 3213.12 3597.21 3220.88 3590.88 3227.21 3583.12 3231.68 3574.48 3234"/><path d="M 1774.48 3234 1765.52 3234 1756.88 3231.68 1749.12 3227.21 1742.79 3220.88 1738.32 3213.12 1736 3204.48 1736 3195.52 1738.32 3186.88 1742.79 3179.12 1749.12 3172.79 1756.88 3168.32 1765.52 3166 1774.48 3166 1783.12 3168.32 1790.88 3172.79 1797.21 3179.12 1801.68 3186.88 1804 3195.52 1804 3204.48 1801.68 3213.12 1797.21 3220.88 1790.88 3227.21 1783.12 3231.68 1774.48 3234"/><path d="M 1674.48 3234 1665.52 3234 1656.88 3231.68 1649.12 3227.21 1642.79 3220.88 1638.32 3213.12 1636 3204.48 1636 3195.52 1638.32 3186.88 1642.79 3179.12 1649.12 3172.79 1656.88 3168.32 1665.52 3166 1674.48 3166 1683.12 3168.32 1690.88 3172.79 1697.21 3179.12 1701.68 3186.88 1704 3195.52 1704 3204.48 1701.68 3213.12 1697.21 3220.88 1690.88 3227.21 1683.12 3231.68 1674.48 3234"/><path d="M 3674.48 3134 3665.52 3134 3656.88 3131.68 3649.12 3127.21 3642.79 3120.88 3638.32 3113.12 3636 3104.48 3636 3095.52 3638.32 3086.88 3642.79 3079.12 3649.12 3072.79 3656.88 3068.32 3665.52 3066 3674.48 3066 3683.12 3068.32 3690.88 3072.79 3697.21 3079.12 3701.68 3086.88 3704 3095.52 3704 3104.48 3701.68 3113.12 3697.21 3120.88 3690.88 3127.21 3683.12 3131.68 3674.48 3134"/><path d="M 3574.48 3134 3565.52 3134 3556.88 3131.68 3549.12 3127.21 3542.79 3120.88 3538.32 3113.12 3536 3104.48 3536 3095.52 3538.32 3086.88 3542.79 3079.12 3549.12 3072.79 3556.88 3068.32 3565.52 3066 3574.48 3066 3583.12 3068.32 3590.88 3072.79 3597.21 3079.12 3601.68 3086.88 3604 3095.52 3604 3104.48 3601.68 3113.12 3597.21 3120.88 3590.88 3127.21 3583.12 3131.68 3574.48 3134"/><path d="M 1774.48 3134 1765.52 3134 1756.88 3131.68 1749.12 3127.21 1742.79 3120.88 1738.32 3113.12 1736 3104.48 1736 3095.52 1738.32 3086.88 1742.79 3079.12 1749.12 3072.79 1756.88 3068.32 1765.52 3066 1774.48 3066 1783.12 3068.32 1790.88 3072.79 1797.21 3079.12 1801.68 3086.88 1804 3095.52 1804 3104.48 1801.68 3113.12 1797.21 3120.88 1790.88 3127.21 1783.12 3131.68 1774.48 3134"/><path d="M 1674.48 3134 1665.52 3134 1656.88 3131.68 1649.12 3127.21 1642.79 3120.88 1638.32 3113.12 1636 3104.48 1636 3095.52 1638.32 3086.88 1642.79 3079.12 1649.12 3072.79 1656.88 3068.32 1665.52 3066 1674.48 3066 1683.12 3068.32 1690.88 3072.79 1697.21 3079.12 1701.68 3086.88 1704 3095.52 1704 3104.48 1701.68 3113.12 1697.21 3120.88 1690.88 3127.21 1683.12 3131.68 1674.48 3134"/><path d="M 3674.48 3034 3665.52 3034 3656.88 3031.68 3649.12 3027.21 3642.79 3020.88 3638.32 3013.12 3636 3004.48 3636 2995.52 3638.32 2986.88 3642.79 2979.12 3649.12 2972.79 3656.88 2968.32 3665.52 2966 3674.48 2966 3683.12 2968.32 3690.88 2972.79 3697.21 2979.12 3701.68 2986.88 3704 2995.52 3704 3004.48 3701.68 3013.12 3697.21 3020.88 3690.88 3027.21 3683.12 3031.68 3674.48 3034"/><path d="M 3574.48 3034 3565.52 3034 3556.88 3031.68 3549.12 3027.21 3542.79 3020.88 3538.32 3013.12 3536 3004.48 3536 2995.52 3538.32 2986.88 3542.79 2979.12 3549.12 2972.79 3556.88 2968.32 3565.52 2966 3574.48 2966 3583.12 2968.32 3590.88 2972.79 3597.21 2979.12 3601.68 2986.88 3604 2995.52 3604 3004.48 3601.68 3013.12 3597.21 3020.88 3590.88 3027.21 3583.12 3031.68 3574.48 3034"/><path d="M 1774.48 3034 1765.52 3034 1756.88 3031.68 1749.12 3027.21 1742.79 3020.88 1738.32 3013.12 1736 3004.48 1736 2995.52 1738.32 2986.88 1742.79 2979.12 1749.12 2972.79 1756.88 2968.32 1765.52 2966 1774.48 2966 1783.12 2968.32 1790.88 2972.79 1797.21 2979.12 1801.68 2986.88 1804 2995.52 1804 3004.48 1801.68 3013.12 1797.21 3020.88 1790.88 3027.21 1783.12 3031.68 1774.48 3034"/><path d="M 1674.48 3034 1665.52 3034 1656.88 3031.68 1649.12 3027.21 1642.79 3020.88 1638.32 3013.12 1636 3004.48 1636 2995.52 1638.32 2986.88 1642.79 2979.12 1649.12 2972.79 1656.88 2968.32 1665.52 2966 1674.48 2966 1683.12 2968.32 1690.88 2972.79 1697.21 2979.12 1701.68 2986.88 1704 2995.52 1704 3004.48 1701.68 3013.12 1697.21 3020.88 1690.88 3027.21 1683.12 3031.68 1674.48 3034"/><path d="M 212.19 3020.04 197.1 3020.04 182.53 3016.13 169.47 3008.59 158.81 2997.93 151.27 2984.87 147.36 2970.3 147.36 2955.21 151.27 2940.64 158.81 2927.58 169.47 2916.92 182.53 2909.38 197.1 2905.47 212.19 2905.47 226.76 2909.38 239.82 2916.92 250.48 2927.58 258.02 2940.64 261.93 2955.21 261.93 2970.3 258.02 2984.87 250.48 2997.93 239.82 3008.59 226.76 3016.13 212.19 3020.04"/><path d="M 3674.48 2934 3665.52 2934 3656.88 2931.68 3649.12 2927.21 3642.79 2920.88 3638.32 2913.12 3636 2904.48 3636 2895.52 3638.32 2886.88 3642.79 2879.12 3649.12 2872.79 3656.88 2868.32 3665.52 2866 3674.48 2866 3683.12 2868.32 3690.88 2872.79 3697.21 2879.12 3701.68 2886.88 3704 2895.52 3704 2904.48 3701.68 2913.12 3697.21 2920.88 3690.88 2927.21 3683.12 2931.68 3674.48 2934"/><path d="M 3574.48 2934 3565.52 2934 3556.88 2931.68 3549.12 2927.21 3542.79 2920.88 3538.32 2913.12 3536 2904.48 3536 2895.52 3538.32 2886.88 3542.79 2879.12 3549.12 2872.79 3556.88 2868.32 3565.52 2866 3574.48 2866 3583.12 2868.32 3590.88 2872.79 3597.21 2879.12 3601.68 2886.88 3604 2895.52 3604 2904.48 3601.68 2913.12 3597.21 2920.88 3590.88 2927.21 3583.12 2931.68 3574.48 2934"/><path d="M 1674.48 2934 1665.52 2934 1656.88 2931.68 1649.12 2927.21 1642.79 2920.88 1638.32 2913.12 1636 2904.48 1636 2895.52 1638.32 2886.88 1642.79 2879.12 1649.12 2872.79 1656.88 2868.32 1665.52 2866 1674.48 2866 1683.12 2868.32 1690.88 2872.79 1697.21 2879.12 1701.68 2886.88 1704 2895.52 1704 2904.48 1701.68 2913.12 1697.21 2920.88 1690.88 2927.21 1683.12 2931.68 1674.48 2934"/><path d="M 3674.48 2834 3665.52 2834 3656.88 2831.68 3649.12 2827.21 3642.79 2820.88 3638.32 2813.12 3636 2804.48 3636 2795.52 3638.32 2786.88 3642.79 2779.12 3649.12 2772.79 3656.88 2768.32 3665.52 2766 3674.48 2766 3683.12 2768.32 3690.88 2772.79 3697.21 2779.12 3701.68 2786.88 3704 2795.52 3704 2804.48 3701.68 2813.12 3697.21 2820.88 3690.88 2827.21 3683.12 2831.68 3674.48 2834"/><path d="M 3574.48 2834 3565.52 2834 3556.88 2831.68 3549.12 2827.21 3542.79 2820.88 3538.32 2813.12 3536 2804.48 3536 2795.52 3538.32 2786.88 3542.79 2779.12 3549.12 2772.79 3556.88 2768.32 3565.52 2766 3574.48 2766 3583.12 2768.32 3590.88 2772.79 3597.21 2779.12 3601.68 2786.88 3604 2795.52 3604 2804.48 3601.68 2813.12 3597.21 2820.88 3590.88 2827.21 3583.12 2831.68 3574.48 2834"/><path d="M 1774.48 2834 1765.52 2834 1756.88 2831.68 1749.12 2827.21 1742.79 2820.88 1738.32 2813.12 1736 2804.48 1736 2795.52 1738.32 2786.88 1742.79 2779.12 1749.12 2772.79 1756.88 2768.32 1765.52 2766 1774.48 2766 1783.12 2768.32 1790.88 2772.79 1797.21 2779.12 1801.68 2786.88 1804 2795.52 1804 2804.48 1801.68 2813.12 1797.21 2820.88 1790.88 2827.21 1783.12 2831.68 1774.48 2834"/><path d="M 1674.48 2834 1665.52 2834 1656.88 2831.68 1649.12 2827.21 1642.79 2820.88 1638.32 2813.12 1636 2804.48 1636 2795.52 1638.32 2786.88 1642.79 2779.12 1649.12 2772.79 1656.88 2768.32 1665.52 2766 1674.48 2766 1683.12 2768.32 1690.88 2772.79 1697.21 2779.12 1701.68 2786.88 1704 2795.52 1704 2804.48 1701.68 2813.12 1697.21 2820.88 1690.88 2827.21 1683.12 2831.68 1674.48 2834"/><path d="M 3674.48 2734 3665.52 2734 3656.88 2731.68 3649.12 2727.21 3642.79 2720.88 3638.32 2713.12 3636 2704.48 3636 2695.52 3638.32 2686.88 3642.79 2679.12 3649.12 2672.79 3656.88 2668.32 3665.52 2666 3674.48 2666 3683.12 2668.32 3690.88 2672.79 3697.21 2679.12 3701.68 2686.88 3704 2695.52 3704 2704.48 3701.68 2713.12 3697.21 2720.88 3690.88 2727.21 3683.12 2731.68 3674.48 2734"/><path d="M 3574.48 2734 3565.52 2734 3556.88 2731.68 3549.12 2727.21 3542.79 2720.88 3538.32 2713.12 3536 2704.48 3536 2695.52 3538.32 2686.88 3542.79 2679.12 3549.12 2672.79 3556.88 2668.32 3565.52 2666 3574.48 2666 3583.12 2668.32 3590.88 2672.79 3597.21 2679.12 3601.68 2686.88 3604 2695.52 3604 2704.48 3601.68 2713.12 3597.21 2720.88 3590.88 2727.21 3583.12 2731.68 3574.48 2734"/><path d="M 1774.48 2734 1765.52 2734 1756.88 2731.68 1749.12 2727.21 1742.79 2720.88 1738.32 2713.12 1736 2704.48 1736 2695.52 1738.32 2686.88 1742.79 2679.12 1749.12 2672.79 1756.88 2668.32 1765.52 2666 1774.48 2666 1783.12 2668.32 1790.88 2672.79 1797.21 2679.12 1801.68 2686.88 1804 2695.52 1804 2704.48 1801.68 2713.12 1797.21 2720.88 1790.88 2727.21 1783.12 2731.68 1774.48 2734"/><path d="M 1674.48 2734 1665.52 2734 1656.88 2731.68 1649.12 2727.21 1642.79 2720.88 1638.32 2713.12 1636 2704.48 1636 2695.52 1638.32 2686.88 1642.79 2679.12 1649.12 2672.79 1656.88 2668.32 1665.52 2666 1674.48 2666 1683.12 2668.32 1690.88 2672.79 1697.21 2679.12 1701.68 2686.88 1704 2695.52 1704 2704.48 1701.68 2713.12 1697.21 2720.88 1690.88 2727.21 1683.12 2731.68 1674.48 2734"/><path d="M 212.19 2732.64 197.1 2732.64 182.53 2728.73 169.47 2721.19 158.81 2710.53 151.27 2697.46 147.36 2682.9 147.36 2667.81 151.27 2653.24 158.81 2640.18 169.47 2629.52 182.53 2621.97 197.1 2618.07 212.19 2618.07 226.76 2621.97 239.82 2629.52 250.48 2640.18 258.02 2653.24 261.93 2667.81 261.93 2682.9 258.02 2697.46 250.48 2710.53 239.82 2721.19 226.76 2728.73 212.19 2732.64"/><path d="M 3674.48 2634 3665.52 2634 3656.88 2631.68 3649.12 2627.21 3642.79 2620.88 3638.32 2613.12 3636 2604.48 3636 2595.52 3638.32 2586.88 3642.79 2579.12 3649.12 2572.79 3656.88 2568.32 3665.52 2566 3674.48 2566 3683.12 2568.32 3690.88 2572.79 3697.21 2579.12 3701.68 2586.88 3704 2595.52 3704 2604.48 3701.68 2613.12 3697.21 2620.88 3690.88 2627.21 3683.12 2631.68 3674.48 2634"/><path d="M 3574.48 2634 3565.52 2634 3556.88 2631.68 3549.12 2627.21 3542.79 2620.88 3538.32 2613.12 3536 2604.48 3536 2595.52 3538.32 2586.88 3542.79 2579.12 3549.12 2572.79 3556.88 2568.32 3565.52 2566 3574.48 2566 3583.12 2568.32 3590.88 2572.79 3597.21 2579.12 3601.68 2586.88 3604 2595.52 3604 2604.48 3601.68 2613.12 3597.21 2620.88 3590.88 2627.21 3583.12 2631.68 3574.48 2634"/><path d="M 1774.48 2634 1765.52 2634 1756.88 2631.68 1749.12 2627.21 1742.79 2620.88 1738.32 2613.12 1736 2604.48 1736 2595.52 1738.32 2586.88 1742.79 2579.12 1749.12 2572.79 1756.88 2568.32 1765.52 2566 1774.48 2566 1783.12 2568.32 1790.88 2572.79 1797.21 2579.12 1801.68 2586.88 1804 2595.52 1804 2604.48 1801.68 2613.12 1797.21 2620.88 1790.88 2627.21 1783.12 2631.68 1774.48 2634"/><path d="M 3674.48 2534 3665.52 2534 3656.88 2531.68 3649.12 2527.21 3642.79 2520.88 3638.32 2513.12 3636 2504.48 3636 2495.52 3638.32 2486.88 3642.79 2479.12 3649.12 2472.79 3656.88 2468.32 3665.52 2466 3674.48 2466 3683.12 2468.32 3690.88 2472.79 3697.21 2479.12 3701.68 2486.88 3704 2495.52 3704 2504.48 3701.68 2513.12 3697.21 2520.88 3690.88 2527.21 3683.12 2531.68 3674.48 2534"/><path d="M 3574.48 2534 3565.52 2534 3556.88 2531.68 3549.12 2527.21 3542.79 2520.88 3538.32 2513.12 3536 2504.48 3536 2495.52 3538.32 2486.88 3542.79 2479.12 3549.12 2472.79 3556.88 2468.32 3565.52 2466 3574.48 2466 3583.12 2468.32 3590.88 2472.79 3597.21 2479.12 3601.68 2486.88 3604 2495.52 3604 2504.48 3601.68 2513.12 3597.21 2520.88 3590.88 2527.21 3583.12 2531.68 3574.48 2534"/><path d="M 1293.18 2956 1286.82 2956 1280.94 2953.56 1276.44 2949.06 1274 2943.18 1274 2936.82 1276.44 2930.94 1278.28 2929.1 1278.28 2880 1279.17 2875.51 1281.71 2871.71 1639.04 2514.38 1638.32 2513.12 1636 2504.48 1636 2495.52 1638.32 2486.88 1642.79 2479.12 1649.12 2472.79 1656.88 2468.32 1665.52 2466 1674.48 2466 1683.12 2468.32 1690.88 2472.79 1697.21 2479.12 1701.68 2486.88 1704 2495.52 1704 2504.48 1701.68 2513.12 1697.21 2520.88 1690.88 2527.21 1683.12 2531.68 1674.48 2534 1665.52 2534 1656.88 2531.68 1655.62 2530.96 1301.73 2884.86 1301.73 2929.1 1303.56 2930.94 1306 2936.82 1306 2943.18 1303.56 2949.06 1299.06 2953.56 1293.18 2956"/><path d="M 1303.18 3626 1296.82 3626 1290.94 3623.56 1286.44 3619.06 1284 3613.18 1284 3606.82 1286.44 3600.94 1290.94 3596.44 1295.1 3594.71 1299.91 3589.91 1299.91 3589.91 1304.54 3586.81 1310 3585.73 1738.61 3585.73 1738.92 3585.66 1740.11 3585.9 1809.6 3516.4 1809.6 2452.58 1786.66 2429.64 1783.12 2431.68 1774.48 2434 1765.52 2434 1756.88 2431.68 1749.12 2427.21 1742.79 2420.88 1738.32 2413.12 1736 2404.48 1736 2395.52 1738.32 2386.88 1742.79 2379.12 1749.12 2372.79 1756.88 2368.32 1765.52 2366 1774.48 2366 1783.12 2368.32 1790.88 2372.79 1797.21 2379.12 1801.68 2386.88 1804 2395.52 1804 2404.48 1801.68 2413.12 1799.64 2416.66 1825.27 2442.29 1827.26 2445.27 1827.96 2448.78 1827.96 3520.21 1827.26 3523.72 1825.27 3526.69 1753 3598.96 1753.19 3599.94 1752.11 3605.4 1749.25 3609.68 1749.35 3609.78 1749.3 3609.84 1748.96 3610.09 1748.96 3610.09 1744.32 3613.19 1738.86 3614.27 1315.91 3614.27 1315.29 3614.9 1313.56 3619.06 1309.06 3623.56 1303.18 3626"/><path d="M 3674.48 2434 3665.52 2434 3656.88 2431.68 3649.12 2427.21 3642.79 2420.88 3638.32 2413.12 3636 2404.48 3636 2395.52 3638.32 2386.88 3642.79 2379.12 3649.12 2372.79 3656.88 2368.32 3665.52 2366 3674.48 2366 3683.12 2368.32 3690.88 2372.79 3697.21 2379.12 3701.68 2386.88 3704 2395.52 3704 2404.48 3701.68 2413.12 3697.21 2420.88 3690.88 2427.21 3683.12 2431.68 3674.48 2434"/><path d="M 3574.48 2434 3565.52 2434 3556.88 2431.68 3549.12 2427.21 3542.79 2420.88 3538.32 2413.12 3536 2404.48 3536 2395.52 3538.32 2386.88 3542.79 2379.12 3549.12 2372.79 3556.88 2368.32 3565.52 2366 3574.48 2366 3583.12 2368.32 3590.88 2372.79 3597.21 2379.12 3601.68 2386.88 3604 2395.52 3604 2404.48 3601.68 2413.12 3597.21 2420.88 3590.88 2427.21 3583.12 2431.68 3574.48 2434"/><path d="M 1674.48 2434 1665.52 2434 1656.88 2431.68 1649.12 2427.21 1642.79 2420.88 1638.32 2413.12 1636 2404.48 1636 2395.52 1638.32 2386.88 1642.79 2379.12 1649.12 2372.79 1656.88 2368.32 1665.52 2366 1674.48 2366 1683.12 2368.32 1690.88 2372.79 1697.21 2379.12 1701.68 2386.88 1704 2395.52 1704 2404.48 1701.68 2413.12 1697.21 2420.88 1690.88 2427.21 1683.12 2431.68 1674.48 2434"/><path d="M 213.72 2479.24 198.63 2479.24 184.06 2475.33 171 2467.79 160.34 2457.13 152.8 2444.07 148.89 2429.5 148.89 2414.41 152.8 2399.84 160.34 2386.78 171 2376.12 184.06 2368.58 198.63 2364.67 213.72 2364.67 228.29 2368.58 241.35 2376.12 252.01 2386.78 259.56 2399.84 263.46 2414.41 263.46 2429.5 259.56 2444.07 252.01 2457.13 241.35 2467.79 228.29 2475.33 213.72 2479.24"/><path d="M 3674.48 2334 3665.52 2334 3656.88 2331.68 3649.12 2327.21 3642.79 2320.88 3638.32 2313.12 3636 2304.48 3636 2295.52 3638.32 2286.88 3642.79 2279.12 3649.12 2272.79 3656.88 2268.32 3665.52 2266 3674.48 2266 3683.12 2268.32 3690.88 2272.79 3697.21 2279.12 3701.68 2286.88 3704 2295.52 3704 2304.48 3701.68 2313.12 3697.21 2320.88 3690.88 2327.21 3683.12 2331.68 3674.48 2334"/><path d="M 3574.48 2334 3565.52 2334 3556.88 2331.68 3549.12 2327.21 3542.79 2320.88 3538.32 2313.12 3536 2304.48 3536 2295.52 3538.32 2286.88 3542.79 2279.12 3549.12 2272.79 3556.88 2268.32 3565.52 2266 3574.48 2266 3583.12 2268.32 3590.88 2272.79 3597.21 2279.12 3601.68 2286.88 3604 2295.52 3604 2304.48 3601.68 2313.12 3597.21 2320.88 3590.88 2327.21 3583.12 2331.68 3574.48 2334"/><path d="M 1023.18 2366 1016.82 2366 1010.94 2363.56 1006.44 2359.06 1004 2353.18 1004 2346.82 1006.44 2340.94 1010.82 2336.55 1010.82 2314.55 943.71 2247.44 914.24 2247.44 913.56 2249.06 909.06 2253.56 903.18 2256 896.82 2256 890.94 2253.56 886.44 2249.06 884 2243.18 884 2236.82 886.44 2230.94 890.94 2226.44 896.82 2224 903.18 2224 909.06 2226.44 911.71 2229.08 947.51 2229.08 951.02 2229.78 954 2231.77 1026.49 2304.26 1028.48 2307.24 1029.18 2310.75 1029.18 2336.55 1033.56 2340.94 1036 2346.82 1036 2353.18 1033.56 2359.06 1029.06 2363.56 1023.18 2366"/><path d="M 2530.85 2439.23 2524.48 2439.23 2518.6 2436.79 2514.1 2432.29 2511.66 2426.41 2511.66 2420.04 2512.84 2417.2 2512.77 2417.17 2501.49 2408.51 2381.49 2288.51 2372.83 2277.23 2367.39 2264.1 2365.53 2250 2367.39 2235.9 2372.83 2222.77 2381.49 2211.49 2392.77 2202.83 2405.9 2197.39 2420 2195.53 2434.1 2197.39 2447.23 2202.83 2458.51 2211.49 2578.51 2331.49 2587.17 2342.77 2592.61 2355.9 2594.47 2370 2592.61 2384.1 2587.17 2397.23 2578.51 2408.51 2567.23 2417.17 2554.1 2422.61 2543.66 2423.98 2543.66 2426.41 2541.23 2432.29 2536.73 2436.79 2530.85 2439.23"/><path d="M 3674.48 2234 3665.52 2234 3656.88 2231.68 3649.12 2227.21 3642.79 2220.88 3638.32 2213.12 3636 2204.48 3636 2195.52 3638.32 2186.88 3642.79 2179.12 3649.12 2172.79 3656.88 2168.32 3665.52 2166 3674.48 2166 3683.12 2168.32 3690.88 2172.79 3697.21 2179.12 3701.68 2186.88 3704 2195.52 3704 2204.48 3701.68 2213.12 3697.21 2220.88 3690.88 2227.21 3683.12 2231.68 3674.48 2234"/><path d="M 3574.48 2234 3565.52 2234 3556.88 2231.68 3549.12 2227.21 3542.79 2220.88 3538.32 2213.12 3536 2204.48 3536 2195.52 3538.32 2186.88 3542.79 2179.12 3549.12 2172.79 3556.88 2168.32 3565.52 2166 3574.48 2166 3583.12 2168.32 3590.88 2172.79 3597.21 2179.12 3601.68 2186.88 3604 2195.52 3604 2204.48 3601.68 2213.12 3597.21 2220.88 3590.88 2227.21 3583.12 2231.68 3574.48 2234"/><path d="M 1774.48 2234 1765.52 2234 1756.88 2231.68 1749.12 2227.21 1742.79 2220.88 1738.32 2213.12 1736 2204.48 1736 2195.52 1738.32 2186.88 1742.79 2179.12 1749.12 2172.79 1756.88 2168.32 1765.52 2166 1774.48 2166 1783.12 2168.32 1790.88 2172.79 1797.21 2179.12 1801.68 2186.88 1804 2195.52 1804 2204.48 1801.68 2213.12 1797.21 2220.88 1790.88 2227.21 1783.12 2231.68 1774.48 2234"/><path d="M 1674.48 2234 1665.52 2234 1656.88 2231.68 1649.12 2227.21 1642.79 2220.88 1638.32 2213.12 1636 2204.48 1636 2195.52 1638.32 2186.88 1642.79 2179.12 1649.12 2172.79 1656.88 2168.32 1665.52 2166 1674.48 2166 1683.12 2168.32 1690.88 2172.79 1697.21 2179.12 1701.68 2186.88 1704 2195.52 1704 2204.48 1701.68 2213.12 1697.21 2220.88 1690.88 2227.21 1683.12 2231.68 1674.48 2234"/><path d="M 2618.87 2347.95 2610 2347.95 2603.56 2346.67 2598.1 2343.02 2594.46 2337.56 2593.18 2331.13 2594.46 2324.69 2598.1 2319.23 2603.56 2315.58 2610 2314.3 2611.91 2314.3 2796.49 2129.72 2796.1 2127.29 2795.81 2126.95 2790.66 2124.55 2787.14 2126 2780.78 2126 2774.9 2123.56 2770.51 2119.18 2280 2119.18 2276.49 2118.48 2273.51 2116.49 1817.57 1660.55 1799.65 1659.18 1540 1659.18 1536.49 1658.48 1533.51 1656.49 1015.37 1138.35 1013.38 1135.37 1012.68 1131.86 1012.68 1124.93 1008.3 1120.54 1005.86 1114.66 1005.86 1108.29 1008.3 1102.41 1012.8 1097.91 1018.68 1095.48 1025.04 1095.48 1030.92 1097.91 1035.42 1102.41 1037.86 1108.29 1037.86 1114.66 1035.42 1120.54 1031.04 1124.93 1031.04 1128.06 1543.8 1640.82 1800 1640.82 1800.35 1640.89 1800.7 1640.85 1818.66 1642.22 1822.35 1642.51 1823.75 1642.89 1825.17 1643.18 1825.46 1643.37 1825.8 1643.47 1826.94 1644.36 1828.14 1645.17 1830.76 1647.78 1830.76 1647.78 2283.8 2100.82 2770.51 2100.82 2774.9 2096.44 2780.78 2094 2787.14 2094 2790.66 2095.45 2795.81 2093.05 2796.1 2092.71 2796.49 2090.28 2783.03 2076.82 2530 2076.82 2530 2076.82 2523.56 2075.54 2518.1 2071.9 2438.1 1991.9 2353.03 1906.82 2230 1906.82 2223.56 1905.54 2218.1 1901.9 2214.46 1896.44 2213.18 1890 2214.46 1883.56 2218.1 1878.1 2223.56 1874.46 2230 1873.18 2360 1873.18 2366.44 1874.46 2371.9 1878.1 2461.9 1968.1 2536.97 2043.18 2790 2043.18 2796.44 2044.46 2801.9 2048.1 2827.23 2073.44 2830.88 2078.9 2832.16 2085.34 2832.16 2134.66 2830.88 2141.1 2827.23 2146.56 2630.77 2343.02 2625.31 2346.67 2618.87 2347.95"/><path d="M 213.72 2191.84 198.63 2191.84 184.06 2187.93 171 2180.39 160.34 2169.73 152.8 2156.66 148.89 2142.09 148.89 2127.01 152.8 2112.44 160.34 2099.38 171 2088.72 184.06 2081.17 198.63 2077.27 213.72 2077.27 228.29 2081.17 241.35 2088.72 252.01 2099.38 259.56 2112.44 263.46 2127.01 263.46 2142.09 259.56 2156.66 252.01 2169.73 241.35 2180.39 228.29 2187.93 213.72 2191.84"/><path d="M 3674.48 2134 3665.52 2134 3656.88 2131.68 3649.12 2127.21 3642.79 2120.88 3638.32 2113.12 3636 2104.48 3636 2095.52 3638.32 2086.88 3642.79 2079.12 3649.12 2072.79 3656.88 2068.32 3665.52 2066 3674.48 2066 3683.12 2068.32 3690.88 2072.79 3697.21 2079.12 3701.68 2086.88 3704 2095.52 3704 2104.48 3701.68 2113.12 3697.21 2120.88 3690.88 2127.21 3683.12 2131.68 3674.48 2134"/><path d="M 3574.48 2134 3565.52 2134 3556.88 2131.68 3549.12 2127.21 3542.79 2120.88 3538.32 2113.12 3536 2104.48 3536 2095.52 3538.32 2086.88 3542.79 2079.12 3549.12 2072.79 3556.88 2068.32 3565.52 2066 3574.48 2066 3583.12 2068.32 3590.88 2072.79 3597.21 2079.12 3601.68 2086.88 3604 2095.52 3604 2104.48 3601.68 2113.12 3597.21 2120.88 3590.88 2127.21 3583.12 2131.68 3574.48 2134"/><path d="M 1674.48 2134 1665.52 2134 1656.88 2131.68 1649.12 2127.21 1642.79 2120.88 1638.32 2113.12 1636 2104.48 1636 2095.52 1638.32 2086.88 1642.79 2079.12 1649.12 2072.79 1656.88 2068.32 1665.52 2066 1674.48 2066 1683.12 2068.32 1690.88 2072.79 1697.21 2079.12 1701.68 2086.88 1704 2095.52 1704 2104.48 1701.68 2113.12 1697.21 2120.88 1690.88 2127.21 1683.12 2131.68 1674.48 2134"/><path d="M 3674.48 2034 3665.52 2034 3656.88 2031.68 3649.12 2027.21 3642.79 2020.88 3638.32 2013.12 3636 2004.48 3636 1995.52 3638.32 1986.88 3642.79 1979.12 3649.12 1972.79 3656.88 1968.32 3665.52 1966 3674.48 1966 3683.12 1968.32 3690.88 1972.79 3697.21 1979.12 3701.68 1986.88 3704 1995.52 3704 2004.48 3701.68 2013.12 3697.21 2020.88 3690.88 2027.21 3683.12 2031.68 3674.48 2034"/><path d="M 3574.48 2034 3565.52 2034 3556.88 2031.68 3549.12 2027.21 3542.79 2020.88 3538.32 2013.12 3536 2004.48 3536 1995.52 3538.32 1986.88 3542.79 1979.12 3549.12 1972.79 3556.88 1968.32 3565.52 1966 3574.48 1966 3583.12 1968.32 3590.88 1972.79 3597.21 1979.12 3601.68 1986.88 3604 1995.52 3604 2004.48 3601.68 2013.12 3597.21 2020.88 3590.88 2027.21 3583.12 2031.68 3574.48 2034"/><path d="M 3674.48 1934 3665.52 1934 3656.88 1931.68 3649.12 1927.21 3642.79 1920.88 3638.32 1913.12 3636 1904.48 3636 1895.52 3638.32 1886.88 3642.79 1879.12 3649.12 1872.79 3656.88 1868.32 3665.52 1866 3674.48 1866 3683.12 1868.32 3690.88 1872.79 3697.21 1879.12 3701.68 1886.88 3704 1895.52 3704 1904.48 3701.68 1913.12 3697.21 1920.88 3690.88 1927.21 3683.12 1931.68 3674.48 1934"/><path d="M 3574.48 1934 3565.52 1934 3556.88 1931.68 3549.12 1927.21 3542.79 1920.88 3538.32 1913.12 3536 1904.48 3536 1895.52 3538.32 1886.88 3542.79 1879.12 3549.12 1872.79 3556.88 1868.32 3565.52 1866 3574.48 1866 3583.12 1868.32 3590.88 1872.79 3597.21 1879.12 3601.68 1886.88 3604 1895.52 3604 1904.48 3601.68 1913.12 3597.21 1920.88 3590.88 1927.21 3583.12 1931.68 3574.48 1934"/><path d="M 212.19 1930.04 197.1 1930.04 182.53 1926.14 169.47 1918.59 158.81 1907.93 151.27 1894.87 147.36 1880.3 147.36 1865.21 151.27 1850.64 158.81 1837.58 169.47 1826.92 182.53 1819.38 197.1 1815.47 212.19 1815.47 226.76 1819.38 239.82 1826.92 250.48 1837.58 258.02 1850.64 261.93 1865.21 261.93 1880.3 258.02 1894.87 250.48 1907.93 239.82 1918.59 226.76 1926.14 212.19 1930.04"/><path d="M 3674.48 1834 3665.52 1834 3656.88 1831.68 3649.12 1827.21 3642.79 1820.88 3638.32 1813.12 3636 1804.48 3636 1795.52 3638.32 1786.88 3642.79 1779.12 3649.12 1772.79 3656.88 1768.32 3665.52 1766 3674.48 1766 3683.12 1768.32 3690.88 1772.79 3697.21 1779.12 3701.68 1786.88 3704 1795.52 3704 1804.48 3701.68 1813.12 3697.21 1820.88 3690.88 1827.21 3683.12 1831.68 3674.48 1834"/><path d="M 3574.48 1834 3565.52 1834 3556.88 1831.68 3549.12 1827.21 3542.79 1820.88 3538.32 1813.12 3536 1804.48 3536 1795.52 3538.32 1786.88 3542.79 1779.12 3549.12 1772.79 3556.88 1768.32 3565.52 1766 3574.48 1766 3583.12 1768.32 3590.88 1772.79 3597.21 1779.12 3601.68 1786.88 3604 1795.52 3604 1804.48 3601.68 1813.12 3597.21 1820.88 3590.88 1827.21 3583.12 1831.68 3574.48 1834"/><path d="M 1774.48 1834 1765.52 1834 1756.88 1831.68 1749.12 1827.21 1742.79 1820.88 1738.32 1813.12 1736 1804.48 1736 1795.52 1738.32 1786.88 1742.79 1779.12 1749.12 1772.79 1756.88 1768.32 1765.52 1766 1774.48 1766 1783.12 1768.32 1790.88 1772.79 1797.21 1779.12 1801.68 1786.88 1804 1795.52 1804 1804.48 1801.68 1813.12 1797.21 1820.88 1790.88 1827.21 1783.12 1831.68 1774.48 1834"/><path d="M 1774.48 2034 1765.52 2034 1756.88 2031.68 1749.12 2027.21 1742.79 2020.88 1738.32 2013.12 1736 2004.48 1736 1995.52 1738.32 1986.88 1742.79 1979.12 1749.12 1972.79 1756.88 1968.32 1765.52 1966 1774.48 1966 1783.12 1968.32 1786.66 1970.36 1820.82 1936.2 1820.82 1883.8 1794.98 1857.96 1540.45 1857.96 1536.94 1857.26 1533.96 1855.27 1375.71 1697.01 1373.51 1698.48 1370 1699.18 1366.49 1698.48 1363.51 1696.49 1361.79 1693.92 1360.94 1693.56 1356.44 1689.06 1354 1683.18 1354 1676.82 1356.44 1670.94 1360.94 1666.44 1366.82 1664 1373.18 1664 1379.06 1666.44 1383.56 1670.94 1386 1676.82 1386 1681.35 1544.25 1839.6 1798.78 1839.6 1802.29 1840.3 1805.27 1842.29 1836.49 1873.51 1838.48 1876.49 1839.18 1880 1839.18 1940 1838.48 1943.51 1836.49 1946.49 1799.64 1983.34 1801.68 1986.88 1804 1995.52 1804 2004.48 1801.68 2013.12 1797.21 2020.88 1790.88 2027.21 1783.12 2031.68 1774.48 2034"/><path d="M 3674.48 1734 3665.52 1734 3656.88 1731.68 3649.12 1727.21 3642.79 1720.88 3638.32 1713.12 3636 1704.48 3636 1695.52 3638.32 1686.88 3642.79 1679.12 3649.12 1672.79 3656.88 1668.32 3665.52 1666 3674.48 1666 3683.12 1668.32 3690.88 1672.79 3697.21 1679.12 3701.68 1686.88 3704 1695.52 3704 1704.48 3701.68 1713.12 3697.21 1720.88 3690.88 1727.21 3683.12 1731.68 3674.48 1734"/><path d="M 3574.48 1734 3565.52 1734 3556.88 1731.68 3549.12 1727.21 3542.79 1720.88 3538.32 1713.12 3536 1704.48 3536 1695.52 3538.32 1686.88 3542.79 1679.12 3549.12 1672.79 3556.88 1668.32 3565.52 1666 3574.48 1666 3583.12 1668.32 3590.88 1672.79 3597.21 1679.12 3601.68 1686.88 3604 1695.52 3604 1704.48 3601.68 1713.12 3597.21 1720.88 3590.88 1727.21 3583.12 1731.68 3574.48 1734"/><path d="M 1774.48 1734 1765.52 1734 1756.88 1731.68 1749.12 1727.21 1742.79 1720.88 1738.32 1713.12 1736 1704.48 1736 1695.52 1738.32 1686.88 1742.79 1679.12 1749.12 1672.79 1756.88 1668.32 1765.52 1666 1774.48 1666 1783.12 1668.32 1790.88 1672.79 1797.21 1679.12 1801.68 1686.88 1804 1695.52 1804 1704.48 1801.68 1713.12 1797.21 1720.88 1790.88 1727.21 1783.12 1731.68 1774.48 1734"/><path d="M 1674.48 1734 1665.52 1734 1656.88 1731.68 1649.12 1727.21 1642.79 1720.88 1638.32 1713.12 1636 1704.48 1636 1695.52 1638.32 1686.88 1642.79 1679.12 1649.12 1672.79 1656.88 1668.32 1665.52 1666 1674.48 1666 1683.12 1668.32 1690.88 1672.79 1697.21 1679.12 1701.68 1686.88 1704 1695.52 1704 1704.48 1701.68 1713.12 1697.21 1720.88 1690.88 1727.21 1683.12 1731.68 1674.48 1734"/><path d="M 3674.48 1634 3665.52 1634 3656.88 1631.68 3649.12 1627.21 3642.79 1620.88 3638.32 1613.12 3636 1604.48 3636 1595.52 3638.32 1586.88 3642.79 1579.12 3649.12 1572.79 3656.88 1568.32 3665.52 1566 3674.48 1566 3683.12 1568.32 3690.88 1572.79 3697.21 1579.12 3701.68 1586.88 3704 1595.52 3704 1604.48 3701.68 1613.12 3697.21 1620.88 3690.88 1627.21 3683.12 1631.68 3674.48 1634"/><path d="M 3574.48 1634 3565.52 1634 3556.88 1631.68 3549.12 1627.21 3542.79 1620.88 3538.32 1613.12 3536 1604.48 3536 1595.52 3538.32 1586.88 3542.79 1579.12 3549.12 1572.79 3556.88 1568.32 3565.52 1566 3574.48 1566 3583.12 1568.32 3590.88 1572.79 3597.21 1579.12 3601.68 1586.88 3604 1595.52 3604 1604.48 3601.68 1613.12 3597.21 1620.88 3590.88 1627.21 3583.12 1631.68 3574.48 1634"/><path d="M 1774.48 1634 1765.52 1634 1756.88 1631.68 1749.12 1627.21 1742.79 1620.88 1738.32 1613.12 1736 1604.48 1736 1595.52 1738.32 1586.88 1742.79 1579.12 1749.12 1572.79 1756.88 1568.32 1765.52 1566 1774.48 1566 1783.12 1568.32 1790.88 1572.79 1797.21 1579.12 1801.68 1586.88 1804 1595.52 1804 1604.48 1801.68 1613.12 1797.21 1620.88 1790.88 1627.21 1783.12 1631.68 1774.48 1634"/><path d="M 1674.48 1634 1665.52 1634 1656.88 1631.68 1649.12 1627.21 1642.79 1620.88 1638.32 1613.12 1636 1604.48 1636 1595.52 1638.32 1586.88 1642.79 1579.12 1649.12 1572.79 1656.88 1568.32 1665.52 1566 1674.48 1566 1683.12 1568.32 1690.88 1572.79 1697.21 1579.12 1701.68 1586.88 1704 1595.52 1704 1604.48 1701.68 1613.12 1697.21 1620.88 1690.88 1627.21 1683.12 1631.68 1674.48 1634"/><path d="M 1013.18 1626 1006.82 1626 1000.94 1623.56 996.44 1619.06 994 1613.18 994 1606.82 996.44 1600.94 1000.82 1596.55 1000.82 1580.37 976.67 1556.21 931.87 1556.21 931.6 1556.49 928.62 1558.48 925.11 1559.18 883.45 1559.18 879.06 1563.56 873.18 1566 866.82 1566 860.94 1563.56 856.44 1559.06 854 1553.18 854 1546.82 856.44 1540.94 860.94 1536.44 866.82 1534 873.18 1534 879.06 1536.44 883.45 1540.82 921.31 1540.82 921.58 1540.55 924.56 1538.56 928.07 1537.86 980.47 1537.86 983.98 1538.56 986.96 1540.55 1016.49 1570.08 1018.48 1573.05 1019.18 1576.57 1019.18 1596.55 1023.56 1600.94 1026 1606.82 1026 1613.18 1023.56 1619.06 1019.06 1623.56 1013.18 1626"/><path d="M 212.19 1642.64 197.1 1642.64 182.53 1638.73 169.47 1631.19 158.81 1620.53 151.27 1607.47 147.36 1592.9 147.36 1577.81 151.27 1563.24 158.81 1550.18 169.47 1539.52 182.53 1531.98 197.1 1528.07 212.19 1528.07 226.76 1531.98 239.82 1539.52 250.48 1550.18 258.02 1563.24 261.93 1577.81 261.93 1592.9 258.02 1607.47 250.48 1620.53 239.82 1631.19 226.76 1638.73 212.19 1642.64"/><path d="M 3674.48 1534 3665.52 1534 3656.88 1531.68 3649.12 1527.21 3642.79 1520.88 3638.32 1513.12 3636 1504.48 3636 1495.52 3638.32 1486.88 3642.79 1479.12 3649.12 1472.79 3656.88 1468.32 3665.52 1466 3674.48 1466 3683.12 1468.32 3690.88 1472.79 3697.21 1479.12 3701.68 1486.88 3704 1495.52 3704 1504.48 3701.68 1513.12 3697.21 1520.88 3690.88 1527.21 3683.12 1531.68 3674.48 1534"/><path d="M 3574.48 1534 3565.52 1534 3556.88 1531.68 3549.12 1527.21 3542.79 1520.88 3538.32 1513.12 3536 1504.48 3536 1495.52 3538.32 1486.88 3542.79 1479.12 3549.12 1472.79 3556.88 1468.32 3565.52 1466 3574.48 1466 3583.12 1468.32 3590.88 1472.79 3597.21 1479.12 3601.68 1486.88 3604 1495.52 3604 1504.48 3601.68 1513.12 3597.21 1520.88 3590.88 1527.21 3583.12 1531.68 3574.48 1534"/><path d="M 1774.48 1534 1765.52 1534 1756.88 1531.68 1749.12 1527.21 1742.79 1520.88 1738.32 1513.12 1736 1504.48 1736 1495.52 1738.32 1486.88 1742.79 1479.12 1749.12 1472.79 1756.88 1468.32 1765.52 1466 1774.48 1466 1783.12 1468.32 1790.88 1472.79 1797.21 1479.12 1801.68 1486.88 1804 1495.52 1804 1504.48 1801.68 1513.12 1797.21 1520.88 1790.88 1527.21 1783.12 1531.68 1774.48 1534"/><path d="M 1674.48 1534 1665.52 1534 1656.88 1531.68 1649.12 1527.21 1642.79 1520.88 1638.32 1513.12 1636 1504.48 1636 1495.52 1638.32 1486.88 1642.79 1479.12 1649.12 1472.79 1656.88 1468.32 1665.52 1466 1674.48 1466 1683.12 1468.32 1690.88 1472.79 1697.21 1479.12 1701.68 1486.88 1704 1495.52 1704 1504.48 1701.68 1513.12 1697.21 1520.88 1690.88 1527.21 1683.12 1531.68 1674.48 1534"/><path d="M 3674.48 1434 3665.52 1434 3656.88 1431.68 3649.12 1427.21 3642.79 1420.88 3638.32 1413.12 3636 1404.48 3636 1395.52 3638.32 1386.88 3642.79 1379.12 3649.12 1372.79 3656.88 1368.32 3665.52 1366 3674.48 1366 3683.12 1368.32 3690.88 1372.79 3697.21 1379.12 3701.68 1386.88 3704 1395.52 3704 1404.48 3701.68 1413.12 3697.21 1420.88 3690.88 1427.21 3683.12 1431.68 3674.48 1434"/><path d="M 3574.48 1434 3565.52 1434 3556.88 1431.68 3549.12 1427.21 3542.79 1420.88 3538.32 1413.12 3536 1404.48 3536 1395.52 3538.32 1386.88 3542.79 1379.12 3549.12 1372.79 3556.88 1368.32 3565.52 1366 3574.48 1366 3583.12 1368.32 3590.88 1372.79 3597.21 1379.12 3601.68 1386.88 3604 1395.52 3604 1404.48 3601.68 1413.12 3597.21 1420.88 3590.88 1427.21 3583.12 1431.68 3574.48 1434"/><path d="M 1774.48 1434 1765.52 1434 1756.88 1431.68 1749.12 1427.21 1742.79 1420.88 1738.32 1413.12 1736 1404.48 1736 1395.52 1738.32 1386.88 1742.79 1379.12 1749.12 1372.79 1756.88 1368.32 1765.52 1366 1774.48 1366 1783.12 1368.32 1790.88 1372.79 1797.21 1379.12 1801.68 1386.88 1804 1395.52 1804 1404.48 1801.68 1413.12 1797.21 1420.88 1790.88 1427.21 1783.12 1431.68 1774.48 1434"/><path d="M 1674.48 1434 1665.52 1434 1656.88 1431.68 1649.12 1427.21 1642.79 1420.88 1638.32 1413.12 1636 1404.48 1636 1395.52 1638.32 1386.88 1642.79 1379.12 1649.12 1372.79 1656.88 1368.32 1665.52 1366 1674.48 1366 1683.12 1368.32 1690.88 1372.79 1697.21 1379.12 1701.68 1386.88 1704 1395.52 1704 1404.48 1701.68 1413.12 1697.21 1420.88 1690.88 1427.21 1683.12 1431.68 1674.48 1434"/><path d="M 3629.92 1226.05 3610.08 1226.05 3590.48 1222.94 3571.61 1216.81 3553.94 1207.81 3537.89 1196.14 3523.86 1182.11 3512.2 1166.06 3503.19 1148.39 3497.06 1129.52 3493.95 1109.92 3493.95 1090.08 3497.06 1070.48 3503.19 1051.61 3512.2 1033.94 3523.86 1017.89 3537.89 1003.86 3553.94 992.2 3571.61 983.19 3590.48 977.06 3610.08 973.95 3629.92 973.95 3649.52 977.06 3668.39 983.19 3686.06 992.2 3702.11 1003.86 3716.14 1017.89 3727.8 1033.94 3736.81 1051.61 3742.94 1070.48 3746.05 1090.08 3746.05 1109.92 3742.94 1129.52 3736.81 1148.39 3727.8 1166.06 3716.14 1182.11 3702.11 1196.14 3686.06 1207.81 3668.39 1216.81 3649.52 1222.94 3629.92 1226.05"/><path d="M 1729.92 1226.05 1710.08 1226.05 1690.48 1222.94 1671.62 1216.81 1653.94 1207.81 1637.89 1196.14 1623.86 1182.11 1612.2 1166.06 1603.19 1148.39 1597.06 1129.52 1593.95 1109.92 1593.95 1090.08 1597.06 1070.48 1603.19 1051.61 1612.2 1033.94 1623.86 1017.89 1637.89 1003.86 1653.94 992.2 1671.62 983.19 1690.48 977.06 1710.08 973.95 1729.92 973.95 1749.52 977.06 1768.39 983.19 1786.06 992.2 1802.11 1003.86 1816.14 1017.89 1827.81 1033.94 1836.81 1051.61 1842.94 1070.48 1846.05 1090.08 1846.05 1109.92 1842.94 1129.52 1836.81 1148.39 1827.81 1166.06 1816.14 1182.11 1802.11 1196.14 1786.06 1207.81 1768.39 1216.81 1749.52 1222.94 1729.92 1226.05"/><path d="M 933.18 936 926.82 936 920.94 933.56 916.44 929.06 914.71 924.9 845.1 855.29 840.94 853.56 836.44 849.06 834.04 843.29 832.85 841.5 831.76 836.04 832.85 830.57 835.94 825.94 840.57 822.85 846.04 821.76 851.5 822.85 853.29 824.04 859.06 826.44 863.56 830.94 865.29 835.1 934.9 904.71 939.06 906.44 943.56 910.94 946 916.82 946 923.18 943.56 929.06 939.06 933.56 933.18 936"/><path d="M 723.18 686 716.82 686 710.94 683.56 706.44 679.06 704 673.18 704 666.82 706.44 660.94 710.94 656.44 716.82 654 723.18 654 729.06 656.44 733.56 660.94 736 666.82 736 673.18 733.56 679.06 729.06 683.56 723.18 686"/><path d="M 1523.61 696.2 1517.24 696.2 1511.36 693.76 1506.86 689.26 1504.43 683.38 1504.43 677.01 1506.86 671.13 1511.36 666.63 1517.24 664.2 1519.85 664.2 1724.5 459.54 1728.3 457 1732.79 456.11 1741.95 456.11 1741.95 353.87 1799.94 353.87 1799.94 476.84 1758.18 476.84 1755.43 478.67 1750.94 479.56 1737.65 479.56 1536.43 680.78 1536.43 683.38 1533.99 689.26 1529.49 693.76 1523.61 696.2"/><path d="M 1774.48 2534 1765.52 2534 1756.88 2531.68 1749.12 2527.21 1742.79 2520.88 1738.32 2513.12 1736 2504.48 1736 2495.52 1738.32 2486.88 1742.79 2479.12 1749.12 2472.79 1749.2 2472.18 1714.73 2437.71 1712.74 2434.73 1712.04 2431.22 1712.04 2386.04 1686.4 2360.4 1653.6 2360.4 1630.4 2383.6 1630.4 2402.92 1629.7 2406.43 1627.71 2409.41 1621.85 2415.27 1618.87 2417.26 1615.36 2417.96 1551.79 2417.96 1548.28 2417.26 1545.31 2415.27 1540.35 2410.31 1328.04 2410.31 1324.52 2409.61 1321.55 2407.62 1298.49 2384.56 1296.5 2381.58 1295.8 2378.07 1295.8 2338.78 1273.51 2316.49 1271.52 2313.51 1270.93 2310.53 1268.3 2307.89 1265.86 2302.02 1265.86 2295.65 1268.3 2289.77 1272.8 2285.27 1278.68 2282.83 1285.04 2282.83 1290.92 2285.27 1295.42 2289.77 1297.86 2295.65 1297.86 2302.02 1295.42 2307.89 1293.15 2310.17 1311.46 2328.49 1313.45 2331.46 1314.15 2334.98 1314.15 2374.27 1331.84 2391.96 1415 2391.96 1417.07 2386.96 1416.44 2386.32 1414 2380.44 1414 2374.08 1416.44 2368.2 1420.82 2363.81 1420.82 2250 1421.52 2246.49 1423.51 2243.51 1644.47 2022.55 1642.79 2020.88 1638.32 2013.12 1636 2004.48 1636 1995.52 1638.32 1986.88 1642.79 1979.12 1649.12 1972.79 1656.88 1968.32 1665.52 1966 1674.48 1966 1683.12 1968.32 1690.88 1972.79 1697.21 1979.12 1701.68 1986.88 1704 1995.52 1704 2004.48 1701.68 2013.12 1697.21 2020.88 1690.88 2027.21 1683.12 2031.68 1674.48 2034 1665.52 2034 1660.36 2032.62 1439.18 2253.8 1439.18 2363.81 1443.56 2368.2 1446 2374.08 1446 2380.44 1443.56 2386.32 1442.93 2386.96 1445 2391.96 1544.15 2391.96 1547.66 2392.66 1550.64 2394.64 1555.6 2399.6 1611.56 2399.6 1612.04 2399.12 1612.04 2379.8 1612.74 2376.28 1614.73 2373.31 1643.31 2344.73 1646.28 2342.74 1649.8 2342.04 1690.2 2342.04 1692.44 2342.49 1695.2 2338.18 1686.66 2329.64 1683.12 2331.68 1674.48 2334 1665.52 2334 1656.88 2331.68 1649.12 2327.21 1642.79 2320.88 1638.32 2313.12 1636 2304.48 1636 2295.52 1638.32 2286.88 1642.79 2279.12 1649.12 2272.79 1656.88 2268.32 1665.52 2266 1674.48 2266 1683.12 2268.32 1690.88 2272.79 1697.21 2279.12 1701.68 2286.88 1704 2295.52 1704 2304.48 1701.68 2313.12 1699.64 2316.66 1722.58 2339.6 1976.67 2339.6 2002.1 2314.18 2000.03 2309.18 1802.74 2309.18 1801.68 2313.12 1797.21 2320.88 1790.88 2327.21 1783.12 2331.68 1774.48 2334 1765.52 2334 1756.88 2331.68 1749.12 2327.21 1742.79 2320.88 1738.32 2313.12 1736 2304.48 1736 2295.52 1738.32 2286.88 1742.79 2279.12 1749.12 2272.79 1756.88 2268.32 1765.52 2266 1774.48 2266 1783.12 2268.32 1790.88 2272.79 1797.21 2279.12 1801.68 2286.88 1802.74 2290.82 2095.09 2290.82 2097.16 2285.82 1920.51 2109.18 1802.74 2109.18 1801.68 2113.12 1797.21 2120.88 1790.88 2127.21 1783.12 2131.68 1774.48 2134 1765.52 2134 1756.88 2131.68 1749.12 2127.21 1742.79 2120.88 1738.32 2113.12 1736 2104.48 1736 2095.52 1738.32 2086.88 1742.79 2079.12 1749.12 2072.79 1756.88 2068.32 1765.52 2066 1774.48 2066 1783.12 2068.32 1790.88 2072.79 1797.21 2079.12 1801.68 2086.88 1802.74 2090.82 1924.31 2090.82 1927.82 2091.52 1930.8 2093.51 2109.59 2272.3 2123.21 2272.3 2124.73 2267.3 2123.51 2266.49 1863.51 2006.49 1861.52 2003.51 1860.82 2000 1860.82 1803.8 1816.2 1759.18 1723.8 1759.18 1699.64 1783.34 1701.68 1786.88 1704 1795.52 1704 1804.48 1701.68 1813.12 1697.21 1820.88 1690.88 1827.21 1683.12 1831.68 1674.48 1834 1665.52 1834 1656.88 1831.68 1649.12 1827.21 1642.79 1820.88 1638.32 1813.12 1636 1804.48 1636 1795.52 1638.32 1786.88 1642.79 1779.12 1649.12 1772.79 1656.88 1768.32 1665.52 1766 1674.48 1766 1683.12 1768.32 1686.66 1770.36 1713.51 1743.51 1716.49 1741.52 1720 1740.82 1820 1740.82 1823.51 1741.52 1826.49 1743.51 1876.49 1793.51 1878.48 1796.49 1879.18 1800 1879.18 1996.2 2133.8 2250.82 2146.39 2250.82 2146.82 2246 2140.94 2243.56 2136.44 2239.06 2134 2233.18 2134 2226.82 2136.44 2220.94 2140.94 2216.44 2146.82 2214 2153.18 2214 2159.06 2216.44 2163.45 2220.82 2270 2220.82 2273.51 2221.52 2276.49 2223.51 2513.8 2460.82 2669.15 2460.82 2831.54 2298.44 2832.12 2295.51 2834.66 2291.71 2838.46 2289.17 2842.95 2288.28 2852.46 2288.28 2853.19 2283.58 2847.31 2281.14 2842.81 2276.64 2840.37 2270.76 2840.37 2264.39 2842.81 2258.51 2847.2 2254.12 2847.2 2070.17 2134.98 1357.96 1288.78 1357.96 1285.27 1357.26 1282.29 1355.27 1093.51 1166.49 1091.52 1163.51 1090.82 1160 1090.82 1123.45 1086.44 1119.06 1084 1113.18 1084 1106.82 1086.44 1100.94 1090.94 1096.44 1096.82 1094 1096.39 1089.18 893.8 1089.18 666 1316.98 666 1323.18 663.56 1329.06 659.06 1333.56 653.18 1336 646.82 1336 640.94 1333.56 636.44 1329.06 634 1323.18 634 1316.82 636.44 1310.94 640.94 1306.44 646.82 1304 653.02 1304 883.51 1073.51 886.49 1071.52 890 1070.82 1123.76 1070.82 1127.27 1071.52 1130.25 1073.51 1200.36 1143.62 1202.35 1146.6 1203.05 1150.11 1203.05 1203.51 1212.15 1212.61 1216.89 1210.28 1215.53 1200 1215.53 1032.56 987.44 804.47 415.47 804.47 413.56 809.06 409.06 813.56 403.18 816 396.82 816 390.94 813.56 386.44 809.06 384 803.18 384 801.82 372.77 797.17 361.49 788.51 352.83 777.23 347.39 764.1 345.53 750 347.39 735.9 352.83 722.77 361.49 711.49 372.77 702.83 385.9 697.39 400 695.53 1010 695.53 1024.1 697.39 1037.23 702.83 1048.51 711.49 1189 851.97 1194 849.9 1194 846.82 1196.44 840.94 1200.94 836.44 1206.82 834 1213.18 834 1217.35 835.73 1284.09 835.73 1369.71 750.1 1369.71 750.1 1374.34 747.01 1379.8 745.92 1379.8 745.92 1513.08 745.92 1517.24 744.2 1523.61 744.2 1529.49 746.63 1533.99 751.13 1536.43 757.01 1536.43 763.38 1533.99 769.26 1529.49 773.76 1523.61 776.2 1517.24 776.2 1513.08 774.47 1385.72 774.47 1300.09 860.09 1295.46 863.19 1290 864.27 1290 864.27 1217.35 864.27 1213.18 866 1210.1 866 1208.03 871 1270 932.97 1361.49 841.49 1372.77 832.83 1385.9 827.39 1400 825.53 1400 825.53 2480 825.53 2494.1 827.39 2507.23 832.83 2518.51 841.49 2528.51 851.49 2537.17 862.77 2542.61 875.9 2544.47 890 2542.61 904.1 2537.17 917.23 2528.51 928.51 2517.23 937.17 2504.1 942.61 2490 944.47 2475.9 942.61 2462.77 937.17 2459.24 934.47 1422.56 934.47 1324.47 1032.56 1324.47 1200 1322.61 1214.1 1317.17 1227.23 1308.51 1238.51 1300.35 1244.78 1302.05 1249.78 1506.64 1249.78 1515.98 1240.43 1519.79 1237.89 1524.27 1236.99 1791.24 1236.99 1795.73 1237.89 1796.31 1238.28 2290 1238.28 2294.49 1239.17 2298.29 1241.71 2828.43 1771.85 2831.71 1771.69 2833.83 1766.74 2821.71 1754.62 2819.17 1750.82 2818.27 1746.33 2818.27 941.83 2201.28 324.83 2198.68 324.83 2192.8 322.4 2188.29 317.89 2185.86 312.01 2185.86 305.65 2188.29 299.77 2192.8 295.27 2198.68 292.83 2205.04 292.83 2210.92 295.27 2215.42 299.77 2217.86 305.65 2217.86 308.25 2838.29 928.68 2840.83 932.48 2841.73 936.97 2841.73 1741.47 2908.29 1808.04 2910.83 1811.84 2911.73 1816.33 2911.73 2290 2910.83 2294.49 2908.29 2298.29 2898.29 2308.29 2894.49 2310.83 2890 2311.72 2844.2 2311.72 2679.44 2476.49 2676.46 2478.48 2672.95 2479.18 2510 2479.18 2506.49 2478.48 2503.51 2476.49 2266.2 2239.18 2243.61 2239.18 2243.18 2244 2249.06 2246.44 2253.56 2250.94 2256 2256.82 2256 2263.18 2253.56 2269.06 2252.07 2270.55 2254.91 2274.79 2256.82 2274 2263.18 2274 2269.06 2276.44 2273.56 2280.94 2276 2286.82 2276 2289.38 2276.7 2293.3 2280.62 2294 2283.18 2294 2289.06 2296.44 2293.56 2300.94 2296 2306.82 2296 2313.18 2293.56 2319.06 2289.06 2323.56 2283.18 2326 2276.82 2326 2270.94 2323.56 2270.33 2322.96 2269.89 2323.05 2255.54 2323.05 2252.24 2328.05 2253.43 2330.92 2253.43 2337.28 2252.72 2339 2253.18 2344 2259.06 2346.44 2263.56 2350.94 2266 2356.82 2266 2363.18 2263.56 2369.06 2259.06 2373.56 2253.18 2376 2246.82 2376 2240.94 2373.56 2236.55 2369.18 2043.45 2369.18 2039.06 2373.56 2033.18 2376 2026.82 2376 2020.94 2373.56 2016.44 2369.06 2014 2363.18 2014 2356.82 2016.44 2350.94 2020.94 2346.44 2026.82 2344 2033.18 2344 2039.06 2346.44 2043.45 2350.82 2224.45 2350.82 2226.52 2345.82 2223.87 2343.16 2221.43 2337.28 2221.43 2331.08 2218.05 2327.7 2014.53 2327.7 1986.96 2355.27 1983.99 2357.26 1980.47 2357.96 1718.78 2357.96 1715.73 2362.45 1715.61 2363.65 1727.71 2375.75 1729.7 2378.72 1730.4 2382.24 1730.4 2427.42 1766.92 2463.94 1768.3 2466 1774.48 2466 1783.12 2468.32 1790.88 2472.79 1797.21 2479.12 1801.68 2486.88 1804 2495.52 1804 2504.48 1801.68 2513.12 1797.21 2520.88 1790.88 2527.21 1783.12 2531.68 1774.48 2534"/><path d="M 2074.16 335.3 1969.7 335.3 1969.7 277.3 2074.16 277.3 2074.16 335.3"/><path d="M 1690.3 335.3 1585.84 335.3 1585.84 277.3 1690.3 277.3 1690.3 335.3"/><path d="M 1981.24 257.28 1966.16 257.28 1951.59 253.38 1938.53 245.84 1927.86 235.17 1920.32 222.11 1916.42 207.54 1916.42 192.46 1920.32 177.89 1927.86 164.83 1938.53 154.16 1951.59 146.62 1966.16 142.72 1981.24 142.72 1995.81 146.62 2008.87 154.16 2019.54 164.83 2027.08 177.89 2030.98 192.46 2030.98 207.54 2027.08 222.11 2019.54 235.17 2008.87 245.84 1995.81 253.38 1981.24 257.28"/><path d="M 1693.84 257.28 1678.76 257.28 1664.19 253.38 1651.13 245.84 1640.46 235.17 1632.92 222.11 1629.02 207.54 1629.02 192.46 1632.92 177.89 1640.46 164.83 1651.13 154.16 1664.19 146.62 1678.76 142.72 1693.84 142.72 1708.41 146.62 1721.47 154.16 1732.14 164.83 1739.68 177.89 1743.58 192.46 1743.58 207.54 1739.68 222.11 1732.14 235.17 1721.47 245.84 1708.41 253.38 1693.84 257.28"/><path d="M 1471.24 257.28 1456.16 257.28 1441.59 253.38 1428.53 245.84 1417.86 235.17 1410.32 222.11 1406.42 207.54 1406.42 192.46 1410.32 177.89 1417.86 164.83 1428.53 154.16 1441.59 146.62 1456.16 142.72 1471.24 142.72 1485.81 146.62 1498.87 154.16 1509.54 164.83 1517.08 177.89 1520.98 192.46 1520.98 207.54 1517.08 222.11 1509.54 235.17 1498.87 245.84 1485.81 253.38 1471.24 257.28"/><path d="M 1183.84 257.28 1168.76 257.28 1154.19 253.38 1141.13 245.84 1130.46 235.17 1122.92 222.11 1119.02 207.54 1119.02 192.46 1122.92 177.89 1130.46 164.83 1141.13 154.16 1154.19 146.62 1168.76 142.72 1183.84 142.72 1198.41 146.62 1211.47 154.16 1222.14 164.83 1229.68 177.89 1233.58 192.46 1233.58 207.54 1229.68 222.11 1222.14 235.17 1211.47 245.84 1198.41 253.38 1183.84 257.28"/><path d="M 3810.38 331.95 3789.61 331.95 3769.1 328.7 3749.35 322.28 3730.84 312.86 3714.04 300.65 3699.35 285.96 3687.14 269.16 3677.72 250.65 3671.3 230.9 3668.05 210.38 3668.05 189.61 3671.3 169.1 3677.72 149.35 3687.14 130.84 3699.35 114.04 3714.04 99.35 3730.84 87.14 3749.35 77.72 3769.1 71.3 3789.61 68.05 3810.38 68.05 3830.9 71.3 3850.65 77.72 3869.16 87.14 3885.96 99.35 3900.65 114.04 3912.86 130.84 3922.29 149.35 3928.7 169.1 3931.95 189.61 3931.95 210.38 3928.7 230.9 3922.29 250.65 3912.86 269.16 3900.65 285.96 3885.96 300.65 3869.16 312.86 3850.65 322.28 3830.9 328.7 3810.38 331.95"/><path d="M 210.38 331.95 189.61 331.95 169.1 328.7 149.35 322.28 130.84 312.86 114.04 300.65 99.35 285.96 87.14 269.16 77.72 250.65 71.3 230.9 68.05 210.38 68.05 189.61 71.3 169.1 77.72 149.35 87.14 130.84 99.35 114.04 114.04 99.35 130.84 87.14 149.35 77.72 169.1 71.3 189.61 68.05 210.38 68.05 230.9 71.3 250.65 77.72 269.16 87.14 285.96 99.35 300.65 114.04 312.86 130.84 322.28 149.35 328.7 169.1 331.95 189.61 331.95 210.38 328.7 230.9 322.28 250.65 312.86 269.16 300.65 285.96 285.96 300.65 269.16 312.86 250.65 322.28 230.9 328.7 210.38 331.95"/></g></mask><rect x="-25" y="-57.48" width="50" height="114.96" id="PiFXUbWBFcDu_pad-52"/><rect x="-48.23" y="-25" width="96.46" height="50" id="PiFXUbWBFcDu_pad-53"/><circle cx="0" cy="0" r="39.37" id="PiFXUbWBFcDu_pad-99"/><circle cx="0" cy="0" r="30" id="PiFXUbWBFcDu_pad-100"/><circle cx="0" cy="0" r="122.05" id="PiFXUbWBFcDu_pad-101"/><circle cx="0" cy="0" r="127.955" id="PiFXUbWBFcDu_pad-102"/><circle cx="0" cy="0" r="11" id="PiFXUbWBFcDu_pad-103"/></defs><g transform="translate(0,4000) scale(1,-1)" fill="currentColor" stroke="currentColor"><g mask="url(#PiFXUbWBFcDu_clear-1)"><path d="M 3926.83 3988.44 3943.56 3981.5 3958.63 3971.44 3971.44 3958.63 3981.5 3943.56 3988.44 3926.83 3991.97 3909.06 3991.97 3900 3991.97 100 3991.97 90.94 3988.44 73.17 3981.5 56.44 3971.44 41.37 3958.63 28.56 3943.56 18.5 3926.83 11.56 3909.06 8.03 90.94 8.03 73.17 11.56 56.44 18.5 41.37 28.56 28.56 41.37 18.5 56.44 11.56 73.17 8.03 90.94 8.03 100 8.03 3900 8.03 3909.06 11.56 3926.83 18.5 3943.56 28.56 3958.63 41.37 3971.44 56.44 3981.5 73.17 3988.44 90.94 3991.97 3909.06 3991.97 3926.83 3988.44"/></g><path d="M 2888.27 2285.14 2888.27 1821.18 2877.37 1810.28 2872.37 1812.36 2872.37 1813.18 2869.94 1819.06 2865.44 1823.56 2859.56 1826 2853.19 1826 2847.31 1823.56 2842.81 1819.06 2840.37 1813.18 2840.37 1810.58 2825.71 1795.92 2824.2 1795.92 2819.71 1795.03 2815.91 1792.49 2285.14 1261.72 1792.52 1261.72 1788.03 1260.83 1787.45 1260.45 1529.13 1260.45 1519.78 1269.79 1515.98 1272.33 1511.49 1273.22 1244.53 1273.22 1240.04 1272.33 1236.24 1269.79 1226.5 1260.06 1223.96 1256.26 1223.07 1251.77 1223.45 1249.86 1187.38 1213.8 1185.4 1210.82 1184.7 1207.31 1184.7 1153.91 1119.96 1089.18 1103.61 1089.18 1103.18 1094 1109.06 1096.44 1113.56 1100.94 1116 1106.82 1116 1113.18 1113.56 1119.06 1109.18 1123.45 1109.18 1156.2 1292.58 1339.6 2138.78 1339.6 2142.29 1340.3 2145.27 1342.29 2862.86 2059.89 2864.85 2062.86 2865.55 2066.37 2865.55 2254.12 2869.94 2258.51 2872.37 2264.39 2872.37 2270.76 2869.94 2276.64 2865.44 2281.14 2859.56 2283.58 2860.28 2288.28 2885.14 2288.28 2888.27 2285.14"/><path d="M 1520 680 1520.62 680 M 1750.94 467.84 1770.94 447.83 M 1770.94 415.35 1770.94 447.83 M 2856.37 2066.37 2856.37 2267.58 M 2010.73 2318.52 2221.85 2318.52 2237.43 2334.1 M 2280 2110 2783.96 2110 M 1824.27 1654.27 2280 2110 M 2138.78 1348.78 2856.37 2066.37 M 1288.78 1348.78 2138.78 1348.78 M 650 1320 890 1080 1123.76 1080 M 1100 1160 1288.78 1348.78 M 1830 1880 1830 1940 M 1540.45 1848.78 1798.78 1848.78 1830 1880 M 1375.84 1684.16 1540.45 1848.78 M 1430 2250 1670 2010 M 1430 2250 1430 2377.26 M 1670 2000 1670 2010 M 1760.43 2470.43 1760.43 2490.43 M 1721.22 2382.24 1721.22 2431.22 M 1760.43 2490.43 1770 2500 M 1721.22 2431.22 1760.43 2470.43 M 1739.93 3599.06 1818.78 3520.21 M 1738.92 3599.94 1739.93 3599.06 M 1193.87 1207.31 1234.79 1248.23 1234.79 1251.77 M 2672.95 2470 2842.95 2300 M 1770 2300 2236.24 2300 M 1100 1110 1100 1160 M 2510 2470 2672.95 2470 M 1820 1750 1870 1800 M 1870 2000 2130 2260 M 1870 1800 1870 2000 M 1980.47 2348.78 2010.73 2318.52 M 1670 2300 1718.78 2348.78 1980.47 2348.78 M 920 2870 921.74 2868.26 987.51 2868.26 M 1040 2920.75 1040 2960 M 987.51 2868.26 1040 2920.75 M 901.74 2238.26 947.51 2238.26 M 900 2240 901.74 2238.26 M 947.51 2238.26 1020 2310.75 1020 2350 M 928.07 1547.04 980.47 1547.04 M 870 1550 925.11 1550 928.07 1547.04 M 1010 1576.57 1010 1610 M 980.47 1547.04 1010 1576.57 M 1193.87 1150.11 1193.87 1207.31 M 1123.76 1080 1193.87 1150.11 M 2150 2230 2270 2230 2510 2470 M 1924.31 2100 2105.79 2281.48 M 2130 2260 2240 2260 M 2231.4 2283.87 2239.91 2283.87 M 2105.79 2281.48 2229 2281.48 2231.4 2283.87 M 2239.91 2283.87 2243.74 2287.7 M 2271.47 2312.3 2277.7 2312.3 M 2250.11 2313.87 2269.89 2313.87 M 2277.7 2312.3 2280 2310 M 2243.74 2287.7 2257.7 2287.7 2260 2290 M 2269.89 2313.87 2271.47 2312.3 M 2236.24 2300 2250.11 2313.87 M 1181.6 2658.16 1189 2650.76 M 1181.6 2658.16 1181.6 3543.95 1360.53 3722.87 M 1021.86 1111.48 1021.86 1131.86 M 1540 1650 1800 1650 M 1021.86 1131.86 1540 1650 M 1222.75 2341.59 1335.03 2453.87 M 1170 1920 1170 1972.19 M 1203 2911.91 1331.09 3040 M 1198.87 1950 1198.87 1981.27 M 1220 1937.36 1222.75 1940.11 M 1189 1991.19 1189 2650.76 M 1222.75 1940.11 1222.75 2341.59 M 1198.87 1981.27 1203 1985.39 M 1220 1620 1220 1937.36 M 1203 1985.39 1203 2911.91 M 1170 1920 1190 1900 M 1170 1972.19 1189 1991.19 M 1821.66 1651.65 1824.27 1654.27 M 1800 1650 1817.96 1651.37 1821.66 1651.65 M 1544.15 2401.13 1551.79 2408.78 M 1621.22 2379.8 1621.22 2402.92 M 1328.04 2401.13 1544.15 2401.13 M 1551.79 2408.78 1615.36 2408.78 1621.22 2402.92 M 1304.98 2334.98 1304.98 2378.07 1328.04 2401.13 M 1545.66 2453.87 1548.31 2451.22 M 1335.03 2453.87 1545.66 2453.87 M 1548.31 2451.22 1690.2 2451.22 1718.78 2479.79 M 1331.09 3040 1420 3040 1440 3020 M 1360.53 3722.87 1437.13 3722.87 1460 3700 M 2030 2360 2250 2360 M 1250 1950 1720 1950 M 1240 1900 1250 1900 M 1240 1950 1250 1950 M 1250 1900 1670 1900 M 1280 2300 1280 2310 M 1720 1950 1770 1900 M 1818.78 2448.78 1818.78 3520.21 M 1770 2400 1818.78 2448.78 M 1718.78 2479.79 1718.78 2551.22 M 1670 2600 1718.78 2551.22 M 1280 2310 1304.98 2334.98 M 1621.22 2379.8 1649.8 2351.22 1690.2 2351.22 1721.22 2382.24 M 1370 1690 1375.84 1684.16 M 1770 2000 1830 1940 M 1720 1750 1820 1750 M 1670 1800 1720 1750 M 1770 2100 1924.31 2100" fill="none" stroke-width="10"/><use xlink:href="#PiFXUbWBFcDu_pad-52" x="1770.94" y="415.35"/><use xlink:href="#PiFXUbWBFcDu_pad-52" x="1889.06" y="415.35"/><use xlink:href="#PiFXUbWBFcDu_pad-53" x="1638.07" y="306.3"/><use xlink:href="#PiFXUbWBFcDu_pad-53" x="2021.93" y="306.3"/><path d="M 1738.86 3600 A 145.8276366 145.8276366 0 0 1 1738.92 3599.94 M 1290 850 1379.8 760.2 1520.43 760.2 M 1210 850 1290 850 M 1310 3600 1738.86 3600 M 1300 3610 1310 3600 M 1738.92 3599.94 1738.92 3599.94 M 846.04 836.04 930 920 M 935.51 3587.76 961.19 3587.76 M 894.63 3546.89 935.51 3587.76 M 1023.43 3650 1080 3650 M 961.19 3587.76 1023.43 3650" fill="none" stroke-width="20"/><path d="M 1270 1010 1270 1200 M 1111 2015.63 1111 2644.62 M 1110 2646.32 1110 3310 M 1010 750 1270 1010 M 400 750 1010 750 M 2420 2250 2540 2370 M 2480 880 2490 890 M 1400 880 2480 880 M 1270 1010 1400 880 M 1119.35 1528.51 1119.35 1758.4 M 1111 1766.74 1111 1996.63 M 1060 1280 1060 1469.16 M 1111 1996.63 1130 2015.63 M 1111 1766.74 1119.35 1758.4 M 1060 1469.16 1119.35 1528.51" fill="none" stroke-width="100"/><path d="M 1520.62 680 1732.79 467.84 1750.94 467.84 M 2830.57 1784.2 2856.37 1810 M 2290 1250 2824.2 1784.2 2830.57 1784.2 M 2830 936.97 2830 1746.33 M 2201.86 308.83 2830 936.97 M 1234.79 1251.77 1244.53 1261.5 M 1511.49 1261.5 1524.27 1248.72 M 1792.52 1250 2290 1250 M 1791.24 1248.72 1792.52 1250 M 1244.53 1261.5 1511.49 1261.5 M 1524.27 1248.72 1791.24 1248.72 M 2842.95 2300 2890 2300 2900 2290 M 2900 1816.33 2900 2290 M 2830 1746.33 2900 1816.33 M 1290 2880 1290 2940 M 1290 2880 1670 2500" fill="none" stroke-width="15"/><path d="M 2790 2060 2815.34 2085.34 M 2360 1890 2450 1980 2530 2060 2790 2060 M 2815.34 2085.34 2815.34 2134.66 M 2618.87 2331.13 2815.34 2134.66 M 2610 2331.13 2618.87 2331.13 M 2230 1890 2360 1890" fill="none" stroke-width="25"/><use xlink:href="#PiFXUbWBFcDu_pad-99" x="204.65" y="1872.76"/><use xlink:href="#PiFXUbWBFcDu_pad-99" x="204.65" y="1585.35"/><use xlink:href="#PiFXUbWBFcDu_pad-99" x="206.18" y="2421.95"/><use xlink:href="#PiFXUbWBFcDu_pad-99" x="206.18" y="2134.55"/><use xlink:href="#PiFXUbWBFcDu_pad-99" x="210" y="3513.7"/><use xlink:href="#PiFXUbWBFcDu_pad-99" x="210" y="3226.3"/><use xlink:href="#PiFXUbWBFcDu_pad-99" x="204.65" y="2962.76"/><use xlink:href="#PiFXUbWBFcDu_pad-99" x="204.65" y="2675.35"/><use xlink:href="#PiFXUbWBFcDu_pad-99" x="1686.3" y="200"/><use xlink:href="#PiFXUbWBFcDu_pad-99" x="1973.7" y="200"/><use xlink:href="#PiFXUbWBFcDu_pad-99" x="1463.7" y="200"/><use xlink:href="#PiFXUbWBFcDu_pad-99" x="1176.3" y="200"/><use xlink:href="#PiFXUbWBFcDu_pad-100" x="1670" y="1800"/><use xlink:href="#PiFXUbWBFcDu_pad-100" x="1770" y="1500"/><use xlink:href="#PiFXUbWBFcDu_pad-100" x="1670" y="1500"/><use xlink:href="#PiFXUbWBFcDu_pad-100" x="1770" y="2400"/><use xlink:href="#PiFXUbWBFcDu_pad-100" x="1670" y="2500"/><use xlink:href="#PiFXUbWBFcDu_pad-100" x="1770" y="2500"/><use xlink:href="#PiFXUbWBFcDu_pad-100" x="1670" y="2600"/><use xlink:href="#PiFXUbWBFcDu_pad-100" x="3670" y="3500"/><use xlink:href="#PiFXUbWBFcDu_pad-100" x="3670" y="3400"/><use xlink:href="#PiFXUbWBFcDu_pad-100" x="3670" y="3300"/><use xlink:href="#PiFXUbWBFcDu_pad-100" x="3670" y="3200"/><use xlink:href="#PiFXUbWBFcDu_pad-100" x="3670" y="3100"/><use xlink:href="#PiFXUbWBFcDu_pad-100" x="3670" y="3000"/><use xlink:href="#PiFXUbWBFcDu_pad-100" x="3670" y="2900"/><use xlink:href="#PiFXUbWBFcDu_pad-100" x="3670" y="2800"/><use xlink:href="#PiFXUbWBFcDu_pad-100" x="3670" y="2700"/><use xlink:href="#PiFXUbWBFcDu_pad-100" x="3670" y="2600"/><use xlink:href="#PiFXUbWBFcDu_pad-100" x="3670" y="2500"/><use xlink:href="#PiFXUbWBFcDu_pad-100" x="3670" y="2400"/><use xlink:href="#PiFXUbWBFcDu_pad-100" x="3670" y="2300"/><use xlink:href="#PiFXUbWBFcDu_pad-100" x="3670" y="2200"/><use xlink:href="#PiFXUbWBFcDu_pad-100" x="3670" y="2100"/><use xlink:href="#PiFXUbWBFcDu_pad-100" x="3670" y="2000"/><use xlink:href="#PiFXUbWBFcDu_pad-100" x="3670" y="1900"/><use xlink:href="#PiFXUbWBFcDu_pad-100" x="3670" y="1800"/><use xlink:href="#PiFXUbWBFcDu_pad-100" x="3670" y="1700"/><use xlink:href="#PiFXUbWBFcDu_pad-100" x="3670" y="1600"/><use xlink:href="#PiFXUbWBFcDu_pad-100" x="3670" y="1500"/><use xlink:href="#PiFXUbWBFcDu_pad-100" x="3670" y="1400"/><use xlink:href="#PiFXUbWBFcDu_pad-100" x="3670" y="1300"/><use xlink:href="#PiFXUbWBFcDu_pad-100" x="3570" y="3500"/><use xlink:href="#PiFXUbWBFcDu_pad-100" x="3570" y="3400"/><use xlink:href="#PiFXUbWBFcDu_pad-100" x="3570" y="3300"/><use xlink:href="#PiFXUbWBFcDu_pad-100" x="3570" y="3200"/><use xlink:href="#PiFXUbWBFcDu_pad-100" x="3570" y="3100"/><use xlink:href="#PiFXUbWBFcDu_pad-100" x="3570" y="3000"/><use xlink:href="#PiFXUbWBFcDu_pad-100" x="3570" y="2900"/><use xlink:href="#PiFXUbWBFcDu_pad-100" x="3570" y="2800"/><use xlink:href="#PiFXUbWBFcDu_pad-100" x="3570" y="2700"/><use xlink:href="#PiFXUbWBFcDu_pad-100" x="3570" y="2600"/><use xlink:href="#PiFXUbWBFcDu_pad-100" x="3570" y="2500"/><use xlink:href="#PiFXUbWBFcDu_pad-100" x="3570" y="2400"/><use xlink:href="#PiFXUbWBFcDu_pad-100" x="3570" y="2300"/><use xlink:href="#PiFXUbWBFcDu_pad-100" x="3570" y="2200"/><use xlink:href="#PiFXUbWBFcDu_pad-100" x="3570" y="2100"/><use xlink:href="#PiFXUbWBFcDu_pad-100" x="3570" y="2000"/><use xlink:href="#PiFXUbWBFcDu_pad-100" x="3570" y="1900"/><use xlink:href="#PiFXUbWBFcDu_pad-100" x="3570" y="1800"/><use xlink:href="#PiFXUbWBFcDu_pad-100" x="3570" y="1700"/><use xlink:href="#PiFXUbWBFcDu_pad-100" x="3570" y="1600"/><use xlink:href="#PiFXUbWBFcDu_pad-100" x="3570" y="1500"/><use xlink:href="#PiFXUbWBFcDu_pad-100" x="3570" y="1400"/><use xlink:href="#PiFXUbWBFcDu_pad-100" x="3570" y="1300"/><use xlink:href="#PiFXUbWBFcDu_pad-100" x="1770" y="3500"/><use xlink:href="#PiFXUbWBFcDu_pad-100" x="1770" y="3400"/><use xlink:href="#PiFXUbWBFcDu_pad-100" x="1770" y="3300"/><use xlink:href="#PiFXUbWBFcDu_pad-100" x="1770" y="3200"/><use xlink:href="#PiFXUbWBFcDu_pad-100" x="1770" y="3100"/><use xlink:href="#PiFXUbWBFcDu_pad-100" x="1770" y="3000"/><use xlink:href="#PiFXUbWBFcDu_pad-100" x="1770" y="2900"/><use xlink:href="#PiFXUbWBFcDu_pad-100" x="1770" y="2800"/><use xlink:href="#PiFXUbWBFcDu_pad-100" x="1770" y="2700"/><use xlink:href="#PiFXUbWBFcDu_pad-100" x="1770" y="2600"/><use xlink:href="#PiFXUbWBFcDu_pad-100" x="1770" y="2300"/><use xlink:href="#PiFXUbWBFcDu_pad-100" x="1770" y="2200"/><use xlink:href="#PiFXUbWBFcDu_pad-100" x="1770" y="2100"/><use xlink:href="#PiFXUbWBFcDu_pad-100" x="1770" y="2000"/><use xlink:href="#PiFXUbWBFcDu_pad-100" x="1770" y="1900"/><use xlink:href="#PiFXUbWBFcDu_pad-100" x="1770" y="1800"/><use xlink:href="#PiFXUbWBFcDu_pad-100" x="1770" y="1700"/><use xlink:href="#PiFXUbWBFcDu_pad-100" x="1770" y="1600"/><use xlink:href="#PiFXUbWBFcDu_pad-100" x="1770" y="1400"/><use xlink:href="#PiFXUbWBFcDu_pad-100" x="1770" y="1300"/><use xlink:href="#PiFXUbWBFcDu_pad-100" x="1670" y="3500"/><use xlink:href="#PiFXUbWBFcDu_pad-100" x="1670" y="3400"/><use xlink:href="#PiFXUbWBFcDu_pad-100" x="1670" y="3300"/><use xlink:href="#PiFXUbWBFcDu_pad-100" x="1670" y="3200"/><use xlink:href="#PiFXUbWBFcDu_pad-100" x="1670" y="3100"/><use xlink:href="#PiFXUbWBFcDu_pad-100" x="1670" y="3000"/><use xlink:href="#PiFXUbWBFcDu_pad-100" x="1670" y="2900"/><use xlink:href="#PiFXUbWBFcDu_pad-100" x="1670" y="2800"/><use xlink:href="#PiFXUbWBFcDu_pad-100" x="1670" y="2700"/><use xlink:href="#PiFXUbWBFcDu_pad-100" x="1670" y="2400"/><use xlink:href="#PiFXUbWBFcDu_pad-100" x="1670" y="2300"/><use xlink:href="#PiFXUbWBFcDu_pad-100" x="1670" y="2200"/><use xlink:href="#PiFXUbWBFcDu_pad-100" x="1670" y="2100"/><use xlink:href="#PiFXUbWBFcDu_pad-100" x="1670" y="2000"/><use xlink:href="#PiFXUbWBFcDu_pad-100" x="1670" y="1900"/><use xlink:href="#PiFXUbWBFcDu_pad-100" x="1670" y="1700"/><use xlink:href="#PiFXUbWBFcDu_pad-100" x="1670" y="1600"/><use xlink:href="#PiFXUbWBFcDu_pad-100" x="1670" y="1400"/><use xlink:href="#PiFXUbWBFcDu_pad-100" x="1670" y="1300"/><use xlink:href="#PiFXUbWBFcDu_pad-101" x="3495" y="3700"/><use xlink:href="#PiFXUbWBFcDu_pad-101" x="1845" y="3700"/><use xlink:href="#PiFXUbWBFcDu_pad-101" x="3620" y="1100"/><use xlink:href="#PiFXUbWBFcDu_pad-101" x="1720" y="1100"/><use xlink:href="#PiFXUbWBFcDu_pad-102" x="200" y="3800"/><use xlink:href="#PiFXUbWBFcDu_pad-102" x="3800" y="200"/><use xlink:href="#PiFXUbWBFcDu_pad-102" x="3800" y="3800"/><use xlink:href="#PiFXUbWBFcDu_pad-102" x="200" y="200"/><use xlink:href="#PiFXUbWBFcDu_pad-103" x="430.43" y="740.2"/><use xlink:href="#PiFXUbWBFcDu_pad-103" x="2390.43" y="2240.2"/><use xlink:href="#PiFXUbWBFcDu_pad-103" x="2440.43" y="2230.2"/><use xlink:href="#PiFXUbWBFcDu_pad-103" x="2542.42" y="2365.35"/><use xlink:href="#PiFXUbWBFcDu_pad-103" x="2574.44" y="2365.62"/><use xlink:href="#PiFXUbWBFcDu_pad-103" x="2566.16" y="2390.47"/><use xlink:href="#PiFXUbWBFcDu_pad-103" x="2472.17" y="906.23"/><use xlink:href="#PiFXUbWBFcDu_pad-103" x="2502.21" y="913.2"/><use xlink:href="#PiFXUbWBFcDu_pad-103" x="2520.43" y="870.2"/><use xlink:href="#PiFXUbWBFcDu_pad-103" x="2510.43" y="890.2"/><use xlink:href="#PiFXUbWBFcDu_pad-103" x="370.43" y="770.2"/><use xlink:href="#PiFXUbWBFcDu_pad-103" x="1520.43" y="680.2"/><use xlink:href="#PiFXUbWBFcDu_pad-103" x="1520.43" y="760.2"/><use xlink:href="#PiFXUbWBFcDu_pad-103" x="2856.37" y="2267.58"/><use xlink:href="#PiFXUbWBFcDu_pad-103" x="2856.37" y="1810"/><use xlink:href="#PiFXUbWBFcDu_pad-103" x="2783.96" y="2110"/><use xlink:href="#PiFXUbWBFcDu_pad-103" x="1270.43" y="810.2"/><use xlink:href="#PiFXUbWBFcDu_pad-103" x="1430" y="650"/><use xlink:href="#PiFXUbWBFcDu_pad-103" x="1430.47" y="1317.04"/><use xlink:href="#PiFXUbWBFcDu_pad-103" x="1490" y="1720"/><use xlink:href="#PiFXUbWBFcDu_pad-103" x="720" y="670"/><use xlink:href="#PiFXUbWBFcDu_pad-103" x="850" y="840"/><use xlink:href="#PiFXUbWBFcDu_pad-103" x="2527.66" y="2423.23"/><use xlink:href="#PiFXUbWBFcDu_pad-103" x="2671.81" y="1998.19"/><use xlink:href="#PiFXUbWBFcDu_pad-103" x="1350" y="1030"/><use xlink:href="#PiFXUbWBFcDu_pad-103" x="930" y="920"/><use xlink:href="#PiFXUbWBFcDu_pad-103" x="1210" y="850"/><use xlink:href="#PiFXUbWBFcDu_pad-103" x="894.63" y="3546.89"/><use xlink:href="#PiFXUbWBFcDu_pad-103" x="1080" y="3650"/><use xlink:href="#PiFXUbWBFcDu_pad-103" x="920" y="2870"/><use xlink:href="#PiFXUbWBFcDu_pad-103" x="1040" y="2960"/><use xlink:href="#PiFXUbWBFcDu_pad-103" x="900" y="2240"/><use xlink:href="#PiFXUbWBFcDu_pad-103" x="1020" y="2350"/><use xlink:href="#PiFXUbWBFcDu_pad-103" x="870" y="1550"/><use xlink:href="#PiFXUbWBFcDu_pad-103" x="1010" y="1610"/><use xlink:href="#PiFXUbWBFcDu_pad-103" x="1200" y="1120"/><use xlink:href="#PiFXUbWBFcDu_pad-103" x="2610" y="2331.13"/><use xlink:href="#PiFXUbWBFcDu_pad-103" x="1370" y="1680"/><use xlink:href="#PiFXUbWBFcDu_pad-103" x="1106.36" y="3340.12"/><use xlink:href="#PiFXUbWBFcDu_pad-103" x="1116.36" y="2620.12"/><use xlink:href="#PiFXUbWBFcDu_pad-103" x="1146.36" y="2040.12"/><use xlink:href="#PiFXUbWBFcDu_pad-103" x="1066.36" y="1260.12"/><use xlink:href="#PiFXUbWBFcDu_pad-103" x="1266.36" y="1170.12"/><use xlink:href="#PiFXUbWBFcDu_pad-103" x="426.36" y="770.12"/><use xlink:href="#PiFXUbWBFcDu_pad-103" x="400" y="800"/><use xlink:href="#PiFXUbWBFcDu_pad-103" x="400" y="750"/><use xlink:href="#PiFXUbWBFcDu_pad-103" x="2406.36" y="2220.12"/><use xlink:href="#PiFXUbWBFcDu_pad-103" x="2441.59" y="2258.18"/><use xlink:href="#PiFXUbWBFcDu_pad-103" x="2420" y="2250"/><use xlink:href="#PiFXUbWBFcDu_pad-103" x="2486.36" y="860.12"/><use xlink:href="#PiFXUbWBFcDu_pad-103" x="2476.36" y="880.12"/><use xlink:href="#PiFXUbWBFcDu_pad-103" x="2540.95" y="2391.09"/><use xlink:href="#PiFXUbWBFcDu_pad-103" x="2516.36" y="2390.12"/><use xlink:href="#PiFXUbWBFcDu_pad-103" x="2240" y="2260"/><use xlink:href="#PiFXUbWBFcDu_pad-103" x="2260" y="2290"/><use xlink:href="#PiFXUbWBFcDu_pad-103" x="2280" y="2310"/><use xlink:href="#PiFXUbWBFcDu_pad-103" x="1270" y="912.6"/><use xlink:href="#PiFXUbWBFcDu_pad-103" x="1136.36" y="3330.12"/><use xlink:href="#PiFXUbWBFcDu_pad-103" x="1076.36" y="3320.12"/><use xlink:href="#PiFXUbWBFcDu_pad-103" x="1137.38" y="2646.21"/><use xlink:href="#PiFXUbWBFcDu_pad-103" x="1086.36" y="2640.12"/><use xlink:href="#PiFXUbWBFcDu_pad-103" x="1106.36" y="2020.12"/><use xlink:href="#PiFXUbWBFcDu_pad-103" x="1156.36" y="2010.12"/><use xlink:href="#PiFXUbWBFcDu_pad-103" x="1036.36" y="1280.12"/><use xlink:href="#PiFXUbWBFcDu_pad-103" x="1086.36" y="1280.12"/><use xlink:href="#PiFXUbWBFcDu_pad-103" x="1246.36" y="1200.12"/><use xlink:href="#PiFXUbWBFcDu_pad-103" x="1296.36" y="1200.12"/><use xlink:href="#PiFXUbWBFcDu_pad-103" x="1100" y="1110"/><use xlink:href="#PiFXUbWBFcDu_pad-103" x="1040" y="2870"/><use xlink:href="#PiFXUbWBFcDu_pad-103" x="1270" y="1200"/><use xlink:href="#PiFXUbWBFcDu_pad-103" x="1111.7" y="2644.62"/><use xlink:href="#PiFXUbWBFcDu_pad-103" x="1042.13" y="2288.26"/><use xlink:href="#PiFXUbWBFcDu_pad-103" x="1130" y="2015.63"/><use xlink:href="#PiFXUbWBFcDu_pad-103" x="1198.87" y="1950"/><use xlink:href="#PiFXUbWBFcDu_pad-103" x="2120" y="2210"/><use xlink:href="#PiFXUbWBFcDu_pad-103" x="530" y="859.91"/><use xlink:href="#PiFXUbWBFcDu_pad-103" x="1340" y="2370"/><use xlink:href="#PiFXUbWBFcDu_pad-103" x="1430" y="2377.26"/><use xlink:href="#PiFXUbWBFcDu_pad-103" x="1350" y="2430"/><use xlink:href="#PiFXUbWBFcDu_pad-103" x="1350" y="3070"/><use xlink:href="#PiFXUbWBFcDu_pad-103" x="1350" y="3010"/><use xlink:href="#PiFXUbWBFcDu_pad-103" x="1350" y="2980"/><use xlink:href="#PiFXUbWBFcDu_pad-103" x="1370" y="3750"/><use xlink:href="#PiFXUbWBFcDu_pad-103" x="1370" y="3690"/><use xlink:href="#PiFXUbWBFcDu_pad-103" x="1930" y="1380"/><use xlink:href="#PiFXUbWBFcDu_pad-103" x="2080" y="1860"/><use xlink:href="#PiFXUbWBFcDu_pad-103" x="2237.43" y="2334.1"/><use xlink:href="#PiFXUbWBFcDu_pad-103" x="2030" y="2360"/><use xlink:href="#PiFXUbWBFcDu_pad-103" x="2250" y="2360"/><use xlink:href="#PiFXUbWBFcDu_pad-103" x="2201.86" y="308.83"/><use xlink:href="#PiFXUbWBFcDu_pad-103" x="2150" y="2230"/><use xlink:href="#PiFXUbWBFcDu_pad-103" x="2230" y="1890"/><use xlink:href="#PiFXUbWBFcDu_pad-103" x="650" y="1320"/><use xlink:href="#PiFXUbWBFcDu_pad-103" x="1060" y="1280"/><use xlink:href="#PiFXUbWBFcDu_pad-103" x="1250" y="1950"/><use xlink:href="#PiFXUbWBFcDu_pad-103" x="1220" y="1620"/><use xlink:href="#PiFXUbWBFcDu_pad-103" x="1250" y="1900"/><use xlink:href="#PiFXUbWBFcDu_pad-103" x="1110" y="3310"/><use xlink:href="#PiFXUbWBFcDu_pad-103" x="1080" y="3590"/><use xlink:href="#PiFXUbWBFcDu_pad-103" x="1300" y="3610"/><use xlink:href="#PiFXUbWBFcDu_pad-103" x="1553.97" y="3048.67"/><use xlink:href="#PiFXUbWBFcDu_pad-103" x="1440" y="3020"/><use xlink:href="#PiFXUbWBFcDu_pad-103" x="1290" y="2940"/><use xlink:href="#PiFXUbWBFcDu_pad-103" x="1281.86" y="2298.83"/><use xlink:href="#PiFXUbWBFcDu_pad-103" x="1021.86" y="1111.48"/><use xlink:href="#PiFXUbWBFcDu_pad-103" x="2390" y="1810"/><use xlink:href="#PiFXUbWBFcDu_pad-103" x="2604.81" y="1945.19"/><use xlink:href="#PiFXUbWBFcDu_pad-103" x="1190" y="1900"/><use xlink:href="#PiFXUbWBFcDu_pad-103" x="1452.81" y="3700.33"/><use xlink:href="#PiFXUbWBFcDu_pad-103" x="1517.51" y="2038.26"/><use xlink:href="#PiFXUbWBFcDu_pad-103" x="1537.51" y="2428.26"/><use xlink:href="#PiFXUbWBFcDu_pad-103" x="1337.51" y="2338.26"/><use xlink:href="#PiFXUbWBFcDu_pad-103" x="1470.47" y="2627.04"/><use xlink:href="#PiFXUbWBFcDu_pad-103" x="1050.47" y="1557.04"/><use xlink:href="#PiFXUbWBFcDu_pad-103" x="1280.47" y="1647.04"/><use xlink:href="#PiFXUbWBFcDu_pad-103" x="1280.47" y="1687.04"/><use xlink:href="#PiFXUbWBFcDu_pad-103" x="1280.47" y="1727.04"/><use xlink:href="#PiFXUbWBFcDu_pad-103" x="1500.47" y="3317.04"/><use xlink:href="#PiFXUbWBFcDu_pad-103" x="1570.47" y="3717.04"/><use xlink:href="#PiFXUbWBFcDu_pad-103" x="1370.47" y="3657.04"/><use xlink:href="#PiFXUbWBFcDu_pad-103" x="680.17" y="3306.25"/><use xlink:href="#PiFXUbWBFcDu_pad-103" x="650.17" y="3256.25"/><use xlink:href="#PiFXUbWBFcDu_pad-103" x="600.17" y="3256.25"/><use xlink:href="#PiFXUbWBFcDu_pad-103" x="550.17" y="3256.25"/><use xlink:href="#PiFXUbWBFcDu_pad-103" x="530.17" y="3306.25"/><use xlink:href="#PiFXUbWBFcDu_pad-103" x="600.17" y="3356.25"/><use xlink:href="#PiFXUbWBFcDu_pad-103" x="650.17" y="3356.25"/><use xlink:href="#PiFXUbWBFcDu_pad-103" x="550.17" y="3356.25"/><use xlink:href="#PiFXUbWBFcDu_pad-103" x="497.51" y="3428.26"/><use xlink:href="#PiFXUbWBFcDu_pad-103" x="467.51" y="3378.26"/><use xlink:href="#PiFXUbWBFcDu_pad-103" x="417.51" y="3378.26"/><use xlink:href="#PiFXUbWBFcDu_pad-103" x="367.51" y="3378.26"/><use xlink:href="#PiFXUbWBFcDu_pad-103" x="347.51" y="3428.26"/><use xlink:href="#PiFXUbWBFcDu_pad-103" x="417.51" y="3478.26"/><use xlink:href="#PiFXUbWBFcDu_pad-103" x="467.51" y="3478.26"/><use xlink:href="#PiFXUbWBFcDu_pad-103" x="367.51" y="3478.26"/><use xlink:href="#PiFXUbWBFcDu_pad-103" x="493.28" y="2879.59"/><use xlink:href="#PiFXUbWBFcDu_pad-103" x="463.28" y="2829.59"/><use xlink:href="#PiFXUbWBFcDu_pad-103" x="413.28" y="2829.59"/><use xlink:href="#PiFXUbWBFcDu_pad-103" x="363.28" y="2829.59"/><use xlink:href="#PiFXUbWBFcDu_pad-103" x="343.28" y="2879.59"/><use xlink:href="#PiFXUbWBFcDu_pad-103" x="413.28" y="2929.59"/><use xlink:href="#PiFXUbWBFcDu_pad-103" x="463.28" y="2929.59"/><use xlink:href="#PiFXUbWBFcDu_pad-103" x="363.28" y="2929.59"/><use xlink:href="#PiFXUbWBFcDu_pad-103" x="677.35" y="2756.17"/><use xlink:href="#PiFXUbWBFcDu_pad-103" x="647.35" y="2706.17"/><use xlink:href="#PiFXUbWBFcDu_pad-103" x="597.35" y="2706.17"/><use xlink:href="#PiFXUbWBFcDu_pad-103" x="547.35" y="2706.17"/><use xlink:href="#PiFXUbWBFcDu_pad-103" x="527.35" y="2756.17"/><use xlink:href="#PiFXUbWBFcDu_pad-103" x="597.35" y="2806.17"/><use xlink:href="#PiFXUbWBFcDu_pad-103" x="647.35" y="2806.17"/><use xlink:href="#PiFXUbWBFcDu_pad-103" x="547.35" y="2806.17"/><use xlink:href="#PiFXUbWBFcDu_pad-103" x="675.94" y="2215.96"/><use xlink:href="#PiFXUbWBFcDu_pad-103" x="645.94" y="2165.96"/><use xlink:href="#PiFXUbWBFcDu_pad-103" x="595.94" y="2165.96"/><use xlink:href="#PiFXUbWBFcDu_pad-103" x="545.94" y="2165.96"/><use xlink:href="#PiFXUbWBFcDu_pad-103" x="525.94" y="2215.96"/><use xlink:href="#PiFXUbWBFcDu_pad-103" x="595.94" y="2265.96"/><use xlink:href="#PiFXUbWBFcDu_pad-103" x="645.94" y="2265.96"/><use xlink:href="#PiFXUbWBFcDu_pad-103" x="545.94" y="2265.96"/><use xlink:href="#PiFXUbWBFcDu_pad-103" x="496.81" y="2335.85"/><use xlink:href="#PiFXUbWBFcDu_pad-103" x="466.81" y="2285.85"/><use xlink:href="#PiFXUbWBFcDu_pad-103" x="416.81" y="2285.85"/><use xlink:href="#PiFXUbWBFcDu_pad-103" x="366.81" y="2285.85"/><use xlink:href="#PiFXUbWBFcDu_pad-103" x="346.81" y="2335.85"/><use xlink:href="#PiFXUbWBFcDu_pad-103" x="416.81" y="2385.85"/><use xlink:href="#PiFXUbWBFcDu_pad-103" x="466.81" y="2385.85"/><use xlink:href="#PiFXUbWBFcDu_pad-103" x="366.81" y="2385.85"/><use xlink:href="#PiFXUbWBFcDu_pad-103" x="677.75" y="1666.27"/><use xlink:href="#PiFXUbWBFcDu_pad-103" x="647.75" y="1616.27"/><use xlink:href="#PiFXUbWBFcDu_pad-103" x="597.75" y="1616.27"/><use xlink:href="#PiFXUbWBFcDu_pad-103" x="547.75" y="1616.27"/><use xlink:href="#PiFXUbWBFcDu_pad-103" x="527.75" y="1666.27"/><use xlink:href="#PiFXUbWBFcDu_pad-103" x="597.75" y="1716.27"/><use xlink:href="#PiFXUbWBFcDu_pad-103" x="647.75" y="1716.27"/><use xlink:href="#PiFXUbWBFcDu_pad-103" x="547.75" y="1716.27"/><use xlink:href="#PiFXUbWBFcDu_pad-103" x="493.41" y="1788.4"/><use xlink:href="#PiFXUbWBFcDu_pad-103" x="463.41" y="1738.4"/><use xlink:href="#PiFXUbWBFcDu_pad-103" x="413.41" y="1738.4"/><use xlink:href="#PiFXUbWBFcDu_pad-103" x="363.41" y="1738.4"/><use xlink:href="#PiFXUbWBFcDu_pad-103" x="343.41" y="1788.4"/><use xlink:href="#PiFXUbWBFcDu_pad-103" x="413.41" y="1838.4"/><use xlink:href="#PiFXUbWBFcDu_pad-103" x="463.41" y="1838.4"/><use xlink:href="#PiFXUbWBFcDu_pad-103" x="363.41" y="1838.4"/><use xlink:href="#PiFXUbWBFcDu_pad-103" x="551.24" y="1144.39"/><use xlink:href="#PiFXUbWBFcDu_pad-103" x="300" y="990"/><use xlink:href="#PiFXUbWBFcDu_pad-103" x="260" y="990"/><use xlink:href="#PiFXUbWBFcDu_pad-103" x="260" y="950"/><use xlink:href="#PiFXUbWBFcDu_pad-103" x="300" y="950"/><use xlink:href="#PiFXUbWBFcDu_pad-103" x="180" y="790"/><use xlink:href="#PiFXUbWBFcDu_pad-103" x="411.24" y="1074.39"/><use xlink:href="#PiFXUbWBFcDu_pad-103" x="970.43" y="880.2"/><use xlink:href="#PiFXUbWBFcDu_pad-103" x="1470.43" y="1050.2"/><use xlink:href="#PiFXUbWBFcDu_pad-103" x="1890" y="420"/><use xlink:href="#PiFXUbWBFcDu_pad-103" x="770" y="130"/><use xlink:href="#PiFXUbWBFcDu_pad-103" x="1330" y="550"/><use xlink:href="#PiFXUbWBFcDu_pad-103" x="1310" y="470"/><use xlink:href="#PiFXUbWBFcDu_pad-103" x="2450" y="1980"/><use xlink:href="#PiFXUbWBFcDu_pad-103" x="1330" y="650"/><use xlink:href="#PiFXUbWBFcDu_pad-103" x="2340" y="2440"/><use xlink:href="#PiFXUbWBFcDu_pad-103" x="2550" y="2240"/><use xlink:href="#PiFXUbWBFcDu_pad-103" x="1380" y="520"/><use xlink:href="#PiFXUbWBFcDu_pad-103" x="1330" y="600"/><use xlink:href="#PiFXUbWBFcDu_pad-103" x="1380" y="680"/><use xlink:href="#PiFXUbWBFcDu_pad-103" x="1430" y="600"/><use xlink:href="#PiFXUbWBFcDu_pad-103" x="1430" y="550"/><use xlink:href="#PiFXUbWBFcDu_pad-103" x="1310" y="370"/><use xlink:href="#PiFXUbWBFcDu_pad-103" x="1310" y="420"/><use xlink:href="#PiFXUbWBFcDu_pad-103" x="1260" y="490"/><use xlink:href="#PiFXUbWBFcDu_pad-103" x="1210" y="470"/><use xlink:href="#PiFXUbWBFcDu_pad-103" x="1210" y="420"/><use xlink:href="#PiFXUbWBFcDu_pad-103" x="1210" y="370"/><use xlink:href="#PiFXUbWBFcDu_pad-103" x="1260" y="340"/></g></svg>