<svg version="1.1" xmlns="http://www.w3.org/2000/svg" xmlns:xlink="http://www.w3.org/1999/xlink" stroke-linecap="round" stroke-linejoin="round" stroke-width="0" fill-rule="evenodd" clip-rule="evenodd" id="JPwpR2B9R-lP_bottom" viewBox="0 0 4000 4000" width="4in" height="4in"><defs><style>.JPwpR2B9R-lP_fr4 {color: #0d3126;}
.JPwpR2B9R-lP_cu {color: #d48a3a;}
.JPwpR2B9R-lP_cf {color: #d48a3a; opacity: 0.55;}
.JPwpR2B9R-lP_sm {color: #25b77f; opacity: 0.78;}
.JPwpR2B9R-lP_ss {color: #e7edf5; opacity: 0.92;}
.JPwpR2B9R-lP_sp {color: #cad5e1; opacity: 0.45;}
.JPwpR2B9R-lP_out {color: #000000;}</style><circle cx="0" cy="0" r="5" id="SebebrdG0ae7_pad-1"/><circle cx="0" cy="0" r="5.9" id="SebebrdG0ae7_pad-2"/><circle cx="0" cy="0" r="15" id="SebebrdG0ae7_pad-3"/><circle cx="0" cy="0" r="57.1" id="SebebrdG0ae7_pad-4"/><circle cx="0" cy="0" r="66.95" id="SebebrdG0ae7_pad-5"/><circle cx="0" cy="0" r="47.45" id="SebebrdG0ae7_pad-6"/><g id="JPwpR2B9R-lP_bottom_drill1"><use xlink:href="#SebebrdG0ae7_pad-1" x="770" y="130"/><use xlink:href="#SebebrdG0ae7_pad-1" x="1890" y="420"/><use xlink:href="#SebebrdG0ae7_pad-1" x="2486.4" y="860.1"/><use xlink:href="#SebebrdG0ae7_pad-1" x="2476.4" y="880.1"/><use xlink:href="#SebebrdG0ae7_pad-1" x="2472.2" y="906.2"/><use xlink:href="#SebebrdG0ae7_pad-1" x="2502.2" y="913.2"/><use xlink:href="#SebebrdG0ae7_pad-1" x="2510.4" y="890.2"/><use xlink:href="#SebebrdG0ae7_pad-1" x="2520.4" y="870.2"/><use xlink:href="#SebebrdG0ae7_pad-1" x="2856.4" y="1810"/><use xlink:href="#SebebrdG0ae7_pad-1" x="1490" y="1720"/><use xlink:href="#SebebrdG0ae7_pad-1" x="1370" y="1680"/><use xlink:href="#SebebrdG0ae7_pad-1" x="1280.5" y="1687"/><use xlink:href="#SebebrdG0ae7_pad-1" x="1280.5" y="1647"/><use xlink:href="#SebebrdG0ae7_pad-1" x="1280.5" y="1727"/><use xlink:href="#SebebrdG0ae7_pad-1" x="1220" y="1620"/><use xlink:href="#SebebrdG0ae7_pad-1" x="1010" y="1610"/><use xlink:href="#SebebrdG0ae7_pad-1" x="1050.5" y="1557"/><use xlink:href="#SebebrdG0ae7_pad-1" x="870" y="1550"/><use xlink:href="#SebebrdG0ae7_pad-1" x="647.8" y="1616.3"/><use xlink:href="#SebebrdG0ae7_pad-1" x="597.8" y="1616.3"/><use xlink:href="#SebebrdG0ae7_pad-1" x="547.8" y="1616.3"/><use xlink:href="#SebebrdG0ae7_pad-1" x="527.8" y="1666.3"/><use xlink:href="#SebebrdG0ae7_pad-1" x="547.8" y="1716.3"/><use xlink:href="#SebebrdG0ae7_pad-1" x="597.8" y="1716.3"/><use xlink:href="#SebebrdG0ae7_pad-1" x="647.8" y="1716.3"/><use xlink:href="#SebebrdG0ae7_pad-1" x="677.8" y="1666.3"/><use xlink:href="#SebebrdG0ae7_pad-1" x="463.4" y="1738.4"/><use xlink:href="#SebebrdG0ae7_pad-1" x="413.4" y="1738.4"/><use xlink:href="#SebebrdG0ae7_pad-1" x="363.4" y="1738.4"/><use xlink:href="#SebebrdG0ae7_pad-1" x="343.4" y="1788.4"/><use xlink:href="#SebebrdG0ae7_pad-1" x="493.4" y="1788.4"/><use xlink:href="#SebebrdG0ae7_pad-1" x="650" y="1320"/><use xlink:href="#SebebrdG0ae7_pad-1" x="551.2" y="1144.4"/><use xlink:href="#SebebrdG0ae7_pad-1" x="411.2" y="1074.4"/><use xlink:href="#SebebrdG0ae7_pad-1" x="300" y="990"/><use xlink:href="#SebebrdG0ae7_pad-1" x="260" y="990"/><use xlink:href="#SebebrdG0ae7_pad-1" x="260" y="950"/><use xlink:href="#SebebrdG0ae7_pad-1" x="300" y="950"/><use xlink:href="#SebebrdG0ae7_pad-1" x="400" y="800"/><use xlink:href="#SebebrdG0ae7_pad-1" x="400" y="750"/><use xlink:href="#SebebrdG0ae7_pad-1" x="430.4" y="740.2"/><use xlink:href="#SebebrdG0ae7_pad-1" x="426.4" y="770.1"/><use xlink:href="#SebebrdG0ae7_pad-1" x="370.4" y="770.2"/><use xlink:href="#SebebrdG0ae7_pad-1" x="180" y="790"/><use xlink:href="#SebebrdG0ae7_pad-1" x="530" y="859.9"/><use xlink:href="#SebebrdG0ae7_pad-1" x="850" y="840"/><use xlink:href="#SebebrdG0ae7_pad-1" x="930" y="920"/><use xlink:href="#SebebrdG0ae7_pad-1" x="970.4" y="880.2"/><use xlink:href="#SebebrdG0ae7_pad-1" x="1210" y="850"/><use xlink:href="#SebebrdG0ae7_pad-1" x="1270.4" y="810.2"/><use xlink:href="#SebebrdG0ae7_pad-1" x="1330" y="650"/><use xlink:href="#SebebrdG0ae7_pad-1" x="1330" y="600"/><use xlink:href="#SebebrdG0ae7_pad-1" x="1330" y="550"/><use xlink:href="#SebebrdG0ae7_pad-1" x="1380" y="520"/><use xlink:href="#SebebrdG0ae7_pad-1" x="1430" y="550"/><use xlink:href="#SebebrdG0ae7_pad-1" x="1430" y="600"/><use xlink:href="#SebebrdG0ae7_pad-1" x="1430" y="650"/><use xlink:href="#SebebrdG0ae7_pad-1" x="1380" y="680"/><use xlink:href="#SebebrdG0ae7_pad-1" x="1520.4" y="680.2"/><use xlink:href="#SebebrdG0ae7_pad-1" x="1520.4" y="760.2"/><use xlink:href="#SebebrdG0ae7_pad-1" x="1470.4" y="1050.2"/><use xlink:href="#SebebrdG0ae7_pad-1" x="1430.5" y="1317"/><use xlink:href="#SebebrdG0ae7_pad-1" x="1296.4" y="1200.1"/><use xlink:href="#SebebrdG0ae7_pad-1" x="1270" y="1200"/><use xlink:href="#SebebrdG0ae7_pad-1" x="1246.4" y="1200.1"/><use xlink:href="#SebebrdG0ae7_pad-1" x="1266.4" y="1170.1"/><use xlink:href="#SebebrdG0ae7_pad-1" x="1066.4" y="1260.1"/><use xlink:href="#SebebrdG0ae7_pad-1" x="1060" y="1280"/><use xlink:href="#SebebrdG0ae7_pad-1" x="1036.4" y="1280.1"/><use xlink:href="#SebebrdG0ae7_pad-1" x="1086.4" y="1280.1"/><use xlink:href="#SebebrdG0ae7_pad-1" x="1210" y="470"/><use xlink:href="#SebebrdG0ae7_pad-1" x="1210" y="420"/><use xlink:href="#SebebrdG0ae7_pad-1" x="1210" y="370"/><use xlink:href="#SebebrdG0ae7_pad-1" x="1260" y="340"/><use xlink:href="#SebebrdG0ae7_pad-1" x="1310" y="370"/><use xlink:href="#SebebrdG0ae7_pad-1" x="1310" y="420"/><use xlink:href="#SebebrdG0ae7_pad-1" x="1310" y="470"/><use xlink:href="#SebebrdG0ae7_pad-1" x="1260" y="490"/><use xlink:href="#SebebrdG0ae7_pad-1" x="720" y="670"/><use xlink:href="#SebebrdG0ae7_pad-1" x="463.4" y="1838.4"/><use xlink:href="#SebebrdG0ae7_pad-1" x="413.4" y="1838.4"/><use xlink:href="#SebebrdG0ae7_pad-1" x="363.4" y="1838.4"/><use xlink:href="#SebebrdG0ae7_pad-1" x="366.8" y="2285.8"/><use xlink:href="#SebebrdG0ae7_pad-1" x="416.8" y="2285.8"/><use xlink:href="#SebebrdG0ae7_pad-1" x="466.8" y="2285.8"/><use xlink:href="#SebebrdG0ae7_pad-1" x="496.8" y="2335.8"/><use xlink:href="#SebebrdG0ae7_pad-1" x="466.8" y="2385.8"/><use xlink:href="#SebebrdG0ae7_pad-1" x="416.8" y="2385.8"/><use xlink:href="#SebebrdG0ae7_pad-1" x="366.8" y="2385.8"/><use xlink:href="#SebebrdG0ae7_pad-1" x="346.8" y="2335.8"/><use xlink:href="#SebebrdG0ae7_pad-1" x="545.9" y="2266"/><use xlink:href="#SebebrdG0ae7_pad-1" x="595.9" y="2266"/><use xlink:href="#SebebrdG0ae7_pad-1" x="645.9" y="2266"/><use xlink:href="#SebebrdG0ae7_pad-1" x="675.9" y="2216"/><use xlink:href="#SebebrdG0ae7_pad-1" x="645.9" y="2166"/><use xlink:href="#SebebrdG0ae7_pad-1" x="595.9" y="2166"/><use xlink:href="#SebebrdG0ae7_pad-1" x="545.9" y="2166"/><use xlink:href="#SebebrdG0ae7_pad-1" x="525.9" y="2216"/><use xlink:href="#SebebrdG0ae7_pad-1" x="900" y="2240"/><use xlink:href="#SebebrdG0ae7_pad-1" x="1042.1" y="2288.3"/><use xlink:href="#SebebrdG0ae7_pad-1" x="1020" y="2350"/><use xlink:href="#SebebrdG0ae7_pad-1" x="1337.5" y="2338.3"/><use xlink:href="#SebebrdG0ae7_pad-1" x="1340" y="2370"/><use xlink:href="#SebebrdG0ae7_pad-1" x="1350" y="2430"/><use xlink:href="#SebebrdG0ae7_pad-1" x="1430" y="2377.3"/><use xlink:href="#SebebrdG0ae7_pad-1" x="1537.5" y="2428.3"/><use xlink:href="#SebebrdG0ae7_pad-1" x="1470.5" y="2627"/><use xlink:href="#SebebrdG0ae7_pad-1" x="1137.4" y="2646.2"/><use xlink:href="#SebebrdG0ae7_pad-1" x="1111.7" y="2644.6"/><use xlink:href="#SebebrdG0ae7_pad-1" x="1116.4" y="2620.1"/><use xlink:href="#SebebrdG0ae7_pad-1" x="1086.4" y="2640.1"/><use xlink:href="#SebebrdG0ae7_pad-1" x="1040" y="2870"/><use xlink:href="#SebebrdG0ae7_pad-1" x="1040" y="2960"/><use xlink:href="#SebebrdG0ae7_pad-1" x="920" y="2870"/><use xlink:href="#SebebrdG0ae7_pad-1" x="647.3" y="2806.2"/><use xlink:href="#SebebrdG0ae7_pad-1" x="597.3" y="2806.2"/><use xlink:href="#SebebrdG0ae7_pad-1" x="547.3" y="2806.2"/><use xlink:href="#SebebrdG0ae7_pad-1" x="527.3" y="2756.2"/><use xlink:href="#SebebrdG0ae7_pad-1" x="547.3" y="2706.2"/><use xlink:href="#SebebrdG0ae7_pad-1" x="597.3" y="2706.2"/><use xlink:href="#SebebrdG0ae7_pad-1" x="647.3" y="2706.2"/><use xlink:href="#SebebrdG0ae7_pad-1" x="677.3" y="2756.2"/><use xlink:href="#SebebrdG0ae7_pad-1" x="463.3" y="2829.6"/><use xlink:href="#SebebrdG0ae7_pad-1" x="413.3" y="2829.6"/><use xlink:href="#SebebrdG0ae7_pad-1" x="363.3" y="2829.6"/><use xlink:href="#SebebrdG0ae7_pad-1" x="343.3" y="2879.6"/><use xlink:href="#SebebrdG0ae7_pad-1" x="363.3" y="2929.6"/><use xlink:href="#SebebrdG0ae7_pad-1" x="413.3" y="2929.6"/><use xlink:href="#SebebrdG0ae7_pad-1" x="463.3" y="2929.6"/><use xlink:href="#SebebrdG0ae7_pad-1" x="493.3" y="2879.6"/><use xlink:href="#SebebrdG0ae7_pad-1" x="550.2" y="3256.3"/><use xlink:href="#SebebrdG0ae7_pad-1" x="600.2" y="3256.3"/><use xlink:href="#SebebrdG0ae7_pad-1" x="650.2" y="3256.3"/><use xlink:href="#SebebrdG0ae7_pad-1" x="680.2" y="3306.3"/><use xlink:href="#SebebrdG0ae7_pad-1" x="650.2" y="3356.3"/><use xlink:href="#SebebrdG0ae7_pad-1" x="600.2" y="3356.3"/><use xlink:href="#SebebrdG0ae7_pad-1" x="550.2" y="3356.3"/><use xlink:href="#SebebrdG0ae7_pad-1" x="530.2" y="3306.3"/><use xlink:href="#SebebrdG0ae7_pad-1" x="467.5" y="3378.3"/><use xlink:href="#SebebrdG0ae7_pad-1" x="417.5" y="3378.3"/><use xlink:href="#SebebrdG0ae7_pad-1" x="367.5" y="3378.3"/><use xlink:href="#SebebrdG0ae7_pad-1" x="1076.4" y="3320.1"/><use xlink:href="#SebebrdG0ae7_pad-1" x="1110" y="3310"/><use xlink:href="#SebebrdG0ae7_pad-1" x="1106.4" y="3340.1"/><use xlink:href="#SebebrdG0ae7_pad-1" x="1136.4" y="3330.1"/><use xlink:href="#SebebrdG0ae7_pad-1" x="1500.5" y="3317"/><use xlink:href="#SebebrdG0ae7_pad-1" x="1440" y="3020"/><use xlink:href="#SebebrdG0ae7_pad-1" x="1350" y="3010"/><use xlink:href="#SebebrdG0ae7_pad-1" x="1350" y="2980"/><use xlink:href="#SebebrdG0ae7_pad-1" x="1350" y="3070"/><use xlink:href="#SebebrdG0ae7_pad-1" x="1290" y="2940"/><use xlink:href="#SebebrdG0ae7_pad-1" x="1250" y="1950"/><use xlink:href="#SebebrdG0ae7_pad-1" x="1250" y="1900"/><use xlink:href="#SebebrdG0ae7_pad-1" x="1190" y="1900"/><use xlink:href="#SebebrdG0ae7_pad-1" x="1198.9" y="1950"/><use xlink:href="#SebebrdG0ae7_pad-1" x="1156.4" y="2010.1"/><use xlink:href="#SebebrdG0ae7_pad-1" x="1130" y="2015.6"/><use xlink:href="#SebebrdG0ae7_pad-1" x="1106.4" y="2020.1"/><use xlink:href="#SebebrdG0ae7_pad-1" x="1146.4" y="2040.1"/><use xlink:href="#SebebrdG0ae7_pad-1" x="1517.5" y="2038.3"/><use xlink:href="#SebebrdG0ae7_pad-1" x="2406.4" y="2220.1"/><use xlink:href="#SebebrdG0ae7_pad-1" x="2390.4" y="2240.2"/><use xlink:href="#SebebrdG0ae7_pad-1" x="2420" y="2250"/><use xlink:href="#SebebrdG0ae7_pad-1" x="2441.6" y="2258.2"/><use xlink:href="#SebebrdG0ae7_pad-1" x="2440.4" y="2230.2"/><use xlink:href="#SebebrdG0ae7_pad-1" x="2516.4" y="2390.1"/><use xlink:href="#SebebrdG0ae7_pad-1" x="2540.9" y="2391.1"/><use xlink:href="#SebebrdG0ae7_pad-1" x="2566.2" y="2390.5"/><use xlink:href="#SebebrdG0ae7_pad-1" x="2574.4" y="2365.6"/><use xlink:href="#SebebrdG0ae7_pad-1" x="2542.4" y="2365.3"/><use xlink:href="#SebebrdG0ae7_pad-1" x="2527.7" y="2423.2"/><use xlink:href="#SebebrdG0ae7_pad-1" x="1570.5" y="3717"/><use xlink:href="#SebebrdG0ae7_pad-1" x="1452.8" y="3700.3"/><use xlink:href="#SebebrdG0ae7_pad-1" x="1370" y="3690"/><use xlink:href="#SebebrdG0ae7_pad-1" x="1370.5" y="3657"/><use xlink:href="#SebebrdG0ae7_pad-1" x="1370" y="3750"/><use xlink:href="#SebebrdG0ae7_pad-1" x="1300" y="3610"/><use xlink:href="#SebebrdG0ae7_pad-1" x="1080" y="3590"/><use xlink:href="#SebebrdG0ae7_pad-1" x="1080" y="3650"/><use xlink:href="#SebebrdG0ae7_pad-1" x="894.6" y="3546.9"/><use xlink:href="#SebebrdG0ae7_pad-1" x="467.5" y="3478.3"/><use xlink:href="#SebebrdG0ae7_pad-1" x="417.5" y="3478.3"/><use xlink:href="#SebebrdG0ae7_pad-1" x="367.5" y="3478.3"/><use xlink:href="#SebebrdG0ae7_pad-1" x="347.5" y="3428.3"/><use xlink:href="#SebebrdG0ae7_pad-1" x="497.5" y="3428.3"/><use xlink:href="#SebebrdG0ae7_pad-2" x="2201.9" y="308.8"/><use xlink:href="#SebebrdG0ae7_pad-2" x="1930" y="1380"/><use xlink:href="#SebebrdG0ae7_pad-2" x="2390" y="1810"/><use xlink:href="#SebebrdG0ae7_pad-2" x="1350" y="1030"/><use xlink:href="#SebebrdG0ae7_pad-2" x="1270" y="912.6"/><use xlink:href="#SebebrdG0ae7_pad-2" x="1200" y="1120"/><use xlink:href="#SebebrdG0ae7_pad-2" x="1100" y="1110"/><use xlink:href="#SebebrdG0ae7_pad-2" x="1021.9" y="1111.5"/><use xlink:href="#SebebrdG0ae7_pad-2" x="1281.9" y="2298.8"/><use xlink:href="#SebebrdG0ae7_pad-2" x="1554" y="3048.7"/><use xlink:href="#SebebrdG0ae7_pad-2" x="2030" y="2360"/><use xlink:href="#SebebrdG0ae7_pad-2" x="2250" y="2360"/><use xlink:href="#SebebrdG0ae7_pad-2" x="2237.4" y="2334.1"/><use xlink:href="#SebebrdG0ae7_pad-2" x="2260" y="2290"/><use xlink:href="#SebebrdG0ae7_pad-2" x="2280" y="2310"/><use xlink:href="#SebebrdG0ae7_pad-2" x="2240" y="2260"/><use xlink:href="#SebebrdG0ae7_pad-2" x="2150" y="2230"/><use xlink:href="#SebebrdG0ae7_pad-2" x="2120" y="2210"/><use xlink:href="#SebebrdG0ae7_pad-2" x="2080" y="1860"/><use xlink:href="#SebebrdG0ae7_pad-2" x="2230" y="1890"/><use xlink:href="#SebebrdG0ae7_pad-2" x="2450" y="1980"/><use xlink:href="#SebebrdG0ae7_pad-2" x="2604.8" y="1945.2"/><use xlink:href="#SebebrdG0ae7_pad-2" x="2671.8" y="1998.2"/><use xlink:href="#SebebrdG0ae7_pad-2" x="2784" y="2110"/><use xlink:href="#SebebrdG0ae7_pad-2" x="2856.4" y="2267.6"/><use xlink:href="#SebebrdG0ae7_pad-2" x="2610" y="2331.1"/><use xlink:href="#SebebrdG0ae7_pad-2" x="2550" y="2240"/><use xlink:href="#SebebrdG0ae7_pad-2" x="2340" y="2440"/><use xlink:href="#SebebrdG0ae7_pad-3" x="3570" y="1300"/><use xlink:href="#SebebrdG0ae7_pad-3" x="3670" y="1300"/><use xlink:href="#SebebrdG0ae7_pad-3" x="3670" y="1400"/><use xlink:href="#SebebrdG0ae7_pad-3" x="3670" y="1500"/><use xlink:href="#SebebrdG0ae7_pad-3" x="3670" y="1600"/><use xlink:href="#SebebrdG0ae7_pad-3" x="3670" y="1700"/><use xlink:href="#SebebrdG0ae7_pad-3" x="3670" y="1800"/><use xlink:href="#SebebrdG0ae7_pad-3" x="3570" y="1800"/><use xlink:href="#SebebrdG0ae7_pad-3" x="3570" y="1700"/><use xlink:href="#SebebrdG0ae7_pad-3" x="3570" y="1600"/><use xlink:href="#SebebrdG0ae7_pad-3" x="3570" y="1500"/><use xlink:href="#SebebrdG0ae7_pad-3" x="3570" y="1400"/><use xlink:href="#SebebrdG0ae7_pad-3" x="1770" y="1400"/><use xlink:href="#SebebrdG0ae7_pad-3" x="1770" y="1500"/><use xlink:href="#SebebrdG0ae7_pad-3" x="1670" y="1500"/><use xlink:href="#SebebrdG0ae7_pad-3" x="1670" y="1600"/><use xlink:href="#SebebrdG0ae7_pad-3" x="1770" y="1600"/><use xlink:href="#SebebrdG0ae7_pad-3" x="1770" y="1700"/><use xlink:href="#SebebrdG0ae7_pad-3" x="1770" y="1800"/><use xlink:href="#SebebrdG0ae7_pad-3" x="1670" y="1800"/><use xlink:href="#SebebrdG0ae7_pad-3" x="1670" y="1700"/><use xlink:href="#SebebrdG0ae7_pad-3" x="1670" y="1400"/><use xlink:href="#SebebrdG0ae7_pad-3" x="1670" y="1300"/><use xlink:href="#SebebrdG0ae7_pad-3" x="1770" y="1300"/><use xlink:href="#SebebrdG0ae7_pad-3" x="1770" y="1900"/><use xlink:href="#SebebrdG0ae7_pad-3" x="1770" y="2000"/><use xlink:href="#SebebrdG0ae7_pad-3" x="1770" y="2100"/><use xlink:href="#SebebrdG0ae7_pad-3" x="1770" y="2200"/><use xlink:href="#SebebrdG0ae7_pad-3" x="1770" y="2300"/><use xlink:href="#SebebrdG0ae7_pad-3" x="1770" y="2400"/><use xlink:href="#SebebrdG0ae7_pad-3" x="1770" y="2500"/><use xlink:href="#SebebrdG0ae7_pad-3" x="1670" y="2500"/><use xlink:href="#SebebrdG0ae7_pad-3" x="1670" y="2600"/><use xlink:href="#SebebrdG0ae7_pad-3" x="1770" y="2600"/><use xlink:href="#SebebrdG0ae7_pad-3" x="1770" y="2700"/><use xlink:href="#SebebrdG0ae7_pad-3" x="1770" y="2800"/><use xlink:href="#SebebrdG0ae7_pad-3" x="1770" y="2900"/><use xlink:href="#SebebrdG0ae7_pad-3" x="1770" y="3000"/><use xlink:href="#SebebrdG0ae7_pad-3" x="1770" y="3100"/><use xlink:href="#SebebrdG0ae7_pad-3" x="1770" y="3200"/><use xlink:href="#SebebrdG0ae7_pad-3" x="1770" y="3300"/><use xlink:href="#SebebrdG0ae7_pad-3" x="1670" y="3300"/><use xlink:href="#SebebrdG0ae7_pad-3" x="1670" y="3200"/><use xlink:href="#SebebrdG0ae7_pad-3" x="1670" y="3100"/><use xlink:href="#SebebrdG0ae7_pad-3" x="1670" y="3000"/><use xlink:href="#SebebrdG0ae7_pad-3" x="1670" y="2900"/><use xlink:href="#SebebrdG0ae7_pad-3" x="1670" y="2800"/><use xlink:href="#SebebrdG0ae7_pad-3" x="1670" y="2700"/><use xlink:href="#SebebrdG0ae7_pad-3" x="1670" y="2400"/><use xlink:href="#SebebrdG0ae7_pad-3" x="1670" y="2300"/><use xlink:href="#SebebrdG0ae7_pad-3" x="1670" y="2200"/><use xlink:href="#SebebrdG0ae7_pad-3" x="1670" y="2100"/><use xlink:href="#SebebrdG0ae7_pad-3" x="1670" y="2000"/><use xlink:href="#SebebrdG0ae7_pad-3" x="1670" y="1900"/><use xlink:href="#SebebrdG0ae7_pad-3" x="3570" y="1900"/><use xlink:href="#SebebrdG0ae7_pad-3" x="3670" y="1900"/><use xlink:href="#SebebrdG0ae7_pad-3" x="3670" y="2000"/><use xlink:href="#SebebrdG0ae7_pad-3" x="3670" y="2100"/><use xlink:href="#SebebrdG0ae7_pad-3" x="3670" y="2200"/><use xlink:href="#SebebrdG0ae7_pad-3" x="3670" y="2300"/><use xlink:href="#SebebrdG0ae7_pad-3" x="3670" y="2400"/><use xlink:href="#SebebrdG0ae7_pad-3" x="3670" y="2500"/><use xlink:href="#SebebrdG0ae7_pad-3" x="3670" y="2600"/><use xlink:href="#SebebrdG0ae7_pad-3" x="3670" y="2700"/><use xlink:href="#SebebrdG0ae7_pad-3" x="3670" y="2800"/><use xlink:href="#SebebrdG0ae7_pad-3" x="3670" y="2900"/><use xlink:href="#SebebrdG0ae7_pad-3" x="3670" y="3000"/><use xlink:href="#SebebrdG0ae7_pad-3" x="3670" y="3100"/><use xlink:href="#SebebrdG0ae7_pad-3" x="3670" y="3200"/><use xlink:href="#SebebrdG0ae7_pad-3" x="3670" y="3300"/><use xlink:href="#SebebrdG0ae7_pad-3" x="3570" y="3300"/><use xlink:href="#SebebrdG0ae7_pad-3" x="3570" y="3200"/><use xlink:href="#SebebrdG0ae7_pad-3" x="3570" y="3100"/><use xlink:href="#SebebrdG0ae7_pad-3" x="3570" y="3000"/><use xlink:href="#SebebrdG0ae7_pad-3" x="3570" y="2900"/><use xlink:href="#SebebrdG0ae7_pad-3" x="3570" y="2800"/><use xlink:href="#SebebrdG0ae7_pad-3" x="3570" y="2700"/><use xlink:href="#SebebrdG0ae7_pad-3" x="3570" y="2600"/><use xlink:href="#SebebrdG0ae7_pad-3" x="3570" y="2500"/><use xlink:href="#SebebrdG0ae7_pad-3" x="3570" y="2400"/><use xlink:href="#SebebrdG0ae7_pad-3" x="3570" y="2300"/><use xlink:href="#SebebrdG0ae7_pad-3" x="3570" y="2200"/><use xlink:href="#SebebrdG0ae7_pad-3" x="3570" y="2100"/><use xlink:href="#SebebrdG0ae7_pad-3" x="3570" y="2000"/><use xlink:href="#SebebrdG0ae7_pad-3" x="3570" y="3400"/><use xlink:href="#SebebrdG0ae7_pad-3" x="3670" y="3400"/><use xlink:href="#SebebrdG0ae7_pad-3" x="3670" y="3500"/><use xlink:href="#SebebrdG0ae7_pad-3" x="3570" y="3500"/><use xlink:href="#SebebrdG0ae7_pad-3" x="1770" y="3500"/><use xlink:href="#SebebrdG0ae7_pad-3" x="1770" y="3400"/><use xlink:href="#SebebrdG0ae7_pad-3" x="1670" y="3400"/><use xlink:href="#SebebrdG0ae7_pad-3" x="1670" y="3500"/><use xlink:href="#SebebrdG0ae7_pad-4" x="3620" y="1100"/><use xlink:href="#SebebrdG0ae7_pad-4" x="1720" y="1100"/><use xlink:href="#SebebrdG0ae7_pad-4" x="3495" y="3700"/><use xlink:href="#SebebrdG0ae7_pad-4" x="1845" y="3700"/><use xlink:href="#SebebrdG0ae7_pad-5" x="200" y="200"/><use xlink:href="#SebebrdG0ae7_pad-5" x="3800" y="200"/><use xlink:href="#SebebrdG0ae7_pad-5" x="3800" y="3800"/><use xlink:href="#SebebrdG0ae7_pad-5" x="200" y="3800"/><use xlink:href="#SebebrdG0ae7_pad-6" x="1176.3" y="200"/><use xlink:href="#SebebrdG0ae7_pad-6" x="1463.7" y="200"/><use xlink:href="#SebebrdG0ae7_pad-6" x="1686.3" y="200"/><use xlink:href="#SebebrdG0ae7_pad-6" x="1973.7" y="200"/><use xlink:href="#SebebrdG0ae7_pad-6" x="204.6" y="1585.4"/><use xlink:href="#SebebrdG0ae7_pad-6" x="204.6" y="1872.8"/><use xlink:href="#SebebrdG0ae7_pad-6" x="206.2" y="2134.6"/><use xlink:href="#SebebrdG0ae7_pad-6" x="206.2" y="2422"/><use xlink:href="#SebebrdG0ae7_pad-6" x="204.6" y="2675.4"/><use xlink:href="#SebebrdG0ae7_pad-6" x="204.6" y="2962.8"/><use xlink:href="#SebebrdG0ae7_pad-6" x="210" y="3226.3"/><use xlink:href="#SebebrdG0ae7_pad-6" x="210" y="3513.7"/></g><clipPath id="JPwpR2B9R-lP_bottom_outline"><path d="M 0 100 A 100 100 0 0 1 100 0 L 3900 0 A 100 100 0 0 1 4000 100 L 4000 3900 A 100 100 0 0 1 3900 4000 L 100 4000 A 100 100 0 0 1 0 3900 L 0 100" fill="none" stroke-width="1"/></clipPath><mask id="JPwpR2B9R-lP_bottom_mech-mask"><g fill="#000" stroke="#000"><rect x="0" y="0" width="4000" height="4000" fill="#fff"/><use xlink:href="#JPwpR2B9R-lP_bottom_drill1"/></g></mask></defs><g transform="translate(0,4000) scale(1,-1)"><g mask="url(#JPwpR2B9R-lP_bottom_mech-mask)" clip-path="url(#JPwpR2B9R-lP_bottom_outline)" transform="translate(4000,0) scale(-1,1)"><rect x="0" y="0" width="4000" height="4000" fill="currentColor" class="JPwpR2B9R-lP_fr4"/></g></g></svg>