<svg version="1.1" xmlns="http://www.w3.org/2000/svg" xmlns:xlink="http://www.w3.org/1999/xlink" stroke-linecap="round" stroke-linejoin="round" stroke-width="0" fill-rule="evenodd" width="3.98394in" height="3.98394in" viewBox="8.03 8.03 3983.94 3983.94"><defs><mask id="sm-_zuM7Ft87_clear-1" fill="#000" stroke="#000"><g><rect x="8.03" y="8.03" width="3983.94" height="3983.94" fill="#fff"/><path d="M 1455.99 3716.33 1449.62 3716.33 1443.74 3713.9 1439.24 3709.4 1436.81 3703.52 1436.81 3697.15 1439.24 3691.27 1443.74 3686.77 1449.62 3684.33 1455.99 3684.33 1461.87 3686.77 1466.37 3691.27 1468.8 3697.15 1468.8 3703.52 1466.37 3709.4 1461.87 3713.9 1455.99 3716.33"/><path d="M 3810.38 3931.95 3789.61 3931.95 3769.1 3928.7 3749.35 3922.29 3730.84 3912.86 3714.04 3900.65 3699.35 3885.96 3687.14 3869.16 3677.72 3850.65 3671.3 3830.9 3668.05 3810.38 3668.05 3789.61 3671.3 3769.1 3677.72 3749.35 3687.14 3730.84 3699.35 3714.04 3714.04 3699.35 3730.84 3687.14 3749.35 3677.72 3769.1 3671.3 3789.61 3668.05 3810.38 3668.05 3830.9 3671.3 3850.65 3677.72 3869.16 3687.14 3885.96 3699.35 3900.65 3714.04 3912.86 3730.84 3922.29 3749.35 3928.7 3769.1 3931.95 3789.61 3931.95 3810.38 3928.7 3830.9 3922.29 3850.65 3912.86 3869.16 3900.65 3885.96 3885.96 3900.65 3869.16 3912.86 3850.65 3922.29 3830.9 3928.7 3810.38 3931.95"/><path d="M 210.38 3931.95 189.61 3931.95 169.1 3928.7 149.35 3922.29 130.84 3912.86 114.04 3900.65 99.35 3885.96 87.14 3869.16 77.72 3850.65 71.3 3830.9 68.05 3810.38 68.05 3789.61 71.3 3769.1 77.72 3749.35 87.14 3730.84 99.35 3714.04 114.04 3699.35 130.84 3687.14 149.35 3677.72 169.1 3671.3 189.61 3668.05 210.38 3668.05 230.9 3671.3 250.65 3677.72 269.16 3687.14 285.96 3699.35 300.65 3714.04 312.86 3730.84 322.28 3749.35 328.7 3769.1 331.95 3789.61 331.95 3810.38 328.7 3830.9 322.28 3850.65 312.86 3869.16 300.65 3885.96 285.96 3900.65 269.16 3912.86 250.65 3922.29 230.9 3928.7 210.38 3931.95"/><path d="M 1083.18 3666 1076.82 3666 1070.94 3663.56 1066.44 3659.06 1064 3653.18 1064 3646.82 1066.44 3640.94 1070.94 3636.44 1076.82 3634 1083.18 3634 1089.06 3636.44 1093.56 3640.94 1096 3646.82 1096 3653.18 1093.56 3659.06 1089.06 3663.56 1083.18 3666"/><path d="M 1303.18 3626 1296.82 3626 1290.94 3623.56 1286.44 3619.06 1284 3613.18 1284 3606.82 1286.44 3600.94 1290.94 3596.44 1296.82 3594 1303.18 3594 1309.06 3596.44 1313.56 3600.94 1316 3606.82 1316 3613.18 1313.56 3619.06 1309.06 3623.56 1303.18 3626"/><path d="M 3504.92 3826.05 3485.08 3826.05 3465.48 3822.94 3446.61 3816.81 3428.94 3807.81 3412.89 3796.14 3398.86 3782.11 3387.2 3766.06 3378.19 3748.38 3372.06 3729.52 3368.95 3709.92 3368.95 3690.08 3372.06 3670.48 3378.19 3651.61 3387.2 3633.94 3398.86 3617.89 3412.89 3603.86 3428.94 3592.2 3446.61 3583.19 3465.48 3577.06 3485.08 3573.95 3504.92 3573.95 3524.52 3577.06 3543.39 3583.19 3561.06 3592.2 3577.11 3603.86 3591.14 3617.89 3602.8 3633.94 3611.81 3651.61 3617.94 3670.48 3621.05 3690.08 3621.05 3709.92 3617.94 3729.52 3611.81 3748.38 3602.8 3766.06 3591.14 3782.11 3577.11 3796.14 3561.06 3807.81 3543.39 3816.81 3524.52 3822.94 3504.92 3826.05"/><path d="M 1854.92 3826.05 1835.08 3826.05 1815.48 3822.94 1796.62 3816.81 1778.94 3807.81 1762.89 3796.14 1748.86 3782.11 1737.2 3766.06 1728.19 3748.38 1722.06 3729.52 1718.95 3709.92 1718.95 3690.08 1722.06 3670.48 1728.19 3651.61 1737.2 3633.94 1748.86 3617.89 1762.89 3603.86 1778.94 3592.2 1796.62 3583.19 1815.48 3577.06 1835.08 3573.95 1854.92 3573.95 1874.52 3577.06 1893.39 3583.19 1911.06 3592.2 1927.11 3603.86 1941.14 3617.89 1952.81 3633.94 1961.81 3651.61 1967.94 3670.48 1971.05 3690.08 1971.05 3709.92 1967.94 3729.52 1961.81 3748.38 1952.81 3766.06 1941.14 3782.11 1927.11 3796.14 1911.06 3807.81 1893.39 3816.81 1874.52 3822.94 1854.92 3826.05"/><path d="M 897.81 3562.89 891.45 3562.89 885.57 3560.45 881.07 3555.95 878.63 3550.07 878.63 3543.7 881.07 3537.82 885.57 3533.32 891.45 3530.88 897.81 3530.88 903.7 3533.32 908.2 3537.82 910.63 3543.7 910.63 3550.07 908.2 3555.95 903.7 3560.45 897.81 3562.89"/><path d="M 3674.48 3534 3665.52 3534 3656.88 3531.68 3649.12 3527.21 3642.79 3520.88 3638.32 3513.12 3636 3504.48 3636 3495.52 3638.32 3486.88 3642.79 3479.12 3649.12 3472.79 3656.88 3468.32 3665.52 3466 3674.48 3466 3683.12 3468.32 3690.88 3472.79 3697.21 3479.12 3701.68 3486.88 3704 3495.52 3704 3504.48 3701.68 3513.12 3697.21 3520.88 3690.88 3527.21 3683.12 3531.68 3674.48 3534"/><path d="M 3574.48 3534 3565.52 3534 3556.88 3531.68 3549.12 3527.21 3542.79 3520.88 3538.32 3513.12 3536 3504.48 3536 3495.52 3538.32 3486.88 3542.79 3479.12 3549.12 3472.79 3556.88 3468.32 3565.52 3466 3574.48 3466 3583.12 3468.32 3590.88 3472.79 3597.21 3479.12 3601.68 3486.88 3604 3495.52 3604 3504.48 3601.68 3513.12 3597.21 3520.88 3590.88 3527.21 3583.12 3531.68 3574.48 3534"/><path d="M 217.54 3570.98 202.46 3570.98 187.89 3567.08 174.83 3559.54 164.16 3548.87 156.62 3535.81 152.72 3521.24 152.72 3506.16 156.62 3491.59 164.16 3478.53 174.83 3467.86 187.89 3460.32 202.46 3456.42 217.54 3456.42 232.11 3460.32 245.17 3467.86 255.84 3478.53 263.38 3491.59 267.28 3506.16 267.28 3521.24 263.38 3535.81 255.84 3548.87 245.17 3559.54 232.11 3567.08 217.54 3570.98"/><path d="M 3674.48 3434 3665.52 3434 3656.88 3431.68 3649.12 3427.21 3642.79 3420.88 3638.32 3413.12 3636 3404.48 3636 3395.52 3638.32 3386.88 3642.79 3379.12 3649.12 3372.79 3656.88 3368.32 3665.52 3366 3674.48 3366 3683.12 3368.32 3690.88 3372.79 3697.21 3379.12 3701.68 3386.88 3704 3395.52 3704 3404.48 3701.68 3413.12 3697.21 3420.88 3690.88 3427.21 3683.12 3431.68 3674.48 3434"/><path d="M 3574.48 3434 3565.52 3434 3556.88 3431.68 3549.12 3427.21 3542.79 3420.88 3538.32 3413.12 3536 3404.48 3536 3395.52 3538.32 3386.88 3542.79 3379.12 3549.12 3372.79 3556.88 3368.32 3565.52 3366 3574.48 3366 3583.12 3368.32 3590.88 3372.79 3597.21 3379.12 3601.68 3386.88 3604 3395.52 3604 3404.48 3601.68 3413.12 3597.21 3420.88 3590.88 3427.21 3583.12 3431.68 3574.48 3434"/><path d="M 1109.54 3356.12 1103.18 3356.12 1097.3 3353.69 1092.8 3349.19 1090.36 3343.31 1090.36 3336.94 1091.15 3335.03 1086.91 3332.2 1085.43 3333.69 1079.55 3336.12 1073.18 3336.12 1067.3 3333.69 1062.8 3329.19 1060.36 3323.31 1060.36 3316.94 1062.8 3311.06 1067.3 3306.56 1073.18 3304.12 1079.55 3304.12 1085.43 3306.56 1089 3310.13 1093.35 3309 1094 3308.6 1094 3306.82 1096.44 3300.94 1100.94 3296.44 1106.82 3294 1113.18 3294 1119.06 3296.44 1123.56 3300.94 1126 3306.82 1126 3311.69 1129.18 3314.58 1130.57 3315.2 1133.18 3314.12 1139.54 3314.12 1145.42 3316.56 1149.93 3321.06 1152.36 3326.94 1152.36 3333.31 1149.93 3339.19 1145.42 3343.69 1139.54 3346.12 1133.18 3346.12 1127.3 3343.69 1127.23 3343.62 1126.37 3343.57 1121.62 3345.08 1119.93 3349.19 1115.42 3353.69 1109.54 3356.12"/><path d="M 3674.48 3334 3665.52 3334 3656.88 3331.68 3649.12 3327.21 3642.79 3320.88 3638.32 3313.12 3636 3304.48 3636 3295.52 3638.32 3286.88 3642.79 3279.12 3649.12 3272.79 3656.88 3268.32 3665.52 3266 3674.48 3266 3683.12 3268.32 3690.88 3272.79 3697.21 3279.12 3701.68 3286.88 3704 3295.52 3704 3304.48 3701.68 3313.12 3697.21 3320.88 3690.88 3327.21 3683.12 3331.68 3674.48 3334"/><path d="M 3574.48 3334 3565.52 3334 3556.88 3331.68 3549.12 3327.21 3542.79 3320.88 3538.32 3313.12 3536 3304.48 3536 3295.52 3538.32 3286.88 3542.79 3279.12 3549.12 3272.79 3556.88 3268.32 3565.52 3266 3574.48 3266 3583.12 3268.32 3590.88 3272.79 3597.21 3279.12 3601.68 3286.88 3604 3295.52 3604 3304.48 3601.68 3313.12 3597.21 3320.88 3590.88 3327.21 3583.12 3331.68 3574.48 3334"/><path d="M 1774.48 3334 1765.52 3334 1756.88 3331.68 1749.12 3327.21 1742.79 3320.88 1738.32 3313.12 1736 3304.48 1736 3295.52 1738.32 3286.88 1742.79 3279.12 1749.12 3272.79 1756.88 3268.32 1765.52 3266 1774.48 3266 1783.12 3268.32 1790.88 3272.79 1797.21 3279.12 1801.68 3286.88 1804 3295.52 1804 3304.48 1801.68 3313.12 1797.21 3320.88 1790.88 3327.21 1783.12 3331.68 1774.48 3334"/><path d="M 1674.48 3334 1665.52 3334 1656.88 3331.68 1649.12 3327.21 1642.79 3320.88 1638.32 3313.12 1636 3304.48 1636 3295.52 1638.32 3286.88 1642.79 3279.12 1649.12 3272.79 1656.88 3268.32 1665.52 3266 1674.48 3266 1683.12 3268.32 1690.88 3272.79 1697.21 3279.12 1701.68 3286.88 1704 3295.52 1704 3304.48 1701.68 3313.12 1697.21 3320.88 1690.88 3327.21 1683.12 3331.68 1674.48 3334"/><path d="M 217.54 3283.58 202.46 3283.58 187.89 3279.68 174.83 3272.14 164.16 3261.47 156.62 3248.41 152.72 3233.84 152.72 3218.76 156.62 3204.19 164.16 3191.13 174.83 3180.46 187.89 3172.92 202.46 3169.02 217.54 3169.02 232.11 3172.92 245.17 3180.46 255.84 3191.13 263.38 3204.19 267.28 3218.76 267.28 3233.84 263.38 3248.41 255.84 3261.47 245.17 3272.14 232.11 3279.68 217.54 3283.58"/><path d="M 3674.48 3234 3665.52 3234 3656.88 3231.68 3649.12 3227.21 3642.79 3220.88 3638.32 3213.12 3636 3204.48 3636 3195.52 3638.32 3186.88 3642.79 3179.12 3649.12 3172.79 3656.88 3168.32 3665.52 3166 3674.48 3166 3683.12 3168.32 3690.88 3172.79 3697.21 3179.12 3701.68 3186.88 3704 3195.52 3704 3204.48 3701.68 3213.12 3697.21 3220.88 3690.88 3227.21 3683.12 3231.68 3674.48 3234"/><path d="M 3574.48 3234 3565.52 3234 3556.88 3231.68 3549.12 3227.21 3542.79 3220.88 3538.32 3213.12 3536 3204.48 3536 3195.52 3538.32 3186.88 3542.79 3179.12 3549.12 3172.79 3556.88 3168.32 3565.52 3166 3574.48 3166 3583.12 3168.32 3590.88 3172.79 3597.21 3179.12 3601.68 3186.88 3604 3195.52 3604 3204.48 3601.68 3213.12 3597.21 3220.88 3590.88 3227.21 3583.12 3231.68 3574.48 3234"/><path d="M 1774.48 3234 1765.52 3234 1756.88 3231.68 1749.12 3227.21 1742.79 3220.88 1738.32 3213.12 1736 3204.48 1736 3195.52 1738.32 3186.88 1742.79 3179.12 1749.12 3172.79 1756.88 3168.32 1765.52 3166 1774.48 3166 1783.12 3168.32 1790.88 3172.79 1797.21 3179.12 1801.68 3186.88 1804 3195.52 1804 3204.48 1801.68 3213.12 1797.21 3220.88 1790.88 3227.21 1783.12 3231.68 1774.48 3234"/><path d="M 1674.48 3234 1665.52 3234 1656.88 3231.68 1649.12 3227.21 1642.79 3220.88 1638.32 3213.12 1636 3204.48 1636 3195.52 1638.32 3186.88 1642.79 3179.12 1649.12 3172.79 1656.88 3168.32 1665.52 3166 1674.48 3166 1683.12 3168.32 1690.88 3172.79 1697.21 3179.12 1701.68 3186.88 1704 3195.52 1704 3204.48 1701.68 3213.12 1697.21 3220.88 1690.88 3227.21 1683.12 3231.68 1674.48 3234"/><path d="M 3674.48 3134 3665.52 3134 3656.88 3131.68 3649.12 3127.21 3642.79 3120.88 3638.32 3113.12 3636 3104.48 3636 3095.52 3638.32 3086.88 3642.79 3079.12 3649.12 3072.79 3656.88 3068.32 3665.52 3066 3674.48 3066 3683.12 3068.32 3690.88 3072.79 3697.21 3079.12 3701.68 3086.88 3704 3095.52 3704 3104.48 3701.68 3113.12 3697.21 3120.88 3690.88 3127.21 3683.12 3131.68 3674.48 3134"/><path d="M 3574.48 3134 3565.52 3134 3556.88 3131.68 3549.12 3127.21 3542.79 3120.88 3538.32 3113.12 3536 3104.48 3536 3095.52 3538.32 3086.88 3542.79 3079.12 3549.12 3072.79 3556.88 3068.32 3565.52 3066 3574.48 3066 3583.12 3068.32 3590.88 3072.79 3597.21 3079.12 3601.68 3086.88 3604 3095.52 3604 3104.48 3601.68 3113.12 3597.21 3120.88 3590.88 3127.21 3583.12 3131.68 3574.48 3134"/><path d="M 1774.48 3134 1765.52 3134 1756.88 3131.68 1749.12 3127.21 1742.79 3120.88 1738.32 3113.12 1736 3104.48 1736 3095.52 1738.32 3086.88 1742.79 3079.12 1749.12 3072.79 1756.88 3068.32 1765.52 3066 1774.48 3066 1783.12 3068.32 1790.88 3072.79 1797.21 3079.12 1801.68 3086.88 1804 3095.52 1804 3104.48 1801.68 3113.12 1797.21 3120.88 1790.88 3127.21 1783.12 3131.68 1774.48 3134"/><path d="M 1674.48 3134 1665.52 3134 1656.88 3131.68 1649.12 3127.21 1642.79 3120.88 1638.32 3113.12 1636 3104.48 1636 3095.52 1638.32 3086.88 1642.79 3079.12 1649.12 3072.79 1656.88 3068.32 1665.52 3066 1674.48 3066 1683.12 3068.32 1690.88 3072.79 1697.21 3079.12 1701.68 3086.88 1704 3095.52 1704 3104.48 1701.68 3113.12 1697.21 3120.88 1690.88 3127.21 1683.12 3131.68 1674.48 3134"/><path d="M 1443.18 3036 1436.82 3036 1430.94 3033.56 1426.44 3029.06 1424 3023.18 1424 3016.82 1426.44 3010.94 1430.94 3006.44 1436.82 3004 1443.18 3004 1449.06 3006.44 1453.56 3010.94 1456 3016.82 1456 3023.18 1453.56 3029.06 1449.06 3033.56 1443.18 3036"/><path d="M 3674.48 3034 3665.52 3034 3656.88 3031.68 3649.12 3027.21 3642.79 3020.88 3638.32 3013.12 3636 3004.48 3636 2995.52 3638.32 2986.88 3642.79 2979.12 3649.12 2972.79 3656.88 2968.32 3665.52 2966 3674.48 2966 3683.12 2968.32 3690.88 2972.79 3697.21 2979.12 3701.68 2986.88 3704 2995.52 3704 3004.48 3701.68 3013.12 3697.21 3020.88 3690.88 3027.21 3683.12 3031.68 3674.48 3034"/><path d="M 3574.48 3034 3565.52 3034 3556.88 3031.68 3549.12 3027.21 3542.79 3020.88 3538.32 3013.12 3536 3004.48 3536 2995.52 3538.32 2986.88 3542.79 2979.12 3549.12 2972.79 3556.88 2968.32 3565.52 2966 3574.48 2966 3583.12 2968.32 3590.88 2972.79 3597.21 2979.12 3601.68 2986.88 3604 2995.52 3604 3004.48 3601.68 3013.12 3597.21 3020.88 3590.88 3027.21 3583.12 3031.68 3574.48 3034"/><path d="M 1774.48 3034 1765.52 3034 1756.88 3031.68 1749.12 3027.21 1742.79 3020.88 1738.32 3013.12 1736 3004.48 1736 2995.52 1738.32 2986.88 1742.79 2979.12 1749.12 2972.79 1756.88 2968.32 1765.52 2966 1774.48 2966 1783.12 2968.32 1790.88 2972.79 1797.21 2979.12 1801.68 2986.88 1804 2995.52 1804 3004.48 1801.68 3013.12 1797.21 3020.88 1790.88 3027.21 1783.12 3031.68 1774.48 3034"/><path d="M 1674.48 3034 1665.52 3034 1656.88 3031.68 1649.12 3027.21 1642.79 3020.88 1638.32 3013.12 1636 3004.48 1636 2995.52 1638.32 2986.88 1642.79 2979.12 1649.12 2972.79 1656.88 2968.32 1665.52 2966 1674.48 2966 1683.12 2968.32 1690.88 2972.79 1697.21 2979.12 1701.68 2986.88 1704 2995.52 1704 3004.48 1701.68 3013.12 1697.21 3020.88 1690.88 3027.21 1683.12 3031.68 1674.48 3034"/><path d="M 1043.18 2976 1036.82 2976 1030.94 2973.56 1026.44 2969.06 1024 2963.18 1024 2956.82 1026.44 2950.94 1030.94 2946.44 1036.82 2944 1043.18 2944 1049.06 2946.44 1053.56 2950.94 1056 2956.82 1056 2963.18 1053.56 2969.06 1049.06 2973.56 1043.18 2976"/><path d="M 1293.18 2956 1286.82 2956 1280.94 2953.56 1276.44 2949.06 1274 2943.18 1274 2936.82 1276.44 2930.94 1280.94 2926.44 1286.82 2924 1293.18 2924 1299.06 2926.44 1303.56 2930.94 1306 2936.82 1306 2943.18 1303.56 2949.06 1299.06 2953.56 1293.18 2956"/><path d="M 212.19 3020.04 197.1 3020.04 182.53 3016.13 169.47 3008.59 158.81 2997.93 151.27 2984.87 147.36 2970.3 147.36 2955.21 151.27 2940.64 158.81 2927.58 169.47 2916.92 182.53 2909.38 197.1 2905.47 212.19 2905.47 226.76 2909.38 239.82 2916.92 250.48 2927.58 258.02 2940.64 261.93 2955.21 261.93 2970.3 258.02 2984.87 250.48 2997.93 239.82 3008.59 226.76 3016.13 212.19 3020.04"/><path d="M 3674.48 2934 3665.52 2934 3656.88 2931.68 3649.12 2927.21 3642.79 2920.88 3638.32 2913.12 3636 2904.48 3636 2895.52 3638.32 2886.88 3642.79 2879.12 3649.12 2872.79 3656.88 2868.32 3665.52 2866 3674.48 2866 3683.12 2868.32 3690.88 2872.79 3697.21 2879.12 3701.68 2886.88 3704 2895.52 3704 2904.48 3701.68 2913.12 3697.21 2920.88 3690.88 2927.21 3683.12 2931.68 3674.48 2934"/><path d="M 3574.48 2934 3565.52 2934 3556.88 2931.68 3549.12 2927.21 3542.79 2920.88 3538.32 2913.12 3536 2904.48 3536 2895.52 3538.32 2886.88 3542.79 2879.12 3549.12 2872.79 3556.88 2868.32 3565.52 2866 3574.48 2866 3583.12 2868.32 3590.88 2872.79 3597.21 2879.12 3601.68 2886.88 3604 2895.52 3604 2904.48 3601.68 2913.12 3597.21 2920.88 3590.88 2927.21 3583.12 2931.68 3574.48 2934"/><path d="M 1674.48 2934 1665.52 2934 1656.88 2931.68 1649.12 2927.21 1642.79 2920.88 1638.32 2913.12 1636 2904.48 1636 2895.52 1638.32 2886.88 1642.79 2879.12 1649.12 2872.79 1656.88 2868.32 1665.52 2866 1674.48 2866 1683.12 2868.32 1690.88 2872.79 1697.21 2879.12 1701.68 2886.88 1704 2895.52 1704 2904.48 1701.68 2913.12 1697.21 2920.88 1690.88 2927.21 1683.12 2931.68 1674.48 2934"/><path d="M 923.18 2886 916.82 2886 910.94 2883.56 906.44 2879.06 904 2873.18 904 2866.82 906.44 2860.94 910.94 2856.44 916.82 2854 923.18 2854 929.06 2856.44 933.56 2860.94 936 2866.82 936 2873.18 933.56 2879.06 929.06 2883.56 923.18 2886"/><path d="M 3674.48 2834 3665.52 2834 3656.88 2831.68 3649.12 2827.21 3642.79 2820.88 3638.32 2813.12 3636 2804.48 3636 2795.52 3638.32 2786.88 3642.79 2779.12 3649.12 2772.79 3656.88 2768.32 3665.52 2766 3674.48 2766 3683.12 2768.32 3690.88 2772.79 3697.21 2779.12 3701.68 2786.88 3704 2795.52 3704 2804.48 3701.68 2813.12 3697.21 2820.88 3690.88 2827.21 3683.12 2831.68 3674.48 2834"/><path d="M 3574.48 2834 3565.52 2834 3556.88 2831.68 3549.12 2827.21 3542.79 2820.88 3538.32 2813.12 3536 2804.48 3536 2795.52 3538.32 2786.88 3542.79 2779.12 3549.12 2772.79 3556.88 2768.32 3565.52 2766 3574.48 2766 3583.12 2768.32 3590.88 2772.79 3597.21 2779.12 3601.68 2786.88 3604 2795.52 3604 2804.48 3601.68 2813.12 3597.21 2820.88 3590.88 2827.21 3583.12 2831.68 3574.48 2834"/><path d="M 1774.48 2834 1765.52 2834 1756.88 2831.68 1749.12 2827.21 1742.79 2820.88 1738.32 2813.12 1736 2804.48 1736 2795.52 1738.32 2786.88 1742.79 2779.12 1749.12 2772.79 1756.88 2768.32 1765.52 2766 1774.48 2766 1783.12 2768.32 1790.88 2772.79 1797.21 2779.12 1801.68 2786.88 1804 2795.52 1804 2804.48 1801.68 2813.12 1797.21 2820.88 1790.88 2827.21 1783.12 2831.68 1774.48 2834"/><path d="M 1674.48 2834 1665.52 2834 1656.88 2831.68 1649.12 2827.21 1642.79 2820.88 1638.32 2813.12 1636 2804.48 1636 2795.52 1638.32 2786.88 1642.79 2779.12 1649.12 2772.79 1656.88 2768.32 1665.52 2766 1674.48 2766 1683.12 2768.32 1690.88 2772.79 1697.21 2779.12 1701.68 2786.88 1704 2795.52 1704 2804.48 1701.68 2813.12 1697.21 2820.88 1690.88 2827.21 1683.12 2831.68 1674.48 2834"/><path d="M 3674.48 2734 3665.52 2734 3656.88 2731.68 3649.12 2727.21 3642.79 2720.88 3638.32 2713.12 3636 2704.48 3636 2695.52 3638.32 2686.88 3642.79 2679.12 3649.12 2672.79 3656.88 2668.32 3665.52 2666 3674.48 2666 3683.12 2668.32 3690.88 2672.79 3697.21 2679.12 3701.68 2686.88 3704 2695.52 3704 2704.48 3701.68 2713.12 3697.21 2720.88 3690.88 2727.21 3683.12 2731.68 3674.48 2734"/><path d="M 3574.48 2734 3565.52 2734 3556.88 2731.68 3549.12 2727.21 3542.79 2720.88 3538.32 2713.12 3536 2704.48 3536 2695.52 3538.32 2686.88 3542.79 2679.12 3549.12 2672.79 3556.88 2668.32 3565.52 2666 3574.48 2666 3583.12 2668.32 3590.88 2672.79 3597.21 2679.12 3601.68 2686.88 3604 2695.52 3604 2704.48 3601.68 2713.12 3597.21 2720.88 3590.88 2727.21 3583.12 2731.68 3574.48 2734"/><path d="M 1774.48 2734 1765.52 2734 1756.88 2731.68 1749.12 2727.21 1742.79 2720.88 1738.32 2713.12 1736 2704.48 1736 2695.52 1738.32 2686.88 1742.79 2679.12 1749.12 2672.79 1756.88 2668.32 1765.52 2666 1774.48 2666 1783.12 2668.32 1790.88 2672.79 1797.21 2679.12 1801.68 2686.88 1804 2695.52 1804 2704.48 1801.68 2713.12 1797.21 2720.88 1790.88 2727.21 1783.12 2731.68 1774.48 2734"/><path d="M 1674.48 2734 1665.52 2734 1656.88 2731.68 1649.12 2727.21 1642.79 2720.88 1638.32 2713.12 1636 2704.48 1636 2695.52 1638.32 2686.88 1642.79 2679.12 1649.12 2672.79 1656.88 2668.32 1665.52 2666 1674.48 2666 1683.12 2668.32 1690.88 2672.79 1697.21 2679.12 1701.68 2686.88 1704 2695.52 1704 2704.48 1701.68 2713.12 1697.21 2720.88 1690.88 2727.21 1683.12 2731.68 1674.48 2734"/><path d="M 1140.56 2662.21 1134.2 2662.21 1128.32 2659.77 1126.78 2658.23 1120.76 2658.19 1120.36 2658.35 1114.88 2660.62 1108.52 2660.62 1102.64 2658.19 1098.13 2653.68 1093.12 2654.64 1089.55 2656.12 1083.18 2656.12 1077.3 2653.69 1072.8 2649.19 1070.36 2643.31 1070.36 2636.94 1072.8 2631.06 1077.3 2626.56 1083.18 2624.12 1089.55 2624.12 1095.43 2626.56 1096.91 2628.05 1101.15 2625.22 1100.36 2623.31 1100.36 2616.94 1102.8 2611.06 1107.3 2606.56 1113.18 2604.12 1119.54 2604.12 1125.42 2606.56 1129.93 2611.06 1132.36 2616.94 1132.36 2623.31 1131.24 2626.02 1132.73 2628.13 1134.92 2630.21 1140.56 2630.21 1146.44 2632.64 1150.94 2637.14 1153.38 2643.02 1153.38 2649.39 1150.94 2655.27 1146.44 2659.77 1140.56 2662.21"/><path d="M 212.19 2732.64 197.1 2732.64 182.53 2728.73 169.47 2721.19 158.81 2710.53 151.27 2697.46 147.36 2682.9 147.36 2667.81 151.27 2653.24 158.81 2640.18 169.47 2629.52 182.53 2621.97 197.1 2618.07 212.19 2618.07 226.76 2621.97 239.82 2629.52 250.48 2640.18 258.02 2653.24 261.93 2667.81 261.93 2682.9 258.02 2697.46 250.48 2710.53 239.82 2721.19 226.76 2728.73 212.19 2732.64"/><path d="M 3674.48 2634 3665.52 2634 3656.88 2631.68 3649.12 2627.21 3642.79 2620.88 3638.32 2613.12 3636 2604.48 3636 2595.52 3638.32 2586.88 3642.79 2579.12 3649.12 2572.79 3656.88 2568.32 3665.52 2566 3674.48 2566 3683.12 2568.32 3690.88 2572.79 3697.21 2579.12 3701.68 2586.88 3704 2595.52 3704 2604.48 3701.68 2613.12 3697.21 2620.88 3690.88 2627.21 3683.12 2631.68 3674.48 2634"/><path d="M 3574.48 2634 3565.52 2634 3556.88 2631.68 3549.12 2627.21 3542.79 2620.88 3538.32 2613.12 3536 2604.48 3536 2595.52 3538.32 2586.88 3542.79 2579.12 3549.12 2572.79 3556.88 2568.32 3565.52 2566 3574.48 2566 3583.12 2568.32 3590.88 2572.79 3597.21 2579.12 3601.68 2586.88 3604 2595.52 3604 2604.48 3601.68 2613.12 3597.21 2620.88 3590.88 2627.21 3583.12 2631.68 3574.48 2634"/><path d="M 1774.48 2634 1765.52 2634 1756.88 2631.68 1749.12 2627.21 1742.79 2620.88 1738.32 2613.12 1736 2604.48 1736 2595.52 1738.32 2586.88 1742.79 2579.12 1749.12 2572.79 1756.88 2568.32 1765.52 2566 1774.48 2566 1783.12 2568.32 1790.88 2572.79 1797.21 2579.12 1801.68 2586.88 1804 2595.52 1804 2604.48 1801.68 2613.12 1797.21 2620.88 1790.88 2627.21 1783.12 2631.68 1774.48 2634"/><path d="M 1674.48 2634 1665.52 2634 1656.88 2631.68 1649.12 2627.21 1642.79 2620.88 1638.32 2613.12 1636 2604.48 1636 2595.52 1638.32 2586.88 1642.79 2579.12 1649.12 2572.79 1656.88 2568.32 1665.52 2566 1674.48 2566 1683.12 2568.32 1690.88 2572.79 1697.21 2579.12 1701.68 2586.88 1704 2595.52 1704 2604.48 1701.68 2613.12 1697.21 2620.88 1690.88 2627.21 1683.12 2631.68 1674.48 2634"/><path d="M 3674.48 2534 3665.52 2534 3656.88 2531.68 3649.12 2527.21 3642.79 2520.88 3638.32 2513.12 3636 2504.48 3636 2495.52 3638.32 2486.88 3642.79 2479.12 3649.12 2472.79 3656.88 2468.32 3665.52 2466 3674.48 2466 3683.12 2468.32 3690.88 2472.79 3697.21 2479.12 3701.68 2486.88 3704 2495.52 3704 2504.48 3701.68 2513.12 3697.21 2520.88 3690.88 2527.21 3683.12 2531.68 3674.48 2534"/><path d="M 3574.48 2534 3565.52 2534 3556.88 2531.68 3549.12 2527.21 3542.79 2520.88 3538.32 2513.12 3536 2504.48 3536 2495.52 3538.32 2486.88 3542.79 2479.12 3549.12 2472.79 3556.88 2468.32 3565.52 2466 3574.48 2466 3583.12 2468.32 3590.88 2472.79 3597.21 2479.12 3601.68 2486.88 3604 2495.52 3604 2504.48 3601.68 2513.12 3597.21 2520.88 3590.88 2527.21 3583.12 2531.68 3574.48 2534"/><path d="M 1774.48 2534 1765.52 2534 1756.88 2531.68 1749.12 2527.21 1742.79 2520.88 1738.32 2513.12 1736 2504.48 1736 2495.52 1738.32 2486.88 1742.79 2479.12 1749.12 2472.79 1756.88 2468.32 1765.52 2466 1774.48 2466 1783.12 2468.32 1790.88 2472.79 1797.21 2479.12 1801.68 2486.88 1804 2495.52 1804 2504.48 1801.68 2513.12 1797.21 2520.88 1790.88 2527.21 1783.12 2531.68 1774.48 2534"/><path d="M 1674.48 2534 1665.52 2534 1656.88 2531.68 1649.12 2527.21 1642.79 2520.88 1638.32 2513.12 1636 2504.48 1636 2495.52 1638.32 2486.88 1642.79 2479.12 1649.12 2472.79 1656.88 2468.32 1665.52 2466 1674.48 2466 1683.12 2468.32 1690.88 2472.79 1697.21 2479.12 1701.68 2486.88 1704 2495.52 1704 2504.48 1701.68 2513.12 1697.21 2520.88 1690.88 2527.21 1683.12 2531.68 1674.48 2534"/><path d="M 3674.48 2434 3665.52 2434 3656.88 2431.68 3649.12 2427.21 3642.79 2420.88 3638.32 2413.12 3636 2404.48 3636 2395.52 3638.32 2386.88 3642.79 2379.12 3649.12 2372.79 3656.88 2368.32 3665.52 2366 3674.48 2366 3683.12 2368.32 3690.88 2372.79 3697.21 2379.12 3701.68 2386.88 3704 2395.52 3704 2404.48 3701.68 2413.12 3697.21 2420.88 3690.88 2427.21 3683.12 2431.68 3674.48 2434"/><path d="M 3574.48 2434 3565.52 2434 3556.88 2431.68 3549.12 2427.21 3542.79 2420.88 3538.32 2413.12 3536 2404.48 3536 2395.52 3538.32 2386.88 3542.79 2379.12 3549.12 2372.79 3556.88 2368.32 3565.52 2366 3574.48 2366 3583.12 2368.32 3590.88 2372.79 3597.21 2379.12 3601.68 2386.88 3604 2395.52 3604 2404.48 3601.68 2413.12 3597.21 2420.88 3590.88 2427.21 3583.12 2431.68 3574.48 2434"/><path d="M 1774.48 2434 1765.52 2434 1756.88 2431.68 1749.12 2427.21 1742.79 2420.88 1738.32 2413.12 1736 2404.48 1736 2395.52 1738.32 2386.88 1742.79 2379.12 1749.12 2372.79 1756.88 2368.32 1765.52 2366 1774.48 2366 1783.12 2368.32 1790.88 2372.79 1797.21 2379.12 1801.68 2386.88 1804 2395.52 1804 2404.48 1801.68 2413.12 1797.21 2420.88 1790.88 2427.21 1783.12 2431.68 1774.48 2434"/><path d="M 1674.48 2434 1665.52 2434 1656.88 2431.68 1649.12 2427.21 1642.79 2420.88 1638.32 2413.12 1636 2404.48 1636 2395.52 1638.32 2386.88 1642.79 2379.12 1649.12 2372.79 1656.88 2368.32 1665.52 2366 1674.48 2366 1683.12 2368.32 1690.88 2372.79 1697.21 2379.12 1701.68 2386.88 1704 2395.52 1704 2404.48 1701.68 2413.12 1697.21 2420.88 1690.88 2427.21 1683.12 2431.68 1674.48 2434"/><path d="M 213.72 2479.24 198.63 2479.24 184.06 2475.33 171 2467.79 160.34 2457.13 152.8 2444.07 148.89 2429.5 148.89 2414.41 152.8 2399.84 160.34 2386.78 171 2376.12 184.06 2368.58 198.63 2364.67 213.72 2364.67 228.29 2368.58 241.35 2376.12 252.01 2386.78 259.56 2399.84 263.46 2414.41 263.46 2429.5 259.56 2444.07 252.01 2457.13 241.35 2467.79 228.29 2475.33 213.72 2479.24"/><path d="M 1433.18 2393.26 1426.82 2393.26 1420.94 2390.82 1416.44 2386.32 1414 2380.44 1414 2374.08 1416.44 2368.2 1420.94 2363.69 1426.82 2361.26 1433.18 2361.26 1439.06 2363.69 1443.56 2368.2 1446 2374.08 1446 2380.44 1443.56 2386.32 1439.06 2390.82 1433.18 2393.26"/><path d="M 2530.85 2439.23 2524.48 2439.23 2518.6 2436.79 2514.1 2432.29 2511.66 2426.41 2511.66 2420.04 2514.1 2414.16 2517.14 2411.12 2515.07 2406.12 2513.18 2406.12 2507.3 2403.69 2502.8 2399.19 2500.36 2393.31 2500.36 2386.94 2502.8 2381.06 2507.3 2376.56 2513.18 2374.12 2519.55 2374.12 2524.11 2376.02 2527.93 2373 2528.15 2372.69 2526.42 2368.53 2526.42 2362.16 2528.86 2356.28 2533.36 2351.78 2539.24 2349.35 2545.61 2349.35 2551.49 2351.78 2555.99 2356.28 2556.04 2356.29 2561.33 2356.11 2565.38 2352.06 2571.26 2349.62 2577.63 2349.62 2583.51 2352.06 2588.01 2356.56 2590.44 2362.44 2590.44 2368.81 2588.01 2374.69 2583.51 2379.19 2581.41 2385.47 2582.16 2387.28 2582.16 2393.65 2579.73 2399.53 2575.23 2404.03 2569.34 2406.47 2562.98 2406.47 2557.1 2404.03 2553.87 2400.8 2550.01 2404.66 2544.13 2407.09 2541.23 2407.09 2539.16 2412.1 2541.23 2414.16 2543.66 2420.04 2543.66 2426.41 2541.23 2432.29 2536.73 2436.79 2530.85 2439.23"/><path d="M 2033.18 2376 2026.82 2376 2020.94 2373.56 2016.44 2369.06 2014 2363.18 2014 2356.82 2016.44 2350.94 2020.94 2346.44 2026.82 2344 2033.18 2344 2039.06 2346.44 2043.56 2350.94 2046 2356.82 2046 2363.18 2043.56 2369.06 2039.06 2373.56 2033.18 2376"/><path d="M 1023.18 2366 1016.82 2366 1010.94 2363.56 1006.44 2359.06 1004 2353.18 1004 2346.82 1006.44 2340.94 1010.94 2336.44 1016.82 2334 1023.18 2334 1029.06 2336.44 1033.56 2340.94 1036 2346.82 1036 2353.18 1033.56 2359.06 1029.06 2363.56 1023.18 2366"/><path d="M 2253.18 2376 2246.82 2376 2240.94 2373.56 2236.44 2369.06 2234 2363.18 2234 2356.82 2234.71 2355.1 2234.25 2350.1 2228.36 2347.67 2223.87 2343.16 2221.43 2337.28 2221.43 2330.92 2223.87 2325.04 2228.36 2320.54 2234.25 2318.1 2240.61 2318.1 2246.49 2320.54 2250.99 2325.04 2253.43 2330.92 2253.43 2337.28 2252.72 2339 2253.18 2344 2259.06 2346.44 2263.56 2350.94 2266 2356.82 2266 2363.18 2263.56 2369.06 2259.06 2373.56 2253.18 2376"/><path d="M 2613.18 2347.13 2606.82 2347.13 2600.94 2344.69 2596.44 2340.19 2594 2334.31 2594 2327.94 2596.44 2322.06 2600.94 2317.56 2606.82 2315.13 2613.18 2315.13 2619.06 2317.56 2623.56 2322.06 2626 2327.94 2626 2334.31 2623.56 2340.19 2619.06 2344.69 2613.18 2347.13"/><path d="M 1285.04 2314.83 1278.68 2314.83 1272.8 2312.4 1268.3 2307.89 1265.86 2302.02 1265.86 2295.65 1268.3 2289.77 1272.8 2285.27 1278.68 2282.83 1285.04 2282.83 1290.92 2285.27 1295.42 2289.77 1297.86 2295.65 1297.86 2302.02 1295.42 2307.89 1290.92 2312.4 1285.04 2314.83"/><path d="M 2283.18 2326 2276.82 2326 2270.94 2323.56 2266.44 2319.06 2264 2313.18 2264 2310.62 2263.3 2306.69 2259.38 2306 2256.82 2306 2250.94 2303.56 2246.44 2299.06 2244 2293.18 2244 2286.82 2246.44 2280.94 2247.93 2279.45 2245.09 2275.21 2243.18 2276 2236.82 2276 2230.94 2273.56 2226.44 2269.06 2224 2263.18 2224 2256.82 2226.44 2250.94 2230.94 2246.44 2236.82 2244 2243.18 2244 2249.06 2246.44 2253.56 2250.94 2256 2256.82 2256 2263.18 2253.56 2269.06 2252.07 2270.55 2254.91 2274.79 2256.82 2274 2263.18 2274 2269.06 2276.44 2273.56 2280.94 2276 2286.82 2276 2289.38 2276.7 2293.3 2280.62 2294 2283.18 2294 2289.06 2296.44 2293.56 2300.94 2296 2306.82 2296 2313.18 2293.56 2319.06 2289.06 2323.56 2283.18 2326"/><path d="M 3674.48 2334 3665.52 2334 3656.88 2331.68 3649.12 2327.21 3642.79 2320.88 3638.32 2313.12 3636 2304.48 3636 2295.52 3638.32 2286.88 3642.79 2279.12 3649.12 2272.79 3656.88 2268.32 3665.52 2266 3674.48 2266 3683.12 2268.32 3690.88 2272.79 3697.21 2279.12 3701.68 2286.88 3704 2295.52 3704 2304.48 3701.68 2313.12 3697.21 2320.88 3690.88 2327.21 3683.12 2331.68 3674.48 2334"/><path d="M 3574.48 2334 3565.52 2334 3556.88 2331.68 3549.12 2327.21 3542.79 2320.88 3538.32 2313.12 3536 2304.48 3536 2295.52 3538.32 2286.88 3542.79 2279.12 3549.12 2272.79 3556.88 2268.32 3565.52 2266 3574.48 2266 3583.12 2268.32 3590.88 2272.79 3597.21 2279.12 3601.68 2286.88 3604 2295.52 3604 2304.48 3601.68 2313.12 3597.21 2320.88 3590.88 2327.21 3583.12 2331.68 3574.48 2334"/><path d="M 1774.48 2334 1765.52 2334 1756.88 2331.68 1749.12 2327.21 1742.79 2320.88 1738.32 2313.12 1736 2304.48 1736 2295.52 1738.32 2286.88 1742.79 2279.12 1749.12 2272.79 1756.88 2268.32 1765.52 2266 1774.48 2266 1783.12 2268.32 1790.88 2272.79 1797.21 2279.12 1801.68 2286.88 1804 2295.52 1804 2304.48 1801.68 2313.12 1797.21 2320.88 1790.88 2327.21 1783.12 2331.68 1774.48 2334"/><path d="M 1674.48 2334 1665.52 2334 1656.88 2331.68 1649.12 2327.21 1642.79 2320.88 1638.32 2313.12 1636 2304.48 1636 2295.52 1638.32 2286.88 1642.79 2279.12 1649.12 2272.79 1656.88 2268.32 1665.52 2266 1674.48 2266 1683.12 2268.32 1690.88 2272.79 1697.21 2279.12 1701.68 2286.88 1704 2295.52 1704 2304.48 1701.68 2313.12 1697.21 2320.88 1690.88 2327.21 1683.12 2331.68 1674.48 2334"/><path d="M 2444.77 2274.18 2438.41 2274.18 2432.52 2271.74 2428.02 2267.24 2426.87 2264.47 2423.18 2266 2416.82 2266 2410.94 2263.56 2406.44 2259.06 2404.92 2255.4 2399.62 2253.8 2399.28 2253.85 2393.61 2256.2 2387.24 2256.2 2381.36 2253.76 2376.86 2249.26 2374.43 2243.38 2374.43 2237.01 2376.86 2231.13 2381.36 2226.63 2387.24 2224.2 2389.77 2224.2 2390.36 2223.31 2390.36 2216.94 2392.8 2211.06 2397.3 2206.56 2403.18 2204.12 2409.54 2204.12 2415.43 2206.56 2419.93 2211.06 2422.36 2216.94 2422.36 2219.1 2425.03 2220.3 2427.36 2220.63 2431.36 2216.63 2437.24 2214.2 2443.61 2214.2 2449.49 2216.63 2453.99 2221.13 2456.43 2227.01 2456.43 2233.38 2453.99 2239.26 2452.91 2240.34 2450.65 2244.62 2455.15 2249.12 2457.59 2255 2457.59 2261.36 2455.15 2267.24 2450.65 2271.74 2444.77 2274.18"/><path d="M 2859.56 2283.58 2853.19 2283.58 2847.31 2281.14 2842.81 2276.64 2840.37 2270.76 2840.37 2264.39 2842.81 2258.51 2847.31 2254.01 2853.19 2251.57 2859.56 2251.57 2865.44 2254.01 2869.94 2258.51 2872.37 2264.39 2872.37 2270.76 2869.94 2276.64 2865.44 2281.14 2859.56 2283.58"/><path d="M 903.18 2256 896.82 2256 890.94 2253.56 886.44 2249.06 884 2243.18 884 2236.82 886.44 2230.94 890.94 2226.44 896.82 2224 903.18 2224 909.06 2226.44 913.56 2230.94 916 2236.82 916 2243.18 913.56 2249.06 909.06 2253.56 903.18 2256"/><path d="M 2153.18 2246 2146.82 2246 2140.94 2243.56 2136.44 2239.06 2134 2233.18 2134 2226.82 2136.44 2220.94 2140.94 2216.44 2146.82 2214 2153.18 2214 2159.06 2216.44 2163.56 2220.94 2166 2226.82 2166 2233.18 2163.56 2239.06 2159.06 2243.56 2153.18 2246"/><path d="M 3674.48 2234 3665.52 2234 3656.88 2231.68 3649.12 2227.21 3642.79 2220.88 3638.32 2213.12 3636 2204.48 3636 2195.52 3638.32 2186.88 3642.79 2179.12 3649.12 2172.79 3656.88 2168.32 3665.52 2166 3674.48 2166 3683.12 2168.32 3690.88 2172.79 3697.21 2179.12 3701.68 2186.88 3704 2195.52 3704 2204.48 3701.68 2213.12 3697.21 2220.88 3690.88 2227.21 3683.12 2231.68 3674.48 2234"/><path d="M 3574.48 2234 3565.52 2234 3556.88 2231.68 3549.12 2227.21 3542.79 2220.88 3538.32 2213.12 3536 2204.48 3536 2195.52 3538.32 2186.88 3542.79 2179.12 3549.12 2172.79 3556.88 2168.32 3565.52 2166 3574.48 2166 3583.12 2168.32 3590.88 2172.79 3597.21 2179.12 3601.68 2186.88 3604 2195.52 3604 2204.48 3601.68 2213.12 3597.21 2220.88 3590.88 2227.21 3583.12 2231.68 3574.48 2234"/><path d="M 1774.48 2234 1765.52 2234 1756.88 2231.68 1749.12 2227.21 1742.79 2220.88 1738.32 2213.12 1736 2204.48 1736 2195.52 1738.32 2186.88 1742.79 2179.12 1749.12 2172.79 1756.88 2168.32 1765.52 2166 1774.48 2166 1783.12 2168.32 1790.88 2172.79 1797.21 2179.12 1801.68 2186.88 1804 2195.52 1804 2204.48 1801.68 2213.12 1797.21 2220.88 1790.88 2227.21 1783.12 2231.68 1774.48 2234"/><path d="M 1674.48 2234 1665.52 2234 1656.88 2231.68 1649.12 2227.21 1642.79 2220.88 1638.32 2213.12 1636 2204.48 1636 2195.52 1638.32 2186.88 1642.79 2179.12 1649.12 2172.79 1656.88 2168.32 1665.52 2166 1674.48 2166 1683.12 2168.32 1690.88 2172.79 1697.21 2179.12 1701.68 2186.88 1704 2195.52 1704 2204.48 1701.68 2213.12 1697.21 2220.88 1690.88 2227.21 1683.12 2231.68 1674.48 2234"/><path d="M 2787.14 2126 2780.78 2126 2774.9 2123.56 2770.4 2119.06 2767.96 2113.18 2767.96 2106.82 2770.4 2100.94 2774.9 2096.44 2780.78 2094 2787.14 2094 2793.03 2096.44 2797.53 2100.94 2799.96 2106.82 2799.96 2113.18 2797.53 2119.06 2793.03 2123.56 2787.14 2126"/><path d="M 213.72 2191.84 198.63 2191.84 184.06 2187.93 171 2180.39 160.34 2169.73 152.8 2156.66 148.89 2142.09 148.89 2127.01 152.8 2112.44 160.34 2099.38 171 2088.72 184.06 2081.17 198.63 2077.27 213.72 2077.27 228.29 2081.17 241.35 2088.72 252.01 2099.38 259.56 2112.44 263.46 2127.01 263.46 2142.09 259.56 2156.66 252.01 2169.73 241.35 2180.39 228.29 2187.93 213.72 2191.84"/><path d="M 3674.48 2134 3665.52 2134 3656.88 2131.68 3649.12 2127.21 3642.79 2120.88 3638.32 2113.12 3636 2104.48 3636 2095.52 3638.32 2086.88 3642.79 2079.12 3649.12 2072.79 3656.88 2068.32 3665.52 2066 3674.48 2066 3683.12 2068.32 3690.88 2072.79 3697.21 2079.12 3701.68 2086.88 3704 2095.52 3704 2104.48 3701.68 2113.12 3697.21 2120.88 3690.88 2127.21 3683.12 2131.68 3674.48 2134"/><path d="M 3574.48 2134 3565.52 2134 3556.88 2131.68 3549.12 2127.21 3542.79 2120.88 3538.32 2113.12 3536 2104.48 3536 2095.52 3538.32 2086.88 3542.79 2079.12 3549.12 2072.79 3556.88 2068.32 3565.52 2066 3574.48 2066 3583.12 2068.32 3590.88 2072.79 3597.21 2079.12 3601.68 2086.88 3604 2095.52 3604 2104.48 3601.68 2113.12 3597.21 2120.88 3590.88 2127.21 3583.12 2131.68 3574.48 2134"/><path d="M 1774.48 2134 1765.52 2134 1756.88 2131.68 1749.12 2127.21 1742.79 2120.88 1738.32 2113.12 1736 2104.48 1736 2095.52 1738.32 2086.88 1742.79 2079.12 1749.12 2072.79 1756.88 2068.32 1765.52 2066 1774.48 2066 1783.12 2068.32 1790.88 2072.79 1797.21 2079.12 1801.68 2086.88 1804 2095.52 1804 2104.48 1801.68 2113.12 1797.21 2120.88 1790.88 2127.21 1783.12 2131.68 1774.48 2134"/><path d="M 1674.48 2134 1665.52 2134 1656.88 2131.68 1649.12 2127.21 1642.79 2120.88 1638.32 2113.12 1636 2104.48 1636 2095.52 1638.32 2086.88 1642.79 2079.12 1649.12 2072.79 1656.88 2068.32 1665.52 2066 1674.48 2066 1683.12 2068.32 1690.88 2072.79 1697.21 2079.12 1701.68 2086.88 1704 2095.52 1704 2104.48 1701.68 2113.12 1697.21 2120.88 1690.88 2127.21 1683.12 2131.68 1674.48 2134"/><path d="M 1149.54 2056.12 1143.18 2056.12 1137.3 2053.69 1132.8 2049.19 1130.36 2043.31 1130.36 2036.94 1130.84 2035.79 1128.06 2031.63 1126.82 2031.63 1120.94 2029.19 1116.89 2032.22 1115.42 2033.69 1109.54 2036.12 1103.18 2036.12 1097.3 2033.69 1092.8 2029.19 1090.36 2023.31 1090.36 2016.94 1092.8 2011.06 1097.3 2006.56 1103.18 2004.12 1109.54 2004.12 1115.42 2006.56 1119.47 2003.53 1120.94 2002.07 1126.82 1999.63 1133.18 1999.63 1139.06 2002.07 1142.68 2001.35 1142.8 2001.06 1147.3 1996.56 1153.18 1994.12 1159.54 1994.12 1165.42 1996.56 1169.93 2001.06 1172.36 2006.94 1172.36 2013.31 1169.93 2019.19 1165.42 2023.69 1161.32 2025.39 1159.8 2030.13 1159.86 2030.99 1159.93 2031.06 1162.36 2036.94 1162.36 2043.31 1159.93 2049.19 1155.42 2053.69 1149.54 2056.12"/><path d="M 3674.48 2034 3665.52 2034 3656.88 2031.68 3649.12 2027.21 3642.79 2020.88 3638.32 2013.12 3636 2004.48 3636 1995.52 3638.32 1986.88 3642.79 1979.12 3649.12 1972.79 3656.88 1968.32 3665.52 1966 3674.48 1966 3683.12 1968.32 3690.88 1972.79 3697.21 1979.12 3701.68 1986.88 3704 1995.52 3704 2004.48 3701.68 2013.12 3697.21 2020.88 3690.88 2027.21 3683.12 2031.68 3674.48 2034"/><path d="M 3574.48 2034 3565.52 2034 3556.88 2031.68 3549.12 2027.21 3542.79 2020.88 3538.32 2013.12 3536 2004.48 3536 1995.52 3538.32 1986.88 3542.79 1979.12 3549.12 1972.79 3556.88 1968.32 3565.52 1966 3574.48 1966 3583.12 1968.32 3590.88 1972.79 3597.21 1979.12 3601.68 1986.88 3604 1995.52 3604 2004.48 3601.68 2013.12 3597.21 2020.88 3590.88 2027.21 3583.12 2031.68 3574.48 2034"/><path d="M 1774.48 2034 1765.52 2034 1756.88 2031.68 1749.12 2027.21 1742.79 2020.88 1738.32 2013.12 1736 2004.48 1736 1995.52 1738.32 1986.88 1742.79 1979.12 1749.12 1972.79 1756.88 1968.32 1765.52 1966 1774.48 1966 1783.12 1968.32 1790.88 1972.79 1797.21 1979.12 1801.68 1986.88 1804 1995.52 1804 2004.48 1801.68 2013.12 1797.21 2020.88 1790.88 2027.21 1783.12 2031.68 1774.48 2034"/><path d="M 1674.48 2034 1665.52 2034 1656.88 2031.68 1649.12 2027.21 1642.79 2020.88 1638.32 2013.12 1636 2004.48 1636 1995.52 1638.32 1986.88 1642.79 1979.12 1649.12 1972.79 1656.88 1968.32 1665.52 1966 1674.48 1966 1683.12 1968.32 1690.88 1972.79 1697.21 1979.12 1701.68 1986.88 1704 1995.52 1704 2004.48 1701.68 2013.12 1697.21 2020.88 1690.88 2027.21 1683.12 2031.68 1674.48 2034"/><path d="M 2453.18 1996 2446.82 1996 2440.94 1993.56 2436.44 1989.06 2434 1983.18 2434 1976.82 2436.44 1970.94 2440.94 1966.44 2446.82 1964 2453.18 1964 2459.06 1966.44 2463.56 1970.94 2466 1976.82 2466 1983.18 2463.56 1989.06 2459.06 1993.56 2453.18 1996"/><path d="M 1253.18 1966 1246.82 1966 1240.94 1963.56 1236.44 1959.06 1234 1953.18 1234 1946.82 1236.44 1940.94 1240.94 1936.44 1246.82 1934 1253.18 1934 1259.06 1936.44 1263.56 1940.94 1266 1946.82 1266 1953.18 1263.56 1959.06 1259.06 1963.56 1253.18 1966"/><path d="M 1202.06 1966 1195.69 1966 1189.81 1963.56 1185.31 1959.06 1182.87 1953.18 1182.87 1946.82 1185.31 1940.94 1189.81 1936.44 1195.69 1934 1202.06 1934 1207.94 1936.44 1212.44 1940.94 1214.87 1946.82 1214.87 1953.18 1212.44 1959.06 1207.94 1963.56 1202.06 1966"/><path d="M 1253.18 1916 1246.82 1916 1240.94 1913.56 1236.44 1909.06 1234 1903.18 1234 1896.82 1236.44 1890.94 1240.94 1886.44 1246.82 1884 1253.18 1884 1259.06 1886.44 1263.56 1890.94 1266 1896.82 1266 1903.18 1263.56 1909.06 1259.06 1913.56 1253.18 1916"/><path d="M 1193.18 1916 1186.82 1916 1180.94 1913.56 1176.44 1909.06 1174 1903.18 1174 1896.82 1176.44 1890.94 1180.94 1886.44 1186.82 1884 1193.18 1884 1199.06 1886.44 1203.56 1890.94 1206 1896.82 1206 1903.18 1203.56 1909.06 1199.06 1913.56 1193.18 1916"/><path d="M 2233.18 1906 2226.82 1906 2220.94 1903.56 2216.44 1899.06 2214 1893.18 2214 1886.82 2216.44 1880.94 2220.94 1876.44 2226.82 1874 2233.18 1874 2239.06 1876.44 2243.56 1880.94 2246 1886.82 2246 1893.18 2243.56 1899.06 2239.06 1903.56 2233.18 1906"/><path d="M 3674.48 1934 3665.52 1934 3656.88 1931.68 3649.12 1927.21 3642.79 1920.88 3638.32 1913.12 3636 1904.48 3636 1895.52 3638.32 1886.88 3642.79 1879.12 3649.12 1872.79 3656.88 1868.32 3665.52 1866 3674.48 1866 3683.12 1868.32 3690.88 1872.79 3697.21 1879.12 3701.68 1886.88 3704 1895.52 3704 1904.48 3701.68 1913.12 3697.21 1920.88 3690.88 1927.21 3683.12 1931.68 3674.48 1934"/><path d="M 3574.48 1934 3565.52 1934 3556.88 1931.68 3549.12 1927.21 3542.79 1920.88 3538.32 1913.12 3536 1904.48 3536 1895.52 3538.32 1886.88 3542.79 1879.12 3549.12 1872.79 3556.88 1868.32 3565.52 1866 3574.48 1866 3583.12 1868.32 3590.88 1872.79 3597.21 1879.12 3601.68 1886.88 3604 1895.52 3604 1904.48 3601.68 1913.12 3597.21 1920.88 3590.88 1927.21 3583.12 1931.68 3574.48 1934"/><path d="M 1774.48 1934 1765.52 1934 1756.88 1931.68 1749.12 1927.21 1742.79 1920.88 1738.32 1913.12 1736 1904.48 1736 1895.52 1738.32 1886.88 1742.79 1879.12 1749.12 1872.79 1756.88 1868.32 1765.52 1866 1774.48 1866 1783.12 1868.32 1790.88 1872.79 1797.21 1879.12 1801.68 1886.88 1804 1895.52 1804 1904.48 1801.68 1913.12 1797.21 1920.88 1790.88 1927.21 1783.12 1931.68 1774.48 1934"/><path d="M 1674.48 1934 1665.52 1934 1656.88 1931.68 1649.12 1927.21 1642.79 1920.88 1638.32 1913.12 1636 1904.48 1636 1895.52 1638.32 1886.88 1642.79 1879.12 1649.12 1872.79 1656.88 1868.32 1665.52 1866 1674.48 1866 1683.12 1868.32 1690.88 1872.79 1697.21 1879.12 1701.68 1886.88 1704 1895.52 1704 1904.48 1701.68 1913.12 1697.21 1920.88 1690.88 1927.21 1683.12 1931.68 1674.48 1934"/><path d="M 212.19 1930.04 197.1 1930.04 182.53 1926.14 169.47 1918.59 158.81 1907.93 151.27 1894.87 147.36 1880.3 147.36 1865.21 151.27 1850.64 158.81 1837.58 169.47 1826.92 182.53 1819.38 197.1 1815.47 212.19 1815.47 226.76 1819.38 239.82 1826.92 250.48 1837.58 258.02 1850.64 261.93 1865.21 261.93 1880.3 258.02 1894.87 250.48 1907.93 239.82 1918.59 226.76 1926.14 212.19 1930.04"/><path d="M 2859.56 1826 2853.19 1826 2847.31 1823.56 2842.81 1819.06 2840.37 1813.18 2840.37 1806.82 2842.81 1800.94 2847.31 1796.44 2853.19 1794 2859.56 1794 2865.44 1796.44 2869.94 1800.94 2872.37 1806.82 2872.37 1813.18 2869.94 1819.06 2865.44 1823.56 2859.56 1826"/><path d="M 3674.48 1834 3665.52 1834 3656.88 1831.68 3649.12 1827.21 3642.79 1820.88 3638.32 1813.12 3636 1804.48 3636 1795.52 3638.32 1786.88 3642.79 1779.12 3649.12 1772.79 3656.88 1768.32 3665.52 1766 3674.48 1766 3683.12 1768.32 3690.88 1772.79 3697.21 1779.12 3701.68 1786.88 3704 1795.52 3704 1804.48 3701.68 1813.12 3697.21 1820.88 3690.88 1827.21 3683.12 1831.68 3674.48 1834"/><path d="M 3574.48 1834 3565.52 1834 3556.88 1831.68 3549.12 1827.21 3542.79 1820.88 3538.32 1813.12 3536 1804.48 3536 1795.52 3538.32 1786.88 3542.79 1779.12 3549.12 1772.79 3556.88 1768.32 3565.52 1766 3574.48 1766 3583.12 1768.32 3590.88 1772.79 3597.21 1779.12 3601.68 1786.88 3604 1795.52 3604 1804.48 3601.68 1813.12 3597.21 1820.88 3590.88 1827.21 3583.12 1831.68 3574.48 1834"/><path d="M 1774.48 1834 1765.52 1834 1756.88 1831.68 1749.12 1827.21 1742.79 1820.88 1738.32 1813.12 1736 1804.48 1736 1795.52 1738.32 1786.88 1742.79 1779.12 1749.12 1772.79 1756.88 1768.32 1765.52 1766 1774.48 1766 1783.12 1768.32 1790.88 1772.79 1797.21 1779.12 1801.68 1786.88 1804 1795.52 1804 1804.48 1801.68 1813.12 1797.21 1820.88 1790.88 1827.21 1783.12 1831.68 1774.48 1834"/><path d="M 1674.48 1834 1665.52 1834 1656.88 1831.68 1649.12 1827.21 1642.79 1820.88 1638.32 1813.12 1636 1804.48 1636 1795.52 1638.32 1786.88 1642.79 1779.12 1649.12 1772.79 1656.88 1768.32 1665.52 1766 1674.48 1766 1683.12 1768.32 1690.88 1772.79 1697.21 1779.12 1701.68 1786.88 1704 1795.52 1704 1804.48 1701.68 1813.12 1697.21 1820.88 1690.88 1827.21 1683.12 1831.68 1674.48 1834"/><path d="M 3674.48 1734 3665.52 1734 3656.88 1731.68 3649.12 1727.21 3642.79 1720.88 3638.32 1713.12 3636 1704.48 3636 1695.52 3638.32 1686.88 3642.79 1679.12 3649.12 1672.79 3656.88 1668.32 3665.52 1666 3674.48 1666 3683.12 1668.32 3690.88 1672.79 3697.21 1679.12 3701.68 1686.88 3704 1695.52 3704 1704.48 3701.68 1713.12 3697.21 1720.88 3690.88 1727.21 3683.12 1731.68 3674.48 1734"/><path d="M 3574.48 1734 3565.52 1734 3556.88 1731.68 3549.12 1727.21 3542.79 1720.88 3538.32 1713.12 3536 1704.48 3536 1695.52 3538.32 1686.88 3542.79 1679.12 3549.12 1672.79 3556.88 1668.32 3565.52 1666 3574.48 1666 3583.12 1668.32 3590.88 1672.79 3597.21 1679.12 3601.68 1686.88 3604 1695.52 3604 1704.48 3601.68 1713.12 3597.21 1720.88 3590.88 1727.21 3583.12 1731.68 3574.48 1734"/><path d="M 1774.48 1734 1765.52 1734 1756.88 1731.68 1749.12 1727.21 1742.79 1720.88 1738.32 1713.12 1736 1704.48 1736 1695.52 1738.32 1686.88 1742.79 1679.12 1749.12 1672.79 1756.88 1668.32 1765.52 1666 1774.48 1666 1783.12 1668.32 1790.88 1672.79 1797.21 1679.12 1801.68 1686.88 1804 1695.52 1804 1704.48 1801.68 1713.12 1797.21 1720.88 1790.88 1727.21 1783.12 1731.68 1774.48 1734"/><path d="M 1674.48 1734 1665.52 1734 1656.88 1731.68 1649.12 1727.21 1642.79 1720.88 1638.32 1713.12 1636 1704.48 1636 1695.52 1638.32 1686.88 1642.79 1679.12 1649.12 1672.79 1656.88 1668.32 1665.52 1666 1674.48 1666 1683.12 1668.32 1690.88 1672.79 1697.21 1679.12 1701.68 1686.88 1704 1695.52 1704 1704.48 1701.68 1713.12 1697.21 1720.88 1690.88 1727.21 1683.12 1731.68 1674.48 1734"/><path d="M 1373.18 1696 1366.82 1696 1360.94 1693.56 1356.44 1689.06 1354 1683.18 1354 1676.82 1356.44 1670.94 1360.94 1666.44 1366.82 1664 1373.18 1664 1379.06 1666.44 1383.56 1670.94 1386 1676.82 1386 1683.18 1383.56 1689.06 1379.06 1693.56 1373.18 1696"/><path d="M 1223.18 1636 1216.82 1636 1210.94 1633.56 1206.44 1629.06 1204 1623.18 1204 1616.82 1206.44 1610.94 1210.94 1606.44 1216.82 1604 1223.18 1604 1229.06 1606.44 1233.56 1610.94 1236 1616.82 1236 1623.18 1233.56 1629.06 1229.06 1633.56 1223.18 1636"/><path d="M 1013.18 1626 1006.82 1626 1000.94 1623.56 996.44 1619.06 994 1613.18 994 1606.82 996.44 1600.94 1000.94 1596.44 1006.82 1594 1013.18 1594 1019.06 1596.44 1023.56 1600.94 1026 1606.82 1026 1613.18 1023.56 1619.06 1019.06 1623.56 1013.18 1626"/><path d="M 3674.48 1634 3665.52 1634 3656.88 1631.68 3649.12 1627.21 3642.79 1620.88 3638.32 1613.12 3636 1604.48 3636 1595.52 3638.32 1586.88 3642.79 1579.12 3649.12 1572.79 3656.88 1568.32 3665.52 1566 3674.48 1566 3683.12 1568.32 3690.88 1572.79 3697.21 1579.12 3701.68 1586.88 3704 1595.52 3704 1604.48 3701.68 1613.12 3697.21 1620.88 3690.88 1627.21 3683.12 1631.68 3674.48 1634"/><path d="M 3574.48 1634 3565.52 1634 3556.88 1631.68 3549.12 1627.21 3542.79 1620.88 3538.32 1613.12 3536 1604.48 3536 1595.52 3538.32 1586.88 3542.79 1579.12 3549.12 1572.79 3556.88 1568.32 3565.52 1566 3574.48 1566 3583.12 1568.32 3590.88 1572.79 3597.21 1579.12 3601.68 1586.88 3604 1595.52 3604 1604.48 3601.68 1613.12 3597.21 1620.88 3590.88 1627.21 3583.12 1631.68 3574.48 1634"/><path d="M 1774.48 1634 1765.52 1634 1756.88 1631.68 1749.12 1627.21 1742.79 1620.88 1738.32 1613.12 1736 1604.48 1736 1595.52 1738.32 1586.88 1742.79 1579.12 1749.12 1572.79 1756.88 1568.32 1765.52 1566 1774.48 1566 1783.12 1568.32 1790.88 1572.79 1797.21 1579.12 1801.68 1586.88 1804 1595.52 1804 1604.48 1801.68 1613.12 1797.21 1620.88 1790.88 1627.21 1783.12 1631.68 1774.48 1634"/><path d="M 1674.48 1634 1665.52 1634 1656.88 1631.68 1649.12 1627.21 1642.79 1620.88 1638.32 1613.12 1636 1604.48 1636 1595.52 1638.32 1586.88 1642.79 1579.12 1649.12 1572.79 1656.88 1568.32 1665.52 1566 1674.48 1566 1683.12 1568.32 1690.88 1572.79 1697.21 1579.12 1701.68 1586.88 1704 1595.52 1704 1604.48 1701.68 1613.12 1697.21 1620.88 1690.88 1627.21 1683.12 1631.68 1674.48 1634"/><path d="M 873.18 1566 866.82 1566 860.94 1563.56 856.44 1559.06 854 1553.18 854 1546.82 856.44 1540.94 860.94 1536.44 866.82 1534 873.18 1534 879.06 1536.44 883.56 1540.94 886 1546.82 886 1553.18 883.56 1559.06 879.06 1563.56 873.18 1566"/><path d="M 212.19 1642.64 197.1 1642.64 182.53 1638.73 169.47 1631.19 158.81 1620.53 151.27 1607.47 147.36 1592.9 147.36 1577.81 151.27 1563.24 158.81 1550.18 169.47 1539.52 182.53 1531.98 197.1 1528.07 212.19 1528.07 226.76 1531.98 239.82 1539.52 250.48 1550.18 258.02 1563.24 261.93 1577.81 261.93 1592.9 258.02 1607.47 250.48 1620.53 239.82 1631.19 226.76 1638.73 212.19 1642.64"/><path d="M 3674.48 1534 3665.52 1534 3656.88 1531.68 3649.12 1527.21 3642.79 1520.88 3638.32 1513.12 3636 1504.48 3636 1495.52 3638.32 1486.88 3642.79 1479.12 3649.12 1472.79 3656.88 1468.32 3665.52 1466 3674.48 1466 3683.12 1468.32 3690.88 1472.79 3697.21 1479.12 3701.68 1486.88 3704 1495.52 3704 1504.48 3701.68 1513.12 3697.21 1520.88 3690.88 1527.21 3683.12 1531.68 3674.48 1534"/><path d="M 3574.48 1534 3565.52 1534 3556.88 1531.68 3549.12 1527.21 3542.79 1520.88 3538.32 1513.12 3536 1504.48 3536 1495.52 3538.32 1486.88 3542.79 1479.12 3549.12 1472.79 3556.88 1468.32 3565.52 1466 3574.48 1466 3583.12 1468.32 3590.88 1472.79 3597.21 1479.12 3601.68 1486.88 3604 1495.52 3604 1504.48 3601.68 1513.12 3597.21 1520.88 3590.88 1527.21 3583.12 1531.68 3574.48 1534"/><path d="M 1774.48 1534 1765.52 1534 1756.88 1531.68 1749.12 1527.21 1742.79 1520.88 1738.32 1513.12 1736 1504.48 1736 1495.52 1738.32 1486.88 1742.79 1479.12 1749.12 1472.79 1756.88 1468.32 1765.52 1466 1774.48 1466 1783.12 1468.32 1790.88 1472.79 1797.21 1479.12 1801.68 1486.88 1804 1495.52 1804 1504.48 1801.68 1513.12 1797.21 1520.88 1790.88 1527.21 1783.12 1531.68 1774.48 1534"/><path d="M 1674.48 1534 1665.52 1534 1656.88 1531.68 1649.12 1527.21 1642.79 1520.88 1638.32 1513.12 1636 1504.48 1636 1495.52 1638.32 1486.88 1642.79 1479.12 1649.12 1472.79 1656.88 1468.32 1665.52 1466 1674.48 1466 1683.12 1468.32 1690.88 1472.79 1697.21 1479.12 1701.68 1486.88 1704 1495.52 1704 1504.48 1701.68 1513.12 1697.21 1520.88 1690.88 1527.21 1683.12 1531.68 1674.48 1534"/><path d="M 3674.48 1434 3665.52 1434 3656.88 1431.68 3649.12 1427.21 3642.79 1420.88 3638.32 1413.12 3636 1404.48 3636 1395.52 3638.32 1386.88 3642.79 1379.12 3649.12 1372.79 3656.88 1368.32 3665.52 1366 3674.48 1366 3683.12 1368.32 3690.88 1372.79 3697.21 1379.12 3701.68 1386.88 3704 1395.52 3704 1404.48 3701.68 1413.12 3697.21 1420.88 3690.88 1427.21 3683.12 1431.68 3674.48 1434"/><path d="M 3574.48 1434 3565.52 1434 3556.88 1431.68 3549.12 1427.21 3542.79 1420.88 3538.32 1413.12 3536 1404.48 3536 1395.52 3538.32 1386.88 3542.79 1379.12 3549.12 1372.79 3556.88 1368.32 3565.52 1366 3574.48 1366 3583.12 1368.32 3590.88 1372.79 3597.21 1379.12 3601.68 1386.88 3604 1395.52 3604 1404.48 3601.68 1413.12 3597.21 1420.88 3590.88 1427.21 3583.12 1431.68 3574.48 1434"/><path d="M 1774.48 1434 1765.52 1434 1756.88 1431.68 1749.12 1427.21 1742.79 1420.88 1738.32 1413.12 1736 1404.48 1736 1395.52 1738.32 1386.88 1742.79 1379.12 1749.12 1372.79 1756.88 1368.32 1765.52 1366 1774.48 1366 1783.12 1368.32 1790.88 1372.79 1797.21 1379.12 1801.68 1386.88 1804 1395.52 1804 1404.48 1801.68 1413.12 1797.21 1420.88 1790.88 1427.21 1783.12 1431.68 1774.48 1434"/><path d="M 1674.48 1434 1665.52 1434 1656.88 1431.68 1649.12 1427.21 1642.79 1420.88 1638.32 1413.12 1636 1404.48 1636 1395.52 1638.32 1386.88 1642.79 1379.12 1649.12 1372.79 1656.88 1368.32 1665.52 1366 1674.48 1366 1683.12 1368.32 1690.88 1372.79 1697.21 1379.12 1701.68 1386.88 1704 1395.52 1704 1404.48 1701.68 1413.12 1697.21 1420.88 1690.88 1427.21 1683.12 1431.68 1674.48 1434"/><path d="M 653.18 1336 646.82 1336 640.94 1333.56 636.44 1329.06 634 1323.18 634 1316.82 636.44 1310.94 640.94 1306.44 646.82 1304 653.18 1304 659.06 1306.44 663.56 1310.94 666 1316.82 666 1323.18 663.56 1329.06 659.06 1333.56 653.18 1336"/><path d="M 1089.55 1296.12 1083.18 1296.12 1077.3 1293.69 1073.12 1289.51 1069.06 1293.56 1063.18 1296 1056.82 1296 1050.94 1293.56 1048.24 1290.87 1045.43 1293.69 1039.55 1296.12 1033.18 1296.12 1027.3 1293.69 1022.8 1289.19 1020.36 1283.31 1020.36 1276.94 1022.8 1271.06 1027.3 1266.56 1033.18 1264.12 1039.55 1264.12 1045.43 1266.56 1046.91 1268.05 1051.15 1265.22 1050.36 1263.31 1050.36 1256.94 1052.8 1251.06 1057.3 1246.56 1063.18 1244.12 1069.55 1244.12 1075.43 1246.56 1079.93 1251.06 1082.36 1256.94 1082.36 1259.5 1083.06 1263.43 1086.98 1264.12 1089.55 1264.12 1095.43 1266.56 1099.93 1271.06 1102.36 1276.94 1102.36 1283.31 1099.93 1289.19 1095.43 1293.69 1089.55 1296.12"/><path d="M 1299.55 1216.12 1293.18 1216.12 1287.3 1213.69 1283.12 1209.51 1279.06 1213.56 1273.18 1216 1266.82 1216 1260.94 1213.56 1258.24 1210.87 1255.42 1213.69 1249.54 1216.12 1243.18 1216.12 1237.3 1213.69 1232.8 1209.19 1230.36 1203.31 1230.36 1196.94 1232.8 1191.06 1237.3 1186.56 1243.18 1184.12 1249.54 1184.12 1251.45 1184.91 1254.29 1180.68 1252.8 1179.19 1250.36 1173.31 1250.36 1166.94 1252.8 1161.06 1257.3 1156.56 1263.18 1154.12 1269.54 1154.12 1275.42 1156.56 1279.93 1161.06 1282.36 1166.94 1282.36 1173.31 1279.93 1179.19 1278.38 1180.74 1279.06 1186.44 1283.24 1190.62 1287.3 1186.56 1293.18 1184.12 1299.55 1184.12 1305.43 1186.56 1309.93 1191.06 1312.36 1196.94 1312.36 1203.31 1309.93 1209.19 1305.43 1213.69 1299.55 1216.12"/><path d="M 1025.04 1127.48 1018.68 1127.48 1012.8 1125.04 1008.3 1120.54 1005.86 1114.66 1005.86 1108.29 1008.3 1102.41 1012.8 1097.91 1018.68 1095.48 1025.04 1095.48 1030.92 1097.91 1035.42 1102.41 1037.86 1108.29 1037.86 1114.66 1035.42 1120.54 1030.92 1125.04 1025.04 1127.48"/><path d="M 1103.18 1126 1096.82 1126 1090.94 1123.56 1086.44 1119.06 1084 1113.18 1084 1106.82 1086.44 1100.94 1090.94 1096.44 1096.82 1094 1103.18 1094 1109.06 1096.44 1113.56 1100.94 1116 1106.82 1116 1113.18 1113.56 1119.06 1109.06 1123.56 1103.18 1126"/><path d="M 3629.92 1226.05 3610.08 1226.05 3590.48 1222.94 3571.61 1216.81 3553.94 1207.81 3537.89 1196.14 3523.86 1182.11 3512.2 1166.06 3503.19 1148.39 3497.06 1129.52 3493.95 1109.92 3493.95 1090.08 3497.06 1070.48 3503.19 1051.61 3512.2 1033.94 3523.86 1017.89 3537.89 1003.86 3553.94 992.2 3571.61 983.19 3590.48 977.06 3610.08 973.95 3629.92 973.95 3649.52 977.06 3668.39 983.19 3686.06 992.2 3702.11 1003.86 3716.14 1017.89 3727.8 1033.94 3736.81 1051.61 3742.94 1070.48 3746.05 1090.08 3746.05 1109.92 3742.94 1129.52 3736.81 1148.39 3727.8 1166.06 3716.14 1182.11 3702.11 1196.14 3686.06 1207.81 3668.39 1216.81 3649.52 1222.94 3629.92 1226.05"/><path d="M 1729.92 1226.05 1710.08 1226.05 1690.48 1222.94 1671.62 1216.81 1653.94 1207.81 1637.89 1196.14 1623.86 1182.11 1612.2 1166.06 1603.19 1148.39 1597.06 1129.52 1593.95 1109.92 1593.95 1090.08 1597.06 1070.48 1603.19 1051.61 1612.2 1033.94 1623.86 1017.89 1637.89 1003.86 1653.94 992.2 1671.62 983.19 1690.48 977.06 1710.08 973.95 1729.92 973.95 1749.52 977.06 1768.39 983.19 1786.06 992.2 1802.11 1003.86 1816.14 1017.89 1827.81 1033.94 1836.81 1051.61 1842.94 1070.48 1846.05 1090.08 1846.05 1109.92 1842.94 1129.52 1836.81 1148.39 1827.81 1166.06 1816.14 1182.11 1802.11 1196.14 1786.06 1207.81 1768.39 1216.81 1749.52 1222.94 1729.92 1226.05"/><path d="M 2505.39 929.19 2499.03 929.19 2493.14 926.76 2488.64 922.26 2487.82 920.28 2481.93 919.1 2481.24 919.79 2475.35 922.23 2468.99 922.23 2463.11 919.79 2458.61 915.29 2456.17 909.41 2456.17 903.05 2458.61 897.17 2463.11 892.67 2462.16 887.65 2460.36 883.31 2460.36 876.94 2462.8 871.06 2467.3 866.56 2471.06 865 2470.36 863.31 2470.36 856.94 2472.8 851.06 2477.3 846.56 2483.18 844.12 2489.55 844.12 2495.42 846.56 2499.93 851.06 2502.36 856.94 2502.36 859.1 2505.03 860.3 2507.36 860.63 2511.36 856.63 2517.24 854.2 2523.61 854.2 2529.49 856.63 2533.99 861.13 2536.43 867.01 2536.43 873.38 2533.99 879.26 2529.49 883.76 2525.72 885.32 2526.43 887.01 2526.43 893.38 2523.99 899.26 2519.49 903.76 2516.19 905.13 2518.21 910.01 2518.21 916.38 2515.77 922.26 2511.27 926.76 2505.39 929.19"/><path d="M 933.18 936 926.82 936 920.94 933.56 916.44 929.06 914 923.18 914 916.82 916.44 910.94 920.94 906.44 926.82 904 933.18 904 939.06 906.44 943.56 910.94 946 916.82 946 923.18 943.56 929.06 939.06 933.56 933.18 936"/><path d="M 1213.18 866 1206.82 866 1200.94 863.56 1196.44 859.06 1194 853.18 1194 846.82 1196.44 840.94 1200.94 836.44 1206.82 834 1213.18 834 1219.06 836.44 1223.56 840.94 1226 846.82 1226 853.18 1223.56 859.06 1219.06 863.56 1213.18 866"/><path d="M 853.18 856 846.82 856 840.94 853.56 836.44 849.06 834 843.18 834 836.82 836.44 830.94 840.94 826.44 846.82 824 853.18 824 859.06 826.44 863.56 830.94 866 836.82 866 843.18 863.56 849.06 859.06 853.56 853.18 856"/><path d="M 403.18 816 396.82 816 390.94 813.56 386.44 809.06 384 803.18 384 796.82 386.44 790.94 390.94 786.44 396.82 784 403.18 784 409.06 786.44 413.56 790.94 416 796.82 416 803.18 413.56 809.06 409.06 813.56 403.18 816"/><path d="M 1523.61 776.2 1517.24 776.2 1511.36 773.76 1506.86 769.26 1504.43 763.38 1504.43 757.01 1506.86 751.13 1511.36 746.63 1517.24 744.2 1523.61 744.2 1529.49 746.63 1533.99 751.13 1536.43 757.01 1536.43 763.38 1533.99 769.26 1529.49 773.76 1523.61 776.2"/><path d="M 373.61 786.2 367.24 786.2 361.36 783.76 356.86 779.26 354.43 773.38 354.43 767.01 356.86 761.13 361.36 756.63 367.24 754.2 373.61 754.2 379.49 756.63 380.39 757.53 384.63 754.7 384 753.18 384 746.82 386.44 740.94 390.94 736.44 396.82 734 403.18 734 409.06 736.44 409.49 736.86 410.65 736.9 415.1 735.4 416.86 731.13 421.36 726.63 427.24 724.2 433.61 724.2 439.49 726.63 443.99 731.13 446.43 737.01 446.43 743.38 443.99 749.26 439.49 753.76 438.46 759.6 439.93 761.06 442.36 766.94 442.36 773.31 439.93 779.19 435.43 783.69 429.54 786.12 423.18 786.12 417.3 783.69 412.8 779.19 410.36 773.31 410.36 768.44 407.19 765.54 405.79 764.92 403.18 766 396.82 766 390.94 763.56 390.04 762.66 385.8 765.5 386.43 767.01 386.43 773.38 383.99 779.26 379.49 783.76 373.61 786.2"/><path d="M 1523.61 696.2 1517.24 696.2 1511.36 693.76 1506.86 689.26 1504.43 683.38 1504.43 677.01 1506.86 671.13 1511.36 666.63 1517.24 664.2 1523.61 664.2 1529.49 666.63 1533.99 671.13 1536.43 677.01 1536.43 683.38 1533.99 689.26 1529.49 693.76 1523.61 696.2"/><path d="M 723.18 686 716.82 686 710.94 683.56 706.44 679.06 704 673.18 704 666.82 706.44 660.94 710.94 656.44 716.82 654 723.18 654 729.06 656.44 733.56 660.94 736 666.82 736 673.18 733.56 679.06 729.06 683.56 723.18 686"/><path d="M 2205.04 324.83 2198.68 324.83 2192.8 322.4 2188.29 317.89 2185.86 312.01 2185.86 305.65 2188.29 299.77 2192.8 295.27 2198.68 292.83 2205.04 292.83 2210.92 295.27 2215.42 299.77 2217.86 305.65 2217.86 312.01 2215.42 317.89 2210.92 322.4 2205.04 324.83"/><path d="M 1981.24 257.28 1966.16 257.28 1951.59 253.38 1938.53 245.84 1927.86 235.17 1920.32 222.11 1916.42 207.54 1916.42 192.46 1920.32 177.89 1927.86 164.83 1938.53 154.16 1951.59 146.62 1966.16 142.72 1981.24 142.72 1995.81 146.62 2008.87 154.16 2019.54 164.83 2027.08 177.89 2030.98 192.46 2030.98 207.54 2027.08 222.11 2019.54 235.17 2008.87 245.84 1995.81 253.38 1981.24 257.28"/><path d="M 1693.84 257.28 1678.76 257.28 1664.19 253.38 1651.13 245.84 1640.46 235.17 1632.92 222.11 1629.02 207.54 1629.02 192.46 1632.92 177.89 1640.46 164.83 1651.13 154.16 1664.19 146.62 1678.76 142.72 1693.84 142.72 1708.41 146.62 1721.47 154.16 1732.14 164.83 1739.68 177.89 1743.58 192.46 1743.58 207.54 1739.68 222.11 1732.14 235.17 1721.47 245.84 1708.41 253.38 1693.84 257.28"/><path d="M 1471.24 257.28 1456.16 257.28 1441.59 253.38 1428.53 245.84 1417.86 235.17 1410.32 222.11 1406.42 207.54 1406.42 192.46 1410.32 177.89 1417.86 164.83 1428.53 154.16 1441.59 146.62 1456.16 142.72 1471.24 142.72 1485.81 146.62 1498.87 154.16 1509.54 164.83 1517.08 177.89 1520.98 192.46 1520.98 207.54 1517.08 222.11 1509.54 235.17 1498.87 245.84 1485.81 253.38 1471.24 257.28"/><path d="M 1183.84 257.28 1168.76 257.28 1154.19 253.38 1141.13 245.84 1130.46 235.17 1122.92 222.11 1119.02 207.54 1119.02 192.46 1122.92 177.89 1130.46 164.83 1141.13 154.16 1154.19 146.62 1168.76 142.72 1183.84 142.72 1198.41 146.62 1211.47 154.16 1222.14 164.83 1229.68 177.89 1233.58 192.46 1233.58 207.54 1229.68 222.11 1222.14 235.17 1211.47 245.84 1198.41 253.38 1183.84 257.28"/><path d="M 3810.38 331.95 3789.61 331.95 3769.1 328.7 3749.35 322.28 3730.84 312.86 3714.04 300.65 3699.35 285.96 3687.14 269.16 3677.72 250.65 3671.3 230.9 3668.05 210.38 3668.05 189.61 3671.3 169.1 3677.72 149.35 3687.14 130.84 3699.35 114.04 3714.04 99.35 3730.84 87.14 3749.35 77.72 3769.1 71.3 3789.61 68.05 3810.38 68.05 3830.9 71.3 3850.65 77.72 3869.16 87.14 3885.96 99.35 3900.65 114.04 3912.86 130.84 3922.29 149.35 3928.7 169.1 3931.95 189.61 3931.95 210.38 3928.7 230.9 3922.29 250.65 3912.86 269.16 3900.65 285.96 3885.96 300.65 3869.16 312.86 3850.65 322.28 3830.9 328.7 3810.38 331.95"/><path d="M 210.38 331.95 189.61 331.95 169.1 328.7 149.35 322.28 130.84 312.86 114.04 300.65 99.35 285.96 87.14 269.16 77.72 250.65 71.3 230.9 68.05 210.38 68.05 189.61 71.3 169.1 77.72 149.35 87.14 130.84 99.35 114.04 114.04 99.35 130.84 87.14 149.35 77.72 169.1 71.3 189.61 68.05 210.38 68.05 230.9 71.3 250.65 77.72 269.16 87.14 285.96 99.35 300.65 114.04 312.86 130.84 322.28 149.35 328.7 169.1 331.95 189.61 331.95 210.38 328.7 230.9 322.28 250.65 312.86 269.16 300.65 285.96 285.96 300.65 269.16 312.86 250.65 322.28 230.9 328.7 210.38 331.95"/></g></mask><circle cx="0" cy="0" r="39.37" id="sm-_zuM7Ft87_pad-99"/><circle cx="0" cy="0" r="30" id="sm-_zuM7Ft87_pad-100"/><circle cx="0" cy="0" r="122.05" id="sm-_zuM7Ft87_pad-101"/><circle cx="0" cy="0" r="127.955" id="sm-_zuM7Ft87_pad-102"/><circle cx="0" cy="0" r="11" id="sm-_zuM7Ft87_pad-103"/></defs><g transform="translate(0,4000) scale(1,-1)" fill="currentColor" stroke="currentColor"><g mask="url(#sm-_zuM7Ft87_clear-1)"><path d="M 3926.83 3988.44 3943.56 3981.5 3958.63 3971.44 3971.44 3958.63 3981.5 3943.56 3988.44 3926.83 3991.97 3909.06 3991.97 3900 3991.97 100 3991.97 90.94 3988.44 73.17 3981.5 56.44 3971.44 41.37 3958.63 28.56 3943.56 18.5 3926.83 11.56 3909.06 8.03 90.94 8.03 73.17 11.56 56.44 18.5 41.37 28.56 28.56 41.37 18.5 56.44 11.56 73.17 8.03 90.94 8.03 100 8.03 3900 8.03 3909.06 11.56 3926.83 18.5 3943.56 28.56 3958.63 41.37 3971.44 56.44 3981.5 73.17 3988.44 90.94 3991.97 3909.06 3991.97 3926.83 3988.44"/></g><use xlink:href="#sm-_zuM7Ft87_pad-99" x="204.65" y="1872.76"/><use xlink:href="#sm-_zuM7Ft87_pad-99" x="204.65" y="1585.35"/><use xlink:href="#sm-_zuM7Ft87_pad-99" x="206.18" y="2421.95"/><use xlink:href="#sm-_zuM7Ft87_pad-99" x="206.18" y="2134.55"/><use xlink:href="#sm-_zuM7Ft87_pad-99" x="210" y="3513.7"/><use xlink:href="#sm-_zuM7Ft87_pad-99" x="210" y="3226.3"/><use xlink:href="#sm-_zuM7Ft87_pad-99" x="204.65" y="2962.76"/><use xlink:href="#sm-_zuM7Ft87_pad-99" x="204.65" y="2675.35"/><use xlink:href="#sm-_zuM7Ft87_pad-99" x="1686.3" y="200"/><use xlink:href="#sm-_zuM7Ft87_pad-99" x="1973.7" y="200"/><use xlink:href="#sm-_zuM7Ft87_pad-99" x="1463.7" y="200"/><use xlink:href="#sm-_zuM7Ft87_pad-99" x="1176.3" y="200"/><use xlink:href="#sm-_zuM7Ft87_pad-100" x="1670" y="1800"/><use xlink:href="#sm-_zuM7Ft87_pad-100" x="1770" y="1500"/><use xlink:href="#sm-_zuM7Ft87_pad-100" x="1670" y="1500"/><use xlink:href="#sm-_zuM7Ft87_pad-100" x="1770" y="2400"/><use xlink:href="#sm-_zuM7Ft87_pad-100" x="1670" y="2500"/><use xlink:href="#sm-_zuM7Ft87_pad-100" x="1770" y="2500"/><use xlink:href="#sm-_zuM7Ft87_pad-100" x="1670" y="2600"/><use xlink:href="#sm-_zuM7Ft87_pad-100" x="3670" y="3500"/><use xlink:href="#sm-_zuM7Ft87_pad-100" x="3670" y="3400"/><use xlink:href="#sm-_zuM7Ft87_pad-100" x="3670" y="3300"/><use xlink:href="#sm-_zuM7Ft87_pad-100" x="3670" y="3200"/><use xlink:href="#sm-_zuM7Ft87_pad-100" x="3670" y="3100"/><use xlink:href="#sm-_zuM7Ft87_pad-100" x="3670" y="3000"/><use xlink:href="#sm-_zuM7Ft87_pad-100" x="3670" y="2900"/><use xlink:href="#sm-_zuM7Ft87_pad-100" x="3670" y="2800"/><use xlink:href="#sm-_zuM7Ft87_pad-100" x="3670" y="2700"/><use xlink:href="#sm-_zuM7Ft87_pad-100" x="3670" y="2600"/><use xlink:href="#sm-_zuM7Ft87_pad-100" x="3670" y="2500"/><use xlink:href="#sm-_zuM7Ft87_pad-100" x="3670" y="2400"/><use xlink:href="#sm-_zuM7Ft87_pad-100" x="3670" y="2300"/><use xlink:href="#sm-_zuM7Ft87_pad-100" x="3670" y="2200"/><use xlink:href="#sm-_zuM7Ft87_pad-100" x="3670" y="2100"/><use xlink:href="#sm-_zuM7Ft87_pad-100" x="3670" y="2000"/><use xlink:href="#sm-_zuM7Ft87_pad-100" x="3670" y="1900"/><use xlink:href="#sm-_zuM7Ft87_pad-100" x="3670" y="1800"/><use xlink:href="#sm-_zuM7Ft87_pad-100" x="3670" y="1700"/><use xlink:href="#sm-_zuM7Ft87_pad-100" x="3670" y="1600"/><use xlink:href="#sm-_zuM7Ft87_pad-100" x="3670" y="1500"/><use xlink:href="#sm-_zuM7Ft87_pad-100" x="3670" y="1400"/><use xlink:href="#sm-_zuM7Ft87_pad-100" x="3670" y="1300"/><use xlink:href="#sm-_zuM7Ft87_pad-100" x="3570" y="3500"/><use xlink:href="#sm-_zuM7Ft87_pad-100" x="3570" y="3400"/><use xlink:href="#sm-_zuM7Ft87_pad-100" x="3570" y="3300"/><use xlink:href="#sm-_zuM7Ft87_pad-100" x="3570" y="3200"/><use xlink:href="#sm-_zuM7Ft87_pad-100" x="3570" y="3100"/><use xlink:href="#sm-_zuM7Ft87_pad-100" x="3570" y="3000"/><use xlink:href="#sm-_zuM7Ft87_pad-100" x="3570" y="2900"/><use xlink:href="#sm-_zuM7Ft87_pad-100" x="3570" y="2800"/><use xlink:href="#sm-_zuM7Ft87_pad-100" x="3570" y="2700"/><use xlink:href="#sm-_zuM7Ft87_pad-100" x="3570" y="2600"/><use xlink:href="#sm-_zuM7Ft87_pad-100" x="3570" y="2500"/><use xlink:href="#sm-_zuM7Ft87_pad-100" x="3570" y="2400"/><use xlink:href="#sm-_zuM7Ft87_pad-100" x="3570" y="2300"/><use xlink:href="#sm-_zuM7Ft87_pad-100" x="3570" y="2200"/><use xlink:href="#sm-_zuM7Ft87_pad-100" x="3570" y="2100"/><use xlink:href="#sm-_zuM7Ft87_pad-100" x="3570" y="2000"/><use xlink:href="#sm-_zuM7Ft87_pad-100" x="3570" y="1900"/><use xlink:href="#sm-_zuM7Ft87_pad-100" x="3570" y="1800"/><use xlink:href="#sm-_zuM7Ft87_pad-100" x="3570" y="1700"/><use xlink:href="#sm-_zuM7Ft87_pad-100" x="3570" y="1600"/><use xlink:href="#sm-_zuM7Ft87_pad-100" x="3570" y="1500"/><use xlink:href="#sm-_zuM7Ft87_pad-100" x="3570" y="1400"/><use xlink:href="#sm-_zuM7Ft87_pad-100" x="3570" y="1300"/><use xlink:href="#sm-_zuM7Ft87_pad-100" x="1770" y="3500"/><use xlink:href="#sm-_zuM7Ft87_pad-100" x="1770" y="3400"/><use xlink:href="#sm-_zuM7Ft87_pad-100" x="1770" y="3300"/><use xlink:href="#sm-_zuM7Ft87_pad-100" x="1770" y="3200"/><use xlink:href="#sm-_zuM7Ft87_pad-100" x="1770" y="3100"/><use xlink:href="#sm-_zuM7Ft87_pad-100" x="1770" y="3000"/><use xlink:href="#sm-_zuM7Ft87_pad-100" x="1770" y="2900"/><use xlink:href="#sm-_zuM7Ft87_pad-100" x="1770" y="2800"/><use xlink:href="#sm-_zuM7Ft87_pad-100" x="1770" y="2700"/><use xlink:href="#sm-_zuM7Ft87_pad-100" x="1770" y="2600"/><use xlink:href="#sm-_zuM7Ft87_pad-100" x="1770" y="2300"/><use xlink:href="#sm-_zuM7Ft87_pad-100" x="1770" y="2200"/><use xlink:href="#sm-_zuM7Ft87_pad-100" x="1770" y="2100"/><use xlink:href="#sm-_zuM7Ft87_pad-100" x="1770" y="2000"/><use xlink:href="#sm-_zuM7Ft87_pad-100" x="1770" y="1900"/><use xlink:href="#sm-_zuM7Ft87_pad-100" x="1770" y="1800"/><use xlink:href="#sm-_zuM7Ft87_pad-100" x="1770" y="1700"/><use xlink:href="#sm-_zuM7Ft87_pad-100" x="1770" y="1600"/><use xlink:href="#sm-_zuM7Ft87_pad-100" x="1770" y="1400"/><use xlink:href="#sm-_zuM7Ft87_pad-100" x="1770" y="1300"/><use xlink:href="#sm-_zuM7Ft87_pad-100" x="1670" y="3500"/><use xlink:href="#sm-_zuM7Ft87_pad-100" x="1670" y="3400"/><use xlink:href="#sm-_zuM7Ft87_pad-100" x="1670" y="3300"/><use xlink:href="#sm-_zuM7Ft87_pad-100" x="1670" y="3200"/><use xlink:href="#sm-_zuM7Ft87_pad-100" x="1670" y="3100"/><use xlink:href="#sm-_zuM7Ft87_pad-100" x="1670" y="3000"/><use xlink:href="#sm-_zuM7Ft87_pad-100" x="1670" y="2900"/><use xlink:href="#sm-_zuM7Ft87_pad-100" x="1670" y="2800"/><use xlink:href="#sm-_zuM7Ft87_pad-100" x="1670" y="2700"/><use xlink:href="#sm-_zuM7Ft87_pad-100" x="1670" y="2400"/><use xlink:href="#sm-_zuM7Ft87_pad-100" x="1670" y="2300"/><use xlink:href="#sm-_zuM7Ft87_pad-100" x="1670" y="2200"/><use xlink:href="#sm-_zuM7Ft87_pad-100" x="1670" y="2100"/><use xlink:href="#sm-_zuM7Ft87_pad-100" x="1670" y="2000"/><use xlink:href="#sm-_zuM7Ft87_pad-100" x="1670" y="1900"/><use xlink:href="#sm-_zuM7Ft87_pad-100" x="1670" y="1700"/><use xlink:href="#sm-_zuM7Ft87_pad-100" x="1670" y="1600"/><use xlink:href="#sm-_zuM7Ft87_pad-100" x="1670" y="1400"/><use xlink:href="#sm-_zuM7Ft87_pad-100" x="1670" y="1300"/><use xlink:href="#sm-_zuM7Ft87_pad-101" x="3495" y="3700"/><use xlink:href="#sm-_zuM7Ft87_pad-101" x="1845" y="3700"/><use xlink:href="#sm-_zuM7Ft87_pad-101" x="3620" y="1100"/><use xlink:href="#sm-_zuM7Ft87_pad-101" x="1720" y="1100"/><use xlink:href="#sm-_zuM7Ft87_pad-102" x="200" y="3800"/><use xlink:href="#sm-_zuM7Ft87_pad-102" x="3800" y="200"/><use xlink:href="#sm-_zuM7Ft87_pad-102" x="3800" y="3800"/><use xlink:href="#sm-_zuM7Ft87_pad-102" x="200" y="200"/><use xlink:href="#sm-_zuM7Ft87_pad-103" x="430.43" y="740.2"/><use xlink:href="#sm-_zuM7Ft87_pad-103" x="2390.43" y="2240.2"/><use xlink:href="#sm-_zuM7Ft87_pad-103" x="2440.43" y="2230.2"/><use xlink:href="#sm-_zuM7Ft87_pad-103" x="2542.42" y="2365.35"/><use xlink:href="#sm-_zuM7Ft87_pad-103" x="2574.44" y="2365.62"/><use xlink:href="#sm-_zuM7Ft87_pad-103" x="2566.16" y="2390.47"/><use xlink:href="#sm-_zuM7Ft87_pad-103" x="2472.17" y="906.23"/><use xlink:href="#sm-_zuM7Ft87_pad-103" x="2502.21" y="913.2"/><use xlink:href="#sm-_zuM7Ft87_pad-103" x="2520.43" y="870.2"/><use xlink:href="#sm-_zuM7Ft87_pad-103" x="2510.43" y="890.2"/><use xlink:href="#sm-_zuM7Ft87_pad-103" x="370.43" y="770.2"/><use xlink:href="#sm-_zuM7Ft87_pad-103" x="1520.43" y="680.2"/><use xlink:href="#sm-_zuM7Ft87_pad-103" x="1520.43" y="760.2"/><use xlink:href="#sm-_zuM7Ft87_pad-103" x="2856.37" y="2267.58"/><use xlink:href="#sm-_zuM7Ft87_pad-103" x="2856.37" y="1810"/><use xlink:href="#sm-_zuM7Ft87_pad-103" x="2783.96" y="2110"/><use xlink:href="#sm-_zuM7Ft87_pad-103" x="1270.43" y="810.2"/><use xlink:href="#sm-_zuM7Ft87_pad-103" x="1430" y="650"/><use xlink:href="#sm-_zuM7Ft87_pad-103" x="1430.47" y="1317.04"/><use xlink:href="#sm-_zuM7Ft87_pad-103" x="1490" y="1720"/><use xlink:href="#sm-_zuM7Ft87_pad-103" x="720" y="670"/><use xlink:href="#sm-_zuM7Ft87_pad-103" x="850" y="840"/><use xlink:href="#sm-_zuM7Ft87_pad-103" x="2527.66" y="2423.23"/><use xlink:href="#sm-_zuM7Ft87_pad-103" x="2671.81" y="1998.19"/><use xlink:href="#sm-_zuM7Ft87_pad-103" x="1350" y="1030"/><use xlink:href="#sm-_zuM7Ft87_pad-103" x="930" y="920"/><use xlink:href="#sm-_zuM7Ft87_pad-103" x="1210" y="850"/><use xlink:href="#sm-_zuM7Ft87_pad-103" x="894.63" y="3546.89"/><use xlink:href="#sm-_zuM7Ft87_pad-103" x="1080" y="3650"/><use xlink:href="#sm-_zuM7Ft87_pad-103" x="920" y="2870"/><use xlink:href="#sm-_zuM7Ft87_pad-103" x="1040" y="2960"/><use xlink:href="#sm-_zuM7Ft87_pad-103" x="900" y="2240"/><use xlink:href="#sm-_zuM7Ft87_pad-103" x="1020" y="2350"/><use xlink:href="#sm-_zuM7Ft87_pad-103" x="870" y="1550"/><use xlink:href="#sm-_zuM7Ft87_pad-103" x="1010" y="1610"/><use xlink:href="#sm-_zuM7Ft87_pad-103" x="1200" y="1120"/><use xlink:href="#sm-_zuM7Ft87_pad-103" x="2610" y="2331.13"/><use xlink:href="#sm-_zuM7Ft87_pad-103" x="1370" y="1680"/><use xlink:href="#sm-_zuM7Ft87_pad-103" x="1106.36" y="3340.12"/><use xlink:href="#sm-_zuM7Ft87_pad-103" x="1116.36" y="2620.12"/><use xlink:href="#sm-_zuM7Ft87_pad-103" x="1146.36" y="2040.12"/><use xlink:href="#sm-_zuM7Ft87_pad-103" x="1066.36" y="1260.12"/><use xlink:href="#sm-_zuM7Ft87_pad-103" x="1266.36" y="1170.12"/><use xlink:href="#sm-_zuM7Ft87_pad-103" x="426.36" y="770.12"/><use xlink:href="#sm-_zuM7Ft87_pad-103" x="400" y="800"/><use xlink:href="#sm-_zuM7Ft87_pad-103" x="400" y="750"/><use xlink:href="#sm-_zuM7Ft87_pad-103" x="2406.36" y="2220.12"/><use xlink:href="#sm-_zuM7Ft87_pad-103" x="2441.59" y="2258.18"/><use xlink:href="#sm-_zuM7Ft87_pad-103" x="2420" y="2250"/><use xlink:href="#sm-_zuM7Ft87_pad-103" x="2486.36" y="860.12"/><use xlink:href="#sm-_zuM7Ft87_pad-103" x="2476.36" y="880.12"/><use xlink:href="#sm-_zuM7Ft87_pad-103" x="2540.95" y="2391.09"/><use xlink:href="#sm-_zuM7Ft87_pad-103" x="2516.36" y="2390.12"/><use xlink:href="#sm-_zuM7Ft87_pad-103" x="2240" y="2260"/><use xlink:href="#sm-_zuM7Ft87_pad-103" x="2260" y="2290"/><use xlink:href="#sm-_zuM7Ft87_pad-103" x="2280" y="2310"/><use xlink:href="#sm-_zuM7Ft87_pad-103" x="1270" y="912.6"/><use xlink:href="#sm-_zuM7Ft87_pad-103" x="1136.36" y="3330.12"/><use xlink:href="#sm-_zuM7Ft87_pad-103" x="1076.36" y="3320.12"/><use xlink:href="#sm-_zuM7Ft87_pad-103" x="1137.38" y="2646.21"/><use xlink:href="#sm-_zuM7Ft87_pad-103" x="1086.36" y="2640.12"/><use xlink:href="#sm-_zuM7Ft87_pad-103" x="1106.36" y="2020.12"/><use xlink:href="#sm-_zuM7Ft87_pad-103" x="1156.36" y="2010.12"/><use xlink:href="#sm-_zuM7Ft87_pad-103" x="1036.36" y="1280.12"/><use xlink:href="#sm-_zuM7Ft87_pad-103" x="1086.36" y="1280.12"/><use xlink:href="#sm-_zuM7Ft87_pad-103" x="1246.36" y="1200.12"/><use xlink:href="#sm-_zuM7Ft87_pad-103" x="1296.36" y="1200.12"/><use xlink:href="#sm-_zuM7Ft87_pad-103" x="1100" y="1110"/><use xlink:href="#sm-_zuM7Ft87_pad-103" x="1040" y="2870"/><use xlink:href="#sm-_zuM7Ft87_pad-103" x="1270" y="1200"/><use xlink:href="#sm-_zuM7Ft87_pad-103" x="1111.7" y="2644.62"/><use xlink:href="#sm-_zuM7Ft87_pad-103" x="1042.13" y="2288.26"/><use xlink:href="#sm-_zuM7Ft87_pad-103" x="1130" y="2015.63"/><use xlink:href="#sm-_zuM7Ft87_pad-103" x="1198.87" y="1950"/><use xlink:href="#sm-_zuM7Ft87_pad-103" x="2120" y="2210"/><use xlink:href="#sm-_zuM7Ft87_pad-103" x="530" y="859.91"/><use xlink:href="#sm-_zuM7Ft87_pad-103" x="1340" y="2370"/><use xlink:href="#sm-_zuM7Ft87_pad-103" x="1430" y="2377.26"/><use xlink:href="#sm-_zuM7Ft87_pad-103" x="1350" y="2430"/><use xlink:href="#sm-_zuM7Ft87_pad-103" x="1350" y="3070"/><use xlink:href="#sm-_zuM7Ft87_pad-103" x="1350" y="3010"/><use xlink:href="#sm-_zuM7Ft87_pad-103" x="1350" y="2980"/><use xlink:href="#sm-_zuM7Ft87_pad-103" x="1370" y="3750"/><use xlink:href="#sm-_zuM7Ft87_pad-103" x="1370" y="3690"/><use xlink:href="#sm-_zuM7Ft87_pad-103" x="1930" y="1380"/><use xlink:href="#sm-_zuM7Ft87_pad-103" x="2080" y="1860"/><use xlink:href="#sm-_zuM7Ft87_pad-103" x="2237.43" y="2334.1"/><use xlink:href="#sm-_zuM7Ft87_pad-103" x="2030" y="2360"/><use xlink:href="#sm-_zuM7Ft87_pad-103" x="2250" y="2360"/><use xlink:href="#sm-_zuM7Ft87_pad-103" x="2201.86" y="308.83"/><use xlink:href="#sm-_zuM7Ft87_pad-103" x="2150" y="2230"/><use xlink:href="#sm-_zuM7Ft87_pad-103" x="2230" y="1890"/><use xlink:href="#sm-_zuM7Ft87_pad-103" x="650" y="1320"/><use xlink:href="#sm-_zuM7Ft87_pad-103" x="1060" y="1280"/><use xlink:href="#sm-_zuM7Ft87_pad-103" x="1250" y="1950"/><use xlink:href="#sm-_zuM7Ft87_pad-103" x="1220" y="1620"/><use xlink:href="#sm-_zuM7Ft87_pad-103" x="1250" y="1900"/><use xlink:href="#sm-_zuM7Ft87_pad-103" x="1110" y="3310"/><use xlink:href="#sm-_zuM7Ft87_pad-103" x="1080" y="3590"/><use xlink:href="#sm-_zuM7Ft87_pad-103" x="1300" y="3610"/><use xlink:href="#sm-_zuM7Ft87_pad-103" x="1553.97" y="3048.67"/><use xlink:href="#sm-_zuM7Ft87_pad-103" x="1440" y="3020"/><use xlink:href="#sm-_zuM7Ft87_pad-103" x="1290" y="2940"/><use xlink:href="#sm-_zuM7Ft87_pad-103" x="1281.86" y="2298.83"/><use xlink:href="#sm-_zuM7Ft87_pad-103" x="1021.86" y="1111.48"/><use xlink:href="#sm-_zuM7Ft87_pad-103" x="2390" y="1810"/><use xlink:href="#sm-_zuM7Ft87_pad-103" x="2604.81" y="1945.19"/><use xlink:href="#sm-_zuM7Ft87_pad-103" x="1190" y="1900"/><use xlink:href="#sm-_zuM7Ft87_pad-103" x="1452.81" y="3700.33"/><use xlink:href="#sm-_zuM7Ft87_pad-103" x="1517.51" y="2038.26"/><use xlink:href="#sm-_zuM7Ft87_pad-103" x="1537.51" y="2428.26"/><use xlink:href="#sm-_zuM7Ft87_pad-103" x="1337.51" y="2338.26"/><use xlink:href="#sm-_zuM7Ft87_pad-103" x="1470.47" y="2627.04"/><use xlink:href="#sm-_zuM7Ft87_pad-103" x="1050.47" y="1557.04"/><use xlink:href="#sm-_zuM7Ft87_pad-103" x="1280.47" y="1647.04"/><use xlink:href="#sm-_zuM7Ft87_pad-103" x="1280.47" y="1687.04"/><use xlink:href="#sm-_zuM7Ft87_pad-103" x="1280.47" y="1727.04"/><use xlink:href="#sm-_zuM7Ft87_pad-103" x="1500.47" y="3317.04"/><use xlink:href="#sm-_zuM7Ft87_pad-103" x="1570.47" y="3717.04"/><use xlink:href="#sm-_zuM7Ft87_pad-103" x="1370.47" y="3657.04"/><use xlink:href="#sm-_zuM7Ft87_pad-103" x="680.17" y="3306.25"/><use xlink:href="#sm-_zuM7Ft87_pad-103" x="650.17" y="3256.25"/><use xlink:href="#sm-_zuM7Ft87_pad-103" x="600.17" y="3256.25"/><use xlink:href="#sm-_zuM7Ft87_pad-103" x="550.17" y="3256.25"/><use xlink:href="#sm-_zuM7Ft87_pad-103" x="530.17" y="3306.25"/><use xlink:href="#sm-_zuM7Ft87_pad-103" x="600.17" y="3356.25"/><use xlink:href="#sm-_zuM7Ft87_pad-103" x="650.17" y="3356.25"/><use xlink:href="#sm-_zuM7Ft87_pad-103" x="550.17" y="3356.25"/><use xlink:href="#sm-_zuM7Ft87_pad-103" x="497.51" y="3428.26"/><use xlink:href="#sm-_zuM7Ft87_pad-103" x="467.51" y="3378.26"/><use xlink:href="#sm-_zuM7Ft87_pad-103" x="417.51" y="3378.26"/><use xlink:href="#sm-_zuM7Ft87_pad-103" x="367.51" y="3378.26"/><use xlink:href="#sm-_zuM7Ft87_pad-103" x="347.51" y="3428.26"/><use xlink:href="#sm-_zuM7Ft87_pad-103" x="417.51" y="3478.26"/><use xlink:href="#sm-_zuM7Ft87_pad-103" x="467.51" y="3478.26"/><use xlink:href="#sm-_zuM7Ft87_pad-103" x="367.51" y="3478.26"/><use xlink:href="#sm-_zuM7Ft87_pad-103" x="493.28" y="2879.59"/><use xlink:href="#sm-_zuM7Ft87_pad-103" x="463.28" y="2829.59"/><use xlink:href="#sm-_zuM7Ft87_pad-103" x="413.28" y="2829.59"/><use xlink:href="#sm-_zuM7Ft87_pad-103" x="363.28" y="2829.59"/><use xlink:href="#sm-_zuM7Ft87_pad-103" x="343.28" y="2879.59"/><use xlink:href="#sm-_zuM7Ft87_pad-103" x="413.28" y="2929.59"/><use xlink:href="#sm-_zuM7Ft87_pad-103" x="463.28" y="2929.59"/><use xlink:href="#sm-_zuM7Ft87_pad-103" x="363.28" y="2929.59"/><use xlink:href="#sm-_zuM7Ft87_pad-103" x="677.35" y="2756.17"/><use xlink:href="#sm-_zuM7Ft87_pad-103" x="647.35" y="2706.17"/><use xlink:href="#sm-_zuM7Ft87_pad-103" x="597.35" y="2706.17"/><use xlink:href="#sm-_zuM7Ft87_pad-103" x="547.35" y="2706.17"/><use xlink:href="#sm-_zuM7Ft87_pad-103" x="527.35" y="2756.17"/><use xlink:href="#sm-_zuM7Ft87_pad-103" x="597.35" y="2806.17"/><use xlink:href="#sm-_zuM7Ft87_pad-103" x="647.35" y="2806.17"/><use xlink:href="#sm-_zuM7Ft87_pad-103" x="547.35" y="2806.17"/><use xlink:href="#sm-_zuM7Ft87_pad-103" x="675.94" y="2215.96"/><use xlink:href="#sm-_zuM7Ft87_pad-103" x="645.94" y="2165.96"/><use xlink:href="#sm-_zuM7Ft87_pad-103" x="595.94" y="2165.96"/><use xlink:href="#sm-_zuM7Ft87_pad-103" x="545.94" y="2165.96"/><use xlink:href="#sm-_zuM7Ft87_pad-103" x="525.94" y="2215.96"/><use xlink:href="#sm-_zuM7Ft87_pad-103" x="595.94" y="2265.96"/><use xlink:href="#sm-_zuM7Ft87_pad-103" x="645.94" y="2265.96"/><use xlink:href="#sm-_zuM7Ft87_pad-103" x="545.94" y="2265.96"/><use xlink:href="#sm-_zuM7Ft87_pad-103" x="496.81" y="2335.85"/><use xlink:href="#sm-_zuM7Ft87_pad-103" x="466.81" y="2285.85"/><use xlink:href="#sm-_zuM7Ft87_pad-103" x="416.81" y="2285.85"/><use xlink:href="#sm-_zuM7Ft87_pad-103" x="366.81" y="2285.85"/><use xlink:href="#sm-_zuM7Ft87_pad-103" x="346.81" y="2335.85"/><use xlink:href="#sm-_zuM7Ft87_pad-103" x="416.81" y="2385.85"/><use xlink:href="#sm-_zuM7Ft87_pad-103" x="466.81" y="2385.85"/><use xlink:href="#sm-_zuM7Ft87_pad-103" x="366.81" y="2385.85"/><use xlink:href="#sm-_zuM7Ft87_pad-103" x="677.75" y="1666.27"/><use xlink:href="#sm-_zuM7Ft87_pad-103" x="647.75" y="1616.27"/><use xlink:href="#sm-_zuM7Ft87_pad-103" x="597.75" y="1616.27"/><use xlink:href="#sm-_zuM7Ft87_pad-103" x="547.75" y="1616.27"/><use xlink:href="#sm-_zuM7Ft87_pad-103" x="527.75" y="1666.27"/><use xlink:href="#sm-_zuM7Ft87_pad-103" x="597.75" y="1716.27"/><use xlink:href="#sm-_zuM7Ft87_pad-103" x="647.75" y="1716.27"/><use xlink:href="#sm-_zuM7Ft87_pad-103" x="547.75" y="1716.27"/><use xlink:href="#sm-_zuM7Ft87_pad-103" x="493.41" y="1788.4"/><use xlink:href="#sm-_zuM7Ft87_pad-103" x="463.41" y="1738.4"/><use xlink:href="#sm-_zuM7Ft87_pad-103" x="413.41" y="1738.4"/><use xlink:href="#sm-_zuM7Ft87_pad-103" x="363.41" y="1738.4"/><use xlink:href="#sm-_zuM7Ft87_pad-103" x="343.41" y="1788.4"/><use xlink:href="#sm-_zuM7Ft87_pad-103" x="413.41" y="1838.4"/><use xlink:href="#sm-_zuM7Ft87_pad-103" x="463.41" y="1838.4"/><use xlink:href="#sm-_zuM7Ft87_pad-103" x="363.41" y="1838.4"/><use xlink:href="#sm-_zuM7Ft87_pad-103" x="551.24" y="1144.39"/><use xlink:href="#sm-_zuM7Ft87_pad-103" x="300" y="990"/><use xlink:href="#sm-_zuM7Ft87_pad-103" x="260" y="990"/><use xlink:href="#sm-_zuM7Ft87_pad-103" x="260" y="950"/><use xlink:href="#sm-_zuM7Ft87_pad-103" x="300" y="950"/><use xlink:href="#sm-_zuM7Ft87_pad-103" x="180" y="790"/><use xlink:href="#sm-_zuM7Ft87_pad-103" x="411.24" y="1074.39"/><use xlink:href="#sm-_zuM7Ft87_pad-103" x="970.43" y="880.2"/><use xlink:href="#sm-_zuM7Ft87_pad-103" x="1470.43" y="1050.2"/><use xlink:href="#sm-_zuM7Ft87_pad-103" x="1890" y="420"/><use xlink:href="#sm-_zuM7Ft87_pad-103" x="770" y="130"/><use xlink:href="#sm-_zuM7Ft87_pad-103" x="1330" y="550"/><use xlink:href="#sm-_zuM7Ft87_pad-103" x="1310" y="470"/><use xlink:href="#sm-_zuM7Ft87_pad-103" x="2450" y="1980"/><use xlink:href="#sm-_zuM7Ft87_pad-103" x="1330" y="650"/><use xlink:href="#sm-_zuM7Ft87_pad-103" x="2340" y="2440"/><use xlink:href="#sm-_zuM7Ft87_pad-103" x="2550" y="2240"/><use xlink:href="#sm-_zuM7Ft87_pad-103" x="1380" y="520"/><use xlink:href="#sm-_zuM7Ft87_pad-103" x="1330" y="600"/><use xlink:href="#sm-_zuM7Ft87_pad-103" x="1380" y="680"/><use xlink:href="#sm-_zuM7Ft87_pad-103" x="1430" y="600"/><use xlink:href="#sm-_zuM7Ft87_pad-103" x="1430" y="550"/><use xlink:href="#sm-_zuM7Ft87_pad-103" x="1310" y="370"/><use xlink:href="#sm-_zuM7Ft87_pad-103" x="1310" y="420"/><use xlink:href="#sm-_zuM7Ft87_pad-103" x="1260" y="490"/><use xlink:href="#sm-_zuM7Ft87_pad-103" x="1210" y="470"/><use xlink:href="#sm-_zuM7Ft87_pad-103" x="1210" y="420"/><use xlink:href="#sm-_zuM7Ft87_pad-103" x="1210" y="370"/><use xlink:href="#sm-_zuM7Ft87_pad-103" x="1260" y="340"/></g></svg>