<svg xmlns="http://www.w3.org/2000/svg" viewBox="0 0 1600 1000" role="img" aria-label="Recovery System bottom PCB render placeholder">
  <rect width="1600" height="1000" fill="#0b1018"/>
  <rect x="115" y="110" width="1370" height="780" rx="42" fill="#143820" stroke="#25b77f" stroke-width="8"/>
  <g opacity="0.2" stroke="#bbf7d0" stroke-width="2"><path d="M170 190h1260M170 300h1260M170 410h1260M170 520h1260M170 630h1260M170 740h1260"/><path d="M245 150v700M395 150v700M545 150v700M695 150v700M845 150v700M995 150v700M1145 150v700M1295 150v700"/></g>
  <g fill="#8ecae6" stroke="#d2f4ff" stroke-width="3"><rect x="210" y="585" width="445" height="190" rx="12"/><rect x="770" y="240" width="390" height="165" rx="12"/><rect x="980" y="590" width="300" height="135" rx="12"/></g>
  <g fill="none" stroke="#d2f4ff" stroke-width="9" stroke-linecap="round"><path d="M440 685c235-175 410-255 720-340"/><path d="M1115 665c-290-35-510-25-780 35"/></g>
  <g font-family="Inter, Arial" fill="#f8fafc"><text x="145" y="82" font-size="36" font-weight="700">Recovery System - Bottom Layer Placeholder</text><text x="250" y="700" font-size="27" font-weight="700">Flight / Recovery Connectors</text><text x="810" y="340" font-size="26" font-weight="700">Return Paths</text><text x="1015" y="675" font-size="24" font-weight="700">Stitching / Test</text></g>
</svg>
