<svg xmlns="http://www.w3.org/2000/svg" viewBox="0 0 1600 1000" role="img" aria-label="Recovery System top PCB render placeholder">
  <rect width="1600" height="1000" fill="#080b10"/>
  <rect x="115" y="110" width="1370" height="780" rx="42" fill="#17324d" stroke="#55b8ff" stroke-width="8"/>
  <g opacity="0.2" stroke="#bfdbfe" stroke-width="2"><path d="M170 190h1260M170 300h1260M170 410h1260M170 520h1260M170 630h1260M170 740h1260"/><path d="M245 150v700M395 150v700M545 150v700M695 150v700M845 150v700M995 150v700M1145 150v700M1295 150v700"/></g>
  <g fill="#d48a3a" stroke="#f0c35a" stroke-width="3"><rect x="240" y="230" width="365" height="170" rx="12"/><rect x="635" y="575" width="380" height="155" rx="12"/><rect x="1010" y="420" width="420" height="230" rx="12"/><rect x="240" y="620" width="260" height="120" rx="12"/></g>
  <g fill="none" stroke="#f0c35a" stroke-width="10" stroke-linecap="round"><path d="M420 315c250 40 430 95 700 160"/><path d="M1180 540c-250 65-430 70-760 120"/><path d="M1240 510v170"/></g>
  <g font-family="Inter, Arial" fill="#f8fafc"><text x="145" y="82" font-size="36" font-weight="700">Recovery System - Top Layer Placeholder</text><text x="270" y="325" font-size="27" font-weight="700">48 V / 24 V Power</text><text x="665" y="670" font-size="26" font-weight="700">Voting + MCU Logic</text><text x="1040" y="545" font-size="27" font-weight="700">Recovery Drivers</text><text x="270" y="695" font-size="24" font-weight="700">Connectors</text></g>
</svg>
